<svg width="1024" height="1024" viewBox="0 0 1024 1024" xmlns="http://www.w3.org/2000/svg"><rect width="100%" height="100%" fill="white"/><g><circle data-type="point" data-label="conn_000" data-x="5" data-y="3.74" cx="983.9999999999998" cy="158.94400000000024" r="28.792" fill="red" stroke="#bd0f6d" stroke-width="28.792"/></g><g><circle data-type="point" data-label="conn_000" data-x="5" data-y="2.36" cx="983.9999999999998" cy="289.21600000000024" r="28.792" fill="red" stroke="#bd0f6d" stroke-width="28.792"/></g><g><circle data-type="point" data-label="conn_001" data-x="4.0600000000000005" data-y="5" cx="895.2639999999999" cy="40.000000000000284" r="28.792" fill="red" stroke="#3bbd0f" stroke-width="28.792"/></g><g><circle data-type="point" data-label="conn_001" data-x="3.42" data-y="-5" cx="834.8479999999997" cy="984" r="28.792" fill="red" stroke="#3bbd0f" stroke-width="28.792"/></g><g><circle data-type="point" data-label="conn_002" data-x="5" data-y="-3.08" cx="983.9999999999998" cy="802.752" r="28.792" fill="red" stroke="#170fbd" stroke-width="28.792"/></g><g><circle data-type="point" data-label="conn_002" data-x="-5" data-y="3.4" cx="40.000000000000114" cy="191.04000000000025" r="28.792" fill="blue" stroke="#170fbd" stroke-width="28.792"/></g><g><circle data-type="point" data-label="conn_003" data-x="5" data-y="4.86" cx="983.9999999999998" cy="53.216000000000236" r="28.792" fill="red" stroke="#bd490f" stroke-width="28.792"/></g><g><circle data-type="point" data-label="conn_003" data-x="-5" data-y="-1.74" cx="40.000000000000114" cy="676.2560000000001" r="28.792" fill="blue" stroke="#bd490f" stroke-width="28.792"/></g><g><circle data-type="point" data-label="conn_004" data-x="-0.34" data-y="-5" cx="479.90399999999994" cy="984" r="28.792" fill="blue" stroke="#0fbd7c" stroke-width="28.792"/></g><g><circle data-type="point" data-label="conn_004" data-x="-5" data-y="2.7800000000000002" cx="40.000000000000114" cy="249.5680000000002" r="28.792" fill="blue" stroke="#0fbd7c" stroke-width="28.792"/></g><g><circle data-type="point" data-label="conn_005" data-x="5" data-y="-4.32" cx="983.9999999999998" cy="919.808" r="28.792" fill="blue" stroke="#ae0fbd" stroke-width="28.792"/></g><g><circle data-type="point" data-label="conn_005" data-x="-5" data-y="-3.3200000000000003" cx="40.000000000000114" cy="825.408" r="28.792" fill="blue" stroke="#ae0fbd" stroke-width="28.792"/></g><g><circle data-type="point" data-label="conn_006" data-x="-5" data-y="4.18" cx="40.000000000000114" cy="117.4080000000003" r="28.792" fill="blue" stroke="#98bd0f" stroke-width="28.792"/></g><g><circle data-type="point" data-label="conn_006" data-x="5" data-y="-1.92" cx="983.9999999999998" cy="693.248" r="28.792" fill="blue" stroke="#98bd0f" stroke-width="28.792"/></g><g><circle data-type="point" data-label="conn_007" data-x="4.4" data-y="-5" cx="927.3599999999998" cy="984" r="28.792" fill="red" stroke="#0f66bd" stroke-width="28.792"/></g><g><circle data-type="point" data-label="conn_007" data-x="-2.12" data-y="-5" cx="311.872" cy="984" r="28.792" fill="blue" stroke="#0f66bd" stroke-width="28.792"/></g><g><circle data-type="point" data-label="conn_008" data-x="0.54" data-y="-5" cx="562.9759999999999" cy="984" r="28.792" fill="blue" stroke="#bd0f33" stroke-width="28.792"/></g><g><circle data-type="point" data-label="conn_008" data-x="-0.98" data-y="5" cx="419.488" cy="40.000000000000284" r="28.792" fill="blue" stroke="#bd0f33" stroke-width="28.792"/></g><g><circle data-type="point" data-label="conn_009" data-x="0.84" data-y="5" cx="591.2959999999999" cy="40.000000000000284" r="28.792" fill="blue" stroke="#0fbd1e" stroke-width="28.792"/></g><g><circle data-type="point" data-label="conn_009" data-x="5" data-y="1.02" cx="983.9999999999998" cy="415.71200000000016" r="28.792" fill="red" stroke="#0fbd1e" stroke-width="28.792"/></g><g><polyline data-points="0.5555555555555567,-5.000000000000001 0.4545454545454551,-4.898989898989899 0.3535353535353544,-4.7979797979797985 0.2525252525252529,-4.696969696969697 0.1515151515151522,-4.595959595959596 0.050505050505051545,-4.494949494949496 -0.05050505050505001,-4.393939393939394 -0.15151515151515066,-4.292929292929293 -0.2525252525252522,-4.191919191919193 -0.35353535353535287,-4.090909090909091 -0.4545454545454544,-3.98989898989899 -0.555555555555555,-3.8888888888888884 -0.6565656565656557,-3.7878787878787876 -0.7575757575757572,-3.6868686868686864 -0.8585858585858579,-3.5858585858585856 -0.9595959595959596,-3.484848484848485 -0.9595959595959596,-3.383838383838383 -0.9595959595959596,-3.2828282828282824 -0.9595959595959596,-3.1818181818181817 -0.9595959595959596,-3.0808080808080804 -0.9595959595959596,-2.9797979797979792 -0.9595959595959596,-2.8787878787878785 -0.9595959595959596,-2.7777777777777777 -0.9595959595959596,-2.6767676767676765 -0.9595959595959596,-2.5757575757575752 -0.9595959595959596,-2.474747474747474 -0.9595959595959596,-2.3737373737373733 -0.9595959595959596,-2.2727272727272725 -0.9595959595959596,-2.1717171717171713 -0.9595959595959596,-2.07070707070707 -0.9595959595959596,-1.9696969696969693 -0.9595959595959596,-1.8686868686868683 -0.9595959595959596,-1.7676767676767675 -0.9595959595959596,-1.6666666666666665 -0.9595959595959596,-1.5656565656565653 -0.9595959595959596,-1.4646464646464643 -0.9595959595959596,-1.363636363636363 -0.9595959595959596,-1.2626262626262625 -0.9595959595959596,-1.1616161616161613 -0.9595959595959596,-1.0606060606060603 -0.9595959595959596,-0.9595959595959596 -0.9595959595959596,-0.8585858585858579 -0.9595959595959596,-0.7575757575757572 -0.9595959595959596,-0.6565656565656557 -0.9595959595959596,-0.555555555555555 -0.9595959595959596,-0.4545454545454544 -0.9595959595959596,-0.35353535353535287 -0.9595959595959596,-0.2525252525252522 -0.9595959595959596,-0.15151515151515066 -0.9595959595959596,-0.05050505050505001 -0.9595959595959596,0.050505050505051545 -0.9595959595959596,0.1515151515151522 -0.9595959595959596,0.2525252525252529 -0.9595959595959596,0.3535353535353544 -0.9595959595959596,0.4545454545454551 -0.9595959595959596,0.5555555555555567 -0.9595959595959596,0.6565656565656574 -0.9595959595959596,0.7575757575757579 -0.9595959595959596,0.8585858585858596 -0.9595959595959596,0.9595959595959602 -0.9595959595959596,1.0606060606060617 -0.9595959595959596,1.1616161616161622 -0.9595959595959596,1.262626262626263 -0.9595959595959596,1.3636363636363644 -0.9595959595959596,1.4646464646464652 -0.9595959595959596,1.5656565656565666 -0.9595959595959596,1.6666666666666674 -0.9595959595959596,1.767676767676768 -0.9595959595959596,1.8686868686868696 -0.9595959595959596,1.9696969696969702 -0.9595959595959596,2.070707070707072 -0.9595959595959596,2.1717171717171726 -0.9595959595959596,2.2727272727272734 -0.9595959595959596,2.373737373737375 -0.9595959595959596,2.4747474747474754 -0.9595959595959596,2.575757575757577 -0.9595959595959596,2.676767676767678 -0.9595959595959596,2.7777777777777786 -0.9595959595959596,2.87878787878788 -0.9595959595959596,2.9797979797979806 -0.9595959595959596,3.080808080808082 -0.9595959595959596,3.181818181818183 -0.9595959595959596,3.2828282828282833 -0.9595959595959596,3.383838383838384 -0.9595959595959596,3.4848484848484866 -0.9595959595959596,3.5858585858585874 -0.9595959595959596,3.6868686868686877 -0.9595959595959596,3.7878787878787885 -0.9595959595959596,3.8888888888888893 -0.9595959595959596,3.989898989898992 -0.9595959595959596,4.090909090909092 -0.9595959595959596,4.191919191919193 -0.9595959595959596,4.292929292929293 -0.9595959595959596,4.393939393939394 -0.9595959595959596,4.494949494949497 -0.9595959595959596,4.595959595959597 -0.9595959595959596,4.696969696969697 -0.9595959595959596,4.7979797979797985 -0.9595959595959596,4.898989898989901 -0.9595959595959596,5.000000000000002" data-type="line" data-label="" points="564.4444444444445,984 554.9090909090909,974.4646464646464 545.3737373737374,964.9292929292928 535.8383838383838,955.3939393939394 526.3030303030303,945.8585858585858 516.7676767676768,936.3232323232323 507.2323232323232,926.7878787878788 497.69696969696975,917.2525252525252 488.16161616161617,907.7171717171718 478.62626262626264,898.1818181818181 469.09090909090907,888.6464646464647 459.55555555555554,879.1111111111111 450.0202020202021,869.5757575757575 440.4848484848485,860.0404040404039 430.949494949495,850.5050505050505 421.4141414141414,840.969696969697 421.4141414141414,831.4343434343434 421.4141414141414,821.8989898989898 421.4141414141414,812.3636363636363 421.4141414141414,802.8282828282828 421.4141414141414,793.2929292929292 421.4141414141414,783.7575757575758 421.4141414141414,774.2222222222222 421.4141414141414,764.6868686868687 421.4141414141414,755.1515151515151 421.4141414141414,745.6161616161615 421.4141414141414,736.0808080808081 421.4141414141414,726.5454545454545 421.4141414141414,717.010101010101 421.4141414141414,707.4747474747475 421.4141414141414,697.939393939394 421.4141414141414,688.4040404040404 421.4141414141414,678.8686868686868 421.4141414141414,669.3333333333334 421.4141414141414,659.7979797979798 421.4141414141414,650.2626262626263 421.4141414141414,640.7272727272727 421.4141414141414,631.1919191919193 421.4141414141414,621.6565656565657 421.4141414141414,612.1212121212121 421.4141414141414,602.5858585858587 421.4141414141414,593.0505050505051 421.4141414141414,583.5151515151516 421.4141414141414,573.979797979798 421.4141414141414,564.4444444444445 421.4141414141414,554.909090909091 421.4141414141414,545.3737373737374 421.4141414141414,535.838383838384 421.4141414141414,526.3030303030304 421.4141414141414,516.7676767676768 421.4141414141414,507.23232323232327 421.4141414141414,497.69696969696975 421.4141414141414,488.1616161616163 421.4141414141414,478.6262626262627 421.4141414141414,469.0909090909092 421.4141414141414,459.5555555555556 421.4141414141414,450.0202020202021 421.4141414141414,440.4848484848486 421.4141414141414,430.94949494949503 421.4141414141414,421.4141414141415 421.4141414141414,411.87878787878793 421.4141414141414,402.3434343434344 421.4141414141414,392.80808080808094 421.4141414141414,383.27272727272737 421.4141414141414,373.73737373737384 421.4141414141414,364.2020202020203 421.4141414141414,354.66666666666674 421.4141414141414,345.1313131313133 421.4141414141414,335.5959595959597 421.4141414141414,326.06060606060623 421.4141414141414,316.5252525252526 421.4141414141414,306.9898989898991 421.4141414141414,297.4545454545456 421.4141414141414,287.91919191919203 421.4141414141414,278.38383838383857 421.4141414141414,268.84848484848493 421.4141414141414,259.3131313131314 421.4141414141414,249.77777777777794 421.4141414141414,240.24242424242436 421.4141414141414,230.70707070707084 421.4141414141414,221.17171717171726 421.4141414141414,211.63636363636374 421.4141414141414,202.10101010101027 421.4141414141414,192.56565656565675 421.4141414141414,183.03030303030312 421.4141414141414,173.4949494949496 421.4141414141414,163.95959595959613 421.4141414141414,154.4242424242426 421.4141414141414,144.88888888888908 421.4141414141414,135.35353535353545 421.4141414141414,125.81818181818198 421.4141414141414,116.28282828282846 421.4141414141414,106.747474747475 421.4141414141414,97.21212121212153 421.4141414141414,87.67676767676778 421.4141414141414,78.14141414141432 421.4141414141414,68.60606060606085 421.4141414141414,59.07070707070733 421.4141414141414,49.53535353535369 421.4141414141414,40.000000000000114" fill="none" stroke="rgba(0,0,255,0.75)" stroke-width="14.159999999999995"/></g><g><polyline data-points="5.000000000000002,4.898989898989901 4.898989898989901,4.7979797979797985 4.7979797979797985,4.696969696969697 4.696969696969697,4.595959595959597 4.595959595959597,4.494949494949497 4.494949494949497,4.393939393939394 4.393939393939394,4.292929292929293 4.292929292929293,4.191919191919193 4.191919191919193,4.090909090909092 4.090909090909092,3.989898989898992 3.989898989898992,3.8888888888888893 3.8888888888888893,3.7878787878787885 3.7878787878787885,3.6868686868686877 3.6868686868686877,3.5858585858585874 3.5858585858585874,3.4848484848484866 3.4848484848484866,3.383838383838384 3.383838383838384,3.2828282828282833 3.2828282828282833,3.181818181818183 3.181818181818183,3.080808080808082 3.080808080808082,2.9797979797979806 2.9797979797979806,2.87878787878788 2.87878787878788,2.7777777777777786 2.7777777777777786,2.676767676767678 2.676767676767678,2.575757575757577 2.575757575757577,2.4747474747474754 2.4747474747474754,2.373737373737375 2.373737373737375,2.2727272727272734 2.2727272727272734,2.1717171717171726 2.1717171717171726,2.070707070707072 2.070707070707072,1.9696969696969702 1.9696969696969702,1.8686868686868696 1.8686868686868696,1.767676767676768 1.767676767676768,1.6666666666666674 1.6666666666666674,1.5656565656565666 1.5656565656565666,1.4646464646464652 1.4646464646464652,1.3636363636363644 1.3636363636363644,1.262626262626263 1.262626262626263,1.1616161616161622 1.1616161616161622,1.0606060606060617 1.0606060606060617,0.9595959595959602 0.9595959595959602,0.8585858585858596 0.8585858585858596,0.7575757575757579 0.7575757575757579,0.6565656565656574 0.6565656565656574,0.5555555555555567 0.5555555555555567,0.4545454545454551 0.4545454545454551,0.3535353535353544 0.3535353535353544,0.2525252525252529 0.2525252525252529,0.1515151515151522 0.1515151515151522,0.050505050505051545 0.050505050505051545,-0.05050505050505001 -0.05050505050505001,-0.15151515151515066 -0.15151515151515066,-0.2525252525252522 -0.2525252525252522,-0.35353535353535287 -0.35353535353535287,-0.4545454545454544 -0.4545454545454544,-0.555555555555555 -0.555555555555555,-0.6565656565656557 -0.6565656565656557,-0.7575757575757572 -0.7575757575757572,-0.8585858585858579 -0.8585858585858579,-0.9595959595959596 -0.9595959595959596,-1.0606060606060603 -1.0606060606060603,-1.1616161616161613 -1.1616161616161613,-1.2626262626262625 -1.2626262626262625,-1.363636363636363 -1.363636363636363,-1.4646464646464643 -1.4646464646464643,-1.5656565656565653 -1.5656565656565653,-1.6666666666666665 -1.6666666666666665,-1.7676767676767675 -1.7676767676767675,-1.7676767676767675 -1.8686868686868683,-1.7676767676767675 -1.9696969696969693,-1.7676767676767675 -2.07070707070707,-1.7676767676767675 -2.1717171717171713,-1.7676767676767675 -2.2727272727272725,-1.7676767676767675 -2.3737373737373733,-1.7676767676767675 -2.474747474747474,-1.7676767676767675 -2.5757575757575752,-1.7676767676767675 -2.6767676767676765,-1.7676767676767675 -2.7777777777777777,-1.7676767676767675 -2.8787878787878785,-1.7676767676767675 -2.9797979797979792,-1.7676767676767675 -3.0808080808080804,-1.7676767676767675 -3.1818181818181817,-1.7676767676767675 -3.2828282828282824,-1.7676767676767675 -3.383838383838383,-1.7676767676767675 -3.484848484848485,-1.7676767676767675 -3.5858585858585856,-1.7676767676767675 -3.6868686868686864,-1.7676767676767675 -3.7878787878787876,-1.7676767676767675 -3.8888888888888884,-1.7676767676767675 -3.98989898989899,-1.7676767676767675" data-type="line" data-label="" points="984,49.53535353535369 974.4646464646464,59.07070707070733 964.9292929292927,68.60606060606085 955.3939393939393,78.14141414141432 945.8585858585857,87.67676767676778 936.3232323232323,97.21212121212153 926.7878787878785,106.747474747475 917.2525252525251,116.28282828282846 907.7171717171716,125.81818181818198 898.181818181818,135.35353535353545 888.6464646464647,144.88888888888908 879.111111111111,154.4242424242426 869.5757575757575,163.95959595959613 860.0404040404039,173.4949494949496 850.5050505050505,183.03030303030312 840.969696969697,192.56565656565675 831.4343434343433,202.10101010101027 821.8989898989898,211.63636363636374 812.3636363636363,221.17171717171726 802.8282828282828,230.70707070707084 793.2929292929292,240.24242424242436 783.7575757575758,249.77777777777794 774.2222222222222,259.3131313131314 764.6868686868686,268.84848484848493 755.1515151515151,278.38383838383857 745.6161616161615,287.91919191919203 736.0808080808081,297.4545454545456 726.5454545454545,306.9898989898991 717.0101010101009,316.5252525252526 707.4747474747475,326.06060606060623 697.9393939393939,335.5959595959597 688.4040404040404,345.1313131313133 678.8686868686868,354.66666666666674 669.3333333333333,364.2020202020203 659.7979797979798,373.73737373737384 650.2626262626262,383.27272727272737 640.7272727272727,392.80808080808094 631.1919191919192,402.3434343434344 621.6565656565656,411.87878787878793 612.1212121212121,421.4141414141415 602.5858585858585,430.94949494949503 593.0505050505051,440.4848484848486 583.5151515151515,450.0202020202021 573.9797979797979,459.5555555555556 564.4444444444445,469.0909090909092 554.9090909090909,478.6262626262627 545.3737373737374,488.1616161616163 535.8383838383838,497.69696969696975 526.3030303030303,507.23232323232327 516.7676767676768,516.7676767676768 507.2323232323232,526.3030303030304 497.69696969696975,535.838383838384 488.16161616161617,545.3737373737374 478.62626262626264,554.909090909091 469.09090909090907,564.4444444444445 459.55555555555554,573.979797979798 450.0202020202021,583.5151515151516 440.4848484848485,593.0505050505051 430.949494949495,602.5858585858587 421.4141414141414,612.1212121212121 411.8787878787879,621.6565656565657 402.34343434343435,631.1919191919193 392.80808080808083,640.7272727272727 383.2727272727273,650.2626262626263 373.7373737373738,659.7979797979798 364.2020202020202,669.3333333333334 354.6666666666667,678.8686868686868 345.13131313131316,678.8686868686868 335.59595959595964,678.8686868686868 326.0606060606061,678.8686868686868 316.5252525252526,678.8686868686868 306.9898989898991,678.8686868686868 297.4545454545455,678.8686868686868 287.91919191919203,678.8686868686868 278.38383838383845,678.8686868686868 268.84848484848493,678.8686868686868 259.3131313131314,678.8686868686868 249.77777777777783,678.8686868686868 240.2424242424243,678.8686868686868 230.70707070707084,678.8686868686868 221.17171717171726,678.8686868686868 211.63636363636374,678.8686868686868 202.10101010101022,678.8686868686868 192.5656565656567,678.8686868686868 183.03030303030312,678.8686868686868 173.4949494949496,678.8686868686868 163.95959595959607,678.8686868686868 154.42424242424255,678.8686868686868 144.88888888888903,678.8686868686868 135.35353535353545,678.8686868686868" fill="none" stroke="rgba(255,0,0,0.75)" stroke-width="14.159999999999995"/></g><g><polyline data-points="-3.98989898989899,-1.7676767676767675 -4.090909090909091,-1.7676767676767675 -4.191919191919193,-1.7676767676767675 -4.292929292929293,-1.7676767676767675 -4.393939393939394,-1.7676767676767675 -4.494949494949496,-1.7676767676767675 -4.595959595959596,-1.7676767676767675 -4.696969696969697,-1.7676767676767675 -4.7979797979797985,-1.7676767676767675 -4.898989898989899,-1.7676767676767675 -5.000000000000001,-1.7676767676767675" data-type="line" data-label="" points="135.35353535353545,678.8686868686868 125.81818181818193,678.8686868686868 116.28282828282829,678.8686868686868 106.74747474747483,678.8686868686868 97.21212121212136,678.8686868686868 87.67676767676772,678.8686868686868 78.14141414141426,678.8686868686868 68.60606060606068,678.8686868686868 59.07070707070716,678.8686868686868 49.53535353535369,678.8686868686868 40.00000000000006,678.8686868686868" fill="none" stroke="rgba(0,0,255,0.75)" stroke-width="14.159999999999995"/></g><g><polyline data-points="5.000000000000002,-4.393939393939394 4.898989898989901,-4.292929292929293 4.7979797979797985,-4.191919191919193 4.696969696969697,-4.090909090909091 4.595959595959597,-3.98989898989899 4.494949494949497,-3.8888888888888884 4.393939393939394,-3.7878787878787876 4.292929292929293,-3.6868686868686864 4.191919191919193,-3.5858585858585856 4.090909090909092,-3.484848484848485 3.989898989898992,-3.383838383838383 3.8888888888888893,-3.383838383838383 3.7878787878787885,-3.383838383838383 3.6868686868686877,-3.383838383838383 3.5858585858585874,-3.383838383838383 3.4848484848484866,-3.383838383838383 3.383838383838384,-3.383838383838383 3.2828282828282833,-3.383838383838383 3.181818181818183,-3.383838383838383 3.080808080808082,-3.383838383838383 2.9797979797979806,-3.383838383838383 2.87878787878788,-3.383838383838383 2.7777777777777786,-3.383838383838383 2.676767676767678,-3.383838383838383 2.575757575757577,-3.383838383838383 2.4747474747474754,-3.383838383838383 2.373737373737375,-3.383838383838383 2.2727272727272734,-3.383838383838383 2.1717171717171726,-3.383838383838383 2.070707070707072,-3.383838383838383 1.9696969696969702,-3.383838383838383 1.8686868686868696,-3.383838383838383 1.767676767676768,-3.383838383838383 1.6666666666666674,-3.383838383838383 1.5656565656565666,-3.383838383838383 1.4646464646464652,-3.383838383838383 1.3636363636363644,-3.383838383838383 1.262626262626263,-3.383838383838383 1.1616161616161622,-3.383838383838383 1.0606060606060617,-3.383838383838383 0.9595959595959602,-3.383838383838383 0.8585858585858596,-3.383838383838383 0.7575757575757579,-3.383838383838383 0.6565656565656574,-3.383838383838383 0.5555555555555567,-3.383838383838383 0.4545454545454551,-3.383838383838383 0.3535353535353544,-3.383838383838383 0.2525252525252529,-3.383838383838383 0.1515151515151522,-3.383838383838383 0.050505050505051545,-3.383838383838383 -0.05050505050505001,-3.383838383838383 -0.15151515151515066,-3.383838383838383 -0.2525252525252522,-3.383838383838383" data-type="line" data-label="" points="984,926.7878787878788 974.4646464646464,917.2525252525252 964.9292929292927,907.7171717171718 955.3939393939393,898.1818181818181 945.8585858585857,888.6464646464647 936.3232323232323,879.1111111111111 926.7878787878785,869.5757575757575 917.2525252525251,860.0404040404039 907.7171717171716,850.5050505050505 898.181818181818,840.969696969697 888.6464646464647,831.4343434343434 879.111111111111,831.4343434343434 869.5757575757575,831.4343434343434 860.0404040404039,831.4343434343434 850.5050505050505,831.4343434343434 840.969696969697,831.4343434343434 831.4343434343433,831.4343434343434 821.8989898989898,831.4343434343434 812.3636363636363,831.4343434343434 802.8282828282828,831.4343434343434 793.2929292929292,831.4343434343434 783.7575757575758,831.4343434343434 774.2222222222222,831.4343434343434 764.6868686868686,831.4343434343434 755.1515151515151,831.4343434343434 745.6161616161615,831.4343434343434 736.0808080808081,831.4343434343434 726.5454545454545,831.4343434343434 717.0101010101009,831.4343434343434 707.4747474747475,831.4343434343434 697.9393939393939,831.4343434343434 688.4040404040404,831.4343434343434 678.8686868686868,831.4343434343434 669.3333333333333,831.4343434343434 659.7979797979798,831.4343434343434 650.2626262626262,831.4343434343434 640.7272727272727,831.4343434343434 631.1919191919192,831.4343434343434 621.6565656565656,831.4343434343434 612.1212121212121,831.4343434343434 602.5858585858585,831.4343434343434 593.0505050505051,831.4343434343434 583.5151515151515,831.4343434343434 573.9797979797979,831.4343434343434 564.4444444444445,831.4343434343434 554.9090909090909,831.4343434343434 545.3737373737374,831.4343434343434 535.8383838383838,831.4343434343434 526.3030303030303,831.4343434343434 516.7676767676768,831.4343434343434 507.2323232323232,831.4343434343434 497.69696969696975,831.4343434343434 488.16161616161617,831.4343434343434" fill="none" stroke="rgba(0,0,255,0.75)" stroke-width="14.159999999999995"/></g><g><polyline data-points="-0.2525252525252522,-3.383838383838383 -0.35353535353535287,-3.383838383838383 -0.4545454545454544,-3.383838383838383 -0.555555555555555,-3.383838383838383 -0.6565656565656557,-3.383838383838383 -0.7575757575757572,-3.383838383838383 -0.8585858585858579,-3.383838383838383 -0.9595959595959596,-3.383838383838383 -1.0606060606060603,-3.383838383838383 -1.1616161616161613,-3.383838383838383 -1.2626262626262625,-3.383838383838383 -1.363636363636363,-3.383838383838383 -1.4646464646464643,-3.383838383838383 -1.5656565656565653,-3.383838383838383 -1.6666666666666665,-3.383838383838383 -1.7676767676767675,-3.383838383838383 -1.8686868686868683,-3.383838383838383 -1.9696969696969693,-3.383838383838383 -2.07070707070707,-3.383838383838383 -2.1717171717171713,-3.383838383838383 -2.2727272727272725,-3.383838383838383 -2.3737373737373733,-3.383838383838383 -2.474747474747474,-3.383838383838383 -2.5757575757575752,-3.383838383838383 -2.6767676767676765,-3.383838383838383 -2.7777777777777777,-3.383838383838383 -2.8787878787878785,-3.383838383838383 -2.9797979797979792,-3.383838383838383 -3.0808080808080804,-3.383838383838383 -3.1818181818181817,-3.383838383838383 -3.2828282828282824,-3.383838383838383 -3.383838383838383,-3.383838383838383 -3.484848484848485,-3.383838383838383 -3.5858585858585856,-3.383838383838383 -3.6868686868686864,-3.383838383838383 -3.7878787878787876,-3.383838383838383 -3.8888888888888884,-3.383838383838383 -3.98989898989899,-3.383838383838383" data-type="line" data-label="" points="488.16161616161617,831.4343434343434 478.62626262626264,831.4343434343434 469.09090909090907,831.4343434343434 459.55555555555554,831.4343434343434 450.0202020202021,831.4343434343434 440.4848484848485,831.4343434343434 430.949494949495,831.4343434343434 421.4141414141414,831.4343434343434 411.8787878787879,831.4343434343434 402.34343434343435,831.4343434343434 392.80808080808083,831.4343434343434 383.2727272727273,831.4343434343434 373.7373737373738,831.4343434343434 364.2020202020202,831.4343434343434 354.6666666666667,831.4343434343434 345.13131313131316,831.4343434343434 335.59595959595964,831.4343434343434 326.0606060606061,831.4343434343434 316.5252525252526,831.4343434343434 306.9898989898991,831.4343434343434 297.4545454545455,831.4343434343434 287.91919191919203,831.4343434343434 278.38383838383845,831.4343434343434 268.84848484848493,831.4343434343434 259.3131313131314,831.4343434343434 249.77777777777783,831.4343434343434 240.2424242424243,831.4343434343434 230.70707070707084,831.4343434343434 221.17171717171726,831.4343434343434 211.63636363636374,831.4343434343434 202.10101010101022,831.4343434343434 192.5656565656567,831.4343434343434 183.03030303030312,831.4343434343434 173.4949494949496,831.4343434343434 163.95959595959607,831.4343434343434 154.42424242424255,831.4343434343434 144.88888888888903,831.4343434343434 135.35353535353545,831.4343434343434" fill="none" stroke="rgba(255,0,0,0.75)" stroke-width="14.159999999999995"/></g><g><polyline data-points="-3.98989898989899,-3.383838383838383 -4.090909090909091,-3.383838383838383 -4.191919191919193,-3.383838383838383 -4.292929292929293,-3.383838383838383 -4.393939393939394,-3.383838383838383 -4.494949494949496,-3.383838383838383 -4.595959595959596,-3.383838383838383 -4.696969696969697,-3.383838383838383 -4.7979797979797985,-3.383838383838383 -4.898989898989899,-3.383838383838383 -5.000000000000001,-3.383838383838383" data-type="line" data-label="" points="135.35353535353545,831.4343434343434 125.81818181818193,831.4343434343434 116.28282828282829,831.4343434343434 106.74747474747483,831.4343434343434 97.21212121212136,831.4343434343434 87.67676767676772,831.4343434343434 78.14141414141426,831.4343434343434 68.60606060606068,831.4343434343434 59.07070707070716,831.4343434343434 49.53535353535369,831.4343434343434 40.00000000000006,831.4343434343434" fill="none" stroke="rgba(0,0,255,0.75)" stroke-width="14.159999999999995"/></g><g><polyline data-points="5.000000000000002,3.7878787878787885 5.000000000000002,3.6868686868686877 5.000000000000002,3.5858585858585874 5.000000000000002,3.4848484848484866 5.000000000000002,3.383838383838384 5.000000000000002,3.2828282828282833 5.000000000000002,3.181818181818183 5.000000000000002,3.080808080808082 5.000000000000002,2.9797979797979806 5.000000000000002,2.87878787878788 5.000000000000002,2.7777777777777786 5.000000000000002,2.676767676767678 5.000000000000002,2.575757575757577 5.000000000000002,2.4747474747474754 5.000000000000002,2.373737373737375" data-type="line" data-label="" points="984,154.4242424242426 984,163.95959595959613 984,173.4949494949496 984,183.03030303030312 984,192.56565656565675 984,202.10101010101027 984,211.63636363636374 984,221.17171717171726 984,230.70707070707084 984,240.24242424242436 984,249.77777777777794 984,259.3131313131314 984,268.84848484848493 984,278.38383838383857 984,287.91919191919203" fill="none" stroke="rgba(255,0,0,0.75)" stroke-width="14.159999999999995"/></g><g><polyline data-points="4.090909090909092,5.000000000000002 3.989898989898992,4.898989898989901 3.8888888888888893,4.7979797979797985 3.7878787878787885,4.696969696969697 3.6868686868686877,4.595959595959597 3.5858585858585874,4.494949494949497 3.4848484848484866,4.393939393939394 3.4848484848484866,4.292929292929293 3.4848484848484866,4.191919191919193 3.383838383838384,4.090909090909092 3.2828282828282833,3.989898989898992" data-type="line" data-label="" points="898.181818181818,40.000000000000114 888.6464646464647,49.53535353535369 879.111111111111,59.07070707070733 869.5757575757575,68.60606060606085 860.0404040404039,78.14141414141432 850.5050505050505,87.67676767676778 840.969696969697,97.21212121212153 840.969696969697,106.747474747475 840.969696969697,116.28282828282846 831.4343434343433,125.81818181818198 821.8989898989898,135.35353535353545" fill="none" stroke="rgba(255,0,0,0.75)" stroke-width="14.159999999999995"/></g><g><polyline data-points="3.2828282828282833,3.989898989898992 3.383838383838384,3.8888888888888893 3.4848484848484866,3.7878787878787885 3.4848484848484866,3.6868686868686877 3.4848484848484866,3.5858585858585874 3.4848484848484866,3.4848484848484866 3.4848484848484866,3.383838383838384 3.4848484848484866,3.2828282828282833 3.4848484848484866,3.181818181818183 3.4848484848484866,3.080808080808082 3.4848484848484866,2.9797979797979806 3.4848484848484866,2.87878787878788 3.4848484848484866,2.7777777777777786 3.4848484848484866,2.676767676767678 3.4848484848484866,2.575757575757577 3.4848484848484866,2.4747474747474754 3.4848484848484866,2.373737373737375 3.4848484848484866,2.2727272727272734 3.4848484848484866,2.1717171717171726 3.4848484848484866,2.070707070707072 3.4848484848484866,1.9696969696969702 3.4848484848484866,1.8686868686868696 3.4848484848484866,1.767676767676768 3.4848484848484866,1.6666666666666674 3.4848484848484866,1.5656565656565666 3.4848484848484866,1.4646464646464652 3.4848484848484866,1.3636363636363644 3.4848484848484866,1.262626262626263 3.4848484848484866,1.1616161616161622 3.4848484848484866,1.0606060606060617 3.4848484848484866,0.9595959595959602 3.4848484848484866,0.8585858585858596 3.4848484848484866,0.7575757575757579 3.4848484848484866,0.6565656565656574 3.4848484848484866,0.5555555555555567 3.4848484848484866,0.4545454545454551 3.4848484848484866,0.3535353535353544 3.4848484848484866,0.2525252525252529 3.4848484848484866,0.1515151515151522 3.4848484848484866,0.050505050505051545 3.4848484848484866,-0.05050505050505001 3.4848484848484866,-0.15151515151515066 3.4848484848484866,-0.2525252525252522 3.4848484848484866,-0.35353535353535287 3.4848484848484866,-0.4545454545454544 3.4848484848484866,-0.555555555555555 3.4848484848484866,-0.6565656565656557 3.4848484848484866,-0.7575757575757572 3.4848484848484866,-0.8585858585858579 3.4848484848484866,-0.9595959595959596 3.4848484848484866,-1.0606060606060603 3.4848484848484866,-1.1616161616161613 3.4848484848484866,-1.2626262626262625 3.4848484848484866,-1.363636363636363 3.4848484848484866,-1.4646464646464643 3.4848484848484866,-1.5656565656565653 3.4848484848484866,-1.6666666666666665 3.4848484848484866,-1.7676767676767675 3.4848484848484866,-1.8686868686868683 3.4848484848484866,-1.9696969696969693 3.4848484848484866,-2.07070707070707 3.4848484848484866,-2.1717171717171713 3.4848484848484866,-2.2727272727272725 3.4848484848484866,-2.3737373737373733 3.4848484848484866,-2.474747474747474 3.4848484848484866,-2.5757575757575752 3.4848484848484866,-2.6767676767676765 3.4848484848484866,-2.7777777777777777" data-type="line" data-label="" points="821.8989898989898,135.35353535353545 831.4343434343433,144.88888888888908 840.969696969697,154.4242424242426 840.969696969697,163.95959595959613 840.969696969697,173.4949494949496 840.969696969697,183.03030303030312 840.969696969697,192.56565656565675 840.969696969697,202.10101010101027 840.969696969697,211.63636363636374 840.969696969697,221.17171717171726 840.969696969697,230.70707070707084 840.969696969697,240.24242424242436 840.969696969697,249.77777777777794 840.969696969697,259.3131313131314 840.969696969697,268.84848484848493 840.969696969697,278.38383838383857 840.969696969697,287.91919191919203 840.969696969697,297.4545454545456 840.969696969697,306.9898989898991 840.969696969697,316.5252525252526 840.969696969697,326.06060606060623 840.969696969697,335.5959595959597 840.969696969697,345.1313131313133 840.969696969697,354.66666666666674 840.969696969697,364.2020202020203 840.969696969697,373.73737373737384 840.969696969697,383.27272727272737 840.969696969697,392.80808080808094 840.969696969697,402.3434343434344 840.969696969697,411.87878787878793 840.969696969697,421.4141414141415 840.969696969697,430.94949494949503 840.969696969697,440.4848484848486 840.969696969697,450.0202020202021 840.969696969697,459.5555555555556 840.969696969697,469.0909090909092 840.969696969697,478.6262626262627 840.969696969697,488.1616161616163 840.969696969697,497.69696969696975 840.969696969697,507.23232323232327 840.969696969697,516.7676767676768 840.969696969697,526.3030303030304 840.969696969697,535.838383838384 840.969696969697,545.3737373737374 840.969696969697,554.909090909091 840.969696969697,564.4444444444445 840.969696969697,573.979797979798 840.969696969697,583.5151515151516 840.969696969697,593.0505050505051 840.969696969697,602.5858585858587 840.969696969697,612.1212121212121 840.969696969697,621.6565656565657 840.969696969697,631.1919191919193 840.969696969697,640.7272727272727 840.969696969697,650.2626262626263 840.969696969697,659.7979797979798 840.969696969697,669.3333333333334 840.969696969697,678.8686868686868 840.969696969697,688.4040404040404 840.969696969697,697.939393939394 840.969696969697,707.4747474747475 840.969696969697,717.010101010101 840.969696969697,726.5454545454545 840.969696969697,736.0808080808081 840.969696969697,745.6161616161615 840.969696969697,755.1515151515151 840.969696969697,764.6868686868687 840.969696969697,774.2222222222222" fill="none" stroke="rgba(0,0,255,0.75)" stroke-width="14.159999999999995"/></g><g><polyline data-points="3.4848484848484866,-2.7777777777777777 3.4848484848484866,-2.8787878787878785 3.4848484848484866,-2.9797979797979792 3.4848484848484866,-3.0808080808080804 3.4848484848484866,-3.1818181818181817 3.4848484848484866,-3.2828282828282824 3.4848484848484866,-3.383838383838383 3.4848484848484866,-3.484848484848485 3.4848484848484866,-3.5858585858585856 3.4848484848484866,-3.6868686868686864 3.4848484848484866,-3.7878787878787876 3.4848484848484866,-3.8888888888888884 3.4848484848484866,-3.98989898989899 3.4848484848484866,-4.090909090909091 3.4848484848484866,-4.191919191919193 3.4848484848484866,-4.292929292929293 3.4848484848484866,-4.393939393939394 3.4848484848484866,-4.494949494949496 3.4848484848484866,-4.595959595959596 3.4848484848484866,-4.696969696969697 3.4848484848484866,-4.7979797979797985 3.4848484848484866,-4.898989898989899 3.4848484848484866,-5.000000000000001" data-type="line" data-label="" points="840.969696969697,774.2222222222222 840.969696969697,783.7575757575758 840.969696969697,793.2929292929292 840.969696969697,802.8282828282828 840.969696969697,812.3636363636363 840.969696969697,821.8989898989898 840.969696969697,831.4343434343434 840.969696969697,840.969696969697 840.969696969697,850.5050505050505 840.969696969697,860.0404040404039 840.969696969697,869.5757575757575 840.969696969697,879.1111111111111 840.969696969697,888.6464646464647 840.969696969697,898.1818181818181 840.969696969697,907.7171717171718 840.969696969697,917.2525252525252 840.969696969697,926.7878787878788 840.969696969697,936.3232323232323 840.969696969697,945.8585858585858 840.969696969697,955.3939393939394 840.969696969697,964.9292929292928 840.969696969697,974.4646464646464 840.969696969697,984" fill="none" stroke="rgba(255,0,0,0.75)" stroke-width="14.159999999999995"/></g><g><polyline data-points="4.494949494949497,-5.000000000000001 4.393939393939394,-4.898989898989899 4.292929292929293,-4.7979797979797985 4.191919191919193,-4.696969696969697 4.191919191919193,-4.595959595959596 4.191919191919193,-4.494949494949496 4.191919191919193,-4.393939393939394 4.191919191919193,-4.292929292929293 4.191919191919193,-4.191919191919193 4.191919191919193,-4.090909090909091 4.191919191919193,-3.98989898989899 4.191919191919193,-3.8888888888888884 4.191919191919193,-3.7878787878787876 4.191919191919193,-3.6868686868686864 4.191919191919193,-3.5858585858585856 4.090909090909092,-3.484848484848485 4.090909090909092,-3.383838383838383 3.989898989898992,-3.2828282828282824 3.989898989898992,-3.1818181818181817 3.989898989898992,-3.0808080808080804 3.989898989898992,-2.9797979797979792 3.989898989898992,-2.8787878787878785 3.989898989898992,-2.7777777777777777 3.8888888888888893,-2.6767676767676765 3.8888888888888893,-2.5757575757575752 3.7878787878787885,-2.474747474747474 3.6868686868686877,-2.3737373737373733 3.5858585858585874,-2.3737373737373733 3.4848484848484866,-2.2727272727272725 3.383838383838384,-2.3737373737373733 3.2828282828282833,-2.3737373737373733 3.181818181818183,-2.474747474747474 3.080808080808082,-2.5757575757575752 2.9797979797979806,-2.6767676767676765 2.87878787878788,-2.7777777777777777 2.7777777777777786,-2.8787878787878785 2.676767676767678,-2.9797979797979792 2.575757575757577,-3.0808080808080804 2.4747474747474754,-3.1818181818181817 2.373737373737375,-3.2828282828282824 2.2727272727272734,-3.383838383838383 2.1717171717171726,-3.484848484848485 2.070707070707072,-3.5858585858585856 1.9696969696969702,-3.6868686868686864 1.8686868686868696,-3.7878787878787876 1.767676767676768,-3.8888888888888884 1.6666666666666674,-3.98989898989899 1.5656565656565666,-3.98989898989899 1.4646464646464652,-3.98989898989899 1.3636363636363644,-3.98989898989899 1.262626262626263,-3.98989898989899 1.1616161616161622,-3.98989898989899 1.0606060606060617,-3.98989898989899 0.9595959595959602,-3.98989898989899 0.8585858585858596,-3.98989898989899 0.7575757575757579,-3.98989898989899 0.6565656565656574,-3.98989898989899 0.5555555555555567,-3.98989898989899 0.4545454545454551,-3.98989898989899 0.3535353535353544,-3.98989898989899 0.2525252525252529,-3.98989898989899 0.1515151515151522,-3.98989898989899 0.050505050505051545,-3.98989898989899 -0.05050505050505001,-3.98989898989899 -0.15151515151515066,-3.98989898989899 -0.2525252525252522,-3.98989898989899 -0.35353535353535287,-3.98989898989899 -0.4545454545454544,-3.98989898989899 -0.555555555555555,-3.98989898989899 -0.6565656565656557,-3.98989898989899 -0.7575757575757572,-3.98989898989899 -0.8585858585858579,-3.98989898989899 -0.9595959595959596,-3.98989898989899 -1.0606060606060603,-3.98989898989899 -1.1616161616161613,-3.98989898989899 -1.2626262626262625,-3.98989898989899 -1.363636363636363,-3.98989898989899 -1.4646464646464643,-3.98989898989899 -1.5656565656565653,-3.98989898989899 -1.6666666666666665,-3.98989898989899 -1.7676767676767675,-3.98989898989899 -1.8686868686868683,-3.98989898989899 -1.9696969696969693,-3.98989898989899 -2.07070707070707,-3.98989898989899" data-type="line" data-label="" points="936.3232323232323,984 926.7878787878785,974.4646464646464 917.2525252525251,964.9292929292928 907.7171717171716,955.3939393939394 907.7171717171716,945.8585858585858 907.7171717171716,936.3232323232323 907.7171717171716,926.7878787878788 907.7171717171716,917.2525252525252 907.7171717171716,907.7171717171718 907.7171717171716,898.1818181818181 907.7171717171716,888.6464646464647 907.7171717171716,879.1111111111111 907.7171717171716,869.5757575757575 907.7171717171716,860.0404040404039 907.7171717171716,850.5050505050505 898.181818181818,840.969696969697 898.181818181818,831.4343434343434 888.6464646464647,821.8989898989898 888.6464646464647,812.3636363636363 888.6464646464647,802.8282828282828 888.6464646464647,793.2929292929292 888.6464646464647,783.7575757575758 888.6464646464647,774.2222222222222 879.111111111111,764.6868686868687 879.111111111111,755.1515151515151 869.5757575757575,745.6161616161615 860.0404040404039,736.0808080808081 850.5050505050505,736.0808080808081 840.969696969697,726.5454545454545 831.4343434343433,736.0808080808081 821.8989898989898,736.0808080808081 812.3636363636363,745.6161616161615 802.8282828282828,755.1515151515151 793.2929292929292,764.6868686868687 783.7575757575758,774.2222222222222 774.2222222222222,783.7575757575758 764.6868686868686,793.2929292929292 755.1515151515151,802.8282828282828 745.6161616161615,812.3636363636363 736.0808080808081,821.8989898989898 726.5454545454545,831.4343434343434 717.0101010101009,840.969696969697 707.4747474747475,850.5050505050505 697.9393939393939,860.0404040404039 688.4040404040404,869.5757575757575 678.8686868686868,879.1111111111111 669.3333333333333,888.6464646464647 659.7979797979798,888.6464646464647 650.2626262626262,888.6464646464647 640.7272727272727,888.6464646464647 631.1919191919192,888.6464646464647 621.6565656565656,888.6464646464647 612.1212121212121,888.6464646464647 602.5858585858585,888.6464646464647 593.0505050505051,888.6464646464647 583.5151515151515,888.6464646464647 573.9797979797979,888.6464646464647 564.4444444444445,888.6464646464647 554.9090909090909,888.6464646464647 545.3737373737374,888.6464646464647 535.8383838383838,888.6464646464647 526.3030303030303,888.6464646464647 516.7676767676768,888.6464646464647 507.2323232323232,888.6464646464647 497.69696969696975,888.6464646464647 488.16161616161617,888.6464646464647 478.62626262626264,888.6464646464647 469.09090909090907,888.6464646464647 459.55555555555554,888.6464646464647 450.0202020202021,888.6464646464647 440.4848484848485,888.6464646464647 430.949494949495,888.6464646464647 421.4141414141414,888.6464646464647 411.8787878787879,888.6464646464647 402.34343434343435,888.6464646464647 392.80808080808083,888.6464646464647 383.2727272727273,888.6464646464647 373.7373737373738,888.6464646464647 364.2020202020202,888.6464646464647 354.6666666666667,888.6464646464647 345.13131313131316,888.6464646464647 335.59595959595964,888.6464646464647 326.0606060606061,888.6464646464647 316.5252525252526,888.6464646464647" fill="none" stroke="rgba(255,0,0,0.75)" stroke-width="14.159999999999995"/></g><g><polyline data-points="-2.07070707070707,-3.98989898989899 -2.1717171717171713,-4.090909090909091 -2.1717171717171713,-4.191919191919193 -2.1717171717171713,-4.292929292929293 -2.1717171717171713,-4.393939393939394 -2.1717171717171713,-4.494949494949496 -2.1717171717171713,-4.595959595959596 -2.1717171717171713,-4.696969696969697 -2.1717171717171713,-4.7979797979797985 -2.1717171717171713,-4.898989898989899 -2.1717171717171713,-5.000000000000001" data-type="line" data-label="" points="316.5252525252526,888.6464646464647 306.9898989898991,898.1818181818181 306.9898989898991,907.7171717171718 306.9898989898991,917.2525252525252 306.9898989898991,926.7878787878788 306.9898989898991,936.3232323232323 306.9898989898991,945.8585858585858 306.9898989898991,955.3939393939394 306.9898989898991,964.9292929292928 306.9898989898991,974.4646464646464 306.9898989898991,984" fill="none" stroke="rgba(0,0,255,0.75)" stroke-width="14.159999999999995"/></g><g><polyline data-points="5.000000000000002,-3.0808080808080804 4.898989898989901,-2.9797979797979792 4.7979797979797985,-2.8787878787878785 4.696969696969697,-2.7777777777777777 4.595959595959597,-2.6767676767676765 4.494949494949497,-2.5757575757575752 4.393939393939394,-2.474747474747474 4.292929292929293,-2.3737373737373733 4.191919191919193,-2.2727272727272725 4.090909090909092,-2.1717171717171713 3.989898989898992,-2.07070707070707 3.8888888888888893,-1.9696969696969693 3.7878787878787885,-1.8686868686868683 3.6868686868686877,-1.7676767676767675 3.5858585858585874,-1.6666666666666665 3.4848484848484866,-1.5656565656565653 3.383838383838384,-1.4646464646464643 3.2828282828282833,-1.363636363636363 3.181818181818183,-1.2626262626262625 3.080808080808082,-1.1616161616161613 2.9797979797979806,-1.0606060606060603 2.87878787878788,-0.9595959595959596 2.7777777777777786,-0.8585858585858579 2.676767676767678,-0.7575757575757572 2.575757575757577,-0.6565656565656557 2.4747474747474754,-0.555555555555555 2.373737373737375,-0.4545454545454544 2.2727272727272734,-0.35353535353535287 2.1717171717171726,-0.2525252525252522 2.070707070707072,-0.15151515151515066 1.9696969696969702,-0.05050505050505001 1.8686868686868696,0.050505050505051545 1.767676767676768,0.1515151515151522 1.6666666666666674,0.2525252525252529 1.5656565656565666,0.3535353535353544 1.4646464646464652,0.4545454545454551" data-type="line" data-label="" points="984,802.8282828282828 974.4646464646464,793.2929292929292 964.9292929292927,783.7575757575758 955.3939393939393,774.2222222222222 945.8585858585857,764.6868686868687 936.3232323232323,755.1515151515151 926.7878787878785,745.6161616161615 917.2525252525251,736.0808080808081 907.7171717171716,726.5454545454545 898.181818181818,717.010101010101 888.6464646464647,707.4747474747475 879.111111111111,697.939393939394 869.5757575757575,688.4040404040404 860.0404040404039,678.8686868686868 850.5050505050505,669.3333333333334 840.969696969697,659.7979797979798 831.4343434343433,650.2626262626263 821.8989898989898,640.7272727272727 812.3636363636363,631.1919191919193 802.8282828282828,621.6565656565657 793.2929292929292,612.1212121212121 783.7575757575758,602.5858585858587 774.2222222222222,593.0505050505051 764.6868686868686,583.5151515151516 755.1515151515151,573.979797979798 745.6161616161615,564.4444444444445 736.0808080808081,554.909090909091 726.5454545454545,545.3737373737374 717.0101010101009,535.838383838384 707.4747474747475,526.3030303030304 697.9393939393939,516.7676767676768 688.4040404040404,507.23232323232327 678.8686868686868,497.69696969696975 669.3333333333333,488.1616161616163 659.7979797979798,478.6262626262627 650.2626262626262,469.0909090909092" fill="none" stroke="rgba(255,0,0,0.75)" stroke-width="14.159999999999995"/></g><g><polyline data-points="1.4646464646464652,0.4545454545454551 1.3636363636363644,0.5555555555555567 1.262626262626263,0.6565656565656574 1.1616161616161622,0.7575757575757579 1.0606060606060617,0.8585858585858596 0.9595959595959602,0.9595959595959602 0.8585858585858596,1.0606060606060617 0.7575757575757579,1.1616161616161622 0.6565656565656574,1.262626262626263 0.5555555555555567,1.3636363636363644 0.4545454545454551,1.4646464646464652 0.3535353535353544,1.5656565656565666 0.2525252525252529,1.6666666666666674 0.1515151515151522,1.767676767676768 0.050505050505051545,1.8686868686868696 -0.05050505050505001,1.9696969696969702 -0.15151515151515066,2.070707070707072 -0.2525252525252522,2.1717171717171726 -0.35353535353535287,2.2727272727272734 -0.35353535353535287,2.373737373737375 -0.35353535353535287,2.4747474747474754 -0.35353535353535287,2.575757575757577" data-type="line" data-label="" points="650.2626262626262,469.0909090909092 640.7272727272727,459.5555555555556 631.1919191919192,450.0202020202021 621.6565656565656,440.4848484848486 612.1212121212121,430.94949494949503 602.5858585858585,421.4141414141415 593.0505050505051,411.87878787878793 583.5151515151515,402.3434343434344 573.9797979797979,392.80808080808094 564.4444444444445,383.27272727272737 554.9090909090909,373.73737373737384 545.3737373737374,364.2020202020203 535.8383838383838,354.66666666666674 526.3030303030303,345.1313131313133 516.7676767676768,335.5959595959597 507.2323232323232,326.06060606060623 497.69696969696975,316.5252525252526 488.16161616161617,306.9898989898991 478.62626262626264,297.4545454545456 478.62626262626264,287.91919191919203 478.62626262626264,278.38383838383857 478.62626262626264,268.84848484848493" fill="none" stroke="rgba(0,0,255,0.75)" stroke-width="14.159999999999995"/></g><g><polyline data-points="-0.35353535353535287,2.575757575757577 -0.4545454545454544,2.676767676767678 -0.555555555555555,2.7777777777777786 -0.6565656565656557,2.87878787878788 -0.7575757575757572,2.9797979797979806 -0.8585858585858579,3.080808080808082 -0.9595959595959596,3.181818181818183 -1.0606060606060603,3.2828282828282833 -1.1616161616161613,3.383838383838384 -1.2626262626262625,3.4848484848484866 -1.363636363636363,3.4848484848484866 -1.4646464646464643,3.4848484848484866 -1.5656565656565653,3.4848484848484866 -1.6666666666666665,3.4848484848484866 -1.7676767676767675,3.4848484848484866 -1.8686868686868683,3.4848484848484866 -1.9696969696969693,3.4848484848484866 -2.07070707070707,3.4848484848484866 -2.1717171717171713,3.4848484848484866 -2.2727272727272725,3.4848484848484866 -2.3737373737373733,3.4848484848484866 -2.474747474747474,3.4848484848484866 -2.5757575757575752,3.4848484848484866 -2.6767676767676765,3.4848484848484866 -2.7777777777777777,3.4848484848484866 -2.8787878787878785,3.4848484848484866 -2.9797979797979792,3.4848484848484866 -3.0808080808080804,3.4848484848484866 -3.1818181818181817,3.4848484848484866 -3.2828282828282824,3.4848484848484866 -3.383838383838383,3.4848484848484866 -3.484848484848485,3.4848484848484866 -3.5858585858585856,3.4848484848484866 -3.6868686868686864,3.4848484848484866 -3.7878787878787876,3.4848484848484866 -3.8888888888888884,3.4848484848484866 -3.98989898989899,3.4848484848484866" data-type="line" data-label="" points="478.62626262626264,268.84848484848493 469.09090909090907,259.3131313131314 459.55555555555554,249.77777777777794 450.0202020202021,240.24242424242436 440.4848484848485,230.70707070707084 430.949494949495,221.17171717171726 421.4141414141414,211.63636363636374 411.8787878787879,202.10101010101027 402.34343434343435,192.56565656565675 392.80808080808083,183.03030303030312 383.2727272727273,183.03030303030312 373.7373737373738,183.03030303030312 364.2020202020202,183.03030303030312 354.6666666666667,183.03030303030312 345.13131313131316,183.03030303030312 335.59595959595964,183.03030303030312 326.0606060606061,183.03030303030312 316.5252525252526,183.03030303030312 306.9898989898991,183.03030303030312 297.4545454545455,183.03030303030312 287.91919191919203,183.03030303030312 278.38383838383845,183.03030303030312 268.84848484848493,183.03030303030312 259.3131313131314,183.03030303030312 249.77777777777783,183.03030303030312 240.2424242424243,183.03030303030312 230.70707070707084,183.03030303030312 221.17171717171726,183.03030303030312 211.63636363636374,183.03030303030312 202.10101010101022,183.03030303030312 192.5656565656567,183.03030303030312 183.03030303030312,183.03030303030312 173.4949494949496,183.03030303030312 163.95959595959607,183.03030303030312 154.42424242424255,183.03030303030312 144.88888888888903,183.03030303030312 135.35353535353545,183.03030303030312" fill="none" stroke="rgba(255,0,0,0.75)" stroke-width="14.159999999999995"/></g><g><polyline data-points="-3.98989898989899,3.4848484848484866 -4.090909090909091,3.4848484848484866 -4.191919191919193,3.4848484848484866 -4.292929292929293,3.4848484848484866 -4.393939393939394,3.4848484848484866 -4.494949494949496,3.4848484848484866 -4.595959595959596,3.4848484848484866 -4.696969696969697,3.4848484848484866 -4.7979797979797985,3.4848484848484866 -4.898989898989899,3.4848484848484866 -5.000000000000001,3.4848484848484866" data-type="line" data-label="" points="135.35353535353545,183.03030303030312 125.81818181818193,183.03030303030312 116.28282828282829,183.03030303030312 106.74747474747483,183.03030303030312 97.21212121212136,183.03030303030312 87.67676767676772,183.03030303030312 78.14141414141426,183.03030303030312 68.60606060606068,183.03030303030312 59.07070707070716,183.03030303030312 49.53535353535369,183.03030303030312 40.00000000000006,183.03030303030312" fill="none" stroke="rgba(0,0,255,0.75)" stroke-width="14.159999999999995"/></g><g><polyline data-points="-5.000000000000001,4.191919191919193 -4.898989898989899,4.090909090909092 -4.7979797979797985,3.989898989898992 -4.696969696969697,3.989898989898992 -4.595959595959596,3.989898989898992 -4.494949494949496,3.989898989898992 -4.393939393939394,3.989898989898992 -4.292929292929293,3.989898989898992 -4.191919191919193,3.989898989898992 -4.090909090909091,3.989898989898992 -3.98989898989899,3.989898989898992 -3.8888888888888884,3.8888888888888893 -3.7878787878787876,3.8888888888888893 -3.6868686868686864,3.7878787878787885 -3.5858585858585856,3.6868686868686877 -3.484848484848485,3.5858585858585874 -3.383838383838383,3.4848484848484866 -3.2828282828282824,3.383838383838384 -3.1818181818181817,3.2828282828282833 -3.0808080808080804,3.181818181818183 -2.9797979797979792,3.080808080808082 -2.8787878787878785,2.9797979797979806 -2.7777777777777777,2.87878787878788 -2.6767676767676765,2.7777777777777786 -2.5757575757575752,2.676767676767678 -2.474747474747474,2.575757575757577 -2.3737373737373733,2.4747474747474754 -2.2727272727272725,2.373737373737375 -2.1717171717171713,2.2727272727272734 -2.07070707070707,2.1717171717171726 -1.9696969696969693,2.070707070707072 -1.8686868686868683,2.070707070707072 -1.7676767676767675,2.070707070707072 -1.6666666666666665,2.070707070707072 -1.5656565656565653,2.070707070707072" data-type="line" data-label="" points="40.00000000000006,116.28282828282846 49.53535353535369,125.81818181818198 59.07070707070716,135.35353535353545 68.60606060606068,135.35353535353545 78.14141414141426,135.35353535353545 87.67676767676772,135.35353535353545 97.21212121212136,135.35353535353545 106.74747474747483,135.35353535353545 116.28282828282829,135.35353535353545 125.81818181818193,135.35353535353545 135.35353535353545,135.35353535353545 144.88888888888903,144.88888888888908 154.42424242424255,144.88888888888908 163.95959595959607,154.4242424242426 173.4949494949496,163.95959595959613 183.03030303030312,173.4949494949496 192.5656565656567,183.03030303030312 202.10101010101022,192.56565656565675 211.63636363636374,202.10101010101027 221.17171717171726,211.63636363636374 230.70707070707084,221.17171717171726 240.2424242424243,230.70707070707084 249.77777777777783,240.24242424242436 259.3131313131314,249.77777777777794 268.84848484848493,259.3131313131314 278.38383838383845,268.84848484848493 287.91919191919203,278.38383838383857 297.4545454545455,287.91919191919203 306.9898989898991,297.4545454545456 316.5252525252526,306.9898989898991 326.0606060606061,316.5252525252526 335.59595959595964,316.5252525252526 345.13131313131316,316.5252525252526 354.6666666666667,316.5252525252526 364.2020202020202,316.5252525252526" fill="none" stroke="rgba(0,0,255,0.75)" stroke-width="14.159999999999995"/></g><g><polyline data-points="-1.5656565656565653,2.070707070707072 -1.4646464646464643,2.070707070707072 -1.363636363636363,2.070707070707072 -1.2626262626262625,2.070707070707072 -1.1616161616161613,2.070707070707072 -1.0606060606060603,2.070707070707072 -0.9595959595959596,2.070707070707072 -0.8585858585858579,2.070707070707072 -0.7575757575757572,2.070707070707072 -0.6565656565656557,2.070707070707072 -0.555555555555555,2.070707070707072 -0.4545454545454544,2.070707070707072 -0.35353535353535287,2.070707070707072 -0.2525252525252522,2.070707070707072 -0.15151515151515066,2.070707070707072 -0.05050505050505001,2.070707070707072 0.050505050505051545,2.070707070707072 0.1515151515151522,2.070707070707072 0.2525252525252529,2.070707070707072 0.3535353535353544,2.070707070707072 0.4545454545454551,2.070707070707072 0.5555555555555567,2.070707070707072 0.6565656565656574,2.070707070707072 0.7575757575757579,2.070707070707072" data-type="line" data-label="" points="364.2020202020202,316.5252525252526 373.7373737373738,316.5252525252526 383.2727272727273,316.5252525252526 392.80808080808083,316.5252525252526 402.34343434343435,316.5252525252526 411.8787878787879,316.5252525252526 421.4141414141414,316.5252525252526 430.949494949495,316.5252525252526 440.4848484848485,316.5252525252526 450.0202020202021,316.5252525252526 459.55555555555554,316.5252525252526 469.09090909090907,316.5252525252526 478.62626262626264,316.5252525252526 488.16161616161617,316.5252525252526 497.69696969696975,316.5252525252526 507.2323232323232,316.5252525252526 516.7676767676768,316.5252525252526 526.3030303030303,316.5252525252526 535.8383838383838,316.5252525252526 545.3737373737374,316.5252525252526 554.9090909090909,316.5252525252526 564.4444444444445,316.5252525252526 573.9797979797979,316.5252525252526 583.5151515151515,316.5252525252526" fill="none" stroke="rgba(255,0,0,0.75)" stroke-width="14.159999999999995"/></g><g><polyline data-points="0.7575757575757579,2.070707070707072 0.8585858585858596,2.1717171717171726 0.9595959595959602,2.2727272727272734 1.0606060606060617,2.373737373737375 1.1616161616161622,2.4747474747474754 1.262626262626263,2.575757575757577 1.3636363636363644,2.676767676767678 1.4646464646464652,2.7777777777777786 1.5656565656565666,2.87878787878788 1.6666666666666674,2.9797979797979806 1.767676767676768,3.080808080808082 1.8686868686868696,3.181818181818183 1.9696969696969702,3.2828282828282833 2.070707070707072,3.383838383838384 2.1717171717171726,3.4848484848484866 2.2727272727272734,3.5858585858585874 2.373737373737375,3.6868686868686877 2.4747474747474754,3.7878787878787885 2.575757575757577,3.8888888888888893 2.676767676767678,3.989898989898992 2.7777777777777786,4.090909090909092 2.87878787878788,4.191919191919193 2.9797979797979806,4.292929292929293 3.080808080808082,4.393939393939394 3.181818181818183,4.393939393939394 3.2828282828282833,4.494949494949497 3.383838383838384,4.393939393939394 3.4848484848484866,4.393939393939394 3.5858585858585874,4.292929292929293 3.6868686868686877,4.191919191919193 3.7878787878787885,4.090909090909092 3.8888888888888893,3.989898989898992 3.989898989898992,3.8888888888888893 4.090909090909092,3.7878787878787885 4.191919191919193,3.6868686868686877 4.292929292929293,3.5858585858585874 4.393939393939394,3.4848484848484866 4.494949494949497,3.383838383838384 4.595959595959597,3.2828282828282833 4.696969696969697,3.181818181818183 4.7979797979797985,3.080808080808082 4.898989898989901,2.9797979797979806 5.000000000000002,2.87878787878788 5.000000000000002,2.7777777777777786 5.000000000000002,2.676767676767678 5.000000000000002,2.575757575757577 5.000000000000002,2.4747474747474754 5.000000000000002,2.373737373737375 5.000000000000002,2.2727272727272734 5.000000000000002,2.1717171717171726 5.000000000000002,2.070707070707072 5.000000000000002,1.9696969696969702 5.000000000000002,1.8686868686868696 5.000000000000002,1.767676767676768 5.000000000000002,1.6666666666666674 5.000000000000002,1.5656565656565666 5.000000000000002,1.4646464646464652 5.000000000000002,1.3636363636363644 5.000000000000002,1.262626262626263 5.000000000000002,1.1616161616161622 5.000000000000002,1.0606060606060617 5.000000000000002,0.9595959595959602 5.000000000000002,0.8585858585858596 5.000000000000002,0.7575757575757579 5.000000000000002,0.6565656565656574 5.000000000000002,0.5555555555555567 5.000000000000002,0.4545454545454551 5.000000000000002,0.3535353535353544 5.000000000000002,0.2525252525252529 5.000000000000002,0.1515151515151522 5.000000000000002,0.050505050505051545 5.000000000000002,-0.05050505050505001 5.000000000000002,-0.15151515151515066 5.000000000000002,-0.2525252525252522 5.000000000000002,-0.35353535353535287 5.000000000000002,-0.4545454545454544 5.000000000000002,-0.555555555555555 5.000000000000002,-0.6565656565656557 5.000000000000002,-0.7575757575757572 5.000000000000002,-0.8585858585858579 5.000000000000002,-0.9595959595959596 5.000000000000002,-1.0606060606060603 5.000000000000002,-1.1616161616161613 5.000000000000002,-1.2626262626262625 5.000000000000002,-1.363636363636363 5.000000000000002,-1.4646464646464643 5.000000000000002,-1.5656565656565653 5.000000000000002,-1.6666666666666665 5.000000000000002,-1.7676767676767675 5.000000000000002,-1.8686868686868683 5.000000000000002,-1.9696969696969693" data-type="line" data-label="" points="583.5151515151515,316.5252525252526 593.0505050505051,306.9898989898991 602.5858585858585,297.4545454545456 612.1212121212121,287.91919191919203 621.6565656565656,278.38383838383857 631.1919191919192,268.84848484848493 640.7272727272727,259.3131313131314 650.2626262626262,249.77777777777794 659.7979797979798,240.24242424242436 669.3333333333333,230.70707070707084 678.8686868686868,221.17171717171726 688.4040404040404,211.63636363636374 697.9393939393939,202.10101010101027 707.4747474747475,192.56565656565675 717.0101010101009,183.03030303030312 726.5454545454545,173.4949494949496 736.0808080808081,163.95959595959613 745.6161616161615,154.4242424242426 755.1515151515151,144.88888888888908 764.6868686868686,135.35353535353545 774.2222222222222,125.81818181818198 783.7575757575758,116.28282828282846 793.2929292929292,106.747474747475 802.8282828282828,97.21212121212153 812.3636363636363,97.21212121212153 821.8989898989898,87.67676767676778 831.4343434343433,97.21212121212153 840.969696969697,97.21212121212153 850.5050505050505,106.747474747475 860.0404040404039,116.28282828282846 869.5757575757575,125.81818181818198 879.111111111111,135.35353535353545 888.6464646464647,144.88888888888908 898.181818181818,154.4242424242426 907.7171717171716,163.95959595959613 917.2525252525251,173.4949494949496 926.7878787878785,183.03030303030312 936.3232323232323,192.56565656565675 945.8585858585857,202.10101010101027 955.3939393939393,211.63636363636374 964.9292929292927,221.17171717171726 974.4646464646464,230.70707070707084 984,240.24242424242436 984,249.77777777777794 984,259.3131313131314 984,268.84848484848493 984,278.38383838383857 984,287.91919191919203 984,297.4545454545456 984,306.9898989898991 984,316.5252525252526 984,326.06060606060623 984,335.5959595959597 984,345.1313131313133 984,354.66666666666674 984,364.2020202020203 984,373.73737373737384 984,383.27272727272737 984,392.80808080808094 984,402.3434343434344 984,411.87878787878793 984,421.4141414141415 984,430.94949494949503 984,440.4848484848486 984,450.0202020202021 984,459.5555555555556 984,469.0909090909092 984,478.6262626262627 984,488.1616161616163 984,497.69696969696975 984,507.23232323232327 984,516.7676767676768 984,526.3030303030304 984,535.838383838384 984,545.3737373737374 984,554.909090909091 984,564.4444444444445 984,573.979797979798 984,583.5151515151516 984,593.0505050505051 984,602.5858585858587 984,612.1212121212121 984,621.6565656565657 984,631.1919191919193 984,640.7272727272727 984,650.2626262626263 984,659.7979797979798 984,669.3333333333334 984,678.8686868686868 984,688.4040404040404 984,697.939393939394" fill="none" stroke="rgba(0,0,255,0.75)" stroke-width="14.159999999999995"/></g><g><polyline data-points="-0.35353535353535287,-5.000000000000001 -0.4545454545454544,-4.898989898989899 -0.555555555555555,-4.7979797979797985 -0.6565656565656557,-4.696969696969697 -0.7575757575757572,-4.595959595959596 -0.8585858585858579,-4.494949494949496 -0.9595959595959596,-4.393939393939394 -1.0606060606060603,-4.292929292929293 -1.1616161616161613,-4.191919191919193 -1.2626262626262625,-4.090909090909091 -1.363636363636363,-3.98989898989899 -1.4646464646464643,-3.8888888888888884 -1.5656565656565653,-3.7878787878787876 -1.6666666666666665,-3.6868686868686864 -1.7676767676767675,-3.5858585858585856 -1.8686868686868683,-3.484848484848485 -1.9696969696969693,-3.383838383838383 -2.07070707070707,-3.2828282828282824 -2.1717171717171713,-3.1818181818181817 -2.2727272727272725,-3.0808080808080804 -2.3737373737373733,-2.9797979797979792 -2.474747474747474,-2.8787878787878785 -2.5757575757575752,-2.7777777777777777 -2.6767676767676765,-2.6767676767676765 -2.7777777777777777,-2.5757575757575752 -2.8787878787878785,-2.474747474747474 -2.9797979797979792,-2.3737373737373733 -3.0808080808080804,-2.2727272727272725 -3.1818181818181817,-2.1717171717171713 -3.2828282828282824,-2.07070707070707 -3.383838383838383,-1.9696969696969693 -3.484848484848485,-1.8686868686868683 -3.484848484848485,-1.7676767676767675 -3.5858585858585856,-1.6666666666666665 -3.5858585858585856,-1.5656565656565653 -3.6868686868686864,-1.4646464646464643 -3.7878787878787876,-1.363636363636363 -3.8888888888888884,-1.2626262626262625 -3.98989898989899,-1.1616161616161613 -4.090909090909091,-1.0606060606060603 -4.191919191919193,-0.9595959595959596 -4.292929292929293,-0.8585858585858579 -4.393939393939394,-0.7575757575757572 -4.494949494949496,-0.6565656565656557 -4.595959595959596,-0.555555555555555 -4.696969696969697,-0.4545454545454544 -4.7979797979797985,-0.35353535353535287 -4.898989898989899,-0.2525252525252522 -5.000000000000001,-0.15151515151515066 -5.000000000000001,-0.05050505050505001 -5.000000000000001,0.050505050505051545 -5.000000000000001,0.1515151515151522 -5.000000000000001,0.2525252525252529 -5.000000000000001,0.3535353535353544 -5.000000000000001,0.4545454545454551 -5.000000000000001,0.5555555555555567 -5.000000000000001,0.6565656565656574 -5.000000000000001,0.7575757575757579 -5.000000000000001,0.8585858585858596 -5.000000000000001,0.9595959595959602 -5.000000000000001,1.0606060606060617 -5.000000000000001,1.1616161616161622 -5.000000000000001,1.262626262626263 -5.000000000000001,1.3636363636363644 -5.000000000000001,1.4646464646464652 -5.000000000000001,1.5656565656565666 -5.000000000000001,1.6666666666666674 -5.000000000000001,1.767676767676768 -5.000000000000001,1.8686868686868696 -5.000000000000001,1.9696969696969702 -5.000000000000001,2.070707070707072 -5.000000000000001,2.1717171717171726 -5.000000000000001,2.2727272727272734 -5.000000000000001,2.373737373737375 -5.000000000000001,2.4747474747474754 -5.000000000000001,2.575757575757577 -5.000000000000001,2.676767676767678 -5.000000000000001,2.7777777777777786" data-type="line" data-label="" points="478.62626262626264,984 469.09090909090907,974.4646464646464 459.55555555555554,964.9292929292928 450.0202020202021,955.3939393939394 440.4848484848485,945.8585858585858 430.949494949495,936.3232323232323 421.4141414141414,926.7878787878788 411.8787878787879,917.2525252525252 402.34343434343435,907.7171717171718 392.80808080808083,898.1818181818181 383.2727272727273,888.6464646464647 373.7373737373738,879.1111111111111 364.2020202020202,869.5757575757575 354.6666666666667,860.0404040404039 345.13131313131316,850.5050505050505 335.59595959595964,840.969696969697 326.0606060606061,831.4343434343434 316.5252525252526,821.8989898989898 306.9898989898991,812.3636363636363 297.4545454545455,802.8282828282828 287.91919191919203,793.2929292929292 278.38383838383845,783.7575757575758 268.84848484848493,774.2222222222222 259.3131313131314,764.6868686868687 249.77777777777783,755.1515151515151 240.2424242424243,745.6161616161615 230.70707070707084,736.0808080808081 221.17171717171726,726.5454545454545 211.63636363636374,717.010101010101 202.10101010101022,707.4747474747475 192.5656565656567,697.939393939394 183.03030303030312,688.4040404040404 183.03030303030312,678.8686868686868 173.4949494949496,669.3333333333334 173.4949494949496,659.7979797979798 163.95959595959607,650.2626262626263 154.42424242424255,640.7272727272727 144.88888888888903,631.1919191919193 135.35353535353545,621.6565656565657 125.81818181818193,612.1212121212121 116.28282828282829,602.5858585858587 106.74747474747483,593.0505050505051 97.21212121212136,583.5151515151516 87.67676767676772,573.979797979798 78.14141414141426,564.4444444444445 68.60606060606068,554.909090909091 59.07070707070716,545.3737373737374 49.53535353535369,535.838383838384 40.00000000000006,526.3030303030304 40.00000000000006,516.7676767676768 40.00000000000006,507.23232323232327 40.00000000000006,497.69696969696975 40.00000000000006,488.1616161616163 40.00000000000006,478.6262626262627 40.00000000000006,469.0909090909092 40.00000000000006,459.5555555555556 40.00000000000006,450.0202020202021 40.00000000000006,440.4848484848486 40.00000000000006,430.94949494949503 40.00000000000006,421.4141414141415 40.00000000000006,411.87878787878793 40.00000000000006,402.3434343434344 40.00000000000006,392.80808080808094 40.00000000000006,383.27272727272737 40.00000000000006,373.73737373737384 40.00000000000006,364.2020202020203 40.00000000000006,354.66666666666674 40.00000000000006,345.1313131313133 40.00000000000006,335.5959595959597 40.00000000000006,326.06060606060623 40.00000000000006,316.5252525252526 40.00000000000006,306.9898989898991 40.00000000000006,297.4545454545456 40.00000000000006,287.91919191919203 40.00000000000006,278.38383838383857 40.00000000000006,268.84848484848493 40.00000000000006,259.3131313131314 40.00000000000006,249.77777777777794" fill="none" stroke="rgba(0,0,255,0.75)" stroke-width="14.159999999999995"/></g><g><polyline data-points="0.8585858585858596,5.000000000000002 0.8585858585858596,4.898989898989901 0.8585858585858596,4.7979797979797985 0.8585858585858596,4.696969696969697 0.8585858585858596,4.595959595959597 0.8585858585858596,4.494949494949497 0.8585858585858596,4.393939393939394 0.8585858585858596,4.292929292929293 0.8585858585858596,4.191919191919193 0.8585858585858596,4.090909090909092 0.8585858585858596,3.989898989898992 0.8585858585858596,3.8888888888888893 0.8585858585858596,3.7878787878787885 0.8585858585858596,3.6868686868686877 0.8585858585858596,3.5858585858585874 0.8585858585858596,3.4848484848484866 0.8585858585858596,3.383838383838384 0.8585858585858596,3.2828282828282833 0.8585858585858596,3.181818181818183 0.8585858585858596,3.080808080808082 0.8585858585858596,2.9797979797979806 0.8585858585858596,2.87878787878788 0.8585858585858596,2.7777777777777786 0.7575757575757579,2.676767676767678 0.6565656565656574,2.575757575757577 0.5555555555555567,2.4747474747474754 0.4545454545454551,2.373737373737375 0.3535353535353544,2.2727272727272734 0.3535353535353544,2.1717171717171726 0.2525252525252529,2.070707070707072 0.3535353535353544,1.9696969696969702 0.3535353535353544,1.8686868686868696 0.4545454545454551,1.767676767676768 0.5555555555555567,1.6666666666666674 0.6565656565656574,1.5656565656565666 0.7575757575757579,1.4646464646464652 0.8585858585858596,1.3636363636363644 0.9595959595959602,1.262626262626263 1.0606060606060617,1.1616161616161622 1.1616161616161622,1.0606060606060617 1.262626262626263,1.0606060606060617 1.3636363636363644,1.0606060606060617 1.4646464646464652,1.0606060606060617 1.5656565656565666,1.0606060606060617 1.6666666666666674,1.0606060606060617 1.767676767676768,1.0606060606060617 1.8686868686868696,1.0606060606060617 1.9696969696969702,1.0606060606060617 2.070707070707072,1.0606060606060617 2.1717171717171726,1.0606060606060617 2.2727272727272734,1.0606060606060617 2.373737373737375,1.0606060606060617 2.4747474747474754,1.0606060606060617 2.575757575757577,1.0606060606060617 2.676767676767678,1.0606060606060617 2.7777777777777786,1.0606060606060617 2.87878787878788,1.0606060606060617" data-type="line" data-label="" points="593.0505050505051,40.000000000000114 593.0505050505051,49.53535353535369 593.0505050505051,59.07070707070733 593.0505050505051,68.60606060606085 593.0505050505051,78.14141414141432 593.0505050505051,87.67676767676778 593.0505050505051,97.21212121212153 593.0505050505051,106.747474747475 593.0505050505051,116.28282828282846 593.0505050505051,125.81818181818198 593.0505050505051,135.35353535353545 593.0505050505051,144.88888888888908 593.0505050505051,154.4242424242426 593.0505050505051,163.95959595959613 593.0505050505051,173.4949494949496 593.0505050505051,183.03030303030312 593.0505050505051,192.56565656565675 593.0505050505051,202.10101010101027 593.0505050505051,211.63636363636374 593.0505050505051,221.17171717171726 593.0505050505051,230.70707070707084 593.0505050505051,240.24242424242436 593.0505050505051,249.77777777777794 583.5151515151515,259.3131313131314 573.9797979797979,268.84848484848493 564.4444444444445,278.38383838383857 554.9090909090909,287.91919191919203 545.3737373737374,297.4545454545456 545.3737373737374,306.9898989898991 535.8383838383838,316.5252525252526 545.3737373737374,326.06060606060623 545.3737373737374,335.5959595959597 554.9090909090909,345.1313131313133 564.4444444444445,354.66666666666674 573.9797979797979,364.2020202020203 583.5151515151515,373.73737373737384 593.0505050505051,383.27272727272737 602.5858585858585,392.80808080808094 612.1212121212121,402.3434343434344 621.6565656565656,411.87878787878793 631.1919191919192,411.87878787878793 640.7272727272727,411.87878787878793 650.2626262626262,411.87878787878793 659.7979797979798,411.87878787878793 669.3333333333333,411.87878787878793 678.8686868686868,411.87878787878793 688.4040404040404,411.87878787878793 697.9393939393939,411.87878787878793 707.4747474747475,411.87878787878793 717.0101010101009,411.87878787878793 726.5454545454545,411.87878787878793 736.0808080808081,411.87878787878793 745.6161616161615,411.87878787878793 755.1515151515151,411.87878787878793 764.6868686868686,411.87878787878793 774.2222222222222,411.87878787878793 783.7575757575758,411.87878787878793" fill="none" stroke="rgba(0,0,255,0.75)" stroke-width="14.159999999999995"/></g><g><polyline data-points="2.87878787878788,1.0606060606060617 2.9797979797979806,1.0606060606060617 3.080808080808082,1.0606060606060617 3.181818181818183,1.0606060606060617 3.2828282828282833,1.0606060606060617 3.383838383838384,1.0606060606060617 3.4848484848484866,1.0606060606060617 3.5858585858585874,1.0606060606060617 3.6868686868686877,1.0606060606060617 3.7878787878787885,1.0606060606060617 3.8888888888888893,1.0606060606060617 3.989898989898992,1.0606060606060617 4.090909090909092,1.0606060606060617 4.191919191919193,1.0606060606060617 4.292929292929293,1.0606060606060617 4.393939393939394,1.0606060606060617 4.494949494949497,1.0606060606060617 4.595959595959597,1.0606060606060617 4.696969696969697,1.0606060606060617 4.7979797979797985,1.0606060606060617 4.898989898989901,1.0606060606060617 5.000000000000002,1.0606060606060617" data-type="line" data-label="" points="783.7575757575758,411.87878787878793 793.2929292929292,411.87878787878793 802.8282828282828,411.87878787878793 812.3636363636363,411.87878787878793 821.8989898989898,411.87878787878793 831.4343434343433,411.87878787878793 840.969696969697,411.87878787878793 850.5050505050505,411.87878787878793 860.0404040404039,411.87878787878793 869.5757575757575,411.87878787878793 879.111111111111,411.87878787878793 888.6464646464647,411.87878787878793 898.181818181818,411.87878787878793 907.7171717171716,411.87878787878793 917.2525252525251,411.87878787878793 926.7878787878785,411.87878787878793 936.3232323232323,411.87878787878793 945.8585858585857,411.87878787878793 955.3939393939393,411.87878787878793 964.9292929292927,411.87878787878793 974.4646464646464,411.87878787878793 984,411.87878787878793" fill="none" stroke="rgba(255,0,0,0.75)" stroke-width="14.159999999999995"/></g><g><rect data-type="rect" data-label="" data-x="0" data-y="0" x="40.000000000000114" y="40.000000000000284" width="943.9999999999997" height="943.9999999999998" fill="none" stroke="gray" stroke-width="0.010593220338983056"/></g><g><rect data-type="rect" data-label="" data-x="0" data-y="0" x="40.000000000000114" y="40.000000000000284" width="943.9999999999997" height="943.9999999999998" fill="none" stroke="rgba(15, 23, 42, 0.8)" stroke-width="0.010593220338983056"/></g><circle data-type="circle" data-label="" data-x="-3.98989898989899" data-y="-1.7676767676767675" cx="135.35353535353545" cy="678.8686868686868" r="28.791999999999987" fill="rgba(0,0,0,0.3)" stroke="black" stroke-width="0.010593220338983056"/><circle data-type="circle" data-label="" data-x="-0.2525252525252522" data-y="-3.383838383838383" cx="488.16161616161617" cy="831.4343434343434" r="28.791999999999987" fill="rgba(0,0,0,0.3)" stroke="black" stroke-width="0.010593220338983056"/><circle data-type="circle" data-label="" data-x="-3.98989898989899" data-y="-3.383838383838383" cx="135.35353535353545" cy="831.4343434343434" r="28.791999999999987" fill="rgba(0,0,0,0.3)" stroke="black" stroke-width="0.010593220338983056"/><circle data-type="circle" data-label="" data-x="3.2828282828282833" data-y="3.989898989898992" cx="821.8989898989898" cy="135.35353535353545" r="28.791999999999987" fill="rgba(0,0,0,0.3)" stroke="black" stroke-width="0.010593220338983056"/><circle data-type="circle" data-label="" data-x="3.4848484848484866" data-y="-2.7777777777777777" cx="840.969696969697" cy="774.2222222222222" r="28.791999999999987" fill="rgba(0,0,0,0.3)" stroke="black" stroke-width="0.010593220338983056"/><circle data-type="circle" data-label="" data-x="-2.07070707070707" data-y="-3.98989898989899" cx="316.5252525252526" cy="888.6464646464647" r="28.791999999999987" fill="rgba(0,0,0,0.3)" stroke="black" stroke-width="0.010593220338983056"/><circle data-type="circle" data-label="" data-x="1.4646464646464652" data-y="0.4545454545454551" cx="650.2626262626262" cy="469.0909090909092" r="28.791999999999987" fill="rgba(0,0,0,0.3)" stroke="black" stroke-width="0.010593220338983056"/><circle data-type="circle" data-label="" data-x="-0.35353535353535287" data-y="2.575757575757577" cx="478.62626262626264" cy="268.84848484848493" r="28.791999999999987" fill="rgba(0,0,0,0.3)" stroke="black" stroke-width="0.010593220338983056"/><circle data-type="circle" data-label="" data-x="-3.98989898989899" data-y="3.4848484848484866" cx="135.35353535353545" cy="183.03030303030312" r="28.791999999999987" fill="rgba(0,0,0,0.3)" stroke="black" stroke-width="0.010593220338983056"/><circle data-type="circle" data-label="" data-x="-1.5656565656565653" data-y="2.070707070707072" cx="364.2020202020202" cy="316.5252525252526" r="28.791999999999987" fill="rgba(0,0,0,0.3)" stroke="black" stroke-width="0.010593220338983056"/><circle data-type="circle" data-label="" data-x="0.7575757575757579" data-y="2.070707070707072" cx="583.5151515151515" cy="316.5252525252526" r="28.791999999999987" fill="rgba(0,0,0,0.3)" stroke="black" stroke-width="0.010593220338983056"/><circle data-type="circle" data-label="" data-x="2.87878787878788" data-y="1.0606060606060617" cx="783.7575757575758" cy="411.87878787878793" r="28.791999999999987" fill="rgba(0,0,0,0.3)" stroke="black" stroke-width="0.010593220338983056"/><g id="crosshair" style="display: none"><line id="crosshair-h" y1="0" y2="1024" stroke="#666" stroke-width="0.5"/><line id="crosshair-v" x1="0" x2="1024" stroke="#666" stroke-width="0.5"/><text id="coordinates" font-family="monospace" font-size="12" fill="#666"></text></g><script><![CDATA[
              document.currentScript.parentElement.addEventListener('mousemove', (e) => {
                const svg = e.currentTarget;
                const rect = svg.getBoundingClientRect();
                const x = e.clientX - rect.left;
                const y = e.clientY - rect.top;
                const crosshair = svg.getElementById('crosshair');
                const h = svg.getElementById('crosshair-h');
                const v = svg.getElementById('crosshair-v');
                const coords = svg.getElementById('coordinates');
                
                crosshair.style.display = 'block';
                h.setAttribute('x1', '0');
                h.setAttribute('x2', '1024');
                h.setAttribute('y1', y);
                h.setAttribute('y2', y);
                v.setAttribute('x1', x);
                v.setAttribute('x2', x);
                v.setAttribute('y1', '0');
                v.setAttribute('y2', '1024');

                // Calculate real coordinates using inverse transformation
                const matrix = {"a":94.39999999999996,"c":0,"e":511.99999999999994,"b":0,"d":-94.39999999999996,"f":512.0000000000001};
                // Manually invert and apply the affine transform
                // Since we only use translate and scale, we can directly compute:
                // x' = (x - tx) / sx
                // y' = (y - ty) / sy
                const sx = matrix.a;
                const sy = matrix.d;
                const tx = matrix.e; 
                const ty = matrix.f;
                const realPoint = {
                  x: (x - tx) / sx,
                  y: (y - ty) / sy // Flip y back since we used negative scale
                }
                
                coords.textContent = `(${realPoint.x.toFixed(2)}, ${realPoint.y.toFixed(2)})`;
                coords.setAttribute('x', (x + 5).toString());
                coords.setAttribute('y', (y - 5).toString());
              });
              document.currentScript.parentElement.addEventListener('mouseleave', () => {
                document.currentScript.parentElement.getElementById('crosshair').style.display = 'none';
              });
            ]]></script></svg>