<svg width="1024" height="1024" viewBox="0 0 1024 1024" xmlns="http://www.w3.org/2000/svg"><rect width="100%" height="100%" fill="white"/><g><circle data-type="point" data-label="conn_000" data-x="5" data-y="0.36" cx="983.9999999999998" cy="478.01600000000013" r="28.792" fill="red" stroke="#bd0f0f" stroke-width="28.792"/></g><g><circle data-type="point" data-label="conn_000" data-x="-5" data-y="2.58" cx="40.000000000000114" cy="268.4480000000002" r="28.792" fill="red" stroke="#bd0f0f" stroke-width="28.792"/></g><g><circle data-type="point" data-label="conn_001" data-x="2.24" data-y="5" cx="723.4559999999999" cy="40.000000000000284" r="28.792" fill="red" stroke="#0fbd42" stroke-width="28.792"/></g><g><circle data-type="point" data-label="conn_001" data-x="1.96" data-y="-5" cx="697.0239999999999" cy="984" r="28.792" fill="blue" stroke="#0fbd42" stroke-width="28.792"/></g><g><circle data-type="point" data-label="conn_002" data-x="-5" data-y="-0.24" cx="40.000000000000114" cy="534.6560000000001" r="28.792" fill="blue" stroke="#740fbd" stroke-width="28.792"/></g><g><circle data-type="point" data-label="conn_002" data-x="5" data-y="3.66" cx="983.9999999999998" cy="166.4960000000002" r="28.792" fill="red" stroke="#740fbd" stroke-width="28.792"/></g><g><circle data-type="point" data-label="conn_003" data-x="-4.24" data-y="-5" cx="111.74400000000009" cy="984" r="28.792" fill="red" stroke="#bda70f" stroke-width="28.792"/></g><g><circle data-type="point" data-label="conn_003" data-x="1.4000000000000001" data-y="5" cx="644.1599999999999" cy="40.000000000000284" r="28.792" fill="red" stroke="#bda70f" stroke-width="28.792"/></g><g><circle data-type="point" data-label="conn_004" data-x="4.0200000000000005" data-y="-5" cx="891.4879999999998" cy="984" r="28.792" fill="blue" stroke="#0fa0bd" stroke-width="28.792"/></g><g><circle data-type="point" data-label="conn_004" data-x="0.36" data-y="5" cx="545.9839999999999" cy="40.000000000000284" r="28.792" fill="red" stroke="#0fa0bd" stroke-width="28.792"/></g><g><circle data-type="point" data-label="conn_005" data-x="-3.96" data-y="5" cx="138.1760000000001" cy="40.000000000000284" r="28.792" fill="blue" stroke="#bd0f6d" stroke-width="28.792"/></g><g><circle data-type="point" data-label="conn_005" data-x="5" data-y="-2.56" cx="983.9999999999998" cy="753.664" r="28.792" fill="red" stroke="#bd0f6d" stroke-width="28.792"/></g><g><circle data-type="point" data-label="conn_006" data-x="-1.12" data-y="5" cx="406.272" cy="40.000000000000284" r="28.792" fill="red" stroke="#3bbd0f" stroke-width="28.792"/></g><g><circle data-type="point" data-label="conn_006" data-x="-3.22" data-y="-5" cx="208.03200000000004" cy="984" r="28.792" fill="red" stroke="#3bbd0f" stroke-width="28.792"/></g><g><polyline data-points="2.2727272727272734,5.000000000000002 2.1717171717171726,4.898989898989901 2.070707070707072,4.7979797979797985 1.9696969696969702,4.696969696969697 1.9696969696969702,4.595959595959597 1.9696969696969702,4.494949494949497 1.9696969696969702,4.393939393939394 1.9696969696969702,4.292929292929293 1.9696969696969702,4.191919191919193 1.9696969696969702,4.090909090909092 1.9696969696969702,3.989898989898992 1.9696969696969702,3.8888888888888893 1.9696969696969702,3.7878787878787885 1.9696969696969702,3.6868686868686877 1.9696969696969702,3.5858585858585874 1.9696969696969702,3.4848484848484866 1.9696969696969702,3.383838383838384 1.9696969696969702,3.2828282828282833 1.9696969696969702,3.181818181818183 1.9696969696969702,3.080808080808082 1.9696969696969702,2.9797979797979806 1.9696969696969702,2.87878787878788 1.9696969696969702,2.7777777777777786 1.9696969696969702,2.676767676767678 1.9696969696969702,2.575757575757577 1.9696969696969702,2.4747474747474754 1.9696969696969702,2.373737373737375 1.9696969696969702,2.2727272727272734 1.9696969696969702,2.1717171717171726 1.9696969696969702,2.070707070707072 1.9696969696969702,1.9696969696969702 1.9696969696969702,1.8686868686868696 1.9696969696969702,1.767676767676768 1.9696969696969702,1.6666666666666674 1.9696969696969702,1.5656565656565666 1.9696969696969702,1.4646464646464652 1.9696969696969702,1.3636363636363644 1.9696969696969702,1.262626262626263 1.9696969696969702,1.1616161616161622 1.9696969696969702,1.0606060606060617 1.9696969696969702,0.9595959595959602 1.9696969696969702,0.8585858585858596 1.9696969696969702,0.7575757575757579 1.9696969696969702,0.6565656565656574 1.9696969696969702,0.5555555555555567 1.9696969696969702,0.4545454545454551 1.9696969696969702,0.3535353535353544 1.9696969696969702,0.2525252525252529 1.9696969696969702,0.1515151515151522 1.9696969696969702,0.050505050505051545 1.9696969696969702,-0.05050505050505001 1.9696969696969702,-0.15151515151515066 1.9696969696969702,-0.2525252525252522 1.9696969696969702,-0.35353535353535287 1.9696969696969702,-0.4545454545454544 1.9696969696969702,-0.555555555555555 1.9696969696969702,-0.6565656565656557 1.9696969696969702,-0.7575757575757572 1.9696969696969702,-0.8585858585858579 1.9696969696969702,-0.9595959595959596 1.9696969696969702,-1.0606060606060603 1.9696969696969702,-1.1616161616161613 1.9696969696969702,-1.2626262626262625 1.9696969696969702,-1.363636363636363 1.9696969696969702,-1.4646464646464643 1.9696969696969702,-1.5656565656565653 1.9696969696969702,-1.6666666666666665 1.9696969696969702,-1.7676767676767675 1.9696969696969702,-1.8686868686868683 1.9696969696969702,-1.9696969696969693 1.9696969696969702,-2.07070707070707 1.9696969696969702,-2.1717171717171713 1.9696969696969702,-2.2727272727272725 1.9696969696969702,-2.3737373737373733 1.9696969696969702,-2.474747474747474 1.9696969696969702,-2.5757575757575752 1.9696969696969702,-2.6767676767676765 1.9696969696969702,-2.7777777777777777 1.9696969696969702,-2.8787878787878785 1.9696969696969702,-2.9797979797979792 1.9696969696969702,-3.0808080808080804 1.9696969696969702,-3.1818181818181817 1.9696969696969702,-3.2828282828282824 1.9696969696969702,-3.383838383838383 1.9696969696969702,-3.484848484848485 1.9696969696969702,-3.5858585858585856 1.9696969696969702,-3.6868686868686864 1.9696969696969702,-3.7878787878787876 1.9696969696969702,-3.8888888888888884 1.9696969696969702,-3.98989898989899" data-type="line" data-label="" points="726.5454545454545,40.000000000000114 717.0101010101009,49.53535353535369 707.4747474747475,59.07070707070733 697.9393939393939,68.60606060606085 697.9393939393939,78.14141414141432 697.9393939393939,87.67676767676778 697.9393939393939,97.21212121212153 697.9393939393939,106.747474747475 697.9393939393939,116.28282828282846 697.9393939393939,125.81818181818198 697.9393939393939,135.35353535353545 697.9393939393939,144.88888888888908 697.9393939393939,154.4242424242426 697.9393939393939,163.95959595959613 697.9393939393939,173.4949494949496 697.9393939393939,183.03030303030312 697.9393939393939,192.56565656565675 697.9393939393939,202.10101010101027 697.9393939393939,211.63636363636374 697.9393939393939,221.17171717171726 697.9393939393939,230.70707070707084 697.9393939393939,240.24242424242436 697.9393939393939,249.77777777777794 697.9393939393939,259.3131313131314 697.9393939393939,268.84848484848493 697.9393939393939,278.38383838383857 697.9393939393939,287.91919191919203 697.9393939393939,297.4545454545456 697.9393939393939,306.9898989898991 697.9393939393939,316.5252525252526 697.9393939393939,326.06060606060623 697.9393939393939,335.5959595959597 697.9393939393939,345.1313131313133 697.9393939393939,354.66666666666674 697.9393939393939,364.2020202020203 697.9393939393939,373.73737373737384 697.9393939393939,383.27272727272737 697.9393939393939,392.80808080808094 697.9393939393939,402.3434343434344 697.9393939393939,411.87878787878793 697.9393939393939,421.4141414141415 697.9393939393939,430.94949494949503 697.9393939393939,440.4848484848486 697.9393939393939,450.0202020202021 697.9393939393939,459.5555555555556 697.9393939393939,469.0909090909092 697.9393939393939,478.6262626262627 697.9393939393939,488.1616161616163 697.9393939393939,497.69696969696975 697.9393939393939,507.23232323232327 697.9393939393939,516.7676767676768 697.9393939393939,526.3030303030304 697.9393939393939,535.838383838384 697.9393939393939,545.3737373737374 697.9393939393939,554.909090909091 697.9393939393939,564.4444444444445 697.9393939393939,573.979797979798 697.9393939393939,583.5151515151516 697.9393939393939,593.0505050505051 697.9393939393939,602.5858585858587 697.9393939393939,612.1212121212121 697.9393939393939,621.6565656565657 697.9393939393939,631.1919191919193 697.9393939393939,640.7272727272727 697.9393939393939,650.2626262626263 697.9393939393939,659.7979797979798 697.9393939393939,669.3333333333334 697.9393939393939,678.8686868686868 697.9393939393939,688.4040404040404 697.9393939393939,697.939393939394 697.9393939393939,707.4747474747475 697.9393939393939,717.010101010101 697.9393939393939,726.5454545454545 697.9393939393939,736.0808080808081 697.9393939393939,745.6161616161615 697.9393939393939,755.1515151515151 697.9393939393939,764.6868686868687 697.9393939393939,774.2222222222222 697.9393939393939,783.7575757575758 697.9393939393939,793.2929292929292 697.9393939393939,802.8282828282828 697.9393939393939,812.3636363636363 697.9393939393939,821.8989898989898 697.9393939393939,831.4343434343434 697.9393939393939,840.969696969697 697.9393939393939,850.5050505050505 697.9393939393939,860.0404040404039 697.9393939393939,869.5757575757575 697.9393939393939,879.1111111111111 697.9393939393939,888.6464646464647" fill="none" stroke="rgba(255,0,0,0.75)" stroke-width="14.159999999999995"/></g><g><polyline data-points="1.9696969696969702,-3.98989898989899 1.9696969696969702,-4.090909090909091 1.9696969696969702,-4.191919191919193 1.9696969696969702,-4.292929292929293 1.9696969696969702,-4.393939393939394 1.9696969696969702,-4.494949494949496 1.9696969696969702,-4.595959595959596 1.9696969696969702,-4.696969696969697 1.9696969696969702,-4.7979797979797985 1.9696969696969702,-4.898989898989899 1.9696969696969702,-5.000000000000001" data-type="line" data-label="" points="697.9393939393939,888.6464646464647 697.9393939393939,898.1818181818181 697.9393939393939,907.7171717171718 697.9393939393939,917.2525252525252 697.9393939393939,926.7878787878788 697.9393939393939,936.3232323232323 697.9393939393939,945.8585858585858 697.9393939393939,955.3939393939394 697.9393939393939,964.9292929292928 697.9393939393939,974.4646464646464 697.9393939393939,984" fill="none" stroke="rgba(0,0,255,0.75)" stroke-width="14.159999999999995"/></g><g><polyline data-points="-5.000000000000001,-0.2525252525252522 -4.898989898989899,-0.15151515151515066 -4.7979797979797985,-0.05050505050505001 -4.696969696969697,0.050505050505051545 -4.595959595959596,0.1515151515151522 -4.494949494949496,0.2525252525252529 -4.393939393939394,0.3535353535353544 -4.292929292929293,0.4545454545454551 -4.191919191919193,0.5555555555555567 -4.090909090909091,0.6565656565656574 -3.98989898989899,0.7575757575757579 -3.8888888888888884,0.8585858585858596 -3.7878787878787876,0.9595959595959602 -3.6868686868686864,1.0606060606060617 -3.5858585858585856,1.1616161616161622 -3.484848484848485,1.262626262626263 -3.383838383838383,1.3636363636363644 -3.2828282828282824,1.4646464646464652 -3.1818181818181817,1.5656565656565666 -3.0808080808080804,1.6666666666666674 -2.9797979797979792,1.767676767676768 -2.8787878787878785,1.8686868686868696 -2.7777777777777777,1.9696969696969702 -2.6767676767676765,2.070707070707072 -2.5757575757575752,2.1717171717171726 -2.474747474747474,2.2727272727272734 -2.3737373737373733,2.373737373737375 -2.2727272727272725,2.4747474747474754 -2.1717171717171713,2.575757575757577 -2.07070707070707,2.676767676767678 -1.9696969696969693,2.7777777777777786 -1.8686868686868683,2.87878787878788 -1.7676767676767675,2.9797979797979806 -1.6666666666666665,3.080808080808082 -1.5656565656565653,3.181818181818183 -1.4646464646464643,3.2828282828282833 -1.363636363636363,3.383838383838384 -1.2626262626262625,3.4848484848484866 -1.1616161616161613,3.5858585858585874 -1.0606060606060603,3.6868686868686877 -0.9595959595959596,3.6868686868686877 -0.8585858585858579,3.6868686868686877 -0.7575757575757572,3.6868686868686877 -0.6565656565656557,3.6868686868686877 -0.555555555555555,3.6868686868686877 -0.4545454545454544,3.6868686868686877 -0.35353535353535287,3.6868686868686877 -0.2525252525252522,3.6868686868686877 -0.15151515151515066,3.6868686868686877 -0.05050505050505001,3.6868686868686877 0.050505050505051545,3.6868686868686877 0.1515151515151522,3.6868686868686877 0.2525252525252529,3.6868686868686877 0.3535353535353544,3.6868686868686877 0.4545454545454551,3.6868686868686877 0.5555555555555567,3.6868686868686877 0.6565656565656574,3.6868686868686877 0.7575757575757579,3.6868686868686877 0.8585858585858596,3.6868686868686877 0.9595959595959602,3.6868686868686877 1.0606060606060617,3.6868686868686877 1.1616161616161622,3.6868686868686877 1.262626262626263,3.6868686868686877 1.3636363636363644,3.6868686868686877 1.4646464646464652,3.6868686868686877 1.5656565656565666,3.6868686868686877 1.6666666666666674,3.6868686868686877 1.767676767676768,3.6868686868686877 1.8686868686868696,3.6868686868686877 1.9696969696969702,3.6868686868686877 2.070707070707072,3.6868686868686877 2.1717171717171726,3.6868686868686877 2.2727272727272734,3.6868686868686877 2.373737373737375,3.6868686868686877 2.4747474747474754,3.6868686868686877 2.575757575757577,3.6868686868686877 2.676767676767678,3.6868686868686877 2.7777777777777786,3.6868686868686877 2.87878787878788,3.6868686868686877 2.9797979797979806,3.6868686868686877 3.080808080808082,3.6868686868686877 3.181818181818183,3.6868686868686877 3.2828282828282833,3.6868686868686877 3.383838383838384,3.6868686868686877 3.4848484848484866,3.6868686868686877 3.5858585858585874,3.6868686868686877 3.6868686868686877,3.6868686868686877 3.7878787878787885,3.6868686868686877 3.8888888888888893,3.6868686868686877 3.989898989898992,3.6868686868686877" data-type="line" data-label="" points="40.00000000000006,535.838383838384 49.53535353535369,526.3030303030304 59.07070707070716,516.7676767676768 68.60606060606068,507.23232323232327 78.14141414141426,497.69696969696975 87.67676767676772,488.1616161616163 97.21212121212136,478.6262626262627 106.74747474747483,469.0909090909092 116.28282828282829,459.5555555555556 125.81818181818193,450.0202020202021 135.35353535353545,440.4848484848486 144.88888888888903,430.94949494949503 154.42424242424255,421.4141414141415 163.95959595959607,411.87878787878793 173.4949494949496,402.3434343434344 183.03030303030312,392.80808080808094 192.5656565656567,383.27272727272737 202.10101010101022,373.73737373737384 211.63636363636374,364.2020202020203 221.17171717171726,354.66666666666674 230.70707070707084,345.1313131313133 240.2424242424243,335.5959595959597 249.77777777777783,326.06060606060623 259.3131313131314,316.5252525252526 268.84848484848493,306.9898989898991 278.38383838383845,297.4545454545456 287.91919191919203,287.91919191919203 297.4545454545455,278.38383838383857 306.9898989898991,268.84848484848493 316.5252525252526,259.3131313131314 326.0606060606061,249.77777777777794 335.59595959595964,240.24242424242436 345.13131313131316,230.70707070707084 354.6666666666667,221.17171717171726 364.2020202020202,211.63636363636374 373.7373737373738,202.10101010101027 383.2727272727273,192.56565656565675 392.80808080808083,183.03030303030312 402.34343434343435,173.4949494949496 411.8787878787879,163.95959595959613 421.4141414141414,163.95959595959613 430.949494949495,163.95959595959613 440.4848484848485,163.95959595959613 450.0202020202021,163.95959595959613 459.55555555555554,163.95959595959613 469.09090909090907,163.95959595959613 478.62626262626264,163.95959595959613 488.16161616161617,163.95959595959613 497.69696969696975,163.95959595959613 507.2323232323232,163.95959595959613 516.7676767676768,163.95959595959613 526.3030303030303,163.95959595959613 535.8383838383838,163.95959595959613 545.3737373737374,163.95959595959613 554.9090909090909,163.95959595959613 564.4444444444445,163.95959595959613 573.9797979797979,163.95959595959613 583.5151515151515,163.95959595959613 593.0505050505051,163.95959595959613 602.5858585858585,163.95959595959613 612.1212121212121,163.95959595959613 621.6565656565656,163.95959595959613 631.1919191919192,163.95959595959613 640.7272727272727,163.95959595959613 650.2626262626262,163.95959595959613 659.7979797979798,163.95959595959613 669.3333333333333,163.95959595959613 678.8686868686868,163.95959595959613 688.4040404040404,163.95959595959613 697.9393939393939,163.95959595959613 707.4747474747475,163.95959595959613 717.0101010101009,163.95959595959613 726.5454545454545,163.95959595959613 736.0808080808081,163.95959595959613 745.6161616161615,163.95959595959613 755.1515151515151,163.95959595959613 764.6868686868686,163.95959595959613 774.2222222222222,163.95959595959613 783.7575757575758,163.95959595959613 793.2929292929292,163.95959595959613 802.8282828282828,163.95959595959613 812.3636363636363,163.95959595959613 821.8989898989898,163.95959595959613 831.4343434343433,163.95959595959613 840.969696969697,163.95959595959613 850.5050505050505,163.95959595959613 860.0404040404039,163.95959595959613 869.5757575757575,163.95959595959613 879.111111111111,163.95959595959613 888.6464646464647,163.95959595959613" fill="none" stroke="rgba(0,0,255,0.75)" stroke-width="14.159999999999995"/></g><g><polyline data-points="3.989898989898992,3.6868686868686877 4.090909090909092,3.6868686868686877 4.191919191919193,3.6868686868686877 4.292929292929293,3.6868686868686877 4.393939393939394,3.6868686868686877 4.494949494949497,3.6868686868686877 4.595959595959597,3.6868686868686877 4.696969696969697,3.6868686868686877 4.7979797979797985,3.6868686868686877 4.898989898989901,3.6868686868686877 5.000000000000002,3.6868686868686877" data-type="line" data-label="" points="888.6464646464647,163.95959595959613 898.181818181818,163.95959595959613 907.7171717171716,163.95959595959613 917.2525252525251,163.95959595959613 926.7878787878785,163.95959595959613 936.3232323232323,163.95959595959613 945.8585858585857,163.95959595959613 955.3939393939393,163.95959595959613 964.9292929292927,163.95959595959613 974.4646464646464,163.95959595959613 984,163.95959595959613" fill="none" stroke="rgba(255,0,0,0.75)" stroke-width="14.159999999999995"/></g><g><polyline data-points="4.090909090909092,-5.000000000000001 3.989898989898992,-4.898989898989899 3.8888888888888893,-4.7979797979797985 3.7878787878787885,-4.696969696969697 3.6868686868686877,-4.595959595959596 3.5858585858585874,-4.494949494949496 3.4848484848484866,-4.393939393939394 3.383838383838384,-4.292929292929293 3.2828282828282833,-4.191919191919193 3.181818181818183,-4.090909090909091 3.080808080808082,-3.98989898989899 2.9797979797979806,-3.8888888888888884 2.87878787878788,-3.7878787878787876 2.7777777777777786,-3.6868686868686864 2.676767676767678,-3.5858585858585856 2.575757575757577,-3.484848484848485 2.4747474747474754,-3.383838383838383 2.373737373737375,-3.2828282828282824 2.2727272727272734,-3.1818181818181817 2.1717171717171726,-3.0808080808080804 2.070707070707072,-2.9797979797979792 1.9696969696969702,-2.8787878787878785 1.8686868686868696,-2.7777777777777777 1.767676767676768,-2.6767676767676765 1.6666666666666674,-2.5757575757575752 1.5656565656565666,-2.474747474747474 1.4646464646464652,-2.3737373737373733 1.3636363636363644,-2.2727272727272725 1.262626262626263,-2.1717171717171713 1.1616161616161622,-2.07070707070707 1.0606060606060617,-1.9696969696969693 0.9595959595959602,-1.8686868686868683 0.8585858585858596,-1.7676767676767675 0.7575757575757579,-1.6666666666666665 0.6565656565656574,-1.5656565656565653 0.5555555555555567,-1.4646464646464643 0.4545454545454551,-1.363636363636363 0.3535353535353544,-1.2626262626262625 0.3535353535353544,-1.1616161616161613 0.3535353535353544,-1.0606060606060603 0.3535353535353544,-0.9595959595959596 0.3535353535353544,-0.8585858585858579 0.3535353535353544,-0.7575757575757572 0.3535353535353544,-0.6565656565656557 0.3535353535353544,-0.555555555555555 0.3535353535353544,-0.4545454545454544 0.3535353535353544,-0.35353535353535287 0.3535353535353544,-0.2525252525252522 0.3535353535353544,-0.15151515151515066 0.3535353535353544,-0.05050505050505001 0.3535353535353544,0.050505050505051545 0.3535353535353544,0.1515151515151522 0.3535353535353544,0.2525252525252529 0.3535353535353544,0.3535353535353544 0.3535353535353544,0.4545454545454551 0.3535353535353544,0.5555555555555567 0.3535353535353544,0.6565656565656574 0.3535353535353544,0.7575757575757579 0.3535353535353544,0.8585858585858596 0.3535353535353544,0.9595959595959602 0.3535353535353544,1.0606060606060617 0.3535353535353544,1.1616161616161622 0.3535353535353544,1.262626262626263 0.3535353535353544,1.3636363636363644 0.3535353535353544,1.4646464646464652 0.3535353535353544,1.5656565656565666 0.3535353535353544,1.6666666666666674 0.3535353535353544,1.767676767676768 0.3535353535353544,1.8686868686868696 0.3535353535353544,1.9696969696969702 0.3535353535353544,2.070707070707072 0.3535353535353544,2.1717171717171726 0.3535353535353544,2.2727272727272734 0.3535353535353544,2.373737373737375 0.3535353535353544,2.4747474747474754 0.3535353535353544,2.575757575757577 0.3535353535353544,2.676767676767678 0.3535353535353544,2.7777777777777786 0.3535353535353544,2.87878787878788 0.3535353535353544,2.9797979797979806 0.3535353535353544,3.080808080808082" data-type="line" data-label="" points="898.181818181818,984 888.6464646464647,974.4646464646464 879.111111111111,964.9292929292928 869.5757575757575,955.3939393939394 860.0404040404039,945.8585858585858 850.5050505050505,936.3232323232323 840.969696969697,926.7878787878788 831.4343434343433,917.2525252525252 821.8989898989898,907.7171717171718 812.3636363636363,898.1818181818181 802.8282828282828,888.6464646464647 793.2929292929292,879.1111111111111 783.7575757575758,869.5757575757575 774.2222222222222,860.0404040404039 764.6868686868686,850.5050505050505 755.1515151515151,840.969696969697 745.6161616161615,831.4343434343434 736.0808080808081,821.8989898989898 726.5454545454545,812.3636363636363 717.0101010101009,802.8282828282828 707.4747474747475,793.2929292929292 697.9393939393939,783.7575757575758 688.4040404040404,774.2222222222222 678.8686868686868,764.6868686868687 669.3333333333333,755.1515151515151 659.7979797979798,745.6161616161615 650.2626262626262,736.0808080808081 640.7272727272727,726.5454545454545 631.1919191919192,717.010101010101 621.6565656565656,707.4747474747475 612.1212121212121,697.939393939394 602.5858585858585,688.4040404040404 593.0505050505051,678.8686868686868 583.5151515151515,669.3333333333334 573.9797979797979,659.7979797979798 564.4444444444445,650.2626262626263 554.9090909090909,640.7272727272727 545.3737373737374,631.1919191919193 545.3737373737374,621.6565656565657 545.3737373737374,612.1212121212121 545.3737373737374,602.5858585858587 545.3737373737374,593.0505050505051 545.3737373737374,583.5151515151516 545.3737373737374,573.979797979798 545.3737373737374,564.4444444444445 545.3737373737374,554.909090909091 545.3737373737374,545.3737373737374 545.3737373737374,535.838383838384 545.3737373737374,526.3030303030304 545.3737373737374,516.7676767676768 545.3737373737374,507.23232323232327 545.3737373737374,497.69696969696975 545.3737373737374,488.1616161616163 545.3737373737374,478.6262626262627 545.3737373737374,469.0909090909092 545.3737373737374,459.5555555555556 545.3737373737374,450.0202020202021 545.3737373737374,440.4848484848486 545.3737373737374,430.94949494949503 545.3737373737374,421.4141414141415 545.3737373737374,411.87878787878793 545.3737373737374,402.3434343434344 545.3737373737374,392.80808080808094 545.3737373737374,383.27272727272737 545.3737373737374,373.73737373737384 545.3737373737374,364.2020202020203 545.3737373737374,354.66666666666674 545.3737373737374,345.1313131313133 545.3737373737374,335.5959595959597 545.3737373737374,326.06060606060623 545.3737373737374,316.5252525252526 545.3737373737374,306.9898989898991 545.3737373737374,297.4545454545456 545.3737373737374,287.91919191919203 545.3737373737374,278.38383838383857 545.3737373737374,268.84848484848493 545.3737373737374,259.3131313131314 545.3737373737374,249.77777777777794 545.3737373737374,240.24242424242436 545.3737373737374,230.70707070707084 545.3737373737374,221.17171717171726" fill="none" stroke="rgba(0,0,255,0.75)" stroke-width="14.159999999999995"/></g><g><polyline data-points="0.3535353535353544,3.080808080808082 0.3535353535353544,3.181818181818183 0.3535353535353544,3.2828282828282833 0.3535353535353544,3.383838383838384 0.3535353535353544,3.4848484848484866 0.3535353535353544,3.5858585858585874 0.3535353535353544,3.6868686868686877 0.3535353535353544,3.7878787878787885 0.3535353535353544,3.8888888888888893 0.3535353535353544,3.989898989898992 0.3535353535353544,4.090909090909092 0.3535353535353544,4.191919191919193 0.3535353535353544,4.292929292929293 0.3535353535353544,4.393939393939394 0.3535353535353544,4.494949494949497 0.3535353535353544,4.595959595959597 0.3535353535353544,4.696969696969697 0.3535353535353544,4.7979797979797985 0.3535353535353544,4.898989898989901 0.3535353535353544,5.000000000000002" data-type="line" data-label="" points="545.3737373737374,221.17171717171726 545.3737373737374,211.63636363636374 545.3737373737374,202.10101010101027 545.3737373737374,192.56565656565675 545.3737373737374,183.03030303030312 545.3737373737374,173.4949494949496 545.3737373737374,163.95959595959613 545.3737373737374,154.4242424242426 545.3737373737374,144.88888888888908 545.3737373737374,135.35353535353545 545.3737373737374,125.81818181818198 545.3737373737374,116.28282828282846 545.3737373737374,106.747474747475 545.3737373737374,97.21212121212153 545.3737373737374,87.67676767676778 545.3737373737374,78.14141414141432 545.3737373737374,68.60606060606085 545.3737373737374,59.07070707070733 545.3737373737374,49.53535353535369 545.3737373737374,40.000000000000114" fill="none" stroke="rgba(255,0,0,0.75)" stroke-width="14.159999999999995"/></g><g><polyline data-points="-4.292929292929293,-5.000000000000001 -4.191919191919193,-4.898989898989899 -4.090909090909091,-4.7979797979797985 -3.98989898989899,-4.696969696969697 -3.8888888888888884,-4.595959595959596 -3.8888888888888884,-4.494949494949496 -3.8888888888888884,-4.393939393939394 -3.8888888888888884,-4.292929292929293 -3.8888888888888884,-4.191919191919193 -3.8888888888888884,-4.090909090909091 -3.8888888888888884,-3.98989898989899 -3.8888888888888884,-3.8888888888888884 -3.8888888888888884,-3.7878787878787876 -3.8888888888888884,-3.6868686868686864 -3.8888888888888884,-3.5858585858585856 -3.8888888888888884,-3.484848484848485 -3.8888888888888884,-3.383838383838383 -3.8888888888888884,-3.2828282828282824 -3.8888888888888884,-3.1818181818181817 -3.8888888888888884,-3.0808080808080804 -3.8888888888888884,-2.9797979797979792 -3.8888888888888884,-2.8787878787878785 -3.8888888888888884,-2.7777777777777777 -3.8888888888888884,-2.6767676767676765 -3.8888888888888884,-2.5757575757575752 -3.8888888888888884,-2.474747474747474 -3.8888888888888884,-2.3737373737373733 -3.8888888888888884,-2.2727272727272725 -3.8888888888888884,-2.1717171717171713 -3.8888888888888884,-2.07070707070707 -3.8888888888888884,-1.9696969696969693 -3.8888888888888884,-1.8686868686868683 -3.8888888888888884,-1.7676767676767675 -3.8888888888888884,-1.6666666666666665 -3.8888888888888884,-1.5656565656565653 -3.8888888888888884,-1.4646464646464643 -3.8888888888888884,-1.363636363636363 -3.8888888888888884,-1.2626262626262625 -3.8888888888888884,-1.1616161616161613 -3.8888888888888884,-1.0606060606060603 -3.8888888888888884,-0.9595959595959596 -3.8888888888888884,-0.8585858585858579 -3.8888888888888884,-0.7575757575757572 -3.8888888888888884,-0.6565656565656557 -3.8888888888888884,-0.555555555555555 -3.8888888888888884,-0.4545454545454544 -3.8888888888888884,-0.35353535353535287 -3.8888888888888884,-0.2525252525252522" data-type="line" data-label="" points="106.74747474747483,984 116.28282828282829,974.4646464646464 125.81818181818193,964.9292929292928 135.35353535353545,955.3939393939394 144.88888888888903,945.8585858585858 144.88888888888903,936.3232323232323 144.88888888888903,926.7878787878788 144.88888888888903,917.2525252525252 144.88888888888903,907.7171717171718 144.88888888888903,898.1818181818181 144.88888888888903,888.6464646464647 144.88888888888903,879.1111111111111 144.88888888888903,869.5757575757575 144.88888888888903,860.0404040404039 144.88888888888903,850.5050505050505 144.88888888888903,840.969696969697 144.88888888888903,831.4343434343434 144.88888888888903,821.8989898989898 144.88888888888903,812.3636363636363 144.88888888888903,802.8282828282828 144.88888888888903,793.2929292929292 144.88888888888903,783.7575757575758 144.88888888888903,774.2222222222222 144.88888888888903,764.6868686868687 144.88888888888903,755.1515151515151 144.88888888888903,745.6161616161615 144.88888888888903,736.0808080808081 144.88888888888903,726.5454545454545 144.88888888888903,717.010101010101 144.88888888888903,707.4747474747475 144.88888888888903,697.939393939394 144.88888888888903,688.4040404040404 144.88888888888903,678.8686868686868 144.88888888888903,669.3333333333334 144.88888888888903,659.7979797979798 144.88888888888903,650.2626262626263 144.88888888888903,640.7272727272727 144.88888888888903,631.1919191919193 144.88888888888903,621.6565656565657 144.88888888888903,612.1212121212121 144.88888888888903,602.5858585858587 144.88888888888903,593.0505050505051 144.88888888888903,583.5151515151516 144.88888888888903,573.979797979798 144.88888888888903,564.4444444444445 144.88888888888903,554.909090909091 144.88888888888903,545.3737373737374 144.88888888888903,535.838383838384" fill="none" stroke="rgba(255,0,0,0.75)" stroke-width="14.159999999999995"/></g><g><polyline data-points="-3.8888888888888884,-0.2525252525252522 -3.7878787878787876,-0.15151515151515066 -3.6868686868686864,-0.05050505050505001 -3.5858585858585856,0.050505050505051545 -3.484848484848485,0.1515151515151522 -3.383838383838383,0.2525252525252529 -3.2828282828282824,0.3535353535353544 -3.1818181818181817,0.4545454545454551 -3.0808080808080804,0.5555555555555567 -2.9797979797979792,0.6565656565656574 -2.8787878787878785,0.7575757575757579 -2.7777777777777777,0.8585858585858596 -2.6767676767676765,0.9595959595959602 -2.5757575757575752,1.0606060606060617 -2.474747474747474,1.1616161616161622 -2.3737373737373733,1.262626262626263 -2.2727272727272725,1.3636363636363644 -2.1717171717171713,1.4646464646464652 -2.07070707070707,1.5656565656565666 -1.9696969696969693,1.6666666666666674 -1.8686868686868683,1.767676767676768 -1.7676767676767675,1.8686868686868696 -1.6666666666666665,1.9696969696969702 -1.5656565656565653,2.070707070707072 -1.4646464646464643,2.1717171717171726 -1.363636363636363,2.2727272727272734 -1.2626262626262625,2.373737373737375 -1.1616161616161613,2.4747474747474754 -1.0606060606060603,2.575757575757577 -0.9595959595959596,2.575757575757577 -0.8585858585858579,2.575757575757577 -0.7575757575757572,2.575757575757577 -0.6565656565656557,2.575757575757577 -0.555555555555555,2.575757575757577 -0.4545454545454544,2.575757575757577 -0.35353535353535287,2.575757575757577 -0.2525252525252522,2.575757575757577" data-type="line" data-label="" points="144.88888888888903,535.838383838384 154.42424242424255,526.3030303030304 163.95959595959607,516.7676767676768 173.4949494949496,507.23232323232327 183.03030303030312,497.69696969696975 192.5656565656567,488.1616161616163 202.10101010101022,478.6262626262627 211.63636363636374,469.0909090909092 221.17171717171726,459.5555555555556 230.70707070707084,450.0202020202021 240.2424242424243,440.4848484848486 249.77777777777783,430.94949494949503 259.3131313131314,421.4141414141415 268.84848484848493,411.87878787878793 278.38383838383845,402.3434343434344 287.91919191919203,392.80808080808094 297.4545454545455,383.27272727272737 306.9898989898991,373.73737373737384 316.5252525252526,364.2020202020203 326.0606060606061,354.66666666666674 335.59595959595964,345.1313131313133 345.13131313131316,335.5959595959597 354.6666666666667,326.06060606060623 364.2020202020202,316.5252525252526 373.7373737373738,306.9898989898991 383.2727272727273,297.4545454545456 392.80808080808083,287.91919191919203 402.34343434343435,278.38383838383857 411.8787878787879,268.84848484848493 421.4141414141414,268.84848484848493 430.949494949495,268.84848484848493 440.4848484848485,268.84848484848493 450.0202020202021,268.84848484848493 459.55555555555554,268.84848484848493 469.09090909090907,268.84848484848493 478.62626262626264,268.84848484848493 488.16161616161617,268.84848484848493" fill="none" stroke="rgba(0,0,255,0.75)" stroke-width="14.159999999999995"/></g><g><polyline data-points="-0.2525252525252522,2.575757575757577 -0.15151515151515066,2.575757575757577 -0.05050505050505001,2.575757575757577 0.050505050505051545,2.575757575757577 0.1515151515151522,2.575757575757577 0.2525252525252529,2.575757575757577 0.3535353535353544,2.575757575757577 0.4545454545454551,2.676767676767678 0.5555555555555567,2.676767676767678 0.6565656565656574,2.7777777777777786 0.7575757575757579,2.87878787878788 0.8585858585858596,2.9797979797979806 0.9595959595959602,3.080808080808082 1.0606060606060617,3.181818181818183 1.1616161616161622,3.2828282828282833 1.262626262626263,3.383838383838384 1.3636363636363644,3.4848484848484866 1.4646464646464652,3.5858585858585874 1.4646464646464652,3.6868686868686877 1.4646464646464652,3.7878787878787885 1.4646464646464652,3.8888888888888893 1.4646464646464652,3.989898989898992 1.4646464646464652,4.090909090909092 1.4646464646464652,4.191919191919193 1.4646464646464652,4.292929292929293 1.4646464646464652,4.393939393939394 1.4646464646464652,4.494949494949497 1.4646464646464652,4.595959595959597 1.4646464646464652,4.696969696969697 1.4646464646464652,4.7979797979797985 1.4646464646464652,4.898989898989901 1.4646464646464652,5.000000000000002" data-type="line" data-label="" points="488.16161616161617,268.84848484848493 497.69696969696975,268.84848484848493 507.2323232323232,268.84848484848493 516.7676767676768,268.84848484848493 526.3030303030303,268.84848484848493 535.8383838383838,268.84848484848493 545.3737373737374,268.84848484848493 554.9090909090909,259.3131313131314 564.4444444444445,259.3131313131314 573.9797979797979,249.77777777777794 583.5151515151515,240.24242424242436 593.0505050505051,230.70707070707084 602.5858585858585,221.17171717171726 612.1212121212121,211.63636363636374 621.6565656565656,202.10101010101027 631.1919191919192,192.56565656565675 640.7272727272727,183.03030303030312 650.2626262626262,173.4949494949496 650.2626262626262,163.95959595959613 650.2626262626262,154.4242424242426 650.2626262626262,144.88888888888908 650.2626262626262,135.35353535353545 650.2626262626262,125.81818181818198 650.2626262626262,116.28282828282846 650.2626262626262,106.747474747475 650.2626262626262,97.21212121212153 650.2626262626262,87.67676767676778 650.2626262626262,78.14141414141432 650.2626262626262,68.60606060606085 650.2626262626262,59.07070707070733 650.2626262626262,49.53535353535369 650.2626262626262,40.000000000000114" fill="none" stroke="rgba(255,0,0,0.75)" stroke-width="14.159999999999995"/></g><g><polyline data-points="-3.98989898989899,5.000000000000002 -3.8888888888888884,4.898989898989901 -3.7878787878787876,4.7979797979797985 -3.6868686868686864,4.696969696969697 -3.5858585858585856,4.595959595959597 -3.484848484848485,4.494949494949497 -3.383838383838383,4.393939393939394 -3.2828282828282824,4.292929292929293 -3.1818181818181817,4.191919191919193 -3.0808080808080804,4.191919191919193 -2.9797979797979792,4.191919191919193 -2.8787878787878785,4.191919191919193 -2.7777777777777777,4.191919191919193 -2.6767676767676765,4.191919191919193 -2.5757575757575752,4.191919191919193 -2.474747474747474,4.191919191919193 -2.3737373737373733,4.191919191919193 -2.2727272727272725,4.191919191919193 -2.1717171717171713,4.191919191919193 -2.07070707070707,4.191919191919193 -1.9696969696969693,4.191919191919193 -1.8686868686868683,4.191919191919193 -1.7676767676767675,4.191919191919193 -1.6666666666666665,4.191919191919193 -1.5656565656565653,4.191919191919193 -1.4646464646464643,4.191919191919193 -1.363636363636363,4.191919191919193 -1.2626262626262625,4.191919191919193 -1.1616161616161613,4.191919191919193 -1.0606060606060603,4.191919191919193 -0.9595959595959596,4.191919191919193 -0.8585858585858579,4.191919191919193 -0.7575757575757572,4.191919191919193 -0.6565656565656557,4.191919191919193 -0.555555555555555,4.191919191919193 -0.4545454545454544,4.191919191919193 -0.35353535353535287,4.191919191919193 -0.2525252525252522,4.191919191919193 -0.15151515151515066,4.191919191919193 -0.05050505050505001,4.191919191919193 0.050505050505051545,4.191919191919193 0.1515151515151522,4.191919191919193 0.2525252525252529,4.191919191919193 0.3535353535353544,4.191919191919193 0.4545454545454551,4.191919191919193 0.5555555555555567,4.191919191919193 0.6565656565656574,4.191919191919193 0.7575757575757579,4.191919191919193 0.8585858585858596,4.191919191919193 0.9595959595959602,4.191919191919193 1.0606060606060617,4.191919191919193 1.1616161616161622,4.191919191919193 1.262626262626263,4.191919191919193 1.3636363636363644,4.191919191919193 1.4646464646464652,4.191919191919193 1.5656565656565666,4.191919191919193 1.6666666666666674,4.191919191919193 1.767676767676768,4.191919191919193 1.8686868686868696,4.191919191919193 1.9696969696969702,4.191919191919193 2.070707070707072,4.191919191919193 2.1717171717171726,4.191919191919193 2.2727272727272734,4.191919191919193 2.373737373737375,4.191919191919193 2.4747474747474754,4.191919191919193 2.575757575757577,4.191919191919193 2.676767676767678,4.191919191919193 2.7777777777777786,4.191919191919193 2.87878787878788,4.191919191919193 2.9797979797979806,4.191919191919193 3.080808080808082,4.191919191919193 3.181818181818183,4.191919191919193 3.2828282828282833,4.191919191919193 3.383838383838384,4.191919191919193 3.4848484848484866,4.191919191919193 3.5858585858585874,4.191919191919193 3.6868686868686877,4.191919191919193 3.7878787878787885,4.191919191919193 3.8888888888888893,4.191919191919193 3.989898989898992,4.191919191919193 4.090909090909092,4.090909090909092 4.191919191919193,4.090909090909092 4.292929292929293,3.989898989898992 4.393939393939394,3.8888888888888893 4.494949494949497,3.7878787878787885 4.494949494949497,3.6868686868686877 4.494949494949497,3.5858585858585874 4.494949494949497,3.4848484848484866 4.494949494949497,3.383838383838384 4.494949494949497,3.2828282828282833 4.494949494949497,3.181818181818183 4.494949494949497,3.080808080808082 4.494949494949497,2.9797979797979806 4.494949494949497,2.87878787878788 4.494949494949497,2.7777777777777786 4.494949494949497,2.676767676767678 4.494949494949497,2.575757575757577 4.494949494949497,2.4747474747474754 4.494949494949497,2.373737373737375 4.494949494949497,2.2727272727272734 4.494949494949497,2.1717171717171726 4.494949494949497,2.070707070707072 4.494949494949497,1.9696969696969702 4.494949494949497,1.8686868686868696 4.494949494949497,1.767676767676768 4.494949494949497,1.6666666666666674 4.494949494949497,1.5656565656565666 4.494949494949497,1.4646464646464652 4.494949494949497,1.3636363636363644 4.494949494949497,1.262626262626263 4.494949494949497,1.1616161616161622 4.494949494949497,1.0606060606060617 4.494949494949497,0.9595959595959602 4.494949494949497,0.8585858585858596 4.494949494949497,0.7575757575757579 4.494949494949497,0.6565656565656574 4.494949494949497,0.5555555555555567 4.494949494949497,0.4545454545454551 4.494949494949497,0.3535353535353544 4.494949494949497,0.2525252525252529 4.494949494949497,0.1515151515151522 4.494949494949497,0.050505050505051545 4.494949494949497,-0.05050505050505001 4.494949494949497,-0.15151515151515066 4.494949494949497,-0.2525252525252522 4.494949494949497,-0.35353535353535287 4.494949494949497,-0.4545454545454544 4.494949494949497,-0.555555555555555 4.494949494949497,-0.6565656565656557 4.494949494949497,-0.7575757575757572 4.494949494949497,-0.8585858585858579 4.494949494949497,-0.9595959595959596 4.494949494949497,-1.0606060606060603 4.494949494949497,-1.1616161616161613 4.494949494949497,-1.2626262626262625 4.494949494949497,-1.363636363636363 4.494949494949497,-1.4646464646464643 4.494949494949497,-1.5656565656565653 4.494949494949497,-1.6666666666666665 4.494949494949497,-1.7676767676767675 4.494949494949497,-1.8686868686868683 4.494949494949497,-1.9696969696969693 4.393939393939394,-2.07070707070707 4.292929292929293,-2.1717171717171713 4.191919191919193,-2.2727272727272725 4.090909090909092,-2.3737373737373733 3.989898989898992,-2.474747474747474" data-type="line" data-label="" points="135.35353535353545,40.000000000000114 144.88888888888903,49.53535353535369 154.42424242424255,59.07070707070733 163.95959595959607,68.60606060606085 173.4949494949496,78.14141414141432 183.03030303030312,87.67676767676778 192.5656565656567,97.21212121212153 202.10101010101022,106.747474747475 211.63636363636374,116.28282828282846 221.17171717171726,116.28282828282846 230.70707070707084,116.28282828282846 240.2424242424243,116.28282828282846 249.77777777777783,116.28282828282846 259.3131313131314,116.28282828282846 268.84848484848493,116.28282828282846 278.38383838383845,116.28282828282846 287.91919191919203,116.28282828282846 297.4545454545455,116.28282828282846 306.9898989898991,116.28282828282846 316.5252525252526,116.28282828282846 326.0606060606061,116.28282828282846 335.59595959595964,116.28282828282846 345.13131313131316,116.28282828282846 354.6666666666667,116.28282828282846 364.2020202020202,116.28282828282846 373.7373737373738,116.28282828282846 383.2727272727273,116.28282828282846 392.80808080808083,116.28282828282846 402.34343434343435,116.28282828282846 411.8787878787879,116.28282828282846 421.4141414141414,116.28282828282846 430.949494949495,116.28282828282846 440.4848484848485,116.28282828282846 450.0202020202021,116.28282828282846 459.55555555555554,116.28282828282846 469.09090909090907,116.28282828282846 478.62626262626264,116.28282828282846 488.16161616161617,116.28282828282846 497.69696969696975,116.28282828282846 507.2323232323232,116.28282828282846 516.7676767676768,116.28282828282846 526.3030303030303,116.28282828282846 535.8383838383838,116.28282828282846 545.3737373737374,116.28282828282846 554.9090909090909,116.28282828282846 564.4444444444445,116.28282828282846 573.9797979797979,116.28282828282846 583.5151515151515,116.28282828282846 593.0505050505051,116.28282828282846 602.5858585858585,116.28282828282846 612.1212121212121,116.28282828282846 621.6565656565656,116.28282828282846 631.1919191919192,116.28282828282846 640.7272727272727,116.28282828282846 650.2626262626262,116.28282828282846 659.7979797979798,116.28282828282846 669.3333333333333,116.28282828282846 678.8686868686868,116.28282828282846 688.4040404040404,116.28282828282846 697.9393939393939,116.28282828282846 707.4747474747475,116.28282828282846 717.0101010101009,116.28282828282846 726.5454545454545,116.28282828282846 736.0808080808081,116.28282828282846 745.6161616161615,116.28282828282846 755.1515151515151,116.28282828282846 764.6868686868686,116.28282828282846 774.2222222222222,116.28282828282846 783.7575757575758,116.28282828282846 793.2929292929292,116.28282828282846 802.8282828282828,116.28282828282846 812.3636363636363,116.28282828282846 821.8989898989898,116.28282828282846 831.4343434343433,116.28282828282846 840.969696969697,116.28282828282846 850.5050505050505,116.28282828282846 860.0404040404039,116.28282828282846 869.5757575757575,116.28282828282846 879.111111111111,116.28282828282846 888.6464646464647,116.28282828282846 898.181818181818,125.81818181818198 907.7171717171716,125.81818181818198 917.2525252525251,135.35353535353545 926.7878787878785,144.88888888888908 936.3232323232323,154.4242424242426 936.3232323232323,163.95959595959613 936.3232323232323,173.4949494949496 936.3232323232323,183.03030303030312 936.3232323232323,192.56565656565675 936.3232323232323,202.10101010101027 936.3232323232323,211.63636363636374 936.3232323232323,221.17171717171726 936.3232323232323,230.70707070707084 936.3232323232323,240.24242424242436 936.3232323232323,249.77777777777794 936.3232323232323,259.3131313131314 936.3232323232323,268.84848484848493 936.3232323232323,278.38383838383857 936.3232323232323,287.91919191919203 936.3232323232323,297.4545454545456 936.3232323232323,306.9898989898991 936.3232323232323,316.5252525252526 936.3232323232323,326.06060606060623 936.3232323232323,335.5959595959597 936.3232323232323,345.1313131313133 936.3232323232323,354.66666666666674 936.3232323232323,364.2020202020203 936.3232323232323,373.73737373737384 936.3232323232323,383.27272727272737 936.3232323232323,392.80808080808094 936.3232323232323,402.3434343434344 936.3232323232323,411.87878787878793 936.3232323232323,421.4141414141415 936.3232323232323,430.94949494949503 936.3232323232323,440.4848484848486 936.3232323232323,450.0202020202021 936.3232323232323,459.5555555555556 936.3232323232323,469.0909090909092 936.3232323232323,478.6262626262627 936.3232323232323,488.1616161616163 936.3232323232323,497.69696969696975 936.3232323232323,507.23232323232327 936.3232323232323,516.7676767676768 936.3232323232323,526.3030303030304 936.3232323232323,535.838383838384 936.3232323232323,545.3737373737374 936.3232323232323,554.909090909091 936.3232323232323,564.4444444444445 936.3232323232323,573.979797979798 936.3232323232323,583.5151515151516 936.3232323232323,593.0505050505051 936.3232323232323,602.5858585858587 936.3232323232323,612.1212121212121 936.3232323232323,621.6565656565657 936.3232323232323,631.1919191919193 936.3232323232323,640.7272727272727 936.3232323232323,650.2626262626263 936.3232323232323,659.7979797979798 936.3232323232323,669.3333333333334 936.3232323232323,678.8686868686868 936.3232323232323,688.4040404040404 936.3232323232323,697.939393939394 926.7878787878785,707.4747474747475 917.2525252525251,717.010101010101 907.7171717171716,726.5454545454545 898.181818181818,736.0808080808081 888.6464646464647,745.6161616161615" fill="none" stroke="rgba(0,0,255,0.75)" stroke-width="14.159999999999995"/></g><g><polyline data-points="3.989898989898992,-2.474747474747474 4.090909090909092,-2.5757575757575752 4.191919191919193,-2.5757575757575752 4.292929292929293,-2.5757575757575752 4.393939393939394,-2.5757575757575752 4.494949494949497,-2.5757575757575752 4.595959595959597,-2.5757575757575752 4.696969696969697,-2.5757575757575752 4.7979797979797985,-2.5757575757575752 4.898989898989901,-2.5757575757575752 5.000000000000002,-2.5757575757575752" data-type="line" data-label="" points="888.6464646464647,745.6161616161615 898.181818181818,755.1515151515151 907.7171717171716,755.1515151515151 917.2525252525251,755.1515151515151 926.7878787878785,755.1515151515151 936.3232323232323,755.1515151515151 945.8585858585857,755.1515151515151 955.3939393939393,755.1515151515151 964.9292929292927,755.1515151515151 974.4646464646464,755.1515151515151 984,755.1515151515151" fill="none" stroke="rgba(255,0,0,0.75)" stroke-width="14.159999999999995"/></g><g><polyline data-points="5.000000000000002,0.3535353535353544 4.898989898989901,0.4545454545454551 4.7979797979797985,0.5555555555555567 4.696969696969697,0.6565656565656574 4.595959595959597,0.7575757575757579 4.494949494949497,0.8585858585858596 4.393939393939394,0.9595959595959602 4.292929292929293,1.0606060606060617 4.191919191919193,1.1616161616161622 4.090909090909092,1.262626262626263 3.989898989898992,1.3636363636363644 3.8888888888888893,1.4646464646464652 3.7878787878787885,1.5656565656565666 3.6868686868686877,1.6666666666666674 3.5858585858585874,1.767676767676768 3.4848484848484866,1.8686868686868696 3.383838383838384,1.9696969696969702 3.2828282828282833,2.070707070707072 3.181818181818183,2.070707070707072 3.080808080808082,2.070707070707072 2.9797979797979806,2.070707070707072 2.87878787878788,2.070707070707072 2.7777777777777786,2.070707070707072 2.676767676767678,2.070707070707072 2.575757575757577,2.070707070707072" data-type="line" data-label="" points="984,478.6262626262627 974.4646464646464,469.0909090909092 964.9292929292927,459.5555555555556 955.3939393939393,450.0202020202021 945.8585858585857,440.4848484848486 936.3232323232323,430.94949494949503 926.7878787878785,421.4141414141415 917.2525252525251,411.87878787878793 907.7171717171716,402.3434343434344 898.181818181818,392.80808080808094 888.6464646464647,383.27272727272737 879.111111111111,373.73737373737384 869.5757575757575,364.2020202020203 860.0404040404039,354.66666666666674 850.5050505050505,345.1313131313133 840.969696969697,335.5959595959597 831.4343434343433,326.06060606060623 821.8989898989898,316.5252525252526 812.3636363636363,316.5252525252526 802.8282828282828,316.5252525252526 793.2929292929292,316.5252525252526 783.7575757575758,316.5252525252526 774.2222222222222,316.5252525252526 764.6868686868686,316.5252525252526 755.1515151515151,316.5252525252526" fill="none" stroke="rgba(255,0,0,0.75)" stroke-width="14.159999999999995"/></g><g><polyline data-points="2.575757575757577,2.070707070707072 2.4747474747474754,2.070707070707072 2.373737373737375,2.070707070707072 2.2727272727272734,2.070707070707072 2.1717171717171726,2.070707070707072 2.070707070707072,2.070707070707072 1.9696969696969702,2.070707070707072 1.8686868686868696,2.070707070707072 1.767676767676768,2.070707070707072 1.6666666666666674,2.070707070707072 1.5656565656565666,2.070707070707072 1.4646464646464652,2.070707070707072 1.3636363636363644,2.070707070707072 1.262626262626263,2.070707070707072 1.1616161616161622,2.070707070707072 1.0606060606060617,2.070707070707072 0.9595959595959602,2.070707070707072" data-type="line" data-label="" points="755.1515151515151,316.5252525252526 745.6161616161615,316.5252525252526 736.0808080808081,316.5252525252526 726.5454545454545,316.5252525252526 717.0101010101009,316.5252525252526 707.4747474747475,316.5252525252526 697.9393939393939,316.5252525252526 688.4040404040404,316.5252525252526 678.8686868686868,316.5252525252526 669.3333333333333,316.5252525252526 659.7979797979798,316.5252525252526 650.2626262626262,316.5252525252526 640.7272727272727,316.5252525252526 631.1919191919192,316.5252525252526 621.6565656565656,316.5252525252526 612.1212121212121,316.5252525252526 602.5858585858585,316.5252525252526" fill="none" stroke="rgba(0,0,255,0.75)" stroke-width="14.159999999999995"/></g><g><polyline data-points="0.9595959595959602,2.070707070707072 0.8585858585858596,2.070707070707072 0.7575757575757579,2.070707070707072 0.6565656565656574,2.070707070707072 0.5555555555555567,2.070707070707072 0.4545454545454551,2.070707070707072 0.3535353535353544,2.070707070707072 0.2525252525252529,2.070707070707072 0.1515151515151522,2.070707070707072 0.050505050505051545,2.070707070707072 -0.05050505050505001,2.070707070707072 -0.15151515151515066,2.070707070707072 -0.2525252525252522,2.070707070707072 -0.35353535353535287,2.1717171717171726 -0.4545454545454544,2.1717171717171726 -0.555555555555555,2.2727272727272734 -0.6565656565656557,2.373737373737375 -0.7575757575757572,2.4747474747474754 -0.8585858585858579,2.575757575757577 -0.9595959595959596,2.575757575757577 -1.0606060606060603,2.575757575757577 -1.1616161616161613,2.575757575757577 -1.2626262626262625,2.575757575757577 -1.363636363636363,2.575757575757577 -1.4646464646464643,2.575757575757577 -1.5656565656565653,2.575757575757577 -1.6666666666666665,2.575757575757577 -1.7676767676767675,2.575757575757577 -1.8686868686868683,2.575757575757577 -1.9696969696969693,2.575757575757577 -2.07070707070707,2.575757575757577 -2.1717171717171713,2.575757575757577 -2.2727272727272725,2.575757575757577 -2.3737373737373733,2.575757575757577 -2.474747474747474,2.575757575757577 -2.5757575757575752,2.575757575757577 -2.6767676767676765,2.575757575757577 -2.7777777777777777,2.575757575757577 -2.8787878787878785,2.575757575757577 -2.9797979797979792,2.575757575757577 -3.0808080808080804,2.575757575757577" data-type="line" data-label="" points="602.5858585858585,316.5252525252526 593.0505050505051,316.5252525252526 583.5151515151515,316.5252525252526 573.9797979797979,316.5252525252526 564.4444444444445,316.5252525252526 554.9090909090909,316.5252525252526 545.3737373737374,316.5252525252526 535.8383838383838,316.5252525252526 526.3030303030303,316.5252525252526 516.7676767676768,316.5252525252526 507.2323232323232,316.5252525252526 497.69696969696975,316.5252525252526 488.16161616161617,316.5252525252526 478.62626262626264,306.9898989898991 469.09090909090907,306.9898989898991 459.55555555555554,297.4545454545456 450.0202020202021,287.91919191919203 440.4848484848485,278.38383838383857 430.949494949495,268.84848484848493 421.4141414141414,268.84848484848493 411.8787878787879,268.84848484848493 402.34343434343435,268.84848484848493 392.80808080808083,268.84848484848493 383.2727272727273,268.84848484848493 373.7373737373738,268.84848484848493 364.2020202020202,268.84848484848493 354.6666666666667,268.84848484848493 345.13131313131316,268.84848484848493 335.59595959595964,268.84848484848493 326.0606060606061,268.84848484848493 316.5252525252526,268.84848484848493 306.9898989898991,268.84848484848493 297.4545454545455,268.84848484848493 287.91919191919203,268.84848484848493 278.38383838383845,268.84848484848493 268.84848484848493,268.84848484848493 259.3131313131314,268.84848484848493 249.77777777777783,268.84848484848493 240.2424242424243,268.84848484848493 230.70707070707084,268.84848484848493 221.17171717171726,268.84848484848493" fill="none" stroke="rgba(255,0,0,0.75)" stroke-width="14.159999999999995"/></g><g><polyline data-points="-3.0808080808080804,2.575757575757577 -3.1818181818181817,2.575757575757577 -3.2828282828282824,2.575757575757577 -3.383838383838383,2.575757575757577 -3.484848484848485,2.575757575757577 -3.5858585858585856,2.575757575757577 -3.6868686868686864,2.575757575757577 -3.7878787878787876,2.575757575757577 -3.8888888888888884,2.575757575757577 -3.98989898989899,2.575757575757577" data-type="line" data-label="" points="221.17171717171726,268.84848484848493 211.63636363636374,268.84848484848493 202.10101010101022,268.84848484848493 192.5656565656567,268.84848484848493 183.03030303030312,268.84848484848493 173.4949494949496,268.84848484848493 163.95959595959607,268.84848484848493 154.42424242424255,268.84848484848493 144.88888888888903,268.84848484848493 135.35353535353545,268.84848484848493" fill="none" stroke="rgba(0,0,255,0.75)" stroke-width="14.159999999999995"/></g><g><polyline data-points="-3.98989898989899,2.575757575757577 -4.090909090909091,2.575757575757577 -4.191919191919193,2.575757575757577 -4.292929292929293,2.575757575757577 -4.393939393939394,2.575757575757577 -4.494949494949496,2.575757575757577 -4.595959595959596,2.575757575757577 -4.696969696969697,2.575757575757577 -4.7979797979797985,2.575757575757577 -4.898989898989899,2.575757575757577 -5.000000000000001,2.575757575757577" data-type="line" data-label="" points="135.35353535353545,268.84848484848493 125.81818181818193,268.84848484848493 116.28282828282829,268.84848484848493 106.74747474747483,268.84848484848493 97.21212121212136,268.84848484848493 87.67676767676772,268.84848484848493 78.14141414141426,268.84848484848493 68.60606060606068,268.84848484848493 59.07070707070716,268.84848484848493 49.53535353535369,268.84848484848493 40.00000000000006,268.84848484848493" fill="none" stroke="rgba(255,0,0,0.75)" stroke-width="14.159999999999995"/></g><g><polyline data-points="-1.1616161616161613,5.000000000000002 -1.1616161616161613,4.898989898989901 -1.2626262626262625,4.7979797979797985 -1.363636363636363,4.696969696969697 -1.4646464646464643,4.595959595959597 -1.5656565656565653,4.494949494949497 -1.6666666666666665,4.393939393939394 -1.7676767676767675,4.292929292929293 -1.8686868686868683,4.191919191919193 -1.9696969696969693,4.090909090909092 -2.07070707070707,3.989898989898992 -2.1717171717171713,3.8888888888888893 -2.2727272727272725,3.7878787878787885 -2.3737373737373733,3.6868686868686877 -2.474747474747474,3.5858585858585874 -2.5757575757575752,3.4848484848484866 -2.5757575757575752,3.383838383838384 -2.5757575757575752,3.2828282828282833 -2.5757575757575752,3.181818181818183" data-type="line" data-label="" points="402.34343434343435,40.000000000000114 402.34343434343435,49.53535353535369 392.80808080808083,59.07070707070733 383.2727272727273,68.60606060606085 373.7373737373738,78.14141414141432 364.2020202020202,87.67676767676778 354.6666666666667,97.21212121212153 345.13131313131316,106.747474747475 335.59595959595964,116.28282828282846 326.0606060606061,125.81818181818198 316.5252525252526,135.35353535353545 306.9898989898991,144.88888888888908 297.4545454545455,154.4242424242426 287.91919191919203,163.95959595959613 278.38383838383845,173.4949494949496 268.84848484848493,183.03030303030312 268.84848484848493,192.56565656565675 268.84848484848493,202.10101010101027 268.84848484848493,211.63636363636374" fill="none" stroke="rgba(255,0,0,0.75)" stroke-width="14.159999999999995"/></g><g><polyline data-points="-2.5757575757575752,3.181818181818183 -2.5757575757575752,3.080808080808082 -2.5757575757575752,2.9797979797979806 -2.5757575757575752,2.87878787878788 -2.5757575757575752,2.7777777777777786 -2.5757575757575752,2.676767676767678 -2.5757575757575752,2.575757575757577 -2.6767676767676765,2.4747474747474754 -2.6767676767676765,2.373737373737375 -2.7777777777777777,2.2727272727272734 -2.8787878787878785,2.1717171717171726 -2.9797979797979792,2.070707070707072 -3.0808080808080804,1.9696969696969702 -3.1818181818181817,1.8686868686868696 -3.2828282828282824,1.8686868686868696 -3.383838383838383,1.8686868686868696 -3.484848484848485,1.8686868686868696 -3.5858585858585856,1.8686868686868696 -3.6868686868686864,1.8686868686868696" data-type="line" data-label="" points="268.84848484848493,211.63636363636374 268.84848484848493,221.17171717171726 268.84848484848493,230.70707070707084 268.84848484848493,240.24242424242436 268.84848484848493,249.77777777777794 268.84848484848493,259.3131313131314 268.84848484848493,268.84848484848493 259.3131313131314,278.38383838383857 259.3131313131314,287.91919191919203 249.77777777777783,297.4545454545456 240.2424242424243,306.9898989898991 230.70707070707084,316.5252525252526 221.17171717171726,326.06060606060623 211.63636363636374,335.5959595959597 202.10101010101022,335.5959595959597 192.5656565656567,335.5959595959597 183.03030303030312,335.5959595959597 173.4949494949496,335.5959595959597 163.95959595959607,335.5959595959597" fill="none" stroke="rgba(0,0,255,0.75)" stroke-width="14.159999999999995"/></g><g><polyline data-points="-3.6868686868686864,1.8686868686868696 -3.5858585858585856,1.767676767676768 -3.484848484848485,1.6666666666666674 -3.383838383838383,1.5656565656565666 -3.383838383838383,1.4646464646464652 -3.383838383838383,1.3636363636363644 -3.383838383838383,1.262626262626263 -3.383838383838383,1.1616161616161622 -3.383838383838383,1.0606060606060617 -3.383838383838383,0.9595959595959602 -3.383838383838383,0.8585858585858596 -3.383838383838383,0.7575757575757579 -3.383838383838383,0.6565656565656574 -3.383838383838383,0.5555555555555567 -3.383838383838383,0.4545454545454551 -3.383838383838383,0.3535353535353544 -3.383838383838383,0.2525252525252529 -3.383838383838383,0.1515151515151522 -3.383838383838383,0.050505050505051545 -3.383838383838383,-0.05050505050505001 -3.383838383838383,-0.15151515151515066 -3.383838383838383,-0.2525252525252522 -3.383838383838383,-0.35353535353535287 -3.383838383838383,-0.4545454545454544 -3.383838383838383,-0.555555555555555 -3.383838383838383,-0.6565656565656557 -3.383838383838383,-0.7575757575757572 -3.383838383838383,-0.8585858585858579 -3.383838383838383,-0.9595959595959596 -3.383838383838383,-1.0606060606060603 -3.383838383838383,-1.1616161616161613 -3.383838383838383,-1.2626262626262625 -3.383838383838383,-1.363636363636363 -3.383838383838383,-1.4646464646464643 -3.383838383838383,-1.5656565656565653 -3.383838383838383,-1.6666666666666665 -3.383838383838383,-1.7676767676767675 -3.383838383838383,-1.8686868686868683 -3.383838383838383,-1.9696969696969693 -3.383838383838383,-2.07070707070707 -3.383838383838383,-2.1717171717171713 -3.383838383838383,-2.2727272727272725 -3.383838383838383,-2.3737373737373733 -3.383838383838383,-2.474747474747474 -3.383838383838383,-2.5757575757575752 -3.383838383838383,-2.6767676767676765 -3.383838383838383,-2.7777777777777777 -3.383838383838383,-2.8787878787878785 -3.383838383838383,-2.9797979797979792 -3.383838383838383,-3.0808080808080804 -3.383838383838383,-3.1818181818181817 -3.383838383838383,-3.2828282828282824 -3.383838383838383,-3.383838383838383 -3.383838383838383,-3.484848484848485 -3.383838383838383,-3.5858585858585856 -3.383838383838383,-3.6868686868686864 -3.383838383838383,-3.7878787878787876 -3.383838383838383,-3.8888888888888884 -3.383838383838383,-3.98989898989899 -3.383838383838383,-4.090909090909091 -3.383838383838383,-4.191919191919193 -3.383838383838383,-4.292929292929293 -3.383838383838383,-4.393939393939394 -3.383838383838383,-4.494949494949496 -3.383838383838383,-4.595959595959596 -3.383838383838383,-4.696969696969697 -3.383838383838383,-4.7979797979797985 -3.383838383838383,-4.898989898989899 -3.2828282828282824,-5.000000000000001" data-type="line" data-label="" points="163.95959595959607,335.5959595959597 173.4949494949496,345.1313131313133 183.03030303030312,354.66666666666674 192.5656565656567,364.2020202020203 192.5656565656567,373.73737373737384 192.5656565656567,383.27272727272737 192.5656565656567,392.80808080808094 192.5656565656567,402.3434343434344 192.5656565656567,411.87878787878793 192.5656565656567,421.4141414141415 192.5656565656567,430.94949494949503 192.5656565656567,440.4848484848486 192.5656565656567,450.0202020202021 192.5656565656567,459.5555555555556 192.5656565656567,469.0909090909092 192.5656565656567,478.6262626262627 192.5656565656567,488.1616161616163 192.5656565656567,497.69696969696975 192.5656565656567,507.23232323232327 192.5656565656567,516.7676767676768 192.5656565656567,526.3030303030304 192.5656565656567,535.838383838384 192.5656565656567,545.3737373737374 192.5656565656567,554.909090909091 192.5656565656567,564.4444444444445 192.5656565656567,573.979797979798 192.5656565656567,583.5151515151516 192.5656565656567,593.0505050505051 192.5656565656567,602.5858585858587 192.5656565656567,612.1212121212121 192.5656565656567,621.6565656565657 192.5656565656567,631.1919191919193 192.5656565656567,640.7272727272727 192.5656565656567,650.2626262626263 192.5656565656567,659.7979797979798 192.5656565656567,669.3333333333334 192.5656565656567,678.8686868686868 192.5656565656567,688.4040404040404 192.5656565656567,697.939393939394 192.5656565656567,707.4747474747475 192.5656565656567,717.010101010101 192.5656565656567,726.5454545454545 192.5656565656567,736.0808080808081 192.5656565656567,745.6161616161615 192.5656565656567,755.1515151515151 192.5656565656567,764.6868686868687 192.5656565656567,774.2222222222222 192.5656565656567,783.7575757575758 192.5656565656567,793.2929292929292 192.5656565656567,802.8282828282828 192.5656565656567,812.3636363636363 192.5656565656567,821.8989898989898 192.5656565656567,831.4343434343434 192.5656565656567,840.969696969697 192.5656565656567,850.5050505050505 192.5656565656567,860.0404040404039 192.5656565656567,869.5757575757575 192.5656565656567,879.1111111111111 192.5656565656567,888.6464646464647 192.5656565656567,898.1818181818181 192.5656565656567,907.7171717171718 192.5656565656567,917.2525252525252 192.5656565656567,926.7878787878788 192.5656565656567,936.3232323232323 192.5656565656567,945.8585858585858 192.5656565656567,955.3939393939394 192.5656565656567,964.9292929292928 192.5656565656567,974.4646464646464 202.10101010101022,984" fill="none" stroke="rgba(255,0,0,0.75)" stroke-width="14.159999999999995"/></g><g><rect data-type="rect" data-label="" data-x="0" data-y="0" x="40.000000000000114" y="40.000000000000284" width="943.9999999999997" height="943.9999999999998" fill="none" stroke="gray" stroke-width="0.010593220338983056"/></g><g><rect data-type="rect" data-label="" data-x="0" data-y="0" x="40.000000000000114" y="40.000000000000284" width="943.9999999999997" height="943.9999999999998" fill="none" stroke="rgba(15, 23, 42, 0.8)" stroke-width="0.010593220338983056"/></g><circle data-type="circle" data-label="" data-x="1.9696969696969702" data-y="-3.98989898989899" cx="697.9393939393939" cy="888.6464646464647" r="28.791999999999987" fill="rgba(0,0,0,0.3)" stroke="black" stroke-width="0.010593220338983056"/><circle data-type="circle" data-label="" data-x="3.989898989898992" data-y="3.6868686868686877" cx="888.6464646464647" cy="163.95959595959613" r="28.791999999999987" fill="rgba(0,0,0,0.3)" stroke="black" stroke-width="0.010593220338983056"/><circle data-type="circle" data-label="" data-x="0.3535353535353544" data-y="3.080808080808082" cx="545.3737373737374" cy="221.17171717171726" r="28.791999999999987" fill="rgba(0,0,0,0.3)" stroke="black" stroke-width="0.010593220338983056"/><circle data-type="circle" data-label="" data-x="-3.8888888888888884" data-y="-0.2525252525252522" cx="144.88888888888903" cy="535.838383838384" r="28.791999999999987" fill="rgba(0,0,0,0.3)" stroke="black" stroke-width="0.010593220338983056"/><circle data-type="circle" data-label="" data-x="-0.2525252525252522" data-y="2.575757575757577" cx="488.16161616161617" cy="268.84848484848493" r="28.791999999999987" fill="rgba(0,0,0,0.3)" stroke="black" stroke-width="0.010593220338983056"/><circle data-type="circle" data-label="" data-x="3.989898989898992" data-y="-2.474747474747474" cx="888.6464646464647" cy="745.6161616161615" r="28.791999999999987" fill="rgba(0,0,0,0.3)" stroke="black" stroke-width="0.010593220338983056"/><circle data-type="circle" data-label="" data-x="2.575757575757577" data-y="2.070707070707072" cx="755.1515151515151" cy="316.5252525252526" r="28.791999999999987" fill="rgba(0,0,0,0.3)" stroke="black" stroke-width="0.010593220338983056"/><circle data-type="circle" data-label="" data-x="0.9595959595959602" data-y="2.070707070707072" cx="602.5858585858585" cy="316.5252525252526" r="28.791999999999987" fill="rgba(0,0,0,0.3)" stroke="black" stroke-width="0.010593220338983056"/><circle data-type="circle" data-label="" data-x="-3.0808080808080804" data-y="2.575757575757577" cx="221.17171717171726" cy="268.84848484848493" r="28.791999999999987" fill="rgba(0,0,0,0.3)" stroke="black" stroke-width="0.010593220338983056"/><circle data-type="circle" data-label="" data-x="-3.98989898989899" data-y="2.575757575757577" cx="135.35353535353545" cy="268.84848484848493" r="28.791999999999987" fill="rgba(0,0,0,0.3)" stroke="black" stroke-width="0.010593220338983056"/><circle data-type="circle" data-label="" data-x="-2.5757575757575752" data-y="3.181818181818183" cx="268.84848484848493" cy="211.63636363636374" r="28.791999999999987" fill="rgba(0,0,0,0.3)" stroke="black" stroke-width="0.010593220338983056"/><circle data-type="circle" data-label="" data-x="-3.6868686868686864" data-y="1.8686868686868696" cx="163.95959595959607" cy="335.5959595959597" r="28.791999999999987" fill="rgba(0,0,0,0.3)" stroke="black" stroke-width="0.010593220338983056"/><g id="crosshair" style="display: none"><line id="crosshair-h" y1="0" y2="1024" stroke="#666" stroke-width="0.5"/><line id="crosshair-v" x1="0" x2="1024" stroke="#666" stroke-width="0.5"/><text id="coordinates" font-family="monospace" font-size="12" fill="#666"></text></g><script><![CDATA[
              document.currentScript.parentElement.addEventListener('mousemove', (e) => {
                const svg = e.currentTarget;
                const rect = svg.getBoundingClientRect();
                const x = e.clientX - rect.left;
                const y = e.clientY - rect.top;
                const crosshair = svg.getElementById('crosshair');
                const h = svg.getElementById('crosshair-h');
                const v = svg.getElementById('crosshair-v');
                const coords = svg.getElementById('coordinates');
                
                crosshair.style.display = 'block';
                h.setAttribute('x1', '0');
                h.setAttribute('x2', '1024');
                h.setAttribute('y1', y);
                h.setAttribute('y2', y);
                v.setAttribute('x1', x);
                v.setAttribute('x2', x);
                v.setAttribute('y1', '0');
                v.setAttribute('y2', '1024');

                // Calculate real coordinates using inverse transformation
                const matrix = {"a":94.39999999999996,"c":0,"e":511.99999999999994,"b":0,"d":-94.39999999999996,"f":512.0000000000001};
                // Manually invert and apply the affine transform
                // Since we only use translate and scale, we can directly compute:
                // x' = (x - tx) / sx
                // y' = (y - ty) / sy
                const sx = matrix.a;
                const sy = matrix.d;
                const tx = matrix.e; 
                const ty = matrix.f;
                const realPoint = {
                  x: (x - tx) / sx,
                  y: (y - ty) / sy // Flip y back since we used negative scale
                }
                
                coords.textContent = `(${realPoint.x.toFixed(2)}, ${realPoint.y.toFixed(2)})`;
                coords.setAttribute('x', (x + 5).toString());
                coords.setAttribute('y', (y - 5).toString());
              });
              document.currentScript.parentElement.addEventListener('mouseleave', () => {
                document.currentScript.parentElement.getElementById('crosshair').style.display = 'none';
              });
            ]]></script></svg>