<svg width="1024" height="1024" viewBox="0 0 1024 1024" xmlns="http://www.w3.org/2000/svg"><rect width="100%" height="100%" fill="white"/><g><circle data-type="point" data-label="conn_000" data-x="-0.76" data-y="-5" cx="440.256" cy="984" r="28.792" fill="red" stroke="#740fbd" stroke-width="28.792"/></g><g><circle data-type="point" data-label="conn_000" data-x="3.9" data-y="-5" cx="880.1599999999999" cy="984" r="28.792" fill="red" stroke="#740fbd" stroke-width="28.792"/></g><g><circle data-type="point" data-label="conn_001" data-x="5" data-y="4" cx="983.9999999999998" cy="134.40000000000026" r="28.792" fill="blue" stroke="#bda70f" stroke-width="28.792"/></g><g><circle data-type="point" data-label="conn_001" data-x="-5" data-y="2.94" cx="40.000000000000114" cy="234.46400000000023" r="28.792" fill="red" stroke="#bda70f" stroke-width="28.792"/></g><g><circle data-type="point" data-label="conn_002" data-x="5" data-y="4.64" cx="983.9999999999998" cy="73.98400000000032" r="28.792" fill="red" stroke="#0fa0bd" stroke-width="28.792"/></g><g><circle data-type="point" data-label="conn_002" data-x="-5" data-y="-2.32" cx="40.000000000000114" cy="731.008" r="28.792" fill="blue" stroke="#0fa0bd" stroke-width="28.792"/></g><g><circle data-type="point" data-label="conn_003" data-x="-5" data-y="-0.98" cx="40.000000000000114" cy="604.5120000000001" r="28.792" fill="blue" stroke="#bd0f6d" stroke-width="28.792"/></g><g><circle data-type="point" data-label="conn_003" data-x="-0.88" data-y="5" cx="428.928" cy="40.000000000000284" r="28.792" fill="blue" stroke="#bd0f6d" stroke-width="28.792"/></g><g><circle data-type="point" data-label="conn_004" data-x="5" data-y="0.04" cx="983.9999999999998" cy="508.2240000000001" r="28.792" fill="red" stroke="#3bbd0f" stroke-width="28.792"/></g><g><circle data-type="point" data-label="conn_004" data-x="3.74" data-y="5" cx="865.0559999999998" cy="40.000000000000284" r="28.792" fill="blue" stroke="#3bbd0f" stroke-width="28.792"/></g><g><polyline data-points="5.000000000000002,4.696969696969697 4.898989898989901,4.595959595959597 4.7979797979797985,4.494949494949497 4.696969696969697,4.393939393939394 4.595959595959597,4.292929292929293 4.494949494949497,4.191919191919193 4.393939393939394,4.090909090909092 4.292929292929293,3.989898989898992 4.191919191919193,3.8888888888888893 4.090909090909092,3.7878787878787885 3.989898989898992,3.6868686868686877 3.8888888888888893,3.5858585858585874 3.7878787878787885,3.4848484848484866 3.6868686868686877,3.383838383838384 3.5858585858585874,3.2828282828282833 3.4848484848484866,3.181818181818183 3.383838383838384,3.080808080808082 3.2828282828282833,2.9797979797979806 3.181818181818183,2.87878787878788 3.080808080808082,2.7777777777777786 2.9797979797979806,2.676767676767678 2.87878787878788,2.575757575757577 2.7777777777777786,2.4747474747474754 2.676767676767678,2.373737373737375 2.575757575757577,2.2727272727272734 2.4747474747474754,2.1717171717171726 2.373737373737375,2.070707070707072 2.2727272727272734,1.9696969696969702 2.1717171717171726,1.8686868686868696 2.070707070707072,1.767676767676768 1.9696969696969702,1.6666666666666674 1.8686868686868696,1.5656565656565666 1.767676767676768,1.4646464646464652 1.6666666666666674,1.3636363636363644 1.5656565656565666,1.262626262626263 1.4646464646464652,1.1616161616161622 1.3636363636363644,1.0606060606060617 1.262626262626263,0.9595959595959602 1.1616161616161622,0.8585858585858596 1.0606060606060617,0.7575757575757579 0.9595959595959602,0.6565656565656574 0.8585858585858596,0.5555555555555567 0.7575757575757579,0.4545454545454551 0.6565656565656574,0.3535353535353544 0.5555555555555567,0.2525252525252529 0.4545454545454551,0.1515151515151522 0.3535353535353544,0.050505050505051545 0.2525252525252529,-0.05050505050505001 0.1515151515151522,-0.15151515151515066 0.050505050505051545,-0.2525252525252522 -0.05050505050505001,-0.35353535353535287 -0.15151515151515066,-0.4545454545454544 -0.2525252525252522,-0.555555555555555 -0.35353535353535287,-0.6565656565656557 -0.4545454545454544,-0.7575757575757572 -0.555555555555555,-0.8585858585858579 -0.6565656565656557,-0.9595959595959596 -0.7575757575757572,-1.0606060606060603 -0.8585858585858579,-1.1616161616161613 -0.9595959595959596,-1.2626262626262625 -1.0606060606060603,-1.363636363636363 -1.1616161616161613,-1.4646464646464643 -1.2626262626262625,-1.5656565656565653 -1.363636363636363,-1.6666666666666665 -1.4646464646464643,-1.7676767676767675 -1.5656565656565653,-1.8686868686868683 -1.6666666666666665,-1.9696969696969693 -1.7676767676767675,-2.07070707070707 -1.8686868686868683,-2.1717171717171713 -1.9696969696969693,-2.2727272727272725 -2.07070707070707,-2.3737373737373733 -2.1717171717171713,-2.3737373737373733 -2.2727272727272725,-2.3737373737373733 -2.3737373737373733,-2.3737373737373733 -2.474747474747474,-2.3737373737373733 -2.5757575757575752,-2.3737373737373733 -2.6767676767676765,-2.3737373737373733 -2.7777777777777777,-2.3737373737373733 -2.8787878787878785,-2.3737373737373733 -2.9797979797979792,-2.3737373737373733 -3.0808080808080804,-2.3737373737373733 -3.1818181818181817,-2.3737373737373733 -3.2828282828282824,-2.3737373737373733 -3.383838383838383,-2.3737373737373733 -3.484848484848485,-2.3737373737373733 -3.5858585858585856,-2.3737373737373733 -3.6868686868686864,-2.3737373737373733 -3.7878787878787876,-2.3737373737373733 -3.8888888888888884,-2.3737373737373733 -3.98989898989899,-2.3737373737373733" data-type="line" data-label="" points="984,68.60606060606085 974.4646464646464,78.14141414141432 964.9292929292927,87.67676767676778 955.3939393939393,97.21212121212153 945.8585858585857,106.747474747475 936.3232323232323,116.28282828282846 926.7878787878785,125.81818181818198 917.2525252525251,135.35353535353545 907.7171717171716,144.88888888888908 898.181818181818,154.4242424242426 888.6464646464647,163.95959595959613 879.111111111111,173.4949494949496 869.5757575757575,183.03030303030312 860.0404040404039,192.56565656565675 850.5050505050505,202.10101010101027 840.969696969697,211.63636363636374 831.4343434343433,221.17171717171726 821.8989898989898,230.70707070707084 812.3636363636363,240.24242424242436 802.8282828282828,249.77777777777794 793.2929292929292,259.3131313131314 783.7575757575758,268.84848484848493 774.2222222222222,278.38383838383857 764.6868686868686,287.91919191919203 755.1515151515151,297.4545454545456 745.6161616161615,306.9898989898991 736.0808080808081,316.5252525252526 726.5454545454545,326.06060606060623 717.0101010101009,335.5959595959597 707.4747474747475,345.1313131313133 697.9393939393939,354.66666666666674 688.4040404040404,364.2020202020203 678.8686868686868,373.73737373737384 669.3333333333333,383.27272727272737 659.7979797979798,392.80808080808094 650.2626262626262,402.3434343434344 640.7272727272727,411.87878787878793 631.1919191919192,421.4141414141415 621.6565656565656,430.94949494949503 612.1212121212121,440.4848484848486 602.5858585858585,450.0202020202021 593.0505050505051,459.5555555555556 583.5151515151515,469.0909090909092 573.9797979797979,478.6262626262627 564.4444444444445,488.1616161616163 554.9090909090909,497.69696969696975 545.3737373737374,507.23232323232327 535.8383838383838,516.7676767676768 526.3030303030303,526.3030303030304 516.7676767676768,535.838383838384 507.2323232323232,545.3737373737374 497.69696969696975,554.909090909091 488.16161616161617,564.4444444444445 478.62626262626264,573.979797979798 469.09090909090907,583.5151515151516 459.55555555555554,593.0505050505051 450.0202020202021,602.5858585858587 440.4848484848485,612.1212121212121 430.949494949495,621.6565656565657 421.4141414141414,631.1919191919193 411.8787878787879,640.7272727272727 402.34343434343435,650.2626262626263 392.80808080808083,659.7979797979798 383.2727272727273,669.3333333333334 373.7373737373738,678.8686868686868 364.2020202020202,688.4040404040404 354.6666666666667,697.939393939394 345.13131313131316,707.4747474747475 335.59595959595964,717.010101010101 326.0606060606061,726.5454545454545 316.5252525252526,736.0808080808081 306.9898989898991,736.0808080808081 297.4545454545455,736.0808080808081 287.91919191919203,736.0808080808081 278.38383838383845,736.0808080808081 268.84848484848493,736.0808080808081 259.3131313131314,736.0808080808081 249.77777777777783,736.0808080808081 240.2424242424243,736.0808080808081 230.70707070707084,736.0808080808081 221.17171717171726,736.0808080808081 211.63636363636374,736.0808080808081 202.10101010101022,736.0808080808081 192.5656565656567,736.0808080808081 183.03030303030312,736.0808080808081 173.4949494949496,736.0808080808081 163.95959595959607,736.0808080808081 154.42424242424255,736.0808080808081 144.88888888888903,736.0808080808081 135.35353535353545,736.0808080808081" fill="none" stroke="rgba(255,0,0,0.75)" stroke-width="14.159999999999995"/></g><g><polyline data-points="-3.98989898989899,-2.3737373737373733 -4.090909090909091,-2.3737373737373733 -4.191919191919193,-2.3737373737373733 -4.292929292929293,-2.3737373737373733 -4.393939393939394,-2.3737373737373733 -4.494949494949496,-2.3737373737373733 -4.595959595959596,-2.3737373737373733 -4.696969696969697,-2.3737373737373733 -4.7979797979797985,-2.3737373737373733 -4.898989898989899,-2.3737373737373733 -5.000000000000001,-2.3737373737373733" data-type="line" data-label="" points="135.35353535353545,736.0808080808081 125.81818181818193,736.0808080808081 116.28282828282829,736.0808080808081 106.74747474747483,736.0808080808081 97.21212121212136,736.0808080808081 87.67676767676772,736.0808080808081 78.14141414141426,736.0808080808081 68.60606060606068,736.0808080808081 59.07070707070716,736.0808080808081 49.53535353535369,736.0808080808081 40.00000000000006,736.0808080808081" fill="none" stroke="rgba(0,0,255,0.75)" stroke-width="14.159999999999995"/></g><g><polyline data-points="5.000000000000002,0.050505050505051545 4.898989898989901,0.1515151515151522 4.7979797979797985,0.2525252525252529 4.696969696969697,0.3535353535353544 4.595959595959597,0.4545454545454551 4.494949494949497,0.5555555555555567 4.393939393939394,0.6565656565656574 4.292929292929293,0.7575757575757579 4.191919191919193,0.8585858585858596 4.090909090909092,0.9595959595959602 3.989898989898992,1.0606060606060617 3.8888888888888893,1.1616161616161622 3.7878787878787885,1.262626262626263 3.7878787878787885,1.3636363636363644 3.7878787878787885,1.4646464646464652 3.7878787878787885,1.5656565656565666 3.7878787878787885,1.6666666666666674 3.7878787878787885,1.767676767676768 3.7878787878787885,1.8686868686868696 3.7878787878787885,1.9696969696969702 3.7878787878787885,2.070707070707072 3.7878787878787885,2.1717171717171726 3.7878787878787885,2.2727272727272734 3.7878787878787885,2.373737373737375 3.7878787878787885,2.4747474747474754 3.7878787878787885,2.575757575757577 3.7878787878787885,2.676767676767678" data-type="line" data-label="" points="984,507.23232323232327 974.4646464646464,497.69696969696975 964.9292929292927,488.1616161616163 955.3939393939393,478.6262626262627 945.8585858585857,469.0909090909092 936.3232323232323,459.5555555555556 926.7878787878785,450.0202020202021 917.2525252525251,440.4848484848486 907.7171717171716,430.94949494949503 898.181818181818,421.4141414141415 888.6464646464647,411.87878787878793 879.111111111111,402.3434343434344 869.5757575757575,392.80808080808094 869.5757575757575,383.27272727272737 869.5757575757575,373.73737373737384 869.5757575757575,364.2020202020203 869.5757575757575,354.66666666666674 869.5757575757575,345.1313131313133 869.5757575757575,335.5959595959597 869.5757575757575,326.06060606060623 869.5757575757575,316.5252525252526 869.5757575757575,306.9898989898991 869.5757575757575,297.4545454545456 869.5757575757575,287.91919191919203 869.5757575757575,278.38383838383857 869.5757575757575,268.84848484848493 869.5757575757575,259.3131313131314" fill="none" stroke="rgba(255,0,0,0.75)" stroke-width="14.159999999999995"/></g><g><polyline data-points="3.7878787878787885,2.676767676767678 3.7878787878787885,2.7777777777777786 3.7878787878787885,2.87878787878788 3.7878787878787885,2.9797979797979806 3.7878787878787885,3.080808080808082 3.7878787878787885,3.181818181818183 3.7878787878787885,3.2828282828282833 3.7878787878787885,3.383838383838384 3.7878787878787885,3.4848484848484866 3.7878787878787885,3.5858585858585874 3.7878787878787885,3.6868686868686877 3.7878787878787885,3.7878787878787885 3.7878787878787885,3.8888888888888893 3.7878787878787885,3.989898989898992 3.7878787878787885,4.090909090909092 3.7878787878787885,4.191919191919193 3.7878787878787885,4.292929292929293 3.7878787878787885,4.393939393939394 3.7878787878787885,4.494949494949497 3.7878787878787885,4.595959595959597 3.7878787878787885,4.696969696969697 3.7878787878787885,4.7979797979797985 3.7878787878787885,4.898989898989901 3.7878787878787885,5.000000000000002" data-type="line" data-label="" points="869.5757575757575,259.3131313131314 869.5757575757575,249.77777777777794 869.5757575757575,240.24242424242436 869.5757575757575,230.70707070707084 869.5757575757575,221.17171717171726 869.5757575757575,211.63636363636374 869.5757575757575,202.10101010101027 869.5757575757575,192.56565656565675 869.5757575757575,183.03030303030312 869.5757575757575,173.4949494949496 869.5757575757575,163.95959595959613 869.5757575757575,154.4242424242426 869.5757575757575,144.88888888888908 869.5757575757575,135.35353535353545 869.5757575757575,125.81818181818198 869.5757575757575,116.28282828282846 869.5757575757575,106.747474747475 869.5757575757575,97.21212121212153 869.5757575757575,87.67676767676778 869.5757575757575,78.14141414141432 869.5757575757575,68.60606060606085 869.5757575757575,59.07070707070733 869.5757575757575,49.53535353535369 869.5757575757575,40.000000000000114" fill="none" stroke="rgba(0,0,255,0.75)" stroke-width="14.159999999999995"/></g><g><polyline data-points="-0.7575757575757572,-5.000000000000001 -0.6565656565656557,-5.000000000000001 -0.555555555555555,-5.000000000000001 -0.4545454545454544,-5.000000000000001 -0.35353535353535287,-5.000000000000001 -0.2525252525252522,-5.000000000000001 -0.15151515151515066,-5.000000000000001 -0.05050505050505001,-5.000000000000001 0.050505050505051545,-5.000000000000001 0.1515151515151522,-5.000000000000001 0.2525252525252529,-5.000000000000001 0.3535353535353544,-5.000000000000001 0.4545454545454551,-5.000000000000001 0.5555555555555567,-5.000000000000001 0.6565656565656574,-5.000000000000001 0.7575757575757579,-5.000000000000001 0.8585858585858596,-5.000000000000001 0.9595959595959602,-5.000000000000001 1.0606060606060617,-5.000000000000001 1.1616161616161622,-5.000000000000001 1.262626262626263,-5.000000000000001 1.3636363636363644,-5.000000000000001 1.4646464646464652,-5.000000000000001 1.5656565656565666,-5.000000000000001 1.6666666666666674,-5.000000000000001 1.767676767676768,-5.000000000000001 1.8686868686868696,-5.000000000000001 1.9696969696969702,-5.000000000000001 2.070707070707072,-5.000000000000001 2.1717171717171726,-5.000000000000001 2.2727272727272734,-5.000000000000001 2.373737373737375,-5.000000000000001 2.4747474747474754,-5.000000000000001 2.575757575757577,-5.000000000000001 2.676767676767678,-5.000000000000001 2.7777777777777786,-5.000000000000001 2.87878787878788,-5.000000000000001 2.9797979797979806,-5.000000000000001 3.080808080808082,-5.000000000000001 3.181818181818183,-5.000000000000001 3.2828282828282833,-5.000000000000001 3.383838383838384,-5.000000000000001 3.4848484848484866,-5.000000000000001 3.5858585858585874,-5.000000000000001 3.6868686868686877,-5.000000000000001 3.7878787878787885,-5.000000000000001 3.8888888888888893,-5.000000000000001 3.989898989898992,-5.000000000000001" data-type="line" data-label="" points="440.4848484848485,984 450.0202020202021,984 459.55555555555554,984 469.09090909090907,984 478.62626262626264,984 488.16161616161617,984 497.69696969696975,984 507.2323232323232,984 516.7676767676768,984 526.3030303030303,984 535.8383838383838,984 545.3737373737374,984 554.9090909090909,984 564.4444444444445,984 573.9797979797979,984 583.5151515151515,984 593.0505050505051,984 602.5858585858585,984 612.1212121212121,984 621.6565656565656,984 631.1919191919192,984 640.7272727272727,984 650.2626262626262,984 659.7979797979798,984 669.3333333333333,984 678.8686868686868,984 688.4040404040404,984 697.9393939393939,984 707.4747474747475,984 717.0101010101009,984 726.5454545454545,984 736.0808080808081,984 745.6161616161615,984 755.1515151515151,984 764.6868686868686,984 774.2222222222222,984 783.7575757575758,984 793.2929292929292,984 802.8282828282828,984 812.3636363636363,984 821.8989898989898,984 831.4343434343433,984 840.969696969697,984 850.5050505050505,984 860.0404040404039,984 869.5757575757575,984 879.111111111111,984 888.6464646464647,984" fill="none" stroke="rgba(255,0,0,0.75)" stroke-width="14.159999999999995"/></g><g><polyline data-points="-5.000000000000001,-0.9595959595959596 -4.898989898989899,-0.8585858585858579 -4.7979797979797985,-0.7575757575757572 -4.696969696969697,-0.6565656565656557 -4.595959595959596,-0.555555555555555 -4.494949494949496,-0.4545454545454544 -4.393939393939394,-0.35353535353535287 -4.292929292929293,-0.2525252525252522 -4.191919191919193,-0.15151515151515066 -4.090909090909091,-0.05050505050505001 -3.98989898989899,0.050505050505051545 -3.8888888888888884,0.1515151515151522 -3.7878787878787876,0.2525252525252529 -3.6868686868686864,0.3535353535353544 -3.5858585858585856,0.4545454545454551 -3.484848484848485,0.5555555555555567 -3.383838383838383,0.6565656565656574 -3.2828282828282824,0.7575757575757579 -3.1818181818181817,0.8585858585858596 -3.0808080808080804,0.9595959595959602 -2.9797979797979792,1.0606060606060617 -2.8787878787878785,1.1616161616161622 -2.7777777777777777,1.262626262626263 -2.6767676767676765,1.3636363636363644 -2.5757575757575752,1.4646464646464652 -2.474747474747474,1.5656565656565666 -2.3737373737373733,1.6666666666666674 -2.2727272727272725,1.767676767676768 -2.1717171717171713,1.8686868686868696 -2.07070707070707,1.9696969696969702 -1.9696969696969693,2.070707070707072 -1.8686868686868683,2.1717171717171726 -1.7676767676767675,2.2727272727272734 -1.6666666666666665,2.373737373737375 -1.5656565656565653,2.4747474747474754 -1.4646464646464643,2.575757575757577 -1.363636363636363,2.676767676767678 -1.2626262626262625,2.7777777777777786 -1.1616161616161613,2.87878787878788 -1.0606060606060603,2.9797979797979806 -0.9595959595959596,3.080808080808082 -0.8585858585858579,3.181818181818183 -0.8585858585858579,3.2828282828282833 -0.8585858585858579,3.383838383838384 -0.8585858585858579,3.4848484848484866 -0.8585858585858579,3.5858585858585874 -0.8585858585858579,3.6868686868686877 -0.8585858585858579,3.7878787878787885 -0.8585858585858579,3.8888888888888893 -0.8585858585858579,3.989898989898992 -0.8585858585858579,4.090909090909092 -0.8585858585858579,4.191919191919193 -0.8585858585858579,4.292929292929293 -0.8585858585858579,4.393939393939394 -0.8585858585858579,4.494949494949497 -0.8585858585858579,4.595959595959597 -0.8585858585858579,4.696969696969697 -0.8585858585858579,4.7979797979797985 -0.8585858585858579,4.898989898989901 -0.8585858585858579,5.000000000000002" data-type="line" data-label="" points="40.00000000000006,602.5858585858587 49.53535353535369,593.0505050505051 59.07070707070716,583.5151515151516 68.60606060606068,573.979797979798 78.14141414141426,564.4444444444445 87.67676767676772,554.909090909091 97.21212121212136,545.3737373737374 106.74747474747483,535.838383838384 116.28282828282829,526.3030303030304 125.81818181818193,516.7676767676768 135.35353535353545,507.23232323232327 144.88888888888903,497.69696969696975 154.42424242424255,488.1616161616163 163.95959595959607,478.6262626262627 173.4949494949496,469.0909090909092 183.03030303030312,459.5555555555556 192.5656565656567,450.0202020202021 202.10101010101022,440.4848484848486 211.63636363636374,430.94949494949503 221.17171717171726,421.4141414141415 230.70707070707084,411.87878787878793 240.2424242424243,402.3434343434344 249.77777777777783,392.80808080808094 259.3131313131314,383.27272727272737 268.84848484848493,373.73737373737384 278.38383838383845,364.2020202020203 287.91919191919203,354.66666666666674 297.4545454545455,345.1313131313133 306.9898989898991,335.5959595959597 316.5252525252526,326.06060606060623 326.0606060606061,316.5252525252526 335.59595959595964,306.9898989898991 345.13131313131316,297.4545454545456 354.6666666666667,287.91919191919203 364.2020202020202,278.38383838383857 373.7373737373738,268.84848484848493 383.2727272727273,259.3131313131314 392.80808080808083,249.77777777777794 402.34343434343435,240.24242424242436 411.8787878787879,230.70707070707084 421.4141414141414,221.17171717171726 430.949494949495,211.63636363636374 430.949494949495,202.10101010101027 430.949494949495,192.56565656565675 430.949494949495,183.03030303030312 430.949494949495,173.4949494949496 430.949494949495,163.95959595959613 430.949494949495,154.4242424242426 430.949494949495,144.88888888888908 430.949494949495,135.35353535353545 430.949494949495,125.81818181818198 430.949494949495,116.28282828282846 430.949494949495,106.747474747475 430.949494949495,97.21212121212153 430.949494949495,87.67676767676778 430.949494949495,78.14141414141432 430.949494949495,68.60606060606085 430.949494949495,59.07070707070733 430.949494949495,49.53535353535369 430.949494949495,40.000000000000114" fill="none" stroke="rgba(0,0,255,0.75)" stroke-width="14.159999999999995"/></g><g><polyline data-points="5.000000000000002,4.090909090909092 4.898989898989901,3.989898989898992 4.7979797979797985,3.8888888888888893 4.696969696969697,3.7878787878787885 4.595959595959597,3.6868686868686877 4.494949494949497,3.5858585858585874 4.393939393939394,3.4848484848484866 4.393939393939394,3.383838383838384 4.393939393939394,3.2828282828282833 4.393939393939394,3.181818181818183 4.393939393939394,3.080808080808082 4.393939393939394,2.9797979797979806 4.292929292929293,2.87878787878788 4.292929292929293,2.7777777777777786 4.292929292929293,2.676767676767678 4.191919191919193,2.575757575757577 4.191919191919193,2.4747474747474754 4.090909090909092,2.373737373737375 3.989898989898992,2.2727272727272734 3.8888888888888893,2.2727272727272734 3.7878787878787885,2.1717171717171726 3.6868686868686877,2.2727272727272734 3.5858585858585874,2.2727272727272734 3.4848484848484866,2.373737373737375 3.383838383838384,2.4747474747474754 3.2828282828282833,2.575757575757577 3.181818181818183,2.676767676767678 3.080808080808082,2.7777777777777786 2.9797979797979806,2.87878787878788 2.87878787878788,2.9797979797979806 2.7777777777777786,2.9797979797979806 2.676767676767678,2.9797979797979806 2.575757575757577,2.9797979797979806 2.4747474747474754,2.9797979797979806 2.373737373737375,2.9797979797979806 2.2727272727272734,2.9797979797979806 2.1717171717171726,2.9797979797979806 2.070707070707072,2.9797979797979806 1.9696969696969702,2.9797979797979806 1.8686868686868696,2.9797979797979806 1.767676767676768,2.9797979797979806 1.6666666666666674,2.9797979797979806 1.5656565656565666,2.9797979797979806 1.4646464646464652,2.9797979797979806 1.3636363636363644,2.9797979797979806 1.262626262626263,2.9797979797979806 1.1616161616161622,2.9797979797979806 1.0606060606060617,2.9797979797979806 0.9595959595959602,2.9797979797979806 0.8585858585858596,2.9797979797979806 0.7575757575757579,2.9797979797979806 0.6565656565656574,2.9797979797979806 0.5555555555555567,2.9797979797979806 0.4545454545454551,2.9797979797979806 0.3535353535353544,2.9797979797979806 0.2525252525252529,2.9797979797979806 0.1515151515151522,2.9797979797979806 0.050505050505051545,2.9797979797979806 -0.05050505050505001,2.9797979797979806 -0.15151515151515066,2.9797979797979806 -0.2525252525252522,2.9797979797979806 -0.35353535353535287,2.9797979797979806" data-type="line" data-label="" points="984,125.81818181818198 974.4646464646464,135.35353535353545 964.9292929292927,144.88888888888908 955.3939393939393,154.4242424242426 945.8585858585857,163.95959595959613 936.3232323232323,173.4949494949496 926.7878787878785,183.03030303030312 926.7878787878785,192.56565656565675 926.7878787878785,202.10101010101027 926.7878787878785,211.63636363636374 926.7878787878785,221.17171717171726 926.7878787878785,230.70707070707084 917.2525252525251,240.24242424242436 917.2525252525251,249.77777777777794 917.2525252525251,259.3131313131314 907.7171717171716,268.84848484848493 907.7171717171716,278.38383838383857 898.181818181818,287.91919191919203 888.6464646464647,297.4545454545456 879.111111111111,297.4545454545456 869.5757575757575,306.9898989898991 860.0404040404039,297.4545454545456 850.5050505050505,297.4545454545456 840.969696969697,287.91919191919203 831.4343434343433,278.38383838383857 821.8989898989898,268.84848484848493 812.3636363636363,259.3131313131314 802.8282828282828,249.77777777777794 793.2929292929292,240.24242424242436 783.7575757575758,230.70707070707084 774.2222222222222,230.70707070707084 764.6868686868686,230.70707070707084 755.1515151515151,230.70707070707084 745.6161616161615,230.70707070707084 736.0808080808081,230.70707070707084 726.5454545454545,230.70707070707084 717.0101010101009,230.70707070707084 707.4747474747475,230.70707070707084 697.9393939393939,230.70707070707084 688.4040404040404,230.70707070707084 678.8686868686868,230.70707070707084 669.3333333333333,230.70707070707084 659.7979797979798,230.70707070707084 650.2626262626262,230.70707070707084 640.7272727272727,230.70707070707084 631.1919191919192,230.70707070707084 621.6565656565656,230.70707070707084 612.1212121212121,230.70707070707084 602.5858585858585,230.70707070707084 593.0505050505051,230.70707070707084 583.5151515151515,230.70707070707084 573.9797979797979,230.70707070707084 564.4444444444445,230.70707070707084 554.9090909090909,230.70707070707084 545.3737373737374,230.70707070707084 535.8383838383838,230.70707070707084 526.3030303030303,230.70707070707084 516.7676767676768,230.70707070707084 507.2323232323232,230.70707070707084 497.69696969696975,230.70707070707084 488.16161616161617,230.70707070707084 478.62626262626264,230.70707070707084" fill="none" stroke="rgba(0,0,255,0.75)" stroke-width="14.159999999999995"/></g><g><polyline data-points="-0.35353535353535287,2.9797979797979806 -0.4545454545454544,2.9797979797979806 -0.555555555555555,2.9797979797979806 -0.6565656565656557,2.9797979797979806 -0.7575757575757572,2.9797979797979806 -0.8585858585858579,2.9797979797979806 -0.9595959595959596,2.9797979797979806 -1.0606060606060603,2.9797979797979806 -1.1616161616161613,2.9797979797979806 -1.2626262626262625,2.9797979797979806 -1.363636363636363,2.9797979797979806 -1.4646464646464643,2.9797979797979806 -1.5656565656565653,2.9797979797979806 -1.6666666666666665,2.9797979797979806 -1.7676767676767675,2.9797979797979806 -1.8686868686868683,2.9797979797979806 -1.9696969696969693,2.9797979797979806 -2.07070707070707,2.9797979797979806 -2.1717171717171713,2.9797979797979806 -2.2727272727272725,2.9797979797979806 -2.3737373737373733,2.9797979797979806 -2.474747474747474,2.9797979797979806 -2.5757575757575752,2.9797979797979806 -2.6767676767676765,2.9797979797979806 -2.7777777777777777,2.9797979797979806 -2.8787878787878785,2.9797979797979806 -2.9797979797979792,2.9797979797979806 -3.0808080808080804,2.9797979797979806 -3.1818181818181817,2.9797979797979806 -3.2828282828282824,2.9797979797979806 -3.383838383838383,2.9797979797979806 -3.484848484848485,2.9797979797979806 -3.5858585858585856,2.9797979797979806 -3.6868686868686864,2.9797979797979806 -3.7878787878787876,2.9797979797979806 -3.8888888888888884,2.9797979797979806 -3.98989898989899,2.9797979797979806 -4.090909090909091,2.9797979797979806 -4.191919191919193,2.9797979797979806 -4.292929292929293,2.9797979797979806 -4.393939393939394,2.9797979797979806 -4.494949494949496,2.9797979797979806 -4.595959595959596,2.9797979797979806 -4.696969696969697,2.9797979797979806 -4.7979797979797985,2.9797979797979806 -4.898989898989899,2.9797979797979806 -5.000000000000001,2.9797979797979806" data-type="line" data-label="" points="478.62626262626264,230.70707070707084 469.09090909090907,230.70707070707084 459.55555555555554,230.70707070707084 450.0202020202021,230.70707070707084 440.4848484848485,230.70707070707084 430.949494949495,230.70707070707084 421.4141414141414,230.70707070707084 411.8787878787879,230.70707070707084 402.34343434343435,230.70707070707084 392.80808080808083,230.70707070707084 383.2727272727273,230.70707070707084 373.7373737373738,230.70707070707084 364.2020202020202,230.70707070707084 354.6666666666667,230.70707070707084 345.13131313131316,230.70707070707084 335.59595959595964,230.70707070707084 326.0606060606061,230.70707070707084 316.5252525252526,230.70707070707084 306.9898989898991,230.70707070707084 297.4545454545455,230.70707070707084 287.91919191919203,230.70707070707084 278.38383838383845,230.70707070707084 268.84848484848493,230.70707070707084 259.3131313131314,230.70707070707084 249.77777777777783,230.70707070707084 240.2424242424243,230.70707070707084 230.70707070707084,230.70707070707084 221.17171717171726,230.70707070707084 211.63636363636374,230.70707070707084 202.10101010101022,230.70707070707084 192.5656565656567,230.70707070707084 183.03030303030312,230.70707070707084 173.4949494949496,230.70707070707084 163.95959595959607,230.70707070707084 154.42424242424255,230.70707070707084 144.88888888888903,230.70707070707084 135.35353535353545,230.70707070707084 125.81818181818193,230.70707070707084 116.28282828282829,230.70707070707084 106.74747474747483,230.70707070707084 97.21212121212136,230.70707070707084 87.67676767676772,230.70707070707084 78.14141414141426,230.70707070707084 68.60606060606068,230.70707070707084 59.07070707070716,230.70707070707084 49.53535353535369,230.70707070707084 40.00000000000006,230.70707070707084" fill="none" stroke="rgba(255,0,0,0.75)" stroke-width="14.159999999999995"/></g><g><rect data-type="rect" data-label="" data-x="0" data-y="0" x="40.000000000000114" y="40.000000000000284" width="943.9999999999997" height="943.9999999999998" fill="none" stroke="gray" stroke-width="0.010593220338983056"/></g><g><rect data-type="rect" data-label="" data-x="0" data-y="0" x="40.000000000000114" y="40.000000000000284" width="943.9999999999997" height="943.9999999999998" fill="none" stroke="rgba(15, 23, 42, 0.8)" stroke-width="0.010593220338983056"/></g><circle data-type="circle" data-label="" data-x="-3.98989898989899" data-y="-2.3737373737373733" cx="135.35353535353545" cy="736.0808080808081" r="28.791999999999987" fill="rgba(0,0,0,0.3)" stroke="black" stroke-width="0.010593220338983056"/><circle data-type="circle" data-label="" data-x="3.7878787878787885" data-y="2.676767676767678" cx="869.5757575757575" cy="259.3131313131314" r="28.791999999999987" fill="rgba(0,0,0,0.3)" stroke="black" stroke-width="0.010593220338983056"/><circle data-type="circle" data-label="" data-x="-0.35353535353535287" data-y="2.9797979797979806" cx="478.62626262626264" cy="230.70707070707084" r="28.791999999999987" fill="rgba(0,0,0,0.3)" stroke="black" stroke-width="0.010593220338983056"/><g id="crosshair" style="display: none"><line id="crosshair-h" y1="0" y2="1024" stroke="#666" stroke-width="0.5"/><line id="crosshair-v" x1="0" x2="1024" stroke="#666" stroke-width="0.5"/><text id="coordinates" font-family="monospace" font-size="12" fill="#666"></text></g><script><![CDATA[
              document.currentScript.parentElement.addEventListener('mousemove', (e) => {
                const svg = e.currentTarget;
                const rect = svg.getBoundingClientRect();
                const x = e.clientX - rect.left;
                const y = e.clientY - rect.top;
                const crosshair = svg.getElementById('crosshair');
                const h = svg.getElementById('crosshair-h');
                const v = svg.getElementById('crosshair-v');
                const coords = svg.getElementById('coordinates');
                
                crosshair.style.display = 'block';
                h.setAttribute('x1', '0');
                h.setAttribute('x2', '1024');
                h.setAttribute('y1', y);
                h.setAttribute('y2', y);
                v.setAttribute('x1', x);
                v.setAttribute('x2', x);
                v.setAttribute('y1', '0');
                v.setAttribute('y2', '1024');

                // Calculate real coordinates using inverse transformation
                const matrix = {"a":94.39999999999996,"c":0,"e":511.99999999999994,"b":0,"d":-94.39999999999996,"f":512.0000000000001};
                // Manually invert and apply the affine transform
                // Since we only use translate and scale, we can directly compute:
                // x' = (x - tx) / sx
                // y' = (y - ty) / sy
                const sx = matrix.a;
                const sy = matrix.d;
                const tx = matrix.e; 
                const ty = matrix.f;
                const realPoint = {
                  x: (x - tx) / sx,
                  y: (y - ty) / sy // Flip y back since we used negative scale
                }
                
                coords.textContent = `(${realPoint.x.toFixed(2)}, ${realPoint.y.toFixed(2)})`;
                coords.setAttribute('x', (x + 5).toString());
                coords.setAttribute('y', (y - 5).toString());
              });
              document.currentScript.parentElement.addEventListener('mouseleave', () => {
                document.currentScript.parentElement.getElementById('crosshair').style.display = 'none';
              });
            ]]></script></svg>