<svg width="1024" height="1024" viewBox="0 0 1024 1024" xmlns="http://www.w3.org/2000/svg"><rect width="100%" height="100%" fill="white"/><g><circle data-type="point" data-label="conn_000" data-x="-3.74" data-y="5" cx="158.94400000000007" cy="40.000000000000284" r="28.792" fill="red" stroke="#bd0f0f" stroke-width="28.792"/></g><g><circle data-type="point" data-label="conn_000" data-x="-2.06" data-y="-5" cx="317.536" cy="984" r="28.792" fill="blue" stroke="#bd0f0f" stroke-width="28.792"/></g><g><circle data-type="point" data-label="conn_001" data-x="-4.6000000000000005" data-y="-5" cx="77.76000000000005" cy="984" r="28.792" fill="blue" stroke="#0fbd42" stroke-width="28.792"/></g><g><circle data-type="point" data-label="conn_001" data-x="-5" data-y="-2" cx="40.000000000000114" cy="700.8000000000001" r="28.792" fill="blue" stroke="#0fbd42" stroke-width="28.792"/></g><g><circle data-type="point" data-label="conn_002" data-x="5" data-y="4.16" cx="983.9999999999998" cy="119.29600000000028" r="28.792" fill="blue" stroke="#740fbd" stroke-width="28.792"/></g><g><circle data-type="point" data-label="conn_002" data-x="3.2" data-y="5" cx="814.0799999999998" cy="40.000000000000284" r="28.792" fill="blue" stroke="#740fbd" stroke-width="28.792"/></g><g><circle data-type="point" data-label="conn_003" data-x="5" data-y="0.74" cx="983.9999999999998" cy="442.1440000000001" r="28.792" fill="red" stroke="#bda70f" stroke-width="28.792"/></g><g><circle data-type="point" data-label="conn_003" data-x="5" data-y="2.42" cx="983.9999999999998" cy="283.55200000000025" r="28.792" fill="red" stroke="#bda70f" stroke-width="28.792"/></g><g><circle data-type="point" data-label="conn_004" data-x="5" data-y="-1.78" cx="983.9999999999998" cy="680.032" r="28.792" fill="red" stroke="#0fa0bd" stroke-width="28.792"/></g><g><circle data-type="point" data-label="conn_004" data-x="1.84" data-y="5" cx="685.6959999999999" cy="40.000000000000284" r="28.792" fill="red" stroke="#0fa0bd" stroke-width="28.792"/></g><g><circle data-type="point" data-label="conn_005" data-x="-4.64" data-y="5" cx="73.98400000000015" cy="40.000000000000284" r="28.792" fill="red" stroke="#bd0f6d" stroke-width="28.792"/></g><g><circle data-type="point" data-label="conn_005" data-x="-2.94" data-y="-5" cx="234.46400000000006" cy="984" r="28.792" fill="red" stroke="#bd0f6d" stroke-width="28.792"/></g><g><circle data-type="point" data-label="conn_006" data-x="-2.08" data-y="5" cx="315.648" cy="40.000000000000284" r="28.792" fill="blue" stroke="#3bbd0f" stroke-width="28.792"/></g><g><circle data-type="point" data-label="conn_006" data-x="-3.64" data-y="-5" cx="168.38400000000007" cy="984" r="28.792" fill="red" stroke="#3bbd0f" stroke-width="28.792"/></g><g><circle data-type="point" data-label="conn_007" data-x="5" data-y="-4.96" cx="983.9999999999998" cy="980.2239999999999" r="28.792" fill="red" stroke="#170fbd" stroke-width="28.792"/></g><g><circle data-type="point" data-label="conn_007" data-x="5" data-y="-2.44" cx="983.9999999999998" cy="742.336" r="28.792" fill="blue" stroke="#170fbd" stroke-width="28.792"/></g><g><circle data-type="point" data-label="conn_008" data-x="3.34" data-y="-5" cx="827.2959999999998" cy="984" r="28.792" fill="red" stroke="#bd490f" stroke-width="28.792"/></g><g><circle data-type="point" data-label="conn_008" data-x="0.98" data-y="5" cx="604.512" cy="40.000000000000284" r="28.792" fill="blue" stroke="#bd490f" stroke-width="28.792"/></g><g><polyline data-points="-2.07070707070707,5.000000000000002 -2.1717171717171713,4.898989898989901 -2.2727272727272725,4.7979797979797985 -2.3737373737373733,4.696969696969697 -2.474747474747474,4.595959595959597 -2.5757575757575752,4.494949494949497 -2.6767676767676765,4.393939393939394 -2.7777777777777777,4.292929292929293 -2.8787878787878785,4.191919191919193 -2.9797979797979792,4.090909090909092 -3.0808080808080804,3.989898989898992 -3.1818181818181817,3.8888888888888893 -3.2828282828282824,3.7878787878787885 -3.383838383838383,3.6868686868686877 -3.484848484848485,3.5858585858585874 -3.5858585858585856,3.4848484848484866 -3.6868686868686864,3.383838383838384 -3.6868686868686864,3.2828282828282833 -3.6868686868686864,3.181818181818183 -3.6868686868686864,3.080808080808082 -3.6868686868686864,2.9797979797979806 -3.6868686868686864,2.87878787878788 -3.6868686868686864,2.7777777777777786 -3.6868686868686864,2.676767676767678 -3.6868686868686864,2.575757575757577 -3.6868686868686864,2.4747474747474754 -3.6868686868686864,2.373737373737375 -3.6868686868686864,2.2727272727272734 -3.6868686868686864,2.1717171717171726 -3.6868686868686864,2.070707070707072 -3.6868686868686864,1.9696969696969702 -3.6868686868686864,1.8686868686868696 -3.6868686868686864,1.767676767676768 -3.6868686868686864,1.6666666666666674 -3.6868686868686864,1.5656565656565666 -3.6868686868686864,1.4646464646464652 -3.6868686868686864,1.3636363636363644 -3.6868686868686864,1.262626262626263 -3.6868686868686864,1.1616161616161622 -3.6868686868686864,1.0606060606060617 -3.6868686868686864,0.9595959595959602 -3.6868686868686864,0.8585858585858596 -3.6868686868686864,0.7575757575757579 -3.6868686868686864,0.6565656565656574 -3.6868686868686864,0.5555555555555567 -3.6868686868686864,0.4545454545454551 -3.6868686868686864,0.3535353535353544 -3.6868686868686864,0.2525252525252529 -3.6868686868686864,0.1515151515151522 -3.6868686868686864,0.050505050505051545 -3.6868686868686864,-0.05050505050505001 -3.6868686868686864,-0.15151515151515066 -3.6868686868686864,-0.2525252525252522 -3.6868686868686864,-0.35353535353535287 -3.6868686868686864,-0.4545454545454544 -3.6868686868686864,-0.555555555555555 -3.6868686868686864,-0.6565656565656557 -3.6868686868686864,-0.7575757575757572 -3.6868686868686864,-0.8585858585858579 -3.6868686868686864,-0.9595959595959596 -3.6868686868686864,-1.0606060606060603 -3.6868686868686864,-1.1616161616161613 -3.6868686868686864,-1.2626262626262625 -3.6868686868686864,-1.363636363636363 -3.6868686868686864,-1.4646464646464643 -3.6868686868686864,-1.5656565656565653 -3.6868686868686864,-1.6666666666666665 -3.6868686868686864,-1.7676767676767675 -3.6868686868686864,-1.8686868686868683 -3.6868686868686864,-1.9696969696969693 -3.6868686868686864,-2.07070707070707 -3.6868686868686864,-2.1717171717171713 -3.6868686868686864,-2.2727272727272725 -3.6868686868686864,-2.3737373737373733 -3.6868686868686864,-2.474747474747474 -3.6868686868686864,-2.5757575757575752 -3.6868686868686864,-2.6767676767676765 -3.6868686868686864,-2.7777777777777777 -3.6868686868686864,-2.8787878787878785 -3.6868686868686864,-2.9797979797979792 -3.6868686868686864,-3.0808080808080804 -3.6868686868686864,-3.1818181818181817 -3.6868686868686864,-3.2828282828282824 -3.6868686868686864,-3.383838383838383 -3.6868686868686864,-3.484848484848485 -3.6868686868686864,-3.5858585858585856 -3.6868686868686864,-3.6868686868686864 -3.6868686868686864,-3.7878787878787876 -3.6868686868686864,-3.8888888888888884 -3.6868686868686864,-3.98989898989899" data-type="line" data-label="" points="316.5252525252526,40.000000000000114 306.9898989898991,49.53535353535369 297.4545454545455,59.07070707070733 287.91919191919203,68.60606060606085 278.38383838383845,78.14141414141432 268.84848484848493,87.67676767676778 259.3131313131314,97.21212121212153 249.77777777777783,106.747474747475 240.2424242424243,116.28282828282846 230.70707070707084,125.81818181818198 221.17171717171726,135.35353535353545 211.63636363636374,144.88888888888908 202.10101010101022,154.4242424242426 192.5656565656567,163.95959595959613 183.03030303030312,173.4949494949496 173.4949494949496,183.03030303030312 163.95959595959607,192.56565656565675 163.95959595959607,202.10101010101027 163.95959595959607,211.63636363636374 163.95959595959607,221.17171717171726 163.95959595959607,230.70707070707084 163.95959595959607,240.24242424242436 163.95959595959607,249.77777777777794 163.95959595959607,259.3131313131314 163.95959595959607,268.84848484848493 163.95959595959607,278.38383838383857 163.95959595959607,287.91919191919203 163.95959595959607,297.4545454545456 163.95959595959607,306.9898989898991 163.95959595959607,316.5252525252526 163.95959595959607,326.06060606060623 163.95959595959607,335.5959595959597 163.95959595959607,345.1313131313133 163.95959595959607,354.66666666666674 163.95959595959607,364.2020202020203 163.95959595959607,373.73737373737384 163.95959595959607,383.27272727272737 163.95959595959607,392.80808080808094 163.95959595959607,402.3434343434344 163.95959595959607,411.87878787878793 163.95959595959607,421.4141414141415 163.95959595959607,430.94949494949503 163.95959595959607,440.4848484848486 163.95959595959607,450.0202020202021 163.95959595959607,459.5555555555556 163.95959595959607,469.0909090909092 163.95959595959607,478.6262626262627 163.95959595959607,488.1616161616163 163.95959595959607,497.69696969696975 163.95959595959607,507.23232323232327 163.95959595959607,516.7676767676768 163.95959595959607,526.3030303030304 163.95959595959607,535.838383838384 163.95959595959607,545.3737373737374 163.95959595959607,554.909090909091 163.95959595959607,564.4444444444445 163.95959595959607,573.979797979798 163.95959595959607,583.5151515151516 163.95959595959607,593.0505050505051 163.95959595959607,602.5858585858587 163.95959595959607,612.1212121212121 163.95959595959607,621.6565656565657 163.95959595959607,631.1919191919193 163.95959595959607,640.7272727272727 163.95959595959607,650.2626262626263 163.95959595959607,659.7979797979798 163.95959595959607,669.3333333333334 163.95959595959607,678.8686868686868 163.95959595959607,688.4040404040404 163.95959595959607,697.939393939394 163.95959595959607,707.4747474747475 163.95959595959607,717.010101010101 163.95959595959607,726.5454545454545 163.95959595959607,736.0808080808081 163.95959595959607,745.6161616161615 163.95959595959607,755.1515151515151 163.95959595959607,764.6868686868687 163.95959595959607,774.2222222222222 163.95959595959607,783.7575757575758 163.95959595959607,793.2929292929292 163.95959595959607,802.8282828282828 163.95959595959607,812.3636363636363 163.95959595959607,821.8989898989898 163.95959595959607,831.4343434343434 163.95959595959607,840.969696969697 163.95959595959607,850.5050505050505 163.95959595959607,860.0404040404039 163.95959595959607,869.5757575757575 163.95959595959607,879.1111111111111 163.95959595959607,888.6464646464647" fill="none" stroke="rgba(0,0,255,0.75)" stroke-width="14.159999999999995"/></g><g><polyline data-points="-3.6868686868686864,-3.98989898989899 -3.6868686868686864,-4.090909090909091 -3.6868686868686864,-4.191919191919193 -3.6868686868686864,-4.292929292929293 -3.6868686868686864,-4.393939393939394 -3.6868686868686864,-4.494949494949496 -3.6868686868686864,-4.595959595959596 -3.6868686868686864,-4.696969696969697 -3.6868686868686864,-4.7979797979797985 -3.6868686868686864,-4.898989898989899 -3.6868686868686864,-5.000000000000001" data-type="line" data-label="" points="163.95959595959607,888.6464646464647 163.95959595959607,898.1818181818181 163.95959595959607,907.7171717171718 163.95959595959607,917.2525252525252 163.95959595959607,926.7878787878788 163.95959595959607,936.3232323232323 163.95959595959607,945.8585858585858 163.95959595959607,955.3939393939394 163.95959595959607,964.9292929292928 163.95959595959607,974.4646464646464 163.95959595959607,984" fill="none" stroke="rgba(255,0,0,0.75)" stroke-width="14.159999999999995"/></g><g><polyline data-points="-4.696969696969697,5.000000000000002 -4.595959595959596,4.898989898989901 -4.494949494949496,4.7979797979797985 -4.393939393939394,4.696969696969697 -4.292929292929293,4.595959595959597 -4.191919191919193,4.494949494949497 -4.090909090909091,4.393939393939394 -3.98989898989899,4.292929292929293 -3.8888888888888884,4.191919191919193 -3.7878787878787876,4.090909090909092 -3.6868686868686864,3.989898989898992 -3.5858585858585856,3.8888888888888893 -3.484848484848485,3.7878787878787885 -3.383838383838383,3.6868686868686877 -3.2828282828282824,3.5858585858585874 -3.1818181818181817,3.4848484848484866 -3.0808080808080804,3.383838383838384 -2.9797979797979792,3.2828282828282833 -2.9797979797979792,3.181818181818183 -2.9797979797979792,3.080808080808082 -2.9797979797979792,2.9797979797979806 -2.9797979797979792,2.87878787878788 -2.9797979797979792,2.7777777777777786 -2.9797979797979792,2.676767676767678 -2.9797979797979792,2.575757575757577 -2.9797979797979792,2.4747474747474754 -2.9797979797979792,2.373737373737375 -2.9797979797979792,2.2727272727272734 -2.9797979797979792,2.1717171717171726 -2.9797979797979792,2.070707070707072 -2.9797979797979792,1.9696969696969702 -2.9797979797979792,1.8686868686868696 -2.9797979797979792,1.767676767676768 -2.9797979797979792,1.6666666666666674 -2.9797979797979792,1.5656565656565666 -2.9797979797979792,1.4646464646464652 -2.9797979797979792,1.3636363636363644 -2.9797979797979792,1.262626262626263 -2.9797979797979792,1.1616161616161622 -2.9797979797979792,1.0606060606060617 -2.9797979797979792,0.9595959595959602 -2.9797979797979792,0.8585858585858596 -2.9797979797979792,0.7575757575757579 -2.9797979797979792,0.6565656565656574 -2.9797979797979792,0.5555555555555567 -2.9797979797979792,0.4545454545454551 -2.9797979797979792,0.3535353535353544 -2.9797979797979792,0.2525252525252529 -2.9797979797979792,0.1515151515151522 -2.9797979797979792,0.050505050505051545 -2.9797979797979792,-0.05050505050505001 -2.9797979797979792,-0.15151515151515066 -2.9797979797979792,-0.2525252525252522 -2.9797979797979792,-0.35353535353535287 -2.9797979797979792,-0.4545454545454544 -2.9797979797979792,-0.555555555555555 -2.9797979797979792,-0.6565656565656557 -2.9797979797979792,-0.7575757575757572 -2.9797979797979792,-0.8585858585858579 -2.9797979797979792,-0.9595959595959596 -2.9797979797979792,-1.0606060606060603 -2.9797979797979792,-1.1616161616161613 -2.9797979797979792,-1.2626262626262625 -2.9797979797979792,-1.363636363636363 -2.9797979797979792,-1.4646464646464643 -2.9797979797979792,-1.5656565656565653 -2.9797979797979792,-1.6666666666666665 -2.9797979797979792,-1.7676767676767675 -2.9797979797979792,-1.8686868686868683 -2.9797979797979792,-1.9696969696969693 -2.9797979797979792,-2.07070707070707 -2.9797979797979792,-2.1717171717171713 -2.9797979797979792,-2.2727272727272725 -2.9797979797979792,-2.3737373737373733 -2.9797979797979792,-2.474747474747474 -2.9797979797979792,-2.5757575757575752 -2.9797979797979792,-2.6767676767676765 -2.9797979797979792,-2.7777777777777777 -2.9797979797979792,-2.8787878787878785 -2.9797979797979792,-2.9797979797979792 -2.9797979797979792,-3.0808080808080804 -2.9797979797979792,-3.1818181818181817 -2.9797979797979792,-3.2828282828282824 -2.9797979797979792,-3.383838383838383 -2.9797979797979792,-3.484848484848485 -2.9797979797979792,-3.5858585858585856 -2.9797979797979792,-3.6868686868686864 -2.9797979797979792,-3.7878787878787876 -2.9797979797979792,-3.8888888888888884 -2.9797979797979792,-3.98989898989899 -2.9797979797979792,-4.090909090909091 -2.9797979797979792,-4.191919191919193 -2.9797979797979792,-4.292929292929293 -2.9797979797979792,-4.393939393939394 -2.9797979797979792,-4.494949494949496 -2.9797979797979792,-4.595959595959596 -2.9797979797979792,-4.696969696969697 -2.9797979797979792,-4.7979797979797985 -2.9797979797979792,-4.898989898989899 -2.9797979797979792,-5.000000000000001" data-type="line" data-label="" points="68.60606060606068,40.000000000000114 78.14141414141426,49.53535353535369 87.67676767676772,59.07070707070733 97.21212121212136,68.60606060606085 106.74747474747483,78.14141414141432 116.28282828282829,87.67676767676778 125.81818181818193,97.21212121212153 135.35353535353545,106.747474747475 144.88888888888903,116.28282828282846 154.42424242424255,125.81818181818198 163.95959595959607,135.35353535353545 173.4949494949496,144.88888888888908 183.03030303030312,154.4242424242426 192.5656565656567,163.95959595959613 202.10101010101022,173.4949494949496 211.63636363636374,183.03030303030312 221.17171717171726,192.56565656565675 230.70707070707084,202.10101010101027 230.70707070707084,211.63636363636374 230.70707070707084,221.17171717171726 230.70707070707084,230.70707070707084 230.70707070707084,240.24242424242436 230.70707070707084,249.77777777777794 230.70707070707084,259.3131313131314 230.70707070707084,268.84848484848493 230.70707070707084,278.38383838383857 230.70707070707084,287.91919191919203 230.70707070707084,297.4545454545456 230.70707070707084,306.9898989898991 230.70707070707084,316.5252525252526 230.70707070707084,326.06060606060623 230.70707070707084,335.5959595959597 230.70707070707084,345.1313131313133 230.70707070707084,354.66666666666674 230.70707070707084,364.2020202020203 230.70707070707084,373.73737373737384 230.70707070707084,383.27272727272737 230.70707070707084,392.80808080808094 230.70707070707084,402.3434343434344 230.70707070707084,411.87878787878793 230.70707070707084,421.4141414141415 230.70707070707084,430.94949494949503 230.70707070707084,440.4848484848486 230.70707070707084,450.0202020202021 230.70707070707084,459.5555555555556 230.70707070707084,469.0909090909092 230.70707070707084,478.6262626262627 230.70707070707084,488.1616161616163 230.70707070707084,497.69696969696975 230.70707070707084,507.23232323232327 230.70707070707084,516.7676767676768 230.70707070707084,526.3030303030304 230.70707070707084,535.838383838384 230.70707070707084,545.3737373737374 230.70707070707084,554.909090909091 230.70707070707084,564.4444444444445 230.70707070707084,573.979797979798 230.70707070707084,583.5151515151516 230.70707070707084,593.0505050505051 230.70707070707084,602.5858585858587 230.70707070707084,612.1212121212121 230.70707070707084,621.6565656565657 230.70707070707084,631.1919191919193 230.70707070707084,640.7272727272727 230.70707070707084,650.2626262626263 230.70707070707084,659.7979797979798 230.70707070707084,669.3333333333334 230.70707070707084,678.8686868686868 230.70707070707084,688.4040404040404 230.70707070707084,697.939393939394 230.70707070707084,707.4747474747475 230.70707070707084,717.010101010101 230.70707070707084,726.5454545454545 230.70707070707084,736.0808080808081 230.70707070707084,745.6161616161615 230.70707070707084,755.1515151515151 230.70707070707084,764.6868686868687 230.70707070707084,774.2222222222222 230.70707070707084,783.7575757575758 230.70707070707084,793.2929292929292 230.70707070707084,802.8282828282828 230.70707070707084,812.3636363636363 230.70707070707084,821.8989898989898 230.70707070707084,831.4343434343434 230.70707070707084,840.969696969697 230.70707070707084,850.5050505050505 230.70707070707084,860.0404040404039 230.70707070707084,869.5757575757575 230.70707070707084,879.1111111111111 230.70707070707084,888.6464646464647 230.70707070707084,898.1818181818181 230.70707070707084,907.7171717171718 230.70707070707084,917.2525252525252 230.70707070707084,926.7878787878788 230.70707070707084,936.3232323232323 230.70707070707084,945.8585858585858 230.70707070707084,955.3939393939394 230.70707070707084,964.9292929292928 230.70707070707084,974.4646464646464 230.70707070707084,984" fill="none" stroke="rgba(255,0,0,0.75)" stroke-width="14.159999999999995"/></g><g><polyline data-points="5.000000000000002,-1.7676767676767675 4.898989898989901,-1.6666666666666665 4.7979797979797985,-1.5656565656565653 4.696969696969697,-1.4646464646464643 4.595959595959597,-1.363636363636363 4.494949494949497,-1.2626262626262625 4.393939393939394,-1.1616161616161613 4.292929292929293,-1.0606060606060603 4.191919191919193,-0.9595959595959596 4.090909090909092,-0.8585858585858579 3.989898989898992,-0.7575757575757572 3.8888888888888893,-0.6565656565656557 3.7878787878787885,-0.555555555555555 3.6868686868686877,-0.4545454545454544 3.5858585858585874,-0.35353535353535287 3.4848484848484866,-0.2525252525252522 3.383838383838384,-0.15151515151515066 3.2828282828282833,-0.05050505050505001 3.181818181818183,0.050505050505051545 3.080808080808082,0.1515151515151522 2.9797979797979806,0.2525252525252529 2.87878787878788,0.3535353535353544 2.7777777777777786,0.4545454545454551 2.676767676767678,0.5555555555555567 2.575757575757577,0.6565656565656574 2.4747474747474754,0.7575757575757579 2.373737373737375,0.8585858585858596 2.2727272727272734,0.9595959595959602 2.1717171717171726,1.0606060606060617 2.070707070707072,1.1616161616161622 1.9696969696969702,1.262626262626263 1.8686868686868696,1.3636363636363644 1.8686868686868696,1.4646464646464652 1.8686868686868696,1.5656565656565666 1.8686868686868696,1.6666666666666674 1.8686868686868696,1.767676767676768 1.8686868686868696,1.8686868686868696 1.8686868686868696,1.9696969696969702 1.8686868686868696,2.070707070707072 1.8686868686868696,2.1717171717171726 1.8686868686868696,2.2727272727272734 1.8686868686868696,2.373737373737375 1.8686868686868696,2.4747474747474754 1.8686868686868696,2.575757575757577 1.8686868686868696,2.676767676767678 1.8686868686868696,2.7777777777777786 1.8686868686868696,2.87878787878788 1.8686868686868696,2.9797979797979806 1.8686868686868696,3.080808080808082 1.8686868686868696,3.181818181818183 1.8686868686868696,3.2828282828282833 1.8686868686868696,3.383838383838384 1.8686868686868696,3.4848484848484866 1.8686868686868696,3.5858585858585874 1.8686868686868696,3.6868686868686877 1.8686868686868696,3.7878787878787885 1.8686868686868696,3.8888888888888893 1.8686868686868696,3.989898989898992 1.8686868686868696,4.090909090909092 1.8686868686868696,4.191919191919193 1.8686868686868696,4.292929292929293 1.8686868686868696,4.393939393939394 1.8686868686868696,4.494949494949497 1.8686868686868696,4.595959595959597 1.8686868686868696,4.696969696969697 1.8686868686868696,4.7979797979797985 1.8686868686868696,4.898989898989901 1.8686868686868696,5.000000000000002" data-type="line" data-label="" points="984,678.8686868686868 974.4646464646464,669.3333333333334 964.9292929292927,659.7979797979798 955.3939393939393,650.2626262626263 945.8585858585857,640.7272727272727 936.3232323232323,631.1919191919193 926.7878787878785,621.6565656565657 917.2525252525251,612.1212121212121 907.7171717171716,602.5858585858587 898.181818181818,593.0505050505051 888.6464646464647,583.5151515151516 879.111111111111,573.979797979798 869.5757575757575,564.4444444444445 860.0404040404039,554.909090909091 850.5050505050505,545.3737373737374 840.969696969697,535.838383838384 831.4343434343433,526.3030303030304 821.8989898989898,516.7676767676768 812.3636363636363,507.23232323232327 802.8282828282828,497.69696969696975 793.2929292929292,488.1616161616163 783.7575757575758,478.6262626262627 774.2222222222222,469.0909090909092 764.6868686868686,459.5555555555556 755.1515151515151,450.0202020202021 745.6161616161615,440.4848484848486 736.0808080808081,430.94949494949503 726.5454545454545,421.4141414141415 717.0101010101009,411.87878787878793 707.4747474747475,402.3434343434344 697.9393939393939,392.80808080808094 688.4040404040404,383.27272727272737 688.4040404040404,373.73737373737384 688.4040404040404,364.2020202020203 688.4040404040404,354.66666666666674 688.4040404040404,345.1313131313133 688.4040404040404,335.5959595959597 688.4040404040404,326.06060606060623 688.4040404040404,316.5252525252526 688.4040404040404,306.9898989898991 688.4040404040404,297.4545454545456 688.4040404040404,287.91919191919203 688.4040404040404,278.38383838383857 688.4040404040404,268.84848484848493 688.4040404040404,259.3131313131314 688.4040404040404,249.77777777777794 688.4040404040404,240.24242424242436 688.4040404040404,230.70707070707084 688.4040404040404,221.17171717171726 688.4040404040404,211.63636363636374 688.4040404040404,202.10101010101027 688.4040404040404,192.56565656565675 688.4040404040404,183.03030303030312 688.4040404040404,173.4949494949496 688.4040404040404,163.95959595959613 688.4040404040404,154.4242424242426 688.4040404040404,144.88888888888908 688.4040404040404,135.35353535353545 688.4040404040404,125.81818181818198 688.4040404040404,116.28282828282846 688.4040404040404,106.747474747475 688.4040404040404,97.21212121212153 688.4040404040404,87.67676767676778 688.4040404040404,78.14141414141432 688.4040404040404,68.60606060606085 688.4040404040404,59.07070707070733 688.4040404040404,49.53535353535369 688.4040404040404,40.000000000000114" fill="none" stroke="rgba(255,0,0,0.75)" stroke-width="14.159999999999995"/></g><g><polyline data-points="5.000000000000002,4.191919191919193 4.898989898989901,4.292929292929293 4.7979797979797985,4.393939393939394 4.696969696969697,4.494949494949497 4.595959595959597,4.595959595959597 4.494949494949497,4.696969696969697 4.393939393939394,4.7979797979797985 4.292929292929293,4.898989898989901 4.191919191919193,5.000000000000002 4.090909090909092,5.000000000000002 3.989898989898992,5.000000000000002 3.8888888888888893,5.000000000000002 3.7878787878787885,5.000000000000002 3.6868686868686877,5.000000000000002 3.5858585858585874,5.000000000000002 3.4848484848484866,5.000000000000002 3.383838383838384,5.000000000000002 3.2828282828282833,5.000000000000002 3.181818181818183,5.000000000000002" data-type="line" data-label="" points="984,116.28282828282846 974.4646464646464,106.747474747475 964.9292929292927,97.21212121212153 955.3939393939393,87.67676767676778 945.8585858585857,78.14141414141432 936.3232323232323,68.60606060606085 926.7878787878785,59.07070707070733 917.2525252525251,49.53535353535369 907.7171717171716,40.000000000000114 898.181818181818,40.000000000000114 888.6464646464647,40.000000000000114 879.111111111111,40.000000000000114 869.5757575757575,40.000000000000114 860.0404040404039,40.000000000000114 850.5050505050505,40.000000000000114 840.969696969697,40.000000000000114 831.4343434343433,40.000000000000114 821.8989898989898,40.000000000000114 812.3636363636363,40.000000000000114" fill="none" stroke="rgba(0,0,255,0.75)" stroke-width="14.159999999999995"/></g><g><polyline data-points="-3.7878787878787876,5.000000000000002 -3.6868686868686864,4.898989898989901 -3.5858585858585856,4.7979797979797985 -3.484848484848485,4.696969696969697 -3.383838383838383,4.595959595959597 -3.2828282828282824,4.494949494949497 -3.1818181818181817,4.393939393939394 -3.0808080808080804,4.292929292929293 -2.9797979797979792,4.191919191919193 -2.8787878787878785,4.090909090909092 -2.7777777777777777,3.989898989898992 -2.6767676767676765,3.8888888888888893 -2.5757575757575752,3.7878787878787885 -2.474747474747474,3.6868686868686877 -2.3737373737373733,3.5858585858585874 -2.2727272727272725,3.4848484848484866 -2.1717171717171713,3.383838383838384 -2.07070707070707,3.2828282828282833 -2.07070707070707,3.181818181818183 -2.07070707070707,3.080808080808082 -2.07070707070707,2.9797979797979806 -2.07070707070707,2.87878787878788 -2.07070707070707,2.7777777777777786 -2.07070707070707,2.676767676767678 -2.07070707070707,2.575757575757577 -2.07070707070707,2.4747474747474754 -2.07070707070707,2.373737373737375 -2.07070707070707,2.2727272727272734 -2.07070707070707,2.1717171717171726 -2.07070707070707,2.070707070707072 -2.07070707070707,1.9696969696969702 -2.07070707070707,1.8686868686868696 -2.07070707070707,1.767676767676768 -2.07070707070707,1.6666666666666674 -2.07070707070707,1.5656565656565666 -2.07070707070707,1.4646464646464652 -2.07070707070707,1.3636363636363644 -2.07070707070707,1.262626262626263 -2.07070707070707,1.1616161616161622 -2.07070707070707,1.0606060606060617 -2.07070707070707,0.9595959595959602 -2.07070707070707,0.8585858585858596 -2.07070707070707,0.7575757575757579 -2.07070707070707,0.6565656565656574 -2.07070707070707,0.5555555555555567 -2.07070707070707,0.4545454545454551 -2.07070707070707,0.3535353535353544 -2.07070707070707,0.2525252525252529 -2.07070707070707,0.1515151515151522 -2.07070707070707,0.050505050505051545 -2.07070707070707,-0.05050505050505001 -2.07070707070707,-0.15151515151515066 -2.07070707070707,-0.2525252525252522 -2.07070707070707,-0.35353535353535287 -2.07070707070707,-0.4545454545454544 -2.07070707070707,-0.555555555555555 -2.07070707070707,-0.6565656565656557 -2.07070707070707,-0.7575757575757572 -2.07070707070707,-0.8585858585858579 -2.07070707070707,-0.9595959595959596 -2.07070707070707,-1.0606060606060603 -2.07070707070707,-1.1616161616161613 -2.07070707070707,-1.2626262626262625 -2.07070707070707,-1.363636363636363 -2.07070707070707,-1.4646464646464643 -2.07070707070707,-1.5656565656565653 -2.07070707070707,-1.6666666666666665 -2.07070707070707,-1.7676767676767675 -2.07070707070707,-1.8686868686868683 -2.07070707070707,-1.9696969696969693 -2.07070707070707,-2.07070707070707 -2.07070707070707,-2.1717171717171713 -2.07070707070707,-2.2727272727272725 -2.07070707070707,-2.3737373737373733 -2.07070707070707,-2.474747474747474 -2.07070707070707,-2.5757575757575752 -2.07070707070707,-2.6767676767676765 -2.07070707070707,-2.7777777777777777 -2.07070707070707,-2.8787878787878785 -2.07070707070707,-2.9797979797979792 -2.07070707070707,-3.0808080808080804 -2.07070707070707,-3.1818181818181817 -2.07070707070707,-3.2828282828282824 -2.07070707070707,-3.383838383838383 -2.07070707070707,-3.484848484848485 -2.07070707070707,-3.5858585858585856 -2.07070707070707,-3.6868686868686864 -2.07070707070707,-3.7878787878787876 -2.07070707070707,-3.8888888888888884 -2.07070707070707,-3.98989898989899" data-type="line" data-label="" points="154.42424242424255,40.000000000000114 163.95959595959607,49.53535353535369 173.4949494949496,59.07070707070733 183.03030303030312,68.60606060606085 192.5656565656567,78.14141414141432 202.10101010101022,87.67676767676778 211.63636363636374,97.21212121212153 221.17171717171726,106.747474747475 230.70707070707084,116.28282828282846 240.2424242424243,125.81818181818198 249.77777777777783,135.35353535353545 259.3131313131314,144.88888888888908 268.84848484848493,154.4242424242426 278.38383838383845,163.95959595959613 287.91919191919203,173.4949494949496 297.4545454545455,183.03030303030312 306.9898989898991,192.56565656565675 316.5252525252526,202.10101010101027 316.5252525252526,211.63636363636374 316.5252525252526,221.17171717171726 316.5252525252526,230.70707070707084 316.5252525252526,240.24242424242436 316.5252525252526,249.77777777777794 316.5252525252526,259.3131313131314 316.5252525252526,268.84848484848493 316.5252525252526,278.38383838383857 316.5252525252526,287.91919191919203 316.5252525252526,297.4545454545456 316.5252525252526,306.9898989898991 316.5252525252526,316.5252525252526 316.5252525252526,326.06060606060623 316.5252525252526,335.5959595959597 316.5252525252526,345.1313131313133 316.5252525252526,354.66666666666674 316.5252525252526,364.2020202020203 316.5252525252526,373.73737373737384 316.5252525252526,383.27272727272737 316.5252525252526,392.80808080808094 316.5252525252526,402.3434343434344 316.5252525252526,411.87878787878793 316.5252525252526,421.4141414141415 316.5252525252526,430.94949494949503 316.5252525252526,440.4848484848486 316.5252525252526,450.0202020202021 316.5252525252526,459.5555555555556 316.5252525252526,469.0909090909092 316.5252525252526,478.6262626262627 316.5252525252526,488.1616161616163 316.5252525252526,497.69696969696975 316.5252525252526,507.23232323232327 316.5252525252526,516.7676767676768 316.5252525252526,526.3030303030304 316.5252525252526,535.838383838384 316.5252525252526,545.3737373737374 316.5252525252526,554.909090909091 316.5252525252526,564.4444444444445 316.5252525252526,573.979797979798 316.5252525252526,583.5151515151516 316.5252525252526,593.0505050505051 316.5252525252526,602.5858585858587 316.5252525252526,612.1212121212121 316.5252525252526,621.6565656565657 316.5252525252526,631.1919191919193 316.5252525252526,640.7272727272727 316.5252525252526,650.2626262626263 316.5252525252526,659.7979797979798 316.5252525252526,669.3333333333334 316.5252525252526,678.8686868686868 316.5252525252526,688.4040404040404 316.5252525252526,697.939393939394 316.5252525252526,707.4747474747475 316.5252525252526,717.010101010101 316.5252525252526,726.5454545454545 316.5252525252526,736.0808080808081 316.5252525252526,745.6161616161615 316.5252525252526,755.1515151515151 316.5252525252526,764.6868686868687 316.5252525252526,774.2222222222222 316.5252525252526,783.7575757575758 316.5252525252526,793.2929292929292 316.5252525252526,802.8282828282828 316.5252525252526,812.3636363636363 316.5252525252526,821.8989898989898 316.5252525252526,831.4343434343434 316.5252525252526,840.969696969697 316.5252525252526,850.5050505050505 316.5252525252526,860.0404040404039 316.5252525252526,869.5757575757575 316.5252525252526,879.1111111111111 316.5252525252526,888.6464646464647" fill="none" stroke="rgba(255,0,0,0.75)" stroke-width="14.159999999999995"/></g><g><polyline data-points="-2.07070707070707,-3.98989898989899 -2.07070707070707,-4.090909090909091 -2.07070707070707,-4.191919191919193 -2.07070707070707,-4.292929292929293 -2.07070707070707,-4.393939393939394 -2.07070707070707,-4.494949494949496 -2.07070707070707,-4.595959595959596 -2.07070707070707,-4.696969696969697 -2.07070707070707,-4.7979797979797985 -2.07070707070707,-4.898989898989899 -2.07070707070707,-5.000000000000001" data-type="line" data-label="" points="316.5252525252526,888.6464646464647 316.5252525252526,898.1818181818181 316.5252525252526,907.7171717171718 316.5252525252526,917.2525252525252 316.5252525252526,926.7878787878788 316.5252525252526,936.3232323232323 316.5252525252526,945.8585858585858 316.5252525252526,955.3939393939394 316.5252525252526,964.9292929292928 316.5252525252526,974.4646464646464 316.5252525252526,984" fill="none" stroke="rgba(0,0,255,0.75)" stroke-width="14.159999999999995"/></g><g><polyline data-points="-4.696969696969697,-5.000000000000001 -4.7979797979797985,-4.898989898989899 -4.898989898989899,-4.7979797979797985 -5.000000000000001,-4.696969696969697 -5.000000000000001,-4.595959595959596 -5.000000000000001,-4.494949494949496 -5.000000000000001,-4.393939393939394 -5.000000000000001,-4.292929292929293 -5.000000000000001,-4.191919191919193 -5.000000000000001,-4.090909090909091 -5.000000000000001,-3.98989898989899 -5.000000000000001,-3.8888888888888884 -5.000000000000001,-3.7878787878787876 -5.000000000000001,-3.6868686868686864 -5.000000000000001,-3.5858585858585856 -5.000000000000001,-3.484848484848485 -5.000000000000001,-3.383838383838383 -5.000000000000001,-3.2828282828282824 -5.000000000000001,-3.1818181818181817 -5.000000000000001,-3.0808080808080804 -5.000000000000001,-2.9797979797979792 -5.000000000000001,-2.8787878787878785 -5.000000000000001,-2.7777777777777777 -5.000000000000001,-2.6767676767676765 -5.000000000000001,-2.5757575757575752 -5.000000000000001,-2.474747474747474 -5.000000000000001,-2.3737373737373733 -5.000000000000001,-2.2727272727272725 -5.000000000000001,-2.1717171717171713 -5.000000000000001,-2.07070707070707 -5.000000000000001,-1.9696969696969693" data-type="line" data-label="" points="68.60606060606068,984 59.07070707070716,974.4646464646464 49.53535353535369,964.9292929292928 40.00000000000006,955.3939393939394 40.00000000000006,945.8585858585858 40.00000000000006,936.3232323232323 40.00000000000006,926.7878787878788 40.00000000000006,917.2525252525252 40.00000000000006,907.7171717171718 40.00000000000006,898.1818181818181 40.00000000000006,888.6464646464647 40.00000000000006,879.1111111111111 40.00000000000006,869.5757575757575 40.00000000000006,860.0404040404039 40.00000000000006,850.5050505050505 40.00000000000006,840.969696969697 40.00000000000006,831.4343434343434 40.00000000000006,821.8989898989898 40.00000000000006,812.3636363636363 40.00000000000006,802.8282828282828 40.00000000000006,793.2929292929292 40.00000000000006,783.7575757575758 40.00000000000006,774.2222222222222 40.00000000000006,764.6868686868687 40.00000000000006,755.1515151515151 40.00000000000006,745.6161616161615 40.00000000000006,736.0808080808081 40.00000000000006,726.5454545454545 40.00000000000006,717.010101010101 40.00000000000006,707.4747474747475 40.00000000000006,697.939393939394" fill="none" stroke="rgba(0,0,255,0.75)" stroke-width="14.159999999999995"/></g><g><polyline data-points="5.000000000000002,-5.000000000000001 5.000000000000002,-4.898989898989899 5.000000000000002,-4.7979797979797985 5.000000000000002,-4.696969696969697 5.000000000000002,-4.595959595959596 5.000000000000002,-4.494949494949496 5.000000000000002,-4.393939393939394 5.000000000000002,-4.292929292929293 4.898989898989901,-4.191919191919193 4.7979797979797985,-4.090909090909091 4.696969696969697,-3.98989898989899 4.595959595959597,-3.8888888888888884 4.494949494949497,-3.7878787878787876 4.393939393939394,-3.6868686868686864 4.292929292929293,-3.5858585858585856 4.191919191919193,-3.484848484848485 4.090909090909092,-3.383838383838383 3.989898989898992,-3.2828282828282824" data-type="line" data-label="" points="984,984 984,974.4646464646464 984,964.9292929292928 984,955.3939393939394 984,945.8585858585858 984,936.3232323232323 984,926.7878787878788 984,917.2525252525252 974.4646464646464,907.7171717171718 964.9292929292927,898.1818181818181 955.3939393939393,888.6464646464647 945.8585858585857,879.1111111111111 936.3232323232323,869.5757575757575 926.7878787878785,860.0404040404039 917.2525252525251,850.5050505050505 907.7171717171716,840.969696969697 898.181818181818,831.4343434343434 888.6464646464647,821.8989898989898" fill="none" stroke="rgba(255,0,0,0.75)" stroke-width="14.159999999999995"/></g><g><polyline data-points="3.989898989898992,-3.2828282828282824 4.090909090909092,-3.1818181818181817 4.191919191919193,-3.0808080808080804 4.292929292929293,-2.9797979797979792 4.393939393939394,-2.8787878787878785 4.494949494949497,-2.7777777777777777 4.595959595959597,-2.6767676767676765 4.696969696969697,-2.5757575757575752 4.7979797979797985,-2.474747474747474 4.898989898989901,-2.474747474747474 5.000000000000002,-2.474747474747474" data-type="line" data-label="" points="888.6464646464647,821.8989898989898 898.181818181818,812.3636363636363 907.7171717171716,802.8282828282828 917.2525252525251,793.2929292929292 926.7878787878785,783.7575757575758 936.3232323232323,774.2222222222222 945.8585858585857,764.6868686868687 955.3939393939393,755.1515151515151 964.9292929292927,745.6161616161615 974.4646464646464,745.6161616161615 984,745.6161616161615" fill="none" stroke="rgba(0,0,255,0.75)" stroke-width="14.159999999999995"/></g><g><polyline data-points="5.000000000000002,0.7575757575757579 5.000000000000002,0.8585858585858596 5.000000000000002,0.9595959595959602 5.000000000000002,1.0606060606060617 5.000000000000002,1.1616161616161622 5.000000000000002,1.262626262626263 5.000000000000002,1.3636363636363644 5.000000000000002,1.4646464646464652 5.000000000000002,1.5656565656565666 5.000000000000002,1.6666666666666674 5.000000000000002,1.767676767676768 5.000000000000002,1.8686868686868696 5.000000000000002,1.9696969696969702 5.000000000000002,2.070707070707072 5.000000000000002,2.1717171717171726 5.000000000000002,2.2727272727272734 5.000000000000002,2.373737373737375 5.000000000000002,2.4747474747474754" data-type="line" data-label="" points="984,440.4848484848486 984,430.94949494949503 984,421.4141414141415 984,411.87878787878793 984,402.3434343434344 984,392.80808080808094 984,383.27272727272737 984,373.73737373737384 984,364.2020202020203 984,354.66666666666674 984,345.1313131313133 984,335.5959595959597 984,326.06060606060623 984,316.5252525252526 984,306.9898989898991 984,297.4545454545456 984,287.91919191919203 984,278.38383838383857" fill="none" stroke="rgba(255,0,0,0.75)" stroke-width="14.159999999999995"/></g><g><polyline data-points="3.383838383838384,-5.000000000000001 3.2828282828282833,-4.898989898989899 3.181818181818183,-4.7979797979797985 3.080808080808082,-4.696969696969697 2.9797979797979806,-4.595959595959596 2.87878787878788,-4.494949494949496 2.7777777777777786,-4.393939393939394 2.676767676767678,-4.292929292929293 2.575757575757577,-4.191919191919193 2.4747474747474754,-4.090909090909091 2.373737373737375,-3.98989898989899 2.2727272727272734,-3.8888888888888884 2.1717171717171726,-3.7878787878787876 2.070707070707072,-3.6868686868686864 1.9696969696969702,-3.5858585858585856 1.8686868686868696,-3.484848484848485 1.767676767676768,-3.383838383838383 1.6666666666666674,-3.2828282828282824 1.5656565656565666,-3.1818181818181817 1.4646464646464652,-3.0808080808080804 1.3636363636363644,-2.9797979797979792 1.262626262626263,-2.8787878787878785 1.1616161616161622,-2.7777777777777777 1.0606060606060617,-2.6767676767676765 0.9595959595959602,-2.5757575757575752 0.9595959595959602,-2.474747474747474 0.9595959595959602,-2.3737373737373733 0.9595959595959602,-2.2727272727272725 0.9595959595959602,-2.1717171717171713 0.9595959595959602,-2.07070707070707 0.9595959595959602,-1.9696969696969693 0.9595959595959602,-1.8686868686868683 0.9595959595959602,-1.7676767676767675 0.9595959595959602,-1.6666666666666665 0.9595959595959602,-1.5656565656565653 0.9595959595959602,-1.4646464646464643 0.9595959595959602,-1.363636363636363 0.9595959595959602,-1.2626262626262625 0.9595959595959602,-1.1616161616161613 0.9595959595959602,-1.0606060606060603 0.9595959595959602,-0.9595959595959596 0.9595959595959602,-0.8585858585858579 0.9595959595959602,-0.7575757575757572 0.9595959595959602,-0.6565656565656557 0.9595959595959602,-0.555555555555555 0.9595959595959602,-0.4545454545454544 0.9595959595959602,-0.35353535353535287 0.9595959595959602,-0.2525252525252522 0.9595959595959602,-0.15151515151515066 0.9595959595959602,-0.05050505050505001 0.9595959595959602,0.050505050505051545 0.9595959595959602,0.1515151515151522 0.9595959595959602,0.2525252525252529 0.9595959595959602,0.3535353535353544 0.9595959595959602,0.4545454545454551 0.9595959595959602,0.5555555555555567 0.9595959595959602,0.6565656565656574 0.9595959595959602,0.7575757575757579 0.9595959595959602,0.8585858585858596 0.9595959595959602,0.9595959595959602 0.9595959595959602,1.0606060606060617 0.9595959595959602,1.1616161616161622 0.9595959595959602,1.262626262626263 0.9595959595959602,1.3636363636363644 0.9595959595959602,1.4646464646464652 0.9595959595959602,1.5656565656565666 0.9595959595959602,1.6666666666666674 0.9595959595959602,1.767676767676768 0.9595959595959602,1.8686868686868696 0.9595959595959602,1.9696969696969702 0.9595959595959602,2.070707070707072 0.9595959595959602,2.1717171717171726 0.9595959595959602,2.2727272727272734 0.9595959595959602,2.373737373737375 0.9595959595959602,2.4747474747474754 0.9595959595959602,2.575757575757577 0.9595959595959602,2.676767676767678 0.9595959595959602,2.7777777777777786 0.9595959595959602,2.87878787878788 0.9595959595959602,2.9797979797979806 0.9595959595959602,3.080808080808082 0.9595959595959602,3.181818181818183 0.9595959595959602,3.2828282828282833 0.9595959595959602,3.383838383838384 0.9595959595959602,3.4848484848484866 0.9595959595959602,3.5858585858585874 0.9595959595959602,3.6868686868686877 0.9595959595959602,3.7878787878787885 0.9595959595959602,3.8888888888888893 0.9595959595959602,3.989898989898992" data-type="line" data-label="" points="831.4343434343433,984 821.8989898989898,974.4646464646464 812.3636363636363,964.9292929292928 802.8282828282828,955.3939393939394 793.2929292929292,945.8585858585858 783.7575757575758,936.3232323232323 774.2222222222222,926.7878787878788 764.6868686868686,917.2525252525252 755.1515151515151,907.7171717171718 745.6161616161615,898.1818181818181 736.0808080808081,888.6464646464647 726.5454545454545,879.1111111111111 717.0101010101009,869.5757575757575 707.4747474747475,860.0404040404039 697.9393939393939,850.5050505050505 688.4040404040404,840.969696969697 678.8686868686868,831.4343434343434 669.3333333333333,821.8989898989898 659.7979797979798,812.3636363636363 650.2626262626262,802.8282828282828 640.7272727272727,793.2929292929292 631.1919191919192,783.7575757575758 621.6565656565656,774.2222222222222 612.1212121212121,764.6868686868687 602.5858585858585,755.1515151515151 602.5858585858585,745.6161616161615 602.5858585858585,736.0808080808081 602.5858585858585,726.5454545454545 602.5858585858585,717.010101010101 602.5858585858585,707.4747474747475 602.5858585858585,697.939393939394 602.5858585858585,688.4040404040404 602.5858585858585,678.8686868686868 602.5858585858585,669.3333333333334 602.5858585858585,659.7979797979798 602.5858585858585,650.2626262626263 602.5858585858585,640.7272727272727 602.5858585858585,631.1919191919193 602.5858585858585,621.6565656565657 602.5858585858585,612.1212121212121 602.5858585858585,602.5858585858587 602.5858585858585,593.0505050505051 602.5858585858585,583.5151515151516 602.5858585858585,573.979797979798 602.5858585858585,564.4444444444445 602.5858585858585,554.909090909091 602.5858585858585,545.3737373737374 602.5858585858585,535.838383838384 602.5858585858585,526.3030303030304 602.5858585858585,516.7676767676768 602.5858585858585,507.23232323232327 602.5858585858585,497.69696969696975 602.5858585858585,488.1616161616163 602.5858585858585,478.6262626262627 602.5858585858585,469.0909090909092 602.5858585858585,459.5555555555556 602.5858585858585,450.0202020202021 602.5858585858585,440.4848484848486 602.5858585858585,430.94949494949503 602.5858585858585,421.4141414141415 602.5858585858585,411.87878787878793 602.5858585858585,402.3434343434344 602.5858585858585,392.80808080808094 602.5858585858585,383.27272727272737 602.5858585858585,373.73737373737384 602.5858585858585,364.2020202020203 602.5858585858585,354.66666666666674 602.5858585858585,345.1313131313133 602.5858585858585,335.5959595959597 602.5858585858585,326.06060606060623 602.5858585858585,316.5252525252526 602.5858585858585,306.9898989898991 602.5858585858585,297.4545454545456 602.5858585858585,287.91919191919203 602.5858585858585,278.38383838383857 602.5858585858585,268.84848484848493 602.5858585858585,259.3131313131314 602.5858585858585,249.77777777777794 602.5858585858585,240.24242424242436 602.5858585858585,230.70707070707084 602.5858585858585,221.17171717171726 602.5858585858585,211.63636363636374 602.5858585858585,202.10101010101027 602.5858585858585,192.56565656565675 602.5858585858585,183.03030303030312 602.5858585858585,173.4949494949496 602.5858585858585,163.95959595959613 602.5858585858585,154.4242424242426 602.5858585858585,144.88888888888908 602.5858585858585,135.35353535353545" fill="none" stroke="rgba(255,0,0,0.75)" stroke-width="14.159999999999995"/></g><g><polyline data-points="0.9595959595959602,3.989898989898992 0.9595959595959602,4.090909090909092 0.9595959595959602,4.191919191919193 0.9595959595959602,4.292929292929293 0.9595959595959602,4.393939393939394 0.9595959595959602,4.494949494949497 0.9595959595959602,4.595959595959597 0.9595959595959602,4.696969696969697 0.9595959595959602,4.7979797979797985 0.9595959595959602,4.898989898989901 0.9595959595959602,5.000000000000002" data-type="line" data-label="" points="602.5858585858585,135.35353535353545 602.5858585858585,125.81818181818198 602.5858585858585,116.28282828282846 602.5858585858585,106.747474747475 602.5858585858585,97.21212121212153 602.5858585858585,87.67676767676778 602.5858585858585,78.14141414141432 602.5858585858585,68.60606060606085 602.5858585858585,59.07070707070733 602.5858585858585,49.53535353535369 602.5858585858585,40.000000000000114" fill="none" stroke="rgba(0,0,255,0.75)" stroke-width="14.159999999999995"/></g><g><rect data-type="rect" data-label="" data-x="0" data-y="0" x="40.000000000000114" y="40.000000000000284" width="943.9999999999997" height="943.9999999999998" fill="none" stroke="gray" stroke-width="0.010593220338983056"/></g><g><rect data-type="rect" data-label="" data-x="0" data-y="0" x="40.000000000000114" y="40.000000000000284" width="943.9999999999997" height="943.9999999999998" fill="none" stroke="rgba(15, 23, 42, 0.8)" stroke-width="0.010593220338983056"/></g><circle data-type="circle" data-label="" data-x="-3.6868686868686864" data-y="-3.98989898989899" cx="163.95959595959607" cy="888.6464646464647" r="28.791999999999987" fill="rgba(0,0,0,0.3)" stroke="black" stroke-width="0.010593220338983056"/><circle data-type="circle" data-label="" data-x="-2.07070707070707" data-y="-3.98989898989899" cx="316.5252525252526" cy="888.6464646464647" r="28.791999999999987" fill="rgba(0,0,0,0.3)" stroke="black" stroke-width="0.010593220338983056"/><circle data-type="circle" data-label="" data-x="3.989898989898992" data-y="-3.2828282828282824" cx="888.6464646464647" cy="821.8989898989898" r="28.791999999999987" fill="rgba(0,0,0,0.3)" stroke="black" stroke-width="0.010593220338983056"/><circle data-type="circle" data-label="" data-x="0.9595959595959602" data-y="3.989898989898992" cx="602.5858585858585" cy="135.35353535353545" r="28.791999999999987" fill="rgba(0,0,0,0.3)" stroke="black" stroke-width="0.010593220338983056"/><g id="crosshair" style="display: none"><line id="crosshair-h" y1="0" y2="1024" stroke="#666" stroke-width="0.5"/><line id="crosshair-v" x1="0" x2="1024" stroke="#666" stroke-width="0.5"/><text id="coordinates" font-family="monospace" font-size="12" fill="#666"></text></g><script><![CDATA[
              document.currentScript.parentElement.addEventListener('mousemove', (e) => {
                const svg = e.currentTarget;
                const rect = svg.getBoundingClientRect();
                const x = e.clientX - rect.left;
                const y = e.clientY - rect.top;
                const crosshair = svg.getElementById('crosshair');
                const h = svg.getElementById('crosshair-h');
                const v = svg.getElementById('crosshair-v');
                const coords = svg.getElementById('coordinates');
                
                crosshair.style.display = 'block';
                h.setAttribute('x1', '0');
                h.setAttribute('x2', '1024');
                h.setAttribute('y1', y);
                h.setAttribute('y2', y);
                v.setAttribute('x1', x);
                v.setAttribute('x2', x);
                v.setAttribute('y1', '0');
                v.setAttribute('y2', '1024');

                // Calculate real coordinates using inverse transformation
                const matrix = {"a":94.39999999999996,"c":0,"e":511.99999999999994,"b":0,"d":-94.39999999999996,"f":512.0000000000001};
                // Manually invert and apply the affine transform
                // Since we only use translate and scale, we can directly compute:
                // x' = (x - tx) / sx
                // y' = (y - ty) / sy
                const sx = matrix.a;
                const sy = matrix.d;
                const tx = matrix.e; 
                const ty = matrix.f;
                const realPoint = {
                  x: (x - tx) / sx,
                  y: (y - ty) / sy // Flip y back since we used negative scale
                }
                
                coords.textContent = `(${realPoint.x.toFixed(2)}, ${realPoint.y.toFixed(2)})`;
                coords.setAttribute('x', (x + 5).toString());
                coords.setAttribute('y', (y - 5).toString());
              });
              document.currentScript.parentElement.addEventListener('mouseleave', () => {
                document.currentScript.parentElement.getElementById('crosshair').style.display = 'none';
              });
            ]]></script></svg>