<svg width="1024" height="1024" viewBox="0 0 1024 1024" xmlns="http://www.w3.org/2000/svg"><rect width="100%" height="100%" fill="white"/><g><circle data-type="point" data-label="conn_000" data-x="-4.12" data-y="5" cx="123.07200000000006" cy="40.000000000000284" r="28.792" fill="red" stroke="#0fa0bd" stroke-width="28.792"/></g><g><circle data-type="point" data-label="conn_000" data-x="0.6" data-y="-5" cx="568.6399999999999" cy="984" r="28.792" fill="blue" stroke="#0fa0bd" stroke-width="28.792"/></g><g><circle data-type="point" data-label="conn_001" data-x="0.3" data-y="5" cx="540.3199999999999" cy="40.000000000000284" r="28.792" fill="red" stroke="#bd0f6d" stroke-width="28.792"/></g><g><circle data-type="point" data-label="conn_001" data-x="-3.7" data-y="-5" cx="162.72000000000008" cy="984" r="28.792" fill="red" stroke="#bd0f6d" stroke-width="28.792"/></g><g><circle data-type="point" data-label="conn_002" data-x="4.32" data-y="5" cx="919.8079999999998" cy="40.000000000000284" r="28.792" fill="blue" stroke="#3bbd0f" stroke-width="28.792"/></g><g><circle data-type="point" data-label="conn_002" data-x="-1.18" data-y="-5" cx="400.608" cy="984" r="28.792" fill="red" stroke="#3bbd0f" stroke-width="28.792"/></g><g><circle data-type="point" data-label="conn_003" data-x="-3.16" data-y="5" cx="213.69600000000003" cy="40.000000000000284" r="28.792" fill="red" stroke="#170fbd" stroke-width="28.792"/></g><g><circle data-type="point" data-label="conn_003" data-x="5" data-y="-4.28" cx="983.9999999999998" cy="916.0319999999999" r="28.792" fill="red" stroke="#170fbd" stroke-width="28.792"/></g><g><circle data-type="point" data-label="conn_004" data-x="1.74" data-y="-5" cx="676.2559999999999" cy="984" r="28.792" fill="blue" stroke="#bd490f" stroke-width="28.792"/></g><g><circle data-type="point" data-label="conn_004" data-x="-0.76" data-y="5" cx="440.256" cy="40.000000000000284" r="28.792" fill="blue" stroke="#bd490f" stroke-width="28.792"/></g><g><polyline data-points="1.767676767676768,-5.000000000000001 1.6666666666666674,-4.898989898989899 1.5656565656565666,-4.7979797979797985 1.4646464646464652,-4.696969696969697 1.3636363636363644,-4.595959595959596 1.262626262626263,-4.494949494949496 1.1616161616161622,-4.393939393939394 1.0606060606060617,-4.292929292929293 0.9595959595959602,-4.191919191919193 0.8585858585858596,-4.090909090909091 0.7575757575757579,-3.98989898989899 0.6565656565656574,-3.8888888888888884 0.5555555555555567,-3.7878787878787876 0.4545454545454551,-3.6868686868686864 0.3535353535353544,-3.5858585858585856 0.2525252525252529,-3.484848484848485 0.1515151515151522,-3.383838383838383 0.050505050505051545,-3.2828282828282824 -0.05050505050505001,-3.1818181818181817 -0.15151515151515066,-3.0808080808080804 -0.2525252525252522,-2.9797979797979792 -0.35353535353535287,-2.8787878787878785 -0.4545454545454544,-2.7777777777777777 -0.555555555555555,-2.6767676767676765 -0.6565656565656557,-2.5757575757575752 -0.7575757575757572,-2.474747474747474 -0.7575757575757572,-2.3737373737373733 -0.7575757575757572,-2.2727272727272725 -0.7575757575757572,-2.1717171717171713 -0.7575757575757572,-2.07070707070707 -0.7575757575757572,-1.9696969696969693 -0.7575757575757572,-1.8686868686868683 -0.7575757575757572,-1.7676767676767675 -0.7575757575757572,-1.6666666666666665 -0.7575757575757572,-1.5656565656565653 -0.7575757575757572,-1.4646464646464643 -0.7575757575757572,-1.363636363636363 -0.7575757575757572,-1.2626262626262625 -0.7575757575757572,-1.1616161616161613 -0.7575757575757572,-1.0606060606060603 -0.7575757575757572,-0.9595959595959596 -0.7575757575757572,-0.8585858585858579 -0.7575757575757572,-0.7575757575757572 -0.7575757575757572,-0.6565656565656557 -0.7575757575757572,-0.555555555555555 -0.7575757575757572,-0.4545454545454544 -0.7575757575757572,-0.35353535353535287 -0.7575757575757572,-0.2525252525252522 -0.7575757575757572,-0.15151515151515066 -0.7575757575757572,-0.05050505050505001 -0.7575757575757572,0.050505050505051545 -0.7575757575757572,0.1515151515151522 -0.7575757575757572,0.2525252525252529 -0.7575757575757572,0.3535353535353544 -0.7575757575757572,0.4545454545454551 -0.7575757575757572,0.5555555555555567 -0.7575757575757572,0.6565656565656574 -0.7575757575757572,0.7575757575757579 -0.7575757575757572,0.8585858585858596 -0.7575757575757572,0.9595959595959602 -0.7575757575757572,1.0606060606060617 -0.7575757575757572,1.1616161616161622 -0.7575757575757572,1.262626262626263 -0.7575757575757572,1.3636363636363644 -0.7575757575757572,1.4646464646464652 -0.7575757575757572,1.5656565656565666 -0.7575757575757572,1.6666666666666674 -0.7575757575757572,1.767676767676768 -0.7575757575757572,1.8686868686868696 -0.7575757575757572,1.9696969696969702 -0.7575757575757572,2.070707070707072 -0.7575757575757572,2.1717171717171726 -0.7575757575757572,2.2727272727272734 -0.7575757575757572,2.373737373737375 -0.7575757575757572,2.4747474747474754 -0.7575757575757572,2.575757575757577 -0.7575757575757572,2.676767676767678 -0.7575757575757572,2.7777777777777786 -0.7575757575757572,2.87878787878788 -0.7575757575757572,2.9797979797979806 -0.7575757575757572,3.080808080808082 -0.7575757575757572,3.181818181818183 -0.7575757575757572,3.2828282828282833 -0.7575757575757572,3.383838383838384 -0.7575757575757572,3.4848484848484866 -0.7575757575757572,3.5858585858585874 -0.7575757575757572,3.6868686868686877 -0.7575757575757572,3.7878787878787885 -0.7575757575757572,3.8888888888888893 -0.7575757575757572,3.989898989898992 -0.7575757575757572,4.090909090909092 -0.7575757575757572,4.191919191919193 -0.7575757575757572,4.292929292929293 -0.7575757575757572,4.393939393939394 -0.7575757575757572,4.494949494949497 -0.7575757575757572,4.595959595959597 -0.7575757575757572,4.696969696969697 -0.7575757575757572,4.7979797979797985 -0.7575757575757572,4.898989898989901 -0.7575757575757572,5.000000000000002" data-type="line" data-label="" points="678.8686868686868,984 669.3333333333333,974.4646464646464 659.7979797979798,964.9292929292928 650.2626262626262,955.3939393939394 640.7272727272727,945.8585858585858 631.1919191919192,936.3232323232323 621.6565656565656,926.7878787878788 612.1212121212121,917.2525252525252 602.5858585858585,907.7171717171718 593.0505050505051,898.1818181818181 583.5151515151515,888.6464646464647 573.9797979797979,879.1111111111111 564.4444444444445,869.5757575757575 554.9090909090909,860.0404040404039 545.3737373737374,850.5050505050505 535.8383838383838,840.969696969697 526.3030303030303,831.4343434343434 516.7676767676768,821.8989898989898 507.2323232323232,812.3636363636363 497.69696969696975,802.8282828282828 488.16161616161617,793.2929292929292 478.62626262626264,783.7575757575758 469.09090909090907,774.2222222222222 459.55555555555554,764.6868686868687 450.0202020202021,755.1515151515151 440.4848484848485,745.6161616161615 440.4848484848485,736.0808080808081 440.4848484848485,726.5454545454545 440.4848484848485,717.010101010101 440.4848484848485,707.4747474747475 440.4848484848485,697.939393939394 440.4848484848485,688.4040404040404 440.4848484848485,678.8686868686868 440.4848484848485,669.3333333333334 440.4848484848485,659.7979797979798 440.4848484848485,650.2626262626263 440.4848484848485,640.7272727272727 440.4848484848485,631.1919191919193 440.4848484848485,621.6565656565657 440.4848484848485,612.1212121212121 440.4848484848485,602.5858585858587 440.4848484848485,593.0505050505051 440.4848484848485,583.5151515151516 440.4848484848485,573.979797979798 440.4848484848485,564.4444444444445 440.4848484848485,554.909090909091 440.4848484848485,545.3737373737374 440.4848484848485,535.838383838384 440.4848484848485,526.3030303030304 440.4848484848485,516.7676767676768 440.4848484848485,507.23232323232327 440.4848484848485,497.69696969696975 440.4848484848485,488.1616161616163 440.4848484848485,478.6262626262627 440.4848484848485,469.0909090909092 440.4848484848485,459.5555555555556 440.4848484848485,450.0202020202021 440.4848484848485,440.4848484848486 440.4848484848485,430.94949494949503 440.4848484848485,421.4141414141415 440.4848484848485,411.87878787878793 440.4848484848485,402.3434343434344 440.4848484848485,392.80808080808094 440.4848484848485,383.27272727272737 440.4848484848485,373.73737373737384 440.4848484848485,364.2020202020203 440.4848484848485,354.66666666666674 440.4848484848485,345.1313131313133 440.4848484848485,335.5959595959597 440.4848484848485,326.06060606060623 440.4848484848485,316.5252525252526 440.4848484848485,306.9898989898991 440.4848484848485,297.4545454545456 440.4848484848485,287.91919191919203 440.4848484848485,278.38383838383857 440.4848484848485,268.84848484848493 440.4848484848485,259.3131313131314 440.4848484848485,249.77777777777794 440.4848484848485,240.24242424242436 440.4848484848485,230.70707070707084 440.4848484848485,221.17171717171726 440.4848484848485,211.63636363636374 440.4848484848485,202.10101010101027 440.4848484848485,192.56565656565675 440.4848484848485,183.03030303030312 440.4848484848485,173.4949494949496 440.4848484848485,163.95959595959613 440.4848484848485,154.4242424242426 440.4848484848485,144.88888888888908 440.4848484848485,135.35353535353545 440.4848484848485,125.81818181818198 440.4848484848485,116.28282828282846 440.4848484848485,106.747474747475 440.4848484848485,97.21212121212153 440.4848484848485,87.67676767676778 440.4848484848485,78.14141414141432 440.4848484848485,68.60606060606085 440.4848484848485,59.07070707070733 440.4848484848485,49.53535353535369 440.4848484848485,40.000000000000114" fill="none" stroke="rgba(0,0,255,0.75)" stroke-width="14.159999999999995"/></g><g><polyline data-points="4.393939393939394,5.000000000000002 4.292929292929293,4.898989898989901 4.191919191919193,4.7979797979797985 4.090909090909092,4.696969696969697 3.989898989898992,4.595959595959597 3.8888888888888893,4.494949494949497 3.7878787878787885,4.393939393939394 3.6868686868686877,4.292929292929293 3.5858585858585874,4.191919191919193 3.4848484848484866,4.090909090909092 3.383838383838384,3.989898989898992 3.2828282828282833,3.8888888888888893 3.181818181818183,3.7878787878787885 3.080808080808082,3.6868686868686877 2.9797979797979806,3.5858585858585874 2.87878787878788,3.4848484848484866 2.7777777777777786,3.383838383838384 2.676767676767678,3.2828282828282833 2.575757575757577,3.181818181818183 2.4747474747474754,3.080808080808082 2.373737373737375,2.9797979797979806 2.2727272727272734,2.87878787878788 2.1717171717171726,2.7777777777777786 2.070707070707072,2.676767676767678 1.9696969696969702,2.575757575757577 1.8686868686868696,2.4747474747474754 1.767676767676768,2.373737373737375 1.6666666666666674,2.2727272727272734 1.5656565656565666,2.1717171717171726 1.4646464646464652,2.070707070707072 1.3636363636363644,1.9696969696969702 1.262626262626263,1.8686868686868696 1.1616161616161622,1.767676767676768 1.0606060606060617,1.6666666666666674 0.9595959595959602,1.5656565656565666 0.8585858585858596,1.4646464646464652 0.7575757575757579,1.3636363636363644 0.6565656565656574,1.262626262626263 0.5555555555555567,1.1616161616161622 0.4545454545454551,1.0606060606060617 0.3535353535353544,0.9595959595959602 0.2525252525252529,0.8585858585858596 0.1515151515151522,0.7575757575757579 0.050505050505051545,0.6565656565656574 -0.05050505050505001,0.5555555555555567 -0.15151515151515066,0.4545454545454551 -0.15151515151515066,0.3535353535353544 -0.15151515151515066,0.2525252525252529 -0.15151515151515066,0.1515151515151522 -0.15151515151515066,0.050505050505051545 -0.15151515151515066,-0.05050505050505001 -0.15151515151515066,-0.15151515151515066 -0.15151515151515066,-0.2525252525252522 -0.15151515151515066,-0.35353535353535287 -0.15151515151515066,-0.4545454545454544 -0.15151515151515066,-0.555555555555555 -0.15151515151515066,-0.6565656565656557 -0.15151515151515066,-0.7575757575757572 -0.15151515151515066,-0.8585858585858579 -0.15151515151515066,-0.9595959595959596 -0.15151515151515066,-1.0606060606060603 -0.15151515151515066,-1.1616161616161613 -0.15151515151515066,-1.2626262626262625 -0.15151515151515066,-1.363636363636363 -0.15151515151515066,-1.4646464646464643 -0.15151515151515066,-1.5656565656565653 -0.15151515151515066,-1.6666666666666665 -0.15151515151515066,-1.7676767676767675 -0.15151515151515066,-1.8686868686868683 -0.15151515151515066,-1.9696969696969693 -0.15151515151515066,-2.07070707070707 -0.15151515151515066,-2.1717171717171713 -0.15151515151515066,-2.2727272727272725" data-type="line" data-label="" points="926.7878787878785,40.000000000000114 917.2525252525251,49.53535353535369 907.7171717171716,59.07070707070733 898.181818181818,68.60606060606085 888.6464646464647,78.14141414141432 879.111111111111,87.67676767676778 869.5757575757575,97.21212121212153 860.0404040404039,106.747474747475 850.5050505050505,116.28282828282846 840.969696969697,125.81818181818198 831.4343434343433,135.35353535353545 821.8989898989898,144.88888888888908 812.3636363636363,154.4242424242426 802.8282828282828,163.95959595959613 793.2929292929292,173.4949494949496 783.7575757575758,183.03030303030312 774.2222222222222,192.56565656565675 764.6868686868686,202.10101010101027 755.1515151515151,211.63636363636374 745.6161616161615,221.17171717171726 736.0808080808081,230.70707070707084 726.5454545454545,240.24242424242436 717.0101010101009,249.77777777777794 707.4747474747475,259.3131313131314 697.9393939393939,268.84848484848493 688.4040404040404,278.38383838383857 678.8686868686868,287.91919191919203 669.3333333333333,297.4545454545456 659.7979797979798,306.9898989898991 650.2626262626262,316.5252525252526 640.7272727272727,326.06060606060623 631.1919191919192,335.5959595959597 621.6565656565656,345.1313131313133 612.1212121212121,354.66666666666674 602.5858585858585,364.2020202020203 593.0505050505051,373.73737373737384 583.5151515151515,383.27272727272737 573.9797979797979,392.80808080808094 564.4444444444445,402.3434343434344 554.9090909090909,411.87878787878793 545.3737373737374,421.4141414141415 535.8383838383838,430.94949494949503 526.3030303030303,440.4848484848486 516.7676767676768,450.0202020202021 507.2323232323232,459.5555555555556 497.69696969696975,469.0909090909092 497.69696969696975,478.6262626262627 497.69696969696975,488.1616161616163 497.69696969696975,497.69696969696975 497.69696969696975,507.23232323232327 497.69696969696975,516.7676767676768 497.69696969696975,526.3030303030304 497.69696969696975,535.838383838384 497.69696969696975,545.3737373737374 497.69696969696975,554.909090909091 497.69696969696975,564.4444444444445 497.69696969696975,573.979797979798 497.69696969696975,583.5151515151516 497.69696969696975,593.0505050505051 497.69696969696975,602.5858585858587 497.69696969696975,612.1212121212121 497.69696969696975,621.6565656565657 497.69696969696975,631.1919191919193 497.69696969696975,640.7272727272727 497.69696969696975,650.2626262626263 497.69696969696975,659.7979797979798 497.69696969696975,669.3333333333334 497.69696969696975,678.8686868686868 497.69696969696975,688.4040404040404 497.69696969696975,697.939393939394 497.69696969696975,707.4747474747475 497.69696969696975,717.010101010101 497.69696969696975,726.5454545454545" fill="none" stroke="rgba(0,0,255,0.75)" stroke-width="14.159999999999995"/></g><g><polyline data-points="-0.15151515151515066,-2.2727272727272725 -0.2525252525252522,-2.3737373737373733 -0.35353535353535287,-2.474747474747474 -0.4545454545454544,-2.5757575757575752 -0.555555555555555,-2.6767676767676765 -0.6565656565656557,-2.7777777777777777 -0.7575757575757572,-2.8787878787878785 -0.8585858585858579,-2.9797979797979792 -0.9595959595959596,-3.0808080808080804 -1.0606060606060603,-3.1818181818181817 -1.1616161616161613,-3.2828282828282824 -1.1616161616161613,-3.383838383838383 -1.1616161616161613,-3.484848484848485 -1.1616161616161613,-3.5858585858585856 -1.1616161616161613,-3.6868686868686864 -1.1616161616161613,-3.7878787878787876 -1.1616161616161613,-3.8888888888888884 -1.1616161616161613,-3.98989898989899 -1.1616161616161613,-4.090909090909091 -1.1616161616161613,-4.191919191919193 -1.1616161616161613,-4.292929292929293 -1.1616161616161613,-4.393939393939394 -1.1616161616161613,-4.494949494949496 -1.1616161616161613,-4.595959595959596 -1.1616161616161613,-4.696969696969697 -1.1616161616161613,-4.7979797979797985 -1.1616161616161613,-4.898989898989899 -1.1616161616161613,-5.000000000000001" data-type="line" data-label="" points="497.69696969696975,726.5454545454545 488.16161616161617,736.0808080808081 478.62626262626264,745.6161616161615 469.09090909090907,755.1515151515151 459.55555555555554,764.6868686868687 450.0202020202021,774.2222222222222 440.4848484848485,783.7575757575758 430.949494949495,793.2929292929292 421.4141414141414,802.8282828282828 411.8787878787879,812.3636363636363 402.34343434343435,821.8989898989898 402.34343434343435,831.4343434343434 402.34343434343435,840.969696969697 402.34343434343435,850.5050505050505 402.34343434343435,860.0404040404039 402.34343434343435,869.5757575757575 402.34343434343435,879.1111111111111 402.34343434343435,888.6464646464647 402.34343434343435,898.1818181818181 402.34343434343435,907.7171717171718 402.34343434343435,917.2525252525252 402.34343434343435,926.7878787878788 402.34343434343435,936.3232323232323 402.34343434343435,945.8585858585858 402.34343434343435,955.3939393939394 402.34343434343435,964.9292929292928 402.34343434343435,974.4646464646464 402.34343434343435,984" fill="none" stroke="rgba(255,0,0,0.75)" stroke-width="14.159999999999995"/></g><g><polyline data-points="0.2525252525252529,5.000000000000002 0.1515151515151522,4.898989898989901 0.050505050505051545,4.7979797979797985 -0.05050505050505001,4.696969696969697 -0.15151515151515066,4.595959595959597 -0.2525252525252522,4.494949494949497 -0.35353535353535287,4.393939393939394 -0.4545454545454544,4.292929292929293 -0.555555555555555,4.191919191919193 -0.6565656565656557,4.090909090909092 -0.7575757575757572,3.989898989898992 -0.8585858585858579,3.8888888888888893 -0.9595959595959596,3.7878787878787885 -1.0606060606060603,3.6868686868686877 -1.1616161616161613,3.5858585858585874 -1.2626262626262625,3.4848484848484866 -1.363636363636363,3.383838383838384 -1.4646464646464643,3.2828282828282833 -1.5656565656565653,3.181818181818183 -1.6666666666666665,3.080808080808082 -1.7676767676767675,2.9797979797979806 -1.8686868686868683,2.87878787878788 -1.9696969696969693,2.7777777777777786 -2.07070707070707,2.676767676767678 -2.1717171717171713,2.575757575757577 -2.2727272727272725,2.4747474747474754 -2.3737373737373733,2.373737373737375 -2.474747474747474,2.2727272727272734 -2.5757575757575752,2.1717171717171726 -2.6767676767676765,2.070707070707072 -2.7777777777777777,1.9696969696969702 -2.8787878787878785,1.8686868686868696 -2.9797979797979792,1.767676767676768 -3.0808080808080804,1.6666666666666674 -3.1818181818181817,1.5656565656565666 -3.2828282828282824,1.4646464646464652 -3.383838383838383,1.3636363636363644 -3.484848484848485,1.262626262626263 -3.5858585858585856,1.1616161616161622 -3.6868686868686864,1.0606060606060617 -3.7878787878787876,0.9595959595959602 -3.7878787878787876,0.8585858585858596 -3.7878787878787876,0.7575757575757579 -3.7878787878787876,0.6565656565656574 -3.7878787878787876,0.5555555555555567 -3.7878787878787876,0.4545454545454551 -3.7878787878787876,0.3535353535353544 -3.7878787878787876,0.2525252525252529 -3.7878787878787876,0.1515151515151522 -3.7878787878787876,0.050505050505051545 -3.7878787878787876,-0.05050505050505001 -3.7878787878787876,-0.15151515151515066 -3.7878787878787876,-0.2525252525252522 -3.7878787878787876,-0.35353535353535287 -3.7878787878787876,-0.4545454545454544 -3.7878787878787876,-0.555555555555555 -3.7878787878787876,-0.6565656565656557 -3.7878787878787876,-0.7575757575757572 -3.7878787878787876,-0.8585858585858579 -3.7878787878787876,-0.9595959595959596 -3.7878787878787876,-1.0606060606060603 -3.7878787878787876,-1.1616161616161613 -3.7878787878787876,-1.2626262626262625 -3.7878787878787876,-1.363636363636363 -3.7878787878787876,-1.4646464646464643 -3.7878787878787876,-1.5656565656565653 -3.7878787878787876,-1.6666666666666665 -3.7878787878787876,-1.7676767676767675 -3.7878787878787876,-1.8686868686868683 -3.7878787878787876,-1.9696969696969693 -3.7878787878787876,-2.07070707070707 -3.7878787878787876,-2.1717171717171713 -3.7878787878787876,-2.2727272727272725 -3.7878787878787876,-2.3737373737373733 -3.7878787878787876,-2.474747474747474 -3.7878787878787876,-2.5757575757575752 -3.7878787878787876,-2.6767676767676765 -3.7878787878787876,-2.7777777777777777 -3.7878787878787876,-2.8787878787878785 -3.7878787878787876,-2.9797979797979792 -3.7878787878787876,-3.0808080808080804 -3.7878787878787876,-3.1818181818181817 -3.7878787878787876,-3.2828282828282824 -3.7878787878787876,-3.383838383838383 -3.7878787878787876,-3.484848484848485 -3.7878787878787876,-3.5858585858585856 -3.7878787878787876,-3.6868686868686864 -3.7878787878787876,-3.7878787878787876 -3.7878787878787876,-3.8888888888888884 -3.7878787878787876,-3.98989898989899 -3.7878787878787876,-4.090909090909091 -3.7878787878787876,-4.191919191919193 -3.7878787878787876,-4.292929292929293 -3.7878787878787876,-4.393939393939394 -3.7878787878787876,-4.494949494949496 -3.7878787878787876,-4.595959595959596 -3.7878787878787876,-4.696969696969697 -3.7878787878787876,-4.7979797979797985 -3.7878787878787876,-4.898989898989899 -3.7878787878787876,-5.000000000000001" data-type="line" data-label="" points="535.8383838383838,40.000000000000114 526.3030303030303,49.53535353535369 516.7676767676768,59.07070707070733 507.2323232323232,68.60606060606085 497.69696969696975,78.14141414141432 488.16161616161617,87.67676767676778 478.62626262626264,97.21212121212153 469.09090909090907,106.747474747475 459.55555555555554,116.28282828282846 450.0202020202021,125.81818181818198 440.4848484848485,135.35353535353545 430.949494949495,144.88888888888908 421.4141414141414,154.4242424242426 411.8787878787879,163.95959595959613 402.34343434343435,173.4949494949496 392.80808080808083,183.03030303030312 383.2727272727273,192.56565656565675 373.7373737373738,202.10101010101027 364.2020202020202,211.63636363636374 354.6666666666667,221.17171717171726 345.13131313131316,230.70707070707084 335.59595959595964,240.24242424242436 326.0606060606061,249.77777777777794 316.5252525252526,259.3131313131314 306.9898989898991,268.84848484848493 297.4545454545455,278.38383838383857 287.91919191919203,287.91919191919203 278.38383838383845,297.4545454545456 268.84848484848493,306.9898989898991 259.3131313131314,316.5252525252526 249.77777777777783,326.06060606060623 240.2424242424243,335.5959595959597 230.70707070707084,345.1313131313133 221.17171717171726,354.66666666666674 211.63636363636374,364.2020202020203 202.10101010101022,373.73737373737384 192.5656565656567,383.27272727272737 183.03030303030312,392.80808080808094 173.4949494949496,402.3434343434344 163.95959595959607,411.87878787878793 154.42424242424255,421.4141414141415 154.42424242424255,430.94949494949503 154.42424242424255,440.4848484848486 154.42424242424255,450.0202020202021 154.42424242424255,459.5555555555556 154.42424242424255,469.0909090909092 154.42424242424255,478.6262626262627 154.42424242424255,488.1616161616163 154.42424242424255,497.69696969696975 154.42424242424255,507.23232323232327 154.42424242424255,516.7676767676768 154.42424242424255,526.3030303030304 154.42424242424255,535.838383838384 154.42424242424255,545.3737373737374 154.42424242424255,554.909090909091 154.42424242424255,564.4444444444445 154.42424242424255,573.979797979798 154.42424242424255,583.5151515151516 154.42424242424255,593.0505050505051 154.42424242424255,602.5858585858587 154.42424242424255,612.1212121212121 154.42424242424255,621.6565656565657 154.42424242424255,631.1919191919193 154.42424242424255,640.7272727272727 154.42424242424255,650.2626262626263 154.42424242424255,659.7979797979798 154.42424242424255,669.3333333333334 154.42424242424255,678.8686868686868 154.42424242424255,688.4040404040404 154.42424242424255,697.939393939394 154.42424242424255,707.4747474747475 154.42424242424255,717.010101010101 154.42424242424255,726.5454545454545 154.42424242424255,736.0808080808081 154.42424242424255,745.6161616161615 154.42424242424255,755.1515151515151 154.42424242424255,764.6868686868687 154.42424242424255,774.2222222222222 154.42424242424255,783.7575757575758 154.42424242424255,793.2929292929292 154.42424242424255,802.8282828282828 154.42424242424255,812.3636363636363 154.42424242424255,821.8989898989898 154.42424242424255,831.4343434343434 154.42424242424255,840.969696969697 154.42424242424255,850.5050505050505 154.42424242424255,860.0404040404039 154.42424242424255,869.5757575757575 154.42424242424255,879.1111111111111 154.42424242424255,888.6464646464647 154.42424242424255,898.1818181818181 154.42424242424255,907.7171717171718 154.42424242424255,917.2525252525252 154.42424242424255,926.7878787878788 154.42424242424255,936.3232323232323 154.42424242424255,945.8585858585858 154.42424242424255,955.3939393939394 154.42424242424255,964.9292929292928 154.42424242424255,974.4646464646464 154.42424242424255,984" fill="none" stroke="rgba(255,0,0,0.75)" stroke-width="14.159999999999995"/></g><g><polyline data-points="-3.1818181818181817,5.000000000000002 -3.0808080808080804,4.898989898989901 -2.9797979797979792,4.7979797979797985 -2.8787878787878785,4.696969696969697 -2.7777777777777777,4.595959595959597 -2.6767676767676765,4.494949494949497 -2.5757575757575752,4.393939393939394 -2.474747474747474,4.292929292929293 -2.3737373737373733,4.191919191919193 -2.2727272727272725,4.090909090909092 -2.1717171717171713,3.989898989898992 -2.07070707070707,3.8888888888888893 -1.9696969696969693,3.7878787878787885 -1.8686868686868683,3.6868686868686877" data-type="line" data-label="" points="211.63636363636374,40.000000000000114 221.17171717171726,49.53535353535369 230.70707070707084,59.07070707070733 240.2424242424243,68.60606060606085 249.77777777777783,78.14141414141432 259.3131313131314,87.67676767676778 268.84848484848493,97.21212121212153 278.38383838383845,106.747474747475 287.91919191919203,116.28282828282846 297.4545454545455,125.81818181818198 306.9898989898991,135.35353535353545 316.5252525252526,144.88888888888908 326.0606060606061,154.4242424242426 335.59595959595964,163.95959595959613" fill="none" stroke="rgba(255,0,0,0.75)" stroke-width="14.159999999999995"/></g><g><polyline data-points="-1.8686868686868683,3.6868686868686877 -1.7676767676767675,3.5858585858585874 -1.6666666666666665,3.4848484848484866 -1.5656565656565653,3.383838383838384 -1.4646464646464643,3.2828282828282833 -1.363636363636363,3.181818181818183 -1.2626262626262625,3.080808080808082 -1.1616161616161613,2.9797979797979806 -1.0606060606060603,2.87878787878788 -0.9595959595959596,2.7777777777777786 -0.9595959595959596,2.676767676767678 -0.9595959595959596,2.575757575757577 -0.9595959595959596,2.4747474747474754 -0.9595959595959596,2.373737373737375 -0.9595959595959596,2.2727272727272734 -0.9595959595959596,2.1717171717171726 -0.9595959595959596,2.070707070707072 -0.9595959595959596,1.9696969696969702 -0.9595959595959596,1.8686868686868696 -0.9595959595959596,1.767676767676768 -0.9595959595959596,1.6666666666666674 -0.9595959595959596,1.5656565656565666 -0.9595959595959596,1.4646464646464652 -0.9595959595959596,1.3636363636363644 -0.9595959595959596,1.262626262626263 -0.9595959595959596,1.1616161616161622 -0.9595959595959596,1.0606060606060617 -0.9595959595959596,0.9595959595959602 -0.9595959595959596,0.8585858585858596 -0.9595959595959596,0.7575757575757579 -0.9595959595959596,0.6565656565656574 -0.9595959595959596,0.5555555555555567 -0.9595959595959596,0.4545454545454551 -0.9595959595959596,0.3535353535353544 -0.9595959595959596,0.2525252525252529 -0.9595959595959596,0.1515151515151522 -0.9595959595959596,0.050505050505051545 -0.9595959595959596,-0.05050505050505001 -0.9595959595959596,-0.15151515151515066 -0.9595959595959596,-0.2525252525252522 -0.9595959595959596,-0.35353535353535287 -0.9595959595959596,-0.4545454545454544 -0.9595959595959596,-0.555555555555555 -0.9595959595959596,-0.6565656565656557 -0.9595959595959596,-0.7575757575757572 -0.9595959595959596,-0.8585858585858579 -0.9595959595959596,-0.9595959595959596 -0.9595959595959596,-1.0606060606060603 -0.9595959595959596,-1.1616161616161613 -0.9595959595959596,-1.2626262626262625 -0.9595959595959596,-1.363636363636363 -0.9595959595959596,-1.4646464646464643 -0.9595959595959596,-1.5656565656565653 -0.9595959595959596,-1.6666666666666665 -0.9595959595959596,-1.7676767676767675 -0.9595959595959596,-1.8686868686868683 -0.9595959595959596,-1.9696969696969693 -0.9595959595959596,-2.07070707070707 -0.9595959595959596,-2.1717171717171713 -0.9595959595959596,-2.2727272727272725 -0.9595959595959596,-2.3737373737373733 -0.9595959595959596,-2.474747474747474 -0.9595959595959596,-2.5757575757575752 -0.8585858585858579,-2.6767676767676765 -0.7575757575757572,-2.7777777777777777 -0.6565656565656557,-2.8787878787878785 -0.555555555555555,-2.9797979797979792 -0.4545454545454544,-3.0808080808080804 -0.35353535353535287,-3.1818181818181817 -0.2525252525252522,-3.2828282828282824 -0.15151515151515066,-3.383838383838383 -0.05050505050505001,-3.484848484848485 -0.05050505050505001,-3.5858585858585856 -0.05050505050505001,-3.6868686868686864 -0.05050505050505001,-3.7878787878787876 -0.05050505050505001,-3.8888888888888884 -0.05050505050505001,-3.98989898989899" data-type="line" data-label="" points="335.59595959595964,163.95959595959613 345.13131313131316,173.4949494949496 354.6666666666667,183.03030303030312 364.2020202020202,192.56565656565675 373.7373737373738,202.10101010101027 383.2727272727273,211.63636363636374 392.80808080808083,221.17171717171726 402.34343434343435,230.70707070707084 411.8787878787879,240.24242424242436 421.4141414141414,249.77777777777794 421.4141414141414,259.3131313131314 421.4141414141414,268.84848484848493 421.4141414141414,278.38383838383857 421.4141414141414,287.91919191919203 421.4141414141414,297.4545454545456 421.4141414141414,306.9898989898991 421.4141414141414,316.5252525252526 421.4141414141414,326.06060606060623 421.4141414141414,335.5959595959597 421.4141414141414,345.1313131313133 421.4141414141414,354.66666666666674 421.4141414141414,364.2020202020203 421.4141414141414,373.73737373737384 421.4141414141414,383.27272727272737 421.4141414141414,392.80808080808094 421.4141414141414,402.3434343434344 421.4141414141414,411.87878787878793 421.4141414141414,421.4141414141415 421.4141414141414,430.94949494949503 421.4141414141414,440.4848484848486 421.4141414141414,450.0202020202021 421.4141414141414,459.5555555555556 421.4141414141414,469.0909090909092 421.4141414141414,478.6262626262627 421.4141414141414,488.1616161616163 421.4141414141414,497.69696969696975 421.4141414141414,507.23232323232327 421.4141414141414,516.7676767676768 421.4141414141414,526.3030303030304 421.4141414141414,535.838383838384 421.4141414141414,545.3737373737374 421.4141414141414,554.909090909091 421.4141414141414,564.4444444444445 421.4141414141414,573.979797979798 421.4141414141414,583.5151515151516 421.4141414141414,593.0505050505051 421.4141414141414,602.5858585858587 421.4141414141414,612.1212121212121 421.4141414141414,621.6565656565657 421.4141414141414,631.1919191919193 421.4141414141414,640.7272727272727 421.4141414141414,650.2626262626263 421.4141414141414,659.7979797979798 421.4141414141414,669.3333333333334 421.4141414141414,678.8686868686868 421.4141414141414,688.4040404040404 421.4141414141414,697.939393939394 421.4141414141414,707.4747474747475 421.4141414141414,717.010101010101 421.4141414141414,726.5454545454545 421.4141414141414,736.0808080808081 421.4141414141414,745.6161616161615 421.4141414141414,755.1515151515151 430.949494949495,764.6868686868687 440.4848484848485,774.2222222222222 450.0202020202021,783.7575757575758 459.55555555555554,793.2929292929292 469.09090909090907,802.8282828282828 478.62626262626264,812.3636363636363 488.16161616161617,821.8989898989898 497.69696969696975,831.4343434343434 507.2323232323232,840.969696969697 507.2323232323232,850.5050505050505 507.2323232323232,860.0404040404039 507.2323232323232,869.5757575757575 507.2323232323232,879.1111111111111 507.2323232323232,888.6464646464647" fill="none" stroke="rgba(0,0,255,0.75)" stroke-width="14.159999999999995"/></g><g><polyline data-points="-0.05050505050505001,-3.98989898989899 0.050505050505051545,-4.090909090909091 0.1515151515151522,-4.191919191919193 0.2525252525252529,-4.292929292929293 0.3535353535353544,-4.292929292929293 0.4545454545454551,-4.292929292929293 0.5555555555555567,-4.292929292929293 0.6565656565656574,-4.292929292929293 0.7575757575757579,-4.292929292929293 0.8585858585858596,-4.292929292929293 0.9595959595959602,-4.292929292929293 1.0606060606060617,-4.292929292929293 1.1616161616161622,-4.292929292929293 1.262626262626263,-4.292929292929293 1.3636363636363644,-4.292929292929293 1.4646464646464652,-4.292929292929293 1.5656565656565666,-4.292929292929293 1.6666666666666674,-4.292929292929293 1.767676767676768,-4.292929292929293 1.8686868686868696,-4.292929292929293 1.9696969696969702,-4.292929292929293 2.070707070707072,-4.292929292929293 2.1717171717171726,-4.292929292929293 2.2727272727272734,-4.292929292929293 2.373737373737375,-4.292929292929293 2.4747474747474754,-4.292929292929293 2.575757575757577,-4.292929292929293 2.676767676767678,-4.292929292929293 2.7777777777777786,-4.292929292929293 2.87878787878788,-4.292929292929293 2.9797979797979806,-4.292929292929293 3.080808080808082,-4.292929292929293 3.181818181818183,-4.292929292929293 3.2828282828282833,-4.292929292929293 3.383838383838384,-4.292929292929293 3.4848484848484866,-4.292929292929293 3.5858585858585874,-4.292929292929293 3.6868686868686877,-4.292929292929293 3.7878787878787885,-4.292929292929293 3.8888888888888893,-4.292929292929293 3.989898989898992,-4.292929292929293 4.090909090909092,-4.292929292929293 4.191919191919193,-4.292929292929293 4.292929292929293,-4.292929292929293 4.393939393939394,-4.292929292929293 4.494949494949497,-4.292929292929293 4.595959595959597,-4.292929292929293 4.696969696969697,-4.292929292929293 4.7979797979797985,-4.292929292929293 4.898989898989901,-4.292929292929293 5.000000000000002,-4.292929292929293" data-type="line" data-label="" points="507.2323232323232,888.6464646464647 516.7676767676768,898.1818181818181 526.3030303030303,907.7171717171718 535.8383838383838,917.2525252525252 545.3737373737374,917.2525252525252 554.9090909090909,917.2525252525252 564.4444444444445,917.2525252525252 573.9797979797979,917.2525252525252 583.5151515151515,917.2525252525252 593.0505050505051,917.2525252525252 602.5858585858585,917.2525252525252 612.1212121212121,917.2525252525252 621.6565656565656,917.2525252525252 631.1919191919192,917.2525252525252 640.7272727272727,917.2525252525252 650.2626262626262,917.2525252525252 659.7979797979798,917.2525252525252 669.3333333333333,917.2525252525252 678.8686868686868,917.2525252525252 688.4040404040404,917.2525252525252 697.9393939393939,917.2525252525252 707.4747474747475,917.2525252525252 717.0101010101009,917.2525252525252 726.5454545454545,917.2525252525252 736.0808080808081,917.2525252525252 745.6161616161615,917.2525252525252 755.1515151515151,917.2525252525252 764.6868686868686,917.2525252525252 774.2222222222222,917.2525252525252 783.7575757575758,917.2525252525252 793.2929292929292,917.2525252525252 802.8282828282828,917.2525252525252 812.3636363636363,917.2525252525252 821.8989898989898,917.2525252525252 831.4343434343433,917.2525252525252 840.969696969697,917.2525252525252 850.5050505050505,917.2525252525252 860.0404040404039,917.2525252525252 869.5757575757575,917.2525252525252 879.111111111111,917.2525252525252 888.6464646464647,917.2525252525252 898.181818181818,917.2525252525252 907.7171717171716,917.2525252525252 917.2525252525251,917.2525252525252 926.7878787878785,917.2525252525252 936.3232323232323,917.2525252525252 945.8585858585857,917.2525252525252 955.3939393939393,917.2525252525252 964.9292929292927,917.2525252525252 974.4646464646464,917.2525252525252 984,917.2525252525252" fill="none" stroke="rgba(255,0,0,0.75)" stroke-width="14.159999999999995"/></g><g><polyline data-points="-4.191919191919193,5.000000000000002 -4.090909090909091,4.898989898989901 -3.98989898989899,4.7979797979797985 -3.8888888888888884,4.696969696969697 -3.7878787878787876,4.595959595959597 -3.6868686868686864,4.494949494949497 -3.5858585858585856,4.393939393939394 -3.484848484848485,4.292929292929293 -3.383838383838383,4.191919191919193 -3.2828282828282824,4.090909090909092 -3.1818181818181817,3.989898989898992 -3.0808080808080804,3.8888888888888893 -2.9797979797979792,3.7878787878787885 -2.8787878787878785,3.6868686868686877 -2.7777777777777777,3.5858585858585874 -2.6767676767676765,3.4848484848484866 -2.5757575757575752,3.383838383838384 -2.474747474747474,3.2828282828282833 -2.474747474747474,3.181818181818183 -2.474747474747474,3.080808080808082" data-type="line" data-label="" points="116.28282828282829,40.000000000000114 125.81818181818193,49.53535353535369 135.35353535353545,59.07070707070733 144.88888888888903,68.60606060606085 154.42424242424255,78.14141414141432 163.95959595959607,87.67676767676778 173.4949494949496,97.21212121212153 183.03030303030312,106.747474747475 192.5656565656567,116.28282828282846 202.10101010101022,125.81818181818198 211.63636363636374,135.35353535353545 221.17171717171726,144.88888888888908 230.70707070707084,154.4242424242426 240.2424242424243,163.95959595959613 249.77777777777783,173.4949494949496 259.3131313131314,183.03030303030312 268.84848484848493,192.56565656565675 278.38383838383845,202.10101010101027 278.38383838383845,211.63636363636374 278.38383838383845,221.17171717171726" fill="none" stroke="rgba(255,0,0,0.75)" stroke-width="14.159999999999995"/></g><g><polyline data-points="-2.474747474747474,3.080808080808082 -2.3737373737373733,2.9797979797979806 -2.2727272727272725,2.87878787878788 -2.1717171717171713,2.7777777777777786 -2.07070707070707,2.676767676767678 -1.9696969696969693,2.575757575757577 -1.8686868686868683,2.4747474747474754 -1.7676767676767675,2.373737373737375 -1.6666666666666665,2.2727272727272734 -1.5656565656565653,2.1717171717171726 -1.4646464646464643,2.070707070707072 -1.363636363636363,1.9696969696969702 -1.2626262626262625,1.8686868686868696 -1.1616161616161613,1.767676767676768 -1.1616161616161613,1.6666666666666674 -1.1616161616161613,1.5656565656565666 -1.1616161616161613,1.4646464646464652 -1.1616161616161613,1.3636363636363644 -1.1616161616161613,1.262626262626263 -1.1616161616161613,1.1616161616161622 -1.1616161616161613,1.0606060606060617 -1.1616161616161613,0.9595959595959602 -1.1616161616161613,0.8585858585858596 -1.1616161616161613,0.7575757575757579 -1.1616161616161613,0.6565656565656574 -1.1616161616161613,0.5555555555555567 -1.1616161616161613,0.4545454545454551 -1.1616161616161613,0.3535353535353544 -1.1616161616161613,0.2525252525252529 -1.1616161616161613,0.1515151515151522 -1.1616161616161613,0.050505050505051545 -1.1616161616161613,-0.05050505050505001 -1.1616161616161613,-0.15151515151515066 -1.1616161616161613,-0.2525252525252522 -1.1616161616161613,-0.35353535353535287 -1.1616161616161613,-0.4545454545454544 -1.1616161616161613,-0.555555555555555 -1.1616161616161613,-0.6565656565656557 -1.1616161616161613,-0.7575757575757572 -1.1616161616161613,-0.8585858585858579 -1.1616161616161613,-0.9595959595959596 -1.1616161616161613,-1.0606060606060603 -1.1616161616161613,-1.1616161616161613 -1.1616161616161613,-1.2626262626262625 -1.1616161616161613,-1.363636363636363 -1.1616161616161613,-1.4646464646464643 -1.1616161616161613,-1.5656565656565653 -1.1616161616161613,-1.6666666666666665 -1.1616161616161613,-1.7676767676767675 -1.1616161616161613,-1.8686868686868683 -1.1616161616161613,-1.9696969696969693 -1.1616161616161613,-2.07070707070707 -1.1616161616161613,-2.1717171717171713 -1.1616161616161613,-2.2727272727272725 -1.1616161616161613,-2.3737373737373733 -1.1616161616161613,-2.474747474747474 -1.1616161616161613,-2.5757575757575752 -1.1616161616161613,-2.6767676767676765 -1.0606060606060603,-2.7777777777777777 -0.9595959595959596,-2.8787878787878785 -0.8585858585858579,-2.9797979797979792 -0.7575757575757572,-3.0808080808080804 -0.6565656565656557,-3.1818181818181817 -0.555555555555555,-3.2828282828282824 -0.555555555555555,-3.383838383838383 -0.555555555555555,-3.484848484848485 -0.555555555555555,-3.5858585858585856 -0.555555555555555,-3.6868686868686864 -0.555555555555555,-3.7878787878787876 -0.555555555555555,-3.8888888888888884 -0.555555555555555,-3.98989898989899 -0.4545454545454544,-4.090909090909091 -0.4545454545454544,-4.191919191919193 -0.35353535353535287,-4.292929292929293 -0.2525252525252522,-4.393939393939394 -0.15151515151515066,-4.494949494949496 -0.05050505050505001,-4.595959595959596 0.050505050505051545,-4.696969696969697 0.1515151515151522,-4.7979797979797985 0.2525252525252529,-4.898989898989899 0.3535353535353544,-5.000000000000001 0.4545454545454551,-5.000000000000001 0.5555555555555567,-5.000000000000001" data-type="line" data-label="" points="278.38383838383845,221.17171717171726 287.91919191919203,230.70707070707084 297.4545454545455,240.24242424242436 306.9898989898991,249.77777777777794 316.5252525252526,259.3131313131314 326.0606060606061,268.84848484848493 335.59595959595964,278.38383838383857 345.13131313131316,287.91919191919203 354.6666666666667,297.4545454545456 364.2020202020202,306.9898989898991 373.7373737373738,316.5252525252526 383.2727272727273,326.06060606060623 392.80808080808083,335.5959595959597 402.34343434343435,345.1313131313133 402.34343434343435,354.66666666666674 402.34343434343435,364.2020202020203 402.34343434343435,373.73737373737384 402.34343434343435,383.27272727272737 402.34343434343435,392.80808080808094 402.34343434343435,402.3434343434344 402.34343434343435,411.87878787878793 402.34343434343435,421.4141414141415 402.34343434343435,430.94949494949503 402.34343434343435,440.4848484848486 402.34343434343435,450.0202020202021 402.34343434343435,459.5555555555556 402.34343434343435,469.0909090909092 402.34343434343435,478.6262626262627 402.34343434343435,488.1616161616163 402.34343434343435,497.69696969696975 402.34343434343435,507.23232323232327 402.34343434343435,516.7676767676768 402.34343434343435,526.3030303030304 402.34343434343435,535.838383838384 402.34343434343435,545.3737373737374 402.34343434343435,554.909090909091 402.34343434343435,564.4444444444445 402.34343434343435,573.979797979798 402.34343434343435,583.5151515151516 402.34343434343435,593.0505050505051 402.34343434343435,602.5858585858587 402.34343434343435,612.1212121212121 402.34343434343435,621.6565656565657 402.34343434343435,631.1919191919193 402.34343434343435,640.7272727272727 402.34343434343435,650.2626262626263 402.34343434343435,659.7979797979798 402.34343434343435,669.3333333333334 402.34343434343435,678.8686868686868 402.34343434343435,688.4040404040404 402.34343434343435,697.939393939394 402.34343434343435,707.4747474747475 402.34343434343435,717.010101010101 402.34343434343435,726.5454545454545 402.34343434343435,736.0808080808081 402.34343434343435,745.6161616161615 402.34343434343435,755.1515151515151 402.34343434343435,764.6868686868687 411.8787878787879,774.2222222222222 421.4141414141414,783.7575757575758 430.949494949495,793.2929292929292 440.4848484848485,802.8282828282828 450.0202020202021,812.3636363636363 459.55555555555554,821.8989898989898 459.55555555555554,831.4343434343434 459.55555555555554,840.969696969697 459.55555555555554,850.5050505050505 459.55555555555554,860.0404040404039 459.55555555555554,869.5757575757575 459.55555555555554,879.1111111111111 459.55555555555554,888.6464646464647 469.09090909090907,898.1818181818181 469.09090909090907,907.7171717171718 478.62626262626264,917.2525252525252 488.16161616161617,926.7878787878788 497.69696969696975,936.3232323232323 507.2323232323232,945.8585858585858 516.7676767676768,955.3939393939394 526.3030303030303,964.9292929292928 535.8383838383838,974.4646464646464 545.3737373737374,984 554.9090909090909,984 564.4444444444445,984" fill="none" stroke="rgba(0,0,255,0.75)" stroke-width="14.159999999999995"/></g><g><rect data-type="rect" data-label="" data-x="0" data-y="0" x="40.000000000000114" y="40.000000000000284" width="943.9999999999997" height="943.9999999999998" fill="none" stroke="gray" stroke-width="0.010593220338983056"/></g><g><rect data-type="rect" data-label="" data-x="0" data-y="0" x="40.000000000000114" y="40.000000000000284" width="943.9999999999997" height="943.9999999999998" fill="none" stroke="rgba(15, 23, 42, 0.8)" stroke-width="0.010593220338983056"/></g><circle data-type="circle" data-label="" data-x="-0.15151515151515066" data-y="-2.2727272727272725" cx="497.69696969696975" cy="726.5454545454545" r="28.791999999999987" fill="rgba(0,0,0,0.3)" stroke="black" stroke-width="0.010593220338983056"/><circle data-type="circle" data-label="" data-x="-1.8686868686868683" data-y="3.6868686868686877" cx="335.59595959595964" cy="163.95959595959613" r="28.791999999999987" fill="rgba(0,0,0,0.3)" stroke="black" stroke-width="0.010593220338983056"/><circle data-type="circle" data-label="" data-x="-0.05050505050505001" data-y="-3.98989898989899" cx="507.2323232323232" cy="888.6464646464647" r="28.791999999999987" fill="rgba(0,0,0,0.3)" stroke="black" stroke-width="0.010593220338983056"/><circle data-type="circle" data-label="" data-x="-2.474747474747474" data-y="3.080808080808082" cx="278.38383838383845" cy="221.17171717171726" r="28.791999999999987" fill="rgba(0,0,0,0.3)" stroke="black" stroke-width="0.010593220338983056"/><g id="crosshair" style="display: none"><line id="crosshair-h" y1="0" y2="1024" stroke="#666" stroke-width="0.5"/><line id="crosshair-v" x1="0" x2="1024" stroke="#666" stroke-width="0.5"/><text id="coordinates" font-family="monospace" font-size="12" fill="#666"></text></g><script><![CDATA[
              document.currentScript.parentElement.addEventListener('mousemove', (e) => {
                const svg = e.currentTarget;
                const rect = svg.getBoundingClientRect();
                const x = e.clientX - rect.left;
                const y = e.clientY - rect.top;
                const crosshair = svg.getElementById('crosshair');
                const h = svg.getElementById('crosshair-h');
                const v = svg.getElementById('crosshair-v');
                const coords = svg.getElementById('coordinates');
                
                crosshair.style.display = 'block';
                h.setAttribute('x1', '0');
                h.setAttribute('x2', '1024');
                h.setAttribute('y1', y);
                h.setAttribute('y2', y);
                v.setAttribute('x1', x);
                v.setAttribute('x2', x);
                v.setAttribute('y1', '0');
                v.setAttribute('y2', '1024');

                // Calculate real coordinates using inverse transformation
                const matrix = {"a":94.39999999999996,"c":0,"e":511.99999999999994,"b":0,"d":-94.39999999999996,"f":512.0000000000001};
                // Manually invert and apply the affine transform
                // Since we only use translate and scale, we can directly compute:
                // x' = (x - tx) / sx
                // y' = (y - ty) / sy
                const sx = matrix.a;
                const sy = matrix.d;
                const tx = matrix.e; 
                const ty = matrix.f;
                const realPoint = {
                  x: (x - tx) / sx,
                  y: (y - ty) / sy // Flip y back since we used negative scale
                }
                
                coords.textContent = `(${realPoint.x.toFixed(2)}, ${realPoint.y.toFixed(2)})`;
                coords.setAttribute('x', (x + 5).toString());
                coords.setAttribute('y', (y - 5).toString());
              });
              document.currentScript.parentElement.addEventListener('mouseleave', () => {
                document.currentScript.parentElement.getElementById('crosshair').style.display = 'none';
              });
            ]]></script></svg>