<svg width="1024" height="1024" viewBox="0 0 1024 1024" xmlns="http://www.w3.org/2000/svg"><rect width="100%" height="100%" fill="white"/><g><circle data-type="point" data-label="conn_000" data-x="5" data-y="3.62" cx="983.9999999999998" cy="170.27200000000022" r="28.792" fill="blue" stroke="#0fa0bd" stroke-width="28.792"/></g><g><circle data-type="point" data-label="conn_000" data-x="-4.18" data-y="5" cx="117.40800000000013" cy="40.000000000000284" r="28.792" fill="red" stroke="#0fa0bd" stroke-width="28.792"/></g><g><circle data-type="point" data-label="conn_001" data-x="-5" data-y="4.44" cx="40.000000000000114" cy="92.86400000000026" r="28.792" fill="blue" stroke="#bd0f6d" stroke-width="28.792"/></g><g><circle data-type="point" data-label="conn_001" data-x="5" data-y="4.58" cx="983.9999999999998" cy="79.64800000000025" r="28.792" fill="blue" stroke="#bd0f6d" stroke-width="28.792"/></g><g><circle data-type="point" data-label="conn_002" data-x="-3.02" data-y="5" cx="226.91200000000003" cy="40.000000000000284" r="28.792" fill="blue" stroke="#3bbd0f" stroke-width="28.792"/></g><g><circle data-type="point" data-label="conn_002" data-x="-3.66" data-y="-5" cx="166.49600000000004" cy="984" r="28.792" fill="blue" stroke="#3bbd0f" stroke-width="28.792"/></g><g><circle data-type="point" data-label="conn_003" data-x="5" data-y="0.6" cx="983.9999999999998" cy="455.3600000000001" r="28.792" fill="red" stroke="#170fbd" stroke-width="28.792"/></g><g><circle data-type="point" data-label="conn_003" data-x="-5" data-y="-2.6" cx="40.000000000000114" cy="757.44" r="28.792" fill="red" stroke="#170fbd" stroke-width="28.792"/></g><g><circle data-type="point" data-label="conn_004" data-x="2.96" data-y="-5" cx="791.4239999999998" cy="984" r="28.792" fill="red" stroke="#bd490f" stroke-width="28.792"/></g><g><circle data-type="point" data-label="conn_004" data-x="2.82" data-y="5" cx="778.2079999999999" cy="40.000000000000284" r="28.792" fill="red" stroke="#bd490f" stroke-width="28.792"/></g><g><circle data-type="point" data-label="conn_005" data-x="-5" data-y="2.06" cx="40.000000000000114" cy="317.5360000000002" r="28.792" fill="red" stroke="#0fbd7c" stroke-width="28.792"/></g><g><circle data-type="point" data-label="conn_005" data-x="5" data-y="-0.52" cx="983.9999999999998" cy="561.0880000000001" r="28.792" fill="red" stroke="#0fbd7c" stroke-width="28.792"/></g><g><polyline data-points="-5.000000000000001,2.070707070707072 -4.898989898989899,1.9696969696969702 -4.7979797979797985,1.8686868686868696 -4.696969696969697,1.767676767676768 -4.595959595959596,1.6666666666666674 -4.494949494949496,1.5656565656565666 -4.393939393939394,1.4646464646464652 -4.292929292929293,1.3636363636363644 -4.191919191919193,1.262626262626263 -4.090909090909091,1.1616161616161622 -3.98989898989899,1.0606060606060617 -3.8888888888888884,0.9595959595959602 -3.7878787878787876,0.8585858585858596 -3.6868686868686864,0.7575757575757579 -3.5858585858585856,0.6565656565656574 -3.484848484848485,0.5555555555555567 -3.383838383838383,0.4545454545454551 -3.2828282828282824,0.3535353535353544 -3.1818181818181817,0.2525252525252529 -3.0808080808080804,0.1515151515151522 -2.9797979797979792,0.050505050505051545 -2.8787878787878785,-0.05050505050505001 -2.7777777777777777,-0.15151515151515066 -2.6767676767676765,-0.2525252525252522 -2.5757575757575752,-0.35353535353535287 -2.474747474747474,-0.4545454545454544 -2.3737373737373733,-0.555555555555555 -2.2727272727272725,-0.555555555555555 -2.1717171717171713,-0.555555555555555 -2.07070707070707,-0.555555555555555 -1.9696969696969693,-0.555555555555555 -1.8686868686868683,-0.555555555555555 -1.7676767676767675,-0.555555555555555 -1.6666666666666665,-0.555555555555555 -1.5656565656565653,-0.555555555555555 -1.4646464646464643,-0.555555555555555 -1.363636363636363,-0.555555555555555 -1.2626262626262625,-0.555555555555555 -1.1616161616161613,-0.555555555555555 -1.0606060606060603,-0.555555555555555 -0.9595959595959596,-0.555555555555555 -0.8585858585858579,-0.555555555555555 -0.7575757575757572,-0.555555555555555 -0.6565656565656557,-0.555555555555555 -0.555555555555555,-0.555555555555555 -0.4545454545454544,-0.555555555555555 -0.35353535353535287,-0.555555555555555 -0.2525252525252522,-0.555555555555555 -0.15151515151515066,-0.555555555555555 -0.05050505050505001,-0.555555555555555 0.050505050505051545,-0.555555555555555 0.1515151515151522,-0.555555555555555 0.2525252525252529,-0.555555555555555 0.3535353535353544,-0.555555555555555 0.4545454545454551,-0.555555555555555 0.5555555555555567,-0.555555555555555 0.6565656565656574,-0.555555555555555 0.7575757575757579,-0.555555555555555 0.8585858585858596,-0.555555555555555 0.9595959595959602,-0.555555555555555 1.0606060606060617,-0.555555555555555 1.1616161616161622,-0.555555555555555 1.262626262626263,-0.555555555555555 1.3636363636363644,-0.555555555555555 1.4646464646464652,-0.555555555555555 1.5656565656565666,-0.555555555555555 1.6666666666666674,-0.555555555555555 1.767676767676768,-0.555555555555555 1.8686868686868696,-0.555555555555555 1.9696969696969702,-0.555555555555555 2.070707070707072,-0.555555555555555 2.1717171717171726,-0.555555555555555 2.2727272727272734,-0.555555555555555 2.373737373737375,-0.555555555555555 2.4747474747474754,-0.555555555555555 2.575757575757577,-0.555555555555555 2.676767676767678,-0.555555555555555 2.7777777777777786,-0.555555555555555 2.87878787878788,-0.555555555555555 2.9797979797979806,-0.555555555555555 3.080808080808082,-0.555555555555555 3.181818181818183,-0.555555555555555 3.2828282828282833,-0.555555555555555 3.383838383838384,-0.555555555555555 3.4848484848484866,-0.555555555555555 3.5858585858585874,-0.555555555555555 3.6868686868686877,-0.555555555555555 3.7878787878787885,-0.555555555555555 3.8888888888888893,-0.555555555555555 3.989898989898992,-0.555555555555555 4.090909090909092,-0.555555555555555 4.191919191919193,-0.555555555555555 4.292929292929293,-0.555555555555555 4.393939393939394,-0.555555555555555 4.494949494949497,-0.555555555555555 4.595959595959597,-0.555555555555555 4.696969696969697,-0.555555555555555 4.7979797979797985,-0.555555555555555 4.898989898989901,-0.555555555555555 5.000000000000002,-0.555555555555555" data-type="line" data-label="" points="40.00000000000006,316.5252525252526 49.53535353535369,326.06060606060623 59.07070707070716,335.5959595959597 68.60606060606068,345.1313131313133 78.14141414141426,354.66666666666674 87.67676767676772,364.2020202020203 97.21212121212136,373.73737373737384 106.74747474747483,383.27272727272737 116.28282828282829,392.80808080808094 125.81818181818193,402.3434343434344 135.35353535353545,411.87878787878793 144.88888888888903,421.4141414141415 154.42424242424255,430.94949494949503 163.95959595959607,440.4848484848486 173.4949494949496,450.0202020202021 183.03030303030312,459.5555555555556 192.5656565656567,469.0909090909092 202.10101010101022,478.6262626262627 211.63636363636374,488.1616161616163 221.17171717171726,497.69696969696975 230.70707070707084,507.23232323232327 240.2424242424243,516.7676767676768 249.77777777777783,526.3030303030304 259.3131313131314,535.838383838384 268.84848484848493,545.3737373737374 278.38383838383845,554.909090909091 287.91919191919203,564.4444444444445 297.4545454545455,564.4444444444445 306.9898989898991,564.4444444444445 316.5252525252526,564.4444444444445 326.0606060606061,564.4444444444445 335.59595959595964,564.4444444444445 345.13131313131316,564.4444444444445 354.6666666666667,564.4444444444445 364.2020202020202,564.4444444444445 373.7373737373738,564.4444444444445 383.2727272727273,564.4444444444445 392.80808080808083,564.4444444444445 402.34343434343435,564.4444444444445 411.8787878787879,564.4444444444445 421.4141414141414,564.4444444444445 430.949494949495,564.4444444444445 440.4848484848485,564.4444444444445 450.0202020202021,564.4444444444445 459.55555555555554,564.4444444444445 469.09090909090907,564.4444444444445 478.62626262626264,564.4444444444445 488.16161616161617,564.4444444444445 497.69696969696975,564.4444444444445 507.2323232323232,564.4444444444445 516.7676767676768,564.4444444444445 526.3030303030303,564.4444444444445 535.8383838383838,564.4444444444445 545.3737373737374,564.4444444444445 554.9090909090909,564.4444444444445 564.4444444444445,564.4444444444445 573.9797979797979,564.4444444444445 583.5151515151515,564.4444444444445 593.0505050505051,564.4444444444445 602.5858585858585,564.4444444444445 612.1212121212121,564.4444444444445 621.6565656565656,564.4444444444445 631.1919191919192,564.4444444444445 640.7272727272727,564.4444444444445 650.2626262626262,564.4444444444445 659.7979797979798,564.4444444444445 669.3333333333333,564.4444444444445 678.8686868686868,564.4444444444445 688.4040404040404,564.4444444444445 697.9393939393939,564.4444444444445 707.4747474747475,564.4444444444445 717.0101010101009,564.4444444444445 726.5454545454545,564.4444444444445 736.0808080808081,564.4444444444445 745.6161616161615,564.4444444444445 755.1515151515151,564.4444444444445 764.6868686868686,564.4444444444445 774.2222222222222,564.4444444444445 783.7575757575758,564.4444444444445 793.2929292929292,564.4444444444445 802.8282828282828,564.4444444444445 812.3636363636363,564.4444444444445 821.8989898989898,564.4444444444445 831.4343434343433,564.4444444444445 840.969696969697,564.4444444444445 850.5050505050505,564.4444444444445 860.0404040404039,564.4444444444445 869.5757575757575,564.4444444444445 879.111111111111,564.4444444444445 888.6464646464647,564.4444444444445 898.181818181818,564.4444444444445 907.7171717171716,564.4444444444445 917.2525252525251,564.4444444444445 926.7878787878785,564.4444444444445 936.3232323232323,564.4444444444445 945.8585858585857,564.4444444444445 955.3939393939393,564.4444444444445 964.9292929292927,564.4444444444445 974.4646464646464,564.4444444444445 984,564.4444444444445" fill="none" stroke="rgba(255,0,0,0.75)" stroke-width="14.159999999999995"/></g><g><polyline data-points="5.000000000000002,0.5555555555555567 4.898989898989901,0.4545454545454551 4.7979797979797985,0.3535353535353544 4.696969696969697,0.2525252525252529 4.595959595959597,0.1515151515151522 4.494949494949497,0.050505050505051545 4.393939393939394,0.050505050505051545 4.292929292929293,0.050505050505051545 4.191919191919193,0.050505050505051545 4.090909090909092,0.050505050505051545 3.989898989898992,0.050505050505051545 3.8888888888888893,0.050505050505051545 3.7878787878787885,0.050505050505051545 3.6868686868686877,0.050505050505051545 3.5858585858585874,0.050505050505051545 3.4848484848484866,0.050505050505051545 3.383838383838384,0.050505050505051545 3.2828282828282833,0.050505050505051545 3.181818181818183,0.050505050505051545 3.080808080808082,0.050505050505051545 2.9797979797979806,0.050505050505051545 2.87878787878788,0.050505050505051545 2.7777777777777786,0.050505050505051545 2.676767676767678,0.050505050505051545 2.575757575757577,0.050505050505051545 2.4747474747474754,0.050505050505051545 2.373737373737375,0.050505050505051545 2.2727272727272734,0.050505050505051545 2.1717171717171726,0.050505050505051545 2.070707070707072,0.050505050505051545 1.9696969696969702,0.050505050505051545 1.8686868686868696,0.050505050505051545 1.767676767676768,0.050505050505051545 1.6666666666666674,0.050505050505051545 1.5656565656565666,0.050505050505051545 1.4646464646464652,0.050505050505051545 1.3636363636363644,0.050505050505051545 1.262626262626263,0.050505050505051545 1.1616161616161622,0.050505050505051545 1.0606060606060617,0.050505050505051545 0.9595959595959602,0.050505050505051545 0.8585858585858596,0.050505050505051545 0.7575757575757579,0.050505050505051545 0.6565656565656574,0.050505050505051545 0.5555555555555567,0.050505050505051545 0.4545454545454551,0.050505050505051545 0.3535353535353544,0.050505050505051545 0.2525252525252529,0.050505050505051545 0.1515151515151522,0.050505050505051545 0.050505050505051545,0.050505050505051545 -0.05050505050505001,0.050505050505051545 -0.15151515151515066,0.050505050505051545 -0.2525252525252522,0.050505050505051545 -0.35353535353535287,0.050505050505051545 -0.4545454545454544,0.050505050505051545 -0.555555555555555,0.050505050505051545 -0.6565656565656557,0.050505050505051545 -0.7575757575757572,0.050505050505051545 -0.8585858585858579,0.050505050505051545 -0.9595959595959596,0.050505050505051545 -1.0606060606060603,0.050505050505051545 -1.1616161616161613,0.050505050505051545 -1.2626262626262625,0.050505050505051545 -1.363636363636363,0.050505050505051545 -1.4646464646464643,0.050505050505051545 -1.5656565656565653,0.050505050505051545 -1.6666666666666665,0.050505050505051545 -1.7676767676767675,0.050505050505051545 -1.8686868686868683,0.050505050505051545 -1.9696969696969693,0.050505050505051545" data-type="line" data-label="" points="984,459.5555555555556 974.4646464646464,469.0909090909092 964.9292929292927,478.6262626262627 955.3939393939393,488.1616161616163 945.8585858585857,497.69696969696975 936.3232323232323,507.23232323232327 926.7878787878785,507.23232323232327 917.2525252525251,507.23232323232327 907.7171717171716,507.23232323232327 898.181818181818,507.23232323232327 888.6464646464647,507.23232323232327 879.111111111111,507.23232323232327 869.5757575757575,507.23232323232327 860.0404040404039,507.23232323232327 850.5050505050505,507.23232323232327 840.969696969697,507.23232323232327 831.4343434343433,507.23232323232327 821.8989898989898,507.23232323232327 812.3636363636363,507.23232323232327 802.8282828282828,507.23232323232327 793.2929292929292,507.23232323232327 783.7575757575758,507.23232323232327 774.2222222222222,507.23232323232327 764.6868686868686,507.23232323232327 755.1515151515151,507.23232323232327 745.6161616161615,507.23232323232327 736.0808080808081,507.23232323232327 726.5454545454545,507.23232323232327 717.0101010101009,507.23232323232327 707.4747474747475,507.23232323232327 697.9393939393939,507.23232323232327 688.4040404040404,507.23232323232327 678.8686868686868,507.23232323232327 669.3333333333333,507.23232323232327 659.7979797979798,507.23232323232327 650.2626262626262,507.23232323232327 640.7272727272727,507.23232323232327 631.1919191919192,507.23232323232327 621.6565656565656,507.23232323232327 612.1212121212121,507.23232323232327 602.5858585858585,507.23232323232327 593.0505050505051,507.23232323232327 583.5151515151515,507.23232323232327 573.9797979797979,507.23232323232327 564.4444444444445,507.23232323232327 554.9090909090909,507.23232323232327 545.3737373737374,507.23232323232327 535.8383838383838,507.23232323232327 526.3030303030303,507.23232323232327 516.7676767676768,507.23232323232327 507.2323232323232,507.23232323232327 497.69696969696975,507.23232323232327 488.16161616161617,507.23232323232327 478.62626262626264,507.23232323232327 469.09090909090907,507.23232323232327 459.55555555555554,507.23232323232327 450.0202020202021,507.23232323232327 440.4848484848485,507.23232323232327 430.949494949495,507.23232323232327 421.4141414141414,507.23232323232327 411.8787878787879,507.23232323232327 402.34343434343435,507.23232323232327 392.80808080808083,507.23232323232327 383.2727272727273,507.23232323232327 373.7373737373738,507.23232323232327 364.2020202020202,507.23232323232327 354.6666666666667,507.23232323232327 345.13131313131316,507.23232323232327 335.59595959595964,507.23232323232327 326.0606060606061,507.23232323232327" fill="none" stroke="rgba(255,0,0,0.75)" stroke-width="14.159999999999995"/></g><g><polyline data-points="-1.9696969696969693,0.050505050505051545 -2.07070707070707,-0.05050505050505001 -2.1717171717171713,-0.15151515151515066 -2.2727272727272725,-0.2525252525252522 -2.3737373737373733,-0.35353535353535287 -2.474747474747474,-0.4545454545454544 -2.5757575757575752,-0.555555555555555 -2.6767676767676765,-0.6565656565656557 -2.7777777777777777,-0.7575757575757572 -2.8787878787878785,-0.8585858585858579 -2.9797979797979792,-0.9595959595959596 -3.0808080808080804,-1.0606060606060603 -3.0808080808080804,-1.1616161616161613 -3.0808080808080804,-1.2626262626262625 -3.0808080808080804,-1.363636363636363 -3.0808080808080804,-1.4646464646464643 -3.0808080808080804,-1.5656565656565653 -3.0808080808080804,-1.6666666666666665 -3.0808080808080804,-1.7676767676767675 -3.0808080808080804,-1.8686868686868683 -3.0808080808080804,-1.9696969696969693 -3.0808080808080804,-2.07070707070707 -3.0808080808080804,-2.1717171717171713 -3.0808080808080804,-2.2727272727272725 -3.0808080808080804,-2.3737373737373733" data-type="line" data-label="" points="326.0606060606061,507.23232323232327 316.5252525252526,516.7676767676768 306.9898989898991,526.3030303030304 297.4545454545455,535.838383838384 287.91919191919203,545.3737373737374 278.38383838383845,554.909090909091 268.84848484848493,564.4444444444445 259.3131313131314,573.979797979798 249.77777777777783,583.5151515151516 240.2424242424243,593.0505050505051 230.70707070707084,602.5858585858587 221.17171717171726,612.1212121212121 221.17171717171726,621.6565656565657 221.17171717171726,631.1919191919193 221.17171717171726,640.7272727272727 221.17171717171726,650.2626262626263 221.17171717171726,659.7979797979798 221.17171717171726,669.3333333333334 221.17171717171726,678.8686868686868 221.17171717171726,688.4040404040404 221.17171717171726,697.939393939394 221.17171717171726,707.4747474747475 221.17171717171726,717.010101010101 221.17171717171726,726.5454545454545 221.17171717171726,736.0808080808081" fill="none" stroke="rgba(0,0,255,0.75)" stroke-width="14.159999999999995"/></g><g><polyline data-points="-3.0808080808080804,-2.3737373737373733 -3.1818181818181817,-2.474747474747474 -3.2828282828282824,-2.5757575757575752 -3.383838383838383,-2.6767676767676765 -3.484848484848485,-2.6767676767676765 -3.5858585858585856,-2.6767676767676765 -3.6868686868686864,-2.6767676767676765 -3.7878787878787876,-2.6767676767676765 -3.8888888888888884,-2.6767676767676765 -3.98989898989899,-2.6767676767676765 -4.090909090909091,-2.6767676767676765 -4.191919191919193,-2.6767676767676765 -4.292929292929293,-2.6767676767676765 -4.393939393939394,-2.6767676767676765 -4.494949494949496,-2.6767676767676765 -4.595959595959596,-2.6767676767676765 -4.696969696969697,-2.6767676767676765 -4.7979797979797985,-2.6767676767676765 -4.898989898989899,-2.6767676767676765 -5.000000000000001,-2.6767676767676765" data-type="line" data-label="" points="221.17171717171726,736.0808080808081 211.63636363636374,745.6161616161615 202.10101010101022,755.1515151515151 192.5656565656567,764.6868686868687 183.03030303030312,764.6868686868687 173.4949494949496,764.6868686868687 163.95959595959607,764.6868686868687 154.42424242424255,764.6868686868687 144.88888888888903,764.6868686868687 135.35353535353545,764.6868686868687 125.81818181818193,764.6868686868687 116.28282828282829,764.6868686868687 106.74747474747483,764.6868686868687 97.21212121212136,764.6868686868687 87.67676767676772,764.6868686868687 78.14141414141426,764.6868686868687 68.60606060606068,764.6868686868687 59.07070707070716,764.6868686868687 49.53535353535369,764.6868686868687 40.00000000000006,764.6868686868687" fill="none" stroke="rgba(255,0,0,0.75)" stroke-width="14.159999999999995"/></g><g><polyline data-points="2.9797979797979806,-5.000000000000001 2.87878787878788,-4.898989898989899 2.87878787878788,-4.7979797979797985 2.87878787878788,-4.696969696969697 2.87878787878788,-4.595959595959596 2.87878787878788,-4.494949494949496 2.87878787878788,-4.393939393939394 2.87878787878788,-4.292929292929293 2.87878787878788,-4.191919191919193 2.87878787878788,-4.090909090909091 2.87878787878788,-3.98989898989899 2.87878787878788,-3.8888888888888884 2.87878787878788,-3.7878787878787876 2.87878787878788,-3.6868686868686864 2.87878787878788,-3.5858585858585856 2.87878787878788,-3.484848484848485 2.87878787878788,-3.383838383838383 2.87878787878788,-3.2828282828282824 2.87878787878788,-3.1818181818181817 2.87878787878788,-3.0808080808080804 2.87878787878788,-2.9797979797979792 2.87878787878788,-2.8787878787878785 2.87878787878788,-2.7777777777777777 2.87878787878788,-2.6767676767676765 2.87878787878788,-2.5757575757575752 2.87878787878788,-2.474747474747474 2.87878787878788,-2.3737373737373733 2.87878787878788,-2.2727272727272725 2.87878787878788,-2.1717171717171713 2.87878787878788,-2.07070707070707 2.87878787878788,-1.9696969696969693 2.87878787878788,-1.8686868686868683 2.87878787878788,-1.7676767676767675 2.87878787878788,-1.6666666666666665 2.87878787878788,-1.5656565656565653 2.87878787878788,-1.4646464646464643 2.87878787878788,-1.363636363636363 2.87878787878788,-1.2626262626262625 2.87878787878788,-1.1616161616161613" data-type="line" data-label="" points="793.2929292929292,984 783.7575757575758,974.4646464646464 783.7575757575758,964.9292929292928 783.7575757575758,955.3939393939394 783.7575757575758,945.8585858585858 783.7575757575758,936.3232323232323 783.7575757575758,926.7878787878788 783.7575757575758,917.2525252525252 783.7575757575758,907.7171717171718 783.7575757575758,898.1818181818181 783.7575757575758,888.6464646464647 783.7575757575758,879.1111111111111 783.7575757575758,869.5757575757575 783.7575757575758,860.0404040404039 783.7575757575758,850.5050505050505 783.7575757575758,840.969696969697 783.7575757575758,831.4343434343434 783.7575757575758,821.8989898989898 783.7575757575758,812.3636363636363 783.7575757575758,802.8282828282828 783.7575757575758,793.2929292929292 783.7575757575758,783.7575757575758 783.7575757575758,774.2222222222222 783.7575757575758,764.6868686868687 783.7575757575758,755.1515151515151 783.7575757575758,745.6161616161615 783.7575757575758,736.0808080808081 783.7575757575758,726.5454545454545 783.7575757575758,717.010101010101 783.7575757575758,707.4747474747475 783.7575757575758,697.939393939394 783.7575757575758,688.4040404040404 783.7575757575758,678.8686868686868 783.7575757575758,669.3333333333334 783.7575757575758,659.7979797979798 783.7575757575758,650.2626262626263 783.7575757575758,640.7272727272727 783.7575757575758,631.1919191919193 783.7575757575758,621.6565656565657" fill="none" stroke="rgba(255,0,0,0.75)" stroke-width="14.159999999999995"/></g><g><polyline data-points="2.87878787878788,-1.1616161616161613 2.87878787878788,-1.0606060606060603 2.87878787878788,-0.9595959595959596 2.87878787878788,-0.8585858585858579 2.87878787878788,-0.7575757575757572 2.87878787878788,-0.6565656565656557 2.87878787878788,-0.555555555555555 2.87878787878788,-0.4545454545454544 2.87878787878788,-0.35353535353535287 2.87878787878788,-0.2525252525252522 2.87878787878788,-0.15151515151515066 2.87878787878788,-0.05050505050505001 2.87878787878788,0.050505050505051545 2.87878787878788,0.1515151515151522 2.87878787878788,0.2525252525252529 2.87878787878788,0.3535353535353544 2.87878787878788,0.4545454545454551 2.87878787878788,0.5555555555555567 2.87878787878788,0.6565656565656574 2.87878787878788,0.7575757575757579 2.87878787878788,0.8585858585858596 2.87878787878788,0.9595959595959602 2.87878787878788,1.0606060606060617 2.87878787878788,1.1616161616161622 2.87878787878788,1.262626262626263 2.87878787878788,1.3636363636363644 2.87878787878788,1.4646464646464652 2.87878787878788,1.5656565656565666 2.87878787878788,1.6666666666666674 2.87878787878788,1.767676767676768 2.87878787878788,1.8686868686868696 2.87878787878788,1.9696969696969702 2.87878787878788,2.070707070707072 2.87878787878788,2.1717171717171726 2.87878787878788,2.2727272727272734 2.87878787878788,2.373737373737375 2.87878787878788,2.4747474747474754 2.87878787878788,2.575757575757577 2.87878787878788,2.676767676767678 2.87878787878788,2.7777777777777786 2.87878787878788,2.87878787878788 2.87878787878788,2.9797979797979806 2.87878787878788,3.080808080808082 2.87878787878788,3.181818181818183 2.87878787878788,3.2828282828282833 2.87878787878788,3.383838383838384" data-type="line" data-label="" points="783.7575757575758,621.6565656565657 783.7575757575758,612.1212121212121 783.7575757575758,602.5858585858587 783.7575757575758,593.0505050505051 783.7575757575758,583.5151515151516 783.7575757575758,573.979797979798 783.7575757575758,564.4444444444445 783.7575757575758,554.909090909091 783.7575757575758,545.3737373737374 783.7575757575758,535.838383838384 783.7575757575758,526.3030303030304 783.7575757575758,516.7676767676768 783.7575757575758,507.23232323232327 783.7575757575758,497.69696969696975 783.7575757575758,488.1616161616163 783.7575757575758,478.6262626262627 783.7575757575758,469.0909090909092 783.7575757575758,459.5555555555556 783.7575757575758,450.0202020202021 783.7575757575758,440.4848484848486 783.7575757575758,430.94949494949503 783.7575757575758,421.4141414141415 783.7575757575758,411.87878787878793 783.7575757575758,402.3434343434344 783.7575757575758,392.80808080808094 783.7575757575758,383.27272727272737 783.7575757575758,373.73737373737384 783.7575757575758,364.2020202020203 783.7575757575758,354.66666666666674 783.7575757575758,345.1313131313133 783.7575757575758,335.5959595959597 783.7575757575758,326.06060606060623 783.7575757575758,316.5252525252526 783.7575757575758,306.9898989898991 783.7575757575758,297.4545454545456 783.7575757575758,287.91919191919203 783.7575757575758,278.38383838383857 783.7575757575758,268.84848484848493 783.7575757575758,259.3131313131314 783.7575757575758,249.77777777777794 783.7575757575758,240.24242424242436 783.7575757575758,230.70707070707084 783.7575757575758,221.17171717171726 783.7575757575758,211.63636363636374 783.7575757575758,202.10101010101027 783.7575757575758,192.56565656565675" fill="none" stroke="rgba(0,0,255,0.75)" stroke-width="14.159999999999995"/></g><g><polyline data-points="2.87878787878788,3.383838383838384 2.87878787878788,3.4848484848484866 2.87878787878788,3.5858585858585874 2.87878787878788,3.6868686868686877 2.87878787878788,3.7878787878787885 2.87878787878788,3.8888888888888893 2.87878787878788,3.989898989898992 2.87878787878788,4.090909090909092 2.87878787878788,4.191919191919193 2.87878787878788,4.292929292929293 2.87878787878788,4.393939393939394 2.87878787878788,4.494949494949497 2.87878787878788,4.595959595959597 2.87878787878788,4.696969696969697 2.87878787878788,4.7979797979797985 2.87878787878788,4.898989898989901 2.87878787878788,5.000000000000002" data-type="line" data-label="" points="783.7575757575758,192.56565656565675 783.7575757575758,183.03030303030312 783.7575757575758,173.4949494949496 783.7575757575758,163.95959595959613 783.7575757575758,154.4242424242426 783.7575757575758,144.88888888888908 783.7575757575758,135.35353535353545 783.7575757575758,125.81818181818198 783.7575757575758,116.28282828282846 783.7575757575758,106.747474747475 783.7575757575758,97.21212121212153 783.7575757575758,87.67676767676778 783.7575757575758,78.14141414141432 783.7575757575758,68.60606060606085 783.7575757575758,59.07070707070733 783.7575757575758,49.53535353535369 783.7575757575758,40.000000000000114" fill="none" stroke="rgba(255,0,0,0.75)" stroke-width="14.159999999999995"/></g><g><polyline data-points="-3.0808080808080804,5.000000000000002 -2.9797979797979792,5.000000000000002 -2.8787878787878785,4.898989898989901 -2.7777777777777777,4.7979797979797985 -2.6767676767676765,4.696969696969697 -2.7777777777777777,4.595959595959597 -2.8787878787878785,4.494949494949497 -2.9797979797979792,4.393939393939394 -3.0808080808080804,4.292929292929293 -3.1818181818181817,4.191919191919193 -3.1818181818181817,4.090909090909092 -3.1818181818181817,3.989898989898992 -3.1818181818181817,3.8888888888888893 -3.1818181818181817,3.7878787878787885 -3.2828282828282824,3.6868686868686877 -3.383838383838383,3.5858585858585874 -3.484848484848485,3.4848484848484866 -3.484848484848485,3.383838383838384 -3.484848484848485,3.2828282828282833 -3.484848484848485,3.181818181818183 -3.484848484848485,3.080808080808082 -3.484848484848485,2.9797979797979806 -3.484848484848485,2.87878787878788 -3.484848484848485,2.7777777777777786 -3.484848484848485,2.676767676767678 -3.484848484848485,2.575757575757577 -3.484848484848485,2.4747474747474754 -3.484848484848485,2.373737373737375 -3.484848484848485,2.2727272727272734 -3.484848484848485,2.1717171717171726 -3.484848484848485,2.070707070707072 -3.484848484848485,1.9696969696969702 -3.484848484848485,1.8686868686868696 -3.484848484848485,1.767676767676768 -3.484848484848485,1.6666666666666674 -3.484848484848485,1.5656565656565666 -3.484848484848485,1.4646464646464652 -3.484848484848485,1.3636363636363644 -3.484848484848485,1.262626262626263 -3.484848484848485,1.1616161616161622 -3.484848484848485,1.0606060606060617 -3.484848484848485,0.9595959595959602 -3.484848484848485,0.8585858585858596 -3.484848484848485,0.7575757575757579 -3.484848484848485,0.6565656565656574 -3.484848484848485,0.5555555555555567 -3.484848484848485,0.4545454545454551 -3.484848484848485,0.3535353535353544 -3.484848484848485,0.2525252525252529 -3.484848484848485,0.1515151515151522 -3.484848484848485,0.050505050505051545 -3.484848484848485,-0.05050505050505001 -3.484848484848485,-0.15151515151515066 -3.484848484848485,-0.2525252525252522 -3.484848484848485,-0.35353535353535287 -3.484848484848485,-0.4545454545454544 -3.484848484848485,-0.555555555555555 -3.484848484848485,-0.6565656565656557 -3.484848484848485,-0.7575757575757572 -3.484848484848485,-0.8585858585858579 -3.484848484848485,-0.9595959595959596 -3.484848484848485,-1.0606060606060603 -3.484848484848485,-1.1616161616161613 -3.484848484848485,-1.2626262626262625 -3.484848484848485,-1.363636363636363 -3.484848484848485,-1.4646464646464643 -3.484848484848485,-1.5656565656565653 -3.484848484848485,-1.6666666666666665 -3.484848484848485,-1.7676767676767675 -3.484848484848485,-1.8686868686868683 -3.484848484848485,-1.9696969696969693 -3.484848484848485,-2.07070707070707 -3.484848484848485,-2.1717171717171713 -3.484848484848485,-2.2727272727272725 -3.5858585858585856,-2.3737373737373733 -3.484848484848485,-2.474747474747474 -3.484848484848485,-2.5757575757575752 -3.484848484848485,-2.6767676767676765 -3.484848484848485,-2.7777777777777777 -3.484848484848485,-2.8787878787878785 -3.484848484848485,-2.9797979797979792 -3.484848484848485,-3.0808080808080804 -3.484848484848485,-3.1818181818181817 -3.484848484848485,-3.2828282828282824 -3.484848484848485,-3.383838383838383 -3.484848484848485,-3.484848484848485 -3.484848484848485,-3.5858585858585856 -3.484848484848485,-3.6868686868686864 -3.484848484848485,-3.7878787878787876 -3.484848484848485,-3.8888888888888884 -3.484848484848485,-3.98989898989899 -3.484848484848485,-4.090909090909091 -3.484848484848485,-4.191919191919193 -3.484848484848485,-4.292929292929293 -3.484848484848485,-4.393939393939394 -3.484848484848485,-4.494949494949496 -3.484848484848485,-4.595959595959596 -3.484848484848485,-4.696969696969697 -3.484848484848485,-4.7979797979797985 -3.484848484848485,-4.898989898989899 -3.5858585858585856,-5.000000000000001 -3.6868686868686864,-5.000000000000001" data-type="line" data-label="" points="221.17171717171726,40.000000000000114 230.70707070707084,40.000000000000114 240.2424242424243,49.53535353535369 249.77777777777783,59.07070707070733 259.3131313131314,68.60606060606085 249.77777777777783,78.14141414141432 240.2424242424243,87.67676767676778 230.70707070707084,97.21212121212153 221.17171717171726,106.747474747475 211.63636363636374,116.28282828282846 211.63636363636374,125.81818181818198 211.63636363636374,135.35353535353545 211.63636363636374,144.88888888888908 211.63636363636374,154.4242424242426 202.10101010101022,163.95959595959613 192.5656565656567,173.4949494949496 183.03030303030312,183.03030303030312 183.03030303030312,192.56565656565675 183.03030303030312,202.10101010101027 183.03030303030312,211.63636363636374 183.03030303030312,221.17171717171726 183.03030303030312,230.70707070707084 183.03030303030312,240.24242424242436 183.03030303030312,249.77777777777794 183.03030303030312,259.3131313131314 183.03030303030312,268.84848484848493 183.03030303030312,278.38383838383857 183.03030303030312,287.91919191919203 183.03030303030312,297.4545454545456 183.03030303030312,306.9898989898991 183.03030303030312,316.5252525252526 183.03030303030312,326.06060606060623 183.03030303030312,335.5959595959597 183.03030303030312,345.1313131313133 183.03030303030312,354.66666666666674 183.03030303030312,364.2020202020203 183.03030303030312,373.73737373737384 183.03030303030312,383.27272727272737 183.03030303030312,392.80808080808094 183.03030303030312,402.3434343434344 183.03030303030312,411.87878787878793 183.03030303030312,421.4141414141415 183.03030303030312,430.94949494949503 183.03030303030312,440.4848484848486 183.03030303030312,450.0202020202021 183.03030303030312,459.5555555555556 183.03030303030312,469.0909090909092 183.03030303030312,478.6262626262627 183.03030303030312,488.1616161616163 183.03030303030312,497.69696969696975 183.03030303030312,507.23232323232327 183.03030303030312,516.7676767676768 183.03030303030312,526.3030303030304 183.03030303030312,535.838383838384 183.03030303030312,545.3737373737374 183.03030303030312,554.909090909091 183.03030303030312,564.4444444444445 183.03030303030312,573.979797979798 183.03030303030312,583.5151515151516 183.03030303030312,593.0505050505051 183.03030303030312,602.5858585858587 183.03030303030312,612.1212121212121 183.03030303030312,621.6565656565657 183.03030303030312,631.1919191919193 183.03030303030312,640.7272727272727 183.03030303030312,650.2626262626263 183.03030303030312,659.7979797979798 183.03030303030312,669.3333333333334 183.03030303030312,678.8686868686868 183.03030303030312,688.4040404040404 183.03030303030312,697.939393939394 183.03030303030312,707.4747474747475 183.03030303030312,717.010101010101 183.03030303030312,726.5454545454545 173.4949494949496,736.0808080808081 183.03030303030312,745.6161616161615 183.03030303030312,755.1515151515151 183.03030303030312,764.6868686868687 183.03030303030312,774.2222222222222 183.03030303030312,783.7575757575758 183.03030303030312,793.2929292929292 183.03030303030312,802.8282828282828 183.03030303030312,812.3636363636363 183.03030303030312,821.8989898989898 183.03030303030312,831.4343434343434 183.03030303030312,840.969696969697 183.03030303030312,850.5050505050505 183.03030303030312,860.0404040404039 183.03030303030312,869.5757575757575 183.03030303030312,879.1111111111111 183.03030303030312,888.6464646464647 183.03030303030312,898.1818181818181 183.03030303030312,907.7171717171718 183.03030303030312,917.2525252525252 183.03030303030312,926.7878787878788 183.03030303030312,936.3232323232323 183.03030303030312,945.8585858585858 183.03030303030312,955.3939393939394 183.03030303030312,964.9292929292928 183.03030303030312,974.4646464646464 173.4949494949496,984 163.95959595959607,984" fill="none" stroke="rgba(0,0,255,0.75)" stroke-width="14.159999999999995"/></g><g><polyline data-points="-5.000000000000001,4.494949494949497 -5.000000000000001,4.393939393939394 -5.000000000000001,4.292929292929293 -4.898989898989899,4.191919191919193 -4.7979797979797985,4.191919191919193 -4.696969696969697,4.191919191919193 -4.595959595959596,4.191919191919193 -4.494949494949496,4.292929292929293 -4.393939393939394,4.292929292929293 -4.292929292929293,4.292929292929293 -4.191919191919193,4.191919191919193 -4.090909090909091,4.090909090909092 -3.98989898989899,3.989898989898992" data-type="line" data-label="" points="40.00000000000006,87.67676767676778 40.00000000000006,97.21212121212153 40.00000000000006,106.747474747475 49.53535353535369,116.28282828282846 59.07070707070716,116.28282828282846 68.60606060606068,116.28282828282846 78.14141414141426,116.28282828282846 87.67676767676772,106.747474747475 97.21212121212136,106.747474747475 106.74747474747483,106.747474747475 116.28282828282829,116.28282828282846 125.81818181818193,125.81818181818198 135.35353535353545,135.35353535353545" fill="none" stroke="rgba(0,0,255,0.75)" stroke-width="14.159999999999995"/></g><g><polyline data-points="-3.98989898989899,3.989898989898992 -3.8888888888888884,3.8888888888888893 -3.7878787878787876,3.7878787878787885 -3.6868686868686864,3.6868686868686877 -3.5858585858585856,3.6868686868686877 -3.484848484848485,3.6868686868686877 -3.383838383838383,3.6868686868686877 -3.2828282828282824,3.6868686868686877 -3.1818181818181817,3.6868686868686877 -3.0808080808080804,3.6868686868686877 -2.9797979797979792,3.6868686868686877 -2.8787878787878785,3.5858585858585874 -2.7777777777777777,3.4848484848484866 -2.6767676767676765,3.4848484848484866 -2.5757575757575752,3.383838383838384 -2.474747474747474,3.4848484848484866 -2.3737373737373733,3.4848484848484866 -2.2727272727272725,3.5858585858585874 -2.1717171717171713,3.6868686868686877 -2.07070707070707,3.7878787878787885 -1.9696969696969693,3.8888888888888893 -1.8686868686868683,3.989898989898992" data-type="line" data-label="" points="135.35353535353545,135.35353535353545 144.88888888888903,144.88888888888908 154.42424242424255,154.4242424242426 163.95959595959607,163.95959595959613 173.4949494949496,163.95959595959613 183.03030303030312,163.95959595959613 192.5656565656567,163.95959595959613 202.10101010101022,163.95959595959613 211.63636363636374,163.95959595959613 221.17171717171726,163.95959595959613 230.70707070707084,163.95959595959613 240.2424242424243,173.4949494949496 249.77777777777783,183.03030303030312 259.3131313131314,183.03030303030312 268.84848484848493,192.56565656565675 278.38383838383845,183.03030303030312 287.91919191919203,183.03030303030312 297.4545454545455,173.4949494949496 306.9898989898991,163.95959595959613 316.5252525252526,154.4242424242426 326.0606060606061,144.88888888888908 335.59595959595964,135.35353535353545" fill="none" stroke="rgba(255,0,0,0.75)" stroke-width="14.159999999999995"/></g><g><polyline data-points="-1.8686868686868683,3.989898989898992 -1.7676767676767675,4.090909090909092 -1.6666666666666665,4.090909090909092 -1.5656565656565653,4.090909090909092 -1.4646464646464643,4.090909090909092 -1.363636363636363,4.090909090909092 -1.2626262626262625,4.090909090909092 -1.1616161616161613,4.090909090909092 -1.0606060606060603,4.090909090909092 -0.9595959595959596,4.090909090909092 -0.8585858585858579,4.090909090909092 -0.7575757575757572,4.090909090909092 -0.6565656565656557,4.090909090909092 -0.555555555555555,4.090909090909092 -0.4545454545454544,4.090909090909092 -0.35353535353535287,4.090909090909092 -0.2525252525252522,4.090909090909092 -0.15151515151515066,4.090909090909092 -0.05050505050505001,4.090909090909092 0.050505050505051545,4.090909090909092 0.1515151515151522,4.090909090909092 0.2525252525252529,4.090909090909092 0.3535353535353544,4.090909090909092 0.4545454545454551,4.090909090909092 0.5555555555555567,4.090909090909092 0.6565656565656574,4.090909090909092 0.7575757575757579,4.090909090909092 0.8585858585858596,4.090909090909092 0.9595959595959602,4.090909090909092 1.0606060606060617,4.090909090909092 1.1616161616161622,4.090909090909092 1.262626262626263,4.090909090909092 1.3636363636363644,4.090909090909092 1.4646464646464652,4.090909090909092 1.5656565656565666,4.090909090909092 1.6666666666666674,4.090909090909092 1.767676767676768,4.090909090909092 1.8686868686868696,4.090909090909092 1.9696969696969702,4.090909090909092 2.070707070707072,4.090909090909092 2.1717171717171726,4.090909090909092 2.2727272727272734,4.090909090909092 2.373737373737375,4.090909090909092 2.4747474747474754,4.090909090909092 2.575757575757577,4.090909090909092 2.676767676767678,4.090909090909092 2.7777777777777786,4.090909090909092 2.87878787878788,4.090909090909092 2.9797979797979806,4.090909090909092 3.080808080808082,4.090909090909092 3.181818181818183,4.090909090909092 3.2828282828282833,4.090909090909092 3.383838383838384,4.090909090909092 3.4848484848484866,4.090909090909092 3.5858585858585874,4.090909090909092 3.6868686868686877,4.090909090909092 3.7878787878787885,4.090909090909092 3.8888888888888893,4.090909090909092 3.989898989898992,4.090909090909092 4.090909090909092,4.090909090909092 4.191919191919193,4.090909090909092 4.292929292929293,4.090909090909092 4.393939393939394,4.090909090909092 4.494949494949497,4.090909090909092 4.595959595959597,4.090909090909092 4.696969696969697,4.090909090909092 4.7979797979797985,4.090909090909092 4.898989898989901,4.090909090909092 5.000000000000002,4.191919191919193 5.000000000000002,4.292929292929293 4.898989898989901,4.393939393939394 5.000000000000002,4.494949494949497 5.000000000000002,4.595959595959597" data-type="line" data-label="" points="335.59595959595964,135.35353535353545 345.13131313131316,125.81818181818198 354.6666666666667,125.81818181818198 364.2020202020202,125.81818181818198 373.7373737373738,125.81818181818198 383.2727272727273,125.81818181818198 392.80808080808083,125.81818181818198 402.34343434343435,125.81818181818198 411.8787878787879,125.81818181818198 421.4141414141414,125.81818181818198 430.949494949495,125.81818181818198 440.4848484848485,125.81818181818198 450.0202020202021,125.81818181818198 459.55555555555554,125.81818181818198 469.09090909090907,125.81818181818198 478.62626262626264,125.81818181818198 488.16161616161617,125.81818181818198 497.69696969696975,125.81818181818198 507.2323232323232,125.81818181818198 516.7676767676768,125.81818181818198 526.3030303030303,125.81818181818198 535.8383838383838,125.81818181818198 545.3737373737374,125.81818181818198 554.9090909090909,125.81818181818198 564.4444444444445,125.81818181818198 573.9797979797979,125.81818181818198 583.5151515151515,125.81818181818198 593.0505050505051,125.81818181818198 602.5858585858585,125.81818181818198 612.1212121212121,125.81818181818198 621.6565656565656,125.81818181818198 631.1919191919192,125.81818181818198 640.7272727272727,125.81818181818198 650.2626262626262,125.81818181818198 659.7979797979798,125.81818181818198 669.3333333333333,125.81818181818198 678.8686868686868,125.81818181818198 688.4040404040404,125.81818181818198 697.9393939393939,125.81818181818198 707.4747474747475,125.81818181818198 717.0101010101009,125.81818181818198 726.5454545454545,125.81818181818198 736.0808080808081,125.81818181818198 745.6161616161615,125.81818181818198 755.1515151515151,125.81818181818198 764.6868686868686,125.81818181818198 774.2222222222222,125.81818181818198 783.7575757575758,125.81818181818198 793.2929292929292,125.81818181818198 802.8282828282828,125.81818181818198 812.3636363636363,125.81818181818198 821.8989898989898,125.81818181818198 831.4343434343433,125.81818181818198 840.969696969697,125.81818181818198 850.5050505050505,125.81818181818198 860.0404040404039,125.81818181818198 869.5757575757575,125.81818181818198 879.111111111111,125.81818181818198 888.6464646464647,125.81818181818198 898.181818181818,125.81818181818198 907.7171717171716,125.81818181818198 917.2525252525251,125.81818181818198 926.7878787878785,125.81818181818198 936.3232323232323,125.81818181818198 945.8585858585857,125.81818181818198 955.3939393939393,125.81818181818198 964.9292929292927,125.81818181818198 974.4646464646464,125.81818181818198 984,116.28282828282846 984,106.747474747475 974.4646464646464,97.21212121212153 984,87.67676767676778 984,78.14141414141432" fill="none" stroke="rgba(0,0,255,0.75)" stroke-width="14.159999999999995"/></g><g><polyline data-points="5.000000000000002,3.6868686868686877 4.898989898989901,3.5858585858585874 4.7979797979797985,3.5858585858585874 4.696969696969697,3.5858585858585874 4.595959595959597,3.5858585858585874 4.494949494949497,3.5858585858585874 4.393939393939394,3.5858585858585874 4.292929292929293,3.5858585858585874 4.191919191919193,3.5858585858585874 4.090909090909092,3.5858585858585874 3.989898989898992,3.5858585858585874 3.8888888888888893,3.5858585858585874 3.7878787878787885,3.5858585858585874 3.6868686868686877,3.4848484848484866" data-type="line" data-label="" points="984,163.95959595959613 974.4646464646464,173.4949494949496 964.9292929292927,173.4949494949496 955.3939393939393,173.4949494949496 945.8585858585857,173.4949494949496 936.3232323232323,173.4949494949496 926.7878787878785,173.4949494949496 917.2525252525251,173.4949494949496 907.7171717171716,173.4949494949496 898.181818181818,173.4949494949496 888.6464646464647,173.4949494949496 879.111111111111,173.4949494949496 869.5757575757575,173.4949494949496 860.0404040404039,183.03030303030312" fill="none" stroke="rgba(0,0,255,0.75)" stroke-width="14.159999999999995"/></g><g><polyline data-points="3.6868686868686877,3.4848484848484866 3.5858585858585874,3.383838383838384 3.4848484848484866,3.2828282828282833 3.383838383838384,3.181818181818183 3.2828282828282833,3.181818181818183 3.181818181818183,3.080808080808082 3.080808080808082,2.9797979797979806 2.9797979797979806,2.9797979797979806 2.87878787878788,2.87878787878788 2.7777777777777786,2.9797979797979806 2.676767676767678,2.9797979797979806 2.575757575757577,3.080808080808082 2.4747474747474754,3.181818181818183 2.373737373737375,3.181818181818183 2.2727272727272734,3.181818181818183 2.1717171717171726,3.181818181818183 2.070707070707072,3.181818181818183 1.9696969696969702,3.181818181818183 1.8686868686868696,3.181818181818183 1.767676767676768,3.181818181818183 1.6666666666666674,3.181818181818183 1.5656565656565666,3.181818181818183 1.4646464646464652,3.181818181818183 1.3636363636363644,3.181818181818183 1.262626262626263,3.181818181818183 1.1616161616161622,3.181818181818183 1.0606060606060617,3.181818181818183 0.9595959595959602,3.181818181818183 0.8585858585858596,3.181818181818183 0.7575757575757579,3.181818181818183 0.6565656565656574,3.181818181818183 0.5555555555555567,3.181818181818183 0.4545454545454551,3.181818181818183 0.3535353535353544,3.181818181818183 0.2525252525252529,3.181818181818183 0.1515151515151522,3.181818181818183 0.050505050505051545,3.181818181818183 -0.05050505050505001,3.181818181818183 -0.15151515151515066,3.181818181818183 -0.2525252525252522,3.181818181818183 -0.35353535353535287,3.181818181818183 -0.4545454545454544,3.181818181818183 -0.555555555555555,3.181818181818183 -0.6565656565656557,3.181818181818183 -0.7575757575757572,3.181818181818183 -0.8585858585858579,3.181818181818183 -0.9595959595959596,3.181818181818183 -1.0606060606060603,3.181818181818183 -1.1616161616161613,3.181818181818183 -1.2626262626262625,3.181818181818183 -1.363636363636363,3.181818181818183 -1.4646464646464643,3.181818181818183 -1.5656565656565653,3.181818181818183 -1.6666666666666665,3.181818181818183 -1.7676767676767675,3.181818181818183 -1.8686868686868683,3.181818181818183 -1.9696969696969693,3.181818181818183 -2.07070707070707,3.181818181818183 -2.1717171717171713,3.181818181818183 -2.2727272727272725,3.181818181818183 -2.3737373737373733,3.181818181818183 -2.474747474747474,3.181818181818183 -2.5757575757575752,3.181818181818183 -2.6767676767676765,3.181818181818183 -2.7777777777777777,3.2828282828282833 -2.8787878787878785,3.2828282828282833 -2.9797979797979792,3.383838383838384 -3.0808080808080804,3.4848484848484866 -3.1818181818181817,3.4848484848484866 -3.2828282828282824,3.4848484848484866 -3.383838383838383,3.4848484848484866 -3.484848484848485,3.4848484848484866 -3.5858585858585856,3.4848484848484866 -3.6868686868686864,3.383838383838384 -3.7878787878787876,3.4848484848484866 -3.8888888888888884,3.4848484848484866 -3.98989898989899,3.4848484848484866 -4.090909090909091,3.5858585858585874 -4.191919191919193,3.5858585858585874 -4.292929292929293,3.5858585858585874 -4.393939393939394,3.5858585858585874 -4.494949494949496,3.6868686868686877 -4.595959595959596,3.7878787878787885 -4.595959595959596,3.8888888888888893 -4.595959595959596,3.989898989898992 -4.494949494949496,4.090909090909092 -4.494949494949496,4.191919191919193 -4.393939393939394,4.292929292929293 -4.393939393939394,4.393939393939394 -4.494949494949496,4.494949494949497 -4.494949494949496,4.595959595959597 -4.393939393939394,4.696969696969697 -4.292929292929293,4.7979797979797985 -4.292929292929293,4.898989898989901 -4.191919191919193,5.000000000000002" data-type="line" data-label="" points="860.0404040404039,183.03030303030312 850.5050505050505,192.56565656565675 840.969696969697,202.10101010101027 831.4343434343433,211.63636363636374 821.8989898989898,211.63636363636374 812.3636363636363,221.17171717171726 802.8282828282828,230.70707070707084 793.2929292929292,230.70707070707084 783.7575757575758,240.24242424242436 774.2222222222222,230.70707070707084 764.6868686868686,230.70707070707084 755.1515151515151,221.17171717171726 745.6161616161615,211.63636363636374 736.0808080808081,211.63636363636374 726.5454545454545,211.63636363636374 717.0101010101009,211.63636363636374 707.4747474747475,211.63636363636374 697.9393939393939,211.63636363636374 688.4040404040404,211.63636363636374 678.8686868686868,211.63636363636374 669.3333333333333,211.63636363636374 659.7979797979798,211.63636363636374 650.2626262626262,211.63636363636374 640.7272727272727,211.63636363636374 631.1919191919192,211.63636363636374 621.6565656565656,211.63636363636374 612.1212121212121,211.63636363636374 602.5858585858585,211.63636363636374 593.0505050505051,211.63636363636374 583.5151515151515,211.63636363636374 573.9797979797979,211.63636363636374 564.4444444444445,211.63636363636374 554.9090909090909,211.63636363636374 545.3737373737374,211.63636363636374 535.8383838383838,211.63636363636374 526.3030303030303,211.63636363636374 516.7676767676768,211.63636363636374 507.2323232323232,211.63636363636374 497.69696969696975,211.63636363636374 488.16161616161617,211.63636363636374 478.62626262626264,211.63636363636374 469.09090909090907,211.63636363636374 459.55555555555554,211.63636363636374 450.0202020202021,211.63636363636374 440.4848484848485,211.63636363636374 430.949494949495,211.63636363636374 421.4141414141414,211.63636363636374 411.8787878787879,211.63636363636374 402.34343434343435,211.63636363636374 392.80808080808083,211.63636363636374 383.2727272727273,211.63636363636374 373.7373737373738,211.63636363636374 364.2020202020202,211.63636363636374 354.6666666666667,211.63636363636374 345.13131313131316,211.63636363636374 335.59595959595964,211.63636363636374 326.0606060606061,211.63636363636374 316.5252525252526,211.63636363636374 306.9898989898991,211.63636363636374 297.4545454545455,211.63636363636374 287.91919191919203,211.63636363636374 278.38383838383845,211.63636363636374 268.84848484848493,211.63636363636374 259.3131313131314,211.63636363636374 249.77777777777783,202.10101010101027 240.2424242424243,202.10101010101027 230.70707070707084,192.56565656565675 221.17171717171726,183.03030303030312 211.63636363636374,183.03030303030312 202.10101010101022,183.03030303030312 192.5656565656567,183.03030303030312 183.03030303030312,183.03030303030312 173.4949494949496,183.03030303030312 163.95959595959607,192.56565656565675 154.42424242424255,183.03030303030312 144.88888888888903,183.03030303030312 135.35353535353545,183.03030303030312 125.81818181818193,173.4949494949496 116.28282828282829,173.4949494949496 106.74747474747483,173.4949494949496 97.21212121212136,173.4949494949496 87.67676767676772,163.95959595959613 78.14141414141426,154.4242424242426 78.14141414141426,144.88888888888908 78.14141414141426,135.35353535353545 87.67676767676772,125.81818181818198 87.67676767676772,116.28282828282846 97.21212121212136,106.747474747475 97.21212121212136,97.21212121212153 87.67676767676772,87.67676767676778 87.67676767676772,78.14141414141432 97.21212121212136,68.60606060606085 106.74747474747483,59.07070707070733 106.74747474747483,49.53535353535369 116.28282828282829,40.000000000000114" fill="none" stroke="rgba(255,0,0,0.75)" stroke-width="14.159999999999995"/></g><g><rect data-type="rect" data-label="" data-x="0" data-y="0" x="40.000000000000114" y="40.000000000000284" width="943.9999999999997" height="943.9999999999998" fill="none" stroke="gray" stroke-width="0.010593220338983056"/></g><g><rect data-type="rect" data-label="" data-x="0" data-y="0" x="40.000000000000114" y="40.000000000000284" width="943.9999999999997" height="943.9999999999998" fill="none" stroke="rgba(15, 23, 42, 0.8)" stroke-width="0.010593220338983056"/></g><circle data-type="circle" data-label="" data-x="-1.9696969696969693" data-y="0.050505050505051545" cx="326.0606060606061" cy="507.23232323232327" r="28.791999999999987" fill="rgba(0,0,0,0.3)" stroke="black" stroke-width="0.010593220338983056"/><circle data-type="circle" data-label="" data-x="-3.0808080808080804" data-y="-2.3737373737373733" cx="221.17171717171726" cy="736.0808080808081" r="28.791999999999987" fill="rgba(0,0,0,0.3)" stroke="black" stroke-width="0.010593220338983056"/><circle data-type="circle" data-label="" data-x="2.87878787878788" data-y="-1.1616161616161613" cx="783.7575757575758" cy="621.6565656565657" r="28.791999999999987" fill="rgba(0,0,0,0.3)" stroke="black" stroke-width="0.010593220338983056"/><circle data-type="circle" data-label="" data-x="2.87878787878788" data-y="3.383838383838384" cx="783.7575757575758" cy="192.56565656565675" r="28.791999999999987" fill="rgba(0,0,0,0.3)" stroke="black" stroke-width="0.010593220338983056"/><circle data-type="circle" data-label="" data-x="-3.98989898989899" data-y="3.989898989898992" cx="135.35353535353545" cy="135.35353535353545" r="28.791999999999987" fill="rgba(0,0,0,0.3)" stroke="black" stroke-width="0.010593220338983056"/><circle data-type="circle" data-label="" data-x="-1.8686868686868683" data-y="3.989898989898992" cx="335.59595959595964" cy="135.35353535353545" r="28.791999999999987" fill="rgba(0,0,0,0.3)" stroke="black" stroke-width="0.010593220338983056"/><circle data-type="circle" data-label="" data-x="3.6868686868686877" data-y="3.4848484848484866" cx="860.0404040404039" cy="183.03030303030312" r="28.791999999999987" fill="rgba(0,0,0,0.3)" stroke="black" stroke-width="0.010593220338983056"/><g id="crosshair" style="display: none"><line id="crosshair-h" y1="0" y2="1024" stroke="#666" stroke-width="0.5"/><line id="crosshair-v" x1="0" x2="1024" stroke="#666" stroke-width="0.5"/><text id="coordinates" font-family="monospace" font-size="12" fill="#666"></text></g><script><![CDATA[
              document.currentScript.parentElement.addEventListener('mousemove', (e) => {
                const svg = e.currentTarget;
                const rect = svg.getBoundingClientRect();
                const x = e.clientX - rect.left;
                const y = e.clientY - rect.top;
                const crosshair = svg.getElementById('crosshair');
                const h = svg.getElementById('crosshair-h');
                const v = svg.getElementById('crosshair-v');
                const coords = svg.getElementById('coordinates');
                
                crosshair.style.display = 'block';
                h.setAttribute('x1', '0');
                h.setAttribute('x2', '1024');
                h.setAttribute('y1', y);
                h.setAttribute('y2', y);
                v.setAttribute('x1', x);
                v.setAttribute('x2', x);
                v.setAttribute('y1', '0');
                v.setAttribute('y2', '1024');

                // Calculate real coordinates using inverse transformation
                const matrix = {"a":94.39999999999996,"c":0,"e":511.99999999999994,"b":0,"d":-94.39999999999996,"f":512.0000000000001};
                // Manually invert and apply the affine transform
                // Since we only use translate and scale, we can directly compute:
                // x' = (x - tx) / sx
                // y' = (y - ty) / sy
                const sx = matrix.a;
                const sy = matrix.d;
                const tx = matrix.e; 
                const ty = matrix.f;
                const realPoint = {
                  x: (x - tx) / sx,
                  y: (y - ty) / sy // Flip y back since we used negative scale
                }
                
                coords.textContent = `(${realPoint.x.toFixed(2)}, ${realPoint.y.toFixed(2)})`;
                coords.setAttribute('x', (x + 5).toString());
                coords.setAttribute('y', (y - 5).toString());
              });
              document.currentScript.parentElement.addEventListener('mouseleave', () => {
                document.currentScript.parentElement.getElementById('crosshair').style.display = 'none';
              });
            ]]></script></svg>