<svg width="1024" height="1024" viewBox="0 0 1024 1024" xmlns="http://www.w3.org/2000/svg"><rect width="100%" height="100%" fill="white"/><g><circle data-type="point" data-label="conn_000" data-x="5" data-y="-4.78" cx="983.9999999999998" cy="963.2319999999997" r="28.792" fill="blue" stroke="#bda70f" stroke-width="28.792"/></g><g><circle data-type="point" data-label="conn_000" data-x="2.5" data-y="-5" cx="747.9999999999999" cy="983.9999999999998" r="28.792" fill="red" stroke="#bda70f" stroke-width="28.792"/></g><g><circle data-type="point" data-label="conn_001" data-x="5" data-y="3.34" cx="983.9999999999998" cy="196.70400000000006" r="28.792" fill="blue" stroke="#0fa0bd" stroke-width="28.792"/></g><g><circle data-type="point" data-label="conn_001" data-x="-5" data-y="-2.04" cx="40.000000000000114" cy="704.5759999999999" r="28.792" fill="red" stroke="#0fa0bd" stroke-width="28.792"/></g><g><circle data-type="point" data-label="conn_002" data-x="-5" data-y="4.84" cx="40.000000000000114" cy="55.104000000000156" r="28.792" fill="red" stroke="#bd0f6d" stroke-width="28.792"/></g><g><circle data-type="point" data-label="conn_002" data-x="5" data-y="-1.22" cx="983.9999999999998" cy="627.1679999999999" r="28.792" fill="blue" stroke="#bd0f6d" stroke-width="28.792"/></g><g><circle data-type="point" data-label="conn_003" data-x="5" data-y="-2.08" cx="983.9999999999998" cy="708.3519999999999" r="28.792" fill="red" stroke="#3bbd0f" stroke-width="28.792"/></g><g><circle data-type="point" data-label="conn_003" data-x="5" data-y="-0.14" cx="983.9999999999998" cy="525.2159999999999" r="28.792" fill="red" stroke="#3bbd0f" stroke-width="28.792"/></g><g><circle data-type="point" data-label="conn_004" data-x="5" data-y="-3.2" cx="983.9999999999998" cy="814.0799999999998" r="28.792" fill="red" stroke="#170fbd" stroke-width="28.792"/></g><g><circle data-type="point" data-label="conn_004" data-x="-5" data-y="3.9" cx="40.000000000000114" cy="143.8400000000001" r="28.792" fill="red" stroke="#170fbd" stroke-width="28.792"/></g><g><polyline data-points="-5.000000000000001,4.898989898989901 -4.898989898989899,4.7979797979797985 -4.7979797979797985,4.696969696969697 -4.696969696969697,4.595959595959597 -4.595959595959596,4.494949494949497 -4.494949494949496,4.393939393939394 -4.393939393939394,4.292929292929293 -4.292929292929293,4.191919191919193 -4.191919191919193,4.090909090909092 -4.090909090909091,3.989898989898992 -3.98989898989899,3.8888888888888893 -3.8888888888888884,3.7878787878787885 -3.7878787878787876,3.6868686868686877 -3.6868686868686864,3.5858585858585874 -3.5858585858585856,3.4848484848484866 -3.484848484848485,3.383838383838384 -3.383838383838383,3.2828282828282833 -3.2828282828282824,3.181818181818183 -3.1818181818181817,3.080808080808082 -3.0808080808080804,2.9797979797979806 -2.9797979797979792,2.87878787878788 -2.8787878787878785,2.7777777777777786 -2.7777777777777777,2.676767676767678 -2.6767676767676765,2.575757575757577 -2.5757575757575752,2.4747474747474754 -2.474747474747474,2.373737373737375 -2.3737373737373733,2.2727272727272734 -2.2727272727272725,2.1717171717171726 -2.1717171717171713,2.070707070707072 -2.07070707070707,1.9696969696969702 -1.9696969696969693,1.8686868686868696 -1.8686868686868683,1.767676767676768 -1.7676767676767675,1.6666666666666674 -1.6666666666666665,1.5656565656565666 -1.5656565656565653,1.4646464646464652 -1.4646464646464643,1.3636363636363644 -1.363636363636363,1.262626262626263 -1.2626262626262625,1.1616161616161622 -1.1616161616161613,1.0606060606060617 -1.0606060606060603,0.9595959595959602 -0.9595959595959596,0.8585858585858596 -0.8585858585858579,0.7575757575757579 -0.7575757575757572,0.6565656565656574 -0.6565656565656557,0.5555555555555567 -0.555555555555555,0.4545454545454551 -0.4545454545454544,0.3535353535353544 -0.35353535353535287,0.2525252525252529 -0.2525252525252522,0.1515151515151522 -0.15151515151515066,0.050505050505051545 -0.05050505050505001,-0.05050505050505001 0.050505050505051545,-0.15151515151515066 0.1515151515151522,-0.2525252525252522 0.2525252525252529,-0.35353535353535287 0.3535353535353544,-0.4545454545454544 0.4545454545454551,-0.555555555555555 0.5555555555555567,-0.6565656565656557 0.6565656565656574,-0.7575757575757572 0.7575757575757579,-0.8585858585858579 0.8585858585858596,-0.9595959595959596 0.9595959595959602,-1.0606060606060603 1.0606060606060617,-1.1616161616161613 1.1616161616161622,-1.2626262626262625 1.262626262626263,-1.2626262626262625 1.3636363636363644,-1.2626262626262625 1.4646464646464652,-1.2626262626262625 1.5656565656565666,-1.2626262626262625 1.6666666666666674,-1.2626262626262625 1.767676767676768,-1.2626262626262625 1.8686868686868696,-1.2626262626262625 1.9696969696969702,-1.2626262626262625 2.070707070707072,-1.2626262626262625 2.1717171717171726,-1.2626262626262625 2.2727272727272734,-1.2626262626262625 2.373737373737375,-1.2626262626262625 2.4747474747474754,-1.2626262626262625 2.575757575757577,-1.2626262626262625 2.676767676767678,-1.2626262626262625 2.7777777777777786,-1.2626262626262625 2.87878787878788,-1.2626262626262625 2.9797979797979806,-1.2626262626262625 3.080808080808082,-1.2626262626262625 3.181818181818183,-1.2626262626262625 3.2828282828282833,-1.2626262626262625 3.383838383838384,-1.2626262626262625 3.4848484848484866,-1.2626262626262625 3.5858585858585874,-1.2626262626262625 3.6868686868686877,-1.2626262626262625 3.7878787878787885,-1.2626262626262625 3.8888888888888893,-1.2626262626262625 3.989898989898992,-1.2626262626262625" data-type="line" data-label="" points="40.00000000000006,49.53535353535352 49.53535353535369,59.07070707070716 59.07070707070716,68.60606060606068 68.60606060606068,78.14141414141415 78.14141414141426,87.67676767676761 87.67676767676772,97.21212121212136 97.21212121212136,106.74747474747483 106.74747474747483,116.28282828282829 116.28282828282829,125.81818181818181 125.81818181818193,135.35353535353528 135.35353535353545,144.8888888888889 144.88888888888903,154.42424242424244 154.42424242424255,163.95959595959596 163.95959595959607,173.49494949494942 173.4949494949496,183.03030303030295 183.03030303030312,192.56565656565658 192.5656565656567,202.1010101010101 202.10101010101022,211.63636363636357 211.63636363636374,221.1717171717171 221.17171717171726,230.70707070707067 230.70707070707084,240.2424242424242 240.2424242424243,249.77777777777777 249.77777777777783,259.3131313131313 259.3131313131314,268.84848484848476 268.84848484848493,278.38383838383834 278.38383838383845,287.9191919191918 287.91919191919203,297.4545454545454 297.4545454545455,306.98989898989896 306.9898989898991,316.5252525252524 316.5252525252526,326.060606060606 326.0606060606061,335.5959595959595 335.59595959595964,345.1313131313131 345.13131313131316,354.66666666666663 354.6666666666667,364.2020202020201 364.2020202020202,373.7373737373737 373.7373737373738,383.2727272727272 383.2727272727273,392.8080808080808 392.80808080808083,402.3434343434343 402.34343434343435,411.87878787878776 411.8787878787879,421.41414141414134 421.4141414141414,430.9494949494948 430.949494949495,440.48484848484844 440.4848484848485,450.0202020202019 450.0202020202021,459.55555555555543 459.55555555555554,469.090909090909 469.09090909090907,478.6262626262625 478.62626262626264,488.16161616161605 488.16161616161617,497.6969696969696 497.69696969696975,507.2323232323231 507.2323232323232,516.7676767676767 516.7676767676768,526.3030303030301 526.3030303030303,535.8383838383837 535.8383838383838,545.3737373737372 545.3737373737374,554.9090909090908 554.9090909090909,564.4444444444443 564.4444444444445,573.9797979797978 573.9797979797979,583.5151515151514 583.5151515151515,593.0505050505049 593.0505050505051,602.5858585858584 602.5858585858585,612.121212121212 612.1212121212121,621.6565656565656 621.6565656565656,631.191919191919 631.1919191919192,631.191919191919 640.7272727272727,631.191919191919 650.2626262626262,631.191919191919 659.7979797979798,631.191919191919 669.3333333333333,631.191919191919 678.8686868686868,631.191919191919 688.4040404040404,631.191919191919 697.9393939393939,631.191919191919 707.4747474747475,631.191919191919 717.0101010101009,631.191919191919 726.5454545454545,631.191919191919 736.0808080808081,631.191919191919 745.6161616161615,631.191919191919 755.1515151515151,631.191919191919 764.6868686868686,631.191919191919 774.2222222222222,631.191919191919 783.7575757575758,631.191919191919 793.2929292929292,631.191919191919 802.8282828282828,631.191919191919 812.3636363636363,631.191919191919 821.8989898989898,631.191919191919 831.4343434343433,631.191919191919 840.969696969697,631.191919191919 850.5050505050505,631.191919191919 860.0404040404039,631.191919191919 869.5757575757575,631.191919191919 879.111111111111,631.191919191919 888.6464646464647,631.191919191919" fill="none" stroke="rgba(255,0,0,0.75)" stroke-width="14.159999999999995"/></g><g><polyline data-points="3.989898989898992,-1.2626262626262625 4.090909090909092,-1.2626262626262625 4.191919191919193,-1.2626262626262625 4.292929292929293,-1.2626262626262625 4.393939393939394,-1.2626262626262625 4.494949494949497,-1.2626262626262625 4.595959595959597,-1.2626262626262625 4.696969696969697,-1.2626262626262625 4.7979797979797985,-1.2626262626262625 4.898989898989901,-1.2626262626262625 5.000000000000002,-1.2626262626262625" data-type="line" data-label="" points="888.6464646464647,631.191919191919 898.181818181818,631.191919191919 907.7171717171716,631.191919191919 917.2525252525251,631.191919191919 926.7878787878785,631.191919191919 936.3232323232323,631.191919191919 945.8585858585857,631.191919191919 955.3939393939393,631.191919191919 964.9292929292927,631.191919191919 974.4646464646464,631.191919191919 984,631.191919191919" fill="none" stroke="rgba(0,0,255,0.75)" stroke-width="14.159999999999995"/></g><g><polyline data-points="5.000000000000002,-4.7979797979797985 4.898989898989901,-4.7979797979797985 4.7979797979797985,-4.7979797979797985 4.696969696969697,-4.7979797979797985 4.595959595959597,-4.7979797979797985 4.494949494949497,-4.7979797979797985 4.393939393939394,-4.7979797979797985 4.292929292929293,-4.7979797979797985 4.191919191919193,-4.7979797979797985 4.090909090909092,-4.7979797979797985 3.989898989898992,-4.7979797979797985 3.8888888888888893,-4.7979797979797985 3.7878787878787885,-4.696969696969697 3.6868686868686877,-4.595959595959596 3.5858585858585874,-4.494949494949496 3.4848484848484866,-4.393939393939394 3.383838383838384,-4.292929292929293 3.2828282828282833,-4.191919191919193 3.181818181818183,-4.090909090909091 3.080808080808082,-3.98989898989899" data-type="line" data-label="" points="984,964.9292929292927 974.4646464646464,964.9292929292927 964.9292929292927,964.9292929292927 955.3939393939393,964.9292929292927 945.8585858585857,964.9292929292927 936.3232323232323,964.9292929292927 926.7878787878785,964.9292929292927 917.2525252525251,964.9292929292927 907.7171717171716,964.9292929292927 898.181818181818,964.9292929292927 888.6464646464647,964.9292929292927 879.111111111111,964.9292929292927 869.5757575757575,955.3939393939393 860.0404040404039,945.8585858585857 850.5050505050505,936.3232323232321 840.969696969697,926.7878787878785 831.4343434343433,917.2525252525251 821.8989898989898,907.7171717171716 812.3636363636363,898.181818181818 802.8282828282828,888.6464646464644" fill="none" stroke="rgba(0,0,255,0.75)" stroke-width="14.159999999999995"/></g><g><polyline data-points="3.080808080808082,-3.98989898989899 2.9797979797979806,-4.090909090909091 2.87878787878788,-4.191919191919193 2.7777777777777786,-4.292929292929293 2.676767676767678,-4.393939393939394 2.575757575757577,-4.494949494949496 2.575757575757577,-4.595959595959596 2.575757575757577,-4.696969696969697 2.575757575757577,-4.7979797979797985 2.575757575757577,-4.898989898989899 2.575757575757577,-5.000000000000001" data-type="line" data-label="" points="802.8282828282828,888.6464646464644 793.2929292929292,898.181818181818 783.7575757575758,907.7171717171716 774.2222222222222,917.2525252525251 764.6868686868686,926.7878787878785 755.1515151515151,936.3232323232321 755.1515151515151,945.8585858585857 755.1515151515151,955.3939393939393 755.1515151515151,964.9292929292927 755.1515151515151,974.4646464646462 755.1515151515151,983.9999999999998" fill="none" stroke="rgba(255,0,0,0.75)" stroke-width="14.159999999999995"/></g><g><polyline data-points="5.000000000000002,-3.2828282828282824 4.898989898989901,-3.1818181818181817 4.7979797979797985,-3.0808080808080804 4.696969696969697,-2.9797979797979792 4.595959595959597,-2.8787878787878785 4.494949494949497,-2.7777777777777777 4.393939393939394,-2.6767676767676765 4.292929292929293,-2.5757575757575752 4.191919191919193,-2.474747474747474 4.090909090909092,-2.3737373737373733 3.989898989898992,-2.2727272727272725 3.8888888888888893,-2.1717171717171713 3.7878787878787885,-2.07070707070707 3.6868686868686877,-1.9696969696969693 3.5858585858585874,-1.8686868686868683 3.4848484848484866,-1.7676767676767675 3.383838383838384,-1.6666666666666665 3.2828282828282833,-1.5656565656565653 3.181818181818183,-1.4646464646464643 3.080808080808082,-1.4646464646464643 2.9797979797979806,-1.4646464646464643 2.87878787878788,-1.4646464646464643 2.7777777777777786,-1.4646464646464643 2.676767676767678,-1.4646464646464643 2.575757575757577,-1.4646464646464643 2.4747474747474754,-1.4646464646464643 2.373737373737375,-1.4646464646464643 2.2727272727272734,-1.4646464646464643 2.1717171717171726,-1.4646464646464643 2.070707070707072,-1.4646464646464643 1.9696969696969702,-1.4646464646464643 1.8686868686868696,-1.4646464646464643 1.767676767676768,-1.4646464646464643 1.6666666666666674,-1.4646464646464643 1.5656565656565666,-1.4646464646464643 1.4646464646464652,-1.4646464646464643 1.3636363636363644,-1.4646464646464643 1.262626262626263,-1.4646464646464643 1.1616161616161622,-1.4646464646464643 1.0606060606060617,-1.4646464646464643 0.9595959595959602,-1.363636363636363 0.8585858585858596,-1.2626262626262625 0.7575757575757579,-1.1616161616161613 0.6565656565656574,-1.0606060606060603 0.5555555555555567,-0.9595959595959596 0.4545454545454551,-0.8585858585858579 0.3535353535353544,-0.7575757575757572 0.2525252525252529,-0.6565656565656557 0.1515151515151522,-0.555555555555555 0.050505050505051545,-0.4545454545454544 -0.05050505050505001,-0.35353535353535287 -0.15151515151515066,-0.2525252525252522 -0.2525252525252522,-0.15151515151515066 -0.35353535353535287,-0.05050505050505001 -0.4545454545454544,0.050505050505051545 -0.555555555555555,0.1515151515151522 -0.6565656565656557,0.2525252525252529 -0.7575757575757572,0.3535353535353544 -0.8585858585858579,0.4545454545454551 -0.9595959595959596,0.5555555555555567 -1.0606060606060603,0.6565656565656574 -1.1616161616161613,0.7575757575757579 -1.2626262626262625,0.8585858585858596 -1.363636363636363,0.9595959595959602 -1.4646464646464643,1.0606060606060617 -1.5656565656565653,1.1616161616161622 -1.6666666666666665,1.262626262626263 -1.7676767676767675,1.3636363636363644 -1.8686868686868683,1.4646464646464652 -1.9696969696969693,1.5656565656565666 -2.07070707070707,1.6666666666666674 -2.1717171717171713,1.767676767676768 -2.2727272727272725,1.8686868686868696 -2.3737373737373733,1.9696969696969702 -2.474747474747474,2.070707070707072 -2.5757575757575752,2.1717171717171726 -2.6767676767676765,2.2727272727272734 -2.7777777777777777,2.373737373737375 -2.8787878787878785,2.4747474747474754 -2.9797979797979792,2.575757575757577 -3.0808080808080804,2.676767676767678 -3.1818181818181817,2.7777777777777786 -3.2828282828282824,2.87878787878788 -3.383838383838383,2.9797979797979806 -3.484848484848485,3.080808080808082 -3.5858585858585856,3.181818181818183 -3.6868686868686864,3.2828282828282833 -3.7878787878787876,3.383838383838384 -3.8888888888888884,3.4848484848484866 -3.98989898989899,3.5858585858585874 -4.090909090909091,3.6868686868686877 -4.191919191919193,3.7878787878787885 -4.292929292929293,3.8888888888888893 -4.393939393939394,3.989898989898992 -4.494949494949496,3.989898989898992 -4.595959595959596,3.989898989898992 -4.696969696969697,3.989898989898992 -4.7979797979797985,3.989898989898992 -4.898989898989899,3.989898989898992 -5.000000000000001,3.989898989898992" data-type="line" data-label="" points="984,821.8989898989896 974.4646464646464,812.3636363636361 964.9292929292927,802.8282828282827 955.3939393939393,793.2929292929291 945.8585858585857,783.7575757575755 936.3232323232323,774.2222222222221 926.7878787878785,764.6868686868685 917.2525252525251,755.151515151515 907.7171717171716,745.6161616161614 898.181818181818,736.0808080808079 888.6464646464647,726.5454545454544 879.111111111111,717.0101010101008 869.5757575757575,707.4747474747473 860.0404040404039,697.9393939393938 850.5050505050505,688.4040404040402 840.969696969697,678.8686868686867 831.4343434343433,669.3333333333333 821.8989898989898,659.7979797979797 812.3636363636363,650.2626262626261 802.8282828282828,650.2626262626261 793.2929292929292,650.2626262626261 783.7575757575758,650.2626262626261 774.2222222222222,650.2626262626261 764.6868686868686,650.2626262626261 755.1515151515151,650.2626262626261 745.6161616161615,650.2626262626261 736.0808080808081,650.2626262626261 726.5454545454545,650.2626262626261 717.0101010101009,650.2626262626261 707.4747474747475,650.2626262626261 697.9393939393939,650.2626262626261 688.4040404040404,650.2626262626261 678.8686868686868,650.2626262626261 669.3333333333333,650.2626262626261 659.7979797979798,650.2626262626261 650.2626262626262,650.2626262626261 640.7272727272727,650.2626262626261 631.1919191919192,650.2626262626261 621.6565656565656,650.2626262626261 612.1212121212121,650.2626262626261 602.5858585858585,640.7272727272725 593.0505050505051,631.191919191919 583.5151515151515,621.6565656565656 573.9797979797979,612.121212121212 564.4444444444445,602.5858585858584 554.9090909090909,593.0505050505049 545.3737373737374,583.5151515151514 535.8383838383838,573.9797979797978 526.3030303030303,564.4444444444443 516.7676767676768,554.9090909090908 507.2323232323232,545.3737373737372 497.69696969696975,535.8383838383837 488.16161616161617,526.3030303030301 478.62626262626264,516.7676767676767 469.09090909090907,507.2323232323231 459.55555555555554,497.6969696969696 450.0202020202021,488.16161616161605 440.4848484848485,478.6262626262625 430.949494949495,469.090909090909 421.4141414141414,459.55555555555543 411.8787878787879,450.0202020202019 402.34343434343435,440.48484848484844 392.80808080808083,430.9494949494948 383.2727272727273,421.41414141414134 373.7373737373738,411.87878787878776 364.2020202020202,402.3434343434343 354.6666666666667,392.8080808080808 345.13131313131316,383.2727272727272 335.59595959595964,373.7373737373737 326.0606060606061,364.2020202020201 316.5252525252526,354.66666666666663 306.9898989898991,345.1313131313131 297.4545454545455,335.5959595959595 287.91919191919203,326.060606060606 278.38383838383845,316.5252525252524 268.84848484848493,306.98989898989896 259.3131313131314,297.4545454545454 249.77777777777783,287.9191919191918 240.2424242424243,278.38383838383834 230.70707070707084,268.84848484848476 221.17171717171726,259.3131313131313 211.63636363636374,249.77777777777777 202.10101010101022,240.2424242424242 192.5656565656567,230.70707070707067 183.03030303030312,221.1717171717171 173.4949494949496,211.63636363636357 163.95959595959607,202.1010101010101 154.42424242424255,192.56565656565658 144.88888888888903,183.03030303030295 135.35353535353545,173.49494949494942 125.81818181818193,163.95959595959596 116.28282828282829,154.42424242424244 106.74747474747483,144.8888888888889 97.21212121212136,135.35353535353528 87.67676767676772,135.35353535353528 78.14141414141426,135.35353535353528 68.60606060606068,135.35353535353528 59.07070707070716,135.35353535353528 49.53535353535369,135.35353535353528 40.00000000000006,135.35353535353528" fill="none" stroke="rgba(255,0,0,0.75)" stroke-width="14.159999999999995"/></g><g><polyline data-points="5.000000000000002,-2.07070707070707 5.000000000000002,-1.9696969696969693 5.000000000000002,-1.8686868686868683 5.000000000000002,-1.7676767676767675 5.000000000000002,-1.6666666666666665 5.000000000000002,-1.5656565656565653 5.000000000000002,-1.4646464646464643 5.000000000000002,-1.363636363636363 5.000000000000002,-1.2626262626262625 5.000000000000002,-1.1616161616161613 5.000000000000002,-1.0606060606060603 5.000000000000002,-0.9595959595959596 5.000000000000002,-0.8585858585858579 5.000000000000002,-0.7575757575757572 5.000000000000002,-0.6565656565656557 5.000000000000002,-0.555555555555555 5.000000000000002,-0.4545454545454544 5.000000000000002,-0.35353535353535287 5.000000000000002,-0.2525252525252522 5.000000000000002,-0.15151515151515066" data-type="line" data-label="" points="984,707.4747474747473 984,697.9393939393938 984,688.4040404040402 984,678.8686868686867 984,669.3333333333333 984,659.7979797979797 984,650.2626262626261 984,640.7272727272725 984,631.191919191919 984,621.6565656565656 984,612.121212121212 984,602.5858585858584 984,593.0505050505049 984,583.5151515151514 984,573.9797979797978 984,564.4444444444443 984,554.9090909090908 984,545.3737373737372 984,535.8383838383837 984,526.3030303030301" fill="none" stroke="rgba(255,0,0,0.75)" stroke-width="14.159999999999995"/></g><g><polyline data-points="5.000000000000002,3.383838383838384 4.898989898989901,3.2828282828282833 4.7979797979797985,3.181818181818183 4.696969696969697,3.080808080808082 4.595959595959597,2.9797979797979806 4.494949494949497,2.87878787878788 4.393939393939394,2.7777777777777786 4.292929292929293,2.676767676767678 4.191919191919193,2.575757575757577 4.090909090909092,2.4747474747474754 3.989898989898992,2.373737373737375 3.8888888888888893,2.2727272727272734 3.7878787878787885,2.1717171717171726 3.6868686868686877,2.070707070707072 3.5858585858585874,1.9696969696969702 3.4848484848484866,1.8686868686868696 3.383838383838384,1.767676767676768 3.2828282828282833,1.6666666666666674 3.181818181818183,1.5656565656565666 3.080808080808082,1.4646464646464652 2.9797979797979806,1.3636363636363644 2.87878787878788,1.262626262626263 2.7777777777777786,1.1616161616161622 2.676767676767678,1.0606060606060617 2.575757575757577,0.9595959595959602 2.4747474747474754,0.8585858585858596 2.373737373737375,0.7575757575757579 2.2727272727272734,0.6565656565656574 2.1717171717171726,0.5555555555555567 2.070707070707072,0.4545454545454551 1.9696969696969702,0.3535353535353544 1.8686868686868696,0.2525252525252529 1.767676767676768,0.1515151515151522 1.6666666666666674,0.050505050505051545 1.5656565656565666,-0.05050505050505001 1.4646464646464652,-0.15151515151515066 1.3636363636363644,-0.2525252525252522 1.262626262626263,-0.35353535353535287 1.1616161616161622,-0.4545454545454544 1.0606060606060617,-0.555555555555555 0.9595959595959602,-0.6565656565656557 0.8585858585858596,-0.7575757575757572 0.7575757575757579,-0.8585858585858579 0.6565656565656574,-0.9595959595959596 0.5555555555555567,-1.0606060606060603 0.4545454545454551,-1.1616161616161613 0.3535353535353544,-1.2626262626262625 0.2525252525252529,-1.363636363636363 0.1515151515151522,-1.4646464646464643 0.050505050505051545,-1.5656565656565653 -0.05050505050505001,-1.6666666666666665 -0.15151515151515066,-1.7676767676767675 -0.2525252525252522,-1.8686868686868683 -0.35353535353535287,-1.9696969696969693 -0.4545454545454544,-2.07070707070707 -0.555555555555555,-2.07070707070707 -0.6565656565656557,-2.07070707070707 -0.7575757575757572,-2.07070707070707 -0.8585858585858579,-2.07070707070707 -0.9595959595959596,-2.07070707070707 -1.0606060606060603,-2.07070707070707 -1.1616161616161613,-2.07070707070707 -1.2626262626262625,-2.07070707070707 -1.363636363636363,-2.07070707070707 -1.4646464646464643,-2.07070707070707 -1.5656565656565653,-2.07070707070707 -1.6666666666666665,-2.07070707070707 -1.7676767676767675,-2.07070707070707 -1.8686868686868683,-2.07070707070707 -1.9696969696969693,-2.07070707070707 -2.07070707070707,-2.07070707070707 -2.1717171717171713,-2.07070707070707 -2.2727272727272725,-2.07070707070707 -2.3737373737373733,-2.07070707070707 -2.474747474747474,-2.07070707070707 -2.5757575757575752,-2.07070707070707 -2.6767676767676765,-2.07070707070707 -2.7777777777777777,-2.07070707070707 -2.8787878787878785,-2.07070707070707 -2.9797979797979792,-2.07070707070707 -3.0808080808080804,-2.07070707070707 -3.1818181818181817,-2.07070707070707 -3.2828282828282824,-2.07070707070707 -3.383838383838383,-2.07070707070707 -3.484848484848485,-2.07070707070707 -3.5858585858585856,-2.07070707070707 -3.6868686868686864,-2.07070707070707 -3.7878787878787876,-2.07070707070707 -3.8888888888888884,-2.07070707070707 -3.98989898989899,-2.07070707070707" data-type="line" data-label="" points="984,192.56565656565658 974.4646464646464,202.1010101010101 964.9292929292927,211.63636363636357 955.3939393939393,221.1717171717171 945.8585858585857,230.70707070707067 936.3232323232323,240.2424242424242 926.7878787878785,249.77777777777777 917.2525252525251,259.3131313131313 907.7171717171716,268.84848484848476 898.181818181818,278.38383838383834 888.6464646464647,287.9191919191918 879.111111111111,297.4545454545454 869.5757575757575,306.98989898989896 860.0404040404039,316.5252525252524 850.5050505050505,326.060606060606 840.969696969697,335.5959595959595 831.4343434343433,345.1313131313131 821.8989898989898,354.66666666666663 812.3636363636363,364.2020202020201 802.8282828282828,373.7373737373737 793.2929292929292,383.2727272727272 783.7575757575758,392.8080808080808 774.2222222222222,402.3434343434343 764.6868686868686,411.87878787878776 755.1515151515151,421.41414141414134 745.6161616161615,430.9494949494948 736.0808080808081,440.48484848484844 726.5454545454545,450.0202020202019 717.0101010101009,459.55555555555543 707.4747474747475,469.090909090909 697.9393939393939,478.6262626262625 688.4040404040404,488.16161616161605 678.8686868686868,497.6969696969696 669.3333333333333,507.2323232323231 659.7979797979798,516.7676767676767 650.2626262626262,526.3030303030301 640.7272727272727,535.8383838383837 631.1919191919192,545.3737373737372 621.6565656565656,554.9090909090908 612.1212121212121,564.4444444444443 602.5858585858585,573.9797979797978 593.0505050505051,583.5151515151514 583.5151515151515,593.0505050505049 573.9797979797979,602.5858585858584 564.4444444444445,612.121212121212 554.9090909090909,621.6565656565656 545.3737373737374,631.191919191919 535.8383838383838,640.7272727272725 526.3030303030303,650.2626262626261 516.7676767676768,659.7979797979797 507.2323232323232,669.3333333333333 497.69696969696975,678.8686868686867 488.16161616161617,688.4040404040402 478.62626262626264,697.9393939393938 469.09090909090907,707.4747474747473 459.55555555555554,707.4747474747473 450.0202020202021,707.4747474747473 440.4848484848485,707.4747474747473 430.949494949495,707.4747474747473 421.4141414141414,707.4747474747473 411.8787878787879,707.4747474747473 402.34343434343435,707.4747474747473 392.80808080808083,707.4747474747473 383.2727272727273,707.4747474747473 373.7373737373738,707.4747474747473 364.2020202020202,707.4747474747473 354.6666666666667,707.4747474747473 345.13131313131316,707.4747474747473 335.59595959595964,707.4747474747473 326.0606060606061,707.4747474747473 316.5252525252526,707.4747474747473 306.9898989898991,707.4747474747473 297.4545454545455,707.4747474747473 287.91919191919203,707.4747474747473 278.38383838383845,707.4747474747473 268.84848484848493,707.4747474747473 259.3131313131314,707.4747474747473 249.77777777777783,707.4747474747473 240.2424242424243,707.4747474747473 230.70707070707084,707.4747474747473 221.17171717171726,707.4747474747473 211.63636363636374,707.4747474747473 202.10101010101022,707.4747474747473 192.5656565656567,707.4747474747473 183.03030303030312,707.4747474747473 173.4949494949496,707.4747474747473 163.95959595959607,707.4747474747473 154.42424242424255,707.4747474747473 144.88888888888903,707.4747474747473 135.35353535353545,707.4747474747473" fill="none" stroke="rgba(0,0,255,0.75)" stroke-width="14.159999999999995"/></g><g><polyline data-points="-3.98989898989899,-2.07070707070707 -4.090909090909091,-2.07070707070707 -4.191919191919193,-2.07070707070707 -4.292929292929293,-2.07070707070707 -4.393939393939394,-2.07070707070707 -4.494949494949496,-2.07070707070707 -4.595959595959596,-2.07070707070707 -4.696969696969697,-2.07070707070707 -4.7979797979797985,-2.07070707070707 -4.898989898989899,-2.07070707070707 -5.000000000000001,-2.07070707070707" data-type="line" data-label="" points="135.35353535353545,707.4747474747473 125.81818181818193,707.4747474747473 116.28282828282829,707.4747474747473 106.74747474747483,707.4747474747473 97.21212121212136,707.4747474747473 87.67676767676772,707.4747474747473 78.14141414141426,707.4747474747473 68.60606060606068,707.4747474747473 59.07070707070716,707.4747474747473 49.53535353535369,707.4747474747473 40.00000000000006,707.4747474747473" fill="none" stroke="rgba(255,0,0,0.75)" stroke-width="14.159999999999995"/></g><g><rect data-type="rect" data-label="" data-x="0" data-y="0" x="40.000000000000114" y="40.000000000000114" width="943.9999999999997" height="943.9999999999997" fill="none" stroke="gray" stroke-width="0.010593220338983056"/></g><g><rect data-type="rect" data-label="" data-x="0" data-y="0" x="40.000000000000114" y="40.000000000000114" width="943.9999999999997" height="943.9999999999997" fill="none" stroke="rgba(15, 23, 42, 0.8)" stroke-width="0.010593220338983056"/></g><circle data-type="circle" data-label="" data-x="3.989898989898992" data-y="-1.2626262626262625" cx="888.6464646464647" cy="631.191919191919" r="28.791999999999987" fill="rgba(0,0,0,0.3)" stroke="black" stroke-width="0.010593220338983056"/><circle data-type="circle" data-label="" data-x="3.080808080808082" data-y="-3.98989898989899" cx="802.8282828282828" cy="888.6464646464644" r="28.791999999999987" fill="rgba(0,0,0,0.3)" stroke="black" stroke-width="0.010593220338983056"/><circle data-type="circle" data-label="" data-x="-3.98989898989899" data-y="-2.07070707070707" cx="135.35353535353545" cy="707.4747474747473" r="28.791999999999987" fill="rgba(0,0,0,0.3)" stroke="black" stroke-width="0.010593220338983056"/><g id="crosshair" style="display: none"><line id="crosshair-h" y1="0" y2="1024" stroke="#666" stroke-width="0.5"/><line id="crosshair-v" x1="0" x2="1024" stroke="#666" stroke-width="0.5"/><text id="coordinates" font-family="monospace" font-size="12" fill="#666"></text></g><script><![CDATA[
              document.currentScript.parentElement.addEventListener('mousemove', (e) => {
                const svg = e.currentTarget;
                const rect = svg.getBoundingClientRect();
                const x = e.clientX - rect.left;
                const y = e.clientY - rect.top;
                const crosshair = svg.getElementById('crosshair');
                const h = svg.getElementById('crosshair-h');
                const v = svg.getElementById('crosshair-v');
                const coords = svg.getElementById('coordinates');
                
                crosshair.style.display = 'block';
                h.setAttribute('x1', '0');
                h.setAttribute('x2', '1024');
                h.setAttribute('y1', y);
                h.setAttribute('y2', y);
                v.setAttribute('x1', x);
                v.setAttribute('x2', x);
                v.setAttribute('y1', '0');
                v.setAttribute('y2', '1024');

                // Calculate real coordinates using inverse transformation
                const matrix = {"a":94.39999999999996,"c":0,"e":511.99999999999994,"b":0,"d":-94.39999999999996,"f":511.99999999999994};
                // Manually invert and apply the affine transform
                // Since we only use translate and scale, we can directly compute:
                // x' = (x - tx) / sx
                // y' = (y - ty) / sy
                const sx = matrix.a;
                const sy = matrix.d;
                const tx = matrix.e; 
                const ty = matrix.f;
                const realPoint = {
                  x: (x - tx) / sx,
                  y: (y - ty) / sy // Flip y back since we used negative scale
                }
                
                coords.textContent = `(${realPoint.x.toFixed(2)}, ${realPoint.y.toFixed(2)})`;
                coords.setAttribute('x', (x + 5).toString());
                coords.setAttribute('y', (y - 5).toString());
              });
              document.currentScript.parentElement.addEventListener('mouseleave', () => {
                document.currentScript.parentElement.getElementById('crosshair').style.display = 'none';
              });
            ]]></script></svg>