<svg width="1024" height="1024" viewBox="0 0 1024 1024" xmlns="http://www.w3.org/2000/svg"><rect width="100%" height="100%" fill="white"/><g><circle data-type="point" data-label="conn_000" data-x="-5" data-y="2.48" cx="40.000000000000114" cy="277.8880000000002" r="28.792" fill="blue" stroke="#170fbd" stroke-width="28.792"/></g><g><circle data-type="point" data-label="conn_000" data-x="5" data-y="-2.98" cx="983.9999999999998" cy="793.312" r="28.792" fill="blue" stroke="#170fbd" stroke-width="28.792"/></g><g><circle data-type="point" data-label="conn_001" data-x="1.1400000000000001" data-y="-5" cx="619.6159999999999" cy="984" r="28.792" fill="blue" stroke="#bd490f" stroke-width="28.792"/></g><g><circle data-type="point" data-label="conn_001" data-x="4.62" data-y="5" cx="948.1279999999997" cy="40.000000000000284" r="28.792" fill="blue" stroke="#bd490f" stroke-width="28.792"/></g><g><circle data-type="point" data-label="conn_002" data-x="-5" data-y="-2.46" cx="40.000000000000114" cy="744.224" r="28.792" fill="red" stroke="#0fbd7c" stroke-width="28.792"/></g><g><circle data-type="point" data-label="conn_002" data-x="-4.98" data-y="-5" cx="41.88800000000009" cy="984" r="28.792" fill="red" stroke="#0fbd7c" stroke-width="28.792"/></g><g><circle data-type="point" data-label="conn_003" data-x="5" data-y="3.18" cx="983.9999999999998" cy="211.80800000000022" r="28.792" fill="blue" stroke="#ae0fbd" stroke-width="28.792"/></g><g><circle data-type="point" data-label="conn_003" data-x="5" data-y="-1.7" cx="983.9999999999998" cy="672.48" r="28.792" fill="red" stroke="#ae0fbd" stroke-width="28.792"/></g><g><circle data-type="point" data-label="conn_004" data-x="-0.52" data-y="5" cx="462.912" cy="40.000000000000284" r="28.792" fill="red" stroke="#98bd0f" stroke-width="28.792"/></g><g><circle data-type="point" data-label="conn_004" data-x="5" data-y="0.78" cx="983.9999999999998" cy="438.36800000000017" r="28.792" fill="red" stroke="#98bd0f" stroke-width="28.792"/></g><g><circle data-type="point" data-label="conn_005" data-x="4.36" data-y="-5" cx="923.5839999999998" cy="984" r="28.792" fill="blue" stroke="#0f66bd" stroke-width="28.792"/></g><g><circle data-type="point" data-label="conn_005" data-x="1.08" data-y="5" cx="613.9519999999999" cy="40.000000000000284" r="28.792" fill="red" stroke="#0f66bd" stroke-width="28.792"/></g><g><circle data-type="point" data-label="conn_006" data-x="2.34" data-y="5" cx="732.8959999999998" cy="40.000000000000284" r="28.792" fill="blue" stroke="#bd0f33" stroke-width="28.792"/></g><g><circle data-type="point" data-label="conn_006" data-x="-4.08" data-y="-5" cx="126.84800000000007" cy="984" r="28.792" fill="blue" stroke="#bd0f33" stroke-width="28.792"/></g><g><circle data-type="point" data-label="conn_007" data-x="3.06" data-y="5" cx="800.8639999999998" cy="40.000000000000284" r="28.792" fill="red" stroke="#0fbd1e" stroke-width="28.792"/></g><g><circle data-type="point" data-label="conn_007" data-x="-2.86" data-y="5" cx="242.01600000000008" cy="40.000000000000284" r="28.792" fill="red" stroke="#0fbd1e" stroke-width="28.792"/></g><g><circle data-type="point" data-label="conn_008" data-x="-5" data-y="0.56" cx="40.000000000000114" cy="459.13600000000014" r="28.792" fill="red" stroke="#510fbd" stroke-width="28.792"/></g><g><circle data-type="point" data-label="conn_008" data-x="-0.22" data-y="-5" cx="491.23199999999997" cy="984" r="28.792" fill="red" stroke="#510fbd" stroke-width="28.792"/></g><g><circle data-type="point" data-label="conn_009" data-x="5" data-y="1.58" cx="983.9999999999998" cy="362.8480000000002" r="28.792" fill="red" stroke="#bd830f" stroke-width="28.792"/></g><g><circle data-type="point" data-label="conn_009" data-x="-5" data-y="-1.78" cx="40.000000000000114" cy="680.032" r="28.792" fill="red" stroke="#bd830f" stroke-width="28.792"/></g><g><polyline data-points="-0.555555555555555,5.000000000000002 -0.4545454545454544,4.898989898989901 -0.35353535353535287,4.7979797979797985 -0.2525252525252522,4.696969696969697 -0.15151515151515066,4.595959595959597 -0.05050505050505001,4.494949494949497 0.050505050505051545,4.393939393939394 0.1515151515151522,4.292929292929293 0.2525252525252529,4.191919191919193 0.3535353535353544,4.090909090909092 0.4545454545454551,3.989898989898992 0.5555555555555567,3.8888888888888893 0.6565656565656574,3.7878787878787885 0.7575757575757579,3.6868686868686877 0.8585858585858596,3.5858585858585874 0.9595959595959602,3.4848484848484866 1.0606060606060617,3.383838383838384 1.1616161616161622,3.2828282828282833 1.262626262626263,3.181818181818183 1.3636363636363644,3.080808080808082 1.4646464646464652,2.9797979797979806 1.5656565656565666,2.87878787878788 1.6666666666666674,2.7777777777777786 1.767676767676768,2.676767676767678 1.8686868686868696,2.575757575757577 1.9696969696969702,2.4747474747474754 2.070707070707072,2.373737373737375 2.1717171717171726,2.2727272727272734 2.2727272727272734,2.1717171717171726 2.373737373737375,2.070707070707072 2.4747474747474754,1.9696969696969702 2.575757575757577,1.8686868686868696 2.676767676767678,1.767676767676768 2.7777777777777786,1.6666666666666674 2.87878787878788,1.5656565656565666 2.9797979797979806,1.4646464646464652 3.080808080808082,1.3636363636363644 3.181818181818183,1.262626262626263 3.2828282828282833,1.1616161616161622 3.383838383838384,1.0606060606060617 3.4848484848484866,0.9595959595959602 3.5858585858585874,0.8585858585858596 3.6868686868686877,0.7575757575757579 3.7878787878787885,0.7575757575757579 3.8888888888888893,0.7575757575757579 3.989898989898992,0.7575757575757579 4.090909090909092,0.7575757575757579 4.191919191919193,0.7575757575757579 4.292929292929293,0.7575757575757579 4.393939393939394,0.7575757575757579 4.494949494949497,0.7575757575757579 4.595959595959597,0.7575757575757579 4.696969696969697,0.7575757575757579 4.7979797979797985,0.7575757575757579 4.898989898989901,0.7575757575757579 5.000000000000002,0.7575757575757579" data-type="line" data-label="" points="459.55555555555554,40.000000000000114 469.09090909090907,49.53535353535369 478.62626262626264,59.07070707070733 488.16161616161617,68.60606060606085 497.69696969696975,78.14141414141432 507.2323232323232,87.67676767676778 516.7676767676768,97.21212121212153 526.3030303030303,106.747474747475 535.8383838383838,116.28282828282846 545.3737373737374,125.81818181818198 554.9090909090909,135.35353535353545 564.4444444444445,144.88888888888908 573.9797979797979,154.4242424242426 583.5151515151515,163.95959595959613 593.0505050505051,173.4949494949496 602.5858585858585,183.03030303030312 612.1212121212121,192.56565656565675 621.6565656565656,202.10101010101027 631.1919191919192,211.63636363636374 640.7272727272727,221.17171717171726 650.2626262626262,230.70707070707084 659.7979797979798,240.24242424242436 669.3333333333333,249.77777777777794 678.8686868686868,259.3131313131314 688.4040404040404,268.84848484848493 697.9393939393939,278.38383838383857 707.4747474747475,287.91919191919203 717.0101010101009,297.4545454545456 726.5454545454545,306.9898989898991 736.0808080808081,316.5252525252526 745.6161616161615,326.06060606060623 755.1515151515151,335.5959595959597 764.6868686868686,345.1313131313133 774.2222222222222,354.66666666666674 783.7575757575758,364.2020202020203 793.2929292929292,373.73737373737384 802.8282828282828,383.27272727272737 812.3636363636363,392.80808080808094 821.8989898989898,402.3434343434344 831.4343434343433,411.87878787878793 840.969696969697,421.4141414141415 850.5050505050505,430.94949494949503 860.0404040404039,440.4848484848486 869.5757575757575,440.4848484848486 879.111111111111,440.4848484848486 888.6464646464647,440.4848484848486 898.181818181818,440.4848484848486 907.7171717171716,440.4848484848486 917.2525252525251,440.4848484848486 926.7878787878785,440.4848484848486 936.3232323232323,440.4848484848486 945.8585858585857,440.4848484848486 955.3939393939393,440.4848484848486 964.9292929292927,440.4848484848486 974.4646464646464,440.4848484848486 984,440.4848484848486" fill="none" stroke="rgba(255,0,0,0.75)" stroke-width="14.159999999999995"/></g><g><polyline data-points="5.000000000000002,3.181818181818183 5.000000000000002,3.080808080808082 5.000000000000002,2.9797979797979806 5.000000000000002,2.87878787878788 5.000000000000002,2.7777777777777786 5.000000000000002,2.676767676767678 5.000000000000002,2.575757575757577 5.000000000000002,2.4747474747474754 5.000000000000002,2.373737373737375 5.000000000000002,2.2727272727272734 5.000000000000002,2.1717171717171726 5.000000000000002,2.070707070707072 5.000000000000002,1.9696969696969702 5.000000000000002,1.8686868686868696 5.000000000000002,1.767676767676768 4.898989898989901,1.6666666666666674 4.7979797979797985,1.5656565656565666 4.696969696969697,1.4646464646464652 4.595959595959597,1.3636363636363644 4.595959595959597,1.262626262626263 4.595959595959597,1.1616161616161622 4.595959595959597,1.0606060606060617 4.595959595959597,0.9595959595959602 4.595959595959597,0.8585858585858596 4.494949494949497,0.7575757575757579 4.393939393939394,0.6565656565656574 4.393939393939394,0.5555555555555567 4.393939393939394,0.4545454545454551 4.393939393939394,0.3535353535353544 4.393939393939394,0.2525252525252529 4.393939393939394,0.1515151515151522 4.393939393939394,0.050505050505051545 4.393939393939394,-0.05050505050505001 4.393939393939394,-0.15151515151515066 4.393939393939394,-0.2525252525252522 4.393939393939394,-0.35353535353535287 4.393939393939394,-0.4545454545454544 4.393939393939394,-0.555555555555555 4.393939393939394,-0.6565656565656557 4.393939393939394,-0.7575757575757572 4.292929292929293,-0.8585858585858579 4.292929292929293,-0.9595959595959596 4.292929292929293,-1.0606060606060603 4.292929292929293,-1.1616161616161613 4.292929292929293,-1.2626262626262625 4.191919191919193,-1.363636363636363 4.191919191919193,-1.4646464646464643 4.090909090909092,-1.5656565656565653 3.989898989898992,-1.6666666666666665" data-type="line" data-label="" points="984,211.63636363636374 984,221.17171717171726 984,230.70707070707084 984,240.24242424242436 984,249.77777777777794 984,259.3131313131314 984,268.84848484848493 984,278.38383838383857 984,287.91919191919203 984,297.4545454545456 984,306.9898989898991 984,316.5252525252526 984,326.06060606060623 984,335.5959595959597 984,345.1313131313133 974.4646464646464,354.66666666666674 964.9292929292927,364.2020202020203 955.3939393939393,373.73737373737384 945.8585858585857,383.27272727272737 945.8585858585857,392.80808080808094 945.8585858585857,402.3434343434344 945.8585858585857,411.87878787878793 945.8585858585857,421.4141414141415 945.8585858585857,430.94949494949503 936.3232323232323,440.4848484848486 926.7878787878785,450.0202020202021 926.7878787878785,459.5555555555556 926.7878787878785,469.0909090909092 926.7878787878785,478.6262626262627 926.7878787878785,488.1616161616163 926.7878787878785,497.69696969696975 926.7878787878785,507.23232323232327 926.7878787878785,516.7676767676768 926.7878787878785,526.3030303030304 926.7878787878785,535.838383838384 926.7878787878785,545.3737373737374 926.7878787878785,554.909090909091 926.7878787878785,564.4444444444445 926.7878787878785,573.979797979798 926.7878787878785,583.5151515151516 917.2525252525251,593.0505050505051 917.2525252525251,602.5858585858587 917.2525252525251,612.1212121212121 917.2525252525251,621.6565656565657 917.2525252525251,631.1919191919193 907.7171717171716,640.7272727272727 907.7171717171716,650.2626262626263 898.181818181818,659.7979797979798 888.6464646464647,669.3333333333334" fill="none" stroke="rgba(0,0,255,0.75)" stroke-width="14.159999999999995"/></g><g><polyline data-points="3.989898989898992,-1.6666666666666665 4.090909090909092,-1.7676767676767675 4.191919191919193,-1.7676767676767675 4.292929292929293,-1.7676767676767675 4.393939393939394,-1.7676767676767675 4.494949494949497,-1.7676767676767675 4.595959595959597,-1.7676767676767675 4.696969696969697,-1.7676767676767675 4.7979797979797985,-1.7676767676767675 4.898989898989901,-1.7676767676767675 5.000000000000002,-1.7676767676767675" data-type="line" data-label="" points="888.6464646464647,669.3333333333334 898.181818181818,678.8686868686868 907.7171717171716,678.8686868686868 917.2525252525251,678.8686868686868 926.7878787878785,678.8686868686868 936.3232323232323,678.8686868686868 945.8585858585857,678.8686868686868 955.3939393939393,678.8686868686868 964.9292929292927,678.8686868686868 974.4646464646464,678.8686868686868 984,678.8686868686868" fill="none" stroke="rgba(255,0,0,0.75)" stroke-width="14.159999999999995"/></g><g><polyline data-points="-5.000000000000001,0.5555555555555567 -4.898989898989899,0.4545454545454551 -4.7979797979797985,0.3535353535353544 -4.696969696969697,0.2525252525252529 -4.595959595959596,0.1515151515151522 -4.494949494949496,0.050505050505051545 -4.393939393939394,-0.05050505050505001 -4.292929292929293,-0.15151515151515066 -4.191919191919193,-0.2525252525252522 -4.090909090909091,-0.35353535353535287 -3.98989898989899,-0.4545454545454544 -3.8888888888888884,-0.555555555555555 -3.7878787878787876,-0.6565656565656557 -3.6868686868686864,-0.7575757575757572 -3.5858585858585856,-0.8585858585858579 -3.484848484848485,-0.9595959595959596 -3.383838383838383,-1.0606060606060603 -3.2828282828282824,-1.1616161616161613 -3.1818181818181817,-1.2626262626262625 -3.0808080808080804,-1.363636363636363 -2.9797979797979792,-1.4646464646464643 -2.8787878787878785,-1.5656565656565653 -2.7777777777777777,-1.6666666666666665 -2.6767676767676765,-1.7676767676767675 -2.5757575757575752,-1.8686868686868683 -2.474747474747474,-1.9696969696969693 -2.3737373737373733,-2.07070707070707 -2.2727272727272725,-2.1717171717171713 -2.1717171717171713,-2.2727272727272725 -2.07070707070707,-2.3737373737373733 -1.9696969696969693,-2.474747474747474 -1.8686868686868683,-2.5757575757575752 -1.7676767676767675,-2.6767676767676765 -1.6666666666666665,-2.7777777777777777 -1.5656565656565653,-2.8787878787878785 -1.4646464646464643,-2.9797979797979792 -1.363636363636363,-3.0808080808080804 -1.2626262626262625,-3.1818181818181817 -1.1616161616161613,-3.2828282828282824 -1.0606060606060603,-3.383838383838383 -0.9595959595959596,-3.484848484848485 -0.8585858585858579,-3.5858585858585856 -0.7575757575757572,-3.6868686868686864 -0.6565656565656557,-3.7878787878787876 -0.555555555555555,-3.8888888888888884 -0.4545454545454544,-3.98989898989899 -0.35353535353535287,-4.090909090909091 -0.2525252525252522,-4.191919191919193 -0.2525252525252522,-4.292929292929293 -0.2525252525252522,-4.393939393939394 -0.2525252525252522,-4.494949494949496 -0.2525252525252522,-4.595959595959596 -0.2525252525252522,-4.696969696969697 -0.2525252525252522,-4.7979797979797985 -0.2525252525252522,-4.898989898989899 -0.2525252525252522,-5.000000000000001" data-type="line" data-label="" points="40.00000000000006,459.5555555555556 49.53535353535369,469.0909090909092 59.07070707070716,478.6262626262627 68.60606060606068,488.1616161616163 78.14141414141426,497.69696969696975 87.67676767676772,507.23232323232327 97.21212121212136,516.7676767676768 106.74747474747483,526.3030303030304 116.28282828282829,535.838383838384 125.81818181818193,545.3737373737374 135.35353535353545,554.909090909091 144.88888888888903,564.4444444444445 154.42424242424255,573.979797979798 163.95959595959607,583.5151515151516 173.4949494949496,593.0505050505051 183.03030303030312,602.5858585858587 192.5656565656567,612.1212121212121 202.10101010101022,621.6565656565657 211.63636363636374,631.1919191919193 221.17171717171726,640.7272727272727 230.70707070707084,650.2626262626263 240.2424242424243,659.7979797979798 249.77777777777783,669.3333333333334 259.3131313131314,678.8686868686868 268.84848484848493,688.4040404040404 278.38383838383845,697.939393939394 287.91919191919203,707.4747474747475 297.4545454545455,717.010101010101 306.9898989898991,726.5454545454545 316.5252525252526,736.0808080808081 326.0606060606061,745.6161616161615 335.59595959595964,755.1515151515151 345.13131313131316,764.6868686868687 354.6666666666667,774.2222222222222 364.2020202020202,783.7575757575758 373.7373737373738,793.2929292929292 383.2727272727273,802.8282828282828 392.80808080808083,812.3636363636363 402.34343434343435,821.8989898989898 411.8787878787879,831.4343434343434 421.4141414141414,840.969696969697 430.949494949495,850.5050505050505 440.4848484848485,860.0404040404039 450.0202020202021,869.5757575757575 459.55555555555554,879.1111111111111 469.09090909090907,888.6464646464647 478.62626262626264,898.1818181818181 488.16161616161617,907.7171717171718 488.16161616161617,917.2525252525252 488.16161616161617,926.7878787878788 488.16161616161617,936.3232323232323 488.16161616161617,945.8585858585858 488.16161616161617,955.3939393939394 488.16161616161617,964.9292929292928 488.16161616161617,974.4646464646464 488.16161616161617,984" fill="none" stroke="rgba(255,0,0,0.75)" stroke-width="14.159999999999995"/></g><g><polyline data-points="-5.000000000000001,-2.474747474747474 -5.000000000000001,-2.5757575757575752 -5.000000000000001,-2.6767676767676765 -5.000000000000001,-2.7777777777777777 -5.000000000000001,-2.8787878787878785 -5.000000000000001,-2.9797979797979792 -5.000000000000001,-3.0808080808080804 -5.000000000000001,-3.1818181818181817 -5.000000000000001,-3.2828282828282824 -5.000000000000001,-3.383838383838383 -5.000000000000001,-3.484848484848485 -5.000000000000001,-3.5858585858585856 -5.000000000000001,-3.6868686868686864 -5.000000000000001,-3.7878787878787876 -5.000000000000001,-3.8888888888888884 -5.000000000000001,-3.98989898989899 -5.000000000000001,-4.090909090909091 -5.000000000000001,-4.191919191919193 -5.000000000000001,-4.292929292929293 -5.000000000000001,-4.393939393939394 -5.000000000000001,-4.494949494949496 -5.000000000000001,-4.595959595959596 -5.000000000000001,-4.696969696969697 -5.000000000000001,-4.7979797979797985 -5.000000000000001,-4.898989898989899 -5.000000000000001,-5.000000000000001" data-type="line" data-label="" points="40.00000000000006,745.6161616161615 40.00000000000006,755.1515151515151 40.00000000000006,764.6868686868687 40.00000000000006,774.2222222222222 40.00000000000006,783.7575757575758 40.00000000000006,793.2929292929292 40.00000000000006,802.8282828282828 40.00000000000006,812.3636363636363 40.00000000000006,821.8989898989898 40.00000000000006,831.4343434343434 40.00000000000006,840.969696969697 40.00000000000006,850.5050505050505 40.00000000000006,860.0404040404039 40.00000000000006,869.5757575757575 40.00000000000006,879.1111111111111 40.00000000000006,888.6464646464647 40.00000000000006,898.1818181818181 40.00000000000006,907.7171717171718 40.00000000000006,917.2525252525252 40.00000000000006,926.7878787878788 40.00000000000006,936.3232323232323 40.00000000000006,945.8585858585858 40.00000000000006,955.3939393939394 40.00000000000006,964.9292929292928 40.00000000000006,974.4646464646464 40.00000000000006,984" fill="none" stroke="rgba(255,0,0,0.75)" stroke-width="14.159999999999995"/></g><g><polyline data-points="-5.000000000000001,2.4747474747474754 -4.898989898989899,2.373737373737375 -4.7979797979797985,2.2727272727272734 -4.696969696969697,2.1717171717171726 -4.595959595959596,2.070707070707072 -4.494949494949496,1.9696969696969702 -4.393939393939394,1.8686868686868696 -4.292929292929293,1.767676767676768 -4.191919191919193,1.6666666666666674 -4.090909090909091,1.5656565656565666 -3.98989898989899,1.4646464646464652 -3.8888888888888884,1.3636363636363644 -3.7878787878787876,1.262626262626263 -3.6868686868686864,1.1616161616161622 -3.5858585858585856,1.0606060606060617 -3.484848484848485,0.9595959595959602 -3.383838383838383,0.8585858585858596 -3.2828282828282824,0.7575757575757579 -3.1818181818181817,0.6565656565656574 -3.0808080808080804,0.5555555555555567 -2.9797979797979792,0.4545454545454551" data-type="line" data-label="" points="40.00000000000006,278.38383838383857 49.53535353535369,287.91919191919203 59.07070707070716,297.4545454545456 68.60606060606068,306.9898989898991 78.14141414141426,316.5252525252526 87.67676767676772,326.06060606060623 97.21212121212136,335.5959595959597 106.74747474747483,345.1313131313133 116.28282828282829,354.66666666666674 125.81818181818193,364.2020202020203 135.35353535353545,373.73737373737384 144.88888888888903,383.27272727272737 154.42424242424255,392.80808080808094 163.95959595959607,402.3434343434344 173.4949494949496,411.87878787878793 183.03030303030312,421.4141414141415 192.5656565656567,430.94949494949503 202.10101010101022,440.4848484848486 211.63636363636374,450.0202020202021 221.17171717171726,459.5555555555556 230.70707070707084,469.0909090909092" fill="none" stroke="rgba(0,0,255,0.75)" stroke-width="14.159999999999995"/></g><g><polyline data-points="-2.9797979797979792,0.4545454545454551 -2.8787878787878785,0.3535353535353544 -2.7777777777777777,0.2525252525252529 -2.6767676767676765,0.1515151515151522 -2.5757575757575752,0.050505050505051545 -2.474747474747474,-0.05050505050505001 -2.3737373737373733,-0.15151515151515066 -2.2727272727272725,-0.2525252525252522 -2.1717171717171713,-0.35353535353535287 -2.07070707070707,-0.4545454545454544 -1.9696969696969693,-0.555555555555555 -1.8686868686868683,-0.6565656565656557 -1.7676767676767675,-0.7575757575757572 -1.6666666666666665,-0.8585858585858579 -1.5656565656565653,-0.9595959595959596 -1.4646464646464643,-1.0606060606060603 -1.363636363636363,-1.1616161616161613 -1.2626262626262625,-1.2626262626262625 -1.1616161616161613,-1.363636363636363 -1.0606060606060603,-1.4646464646464643 -0.9595959595959596,-1.5656565656565653 -0.8585858585858579,-1.6666666666666665 -0.7575757575757572,-1.7676767676767675 -0.6565656565656557,-1.8686868686868683 -0.555555555555555,-1.9696969696969693 -0.4545454545454544,-2.07070707070707 -0.35353535353535287,-2.1717171717171713 -0.2525252525252522,-2.2727272727272725 -0.15151515151515066,-2.3737373737373733 -0.05050505050505001,-2.474747474747474 0.050505050505051545,-2.5757575757575752 0.1515151515151522,-2.6767676767676765 0.2525252525252529,-2.7777777777777777 0.3535353535353544,-2.8787878787878785 0.4545454545454551,-2.9797979797979792 0.5555555555555567,-2.9797979797979792 0.6565656565656574,-2.9797979797979792 0.7575757575757579,-2.9797979797979792 0.8585858585858596,-2.9797979797979792 0.9595959595959602,-2.9797979797979792 1.0606060606060617,-2.9797979797979792 1.1616161616161622,-2.9797979797979792 1.262626262626263,-2.9797979797979792 1.3636363636363644,-2.9797979797979792 1.4646464646464652,-2.9797979797979792 1.5656565656565666,-2.9797979797979792 1.6666666666666674,-2.9797979797979792 1.767676767676768,-2.9797979797979792 1.8686868686868696,-2.9797979797979792 1.9696969696969702,-2.9797979797979792 2.070707070707072,-2.9797979797979792 2.1717171717171726,-2.9797979797979792 2.2727272727272734,-2.9797979797979792 2.373737373737375,-2.9797979797979792 2.4747474747474754,-2.9797979797979792 2.575757575757577,-2.9797979797979792 2.676767676767678,-2.9797979797979792 2.7777777777777786,-2.9797979797979792 2.87878787878788,-2.9797979797979792 2.9797979797979806,-2.9797979797979792 3.080808080808082,-2.9797979797979792 3.181818181818183,-2.9797979797979792 3.2828282828282833,-2.9797979797979792 3.383838383838384,-2.9797979797979792 3.4848484848484866,-2.9797979797979792 3.5858585858585874,-2.9797979797979792 3.6868686868686877,-2.9797979797979792 3.7878787878787885,-2.9797979797979792 3.8888888888888893,-2.9797979797979792 3.989898989898992,-2.9797979797979792" data-type="line" data-label="" points="230.70707070707084,469.0909090909092 240.2424242424243,478.6262626262627 249.77777777777783,488.1616161616163 259.3131313131314,497.69696969696975 268.84848484848493,507.23232323232327 278.38383838383845,516.7676767676768 287.91919191919203,526.3030303030304 297.4545454545455,535.838383838384 306.9898989898991,545.3737373737374 316.5252525252526,554.909090909091 326.0606060606061,564.4444444444445 335.59595959595964,573.979797979798 345.13131313131316,583.5151515151516 354.6666666666667,593.0505050505051 364.2020202020202,602.5858585858587 373.7373737373738,612.1212121212121 383.2727272727273,621.6565656565657 392.80808080808083,631.1919191919193 402.34343434343435,640.7272727272727 411.8787878787879,650.2626262626263 421.4141414141414,659.7979797979798 430.949494949495,669.3333333333334 440.4848484848485,678.8686868686868 450.0202020202021,688.4040404040404 459.55555555555554,697.939393939394 469.09090909090907,707.4747474747475 478.62626262626264,717.010101010101 488.16161616161617,726.5454545454545 497.69696969696975,736.0808080808081 507.2323232323232,745.6161616161615 516.7676767676768,755.1515151515151 526.3030303030303,764.6868686868687 535.8383838383838,774.2222222222222 545.3737373737374,783.7575757575758 554.9090909090909,793.2929292929292 564.4444444444445,793.2929292929292 573.9797979797979,793.2929292929292 583.5151515151515,793.2929292929292 593.0505050505051,793.2929292929292 602.5858585858585,793.2929292929292 612.1212121212121,793.2929292929292 621.6565656565656,793.2929292929292 631.1919191919192,793.2929292929292 640.7272727272727,793.2929292929292 650.2626262626262,793.2929292929292 659.7979797979798,793.2929292929292 669.3333333333333,793.2929292929292 678.8686868686868,793.2929292929292 688.4040404040404,793.2929292929292 697.9393939393939,793.2929292929292 707.4747474747475,793.2929292929292 717.0101010101009,793.2929292929292 726.5454545454545,793.2929292929292 736.0808080808081,793.2929292929292 745.6161616161615,793.2929292929292 755.1515151515151,793.2929292929292 764.6868686868686,793.2929292929292 774.2222222222222,793.2929292929292 783.7575757575758,793.2929292929292 793.2929292929292,793.2929292929292 802.8282828282828,793.2929292929292 812.3636363636363,793.2929292929292 821.8989898989898,793.2929292929292 831.4343434343433,793.2929292929292 840.969696969697,793.2929292929292 850.5050505050505,793.2929292929292 860.0404040404039,793.2929292929292 869.5757575757575,793.2929292929292 879.111111111111,793.2929292929292 888.6464646464647,793.2929292929292" fill="none" stroke="rgba(255,0,0,0.75)" stroke-width="14.159999999999995"/></g><g><polyline data-points="3.989898989898992,-2.9797979797979792 4.090909090909092,-2.9797979797979792 4.191919191919193,-2.9797979797979792 4.292929292929293,-2.9797979797979792 4.393939393939394,-2.9797979797979792 4.494949494949497,-2.9797979797979792 4.595959595959597,-2.9797979797979792 4.696969696969697,-2.9797979797979792 4.7979797979797985,-2.9797979797979792 4.898989898989901,-2.9797979797979792 5.000000000000002,-2.9797979797979792" data-type="line" data-label="" points="888.6464646464647,793.2929292929292 898.181818181818,793.2929292929292 907.7171717171716,793.2929292929292 917.2525252525251,793.2929292929292 926.7878787878785,793.2929292929292 936.3232323232323,793.2929292929292 945.8585858585857,793.2929292929292 955.3939393939393,793.2929292929292 964.9292929292927,793.2929292929292 974.4646464646464,793.2929292929292 984,793.2929292929292" fill="none" stroke="rgba(0,0,255,0.75)" stroke-width="14.159999999999995"/></g><g><polyline data-points="4.393939393939394,-5.000000000000001 4.292929292929293,-4.898989898989899 4.191919191919193,-4.7979797979797985 4.090909090909092,-4.696969696969697 3.989898989898992,-4.595959595959596 3.8888888888888893,-4.494949494949496 3.7878787878787885,-4.393939393939394 3.6868686868686877,-4.292929292929293 3.5858585858585874,-4.191919191919193 3.4848484848484866,-4.090909090909091 3.383838383838384,-3.98989898989899 3.2828282828282833,-3.8888888888888884 3.181818181818183,-3.7878787878787876 3.080808080808082,-3.6868686868686864 2.9797979797979806,-3.5858585858585856 2.87878787878788,-3.484848484848485 2.7777777777777786,-3.383838383838383 2.676767676767678,-3.2828282828282824 2.575757575757577,-3.1818181818181817 2.4747474747474754,-3.0808080808080804 2.373737373737375,-2.9797979797979792 2.2727272727272734,-2.8787878787878785 2.1717171717171726,-2.7777777777777777 2.070707070707072,-2.6767676767676765 1.9696969696969702,-2.5757575757575752 1.8686868686868696,-2.474747474747474 1.767676767676768,-2.3737373737373733 1.767676767676768,-2.2727272727272725 1.767676767676768,-2.1717171717171713 1.767676767676768,-2.07070707070707 1.767676767676768,-1.9696969696969693 1.767676767676768,-1.8686868686868683 1.767676767676768,-1.7676767676767675 1.767676767676768,-1.6666666666666665 1.767676767676768,-1.5656565656565653 1.767676767676768,-1.4646464646464643 1.767676767676768,-1.363636363636363 1.767676767676768,-1.2626262626262625 1.767676767676768,-1.1616161616161613 1.767676767676768,-1.0606060606060603 1.767676767676768,-0.9595959595959596 1.767676767676768,-0.8585858585858579 1.767676767676768,-0.7575757575757572 1.767676767676768,-0.6565656565656557 1.767676767676768,-0.555555555555555 1.767676767676768,-0.4545454545454544 1.767676767676768,-0.35353535353535287 1.767676767676768,-0.2525252525252522 1.767676767676768,-0.15151515151515066 1.767676767676768,-0.05050505050505001 1.767676767676768,0.050505050505051545 1.767676767676768,0.1515151515151522 1.767676767676768,0.2525252525252529 1.767676767676768,0.3535353535353544 1.767676767676768,0.4545454545454551 1.767676767676768,0.5555555555555567 1.767676767676768,0.6565656565656574 1.767676767676768,0.7575757575757579 1.767676767676768,0.8585858585858596 1.767676767676768,0.9595959595959602 1.767676767676768,1.0606060606060617 1.767676767676768,1.1616161616161622 1.767676767676768,1.262626262626263 1.767676767676768,1.3636363636363644 1.767676767676768,1.4646464646464652 1.767676767676768,1.5656565656565666 1.767676767676768,1.6666666666666674 1.767676767676768,1.767676767676768 1.767676767676768,1.8686868686868696 1.767676767676768,1.9696969696969702 1.767676767676768,2.070707070707072 1.767676767676768,2.1717171717171726 1.767676767676768,2.2727272727272734 1.767676767676768,2.373737373737375 1.767676767676768,2.4747474747474754 1.767676767676768,2.575757575757577 1.767676767676768,2.676767676767678 1.767676767676768,2.7777777777777786 1.767676767676768,2.87878787878788 1.767676767676768,2.9797979797979806 1.767676767676768,3.080808080808082 1.767676767676768,3.181818181818183 1.767676767676768,3.2828282828282833 1.767676767676768,3.383838383838384 1.767676767676768,3.4848484848484866 1.767676767676768,3.5858585858585874" data-type="line" data-label="" points="926.7878787878785,984 917.2525252525251,974.4646464646464 907.7171717171716,964.9292929292928 898.181818181818,955.3939393939394 888.6464646464647,945.8585858585858 879.111111111111,936.3232323232323 869.5757575757575,926.7878787878788 860.0404040404039,917.2525252525252 850.5050505050505,907.7171717171718 840.969696969697,898.1818181818181 831.4343434343433,888.6464646464647 821.8989898989898,879.1111111111111 812.3636363636363,869.5757575757575 802.8282828282828,860.0404040404039 793.2929292929292,850.5050505050505 783.7575757575758,840.969696969697 774.2222222222222,831.4343434343434 764.6868686868686,821.8989898989898 755.1515151515151,812.3636363636363 745.6161616161615,802.8282828282828 736.0808080808081,793.2929292929292 726.5454545454545,783.7575757575758 717.0101010101009,774.2222222222222 707.4747474747475,764.6868686868687 697.9393939393939,755.1515151515151 688.4040404040404,745.6161616161615 678.8686868686868,736.0808080808081 678.8686868686868,726.5454545454545 678.8686868686868,717.010101010101 678.8686868686868,707.4747474747475 678.8686868686868,697.939393939394 678.8686868686868,688.4040404040404 678.8686868686868,678.8686868686868 678.8686868686868,669.3333333333334 678.8686868686868,659.7979797979798 678.8686868686868,650.2626262626263 678.8686868686868,640.7272727272727 678.8686868686868,631.1919191919193 678.8686868686868,621.6565656565657 678.8686868686868,612.1212121212121 678.8686868686868,602.5858585858587 678.8686868686868,593.0505050505051 678.8686868686868,583.5151515151516 678.8686868686868,573.979797979798 678.8686868686868,564.4444444444445 678.8686868686868,554.909090909091 678.8686868686868,545.3737373737374 678.8686868686868,535.838383838384 678.8686868686868,526.3030303030304 678.8686868686868,516.7676767676768 678.8686868686868,507.23232323232327 678.8686868686868,497.69696969696975 678.8686868686868,488.1616161616163 678.8686868686868,478.6262626262627 678.8686868686868,469.0909090909092 678.8686868686868,459.5555555555556 678.8686868686868,450.0202020202021 678.8686868686868,440.4848484848486 678.8686868686868,430.94949494949503 678.8686868686868,421.4141414141415 678.8686868686868,411.87878787878793 678.8686868686868,402.3434343434344 678.8686868686868,392.80808080808094 678.8686868686868,383.27272727272737 678.8686868686868,373.73737373737384 678.8686868686868,364.2020202020203 678.8686868686868,354.66666666666674 678.8686868686868,345.1313131313133 678.8686868686868,335.5959595959597 678.8686868686868,326.06060606060623 678.8686868686868,316.5252525252526 678.8686868686868,306.9898989898991 678.8686868686868,297.4545454545456 678.8686868686868,287.91919191919203 678.8686868686868,278.38383838383857 678.8686868686868,268.84848484848493 678.8686868686868,259.3131313131314 678.8686868686868,249.77777777777794 678.8686868686868,240.24242424242436 678.8686868686868,230.70707070707084 678.8686868686868,221.17171717171726 678.8686868686868,211.63636363636374 678.8686868686868,202.10101010101027 678.8686868686868,192.56565656565675 678.8686868686868,183.03030303030312 678.8686868686868,173.4949494949496" fill="none" stroke="rgba(0,0,255,0.75)" stroke-width="14.159999999999995"/></g><g><polyline data-points="1.767676767676768,3.5858585858585874 1.6666666666666674,3.6868686868686877 1.5656565656565666,3.7878787878787885 1.4646464646464652,3.8888888888888893 1.3636363636363644,3.989898989898992 1.262626262626263,4.090909090909092 1.1616161616161622,4.191919191919193 1.0606060606060617,4.292929292929293 1.0606060606060617,4.393939393939394 1.0606060606060617,4.494949494949497 1.0606060606060617,4.595959595959597 1.0606060606060617,4.696969696969697 1.0606060606060617,4.7979797979797985 1.0606060606060617,4.898989898989901 1.0606060606060617,5.000000000000002" data-type="line" data-label="" points="678.8686868686868,173.4949494949496 669.3333333333333,163.95959595959613 659.7979797979798,154.4242424242426 650.2626262626262,144.88888888888908 640.7272727272727,135.35353535353545 631.1919191919192,125.81818181818198 621.6565656565656,116.28282828282846 612.1212121212121,106.747474747475 612.1212121212121,97.21212121212153 612.1212121212121,87.67676767676778 612.1212121212121,78.14141414141432 612.1212121212121,68.60606060606085 612.1212121212121,59.07070707070733 612.1212121212121,49.53535353535369 612.1212121212121,40.000000000000114" fill="none" stroke="rgba(255,0,0,0.75)" stroke-width="14.159999999999995"/></g><g><polyline data-points="5.000000000000002,1.5656565656565666 4.898989898989901,1.4646464646464652 4.7979797979797985,1.3636363636363644 4.696969696969697,1.3636363636363644 4.595959595959597,1.3636363636363644 4.494949494949497,1.3636363636363644 4.393939393939394,1.3636363636363644 4.292929292929293,1.3636363636363644 4.191919191919193,1.3636363636363644 4.090909090909092,1.3636363636363644 3.989898989898992,1.3636363636363644" data-type="line" data-label="" points="984,364.2020202020203 974.4646464646464,373.73737373737384 964.9292929292927,383.27272727272737 955.3939393939393,383.27272727272737 945.8585858585857,383.27272727272737 936.3232323232323,383.27272727272737 926.7878787878785,383.27272727272737 917.2525252525251,383.27272727272737 907.7171717171716,383.27272727272737 898.181818181818,383.27272727272737 888.6464646464647,383.27272727272737" fill="none" stroke="rgba(255,0,0,0.75)" stroke-width="14.159999999999995"/></g><g><polyline data-points="3.989898989898992,1.3636363636363644 3.8888888888888893,1.262626262626263 3.7878787878787885,1.1616161616161622 3.6868686868686877,1.0606060606060617 3.5858585858585874,0.9595959595959602 3.4848484848484866,0.8585858585858596 3.383838383838384,0.7575757575757579 3.2828282828282833,0.6565656565656574 3.181818181818183,0.5555555555555567 3.080808080808082,0.4545454545454551 2.9797979797979806,0.3535353535353544 2.87878787878788,0.2525252525252529 2.7777777777777786,0.1515151515151522 2.676767676767678,0.050505050505051545 2.575757575757577,-0.05050505050505001 2.4747474747474754,-0.15151515151515066 2.373737373737375,-0.2525252525252522 2.373737373737375,-0.35353535353535287 2.373737373737375,-0.4545454545454544 2.373737373737375,-0.555555555555555 2.373737373737375,-0.6565656565656557 2.373737373737375,-0.7575757575757572 2.373737373737375,-0.8585858585858579 2.373737373737375,-0.9595959595959596 2.373737373737375,-1.0606060606060603 2.373737373737375,-1.1616161616161613 2.373737373737375,-1.2626262626262625 2.373737373737375,-1.363636363636363" data-type="line" data-label="" points="888.6464646464647,383.27272727272737 879.111111111111,392.80808080808094 869.5757575757575,402.3434343434344 860.0404040404039,411.87878787878793 850.5050505050505,421.4141414141415 840.969696969697,430.94949494949503 831.4343434343433,440.4848484848486 821.8989898989898,450.0202020202021 812.3636363636363,459.5555555555556 802.8282828282828,469.0909090909092 793.2929292929292,478.6262626262627 783.7575757575758,488.1616161616163 774.2222222222222,497.69696969696975 764.6868686868686,507.23232323232327 755.1515151515151,516.7676767676768 745.6161616161615,526.3030303030304 736.0808080808081,535.838383838384 736.0808080808081,545.3737373737374 736.0808080808081,554.909090909091 736.0808080808081,564.4444444444445 736.0808080808081,573.979797979798 736.0808080808081,583.5151515151516 736.0808080808081,593.0505050505051 736.0808080808081,602.5858585858587 736.0808080808081,612.1212121212121 736.0808080808081,621.6565656565657 736.0808080808081,631.1919191919193 736.0808080808081,640.7272727272727" fill="none" stroke="rgba(0,0,255,0.75)" stroke-width="14.159999999999995"/></g><g><polyline data-points="2.373737373737375,-1.363636363636363 2.2727272727272734,-1.4646464646464643 2.1717171717171726,-1.5656565656565653 2.070707070707072,-1.6666666666666665 1.9696969696969702,-1.7676767676767675 1.8686868686868696,-1.7676767676767675 1.767676767676768,-1.7676767676767675 1.6666666666666674,-1.7676767676767675 1.5656565656565666,-1.7676767676767675 1.4646464646464652,-1.7676767676767675 1.3636363636363644,-1.7676767676767675 1.262626262626263,-1.7676767676767675 1.1616161616161622,-1.7676767676767675 1.0606060606060617,-1.7676767676767675 0.9595959595959602,-1.7676767676767675 0.8585858585858596,-1.7676767676767675 0.7575757575757579,-1.7676767676767675 0.6565656565656574,-1.7676767676767675 0.5555555555555567,-1.7676767676767675 0.4545454545454551,-1.7676767676767675 0.3535353535353544,-1.7676767676767675 0.2525252525252529,-1.7676767676767675 0.1515151515151522,-1.7676767676767675 0.050505050505051545,-1.7676767676767675" data-type="line" data-label="" points="736.0808080808081,640.7272727272727 726.5454545454545,650.2626262626263 717.0101010101009,659.7979797979798 707.4747474747475,669.3333333333334 697.9393939393939,678.8686868686868 688.4040404040404,678.8686868686868 678.8686868686868,678.8686868686868 669.3333333333333,678.8686868686868 659.7979797979798,678.8686868686868 650.2626262626262,678.8686868686868 640.7272727272727,678.8686868686868 631.1919191919192,678.8686868686868 621.6565656565656,678.8686868686868 612.1212121212121,678.8686868686868 602.5858585858585,678.8686868686868 593.0505050505051,678.8686868686868 583.5151515151515,678.8686868686868 573.9797979797979,678.8686868686868 564.4444444444445,678.8686868686868 554.9090909090909,678.8686868686868 545.3737373737374,678.8686868686868 535.8383838383838,678.8686868686868 526.3030303030303,678.8686868686868 516.7676767676768,678.8686868686868" fill="none" stroke="rgba(255,0,0,0.75)" stroke-width="14.159999999999995"/></g><g><polyline data-points="0.050505050505051545,-1.7676767676767675 -0.05050505050505001,-1.7676767676767675 -0.15151515151515066,-1.7676767676767675 -0.2525252525252522,-1.7676767676767675 -0.35353535353535287,-1.7676767676767675 -0.4545454545454544,-1.7676767676767675 -0.555555555555555,-1.7676767676767675 -0.6565656565656557,-1.7676767676767675 -0.7575757575757572,-1.7676767676767675 -0.8585858585858579,-1.7676767676767675 -0.9595959595959596,-1.7676767676767675 -1.0606060606060603,-1.7676767676767675 -1.1616161616161613,-1.7676767676767675 -1.2626262626262625,-1.7676767676767675 -1.363636363636363,-1.7676767676767675 -1.4646464646464643,-1.7676767676767675 -1.5656565656565653,-1.7676767676767675 -1.6666666666666665,-1.7676767676767675 -1.7676767676767675,-1.7676767676767675 -1.8686868686868683,-1.7676767676767675 -1.9696969696969693,-1.7676767676767675 -2.07070707070707,-1.7676767676767675 -2.1717171717171713,-1.7676767676767675 -2.2727272727272725,-1.7676767676767675 -2.3737373737373733,-1.7676767676767675 -2.474747474747474,-1.7676767676767675 -2.5757575757575752,-1.7676767676767675 -2.6767676767676765,-1.7676767676767675 -2.7777777777777777,-1.7676767676767675 -2.8787878787878785,-1.7676767676767675 -2.9797979797979792,-1.7676767676767675 -3.0808080808080804,-1.7676767676767675 -3.1818181818181817,-1.7676767676767675 -3.2828282828282824,-1.7676767676767675 -3.383838383838383,-1.7676767676767675 -3.484848484848485,-1.7676767676767675" data-type="line" data-label="" points="516.7676767676768,678.8686868686868 507.2323232323232,678.8686868686868 497.69696969696975,678.8686868686868 488.16161616161617,678.8686868686868 478.62626262626264,678.8686868686868 469.09090909090907,678.8686868686868 459.55555555555554,678.8686868686868 450.0202020202021,678.8686868686868 440.4848484848485,678.8686868686868 430.949494949495,678.8686868686868 421.4141414141414,678.8686868686868 411.8787878787879,678.8686868686868 402.34343434343435,678.8686868686868 392.80808080808083,678.8686868686868 383.2727272727273,678.8686868686868 373.7373737373738,678.8686868686868 364.2020202020202,678.8686868686868 354.6666666666667,678.8686868686868 345.13131313131316,678.8686868686868 335.59595959595964,678.8686868686868 326.0606060606061,678.8686868686868 316.5252525252526,678.8686868686868 306.9898989898991,678.8686868686868 297.4545454545455,678.8686868686868 287.91919191919203,678.8686868686868 278.38383838383845,678.8686868686868 268.84848484848493,678.8686868686868 259.3131313131314,678.8686868686868 249.77777777777783,678.8686868686868 240.2424242424243,678.8686868686868 230.70707070707084,678.8686868686868 221.17171717171726,678.8686868686868 211.63636363636374,678.8686868686868 202.10101010101022,678.8686868686868 192.5656565656567,678.8686868686868 183.03030303030312,678.8686868686868" fill="none" stroke="rgba(0,0,255,0.75)" stroke-width="14.159999999999995"/></g><g><polyline data-points="-3.484848484848485,-1.7676767676767675 -3.5858585858585856,-1.7676767676767675 -3.6868686868686864,-1.7676767676767675 -3.7878787878787876,-1.7676767676767675 -3.8888888888888884,-1.7676767676767675 -3.98989898989899,-1.7676767676767675 -4.090909090909091,-1.7676767676767675 -4.191919191919193,-1.7676767676767675 -4.292929292929293,-1.7676767676767675 -4.393939393939394,-1.7676767676767675 -4.494949494949496,-1.7676767676767675 -4.595959595959596,-1.7676767676767675 -4.696969696969697,-1.7676767676767675 -4.7979797979797985,-1.7676767676767675 -4.898989898989899,-1.7676767676767675 -5.000000000000001,-1.7676767676767675" data-type="line" data-label="" points="183.03030303030312,678.8686868686868 173.4949494949496,678.8686868686868 163.95959595959607,678.8686868686868 154.42424242424255,678.8686868686868 144.88888888888903,678.8686868686868 135.35353535353545,678.8686868686868 125.81818181818193,678.8686868686868 116.28282828282829,678.8686868686868 106.74747474747483,678.8686868686868 97.21212121212136,678.8686868686868 87.67676767676772,678.8686868686868 78.14141414141426,678.8686868686868 68.60606060606068,678.8686868686868 59.07070707070716,678.8686868686868 49.53535353535369,678.8686868686868 40.00000000000006,678.8686868686868" fill="none" stroke="rgba(255,0,0,0.75)" stroke-width="14.159999999999995"/></g><g><polyline data-points="1.1616161616161622,-5.000000000000001 1.1616161616161622,-4.898989898989899 1.1616161616161622,-4.7979797979797985 1.1616161616161622,-4.696969696969697 1.1616161616161622,-4.595959595959596 1.1616161616161622,-4.494949494949496 1.1616161616161622,-4.393939393939394 1.1616161616161622,-4.292929292929293 1.1616161616161622,-4.191919191919193 1.1616161616161622,-4.090909090909091 1.1616161616161622,-3.98989898989899 1.1616161616161622,-3.8888888888888884 1.1616161616161622,-3.7878787878787876 1.1616161616161622,-3.6868686868686864 1.1616161616161622,-3.5858585858585856 1.1616161616161622,-3.484848484848485 1.1616161616161622,-3.383838383838383 1.1616161616161622,-3.2828282828282824 1.1616161616161622,-3.1818181818181817 1.1616161616161622,-3.0808080808080804 1.1616161616161622,-2.9797979797979792 1.1616161616161622,-2.8787878787878785 1.1616161616161622,-2.7777777777777777 1.1616161616161622,-2.6767676767676765 1.1616161616161622,-2.5757575757575752 1.1616161616161622,-2.474747474747474 1.1616161616161622,-2.3737373737373733 1.1616161616161622,-2.2727272727272725 1.1616161616161622,-2.1717171717171713 1.1616161616161622,-2.07070707070707 1.1616161616161622,-1.9696969696969693 1.1616161616161622,-1.8686868686868683 1.1616161616161622,-1.7676767676767675 1.1616161616161622,-1.6666666666666665 1.1616161616161622,-1.5656565656565653 1.1616161616161622,-1.4646464646464643 1.1616161616161622,-1.363636363636363 1.1616161616161622,-1.2626262626262625 1.1616161616161622,-1.1616161616161613 1.1616161616161622,-1.0606060606060603 1.1616161616161622,-0.9595959595959596 1.1616161616161622,-0.8585858585858579 1.1616161616161622,-0.7575757575757572 1.1616161616161622,-0.6565656565656557 1.1616161616161622,-0.555555555555555 1.1616161616161622,-0.4545454545454544 1.1616161616161622,-0.35353535353535287 1.1616161616161622,-0.2525252525252522 1.1616161616161622,-0.15151515151515066 1.1616161616161622,-0.05050505050505001 1.1616161616161622,0.050505050505051545 1.1616161616161622,0.1515151515151522 1.1616161616161622,0.2525252525252529 1.1616161616161622,0.3535353535353544 1.1616161616161622,0.4545454545454551 1.1616161616161622,0.5555555555555567 1.1616161616161622,0.6565656565656574 1.1616161616161622,0.7575757575757579 1.1616161616161622,0.8585858585858596 1.1616161616161622,0.9595959595959602" data-type="line" data-label="" points="621.6565656565656,984 621.6565656565656,974.4646464646464 621.6565656565656,964.9292929292928 621.6565656565656,955.3939393939394 621.6565656565656,945.8585858585858 621.6565656565656,936.3232323232323 621.6565656565656,926.7878787878788 621.6565656565656,917.2525252525252 621.6565656565656,907.7171717171718 621.6565656565656,898.1818181818181 621.6565656565656,888.6464646464647 621.6565656565656,879.1111111111111 621.6565656565656,869.5757575757575 621.6565656565656,860.0404040404039 621.6565656565656,850.5050505050505 621.6565656565656,840.969696969697 621.6565656565656,831.4343434343434 621.6565656565656,821.8989898989898 621.6565656565656,812.3636363636363 621.6565656565656,802.8282828282828 621.6565656565656,793.2929292929292 621.6565656565656,783.7575757575758 621.6565656565656,774.2222222222222 621.6565656565656,764.6868686868687 621.6565656565656,755.1515151515151 621.6565656565656,745.6161616161615 621.6565656565656,736.0808080808081 621.6565656565656,726.5454545454545 621.6565656565656,717.010101010101 621.6565656565656,707.4747474747475 621.6565656565656,697.939393939394 621.6565656565656,688.4040404040404 621.6565656565656,678.8686868686868 621.6565656565656,669.3333333333334 621.6565656565656,659.7979797979798 621.6565656565656,650.2626262626263 621.6565656565656,640.7272727272727 621.6565656565656,631.1919191919193 621.6565656565656,621.6565656565657 621.6565656565656,612.1212121212121 621.6565656565656,602.5858585858587 621.6565656565656,593.0505050505051 621.6565656565656,583.5151515151516 621.6565656565656,573.979797979798 621.6565656565656,564.4444444444445 621.6565656565656,554.909090909091 621.6565656565656,545.3737373737374 621.6565656565656,535.838383838384 621.6565656565656,526.3030303030304 621.6565656565656,516.7676767676768 621.6565656565656,507.23232323232327 621.6565656565656,497.69696969696975 621.6565656565656,488.1616161616163 621.6565656565656,478.6262626262627 621.6565656565656,469.0909090909092 621.6565656565656,459.5555555555556 621.6565656565656,450.0202020202021 621.6565656565656,440.4848484848486 621.6565656565656,430.94949494949503 621.6565656565656,421.4141414141415" fill="none" stroke="rgba(0,0,255,0.75)" stroke-width="14.159999999999995"/></g><g><polyline data-points="1.1616161616161622,0.9595959595959602 1.262626262626263,1.0606060606060617 1.3636363636363644,1.1616161616161622 1.4646464646464652,1.1616161616161622 1.5656565656565666,1.1616161616161622 1.6666666666666674,1.1616161616161622 1.767676767676768,1.1616161616161622 1.8686868686868696,1.1616161616161622 1.9696969696969702,1.1616161616161622 2.070707070707072,1.1616161616161622 2.1717171717171726,1.1616161616161622 2.2727272727272734,1.1616161616161622 2.373737373737375,1.1616161616161622 2.4747474747474754,1.1616161616161622" data-type="line" data-label="" points="621.6565656565656,421.4141414141415 631.1919191919192,411.87878787878793 640.7272727272727,402.3434343434344 650.2626262626262,402.3434343434344 659.7979797979798,402.3434343434344 669.3333333333333,402.3434343434344 678.8686868686868,402.3434343434344 688.4040404040404,402.3434343434344 697.9393939393939,402.3434343434344 707.4747474747475,402.3434343434344 717.0101010101009,402.3434343434344 726.5454545454545,402.3434343434344 736.0808080808081,402.3434343434344 745.6161616161615,402.3434343434344" fill="none" stroke="rgba(255,0,0,0.75)" stroke-width="14.159999999999995"/></g><g><polyline data-points="2.4747474747474754,1.1616161616161622 2.575757575757577,1.262626262626263 2.676767676767678,1.3636363636363644 2.7777777777777786,1.4646464646464652 2.87878787878788,1.5656565656565666 2.9797979797979806,1.6666666666666674 3.080808080808082,1.767676767676768 3.181818181818183,1.8686868686868696 3.2828282828282833,1.9696969696969702 3.383838383838384,2.070707070707072 3.4848484848484866,2.1717171717171726 3.5858585858585874,2.2727272727272734 3.6868686868686877,2.373737373737375 3.7878787878787885,2.4747474747474754 3.8888888888888893,2.575757575757577 3.989898989898992,2.676767676767678 4.090909090909092,2.7777777777777786 4.191919191919193,2.87878787878788 4.292929292929293,2.9797979797979806 4.393939393939394,3.080808080808082 4.494949494949497,3.181818181818183 4.595959595959597,3.2828282828282833 4.696969696969697,3.383838383838384 4.696969696969697,3.4848484848484866 4.696969696969697,3.5858585858585874 4.696969696969697,3.6868686868686877 4.696969696969697,3.7878787878787885 4.696969696969697,3.8888888888888893 4.696969696969697,3.989898989898992 4.696969696969697,4.090909090909092 4.696969696969697,4.191919191919193 4.696969696969697,4.292929292929293 4.696969696969697,4.393939393939394 4.696969696969697,4.494949494949497 4.696969696969697,4.595959595959597 4.696969696969697,4.696969696969697 4.696969696969697,4.7979797979797985 4.696969696969697,4.898989898989901 4.696969696969697,5.000000000000002" data-type="line" data-label="" points="745.6161616161615,402.3434343434344 755.1515151515151,392.80808080808094 764.6868686868686,383.27272727272737 774.2222222222222,373.73737373737384 783.7575757575758,364.2020202020203 793.2929292929292,354.66666666666674 802.8282828282828,345.1313131313133 812.3636363636363,335.5959595959597 821.8989898989898,326.06060606060623 831.4343434343433,316.5252525252526 840.969696969697,306.9898989898991 850.5050505050505,297.4545454545456 860.0404040404039,287.91919191919203 869.5757575757575,278.38383838383857 879.111111111111,268.84848484848493 888.6464646464647,259.3131313131314 898.181818181818,249.77777777777794 907.7171717171716,240.24242424242436 917.2525252525251,230.70707070707084 926.7878787878785,221.17171717171726 936.3232323232323,211.63636363636374 945.8585858585857,202.10101010101027 955.3939393939393,192.56565656565675 955.3939393939393,183.03030303030312 955.3939393939393,173.4949494949496 955.3939393939393,163.95959595959613 955.3939393939393,154.4242424242426 955.3939393939393,144.88888888888908 955.3939393939393,135.35353535353545 955.3939393939393,125.81818181818198 955.3939393939393,116.28282828282846 955.3939393939393,106.747474747475 955.3939393939393,97.21212121212153 955.3939393939393,87.67676767676778 955.3939393939393,78.14141414141432 955.3939393939393,68.60606060606085 955.3939393939393,59.07070707070733 955.3939393939393,49.53535353535369 955.3939393939393,40.000000000000114" fill="none" stroke="rgba(0,0,255,0.75)" stroke-width="14.159999999999995"/></g><g><polyline data-points="3.080808080808082,5.000000000000002 2.9797979797979806,4.898989898989901 2.87878787878788,4.7979797979797985 2.7777777777777786,4.696969696969697 2.676767676767678,4.595959595959597 2.575757575757577,4.494949494949497 2.4747474747474754,4.393939393939394 2.4747474747474754,4.292929292929293 2.4747474747474754,4.191919191919193 2.4747474747474754,4.090909090909092 2.4747474747474754,3.989898989898992" data-type="line" data-label="" points="802.8282828282828,40.000000000000114 793.2929292929292,49.53535353535369 783.7575757575758,59.07070707070733 774.2222222222222,68.60606060606085 764.6868686868686,78.14141414141432 755.1515151515151,87.67676767676778 745.6161616161615,97.21212121212153 745.6161616161615,106.747474747475 745.6161616161615,116.28282828282846 745.6161616161615,125.81818181818198 745.6161616161615,135.35353535353545" fill="none" stroke="rgba(255,0,0,0.75)" stroke-width="14.159999999999995"/></g><g><polyline data-points="2.4747474747474754,3.989898989898992 2.373737373737375,4.090909090909092 2.2727272727272734,4.090909090909092 2.1717171717171726,4.090909090909092 2.070707070707072,4.090909090909092 1.9696969696969702,4.090909090909092 1.8686868686868696,4.090909090909092 1.767676767676768,4.090909090909092 1.6666666666666674,4.191919191919193 1.5656565656565666,4.292929292929293 1.4646464646464652,4.393939393939394 1.3636363636363644,4.393939393939394 1.262626262626263,4.393939393939394 1.1616161616161622,4.393939393939394 1.0606060606060617,4.393939393939394 0.9595959595959602,4.393939393939394 0.8585858585858596,4.393939393939394 0.7575757575757579,4.393939393939394 0.6565656565656574,4.393939393939394 0.5555555555555567,4.393939393939394 0.4545454545454551,4.393939393939394 0.3535353535353544,4.393939393939394 0.2525252525252529,4.393939393939394 0.1515151515151522,4.393939393939394 0.050505050505051545,4.393939393939394 -0.05050505050505001,4.393939393939394 -0.15151515151515066,4.393939393939394 -0.2525252525252522,4.393939393939394 -0.35353535353535287,4.393939393939394 -0.4545454545454544,4.393939393939394 -0.555555555555555,4.393939393939394 -0.6565656565656557,4.393939393939394 -0.7575757575757572,4.393939393939394 -0.8585858585858579,4.393939393939394 -0.9595959595959596,4.393939393939394 -1.0606060606060603,4.393939393939394 -1.1616161616161613,4.292929292929293 -1.2626262626262625,4.191919191919193 -1.363636363636363,4.090909090909092 -1.4646464646464643,3.989898989898992" data-type="line" data-label="" points="745.6161616161615,135.35353535353545 736.0808080808081,125.81818181818198 726.5454545454545,125.81818181818198 717.0101010101009,125.81818181818198 707.4747474747475,125.81818181818198 697.9393939393939,125.81818181818198 688.4040404040404,125.81818181818198 678.8686868686868,125.81818181818198 669.3333333333333,116.28282828282846 659.7979797979798,106.747474747475 650.2626262626262,97.21212121212153 640.7272727272727,97.21212121212153 631.1919191919192,97.21212121212153 621.6565656565656,97.21212121212153 612.1212121212121,97.21212121212153 602.5858585858585,97.21212121212153 593.0505050505051,97.21212121212153 583.5151515151515,97.21212121212153 573.9797979797979,97.21212121212153 564.4444444444445,97.21212121212153 554.9090909090909,97.21212121212153 545.3737373737374,97.21212121212153 535.8383838383838,97.21212121212153 526.3030303030303,97.21212121212153 516.7676767676768,97.21212121212153 507.2323232323232,97.21212121212153 497.69696969696975,97.21212121212153 488.16161616161617,97.21212121212153 478.62626262626264,97.21212121212153 469.09090909090907,97.21212121212153 459.55555555555554,97.21212121212153 450.0202020202021,97.21212121212153 440.4848484848485,97.21212121212153 430.949494949495,97.21212121212153 421.4141414141414,97.21212121212153 411.8787878787879,97.21212121212153 402.34343434343435,106.747474747475 392.80808080808083,116.28282828282846 383.2727272727273,125.81818181818198 373.7373737373738,135.35353535353545" fill="none" stroke="rgba(0,0,255,0.75)" stroke-width="14.159999999999995"/></g><g><polyline data-points="-1.4646464646464643,3.989898989898992 -1.5656565656565653,4.090909090909092 -1.6666666666666665,4.191919191919193 -1.7676767676767675,4.292929292929293 -1.8686868686868683,4.393939393939394 -1.9696969696969693,4.494949494949497 -2.07070707070707,4.595959595959597 -2.1717171717171713,4.696969696969697 -2.2727272727272725,4.7979797979797985 -2.3737373737373733,4.898989898989901 -2.474747474747474,5.000000000000002 -2.5757575757575752,5.000000000000002 -2.6767676767676765,5.000000000000002 -2.7777777777777777,5.000000000000002 -2.8787878787878785,5.000000000000002" data-type="line" data-label="" points="373.7373737373738,135.35353535353545 364.2020202020202,125.81818181818198 354.6666666666667,116.28282828282846 345.13131313131316,106.747474747475 335.59595959595964,97.21212121212153 326.0606060606061,87.67676767676778 316.5252525252526,78.14141414141432 306.9898989898991,68.60606060606085 297.4545454545455,59.07070707070733 287.91919191919203,49.53535353535369 278.38383838383845,40.000000000000114 268.84848484848493,40.000000000000114 259.3131313131314,40.000000000000114 249.77777777777783,40.000000000000114 240.2424242424243,40.000000000000114" fill="none" stroke="rgba(255,0,0,0.75)" stroke-width="14.159999999999995"/></g><g><polyline data-points="2.373737373737375,5.000000000000002 2.373737373737375,4.898989898989901 2.2727272727272734,4.7979797979797985 2.1717171717171726,4.696969696969697 2.070707070707072,4.595959595959597 1.9696969696969702,4.494949494949497 1.8686868686868696,4.595959595959597 1.767676767676768,4.595959595959597 1.6666666666666674,4.595959595959597 1.5656565656565666,4.595959595959597 1.4646464646464652,4.595959595959597 1.3636363636363644,4.595959595959597 1.262626262626263,4.595959595959597 1.1616161616161622,4.595959595959597 1.0606060606060617,4.595959595959597 0.9595959595959602,4.595959595959597 0.8585858585858596,4.595959595959597 0.7575757575757579,4.595959595959597 0.6565656565656574,4.595959595959597 0.5555555555555567,4.595959595959597 0.4545454545454551,4.595959595959597 0.3535353535353544,4.595959595959597 0.2525252525252529,4.595959595959597 0.1515151515151522,4.595959595959597 0.050505050505051545,4.595959595959597 -0.05050505050505001,4.595959595959597 -0.15151515151515066,4.595959595959597 -0.2525252525252522,4.595959595959597 -0.35353535353535287,4.595959595959597 -0.4545454545454544,4.595959595959597 -0.555555555555555,4.595959595959597 -0.6565656565656557,4.595959595959597 -0.7575757575757572,4.595959595959597 -0.8585858585858579,4.595959595959597 -0.9595959595959596,4.595959595959597 -1.0606060606060603,4.595959595959597 -1.1616161616161613,4.595959595959597 -1.2626262626262625,4.494949494949497 -1.363636363636363,4.494949494949497 -1.4646464646464643,4.494949494949497 -1.5656565656565653,4.393939393939394 -1.6666666666666665,4.393939393939394 -1.7676767676767675,4.292929292929293 -1.8686868686868683,4.191919191919193 -1.9696969696969693,4.090909090909092 -2.07070707070707,3.989898989898992 -2.1717171717171713,3.8888888888888893 -2.2727272727272725,3.7878787878787885 -2.3737373737373733,3.6868686868686877 -2.474747474747474,3.5858585858585874 -2.5757575757575752,3.4848484848484866 -2.6767676767676765,3.383838383838384 -2.7777777777777777,3.2828282828282833 -2.8787878787878785,3.181818181818183 -2.9797979797979792,3.080808080808082 -3.0808080808080804,2.9797979797979806 -3.1818181818181817,2.87878787878788 -3.2828282828282824,2.7777777777777786 -3.383838383838383,2.676767676767678 -3.484848484848485,2.575757575757577 -3.5858585858585856,2.4747474747474754 -3.6868686868686864,2.373737373737375 -3.7878787878787876,2.2727272727272734 -3.8888888888888884,2.1717171717171726" data-type="line" data-label="" points="736.0808080808081,40.000000000000114 736.0808080808081,49.53535353535369 726.5454545454545,59.07070707070733 717.0101010101009,68.60606060606085 707.4747474747475,78.14141414141432 697.9393939393939,87.67676767676778 688.4040404040404,78.14141414141432 678.8686868686868,78.14141414141432 669.3333333333333,78.14141414141432 659.7979797979798,78.14141414141432 650.2626262626262,78.14141414141432 640.7272727272727,78.14141414141432 631.1919191919192,78.14141414141432 621.6565656565656,78.14141414141432 612.1212121212121,78.14141414141432 602.5858585858585,78.14141414141432 593.0505050505051,78.14141414141432 583.5151515151515,78.14141414141432 573.9797979797979,78.14141414141432 564.4444444444445,78.14141414141432 554.9090909090909,78.14141414141432 545.3737373737374,78.14141414141432 535.8383838383838,78.14141414141432 526.3030303030303,78.14141414141432 516.7676767676768,78.14141414141432 507.2323232323232,78.14141414141432 497.69696969696975,78.14141414141432 488.16161616161617,78.14141414141432 478.62626262626264,78.14141414141432 469.09090909090907,78.14141414141432 459.55555555555554,78.14141414141432 450.0202020202021,78.14141414141432 440.4848484848485,78.14141414141432 430.949494949495,78.14141414141432 421.4141414141414,78.14141414141432 411.8787878787879,78.14141414141432 402.34343434343435,78.14141414141432 392.80808080808083,87.67676767676778 383.2727272727273,87.67676767676778 373.7373737373738,87.67676767676778 364.2020202020202,97.21212121212153 354.6666666666667,97.21212121212153 345.13131313131316,106.747474747475 335.59595959595964,116.28282828282846 326.0606060606061,125.81818181818198 316.5252525252526,135.35353535353545 306.9898989898991,144.88888888888908 297.4545454545455,154.4242424242426 287.91919191919203,163.95959595959613 278.38383838383845,173.4949494949496 268.84848484848493,183.03030303030312 259.3131313131314,192.56565656565675 249.77777777777783,202.10101010101027 240.2424242424243,211.63636363636374 230.70707070707084,221.17171717171726 221.17171717171726,230.70707070707084 211.63636363636374,240.24242424242436 202.10101010101022,249.77777777777794 192.5656565656567,259.3131313131314 183.03030303030312,268.84848484848493 173.4949494949496,278.38383838383857 163.95959595959607,287.91919191919203 154.42424242424255,297.4545454545456 144.88888888888903,306.9898989898991" fill="none" stroke="rgba(0,0,255,0.75)" stroke-width="14.159999999999995"/></g><g><polyline data-points="-3.8888888888888884,2.1717171717171726 -3.98989898989899,2.070707070707072 -3.98989898989899,1.9696969696969702 -3.98989898989899,1.8686868686868696 -3.98989898989899,1.767676767676768 -3.98989898989899,1.6666666666666674 -3.98989898989899,1.5656565656565666 -3.98989898989899,1.4646464646464652 -3.98989898989899,1.3636363636363644 -3.98989898989899,1.262626262626263 -3.98989898989899,1.1616161616161622 -3.98989898989899,1.0606060606060617 -3.98989898989899,0.9595959595959602 -3.98989898989899,0.8585858585858596 -3.98989898989899,0.7575757575757579 -3.98989898989899,0.6565656565656574 -3.98989898989899,0.5555555555555567 -3.98989898989899,0.4545454545454551" data-type="line" data-label="" points="144.88888888888903,306.9898989898991 135.35353535353545,316.5252525252526 135.35353535353545,326.06060606060623 135.35353535353545,335.5959595959597 135.35353535353545,345.1313131313133 135.35353535353545,354.66666666666674 135.35353535353545,364.2020202020203 135.35353535353545,373.73737373737384 135.35353535353545,383.27272727272737 135.35353535353545,392.80808080808094 135.35353535353545,402.3434343434344 135.35353535353545,411.87878787878793 135.35353535353545,421.4141414141415 135.35353535353545,430.94949494949503 135.35353535353545,440.4848484848486 135.35353535353545,450.0202020202021 135.35353535353545,459.5555555555556 135.35353535353545,469.0909090909092" fill="none" stroke="rgba(255,0,0,0.75)" stroke-width="14.159999999999995"/></g><g><polyline data-points="-3.98989898989899,0.4545454545454551 -4.090909090909091,0.3535353535353544 -4.090909090909091,0.2525252525252529 -4.090909090909091,0.1515151515151522 -4.090909090909091,0.050505050505051545 -4.090909090909091,-0.05050505050505001 -4.090909090909091,-0.15151515151515066 -4.090909090909091,-0.2525252525252522 -4.090909090909091,-0.35353535353535287 -4.090909090909091,-0.4545454545454544 -4.090909090909091,-0.555555555555555 -4.090909090909091,-0.6565656565656557 -4.090909090909091,-0.7575757575757572 -4.090909090909091,-0.8585858585858579 -4.090909090909091,-0.9595959595959596 -4.090909090909091,-1.0606060606060603 -4.090909090909091,-1.1616161616161613 -4.090909090909091,-1.2626262626262625 -4.090909090909091,-1.363636363636363 -4.191919191919193,-1.4646464646464643 -4.191919191919193,-1.5656565656565653 -4.191919191919193,-1.6666666666666665 -4.191919191919193,-1.7676767676767675 -4.191919191919193,-1.8686868686868683 -4.191919191919193,-1.9696969696969693 -4.191919191919193,-2.07070707070707 -4.191919191919193,-2.1717171717171713 -4.191919191919193,-2.2727272727272725 -4.191919191919193,-2.3737373737373733 -4.191919191919193,-2.474747474747474 -4.191919191919193,-2.5757575757575752 -4.191919191919193,-2.6767676767676765 -4.191919191919193,-2.7777777777777777 -4.191919191919193,-2.8787878787878785 -4.191919191919193,-2.9797979797979792 -4.191919191919193,-3.0808080808080804 -4.191919191919193,-3.1818181818181817 -4.191919191919193,-3.2828282828282824 -4.191919191919193,-3.383838383838383 -4.191919191919193,-3.484848484848485 -4.191919191919193,-3.5858585858585856 -4.191919191919193,-3.6868686868686864 -4.191919191919193,-3.7878787878787876 -4.191919191919193,-3.8888888888888884 -4.191919191919193,-3.98989898989899 -4.191919191919193,-4.090909090909091 -4.191919191919193,-4.191919191919193 -4.191919191919193,-4.292929292929293 -4.191919191919193,-4.393939393939394 -4.191919191919193,-4.494949494949496 -4.191919191919193,-4.595959595959596 -4.191919191919193,-4.696969696969697 -4.191919191919193,-4.7979797979797985 -4.191919191919193,-4.898989898989899 -4.090909090909091,-5.000000000000001" data-type="line" data-label="" points="135.35353535353545,469.0909090909092 125.81818181818193,478.6262626262627 125.81818181818193,488.1616161616163 125.81818181818193,497.69696969696975 125.81818181818193,507.23232323232327 125.81818181818193,516.7676767676768 125.81818181818193,526.3030303030304 125.81818181818193,535.838383838384 125.81818181818193,545.3737373737374 125.81818181818193,554.909090909091 125.81818181818193,564.4444444444445 125.81818181818193,573.979797979798 125.81818181818193,583.5151515151516 125.81818181818193,593.0505050505051 125.81818181818193,602.5858585858587 125.81818181818193,612.1212121212121 125.81818181818193,621.6565656565657 125.81818181818193,631.1919191919193 125.81818181818193,640.7272727272727 116.28282828282829,650.2626262626263 116.28282828282829,659.7979797979798 116.28282828282829,669.3333333333334 116.28282828282829,678.8686868686868 116.28282828282829,688.4040404040404 116.28282828282829,697.939393939394 116.28282828282829,707.4747474747475 116.28282828282829,717.010101010101 116.28282828282829,726.5454545454545 116.28282828282829,736.0808080808081 116.28282828282829,745.6161616161615 116.28282828282829,755.1515151515151 116.28282828282829,764.6868686868687 116.28282828282829,774.2222222222222 116.28282828282829,783.7575757575758 116.28282828282829,793.2929292929292 116.28282828282829,802.8282828282828 116.28282828282829,812.3636363636363 116.28282828282829,821.8989898989898 116.28282828282829,831.4343434343434 116.28282828282829,840.969696969697 116.28282828282829,850.5050505050505 116.28282828282829,860.0404040404039 116.28282828282829,869.5757575757575 116.28282828282829,879.1111111111111 116.28282828282829,888.6464646464647 116.28282828282829,898.1818181818181 116.28282828282829,907.7171717171718 116.28282828282829,917.2525252525252 116.28282828282829,926.7878787878788 116.28282828282829,936.3232323232323 116.28282828282829,945.8585858585858 116.28282828282829,955.3939393939394 116.28282828282829,964.9292929292928 116.28282828282829,974.4646464646464 125.81818181818193,984" fill="none" stroke="rgba(0,0,255,0.75)" stroke-width="14.159999999999995"/></g><g><rect data-type="rect" data-label="" data-x="0" data-y="0" x="40.000000000000114" y="40.000000000000284" width="943.9999999999997" height="943.9999999999998" fill="none" stroke="gray" stroke-width="0.010593220338983056"/></g><g><rect data-type="rect" data-label="" data-x="0" data-y="0" x="40.000000000000114" y="40.000000000000284" width="943.9999999999997" height="943.9999999999998" fill="none" stroke="rgba(15, 23, 42, 0.8)" stroke-width="0.010593220338983056"/></g><circle data-type="circle" data-label="" data-x="3.989898989898992" data-y="-1.6666666666666665" cx="888.6464646464647" cy="669.3333333333334" r="28.791999999999987" fill="rgba(0,0,0,0.3)" stroke="black" stroke-width="0.010593220338983056"/><circle data-type="circle" data-label="" data-x="-2.9797979797979792" data-y="0.4545454545454551" cx="230.70707070707084" cy="469.0909090909092" r="28.791999999999987" fill="rgba(0,0,0,0.3)" stroke="black" stroke-width="0.010593220338983056"/><circle data-type="circle" data-label="" data-x="3.989898989898992" data-y="-2.9797979797979792" cx="888.6464646464647" cy="793.2929292929292" r="28.791999999999987" fill="rgba(0,0,0,0.3)" stroke="black" stroke-width="0.010593220338983056"/><circle data-type="circle" data-label="" data-x="1.767676767676768" data-y="3.5858585858585874" cx="678.8686868686868" cy="173.4949494949496" r="28.791999999999987" fill="rgba(0,0,0,0.3)" stroke="black" stroke-width="0.010593220338983056"/><circle data-type="circle" data-label="" data-x="3.989898989898992" data-y="1.3636363636363644" cx="888.6464646464647" cy="383.27272727272737" r="28.791999999999987" fill="rgba(0,0,0,0.3)" stroke="black" stroke-width="0.010593220338983056"/><circle data-type="circle" data-label="" data-x="2.373737373737375" data-y="-1.363636363636363" cx="736.0808080808081" cy="640.7272727272727" r="28.791999999999987" fill="rgba(0,0,0,0.3)" stroke="black" stroke-width="0.010593220338983056"/><circle data-type="circle" data-label="" data-x="0.050505050505051545" data-y="-1.7676767676767675" cx="516.7676767676768" cy="678.8686868686868" r="28.791999999999987" fill="rgba(0,0,0,0.3)" stroke="black" stroke-width="0.010593220338983056"/><circle data-type="circle" data-label="" data-x="-3.484848484848485" data-y="-1.7676767676767675" cx="183.03030303030312" cy="678.8686868686868" r="28.791999999999987" fill="rgba(0,0,0,0.3)" stroke="black" stroke-width="0.010593220338983056"/><circle data-type="circle" data-label="" data-x="1.1616161616161622" data-y="0.9595959595959602" cx="621.6565656565656" cy="421.4141414141415" r="28.791999999999987" fill="rgba(0,0,0,0.3)" stroke="black" stroke-width="0.010593220338983056"/><circle data-type="circle" data-label="" data-x="2.4747474747474754" data-y="1.1616161616161622" cx="745.6161616161615" cy="402.3434343434344" r="28.791999999999987" fill="rgba(0,0,0,0.3)" stroke="black" stroke-width="0.010593220338983056"/><circle data-type="circle" data-label="" data-x="2.4747474747474754" data-y="3.989898989898992" cx="745.6161616161615" cy="135.35353535353545" r="28.791999999999987" fill="rgba(0,0,0,0.3)" stroke="black" stroke-width="0.010593220338983056"/><circle data-type="circle" data-label="" data-x="-1.4646464646464643" data-y="3.989898989898992" cx="373.7373737373738" cy="135.35353535353545" r="28.791999999999987" fill="rgba(0,0,0,0.3)" stroke="black" stroke-width="0.010593220338983056"/><circle data-type="circle" data-label="" data-x="-3.8888888888888884" data-y="2.1717171717171726" cx="144.88888888888903" cy="306.9898989898991" r="28.791999999999987" fill="rgba(0,0,0,0.3)" stroke="black" stroke-width="0.010593220338983056"/><circle data-type="circle" data-label="" data-x="-3.98989898989899" data-y="0.4545454545454551" cx="135.35353535353545" cy="469.0909090909092" r="28.791999999999987" fill="rgba(0,0,0,0.3)" stroke="black" stroke-width="0.010593220338983056"/><g id="crosshair" style="display: none"><line id="crosshair-h" y1="0" y2="1024" stroke="#666" stroke-width="0.5"/><line id="crosshair-v" x1="0" x2="1024" stroke="#666" stroke-width="0.5"/><text id="coordinates" font-family="monospace" font-size="12" fill="#666"></text></g><script><![CDATA[
              document.currentScript.parentElement.addEventListener('mousemove', (e) => {
                const svg = e.currentTarget;
                const rect = svg.getBoundingClientRect();
                const x = e.clientX - rect.left;
                const y = e.clientY - rect.top;
                const crosshair = svg.getElementById('crosshair');
                const h = svg.getElementById('crosshair-h');
                const v = svg.getElementById('crosshair-v');
                const coords = svg.getElementById('coordinates');
                
                crosshair.style.display = 'block';
                h.setAttribute('x1', '0');
                h.setAttribute('x2', '1024');
                h.setAttribute('y1', y);
                h.setAttribute('y2', y);
                v.setAttribute('x1', x);
                v.setAttribute('x2', x);
                v.setAttribute('y1', '0');
                v.setAttribute('y2', '1024');

                // Calculate real coordinates using inverse transformation
                const matrix = {"a":94.39999999999996,"c":0,"e":511.99999999999994,"b":0,"d":-94.39999999999996,"f":512.0000000000001};
                // Manually invert and apply the affine transform
                // Since we only use translate and scale, we can directly compute:
                // x' = (x - tx) / sx
                // y' = (y - ty) / sy
                const sx = matrix.a;
                const sy = matrix.d;
                const tx = matrix.e; 
                const ty = matrix.f;
                const realPoint = {
                  x: (x - tx) / sx,
                  y: (y - ty) / sy // Flip y back since we used negative scale
                }
                
                coords.textContent = `(${realPoint.x.toFixed(2)}, ${realPoint.y.toFixed(2)})`;
                coords.setAttribute('x', (x + 5).toString());
                coords.setAttribute('y', (y - 5).toString());
              });
              document.currentScript.parentElement.addEventListener('mouseleave', () => {
                document.currentScript.parentElement.getElementById('crosshair').style.display = 'none';
              });
            ]]></script></svg>