<svg width="1024" height="1024" viewBox="0 0 1024 1024" xmlns="http://www.w3.org/2000/svg"><rect width="100%" height="100%" fill="white"/><g><circle data-type="point" data-label="conn_000" data-x="5" data-y="-3.98" cx="983.9999999999998" cy="887.712" r="28.792" fill="blue" stroke="#bda70f" stroke-width="28.792"/></g><g><circle data-type="point" data-label="conn_000" data-x="-5" data-y="2.64" cx="40.000000000000114" cy="262.7840000000002" r="28.792" fill="red" stroke="#bda70f" stroke-width="28.792"/></g><g><circle data-type="point" data-label="conn_001" data-x="-5" data-y="-3.68" cx="40.000000000000114" cy="859.392" r="28.792" fill="red" stroke="#0fa0bd" stroke-width="28.792"/></g><g><circle data-type="point" data-label="conn_001" data-x="5" data-y="1.44" cx="983.9999999999998" cy="376.0640000000002" r="28.792" fill="red" stroke="#0fa0bd" stroke-width="28.792"/></g><g><circle data-type="point" data-label="conn_002" data-x="4.2" data-y="5" cx="908.4799999999998" cy="40.000000000000284" r="28.792" fill="blue" stroke="#bd0f6d" stroke-width="28.792"/></g><g><circle data-type="point" data-label="conn_002" data-x="-1.54" data-y="-5" cx="366.624" cy="984" r="28.792" fill="blue" stroke="#bd0f6d" stroke-width="28.792"/></g><g><circle data-type="point" data-label="conn_003" data-x="5" data-y="-1.24" cx="983.9999999999998" cy="629.056" r="28.792" fill="red" stroke="#3bbd0f" stroke-width="28.792"/></g><g><circle data-type="point" data-label="conn_003" data-x="1.86" data-y="-5" cx="687.5839999999998" cy="984" r="28.792" fill="red" stroke="#3bbd0f" stroke-width="28.792"/></g><g><circle data-type="point" data-label="conn_004" data-x="2.54" data-y="5" cx="751.7759999999998" cy="40.000000000000284" r="28.792" fill="red" stroke="#170fbd" stroke-width="28.792"/></g><g><circle data-type="point" data-label="conn_004" data-x="0.7000000000000001" data-y="5" cx="578.0799999999999" cy="40.000000000000284" r="28.792" fill="blue" stroke="#170fbd" stroke-width="28.792"/></g><g><circle data-type="point" data-label="conn_005" data-x="4.88" data-y="5" cx="972.6719999999998" cy="40.000000000000284" r="28.792" fill="blue" stroke="#bd490f" stroke-width="28.792"/></g><g><circle data-type="point" data-label="conn_005" data-x="-5" data-y="-0.1" cx="40.000000000000114" cy="521.44" r="28.792" fill="red" stroke="#bd490f" stroke-width="28.792"/></g><g><circle data-type="point" data-label="conn_006" data-x="-5" data-y="1.42" cx="40.000000000000114" cy="377.95200000000017" r="28.792" fill="blue" stroke="#0fbd7c" stroke-width="28.792"/></g><g><circle data-type="point" data-label="conn_006" data-x="5" data-y="0.24" cx="983.9999999999998" cy="489.3440000000001" r="28.792" fill="blue" stroke="#0fbd7c" stroke-width="28.792"/></g><g><circle data-type="point" data-label="conn_007" data-x="-4.74" data-y="5" cx="64.5440000000001" cy="40.000000000000284" r="28.792" fill="blue" stroke="#ae0fbd" stroke-width="28.792"/></g><g><circle data-type="point" data-label="conn_007" data-x="-3.36" data-y="-5" cx="194.8160000000001" cy="984" r="28.792" fill="blue" stroke="#ae0fbd" stroke-width="28.792"/></g><g><circle data-type="point" data-label="conn_008" data-x="-5" data-y="-3.02" cx="40.000000000000114" cy="797.088" r="28.792" fill="blue" stroke="#98bd0f" stroke-width="28.792"/></g><g><circle data-type="point" data-label="conn_008" data-x="5" data-y="2.7800000000000002" cx="983.9999999999998" cy="249.5680000000002" r="28.792" fill="red" stroke="#98bd0f" stroke-width="28.792"/></g><g><polyline data-points="2.575757575757577,5.000000000000002 2.4747474747474754,5.000000000000002 2.373737373737375,5.000000000000002 2.2727272727272734,5.000000000000002 2.1717171717171726,5.000000000000002 2.070707070707072,5.000000000000002 1.9696969696969702,5.000000000000002 1.8686868686868696,5.000000000000002 1.767676767676768,4.898989898989901 1.6666666666666674,4.7979797979797985 1.5656565656565666,4.696969696969697 1.4646464646464652,4.595959595959597 1.3636363636363644,4.494949494949497 1.262626262626263,4.393939393939394 1.1616161616161622,4.292929292929293 1.0606060606060617,4.191919191919193 0.9595959595959602,4.090909090909092 0.8585858585858596,3.989898989898992" data-type="line" data-label="" points="755.1515151515151,40.000000000000114 745.6161616161615,40.000000000000114 736.0808080808081,40.000000000000114 726.5454545454545,40.000000000000114 717.0101010101009,40.000000000000114 707.4747474747475,40.000000000000114 697.9393939393939,40.000000000000114 688.4040404040404,40.000000000000114 678.8686868686868,49.53535353535369 669.3333333333333,59.07070707070733 659.7979797979798,68.60606060606085 650.2626262626262,78.14141414141432 640.7272727272727,87.67676767676778 631.1919191919192,97.21212121212153 621.6565656565656,106.747474747475 612.1212121212121,116.28282828282846 602.5858585858585,125.81818181818198 593.0505050505051,135.35353535353545" fill="none" stroke="rgba(255,0,0,0.75)" stroke-width="14.159999999999995"/></g><g><polyline data-points="0.8585858585858596,3.989898989898992 0.7575757575757579,4.090909090909092 0.7575757575757579,4.191919191919193 0.7575757575757579,4.292929292929293 0.7575757575757579,4.393939393939394 0.7575757575757579,4.494949494949497 0.7575757575757579,4.595959595959597 0.7575757575757579,4.696969696969697 0.7575757575757579,4.7979797979797985 0.7575757575757579,4.898989898989901 0.7575757575757579,5.000000000000002" data-type="line" data-label="" points="593.0505050505051,135.35353535353545 583.5151515151515,125.81818181818198 583.5151515151515,116.28282828282846 583.5151515151515,106.747474747475 583.5151515151515,97.21212121212153 583.5151515151515,87.67676767676778 583.5151515151515,78.14141414141432 583.5151515151515,68.60606060606085 583.5151515151515,59.07070707070733 583.5151515151515,49.53535353535369 583.5151515151515,40.000000000000114" fill="none" stroke="rgba(0,0,255,0.75)" stroke-width="14.159999999999995"/></g><g><polyline data-points="4.898989898989901,5.000000000000002 4.7979797979797985,4.898989898989901 4.696969696969697,4.7979797979797985 4.595959595959597,4.696969696969697 4.494949494949497,4.595959595959597 4.393939393939394,4.494949494949497 4.292929292929293,4.393939393939394 4.191919191919193,4.292929292929293 4.090909090909092,4.191919191919193 3.989898989898992,4.090909090909092 3.8888888888888893,3.989898989898992 3.7878787878787885,3.8888888888888893 3.6868686868686877,3.7878787878787885 3.5858585858585874,3.6868686868686877 3.4848484848484866,3.5858585858585874 3.383838383838384,3.4848484848484866 3.2828282828282833,3.383838383838384 3.181818181818183,3.2828282828282833 3.080808080808082,3.181818181818183 2.9797979797979806,3.080808080808082 2.87878787878788,2.9797979797979806 2.7777777777777786,2.87878787878788 2.676767676767678,2.7777777777777786 2.575757575757577,2.676767676767678 2.4747474747474754,2.575757575757577 2.373737373737375,2.4747474747474754 2.2727272727272734,2.373737373737375 2.1717171717171726,2.2727272727272734 2.070707070707072,2.1717171717171726 1.9696969696969702,2.070707070707072 1.8686868686868696,1.9696969696969702 1.767676767676768,1.8686868686868696 1.6666666666666674,1.767676767676768 1.5656565656565666,1.6666666666666674 1.4646464646464652,1.5656565656565666 1.3636363636363644,1.4646464646464652 1.262626262626263,1.3636363636363644 1.1616161616161622,1.262626262626263 1.0606060606060617,1.1616161616161622 0.9595959595959602,1.0606060606060617 0.8585858585858596,0.9595959595959602 0.7575757575757579,0.8585858585858596 0.6565656565656574,0.7575757575757579 0.5555555555555567,0.6565656565656574 0.4545454545454551,0.5555555555555567 0.3535353535353544,0.4545454545454551 0.2525252525252529,0.3535353535353544 0.1515151515151522,0.2525252525252529 0.050505050505051545,0.1515151515151522 -0.05050505050505001,0.050505050505051545 -0.15151515151515066,-0.05050505050505001 -0.2525252525252522,-0.05050505050505001 -0.35353535353535287,-0.05050505050505001 -0.4545454545454544,-0.05050505050505001 -0.555555555555555,-0.05050505050505001 -0.6565656565656557,-0.05050505050505001 -0.7575757575757572,-0.05050505050505001 -0.8585858585858579,-0.05050505050505001 -0.9595959595959596,-0.05050505050505001 -1.0606060606060603,-0.05050505050505001 -1.1616161616161613,-0.05050505050505001 -1.2626262626262625,-0.05050505050505001 -1.363636363636363,-0.05050505050505001 -1.4646464646464643,-0.05050505050505001 -1.5656565656565653,-0.05050505050505001 -1.6666666666666665,-0.05050505050505001 -1.7676767676767675,-0.05050505050505001 -1.8686868686868683,-0.05050505050505001 -1.9696969696969693,-0.05050505050505001 -2.07070707070707,-0.05050505050505001 -2.1717171717171713,-0.05050505050505001 -2.2727272727272725,-0.05050505050505001 -2.3737373737373733,-0.05050505050505001 -2.474747474747474,-0.05050505050505001 -2.5757575757575752,-0.05050505050505001 -2.6767676767676765,-0.05050505050505001 -2.7777777777777777,-0.05050505050505001 -2.8787878787878785,-0.05050505050505001 -2.9797979797979792,-0.05050505050505001 -3.0808080808080804,-0.05050505050505001 -3.1818181818181817,-0.05050505050505001 -3.2828282828282824,-0.05050505050505001 -3.383838383838383,-0.05050505050505001 -3.484848484848485,-0.05050505050505001 -3.5858585858585856,-0.05050505050505001 -3.6868686868686864,-0.05050505050505001 -3.7878787878787876,-0.05050505050505001 -3.8888888888888884,-0.05050505050505001 -3.98989898989899,-0.05050505050505001" data-type="line" data-label="" points="974.4646464646464,40.000000000000114 964.9292929292927,49.53535353535369 955.3939393939393,59.07070707070733 945.8585858585857,68.60606060606085 936.3232323232323,78.14141414141432 926.7878787878785,87.67676767676778 917.2525252525251,97.21212121212153 907.7171717171716,106.747474747475 898.181818181818,116.28282828282846 888.6464646464647,125.81818181818198 879.111111111111,135.35353535353545 869.5757575757575,144.88888888888908 860.0404040404039,154.4242424242426 850.5050505050505,163.95959595959613 840.969696969697,173.4949494949496 831.4343434343433,183.03030303030312 821.8989898989898,192.56565656565675 812.3636363636363,202.10101010101027 802.8282828282828,211.63636363636374 793.2929292929292,221.17171717171726 783.7575757575758,230.70707070707084 774.2222222222222,240.24242424242436 764.6868686868686,249.77777777777794 755.1515151515151,259.3131313131314 745.6161616161615,268.84848484848493 736.0808080808081,278.38383838383857 726.5454545454545,287.91919191919203 717.0101010101009,297.4545454545456 707.4747474747475,306.9898989898991 697.9393939393939,316.5252525252526 688.4040404040404,326.06060606060623 678.8686868686868,335.5959595959597 669.3333333333333,345.1313131313133 659.7979797979798,354.66666666666674 650.2626262626262,364.2020202020203 640.7272727272727,373.73737373737384 631.1919191919192,383.27272727272737 621.6565656565656,392.80808080808094 612.1212121212121,402.3434343434344 602.5858585858585,411.87878787878793 593.0505050505051,421.4141414141415 583.5151515151515,430.94949494949503 573.9797979797979,440.4848484848486 564.4444444444445,450.0202020202021 554.9090909090909,459.5555555555556 545.3737373737374,469.0909090909092 535.8383838383838,478.6262626262627 526.3030303030303,488.1616161616163 516.7676767676768,497.69696969696975 507.2323232323232,507.23232323232327 497.69696969696975,516.7676767676768 488.16161616161617,516.7676767676768 478.62626262626264,516.7676767676768 469.09090909090907,516.7676767676768 459.55555555555554,516.7676767676768 450.0202020202021,516.7676767676768 440.4848484848485,516.7676767676768 430.949494949495,516.7676767676768 421.4141414141414,516.7676767676768 411.8787878787879,516.7676767676768 402.34343434343435,516.7676767676768 392.80808080808083,516.7676767676768 383.2727272727273,516.7676767676768 373.7373737373738,516.7676767676768 364.2020202020202,516.7676767676768 354.6666666666667,516.7676767676768 345.13131313131316,516.7676767676768 335.59595959595964,516.7676767676768 326.0606060606061,516.7676767676768 316.5252525252526,516.7676767676768 306.9898989898991,516.7676767676768 297.4545454545455,516.7676767676768 287.91919191919203,516.7676767676768 278.38383838383845,516.7676767676768 268.84848484848493,516.7676767676768 259.3131313131314,516.7676767676768 249.77777777777783,516.7676767676768 240.2424242424243,516.7676767676768 230.70707070707084,516.7676767676768 221.17171717171726,516.7676767676768 211.63636363636374,516.7676767676768 202.10101010101022,516.7676767676768 192.5656565656567,516.7676767676768 183.03030303030312,516.7676767676768 173.4949494949496,516.7676767676768 163.95959595959607,516.7676767676768 154.42424242424255,516.7676767676768 144.88888888888903,516.7676767676768 135.35353535353545,516.7676767676768" fill="none" stroke="rgba(0,0,255,0.75)" stroke-width="14.159999999999995"/></g><g><polyline data-points="-3.98989898989899,-0.05050505050505001 -4.090909090909091,-0.05050505050505001 -4.191919191919193,-0.05050505050505001 -4.292929292929293,-0.05050505050505001 -4.393939393939394,-0.05050505050505001 -4.494949494949496,-0.05050505050505001 -4.595959595959596,-0.05050505050505001 -4.696969696969697,-0.05050505050505001 -4.7979797979797985,-0.05050505050505001 -4.898989898989899,-0.05050505050505001 -5.000000000000001,-0.05050505050505001" data-type="line" data-label="" points="135.35353535353545,516.7676767676768 125.81818181818193,516.7676767676768 116.28282828282829,516.7676767676768 106.74747474747483,516.7676767676768 97.21212121212136,516.7676767676768 87.67676767676772,516.7676767676768 78.14141414141426,516.7676767676768 68.60606060606068,516.7676767676768 59.07070707070716,516.7676767676768 49.53535353535369,516.7676767676768 40.00000000000006,516.7676767676768" fill="none" stroke="rgba(255,0,0,0.75)" stroke-width="14.159999999999995"/></g><g><polyline data-points="-5.000000000000001,-3.0808080808080804 -4.898989898989899,-2.9797979797979792 -4.7979797979797985,-2.8787878787878785 -4.696969696969697,-2.7777777777777777 -4.595959595959596,-2.6767676767676765 -4.494949494949496,-2.5757575757575752 -4.393939393939394,-2.474747474747474 -4.292929292929293,-2.3737373737373733 -4.191919191919193,-2.2727272727272725 -4.090909090909091,-2.1717171717171713 -3.98989898989899,-2.07070707070707 -3.8888888888888884,-1.9696969696969693 -3.7878787878787876,-1.8686868686868683 -3.6868686868686864,-1.7676767676767675 -3.5858585858585856,-1.6666666666666665 -3.484848484848485,-1.5656565656565653 -3.383838383838383,-1.4646464646464643 -3.2828282828282824,-1.363636363636363 -3.1818181818181817,-1.2626262626262625 -3.0808080808080804,-1.1616161616161613 -2.9797979797979792,-1.0606060606060603 -2.8787878787878785,-0.9595959595959596 -2.7777777777777777,-0.8585858585858579 -2.6767676767676765,-0.7575757575757572 -2.5757575757575752,-0.6565656565656557 -2.474747474747474,-0.555555555555555 -2.3737373737373733,-0.4545454545454544 -2.2727272727272725,-0.35353535353535287 -2.1717171717171713,-0.2525252525252522 -2.07070707070707,-0.2525252525252522 -1.9696969696969693,-0.2525252525252522 -1.8686868686868683,-0.2525252525252522 -1.7676767676767675,-0.2525252525252522 -1.6666666666666665,-0.2525252525252522 -1.5656565656565653,-0.2525252525252522 -1.4646464646464643,-0.2525252525252522 -1.363636363636363,-0.2525252525252522 -1.2626262626262625,-0.2525252525252522 -1.1616161616161613,-0.2525252525252522 -1.0606060606060603,-0.2525252525252522 -0.9595959595959596,-0.2525252525252522 -0.8585858585858579,-0.2525252525252522 -0.7575757575757572,-0.2525252525252522 -0.6565656565656557,-0.2525252525252522 -0.555555555555555,-0.2525252525252522 -0.4545454545454544,-0.2525252525252522 -0.35353535353535287,-0.2525252525252522 -0.2525252525252522,-0.2525252525252522 -0.15151515151515066,-0.2525252525252522 -0.05050505050505001,-0.2525252525252522 0.050505050505051545,-0.15151515151515066 0.1515151515151522,-0.05050505050505001 0.2525252525252529,0.050505050505051545 0.3535353535353544,0.1515151515151522 0.4545454545454551,0.2525252525252529 0.5555555555555567,0.3535353535353544 0.6565656565656574,0.4545454545454551 0.7575757575757579,0.5555555555555567 0.8585858585858596,0.6565656565656574 0.9595959595959602,0.7575757575757579 1.0606060606060617,0.8585858585858596 1.1616161616161622,0.9595959595959602 1.262626262626263,1.0606060606060617 1.3636363636363644,1.1616161616161622 1.4646464646464652,1.262626262626263 1.5656565656565666,1.3636363636363644 1.6666666666666674,1.4646464646464652 1.767676767676768,1.5656565656565666 1.8686868686868696,1.6666666666666674 1.9696969696969702,1.767676767676768 2.070707070707072,1.8686868686868696 2.1717171717171726,1.9696969696969702 2.2727272727272734,2.070707070707072 2.373737373737375,2.1717171717171726 2.4747474747474754,2.2727272727272734 2.575757575757577,2.373737373737375 2.676767676767678,2.4747474747474754 2.7777777777777786,2.575757575757577 2.87878787878788,2.676767676767678 2.9797979797979806,2.7777777777777786 3.080808080808082,2.7777777777777786 3.181818181818183,2.7777777777777786 3.2828282828282833,2.7777777777777786 3.383838383838384,2.7777777777777786 3.4848484848484866,2.7777777777777786 3.5858585858585874,2.7777777777777786 3.6868686868686877,2.7777777777777786 3.7878787878787885,2.7777777777777786 3.8888888888888893,2.7777777777777786 3.989898989898992,2.7777777777777786" data-type="line" data-label="" points="40.00000000000006,802.8282828282828 49.53535353535369,793.2929292929292 59.07070707070716,783.7575757575758 68.60606060606068,774.2222222222222 78.14141414141426,764.6868686868687 87.67676767676772,755.1515151515151 97.21212121212136,745.6161616161615 106.74747474747483,736.0808080808081 116.28282828282829,726.5454545454545 125.81818181818193,717.010101010101 135.35353535353545,707.4747474747475 144.88888888888903,697.939393939394 154.42424242424255,688.4040404040404 163.95959595959607,678.8686868686868 173.4949494949496,669.3333333333334 183.03030303030312,659.7979797979798 192.5656565656567,650.2626262626263 202.10101010101022,640.7272727272727 211.63636363636374,631.1919191919193 221.17171717171726,621.6565656565657 230.70707070707084,612.1212121212121 240.2424242424243,602.5858585858587 249.77777777777783,593.0505050505051 259.3131313131314,583.5151515151516 268.84848484848493,573.979797979798 278.38383838383845,564.4444444444445 287.91919191919203,554.909090909091 297.4545454545455,545.3737373737374 306.9898989898991,535.838383838384 316.5252525252526,535.838383838384 326.0606060606061,535.838383838384 335.59595959595964,535.838383838384 345.13131313131316,535.838383838384 354.6666666666667,535.838383838384 364.2020202020202,535.838383838384 373.7373737373738,535.838383838384 383.2727272727273,535.838383838384 392.80808080808083,535.838383838384 402.34343434343435,535.838383838384 411.8787878787879,535.838383838384 421.4141414141414,535.838383838384 430.949494949495,535.838383838384 440.4848484848485,535.838383838384 450.0202020202021,535.838383838384 459.55555555555554,535.838383838384 469.09090909090907,535.838383838384 478.62626262626264,535.838383838384 488.16161616161617,535.838383838384 497.69696969696975,535.838383838384 507.2323232323232,535.838383838384 516.7676767676768,526.3030303030304 526.3030303030303,516.7676767676768 535.8383838383838,507.23232323232327 545.3737373737374,497.69696969696975 554.9090909090909,488.1616161616163 564.4444444444445,478.6262626262627 573.9797979797979,469.0909090909092 583.5151515151515,459.5555555555556 593.0505050505051,450.0202020202021 602.5858585858585,440.4848484848486 612.1212121212121,430.94949494949503 621.6565656565656,421.4141414141415 631.1919191919192,411.87878787878793 640.7272727272727,402.3434343434344 650.2626262626262,392.80808080808094 659.7979797979798,383.27272727272737 669.3333333333333,373.73737373737384 678.8686868686868,364.2020202020203 688.4040404040404,354.66666666666674 697.9393939393939,345.1313131313133 707.4747474747475,335.5959595959597 717.0101010101009,326.06060606060623 726.5454545454545,316.5252525252526 736.0808080808081,306.9898989898991 745.6161616161615,297.4545454545456 755.1515151515151,287.91919191919203 764.6868686868686,278.38383838383857 774.2222222222222,268.84848484848493 783.7575757575758,259.3131313131314 793.2929292929292,249.77777777777794 802.8282828282828,249.77777777777794 812.3636363636363,249.77777777777794 821.8989898989898,249.77777777777794 831.4343434343433,249.77777777777794 840.969696969697,249.77777777777794 850.5050505050505,249.77777777777794 860.0404040404039,249.77777777777794 869.5757575757575,249.77777777777794 879.111111111111,249.77777777777794 888.6464646464647,249.77777777777794" fill="none" stroke="rgba(0,0,255,0.75)" stroke-width="14.159999999999995"/></g><g><polyline data-points="3.989898989898992,2.7777777777777786 4.090909090909092,2.7777777777777786 4.191919191919193,2.7777777777777786 4.292929292929293,2.7777777777777786 4.393939393939394,2.7777777777777786 4.494949494949497,2.7777777777777786 4.595959595959597,2.7777777777777786 4.696969696969697,2.7777777777777786 4.7979797979797985,2.7777777777777786 4.898989898989901,2.7777777777777786 5.000000000000002,2.7777777777777786" data-type="line" data-label="" points="888.6464646464647,249.77777777777794 898.181818181818,249.77777777777794 907.7171717171716,249.77777777777794 917.2525252525251,249.77777777777794 926.7878787878785,249.77777777777794 936.3232323232323,249.77777777777794 945.8585858585857,249.77777777777794 955.3939393939393,249.77777777777794 964.9292929292927,249.77777777777794 974.4646464646464,249.77777777777794 984,249.77777777777794" fill="none" stroke="rgba(255,0,0,0.75)" stroke-width="14.159999999999995"/></g><g><polyline data-points="4.191919191919193,5.000000000000002 4.090909090909092,4.898989898989901 3.989898989898992,4.7979797979797985 3.8888888888888893,4.696969696969697 3.7878787878787885,4.595959595959597 3.6868686868686877,4.494949494949497 3.5858585858585874,4.393939393939394 3.4848484848484866,4.292929292929293 3.383838383838384,4.191919191919193 3.2828282828282833,4.090909090909092 3.181818181818183,3.989898989898992 3.080808080808082,3.989898989898992" data-type="line" data-label="" points="907.7171717171716,40.000000000000114 898.181818181818,49.53535353535369 888.6464646464647,59.07070707070733 879.111111111111,68.60606060606085 869.5757575757575,78.14141414141432 860.0404040404039,87.67676767676778 850.5050505050505,97.21212121212153 840.969696969697,106.747474747475 831.4343434343433,116.28282828282846 821.8989898989898,125.81818181818198 812.3636363636363,135.35353535353545 802.8282828282828,135.35353535353545" fill="none" stroke="rgba(0,0,255,0.75)" stroke-width="14.159999999999995"/></g><g><polyline data-points="3.080808080808082,3.989898989898992 3.080808080808082,3.8888888888888893 3.080808080808082,3.7878787878787885 3.080808080808082,3.6868686868686877 3.080808080808082,3.5858585858585874 3.080808080808082,3.4848484848484866 3.080808080808082,3.383838383838384 3.080808080808082,3.2828282828282833 3.080808080808082,3.181818181818183 3.080808080808082,3.080808080808082 3.080808080808082,2.9797979797979806 3.080808080808082,2.87878787878788 3.080808080808082,2.7777777777777786 3.080808080808082,2.676767676767678 3.080808080808082,2.575757575757577 3.080808080808082,2.4747474747474754 3.080808080808082,2.373737373737375 3.080808080808082,2.2727272727272734 3.080808080808082,2.1717171717171726 3.080808080808082,2.070707070707072" data-type="line" data-label="" points="802.8282828282828,135.35353535353545 802.8282828282828,144.88888888888908 802.8282828282828,154.4242424242426 802.8282828282828,163.95959595959613 802.8282828282828,173.4949494949496 802.8282828282828,183.03030303030312 802.8282828282828,192.56565656565675 802.8282828282828,202.10101010101027 802.8282828282828,211.63636363636374 802.8282828282828,221.17171717171726 802.8282828282828,230.70707070707084 802.8282828282828,240.24242424242436 802.8282828282828,249.77777777777794 802.8282828282828,259.3131313131314 802.8282828282828,268.84848484848493 802.8282828282828,278.38383838383857 802.8282828282828,287.91919191919203 802.8282828282828,297.4545454545456 802.8282828282828,306.9898989898991 802.8282828282828,316.5252525252526" fill="none" stroke="rgba(255,0,0,0.75)" stroke-width="14.159999999999995"/></g><g><polyline data-points="3.080808080808082,2.070707070707072 2.9797979797979806,1.9696969696969702 2.87878787878788,1.8686868686868696 2.7777777777777786,1.767676767676768 2.676767676767678,1.6666666666666674 2.575757575757577,1.5656565656565666 2.4747474747474754,1.4646464646464652 2.373737373737375,1.3636363636363644 2.2727272727272734,1.262626262626263 2.1717171717171726,1.1616161616161622 2.070707070707072,1.0606060606060617 1.9696969696969702,0.9595959595959602 1.8686868686868696,0.8585858585858596 1.767676767676768,0.7575757575757579 1.6666666666666674,0.6565656565656574 1.5656565656565666,0.5555555555555567 1.4646464646464652,0.4545454545454551 1.3636363636363644,0.3535353535353544 1.262626262626263,0.2525252525252529 1.1616161616161622,0.1515151515151522 1.0606060606060617,0.050505050505051545 0.9595959595959602,-0.05050505050505001 0.8585858585858596,-0.15151515151515066 0.7575757575757579,-0.2525252525252522 0.6565656565656574,-0.35353535353535287 0.5555555555555567,-0.4545454545454544 0.4545454545454551,-0.555555555555555 0.3535353535353544,-0.6565656565656557 0.2525252525252529,-0.7575757575757572 0.1515151515151522,-0.8585858585858579 0.050505050505051545,-0.9595959595959596 -0.05050505050505001,-1.0606060606060603 -0.15151515151515066,-1.1616161616161613 -0.2525252525252522,-1.2626262626262625 -0.35353535353535287,-1.363636363636363 -0.4545454545454544,-1.4646464646464643 -0.555555555555555,-1.5656565656565653 -0.6565656565656557,-1.6666666666666665 -0.7575757575757572,-1.7676767676767675 -0.8585858585858579,-1.8686868686868683 -0.9595959595959596,-1.9696969696969693 -1.0606060606060603,-2.07070707070707 -1.1616161616161613,-2.1717171717171713 -1.2626262626262625,-2.2727272727272725 -1.363636363636363,-2.3737373737373733 -1.4646464646464643,-2.474747474747474 -1.5656565656565653,-2.5757575757575752 -1.5656565656565653,-2.6767676767676765 -1.5656565656565653,-2.7777777777777777 -1.5656565656565653,-2.8787878787878785 -1.5656565656565653,-2.9797979797979792 -1.5656565656565653,-3.0808080808080804 -1.5656565656565653,-3.1818181818181817 -1.5656565656565653,-3.2828282828282824 -1.5656565656565653,-3.383838383838383 -1.5656565656565653,-3.484848484848485 -1.5656565656565653,-3.5858585858585856 -1.5656565656565653,-3.6868686868686864 -1.5656565656565653,-3.7878787878787876 -1.5656565656565653,-3.8888888888888884 -1.5656565656565653,-3.98989898989899 -1.5656565656565653,-4.090909090909091 -1.5656565656565653,-4.191919191919193 -1.5656565656565653,-4.292929292929293 -1.5656565656565653,-4.393939393939394 -1.5656565656565653,-4.494949494949496 -1.5656565656565653,-4.595959595959596 -1.5656565656565653,-4.696969696969697 -1.5656565656565653,-4.7979797979797985 -1.5656565656565653,-4.898989898989899 -1.5656565656565653,-5.000000000000001" data-type="line" data-label="" points="802.8282828282828,316.5252525252526 793.2929292929292,326.06060606060623 783.7575757575758,335.5959595959597 774.2222222222222,345.1313131313133 764.6868686868686,354.66666666666674 755.1515151515151,364.2020202020203 745.6161616161615,373.73737373737384 736.0808080808081,383.27272727272737 726.5454545454545,392.80808080808094 717.0101010101009,402.3434343434344 707.4747474747475,411.87878787878793 697.9393939393939,421.4141414141415 688.4040404040404,430.94949494949503 678.8686868686868,440.4848484848486 669.3333333333333,450.0202020202021 659.7979797979798,459.5555555555556 650.2626262626262,469.0909090909092 640.7272727272727,478.6262626262627 631.1919191919192,488.1616161616163 621.6565656565656,497.69696969696975 612.1212121212121,507.23232323232327 602.5858585858585,516.7676767676768 593.0505050505051,526.3030303030304 583.5151515151515,535.838383838384 573.9797979797979,545.3737373737374 564.4444444444445,554.909090909091 554.9090909090909,564.4444444444445 545.3737373737374,573.979797979798 535.8383838383838,583.5151515151516 526.3030303030303,593.0505050505051 516.7676767676768,602.5858585858587 507.2323232323232,612.1212121212121 497.69696969696975,621.6565656565657 488.16161616161617,631.1919191919193 478.62626262626264,640.7272727272727 469.09090909090907,650.2626262626263 459.55555555555554,659.7979797979798 450.0202020202021,669.3333333333334 440.4848484848485,678.8686868686868 430.949494949495,688.4040404040404 421.4141414141414,697.939393939394 411.8787878787879,707.4747474747475 402.34343434343435,717.010101010101 392.80808080808083,726.5454545454545 383.2727272727273,736.0808080808081 373.7373737373738,745.6161616161615 364.2020202020202,755.1515151515151 364.2020202020202,764.6868686868687 364.2020202020202,774.2222222222222 364.2020202020202,783.7575757575758 364.2020202020202,793.2929292929292 364.2020202020202,802.8282828282828 364.2020202020202,812.3636363636363 364.2020202020202,821.8989898989898 364.2020202020202,831.4343434343434 364.2020202020202,840.969696969697 364.2020202020202,850.5050505050505 364.2020202020202,860.0404040404039 364.2020202020202,869.5757575757575 364.2020202020202,879.1111111111111 364.2020202020202,888.6464646464647 364.2020202020202,898.1818181818181 364.2020202020202,907.7171717171718 364.2020202020202,917.2525252525252 364.2020202020202,926.7878787878788 364.2020202020202,936.3232323232323 364.2020202020202,945.8585858585858 364.2020202020202,955.3939393939394 364.2020202020202,964.9292929292928 364.2020202020202,974.4646464646464 364.2020202020202,984" fill="none" stroke="rgba(0,0,255,0.75)" stroke-width="14.159999999999995"/></g><g><polyline data-points="5.000000000000002,-3.98989898989899 4.898989898989901,-3.8888888888888884 4.7979797979797985,-3.7878787878787876 4.696969696969697,-3.6868686868686864 4.595959595959597,-3.5858585858585856 4.494949494949497,-3.484848484848485 4.393939393939394,-3.383838383838383 4.292929292929293,-3.2828282828282824 4.191919191919193,-3.1818181818181817 4.090909090909092,-3.0808080808080804 3.989898989898992,-2.9797979797979792 3.8888888888888893,-2.8787878787878785 3.7878787878787885,-2.7777777777777777 3.6868686868686877,-2.6767676767676765 3.5858585858585874,-2.5757575757575752 3.4848484848484866,-2.474747474747474 3.383838383838384,-2.3737373737373733 3.2828282828282833,-2.2727272727272725 3.181818181818183,-2.1717171717171713 3.080808080808082,-2.07070707070707 2.9797979797979806,-1.9696969696969693 2.87878787878788,-1.8686868686868683 2.7777777777777786,-1.7676767676767675 2.676767676767678,-1.6666666666666665 2.575757575757577,-1.5656565656565653 2.4747474747474754,-1.4646464646464643 2.373737373737375,-1.363636363636363 2.2727272727272734,-1.2626262626262625 2.1717171717171726,-1.1616161616161613 2.070707070707072,-1.0606060606060603 1.9696969696969702,-0.9595959595959596 1.8686868686868696,-0.8585858585858579 1.767676767676768,-0.7575757575757572 1.6666666666666674,-0.6565656565656557 1.5656565656565666,-0.555555555555555 1.4646464646464652,-0.4545454545454544" data-type="line" data-label="" points="984,888.6464646464647 974.4646464646464,879.1111111111111 964.9292929292927,869.5757575757575 955.3939393939393,860.0404040404039 945.8585858585857,850.5050505050505 936.3232323232323,840.969696969697 926.7878787878785,831.4343434343434 917.2525252525251,821.8989898989898 907.7171717171716,812.3636363636363 898.181818181818,802.8282828282828 888.6464646464647,793.2929292929292 879.111111111111,783.7575757575758 869.5757575757575,774.2222222222222 860.0404040404039,764.6868686868687 850.5050505050505,755.1515151515151 840.969696969697,745.6161616161615 831.4343434343433,736.0808080808081 821.8989898989898,726.5454545454545 812.3636363636363,717.010101010101 802.8282828282828,707.4747474747475 793.2929292929292,697.939393939394 783.7575757575758,688.4040404040404 774.2222222222222,678.8686868686868 764.6868686868686,669.3333333333334 755.1515151515151,659.7979797979798 745.6161616161615,650.2626262626263 736.0808080808081,640.7272727272727 726.5454545454545,631.1919191919193 717.0101010101009,621.6565656565657 707.4747474747475,612.1212121212121 697.9393939393939,602.5858585858587 688.4040404040404,593.0505050505051 678.8686868686868,583.5151515151516 669.3333333333333,573.979797979798 659.7979797979798,564.4444444444445 650.2626262626262,554.909090909091" fill="none" stroke="rgba(0,0,255,0.75)" stroke-width="14.159999999999995"/></g><g><polyline data-points="1.4646464646464652,-0.4545454545454544 1.3636363636363644,-0.35353535353535287 1.262626262626263,-0.2525252525252522 1.1616161616161622,-0.15151515151515066 1.0606060606060617,-0.05050505050505001 0.9595959595959602,0.050505050505051545 0.8585858585858596,0.1515151515151522 0.7575757575757579,0.2525252525252529 0.6565656565656574,0.3535353535353544 0.5555555555555567,0.4545454545454551 0.4545454545454551,0.5555555555555567 0.3535353535353544,0.6565656565656574 0.2525252525252529,0.7575757575757579 0.1515151515151522,0.8585858585858596 0.050505050505051545,0.9595959595959602" data-type="line" data-label="" points="650.2626262626262,554.909090909091 640.7272727272727,545.3737373737374 631.1919191919192,535.838383838384 621.6565656565656,526.3030303030304 612.1212121212121,516.7676767676768 602.5858585858585,507.23232323232327 593.0505050505051,497.69696969696975 583.5151515151515,488.1616161616163 573.9797979797979,478.6262626262627 564.4444444444445,469.0909090909092 554.9090909090909,459.5555555555556 545.3737373737374,450.0202020202021 535.8383838383838,440.4848484848486 526.3030303030303,430.94949494949503 516.7676767676768,421.4141414141415" fill="none" stroke="rgba(255,0,0,0.75)" stroke-width="14.159999999999995"/></g><g><polyline data-points="0.050505050505051545,0.9595959595959602 -0.05050505050505001,1.0606060606060617 -0.15151515151515066,1.1616161616161622 -0.2525252525252522,1.262626262626263 -0.35353535353535287,1.3636363636363644 -0.4545454545454544,1.4646464646464652 -0.555555555555555,1.5656565656565666 -0.6565656565656557,1.6666666666666674 -0.7575757575757572,1.767676767676768 -0.8585858585858579,1.8686868686868696 -0.9595959595959596,1.9696969696969702 -1.0606060606060603,2.070707070707072 -1.1616161616161613,2.1717171717171726 -1.2626262626262625,2.2727272727272734 -1.363636363636363,2.373737373737375 -1.4646464646464643,2.4747474747474754 -1.5656565656565653,2.575757575757577 -1.6666666666666665,2.676767676767678 -1.7676767676767675,2.676767676767678 -1.8686868686868683,2.676767676767678 -1.9696969696969693,2.676767676767678 -2.07070707070707,2.676767676767678 -2.1717171717171713,2.676767676767678 -2.2727272727272725,2.676767676767678 -2.3737373737373733,2.676767676767678 -2.474747474747474,2.676767676767678 -2.5757575757575752,2.676767676767678 -2.6767676767676765,2.676767676767678 -2.7777777777777777,2.676767676767678 -2.8787878787878785,2.676767676767678 -2.9797979797979792,2.676767676767678 -3.0808080808080804,2.676767676767678 -3.1818181818181817,2.676767676767678 -3.2828282828282824,2.676767676767678 -3.383838383838383,2.676767676767678 -3.484848484848485,2.676767676767678 -3.5858585858585856,2.676767676767678 -3.6868686868686864,2.676767676767678 -3.7878787878787876,2.676767676767678 -3.8888888888888884,2.676767676767678 -3.98989898989899,2.676767676767678" data-type="line" data-label="" points="516.7676767676768,421.4141414141415 507.2323232323232,411.87878787878793 497.69696969696975,402.3434343434344 488.16161616161617,392.80808080808094 478.62626262626264,383.27272727272737 469.09090909090907,373.73737373737384 459.55555555555554,364.2020202020203 450.0202020202021,354.66666666666674 440.4848484848485,345.1313131313133 430.949494949495,335.5959595959597 421.4141414141414,326.06060606060623 411.8787878787879,316.5252525252526 402.34343434343435,306.9898989898991 392.80808080808083,297.4545454545456 383.2727272727273,287.91919191919203 373.7373737373738,278.38383838383857 364.2020202020202,268.84848484848493 354.6666666666667,259.3131313131314 345.13131313131316,259.3131313131314 335.59595959595964,259.3131313131314 326.0606060606061,259.3131313131314 316.5252525252526,259.3131313131314 306.9898989898991,259.3131313131314 297.4545454545455,259.3131313131314 287.91919191919203,259.3131313131314 278.38383838383845,259.3131313131314 268.84848484848493,259.3131313131314 259.3131313131314,259.3131313131314 249.77777777777783,259.3131313131314 240.2424242424243,259.3131313131314 230.70707070707084,259.3131313131314 221.17171717171726,259.3131313131314 211.63636363636374,259.3131313131314 202.10101010101022,259.3131313131314 192.5656565656567,259.3131313131314 183.03030303030312,259.3131313131314 173.4949494949496,259.3131313131314 163.95959595959607,259.3131313131314 154.42424242424255,259.3131313131314 144.88888888888903,259.3131313131314 135.35353535353545,259.3131313131314" fill="none" stroke="rgba(0,0,255,0.75)" stroke-width="14.159999999999995"/></g><g><polyline data-points="-3.98989898989899,2.676767676767678 -4.090909090909091,2.676767676767678 -4.191919191919193,2.676767676767678 -4.292929292929293,2.676767676767678 -4.393939393939394,2.676767676767678 -4.494949494949496,2.676767676767678 -4.595959595959596,2.676767676767678 -4.696969696969697,2.676767676767678 -4.7979797979797985,2.676767676767678 -4.898989898989899,2.676767676767678 -5.000000000000001,2.676767676767678" data-type="line" data-label="" points="135.35353535353545,259.3131313131314 125.81818181818193,259.3131313131314 116.28282828282829,259.3131313131314 106.74747474747483,259.3131313131314 97.21212121212136,259.3131313131314 87.67676767676772,259.3131313131314 78.14141414141426,259.3131313131314 68.60606060606068,259.3131313131314 59.07070707070716,259.3131313131314 49.53535353535369,259.3131313131314 40.00000000000006,259.3131313131314" fill="none" stroke="rgba(255,0,0,0.75)" stroke-width="14.159999999999995"/></g><g><polyline data-points="-5.000000000000001,1.4646464646464652 -4.898989898989899,1.4646464646464652 -4.7979797979797985,1.4646464646464652 -4.696969696969697,1.4646464646464652 -4.595959595959596,1.4646464646464652 -4.494949494949496,1.4646464646464652 -4.393939393939394,1.4646464646464652 -4.292929292929293,1.4646464646464652 -4.191919191919193,1.4646464646464652 -4.090909090909091,1.4646464646464652 -3.98989898989899,1.4646464646464652 -3.8888888888888884,1.4646464646464652 -3.7878787878787876,1.4646464646464652 -3.6868686868686864,1.4646464646464652 -3.5858585858585856,1.4646464646464652 -3.484848484848485,1.4646464646464652 -3.383838383838383,1.4646464646464652 -3.2828282828282824,1.4646464646464652 -3.1818181818181817,1.4646464646464652 -3.0808080808080804,1.4646464646464652 -2.9797979797979792,1.4646464646464652 -2.8787878787878785,1.4646464646464652 -2.7777777777777777,1.4646464646464652 -2.6767676767676765,1.4646464646464652 -2.5757575757575752,1.4646464646464652 -2.474747474747474,1.4646464646464652 -2.3737373737373733,1.4646464646464652 -2.2727272727272725,1.4646464646464652 -2.1717171717171713,1.4646464646464652 -2.07070707070707,1.4646464646464652 -1.9696969696969693,1.4646464646464652 -1.8686868686868683,1.4646464646464652 -1.7676767676767675,1.4646464646464652 -1.6666666666666665,1.4646464646464652 -1.5656565656565653,1.4646464646464652 -1.4646464646464643,1.4646464646464652 -1.363636363636363,1.4646464646464652 -1.2626262626262625,1.4646464646464652" data-type="line" data-label="" points="40.00000000000006,373.73737373737384 49.53535353535369,373.73737373737384 59.07070707070716,373.73737373737384 68.60606060606068,373.73737373737384 78.14141414141426,373.73737373737384 87.67676767676772,373.73737373737384 97.21212121212136,373.73737373737384 106.74747474747483,373.73737373737384 116.28282828282829,373.73737373737384 125.81818181818193,373.73737373737384 135.35353535353545,373.73737373737384 144.88888888888903,373.73737373737384 154.42424242424255,373.73737373737384 163.95959595959607,373.73737373737384 173.4949494949496,373.73737373737384 183.03030303030312,373.73737373737384 192.5656565656567,373.73737373737384 202.10101010101022,373.73737373737384 211.63636363636374,373.73737373737384 221.17171717171726,373.73737373737384 230.70707070707084,373.73737373737384 240.2424242424243,373.73737373737384 249.77777777777783,373.73737373737384 259.3131313131314,373.73737373737384 268.84848484848493,373.73737373737384 278.38383838383845,373.73737373737384 287.91919191919203,373.73737373737384 297.4545454545455,373.73737373737384 306.9898989898991,373.73737373737384 316.5252525252526,373.73737373737384 326.0606060606061,373.73737373737384 335.59595959595964,373.73737373737384 345.13131313131316,373.73737373737384 354.6666666666667,373.73737373737384 364.2020202020202,373.73737373737384 373.7373737373738,373.73737373737384 383.2727272727273,373.73737373737384 392.80808080808083,373.73737373737384" fill="none" stroke="rgba(0,0,255,0.75)" stroke-width="14.159999999999995"/></g><g><polyline data-points="-1.2626262626262625,1.4646464646464652 -1.1616161616161613,1.4646464646464652 -1.0606060606060603,1.4646464646464652 -0.9595959595959596,1.4646464646464652 -0.8585858585858579,1.4646464646464652 -0.7575757575757572,1.4646464646464652 -0.6565656565656557,1.4646464646464652 -0.555555555555555,1.4646464646464652 -0.4545454545454544,1.4646464646464652 -0.35353535353535287,1.4646464646464652 -0.2525252525252522,1.4646464646464652 -0.15151515151515066,1.4646464646464652 -0.05050505050505001,1.4646464646464652 0.050505050505051545,1.4646464646464652 0.1515151515151522,1.3636363636363644 0.2525252525252529,1.3636363636363644 0.3535353535353544,1.262626262626263 0.4545454545454551,1.1616161616161622 0.5555555555555567,1.0606060606060617 0.6565656565656574,0.9595959595959602 0.7575757575757579,0.8585858585858596 0.8585858585858596,0.7575757575757579 0.9595959595959602,0.6565656565656574 1.0606060606060617,0.5555555555555567 1.1616161616161622,0.4545454545454551 1.262626262626263,0.3535353535353544 1.3636363636363644,0.2525252525252529 1.4646464646464652,0.2525252525252529 1.5656565656565666,0.2525252525252529 1.6666666666666674,0.2525252525252529 1.767676767676768,0.2525252525252529 1.8686868686868696,0.2525252525252529 1.9696969696969702,0.2525252525252529 2.070707070707072,0.2525252525252529 2.1717171717171726,0.2525252525252529 2.2727272727272734,0.2525252525252529 2.373737373737375,0.2525252525252529 2.4747474747474754,0.2525252525252529 2.575757575757577,0.2525252525252529 2.676767676767678,0.2525252525252529 2.7777777777777786,0.2525252525252529 2.87878787878788,0.2525252525252529 2.9797979797979806,0.2525252525252529 3.080808080808082,0.2525252525252529 3.181818181818183,0.2525252525252529 3.2828282828282833,0.2525252525252529 3.383838383838384,0.2525252525252529 3.4848484848484866,0.2525252525252529 3.5858585858585874,0.2525252525252529 3.6868686868686877,0.2525252525252529 3.7878787878787885,0.2525252525252529 3.8888888888888893,0.2525252525252529 3.989898989898992,0.2525252525252529" data-type="line" data-label="" points="392.80808080808083,373.73737373737384 402.34343434343435,373.73737373737384 411.8787878787879,373.73737373737384 421.4141414141414,373.73737373737384 430.949494949495,373.73737373737384 440.4848484848485,373.73737373737384 450.0202020202021,373.73737373737384 459.55555555555554,373.73737373737384 469.09090909090907,373.73737373737384 478.62626262626264,373.73737373737384 488.16161616161617,373.73737373737384 497.69696969696975,373.73737373737384 507.2323232323232,373.73737373737384 516.7676767676768,373.73737373737384 526.3030303030303,383.27272727272737 535.8383838383838,383.27272727272737 545.3737373737374,392.80808080808094 554.9090909090909,402.3434343434344 564.4444444444445,411.87878787878793 573.9797979797979,421.4141414141415 583.5151515151515,430.94949494949503 593.0505050505051,440.4848484848486 602.5858585858585,450.0202020202021 612.1212121212121,459.5555555555556 621.6565656565656,469.0909090909092 631.1919191919192,478.6262626262627 640.7272727272727,488.1616161616163 650.2626262626262,488.1616161616163 659.7979797979798,488.1616161616163 669.3333333333333,488.1616161616163 678.8686868686868,488.1616161616163 688.4040404040404,488.1616161616163 697.9393939393939,488.1616161616163 707.4747474747475,488.1616161616163 717.0101010101009,488.1616161616163 726.5454545454545,488.1616161616163 736.0808080808081,488.1616161616163 745.6161616161615,488.1616161616163 755.1515151515151,488.1616161616163 764.6868686868686,488.1616161616163 774.2222222222222,488.1616161616163 783.7575757575758,488.1616161616163 793.2929292929292,488.1616161616163 802.8282828282828,488.1616161616163 812.3636363636363,488.1616161616163 821.8989898989898,488.1616161616163 831.4343434343433,488.1616161616163 840.969696969697,488.1616161616163 850.5050505050505,488.1616161616163 860.0404040404039,488.1616161616163 869.5757575757575,488.1616161616163 879.111111111111,488.1616161616163 888.6464646464647,488.1616161616163" fill="none" stroke="rgba(255,0,0,0.75)" stroke-width="14.159999999999995"/></g><g><polyline data-points="3.989898989898992,0.2525252525252529 4.090909090909092,0.2525252525252529 4.191919191919193,0.2525252525252529 4.292929292929293,0.2525252525252529 4.393939393939394,0.2525252525252529 4.494949494949497,0.2525252525252529 4.595959595959597,0.2525252525252529 4.696969696969697,0.2525252525252529 4.7979797979797985,0.2525252525252529 4.898989898989901,0.2525252525252529 5.000000000000002,0.2525252525252529" data-type="line" data-label="" points="888.6464646464647,488.1616161616163 898.181818181818,488.1616161616163 907.7171717171716,488.1616161616163 917.2525252525251,488.1616161616163 926.7878787878785,488.1616161616163 936.3232323232323,488.1616161616163 945.8585858585857,488.1616161616163 955.3939393939393,488.1616161616163 964.9292929292927,488.1616161616163 974.4646464646464,488.1616161616163 984,488.1616161616163" fill="none" stroke="rgba(0,0,255,0.75)" stroke-width="14.159999999999995"/></g><g><polyline data-points="5.000000000000002,-1.2626262626262625 4.898989898989901,-1.363636363636363 4.7979797979797985,-1.4646464646464643 4.696969696969697,-1.5656565656565653 4.595959595959597,-1.6666666666666665 4.494949494949497,-1.7676767676767675 4.393939393939394,-1.8686868686868683 4.292929292929293,-1.9696969696969693 4.191919191919193,-2.07070707070707 4.090909090909092,-2.1717171717171713 3.989898989898992,-2.2727272727272725 3.8888888888888893,-2.3737373737373733 3.7878787878787885,-2.474747474747474 3.6868686868686877,-2.5757575757575752 3.5858585858585874,-2.6767676767676765 3.4848484848484866,-2.7777777777777777 3.383838383838384,-2.8787878787878785 3.2828282828282833,-2.9797979797979792 3.181818181818183,-3.0808080808080804 3.080808080808082,-3.1818181818181817 2.9797979797979806,-3.2828282828282824 2.87878787878788,-3.383838383838383 2.7777777777777786,-3.484848484848485 2.676767676767678,-3.5858585858585856 2.575757575757577,-3.6868686868686864 2.4747474747474754,-3.7878787878787876 2.373737373737375,-3.8888888888888884 2.2727272727272734,-3.98989898989899 2.1717171717171726,-4.090909090909091 2.070707070707072,-4.191919191919193 1.9696969696969702,-4.292929292929293 1.8686868686868696,-4.393939393939394 1.8686868686868696,-4.494949494949496 1.8686868686868696,-4.595959595959596 1.8686868686868696,-4.696969696969697 1.8686868686868696,-4.7979797979797985 1.8686868686868696,-4.898989898989899 1.8686868686868696,-5.000000000000001" data-type="line" data-label="" points="984,631.1919191919193 974.4646464646464,640.7272727272727 964.9292929292927,650.2626262626263 955.3939393939393,659.7979797979798 945.8585858585857,669.3333333333334 936.3232323232323,678.8686868686868 926.7878787878785,688.4040404040404 917.2525252525251,697.939393939394 907.7171717171716,707.4747474747475 898.181818181818,717.010101010101 888.6464646464647,726.5454545454545 879.111111111111,736.0808080808081 869.5757575757575,745.6161616161615 860.0404040404039,755.1515151515151 850.5050505050505,764.6868686868687 840.969696969697,774.2222222222222 831.4343434343433,783.7575757575758 821.8989898989898,793.2929292929292 812.3636363636363,802.8282828282828 802.8282828282828,812.3636363636363 793.2929292929292,821.8989898989898 783.7575757575758,831.4343434343434 774.2222222222222,840.969696969697 764.6868686868686,850.5050505050505 755.1515151515151,860.0404040404039 745.6161616161615,869.5757575757575 736.0808080808081,879.1111111111111 726.5454545454545,888.6464646464647 717.0101010101009,898.1818181818181 707.4747474747475,907.7171717171718 697.9393939393939,917.2525252525252 688.4040404040404,926.7878787878788 688.4040404040404,936.3232323232323 688.4040404040404,945.8585858585858 688.4040404040404,955.3939393939394 688.4040404040404,964.9292929292928 688.4040404040404,974.4646464646464 688.4040404040404,984" fill="none" stroke="rgba(255,0,0,0.75)" stroke-width="14.159999999999995"/></g><g><polyline data-points="-4.7979797979797985,5.000000000000002 -4.696969696969697,4.898989898989901 -4.595959595959596,4.7979797979797985 -4.494949494949496,4.696969696969697 -4.393939393939394,4.595959595959597 -4.292929292929293,4.494949494949497 -4.191919191919193,4.393939393939394 -4.090909090909091,4.292929292929293 -3.98989898989899,4.191919191919193 -3.8888888888888884,4.090909090909092 -3.7878787878787876,3.989898989898992 -3.6868686868686864,3.8888888888888893 -3.5858585858585856,3.7878787878787885 -3.484848484848485,3.6868686868686877 -3.484848484848485,3.5858585858585874 -3.484848484848485,3.4848484848484866 -3.484848484848485,3.383838383838384 -3.484848484848485,3.2828282828282833" data-type="line" data-label="" points="59.07070707070716,40.000000000000114 68.60606060606068,49.53535353535369 78.14141414141426,59.07070707070733 87.67676767676772,68.60606060606085 97.21212121212136,78.14141414141432 106.74747474747483,87.67676767676778 116.28282828282829,97.21212121212153 125.81818181818193,106.747474747475 135.35353535353545,116.28282828282846 144.88888888888903,125.81818181818198 154.42424242424255,135.35353535353545 163.95959595959607,144.88888888888908 173.4949494949496,154.4242424242426 183.03030303030312,163.95959595959613 183.03030303030312,173.4949494949496 183.03030303030312,183.03030303030312 183.03030303030312,192.56565656565675 183.03030303030312,202.10101010101027" fill="none" stroke="rgba(0,0,255,0.75)" stroke-width="14.159999999999995"/></g><g><polyline data-points="-3.484848484848485,3.2828282828282833 -3.484848484848485,3.181818181818183 -3.484848484848485,3.080808080808082 -3.484848484848485,2.9797979797979806 -3.484848484848485,2.87878787878788 -3.484848484848485,2.7777777777777786 -3.484848484848485,2.676767676767678 -3.484848484848485,2.575757575757577 -3.484848484848485,2.4747474747474754 -3.484848484848485,2.373737373737375 -3.484848484848485,2.2727272727272734 -3.484848484848485,2.1717171717171726 -3.484848484848485,2.070707070707072 -3.484848484848485,1.9696969696969702 -3.484848484848485,1.8686868686868696 -3.484848484848485,1.767676767676768 -3.484848484848485,1.6666666666666674 -3.484848484848485,1.5656565656565666 -3.484848484848485,1.4646464646464652 -3.484848484848485,1.3636363636363644 -3.484848484848485,1.262626262626263 -3.484848484848485,1.1616161616161622 -3.484848484848485,1.0606060606060617 -3.484848484848485,0.9595959595959602 -3.484848484848485,0.8585858585858596 -3.484848484848485,0.7575757575757579 -3.484848484848485,0.6565656565656574 -3.484848484848485,0.5555555555555567 -3.484848484848485,0.4545454545454551 -3.484848484848485,0.3535353535353544 -3.484848484848485,0.2525252525252529 -3.484848484848485,0.1515151515151522 -3.484848484848485,0.050505050505051545 -3.484848484848485,-0.05050505050505001 -3.484848484848485,-0.15151515151515066 -3.484848484848485,-0.2525252525252522 -3.484848484848485,-0.35353535353535287 -3.484848484848485,-0.4545454545454544 -3.484848484848485,-0.555555555555555 -3.484848484848485,-0.6565656565656557 -3.484848484848485,-0.7575757575757572 -3.484848484848485,-0.8585858585858579 -3.484848484848485,-0.9595959595959596 -3.484848484848485,-1.0606060606060603 -3.484848484848485,-1.1616161616161613 -3.484848484848485,-1.2626262626262625 -3.484848484848485,-1.363636363636363 -3.484848484848485,-1.4646464646464643 -3.484848484848485,-1.5656565656565653 -3.484848484848485,-1.6666666666666665 -3.484848484848485,-1.7676767676767675 -3.484848484848485,-1.8686868686868683 -3.484848484848485,-1.9696969696969693 -3.484848484848485,-2.07070707070707 -3.383838383838383,-2.1717171717171713 -3.383838383838383,-2.2727272727272725 -3.383838383838383,-2.3737373737373733 -3.383838383838383,-2.474747474747474 -3.383838383838383,-2.5757575757575752 -3.383838383838383,-2.6767676767676765 -3.383838383838383,-2.7777777777777777 -3.383838383838383,-2.8787878787878785 -3.383838383838383,-2.9797979797979792 -3.383838383838383,-3.0808080808080804 -3.383838383838383,-3.1818181818181817 -3.383838383838383,-3.2828282828282824 -3.383838383838383,-3.383838383838383 -3.383838383838383,-3.484848484848485 -3.383838383838383,-3.5858585858585856 -3.383838383838383,-3.6868686868686864 -3.383838383838383,-3.7878787878787876 -3.383838383838383,-3.8888888888888884 -3.383838383838383,-3.98989898989899" data-type="line" data-label="" points="183.03030303030312,202.10101010101027 183.03030303030312,211.63636363636374 183.03030303030312,221.17171717171726 183.03030303030312,230.70707070707084 183.03030303030312,240.24242424242436 183.03030303030312,249.77777777777794 183.03030303030312,259.3131313131314 183.03030303030312,268.84848484848493 183.03030303030312,278.38383838383857 183.03030303030312,287.91919191919203 183.03030303030312,297.4545454545456 183.03030303030312,306.9898989898991 183.03030303030312,316.5252525252526 183.03030303030312,326.06060606060623 183.03030303030312,335.5959595959597 183.03030303030312,345.1313131313133 183.03030303030312,354.66666666666674 183.03030303030312,364.2020202020203 183.03030303030312,373.73737373737384 183.03030303030312,383.27272727272737 183.03030303030312,392.80808080808094 183.03030303030312,402.3434343434344 183.03030303030312,411.87878787878793 183.03030303030312,421.4141414141415 183.03030303030312,430.94949494949503 183.03030303030312,440.4848484848486 183.03030303030312,450.0202020202021 183.03030303030312,459.5555555555556 183.03030303030312,469.0909090909092 183.03030303030312,478.6262626262627 183.03030303030312,488.1616161616163 183.03030303030312,497.69696969696975 183.03030303030312,507.23232323232327 183.03030303030312,516.7676767676768 183.03030303030312,526.3030303030304 183.03030303030312,535.838383838384 183.03030303030312,545.3737373737374 183.03030303030312,554.909090909091 183.03030303030312,564.4444444444445 183.03030303030312,573.979797979798 183.03030303030312,583.5151515151516 183.03030303030312,593.0505050505051 183.03030303030312,602.5858585858587 183.03030303030312,612.1212121212121 183.03030303030312,621.6565656565657 183.03030303030312,631.1919191919193 183.03030303030312,640.7272727272727 183.03030303030312,650.2626262626263 183.03030303030312,659.7979797979798 183.03030303030312,669.3333333333334 183.03030303030312,678.8686868686868 183.03030303030312,688.4040404040404 183.03030303030312,697.939393939394 183.03030303030312,707.4747474747475 192.5656565656567,717.010101010101 192.5656565656567,726.5454545454545 192.5656565656567,736.0808080808081 192.5656565656567,745.6161616161615 192.5656565656567,755.1515151515151 192.5656565656567,764.6868686868687 192.5656565656567,774.2222222222222 192.5656565656567,783.7575757575758 192.5656565656567,793.2929292929292 192.5656565656567,802.8282828282828 192.5656565656567,812.3636363636363 192.5656565656567,821.8989898989898 192.5656565656567,831.4343434343434 192.5656565656567,840.969696969697 192.5656565656567,850.5050505050505 192.5656565656567,860.0404040404039 192.5656565656567,869.5757575757575 192.5656565656567,879.1111111111111 192.5656565656567,888.6464646464647" fill="none" stroke="rgba(255,0,0,0.75)" stroke-width="14.159999999999995"/></g><g><polyline data-points="-3.383838383838383,-3.98989898989899 -3.383838383838383,-4.090909090909091 -3.383838383838383,-4.191919191919193 -3.383838383838383,-4.292929292929293 -3.383838383838383,-4.393939393939394 -3.383838383838383,-4.494949494949496 -3.383838383838383,-4.595959595959596 -3.383838383838383,-4.696969696969697 -3.383838383838383,-4.7979797979797985 -3.383838383838383,-4.898989898989899 -3.383838383838383,-5.000000000000001" data-type="line" data-label="" points="192.5656565656567,888.6464646464647 192.5656565656567,898.1818181818181 192.5656565656567,907.7171717171718 192.5656565656567,917.2525252525252 192.5656565656567,926.7878787878788 192.5656565656567,936.3232323232323 192.5656565656567,945.8585858585858 192.5656565656567,955.3939393939394 192.5656565656567,964.9292929292928 192.5656565656567,974.4646464646464 192.5656565656567,984" fill="none" stroke="rgba(0,0,255,0.75)" stroke-width="14.159999999999995"/></g><g><polyline data-points="-5.000000000000001,-3.6868686868686864 -4.898989898989899,-3.6868686868686864 -4.7979797979797985,-3.5858585858585856 -4.696969696969697,-3.484848484848485 -4.595959595959596,-3.383838383838383 -4.494949494949496,-3.2828282828282824 -4.393939393939394,-3.1818181818181817 -4.292929292929293,-3.0808080808080804 -4.191919191919193,-2.9797979797979792 -4.090909090909091,-2.8787878787878785 -3.98989898989899,-2.8787878787878785" data-type="line" data-label="" points="40.00000000000006,860.0404040404039 49.53535353535369,860.0404040404039 59.07070707070716,850.5050505050505 68.60606060606068,840.969696969697 78.14141414141426,831.4343434343434 87.67676767676772,821.8989898989898 97.21212121212136,812.3636363636363 106.74747474747483,802.8282828282828 116.28282828282829,793.2929292929292 125.81818181818193,783.7575757575758 135.35353535353545,783.7575757575758" fill="none" stroke="rgba(255,0,0,0.75)" stroke-width="14.159999999999995"/></g><g><polyline data-points="-3.98989898989899,-2.8787878787878785 -3.8888888888888884,-2.7777777777777777 -3.7878787878787876,-2.6767676767676765 -3.6868686868686864,-2.5757575757575752 -3.5858585858585856,-2.474747474747474 -3.484848484848485,-2.3737373737373733 -3.383838383838383,-2.2727272727272725 -3.2828282828282824,-2.1717171717171713 -3.1818181818181817,-2.07070707070707 -3.0808080808080804,-1.9696969696969693 -2.9797979797979792,-1.8686868686868683 -2.8787878787878785,-1.7676767676767675 -2.7777777777777777,-1.6666666666666665 -2.6767676767676765,-1.5656565656565653 -2.5757575757575752,-1.4646464646464643 -2.474747474747474,-1.363636363636363 -2.3737373737373733,-1.2626262626262625 -2.2727272727272725,-1.1616161616161613 -2.1717171717171713,-1.0606060606060603 -2.07070707070707,-0.9595959595959596 -1.9696969696969693,-0.9595959595959596 -1.8686868686868683,-0.9595959595959596 -1.7676767676767675,-0.9595959595959596 -1.6666666666666665,-0.9595959595959596 -1.5656565656565653,-0.9595959595959596 -1.4646464646464643,-0.9595959595959596 -1.363636363636363,-0.9595959595959596 -1.2626262626262625,-0.9595959595959596 -1.1616161616161613,-0.9595959595959596 -1.0606060606060603,-0.9595959595959596 -0.9595959595959596,-0.9595959595959596 -0.8585858585858579,-0.9595959595959596 -0.7575757575757572,-0.9595959595959596" data-type="line" data-label="" points="135.35353535353545,783.7575757575758 144.88888888888903,774.2222222222222 154.42424242424255,764.6868686868687 163.95959595959607,755.1515151515151 173.4949494949496,745.6161616161615 183.03030303030312,736.0808080808081 192.5656565656567,726.5454545454545 202.10101010101022,717.010101010101 211.63636363636374,707.4747474747475 221.17171717171726,697.939393939394 230.70707070707084,688.4040404040404 240.2424242424243,678.8686868686868 249.77777777777783,669.3333333333334 259.3131313131314,659.7979797979798 268.84848484848493,650.2626262626263 278.38383838383845,640.7272727272727 287.91919191919203,631.1919191919193 297.4545454545455,621.6565656565657 306.9898989898991,612.1212121212121 316.5252525252526,602.5858585858587 326.0606060606061,602.5858585858587 335.59595959595964,602.5858585858587 345.13131313131316,602.5858585858587 354.6666666666667,602.5858585858587 364.2020202020202,602.5858585858587 373.7373737373738,602.5858585858587 383.2727272727273,602.5858585858587 392.80808080808083,602.5858585858587 402.34343434343435,602.5858585858587 411.8787878787879,602.5858585858587 421.4141414141414,602.5858585858587 430.949494949495,602.5858585858587 440.4848484848485,602.5858585858587" fill="none" stroke="rgba(0,0,255,0.75)" stroke-width="14.159999999999995"/></g><g><polyline data-points="-0.7575757575757572,-0.9595959595959596 -0.6565656565656557,-0.9595959595959596 -0.555555555555555,-0.9595959595959596 -0.4545454545454544,-0.9595959595959596 -0.35353535353535287,-0.9595959595959596 -0.2525252525252522,-0.9595959595959596 -0.15151515151515066,-0.9595959595959596 -0.05050505050505001,-0.9595959595959596 0.050505050505051545,-0.9595959595959596 0.1515151515151522,-0.9595959595959596 0.2525252525252529,-0.9595959595959596 0.3535353535353544,-0.9595959595959596 0.4545454545454551,-0.9595959595959596 0.5555555555555567,-0.9595959595959596 0.6565656565656574,-0.9595959595959596 0.7575757575757579,-0.9595959595959596 0.8585858585858596,-0.9595959595959596 0.9595959595959602,-0.9595959595959596 1.0606060606060617,-0.9595959595959596 1.1616161616161622,-0.9595959595959596 1.262626262626263,-0.9595959595959596 1.3636363636363644,-0.9595959595959596 1.4646464646464652,-0.9595959595959596 1.5656565656565666,-0.8585858585858579 1.6666666666666674,-0.8585858585858579 1.767676767676768,-0.7575757575757572 1.8686868686868696,-0.6565656565656557 1.9696969696969702,-0.555555555555555 2.070707070707072,-0.4545454545454544 2.1717171717171726,-0.35353535353535287 2.2727272727272734,-0.2525252525252522 2.373737373737375,-0.2525252525252522 2.4747474747474754,-0.2525252525252522 2.575757575757577,-0.2525252525252522 2.676767676767678,-0.2525252525252522 2.7777777777777786,-0.2525252525252522 2.87878787878788,-0.2525252525252522 2.9797979797979806,-0.2525252525252522 3.080808080808082,-0.2525252525252522 3.181818181818183,-0.2525252525252522 3.2828282828282833,-0.2525252525252522 3.383838383838384,-0.2525252525252522 3.4848484848484866,-0.2525252525252522 3.5858585858585874,-0.2525252525252522 3.6868686868686877,-0.2525252525252522 3.7878787878787885,-0.2525252525252522 3.8888888888888893,-0.2525252525252522 3.989898989898992,-0.2525252525252522 4.090909090909092,-0.15151515151515066 4.191919191919193,-0.15151515151515066 4.292929292929293,-0.05050505050505001 4.393939393939394,0.050505050505051545 4.494949494949497,0.1515151515151522 4.595959595959597,0.2525252525252529 4.696969696969697,0.3535353535353544 4.7979797979797985,0.4545454545454551 4.898989898989901,0.5555555555555567 5.000000000000002,0.6565656565656574 5.000000000000002,0.7575757575757579 5.000000000000002,0.8585858585858596 5.000000000000002,0.9595959595959602 5.000000000000002,1.0606060606060617 5.000000000000002,1.1616161616161622 5.000000000000002,1.262626262626263 5.000000000000002,1.3636363636363644 5.000000000000002,1.4646464646464652" data-type="line" data-label="" points="440.4848484848485,602.5858585858587 450.0202020202021,602.5858585858587 459.55555555555554,602.5858585858587 469.09090909090907,602.5858585858587 478.62626262626264,602.5858585858587 488.16161616161617,602.5858585858587 497.69696969696975,602.5858585858587 507.2323232323232,602.5858585858587 516.7676767676768,602.5858585858587 526.3030303030303,602.5858585858587 535.8383838383838,602.5858585858587 545.3737373737374,602.5858585858587 554.9090909090909,602.5858585858587 564.4444444444445,602.5858585858587 573.9797979797979,602.5858585858587 583.5151515151515,602.5858585858587 593.0505050505051,602.5858585858587 602.5858585858585,602.5858585858587 612.1212121212121,602.5858585858587 621.6565656565656,602.5858585858587 631.1919191919192,602.5858585858587 640.7272727272727,602.5858585858587 650.2626262626262,602.5858585858587 659.7979797979798,593.0505050505051 669.3333333333333,593.0505050505051 678.8686868686868,583.5151515151516 688.4040404040404,573.979797979798 697.9393939393939,564.4444444444445 707.4747474747475,554.909090909091 717.0101010101009,545.3737373737374 726.5454545454545,535.838383838384 736.0808080808081,535.838383838384 745.6161616161615,535.838383838384 755.1515151515151,535.838383838384 764.6868686868686,535.838383838384 774.2222222222222,535.838383838384 783.7575757575758,535.838383838384 793.2929292929292,535.838383838384 802.8282828282828,535.838383838384 812.3636363636363,535.838383838384 821.8989898989898,535.838383838384 831.4343434343433,535.838383838384 840.969696969697,535.838383838384 850.5050505050505,535.838383838384 860.0404040404039,535.838383838384 869.5757575757575,535.838383838384 879.111111111111,535.838383838384 888.6464646464647,535.838383838384 898.181818181818,526.3030303030304 907.7171717171716,526.3030303030304 917.2525252525251,516.7676767676768 926.7878787878785,507.23232323232327 936.3232323232323,497.69696969696975 945.8585858585857,488.1616161616163 955.3939393939393,478.6262626262627 964.9292929292927,469.0909090909092 974.4646464646464,459.5555555555556 984,450.0202020202021 984,440.4848484848486 984,430.94949494949503 984,421.4141414141415 984,411.87878787878793 984,402.3434343434344 984,392.80808080808094 984,383.27272727272737 984,373.73737373737384" fill="none" stroke="rgba(255,0,0,0.75)" stroke-width="14.159999999999995"/></g><g><rect data-type="rect" data-label="" data-x="0" data-y="0" x="40.000000000000114" y="40.000000000000284" width="943.9999999999997" height="943.9999999999998" fill="none" stroke="gray" stroke-width="0.010593220338983056"/></g><g><rect data-type="rect" data-label="" data-x="0" data-y="0" x="40.000000000000114" y="40.000000000000284" width="943.9999999999997" height="943.9999999999998" fill="none" stroke="rgba(15, 23, 42, 0.8)" stroke-width="0.010593220338983056"/></g><circle data-type="circle" data-label="" data-x="0.8585858585858596" data-y="3.989898989898992" cx="593.0505050505051" cy="135.35353535353545" r="28.791999999999987" fill="rgba(0,0,0,0.3)" stroke="black" stroke-width="0.010593220338983056"/><circle data-type="circle" data-label="" data-x="-3.98989898989899" data-y="-0.05050505050505001" cx="135.35353535353545" cy="516.7676767676768" r="28.791999999999987" fill="rgba(0,0,0,0.3)" stroke="black" stroke-width="0.010593220338983056"/><circle data-type="circle" data-label="" data-x="3.989898989898992" data-y="2.7777777777777786" cx="888.6464646464647" cy="249.77777777777794" r="28.791999999999987" fill="rgba(0,0,0,0.3)" stroke="black" stroke-width="0.010593220338983056"/><circle data-type="circle" data-label="" data-x="3.080808080808082" data-y="3.989898989898992" cx="802.8282828282828" cy="135.35353535353545" r="28.791999999999987" fill="rgba(0,0,0,0.3)" stroke="black" stroke-width="0.010593220338983056"/><circle data-type="circle" data-label="" data-x="3.080808080808082" data-y="2.070707070707072" cx="802.8282828282828" cy="316.5252525252526" r="28.791999999999987" fill="rgba(0,0,0,0.3)" stroke="black" stroke-width="0.010593220338983056"/><circle data-type="circle" data-label="" data-x="1.4646464646464652" data-y="-0.4545454545454544" cx="650.2626262626262" cy="554.909090909091" r="28.791999999999987" fill="rgba(0,0,0,0.3)" stroke="black" stroke-width="0.010593220338983056"/><circle data-type="circle" data-label="" data-x="0.050505050505051545" data-y="0.9595959595959602" cx="516.7676767676768" cy="421.4141414141415" r="28.791999999999987" fill="rgba(0,0,0,0.3)" stroke="black" stroke-width="0.010593220338983056"/><circle data-type="circle" data-label="" data-x="-3.98989898989899" data-y="2.676767676767678" cx="135.35353535353545" cy="259.3131313131314" r="28.791999999999987" fill="rgba(0,0,0,0.3)" stroke="black" stroke-width="0.010593220338983056"/><circle data-type="circle" data-label="" data-x="-1.2626262626262625" data-y="1.4646464646464652" cx="392.80808080808083" cy="373.73737373737384" r="28.791999999999987" fill="rgba(0,0,0,0.3)" stroke="black" stroke-width="0.010593220338983056"/><circle data-type="circle" data-label="" data-x="3.989898989898992" data-y="0.2525252525252529" cx="888.6464646464647" cy="488.1616161616163" r="28.791999999999987" fill="rgba(0,0,0,0.3)" stroke="black" stroke-width="0.010593220338983056"/><circle data-type="circle" data-label="" data-x="-3.484848484848485" data-y="3.2828282828282833" cx="183.03030303030312" cy="202.10101010101027" r="28.791999999999987" fill="rgba(0,0,0,0.3)" stroke="black" stroke-width="0.010593220338983056"/><circle data-type="circle" data-label="" data-x="-3.383838383838383" data-y="-3.98989898989899" cx="192.5656565656567" cy="888.6464646464647" r="28.791999999999987" fill="rgba(0,0,0,0.3)" stroke="black" stroke-width="0.010593220338983056"/><circle data-type="circle" data-label="" data-x="-3.98989898989899" data-y="-2.8787878787878785" cx="135.35353535353545" cy="783.7575757575758" r="28.791999999999987" fill="rgba(0,0,0,0.3)" stroke="black" stroke-width="0.010593220338983056"/><circle data-type="circle" data-label="" data-x="-0.7575757575757572" data-y="-0.9595959595959596" cx="440.4848484848485" cy="602.5858585858587" r="28.791999999999987" fill="rgba(0,0,0,0.3)" stroke="black" stroke-width="0.010593220338983056"/><g id="crosshair" style="display: none"><line id="crosshair-h" y1="0" y2="1024" stroke="#666" stroke-width="0.5"/><line id="crosshair-v" x1="0" x2="1024" stroke="#666" stroke-width="0.5"/><text id="coordinates" font-family="monospace" font-size="12" fill="#666"></text></g><script><![CDATA[
              document.currentScript.parentElement.addEventListener('mousemove', (e) => {
                const svg = e.currentTarget;
                const rect = svg.getBoundingClientRect();
                const x = e.clientX - rect.left;
                const y = e.clientY - rect.top;
                const crosshair = svg.getElementById('crosshair');
                const h = svg.getElementById('crosshair-h');
                const v = svg.getElementById('crosshair-v');
                const coords = svg.getElementById('coordinates');
                
                crosshair.style.display = 'block';
                h.setAttribute('x1', '0');
                h.setAttribute('x2', '1024');
                h.setAttribute('y1', y);
                h.setAttribute('y2', y);
                v.setAttribute('x1', x);
                v.setAttribute('x2', x);
                v.setAttribute('y1', '0');
                v.setAttribute('y2', '1024');

                // Calculate real coordinates using inverse transformation
                const matrix = {"a":94.39999999999996,"c":0,"e":511.99999999999994,"b":0,"d":-94.39999999999996,"f":512.0000000000001};
                // Manually invert and apply the affine transform
                // Since we only use translate and scale, we can directly compute:
                // x' = (x - tx) / sx
                // y' = (y - ty) / sy
                const sx = matrix.a;
                const sy = matrix.d;
                const tx = matrix.e; 
                const ty = matrix.f;
                const realPoint = {
                  x: (x - tx) / sx,
                  y: (y - ty) / sy // Flip y back since we used negative scale
                }
                
                coords.textContent = `(${realPoint.x.toFixed(2)}, ${realPoint.y.toFixed(2)})`;
                coords.setAttribute('x', (x + 5).toString());
                coords.setAttribute('y', (y - 5).toString());
              });
              document.currentScript.parentElement.addEventListener('mouseleave', () => {
                document.currentScript.parentElement.getElementById('crosshair').style.display = 'none';
              });
            ]]></script></svg>