<svg width="1024" height="1024" viewBox="0 0 1024 1024" xmlns="http://www.w3.org/2000/svg"><rect width="100%" height="100%" fill="white"/><g><circle data-type="point" data-label="conn_000" data-x="-5" data-y="-0.78" cx="40.000000000000114" cy="585.6320000000001" r="28.792" fill="red" stroke="#bda70f" stroke-width="28.792"/></g><g><circle data-type="point" data-label="conn_000" data-x="5" data-y="0.24" cx="983.9999999999998" cy="489.3440000000001" r="28.792" fill="blue" stroke="#bda70f" stroke-width="28.792"/></g><g><circle data-type="point" data-label="conn_001" data-x="-1.5" data-y="5" cx="370.4" cy="40.000000000000284" r="28.792" fill="red" stroke="#0fa0bd" stroke-width="28.792"/></g><g><circle data-type="point" data-label="conn_001" data-x="2.56" data-y="-5" cx="753.6639999999999" cy="984" r="28.792" fill="red" stroke="#0fa0bd" stroke-width="28.792"/></g><g><circle data-type="point" data-label="conn_002" data-x="1.12" data-y="-5" cx="617.728" cy="984" r="28.792" fill="red" stroke="#bd0f6d" stroke-width="28.792"/></g><g><circle data-type="point" data-label="conn_002" data-x="5" data-y="2.2600000000000002" cx="983.9999999999998" cy="298.6560000000002" r="28.792" fill="blue" stroke="#bd0f6d" stroke-width="28.792"/></g><g><circle data-type="point" data-label="conn_003" data-x="5" data-y="-4.0200000000000005" cx="983.9999999999998" cy="891.488" r="28.792" fill="blue" stroke="#3bbd0f" stroke-width="28.792"/></g><g><circle data-type="point" data-label="conn_003" data-x="-0.52" data-y="-5" cx="462.912" cy="984" r="28.792" fill="red" stroke="#3bbd0f" stroke-width="28.792"/></g><g><circle data-type="point" data-label="conn_004" data-x="-0.58" data-y="5" cx="457.248" cy="40.000000000000284" r="28.792" fill="blue" stroke="#170fbd" stroke-width="28.792"/></g><g><circle data-type="point" data-label="conn_004" data-x="-4.34" data-y="-5" cx="102.30400000000014" cy="984" r="28.792" fill="red" stroke="#170fbd" stroke-width="28.792"/></g><g><circle data-type="point" data-label="conn_005" data-x="3.04" data-y="5" cx="798.9759999999999" cy="40.000000000000284" r="28.792" fill="blue" stroke="#bd490f" stroke-width="28.792"/></g><g><circle data-type="point" data-label="conn_005" data-x="-5" data-y="1" cx="40.000000000000114" cy="417.60000000000014" r="28.792" fill="red" stroke="#bd490f" stroke-width="28.792"/></g><g><circle data-type="point" data-label="conn_006" data-x="1.76" data-y="5" cx="678.1439999999999" cy="40.000000000000284" r="28.792" fill="blue" stroke="#0fbd7c" stroke-width="28.792"/></g><g><circle data-type="point" data-label="conn_006" data-x="-4.92" data-y="5" cx="47.552000000000135" cy="40.000000000000284" r="28.792" fill="blue" stroke="#0fbd7c" stroke-width="28.792"/></g><g><circle data-type="point" data-label="conn_007" data-x="-5" data-y="2.44" cx="40.000000000000114" cy="281.6640000000002" r="28.792" fill="red" stroke="#ae0fbd" stroke-width="28.792"/></g><g><circle data-type="point" data-label="conn_007" data-x="-5" data-y="0" cx="40.000000000000114" cy="512.0000000000001" r="28.792" fill="red" stroke="#ae0fbd" stroke-width="28.792"/></g><g><polyline data-points="-5.000000000000001,-0.7575757575757572 -4.898989898989899,-0.6565656565656557 -4.7979797979797985,-0.555555555555555 -4.696969696969697,-0.4545454545454544 -4.595959595959596,-0.35353535353535287 -4.494949494949496,-0.2525252525252522 -4.393939393939394,-0.15151515151515066 -4.292929292929293,-0.05050505050505001 -4.191919191919193,0.050505050505051545 -4.090909090909091,0.1515151515151522 -3.98989898989899,0.2525252525252529 -3.8888888888888884,0.2525252525252529 -3.7878787878787876,0.2525252525252529 -3.6868686868686864,0.2525252525252529 -3.5858585858585856,0.2525252525252529 -3.484848484848485,0.2525252525252529 -3.383838383838383,0.2525252525252529 -3.2828282828282824,0.2525252525252529 -3.1818181818181817,0.2525252525252529 -3.0808080808080804,0.2525252525252529 -2.9797979797979792,0.2525252525252529 -2.8787878787878785,0.2525252525252529 -2.7777777777777777,0.2525252525252529 -2.6767676767676765,0.2525252525252529 -2.5757575757575752,0.2525252525252529 -2.474747474747474,0.2525252525252529 -2.3737373737373733,0.2525252525252529 -2.2727272727272725,0.2525252525252529 -2.1717171717171713,0.2525252525252529 -2.07070707070707,0.2525252525252529 -1.9696969696969693,0.2525252525252529 -1.8686868686868683,0.2525252525252529 -1.7676767676767675,0.2525252525252529 -1.6666666666666665,0.2525252525252529 -1.5656565656565653,0.2525252525252529 -1.4646464646464643,0.2525252525252529 -1.363636363636363,0.2525252525252529 -1.2626262626262625,0.2525252525252529 -1.1616161616161613,0.2525252525252529 -1.0606060606060603,0.2525252525252529 -0.9595959595959596,0.2525252525252529 -0.8585858585858579,0.2525252525252529 -0.7575757575757572,0.2525252525252529 -0.6565656565656557,0.2525252525252529 -0.555555555555555,0.2525252525252529 -0.4545454545454544,0.2525252525252529 -0.35353535353535287,0.2525252525252529 -0.2525252525252522,0.2525252525252529 -0.15151515151515066,0.2525252525252529 -0.05050505050505001,0.2525252525252529 0.050505050505051545,0.2525252525252529 0.1515151515151522,0.2525252525252529 0.2525252525252529,0.2525252525252529 0.3535353535353544,0.2525252525252529 0.4545454545454551,0.2525252525252529 0.5555555555555567,0.2525252525252529 0.6565656565656574,0.2525252525252529 0.7575757575757579,0.2525252525252529 0.8585858585858596,0.2525252525252529 0.9595959595959602,0.2525252525252529 1.0606060606060617,0.2525252525252529 1.1616161616161622,0.2525252525252529 1.262626262626263,0.2525252525252529 1.3636363636363644,0.2525252525252529 1.4646464646464652,0.2525252525252529 1.5656565656565666,0.2525252525252529 1.6666666666666674,0.2525252525252529 1.767676767676768,0.2525252525252529 1.8686868686868696,0.2525252525252529 1.9696969696969702,0.2525252525252529 2.070707070707072,0.2525252525252529 2.1717171717171726,0.2525252525252529 2.2727272727272734,0.2525252525252529 2.373737373737375,0.2525252525252529 2.4747474747474754,0.2525252525252529 2.575757575757577,0.2525252525252529 2.676767676767678,0.2525252525252529 2.7777777777777786,0.2525252525252529 2.87878787878788,0.2525252525252529 2.9797979797979806,0.2525252525252529 3.080808080808082,0.2525252525252529 3.181818181818183,0.2525252525252529 3.2828282828282833,0.2525252525252529 3.383838383838384,0.2525252525252529 3.4848484848484866,0.2525252525252529 3.5858585858585874,0.2525252525252529 3.6868686868686877,0.2525252525252529 3.7878787878787885,0.2525252525252529 3.8888888888888893,0.2525252525252529 3.989898989898992,0.2525252525252529" data-type="line" data-label="" points="40.00000000000006,583.5151515151516 49.53535353535369,573.979797979798 59.07070707070716,564.4444444444445 68.60606060606068,554.909090909091 78.14141414141426,545.3737373737374 87.67676767676772,535.838383838384 97.21212121212136,526.3030303030304 106.74747474747483,516.7676767676768 116.28282828282829,507.23232323232327 125.81818181818193,497.69696969696975 135.35353535353545,488.1616161616163 144.88888888888903,488.1616161616163 154.42424242424255,488.1616161616163 163.95959595959607,488.1616161616163 173.4949494949496,488.1616161616163 183.03030303030312,488.1616161616163 192.5656565656567,488.1616161616163 202.10101010101022,488.1616161616163 211.63636363636374,488.1616161616163 221.17171717171726,488.1616161616163 230.70707070707084,488.1616161616163 240.2424242424243,488.1616161616163 249.77777777777783,488.1616161616163 259.3131313131314,488.1616161616163 268.84848484848493,488.1616161616163 278.38383838383845,488.1616161616163 287.91919191919203,488.1616161616163 297.4545454545455,488.1616161616163 306.9898989898991,488.1616161616163 316.5252525252526,488.1616161616163 326.0606060606061,488.1616161616163 335.59595959595964,488.1616161616163 345.13131313131316,488.1616161616163 354.6666666666667,488.1616161616163 364.2020202020202,488.1616161616163 373.7373737373738,488.1616161616163 383.2727272727273,488.1616161616163 392.80808080808083,488.1616161616163 402.34343434343435,488.1616161616163 411.8787878787879,488.1616161616163 421.4141414141414,488.1616161616163 430.949494949495,488.1616161616163 440.4848484848485,488.1616161616163 450.0202020202021,488.1616161616163 459.55555555555554,488.1616161616163 469.09090909090907,488.1616161616163 478.62626262626264,488.1616161616163 488.16161616161617,488.1616161616163 497.69696969696975,488.1616161616163 507.2323232323232,488.1616161616163 516.7676767676768,488.1616161616163 526.3030303030303,488.1616161616163 535.8383838383838,488.1616161616163 545.3737373737374,488.1616161616163 554.9090909090909,488.1616161616163 564.4444444444445,488.1616161616163 573.9797979797979,488.1616161616163 583.5151515151515,488.1616161616163 593.0505050505051,488.1616161616163 602.5858585858585,488.1616161616163 612.1212121212121,488.1616161616163 621.6565656565656,488.1616161616163 631.1919191919192,488.1616161616163 640.7272727272727,488.1616161616163 650.2626262626262,488.1616161616163 659.7979797979798,488.1616161616163 669.3333333333333,488.1616161616163 678.8686868686868,488.1616161616163 688.4040404040404,488.1616161616163 697.9393939393939,488.1616161616163 707.4747474747475,488.1616161616163 717.0101010101009,488.1616161616163 726.5454545454545,488.1616161616163 736.0808080808081,488.1616161616163 745.6161616161615,488.1616161616163 755.1515151515151,488.1616161616163 764.6868686868686,488.1616161616163 774.2222222222222,488.1616161616163 783.7575757575758,488.1616161616163 793.2929292929292,488.1616161616163 802.8282828282828,488.1616161616163 812.3636363636363,488.1616161616163 821.8989898989898,488.1616161616163 831.4343434343433,488.1616161616163 840.969696969697,488.1616161616163 850.5050505050505,488.1616161616163 860.0404040404039,488.1616161616163 869.5757575757575,488.1616161616163 879.111111111111,488.1616161616163 888.6464646464647,488.1616161616163" fill="none" stroke="rgba(255,0,0,0.75)" stroke-width="14.159999999999995"/></g><g><polyline data-points="3.989898989898992,0.2525252525252529 4.090909090909092,0.2525252525252529 4.191919191919193,0.2525252525252529 4.292929292929293,0.2525252525252529 4.393939393939394,0.2525252525252529 4.494949494949497,0.2525252525252529 4.595959595959597,0.2525252525252529 4.696969696969697,0.2525252525252529 4.7979797979797985,0.2525252525252529 4.898989898989901,0.2525252525252529 5.000000000000002,0.2525252525252529" data-type="line" data-label="" points="888.6464646464647,488.1616161616163 898.181818181818,488.1616161616163 907.7171717171716,488.1616161616163 917.2525252525251,488.1616161616163 926.7878787878785,488.1616161616163 936.3232323232323,488.1616161616163 945.8585858585857,488.1616161616163 955.3939393939393,488.1616161616163 964.9292929292927,488.1616161616163 974.4646464646464,488.1616161616163 984,488.1616161616163" fill="none" stroke="rgba(0,0,255,0.75)" stroke-width="14.159999999999995"/></g><g><polyline data-points="-0.555555555555555,5.000000000000002 -0.6565656565656557,4.898989898989901 -0.7575757575757572,4.7979797979797985 -0.8585858585858579,4.696969696969697 -0.9595959595959596,4.595959595959597 -1.0606060606060603,4.494949494949497 -1.1616161616161613,4.393939393939394 -1.2626262626262625,4.292929292929293 -1.363636363636363,4.191919191919193 -1.4646464646464643,4.090909090909092 -1.5656565656565653,3.989898989898992 -1.6666666666666665,3.8888888888888893 -1.7676767676767675,3.7878787878787885 -1.8686868686868683,3.6868686868686877 -1.9696969696969693,3.5858585858585874 -2.07070707070707,3.4848484848484866 -2.1717171717171713,3.383838383838384 -2.2727272727272725,3.2828282828282833 -2.3737373737373733,3.181818181818183 -2.474747474747474,3.080808080808082 -2.5757575757575752,2.9797979797979806 -2.6767676767676765,2.87878787878788 -2.7777777777777777,2.7777777777777786 -2.8787878787878785,2.676767676767678 -2.9797979797979792,2.575757575757577 -3.0808080808080804,2.4747474747474754 -3.1818181818181817,2.373737373737375 -3.2828282828282824,2.2727272727272734 -3.383838383838383,2.1717171717171726 -3.484848484848485,2.070707070707072 -3.5858585858585856,1.9696969696969702 -3.6868686868686864,1.8686868686868696 -3.7878787878787876,1.767676767676768 -3.8888888888888884,1.6666666666666674 -3.98989898989899,1.5656565656565666 -3.98989898989899,1.4646464646464652 -3.98989898989899,1.3636363636363644 -3.98989898989899,1.262626262626263 -3.98989898989899,1.1616161616161622 -3.98989898989899,1.0606060606060617 -3.98989898989899,0.9595959595959602 -3.98989898989899,0.8585858585858596 -3.98989898989899,0.7575757575757579 -3.98989898989899,0.6565656565656574 -3.98989898989899,0.5555555555555567 -3.98989898989899,0.4545454545454551 -3.98989898989899,0.3535353535353544 -3.98989898989899,0.2525252525252529 -3.98989898989899,0.1515151515151522 -3.98989898989899,0.050505050505051545 -3.98989898989899,-0.05050505050505001 -3.98989898989899,-0.15151515151515066 -3.98989898989899,-0.2525252525252522 -3.98989898989899,-0.35353535353535287 -3.98989898989899,-0.4545454545454544 -3.98989898989899,-0.555555555555555" data-type="line" data-label="" points="459.55555555555554,40.000000000000114 450.0202020202021,49.53535353535369 440.4848484848485,59.07070707070733 430.949494949495,68.60606060606085 421.4141414141414,78.14141414141432 411.8787878787879,87.67676767676778 402.34343434343435,97.21212121212153 392.80808080808083,106.747474747475 383.2727272727273,116.28282828282846 373.7373737373738,125.81818181818198 364.2020202020202,135.35353535353545 354.6666666666667,144.88888888888908 345.13131313131316,154.4242424242426 335.59595959595964,163.95959595959613 326.0606060606061,173.4949494949496 316.5252525252526,183.03030303030312 306.9898989898991,192.56565656565675 297.4545454545455,202.10101010101027 287.91919191919203,211.63636363636374 278.38383838383845,221.17171717171726 268.84848484848493,230.70707070707084 259.3131313131314,240.24242424242436 249.77777777777783,249.77777777777794 240.2424242424243,259.3131313131314 230.70707070707084,268.84848484848493 221.17171717171726,278.38383838383857 211.63636363636374,287.91919191919203 202.10101010101022,297.4545454545456 192.5656565656567,306.9898989898991 183.03030303030312,316.5252525252526 173.4949494949496,326.06060606060623 163.95959595959607,335.5959595959597 154.42424242424255,345.1313131313133 144.88888888888903,354.66666666666674 135.35353535353545,364.2020202020203 135.35353535353545,373.73737373737384 135.35353535353545,383.27272727272737 135.35353535353545,392.80808080808094 135.35353535353545,402.3434343434344 135.35353535353545,411.87878787878793 135.35353535353545,421.4141414141415 135.35353535353545,430.94949494949503 135.35353535353545,440.4848484848486 135.35353535353545,450.0202020202021 135.35353535353545,459.5555555555556 135.35353535353545,469.0909090909092 135.35353535353545,478.6262626262627 135.35353535353545,488.1616161616163 135.35353535353545,497.69696969696975 135.35353535353545,507.23232323232327 135.35353535353545,516.7676767676768 135.35353535353545,526.3030303030304 135.35353535353545,535.838383838384 135.35353535353545,545.3737373737374 135.35353535353545,554.909090909091 135.35353535353545,564.4444444444445" fill="none" stroke="rgba(0,0,255,0.75)" stroke-width="14.159999999999995"/></g><g><polyline data-points="-3.98989898989899,-0.555555555555555 -4.090909090909091,-0.6565656565656557 -4.191919191919193,-0.7575757575757572 -4.292929292929293,-0.8585858585858579 -4.393939393939394,-0.9595959595959596 -4.393939393939394,-1.0606060606060603 -4.393939393939394,-1.1616161616161613 -4.393939393939394,-1.2626262626262625 -4.393939393939394,-1.363636363636363 -4.393939393939394,-1.4646464646464643 -4.393939393939394,-1.5656565656565653 -4.393939393939394,-1.6666666666666665 -4.393939393939394,-1.7676767676767675 -4.393939393939394,-1.8686868686868683 -4.393939393939394,-1.9696969696969693 -4.393939393939394,-2.07070707070707 -4.393939393939394,-2.1717171717171713 -4.393939393939394,-2.2727272727272725 -4.393939393939394,-2.3737373737373733 -4.393939393939394,-2.474747474747474 -4.393939393939394,-2.5757575757575752 -4.393939393939394,-2.6767676767676765 -4.393939393939394,-2.7777777777777777 -4.393939393939394,-2.8787878787878785 -4.393939393939394,-2.9797979797979792 -4.393939393939394,-3.0808080808080804 -4.393939393939394,-3.1818181818181817 -4.393939393939394,-3.2828282828282824 -4.393939393939394,-3.383838383838383 -4.393939393939394,-3.484848484848485 -4.393939393939394,-3.5858585858585856 -4.393939393939394,-3.6868686868686864 -4.393939393939394,-3.7878787878787876 -4.393939393939394,-3.8888888888888884 -4.393939393939394,-3.98989898989899 -4.393939393939394,-4.090909090909091 -4.393939393939394,-4.191919191919193 -4.393939393939394,-4.292929292929293 -4.393939393939394,-4.393939393939394 -4.393939393939394,-4.494949494949496 -4.393939393939394,-4.595959595959596 -4.393939393939394,-4.696969696969697 -4.393939393939394,-4.7979797979797985 -4.393939393939394,-4.898989898989899 -4.393939393939394,-5.000000000000001" data-type="line" data-label="" points="135.35353535353545,564.4444444444445 125.81818181818193,573.979797979798 116.28282828282829,583.5151515151516 106.74747474747483,593.0505050505051 97.21212121212136,602.5858585858587 97.21212121212136,612.1212121212121 97.21212121212136,621.6565656565657 97.21212121212136,631.1919191919193 97.21212121212136,640.7272727272727 97.21212121212136,650.2626262626263 97.21212121212136,659.7979797979798 97.21212121212136,669.3333333333334 97.21212121212136,678.8686868686868 97.21212121212136,688.4040404040404 97.21212121212136,697.939393939394 97.21212121212136,707.4747474747475 97.21212121212136,717.010101010101 97.21212121212136,726.5454545454545 97.21212121212136,736.0808080808081 97.21212121212136,745.6161616161615 97.21212121212136,755.1515151515151 97.21212121212136,764.6868686868687 97.21212121212136,774.2222222222222 97.21212121212136,783.7575757575758 97.21212121212136,793.2929292929292 97.21212121212136,802.8282828282828 97.21212121212136,812.3636363636363 97.21212121212136,821.8989898989898 97.21212121212136,831.4343434343434 97.21212121212136,840.969696969697 97.21212121212136,850.5050505050505 97.21212121212136,860.0404040404039 97.21212121212136,869.5757575757575 97.21212121212136,879.1111111111111 97.21212121212136,888.6464646464647 97.21212121212136,898.1818181818181 97.21212121212136,907.7171717171718 97.21212121212136,917.2525252525252 97.21212121212136,926.7878787878788 97.21212121212136,936.3232323232323 97.21212121212136,945.8585858585858 97.21212121212136,955.3939393939394 97.21212121212136,964.9292929292928 97.21212121212136,974.4646464646464 97.21212121212136,984" fill="none" stroke="rgba(255,0,0,0.75)" stroke-width="14.159999999999995"/></g><g><polyline data-points="1.1616161616161622,-5.000000000000001 1.262626262626263,-4.898989898989899 1.3636363636363644,-4.7979797979797985 1.4646464646464652,-4.696969696969697 1.5656565656565666,-4.595959595959596 1.6666666666666674,-4.494949494949496 1.767676767676768,-4.393939393939394 1.8686868686868696,-4.292929292929293 1.9696969696969702,-4.191919191919193 2.070707070707072,-4.090909090909091 2.1717171717171726,-3.98989898989899 2.2727272727272734,-3.8888888888888884 2.373737373737375,-3.7878787878787876 2.4747474747474754,-3.6868686868686864 2.575757575757577,-3.5858585858585856 2.676767676767678,-3.484848484848485 2.7777777777777786,-3.383838383838383 2.87878787878788,-3.2828282828282824 2.9797979797979806,-3.1818181818181817 3.080808080808082,-3.0808080808080804 3.181818181818183,-2.9797979797979792 3.2828282828282833,-2.8787878787878785 3.383838383838384,-2.7777777777777777 3.4848484848484866,-2.6767676767676765 3.4848484848484866,-2.5757575757575752 3.4848484848484866,-2.474747474747474 3.4848484848484866,-2.3737373737373733 3.4848484848484866,-2.2727272727272725 3.4848484848484866,-2.1717171717171713 3.4848484848484866,-2.07070707070707 3.4848484848484866,-1.9696969696969693 3.4848484848484866,-1.8686868686868683 3.4848484848484866,-1.7676767676767675 3.4848484848484866,-1.6666666666666665 3.4848484848484866,-1.5656565656565653 3.4848484848484866,-1.4646464646464643 3.4848484848484866,-1.363636363636363 3.4848484848484866,-1.2626262626262625 3.4848484848484866,-1.1616161616161613 3.4848484848484866,-1.0606060606060603 3.4848484848484866,-0.9595959595959596 3.4848484848484866,-0.8585858585858579 3.4848484848484866,-0.7575757575757572 3.4848484848484866,-0.6565656565656557 3.4848484848484866,-0.555555555555555 3.4848484848484866,-0.4545454545454544 3.4848484848484866,-0.35353535353535287" data-type="line" data-label="" points="621.6565656565656,984 631.1919191919192,974.4646464646464 640.7272727272727,964.9292929292928 650.2626262626262,955.3939393939394 659.7979797979798,945.8585858585858 669.3333333333333,936.3232323232323 678.8686868686868,926.7878787878788 688.4040404040404,917.2525252525252 697.9393939393939,907.7171717171718 707.4747474747475,898.1818181818181 717.0101010101009,888.6464646464647 726.5454545454545,879.1111111111111 736.0808080808081,869.5757575757575 745.6161616161615,860.0404040404039 755.1515151515151,850.5050505050505 764.6868686868686,840.969696969697 774.2222222222222,831.4343434343434 783.7575757575758,821.8989898989898 793.2929292929292,812.3636363636363 802.8282828282828,802.8282828282828 812.3636363636363,793.2929292929292 821.8989898989898,783.7575757575758 831.4343434343433,774.2222222222222 840.969696969697,764.6868686868687 840.969696969697,755.1515151515151 840.969696969697,745.6161616161615 840.969696969697,736.0808080808081 840.969696969697,726.5454545454545 840.969696969697,717.010101010101 840.969696969697,707.4747474747475 840.969696969697,697.939393939394 840.969696969697,688.4040404040404 840.969696969697,678.8686868686868 840.969696969697,669.3333333333334 840.969696969697,659.7979797979798 840.969696969697,650.2626262626263 840.969696969697,640.7272727272727 840.969696969697,631.1919191919193 840.969696969697,621.6565656565657 840.969696969697,612.1212121212121 840.969696969697,602.5858585858587 840.969696969697,593.0505050505051 840.969696969697,583.5151515151516 840.969696969697,573.979797979798 840.969696969697,564.4444444444445 840.969696969697,554.909090909091 840.969696969697,545.3737373737374" fill="none" stroke="rgba(255,0,0,0.75)" stroke-width="14.159999999999995"/></g><g><polyline data-points="3.4848484848484866,-0.35353535353535287 3.4848484848484866,-0.2525252525252522 3.4848484848484866,-0.15151515151515066 3.4848484848484866,-0.05050505050505001 3.4848484848484866,0.050505050505051545 3.4848484848484866,0.1515151515151522 3.4848484848484866,0.2525252525252529 3.5858585858585874,0.3535353535353544 3.5858585858585874,0.4545454545454551 3.6868686868686877,0.5555555555555567 3.7878787878787885,0.6565656565656574 3.8888888888888893,0.7575757575757579 3.989898989898992,0.8585858585858596 4.090909090909092,0.9595959595959602 4.191919191919193,1.0606060606060617 4.292929292929293,1.1616161616161622 4.393939393939394,1.262626262626263 4.494949494949497,1.3636363636363644 4.595959595959597,1.4646464646464652 4.696969696969697,1.5656565656565666 4.7979797979797985,1.6666666666666674 4.898989898989901,1.767676767676768 5.000000000000002,1.8686868686868696 5.000000000000002,1.9696969696969702 5.000000000000002,2.070707070707072 5.000000000000002,2.1717171717171726 5.000000000000002,2.2727272727272734" data-type="line" data-label="" points="840.969696969697,545.3737373737374 840.969696969697,535.838383838384 840.969696969697,526.3030303030304 840.969696969697,516.7676767676768 840.969696969697,507.23232323232327 840.969696969697,497.69696969696975 840.969696969697,488.1616161616163 850.5050505050505,478.6262626262627 850.5050505050505,469.0909090909092 860.0404040404039,459.5555555555556 869.5757575757575,450.0202020202021 879.111111111111,440.4848484848486 888.6464646464647,430.94949494949503 898.181818181818,421.4141414141415 907.7171717171716,411.87878787878793 917.2525252525251,402.3434343434344 926.7878787878785,392.80808080808094 936.3232323232323,383.27272727272737 945.8585858585857,373.73737373737384 955.3939393939393,364.2020202020203 964.9292929292927,354.66666666666674 974.4646464646464,345.1313131313133 984,335.5959595959597 984,326.06060606060623 984,316.5252525252526 984,306.9898989898991 984,297.4545454545456" fill="none" stroke="rgba(0,0,255,0.75)" stroke-width="14.159999999999995"/></g><g><polyline data-points="3.080808080808082,5.000000000000002 2.9797979797979806,4.898989898989901 2.87878787878788,4.7979797979797985 2.7777777777777786,4.696969696969697 2.676767676767678,4.595959595959597 2.575757575757577,4.494949494949497 2.4747474747474754,4.393939393939394 2.373737373737375,4.292929292929293 2.2727272727272734,4.191919191919193 2.1717171717171726,4.090909090909092 2.070707070707072,3.989898989898992 1.9696969696969702,3.8888888888888893 1.8686868686868696,3.7878787878787885 1.767676767676768,3.6868686868686877 1.6666666666666674,3.5858585858585874 1.5656565656565666,3.4848484848484866 1.4646464646464652,3.383838383838384 1.3636363636363644,3.2828282828282833 1.262626262626263,3.181818181818183 1.1616161616161622,3.080808080808082 1.0606060606060617,2.9797979797979806 0.9595959595959602,2.87878787878788 0.8585858585858596,2.7777777777777786 0.7575757575757579,2.676767676767678 0.6565656565656574,2.575757575757577 0.5555555555555567,2.4747474747474754 0.4545454545454551,2.373737373737375 0.3535353535353544,2.2727272727272734 0.2525252525252529,2.1717171717171726 0.1515151515151522,2.070707070707072 0.050505050505051545,1.9696969696969702 -0.05050505050505001,1.8686868686868696 -0.15151515151515066,1.767676767676768 -0.2525252525252522,1.6666666666666674 -0.35353535353535287,1.5656565656565666 -0.4545454545454544,1.4646464646464652 -0.555555555555555,1.3636363636363644 -0.6565656565656557,1.262626262626263 -0.7575757575757572,1.1616161616161622 -0.8585858585858579,1.0606060606060617 -0.9595959595959596,1.0606060606060617 -1.0606060606060603,1.0606060606060617 -1.1616161616161613,1.0606060606060617 -1.2626262626262625,1.0606060606060617 -1.363636363636363,1.0606060606060617 -1.4646464646464643,1.0606060606060617 -1.5656565656565653,1.0606060606060617 -1.6666666666666665,1.0606060606060617 -1.7676767676767675,1.0606060606060617 -1.8686868686868683,1.0606060606060617 -1.9696969696969693,1.0606060606060617 -2.07070707070707,1.0606060606060617 -2.1717171717171713,1.0606060606060617 -2.2727272727272725,1.0606060606060617 -2.3737373737373733,1.0606060606060617 -2.474747474747474,1.0606060606060617 -2.5757575757575752,1.0606060606060617 -2.6767676767676765,1.0606060606060617 -2.7777777777777777,1.0606060606060617 -2.8787878787878785,1.0606060606060617 -2.9797979797979792,1.0606060606060617 -3.0808080808080804,1.0606060606060617 -3.1818181818181817,1.0606060606060617 -3.2828282828282824,1.0606060606060617 -3.383838383838383,1.0606060606060617" data-type="line" data-label="" points="802.8282828282828,40.000000000000114 793.2929292929292,49.53535353535369 783.7575757575758,59.07070707070733 774.2222222222222,68.60606060606085 764.6868686868686,78.14141414141432 755.1515151515151,87.67676767676778 745.6161616161615,97.21212121212153 736.0808080808081,106.747474747475 726.5454545454545,116.28282828282846 717.0101010101009,125.81818181818198 707.4747474747475,135.35353535353545 697.9393939393939,144.88888888888908 688.4040404040404,154.4242424242426 678.8686868686868,163.95959595959613 669.3333333333333,173.4949494949496 659.7979797979798,183.03030303030312 650.2626262626262,192.56565656565675 640.7272727272727,202.10101010101027 631.1919191919192,211.63636363636374 621.6565656565656,221.17171717171726 612.1212121212121,230.70707070707084 602.5858585858585,240.24242424242436 593.0505050505051,249.77777777777794 583.5151515151515,259.3131313131314 573.9797979797979,268.84848484848493 564.4444444444445,278.38383838383857 554.9090909090909,287.91919191919203 545.3737373737374,297.4545454545456 535.8383838383838,306.9898989898991 526.3030303030303,316.5252525252526 516.7676767676768,326.06060606060623 507.2323232323232,335.5959595959597 497.69696969696975,345.1313131313133 488.16161616161617,354.66666666666674 478.62626262626264,364.2020202020203 469.09090909090907,373.73737373737384 459.55555555555554,383.27272727272737 450.0202020202021,392.80808080808094 440.4848484848485,402.3434343434344 430.949494949495,411.87878787878793 421.4141414141414,411.87878787878793 411.8787878787879,411.87878787878793 402.34343434343435,411.87878787878793 392.80808080808083,411.87878787878793 383.2727272727273,411.87878787878793 373.7373737373738,411.87878787878793 364.2020202020202,411.87878787878793 354.6666666666667,411.87878787878793 345.13131313131316,411.87878787878793 335.59595959595964,411.87878787878793 326.0606060606061,411.87878787878793 316.5252525252526,411.87878787878793 306.9898989898991,411.87878787878793 297.4545454545455,411.87878787878793 287.91919191919203,411.87878787878793 278.38383838383845,411.87878787878793 268.84848484848493,411.87878787878793 259.3131313131314,411.87878787878793 249.77777777777783,411.87878787878793 240.2424242424243,411.87878787878793 230.70707070707084,411.87878787878793 221.17171717171726,411.87878787878793 211.63636363636374,411.87878787878793 202.10101010101022,411.87878787878793 192.5656565656567,411.87878787878793" fill="none" stroke="rgba(0,0,255,0.75)" stroke-width="14.159999999999995"/></g><g><polyline data-points="-3.383838383838383,1.0606060606060617 -3.484848484848485,1.0606060606060617 -3.5858585858585856,1.0606060606060617 -3.6868686868686864,1.0606060606060617 -3.7878787878787876,1.0606060606060617 -3.8888888888888884,1.0606060606060617 -3.98989898989899,1.0606060606060617 -4.090909090909091,1.0606060606060617 -4.191919191919193,1.0606060606060617 -4.292929292929293,1.0606060606060617 -4.393939393939394,1.0606060606060617 -4.494949494949496,1.0606060606060617 -4.595959595959596,1.0606060606060617 -4.696969696969697,1.0606060606060617 -4.7979797979797985,1.0606060606060617 -4.898989898989899,1.0606060606060617 -5.000000000000001,1.0606060606060617" data-type="line" data-label="" points="192.5656565656567,411.87878787878793 183.03030303030312,411.87878787878793 173.4949494949496,411.87878787878793 163.95959595959607,411.87878787878793 154.42424242424255,411.87878787878793 144.88888888888903,411.87878787878793 135.35353535353545,411.87878787878793 125.81818181818193,411.87878787878793 116.28282828282829,411.87878787878793 106.74747474747483,411.87878787878793 97.21212121212136,411.87878787878793 87.67676767676772,411.87878787878793 78.14141414141426,411.87878787878793 68.60606060606068,411.87878787878793 59.07070707070716,411.87878787878793 49.53535353535369,411.87878787878793 40.00000000000006,411.87878787878793" fill="none" stroke="rgba(255,0,0,0.75)" stroke-width="14.159999999999995"/></g><g><polyline data-points="-1.4646464646464643,5.000000000000002 -1.363636363636363,4.898989898989901 -1.2626262626262625,4.7979797979797985 -1.1616161616161613,4.696969696969697 -1.0606060606060603,4.595959595959597 -0.9595959595959596,4.494949494949497 -0.8585858585858579,4.393939393939394 -0.7575757575757572,4.292929292929293 -0.6565656565656557,4.191919191919193 -0.555555555555555,4.090909090909092 -0.4545454545454544,3.989898989898992 -0.35353535353535287,3.8888888888888893 -0.2525252525252522,3.7878787878787885 -0.15151515151515066,3.6868686868686877 -0.05050505050505001,3.5858585858585874 0.050505050505051545,3.4848484848484866 0.1515151515151522,3.383838383838384 0.2525252525252529,3.2828282828282833 0.3535353535353544,3.181818181818183 0.4545454545454551,3.080808080808082 0.5555555555555567,2.9797979797979806 0.6565656565656574,2.87878787878788 0.7575757575757579,2.7777777777777786 0.8585858585858596,2.676767676767678 0.9595959595959602,2.575757575757577 1.0606060606060617,2.4747474747474754 1.1616161616161622,2.373737373737375 1.262626262626263,2.2727272727272734 1.3636363636363644,2.1717171717171726 1.4646464646464652,2.070707070707072 1.5656565656565666,1.9696969696969702 1.6666666666666674,1.8686868686868696 1.767676767676768,1.767676767676768 1.8686868686868696,1.6666666666666674 1.9696969696969702,1.5656565656565666 2.070707070707072,1.4646464646464652 2.1717171717171726,1.3636363636363644 2.2727272727272734,1.262626262626263 2.373737373737375,1.1616161616161622 2.4747474747474754,1.0606060606060617 2.575757575757577,0.9595959595959602 2.575757575757577,0.8585858585858596" data-type="line" data-label="" points="373.7373737373738,40.000000000000114 383.2727272727273,49.53535353535369 392.80808080808083,59.07070707070733 402.34343434343435,68.60606060606085 411.8787878787879,78.14141414141432 421.4141414141414,87.67676767676778 430.949494949495,97.21212121212153 440.4848484848485,106.747474747475 450.0202020202021,116.28282828282846 459.55555555555554,125.81818181818198 469.09090909090907,135.35353535353545 478.62626262626264,144.88888888888908 488.16161616161617,154.4242424242426 497.69696969696975,163.95959595959613 507.2323232323232,173.4949494949496 516.7676767676768,183.03030303030312 526.3030303030303,192.56565656565675 535.8383838383838,202.10101010101027 545.3737373737374,211.63636363636374 554.9090909090909,221.17171717171726 564.4444444444445,230.70707070707084 573.9797979797979,240.24242424242436 583.5151515151515,249.77777777777794 593.0505050505051,259.3131313131314 602.5858585858585,268.84848484848493 612.1212121212121,278.38383838383857 621.6565656565656,287.91919191919203 631.1919191919192,297.4545454545456 640.7272727272727,306.9898989898991 650.2626262626262,316.5252525252526 659.7979797979798,326.06060606060623 669.3333333333333,335.5959595959597 678.8686868686868,345.1313131313133 688.4040404040404,354.66666666666674 697.9393939393939,364.2020202020203 707.4747474747475,373.73737373737384 717.0101010101009,383.27272727272737 726.5454545454545,392.80808080808094 736.0808080808081,402.3434343434344 745.6161616161615,411.87878787878793 755.1515151515151,421.4141414141415 755.1515151515151,430.94949494949503" fill="none" stroke="rgba(255,0,0,0.75)" stroke-width="14.159999999999995"/></g><g><polyline data-points="2.575757575757577,0.8585858585858596 2.575757575757577,0.7575757575757579 2.575757575757577,0.6565656565656574 2.575757575757577,0.5555555555555567 2.575757575757577,0.4545454545454551 2.575757575757577,0.3535353535353544 2.575757575757577,0.2525252525252529 2.575757575757577,0.1515151515151522 2.575757575757577,0.050505050505051545 2.575757575757577,-0.05050505050505001 2.575757575757577,-0.15151515151515066 2.575757575757577,-0.2525252525252522 2.575757575757577,-0.35353535353535287 2.575757575757577,-0.4545454545454544 2.575757575757577,-0.555555555555555 2.575757575757577,-0.6565656565656557 2.575757575757577,-0.7575757575757572 2.575757575757577,-0.8585858585858579 2.575757575757577,-0.9595959595959596 2.575757575757577,-1.0606060606060603 2.575757575757577,-1.1616161616161613 2.575757575757577,-1.2626262626262625 2.575757575757577,-1.363636363636363 2.575757575757577,-1.4646464646464643 2.575757575757577,-1.5656565656565653 2.575757575757577,-1.6666666666666665 2.575757575757577,-1.7676767676767675 2.575757575757577,-1.8686868686868683 2.575757575757577,-1.9696969696969693 2.575757575757577,-2.07070707070707 2.575757575757577,-2.1717171717171713 2.575757575757577,-2.2727272727272725 2.575757575757577,-2.3737373737373733 2.575757575757577,-2.474747474747474 2.575757575757577,-2.5757575757575752 2.575757575757577,-2.6767676767676765 2.575757575757577,-2.7777777777777777 2.575757575757577,-2.8787878787878785 2.575757575757577,-2.9797979797979792 2.575757575757577,-3.0808080808080804 2.575757575757577,-3.1818181818181817 2.575757575757577,-3.2828282828282824 2.575757575757577,-3.383838383838383 2.575757575757577,-3.484848484848485 2.575757575757577,-3.5858585858585856 2.676767676767678,-3.6868686868686864 2.7777777777777786,-3.7878787878787876 2.87878787878788,-3.8888888888888884 2.9797979797979806,-3.98989898989899" data-type="line" data-label="" points="755.1515151515151,430.94949494949503 755.1515151515151,440.4848484848486 755.1515151515151,450.0202020202021 755.1515151515151,459.5555555555556 755.1515151515151,469.0909090909092 755.1515151515151,478.6262626262627 755.1515151515151,488.1616161616163 755.1515151515151,497.69696969696975 755.1515151515151,507.23232323232327 755.1515151515151,516.7676767676768 755.1515151515151,526.3030303030304 755.1515151515151,535.838383838384 755.1515151515151,545.3737373737374 755.1515151515151,554.909090909091 755.1515151515151,564.4444444444445 755.1515151515151,573.979797979798 755.1515151515151,583.5151515151516 755.1515151515151,593.0505050505051 755.1515151515151,602.5858585858587 755.1515151515151,612.1212121212121 755.1515151515151,621.6565656565657 755.1515151515151,631.1919191919193 755.1515151515151,640.7272727272727 755.1515151515151,650.2626262626263 755.1515151515151,659.7979797979798 755.1515151515151,669.3333333333334 755.1515151515151,678.8686868686868 755.1515151515151,688.4040404040404 755.1515151515151,697.939393939394 755.1515151515151,707.4747474747475 755.1515151515151,717.010101010101 755.1515151515151,726.5454545454545 755.1515151515151,736.0808080808081 755.1515151515151,745.6161616161615 755.1515151515151,755.1515151515151 755.1515151515151,764.6868686868687 755.1515151515151,774.2222222222222 755.1515151515151,783.7575757575758 755.1515151515151,793.2929292929292 755.1515151515151,802.8282828282828 755.1515151515151,812.3636363636363 755.1515151515151,821.8989898989898 755.1515151515151,831.4343434343434 755.1515151515151,840.969696969697 755.1515151515151,850.5050505050505 764.6868686868686,860.0404040404039 774.2222222222222,869.5757575757575 783.7575757575758,879.1111111111111 793.2929292929292,888.6464646464647" fill="none" stroke="rgba(0,0,255,0.75)" stroke-width="14.159999999999995"/></g><g><polyline data-points="2.9797979797979806,-3.98989898989899 2.87878787878788,-4.090909090909091 2.7777777777777786,-4.191919191919193 2.676767676767678,-4.292929292929293 2.575757575757577,-4.393939393939394 2.575757575757577,-4.494949494949496 2.575757575757577,-4.595959595959596 2.575757575757577,-4.696969696969697 2.575757575757577,-4.7979797979797985 2.575757575757577,-4.898989898989899 2.575757575757577,-5.000000000000001" data-type="line" data-label="" points="793.2929292929292,888.6464646464647 783.7575757575758,898.1818181818181 774.2222222222222,907.7171717171718 764.6868686868686,917.2525252525252 755.1515151515151,926.7878787878788 755.1515151515151,936.3232323232323 755.1515151515151,945.8585858585858 755.1515151515151,955.3939393939394 755.1515151515151,964.9292929292928 755.1515151515151,974.4646464646464 755.1515151515151,984" fill="none" stroke="rgba(255,0,0,0.75)" stroke-width="14.159999999999995"/></g><g><polyline data-points="5.000000000000002,-4.090909090909091 4.898989898989901,-4.191919191919193 4.7979797979797985,-4.292929292929293 4.696969696969697,-4.393939393939394 4.595959595959597,-4.494949494949496 4.494949494949497,-4.494949494949496 4.393939393939394,-4.494949494949496 4.292929292929293,-4.494949494949496 4.191919191919193,-4.494949494949496 4.090909090909092,-4.494949494949496 3.989898989898992,-4.494949494949496 3.8888888888888893,-4.494949494949496 3.7878787878787885,-4.494949494949496 3.6868686868686877,-4.494949494949496 3.5858585858585874,-4.494949494949496 3.4848484848484866,-4.494949494949496 3.383838383838384,-4.494949494949496 3.2828282828282833,-4.494949494949496 3.181818181818183,-4.494949494949496 3.080808080808082,-4.494949494949496 2.9797979797979806,-4.494949494949496 2.87878787878788,-4.494949494949496 2.7777777777777786,-4.494949494949496 2.676767676767678,-4.494949494949496 2.575757575757577,-4.494949494949496 2.4747474747474754,-4.494949494949496 2.373737373737375,-4.494949494949496 2.2727272727272734,-4.494949494949496 2.1717171717171726,-4.494949494949496 2.070707070707072,-4.494949494949496 1.9696969696969702,-4.494949494949496 1.8686868686868696,-4.494949494949496 1.767676767676768,-4.494949494949496 1.6666666666666674,-4.494949494949496 1.5656565656565666,-4.494949494949496 1.4646464646464652,-4.494949494949496 1.3636363636363644,-4.494949494949496 1.262626262626263,-4.494949494949496 1.1616161616161622,-4.494949494949496 1.0606060606060617,-4.494949494949496 0.9595959595959602,-4.494949494949496 0.8585858585858596,-4.494949494949496 0.7575757575757579,-4.494949494949496 0.6565656565656574,-4.494949494949496 0.5555555555555567,-4.494949494949496 0.4545454545454551,-4.494949494949496 0.3535353535353544,-4.494949494949496 0.2525252525252529,-4.494949494949496 0.1515151515151522,-4.494949494949496 0.050505050505051545,-4.494949494949496 -0.05050505050505001,-4.393939393939394 -0.15151515151515066,-4.292929292929293 -0.2525252525252522,-4.191919191919193 -0.35353535353535287,-4.090909090909091 -0.4545454545454544,-3.98989898989899" data-type="line" data-label="" points="984,898.1818181818181 974.4646464646464,907.7171717171718 964.9292929292927,917.2525252525252 955.3939393939393,926.7878787878788 945.8585858585857,936.3232323232323 936.3232323232323,936.3232323232323 926.7878787878785,936.3232323232323 917.2525252525251,936.3232323232323 907.7171717171716,936.3232323232323 898.181818181818,936.3232323232323 888.6464646464647,936.3232323232323 879.111111111111,936.3232323232323 869.5757575757575,936.3232323232323 860.0404040404039,936.3232323232323 850.5050505050505,936.3232323232323 840.969696969697,936.3232323232323 831.4343434343433,936.3232323232323 821.8989898989898,936.3232323232323 812.3636363636363,936.3232323232323 802.8282828282828,936.3232323232323 793.2929292929292,936.3232323232323 783.7575757575758,936.3232323232323 774.2222222222222,936.3232323232323 764.6868686868686,936.3232323232323 755.1515151515151,936.3232323232323 745.6161616161615,936.3232323232323 736.0808080808081,936.3232323232323 726.5454545454545,936.3232323232323 717.0101010101009,936.3232323232323 707.4747474747475,936.3232323232323 697.9393939393939,936.3232323232323 688.4040404040404,936.3232323232323 678.8686868686868,936.3232323232323 669.3333333333333,936.3232323232323 659.7979797979798,936.3232323232323 650.2626262626262,936.3232323232323 640.7272727272727,936.3232323232323 631.1919191919192,936.3232323232323 621.6565656565656,936.3232323232323 612.1212121212121,936.3232323232323 602.5858585858585,936.3232323232323 593.0505050505051,936.3232323232323 583.5151515151515,936.3232323232323 573.9797979797979,936.3232323232323 564.4444444444445,936.3232323232323 554.9090909090909,936.3232323232323 545.3737373737374,936.3232323232323 535.8383838383838,936.3232323232323 526.3030303030303,936.3232323232323 516.7676767676768,936.3232323232323 507.2323232323232,926.7878787878788 497.69696969696975,917.2525252525252 488.16161616161617,907.7171717171718 478.62626262626264,898.1818181818181 469.09090909090907,888.6464646464647" fill="none" stroke="rgba(0,0,255,0.75)" stroke-width="14.159999999999995"/></g><g><polyline data-points="-0.4545454545454544,-3.98989898989899 -0.555555555555555,-4.090909090909091 -0.555555555555555,-4.191919191919193 -0.555555555555555,-4.292929292929293 -0.555555555555555,-4.393939393939394 -0.555555555555555,-4.494949494949496 -0.555555555555555,-4.595959595959596 -0.555555555555555,-4.696969696969697 -0.555555555555555,-4.7979797979797985 -0.555555555555555,-4.898989898989899 -0.555555555555555,-5.000000000000001" data-type="line" data-label="" points="469.09090909090907,888.6464646464647 459.55555555555554,898.1818181818181 459.55555555555554,907.7171717171718 459.55555555555554,917.2525252525252 459.55555555555554,926.7878787878788 459.55555555555554,936.3232323232323 459.55555555555554,945.8585858585858 459.55555555555554,955.3939393939394 459.55555555555554,964.9292929292928 459.55555555555554,974.4646464646464 459.55555555555554,984" fill="none" stroke="rgba(255,0,0,0.75)" stroke-width="14.159999999999995"/></g><g><polyline data-points="-5.000000000000001,2.4747474747474754 -4.898989898989899,2.373737373737375 -4.7979797979797985,2.2727272727272734 -4.696969696969697,2.1717171717171726 -4.595959595959596,2.070707070707072 -4.494949494949496,1.9696969696969702 -4.393939393939394,1.9696969696969702 -4.292929292929293,1.9696969696969702 -4.191919191919193,1.8686868686868696 -4.090909090909091,1.767676767676768 -3.98989898989899,1.767676767676768 -3.8888888888888884,1.767676767676768 -3.7878787878787876,1.767676767676768 -3.6868686868686864,1.767676767676768 -3.5858585858585856,1.6666666666666674 -3.484848484848485,1.6666666666666674 -3.383838383838383,1.5656565656565666 -3.2828282828282824,1.4646464646464652 -3.1818181818181817,1.4646464646464652 -3.0808080808080804,1.3636363636363644 -2.9797979797979792,1.262626262626263 -2.9797979797979792,1.1616161616161622 -2.8787878787878785,1.0606060606060617 -2.9797979797979792,0.9595959595959602 -2.9797979797979792,0.8585858585858596 -3.0808080808080804,0.7575757575757579 -3.1818181818181817,0.6565656565656574 -3.2828282828282824,0.5555555555555567 -3.383838383838383,0.4545454545454551 -3.484848484848485,0.4545454545454551 -3.5858585858585856,0.4545454545454551 -3.6868686868686864,0.4545454545454551 -3.7878787878787876,0.4545454545454551 -3.8888888888888884,0.4545454545454551 -3.98989898989899,0.4545454545454551 -4.090909090909091,0.4545454545454551 -4.191919191919193,0.3535353535353544 -4.292929292929293,0.2525252525252529 -4.393939393939394,0.1515151515151522 -4.494949494949496,0.050505050505051545 -4.595959595959596,0.050505050505051545 -4.696969696969697,0.050505050505051545 -4.7979797979797985,0.050505050505051545 -4.898989898989899,0.050505050505051545 -5.000000000000001,0.050505050505051545" data-type="line" data-label="" points="40.00000000000006,278.38383838383857 49.53535353535369,287.91919191919203 59.07070707070716,297.4545454545456 68.60606060606068,306.9898989898991 78.14141414141426,316.5252525252526 87.67676767676772,326.06060606060623 97.21212121212136,326.06060606060623 106.74747474747483,326.06060606060623 116.28282828282829,335.5959595959597 125.81818181818193,345.1313131313133 135.35353535353545,345.1313131313133 144.88888888888903,345.1313131313133 154.42424242424255,345.1313131313133 163.95959595959607,345.1313131313133 173.4949494949496,354.66666666666674 183.03030303030312,354.66666666666674 192.5656565656567,364.2020202020203 202.10101010101022,373.73737373737384 211.63636363636374,373.73737373737384 221.17171717171726,383.27272727272737 230.70707070707084,392.80808080808094 230.70707070707084,402.3434343434344 240.2424242424243,411.87878787878793 230.70707070707084,421.4141414141415 230.70707070707084,430.94949494949503 221.17171717171726,440.4848484848486 211.63636363636374,450.0202020202021 202.10101010101022,459.5555555555556 192.5656565656567,469.0909090909092 183.03030303030312,469.0909090909092 173.4949494949496,469.0909090909092 163.95959595959607,469.0909090909092 154.42424242424255,469.0909090909092 144.88888888888903,469.0909090909092 135.35353535353545,469.0909090909092 125.81818181818193,469.0909090909092 116.28282828282829,478.6262626262627 106.74747474747483,488.1616161616163 97.21212121212136,497.69696969696975 87.67676767676772,507.23232323232327 78.14141414141426,507.23232323232327 68.60606060606068,507.23232323232327 59.07070707070716,507.23232323232327 49.53535353535369,507.23232323232327 40.00000000000006,507.23232323232327" fill="none" stroke="rgba(255,0,0,0.75)" stroke-width="14.159999999999995"/></g><g><polyline data-points="1.767676767676768,5.000000000000002 1.6666666666666674,4.898989898989901 1.5656565656565666,4.898989898989901 1.4646464646464652,4.898989898989901 1.3636363636363644,4.898989898989901 1.262626262626263,4.898989898989901 1.1616161616161622,4.898989898989901 1.0606060606060617,4.898989898989901 0.9595959595959602,4.898989898989901 0.8585858585858596,4.898989898989901 0.7575757575757579,4.898989898989901 0.6565656565656574,4.898989898989901 0.5555555555555567,4.898989898989901 0.4545454545454551,4.898989898989901 0.3535353535353544,4.898989898989901 0.2525252525252529,4.898989898989901 0.1515151515151522,4.898989898989901 0.050505050505051545,4.7979797979797985 -0.05050505050505001,4.696969696969697 -0.15151515151515066,4.595959595959597 -0.2525252525252522,4.494949494949497 -0.35353535353535287,4.393939393939394 -0.4545454545454544,4.292929292929293 -0.555555555555555,4.191919191919193 -0.6565656565656557,4.090909090909092 -0.7575757575757572,3.989898989898992 -0.8585858585858579,3.8888888888888893 -0.9595959595959596,3.7878787878787885 -1.0606060606060603,3.6868686868686877" data-type="line" data-label="" points="678.8686868686868,40.000000000000114 669.3333333333333,49.53535353535369 659.7979797979798,49.53535353535369 650.2626262626262,49.53535353535369 640.7272727272727,49.53535353535369 631.1919191919192,49.53535353535369 621.6565656565656,49.53535353535369 612.1212121212121,49.53535353535369 602.5858585858585,49.53535353535369 593.0505050505051,49.53535353535369 583.5151515151515,49.53535353535369 573.9797979797979,49.53535353535369 564.4444444444445,49.53535353535369 554.9090909090909,49.53535353535369 545.3737373737374,49.53535353535369 535.8383838383838,49.53535353535369 526.3030303030303,49.53535353535369 516.7676767676768,59.07070707070733 507.2323232323232,68.60606060606085 497.69696969696975,78.14141414141432 488.16161616161617,87.67676767676778 478.62626262626264,97.21212121212153 469.09090909090907,106.747474747475 459.55555555555554,116.28282828282846 450.0202020202021,125.81818181818198 440.4848484848485,135.35353535353545 430.949494949495,144.88888888888908 421.4141414141414,154.4242424242426 411.8787878787879,163.95959595959613" fill="none" stroke="rgba(0,0,255,0.75)" stroke-width="14.159999999999995"/></g><g><polyline data-points="-1.0606060606060603,3.6868686868686877 -1.1616161616161613,3.7878787878787885 -1.2626262626262625,3.8888888888888893 -1.363636363636363,3.989898989898992 -1.4646464646464643,3.989898989898992 -1.5656565656565653,3.989898989898992 -1.6666666666666665,3.989898989898992 -1.7676767676767675,3.989898989898992 -1.8686868686868683,3.989898989898992 -1.9696969696969693,3.989898989898992 -2.07070707070707,3.989898989898992 -2.1717171717171713,3.989898989898992 -2.2727272727272725,3.989898989898992 -2.3737373737373733,3.989898989898992 -2.474747474747474,3.989898989898992 -2.5757575757575752,3.989898989898992 -2.6767676767676765,3.989898989898992 -2.7777777777777777,3.989898989898992 -2.8787878787878785,3.989898989898992 -2.9797979797979792,3.989898989898992 -3.0808080808080804,3.989898989898992 -3.1818181818181817,3.989898989898992 -3.2828282828282824,3.989898989898992 -3.383838383838383,3.989898989898992 -3.484848484848485,3.989898989898992 -3.5858585858585856,3.989898989898992 -3.6868686868686864,3.989898989898992 -3.7878787878787876,3.989898989898992 -3.8888888888888884,3.989898989898992 -3.98989898989899,3.989898989898992" data-type="line" data-label="" points="411.8787878787879,163.95959595959613 402.34343434343435,154.4242424242426 392.80808080808083,144.88888888888908 383.2727272727273,135.35353535353545 373.7373737373738,135.35353535353545 364.2020202020202,135.35353535353545 354.6666666666667,135.35353535353545 345.13131313131316,135.35353535353545 335.59595959595964,135.35353535353545 326.0606060606061,135.35353535353545 316.5252525252526,135.35353535353545 306.9898989898991,135.35353535353545 297.4545454545455,135.35353535353545 287.91919191919203,135.35353535353545 278.38383838383845,135.35353535353545 268.84848484848493,135.35353535353545 259.3131313131314,135.35353535353545 249.77777777777783,135.35353535353545 240.2424242424243,135.35353535353545 230.70707070707084,135.35353535353545 221.17171717171726,135.35353535353545 211.63636363636374,135.35353535353545 202.10101010101022,135.35353535353545 192.5656565656567,135.35353535353545 183.03030303030312,135.35353535353545 173.4949494949496,135.35353535353545 163.95959595959607,135.35353535353545 154.42424242424255,135.35353535353545 144.88888888888903,135.35353535353545 135.35353535353545,135.35353535353545" fill="none" stroke="rgba(255,0,0,0.75)" stroke-width="14.159999999999995"/></g><g><polyline data-points="-3.98989898989899,3.989898989898992 -4.090909090909091,4.090909090909092 -4.191919191919193,4.191919191919193 -4.292929292929293,4.292929292929293 -4.393939393939394,4.393939393939394 -4.494949494949496,4.494949494949497 -4.595959595959596,4.595959595959597 -4.696969696969697,4.696969696969697 -4.7979797979797985,4.7979797979797985 -4.898989898989899,4.898989898989901 -5.000000000000001,5.000000000000002" data-type="line" data-label="" points="135.35353535353545,135.35353535353545 125.81818181818193,125.81818181818198 116.28282828282829,116.28282828282846 106.74747474747483,106.747474747475 97.21212121212136,97.21212121212153 87.67676767676772,87.67676767676778 78.14141414141426,78.14141414141432 68.60606060606068,68.60606060606085 59.07070707070716,59.07070707070733 49.53535353535369,49.53535353535369 40.00000000000006,40.000000000000114" fill="none" stroke="rgba(0,0,255,0.75)" stroke-width="14.159999999999995"/></g><g><rect data-type="rect" data-label="" data-x="0" data-y="0" x="40.000000000000114" y="40.000000000000284" width="943.9999999999997" height="943.9999999999998" fill="none" stroke="gray" stroke-width="0.010593220338983056"/></g><g><rect data-type="rect" data-label="" data-x="0" data-y="0" x="40.000000000000114" y="40.000000000000284" width="943.9999999999997" height="943.9999999999998" fill="none" stroke="rgba(15, 23, 42, 0.8)" stroke-width="0.010593220338983056"/></g><circle data-type="circle" data-label="" data-x="3.989898989898992" data-y="0.2525252525252529" cx="888.6464646464647" cy="488.1616161616163" r="28.791999999999987" fill="rgba(0,0,0,0.3)" stroke="black" stroke-width="0.010593220338983056"/><circle data-type="circle" data-label="" data-x="-3.98989898989899" data-y="-0.555555555555555" cx="135.35353535353545" cy="564.4444444444445" r="28.791999999999987" fill="rgba(0,0,0,0.3)" stroke="black" stroke-width="0.010593220338983056"/><circle data-type="circle" data-label="" data-x="3.4848484848484866" data-y="-0.35353535353535287" cx="840.969696969697" cy="545.3737373737374" r="28.791999999999987" fill="rgba(0,0,0,0.3)" stroke="black" stroke-width="0.010593220338983056"/><circle data-type="circle" data-label="" data-x="-3.383838383838383" data-y="1.0606060606060617" cx="192.5656565656567" cy="411.87878787878793" r="28.791999999999987" fill="rgba(0,0,0,0.3)" stroke="black" stroke-width="0.010593220338983056"/><circle data-type="circle" data-label="" data-x="2.575757575757577" data-y="0.8585858585858596" cx="755.1515151515151" cy="430.94949494949503" r="28.791999999999987" fill="rgba(0,0,0,0.3)" stroke="black" stroke-width="0.010593220338983056"/><circle data-type="circle" data-label="" data-x="2.9797979797979806" data-y="-3.98989898989899" cx="793.2929292929292" cy="888.6464646464647" r="28.791999999999987" fill="rgba(0,0,0,0.3)" stroke="black" stroke-width="0.010593220338983056"/><circle data-type="circle" data-label="" data-x="-0.4545454545454544" data-y="-3.98989898989899" cx="469.09090909090907" cy="888.6464646464647" r="28.791999999999987" fill="rgba(0,0,0,0.3)" stroke="black" stroke-width="0.010593220338983056"/><circle data-type="circle" data-label="" data-x="-1.0606060606060603" data-y="3.6868686868686877" cx="411.8787878787879" cy="163.95959595959613" r="28.791999999999987" fill="rgba(0,0,0,0.3)" stroke="black" stroke-width="0.010593220338983056"/><circle data-type="circle" data-label="" data-x="-3.98989898989899" data-y="3.989898989898992" cx="135.35353535353545" cy="135.35353535353545" r="28.791999999999987" fill="rgba(0,0,0,0.3)" stroke="black" stroke-width="0.010593220338983056"/><g id="crosshair" style="display: none"><line id="crosshair-h" y1="0" y2="1024" stroke="#666" stroke-width="0.5"/><line id="crosshair-v" x1="0" x2="1024" stroke="#666" stroke-width="0.5"/><text id="coordinates" font-family="monospace" font-size="12" fill="#666"></text></g><script><![CDATA[
              document.currentScript.parentElement.addEventListener('mousemove', (e) => {
                const svg = e.currentTarget;
                const rect = svg.getBoundingClientRect();
                const x = e.clientX - rect.left;
                const y = e.clientY - rect.top;
                const crosshair = svg.getElementById('crosshair');
                const h = svg.getElementById('crosshair-h');
                const v = svg.getElementById('crosshair-v');
                const coords = svg.getElementById('coordinates');
                
                crosshair.style.display = 'block';
                h.setAttribute('x1', '0');
                h.setAttribute('x2', '1024');
                h.setAttribute('y1', y);
                h.setAttribute('y2', y);
                v.setAttribute('x1', x);
                v.setAttribute('x2', x);
                v.setAttribute('y1', '0');
                v.setAttribute('y2', '1024');

                // Calculate real coordinates using inverse transformation
                const matrix = {"a":94.39999999999996,"c":0,"e":511.99999999999994,"b":0,"d":-94.39999999999996,"f":512.0000000000001};
                // Manually invert and apply the affine transform
                // Since we only use translate and scale, we can directly compute:
                // x' = (x - tx) / sx
                // y' = (y - ty) / sy
                const sx = matrix.a;
                const sy = matrix.d;
                const tx = matrix.e; 
                const ty = matrix.f;
                const realPoint = {
                  x: (x - tx) / sx,
                  y: (y - ty) / sy // Flip y back since we used negative scale
                }
                
                coords.textContent = `(${realPoint.x.toFixed(2)}, ${realPoint.y.toFixed(2)})`;
                coords.setAttribute('x', (x + 5).toString());
                coords.setAttribute('y', (y - 5).toString());
              });
              document.currentScript.parentElement.addEventListener('mouseleave', () => {
                document.currentScript.parentElement.getElementById('crosshair').style.display = 'none';
              });
            ]]></script></svg>