<svg width="1024" height="1024" viewBox="0 0 1024 1024" xmlns="http://www.w3.org/2000/svg"><rect width="100%" height="100%" fill="white"/><g><circle data-type="point" data-label="conn_000" data-x="-4.7" data-y="5" cx="68.3200000000001" cy="40.000000000000284" r="28.792" fill="red" stroke="#bd0f6d" stroke-width="28.792"/></g><g><circle data-type="point" data-label="conn_000" data-x="-1.46" data-y="-5" cx="374.176" cy="984" r="28.792" fill="blue" stroke="#bd0f6d" stroke-width="28.792"/></g><g><circle data-type="point" data-label="conn_001" data-x="-2.1" data-y="-5" cx="313.76" cy="984" r="28.792" fill="blue" stroke="#3bbd0f" stroke-width="28.792"/></g><g><circle data-type="point" data-label="conn_001" data-x="-5" data-y="2.7800000000000002" cx="40.000000000000114" cy="249.5680000000002" r="28.792" fill="red" stroke="#3bbd0f" stroke-width="28.792"/></g><g><circle data-type="point" data-label="conn_002" data-x="-5" data-y="2.02" cx="40.000000000000114" cy="321.3120000000002" r="28.792" fill="red" stroke="#170fbd" stroke-width="28.792"/></g><g><circle data-type="point" data-label="conn_002" data-x="5" data-y="2.56" cx="983.9999999999998" cy="270.33600000000024" r="28.792" fill="blue" stroke="#170fbd" stroke-width="28.792"/></g><g><circle data-type="point" data-label="conn_003" data-x="2.2800000000000002" data-y="-5" cx="727.2319999999999" cy="984" r="28.792" fill="blue" stroke="#bd490f" stroke-width="28.792"/></g><g><circle data-type="point" data-label="conn_003" data-x="4.66" data-y="5" cx="951.9039999999998" cy="40.000000000000284" r="28.792" fill="blue" stroke="#bd490f" stroke-width="28.792"/></g><g><circle data-type="point" data-label="conn_004" data-x="-2.98" data-y="-5" cx="230.68800000000005" cy="984" r="28.792" fill="red" stroke="#0fbd7c" stroke-width="28.792"/></g><g><circle data-type="point" data-label="conn_004" data-x="5" data-y="-2.5" cx="983.9999999999998" cy="748" r="28.792" fill="red" stroke="#0fbd7c" stroke-width="28.792"/></g><g><circle data-type="point" data-label="conn_005" data-x="5" data-y="-1.04" cx="983.9999999999998" cy="610.176" r="28.792" fill="red" stroke="#ae0fbd" stroke-width="28.792"/></g><g><circle data-type="point" data-label="conn_005" data-x="-5" data-y="-4.66" cx="40.000000000000114" cy="951.904" r="28.792" fill="red" stroke="#ae0fbd" stroke-width="28.792"/></g><g><polyline data-points="5.000000000000002,-1.0606060606060603 4.898989898989901,-1.1616161616161613 4.7979797979797985,-1.2626262626262625 4.696969696969697,-1.363636363636363 4.595959595959597,-1.4646464646464643 4.494949494949497,-1.5656565656565653 4.393939393939394,-1.6666666666666665 4.292929292929293,-1.7676767676767675 4.191919191919193,-1.8686868686868683 4.090909090909092,-1.9696969696969693 3.989898989898992,-2.07070707070707 3.8888888888888893,-2.1717171717171713 3.7878787878787885,-2.2727272727272725 3.6868686868686877,-2.3737373737373733 3.5858585858585874,-2.474747474747474 3.4848484848484866,-2.5757575757575752 3.383838383838384,-2.6767676767676765 3.2828282828282833,-2.7777777777777777 3.181818181818183,-2.8787878787878785 3.080808080808082,-2.9797979797979792 2.9797979797979806,-3.0808080808080804 2.87878787878788,-3.1818181818181817 2.7777777777777786,-3.2828282828282824 2.676767676767678,-3.383838383838383 2.575757575757577,-3.484848484848485 2.4747474747474754,-3.5858585858585856 2.373737373737375,-3.6868686868686864 2.2727272727272734,-3.7878787878787876 2.1717171717171726,-3.8888888888888884 2.070707070707072,-3.98989898989899 1.9696969696969702,-4.090909090909091 1.8686868686868696,-4.191919191919193 1.767676767676768,-4.292929292929293 1.6666666666666674,-4.393939393939394 1.5656565656565666,-4.494949494949496 1.4646464646464652,-4.595959595959596 1.3636363636363644,-4.696969696969697 1.262626262626263,-4.696969696969697 1.1616161616161622,-4.696969696969697 1.0606060606060617,-4.696969696969697 0.9595959595959602,-4.696969696969697 0.8585858585858596,-4.696969696969697 0.7575757575757579,-4.696969696969697 0.6565656565656574,-4.696969696969697 0.5555555555555567,-4.696969696969697 0.4545454545454551,-4.696969696969697 0.3535353535353544,-4.696969696969697 0.2525252525252529,-4.696969696969697 0.1515151515151522,-4.696969696969697 0.050505050505051545,-4.696969696969697 -0.05050505050505001,-4.696969696969697 -0.15151515151515066,-4.696969696969697 -0.2525252525252522,-4.696969696969697 -0.35353535353535287,-4.696969696969697 -0.4545454545454544,-4.696969696969697 -0.555555555555555,-4.696969696969697 -0.6565656565656557,-4.696969696969697 -0.7575757575757572,-4.696969696969697 -0.8585858585858579,-4.696969696969697 -0.9595959595959596,-4.696969696969697 -1.0606060606060603,-4.696969696969697 -1.1616161616161613,-4.696969696969697 -1.2626262626262625,-4.696969696969697 -1.363636363636363,-4.696969696969697 -1.4646464646464643,-4.696969696969697 -1.5656565656565653,-4.696969696969697 -1.6666666666666665,-4.696969696969697 -1.7676767676767675,-4.696969696969697 -1.8686868686868683,-4.696969696969697 -1.9696969696969693,-4.696969696969697 -2.07070707070707,-4.696969696969697 -2.1717171717171713,-4.696969696969697 -2.2727272727272725,-4.696969696969697 -2.3737373737373733,-4.696969696969697 -2.474747474747474,-4.696969696969697 -2.5757575757575752,-4.696969696969697 -2.6767676767676765,-4.696969696969697 -2.7777777777777777,-4.696969696969697 -2.8787878787878785,-4.696969696969697 -2.9797979797979792,-4.696969696969697 -3.0808080808080804,-4.696969696969697 -3.1818181818181817,-4.696969696969697 -3.2828282828282824,-4.696969696969697 -3.383838383838383,-4.696969696969697 -3.484848484848485,-4.696969696969697 -3.5858585858585856,-4.696969696969697 -3.6868686868686864,-4.696969696969697 -3.7878787878787876,-4.696969696969697 -3.8888888888888884,-4.696969696969697 -3.98989898989899,-4.696969696969697 -4.090909090909091,-4.696969696969697 -4.191919191919193,-4.696969696969697 -4.292929292929293,-4.696969696969697 -4.393939393939394,-4.696969696969697 -4.494949494949496,-4.696969696969697 -4.595959595959596,-4.696969696969697 -4.696969696969697,-4.696969696969697 -4.7979797979797985,-4.696969696969697 -4.898989898989899,-4.696969696969697 -5.000000000000001,-4.696969696969697" data-type="line" data-label="" points="984,612.1212121212121 974.4646464646464,621.6565656565657 964.9292929292927,631.1919191919193 955.3939393939393,640.7272727272727 945.8585858585857,650.2626262626263 936.3232323232323,659.7979797979798 926.7878787878785,669.3333333333334 917.2525252525251,678.8686868686868 907.7171717171716,688.4040404040404 898.181818181818,697.939393939394 888.6464646464647,707.4747474747475 879.111111111111,717.010101010101 869.5757575757575,726.5454545454545 860.0404040404039,736.0808080808081 850.5050505050505,745.6161616161615 840.969696969697,755.1515151515151 831.4343434343433,764.6868686868687 821.8989898989898,774.2222222222222 812.3636363636363,783.7575757575758 802.8282828282828,793.2929292929292 793.2929292929292,802.8282828282828 783.7575757575758,812.3636363636363 774.2222222222222,821.8989898989898 764.6868686868686,831.4343434343434 755.1515151515151,840.969696969697 745.6161616161615,850.5050505050505 736.0808080808081,860.0404040404039 726.5454545454545,869.5757575757575 717.0101010101009,879.1111111111111 707.4747474747475,888.6464646464647 697.9393939393939,898.1818181818181 688.4040404040404,907.7171717171718 678.8686868686868,917.2525252525252 669.3333333333333,926.7878787878788 659.7979797979798,936.3232323232323 650.2626262626262,945.8585858585858 640.7272727272727,955.3939393939394 631.1919191919192,955.3939393939394 621.6565656565656,955.3939393939394 612.1212121212121,955.3939393939394 602.5858585858585,955.3939393939394 593.0505050505051,955.3939393939394 583.5151515151515,955.3939393939394 573.9797979797979,955.3939393939394 564.4444444444445,955.3939393939394 554.9090909090909,955.3939393939394 545.3737373737374,955.3939393939394 535.8383838383838,955.3939393939394 526.3030303030303,955.3939393939394 516.7676767676768,955.3939393939394 507.2323232323232,955.3939393939394 497.69696969696975,955.3939393939394 488.16161616161617,955.3939393939394 478.62626262626264,955.3939393939394 469.09090909090907,955.3939393939394 459.55555555555554,955.3939393939394 450.0202020202021,955.3939393939394 440.4848484848485,955.3939393939394 430.949494949495,955.3939393939394 421.4141414141414,955.3939393939394 411.8787878787879,955.3939393939394 402.34343434343435,955.3939393939394 392.80808080808083,955.3939393939394 383.2727272727273,955.3939393939394 373.7373737373738,955.3939393939394 364.2020202020202,955.3939393939394 354.6666666666667,955.3939393939394 345.13131313131316,955.3939393939394 335.59595959595964,955.3939393939394 326.0606060606061,955.3939393939394 316.5252525252526,955.3939393939394 306.9898989898991,955.3939393939394 297.4545454545455,955.3939393939394 287.91919191919203,955.3939393939394 278.38383838383845,955.3939393939394 268.84848484848493,955.3939393939394 259.3131313131314,955.3939393939394 249.77777777777783,955.3939393939394 240.2424242424243,955.3939393939394 230.70707070707084,955.3939393939394 221.17171717171726,955.3939393939394 211.63636363636374,955.3939393939394 202.10101010101022,955.3939393939394 192.5656565656567,955.3939393939394 183.03030303030312,955.3939393939394 173.4949494949496,955.3939393939394 163.95959595959607,955.3939393939394 154.42424242424255,955.3939393939394 144.88888888888903,955.3939393939394 135.35353535353545,955.3939393939394 125.81818181818193,955.3939393939394 116.28282828282829,955.3939393939394 106.74747474747483,955.3939393939394 97.21212121212136,955.3939393939394 87.67676767676772,955.3939393939394 78.14141414141426,955.3939393939394 68.60606060606068,955.3939393939394 59.07070707070716,955.3939393939394 49.53535353535369,955.3939393939394 40.00000000000006,955.3939393939394" fill="none" stroke="rgba(255,0,0,0.75)" stroke-width="14.159999999999995"/></g><g><polyline data-points="-4.7979797979797985,5.000000000000002 -4.696969696969697,4.898989898989901 -4.595959595959596,4.7979797979797985 -4.494949494949496,4.696969696969697 -4.393939393939394,4.595959595959597 -4.292929292929293,4.494949494949497 -4.191919191919193,4.393939393939394 -4.090909090909091,4.292929292929293 -3.98989898989899,4.191919191919193 -3.8888888888888884,4.090909090909092 -3.7878787878787876,3.989898989898992 -3.6868686868686864,3.8888888888888893 -3.5858585858585856,3.7878787878787885 -3.484848484848485,3.6868686868686877 -3.383838383838383,3.5858585858585874 -3.2828282828282824,3.4848484848484866 -3.1818181818181817,3.383838383838384 -3.0808080808080804,3.2828282828282833 -2.9797979797979792,3.181818181818183 -2.8787878787878785,3.080808080808082 -2.7777777777777777,2.9797979797979806 -2.6767676767676765,2.87878787878788 -2.5757575757575752,2.7777777777777786 -2.474747474747474,2.676767676767678 -2.3737373737373733,2.575757575757577 -2.2727272727272725,2.4747474747474754 -2.1717171717171713,2.373737373737375 -2.07070707070707,2.2727272727272734 -1.9696969696969693,2.1717171717171726 -1.8686868686868683,2.070707070707072 -1.7676767676767675,1.9696969696969702 -1.6666666666666665,1.8686868686868696 -1.5656565656565653,1.767676767676768 -1.4646464646464643,1.6666666666666674 -1.4646464646464643,1.5656565656565666 -1.4646464646464643,1.4646464646464652 -1.4646464646464643,1.3636363636363644 -1.4646464646464643,1.262626262626263 -1.4646464646464643,1.1616161616161622 -1.4646464646464643,1.0606060606060617 -1.4646464646464643,0.9595959595959602 -1.4646464646464643,0.8585858585858596 -1.4646464646464643,0.7575757575757579 -1.4646464646464643,0.6565656565656574 -1.4646464646464643,0.5555555555555567 -1.4646464646464643,0.4545454545454551 -1.4646464646464643,0.3535353535353544 -1.4646464646464643,0.2525252525252529 -1.4646464646464643,0.1515151515151522 -1.4646464646464643,0.050505050505051545 -1.4646464646464643,-0.05050505050505001 -1.4646464646464643,-0.15151515151515066 -1.4646464646464643,-0.2525252525252522 -1.4646464646464643,-0.35353535353535287 -1.4646464646464643,-0.4545454545454544 -1.4646464646464643,-0.555555555555555 -1.4646464646464643,-0.6565656565656557 -1.4646464646464643,-0.7575757575757572 -1.4646464646464643,-0.8585858585858579 -1.4646464646464643,-0.9595959595959596 -1.4646464646464643,-1.0606060606060603 -1.4646464646464643,-1.1616161616161613 -1.4646464646464643,-1.2626262626262625 -1.4646464646464643,-1.363636363636363 -1.4646464646464643,-1.4646464646464643 -1.4646464646464643,-1.5656565656565653 -1.4646464646464643,-1.6666666666666665 -1.4646464646464643,-1.7676767676767675 -1.4646464646464643,-1.8686868686868683 -1.4646464646464643,-1.9696969696969693 -1.4646464646464643,-2.07070707070707 -1.4646464646464643,-2.1717171717171713 -1.4646464646464643,-2.2727272727272725 -1.4646464646464643,-2.3737373737373733 -1.4646464646464643,-2.474747474747474 -1.4646464646464643,-2.5757575757575752 -1.4646464646464643,-2.6767676767676765 -1.4646464646464643,-2.7777777777777777 -1.4646464646464643,-2.8787878787878785 -1.4646464646464643,-2.9797979797979792 -1.4646464646464643,-3.0808080808080804 -1.4646464646464643,-3.1818181818181817 -1.4646464646464643,-3.2828282828282824 -1.4646464646464643,-3.383838383838383 -1.4646464646464643,-3.484848484848485 -1.4646464646464643,-3.5858585858585856 -1.4646464646464643,-3.6868686868686864 -1.4646464646464643,-3.7878787878787876 -1.4646464646464643,-3.8888888888888884 -1.4646464646464643,-3.98989898989899" data-type="line" data-label="" points="59.07070707070716,40.000000000000114 68.60606060606068,49.53535353535369 78.14141414141426,59.07070707070733 87.67676767676772,68.60606060606085 97.21212121212136,78.14141414141432 106.74747474747483,87.67676767676778 116.28282828282829,97.21212121212153 125.81818181818193,106.747474747475 135.35353535353545,116.28282828282846 144.88888888888903,125.81818181818198 154.42424242424255,135.35353535353545 163.95959595959607,144.88888888888908 173.4949494949496,154.4242424242426 183.03030303030312,163.95959595959613 192.5656565656567,173.4949494949496 202.10101010101022,183.03030303030312 211.63636363636374,192.56565656565675 221.17171717171726,202.10101010101027 230.70707070707084,211.63636363636374 240.2424242424243,221.17171717171726 249.77777777777783,230.70707070707084 259.3131313131314,240.24242424242436 268.84848484848493,249.77777777777794 278.38383838383845,259.3131313131314 287.91919191919203,268.84848484848493 297.4545454545455,278.38383838383857 306.9898989898991,287.91919191919203 316.5252525252526,297.4545454545456 326.0606060606061,306.9898989898991 335.59595959595964,316.5252525252526 345.13131313131316,326.06060606060623 354.6666666666667,335.5959595959597 364.2020202020202,345.1313131313133 373.7373737373738,354.66666666666674 373.7373737373738,364.2020202020203 373.7373737373738,373.73737373737384 373.7373737373738,383.27272727272737 373.7373737373738,392.80808080808094 373.7373737373738,402.3434343434344 373.7373737373738,411.87878787878793 373.7373737373738,421.4141414141415 373.7373737373738,430.94949494949503 373.7373737373738,440.4848484848486 373.7373737373738,450.0202020202021 373.7373737373738,459.5555555555556 373.7373737373738,469.0909090909092 373.7373737373738,478.6262626262627 373.7373737373738,488.1616161616163 373.7373737373738,497.69696969696975 373.7373737373738,507.23232323232327 373.7373737373738,516.7676767676768 373.7373737373738,526.3030303030304 373.7373737373738,535.838383838384 373.7373737373738,545.3737373737374 373.7373737373738,554.909090909091 373.7373737373738,564.4444444444445 373.7373737373738,573.979797979798 373.7373737373738,583.5151515151516 373.7373737373738,593.0505050505051 373.7373737373738,602.5858585858587 373.7373737373738,612.1212121212121 373.7373737373738,621.6565656565657 373.7373737373738,631.1919191919193 373.7373737373738,640.7272727272727 373.7373737373738,650.2626262626263 373.7373737373738,659.7979797979798 373.7373737373738,669.3333333333334 373.7373737373738,678.8686868686868 373.7373737373738,688.4040404040404 373.7373737373738,697.939393939394 373.7373737373738,707.4747474747475 373.7373737373738,717.010101010101 373.7373737373738,726.5454545454545 373.7373737373738,736.0808080808081 373.7373737373738,745.6161616161615 373.7373737373738,755.1515151515151 373.7373737373738,764.6868686868687 373.7373737373738,774.2222222222222 373.7373737373738,783.7575757575758 373.7373737373738,793.2929292929292 373.7373737373738,802.8282828282828 373.7373737373738,812.3636363636363 373.7373737373738,821.8989898989898 373.7373737373738,831.4343434343434 373.7373737373738,840.969696969697 373.7373737373738,850.5050505050505 373.7373737373738,860.0404040404039 373.7373737373738,869.5757575757575 373.7373737373738,879.1111111111111 373.7373737373738,888.6464646464647" fill="none" stroke="rgba(255,0,0,0.75)" stroke-width="14.159999999999995"/></g><g><polyline data-points="-1.4646464646464643,-3.98989898989899 -1.4646464646464643,-4.090909090909091 -1.4646464646464643,-4.191919191919193 -1.4646464646464643,-4.292929292929293 -1.4646464646464643,-4.393939393939394 -1.4646464646464643,-4.494949494949496 -1.4646464646464643,-4.595959595959596 -1.4646464646464643,-4.696969696969697 -1.4646464646464643,-4.7979797979797985 -1.4646464646464643,-4.898989898989899 -1.4646464646464643,-5.000000000000001" data-type="line" data-label="" points="373.7373737373738,888.6464646464647 373.7373737373738,898.1818181818181 373.7373737373738,907.7171717171718 373.7373737373738,917.2525252525252 373.7373737373738,926.7878787878788 373.7373737373738,936.3232323232323 373.7373737373738,945.8585858585858 373.7373737373738,955.3939393939394 373.7373737373738,964.9292929292928 373.7373737373738,974.4646464646464 373.7373737373738,984" fill="none" stroke="rgba(0,0,255,0.75)" stroke-width="14.159999999999995"/></g><g><polyline data-points="-2.1717171717171713,-5.000000000000001 -2.2727272727272725,-4.898989898989899 -2.3737373737373733,-4.7979797979797985 -2.474747474747474,-4.696969696969697 -2.5757575757575752,-4.595959595959596 -2.6767676767676765,-4.494949494949496 -2.7777777777777777,-4.393939393939394 -2.8787878787878785,-4.292929292929293 -2.9797979797979792,-4.191919191919193 -3.0808080808080804,-4.090909090909091 -3.1818181818181817,-3.98989898989899 -3.2828282828282824,-3.8888888888888884 -3.383838383838383,-3.7878787878787876 -3.484848484848485,-3.6868686868686864 -3.5858585858585856,-3.5858585858585856 -3.6868686868686864,-3.484848484848485 -3.7878787878787876,-3.383838383838383 -3.8888888888888884,-3.2828282828282824 -3.98989898989899,-3.1818181818181817 -3.98989898989899,-3.0808080808080804 -3.98989898989899,-2.9797979797979792 -3.98989898989899,-2.8787878787878785 -3.98989898989899,-2.7777777777777777 -3.98989898989899,-2.6767676767676765 -3.98989898989899,-2.5757575757575752 -3.98989898989899,-2.474747474747474 -3.98989898989899,-2.3737373737373733 -3.98989898989899,-2.2727272727272725 -3.98989898989899,-2.1717171717171713 -3.98989898989899,-2.07070707070707 -3.98989898989899,-1.9696969696969693 -3.98989898989899,-1.8686868686868683 -3.98989898989899,-1.7676767676767675 -3.98989898989899,-1.6666666666666665 -3.98989898989899,-1.5656565656565653 -3.98989898989899,-1.4646464646464643 -3.98989898989899,-1.363636363636363 -3.98989898989899,-1.2626262626262625 -3.98989898989899,-1.1616161616161613 -3.98989898989899,-1.0606060606060603 -3.98989898989899,-0.9595959595959596 -3.98989898989899,-0.8585858585858579 -3.98989898989899,-0.7575757575757572 -3.98989898989899,-0.6565656565656557 -3.98989898989899,-0.555555555555555 -3.98989898989899,-0.4545454545454544 -3.98989898989899,-0.35353535353535287 -3.98989898989899,-0.2525252525252522 -3.98989898989899,-0.15151515151515066 -3.98989898989899,-0.05050505050505001 -3.98989898989899,0.050505050505051545 -3.98989898989899,0.1515151515151522 -3.98989898989899,0.2525252525252529 -3.98989898989899,0.3535353535353544 -3.98989898989899,0.4545454545454551 -3.98989898989899,0.5555555555555567 -3.98989898989899,0.6565656565656574 -3.98989898989899,0.7575757575757579 -3.98989898989899,0.8585858585858596 -3.98989898989899,0.9595959595959602 -3.98989898989899,1.0606060606060617 -3.98989898989899,1.1616161616161622 -3.98989898989899,1.262626262626263 -3.98989898989899,1.3636363636363644 -3.98989898989899,1.4646464646464652 -3.98989898989899,1.5656565656565666 -3.98989898989899,1.6666666666666674 -3.98989898989899,1.767676767676768 -3.98989898989899,1.8686868686868696 -3.98989898989899,1.9696969696969702 -3.98989898989899,2.070707070707072 -3.98989898989899,2.1717171717171726 -3.98989898989899,2.2727272727272734 -3.98989898989899,2.373737373737375 -3.98989898989899,2.4747474747474754 -3.98989898989899,2.575757575757577 -3.98989898989899,2.676767676767678" data-type="line" data-label="" points="306.9898989898991,984 297.4545454545455,974.4646464646464 287.91919191919203,964.9292929292928 278.38383838383845,955.3939393939394 268.84848484848493,945.8585858585858 259.3131313131314,936.3232323232323 249.77777777777783,926.7878787878788 240.2424242424243,917.2525252525252 230.70707070707084,907.7171717171718 221.17171717171726,898.1818181818181 211.63636363636374,888.6464646464647 202.10101010101022,879.1111111111111 192.5656565656567,869.5757575757575 183.03030303030312,860.0404040404039 173.4949494949496,850.5050505050505 163.95959595959607,840.969696969697 154.42424242424255,831.4343434343434 144.88888888888903,821.8989898989898 135.35353535353545,812.3636363636363 135.35353535353545,802.8282828282828 135.35353535353545,793.2929292929292 135.35353535353545,783.7575757575758 135.35353535353545,774.2222222222222 135.35353535353545,764.6868686868687 135.35353535353545,755.1515151515151 135.35353535353545,745.6161616161615 135.35353535353545,736.0808080808081 135.35353535353545,726.5454545454545 135.35353535353545,717.010101010101 135.35353535353545,707.4747474747475 135.35353535353545,697.939393939394 135.35353535353545,688.4040404040404 135.35353535353545,678.8686868686868 135.35353535353545,669.3333333333334 135.35353535353545,659.7979797979798 135.35353535353545,650.2626262626263 135.35353535353545,640.7272727272727 135.35353535353545,631.1919191919193 135.35353535353545,621.6565656565657 135.35353535353545,612.1212121212121 135.35353535353545,602.5858585858587 135.35353535353545,593.0505050505051 135.35353535353545,583.5151515151516 135.35353535353545,573.979797979798 135.35353535353545,564.4444444444445 135.35353535353545,554.909090909091 135.35353535353545,545.3737373737374 135.35353535353545,535.838383838384 135.35353535353545,526.3030303030304 135.35353535353545,516.7676767676768 135.35353535353545,507.23232323232327 135.35353535353545,497.69696969696975 135.35353535353545,488.1616161616163 135.35353535353545,478.6262626262627 135.35353535353545,469.0909090909092 135.35353535353545,459.5555555555556 135.35353535353545,450.0202020202021 135.35353535353545,440.4848484848486 135.35353535353545,430.94949494949503 135.35353535353545,421.4141414141415 135.35353535353545,411.87878787878793 135.35353535353545,402.3434343434344 135.35353535353545,392.80808080808094 135.35353535353545,383.27272727272737 135.35353535353545,373.73737373737384 135.35353535353545,364.2020202020203 135.35353535353545,354.66666666666674 135.35353535353545,345.1313131313133 135.35353535353545,335.5959595959597 135.35353535353545,326.06060606060623 135.35353535353545,316.5252525252526 135.35353535353545,306.9898989898991 135.35353535353545,297.4545454545456 135.35353535353545,287.91919191919203 135.35353535353545,278.38383838383857 135.35353535353545,268.84848484848493 135.35353535353545,259.3131313131314" fill="none" stroke="rgba(0,0,255,0.75)" stroke-width="14.159999999999995"/></g><g><polyline data-points="-3.98989898989899,2.676767676767678 -4.090909090909091,2.7777777777777786 -4.191919191919193,2.7777777777777786 -4.292929292929293,2.7777777777777786 -4.393939393939394,2.7777777777777786 -4.494949494949496,2.7777777777777786 -4.595959595959596,2.7777777777777786 -4.696969696969697,2.7777777777777786 -4.7979797979797985,2.7777777777777786 -4.898989898989899,2.7777777777777786 -5.000000000000001,2.7777777777777786" data-type="line" data-label="" points="135.35353535353545,259.3131313131314 125.81818181818193,249.77777777777794 116.28282828282829,249.77777777777794 106.74747474747483,249.77777777777794 97.21212121212136,249.77777777777794 87.67676767676772,249.77777777777794 78.14141414141426,249.77777777777794 68.60606060606068,249.77777777777794 59.07070707070716,249.77777777777794 49.53535353535369,249.77777777777794 40.00000000000006,249.77777777777794" fill="none" stroke="rgba(255,0,0,0.75)" stroke-width="14.159999999999995"/></g><g><polyline data-points="-2.9797979797979792,-5.000000000000001 -2.8787878787878785,-4.898989898989899 -2.7777777777777777,-4.898989898989899 -2.6767676767676765,-4.898989898989899 -2.5757575757575752,-4.898989898989899 -2.474747474747474,-4.898989898989899 -2.3737373737373733,-4.898989898989899 -2.2727272727272725,-4.898989898989899 -2.1717171717171713,-4.898989898989899 -2.07070707070707,-4.898989898989899 -1.9696969696969693,-4.898989898989899 -1.8686868686868683,-4.898989898989899 -1.7676767676767675,-4.898989898989899 -1.6666666666666665,-4.898989898989899 -1.5656565656565653,-4.898989898989899 -1.4646464646464643,-4.898989898989899 -1.363636363636363,-4.898989898989899 -1.2626262626262625,-4.898989898989899 -1.1616161616161613,-4.898989898989899 -1.0606060606060603,-4.898989898989899 -0.9595959595959596,-4.898989898989899 -0.8585858585858579,-4.898989898989899 -0.7575757575757572,-4.898989898989899 -0.6565656565656557,-4.898989898989899 -0.555555555555555,-4.898989898989899 -0.4545454545454544,-4.898989898989899 -0.35353535353535287,-4.898989898989899 -0.2525252525252522,-4.898989898989899 -0.15151515151515066,-4.898989898989899 -0.05050505050505001,-4.898989898989899 0.050505050505051545,-4.898989898989899 0.1515151515151522,-4.898989898989899 0.2525252525252529,-4.898989898989899 0.3535353535353544,-4.898989898989899 0.4545454545454551,-4.898989898989899 0.5555555555555567,-4.898989898989899 0.6565656565656574,-4.898989898989899 0.7575757575757579,-4.898989898989899 0.8585858585858596,-4.898989898989899 0.9595959595959602,-4.898989898989899 1.0606060606060617,-4.898989898989899 1.1616161616161622,-4.898989898989899 1.262626262626263,-4.898989898989899 1.3636363636363644,-4.898989898989899 1.4646464646464652,-4.898989898989899 1.5656565656565666,-4.7979797979797985 1.6666666666666674,-4.696969696969697 1.767676767676768,-4.595959595959596 1.8686868686868696,-4.494949494949496 1.9696969696969702,-4.393939393939394 2.070707070707072,-4.292929292929293 2.1717171717171726,-4.191919191919193 2.2727272727272734,-4.090909090909091 2.373737373737375,-3.98989898989899 2.4747474747474754,-3.8888888888888884 2.575757575757577,-3.7878787878787876 2.676767676767678,-3.6868686868686864 2.7777777777777786,-3.5858585858585856 2.87878787878788,-3.484848484848485 2.9797979797979806,-3.383838383838383 3.080808080808082,-3.2828282828282824 3.181818181818183,-3.1818181818181817 3.2828282828282833,-3.0808080808080804 3.383838383838384,-2.9797979797979792 3.4848484848484866,-2.8787878787878785 3.5858585858585874,-2.7777777777777777 3.6868686868686877,-2.6767676767676765 3.7878787878787885,-2.5757575757575752 3.8888888888888893,-2.474747474747474 3.989898989898992,-2.474747474747474 4.090909090909092,-2.474747474747474 4.191919191919193,-2.474747474747474 4.292929292929293,-2.474747474747474 4.393939393939394,-2.474747474747474 4.494949494949497,-2.474747474747474 4.595959595959597,-2.474747474747474 4.696969696969697,-2.474747474747474 4.7979797979797985,-2.474747474747474 4.898989898989901,-2.474747474747474 5.000000000000002,-2.474747474747474" data-type="line" data-label="" points="230.70707070707084,984 240.2424242424243,974.4646464646464 249.77777777777783,974.4646464646464 259.3131313131314,974.4646464646464 268.84848484848493,974.4646464646464 278.38383838383845,974.4646464646464 287.91919191919203,974.4646464646464 297.4545454545455,974.4646464646464 306.9898989898991,974.4646464646464 316.5252525252526,974.4646464646464 326.0606060606061,974.4646464646464 335.59595959595964,974.4646464646464 345.13131313131316,974.4646464646464 354.6666666666667,974.4646464646464 364.2020202020202,974.4646464646464 373.7373737373738,974.4646464646464 383.2727272727273,974.4646464646464 392.80808080808083,974.4646464646464 402.34343434343435,974.4646464646464 411.8787878787879,974.4646464646464 421.4141414141414,974.4646464646464 430.949494949495,974.4646464646464 440.4848484848485,974.4646464646464 450.0202020202021,974.4646464646464 459.55555555555554,974.4646464646464 469.09090909090907,974.4646464646464 478.62626262626264,974.4646464646464 488.16161616161617,974.4646464646464 497.69696969696975,974.4646464646464 507.2323232323232,974.4646464646464 516.7676767676768,974.4646464646464 526.3030303030303,974.4646464646464 535.8383838383838,974.4646464646464 545.3737373737374,974.4646464646464 554.9090909090909,974.4646464646464 564.4444444444445,974.4646464646464 573.9797979797979,974.4646464646464 583.5151515151515,974.4646464646464 593.0505050505051,974.4646464646464 602.5858585858585,974.4646464646464 612.1212121212121,974.4646464646464 621.6565656565656,974.4646464646464 631.1919191919192,974.4646464646464 640.7272727272727,974.4646464646464 650.2626262626262,974.4646464646464 659.7979797979798,964.9292929292928 669.3333333333333,955.3939393939394 678.8686868686868,945.8585858585858 688.4040404040404,936.3232323232323 697.9393939393939,926.7878787878788 707.4747474747475,917.2525252525252 717.0101010101009,907.7171717171718 726.5454545454545,898.1818181818181 736.0808080808081,888.6464646464647 745.6161616161615,879.1111111111111 755.1515151515151,869.5757575757575 764.6868686868686,860.0404040404039 774.2222222222222,850.5050505050505 783.7575757575758,840.969696969697 793.2929292929292,831.4343434343434 802.8282828282828,821.8989898989898 812.3636363636363,812.3636363636363 821.8989898989898,802.8282828282828 831.4343434343433,793.2929292929292 840.969696969697,783.7575757575758 850.5050505050505,774.2222222222222 860.0404040404039,764.6868686868687 869.5757575757575,755.1515151515151 879.111111111111,745.6161616161615 888.6464646464647,745.6161616161615 898.181818181818,745.6161616161615 907.7171717171716,745.6161616161615 917.2525252525251,745.6161616161615 926.7878787878785,745.6161616161615 936.3232323232323,745.6161616161615 945.8585858585857,745.6161616161615 955.3939393939393,745.6161616161615 964.9292929292927,745.6161616161615 974.4646464646464,745.6161616161615 984,745.6161616161615" fill="none" stroke="rgba(255,0,0,0.75)" stroke-width="14.159999999999995"/></g><g><polyline data-points="-5.000000000000001,2.070707070707072 -4.898989898989899,2.1717171717171726 -4.7979797979797985,2.1717171717171726 -4.696969696969697,2.1717171717171726 -4.595959595959596,2.1717171717171726 -4.494949494949496,2.1717171717171726 -4.393939393939394,2.1717171717171726 -4.292929292929293,2.1717171717171726 -4.191919191919193,2.1717171717171726 -4.090909090909091,2.1717171717171726 -3.98989898989899,2.1717171717171726 -3.8888888888888884,2.2727272727272734 -3.7878787878787876,2.2727272727272734 -3.6868686868686864,2.373737373737375 -3.5858585858585856,2.4747474747474754 -3.484848484848485,2.575757575757577 -3.383838383838383,2.575757575757577 -3.2828282828282824,2.575757575757577 -3.1818181818181817,2.575757575757577" data-type="line" data-label="" points="40.00000000000006,316.5252525252526 49.53535353535369,306.9898989898991 59.07070707070716,306.9898989898991 68.60606060606068,306.9898989898991 78.14141414141426,306.9898989898991 87.67676767676772,306.9898989898991 97.21212121212136,306.9898989898991 106.74747474747483,306.9898989898991 116.28282828282829,306.9898989898991 125.81818181818193,306.9898989898991 135.35353535353545,306.9898989898991 144.88888888888903,297.4545454545456 154.42424242424255,297.4545454545456 163.95959595959607,287.91919191919203 173.4949494949496,278.38383838383857 183.03030303030312,268.84848484848493 192.5656565656567,268.84848484848493 202.10101010101022,268.84848484848493 211.63636363636374,268.84848484848493" fill="none" stroke="rgba(255,0,0,0.75)" stroke-width="14.159999999999995"/></g><g><polyline data-points="-3.1818181818181817,2.575757575757577 -3.0808080808080804,2.575757575757577 -2.9797979797979792,2.575757575757577 -2.8787878787878785,2.575757575757577 -2.7777777777777777,2.575757575757577 -2.6767676767676765,2.575757575757577 -2.5757575757575752,2.575757575757577 -2.474747474747474,2.575757575757577 -2.3737373737373733,2.575757575757577 -2.2727272727272725,2.575757575757577 -2.1717171717171713,2.575757575757577 -2.07070707070707,2.575757575757577 -1.9696969696969693,2.575757575757577 -1.8686868686868683,2.575757575757577 -1.7676767676767675,2.575757575757577 -1.6666666666666665,2.575757575757577 -1.5656565656565653,2.575757575757577 -1.4646464646464643,2.575757575757577 -1.363636363636363,2.575757575757577 -1.2626262626262625,2.575757575757577 -1.1616161616161613,2.575757575757577 -1.0606060606060603,2.575757575757577 -0.9595959595959596,2.575757575757577 -0.8585858585858579,2.575757575757577 -0.7575757575757572,2.575757575757577 -0.6565656565656557,2.575757575757577 -0.555555555555555,2.575757575757577 -0.4545454545454544,2.575757575757577 -0.35353535353535287,2.575757575757577 -0.2525252525252522,2.575757575757577 -0.15151515151515066,2.575757575757577 -0.05050505050505001,2.575757575757577 0.050505050505051545,2.575757575757577 0.1515151515151522,2.575757575757577 0.2525252525252529,2.575757575757577 0.3535353535353544,2.575757575757577 0.4545454545454551,2.575757575757577 0.5555555555555567,2.575757575757577 0.6565656565656574,2.575757575757577 0.7575757575757579,2.575757575757577 0.8585858585858596,2.575757575757577 0.9595959595959602,2.575757575757577 1.0606060606060617,2.575757575757577 1.1616161616161622,2.575757575757577 1.262626262626263,2.575757575757577 1.3636363636363644,2.575757575757577 1.4646464646464652,2.575757575757577 1.5656565656565666,2.575757575757577 1.6666666666666674,2.575757575757577 1.767676767676768,2.575757575757577 1.8686868686868696,2.575757575757577 1.9696969696969702,2.575757575757577 2.070707070707072,2.575757575757577 2.1717171717171726,2.575757575757577 2.2727272727272734,2.575757575757577 2.373737373737375,2.575757575757577 2.4747474747474754,2.575757575757577 2.575757575757577,2.575757575757577 2.676767676767678,2.575757575757577 2.7777777777777786,2.575757575757577 2.87878787878788,2.575757575757577 2.9797979797979806,2.575757575757577 3.080808080808082,2.575757575757577 3.181818181818183,2.575757575757577 3.2828282828282833,2.575757575757577 3.383838383838384,2.575757575757577 3.4848484848484866,2.575757575757577 3.5858585858585874,2.575757575757577 3.6868686868686877,2.575757575757577 3.7878787878787885,2.575757575757577 3.8888888888888893,2.575757575757577 3.989898989898992,2.575757575757577 4.090909090909092,2.575757575757577 4.191919191919193,2.575757575757577 4.292929292929293,2.575757575757577 4.393939393939394,2.575757575757577 4.494949494949497,2.575757575757577 4.595959595959597,2.575757575757577 4.696969696969697,2.575757575757577 4.7979797979797985,2.575757575757577 4.898989898989901,2.575757575757577 5.000000000000002,2.575757575757577" data-type="line" data-label="" points="211.63636363636374,268.84848484848493 221.17171717171726,268.84848484848493 230.70707070707084,268.84848484848493 240.2424242424243,268.84848484848493 249.77777777777783,268.84848484848493 259.3131313131314,268.84848484848493 268.84848484848493,268.84848484848493 278.38383838383845,268.84848484848493 287.91919191919203,268.84848484848493 297.4545454545455,268.84848484848493 306.9898989898991,268.84848484848493 316.5252525252526,268.84848484848493 326.0606060606061,268.84848484848493 335.59595959595964,268.84848484848493 345.13131313131316,268.84848484848493 354.6666666666667,268.84848484848493 364.2020202020202,268.84848484848493 373.7373737373738,268.84848484848493 383.2727272727273,268.84848484848493 392.80808080808083,268.84848484848493 402.34343434343435,268.84848484848493 411.8787878787879,268.84848484848493 421.4141414141414,268.84848484848493 430.949494949495,268.84848484848493 440.4848484848485,268.84848484848493 450.0202020202021,268.84848484848493 459.55555555555554,268.84848484848493 469.09090909090907,268.84848484848493 478.62626262626264,268.84848484848493 488.16161616161617,268.84848484848493 497.69696969696975,268.84848484848493 507.2323232323232,268.84848484848493 516.7676767676768,268.84848484848493 526.3030303030303,268.84848484848493 535.8383838383838,268.84848484848493 545.3737373737374,268.84848484848493 554.9090909090909,268.84848484848493 564.4444444444445,268.84848484848493 573.9797979797979,268.84848484848493 583.5151515151515,268.84848484848493 593.0505050505051,268.84848484848493 602.5858585858585,268.84848484848493 612.1212121212121,268.84848484848493 621.6565656565656,268.84848484848493 631.1919191919192,268.84848484848493 640.7272727272727,268.84848484848493 650.2626262626262,268.84848484848493 659.7979797979798,268.84848484848493 669.3333333333333,268.84848484848493 678.8686868686868,268.84848484848493 688.4040404040404,268.84848484848493 697.9393939393939,268.84848484848493 707.4747474747475,268.84848484848493 717.0101010101009,268.84848484848493 726.5454545454545,268.84848484848493 736.0808080808081,268.84848484848493 745.6161616161615,268.84848484848493 755.1515151515151,268.84848484848493 764.6868686868686,268.84848484848493 774.2222222222222,268.84848484848493 783.7575757575758,268.84848484848493 793.2929292929292,268.84848484848493 802.8282828282828,268.84848484848493 812.3636363636363,268.84848484848493 821.8989898989898,268.84848484848493 831.4343434343433,268.84848484848493 840.969696969697,268.84848484848493 850.5050505050505,268.84848484848493 860.0404040404039,268.84848484848493 869.5757575757575,268.84848484848493 879.111111111111,268.84848484848493 888.6464646464647,268.84848484848493 898.181818181818,268.84848484848493 907.7171717171716,268.84848484848493 917.2525252525251,268.84848484848493 926.7878787878785,268.84848484848493 936.3232323232323,268.84848484848493 945.8585858585857,268.84848484848493 955.3939393939393,268.84848484848493 964.9292929292927,268.84848484848493 974.4646464646464,268.84848484848493 984,268.84848484848493" fill="none" stroke="rgba(0,0,255,0.75)" stroke-width="14.159999999999995"/></g><g><polyline data-points="2.2727272727272734,-5.000000000000001 2.373737373737375,-5.000000000000001 2.4747474747474754,-4.898989898989899 2.575757575757577,-4.7979797979797985 2.676767676767678,-4.696969696969697 2.7777777777777786,-4.595959595959596 2.87878787878788,-4.494949494949496 2.9797979797979806,-4.393939393939394 3.080808080808082,-4.292929292929293 3.181818181818183,-4.191919191919193 3.2828282828282833,-4.090909090909091 3.383838383838384,-3.98989898989899 3.4848484848484866,-3.8888888888888884 3.5858585858585874,-3.7878787878787876 3.6868686868686877,-3.6868686868686864 3.7878787878787885,-3.5858585858585856 3.8888888888888893,-3.484848484848485 3.989898989898992,-3.383838383838383 4.090909090909092,-3.2828282828282824 3.989898989898992,-3.1818181818181817 3.989898989898992,-3.0808080808080804 3.989898989898992,-2.9797979797979792 3.989898989898992,-2.8787878787878785 3.989898989898992,-2.7777777777777777 3.989898989898992,-2.6767676767676765 3.989898989898992,-2.5757575757575752 3.989898989898992,-2.474747474747474 3.989898989898992,-2.3737373737373733 3.989898989898992,-2.2727272727272725 3.989898989898992,-2.1717171717171713 3.989898989898992,-2.07070707070707 3.989898989898992,-1.9696969696969693 3.989898989898992,-1.8686868686868683 3.989898989898992,-1.7676767676767675 3.989898989898992,-1.6666666666666665 3.989898989898992,-1.5656565656565653 3.989898989898992,-1.4646464646464643 3.989898989898992,-1.363636363636363 3.989898989898992,-1.2626262626262625 3.989898989898992,-1.1616161616161613 3.989898989898992,-1.0606060606060603 3.989898989898992,-0.9595959595959596 3.989898989898992,-0.8585858585858579 3.989898989898992,-0.7575757575757572 3.989898989898992,-0.6565656565656557 3.989898989898992,-0.555555555555555 3.989898989898992,-0.4545454545454544 3.989898989898992,-0.35353535353535287 3.989898989898992,-0.2525252525252522 3.989898989898992,-0.15151515151515066 3.989898989898992,-0.05050505050505001 3.989898989898992,0.050505050505051545 3.989898989898992,0.1515151515151522 3.989898989898992,0.2525252525252529 3.989898989898992,0.3535353535353544 3.989898989898992,0.4545454545454551 3.989898989898992,0.5555555555555567 3.989898989898992,0.6565656565656574 3.989898989898992,0.7575757575757579 3.989898989898992,0.8585858585858596 3.989898989898992,0.9595959595959602 3.989898989898992,1.0606060606060617 3.989898989898992,1.1616161616161622 3.989898989898992,1.262626262626263 3.989898989898992,1.3636363636363644 3.989898989898992,1.4646464646464652 3.989898989898992,1.5656565656565666 3.989898989898992,1.6666666666666674 3.989898989898992,1.767676767676768 3.989898989898992,1.8686868686868696 3.989898989898992,1.9696969696969702" data-type="line" data-label="" points="726.5454545454545,984 736.0808080808081,984 745.6161616161615,974.4646464646464 755.1515151515151,964.9292929292928 764.6868686868686,955.3939393939394 774.2222222222222,945.8585858585858 783.7575757575758,936.3232323232323 793.2929292929292,926.7878787878788 802.8282828282828,917.2525252525252 812.3636363636363,907.7171717171718 821.8989898989898,898.1818181818181 831.4343434343433,888.6464646464647 840.969696969697,879.1111111111111 850.5050505050505,869.5757575757575 860.0404040404039,860.0404040404039 869.5757575757575,850.5050505050505 879.111111111111,840.969696969697 888.6464646464647,831.4343434343434 898.181818181818,821.8989898989898 888.6464646464647,812.3636363636363 888.6464646464647,802.8282828282828 888.6464646464647,793.2929292929292 888.6464646464647,783.7575757575758 888.6464646464647,774.2222222222222 888.6464646464647,764.6868686868687 888.6464646464647,755.1515151515151 888.6464646464647,745.6161616161615 888.6464646464647,736.0808080808081 888.6464646464647,726.5454545454545 888.6464646464647,717.010101010101 888.6464646464647,707.4747474747475 888.6464646464647,697.939393939394 888.6464646464647,688.4040404040404 888.6464646464647,678.8686868686868 888.6464646464647,669.3333333333334 888.6464646464647,659.7979797979798 888.6464646464647,650.2626262626263 888.6464646464647,640.7272727272727 888.6464646464647,631.1919191919193 888.6464646464647,621.6565656565657 888.6464646464647,612.1212121212121 888.6464646464647,602.5858585858587 888.6464646464647,593.0505050505051 888.6464646464647,583.5151515151516 888.6464646464647,573.979797979798 888.6464646464647,564.4444444444445 888.6464646464647,554.909090909091 888.6464646464647,545.3737373737374 888.6464646464647,535.838383838384 888.6464646464647,526.3030303030304 888.6464646464647,516.7676767676768 888.6464646464647,507.23232323232327 888.6464646464647,497.69696969696975 888.6464646464647,488.1616161616163 888.6464646464647,478.6262626262627 888.6464646464647,469.0909090909092 888.6464646464647,459.5555555555556 888.6464646464647,450.0202020202021 888.6464646464647,440.4848484848486 888.6464646464647,430.94949494949503 888.6464646464647,421.4141414141415 888.6464646464647,411.87878787878793 888.6464646464647,402.3434343434344 888.6464646464647,392.80808080808094 888.6464646464647,383.27272727272737 888.6464646464647,373.73737373737384 888.6464646464647,364.2020202020203 888.6464646464647,354.66666666666674 888.6464646464647,345.1313131313133 888.6464646464647,335.5959595959597 888.6464646464647,326.06060606060623" fill="none" stroke="rgba(0,0,255,0.75)" stroke-width="14.159999999999995"/></g><g><polyline data-points="3.989898989898992,1.9696969696969702 3.989898989898992,2.070707070707072 3.989898989898992,2.1717171717171726 3.989898989898992,2.2727272727272734 3.989898989898992,2.373737373737375 3.989898989898992,2.4747474747474754 3.989898989898992,2.575757575757577 3.989898989898992,2.676767676767678 3.989898989898992,2.7777777777777786 3.989898989898992,2.87878787878788 3.989898989898992,2.9797979797979806 3.989898989898992,3.080808080808082 3.989898989898992,3.181818181818183 3.989898989898992,3.2828282828282833 3.989898989898992,3.383838383838384 3.989898989898992,3.4848484848484866" data-type="line" data-label="" points="888.6464646464647,326.06060606060623 888.6464646464647,316.5252525252526 888.6464646464647,306.9898989898991 888.6464646464647,297.4545454545456 888.6464646464647,287.91919191919203 888.6464646464647,278.38383838383857 888.6464646464647,268.84848484848493 888.6464646464647,259.3131313131314 888.6464646464647,249.77777777777794 888.6464646464647,240.24242424242436 888.6464646464647,230.70707070707084 888.6464646464647,221.17171717171726 888.6464646464647,211.63636363636374 888.6464646464647,202.10101010101027 888.6464646464647,192.56565656565675 888.6464646464647,183.03030303030312" fill="none" stroke="rgba(255,0,0,0.75)" stroke-width="14.159999999999995"/></g><g><polyline data-points="3.989898989898992,3.4848484848484866 4.090909090909092,3.5858585858585874 4.191919191919193,3.6868686868686877 4.292929292929293,3.7878787878787885 4.393939393939394,3.8888888888888893 4.494949494949497,3.989898989898992 4.595959595959597,4.090909090909092 4.595959595959597,4.191919191919193 4.595959595959597,4.292929292929293 4.595959595959597,4.393939393939394 4.595959595959597,4.494949494949497 4.595959595959597,4.595959595959597 4.595959595959597,4.696969696969697 4.595959595959597,4.7979797979797985 4.595959595959597,4.898989898989901 4.696969696969697,5.000000000000002" data-type="line" data-label="" points="888.6464646464647,183.03030303030312 898.181818181818,173.4949494949496 907.7171717171716,163.95959595959613 917.2525252525251,154.4242424242426 926.7878787878785,144.88888888888908 936.3232323232323,135.35353535353545 945.8585858585857,125.81818181818198 945.8585858585857,116.28282828282846 945.8585858585857,106.747474747475 945.8585858585857,97.21212121212153 945.8585858585857,87.67676767676778 945.8585858585857,78.14141414141432 945.8585858585857,68.60606060606085 945.8585858585857,59.07070707070733 945.8585858585857,49.53535353535369 955.3939393939393,40.000000000000114" fill="none" stroke="rgba(0,0,255,0.75)" stroke-width="14.159999999999995"/></g><g><rect data-type="rect" data-label="" data-x="0" data-y="0" x="40.000000000000114" y="40.000000000000284" width="943.9999999999997" height="943.9999999999998" fill="none" stroke="gray" stroke-width="0.010593220338983056"/></g><g><rect data-type="rect" data-label="" data-x="0" data-y="0" x="40.000000000000114" y="40.000000000000284" width="943.9999999999997" height="943.9999999999998" fill="none" stroke="rgba(15, 23, 42, 0.8)" stroke-width="0.010593220338983056"/></g><circle data-type="circle" data-label="" data-x="-1.4646464646464643" data-y="-3.98989898989899" cx="373.7373737373738" cy="888.6464646464647" r="28.791999999999987" fill="rgba(0,0,0,0.3)" stroke="black" stroke-width="0.010593220338983056"/><circle data-type="circle" data-label="" data-x="-3.98989898989899" data-y="2.676767676767678" cx="135.35353535353545" cy="259.3131313131314" r="28.791999999999987" fill="rgba(0,0,0,0.3)" stroke="black" stroke-width="0.010593220338983056"/><circle data-type="circle" data-label="" data-x="-3.1818181818181817" data-y="2.575757575757577" cx="211.63636363636374" cy="268.84848484848493" r="28.791999999999987" fill="rgba(0,0,0,0.3)" stroke="black" stroke-width="0.010593220338983056"/><circle data-type="circle" data-label="" data-x="3.989898989898992" data-y="1.9696969696969702" cx="888.6464646464647" cy="326.06060606060623" r="28.791999999999987" fill="rgba(0,0,0,0.3)" stroke="black" stroke-width="0.010593220338983056"/><circle data-type="circle" data-label="" data-x="3.989898989898992" data-y="3.4848484848484866" cx="888.6464646464647" cy="183.03030303030312" r="28.791999999999987" fill="rgba(0,0,0,0.3)" stroke="black" stroke-width="0.010593220338983056"/><g id="crosshair" style="display: none"><line id="crosshair-h" y1="0" y2="1024" stroke="#666" stroke-width="0.5"/><line id="crosshair-v" x1="0" x2="1024" stroke="#666" stroke-width="0.5"/><text id="coordinates" font-family="monospace" font-size="12" fill="#666"></text></g><script><![CDATA[
              document.currentScript.parentElement.addEventListener('mousemove', (e) => {
                const svg = e.currentTarget;
                const rect = svg.getBoundingClientRect();
                const x = e.clientX - rect.left;
                const y = e.clientY - rect.top;
                const crosshair = svg.getElementById('crosshair');
                const h = svg.getElementById('crosshair-h');
                const v = svg.getElementById('crosshair-v');
                const coords = svg.getElementById('coordinates');
                
                crosshair.style.display = 'block';
                h.setAttribute('x1', '0');
                h.setAttribute('x2', '1024');
                h.setAttribute('y1', y);
                h.setAttribute('y2', y);
                v.setAttribute('x1', x);
                v.setAttribute('x2', x);
                v.setAttribute('y1', '0');
                v.setAttribute('y2', '1024');

                // Calculate real coordinates using inverse transformation
                const matrix = {"a":94.39999999999996,"c":0,"e":511.99999999999994,"b":0,"d":-94.39999999999996,"f":512.0000000000001};
                // Manually invert and apply the affine transform
                // Since we only use translate and scale, we can directly compute:
                // x' = (x - tx) / sx
                // y' = (y - ty) / sy
                const sx = matrix.a;
                const sy = matrix.d;
                const tx = matrix.e; 
                const ty = matrix.f;
                const realPoint = {
                  x: (x - tx) / sx,
                  y: (y - ty) / sy // Flip y back since we used negative scale
                }
                
                coords.textContent = `(${realPoint.x.toFixed(2)}, ${realPoint.y.toFixed(2)})`;
                coords.setAttribute('x', (x + 5).toString());
                coords.setAttribute('y', (y - 5).toString());
              });
              document.currentScript.parentElement.addEventListener('mouseleave', () => {
                document.currentScript.parentElement.getElementById('crosshair').style.display = 'none';
              });
            ]]></script></svg>