<svg width="1024" height="1024" viewBox="0 0 1024 1024" xmlns="http://www.w3.org/2000/svg"><rect width="100%" height="100%" fill="white"/><g><circle data-type="point" data-label="conn_000" data-x="5" data-y="1.6600000000000001" cx="983.9999999999998" cy="355.29600000000016" r="28.792" fill="blue" stroke="#bda70f" stroke-width="28.792"/></g><g><circle data-type="point" data-label="conn_000" data-x="-3.92" data-y="5" cx="141.9520000000001" cy="40.000000000000284" r="28.792" fill="blue" stroke="#bda70f" stroke-width="28.792"/></g><g><circle data-type="point" data-label="conn_001" data-x="3.16" data-y="-5" cx="810.3039999999999" cy="984" r="28.792" fill="red" stroke="#0fa0bd" stroke-width="28.792"/></g><g><circle data-type="point" data-label="conn_001" data-x="-4.9" data-y="5" cx="49.44000000000011" cy="40.000000000000284" r="28.792" fill="red" stroke="#0fa0bd" stroke-width="28.792"/></g><g><circle data-type="point" data-label="conn_002" data-x="5" data-y="2.38" cx="983.9999999999998" cy="287.3280000000002" r="28.792" fill="blue" stroke="#bd0f6d" stroke-width="28.792"/></g><g><circle data-type="point" data-label="conn_002" data-x="5" data-y="-3.64" cx="983.9999999999998" cy="855.616" r="28.792" fill="blue" stroke="#bd0f6d" stroke-width="28.792"/></g><g><circle data-type="point" data-label="conn_003" data-x="-3.2600000000000002" data-y="5" cx="204.25600000000003" cy="40.000000000000284" r="28.792" fill="blue" stroke="#3bbd0f" stroke-width="28.792"/></g><g><circle data-type="point" data-label="conn_003" data-x="-5" data-y="2.08" cx="40.000000000000114" cy="315.6480000000002" r="28.792" fill="red" stroke="#3bbd0f" stroke-width="28.792"/></g><g><polyline data-points="-3.2828282828282824,5.000000000000002 -3.383838383838383,4.898989898989901 -3.484848484848485,4.7979797979797985 -3.5858585858585856,4.696969696969697 -3.6868686868686864,4.595959595959597 -3.7878787878787876,4.494949494949497 -3.8888888888888884,4.393939393939394 -3.98989898989899,4.292929292929293 -3.98989898989899,4.191919191919193 -3.98989898989899,4.090909090909092 -3.98989898989899,3.989898989898992" data-type="line" data-label="" points="202.10101010101022,40.000000000000114 192.5656565656567,49.53535353535369 183.03030303030312,59.07070707070733 173.4949494949496,68.60606060606085 163.95959595959607,78.14141414141432 154.42424242424255,87.67676767676778 144.88888888888903,97.21212121212153 135.35353535353545,106.747474747475 135.35353535353545,116.28282828282846 135.35353535353545,125.81818181818198 135.35353535353545,135.35353535353545" fill="none" stroke="rgba(0,0,255,0.75)" stroke-width="14.159999999999995"/></g><g><polyline data-points="-3.98989898989899,3.989898989898992 -4.090909090909091,3.8888888888888893 -4.191919191919193,3.7878787878787885 -4.292929292929293,3.6868686868686877 -4.393939393939394,3.5858585858585874 -4.494949494949496,3.4848484848484866 -4.595959595959596,3.383838383838384 -4.696969696969697,3.2828282828282833 -4.7979797979797985,3.181818181818183 -4.898989898989899,3.080808080808082 -5.000000000000001,2.9797979797979806 -5.000000000000001,2.87878787878788 -5.000000000000001,2.7777777777777786 -5.000000000000001,2.676767676767678 -5.000000000000001,2.575757575757577 -5.000000000000001,2.4747474747474754 -5.000000000000001,2.373737373737375 -5.000000000000001,2.2727272727272734 -5.000000000000001,2.1717171717171726 -5.000000000000001,2.070707070707072" data-type="line" data-label="" points="135.35353535353545,135.35353535353545 125.81818181818193,144.88888888888908 116.28282828282829,154.4242424242426 106.74747474747483,163.95959595959613 97.21212121212136,173.4949494949496 87.67676767676772,183.03030303030312 78.14141414141426,192.56565656565675 68.60606060606068,202.10101010101027 59.07070707070716,211.63636363636374 49.53535353535369,221.17171717171726 40.00000000000006,230.70707070707084 40.00000000000006,240.24242424242436 40.00000000000006,249.77777777777794 40.00000000000006,259.3131313131314 40.00000000000006,268.84848484848493 40.00000000000006,278.38383838383857 40.00000000000006,287.91919191919203 40.00000000000006,297.4545454545456 40.00000000000006,306.9898989898991 40.00000000000006,316.5252525252526" fill="none" stroke="rgba(255,0,0,0.75)" stroke-width="14.159999999999995"/></g><g><polyline data-points="3.181818181818183,-5.000000000000001 3.080808080808082,-4.898989898989899 2.9797979797979806,-4.7979797979797985 2.87878787878788,-4.696969696969697 2.7777777777777786,-4.595959595959596 2.676767676767678,-4.494949494949496 2.575757575757577,-4.393939393939394 2.4747474747474754,-4.292929292929293 2.373737373737375,-4.191919191919193 2.2727272727272734,-4.090909090909091 2.1717171717171726,-3.98989898989899 2.070707070707072,-3.8888888888888884 1.9696969696969702,-3.7878787878787876 1.8686868686868696,-3.6868686868686864 1.767676767676768,-3.5858585858585856 1.6666666666666674,-3.484848484848485 1.5656565656565666,-3.383838383838383 1.4646464646464652,-3.2828282828282824 1.3636363636363644,-3.1818181818181817 1.262626262626263,-3.0808080808080804 1.1616161616161622,-2.9797979797979792 1.0606060606060617,-2.8787878787878785 0.9595959595959602,-2.7777777777777777 0.8585858585858596,-2.6767676767676765 0.7575757575757579,-2.5757575757575752 0.6565656565656574,-2.474747474747474 0.5555555555555567,-2.3737373737373733 0.4545454545454551,-2.2727272727272725 0.3535353535353544,-2.1717171717171713 0.2525252525252529,-2.07070707070707 0.1515151515151522,-1.9696969696969693 0.050505050505051545,-1.8686868686868683 -0.05050505050505001,-1.7676767676767675 -0.15151515151515066,-1.6666666666666665 -0.2525252525252522,-1.5656565656565653 -0.35353535353535287,-1.4646464646464643 -0.4545454545454544,-1.363636363636363 -0.555555555555555,-1.2626262626262625 -0.6565656565656557,-1.1616161616161613 -0.7575757575757572,-1.0606060606060603 -0.8585858585858579,-0.9595959595959596 -0.9595959595959596,-0.8585858585858579 -1.0606060606060603,-0.7575757575757572 -1.1616161616161613,-0.6565656565656557 -1.2626262626262625,-0.555555555555555 -1.363636363636363,-0.4545454545454544 -1.4646464646464643,-0.35353535353535287 -1.5656565656565653,-0.2525252525252522 -1.6666666666666665,-0.15151515151515066 -1.7676767676767675,-0.05050505050505001 -1.8686868686868683,0.050505050505051545 -1.9696969696969693,0.1515151515151522 -2.07070707070707,0.2525252525252529 -2.1717171717171713,0.3535353535353544 -2.2727272727272725,0.4545454545454551 -2.3737373737373733,0.5555555555555567 -2.474747474747474,0.6565656565656574 -2.5757575757575752,0.7575757575757579 -2.6767676767676765,0.8585858585858596 -2.7777777777777777,0.9595959595959602 -2.8787878787878785,1.0606060606060617 -2.9797979797979792,1.1616161616161622 -3.0808080808080804,1.262626262626263 -3.1818181818181817,1.3636363636363644 -3.2828282828282824,1.4646464646464652 -3.383838383838383,1.5656565656565666 -3.484848484848485,1.6666666666666674 -3.484848484848485,1.767676767676768 -3.484848484848485,1.8686868686868696 -3.484848484848485,1.9696969696969702 -3.484848484848485,2.070707070707072 -3.484848484848485,2.1717171717171726 -3.484848484848485,2.2727272727272734 -3.484848484848485,2.373737373737375 -3.484848484848485,2.4747474747474754 -3.484848484848485,2.575757575757577 -3.484848484848485,2.676767676767678 -3.484848484848485,2.7777777777777786 -3.484848484848485,2.87878787878788 -3.484848484848485,2.9797979797979806 -3.484848484848485,3.080808080808082 -3.484848484848485,3.181818181818183 -3.484848484848485,3.2828282828282833 -3.484848484848485,3.383838383838384 -3.484848484848485,3.4848484848484866 -3.484848484848485,3.5858585858585874 -3.484848484848485,3.6868686868686877 -3.484848484848485,3.7878787878787885 -3.484848484848485,3.8888888888888893 -3.484848484848485,3.989898989898992 -3.5858585858585856,4.090909090909092 -3.5858585858585856,4.191919191919193 -3.6868686868686864,4.292929292929293 -3.7878787878787876,4.393939393939394 -3.8888888888888884,4.494949494949497 -3.98989898989899,4.595959595959597 -4.090909090909091,4.696969696969697 -4.191919191919193,4.7979797979797985 -4.292929292929293,4.898989898989901 -4.393939393939394,5.000000000000002 -4.494949494949496,5.000000000000002 -4.595959595959596,5.000000000000002 -4.696969696969697,5.000000000000002 -4.7979797979797985,5.000000000000002 -4.898989898989899,5.000000000000002 -5.000000000000001,5.000000000000002" data-type="line" data-label="" points="812.3636363636363,984 802.8282828282828,974.4646464646464 793.2929292929292,964.9292929292928 783.7575757575758,955.3939393939394 774.2222222222222,945.8585858585858 764.6868686868686,936.3232323232323 755.1515151515151,926.7878787878788 745.6161616161615,917.2525252525252 736.0808080808081,907.7171717171718 726.5454545454545,898.1818181818181 717.0101010101009,888.6464646464647 707.4747474747475,879.1111111111111 697.9393939393939,869.5757575757575 688.4040404040404,860.0404040404039 678.8686868686868,850.5050505050505 669.3333333333333,840.969696969697 659.7979797979798,831.4343434343434 650.2626262626262,821.8989898989898 640.7272727272727,812.3636363636363 631.1919191919192,802.8282828282828 621.6565656565656,793.2929292929292 612.1212121212121,783.7575757575758 602.5858585858585,774.2222222222222 593.0505050505051,764.6868686868687 583.5151515151515,755.1515151515151 573.9797979797979,745.6161616161615 564.4444444444445,736.0808080808081 554.9090909090909,726.5454545454545 545.3737373737374,717.010101010101 535.8383838383838,707.4747474747475 526.3030303030303,697.939393939394 516.7676767676768,688.4040404040404 507.2323232323232,678.8686868686868 497.69696969696975,669.3333333333334 488.16161616161617,659.7979797979798 478.62626262626264,650.2626262626263 469.09090909090907,640.7272727272727 459.55555555555554,631.1919191919193 450.0202020202021,621.6565656565657 440.4848484848485,612.1212121212121 430.949494949495,602.5858585858587 421.4141414141414,593.0505050505051 411.8787878787879,583.5151515151516 402.34343434343435,573.979797979798 392.80808080808083,564.4444444444445 383.2727272727273,554.909090909091 373.7373737373738,545.3737373737374 364.2020202020202,535.838383838384 354.6666666666667,526.3030303030304 345.13131313131316,516.7676767676768 335.59595959595964,507.23232323232327 326.0606060606061,497.69696969696975 316.5252525252526,488.1616161616163 306.9898989898991,478.6262626262627 297.4545454545455,469.0909090909092 287.91919191919203,459.5555555555556 278.38383838383845,450.0202020202021 268.84848484848493,440.4848484848486 259.3131313131314,430.94949494949503 249.77777777777783,421.4141414141415 240.2424242424243,411.87878787878793 230.70707070707084,402.3434343434344 221.17171717171726,392.80808080808094 211.63636363636374,383.27272727272737 202.10101010101022,373.73737373737384 192.5656565656567,364.2020202020203 183.03030303030312,354.66666666666674 183.03030303030312,345.1313131313133 183.03030303030312,335.5959595959597 183.03030303030312,326.06060606060623 183.03030303030312,316.5252525252526 183.03030303030312,306.9898989898991 183.03030303030312,297.4545454545456 183.03030303030312,287.91919191919203 183.03030303030312,278.38383838383857 183.03030303030312,268.84848484848493 183.03030303030312,259.3131313131314 183.03030303030312,249.77777777777794 183.03030303030312,240.24242424242436 183.03030303030312,230.70707070707084 183.03030303030312,221.17171717171726 183.03030303030312,211.63636363636374 183.03030303030312,202.10101010101027 183.03030303030312,192.56565656565675 183.03030303030312,183.03030303030312 183.03030303030312,173.4949494949496 183.03030303030312,163.95959595959613 183.03030303030312,154.4242424242426 183.03030303030312,144.88888888888908 183.03030303030312,135.35353535353545 173.4949494949496,125.81818181818198 173.4949494949496,116.28282828282846 163.95959595959607,106.747474747475 154.42424242424255,97.21212121212153 144.88888888888903,87.67676767676778 135.35353535353545,78.14141414141432 125.81818181818193,68.60606060606085 116.28282828282829,59.07070707070733 106.74747474747483,49.53535353535369 97.21212121212136,40.000000000000114 87.67676767676772,40.000000000000114 78.14141414141426,40.000000000000114 68.60606060606068,40.000000000000114 59.07070707070716,40.000000000000114 49.53535353535369,40.000000000000114 40.00000000000006,40.000000000000114" fill="none" stroke="rgba(255,0,0,0.75)" stroke-width="14.159999999999995"/></g><g><polyline data-points="5.000000000000002,1.6666666666666674 4.898989898989901,1.767676767676768 4.7979797979797985,1.8686868686868696 4.696969696969697,1.9696969696969702 4.595959595959597,2.070707070707072 4.494949494949497,2.1717171717171726 4.393939393939394,2.2727272727272734 4.292929292929293,2.373737373737375 4.191919191919193,2.4747474747474754 4.090909090909092,2.575757575757577 3.989898989898992,2.676767676767678 3.8888888888888893,2.7777777777777786 3.7878787878787885,2.87878787878788 3.6868686868686877,2.9797979797979806 3.5858585858585874,3.080808080808082 3.4848484848484866,3.181818181818183 3.383838383838384,3.2828282828282833 3.2828282828282833,3.383838383838384 3.181818181818183,3.4848484848484866 3.080808080808082,3.4848484848484866 2.9797979797979806,3.4848484848484866 2.87878787878788,3.4848484848484866 2.7777777777777786,3.4848484848484866 2.676767676767678,3.4848484848484866 2.575757575757577,3.4848484848484866 2.4747474747474754,3.4848484848484866 2.373737373737375,3.4848484848484866 2.2727272727272734,3.4848484848484866 2.1717171717171726,3.4848484848484866 2.070707070707072,3.4848484848484866 1.9696969696969702,3.4848484848484866 1.8686868686868696,3.4848484848484866 1.767676767676768,3.4848484848484866 1.6666666666666674,3.4848484848484866 1.5656565656565666,3.4848484848484866 1.4646464646464652,3.4848484848484866 1.3636363636363644,3.4848484848484866 1.262626262626263,3.4848484848484866 1.1616161616161622,3.4848484848484866 1.0606060606060617,3.4848484848484866 0.9595959595959602,3.4848484848484866 0.8585858585858596,3.4848484848484866 0.7575757575757579,3.4848484848484866 0.6565656565656574,3.4848484848484866 0.5555555555555567,3.4848484848484866 0.4545454545454551,3.4848484848484866 0.3535353535353544,3.4848484848484866 0.2525252525252529,3.4848484848484866 0.1515151515151522,3.4848484848484866 0.050505050505051545,3.4848484848484866 -0.05050505050505001,3.4848484848484866 -0.15151515151515066,3.4848484848484866 -0.2525252525252522,3.4848484848484866 -0.35353535353535287,3.4848484848484866 -0.4545454545454544,3.4848484848484866 -0.555555555555555,3.4848484848484866 -0.6565656565656557,3.4848484848484866 -0.7575757575757572,3.4848484848484866 -0.8585858585858579,3.4848484848484866 -0.9595959595959596,3.4848484848484866 -1.0606060606060603,3.4848484848484866 -1.1616161616161613,3.4848484848484866 -1.2626262626262625,3.4848484848484866 -1.363636363636363,3.4848484848484866 -1.4646464646464643,3.4848484848484866 -1.5656565656565653,3.4848484848484866 -1.6666666666666665,3.4848484848484866 -1.7676767676767675,3.4848484848484866 -1.8686868686868683,3.4848484848484866 -1.9696969696969693,3.4848484848484866 -2.07070707070707,3.4848484848484866 -2.1717171717171713,3.4848484848484866 -2.2727272727272725,3.4848484848484866 -2.3737373737373733,3.4848484848484866 -2.474747474747474,3.4848484848484866 -2.5757575757575752,3.4848484848484866 -2.6767676767676765,3.4848484848484866 -2.7777777777777777,3.4848484848484866 -2.8787878787878785,3.4848484848484866 -2.9797979797979792,3.4848484848484866 -3.0808080808080804,3.4848484848484866 -3.1818181818181817,3.4848484848484866 -3.2828282828282824,3.4848484848484866 -3.383838383838383,3.4848484848484866 -3.484848484848485,3.4848484848484866 -3.5858585858585856,3.4848484848484866 -3.6868686868686864,3.4848484848484866 -3.7878787878787876,3.4848484848484866 -3.8888888888888884,3.4848484848484866 -3.98989898989899,3.4848484848484866 -4.090909090909091,3.5858585858585874 -4.191919191919193,3.5858585858585874 -4.292929292929293,3.6868686868686877 -4.393939393939394,3.7878787878787885 -4.393939393939394,3.8888888888888893 -4.494949494949496,3.989898989898992 -4.393939393939394,4.090909090909092 -4.393939393939394,4.191919191919193 -4.292929292929293,4.292929292929293 -4.191919191919193,4.393939393939394 -4.090909090909091,4.494949494949497 -3.98989898989899,4.595959595959597 -3.98989898989899,4.696969696969697 -3.98989898989899,4.7979797979797985 -3.98989898989899,4.898989898989901 -3.98989898989899,5.000000000000002" data-type="line" data-label="" points="984,354.66666666666674 974.4646464646464,345.1313131313133 964.9292929292927,335.5959595959597 955.3939393939393,326.06060606060623 945.8585858585857,316.5252525252526 936.3232323232323,306.9898989898991 926.7878787878785,297.4545454545456 917.2525252525251,287.91919191919203 907.7171717171716,278.38383838383857 898.181818181818,268.84848484848493 888.6464646464647,259.3131313131314 879.111111111111,249.77777777777794 869.5757575757575,240.24242424242436 860.0404040404039,230.70707070707084 850.5050505050505,221.17171717171726 840.969696969697,211.63636363636374 831.4343434343433,202.10101010101027 821.8989898989898,192.56565656565675 812.3636363636363,183.03030303030312 802.8282828282828,183.03030303030312 793.2929292929292,183.03030303030312 783.7575757575758,183.03030303030312 774.2222222222222,183.03030303030312 764.6868686868686,183.03030303030312 755.1515151515151,183.03030303030312 745.6161616161615,183.03030303030312 736.0808080808081,183.03030303030312 726.5454545454545,183.03030303030312 717.0101010101009,183.03030303030312 707.4747474747475,183.03030303030312 697.9393939393939,183.03030303030312 688.4040404040404,183.03030303030312 678.8686868686868,183.03030303030312 669.3333333333333,183.03030303030312 659.7979797979798,183.03030303030312 650.2626262626262,183.03030303030312 640.7272727272727,183.03030303030312 631.1919191919192,183.03030303030312 621.6565656565656,183.03030303030312 612.1212121212121,183.03030303030312 602.5858585858585,183.03030303030312 593.0505050505051,183.03030303030312 583.5151515151515,183.03030303030312 573.9797979797979,183.03030303030312 564.4444444444445,183.03030303030312 554.9090909090909,183.03030303030312 545.3737373737374,183.03030303030312 535.8383838383838,183.03030303030312 526.3030303030303,183.03030303030312 516.7676767676768,183.03030303030312 507.2323232323232,183.03030303030312 497.69696969696975,183.03030303030312 488.16161616161617,183.03030303030312 478.62626262626264,183.03030303030312 469.09090909090907,183.03030303030312 459.55555555555554,183.03030303030312 450.0202020202021,183.03030303030312 440.4848484848485,183.03030303030312 430.949494949495,183.03030303030312 421.4141414141414,183.03030303030312 411.8787878787879,183.03030303030312 402.34343434343435,183.03030303030312 392.80808080808083,183.03030303030312 383.2727272727273,183.03030303030312 373.7373737373738,183.03030303030312 364.2020202020202,183.03030303030312 354.6666666666667,183.03030303030312 345.13131313131316,183.03030303030312 335.59595959595964,183.03030303030312 326.0606060606061,183.03030303030312 316.5252525252526,183.03030303030312 306.9898989898991,183.03030303030312 297.4545454545455,183.03030303030312 287.91919191919203,183.03030303030312 278.38383838383845,183.03030303030312 268.84848484848493,183.03030303030312 259.3131313131314,183.03030303030312 249.77777777777783,183.03030303030312 240.2424242424243,183.03030303030312 230.70707070707084,183.03030303030312 221.17171717171726,183.03030303030312 211.63636363636374,183.03030303030312 202.10101010101022,183.03030303030312 192.5656565656567,183.03030303030312 183.03030303030312,183.03030303030312 173.4949494949496,183.03030303030312 163.95959595959607,183.03030303030312 154.42424242424255,183.03030303030312 144.88888888888903,183.03030303030312 135.35353535353545,183.03030303030312 125.81818181818193,173.4949494949496 116.28282828282829,173.4949494949496 106.74747474747483,163.95959595959613 97.21212121212136,154.4242424242426 97.21212121212136,144.88888888888908 87.67676767676772,135.35353535353545 97.21212121212136,125.81818181818198 97.21212121212136,116.28282828282846 106.74747474747483,106.747474747475 116.28282828282829,97.21212121212153 125.81818181818193,87.67676767676778 135.35353535353545,78.14141414141432 135.35353535353545,68.60606060606085 135.35353535353545,59.07070707070733 135.35353535353545,49.53535353535369 135.35353535353545,40.000000000000114" fill="none" stroke="rgba(0,0,255,0.75)" stroke-width="14.159999999999995"/></g><g><polyline data-points="5.000000000000002,2.373737373737375 5.000000000000002,2.4747474747474754 4.898989898989901,2.575757575757577 4.7979797979797985,2.676767676767678 4.696969696969697,2.7777777777777786 4.595959595959597,2.87878787878788 4.494949494949497,2.9797979797979806 4.393939393939394,3.080808080808082 4.292929292929293,3.181818181818183 4.191919191919193,3.2828282828282833 4.090909090909092,3.383838383838384 3.989898989898992,3.4848484848484866" data-type="line" data-label="" points="984,287.91919191919203 984,278.38383838383857 974.4646464646464,268.84848484848493 964.9292929292927,259.3131313131314 955.3939393939393,249.77777777777794 945.8585858585857,240.24242424242436 936.3232323232323,230.70707070707084 926.7878787878785,221.17171717171726 917.2525252525251,211.63636363636374 907.7171717171716,202.10101010101027 898.181818181818,192.56565656565675 888.6464646464647,183.03030303030312" fill="none" stroke="rgba(0,0,255,0.75)" stroke-width="14.159999999999995"/></g><g><polyline data-points="3.989898989898992,3.4848484848484866 3.989898989898992,3.383838383838384 3.989898989898992,3.2828282828282833 3.989898989898992,3.181818181818183 3.989898989898992,3.080808080808082 3.989898989898992,2.9797979797979806 3.989898989898992,2.87878787878788 3.989898989898992,2.7777777777777786 3.989898989898992,2.676767676767678 3.989898989898992,2.575757575757577 3.989898989898992,2.4747474747474754 3.989898989898992,2.373737373737375 3.989898989898992,2.2727272727272734 3.989898989898992,2.1717171717171726 3.989898989898992,2.070707070707072 3.989898989898992,1.9696969696969702 3.989898989898992,1.8686868686868696 3.989898989898992,1.767676767676768 3.989898989898992,1.6666666666666674 3.989898989898992,1.5656565656565666 3.989898989898992,1.4646464646464652 3.989898989898992,1.3636363636363644 3.989898989898992,1.262626262626263 3.989898989898992,1.1616161616161622 3.989898989898992,1.0606060606060617 3.989898989898992,0.9595959595959602 3.989898989898992,0.8585858585858596 3.989898989898992,0.7575757575757579 3.989898989898992,0.6565656565656574 3.989898989898992,0.5555555555555567 3.989898989898992,0.4545454545454551 3.989898989898992,0.3535353535353544 3.989898989898992,0.2525252525252529 3.989898989898992,0.1515151515151522 3.989898989898992,0.050505050505051545 3.989898989898992,-0.05050505050505001 3.989898989898992,-0.15151515151515066 3.989898989898992,-0.2525252525252522 3.989898989898992,-0.35353535353535287 3.989898989898992,-0.4545454545454544 3.989898989898992,-0.555555555555555 3.989898989898992,-0.6565656565656557 3.989898989898992,-0.7575757575757572 3.989898989898992,-0.8585858585858579 3.989898989898992,-0.9595959595959596 3.989898989898992,-1.0606060606060603 3.989898989898992,-1.1616161616161613 3.989898989898992,-1.2626262626262625 3.989898989898992,-1.363636363636363 3.989898989898992,-1.4646464646464643 3.989898989898992,-1.5656565656565653 3.989898989898992,-1.6666666666666665 3.989898989898992,-1.7676767676767675 3.989898989898992,-1.8686868686868683 3.989898989898992,-1.9696969696969693 3.989898989898992,-2.07070707070707 3.989898989898992,-2.1717171717171713 3.989898989898992,-2.2727272727272725 3.989898989898992,-2.3737373737373733 3.989898989898992,-2.474747474747474 3.989898989898992,-2.5757575757575752 3.989898989898992,-2.6767676767676765 3.989898989898992,-2.7777777777777777 3.989898989898992,-2.8787878787878785 3.989898989898992,-2.9797979797979792 3.989898989898992,-3.0808080808080804 3.989898989898992,-3.1818181818181817 3.989898989898992,-3.2828282828282824 3.989898989898992,-3.383838383838383 3.989898989898992,-3.484848484848485" data-type="line" data-label="" points="888.6464646464647,183.03030303030312 888.6464646464647,192.56565656565675 888.6464646464647,202.10101010101027 888.6464646464647,211.63636363636374 888.6464646464647,221.17171717171726 888.6464646464647,230.70707070707084 888.6464646464647,240.24242424242436 888.6464646464647,249.77777777777794 888.6464646464647,259.3131313131314 888.6464646464647,268.84848484848493 888.6464646464647,278.38383838383857 888.6464646464647,287.91919191919203 888.6464646464647,297.4545454545456 888.6464646464647,306.9898989898991 888.6464646464647,316.5252525252526 888.6464646464647,326.06060606060623 888.6464646464647,335.5959595959597 888.6464646464647,345.1313131313133 888.6464646464647,354.66666666666674 888.6464646464647,364.2020202020203 888.6464646464647,373.73737373737384 888.6464646464647,383.27272727272737 888.6464646464647,392.80808080808094 888.6464646464647,402.3434343434344 888.6464646464647,411.87878787878793 888.6464646464647,421.4141414141415 888.6464646464647,430.94949494949503 888.6464646464647,440.4848484848486 888.6464646464647,450.0202020202021 888.6464646464647,459.5555555555556 888.6464646464647,469.0909090909092 888.6464646464647,478.6262626262627 888.6464646464647,488.1616161616163 888.6464646464647,497.69696969696975 888.6464646464647,507.23232323232327 888.6464646464647,516.7676767676768 888.6464646464647,526.3030303030304 888.6464646464647,535.838383838384 888.6464646464647,545.3737373737374 888.6464646464647,554.909090909091 888.6464646464647,564.4444444444445 888.6464646464647,573.979797979798 888.6464646464647,583.5151515151516 888.6464646464647,593.0505050505051 888.6464646464647,602.5858585858587 888.6464646464647,612.1212121212121 888.6464646464647,621.6565656565657 888.6464646464647,631.1919191919193 888.6464646464647,640.7272727272727 888.6464646464647,650.2626262626263 888.6464646464647,659.7979797979798 888.6464646464647,669.3333333333334 888.6464646464647,678.8686868686868 888.6464646464647,688.4040404040404 888.6464646464647,697.939393939394 888.6464646464647,707.4747474747475 888.6464646464647,717.010101010101 888.6464646464647,726.5454545454545 888.6464646464647,736.0808080808081 888.6464646464647,745.6161616161615 888.6464646464647,755.1515151515151 888.6464646464647,764.6868686868687 888.6464646464647,774.2222222222222 888.6464646464647,783.7575757575758 888.6464646464647,793.2929292929292 888.6464646464647,802.8282828282828 888.6464646464647,812.3636363636363 888.6464646464647,821.8989898989898 888.6464646464647,831.4343434343434 888.6464646464647,840.969696969697" fill="none" stroke="rgba(255,0,0,0.75)" stroke-width="14.159999999999995"/></g><g><polyline data-points="3.989898989898992,-3.484848484848485 4.090909090909092,-3.5858585858585856 4.191919191919193,-3.6868686868686864 4.292929292929293,-3.6868686868686864 4.393939393939394,-3.6868686868686864 4.494949494949497,-3.6868686868686864 4.595959595959597,-3.6868686868686864 4.696969696969697,-3.6868686868686864 4.7979797979797985,-3.6868686868686864 4.898989898989901,-3.6868686868686864 5.000000000000002,-3.6868686868686864" data-type="line" data-label="" points="888.6464646464647,840.969696969697 898.181818181818,850.5050505050505 907.7171717171716,860.0404040404039 917.2525252525251,860.0404040404039 926.7878787878785,860.0404040404039 936.3232323232323,860.0404040404039 945.8585858585857,860.0404040404039 955.3939393939393,860.0404040404039 964.9292929292927,860.0404040404039 974.4646464646464,860.0404040404039 984,860.0404040404039" fill="none" stroke="rgba(0,0,255,0.75)" stroke-width="14.159999999999995"/></g><g><rect data-type="rect" data-label="" data-x="0" data-y="0" x="40.000000000000114" y="40.000000000000284" width="943.9999999999997" height="943.9999999999998" fill="none" stroke="gray" stroke-width="0.010593220338983056"/></g><g><rect data-type="rect" data-label="" data-x="0" data-y="0" x="40.000000000000114" y="40.000000000000284" width="943.9999999999997" height="943.9999999999998" fill="none" stroke="rgba(15, 23, 42, 0.8)" stroke-width="0.010593220338983056"/></g><circle data-type="circle" data-label="" data-x="-3.98989898989899" data-y="3.989898989898992" cx="135.35353535353545" cy="135.35353535353545" r="28.791999999999987" fill="rgba(0,0,0,0.3)" stroke="black" stroke-width="0.010593220338983056"/><circle data-type="circle" data-label="" data-x="3.989898989898992" data-y="3.4848484848484866" cx="888.6464646464647" cy="183.03030303030312" r="28.791999999999987" fill="rgba(0,0,0,0.3)" stroke="black" stroke-width="0.010593220338983056"/><circle data-type="circle" data-label="" data-x="3.989898989898992" data-y="-3.484848484848485" cx="888.6464646464647" cy="840.969696969697" r="28.791999999999987" fill="rgba(0,0,0,0.3)" stroke="black" stroke-width="0.010593220338983056"/><g id="crosshair" style="display: none"><line id="crosshair-h" y1="0" y2="1024" stroke="#666" stroke-width="0.5"/><line id="crosshair-v" x1="0" x2="1024" stroke="#666" stroke-width="0.5"/><text id="coordinates" font-family="monospace" font-size="12" fill="#666"></text></g><script><![CDATA[
              document.currentScript.parentElement.addEventListener('mousemove', (e) => {
                const svg = e.currentTarget;
                const rect = svg.getBoundingClientRect();
                const x = e.clientX - rect.left;
                const y = e.clientY - rect.top;
                const crosshair = svg.getElementById('crosshair');
                const h = svg.getElementById('crosshair-h');
                const v = svg.getElementById('crosshair-v');
                const coords = svg.getElementById('coordinates');
                
                crosshair.style.display = 'block';
                h.setAttribute('x1', '0');
                h.setAttribute('x2', '1024');
                h.setAttribute('y1', y);
                h.setAttribute('y2', y);
                v.setAttribute('x1', x);
                v.setAttribute('x2', x);
                v.setAttribute('y1', '0');
                v.setAttribute('y2', '1024');

                // Calculate real coordinates using inverse transformation
                const matrix = {"a":94.39999999999996,"c":0,"e":511.99999999999994,"b":0,"d":-94.39999999999996,"f":512.0000000000001};
                // Manually invert and apply the affine transform
                // Since we only use translate and scale, we can directly compute:
                // x' = (x - tx) / sx
                // y' = (y - ty) / sy
                const sx = matrix.a;
                const sy = matrix.d;
                const tx = matrix.e; 
                const ty = matrix.f;
                const realPoint = {
                  x: (x - tx) / sx,
                  y: (y - ty) / sy // Flip y back since we used negative scale
                }
                
                coords.textContent = `(${realPoint.x.toFixed(2)}, ${realPoint.y.toFixed(2)})`;
                coords.setAttribute('x', (x + 5).toString());
                coords.setAttribute('y', (y - 5).toString());
              });
              document.currentScript.parentElement.addEventListener('mouseleave', () => {
                document.currentScript.parentElement.getElementById('crosshair').style.display = 'none';
              });
            ]]></script></svg>