<svg width="1024" height="1024" viewBox="0 0 1024 1024" xmlns="http://www.w3.org/2000/svg"><rect width="100%" height="100%" fill="white"/><g><circle data-type="point" data-label="conn_000" data-x="-2.68" data-y="-5" cx="259.00800000000004" cy="984" r="28.792" fill="blue" stroke="#0fa0bd" stroke-width="28.792"/></g><g><circle data-type="point" data-label="conn_000" data-x="2.1" data-y="5" cx="710.2399999999999" cy="40.000000000000284" r="28.792" fill="blue" stroke="#0fa0bd" stroke-width="28.792"/></g><g><circle data-type="point" data-label="conn_001" data-x="-5" data-y="2.38" cx="40.000000000000114" cy="287.3280000000002" r="28.792" fill="blue" stroke="#bd0f6d" stroke-width="28.792"/></g><g><circle data-type="point" data-label="conn_001" data-x="-4" data-y="-5" cx="134.4000000000001" cy="984" r="28.792" fill="blue" stroke="#bd0f6d" stroke-width="28.792"/></g><g><circle data-type="point" data-label="conn_002" data-x="5" data-y="-0.96" cx="983.9999999999998" cy="602.624" r="28.792" fill="red" stroke="#3bbd0f" stroke-width="28.792"/></g><g><circle data-type="point" data-label="conn_002" data-x="-5" data-y="1.48" cx="40.000000000000114" cy="372.2880000000002" r="28.792" fill="red" stroke="#3bbd0f" stroke-width="28.792"/></g><g><circle data-type="point" data-label="conn_003" data-x="-5" data-y="4.88" cx="40.000000000000114" cy="51.328000000000316" r="28.792" fill="blue" stroke="#170fbd" stroke-width="28.792"/></g><g><circle data-type="point" data-label="conn_003" data-x="-5" data-y="-0.56" cx="40.000000000000114" cy="564.8640000000001" r="28.792" fill="blue" stroke="#170fbd" stroke-width="28.792"/></g><g><circle data-type="point" data-label="conn_004" data-x="-1.24" data-y="-5" cx="394.94399999999996" cy="984" r="28.792" fill="red" stroke="#bd490f" stroke-width="28.792"/></g><g><circle data-type="point" data-label="conn_004" data-x="4.62" data-y="5" cx="948.1279999999997" cy="40.000000000000284" r="28.792" fill="blue" stroke="#bd490f" stroke-width="28.792"/></g><g><polyline data-points="5.000000000000002,-0.9595959595959596 4.898989898989901,-0.8585858585858579 4.7979797979797985,-0.7575757575757572 4.696969696969697,-0.6565656565656557 4.595959595959597,-0.555555555555555 4.494949494949497,-0.4545454545454544 4.393939393939394,-0.35353535353535287 4.292929292929293,-0.2525252525252522 4.191919191919193,-0.15151515151515066 4.090909090909092,-0.05050505050505001 3.989898989898992,0.050505050505051545 3.8888888888888893,0.1515151515151522 3.7878787878787885,0.2525252525252529 3.6868686868686877,0.3535353535353544 3.5858585858585874,0.4545454545454551 3.4848484848484866,0.5555555555555567 3.383838383838384,0.6565656565656574 3.2828282828282833,0.7575757575757579 3.181818181818183,0.8585858585858596 3.080808080808082,0.9595959595959602 2.9797979797979806,1.0606060606060617 2.87878787878788,1.1616161616161622 2.7777777777777786,1.262626262626263 2.676767676767678,1.3636363636363644 2.575757575757577,1.4646464646464652 2.4747474747474754,1.4646464646464652 2.373737373737375,1.4646464646464652 2.2727272727272734,1.4646464646464652 2.1717171717171726,1.4646464646464652 2.070707070707072,1.4646464646464652 1.9696969696969702,1.4646464646464652 1.8686868686868696,1.4646464646464652 1.767676767676768,1.4646464646464652 1.6666666666666674,1.4646464646464652 1.5656565656565666,1.4646464646464652 1.4646464646464652,1.4646464646464652 1.3636363636363644,1.4646464646464652 1.262626262626263,1.4646464646464652 1.1616161616161622,1.4646464646464652 1.0606060606060617,1.4646464646464652 0.9595959595959602,1.4646464646464652 0.8585858585858596,1.4646464646464652 0.7575757575757579,1.4646464646464652 0.6565656565656574,1.4646464646464652 0.5555555555555567,1.4646464646464652 0.4545454545454551,1.4646464646464652 0.3535353535353544,1.4646464646464652 0.2525252525252529,1.4646464646464652 0.1515151515151522,1.4646464646464652 0.050505050505051545,1.4646464646464652 -0.05050505050505001,1.4646464646464652 -0.15151515151515066,1.4646464646464652 -0.2525252525252522,1.4646464646464652 -0.35353535353535287,1.4646464646464652 -0.4545454545454544,1.4646464646464652 -0.555555555555555,1.4646464646464652 -0.6565656565656557,1.4646464646464652 -0.7575757575757572,1.4646464646464652 -0.8585858585858579,1.4646464646464652 -0.9595959595959596,1.4646464646464652 -1.0606060606060603,1.4646464646464652 -1.1616161616161613,1.4646464646464652 -1.2626262626262625,1.4646464646464652 -1.363636363636363,1.4646464646464652 -1.4646464646464643,1.4646464646464652 -1.5656565656565653,1.4646464646464652 -1.6666666666666665,1.4646464646464652 -1.7676767676767675,1.4646464646464652 -1.8686868686868683,1.4646464646464652 -1.9696969696969693,1.4646464646464652 -2.07070707070707,1.4646464646464652 -2.1717171717171713,1.4646464646464652 -2.2727272727272725,1.4646464646464652 -2.3737373737373733,1.4646464646464652 -2.474747474747474,1.4646464646464652 -2.5757575757575752,1.4646464646464652 -2.6767676767676765,1.4646464646464652 -2.7777777777777777,1.4646464646464652 -2.8787878787878785,1.4646464646464652 -2.9797979797979792,1.4646464646464652 -3.0808080808080804,1.4646464646464652 -3.1818181818181817,1.4646464646464652 -3.2828282828282824,1.4646464646464652 -3.383838383838383,1.4646464646464652 -3.484848484848485,1.4646464646464652 -3.5858585858585856,1.4646464646464652 -3.6868686868686864,1.4646464646464652 -3.7878787878787876,1.4646464646464652 -3.8888888888888884,1.4646464646464652 -3.98989898989899,1.4646464646464652 -4.090909090909091,1.4646464646464652 -4.191919191919193,1.4646464646464652 -4.292929292929293,1.4646464646464652 -4.393939393939394,1.4646464646464652 -4.494949494949496,1.4646464646464652 -4.595959595959596,1.4646464646464652 -4.696969696969697,1.4646464646464652 -4.7979797979797985,1.4646464646464652 -4.898989898989899,1.4646464646464652 -5.000000000000001,1.4646464646464652" data-type="line" data-label="" points="984,602.5858585858587 974.4646464646464,593.0505050505051 964.9292929292927,583.5151515151516 955.3939393939393,573.979797979798 945.8585858585857,564.4444444444445 936.3232323232323,554.909090909091 926.7878787878785,545.3737373737374 917.2525252525251,535.838383838384 907.7171717171716,526.3030303030304 898.181818181818,516.7676767676768 888.6464646464647,507.23232323232327 879.111111111111,497.69696969696975 869.5757575757575,488.1616161616163 860.0404040404039,478.6262626262627 850.5050505050505,469.0909090909092 840.969696969697,459.5555555555556 831.4343434343433,450.0202020202021 821.8989898989898,440.4848484848486 812.3636363636363,430.94949494949503 802.8282828282828,421.4141414141415 793.2929292929292,411.87878787878793 783.7575757575758,402.3434343434344 774.2222222222222,392.80808080808094 764.6868686868686,383.27272727272737 755.1515151515151,373.73737373737384 745.6161616161615,373.73737373737384 736.0808080808081,373.73737373737384 726.5454545454545,373.73737373737384 717.0101010101009,373.73737373737384 707.4747474747475,373.73737373737384 697.9393939393939,373.73737373737384 688.4040404040404,373.73737373737384 678.8686868686868,373.73737373737384 669.3333333333333,373.73737373737384 659.7979797979798,373.73737373737384 650.2626262626262,373.73737373737384 640.7272727272727,373.73737373737384 631.1919191919192,373.73737373737384 621.6565656565656,373.73737373737384 612.1212121212121,373.73737373737384 602.5858585858585,373.73737373737384 593.0505050505051,373.73737373737384 583.5151515151515,373.73737373737384 573.9797979797979,373.73737373737384 564.4444444444445,373.73737373737384 554.9090909090909,373.73737373737384 545.3737373737374,373.73737373737384 535.8383838383838,373.73737373737384 526.3030303030303,373.73737373737384 516.7676767676768,373.73737373737384 507.2323232323232,373.73737373737384 497.69696969696975,373.73737373737384 488.16161616161617,373.73737373737384 478.62626262626264,373.73737373737384 469.09090909090907,373.73737373737384 459.55555555555554,373.73737373737384 450.0202020202021,373.73737373737384 440.4848484848485,373.73737373737384 430.949494949495,373.73737373737384 421.4141414141414,373.73737373737384 411.8787878787879,373.73737373737384 402.34343434343435,373.73737373737384 392.80808080808083,373.73737373737384 383.2727272727273,373.73737373737384 373.7373737373738,373.73737373737384 364.2020202020202,373.73737373737384 354.6666666666667,373.73737373737384 345.13131313131316,373.73737373737384 335.59595959595964,373.73737373737384 326.0606060606061,373.73737373737384 316.5252525252526,373.73737373737384 306.9898989898991,373.73737373737384 297.4545454545455,373.73737373737384 287.91919191919203,373.73737373737384 278.38383838383845,373.73737373737384 268.84848484848493,373.73737373737384 259.3131313131314,373.73737373737384 249.77777777777783,373.73737373737384 240.2424242424243,373.73737373737384 230.70707070707084,373.73737373737384 221.17171717171726,373.73737373737384 211.63636363636374,373.73737373737384 202.10101010101022,373.73737373737384 192.5656565656567,373.73737373737384 183.03030303030312,373.73737373737384 173.4949494949496,373.73737373737384 163.95959595959607,373.73737373737384 154.42424242424255,373.73737373737384 144.88888888888903,373.73737373737384 135.35353535353545,373.73737373737384 125.81818181818193,373.73737373737384 116.28282828282829,373.73737373737384 106.74747474747483,373.73737373737384 97.21212121212136,373.73737373737384 87.67676767676772,373.73737373737384 78.14141414141426,373.73737373737384 68.60606060606068,373.73737373737384 59.07070707070716,373.73737373737384 49.53535353535369,373.73737373737384 40.00000000000006,373.73737373737384" fill="none" stroke="rgba(255,0,0,0.75)" stroke-width="14.159999999999995"/></g><g><polyline data-points="-1.2626262626262625,-5.000000000000001 -1.1616161616161613,-4.898989898989899 -1.0606060606060603,-4.7979797979797985 -0.9595959595959596,-4.696969696969697 -0.8585858585858579,-4.595959595959596 -0.7575757575757572,-4.494949494949496 -0.6565656565656557,-4.393939393939394 -0.555555555555555,-4.292929292929293 -0.4545454545454544,-4.191919191919193 -0.35353535353535287,-4.090909090909091 -0.2525252525252522,-3.98989898989899 -0.15151515151515066,-3.8888888888888884 -0.05050505050505001,-3.7878787878787876 0.050505050505051545,-3.6868686868686864 0.1515151515151522,-3.5858585858585856 0.2525252525252529,-3.484848484848485 0.3535353535353544,-3.383838383838383 0.4545454545454551,-3.2828282828282824 0.5555555555555567,-3.1818181818181817 0.6565656565656574,-3.0808080808080804 0.7575757575757579,-2.9797979797979792 0.8585858585858596,-2.8787878787878785 0.9595959595959602,-2.7777777777777777 1.0606060606060617,-2.6767676767676765 1.1616161616161622,-2.5757575757575752 1.262626262626263,-2.474747474747474 1.3636363636363644,-2.3737373737373733 1.4646464646464652,-2.2727272727272725 1.5656565656565666,-2.1717171717171713 1.6666666666666674,-2.07070707070707 1.767676767676768,-1.9696969696969693 1.8686868686868696,-1.8686868686868683 1.9696969696969702,-1.7676767676767675 2.070707070707072,-1.6666666666666665 2.1717171717171726,-1.5656565656565653 2.2727272727272734,-1.4646464646464643 2.373737373737375,-1.363636363636363 2.4747474747474754,-1.2626262626262625 2.575757575757577,-1.1616161616161613 2.676767676767678,-1.0606060606060603 2.7777777777777786,-0.9595959595959596 2.87878787878788,-0.8585858585858579 2.9797979797979806,-0.7575757575757572 3.080808080808082,-0.6565656565656557 3.181818181818183,-0.555555555555555 3.2828282828282833,-0.4545454545454544 3.383838383838384,-0.35353535353535287 3.4848484848484866,-0.2525252525252522" data-type="line" data-label="" points="392.80808080808083,984 402.34343434343435,974.4646464646464 411.8787878787879,964.9292929292928 421.4141414141414,955.3939393939394 430.949494949495,945.8585858585858 440.4848484848485,936.3232323232323 450.0202020202021,926.7878787878788 459.55555555555554,917.2525252525252 469.09090909090907,907.7171717171718 478.62626262626264,898.1818181818181 488.16161616161617,888.6464646464647 497.69696969696975,879.1111111111111 507.2323232323232,869.5757575757575 516.7676767676768,860.0404040404039 526.3030303030303,850.5050505050505 535.8383838383838,840.969696969697 545.3737373737374,831.4343434343434 554.9090909090909,821.8989898989898 564.4444444444445,812.3636363636363 573.9797979797979,802.8282828282828 583.5151515151515,793.2929292929292 593.0505050505051,783.7575757575758 602.5858585858585,774.2222222222222 612.1212121212121,764.6868686868687 621.6565656565656,755.1515151515151 631.1919191919192,745.6161616161615 640.7272727272727,736.0808080808081 650.2626262626262,726.5454545454545 659.7979797979798,717.010101010101 669.3333333333333,707.4747474747475 678.8686868686868,697.939393939394 688.4040404040404,688.4040404040404 697.9393939393939,678.8686868686868 707.4747474747475,669.3333333333334 717.0101010101009,659.7979797979798 726.5454545454545,650.2626262626263 736.0808080808081,640.7272727272727 745.6161616161615,631.1919191919193 755.1515151515151,621.6565656565657 764.6868686868686,612.1212121212121 774.2222222222222,602.5858585858587 783.7575757575758,593.0505050505051 793.2929292929292,583.5151515151516 802.8282828282828,573.979797979798 812.3636363636363,564.4444444444445 821.8989898989898,554.909090909091 831.4343434343433,545.3737373737374 840.969696969697,535.838383838384" fill="none" stroke="rgba(255,0,0,0.75)" stroke-width="14.159999999999995"/></g><g><polyline data-points="3.4848484848484866,-0.2525252525252522 3.5858585858585874,-0.15151515151515066 3.6868686868686877,-0.05050505050505001 3.7878787878787885,0.050505050505051545 3.8888888888888893,0.1515151515151522 3.989898989898992,0.2525252525252529 4.090909090909092,0.3535353535353544 4.191919191919193,0.4545454545454551 4.292929292929293,0.5555555555555567 4.393939393939394,0.6565656565656574 4.494949494949497,0.7575757575757579 4.595959595959597,0.8585858585858596 4.696969696969697,0.9595959595959602 4.696969696969697,1.0606060606060617 4.696969696969697,1.1616161616161622 4.696969696969697,1.262626262626263 4.696969696969697,1.3636363636363644 4.696969696969697,1.4646464646464652 4.696969696969697,1.5656565656565666 4.696969696969697,1.6666666666666674 4.696969696969697,1.767676767676768 4.696969696969697,1.8686868686868696 4.696969696969697,1.9696969696969702 4.696969696969697,2.070707070707072 4.696969696969697,2.1717171717171726 4.696969696969697,2.2727272727272734 4.696969696969697,2.373737373737375 4.696969696969697,2.4747474747474754 4.696969696969697,2.575757575757577 4.696969696969697,2.676767676767678 4.696969696969697,2.7777777777777786 4.696969696969697,2.87878787878788 4.696969696969697,2.9797979797979806 4.696969696969697,3.080808080808082 4.696969696969697,3.181818181818183 4.696969696969697,3.2828282828282833 4.696969696969697,3.383838383838384 4.696969696969697,3.4848484848484866 4.696969696969697,3.5858585858585874 4.696969696969697,3.6868686868686877 4.696969696969697,3.7878787878787885 4.696969696969697,3.8888888888888893 4.696969696969697,3.989898989898992 4.696969696969697,4.090909090909092 4.696969696969697,4.191919191919193 4.696969696969697,4.292929292929293 4.696969696969697,4.393939393939394 4.696969696969697,4.494949494949497 4.696969696969697,4.595959595959597 4.696969696969697,4.696969696969697 4.696969696969697,4.7979797979797985 4.696969696969697,4.898989898989901 4.696969696969697,5.000000000000002" data-type="line" data-label="" points="840.969696969697,535.838383838384 850.5050505050505,526.3030303030304 860.0404040404039,516.7676767676768 869.5757575757575,507.23232323232327 879.111111111111,497.69696969696975 888.6464646464647,488.1616161616163 898.181818181818,478.6262626262627 907.7171717171716,469.0909090909092 917.2525252525251,459.5555555555556 926.7878787878785,450.0202020202021 936.3232323232323,440.4848484848486 945.8585858585857,430.94949494949503 955.3939393939393,421.4141414141415 955.3939393939393,411.87878787878793 955.3939393939393,402.3434343434344 955.3939393939393,392.80808080808094 955.3939393939393,383.27272727272737 955.3939393939393,373.73737373737384 955.3939393939393,364.2020202020203 955.3939393939393,354.66666666666674 955.3939393939393,345.1313131313133 955.3939393939393,335.5959595959597 955.3939393939393,326.06060606060623 955.3939393939393,316.5252525252526 955.3939393939393,306.9898989898991 955.3939393939393,297.4545454545456 955.3939393939393,287.91919191919203 955.3939393939393,278.38383838383857 955.3939393939393,268.84848484848493 955.3939393939393,259.3131313131314 955.3939393939393,249.77777777777794 955.3939393939393,240.24242424242436 955.3939393939393,230.70707070707084 955.3939393939393,221.17171717171726 955.3939393939393,211.63636363636374 955.3939393939393,202.10101010101027 955.3939393939393,192.56565656565675 955.3939393939393,183.03030303030312 955.3939393939393,173.4949494949496 955.3939393939393,163.95959595959613 955.3939393939393,154.4242424242426 955.3939393939393,144.88888888888908 955.3939393939393,135.35353535353545 955.3939393939393,125.81818181818198 955.3939393939393,116.28282828282846 955.3939393939393,106.747474747475 955.3939393939393,97.21212121212153 955.3939393939393,87.67676767676778 955.3939393939393,78.14141414141432 955.3939393939393,68.60606060606085 955.3939393939393,59.07070707070733 955.3939393939393,49.53535353535369 955.3939393939393,40.000000000000114" fill="none" stroke="rgba(0,0,255,0.75)" stroke-width="14.159999999999995"/></g><g><polyline data-points="-2.6767676767676765,-5.000000000000001 -2.5757575757575752,-4.898989898989899 -2.474747474747474,-4.7979797979797985 -2.3737373737373733,-4.696969696969697 -2.2727272727272725,-4.595959595959596 -2.1717171717171713,-4.494949494949496 -2.07070707070707,-4.393939393939394 -1.9696969696969693,-4.292929292929293 -1.8686868686868683,-4.191919191919193 -1.7676767676767675,-4.090909090909091 -1.6666666666666665,-3.98989898989899 -1.5656565656565653,-3.8888888888888884 -1.4646464646464643,-3.7878787878787876 -1.363636363636363,-3.6868686868686864 -1.2626262626262625,-3.5858585858585856 -1.1616161616161613,-3.484848484848485 -1.0606060606060603,-3.383838383838383 -0.9595959595959596,-3.2828282828282824 -0.8585858585858579,-3.1818181818181817 -0.7575757575757572,-3.0808080808080804 -0.6565656565656557,-2.9797979797979792 -0.555555555555555,-2.8787878787878785 -0.4545454545454544,-2.7777777777777777 -0.35353535353535287,-2.6767676767676765 -0.2525252525252522,-2.5757575757575752 -0.15151515151515066,-2.474747474747474 -0.05050505050505001,-2.3737373737373733 0.050505050505051545,-2.2727272727272725 0.1515151515151522,-2.1717171717171713 0.2525252525252529,-2.07070707070707 0.3535353535353544,-1.9696969696969693 0.4545454545454551,-1.8686868686868683 0.5555555555555567,-1.7676767676767675 0.6565656565656574,-1.6666666666666665 0.7575757575757579,-1.5656565656565653 0.8585858585858596,-1.4646464646464643 0.9595959595959602,-1.363636363636363 1.0606060606060617,-1.2626262626262625 1.1616161616161622,-1.1616161616161613 1.262626262626263,-1.0606060606060603 1.3636363636363644,-0.9595959595959596 1.4646464646464652,-0.8585858585858579 1.5656565656565666,-0.7575757575757572 1.6666666666666674,-0.6565656565656557 1.767676767676768,-0.555555555555555 1.8686868686868696,-0.4545454545454544 1.9696969696969702,-0.35353535353535287 2.070707070707072,-0.2525252525252522 2.070707070707072,-0.15151515151515066 2.070707070707072,-0.05050505050505001 2.070707070707072,0.050505050505051545 2.070707070707072,0.1515151515151522 2.070707070707072,0.2525252525252529 2.070707070707072,0.3535353535353544 2.070707070707072,0.4545454545454551 2.070707070707072,0.5555555555555567 2.070707070707072,0.6565656565656574 2.070707070707072,0.7575757575757579 2.070707070707072,0.8585858585858596 2.070707070707072,0.9595959595959602 2.070707070707072,1.0606060606060617 2.070707070707072,1.1616161616161622 2.070707070707072,1.262626262626263 2.070707070707072,1.3636363636363644 2.070707070707072,1.4646464646464652 2.070707070707072,1.5656565656565666 2.070707070707072,1.6666666666666674 2.070707070707072,1.767676767676768 2.070707070707072,1.8686868686868696 2.070707070707072,1.9696969696969702 2.070707070707072,2.070707070707072 2.070707070707072,2.1717171717171726 2.070707070707072,2.2727272727272734 2.070707070707072,2.373737373737375 2.070707070707072,2.4747474747474754 2.070707070707072,2.575757575757577 2.070707070707072,2.676767676767678 2.070707070707072,2.7777777777777786 2.070707070707072,2.87878787878788 2.070707070707072,2.9797979797979806 2.070707070707072,3.080808080808082 2.070707070707072,3.181818181818183 2.070707070707072,3.2828282828282833 2.070707070707072,3.383838383838384 2.070707070707072,3.4848484848484866 2.070707070707072,3.5858585858585874 2.070707070707072,3.6868686868686877 2.070707070707072,3.7878787878787885 2.070707070707072,3.8888888888888893 2.070707070707072,3.989898989898992 2.070707070707072,4.090909090909092 2.070707070707072,4.191919191919193 2.070707070707072,4.292929292929293 2.070707070707072,4.393939393939394 2.070707070707072,4.494949494949497 2.070707070707072,4.595959595959597 2.070707070707072,4.696969696969697 2.070707070707072,4.7979797979797985 2.070707070707072,4.898989898989901 2.070707070707072,5.000000000000002" data-type="line" data-label="" points="259.3131313131314,984 268.84848484848493,974.4646464646464 278.38383838383845,964.9292929292928 287.91919191919203,955.3939393939394 297.4545454545455,945.8585858585858 306.9898989898991,936.3232323232323 316.5252525252526,926.7878787878788 326.0606060606061,917.2525252525252 335.59595959595964,907.7171717171718 345.13131313131316,898.1818181818181 354.6666666666667,888.6464646464647 364.2020202020202,879.1111111111111 373.7373737373738,869.5757575757575 383.2727272727273,860.0404040404039 392.80808080808083,850.5050505050505 402.34343434343435,840.969696969697 411.8787878787879,831.4343434343434 421.4141414141414,821.8989898989898 430.949494949495,812.3636363636363 440.4848484848485,802.8282828282828 450.0202020202021,793.2929292929292 459.55555555555554,783.7575757575758 469.09090909090907,774.2222222222222 478.62626262626264,764.6868686868687 488.16161616161617,755.1515151515151 497.69696969696975,745.6161616161615 507.2323232323232,736.0808080808081 516.7676767676768,726.5454545454545 526.3030303030303,717.010101010101 535.8383838383838,707.4747474747475 545.3737373737374,697.939393939394 554.9090909090909,688.4040404040404 564.4444444444445,678.8686868686868 573.9797979797979,669.3333333333334 583.5151515151515,659.7979797979798 593.0505050505051,650.2626262626263 602.5858585858585,640.7272727272727 612.1212121212121,631.1919191919193 621.6565656565656,621.6565656565657 631.1919191919192,612.1212121212121 640.7272727272727,602.5858585858587 650.2626262626262,593.0505050505051 659.7979797979798,583.5151515151516 669.3333333333333,573.979797979798 678.8686868686868,564.4444444444445 688.4040404040404,554.909090909091 697.9393939393939,545.3737373737374 707.4747474747475,535.838383838384 707.4747474747475,526.3030303030304 707.4747474747475,516.7676767676768 707.4747474747475,507.23232323232327 707.4747474747475,497.69696969696975 707.4747474747475,488.1616161616163 707.4747474747475,478.6262626262627 707.4747474747475,469.0909090909092 707.4747474747475,459.5555555555556 707.4747474747475,450.0202020202021 707.4747474747475,440.4848484848486 707.4747474747475,430.94949494949503 707.4747474747475,421.4141414141415 707.4747474747475,411.87878787878793 707.4747474747475,402.3434343434344 707.4747474747475,392.80808080808094 707.4747474747475,383.27272727272737 707.4747474747475,373.73737373737384 707.4747474747475,364.2020202020203 707.4747474747475,354.66666666666674 707.4747474747475,345.1313131313133 707.4747474747475,335.5959595959597 707.4747474747475,326.06060606060623 707.4747474747475,316.5252525252526 707.4747474747475,306.9898989898991 707.4747474747475,297.4545454545456 707.4747474747475,287.91919191919203 707.4747474747475,278.38383838383857 707.4747474747475,268.84848484848493 707.4747474747475,259.3131313131314 707.4747474747475,249.77777777777794 707.4747474747475,240.24242424242436 707.4747474747475,230.70707070707084 707.4747474747475,221.17171717171726 707.4747474747475,211.63636363636374 707.4747474747475,202.10101010101027 707.4747474747475,192.56565656565675 707.4747474747475,183.03030303030312 707.4747474747475,173.4949494949496 707.4747474747475,163.95959595959613 707.4747474747475,154.4242424242426 707.4747474747475,144.88888888888908 707.4747474747475,135.35353535353545 707.4747474747475,125.81818181818198 707.4747474747475,116.28282828282846 707.4747474747475,106.747474747475 707.4747474747475,97.21212121212153 707.4747474747475,87.67676767676778 707.4747474747475,78.14141414141432 707.4747474747475,68.60606060606085 707.4747474747475,59.07070707070733 707.4747474747475,49.53535353535369 707.4747474747475,40.000000000000114" fill="none" stroke="rgba(0,0,255,0.75)" stroke-width="14.159999999999995"/></g><g><polyline data-points="-5.000000000000001,4.898989898989901 -4.898989898989899,4.7979797979797985 -4.7979797979797985,4.7979797979797985 -4.696969696969697,4.898989898989901 -4.595959595959596,5.000000000000002 -4.494949494949496,4.898989898989901 -4.393939393939394,4.7979797979797985 -4.393939393939394,4.696969696969697 -4.393939393939394,4.595959595959597 -4.393939393939394,4.494949494949497 -4.393939393939394,4.393939393939394 -4.393939393939394,4.292929292929293 -4.393939393939394,4.191919191919193 -4.393939393939394,4.090909090909092 -4.393939393939394,3.989898989898992 -4.393939393939394,3.8888888888888893 -4.393939393939394,3.7878787878787885 -4.393939393939394,3.6868686868686877 -4.393939393939394,3.5858585858585874 -4.393939393939394,3.4848484848484866 -4.292929292929293,3.383838383838384 -4.191919191919193,3.2828282828282833 -4.090909090909091,3.181818181818183 -3.98989898989899,3.080808080808082" data-type="line" data-label="" points="40.00000000000006,49.53535353535369 49.53535353535369,59.07070707070733 59.07070707070716,59.07070707070733 68.60606060606068,49.53535353535369 78.14141414141426,40.000000000000114 87.67676767676772,49.53535353535369 97.21212121212136,59.07070707070733 97.21212121212136,68.60606060606085 97.21212121212136,78.14141414141432 97.21212121212136,87.67676767676778 97.21212121212136,97.21212121212153 97.21212121212136,106.747474747475 97.21212121212136,116.28282828282846 97.21212121212136,125.81818181818198 97.21212121212136,135.35353535353545 97.21212121212136,144.88888888888908 97.21212121212136,154.4242424242426 97.21212121212136,163.95959595959613 97.21212121212136,173.4949494949496 97.21212121212136,183.03030303030312 106.74747474747483,192.56565656565675 116.28282828282829,202.10101010101027 125.81818181818193,211.63636363636374 135.35353535353545,221.17171717171726" fill="none" stroke="rgba(0,0,255,0.75)" stroke-width="14.159999999999995"/></g><g><polyline data-points="-3.98989898989899,3.080808080808082 -3.98989898989899,2.9797979797979806 -3.98989898989899,2.87878787878788 -3.98989898989899,2.7777777777777786 -3.98989898989899,2.676767676767678 -3.98989898989899,2.575757575757577 -3.98989898989899,2.4747474747474754 -3.98989898989899,2.373737373737375 -3.98989898989899,2.2727272727272734 -3.8888888888888884,2.1717171717171726 -3.8888888888888884,2.070707070707072" data-type="line" data-label="" points="135.35353535353545,221.17171717171726 135.35353535353545,230.70707070707084 135.35353535353545,240.24242424242436 135.35353535353545,249.77777777777794 135.35353535353545,259.3131313131314 135.35353535353545,268.84848484848493 135.35353535353545,278.38383838383857 135.35353535353545,287.91919191919203 135.35353535353545,297.4545454545456 144.88888888888903,306.9898989898991 144.88888888888903,316.5252525252526" fill="none" stroke="rgba(255,0,0,0.75)" stroke-width="14.159999999999995"/></g><g><polyline data-points="-3.8888888888888884,2.070707070707072 -3.98989898989899,1.9696969696969702 -4.090909090909091,1.8686868686868696 -4.191919191919193,1.767676767676768 -4.191919191919193,1.6666666666666674 -4.292929292929293,1.5656565656565666 -4.393939393939394,1.4646464646464652 -4.494949494949496,1.3636363636363644 -4.494949494949496,1.262626262626263 -4.393939393939394,1.1616161616161622 -4.393939393939394,1.0606060606060617 -4.393939393939394,0.9595959595959602 -4.393939393939394,0.8585858585858596 -4.393939393939394,0.7575757575757579 -4.393939393939394,0.6565656565656574 -4.393939393939394,0.5555555555555567 -4.393939393939394,0.4545454545454551 -4.393939393939394,0.3535353535353544 -4.393939393939394,0.2525252525252529 -4.393939393939394,0.1515151515151522 -4.393939393939394,0.050505050505051545 -4.393939393939394,-0.05050505050505001 -4.393939393939394,-0.15151515151515066 -4.393939393939394,-0.2525252525252522 -4.393939393939394,-0.35353535353535287 -4.393939393939394,-0.4545454545454544 -4.494949494949496,-0.555555555555555 -4.595959595959596,-0.6565656565656557 -4.696969696969697,-0.7575757575757572 -4.7979797979797985,-0.8585858585858579 -4.898989898989899,-0.8585858585858579 -5.000000000000001,-0.7575757575757572 -5.000000000000001,-0.6565656565656557 -5.000000000000001,-0.555555555555555" data-type="line" data-label="" points="144.88888888888903,316.5252525252526 135.35353535353545,326.06060606060623 125.81818181818193,335.5959595959597 116.28282828282829,345.1313131313133 116.28282828282829,354.66666666666674 106.74747474747483,364.2020202020203 97.21212121212136,373.73737373737384 87.67676767676772,383.27272727272737 87.67676767676772,392.80808080808094 97.21212121212136,402.3434343434344 97.21212121212136,411.87878787878793 97.21212121212136,421.4141414141415 97.21212121212136,430.94949494949503 97.21212121212136,440.4848484848486 97.21212121212136,450.0202020202021 97.21212121212136,459.5555555555556 97.21212121212136,469.0909090909092 97.21212121212136,478.6262626262627 97.21212121212136,488.1616161616163 97.21212121212136,497.69696969696975 97.21212121212136,507.23232323232327 97.21212121212136,516.7676767676768 97.21212121212136,526.3030303030304 97.21212121212136,535.838383838384 97.21212121212136,545.3737373737374 97.21212121212136,554.909090909091 87.67676767676772,564.4444444444445 78.14141414141426,573.979797979798 68.60606060606068,583.5151515151516 59.07070707070716,593.0505050505051 49.53535353535369,593.0505050505051 40.00000000000006,583.5151515151516 40.00000000000006,573.979797979798 40.00000000000006,564.4444444444445" fill="none" stroke="rgba(0,0,255,0.75)" stroke-width="14.159999999999995"/></g><g><polyline data-points="-5.000000000000001,2.373737373737375 -5.000000000000001,2.4747474747474754 -4.898989898989899,2.575757575757577 -4.7979797979797985,2.4747474747474754 -4.696969696969697,2.373737373737375 -4.595959595959596,2.373737373737375 -4.494949494949496,2.373737373737375 -4.393939393939394,2.373737373737375 -4.292929292929293,2.373737373737375 -4.191919191919193,2.4747474747474754 -4.090909090909091,2.4747474747474754 -3.98989898989899,2.575757575757577 -3.8888888888888884,2.575757575757577 -3.7878787878787876,2.4747474747474754 -3.6868686868686864,2.4747474747474754 -3.5858585858585856,2.373737373737375 -3.484848484848485,2.2727272727272734 -3.484848484848485,2.1717171717171726 -3.383838383838383,2.070707070707072 -3.484848484848485,1.9696969696969702 -3.484848484848485,1.8686868686868696 -3.5858585858585856,1.767676767676768 -3.5858585858585856,1.6666666666666674 -3.5858585858585856,1.5656565656565666 -3.5858585858585856,1.4646464646464652 -3.5858585858585856,1.3636363636363644 -3.5858585858585856,1.262626262626263 -3.5858585858585856,1.1616161616161622 -3.5858585858585856,1.0606060606060617 -3.5858585858585856,0.9595959595959602 -3.5858585858585856,0.8585858585858596 -3.5858585858585856,0.7575757575757579 -3.5858585858585856,0.6565656565656574 -3.5858585858585856,0.5555555555555567 -3.5858585858585856,0.4545454545454551 -3.5858585858585856,0.3535353535353544 -3.5858585858585856,0.2525252525252529 -3.5858585858585856,0.1515151515151522 -3.5858585858585856,0.050505050505051545 -3.5858585858585856,-0.05050505050505001 -3.5858585858585856,-0.15151515151515066 -3.5858585858585856,-0.2525252525252522 -3.5858585858585856,-0.35353535353535287 -3.5858585858585856,-0.4545454545454544 -3.5858585858585856,-0.555555555555555 -3.5858585858585856,-0.6565656565656557 -3.5858585858585856,-0.7575757575757572 -3.5858585858585856,-0.8585858585858579 -3.5858585858585856,-0.9595959595959596 -3.5858585858585856,-1.0606060606060603 -3.5858585858585856,-1.1616161616161613 -3.5858585858585856,-1.2626262626262625 -3.5858585858585856,-1.363636363636363 -3.5858585858585856,-1.4646464646464643 -3.5858585858585856,-1.5656565656565653 -3.5858585858585856,-1.6666666666666665 -3.5858585858585856,-1.7676767676767675 -3.5858585858585856,-1.8686868686868683 -3.5858585858585856,-1.9696969696969693 -3.5858585858585856,-2.07070707070707 -3.5858585858585856,-2.1717171717171713 -3.5858585858585856,-2.2727272727272725 -3.5858585858585856,-2.3737373737373733 -3.5858585858585856,-2.474747474747474 -3.5858585858585856,-2.5757575757575752 -3.5858585858585856,-2.6767676767676765 -3.5858585858585856,-2.7777777777777777 -3.5858585858585856,-2.8787878787878785 -3.5858585858585856,-2.9797979797979792 -3.5858585858585856,-3.0808080808080804 -3.5858585858585856,-3.1818181818181817 -3.5858585858585856,-3.2828282828282824 -3.5858585858585856,-3.383838383838383 -3.5858585858585856,-3.484848484848485 -3.5858585858585856,-3.5858585858585856 -3.5858585858585856,-3.6868686868686864 -3.5858585858585856,-3.7878787878787876 -3.5858585858585856,-3.8888888888888884 -3.5858585858585856,-3.98989898989899 -3.5858585858585856,-4.090909090909091 -3.5858585858585856,-4.191919191919193 -3.5858585858585856,-4.292929292929293 -3.5858585858585856,-4.393939393939394 -3.5858585858585856,-4.494949494949496 -3.5858585858585856,-4.595959595959596 -3.5858585858585856,-4.696969696969697 -3.5858585858585856,-4.7979797979797985 -3.5858585858585856,-4.898989898989899 -3.6868686868686864,-5.000000000000001 -3.7878787878787876,-5.000000000000001 -3.8888888888888884,-4.898989898989899 -3.98989898989899,-5.000000000000001" data-type="line" data-label="" points="40.00000000000006,287.91919191919203 40.00000000000006,278.38383838383857 49.53535353535369,268.84848484848493 59.07070707070716,278.38383838383857 68.60606060606068,287.91919191919203 78.14141414141426,287.91919191919203 87.67676767676772,287.91919191919203 97.21212121212136,287.91919191919203 106.74747474747483,287.91919191919203 116.28282828282829,278.38383838383857 125.81818181818193,278.38383838383857 135.35353535353545,268.84848484848493 144.88888888888903,268.84848484848493 154.42424242424255,278.38383838383857 163.95959595959607,278.38383838383857 173.4949494949496,287.91919191919203 183.03030303030312,297.4545454545456 183.03030303030312,306.9898989898991 192.5656565656567,316.5252525252526 183.03030303030312,326.06060606060623 183.03030303030312,335.5959595959597 173.4949494949496,345.1313131313133 173.4949494949496,354.66666666666674 173.4949494949496,364.2020202020203 173.4949494949496,373.73737373737384 173.4949494949496,383.27272727272737 173.4949494949496,392.80808080808094 173.4949494949496,402.3434343434344 173.4949494949496,411.87878787878793 173.4949494949496,421.4141414141415 173.4949494949496,430.94949494949503 173.4949494949496,440.4848484848486 173.4949494949496,450.0202020202021 173.4949494949496,459.5555555555556 173.4949494949496,469.0909090909092 173.4949494949496,478.6262626262627 173.4949494949496,488.1616161616163 173.4949494949496,497.69696969696975 173.4949494949496,507.23232323232327 173.4949494949496,516.7676767676768 173.4949494949496,526.3030303030304 173.4949494949496,535.838383838384 173.4949494949496,545.3737373737374 173.4949494949496,554.909090909091 173.4949494949496,564.4444444444445 173.4949494949496,573.979797979798 173.4949494949496,583.5151515151516 173.4949494949496,593.0505050505051 173.4949494949496,602.5858585858587 173.4949494949496,612.1212121212121 173.4949494949496,621.6565656565657 173.4949494949496,631.1919191919193 173.4949494949496,640.7272727272727 173.4949494949496,650.2626262626263 173.4949494949496,659.7979797979798 173.4949494949496,669.3333333333334 173.4949494949496,678.8686868686868 173.4949494949496,688.4040404040404 173.4949494949496,697.939393939394 173.4949494949496,707.4747474747475 173.4949494949496,717.010101010101 173.4949494949496,726.5454545454545 173.4949494949496,736.0808080808081 173.4949494949496,745.6161616161615 173.4949494949496,755.1515151515151 173.4949494949496,764.6868686868687 173.4949494949496,774.2222222222222 173.4949494949496,783.7575757575758 173.4949494949496,793.2929292929292 173.4949494949496,802.8282828282828 173.4949494949496,812.3636363636363 173.4949494949496,821.8989898989898 173.4949494949496,831.4343434343434 173.4949494949496,840.969696969697 173.4949494949496,850.5050505050505 173.4949494949496,860.0404040404039 173.4949494949496,869.5757575757575 173.4949494949496,879.1111111111111 173.4949494949496,888.6464646464647 173.4949494949496,898.1818181818181 173.4949494949496,907.7171717171718 173.4949494949496,917.2525252525252 173.4949494949496,926.7878787878788 173.4949494949496,936.3232323232323 173.4949494949496,945.8585858585858 173.4949494949496,955.3939393939394 173.4949494949496,964.9292929292928 173.4949494949496,974.4646464646464 163.95959595959607,984 154.42424242424255,984 144.88888888888903,974.4646464646464 135.35353535353545,984" fill="none" stroke="rgba(0,0,255,0.75)" stroke-width="14.159999999999995"/></g><g><rect data-type="rect" data-label="" data-x="0" data-y="0" x="40.000000000000114" y="40.000000000000284" width="943.9999999999997" height="943.9999999999998" fill="none" stroke="gray" stroke-width="0.010593220338983056"/></g><g><rect data-type="rect" data-label="" data-x="0" data-y="0" x="40.000000000000114" y="40.000000000000284" width="943.9999999999997" height="943.9999999999998" fill="none" stroke="rgba(15, 23, 42, 0.8)" stroke-width="0.010593220338983056"/></g><circle data-type="circle" data-label="" data-x="3.4848484848484866" data-y="-0.2525252525252522" cx="840.969696969697" cy="535.838383838384" r="28.791999999999987" fill="rgba(0,0,0,0.3)" stroke="black" stroke-width="0.010593220338983056"/><circle data-type="circle" data-label="" data-x="-3.98989898989899" data-y="3.080808080808082" cx="135.35353535353545" cy="221.17171717171726" r="28.791999999999987" fill="rgba(0,0,0,0.3)" stroke="black" stroke-width="0.010593220338983056"/><circle data-type="circle" data-label="" data-x="-3.8888888888888884" data-y="2.070707070707072" cx="144.88888888888903" cy="316.5252525252526" r="28.791999999999987" fill="rgba(0,0,0,0.3)" stroke="black" stroke-width="0.010593220338983056"/><g id="crosshair" style="display: none"><line id="crosshair-h" y1="0" y2="1024" stroke="#666" stroke-width="0.5"/><line id="crosshair-v" x1="0" x2="1024" stroke="#666" stroke-width="0.5"/><text id="coordinates" font-family="monospace" font-size="12" fill="#666"></text></g><script><![CDATA[
              document.currentScript.parentElement.addEventListener('mousemove', (e) => {
                const svg = e.currentTarget;
                const rect = svg.getBoundingClientRect();
                const x = e.clientX - rect.left;
                const y = e.clientY - rect.top;
                const crosshair = svg.getElementById('crosshair');
                const h = svg.getElementById('crosshair-h');
                const v = svg.getElementById('crosshair-v');
                const coords = svg.getElementById('coordinates');
                
                crosshair.style.display = 'block';
                h.setAttribute('x1', '0');
                h.setAttribute('x2', '1024');
                h.setAttribute('y1', y);
                h.setAttribute('y2', y);
                v.setAttribute('x1', x);
                v.setAttribute('x2', x);
                v.setAttribute('y1', '0');
                v.setAttribute('y2', '1024');

                // Calculate real coordinates using inverse transformation
                const matrix = {"a":94.39999999999996,"c":0,"e":511.99999999999994,"b":0,"d":-94.39999999999996,"f":512.0000000000001};
                // Manually invert and apply the affine transform
                // Since we only use translate and scale, we can directly compute:
                // x' = (x - tx) / sx
                // y' = (y - ty) / sy
                const sx = matrix.a;
                const sy = matrix.d;
                const tx = matrix.e; 
                const ty = matrix.f;
                const realPoint = {
                  x: (x - tx) / sx,
                  y: (y - ty) / sy // Flip y back since we used negative scale
                }
                
                coords.textContent = `(${realPoint.x.toFixed(2)}, ${realPoint.y.toFixed(2)})`;
                coords.setAttribute('x', (x + 5).toString());
                coords.setAttribute('y', (y - 5).toString());
              });
              document.currentScript.parentElement.addEventListener('mouseleave', () => {
                document.currentScript.parentElement.getElementById('crosshair').style.display = 'none';
              });
            ]]></script></svg>