<svg width="1024" height="1024" viewBox="0 0 1024 1024" xmlns="http://www.w3.org/2000/svg"><rect width="100%" height="100%" fill="white"/><g><circle data-type="point" data-label="conn_000" data-x="-5" data-y="-2.96" cx="40.000000000000114" cy="791.424" r="28.792" fill="blue" stroke="#0fbd42" stroke-width="28.792"/></g><g><circle data-type="point" data-label="conn_000" data-x="5" data-y="-3.4" cx="983.9999999999998" cy="832.96" r="28.792" fill="blue" stroke="#0fbd42" stroke-width="28.792"/></g><g><circle data-type="point" data-label="conn_001" data-x="-5" data-y="-1.72" cx="40.000000000000114" cy="674.368" r="28.792" fill="red" stroke="#740fbd" stroke-width="28.792"/></g><g><circle data-type="point" data-label="conn_001" data-x="5" data-y="-4.42" cx="983.9999999999998" cy="929.2479999999999" r="28.792" fill="blue" stroke="#740fbd" stroke-width="28.792"/></g><g><circle data-type="point" data-label="conn_002" data-x="-0.38" data-y="-5" cx="476.12799999999993" cy="984" r="28.792" fill="blue" stroke="#bda70f" stroke-width="28.792"/></g><g><circle data-type="point" data-label="conn_002" data-x="-1.2" data-y="5" cx="398.71999999999997" cy="40.000000000000284" r="28.792" fill="red" stroke="#bda70f" stroke-width="28.792"/></g><g><polyline data-points="-0.35353535353535287,-5.000000000000001 -0.4545454545454544,-4.898989898989899 -0.555555555555555,-4.7979797979797985 -0.6565656565656557,-4.696969696969697 -0.7575757575757572,-4.595959595959596 -0.8585858585858579,-4.494949494949496 -0.9595959595959596,-4.393939393939394 -1.0606060606060603,-4.292929292929293 -1.1616161616161613,-4.191919191919193 -1.2626262626262625,-4.090909090909091 -1.2626262626262625,-3.98989898989899 -1.2626262626262625,-3.8888888888888884 -1.2626262626262625,-3.7878787878787876 -1.2626262626262625,-3.6868686868686864 -1.2626262626262625,-3.5858585858585856 -1.2626262626262625,-3.484848484848485 -1.2626262626262625,-3.383838383838383 -1.2626262626262625,-3.2828282828282824 -1.2626262626262625,-3.1818181818181817 -1.2626262626262625,-3.0808080808080804 -1.2626262626262625,-2.9797979797979792 -1.2626262626262625,-2.8787878787878785 -1.2626262626262625,-2.7777777777777777 -1.2626262626262625,-2.6767676767676765 -1.2626262626262625,-2.5757575757575752 -1.2626262626262625,-2.474747474747474 -1.2626262626262625,-2.3737373737373733 -1.2626262626262625,-2.2727272727272725 -1.2626262626262625,-2.1717171717171713 -1.2626262626262625,-2.07070707070707 -1.2626262626262625,-1.9696969696969693 -1.2626262626262625,-1.8686868686868683 -1.2626262626262625,-1.7676767676767675 -1.2626262626262625,-1.6666666666666665 -1.2626262626262625,-1.5656565656565653 -1.2626262626262625,-1.4646464646464643 -1.2626262626262625,-1.363636363636363 -1.2626262626262625,-1.2626262626262625 -1.2626262626262625,-1.1616161616161613 -1.2626262626262625,-1.0606060606060603 -1.2626262626262625,-0.9595959595959596 -1.2626262626262625,-0.8585858585858579 -1.2626262626262625,-0.7575757575757572 -1.2626262626262625,-0.6565656565656557 -1.2626262626262625,-0.555555555555555 -1.2626262626262625,-0.4545454545454544 -1.2626262626262625,-0.35353535353535287 -1.2626262626262625,-0.2525252525252522 -1.2626262626262625,-0.15151515151515066 -1.2626262626262625,-0.05050505050505001 -1.2626262626262625,0.050505050505051545 -1.2626262626262625,0.1515151515151522 -1.2626262626262625,0.2525252525252529 -1.2626262626262625,0.3535353535353544 -1.2626262626262625,0.4545454545454551 -1.2626262626262625,0.5555555555555567 -1.2626262626262625,0.6565656565656574 -1.2626262626262625,0.7575757575757579 -1.2626262626262625,0.8585858585858596 -1.2626262626262625,0.9595959595959602 -1.2626262626262625,1.0606060606060617 -1.2626262626262625,1.1616161616161622 -1.2626262626262625,1.262626262626263 -1.2626262626262625,1.3636363636363644 -1.2626262626262625,1.4646464646464652 -1.2626262626262625,1.5656565656565666 -1.2626262626262625,1.6666666666666674 -1.2626262626262625,1.767676767676768 -1.2626262626262625,1.8686868686868696 -1.2626262626262625,1.9696969696969702 -1.2626262626262625,2.070707070707072 -1.2626262626262625,2.1717171717171726 -1.2626262626262625,2.2727272727272734 -1.2626262626262625,2.373737373737375 -1.2626262626262625,2.4747474747474754 -1.2626262626262625,2.575757575757577 -1.2626262626262625,2.676767676767678 -1.2626262626262625,2.7777777777777786 -1.2626262626262625,2.87878787878788 -1.2626262626262625,2.9797979797979806 -1.2626262626262625,3.080808080808082 -1.2626262626262625,3.181818181818183 -1.2626262626262625,3.2828282828282833 -1.2626262626262625,3.383838383838384 -1.2626262626262625,3.4848484848484866 -1.2626262626262625,3.5858585858585874 -1.2626262626262625,3.6868686868686877 -1.2626262626262625,3.7878787878787885 -1.2626262626262625,3.8888888888888893 -1.2626262626262625,3.989898989898992" data-type="line" data-label="" points="478.62626262626264,984 469.09090909090907,974.4646464646464 459.55555555555554,964.9292929292928 450.0202020202021,955.3939393939394 440.4848484848485,945.8585858585858 430.949494949495,936.3232323232323 421.4141414141414,926.7878787878788 411.8787878787879,917.2525252525252 402.34343434343435,907.7171717171718 392.80808080808083,898.1818181818181 392.80808080808083,888.6464646464647 392.80808080808083,879.1111111111111 392.80808080808083,869.5757575757575 392.80808080808083,860.0404040404039 392.80808080808083,850.5050505050505 392.80808080808083,840.969696969697 392.80808080808083,831.4343434343434 392.80808080808083,821.8989898989898 392.80808080808083,812.3636363636363 392.80808080808083,802.8282828282828 392.80808080808083,793.2929292929292 392.80808080808083,783.7575757575758 392.80808080808083,774.2222222222222 392.80808080808083,764.6868686868687 392.80808080808083,755.1515151515151 392.80808080808083,745.6161616161615 392.80808080808083,736.0808080808081 392.80808080808083,726.5454545454545 392.80808080808083,717.010101010101 392.80808080808083,707.4747474747475 392.80808080808083,697.939393939394 392.80808080808083,688.4040404040404 392.80808080808083,678.8686868686868 392.80808080808083,669.3333333333334 392.80808080808083,659.7979797979798 392.80808080808083,650.2626262626263 392.80808080808083,640.7272727272727 392.80808080808083,631.1919191919193 392.80808080808083,621.6565656565657 392.80808080808083,612.1212121212121 392.80808080808083,602.5858585858587 392.80808080808083,593.0505050505051 392.80808080808083,583.5151515151516 392.80808080808083,573.979797979798 392.80808080808083,564.4444444444445 392.80808080808083,554.909090909091 392.80808080808083,545.3737373737374 392.80808080808083,535.838383838384 392.80808080808083,526.3030303030304 392.80808080808083,516.7676767676768 392.80808080808083,507.23232323232327 392.80808080808083,497.69696969696975 392.80808080808083,488.1616161616163 392.80808080808083,478.6262626262627 392.80808080808083,469.0909090909092 392.80808080808083,459.5555555555556 392.80808080808083,450.0202020202021 392.80808080808083,440.4848484848486 392.80808080808083,430.94949494949503 392.80808080808083,421.4141414141415 392.80808080808083,411.87878787878793 392.80808080808083,402.3434343434344 392.80808080808083,392.80808080808094 392.80808080808083,383.27272727272737 392.80808080808083,373.73737373737384 392.80808080808083,364.2020202020203 392.80808080808083,354.66666666666674 392.80808080808083,345.1313131313133 392.80808080808083,335.5959595959597 392.80808080808083,326.06060606060623 392.80808080808083,316.5252525252526 392.80808080808083,306.9898989898991 392.80808080808083,297.4545454545456 392.80808080808083,287.91919191919203 392.80808080808083,278.38383838383857 392.80808080808083,268.84848484848493 392.80808080808083,259.3131313131314 392.80808080808083,249.77777777777794 392.80808080808083,240.24242424242436 392.80808080808083,230.70707070707084 392.80808080808083,221.17171717171726 392.80808080808083,211.63636363636374 392.80808080808083,202.10101010101027 392.80808080808083,192.56565656565675 392.80808080808083,183.03030303030312 392.80808080808083,173.4949494949496 392.80808080808083,163.95959595959613 392.80808080808083,154.4242424242426 392.80808080808083,144.88888888888908 392.80808080808083,135.35353535353545" fill="none" stroke="rgba(0,0,255,0.75)" stroke-width="14.159999999999995"/></g><g><polyline data-points="-1.2626262626262625,3.989898989898992 -1.2626262626262625,4.090909090909092 -1.2626262626262625,4.191919191919193 -1.2626262626262625,4.292929292929293 -1.2626262626262625,4.393939393939394 -1.2626262626262625,4.494949494949497 -1.2626262626262625,4.595959595959597 -1.2626262626262625,4.696969696969697 -1.2626262626262625,4.7979797979797985 -1.2626262626262625,4.898989898989901 -1.2626262626262625,5.000000000000002" data-type="line" data-label="" points="392.80808080808083,135.35353535353545 392.80808080808083,125.81818181818198 392.80808080808083,116.28282828282846 392.80808080808083,106.747474747475 392.80808080808083,97.21212121212153 392.80808080808083,87.67676767676778 392.80808080808083,78.14141414141432 392.80808080808083,68.60606060606085 392.80808080808083,59.07070707070733 392.80808080808083,49.53535353535369 392.80808080808083,40.000000000000114" fill="none" stroke="rgba(255,0,0,0.75)" stroke-width="14.159999999999995"/></g><g><polyline data-points="-5.000000000000001,-1.7676767676767675 -4.898989898989899,-1.8686868686868683 -4.7979797979797985,-1.9696969696969693 -4.696969696969697,-2.07070707070707 -4.595959595959596,-2.1717171717171713 -4.494949494949496,-2.2727272727272725 -4.393939393939394,-2.3737373737373733 -4.292929292929293,-2.474747474747474 -4.191919191919193,-2.5757575757575752 -4.090909090909091,-2.6767676767676765 -3.98989898989899,-2.7777777777777777 -3.8888888888888884,-2.8787878787878785 -3.7878787878787876,-2.9797979797979792 -3.6868686868686864,-3.0808080808080804 -3.5858585858585856,-3.1818181818181817 -3.484848484848485,-3.2828282828282824 -3.383838383838383,-3.383838383838383 -3.2828282828282824,-3.484848484848485 -3.1818181818181817,-3.5858585858585856 -3.0808080808080804,-3.6868686868686864 -2.9797979797979792,-3.7878787878787876 -2.8787878787878785,-3.8888888888888884 -2.7777777777777777,-3.98989898989899 -2.6767676767676765,-3.98989898989899 -2.5757575757575752,-3.98989898989899 -2.474747474747474,-3.98989898989899 -2.3737373737373733,-3.98989898989899 -2.2727272727272725,-3.98989898989899 -2.1717171717171713,-3.98989898989899 -2.07070707070707,-3.98989898989899 -1.9696969696969693,-3.98989898989899 -1.8686868686868683,-3.98989898989899 -1.7676767676767675,-3.98989898989899 -1.6666666666666665,-3.98989898989899 -1.5656565656565653,-3.98989898989899 -1.4646464646464643,-3.98989898989899 -1.363636363636363,-3.98989898989899 -1.2626262626262625,-3.98989898989899 -1.1616161616161613,-3.98989898989899 -1.0606060606060603,-3.98989898989899 -0.9595959595959596,-3.98989898989899 -0.8585858585858579,-3.98989898989899 -0.7575757575757572,-3.98989898989899 -0.6565656565656557,-3.98989898989899 -0.555555555555555,-3.98989898989899 -0.4545454545454544,-3.98989898989899 -0.35353535353535287,-3.98989898989899 -0.2525252525252522,-3.98989898989899 -0.15151515151515066,-3.98989898989899 -0.05050505050505001,-3.98989898989899 0.050505050505051545,-3.98989898989899 0.1515151515151522,-3.98989898989899 0.2525252525252529,-3.98989898989899 0.3535353535353544,-3.98989898989899 0.4545454545454551,-3.98989898989899 0.5555555555555567,-3.98989898989899 0.6565656565656574,-3.98989898989899 0.7575757575757579,-3.98989898989899 0.8585858585858596,-3.98989898989899 0.9595959595959602,-3.98989898989899 1.0606060606060617,-3.98989898989899 1.1616161616161622,-3.98989898989899 1.262626262626263,-3.98989898989899 1.3636363636363644,-3.98989898989899 1.4646464646464652,-3.98989898989899 1.5656565656565666,-3.98989898989899 1.6666666666666674,-3.98989898989899 1.767676767676768,-3.98989898989899 1.8686868686868696,-3.98989898989899 1.9696969696969702,-3.98989898989899 2.070707070707072,-3.98989898989899 2.1717171717171726,-3.98989898989899 2.2727272727272734,-3.98989898989899 2.373737373737375,-3.98989898989899 2.4747474747474754,-3.98989898989899 2.575757575757577,-3.98989898989899 2.676767676767678,-3.98989898989899 2.7777777777777786,-3.98989898989899 2.87878787878788,-3.98989898989899 2.9797979797979806,-3.98989898989899 3.080808080808082,-3.98989898989899 3.181818181818183,-3.98989898989899 3.2828282828282833,-3.98989898989899 3.383838383838384,-3.98989898989899 3.4848484848484866,-3.98989898989899 3.5858585858585874,-3.98989898989899 3.6868686868686877,-3.98989898989899 3.7878787878787885,-3.98989898989899" data-type="line" data-label="" points="40.00000000000006,678.8686868686868 49.53535353535369,688.4040404040404 59.07070707070716,697.939393939394 68.60606060606068,707.4747474747475 78.14141414141426,717.010101010101 87.67676767676772,726.5454545454545 97.21212121212136,736.0808080808081 106.74747474747483,745.6161616161615 116.28282828282829,755.1515151515151 125.81818181818193,764.6868686868687 135.35353535353545,774.2222222222222 144.88888888888903,783.7575757575758 154.42424242424255,793.2929292929292 163.95959595959607,802.8282828282828 173.4949494949496,812.3636363636363 183.03030303030312,821.8989898989898 192.5656565656567,831.4343434343434 202.10101010101022,840.969696969697 211.63636363636374,850.5050505050505 221.17171717171726,860.0404040404039 230.70707070707084,869.5757575757575 240.2424242424243,879.1111111111111 249.77777777777783,888.6464646464647 259.3131313131314,888.6464646464647 268.84848484848493,888.6464646464647 278.38383838383845,888.6464646464647 287.91919191919203,888.6464646464647 297.4545454545455,888.6464646464647 306.9898989898991,888.6464646464647 316.5252525252526,888.6464646464647 326.0606060606061,888.6464646464647 335.59595959595964,888.6464646464647 345.13131313131316,888.6464646464647 354.6666666666667,888.6464646464647 364.2020202020202,888.6464646464647 373.7373737373738,888.6464646464647 383.2727272727273,888.6464646464647 392.80808080808083,888.6464646464647 402.34343434343435,888.6464646464647 411.8787878787879,888.6464646464647 421.4141414141414,888.6464646464647 430.949494949495,888.6464646464647 440.4848484848485,888.6464646464647 450.0202020202021,888.6464646464647 459.55555555555554,888.6464646464647 469.09090909090907,888.6464646464647 478.62626262626264,888.6464646464647 488.16161616161617,888.6464646464647 497.69696969696975,888.6464646464647 507.2323232323232,888.6464646464647 516.7676767676768,888.6464646464647 526.3030303030303,888.6464646464647 535.8383838383838,888.6464646464647 545.3737373737374,888.6464646464647 554.9090909090909,888.6464646464647 564.4444444444445,888.6464646464647 573.9797979797979,888.6464646464647 583.5151515151515,888.6464646464647 593.0505050505051,888.6464646464647 602.5858585858585,888.6464646464647 612.1212121212121,888.6464646464647 621.6565656565656,888.6464646464647 631.1919191919192,888.6464646464647 640.7272727272727,888.6464646464647 650.2626262626262,888.6464646464647 659.7979797979798,888.6464646464647 669.3333333333333,888.6464646464647 678.8686868686868,888.6464646464647 688.4040404040404,888.6464646464647 697.9393939393939,888.6464646464647 707.4747474747475,888.6464646464647 717.0101010101009,888.6464646464647 726.5454545454545,888.6464646464647 736.0808080808081,888.6464646464647 745.6161616161615,888.6464646464647 755.1515151515151,888.6464646464647 764.6868686868686,888.6464646464647 774.2222222222222,888.6464646464647 783.7575757575758,888.6464646464647 793.2929292929292,888.6464646464647 802.8282828282828,888.6464646464647 812.3636363636363,888.6464646464647 821.8989898989898,888.6464646464647 831.4343434343433,888.6464646464647 840.969696969697,888.6464646464647 850.5050505050505,888.6464646464647 860.0404040404039,888.6464646464647 869.5757575757575,888.6464646464647" fill="none" stroke="rgba(255,0,0,0.75)" stroke-width="14.159999999999995"/></g><g><polyline data-points="3.7878787878787885,-3.98989898989899 3.8888888888888893,-4.090909090909091 3.989898989898992,-4.191919191919193 4.090909090909092,-4.292929292929293 4.191919191919193,-4.393939393939394 4.292929292929293,-4.494949494949496 4.393939393939394,-4.494949494949496 4.494949494949497,-4.494949494949496 4.595959595959597,-4.494949494949496 4.696969696969697,-4.494949494949496 4.7979797979797985,-4.494949494949496 4.898989898989901,-4.494949494949496 5.000000000000002,-4.494949494949496" data-type="line" data-label="" points="869.5757575757575,888.6464646464647 879.111111111111,898.1818181818181 888.6464646464647,907.7171717171718 898.181818181818,917.2525252525252 907.7171717171716,926.7878787878788 917.2525252525251,936.3232323232323 926.7878787878785,936.3232323232323 936.3232323232323,936.3232323232323 945.8585858585857,936.3232323232323 955.3939393939393,936.3232323232323 964.9292929292927,936.3232323232323 974.4646464646464,936.3232323232323 984,936.3232323232323" fill="none" stroke="rgba(0,0,255,0.75)" stroke-width="14.159999999999995"/></g><g><polyline data-points="-5.000000000000001,-2.9797979797979792 -4.898989898989899,-3.0808080808080804 -4.7979797979797985,-3.1818181818181817 -4.696969696969697,-3.2828282828282824 -4.595959595959596,-3.383838383838383 -4.494949494949496,-3.383838383838383 -4.393939393939394,-3.383838383838383 -4.292929292929293,-3.383838383838383 -4.191919191919193,-3.383838383838383 -4.090909090909091,-3.383838383838383 -3.98989898989899,-3.383838383838383 -3.8888888888888884,-3.383838383838383 -3.7878787878787876,-3.383838383838383 -3.6868686868686864,-3.383838383838383 -3.5858585858585856,-3.383838383838383 -3.484848484848485,-3.383838383838383 -3.383838383838383,-3.383838383838383 -3.2828282828282824,-3.383838383838383 -3.1818181818181817,-3.383838383838383 -3.0808080808080804,-3.383838383838383 -2.9797979797979792,-3.383838383838383 -2.8787878787878785,-3.383838383838383 -2.7777777777777777,-3.383838383838383 -2.6767676767676765,-3.383838383838383 -2.5757575757575752,-3.383838383838383 -2.474747474747474,-3.383838383838383 -2.3737373737373733,-3.383838383838383 -2.2727272727272725,-3.383838383838383 -2.1717171717171713,-3.383838383838383 -2.07070707070707,-3.383838383838383 -1.9696969696969693,-3.383838383838383 -1.8686868686868683,-3.383838383838383" data-type="line" data-label="" points="40.00000000000006,793.2929292929292 49.53535353535369,802.8282828282828 59.07070707070716,812.3636363636363 68.60606060606068,821.8989898989898 78.14141414141426,831.4343434343434 87.67676767676772,831.4343434343434 97.21212121212136,831.4343434343434 106.74747474747483,831.4343434343434 116.28282828282829,831.4343434343434 125.81818181818193,831.4343434343434 135.35353535353545,831.4343434343434 144.88888888888903,831.4343434343434 154.42424242424255,831.4343434343434 163.95959595959607,831.4343434343434 173.4949494949496,831.4343434343434 183.03030303030312,831.4343434343434 192.5656565656567,831.4343434343434 202.10101010101022,831.4343434343434 211.63636363636374,831.4343434343434 221.17171717171726,831.4343434343434 230.70707070707084,831.4343434343434 240.2424242424243,831.4343434343434 249.77777777777783,831.4343434343434 259.3131313131314,831.4343434343434 268.84848484848493,831.4343434343434 278.38383838383845,831.4343434343434 287.91919191919203,831.4343434343434 297.4545454545455,831.4343434343434 306.9898989898991,831.4343434343434 316.5252525252526,831.4343434343434 326.0606060606061,831.4343434343434 335.59595959595964,831.4343434343434" fill="none" stroke="rgba(0,0,255,0.75)" stroke-width="14.159999999999995"/></g><g><polyline data-points="-1.8686868686868683,-3.383838383838383 -1.7676767676767675,-3.383838383838383 -1.6666666666666665,-3.383838383838383 -1.5656565656565653,-3.383838383838383 -1.4646464646464643,-3.383838383838383 -1.363636363636363,-3.383838383838383 -1.2626262626262625,-3.383838383838383 -1.1616161616161613,-3.383838383838383 -1.0606060606060603,-3.383838383838383 -0.9595959595959596,-3.383838383838383 -0.8585858585858579,-3.383838383838383 -0.7575757575757572,-3.383838383838383 -0.6565656565656557,-3.383838383838383 -0.555555555555555,-3.383838383838383 -0.4545454545454544,-3.383838383838383 -0.35353535353535287,-3.383838383838383 -0.2525252525252522,-3.383838383838383 -0.15151515151515066,-3.383838383838383 -0.05050505050505001,-3.383838383838383 0.050505050505051545,-3.383838383838383 0.1515151515151522,-3.383838383838383 0.2525252525252529,-3.383838383838383 0.3535353535353544,-3.383838383838383 0.4545454545454551,-3.383838383838383 0.5555555555555567,-3.383838383838383 0.6565656565656574,-3.383838383838383 0.7575757575757579,-3.383838383838383 0.8585858585858596,-3.383838383838383 0.9595959595959602,-3.383838383838383 1.0606060606060617,-3.383838383838383 1.1616161616161622,-3.383838383838383 1.262626262626263,-3.383838383838383 1.3636363636363644,-3.383838383838383 1.4646464646464652,-3.383838383838383 1.5656565656565666,-3.383838383838383 1.6666666666666674,-3.383838383838383 1.767676767676768,-3.383838383838383 1.8686868686868696,-3.383838383838383 1.9696969696969702,-3.383838383838383 2.070707070707072,-3.383838383838383 2.1717171717171726,-3.383838383838383 2.2727272727272734,-3.383838383838383 2.373737373737375,-3.383838383838383 2.4747474747474754,-3.383838383838383 2.575757575757577,-3.383838383838383 2.676767676767678,-3.383838383838383 2.7777777777777786,-3.383838383838383 2.87878787878788,-3.383838383838383 2.9797979797979806,-3.383838383838383 3.080808080808082,-3.383838383838383 3.181818181818183,-3.383838383838383 3.2828282828282833,-3.383838383838383" data-type="line" data-label="" points="335.59595959595964,831.4343434343434 345.13131313131316,831.4343434343434 354.6666666666667,831.4343434343434 364.2020202020202,831.4343434343434 373.7373737373738,831.4343434343434 383.2727272727273,831.4343434343434 392.80808080808083,831.4343434343434 402.34343434343435,831.4343434343434 411.8787878787879,831.4343434343434 421.4141414141414,831.4343434343434 430.949494949495,831.4343434343434 440.4848484848485,831.4343434343434 450.0202020202021,831.4343434343434 459.55555555555554,831.4343434343434 469.09090909090907,831.4343434343434 478.62626262626264,831.4343434343434 488.16161616161617,831.4343434343434 497.69696969696975,831.4343434343434 507.2323232323232,831.4343434343434 516.7676767676768,831.4343434343434 526.3030303030303,831.4343434343434 535.8383838383838,831.4343434343434 545.3737373737374,831.4343434343434 554.9090909090909,831.4343434343434 564.4444444444445,831.4343434343434 573.9797979797979,831.4343434343434 583.5151515151515,831.4343434343434 593.0505050505051,831.4343434343434 602.5858585858585,831.4343434343434 612.1212121212121,831.4343434343434 621.6565656565656,831.4343434343434 631.1919191919192,831.4343434343434 640.7272727272727,831.4343434343434 650.2626262626262,831.4343434343434 659.7979797979798,831.4343434343434 669.3333333333333,831.4343434343434 678.8686868686868,831.4343434343434 688.4040404040404,831.4343434343434 697.9393939393939,831.4343434343434 707.4747474747475,831.4343434343434 717.0101010101009,831.4343434343434 726.5454545454545,831.4343434343434 736.0808080808081,831.4343434343434 745.6161616161615,831.4343434343434 755.1515151515151,831.4343434343434 764.6868686868686,831.4343434343434 774.2222222222222,831.4343434343434 783.7575757575758,831.4343434343434 793.2929292929292,831.4343434343434 802.8282828282828,831.4343434343434 812.3636363636363,831.4343434343434 821.8989898989898,831.4343434343434" fill="none" stroke="rgba(255,0,0,0.75)" stroke-width="14.159999999999995"/></g><g><polyline data-points="3.2828282828282833,-3.383838383838383 3.383838383838384,-3.383838383838383 3.4848484848484866,-3.383838383838383 3.5858585858585874,-3.383838383838383 3.6868686868686877,-3.383838383838383 3.7878787878787885,-3.383838383838383 3.8888888888888893,-3.383838383838383 3.989898989898992,-3.383838383838383 4.090909090909092,-3.383838383838383 4.191919191919193,-3.383838383838383 4.292929292929293,-3.383838383838383 4.393939393939394,-3.383838383838383 4.494949494949497,-3.383838383838383 4.595959595959597,-3.383838383838383 4.696969696969697,-3.383838383838383 4.7979797979797985,-3.383838383838383 4.898989898989901,-3.383838383838383 5.000000000000002,-3.383838383838383" data-type="line" data-label="" points="821.8989898989898,831.4343434343434 831.4343434343433,831.4343434343434 840.969696969697,831.4343434343434 850.5050505050505,831.4343434343434 860.0404040404039,831.4343434343434 869.5757575757575,831.4343434343434 879.111111111111,831.4343434343434 888.6464646464647,831.4343434343434 898.181818181818,831.4343434343434 907.7171717171716,831.4343434343434 917.2525252525251,831.4343434343434 926.7878787878785,831.4343434343434 936.3232323232323,831.4343434343434 945.8585858585857,831.4343434343434 955.3939393939393,831.4343434343434 964.9292929292927,831.4343434343434 974.4646464646464,831.4343434343434 984,831.4343434343434" fill="none" stroke="rgba(0,0,255,0.75)" stroke-width="14.159999999999995"/></g><g><rect data-type="rect" data-label="" data-x="0" data-y="0" x="40.000000000000114" y="40.000000000000284" width="943.9999999999997" height="943.9999999999998" fill="none" stroke="gray" stroke-width="0.010593220338983056"/></g><g><rect data-type="rect" data-label="" data-x="0" data-y="0" x="40.000000000000114" y="40.000000000000284" width="943.9999999999997" height="943.9999999999998" fill="none" stroke="rgba(15, 23, 42, 0.8)" stroke-width="0.010593220338983056"/></g><circle data-type="circle" data-label="" data-x="-1.2626262626262625" data-y="3.989898989898992" cx="392.80808080808083" cy="135.35353535353545" r="28.791999999999987" fill="rgba(0,0,0,0.3)" stroke="black" stroke-width="0.010593220338983056"/><circle data-type="circle" data-label="" data-x="3.7878787878787885" data-y="-3.98989898989899" cx="869.5757575757575" cy="888.6464646464647" r="28.791999999999987" fill="rgba(0,0,0,0.3)" stroke="black" stroke-width="0.010593220338983056"/><circle data-type="circle" data-label="" data-x="-1.8686868686868683" data-y="-3.383838383838383" cx="335.59595959595964" cy="831.4343434343434" r="28.791999999999987" fill="rgba(0,0,0,0.3)" stroke="black" stroke-width="0.010593220338983056"/><circle data-type="circle" data-label="" data-x="3.2828282828282833" data-y="-3.383838383838383" cx="821.8989898989898" cy="831.4343434343434" r="28.791999999999987" fill="rgba(0,0,0,0.3)" stroke="black" stroke-width="0.010593220338983056"/><g id="crosshair" style="display: none"><line id="crosshair-h" y1="0" y2="1024" stroke="#666" stroke-width="0.5"/><line id="crosshair-v" x1="0" x2="1024" stroke="#666" stroke-width="0.5"/><text id="coordinates" font-family="monospace" font-size="12" fill="#666"></text></g><script><![CDATA[
              document.currentScript.parentElement.addEventListener('mousemove', (e) => {
                const svg = e.currentTarget;
                const rect = svg.getBoundingClientRect();
                const x = e.clientX - rect.left;
                const y = e.clientY - rect.top;
                const crosshair = svg.getElementById('crosshair');
                const h = svg.getElementById('crosshair-h');
                const v = svg.getElementById('crosshair-v');
                const coords = svg.getElementById('coordinates');
                
                crosshair.style.display = 'block';
                h.setAttribute('x1', '0');
                h.setAttribute('x2', '1024');
                h.setAttribute('y1', y);
                h.setAttribute('y2', y);
                v.setAttribute('x1', x);
                v.setAttribute('x2', x);
                v.setAttribute('y1', '0');
                v.setAttribute('y2', '1024');

                // Calculate real coordinates using inverse transformation
                const matrix = {"a":94.39999999999996,"c":0,"e":511.99999999999994,"b":0,"d":-94.39999999999996,"f":512.0000000000001};
                // Manually invert and apply the affine transform
                // Since we only use translate and scale, we can directly compute:
                // x' = (x - tx) / sx
                // y' = (y - ty) / sy
                const sx = matrix.a;
                const sy = matrix.d;
                const tx = matrix.e; 
                const ty = matrix.f;
                const realPoint = {
                  x: (x - tx) / sx,
                  y: (y - ty) / sy // Flip y back since we used negative scale
                }
                
                coords.textContent = `(${realPoint.x.toFixed(2)}, ${realPoint.y.toFixed(2)})`;
                coords.setAttribute('x', (x + 5).toString());
                coords.setAttribute('y', (y - 5).toString());
              });
              document.currentScript.parentElement.addEventListener('mouseleave', () => {
                document.currentScript.parentElement.getElementById('crosshair').style.display = 'none';
              });
            ]]></script></svg>