<svg width="1024" height="1024" viewBox="0 0 1024 1024" xmlns="http://www.w3.org/2000/svg"><rect width="100%" height="100%" fill="white"/><g><circle data-type="point" data-label="conn_000" data-x="-4.72" data-y="5" cx="66.43200000000013" cy="40.000000000000284" r="28.792" fill="blue" stroke="#bd0f6d" stroke-width="28.792"/></g><g><circle data-type="point" data-label="conn_000" data-x="-2.04" data-y="-5" cx="319.424" cy="984" r="28.792" fill="red" stroke="#bd0f6d" stroke-width="28.792"/></g><g><circle data-type="point" data-label="conn_001" data-x="-5" data-y="-2.94" cx="40.000000000000114" cy="789.5360000000001" r="28.792" fill="blue" stroke="#3bbd0f" stroke-width="28.792"/></g><g><circle data-type="point" data-label="conn_001" data-x="-2.96" data-y="5" cx="232.57600000000008" cy="40.000000000000284" r="28.792" fill="red" stroke="#3bbd0f" stroke-width="28.792"/></g><g><circle data-type="point" data-label="conn_002" data-x="4.18" data-y="5" cx="906.5919999999998" cy="40.000000000000284" r="28.792" fill="blue" stroke="#170fbd" stroke-width="28.792"/></g><g><circle data-type="point" data-label="conn_002" data-x="-5" data-y="3.94" cx="40.000000000000114" cy="140.06400000000025" r="28.792" fill="blue" stroke="#170fbd" stroke-width="28.792"/></g><g><circle data-type="point" data-label="conn_003" data-x="-5" data-y="-3.9" cx="40.000000000000114" cy="880.16" r="28.792" fill="red" stroke="#bd490f" stroke-width="28.792"/></g><g><circle data-type="point" data-label="conn_003" data-x="5" data-y="3" cx="983.9999999999998" cy="228.80000000000024" r="28.792" fill="red" stroke="#bd490f" stroke-width="28.792"/></g><g><circle data-type="point" data-label="conn_004" data-x="4.58" data-y="-5" cx="944.3519999999999" cy="984" r="28.792" fill="blue" stroke="#0fbd7c" stroke-width="28.792"/></g><g><circle data-type="point" data-label="conn_004" data-x="2.42" data-y="5" cx="740.4479999999999" cy="40.000000000000284" r="28.792" fill="blue" stroke="#0fbd7c" stroke-width="28.792"/></g><g><circle data-type="point" data-label="conn_005" data-x="-2.32" data-y="5" cx="292.9920000000001" cy="40.000000000000284" r="28.792" fill="red" stroke="#ae0fbd" stroke-width="28.792"/></g><g><circle data-type="point" data-label="conn_005" data-x="5" data-y="0.12" cx="983.9999999999998" cy="500.67200000000014" r="28.792" fill="red" stroke="#ae0fbd" stroke-width="28.792"/></g><g><circle data-type="point" data-label="conn_006" data-x="0.84" data-y="-5" cx="591.2959999999999" cy="984" r="28.792" fill="red" stroke="#98bd0f" stroke-width="28.792"/></g><g><circle data-type="point" data-label="conn_006" data-x="3.2600000000000002" data-y="5" cx="819.7439999999999" cy="40.000000000000284" r="28.792" fill="blue" stroke="#98bd0f" stroke-width="28.792"/></g><g><polyline data-points="-2.3737373737373733,5.000000000000002 -2.2727272727272725,4.898989898989901 -2.1717171717171713,4.7979797979797985 -2.07070707070707,4.696969696969697 -1.9696969696969693,4.595959595959597 -1.8686868686868683,4.494949494949497 -1.7676767676767675,4.393939393939394 -1.6666666666666665,4.292929292929293 -1.5656565656565653,4.191919191919193 -1.4646464646464643,4.090909090909092 -1.363636363636363,3.989898989898992 -1.2626262626262625,3.8888888888888893 -1.1616161616161613,3.7878787878787885 -1.0606060606060603,3.6868686868686877 -0.9595959595959596,3.5858585858585874 -0.8585858585858579,3.4848484848484866 -0.7575757575757572,3.383838383838384 -0.6565656565656557,3.2828282828282833 -0.555555555555555,3.181818181818183 -0.4545454545454544,3.080808080808082 -0.35353535353535287,2.9797979797979806 -0.2525252525252522,2.87878787878788 -0.15151515151515066,2.7777777777777786 -0.05050505050505001,2.676767676767678 0.050505050505051545,2.575757575757577 0.1515151515151522,2.4747474747474754 0.2525252525252529,2.373737373737375 0.3535353535353544,2.2727272727272734 0.4545454545454551,2.1717171717171726 0.5555555555555567,2.070707070707072 0.6565656565656574,1.9696969696969702 0.7575757575757579,1.8686868686868696 0.8585858585858596,1.767676767676768 0.9595959595959602,1.6666666666666674 1.0606060606060617,1.5656565656565666 1.1616161616161622,1.4646464646464652 1.262626262626263,1.3636363636363644 1.3636363636363644,1.262626262626263 1.4646464646464652,1.1616161616161622 1.5656565656565666,1.0606060606060617 1.6666666666666674,0.9595959595959602 1.767676767676768,0.8585858585858596 1.8686868686868696,0.7575757575757579 1.9696969696969702,0.6565656565656574 2.070707070707072,0.5555555555555567 2.1717171717171726,0.4545454545454551 2.2727272727272734,0.3535353535353544 2.373737373737375,0.2525252525252529 2.4747474747474754,0.1515151515151522 2.575757575757577,0.1515151515151522 2.676767676767678,0.1515151515151522 2.7777777777777786,0.1515151515151522 2.87878787878788,0.1515151515151522 2.9797979797979806,0.1515151515151522 3.080808080808082,0.1515151515151522 3.181818181818183,0.1515151515151522 3.2828282828282833,0.1515151515151522 3.383838383838384,0.1515151515151522 3.4848484848484866,0.1515151515151522 3.5858585858585874,0.1515151515151522 3.6868686868686877,0.1515151515151522 3.7878787878787885,0.1515151515151522 3.8888888888888893,0.1515151515151522 3.989898989898992,0.1515151515151522 4.090909090909092,0.1515151515151522 4.191919191919193,0.1515151515151522 4.292929292929293,0.1515151515151522 4.393939393939394,0.1515151515151522 4.494949494949497,0.1515151515151522 4.595959595959597,0.1515151515151522 4.696969696969697,0.1515151515151522 4.7979797979797985,0.1515151515151522 4.898989898989901,0.1515151515151522 5.000000000000002,0.1515151515151522" data-type="line" data-label="" points="287.91919191919203,40.000000000000114 297.4545454545455,49.53535353535369 306.9898989898991,59.07070707070733 316.5252525252526,68.60606060606085 326.0606060606061,78.14141414141432 335.59595959595964,87.67676767676778 345.13131313131316,97.21212121212153 354.6666666666667,106.747474747475 364.2020202020202,116.28282828282846 373.7373737373738,125.81818181818198 383.2727272727273,135.35353535353545 392.80808080808083,144.88888888888908 402.34343434343435,154.4242424242426 411.8787878787879,163.95959595959613 421.4141414141414,173.4949494949496 430.949494949495,183.03030303030312 440.4848484848485,192.56565656565675 450.0202020202021,202.10101010101027 459.55555555555554,211.63636363636374 469.09090909090907,221.17171717171726 478.62626262626264,230.70707070707084 488.16161616161617,240.24242424242436 497.69696969696975,249.77777777777794 507.2323232323232,259.3131313131314 516.7676767676768,268.84848484848493 526.3030303030303,278.38383838383857 535.8383838383838,287.91919191919203 545.3737373737374,297.4545454545456 554.9090909090909,306.9898989898991 564.4444444444445,316.5252525252526 573.9797979797979,326.06060606060623 583.5151515151515,335.5959595959597 593.0505050505051,345.1313131313133 602.5858585858585,354.66666666666674 612.1212121212121,364.2020202020203 621.6565656565656,373.73737373737384 631.1919191919192,383.27272727272737 640.7272727272727,392.80808080808094 650.2626262626262,402.3434343434344 659.7979797979798,411.87878787878793 669.3333333333333,421.4141414141415 678.8686868686868,430.94949494949503 688.4040404040404,440.4848484848486 697.9393939393939,450.0202020202021 707.4747474747475,459.5555555555556 717.0101010101009,469.0909090909092 726.5454545454545,478.6262626262627 736.0808080808081,488.1616161616163 745.6161616161615,497.69696969696975 755.1515151515151,497.69696969696975 764.6868686868686,497.69696969696975 774.2222222222222,497.69696969696975 783.7575757575758,497.69696969696975 793.2929292929292,497.69696969696975 802.8282828282828,497.69696969696975 812.3636363636363,497.69696969696975 821.8989898989898,497.69696969696975 831.4343434343433,497.69696969696975 840.969696969697,497.69696969696975 850.5050505050505,497.69696969696975 860.0404040404039,497.69696969696975 869.5757575757575,497.69696969696975 879.111111111111,497.69696969696975 888.6464646464647,497.69696969696975 898.181818181818,497.69696969696975 907.7171717171716,497.69696969696975 917.2525252525251,497.69696969696975 926.7878787878785,497.69696969696975 936.3232323232323,497.69696969696975 945.8585858585857,497.69696969696975 955.3939393939393,497.69696969696975 964.9292929292927,497.69696969696975 974.4646464646464,497.69696969696975 984,497.69696969696975" fill="none" stroke="rgba(255,0,0,0.75)" stroke-width="14.159999999999995"/></g><g><polyline data-points="-5.000000000000001,-3.8888888888888884 -4.898989898989899,-3.7878787878787876 -4.7979797979797985,-3.6868686868686864 -4.696969696969697,-3.5858585858585856 -4.595959595959596,-3.484848484848485 -4.494949494949496,-3.383838383838383 -4.393939393939394,-3.2828282828282824 -4.292929292929293,-3.1818181818181817 -4.191919191919193,-3.0808080808080804 -4.090909090909091,-2.9797979797979792 -3.98989898989899,-2.8787878787878785 -3.8888888888888884,-2.7777777777777777 -3.7878787878787876,-2.6767676767676765 -3.6868686868686864,-2.5757575757575752 -3.5858585858585856,-2.474747474747474 -3.484848484848485,-2.3737373737373733 -3.383838383838383,-2.2727272727272725 -3.2828282828282824,-2.1717171717171713 -3.1818181818181817,-2.07070707070707 -3.0808080808080804,-1.9696969696969693 -2.9797979797979792,-1.8686868686868683 -2.8787878787878785,-1.7676767676767675 -2.7777777777777777,-1.6666666666666665 -2.6767676767676765,-1.5656565656565653 -2.5757575757575752,-1.4646464646464643 -2.474747474747474,-1.363636363636363 -2.3737373737373733,-1.2626262626262625 -2.2727272727272725,-1.1616161616161613 -2.1717171717171713,-1.0606060606060603 -2.07070707070707,-0.9595959595959596 -1.9696969696969693,-0.8585858585858579 -1.8686868686868683,-0.7575757575757572 -1.7676767676767675,-0.6565656565656557 -1.6666666666666665,-0.555555555555555 -1.5656565656565653,-0.4545454545454544 -1.4646464646464643,-0.35353535353535287 -1.363636363636363,-0.2525252525252522 -1.2626262626262625,-0.15151515151515066 -1.1616161616161613,-0.05050505050505001 -1.0606060606060603,0.050505050505051545 -0.9595959595959596,0.1515151515151522 -0.8585858585858579,0.2525252525252529 -0.7575757575757572,0.3535353535353544 -0.6565656565656557,0.4545454545454551 -0.555555555555555,0.5555555555555567 -0.4545454545454544,0.6565656565656574 -0.35353535353535287,0.7575757575757579 -0.2525252525252522,0.8585858585858596 -0.15151515151515066,0.9595959595959602 -0.05050505050505001,1.0606060606060617 0.050505050505051545,1.1616161616161622 0.1515151515151522,1.262626262626263 0.2525252525252529,1.3636363636363644 0.3535353535353544,1.4646464646464652" data-type="line" data-label="" points="40.00000000000006,879.1111111111111 49.53535353535369,869.5757575757575 59.07070707070716,860.0404040404039 68.60606060606068,850.5050505050505 78.14141414141426,840.969696969697 87.67676767676772,831.4343434343434 97.21212121212136,821.8989898989898 106.74747474747483,812.3636363636363 116.28282828282829,802.8282828282828 125.81818181818193,793.2929292929292 135.35353535353545,783.7575757575758 144.88888888888903,774.2222222222222 154.42424242424255,764.6868686868687 163.95959595959607,755.1515151515151 173.4949494949496,745.6161616161615 183.03030303030312,736.0808080808081 192.5656565656567,726.5454545454545 202.10101010101022,717.010101010101 211.63636363636374,707.4747474747475 221.17171717171726,697.939393939394 230.70707070707084,688.4040404040404 240.2424242424243,678.8686868686868 249.77777777777783,669.3333333333334 259.3131313131314,659.7979797979798 268.84848484848493,650.2626262626263 278.38383838383845,640.7272727272727 287.91919191919203,631.1919191919193 297.4545454545455,621.6565656565657 306.9898989898991,612.1212121212121 316.5252525252526,602.5858585858587 326.0606060606061,593.0505050505051 335.59595959595964,583.5151515151516 345.13131313131316,573.979797979798 354.6666666666667,564.4444444444445 364.2020202020202,554.909090909091 373.7373737373738,545.3737373737374 383.2727272727273,535.838383838384 392.80808080808083,526.3030303030304 402.34343434343435,516.7676767676768 411.8787878787879,507.23232323232327 421.4141414141414,497.69696969696975 430.949494949495,488.1616161616163 440.4848484848485,478.6262626262627 450.0202020202021,469.0909090909092 459.55555555555554,459.5555555555556 469.09090909090907,450.0202020202021 478.62626262626264,440.4848484848486 488.16161616161617,430.94949494949503 497.69696969696975,421.4141414141415 507.2323232323232,411.87878787878793 516.7676767676768,402.3434343434344 526.3030303030303,392.80808080808094 535.8383838383838,383.27272727272737 545.3737373737374,373.73737373737384" fill="none" stroke="rgba(255,0,0,0.75)" stroke-width="14.159999999999995"/></g><g><polyline data-points="0.3535353535353544,1.4646464646464652 0.4545454545454551,1.5656565656565666 0.5555555555555567,1.6666666666666674 0.6565656565656574,1.767676767676768 0.7575757575757579,1.8686868686868696 0.8585858585858596,1.9696969696969702 0.9595959595959602,2.070707070707072 1.0606060606060617,2.1717171717171726 1.1616161616161622,2.2727272727272734 1.262626262626263,2.373737373737375 1.3636363636363644,2.4747474747474754 1.4646464646464652,2.575757575757577 1.5656565656565666,2.676767676767678 1.6666666666666674,2.7777777777777786 1.767676767676768,2.87878787878788 1.8686868686868696,2.9797979797979806 1.9696969696969702,3.080808080808082 2.070707070707072,3.080808080808082 2.1717171717171726,3.080808080808082 2.2727272727272734,3.080808080808082 2.373737373737375,3.080808080808082 2.4747474747474754,3.080808080808082 2.575757575757577,3.080808080808082 2.676767676767678,3.080808080808082 2.7777777777777786,3.080808080808082 2.87878787878788,3.080808080808082 2.9797979797979806,3.080808080808082 3.080808080808082,3.080808080808082 3.181818181818183,3.080808080808082 3.2828282828282833,3.080808080808082 3.383838383838384,3.080808080808082 3.4848484848484866,3.080808080808082 3.5858585858585874,3.080808080808082 3.6868686868686877,3.080808080808082 3.7878787878787885,3.080808080808082 3.8888888888888893,3.080808080808082 3.989898989898992,3.080808080808082" data-type="line" data-label="" points="545.3737373737374,373.73737373737384 554.9090909090909,364.2020202020203 564.4444444444445,354.66666666666674 573.9797979797979,345.1313131313133 583.5151515151515,335.5959595959597 593.0505050505051,326.06060606060623 602.5858585858585,316.5252525252526 612.1212121212121,306.9898989898991 621.6565656565656,297.4545454545456 631.1919191919192,287.91919191919203 640.7272727272727,278.38383838383857 650.2626262626262,268.84848484848493 659.7979797979798,259.3131313131314 669.3333333333333,249.77777777777794 678.8686868686868,240.24242424242436 688.4040404040404,230.70707070707084 697.9393939393939,221.17171717171726 707.4747474747475,221.17171717171726 717.0101010101009,221.17171717171726 726.5454545454545,221.17171717171726 736.0808080808081,221.17171717171726 745.6161616161615,221.17171717171726 755.1515151515151,221.17171717171726 764.6868686868686,221.17171717171726 774.2222222222222,221.17171717171726 783.7575757575758,221.17171717171726 793.2929292929292,221.17171717171726 802.8282828282828,221.17171717171726 812.3636363636363,221.17171717171726 821.8989898989898,221.17171717171726 831.4343434343433,221.17171717171726 840.969696969697,221.17171717171726 850.5050505050505,221.17171717171726 860.0404040404039,221.17171717171726 869.5757575757575,221.17171717171726 879.111111111111,221.17171717171726 888.6464646464647,221.17171717171726" fill="none" stroke="rgba(0,0,255,0.75)" stroke-width="14.159999999999995"/></g><g><polyline data-points="3.989898989898992,3.080808080808082 4.090909090909092,3.080808080808082 4.191919191919193,3.080808080808082 4.292929292929293,3.080808080808082 4.393939393939394,3.080808080808082 4.494949494949497,3.080808080808082 4.595959595959597,3.080808080808082 4.696969696969697,3.080808080808082 4.7979797979797985,3.080808080808082 4.898989898989901,3.080808080808082 5.000000000000002,3.080808080808082" data-type="line" data-label="" points="888.6464646464647,221.17171717171726 898.181818181818,221.17171717171726 907.7171717171716,221.17171717171726 917.2525252525251,221.17171717171726 926.7878787878785,221.17171717171726 936.3232323232323,221.17171717171726 945.8585858585857,221.17171717171726 955.3939393939393,221.17171717171726 964.9292929292927,221.17171717171726 974.4646464646464,221.17171717171726 984,221.17171717171726" fill="none" stroke="rgba(255,0,0,0.75)" stroke-width="14.159999999999995"/></g><g><polyline data-points="0.8585858585858596,-5.000000000000001 0.9595959595959602,-4.898989898989899 1.0606060606060617,-4.7979797979797985 1.1616161616161622,-4.696969696969697 1.262626262626263,-4.595959595959596 1.3636363636363644,-4.494949494949496 1.4646464646464652,-4.393939393939394 1.5656565656565666,-4.292929292929293 1.6666666666666674,-4.191919191919193 1.767676767676768,-4.090909090909091 1.8686868686868696,-3.98989898989899 1.9696969696969702,-3.8888888888888884 2.070707070707072,-3.7878787878787876 2.1717171717171726,-3.6868686868686864 2.2727272727272734,-3.5858585858585856 2.373737373737375,-3.484848484848485 2.4747474747474754,-3.383838383838383 2.575757575757577,-3.2828282828282824 2.676767676767678,-3.1818181818181817 2.7777777777777786,-3.0808080808080804 2.87878787878788,-2.9797979797979792 2.9797979797979806,-2.8787878787878785 3.080808080808082,-2.7777777777777777 3.181818181818183,-2.6767676767676765 3.2828282828282833,-2.5757575757575752 3.2828282828282833,-2.474747474747474 3.2828282828282833,-2.3737373737373733 3.2828282828282833,-2.2727272727272725 3.2828282828282833,-2.1717171717171713 3.2828282828282833,-2.07070707070707 3.2828282828282833,-1.9696969696969693 3.2828282828282833,-1.8686868686868683 3.2828282828282833,-1.7676767676767675 3.2828282828282833,-1.6666666666666665 3.2828282828282833,-1.5656565656565653 3.2828282828282833,-1.4646464646464643 3.2828282828282833,-1.363636363636363 3.2828282828282833,-1.2626262626262625 3.2828282828282833,-1.1616161616161613 3.2828282828282833,-1.0606060606060603 3.2828282828282833,-0.9595959595959596 3.2828282828282833,-0.8585858585858579 3.2828282828282833,-0.7575757575757572 3.2828282828282833,-0.6565656565656557 3.2828282828282833,-0.555555555555555 3.2828282828282833,-0.4545454545454544" data-type="line" data-label="" points="593.0505050505051,984 602.5858585858585,974.4646464646464 612.1212121212121,964.9292929292928 621.6565656565656,955.3939393939394 631.1919191919192,945.8585858585858 640.7272727272727,936.3232323232323 650.2626262626262,926.7878787878788 659.7979797979798,917.2525252525252 669.3333333333333,907.7171717171718 678.8686868686868,898.1818181818181 688.4040404040404,888.6464646464647 697.9393939393939,879.1111111111111 707.4747474747475,869.5757575757575 717.0101010101009,860.0404040404039 726.5454545454545,850.5050505050505 736.0808080808081,840.969696969697 745.6161616161615,831.4343434343434 755.1515151515151,821.8989898989898 764.6868686868686,812.3636363636363 774.2222222222222,802.8282828282828 783.7575757575758,793.2929292929292 793.2929292929292,783.7575757575758 802.8282828282828,774.2222222222222 812.3636363636363,764.6868686868687 821.8989898989898,755.1515151515151 821.8989898989898,745.6161616161615 821.8989898989898,736.0808080808081 821.8989898989898,726.5454545454545 821.8989898989898,717.010101010101 821.8989898989898,707.4747474747475 821.8989898989898,697.939393939394 821.8989898989898,688.4040404040404 821.8989898989898,678.8686868686868 821.8989898989898,669.3333333333334 821.8989898989898,659.7979797979798 821.8989898989898,650.2626262626263 821.8989898989898,640.7272727272727 821.8989898989898,631.1919191919193 821.8989898989898,621.6565656565657 821.8989898989898,612.1212121212121 821.8989898989898,602.5858585858587 821.8989898989898,593.0505050505051 821.8989898989898,583.5151515151516 821.8989898989898,573.979797979798 821.8989898989898,564.4444444444445 821.8989898989898,554.909090909091" fill="none" stroke="rgba(255,0,0,0.75)" stroke-width="14.159999999999995"/></g><g><polyline data-points="3.2828282828282833,-0.4545454545454544 3.2828282828282833,-0.35353535353535287 3.2828282828282833,-0.2525252525252522 3.2828282828282833,-0.15151515151515066 3.2828282828282833,-0.05050505050505001 3.2828282828282833,0.050505050505051545 3.2828282828282833,0.1515151515151522 3.2828282828282833,0.2525252525252529 3.2828282828282833,0.3535353535353544 3.2828282828282833,0.4545454545454551 3.2828282828282833,0.5555555555555567 3.2828282828282833,0.6565656565656574 3.2828282828282833,0.7575757575757579 3.2828282828282833,0.8585858585858596 3.2828282828282833,0.9595959595959602 3.2828282828282833,1.0606060606060617 3.2828282828282833,1.1616161616161622 3.2828282828282833,1.262626262626263 3.2828282828282833,1.3636363636363644 3.2828282828282833,1.4646464646464652 3.2828282828282833,1.5656565656565666 3.2828282828282833,1.6666666666666674 3.2828282828282833,1.767676767676768 3.2828282828282833,1.8686868686868696 3.2828282828282833,1.9696969696969702 3.2828282828282833,2.070707070707072 3.2828282828282833,2.1717171717171726 3.2828282828282833,2.2727272727272734 3.2828282828282833,2.373737373737375 3.2828282828282833,2.4747474747474754" data-type="line" data-label="" points="821.8989898989898,554.909090909091 821.8989898989898,545.3737373737374 821.8989898989898,535.838383838384 821.8989898989898,526.3030303030304 821.8989898989898,516.7676767676768 821.8989898989898,507.23232323232327 821.8989898989898,497.69696969696975 821.8989898989898,488.1616161616163 821.8989898989898,478.6262626262627 821.8989898989898,469.0909090909092 821.8989898989898,459.5555555555556 821.8989898989898,450.0202020202021 821.8989898989898,440.4848484848486 821.8989898989898,430.94949494949503 821.8989898989898,421.4141414141415 821.8989898989898,411.87878787878793 821.8989898989898,402.3434343434344 821.8989898989898,392.80808080808094 821.8989898989898,383.27272727272737 821.8989898989898,373.73737373737384 821.8989898989898,364.2020202020203 821.8989898989898,354.66666666666674 821.8989898989898,345.1313131313133 821.8989898989898,335.5959595959597 821.8989898989898,326.06060606060623 821.8989898989898,316.5252525252526 821.8989898989898,306.9898989898991 821.8989898989898,297.4545454545456 821.8989898989898,287.91919191919203 821.8989898989898,278.38383838383857" fill="none" stroke="rgba(0,0,255,0.75)" stroke-width="14.159999999999995"/></g><g><polyline data-points="3.2828282828282833,2.4747474747474754 3.2828282828282833,2.575757575757577 3.2828282828282833,2.676767676767678 3.2828282828282833,2.7777777777777786 3.2828282828282833,2.87878787878788 3.2828282828282833,2.9797979797979806 3.2828282828282833,3.080808080808082 3.2828282828282833,3.181818181818183 3.2828282828282833,3.2828282828282833 3.2828282828282833,3.383838383838384 3.2828282828282833,3.4848484848484866 3.2828282828282833,3.5858585858585874 3.2828282828282833,3.6868686868686877 3.2828282828282833,3.7878787878787885 3.2828282828282833,3.8888888888888893 3.2828282828282833,3.989898989898992" data-type="line" data-label="" points="821.8989898989898,278.38383838383857 821.8989898989898,268.84848484848493 821.8989898989898,259.3131313131314 821.8989898989898,249.77777777777794 821.8989898989898,240.24242424242436 821.8989898989898,230.70707070707084 821.8989898989898,221.17171717171726 821.8989898989898,211.63636363636374 821.8989898989898,202.10101010101027 821.8989898989898,192.56565656565675 821.8989898989898,183.03030303030312 821.8989898989898,173.4949494949496 821.8989898989898,163.95959595959613 821.8989898989898,154.4242424242426 821.8989898989898,144.88888888888908 821.8989898989898,135.35353535353545" fill="none" stroke="rgba(255,0,0,0.75)" stroke-width="14.159999999999995"/></g><g><polyline data-points="3.2828282828282833,3.989898989898992 3.2828282828282833,4.090909090909092 3.2828282828282833,4.191919191919193 3.2828282828282833,4.292929292929293 3.2828282828282833,4.393939393939394 3.2828282828282833,4.494949494949497 3.2828282828282833,4.595959595959597 3.2828282828282833,4.696969696969697 3.2828282828282833,4.7979797979797985 3.2828282828282833,4.898989898989901 3.2828282828282833,5.000000000000002" data-type="line" data-label="" points="821.8989898989898,135.35353535353545 821.8989898989898,125.81818181818198 821.8989898989898,116.28282828282846 821.8989898989898,106.747474747475 821.8989898989898,97.21212121212153 821.8989898989898,87.67676767676778 821.8989898989898,78.14141414141432 821.8989898989898,68.60606060606085 821.8989898989898,59.07070707070733 821.8989898989898,49.53535353535369 821.8989898989898,40.000000000000114" fill="none" stroke="rgba(0,0,255,0.75)" stroke-width="14.159999999999995"/></g><g><polyline data-points="-4.7979797979797985,5.000000000000002 -4.696969696969697,4.898989898989901 -4.595959595959596,4.7979797979797985 -4.494949494949496,4.696969696969697 -4.393939393939394,4.595959595959597 -4.292929292929293,4.494949494949497 -4.191919191919193,4.393939393939394 -4.090909090909091,4.292929292929293 -3.98989898989899,4.191919191919193 -3.8888888888888884,4.090909090909092 -3.7878787878787876,3.989898989898992 -3.6868686868686864,3.8888888888888893 -3.5858585858585856,3.7878787878787885 -3.484848484848485,3.6868686868686877 -3.383838383838383,3.5858585858585874 -3.2828282828282824,3.4848484848484866 -3.1818181818181817,3.383838383838384 -3.0808080808080804,3.2828282828282833 -2.9797979797979792,3.181818181818183 -2.8787878787878785,3.080808080808082 -2.7777777777777777,2.9797979797979806 -2.6767676767676765,2.87878787878788 -2.5757575757575752,2.7777777777777786 -2.474747474747474,2.676767676767678 -2.3737373737373733,2.575757575757577 -2.2727272727272725,2.4747474747474754 -2.1717171717171713,2.373737373737375 -2.07070707070707,2.2727272727272734 -2.07070707070707,2.1717171717171726 -2.07070707070707,2.070707070707072 -2.07070707070707,1.9696969696969702 -2.07070707070707,1.8686868686868696 -2.07070707070707,1.767676767676768 -2.07070707070707,1.6666666666666674 -2.07070707070707,1.5656565656565666 -2.07070707070707,1.4646464646464652 -2.07070707070707,1.3636363636363644 -2.07070707070707,1.262626262626263 -2.07070707070707,1.1616161616161622 -2.07070707070707,1.0606060606060617 -2.07070707070707,0.9595959595959602 -2.07070707070707,0.8585858585858596 -2.07070707070707,0.7575757575757579 -2.07070707070707,0.6565656565656574 -2.07070707070707,0.5555555555555567 -2.07070707070707,0.4545454545454551 -2.07070707070707,0.3535353535353544 -2.07070707070707,0.2525252525252529 -2.07070707070707,0.1515151515151522 -2.07070707070707,0.050505050505051545 -2.07070707070707,-0.05050505050505001 -2.07070707070707,-0.15151515151515066 -2.07070707070707,-0.2525252525252522 -2.07070707070707,-0.35353535353535287 -2.07070707070707,-0.4545454545454544 -2.07070707070707,-0.555555555555555 -2.07070707070707,-0.6565656565656557 -2.07070707070707,-0.7575757575757572 -2.07070707070707,-0.8585858585858579 -2.07070707070707,-0.9595959595959596 -2.07070707070707,-1.0606060606060603 -2.07070707070707,-1.1616161616161613 -2.07070707070707,-1.2626262626262625 -2.07070707070707,-1.363636363636363 -2.07070707070707,-1.4646464646464643 -2.07070707070707,-1.5656565656565653 -2.07070707070707,-1.6666666666666665 -2.07070707070707,-1.7676767676767675 -2.07070707070707,-1.8686868686868683 -2.07070707070707,-1.9696969696969693 -2.07070707070707,-2.07070707070707 -2.07070707070707,-2.1717171717171713 -2.07070707070707,-2.2727272727272725 -2.07070707070707,-2.3737373737373733 -2.07070707070707,-2.474747474747474 -2.07070707070707,-2.5757575757575752 -2.07070707070707,-2.6767676767676765 -2.07070707070707,-2.7777777777777777 -2.07070707070707,-2.8787878787878785 -2.07070707070707,-2.9797979797979792 -2.07070707070707,-3.0808080808080804 -2.07070707070707,-3.1818181818181817 -2.07070707070707,-3.2828282828282824 -2.07070707070707,-3.383838383838383 -2.07070707070707,-3.484848484848485 -2.07070707070707,-3.5858585858585856 -2.07070707070707,-3.6868686868686864 -2.07070707070707,-3.7878787878787876 -2.07070707070707,-3.8888888888888884 -2.07070707070707,-3.98989898989899" data-type="line" data-label="" points="59.07070707070716,40.000000000000114 68.60606060606068,49.53535353535369 78.14141414141426,59.07070707070733 87.67676767676772,68.60606060606085 97.21212121212136,78.14141414141432 106.74747474747483,87.67676767676778 116.28282828282829,97.21212121212153 125.81818181818193,106.747474747475 135.35353535353545,116.28282828282846 144.88888888888903,125.81818181818198 154.42424242424255,135.35353535353545 163.95959595959607,144.88888888888908 173.4949494949496,154.4242424242426 183.03030303030312,163.95959595959613 192.5656565656567,173.4949494949496 202.10101010101022,183.03030303030312 211.63636363636374,192.56565656565675 221.17171717171726,202.10101010101027 230.70707070707084,211.63636363636374 240.2424242424243,221.17171717171726 249.77777777777783,230.70707070707084 259.3131313131314,240.24242424242436 268.84848484848493,249.77777777777794 278.38383838383845,259.3131313131314 287.91919191919203,268.84848484848493 297.4545454545455,278.38383838383857 306.9898989898991,287.91919191919203 316.5252525252526,297.4545454545456 316.5252525252526,306.9898989898991 316.5252525252526,316.5252525252526 316.5252525252526,326.06060606060623 316.5252525252526,335.5959595959597 316.5252525252526,345.1313131313133 316.5252525252526,354.66666666666674 316.5252525252526,364.2020202020203 316.5252525252526,373.73737373737384 316.5252525252526,383.27272727272737 316.5252525252526,392.80808080808094 316.5252525252526,402.3434343434344 316.5252525252526,411.87878787878793 316.5252525252526,421.4141414141415 316.5252525252526,430.94949494949503 316.5252525252526,440.4848484848486 316.5252525252526,450.0202020202021 316.5252525252526,459.5555555555556 316.5252525252526,469.0909090909092 316.5252525252526,478.6262626262627 316.5252525252526,488.1616161616163 316.5252525252526,497.69696969696975 316.5252525252526,507.23232323232327 316.5252525252526,516.7676767676768 316.5252525252526,526.3030303030304 316.5252525252526,535.838383838384 316.5252525252526,545.3737373737374 316.5252525252526,554.909090909091 316.5252525252526,564.4444444444445 316.5252525252526,573.979797979798 316.5252525252526,583.5151515151516 316.5252525252526,593.0505050505051 316.5252525252526,602.5858585858587 316.5252525252526,612.1212121212121 316.5252525252526,621.6565656565657 316.5252525252526,631.1919191919193 316.5252525252526,640.7272727272727 316.5252525252526,650.2626262626263 316.5252525252526,659.7979797979798 316.5252525252526,669.3333333333334 316.5252525252526,678.8686868686868 316.5252525252526,688.4040404040404 316.5252525252526,697.939393939394 316.5252525252526,707.4747474747475 316.5252525252526,717.010101010101 316.5252525252526,726.5454545454545 316.5252525252526,736.0808080808081 316.5252525252526,745.6161616161615 316.5252525252526,755.1515151515151 316.5252525252526,764.6868686868687 316.5252525252526,774.2222222222222 316.5252525252526,783.7575757575758 316.5252525252526,793.2929292929292 316.5252525252526,802.8282828282828 316.5252525252526,812.3636363636363 316.5252525252526,821.8989898989898 316.5252525252526,831.4343434343434 316.5252525252526,840.969696969697 316.5252525252526,850.5050505050505 316.5252525252526,860.0404040404039 316.5252525252526,869.5757575757575 316.5252525252526,879.1111111111111 316.5252525252526,888.6464646464647" fill="none" stroke="rgba(0,0,255,0.75)" stroke-width="14.159999999999995"/></g><g><polyline data-points="-2.07070707070707,-3.98989898989899 -2.07070707070707,-4.090909090909091 -2.07070707070707,-4.191919191919193 -2.07070707070707,-4.292929292929293 -2.07070707070707,-4.393939393939394 -2.07070707070707,-4.494949494949496 -2.07070707070707,-4.595959595959596 -2.07070707070707,-4.696969696969697 -2.07070707070707,-4.7979797979797985 -2.07070707070707,-4.898989898989899 -2.07070707070707,-5.000000000000001" data-type="line" data-label="" points="316.5252525252526,888.6464646464647 316.5252525252526,898.1818181818181 316.5252525252526,907.7171717171718 316.5252525252526,917.2525252525252 316.5252525252526,926.7878787878788 316.5252525252526,936.3232323232323 316.5252525252526,945.8585858585858 316.5252525252526,955.3939393939394 316.5252525252526,964.9292929292928 316.5252525252526,974.4646464646464 316.5252525252526,984" fill="none" stroke="rgba(255,0,0,0.75)" stroke-width="14.159999999999995"/></g><g><polyline data-points="-5.000000000000001,-2.9797979797979792 -4.898989898989899,-2.8787878787878785 -4.7979797979797985,-2.7777777777777777 -4.696969696969697,-2.6767676767676765 -4.595959595959596,-2.5757575757575752 -4.494949494949496,-2.474747474747474 -4.393939393939394,-2.3737373737373733 -4.292929292929293,-2.2727272727272725 -4.191919191919193,-2.1717171717171713 -4.090909090909091,-2.07070707070707 -3.98989898989899,-1.9696969696969693 -3.8888888888888884,-1.8686868686868683 -3.7878787878787876,-1.7676767676767675 -3.6868686868686864,-1.6666666666666665 -3.5858585858585856,-1.5656565656565653 -3.484848484848485,-1.4646464646464643 -3.383838383838383,-1.363636363636363 -3.2828282828282824,-1.2626262626262625 -3.1818181818181817,-1.1616161616161613 -3.0808080808080804,-1.0606060606060603 -2.9797979797979792,-0.9595959595959596 -2.9797979797979792,-0.8585858585858579 -2.9797979797979792,-0.7575757575757572 -2.9797979797979792,-0.6565656565656557 -2.9797979797979792,-0.555555555555555 -2.9797979797979792,-0.4545454545454544 -2.9797979797979792,-0.35353535353535287 -2.9797979797979792,-0.2525252525252522 -2.9797979797979792,-0.15151515151515066 -2.9797979797979792,-0.05050505050505001 -2.9797979797979792,0.050505050505051545 -2.9797979797979792,0.1515151515151522 -2.9797979797979792,0.2525252525252529 -2.9797979797979792,0.3535353535353544 -2.9797979797979792,0.4545454545454551 -2.9797979797979792,0.5555555555555567 -2.9797979797979792,0.6565656565656574 -2.9797979797979792,0.7575757575757579 -2.9797979797979792,0.8585858585858596 -2.9797979797979792,0.9595959595959602 -2.9797979797979792,1.0606060606060617 -2.9797979797979792,1.1616161616161622 -2.9797979797979792,1.262626262626263 -2.9797979797979792,1.3636363636363644 -2.9797979797979792,1.4646464646464652 -2.9797979797979792,1.5656565656565666 -2.9797979797979792,1.6666666666666674 -2.9797979797979792,1.767676767676768 -2.9797979797979792,1.8686868686868696 -2.9797979797979792,1.9696969696969702 -2.9797979797979792,2.070707070707072 -2.9797979797979792,2.1717171717171726 -2.9797979797979792,2.2727272727272734 -2.9797979797979792,2.373737373737375" data-type="line" data-label="" points="40.00000000000006,793.2929292929292 49.53535353535369,783.7575757575758 59.07070707070716,774.2222222222222 68.60606060606068,764.6868686868687 78.14141414141426,755.1515151515151 87.67676767676772,745.6161616161615 97.21212121212136,736.0808080808081 106.74747474747483,726.5454545454545 116.28282828282829,717.010101010101 125.81818181818193,707.4747474747475 135.35353535353545,697.939393939394 144.88888888888903,688.4040404040404 154.42424242424255,678.8686868686868 163.95959595959607,669.3333333333334 173.4949494949496,659.7979797979798 183.03030303030312,650.2626262626263 192.5656565656567,640.7272727272727 202.10101010101022,631.1919191919193 211.63636363636374,621.6565656565657 221.17171717171726,612.1212121212121 230.70707070707084,602.5858585858587 230.70707070707084,593.0505050505051 230.70707070707084,583.5151515151516 230.70707070707084,573.979797979798 230.70707070707084,564.4444444444445 230.70707070707084,554.909090909091 230.70707070707084,545.3737373737374 230.70707070707084,535.838383838384 230.70707070707084,526.3030303030304 230.70707070707084,516.7676767676768 230.70707070707084,507.23232323232327 230.70707070707084,497.69696969696975 230.70707070707084,488.1616161616163 230.70707070707084,478.6262626262627 230.70707070707084,469.0909090909092 230.70707070707084,459.5555555555556 230.70707070707084,450.0202020202021 230.70707070707084,440.4848484848486 230.70707070707084,430.94949494949503 230.70707070707084,421.4141414141415 230.70707070707084,411.87878787878793 230.70707070707084,402.3434343434344 230.70707070707084,392.80808080808094 230.70707070707084,383.27272727272737 230.70707070707084,373.73737373737384 230.70707070707084,364.2020202020203 230.70707070707084,354.66666666666674 230.70707070707084,345.1313131313133 230.70707070707084,335.5959595959597 230.70707070707084,326.06060606060623 230.70707070707084,316.5252525252526 230.70707070707084,306.9898989898991 230.70707070707084,297.4545454545456 230.70707070707084,287.91919191919203" fill="none" stroke="rgba(0,0,255,0.75)" stroke-width="14.159999999999995"/></g><g><polyline data-points="-2.9797979797979792,2.373737373737375 -2.9797979797979792,2.4747474747474754 -2.9797979797979792,2.575757575757577 -2.9797979797979792,2.676767676767678 -2.9797979797979792,2.7777777777777786 -2.9797979797979792,2.87878787878788 -2.9797979797979792,2.9797979797979806 -2.9797979797979792,3.080808080808082 -2.9797979797979792,3.181818181818183 -2.9797979797979792,3.2828282828282833 -2.9797979797979792,3.383838383838384 -2.9797979797979792,3.4848484848484866 -2.9797979797979792,3.5858585858585874 -2.9797979797979792,3.6868686868686877 -2.9797979797979792,3.7878787878787885 -2.9797979797979792,3.8888888888888893 -2.9797979797979792,3.989898989898992 -2.9797979797979792,4.090909090909092 -2.9797979797979792,4.191919191919193 -2.9797979797979792,4.292929292929293 -2.9797979797979792,4.393939393939394 -2.9797979797979792,4.494949494949497 -2.9797979797979792,4.595959595959597 -2.9797979797979792,4.696969696969697 -2.9797979797979792,4.7979797979797985 -2.9797979797979792,4.898989898989901 -2.9797979797979792,5.000000000000002" data-type="line" data-label="" points="230.70707070707084,287.91919191919203 230.70707070707084,278.38383838383857 230.70707070707084,268.84848484848493 230.70707070707084,259.3131313131314 230.70707070707084,249.77777777777794 230.70707070707084,240.24242424242436 230.70707070707084,230.70707070707084 230.70707070707084,221.17171717171726 230.70707070707084,211.63636363636374 230.70707070707084,202.10101010101027 230.70707070707084,192.56565656565675 230.70707070707084,183.03030303030312 230.70707070707084,173.4949494949496 230.70707070707084,163.95959595959613 230.70707070707084,154.4242424242426 230.70707070707084,144.88888888888908 230.70707070707084,135.35353535353545 230.70707070707084,125.81818181818198 230.70707070707084,116.28282828282846 230.70707070707084,106.747474747475 230.70707070707084,97.21212121212153 230.70707070707084,87.67676767676778 230.70707070707084,78.14141414141432 230.70707070707084,68.60606060606085 230.70707070707084,59.07070707070733 230.70707070707084,49.53535353535369 230.70707070707084,40.000000000000114" fill="none" stroke="rgba(255,0,0,0.75)" stroke-width="14.159999999999995"/></g><g><polyline data-points="4.595959595959597,-5.000000000000001 4.494949494949497,-4.898989898989899 4.393939393939394,-4.7979797979797985 4.292929292929293,-4.696969696969697 4.191919191919193,-4.595959595959596 4.090909090909092,-4.494949494949496 3.989898989898992,-4.393939393939394 3.8888888888888893,-4.292929292929293 3.7878787878787885,-4.191919191919193 3.6868686868686877,-4.090909090909091 3.5858585858585874,-3.98989898989899 3.4848484848484866,-3.8888888888888884 3.383838383838384,-3.7878787878787876 3.2828282828282833,-3.6868686868686864 3.181818181818183,-3.5858585858585856 3.080808080808082,-3.484848484848485 2.9797979797979806,-3.383838383838383 2.87878787878788,-3.2828282828282824 2.7777777777777786,-3.1818181818181817 2.676767676767678,-3.0808080808080804 2.575757575757577,-2.9797979797979792 2.575757575757577,-2.8787878787878785 2.575757575757577,-2.7777777777777777 2.575757575757577,-2.6767676767676765 2.575757575757577,-2.5757575757575752 2.575757575757577,-2.474747474747474 2.575757575757577,-2.3737373737373733 2.575757575757577,-2.2727272727272725 2.575757575757577,-2.1717171717171713 2.575757575757577,-2.07070707070707 2.575757575757577,-1.9696969696969693 2.575757575757577,-1.8686868686868683 2.575757575757577,-1.7676767676767675 2.575757575757577,-1.6666666666666665 2.575757575757577,-1.5656565656565653 2.575757575757577,-1.4646464646464643 2.575757575757577,-1.363636363636363 2.575757575757577,-1.2626262626262625 2.575757575757577,-1.1616161616161613 2.575757575757577,-1.0606060606060603 2.575757575757577,-0.9595959595959596 2.575757575757577,-0.8585858585858579 2.575757575757577,-0.7575757575757572 2.575757575757577,-0.6565656565656557 2.575757575757577,-0.555555555555555 2.575757575757577,-0.4545454545454544 2.575757575757577,-0.35353535353535287 2.575757575757577,-0.2525252525252522 2.575757575757577,-0.15151515151515066 2.575757575757577,-0.05050505050505001 2.575757575757577,0.050505050505051545 2.575757575757577,0.1515151515151522 2.575757575757577,0.2525252525252529 2.575757575757577,0.3535353535353544 2.575757575757577,0.4545454545454551 2.575757575757577,0.5555555555555567 2.575757575757577,0.6565656565656574 2.575757575757577,0.7575757575757579 2.575757575757577,0.8585858585858596 2.575757575757577,0.9595959595959602 2.575757575757577,1.0606060606060617 2.575757575757577,1.1616161616161622 2.575757575757577,1.262626262626263 2.575757575757577,1.3636363636363644 2.575757575757577,1.4646464646464652 2.575757575757577,1.5656565656565666 2.575757575757577,1.6666666666666674 2.575757575757577,1.767676767676768 2.575757575757577,1.8686868686868696 2.575757575757577,1.9696969696969702 2.575757575757577,2.070707070707072 2.575757575757577,2.1717171717171726" data-type="line" data-label="" points="945.8585858585857,984 936.3232323232323,974.4646464646464 926.7878787878785,964.9292929292928 917.2525252525251,955.3939393939394 907.7171717171716,945.8585858585858 898.181818181818,936.3232323232323 888.6464646464647,926.7878787878788 879.111111111111,917.2525252525252 869.5757575757575,907.7171717171718 860.0404040404039,898.1818181818181 850.5050505050505,888.6464646464647 840.969696969697,879.1111111111111 831.4343434343433,869.5757575757575 821.8989898989898,860.0404040404039 812.3636363636363,850.5050505050505 802.8282828282828,840.969696969697 793.2929292929292,831.4343434343434 783.7575757575758,821.8989898989898 774.2222222222222,812.3636363636363 764.6868686868686,802.8282828282828 755.1515151515151,793.2929292929292 755.1515151515151,783.7575757575758 755.1515151515151,774.2222222222222 755.1515151515151,764.6868686868687 755.1515151515151,755.1515151515151 755.1515151515151,745.6161616161615 755.1515151515151,736.0808080808081 755.1515151515151,726.5454545454545 755.1515151515151,717.010101010101 755.1515151515151,707.4747474747475 755.1515151515151,697.939393939394 755.1515151515151,688.4040404040404 755.1515151515151,678.8686868686868 755.1515151515151,669.3333333333334 755.1515151515151,659.7979797979798 755.1515151515151,650.2626262626263 755.1515151515151,640.7272727272727 755.1515151515151,631.1919191919193 755.1515151515151,621.6565656565657 755.1515151515151,612.1212121212121 755.1515151515151,602.5858585858587 755.1515151515151,593.0505050505051 755.1515151515151,583.5151515151516 755.1515151515151,573.979797979798 755.1515151515151,564.4444444444445 755.1515151515151,554.909090909091 755.1515151515151,545.3737373737374 755.1515151515151,535.838383838384 755.1515151515151,526.3030303030304 755.1515151515151,516.7676767676768 755.1515151515151,507.23232323232327 755.1515151515151,497.69696969696975 755.1515151515151,488.1616161616163 755.1515151515151,478.6262626262627 755.1515151515151,469.0909090909092 755.1515151515151,459.5555555555556 755.1515151515151,450.0202020202021 755.1515151515151,440.4848484848486 755.1515151515151,430.94949494949503 755.1515151515151,421.4141414141415 755.1515151515151,411.87878787878793 755.1515151515151,402.3434343434344 755.1515151515151,392.80808080808094 755.1515151515151,383.27272727272737 755.1515151515151,373.73737373737384 755.1515151515151,364.2020202020203 755.1515151515151,354.66666666666674 755.1515151515151,345.1313131313133 755.1515151515151,335.5959595959597 755.1515151515151,326.06060606060623 755.1515151515151,316.5252525252526 755.1515151515151,306.9898989898991" fill="none" stroke="rgba(0,0,255,0.75)" stroke-width="14.159999999999995"/></g><g><polyline data-points="2.575757575757577,2.1717171717171726 2.575757575757577,2.2727272727272734 2.575757575757577,2.373737373737375 2.575757575757577,2.4747474747474754 2.575757575757577,2.575757575757577 2.575757575757577,2.676767676767678 2.575757575757577,2.7777777777777786 2.575757575757577,2.87878787878788 2.575757575757577,2.9797979797979806 2.575757575757577,3.080808080808082 2.575757575757577,3.181818181818183 2.575757575757577,3.2828282828282833 2.575757575757577,3.383838383838384 2.575757575757577,3.4848484848484866 2.575757575757577,3.5858585858585874 2.575757575757577,3.6868686868686877" data-type="line" data-label="" points="755.1515151515151,306.9898989898991 755.1515151515151,297.4545454545456 755.1515151515151,287.91919191919203 755.1515151515151,278.38383838383857 755.1515151515151,268.84848484848493 755.1515151515151,259.3131313131314 755.1515151515151,249.77777777777794 755.1515151515151,240.24242424242436 755.1515151515151,230.70707070707084 755.1515151515151,221.17171717171726 755.1515151515151,211.63636363636374 755.1515151515151,202.10101010101027 755.1515151515151,192.56565656565675 755.1515151515151,183.03030303030312 755.1515151515151,173.4949494949496 755.1515151515151,163.95959595959613" fill="none" stroke="rgba(255,0,0,0.75)" stroke-width="14.159999999999995"/></g><g><polyline data-points="2.575757575757577,3.6868686868686877 2.575757575757577,3.7878787878787885 2.676767676767678,3.8888888888888893 2.7777777777777786,3.989898989898992 2.676767676767678,4.090909090909092 2.575757575757577,4.191919191919193 2.4747474747474754,4.292929292929293 2.4747474747474754,4.393939393939394 2.4747474747474754,4.494949494949497 2.4747474747474754,4.595959595959597 2.4747474747474754,4.696969696969697 2.4747474747474754,4.7979797979797985 2.4747474747474754,4.898989898989901 2.4747474747474754,5.000000000000002" data-type="line" data-label="" points="755.1515151515151,163.95959595959613 755.1515151515151,154.4242424242426 764.6868686868686,144.88888888888908 774.2222222222222,135.35353535353545 764.6868686868686,125.81818181818198 755.1515151515151,116.28282828282846 745.6161616161615,106.747474747475 745.6161616161615,97.21212121212153 745.6161616161615,87.67676767676778 745.6161616161615,78.14141414141432 745.6161616161615,68.60606060606085 745.6161616161615,59.07070707070733 745.6161616161615,49.53535353535369 745.6161616161615,40.000000000000114" fill="none" stroke="rgba(0,0,255,0.75)" stroke-width="14.159999999999995"/></g><g><polyline data-points="4.191919191919193,5.000000000000002 4.191919191919193,4.898989898989901 4.191919191919193,4.7979797979797985 4.191919191919193,4.696969696969697 4.191919191919193,4.595959595959597 4.191919191919193,4.494949494949497 4.191919191919193,4.393939393939394 4.191919191919193,4.292929292929293 4.191919191919193,4.191919191919193 4.191919191919193,4.090909090909092 4.191919191919193,3.989898989898992 4.191919191919193,3.8888888888888893 4.191919191919193,3.7878787878787885 4.191919191919193,3.6868686868686877 4.191919191919193,3.5858585858585874 4.191919191919193,3.4848484848484866 4.292929292929293,3.383838383838384 4.393939393939394,3.2828282828282833 4.393939393939394,3.181818181818183 4.494949494949497,3.080808080808082 4.393939393939394,2.9797979797979806 4.393939393939394,2.87878787878788 4.292929292929293,2.7777777777777786 4.191919191919193,2.676767676767678 4.090909090909092,2.575757575757577 3.989898989898992,2.4747474747474754 3.989898989898992,2.373737373737375 3.989898989898992,2.2727272727272734 3.989898989898992,2.1717171717171726" data-type="line" data-label="" points="907.7171717171716,40.000000000000114 907.7171717171716,49.53535353535369 907.7171717171716,59.07070707070733 907.7171717171716,68.60606060606085 907.7171717171716,78.14141414141432 907.7171717171716,87.67676767676778 907.7171717171716,97.21212121212153 907.7171717171716,106.747474747475 907.7171717171716,116.28282828282846 907.7171717171716,125.81818181818198 907.7171717171716,135.35353535353545 907.7171717171716,144.88888888888908 907.7171717171716,154.4242424242426 907.7171717171716,163.95959595959613 907.7171717171716,173.4949494949496 907.7171717171716,183.03030303030312 917.2525252525251,192.56565656565675 926.7878787878785,202.10101010101027 926.7878787878785,211.63636363636374 936.3232323232323,221.17171717171726 926.7878787878785,230.70707070707084 926.7878787878785,240.24242424242436 917.2525252525251,249.77777777777794 907.7171717171716,259.3131313131314 898.181818181818,268.84848484848493 888.6464646464647,278.38383838383857 888.6464646464647,287.91919191919203 888.6464646464647,297.4545454545456 888.6464646464647,306.9898989898991" fill="none" stroke="rgba(0,0,255,0.75)" stroke-width="14.159999999999995"/></g><g><polyline data-points="3.989898989898992,2.1717171717171726 3.8888888888888893,2.1717171717171726 3.7878787878787885,2.1717171717171726 3.6868686868686877,2.1717171717171726 3.5858585858585874,2.1717171717171726 3.4848484848484866,2.070707070707072 3.383838383838384,2.070707070707072 3.2828282828282833,1.9696969696969702 3.181818181818183,1.9696969696969702 3.080808080808082,1.9696969696969702 2.9797979797979806,1.9696969696969702 2.87878787878788,1.8686868686868696 2.7777777777777786,1.767676767676768 2.676767676767678,1.767676767676768 2.575757575757577,1.6666666666666674 2.4747474747474754,1.767676767676768 2.373737373737375,1.767676767676768 2.2727272727272734,1.8686868686868696 2.1717171717171726,1.9696969696969702 2.070707070707072,2.070707070707072 1.9696969696969702,2.1717171717171726 1.8686868686868696,2.2727272727272734 1.767676767676768,2.373737373737375 1.6666666666666674,2.4747474747474754 1.5656565656565666,2.575757575757577 1.4646464646464652,2.676767676767678 1.3636363636363644,2.676767676767678 1.262626262626263,2.676767676767678 1.1616161616161622,2.676767676767678 1.0606060606060617,2.676767676767678 0.9595959595959602,2.676767676767678 0.8585858585858596,2.676767676767678 0.7575757575757579,2.676767676767678" data-type="line" data-label="" points="888.6464646464647,306.9898989898991 879.111111111111,306.9898989898991 869.5757575757575,306.9898989898991 860.0404040404039,306.9898989898991 850.5050505050505,306.9898989898991 840.969696969697,316.5252525252526 831.4343434343433,316.5252525252526 821.8989898989898,326.06060606060623 812.3636363636363,326.06060606060623 802.8282828282828,326.06060606060623 793.2929292929292,326.06060606060623 783.7575757575758,335.5959595959597 774.2222222222222,345.1313131313133 764.6868686868686,345.1313131313133 755.1515151515151,354.66666666666674 745.6161616161615,345.1313131313133 736.0808080808081,345.1313131313133 726.5454545454545,335.5959595959597 717.0101010101009,326.06060606060623 707.4747474747475,316.5252525252526 697.9393939393939,306.9898989898991 688.4040404040404,297.4545454545456 678.8686868686868,287.91919191919203 669.3333333333333,278.38383838383857 659.7979797979798,268.84848484848493 650.2626262626262,259.3131313131314 640.7272727272727,259.3131313131314 631.1919191919192,259.3131313131314 621.6565656565656,259.3131313131314 612.1212121212121,259.3131313131314 602.5858585858585,259.3131313131314 593.0505050505051,259.3131313131314 583.5151515151515,259.3131313131314" fill="none" stroke="rgba(255,0,0,0.75)" stroke-width="14.159999999999995"/></g><g><polyline data-points="0.7575757575757579,2.676767676767678 0.6565656565656574,2.676767676767678 0.5555555555555567,2.676767676767678 0.4545454545454551,2.676767676767678 0.3535353535353544,2.676767676767678 0.2525252525252529,2.676767676767678 0.1515151515151522,2.676767676767678 0.050505050505051545,2.676767676767678 -0.05050505050505001,2.676767676767678 -0.15151515151515066,2.676767676767678 -0.2525252525252522,2.676767676767678 -0.35353535353535287,2.676767676767678 -0.4545454545454544,2.676767676767678 -0.555555555555555,2.676767676767678 -0.6565656565656557,2.676767676767678 -0.7575757575757572,2.676767676767678 -0.8585858585858579,2.676767676767678 -0.9595959595959596,2.676767676767678 -1.0606060606060603,2.676767676767678 -1.1616161616161613,2.676767676767678 -1.2626262626262625,2.676767676767678 -1.363636363636363,2.676767676767678 -1.4646464646464643,2.676767676767678 -1.5656565656565653,2.676767676767678 -1.6666666666666665,2.676767676767678" data-type="line" data-label="" points="583.5151515151515,259.3131313131314 573.9797979797979,259.3131313131314 564.4444444444445,259.3131313131314 554.9090909090909,259.3131313131314 545.3737373737374,259.3131313131314 535.8383838383838,259.3131313131314 526.3030303030303,259.3131313131314 516.7676767676768,259.3131313131314 507.2323232323232,259.3131313131314 497.69696969696975,259.3131313131314 488.16161616161617,259.3131313131314 478.62626262626264,259.3131313131314 469.09090909090907,259.3131313131314 459.55555555555554,259.3131313131314 450.0202020202021,259.3131313131314 440.4848484848485,259.3131313131314 430.949494949495,259.3131313131314 421.4141414141414,259.3131313131314 411.8787878787879,259.3131313131314 402.34343434343435,259.3131313131314 392.80808080808083,259.3131313131314 383.2727272727273,259.3131313131314 373.7373737373738,259.3131313131314 364.2020202020202,259.3131313131314 354.6666666666667,259.3131313131314" fill="none" stroke="rgba(0,0,255,0.75)" stroke-width="14.159999999999995"/></g><g><polyline data-points="-1.6666666666666665,2.676767676767678 -1.7676767676767675,2.676767676767678 -1.8686868686868683,2.676767676767678 -1.9696969696969693,2.676767676767678 -2.07070707070707,2.676767676767678 -2.1717171717171713,2.575757575757577 -2.2727272727272725,2.4747474747474754 -2.3737373737373733,2.373737373737375 -2.474747474747474,2.2727272727272734 -2.5757575757575752,2.1717171717171726 -2.6767676767676765,2.070707070707072 -2.7777777777777777,1.9696969696969702 -2.8787878787878785,1.9696969696969702 -2.9797979797979792,1.8686868686868696 -3.0808080808080804,1.9696969696969702 -3.1818181818181817,1.9696969696969702 -3.2828282828282824,2.070707070707072 -3.383838383838383,2.1717171717171726 -3.484848484848485,2.2727272727272734 -3.5858585858585856,2.373737373737375 -3.6868686868686864,2.4747474747474754 -3.7878787878787876,2.575757575757577 -3.8888888888888884,2.676767676767678 -3.98989898989899,2.7777777777777786 -3.98989898989899,2.87878787878788 -3.98989898989899,2.9797979797979806 -3.98989898989899,3.080808080808082 -3.98989898989899,3.181818181818183 -3.98989898989899,3.2828282828282833" data-type="line" data-label="" points="354.6666666666667,259.3131313131314 345.13131313131316,259.3131313131314 335.59595959595964,259.3131313131314 326.0606060606061,259.3131313131314 316.5252525252526,259.3131313131314 306.9898989898991,268.84848484848493 297.4545454545455,278.38383838383857 287.91919191919203,287.91919191919203 278.38383838383845,297.4545454545456 268.84848484848493,306.9898989898991 259.3131313131314,316.5252525252526 249.77777777777783,326.06060606060623 240.2424242424243,326.06060606060623 230.70707070707084,335.5959595959597 221.17171717171726,326.06060606060623 211.63636363636374,326.06060606060623 202.10101010101022,316.5252525252526 192.5656565656567,306.9898989898991 183.03030303030312,297.4545454545456 173.4949494949496,287.91919191919203 163.95959595959607,278.38383838383857 154.42424242424255,268.84848484848493 144.88888888888903,259.3131313131314 135.35353535353545,249.77777777777794 135.35353535353545,240.24242424242436 135.35353535353545,230.70707070707084 135.35353535353545,221.17171717171726 135.35353535353545,211.63636363636374 135.35353535353545,202.10101010101027" fill="none" stroke="rgba(255,0,0,0.75)" stroke-width="14.159999999999995"/></g><g><polyline data-points="-3.98989898989899,3.2828282828282833 -4.090909090909091,3.383838383838384 -4.191919191919193,3.4848484848484866 -4.292929292929293,3.5858585858585874 -4.393939393939394,3.6868686868686877 -4.494949494949496,3.7878787878787885 -4.595959595959596,3.8888888888888893 -4.696969696969697,3.8888888888888893 -4.7979797979797985,3.8888888888888893 -4.898989898989899,3.8888888888888893 -5.000000000000001,3.989898989898992" data-type="line" data-label="" points="135.35353535353545,202.10101010101027 125.81818181818193,192.56565656565675 116.28282828282829,183.03030303030312 106.74747474747483,173.4949494949496 97.21212121212136,163.95959595959613 87.67676767676772,154.4242424242426 78.14141414141426,144.88888888888908 68.60606060606068,144.88888888888908 59.07070707070716,144.88888888888908 49.53535353535369,144.88888888888908 40.00000000000006,135.35353535353545" fill="none" stroke="rgba(0,0,255,0.75)" stroke-width="14.159999999999995"/></g><g><rect data-type="rect" data-label="" data-x="0" data-y="0" x="40.000000000000114" y="40.000000000000284" width="943.9999999999997" height="943.9999999999998" fill="none" stroke="gray" stroke-width="0.010593220338983056"/></g><g><rect data-type="rect" data-label="" data-x="0" data-y="0" x="40.000000000000114" y="40.000000000000284" width="943.9999999999997" height="943.9999999999998" fill="none" stroke="rgba(15, 23, 42, 0.8)" stroke-width="0.010593220338983056"/></g><circle data-type="circle" data-label="" data-x="0.3535353535353544" data-y="1.4646464646464652" cx="545.3737373737374" cy="373.73737373737384" r="28.791999999999987" fill="rgba(0,0,0,0.3)" stroke="black" stroke-width="0.010593220338983056"/><circle data-type="circle" data-label="" data-x="3.989898989898992" data-y="3.080808080808082" cx="888.6464646464647" cy="221.17171717171726" r="28.791999999999987" fill="rgba(0,0,0,0.3)" stroke="black" stroke-width="0.010593220338983056"/><circle data-type="circle" data-label="" data-x="3.2828282828282833" data-y="-0.4545454545454544" cx="821.8989898989898" cy="554.909090909091" r="28.791999999999987" fill="rgba(0,0,0,0.3)" stroke="black" stroke-width="0.010593220338983056"/><circle data-type="circle" data-label="" data-x="3.2828282828282833" data-y="2.4747474747474754" cx="821.8989898989898" cy="278.38383838383857" r="28.791999999999987" fill="rgba(0,0,0,0.3)" stroke="black" stroke-width="0.010593220338983056"/><circle data-type="circle" data-label="" data-x="3.2828282828282833" data-y="3.989898989898992" cx="821.8989898989898" cy="135.35353535353545" r="28.791999999999987" fill="rgba(0,0,0,0.3)" stroke="black" stroke-width="0.010593220338983056"/><circle data-type="circle" data-label="" data-x="-2.07070707070707" data-y="-3.98989898989899" cx="316.5252525252526" cy="888.6464646464647" r="28.791999999999987" fill="rgba(0,0,0,0.3)" stroke="black" stroke-width="0.010593220338983056"/><circle data-type="circle" data-label="" data-x="-2.9797979797979792" data-y="2.373737373737375" cx="230.70707070707084" cy="287.91919191919203" r="28.791999999999987" fill="rgba(0,0,0,0.3)" stroke="black" stroke-width="0.010593220338983056"/><circle data-type="circle" data-label="" data-x="2.575757575757577" data-y="2.1717171717171726" cx="755.1515151515151" cy="306.9898989898991" r="28.791999999999987" fill="rgba(0,0,0,0.3)" stroke="black" stroke-width="0.010593220338983056"/><circle data-type="circle" data-label="" data-x="2.575757575757577" data-y="3.6868686868686877" cx="755.1515151515151" cy="163.95959595959613" r="28.791999999999987" fill="rgba(0,0,0,0.3)" stroke="black" stroke-width="0.010593220338983056"/><circle data-type="circle" data-label="" data-x="3.989898989898992" data-y="2.1717171717171726" cx="888.6464646464647" cy="306.9898989898991" r="28.791999999999987" fill="rgba(0,0,0,0.3)" stroke="black" stroke-width="0.010593220338983056"/><circle data-type="circle" data-label="" data-x="0.7575757575757579" data-y="2.676767676767678" cx="583.5151515151515" cy="259.3131313131314" r="28.791999999999987" fill="rgba(0,0,0,0.3)" stroke="black" stroke-width="0.010593220338983056"/><circle data-type="circle" data-label="" data-x="-1.6666666666666665" data-y="2.676767676767678" cx="354.6666666666667" cy="259.3131313131314" r="28.791999999999987" fill="rgba(0,0,0,0.3)" stroke="black" stroke-width="0.010593220338983056"/><circle data-type="circle" data-label="" data-x="-3.98989898989899" data-y="3.2828282828282833" cx="135.35353535353545" cy="202.10101010101027" r="28.791999999999987" fill="rgba(0,0,0,0.3)" stroke="black" stroke-width="0.010593220338983056"/><g id="crosshair" style="display: none"><line id="crosshair-h" y1="0" y2="1024" stroke="#666" stroke-width="0.5"/><line id="crosshair-v" x1="0" x2="1024" stroke="#666" stroke-width="0.5"/><text id="coordinates" font-family="monospace" font-size="12" fill="#666"></text></g><script><![CDATA[
              document.currentScript.parentElement.addEventListener('mousemove', (e) => {
                const svg = e.currentTarget;
                const rect = svg.getBoundingClientRect();
                const x = e.clientX - rect.left;
                const y = e.clientY - rect.top;
                const crosshair = svg.getElementById('crosshair');
                const h = svg.getElementById('crosshair-h');
                const v = svg.getElementById('crosshair-v');
                const coords = svg.getElementById('coordinates');
                
                crosshair.style.display = 'block';
                h.setAttribute('x1', '0');
                h.setAttribute('x2', '1024');
                h.setAttribute('y1', y);
                h.setAttribute('y2', y);
                v.setAttribute('x1', x);
                v.setAttribute('x2', x);
                v.setAttribute('y1', '0');
                v.setAttribute('y2', '1024');

                // Calculate real coordinates using inverse transformation
                const matrix = {"a":94.39999999999996,"c":0,"e":511.99999999999994,"b":0,"d":-94.39999999999996,"f":512.0000000000001};
                // Manually invert and apply the affine transform
                // Since we only use translate and scale, we can directly compute:
                // x' = (x - tx) / sx
                // y' = (y - ty) / sy
                const sx = matrix.a;
                const sy = matrix.d;
                const tx = matrix.e; 
                const ty = matrix.f;
                const realPoint = {
                  x: (x - tx) / sx,
                  y: (y - ty) / sy // Flip y back since we used negative scale
                }
                
                coords.textContent = `(${realPoint.x.toFixed(2)}, ${realPoint.y.toFixed(2)})`;
                coords.setAttribute('x', (x + 5).toString());
                coords.setAttribute('y', (y - 5).toString());
              });
              document.currentScript.parentElement.addEventListener('mouseleave', () => {
                document.currentScript.parentElement.getElementById('crosshair').style.display = 'none';
              });
            ]]></script></svg>