<svg width="1024" height="1024" viewBox="0 0 1024 1024" xmlns="http://www.w3.org/2000/svg"><rect width="100%" height="100%" fill="white"/><g><circle data-type="point" data-label="conn_000" data-x="-3.68" data-y="-5" cx="164.60800000000006" cy="984" r="28.792" fill="blue" stroke="#bda70f" stroke-width="28.792"/></g><g><circle data-type="point" data-label="conn_000" data-x="2.48" data-y="5" cx="746.1119999999999" cy="40.000000000000284" r="28.792" fill="red" stroke="#bda70f" stroke-width="28.792"/></g><g><circle data-type="point" data-label="conn_001" data-x="3.7600000000000002" data-y="-5" cx="866.9439999999998" cy="984" r="28.792" fill="blue" stroke="#0fa0bd" stroke-width="28.792"/></g><g><circle data-type="point" data-label="conn_001" data-x="-5" data-y="0.64" cx="40.000000000000114" cy="451.5840000000001" r="28.792" fill="red" stroke="#0fa0bd" stroke-width="28.792"/></g><g><circle data-type="point" data-label="conn_002" data-x="-5" data-y="-0.64" cx="40.000000000000114" cy="572.416" r="28.792" fill="blue" stroke="#bd0f6d" stroke-width="28.792"/></g><g><circle data-type="point" data-label="conn_002" data-x="5" data-y="-2.08" cx="983.9999999999998" cy="708.3520000000001" r="28.792" fill="blue" stroke="#bd0f6d" stroke-width="28.792"/></g><g><circle data-type="point" data-label="conn_003" data-x="5" data-y="-3.04" cx="983.9999999999998" cy="798.976" r="28.792" fill="blue" stroke="#3bbd0f" stroke-width="28.792"/></g><g><circle data-type="point" data-label="conn_003" data-x="3.62" data-y="5" cx="853.7279999999998" cy="40.000000000000284" r="28.792" fill="blue" stroke="#3bbd0f" stroke-width="28.792"/></g><g><circle data-type="point" data-label="conn_004" data-x="-5" data-y="-1.8" cx="40.000000000000114" cy="681.9200000000001" r="28.792" fill="red" stroke="#170fbd" stroke-width="28.792"/></g><g><circle data-type="point" data-label="conn_004" data-x="5" data-y="-1.3800000000000001" cx="983.9999999999998" cy="642.272" r="28.792" fill="blue" stroke="#170fbd" stroke-width="28.792"/></g><g><circle data-type="point" data-label="conn_005" data-x="5" data-y="-0.12" cx="983.9999999999998" cy="523.3280000000001" r="28.792" fill="blue" stroke="#bd490f" stroke-width="28.792"/></g><g><circle data-type="point" data-label="conn_005" data-x="-5" data-y="4.88" cx="40.000000000000114" cy="51.328000000000316" r="28.792" fill="red" stroke="#bd490f" stroke-width="28.792"/></g><g><polyline data-points="-5.000000000000001,-1.7676767676767675 -4.898989898989899,-1.6666666666666665 -4.7979797979797985,-1.5656565656565653 -4.696969696969697,-1.4646464646464643 -4.595959595959596,-1.363636363636363 -4.494949494949496,-1.363636363636363 -4.393939393939394,-1.363636363636363 -4.292929292929293,-1.363636363636363 -4.191919191919193,-1.363636363636363 -4.090909090909091,-1.363636363636363 -3.98989898989899,-1.363636363636363 -3.8888888888888884,-1.363636363636363 -3.7878787878787876,-1.363636363636363 -3.6868686868686864,-1.363636363636363 -3.5858585858585856,-1.363636363636363 -3.484848484848485,-1.363636363636363 -3.383838383838383,-1.363636363636363 -3.2828282828282824,-1.363636363636363 -3.1818181818181817,-1.363636363636363 -3.0808080808080804,-1.363636363636363 -2.9797979797979792,-1.363636363636363 -2.8787878787878785,-1.363636363636363 -2.7777777777777777,-1.363636363636363 -2.6767676767676765,-1.363636363636363 -2.5757575757575752,-1.363636363636363 -2.474747474747474,-1.363636363636363 -2.3737373737373733,-1.363636363636363 -2.2727272727272725,-1.363636363636363 -2.1717171717171713,-1.363636363636363 -2.07070707070707,-1.363636363636363 -1.9696969696969693,-1.363636363636363 -1.8686868686868683,-1.363636363636363 -1.7676767676767675,-1.363636363636363 -1.6666666666666665,-1.363636363636363 -1.5656565656565653,-1.363636363636363 -1.4646464646464643,-1.363636363636363 -1.363636363636363,-1.363636363636363 -1.2626262626262625,-1.363636363636363 -1.1616161616161613,-1.363636363636363 -1.0606060606060603,-1.363636363636363 -0.9595959595959596,-1.363636363636363 -0.8585858585858579,-1.363636363636363 -0.7575757575757572,-1.363636363636363 -0.6565656565656557,-1.363636363636363 -0.555555555555555,-1.363636363636363 -0.4545454545454544,-1.363636363636363 -0.35353535353535287,-1.363636363636363 -0.2525252525252522,-1.363636363636363 -0.15151515151515066,-1.363636363636363 -0.05050505050505001,-1.363636363636363 0.050505050505051545,-1.363636363636363 0.1515151515151522,-1.363636363636363 0.2525252525252529,-1.363636363636363 0.3535353535353544,-1.363636363636363 0.4545454545454551,-1.363636363636363 0.5555555555555567,-1.363636363636363 0.6565656565656574,-1.363636363636363 0.7575757575757579,-1.363636363636363 0.8585858585858596,-1.363636363636363 0.9595959595959602,-1.363636363636363 1.0606060606060617,-1.363636363636363 1.1616161616161622,-1.363636363636363 1.262626262626263,-1.363636363636363 1.3636363636363644,-1.363636363636363 1.4646464646464652,-1.363636363636363 1.5656565656565666,-1.363636363636363 1.6666666666666674,-1.363636363636363 1.767676767676768,-1.363636363636363 1.8686868686868696,-1.363636363636363 1.9696969696969702,-1.363636363636363 2.070707070707072,-1.363636363636363 2.1717171717171726,-1.363636363636363 2.2727272727272734,-1.363636363636363 2.373737373737375,-1.363636363636363 2.4747474747474754,-1.363636363636363 2.575757575757577,-1.363636363636363 2.676767676767678,-1.363636363636363 2.7777777777777786,-1.363636363636363 2.87878787878788,-1.363636363636363 2.9797979797979806,-1.363636363636363 3.080808080808082,-1.363636363636363 3.181818181818183,-1.363636363636363 3.2828282828282833,-1.363636363636363 3.383838383838384,-1.363636363636363 3.4848484848484866,-1.363636363636363 3.5858585858585874,-1.363636363636363 3.6868686868686877,-1.363636363636363 3.7878787878787885,-1.363636363636363 3.8888888888888893,-1.363636363636363 3.989898989898992,-1.363636363636363" data-type="line" data-label="" points="40.00000000000006,678.8686868686868 49.53535353535369,669.3333333333334 59.07070707070716,659.7979797979798 68.60606060606068,650.2626262626263 78.14141414141426,640.7272727272727 87.67676767676772,640.7272727272727 97.21212121212136,640.7272727272727 106.74747474747483,640.7272727272727 116.28282828282829,640.7272727272727 125.81818181818193,640.7272727272727 135.35353535353545,640.7272727272727 144.88888888888903,640.7272727272727 154.42424242424255,640.7272727272727 163.95959595959607,640.7272727272727 173.4949494949496,640.7272727272727 183.03030303030312,640.7272727272727 192.5656565656567,640.7272727272727 202.10101010101022,640.7272727272727 211.63636363636374,640.7272727272727 221.17171717171726,640.7272727272727 230.70707070707084,640.7272727272727 240.2424242424243,640.7272727272727 249.77777777777783,640.7272727272727 259.3131313131314,640.7272727272727 268.84848484848493,640.7272727272727 278.38383838383845,640.7272727272727 287.91919191919203,640.7272727272727 297.4545454545455,640.7272727272727 306.9898989898991,640.7272727272727 316.5252525252526,640.7272727272727 326.0606060606061,640.7272727272727 335.59595959595964,640.7272727272727 345.13131313131316,640.7272727272727 354.6666666666667,640.7272727272727 364.2020202020202,640.7272727272727 373.7373737373738,640.7272727272727 383.2727272727273,640.7272727272727 392.80808080808083,640.7272727272727 402.34343434343435,640.7272727272727 411.8787878787879,640.7272727272727 421.4141414141414,640.7272727272727 430.949494949495,640.7272727272727 440.4848484848485,640.7272727272727 450.0202020202021,640.7272727272727 459.55555555555554,640.7272727272727 469.09090909090907,640.7272727272727 478.62626262626264,640.7272727272727 488.16161616161617,640.7272727272727 497.69696969696975,640.7272727272727 507.2323232323232,640.7272727272727 516.7676767676768,640.7272727272727 526.3030303030303,640.7272727272727 535.8383838383838,640.7272727272727 545.3737373737374,640.7272727272727 554.9090909090909,640.7272727272727 564.4444444444445,640.7272727272727 573.9797979797979,640.7272727272727 583.5151515151515,640.7272727272727 593.0505050505051,640.7272727272727 602.5858585858585,640.7272727272727 612.1212121212121,640.7272727272727 621.6565656565656,640.7272727272727 631.1919191919192,640.7272727272727 640.7272727272727,640.7272727272727 650.2626262626262,640.7272727272727 659.7979797979798,640.7272727272727 669.3333333333333,640.7272727272727 678.8686868686868,640.7272727272727 688.4040404040404,640.7272727272727 697.9393939393939,640.7272727272727 707.4747474747475,640.7272727272727 717.0101010101009,640.7272727272727 726.5454545454545,640.7272727272727 736.0808080808081,640.7272727272727 745.6161616161615,640.7272727272727 755.1515151515151,640.7272727272727 764.6868686868686,640.7272727272727 774.2222222222222,640.7272727272727 783.7575757575758,640.7272727272727 793.2929292929292,640.7272727272727 802.8282828282828,640.7272727272727 812.3636363636363,640.7272727272727 821.8989898989898,640.7272727272727 831.4343434343433,640.7272727272727 840.969696969697,640.7272727272727 850.5050505050505,640.7272727272727 860.0404040404039,640.7272727272727 869.5757575757575,640.7272727272727 879.111111111111,640.7272727272727 888.6464646464647,640.7272727272727" fill="none" stroke="rgba(255,0,0,0.75)" stroke-width="14.159999999999995"/></g><g><polyline data-points="3.989898989898992,-1.363636363636363 4.090909090909092,-1.363636363636363 4.191919191919193,-1.363636363636363 4.292929292929293,-1.363636363636363 4.393939393939394,-1.363636363636363 4.494949494949497,-1.363636363636363 4.595959595959597,-1.363636363636363 4.696969696969697,-1.363636363636363 4.7979797979797985,-1.363636363636363 4.898989898989901,-1.363636363636363 5.000000000000002,-1.363636363636363" data-type="line" data-label="" points="888.6464646464647,640.7272727272727 898.181818181818,640.7272727272727 907.7171717171716,640.7272727272727 917.2525252525251,640.7272727272727 926.7878787878785,640.7272727272727 936.3232323232323,640.7272727272727 945.8585858585857,640.7272727272727 955.3939393939393,640.7272727272727 964.9292929292927,640.7272727272727 974.4646464646464,640.7272727272727 984,640.7272727272727" fill="none" stroke="rgba(0,0,255,0.75)" stroke-width="14.159999999999995"/></g><g><polyline data-points="5.000000000000002,-0.15151515151515066 4.898989898989901,-0.05050505050505001 4.7979797979797985,0.050505050505051545 4.696969696969697,0.1515151515151522 4.595959595959597,0.2525252525252529 4.494949494949497,0.3535353535353544 4.393939393939394,0.4545454545454551 4.292929292929293,0.5555555555555567 4.191919191919193,0.6565656565656574 4.090909090909092,0.7575757575757579 3.989898989898992,0.8585858585858596 3.8888888888888893,0.9595959595959602 3.7878787878787885,1.0606060606060617 3.6868686868686877,1.1616161616161622 3.5858585858585874,1.262626262626263 3.4848484848484866,1.3636363636363644 3.383838383838384,1.4646464646464652 3.2828282828282833,1.5656565656565666 3.181818181818183,1.6666666666666674 3.080808080808082,1.767676767676768 2.9797979797979806,1.8686868686868696 2.87878787878788,1.9696969696969702 2.7777777777777786,2.070707070707072 2.676767676767678,2.1717171717171726 2.575757575757577,2.2727272727272734 2.4747474747474754,2.373737373737375 2.373737373737375,2.4747474747474754 2.2727272727272734,2.575757575757577 2.1717171717171726,2.676767676767678 2.070707070707072,2.7777777777777786 1.9696969696969702,2.87878787878788 1.8686868686868696,2.9797979797979806 1.767676767676768,3.080808080808082 1.6666666666666674,3.181818181818183 1.5656565656565666,3.2828282828282833 1.4646464646464652,3.383838383838384 1.3636363636363644,3.4848484848484866 1.262626262626263,3.5858585858585874 1.1616161616161622,3.6868686868686877 1.0606060606060617,3.7878787878787885 0.9595959595959602,3.8888888888888893 0.8585858585858596,3.989898989898992 0.7575757575757579,3.989898989898992 0.6565656565656574,3.989898989898992 0.5555555555555567,3.989898989898992 0.4545454545454551,3.989898989898992 0.3535353535353544,3.989898989898992 0.2525252525252529,3.989898989898992 0.1515151515151522,3.989898989898992 0.050505050505051545,3.989898989898992 -0.05050505050505001,3.989898989898992 -0.15151515151515066,3.989898989898992 -0.2525252525252522,3.989898989898992 -0.35353535353535287,3.989898989898992 -0.4545454545454544,3.989898989898992 -0.555555555555555,3.989898989898992 -0.6565656565656557,3.989898989898992 -0.7575757575757572,3.989898989898992 -0.8585858585858579,3.989898989898992 -0.9595959595959596,3.989898989898992 -1.0606060606060603,3.989898989898992 -1.1616161616161613,3.989898989898992 -1.2626262626262625,3.989898989898992 -1.363636363636363,3.989898989898992 -1.4646464646464643,3.989898989898992 -1.5656565656565653,3.989898989898992 -1.6666666666666665,3.989898989898992 -1.7676767676767675,3.989898989898992 -1.8686868686868683,3.989898989898992 -1.9696969696969693,3.989898989898992 -2.07070707070707,3.989898989898992 -2.1717171717171713,3.989898989898992 -2.2727272727272725,3.989898989898992 -2.3737373737373733,3.989898989898992 -2.474747474747474,3.989898989898992 -2.5757575757575752,3.989898989898992 -2.6767676767676765,3.989898989898992 -2.7777777777777777,3.989898989898992 -2.8787878787878785,3.989898989898992 -2.9797979797979792,3.989898989898992 -3.0808080808080804,3.989898989898992 -3.1818181818181817,3.989898989898992 -3.2828282828282824,3.989898989898992 -3.383838383838383,3.989898989898992 -3.484848484848485,3.989898989898992 -3.5858585858585856,3.989898989898992 -3.6868686868686864,3.989898989898992" data-type="line" data-label="" points="984,526.3030303030304 974.4646464646464,516.7676767676768 964.9292929292927,507.23232323232327 955.3939393939393,497.69696969696975 945.8585858585857,488.1616161616163 936.3232323232323,478.6262626262627 926.7878787878785,469.0909090909092 917.2525252525251,459.5555555555556 907.7171717171716,450.0202020202021 898.181818181818,440.4848484848486 888.6464646464647,430.94949494949503 879.111111111111,421.4141414141415 869.5757575757575,411.87878787878793 860.0404040404039,402.3434343434344 850.5050505050505,392.80808080808094 840.969696969697,383.27272727272737 831.4343434343433,373.73737373737384 821.8989898989898,364.2020202020203 812.3636363636363,354.66666666666674 802.8282828282828,345.1313131313133 793.2929292929292,335.5959595959597 783.7575757575758,326.06060606060623 774.2222222222222,316.5252525252526 764.6868686868686,306.9898989898991 755.1515151515151,297.4545454545456 745.6161616161615,287.91919191919203 736.0808080808081,278.38383838383857 726.5454545454545,268.84848484848493 717.0101010101009,259.3131313131314 707.4747474747475,249.77777777777794 697.9393939393939,240.24242424242436 688.4040404040404,230.70707070707084 678.8686868686868,221.17171717171726 669.3333333333333,211.63636363636374 659.7979797979798,202.10101010101027 650.2626262626262,192.56565656565675 640.7272727272727,183.03030303030312 631.1919191919192,173.4949494949496 621.6565656565656,163.95959595959613 612.1212121212121,154.4242424242426 602.5858585858585,144.88888888888908 593.0505050505051,135.35353535353545 583.5151515151515,135.35353535353545 573.9797979797979,135.35353535353545 564.4444444444445,135.35353535353545 554.9090909090909,135.35353535353545 545.3737373737374,135.35353535353545 535.8383838383838,135.35353535353545 526.3030303030303,135.35353535353545 516.7676767676768,135.35353535353545 507.2323232323232,135.35353535353545 497.69696969696975,135.35353535353545 488.16161616161617,135.35353535353545 478.62626262626264,135.35353535353545 469.09090909090907,135.35353535353545 459.55555555555554,135.35353535353545 450.0202020202021,135.35353535353545 440.4848484848485,135.35353535353545 430.949494949495,135.35353535353545 421.4141414141414,135.35353535353545 411.8787878787879,135.35353535353545 402.34343434343435,135.35353535353545 392.80808080808083,135.35353535353545 383.2727272727273,135.35353535353545 373.7373737373738,135.35353535353545 364.2020202020202,135.35353535353545 354.6666666666667,135.35353535353545 345.13131313131316,135.35353535353545 335.59595959595964,135.35353535353545 326.0606060606061,135.35353535353545 316.5252525252526,135.35353535353545 306.9898989898991,135.35353535353545 297.4545454545455,135.35353535353545 287.91919191919203,135.35353535353545 278.38383838383845,135.35353535353545 268.84848484848493,135.35353535353545 259.3131313131314,135.35353535353545 249.77777777777783,135.35353535353545 240.2424242424243,135.35353535353545 230.70707070707084,135.35353535353545 221.17171717171726,135.35353535353545 211.63636363636374,135.35353535353545 202.10101010101022,135.35353535353545 192.5656565656567,135.35353535353545 183.03030303030312,135.35353535353545 173.4949494949496,135.35353535353545 163.95959595959607,135.35353535353545" fill="none" stroke="rgba(0,0,255,0.75)" stroke-width="14.159999999999995"/></g><g><polyline data-points="-3.6868686868686864,3.989898989898992 -3.7878787878787876,4.090909090909092 -3.8888888888888884,4.191919191919193 -3.98989898989899,4.292929292929293 -4.090909090909091,4.393939393939394 -4.191919191919193,4.494949494949497 -4.292929292929293,4.595959595959597 -4.393939393939394,4.696969696969697 -4.494949494949496,4.7979797979797985 -4.595959595959596,4.898989898989901 -4.696969696969697,4.898989898989901 -4.7979797979797985,4.898989898989901 -4.898989898989899,4.898989898989901 -5.000000000000001,4.898989898989901" data-type="line" data-label="" points="163.95959595959607,135.35353535353545 154.42424242424255,125.81818181818198 144.88888888888903,116.28282828282846 135.35353535353545,106.747474747475 125.81818181818193,97.21212121212153 116.28282828282829,87.67676767676778 106.74747474747483,78.14141414141432 97.21212121212136,68.60606060606085 87.67676767676772,59.07070707070733 78.14141414141426,49.53535353535369 68.60606060606068,49.53535353535369 59.07070707070716,49.53535353535369 49.53535353535369,49.53535353535369 40.00000000000006,49.53535353535369" fill="none" stroke="rgba(255,0,0,0.75)" stroke-width="14.159999999999995"/></g><g><polyline data-points="3.7878787878787885,-5.000000000000001 3.6868686868686877,-4.898989898989899 3.5858585858585874,-4.7979797979797985 3.4848484848484866,-4.696969696969697 3.383838383838384,-4.595959595959596 3.2828282828282833,-4.494949494949496 3.181818181818183,-4.393939393939394 3.080808080808082,-4.292929292929293 2.9797979797979806,-4.191919191919193 2.87878787878788,-4.090909090909091 2.7777777777777786,-3.98989898989899 2.676767676767678,-3.8888888888888884 2.575757575757577,-3.7878787878787876 2.4747474747474754,-3.6868686868686864 2.373737373737375,-3.5858585858585856 2.2727272727272734,-3.484848484848485 2.1717171717171726,-3.383838383838383 2.070707070707072,-3.2828282828282824 1.9696969696969702,-3.1818181818181817 1.8686868686868696,-3.0808080808080804 1.767676767676768,-2.9797979797979792 1.6666666666666674,-2.8787878787878785 1.5656565656565666,-2.7777777777777777 1.4646464646464652,-2.6767676767676765 1.3636363636363644,-2.5757575757575752 1.262626262626263,-2.474747474747474 1.1616161616161622,-2.3737373737373733 1.0606060606060617,-2.2727272727272725 0.9595959595959602,-2.1717171717171713 0.8585858585858596,-2.07070707070707 0.7575757575757579,-1.9696969696969693 0.6565656565656574,-1.8686868686868683 0.5555555555555567,-1.7676767676767675 0.4545454545454551,-1.6666666666666665 0.3535353535353544,-1.5656565656565653 0.2525252525252529,-1.4646464646464643 0.1515151515151522,-1.363636363636363 0.050505050505051545,-1.2626262626262625 -0.05050505050505001,-1.1616161616161613 -0.15151515151515066,-1.0606060606060603 -0.2525252525252522,-0.9595959595959596 -0.35353535353535287,-0.8585858585858579 -0.4545454545454544,-0.7575757575757572 -0.555555555555555,-0.6565656565656557 -0.6565656565656557,-0.555555555555555 -0.7575757575757572,-0.4545454545454544 -0.8585858585858579,-0.35353535353535287 -0.9595959595959596,-0.2525252525252522 -1.0606060606060603,-0.15151515151515066 -1.1616161616161613,-0.05050505050505001 -1.2626262626262625,0.050505050505051545 -1.363636363636363,0.1515151515151522 -1.4646464646464643,0.2525252525252529 -1.5656565656565653,0.3535353535353544 -1.6666666666666665,0.4545454545454551 -1.7676767676767675,0.5555555555555567 -1.8686868686868683,0.6565656565656574 -1.9696969696969693,0.6565656565656574 -2.07070707070707,0.6565656565656574 -2.1717171717171713,0.6565656565656574 -2.2727272727272725,0.6565656565656574 -2.3737373737373733,0.6565656565656574 -2.474747474747474,0.6565656565656574 -2.5757575757575752,0.6565656565656574 -2.6767676767676765,0.6565656565656574 -2.7777777777777777,0.6565656565656574 -2.8787878787878785,0.6565656565656574 -2.9797979797979792,0.6565656565656574 -3.0808080808080804,0.6565656565656574 -3.1818181818181817,0.6565656565656574 -3.2828282828282824,0.6565656565656574 -3.383838383838383,0.6565656565656574 -3.484848484848485,0.6565656565656574 -3.5858585858585856,0.6565656565656574 -3.6868686868686864,0.6565656565656574 -3.7878787878787876,0.6565656565656574 -3.8888888888888884,0.6565656565656574 -3.98989898989899,0.6565656565656574" data-type="line" data-label="" points="869.5757575757575,984 860.0404040404039,974.4646464646464 850.5050505050505,964.9292929292928 840.969696969697,955.3939393939394 831.4343434343433,945.8585858585858 821.8989898989898,936.3232323232323 812.3636363636363,926.7878787878788 802.8282828282828,917.2525252525252 793.2929292929292,907.7171717171718 783.7575757575758,898.1818181818181 774.2222222222222,888.6464646464647 764.6868686868686,879.1111111111111 755.1515151515151,869.5757575757575 745.6161616161615,860.0404040404039 736.0808080808081,850.5050505050505 726.5454545454545,840.969696969697 717.0101010101009,831.4343434343434 707.4747474747475,821.8989898989898 697.9393939393939,812.3636363636363 688.4040404040404,802.8282828282828 678.8686868686868,793.2929292929292 669.3333333333333,783.7575757575758 659.7979797979798,774.2222222222222 650.2626262626262,764.6868686868687 640.7272727272727,755.1515151515151 631.1919191919192,745.6161616161615 621.6565656565656,736.0808080808081 612.1212121212121,726.5454545454545 602.5858585858585,717.010101010101 593.0505050505051,707.4747474747475 583.5151515151515,697.939393939394 573.9797979797979,688.4040404040404 564.4444444444445,678.8686868686868 554.9090909090909,669.3333333333334 545.3737373737374,659.7979797979798 535.8383838383838,650.2626262626263 526.3030303030303,640.7272727272727 516.7676767676768,631.1919191919193 507.2323232323232,621.6565656565657 497.69696969696975,612.1212121212121 488.16161616161617,602.5858585858587 478.62626262626264,593.0505050505051 469.09090909090907,583.5151515151516 459.55555555555554,573.979797979798 450.0202020202021,564.4444444444445 440.4848484848485,554.909090909091 430.949494949495,545.3737373737374 421.4141414141414,535.838383838384 411.8787878787879,526.3030303030304 402.34343434343435,516.7676767676768 392.80808080808083,507.23232323232327 383.2727272727273,497.69696969696975 373.7373737373738,488.1616161616163 364.2020202020202,478.6262626262627 354.6666666666667,469.0909090909092 345.13131313131316,459.5555555555556 335.59595959595964,450.0202020202021 326.0606060606061,450.0202020202021 316.5252525252526,450.0202020202021 306.9898989898991,450.0202020202021 297.4545454545455,450.0202020202021 287.91919191919203,450.0202020202021 278.38383838383845,450.0202020202021 268.84848484848493,450.0202020202021 259.3131313131314,450.0202020202021 249.77777777777783,450.0202020202021 240.2424242424243,450.0202020202021 230.70707070707084,450.0202020202021 221.17171717171726,450.0202020202021 211.63636363636374,450.0202020202021 202.10101010101022,450.0202020202021 192.5656565656567,450.0202020202021 183.03030303030312,450.0202020202021 173.4949494949496,450.0202020202021 163.95959595959607,450.0202020202021 154.42424242424255,450.0202020202021 144.88888888888903,450.0202020202021 135.35353535353545,450.0202020202021" fill="none" stroke="rgba(0,0,255,0.75)" stroke-width="14.159999999999995"/></g><g><polyline data-points="-3.98989898989899,0.6565656565656574 -4.090909090909091,0.6565656565656574 -4.191919191919193,0.6565656565656574 -4.292929292929293,0.6565656565656574 -4.393939393939394,0.6565656565656574 -4.494949494949496,0.6565656565656574 -4.595959595959596,0.6565656565656574 -4.696969696969697,0.6565656565656574 -4.7979797979797985,0.6565656565656574 -4.898989898989899,0.6565656565656574 -5.000000000000001,0.6565656565656574" data-type="line" data-label="" points="135.35353535353545,450.0202020202021 125.81818181818193,450.0202020202021 116.28282828282829,450.0202020202021 106.74747474747483,450.0202020202021 97.21212121212136,450.0202020202021 87.67676767676772,450.0202020202021 78.14141414141426,450.0202020202021 68.60606060606068,450.0202020202021 59.07070707070716,450.0202020202021 49.53535353535369,450.0202020202021 40.00000000000006,450.0202020202021" fill="none" stroke="rgba(255,0,0,0.75)" stroke-width="14.159999999999995"/></g><g><polyline data-points="-3.6868686868686864,-5.000000000000001 -3.5858585858585856,-4.898989898989899 -3.484848484848485,-4.7979797979797985 -3.383838383838383,-4.696969696969697 -3.2828282828282824,-4.595959595959596 -3.1818181818181817,-4.494949494949496 -3.0808080808080804,-4.393939393939394 -2.9797979797979792,-4.292929292929293 -2.8787878787878785,-4.191919191919193 -2.7777777777777777,-4.090909090909091 -2.6767676767676765,-3.98989898989899 -2.5757575757575752,-3.8888888888888884 -2.474747474747474,-3.7878787878787876 -2.3737373737373733,-3.6868686868686864 -2.2727272727272725,-3.5858585858585856 -2.1717171717171713,-3.484848484848485 -2.07070707070707,-3.383838383838383 -1.9696969696969693,-3.2828282828282824 -1.8686868686868683,-3.1818181818181817 -1.7676767676767675,-3.0808080808080804 -1.6666666666666665,-2.9797979797979792 -1.5656565656565653,-2.8787878787878785 -1.4646464646464643,-2.7777777777777777 -1.363636363636363,-2.6767676767676765 -1.2626262626262625,-2.5757575757575752 -1.1616161616161613,-2.474747474747474 -1.0606060606060603,-2.3737373737373733 -0.9595959595959596,-2.2727272727272725 -0.8585858585858579,-2.1717171717171713 -0.7575757575757572,-2.07070707070707 -0.6565656565656557,-1.9696969696969693 -0.555555555555555,-1.9696969696969693 -0.4545454545454544,-1.9696969696969693 -0.35353535353535287,-1.9696969696969693 -0.2525252525252522,-1.9696969696969693 -0.15151515151515066,-1.9696969696969693 -0.05050505050505001,-1.9696969696969693" data-type="line" data-label="" points="163.95959595959607,984 173.4949494949496,974.4646464646464 183.03030303030312,964.9292929292928 192.5656565656567,955.3939393939394 202.10101010101022,945.8585858585858 211.63636363636374,936.3232323232323 221.17171717171726,926.7878787878788 230.70707070707084,917.2525252525252 240.2424242424243,907.7171717171718 249.77777777777783,898.1818181818181 259.3131313131314,888.6464646464647 268.84848484848493,879.1111111111111 278.38383838383845,869.5757575757575 287.91919191919203,860.0404040404039 297.4545454545455,850.5050505050505 306.9898989898991,840.969696969697 316.5252525252526,831.4343434343434 326.0606060606061,821.8989898989898 335.59595959595964,812.3636363636363 345.13131313131316,802.8282828282828 354.6666666666667,793.2929292929292 364.2020202020202,783.7575757575758 373.7373737373738,774.2222222222222 383.2727272727273,764.6868686868687 392.80808080808083,755.1515151515151 402.34343434343435,745.6161616161615 411.8787878787879,736.0808080808081 421.4141414141414,726.5454545454545 430.949494949495,717.010101010101 440.4848484848485,707.4747474747475 450.0202020202021,697.939393939394 459.55555555555554,697.939393939394 469.09090909090907,697.939393939394 478.62626262626264,697.939393939394 488.16161616161617,697.939393939394 497.69696969696975,697.939393939394 507.2323232323232,697.939393939394" fill="none" stroke="rgba(0,0,255,0.75)" stroke-width="14.159999999999995"/></g><g><polyline data-points="-0.05050505050505001,-1.9696969696969693 0.050505050505051545,-1.9696969696969693 0.1515151515151522,-1.9696969696969693 0.2525252525252529,-1.9696969696969693 0.3535353535353544,-1.9696969696969693 0.4545454545454551,-1.9696969696969693 0.5555555555555567,-1.9696969696969693 0.6565656565656574,-1.9696969696969693 0.7575757575757579,-1.9696969696969693 0.8585858585858596,-1.9696969696969693 0.9595959595959602,-1.9696969696969693 1.0606060606060617,-1.9696969696969693 1.1616161616161622,-1.9696969696969693 1.262626262626263,-1.9696969696969693 1.3636363636363644,-1.9696969696969693 1.4646464646464652,-1.9696969696969693 1.5656565656565666,-1.9696969696969693 1.6666666666666674,-1.9696969696969693 1.767676767676768,-1.9696969696969693 1.8686868686868696,-1.9696969696969693" data-type="line" data-label="" points="507.2323232323232,697.939393939394 516.7676767676768,697.939393939394 526.3030303030303,697.939393939394 535.8383838383838,697.939393939394 545.3737373737374,697.939393939394 554.9090909090909,697.939393939394 564.4444444444445,697.939393939394 573.9797979797979,697.939393939394 583.5151515151515,697.939393939394 593.0505050505051,697.939393939394 602.5858585858585,697.939393939394 612.1212121212121,697.939393939394 621.6565656565656,697.939393939394 631.1919191919192,697.939393939394 640.7272727272727,697.939393939394 650.2626262626262,697.939393939394 659.7979797979798,697.939393939394 669.3333333333333,697.939393939394 678.8686868686868,697.939393939394 688.4040404040404,697.939393939394" fill="none" stroke="rgba(255,0,0,0.75)" stroke-width="14.159999999999995"/></g><g><polyline data-points="1.8686868686868696,-1.9696969696969693 1.9696969696969702,-1.8686868686868683 2.070707070707072,-1.7676767676767675 2.1717171717171726,-1.6666666666666665 2.2727272727272734,-1.5656565656565653 2.373737373737375,-1.4646464646464643 2.4747474747474754,-1.363636363636363 2.4747474747474754,-1.2626262626262625 2.4747474747474754,-1.1616161616161613 2.4747474747474754,-1.0606060606060603 2.4747474747474754,-0.9595959595959596 2.4747474747474754,-0.8585858585858579 2.4747474747474754,-0.7575757575757572 2.4747474747474754,-0.6565656565656557 2.4747474747474754,-0.555555555555555 2.4747474747474754,-0.4545454545454544 2.4747474747474754,-0.35353535353535287 2.4747474747474754,-0.2525252525252522 2.4747474747474754,-0.15151515151515066 2.4747474747474754,-0.05050505050505001 2.4747474747474754,0.050505050505051545 2.4747474747474754,0.1515151515151522 2.4747474747474754,0.2525252525252529 2.4747474747474754,0.3535353535353544 2.4747474747474754,0.4545454545454551 2.4747474747474754,0.5555555555555567 2.4747474747474754,0.6565656565656574 2.4747474747474754,0.7575757575757579 2.4747474747474754,0.8585858585858596 2.4747474747474754,0.9595959595959602 2.4747474747474754,1.0606060606060617 2.4747474747474754,1.1616161616161622 2.4747474747474754,1.262626262626263 2.4747474747474754,1.3636363636363644 2.4747474747474754,1.4646464646464652 2.4747474747474754,1.5656565656565666" data-type="line" data-label="" points="688.4040404040404,697.939393939394 697.9393939393939,688.4040404040404 707.4747474747475,678.8686868686868 717.0101010101009,669.3333333333334 726.5454545454545,659.7979797979798 736.0808080808081,650.2626262626263 745.6161616161615,640.7272727272727 745.6161616161615,631.1919191919193 745.6161616161615,621.6565656565657 745.6161616161615,612.1212121212121 745.6161616161615,602.5858585858587 745.6161616161615,593.0505050505051 745.6161616161615,583.5151515151516 745.6161616161615,573.979797979798 745.6161616161615,564.4444444444445 745.6161616161615,554.909090909091 745.6161616161615,545.3737373737374 745.6161616161615,535.838383838384 745.6161616161615,526.3030303030304 745.6161616161615,516.7676767676768 745.6161616161615,507.23232323232327 745.6161616161615,497.69696969696975 745.6161616161615,488.1616161616163 745.6161616161615,478.6262626262627 745.6161616161615,469.0909090909092 745.6161616161615,459.5555555555556 745.6161616161615,450.0202020202021 745.6161616161615,440.4848484848486 745.6161616161615,430.94949494949503 745.6161616161615,421.4141414141415 745.6161616161615,411.87878787878793 745.6161616161615,402.3434343434344 745.6161616161615,392.80808080808094 745.6161616161615,383.27272727272737 745.6161616161615,373.73737373737384 745.6161616161615,364.2020202020203" fill="none" stroke="rgba(0,0,255,0.75)" stroke-width="14.159999999999995"/></g><g><polyline data-points="2.4747474747474754,1.5656565656565666 2.4747474747474754,1.6666666666666674 2.4747474747474754,1.767676767676768 2.4747474747474754,1.8686868686868696 2.4747474747474754,1.9696969696969702 2.4747474747474754,2.070707070707072 2.4747474747474754,2.1717171717171726 2.4747474747474754,2.2727272727272734 2.4747474747474754,2.373737373737375 2.4747474747474754,2.4747474747474754 2.4747474747474754,2.575757575757577 2.4747474747474754,2.676767676767678 2.4747474747474754,2.7777777777777786 2.4747474747474754,2.87878787878788 2.4747474747474754,2.9797979797979806 2.4747474747474754,3.080808080808082 2.4747474747474754,3.181818181818183 2.4747474747474754,3.2828282828282833 2.4747474747474754,3.383838383838384 2.4747474747474754,3.4848484848484866 2.4747474747474754,3.5858585858585874 2.4747474747474754,3.6868686868686877 2.4747474747474754,3.7878787878787885 2.4747474747474754,3.8888888888888893 2.4747474747474754,3.989898989898992 2.4747474747474754,4.090909090909092 2.4747474747474754,4.191919191919193 2.4747474747474754,4.292929292929293 2.4747474747474754,4.393939393939394 2.4747474747474754,4.494949494949497 2.4747474747474754,4.595959595959597 2.4747474747474754,4.696969696969697 2.4747474747474754,4.7979797979797985 2.4747474747474754,4.898989898989901 2.4747474747474754,5.000000000000002" data-type="line" data-label="" points="745.6161616161615,364.2020202020203 745.6161616161615,354.66666666666674 745.6161616161615,345.1313131313133 745.6161616161615,335.5959595959597 745.6161616161615,326.06060606060623 745.6161616161615,316.5252525252526 745.6161616161615,306.9898989898991 745.6161616161615,297.4545454545456 745.6161616161615,287.91919191919203 745.6161616161615,278.38383838383857 745.6161616161615,268.84848484848493 745.6161616161615,259.3131313131314 745.6161616161615,249.77777777777794 745.6161616161615,240.24242424242436 745.6161616161615,230.70707070707084 745.6161616161615,221.17171717171726 745.6161616161615,211.63636363636374 745.6161616161615,202.10101010101027 745.6161616161615,192.56565656565675 745.6161616161615,183.03030303030312 745.6161616161615,173.4949494949496 745.6161616161615,163.95959595959613 745.6161616161615,154.4242424242426 745.6161616161615,144.88888888888908 745.6161616161615,135.35353535353545 745.6161616161615,125.81818181818198 745.6161616161615,116.28282828282846 745.6161616161615,106.747474747475 745.6161616161615,97.21212121212153 745.6161616161615,87.67676767676778 745.6161616161615,78.14141414141432 745.6161616161615,68.60606060606085 745.6161616161615,59.07070707070733 745.6161616161615,49.53535353535369 745.6161616161615,40.000000000000114" fill="none" stroke="rgba(255,0,0,0.75)" stroke-width="14.159999999999995"/></g><g><polyline data-points="-5.000000000000001,-0.6565656565656557 -4.898989898989899,-0.7575757575757572 -4.7979797979797985,-0.8585858585858579 -4.696969696969697,-0.9595959595959596 -4.595959595959596,-1.0606060606060603 -4.494949494949496,-1.1616161616161613 -4.393939393939394,-1.2626262626262625 -4.292929292929293,-1.363636363636363 -4.191919191919193,-1.4646464646464643 -4.090909090909091,-1.5656565656565653 -3.98989898989899,-1.6666666666666665 -3.8888888888888884,-1.7676767676767675 -3.7878787878787876,-1.8686868686868683 -3.6868686868686864,-1.9696969696969693 -3.5858585858585856,-2.07070707070707 -3.484848484848485,-2.07070707070707 -3.383838383838383,-2.07070707070707 -3.2828282828282824,-2.07070707070707 -3.1818181818181817,-2.07070707070707 -3.0808080808080804,-2.07070707070707 -2.9797979797979792,-2.07070707070707 -2.8787878787878785,-2.07070707070707 -2.7777777777777777,-2.07070707070707 -2.6767676767676765,-2.07070707070707 -2.5757575757575752,-2.07070707070707 -2.474747474747474,-2.07070707070707 -2.3737373737373733,-2.07070707070707 -2.2727272727272725,-2.07070707070707 -2.1717171717171713,-2.07070707070707 -2.07070707070707,-2.07070707070707 -1.9696969696969693,-2.07070707070707 -1.8686868686868683,-2.07070707070707 -1.7676767676767675,-2.07070707070707 -1.6666666666666665,-2.07070707070707 -1.5656565656565653,-2.07070707070707" data-type="line" data-label="" points="40.00000000000006,573.979797979798 49.53535353535369,583.5151515151516 59.07070707070716,593.0505050505051 68.60606060606068,602.5858585858587 78.14141414141426,612.1212121212121 87.67676767676772,621.6565656565657 97.21212121212136,631.1919191919193 106.74747474747483,640.7272727272727 116.28282828282829,650.2626262626263 125.81818181818193,659.7979797979798 135.35353535353545,669.3333333333334 144.88888888888903,678.8686868686868 154.42424242424255,688.4040404040404 163.95959595959607,697.939393939394 173.4949494949496,707.4747474747475 183.03030303030312,707.4747474747475 192.5656565656567,707.4747474747475 202.10101010101022,707.4747474747475 211.63636363636374,707.4747474747475 221.17171717171726,707.4747474747475 230.70707070707084,707.4747474747475 240.2424242424243,707.4747474747475 249.77777777777783,707.4747474747475 259.3131313131314,707.4747474747475 268.84848484848493,707.4747474747475 278.38383838383845,707.4747474747475 287.91919191919203,707.4747474747475 297.4545454545455,707.4747474747475 306.9898989898991,707.4747474747475 316.5252525252526,707.4747474747475 326.0606060606061,707.4747474747475 335.59595959595964,707.4747474747475 345.13131313131316,707.4747474747475 354.6666666666667,707.4747474747475 364.2020202020202,707.4747474747475" fill="none" stroke="rgba(0,0,255,0.75)" stroke-width="14.159999999999995"/></g><g><polyline data-points="-1.5656565656565653,-2.07070707070707 -1.4646464646464643,-2.07070707070707 -1.363636363636363,-2.07070707070707 -1.2626262626262625,-2.07070707070707 -1.1616161616161613,-2.07070707070707 -1.0606060606060603,-2.07070707070707 -0.9595959595959596,-2.07070707070707 -0.8585858585858579,-2.07070707070707 -0.7575757575757572,-2.07070707070707 -0.6565656565656557,-2.07070707070707 -0.555555555555555,-2.07070707070707 -0.4545454545454544,-2.1717171717171713 -0.35353535353535287,-2.2727272727272725 -0.2525252525252522,-2.3737373737373733 -0.15151515151515066,-2.3737373737373733 -0.05050505050505001,-2.474747474747474 0.050505050505051545,-2.474747474747474 0.1515151515151522,-2.474747474747474 0.2525252525252529,-2.474747474747474 0.3535353535353544,-2.474747474747474 0.4545454545454551,-2.474747474747474 0.5555555555555567,-2.474747474747474 0.6565656565656574,-2.474747474747474 0.7575757575757579,-2.474747474747474 0.8585858585858596,-2.474747474747474 0.9595959595959602,-2.474747474747474 1.0606060606060617,-2.474747474747474 1.1616161616161622,-2.474747474747474 1.262626262626263,-2.474747474747474 1.3636363636363644,-2.474747474747474 1.4646464646464652,-2.474747474747474 1.5656565656565666,-2.474747474747474 1.6666666666666674,-2.474747474747474 1.767676767676768,-2.474747474747474 1.8686868686868696,-2.474747474747474 1.9696969696969702,-2.3737373737373733 2.070707070707072,-2.3737373737373733 2.1717171717171726,-2.2727272727272725 2.2727272727272734,-2.1717171717171713 2.373737373737375,-2.07070707070707 2.4747474747474754,-2.07070707070707 2.575757575757577,-2.07070707070707 2.676767676767678,-2.07070707070707 2.7777777777777786,-2.07070707070707 2.87878787878788,-2.07070707070707 2.9797979797979806,-2.07070707070707 3.080808080808082,-2.07070707070707 3.181818181818183,-2.07070707070707 3.2828282828282833,-2.07070707070707 3.383838383838384,-2.07070707070707 3.4848484848484866,-2.07070707070707 3.5858585858585874,-2.07070707070707 3.6868686868686877,-2.07070707070707" data-type="line" data-label="" points="364.2020202020202,707.4747474747475 373.7373737373738,707.4747474747475 383.2727272727273,707.4747474747475 392.80808080808083,707.4747474747475 402.34343434343435,707.4747474747475 411.8787878787879,707.4747474747475 421.4141414141414,707.4747474747475 430.949494949495,707.4747474747475 440.4848484848485,707.4747474747475 450.0202020202021,707.4747474747475 459.55555555555554,707.4747474747475 469.09090909090907,717.010101010101 478.62626262626264,726.5454545454545 488.16161616161617,736.0808080808081 497.69696969696975,736.0808080808081 507.2323232323232,745.6161616161615 516.7676767676768,745.6161616161615 526.3030303030303,745.6161616161615 535.8383838383838,745.6161616161615 545.3737373737374,745.6161616161615 554.9090909090909,745.6161616161615 564.4444444444445,745.6161616161615 573.9797979797979,745.6161616161615 583.5151515151515,745.6161616161615 593.0505050505051,745.6161616161615 602.5858585858585,745.6161616161615 612.1212121212121,745.6161616161615 621.6565656565656,745.6161616161615 631.1919191919192,745.6161616161615 640.7272727272727,745.6161616161615 650.2626262626262,745.6161616161615 659.7979797979798,745.6161616161615 669.3333333333333,745.6161616161615 678.8686868686868,745.6161616161615 688.4040404040404,745.6161616161615 697.9393939393939,736.0808080808081 707.4747474747475,736.0808080808081 717.0101010101009,726.5454545454545 726.5454545454545,717.010101010101 736.0808080808081,707.4747474747475 745.6161616161615,707.4747474747475 755.1515151515151,707.4747474747475 764.6868686868686,707.4747474747475 774.2222222222222,707.4747474747475 783.7575757575758,707.4747474747475 793.2929292929292,707.4747474747475 802.8282828282828,707.4747474747475 812.3636363636363,707.4747474747475 821.8989898989898,707.4747474747475 831.4343434343433,707.4747474747475 840.969696969697,707.4747474747475 850.5050505050505,707.4747474747475 860.0404040404039,707.4747474747475" fill="none" stroke="rgba(255,0,0,0.75)" stroke-width="14.159999999999995"/></g><g><polyline data-points="3.6868686868686877,-2.07070707070707 3.7878787878787885,-2.07070707070707 3.8888888888888893,-2.07070707070707 3.989898989898992,-2.07070707070707 4.090909090909092,-2.07070707070707 4.191919191919193,-2.07070707070707 4.292929292929293,-2.07070707070707 4.393939393939394,-2.07070707070707 4.494949494949497,-2.07070707070707 4.595959595959597,-2.07070707070707 4.696969696969697,-2.07070707070707 4.7979797979797985,-2.07070707070707 4.898989898989901,-2.07070707070707 5.000000000000002,-2.07070707070707" data-type="line" data-label="" points="860.0404040404039,707.4747474747475 869.5757575757575,707.4747474747475 879.111111111111,707.4747474747475 888.6464646464647,707.4747474747475 898.181818181818,707.4747474747475 907.7171717171716,707.4747474747475 917.2525252525251,707.4747474747475 926.7878787878785,707.4747474747475 936.3232323232323,707.4747474747475 945.8585858585857,707.4747474747475 955.3939393939393,707.4747474747475 964.9292929292927,707.4747474747475 974.4646464646464,707.4747474747475 984,707.4747474747475" fill="none" stroke="rgba(0,0,255,0.75)" stroke-width="14.159999999999995"/></g><g><polyline data-points="5.000000000000002,-3.0808080808080804 4.898989898989901,-2.9797979797979792 4.7979797979797985,-2.8787878787878785 4.696969696969697,-2.7777777777777777 4.595959595959597,-2.6767676767676765 4.494949494949497,-2.6767676767676765 4.393939393939394,-2.6767676767676765 4.292929292929293,-2.6767676767676765 4.191919191919193,-2.6767676767676765 4.090909090909092,-2.6767676767676765 3.989898989898992,-2.6767676767676765 3.8888888888888893,-2.6767676767676765 3.7878787878787885,-2.6767676767676765 3.6868686868686877,-2.6767676767676765 3.5858585858585874,-2.5757575757575752 3.4848484848484866,-2.474747474747474 3.383838383838384,-2.3737373737373733 3.2828282828282833,-2.2727272727272725 3.2828282828282833,-2.1717171717171713 3.181818181818183,-2.07070707070707 3.2828282828282833,-1.9696969696969693 3.2828282828282833,-1.8686868686868683 3.383838383838384,-1.7676767676767675 3.4848484848484866,-1.6666666666666665 3.4848484848484866,-1.5656565656565653 3.4848484848484866,-1.4646464646464643 3.4848484848484866,-1.363636363636363 3.5858585858585874,-1.2626262626262625 3.5858585858585874,-1.1616161616161613 3.6868686868686877,-1.0606060606060603 3.6868686868686877,-0.9595959595959596 3.6868686868686877,-0.8585858585858579 3.6868686868686877,-0.7575757575757572 3.6868686868686877,-0.6565656565656557 3.6868686868686877,-0.555555555555555 3.6868686868686877,-0.4545454545454544 3.6868686868686877,-0.35353535353535287 3.6868686868686877,-0.2525252525252522 3.6868686868686877,-0.15151515151515066 3.6868686868686877,-0.05050505050505001 3.6868686868686877,0.050505050505051545 3.6868686868686877,0.1515151515151522 3.6868686868686877,0.2525252525252529 3.6868686868686877,0.3535353535353544" data-type="line" data-label="" points="984,802.8282828282828 974.4646464646464,793.2929292929292 964.9292929292927,783.7575757575758 955.3939393939393,774.2222222222222 945.8585858585857,764.6868686868687 936.3232323232323,764.6868686868687 926.7878787878785,764.6868686868687 917.2525252525251,764.6868686868687 907.7171717171716,764.6868686868687 898.181818181818,764.6868686868687 888.6464646464647,764.6868686868687 879.111111111111,764.6868686868687 869.5757575757575,764.6868686868687 860.0404040404039,764.6868686868687 850.5050505050505,755.1515151515151 840.969696969697,745.6161616161615 831.4343434343433,736.0808080808081 821.8989898989898,726.5454545454545 821.8989898989898,717.010101010101 812.3636363636363,707.4747474747475 821.8989898989898,697.939393939394 821.8989898989898,688.4040404040404 831.4343434343433,678.8686868686868 840.969696969697,669.3333333333334 840.969696969697,659.7979797979798 840.969696969697,650.2626262626263 840.969696969697,640.7272727272727 850.5050505050505,631.1919191919193 850.5050505050505,621.6565656565657 860.0404040404039,612.1212121212121 860.0404040404039,602.5858585858587 860.0404040404039,593.0505050505051 860.0404040404039,583.5151515151516 860.0404040404039,573.979797979798 860.0404040404039,564.4444444444445 860.0404040404039,554.909090909091 860.0404040404039,545.3737373737374 860.0404040404039,535.838383838384 860.0404040404039,526.3030303030304 860.0404040404039,516.7676767676768 860.0404040404039,507.23232323232327 860.0404040404039,497.69696969696975 860.0404040404039,488.1616161616163 860.0404040404039,478.6262626262627" fill="none" stroke="rgba(0,0,255,0.75)" stroke-width="14.159999999999995"/></g><g><polyline data-points="3.6868686868686877,0.3535353535353544 3.6868686868686877,0.4545454545454551 3.6868686868686877,0.5555555555555567 3.6868686868686877,0.6565656565656574 3.6868686868686877,0.7575757575757579 3.6868686868686877,0.8585858585858596 3.6868686868686877,0.9595959595959602 3.6868686868686877,1.0606060606060617 3.6868686868686877,1.1616161616161622 3.6868686868686877,1.262626262626263 3.6868686868686877,1.3636363636363644 3.6868686868686877,1.4646464646464652 3.6868686868686877,1.5656565656565666 3.6868686868686877,1.6666666666666674 3.6868686868686877,1.767676767676768 3.6868686868686877,1.8686868686868696 3.6868686868686877,1.9696969696969702 3.6868686868686877,2.070707070707072 3.6868686868686877,2.1717171717171726 3.6868686868686877,2.2727272727272734 3.6868686868686877,2.373737373737375 3.6868686868686877,2.4747474747474754 3.6868686868686877,2.575757575757577 3.6868686868686877,2.676767676767678 3.6868686868686877,2.7777777777777786 3.6868686868686877,2.87878787878788 3.6868686868686877,2.9797979797979806 3.6868686868686877,3.080808080808082 3.6868686868686877,3.181818181818183 3.6868686868686877,3.2828282828282833 3.6868686868686877,3.383838383838384 3.6868686868686877,3.4848484848484866 3.6868686868686877,3.5858585858585874 3.6868686868686877,3.6868686868686877 3.6868686868686877,3.7878787878787885 3.6868686868686877,3.8888888888888893 3.6868686868686877,3.989898989898992" data-type="line" data-label="" points="860.0404040404039,478.6262626262627 860.0404040404039,469.0909090909092 860.0404040404039,459.5555555555556 860.0404040404039,450.0202020202021 860.0404040404039,440.4848484848486 860.0404040404039,430.94949494949503 860.0404040404039,421.4141414141415 860.0404040404039,411.87878787878793 860.0404040404039,402.3434343434344 860.0404040404039,392.80808080808094 860.0404040404039,383.27272727272737 860.0404040404039,373.73737373737384 860.0404040404039,364.2020202020203 860.0404040404039,354.66666666666674 860.0404040404039,345.1313131313133 860.0404040404039,335.5959595959597 860.0404040404039,326.06060606060623 860.0404040404039,316.5252525252526 860.0404040404039,306.9898989898991 860.0404040404039,297.4545454545456 860.0404040404039,287.91919191919203 860.0404040404039,278.38383838383857 860.0404040404039,268.84848484848493 860.0404040404039,259.3131313131314 860.0404040404039,249.77777777777794 860.0404040404039,240.24242424242436 860.0404040404039,230.70707070707084 860.0404040404039,221.17171717171726 860.0404040404039,211.63636363636374 860.0404040404039,202.10101010101027 860.0404040404039,192.56565656565675 860.0404040404039,183.03030303030312 860.0404040404039,173.4949494949496 860.0404040404039,163.95959595959613 860.0404040404039,154.4242424242426 860.0404040404039,144.88888888888908 860.0404040404039,135.35353535353545" fill="none" stroke="rgba(255,0,0,0.75)" stroke-width="14.159999999999995"/></g><g><polyline data-points="3.6868686868686877,3.989898989898992 3.6868686868686877,4.090909090909092 3.6868686868686877,4.191919191919193 3.6868686868686877,4.292929292929293 3.6868686868686877,4.393939393939394 3.6868686868686877,4.494949494949497 3.6868686868686877,4.595959595959597 3.6868686868686877,4.696969696969697 3.6868686868686877,4.7979797979797985 3.6868686868686877,4.898989898989901 3.6868686868686877,5.000000000000002" data-type="line" data-label="" points="860.0404040404039,135.35353535353545 860.0404040404039,125.81818181818198 860.0404040404039,116.28282828282846 860.0404040404039,106.747474747475 860.0404040404039,97.21212121212153 860.0404040404039,87.67676767676778 860.0404040404039,78.14141414141432 860.0404040404039,68.60606060606085 860.0404040404039,59.07070707070733 860.0404040404039,49.53535353535369 860.0404040404039,40.000000000000114" fill="none" stroke="rgba(0,0,255,0.75)" stroke-width="14.159999999999995"/></g><g><rect data-type="rect" data-label="" data-x="0" data-y="0" x="40.000000000000114" y="40.000000000000284" width="943.9999999999997" height="943.9999999999998" fill="none" stroke="gray" stroke-width="0.010593220338983056"/></g><g><rect data-type="rect" data-label="" data-x="0" data-y="0" x="40.000000000000114" y="40.000000000000284" width="943.9999999999997" height="943.9999999999998" fill="none" stroke="rgba(15, 23, 42, 0.8)" stroke-width="0.010593220338983056"/></g><circle data-type="circle" data-label="" data-x="3.989898989898992" data-y="-1.363636363636363" cx="888.6464646464647" cy="640.7272727272727" r="28.791999999999987" fill="rgba(0,0,0,0.3)" stroke="black" stroke-width="0.010593220338983056"/><circle data-type="circle" data-label="" data-x="-3.6868686868686864" data-y="3.989898989898992" cx="163.95959595959607" cy="135.35353535353545" r="28.791999999999987" fill="rgba(0,0,0,0.3)" stroke="black" stroke-width="0.010593220338983056"/><circle data-type="circle" data-label="" data-x="-3.98989898989899" data-y="0.6565656565656574" cx="135.35353535353545" cy="450.0202020202021" r="28.791999999999987" fill="rgba(0,0,0,0.3)" stroke="black" stroke-width="0.010593220338983056"/><circle data-type="circle" data-label="" data-x="-0.05050505050505001" data-y="-1.9696969696969693" cx="507.2323232323232" cy="697.939393939394" r="28.791999999999987" fill="rgba(0,0,0,0.3)" stroke="black" stroke-width="0.010593220338983056"/><circle data-type="circle" data-label="" data-x="1.8686868686868696" data-y="-1.9696969696969693" cx="688.4040404040404" cy="697.939393939394" r="28.791999999999987" fill="rgba(0,0,0,0.3)" stroke="black" stroke-width="0.010593220338983056"/><circle data-type="circle" data-label="" data-x="2.4747474747474754" data-y="1.5656565656565666" cx="745.6161616161615" cy="364.2020202020203" r="28.791999999999987" fill="rgba(0,0,0,0.3)" stroke="black" stroke-width="0.010593220338983056"/><circle data-type="circle" data-label="" data-x="-1.5656565656565653" data-y="-2.07070707070707" cx="364.2020202020202" cy="707.4747474747475" r="28.791999999999987" fill="rgba(0,0,0,0.3)" stroke="black" stroke-width="0.010593220338983056"/><circle data-type="circle" data-label="" data-x="3.6868686868686877" data-y="-2.07070707070707" cx="860.0404040404039" cy="707.4747474747475" r="28.791999999999987" fill="rgba(0,0,0,0.3)" stroke="black" stroke-width="0.010593220338983056"/><circle data-type="circle" data-label="" data-x="3.6868686868686877" data-y="0.3535353535353544" cx="860.0404040404039" cy="478.6262626262627" r="28.791999999999987" fill="rgba(0,0,0,0.3)" stroke="black" stroke-width="0.010593220338983056"/><circle data-type="circle" data-label="" data-x="3.6868686868686877" data-y="3.989898989898992" cx="860.0404040404039" cy="135.35353535353545" r="28.791999999999987" fill="rgba(0,0,0,0.3)" stroke="black" stroke-width="0.010593220338983056"/><g id="crosshair" style="display: none"><line id="crosshair-h" y1="0" y2="1024" stroke="#666" stroke-width="0.5"/><line id="crosshair-v" x1="0" x2="1024" stroke="#666" stroke-width="0.5"/><text id="coordinates" font-family="monospace" font-size="12" fill="#666"></text></g><script><![CDATA[
              document.currentScript.parentElement.addEventListener('mousemove', (e) => {
                const svg = e.currentTarget;
                const rect = svg.getBoundingClientRect();
                const x = e.clientX - rect.left;
                const y = e.clientY - rect.top;
                const crosshair = svg.getElementById('crosshair');
                const h = svg.getElementById('crosshair-h');
                const v = svg.getElementById('crosshair-v');
                const coords = svg.getElementById('coordinates');
                
                crosshair.style.display = 'block';
                h.setAttribute('x1', '0');
                h.setAttribute('x2', '1024');
                h.setAttribute('y1', y);
                h.setAttribute('y2', y);
                v.setAttribute('x1', x);
                v.setAttribute('x2', x);
                v.setAttribute('y1', '0');
                v.setAttribute('y2', '1024');

                // Calculate real coordinates using inverse transformation
                const matrix = {"a":94.39999999999996,"c":0,"e":511.99999999999994,"b":0,"d":-94.39999999999996,"f":512.0000000000001};
                // Manually invert and apply the affine transform
                // Since we only use translate and scale, we can directly compute:
                // x' = (x - tx) / sx
                // y' = (y - ty) / sy
                const sx = matrix.a;
                const sy = matrix.d;
                const tx = matrix.e; 
                const ty = matrix.f;
                const realPoint = {
                  x: (x - tx) / sx,
                  y: (y - ty) / sy // Flip y back since we used negative scale
                }
                
                coords.textContent = `(${realPoint.x.toFixed(2)}, ${realPoint.y.toFixed(2)})`;
                coords.setAttribute('x', (x + 5).toString());
                coords.setAttribute('y', (y - 5).toString());
              });
              document.currentScript.parentElement.addEventListener('mouseleave', () => {
                document.currentScript.parentElement.getElementById('crosshair').style.display = 'none';
              });
            ]]></script></svg>