<svg width="1024" height="1024" viewBox="0 0 1024 1024" xmlns="http://www.w3.org/2000/svg"><rect width="100%" height="100%" fill="white"/><g><circle data-type="point" data-label="conn_000" data-x="5" data-y="0.12" cx="983.9999999999998" cy="500.67200000000014" r="28.792" fill="blue" stroke="#bd0f0f" stroke-width="28.792"/></g><g><circle data-type="point" data-label="conn_000" data-x="-5" data-y="0.48" cx="40.000000000000114" cy="466.6880000000001" r="28.792" fill="blue" stroke="#bd0f0f" stroke-width="28.792"/></g><g><circle data-type="point" data-label="conn_001" data-x="-0.38" data-y="-5" cx="476.12799999999993" cy="984" r="28.792" fill="red" stroke="#0fbd42" stroke-width="28.792"/></g><g><circle data-type="point" data-label="conn_001" data-x="-1.56" data-y="5" cx="364.736" cy="40.000000000000284" r="28.792" fill="blue" stroke="#0fbd42" stroke-width="28.792"/></g><g><circle data-type="point" data-label="conn_002" data-x="3.36" data-y="-5" cx="829.1839999999997" cy="984" r="28.792" fill="blue" stroke="#740fbd" stroke-width="28.792"/></g><g><circle data-type="point" data-label="conn_002" data-x="1.18" data-y="5" cx="623.3919999999999" cy="40.000000000000284" r="28.792" fill="blue" stroke="#740fbd" stroke-width="28.792"/></g><g><polyline data-points="5.000000000000002,0.1515151515151522 4.898989898989901,0.2525252525252529 4.7979797979797985,0.3535353535353544 4.696969696969697,0.4545454545454551 4.595959595959597,0.4545454545454551 4.494949494949497,0.4545454545454551 4.393939393939394,0.4545454545454551 4.292929292929293,0.4545454545454551 4.191919191919193,0.4545454545454551 4.090909090909092,0.4545454545454551 3.989898989898992,0.4545454545454551 3.8888888888888893,0.4545454545454551 3.7878787878787885,0.4545454545454551 3.6868686868686877,0.4545454545454551 3.5858585858585874,0.4545454545454551 3.4848484848484866,0.4545454545454551 3.383838383838384,0.4545454545454551 3.2828282828282833,0.4545454545454551 3.181818181818183,0.4545454545454551 3.080808080808082,0.4545454545454551 2.9797979797979806,0.4545454545454551 2.87878787878788,0.4545454545454551 2.7777777777777786,0.4545454545454551 2.676767676767678,0.4545454545454551 2.575757575757577,0.4545454545454551 2.4747474747474754,0.4545454545454551 2.373737373737375,0.4545454545454551 2.2727272727272734,0.4545454545454551 2.1717171717171726,0.4545454545454551 2.070707070707072,0.4545454545454551 1.9696969696969702,0.4545454545454551 1.8686868686868696,0.4545454545454551 1.767676767676768,0.4545454545454551 1.6666666666666674,0.4545454545454551 1.5656565656565666,0.4545454545454551 1.4646464646464652,0.4545454545454551 1.3636363636363644,0.4545454545454551 1.262626262626263,0.4545454545454551 1.1616161616161622,0.4545454545454551 1.0606060606060617,0.4545454545454551 0.9595959595959602,0.4545454545454551 0.8585858585858596,0.4545454545454551 0.7575757575757579,0.4545454545454551 0.6565656565656574,0.4545454545454551 0.5555555555555567,0.4545454545454551 0.4545454545454551,0.4545454545454551 0.3535353535353544,0.4545454545454551 0.2525252525252529,0.4545454545454551 0.1515151515151522,0.4545454545454551 0.050505050505051545,0.4545454545454551 -0.05050505050505001,0.4545454545454551 -0.15151515151515066,0.4545454545454551 -0.2525252525252522,0.4545454545454551 -0.35353535353535287,0.4545454545454551 -0.4545454545454544,0.4545454545454551 -0.555555555555555,0.4545454545454551 -0.6565656565656557,0.4545454545454551 -0.7575757575757572,0.4545454545454551 -0.8585858585858579,0.4545454545454551 -0.9595959595959596,0.4545454545454551 -1.0606060606060603,0.4545454545454551 -1.1616161616161613,0.4545454545454551 -1.2626262626262625,0.4545454545454551 -1.363636363636363,0.4545454545454551 -1.4646464646464643,0.4545454545454551 -1.5656565656565653,0.4545454545454551 -1.6666666666666665,0.4545454545454551 -1.7676767676767675,0.4545454545454551 -1.8686868686868683,0.4545454545454551 -1.9696969696969693,0.4545454545454551 -2.07070707070707,0.4545454545454551 -2.1717171717171713,0.4545454545454551 -2.2727272727272725,0.4545454545454551 -2.3737373737373733,0.4545454545454551 -2.474747474747474,0.4545454545454551 -2.5757575757575752,0.4545454545454551 -2.6767676767676765,0.4545454545454551 -2.7777777777777777,0.4545454545454551 -2.8787878787878785,0.4545454545454551 -2.9797979797979792,0.4545454545454551 -3.0808080808080804,0.4545454545454551 -3.1818181818181817,0.4545454545454551 -3.2828282828282824,0.4545454545454551 -3.383838383838383,0.4545454545454551 -3.484848484848485,0.4545454545454551 -3.5858585858585856,0.4545454545454551 -3.6868686868686864,0.4545454545454551 -3.7878787878787876,0.4545454545454551 -3.8888888888888884,0.4545454545454551 -3.98989898989899,0.4545454545454551 -4.090909090909091,0.4545454545454551 -4.191919191919193,0.4545454545454551 -4.292929292929293,0.4545454545454551 -4.393939393939394,0.4545454545454551 -4.494949494949496,0.4545454545454551 -4.595959595959596,0.4545454545454551 -4.696969696969697,0.4545454545454551 -4.7979797979797985,0.4545454545454551 -4.898989898989899,0.4545454545454551 -5.000000000000001,0.4545454545454551" data-type="line" data-label="" points="984,497.69696969696975 974.4646464646464,488.1616161616163 964.9292929292927,478.6262626262627 955.3939393939393,469.0909090909092 945.8585858585857,469.0909090909092 936.3232323232323,469.0909090909092 926.7878787878785,469.0909090909092 917.2525252525251,469.0909090909092 907.7171717171716,469.0909090909092 898.181818181818,469.0909090909092 888.6464646464647,469.0909090909092 879.111111111111,469.0909090909092 869.5757575757575,469.0909090909092 860.0404040404039,469.0909090909092 850.5050505050505,469.0909090909092 840.969696969697,469.0909090909092 831.4343434343433,469.0909090909092 821.8989898989898,469.0909090909092 812.3636363636363,469.0909090909092 802.8282828282828,469.0909090909092 793.2929292929292,469.0909090909092 783.7575757575758,469.0909090909092 774.2222222222222,469.0909090909092 764.6868686868686,469.0909090909092 755.1515151515151,469.0909090909092 745.6161616161615,469.0909090909092 736.0808080808081,469.0909090909092 726.5454545454545,469.0909090909092 717.0101010101009,469.0909090909092 707.4747474747475,469.0909090909092 697.9393939393939,469.0909090909092 688.4040404040404,469.0909090909092 678.8686868686868,469.0909090909092 669.3333333333333,469.0909090909092 659.7979797979798,469.0909090909092 650.2626262626262,469.0909090909092 640.7272727272727,469.0909090909092 631.1919191919192,469.0909090909092 621.6565656565656,469.0909090909092 612.1212121212121,469.0909090909092 602.5858585858585,469.0909090909092 593.0505050505051,469.0909090909092 583.5151515151515,469.0909090909092 573.9797979797979,469.0909090909092 564.4444444444445,469.0909090909092 554.9090909090909,469.0909090909092 545.3737373737374,469.0909090909092 535.8383838383838,469.0909090909092 526.3030303030303,469.0909090909092 516.7676767676768,469.0909090909092 507.2323232323232,469.0909090909092 497.69696969696975,469.0909090909092 488.16161616161617,469.0909090909092 478.62626262626264,469.0909090909092 469.09090909090907,469.0909090909092 459.55555555555554,469.0909090909092 450.0202020202021,469.0909090909092 440.4848484848485,469.0909090909092 430.949494949495,469.0909090909092 421.4141414141414,469.0909090909092 411.8787878787879,469.0909090909092 402.34343434343435,469.0909090909092 392.80808080808083,469.0909090909092 383.2727272727273,469.0909090909092 373.7373737373738,469.0909090909092 364.2020202020202,469.0909090909092 354.6666666666667,469.0909090909092 345.13131313131316,469.0909090909092 335.59595959595964,469.0909090909092 326.0606060606061,469.0909090909092 316.5252525252526,469.0909090909092 306.9898989898991,469.0909090909092 297.4545454545455,469.0909090909092 287.91919191919203,469.0909090909092 278.38383838383845,469.0909090909092 268.84848484848493,469.0909090909092 259.3131313131314,469.0909090909092 249.77777777777783,469.0909090909092 240.2424242424243,469.0909090909092 230.70707070707084,469.0909090909092 221.17171717171726,469.0909090909092 211.63636363636374,469.0909090909092 202.10101010101022,469.0909090909092 192.5656565656567,469.0909090909092 183.03030303030312,469.0909090909092 173.4949494949496,469.0909090909092 163.95959595959607,469.0909090909092 154.42424242424255,469.0909090909092 144.88888888888903,469.0909090909092 135.35353535353545,469.0909090909092 125.81818181818193,469.0909090909092 116.28282828282829,469.0909090909092 106.74747474747483,469.0909090909092 97.21212121212136,469.0909090909092 87.67676767676772,469.0909090909092 78.14141414141426,469.0909090909092 68.60606060606068,469.0909090909092 59.07070707070716,469.0909090909092 49.53535353535369,469.0909090909092 40.00000000000006,469.0909090909092" fill="none" stroke="rgba(0,0,255,0.75)" stroke-width="14.159999999999995"/></g><g><polyline data-points="-0.35353535353535287,-5.000000000000001 -0.4545454545454544,-4.898989898989899 -0.555555555555555,-4.7979797979797985 -0.6565656565656557,-4.696969696969697 -0.7575757575757572,-4.595959595959596 -0.8585858585858579,-4.494949494949496 -0.9595959595959596,-4.393939393939394 -1.0606060606060603,-4.292929292929293 -1.1616161616161613,-4.191919191919193 -1.2626262626262625,-4.090909090909091 -1.363636363636363,-3.98989898989899 -1.4646464646464643,-3.8888888888888884 -1.5656565656565653,-3.7878787878787876 -1.5656565656565653,-3.6868686868686864 -1.5656565656565653,-3.5858585858585856 -1.5656565656565653,-3.484848484848485 -1.5656565656565653,-3.383838383838383 -1.5656565656565653,-3.2828282828282824 -1.5656565656565653,-3.1818181818181817 -1.5656565656565653,-3.0808080808080804 -1.5656565656565653,-2.9797979797979792 -1.5656565656565653,-2.8787878787878785 -1.5656565656565653,-2.7777777777777777 -1.5656565656565653,-2.6767676767676765 -1.5656565656565653,-2.5757575757575752 -1.5656565656565653,-2.474747474747474 -1.5656565656565653,-2.3737373737373733 -1.5656565656565653,-2.2727272727272725 -1.5656565656565653,-2.1717171717171713 -1.5656565656565653,-2.07070707070707 -1.5656565656565653,-1.9696969696969693 -1.5656565656565653,-1.8686868686868683 -1.5656565656565653,-1.7676767676767675 -1.5656565656565653,-1.6666666666666665 -1.5656565656565653,-1.5656565656565653 -1.5656565656565653,-1.4646464646464643 -1.5656565656565653,-1.363636363636363 -1.5656565656565653,-1.2626262626262625 -1.5656565656565653,-1.1616161616161613 -1.5656565656565653,-1.0606060606060603 -1.5656565656565653,-0.9595959595959596 -1.5656565656565653,-0.8585858585858579 -1.5656565656565653,-0.7575757575757572 -1.5656565656565653,-0.6565656565656557 -1.5656565656565653,-0.555555555555555 -1.5656565656565653,-0.4545454545454544 -1.5656565656565653,-0.35353535353535287 -1.5656565656565653,-0.2525252525252522 -1.5656565656565653,-0.15151515151515066 -1.5656565656565653,-0.05050505050505001 -1.5656565656565653,0.050505050505051545 -1.5656565656565653,0.1515151515151522 -1.5656565656565653,0.2525252525252529 -1.5656565656565653,0.3535353535353544 -1.5656565656565653,0.4545454545454551 -1.5656565656565653,0.5555555555555567 -1.5656565656565653,0.6565656565656574 -1.5656565656565653,0.7575757575757579 -1.5656565656565653,0.8585858585858596 -1.5656565656565653,0.9595959595959602 -1.5656565656565653,1.0606060606060617 -1.5656565656565653,1.1616161616161622 -1.5656565656565653,1.262626262626263 -1.5656565656565653,1.3636363636363644 -1.5656565656565653,1.4646464646464652 -1.5656565656565653,1.5656565656565666 -1.5656565656565653,1.6666666666666674 -1.5656565656565653,1.767676767676768 -1.5656565656565653,1.8686868686868696 -1.5656565656565653,1.9696969696969702 -1.5656565656565653,2.070707070707072 -1.5656565656565653,2.1717171717171726 -1.5656565656565653,2.2727272727272734 -1.5656565656565653,2.373737373737375 -1.5656565656565653,2.4747474747474754 -1.5656565656565653,2.575757575757577 -1.5656565656565653,2.676767676767678 -1.5656565656565653,2.7777777777777786 -1.5656565656565653,2.87878787878788 -1.5656565656565653,2.9797979797979806 -1.5656565656565653,3.080808080808082 -1.5656565656565653,3.181818181818183 -1.5656565656565653,3.2828282828282833 -1.5656565656565653,3.383838383838384 -1.5656565656565653,3.4848484848484866 -1.5656565656565653,3.5858585858585874 -1.5656565656565653,3.6868686868686877 -1.5656565656565653,3.7878787878787885 -1.5656565656565653,3.8888888888888893 -1.5656565656565653,3.989898989898992" data-type="line" data-label="" points="478.62626262626264,984 469.09090909090907,974.4646464646464 459.55555555555554,964.9292929292928 450.0202020202021,955.3939393939394 440.4848484848485,945.8585858585858 430.949494949495,936.3232323232323 421.4141414141414,926.7878787878788 411.8787878787879,917.2525252525252 402.34343434343435,907.7171717171718 392.80808080808083,898.1818181818181 383.2727272727273,888.6464646464647 373.7373737373738,879.1111111111111 364.2020202020202,869.5757575757575 364.2020202020202,860.0404040404039 364.2020202020202,850.5050505050505 364.2020202020202,840.969696969697 364.2020202020202,831.4343434343434 364.2020202020202,821.8989898989898 364.2020202020202,812.3636363636363 364.2020202020202,802.8282828282828 364.2020202020202,793.2929292929292 364.2020202020202,783.7575757575758 364.2020202020202,774.2222222222222 364.2020202020202,764.6868686868687 364.2020202020202,755.1515151515151 364.2020202020202,745.6161616161615 364.2020202020202,736.0808080808081 364.2020202020202,726.5454545454545 364.2020202020202,717.010101010101 364.2020202020202,707.4747474747475 364.2020202020202,697.939393939394 364.2020202020202,688.4040404040404 364.2020202020202,678.8686868686868 364.2020202020202,669.3333333333334 364.2020202020202,659.7979797979798 364.2020202020202,650.2626262626263 364.2020202020202,640.7272727272727 364.2020202020202,631.1919191919193 364.2020202020202,621.6565656565657 364.2020202020202,612.1212121212121 364.2020202020202,602.5858585858587 364.2020202020202,593.0505050505051 364.2020202020202,583.5151515151516 364.2020202020202,573.979797979798 364.2020202020202,564.4444444444445 364.2020202020202,554.909090909091 364.2020202020202,545.3737373737374 364.2020202020202,535.838383838384 364.2020202020202,526.3030303030304 364.2020202020202,516.7676767676768 364.2020202020202,507.23232323232327 364.2020202020202,497.69696969696975 364.2020202020202,488.1616161616163 364.2020202020202,478.6262626262627 364.2020202020202,469.0909090909092 364.2020202020202,459.5555555555556 364.2020202020202,450.0202020202021 364.2020202020202,440.4848484848486 364.2020202020202,430.94949494949503 364.2020202020202,421.4141414141415 364.2020202020202,411.87878787878793 364.2020202020202,402.3434343434344 364.2020202020202,392.80808080808094 364.2020202020202,383.27272727272737 364.2020202020202,373.73737373737384 364.2020202020202,364.2020202020203 364.2020202020202,354.66666666666674 364.2020202020202,345.1313131313133 364.2020202020202,335.5959595959597 364.2020202020202,326.06060606060623 364.2020202020202,316.5252525252526 364.2020202020202,306.9898989898991 364.2020202020202,297.4545454545456 364.2020202020202,287.91919191919203 364.2020202020202,278.38383838383857 364.2020202020202,268.84848484848493 364.2020202020202,259.3131313131314 364.2020202020202,249.77777777777794 364.2020202020202,240.24242424242436 364.2020202020202,230.70707070707084 364.2020202020202,221.17171717171726 364.2020202020202,211.63636363636374 364.2020202020202,202.10101010101027 364.2020202020202,192.56565656565675 364.2020202020202,183.03030303030312 364.2020202020202,173.4949494949496 364.2020202020202,163.95959595959613 364.2020202020202,154.4242424242426 364.2020202020202,144.88888888888908 364.2020202020202,135.35353535353545" fill="none" stroke="rgba(255,0,0,0.75)" stroke-width="14.159999999999995"/></g><g><polyline data-points="-1.5656565656565653,3.989898989898992 -1.5656565656565653,4.090909090909092 -1.5656565656565653,4.191919191919193 -1.5656565656565653,4.292929292929293 -1.5656565656565653,4.393939393939394 -1.5656565656565653,4.494949494949497 -1.5656565656565653,4.595959595959597 -1.5656565656565653,4.696969696969697 -1.5656565656565653,4.7979797979797985 -1.5656565656565653,4.898989898989901 -1.5656565656565653,5.000000000000002" data-type="line" data-label="" points="364.2020202020202,135.35353535353545 364.2020202020202,125.81818181818198 364.2020202020202,116.28282828282846 364.2020202020202,106.747474747475 364.2020202020202,97.21212121212153 364.2020202020202,87.67676767676778 364.2020202020202,78.14141414141432 364.2020202020202,68.60606060606085 364.2020202020202,59.07070707070733 364.2020202020202,49.53535353535369 364.2020202020202,40.000000000000114" fill="none" stroke="rgba(0,0,255,0.75)" stroke-width="14.159999999999995"/></g><g><polyline data-points="3.383838383838384,-5.000000000000001 3.2828282828282833,-4.898989898989899 3.181818181818183,-4.7979797979797985 3.080808080808082,-4.696969696969697 2.9797979797979806,-4.595959595959596 2.87878787878788,-4.494949494949496 2.7777777777777786,-4.393939393939394 2.676767676767678,-4.292929292929293 2.575757575757577,-4.191919191919193 2.4747474747474754,-4.090909090909091 2.373737373737375,-3.98989898989899 2.2727272727272734,-3.8888888888888884 2.1717171717171726,-3.7878787878787876 2.070707070707072,-3.6868686868686864 1.9696969696969702,-3.5858585858585856 1.8686868686868696,-3.484848484848485 1.767676767676768,-3.383838383838383 1.6666666666666674,-3.2828282828282824 1.5656565656565666,-3.1818181818181817 1.4646464646464652,-3.0808080808080804 1.3636363636363644,-2.9797979797979792 1.262626262626263,-2.8787878787878785 1.1616161616161622,-2.7777777777777777 1.1616161616161622,-2.6767676767676765 1.1616161616161622,-2.5757575757575752 1.1616161616161622,-2.474747474747474 1.1616161616161622,-2.3737373737373733 1.1616161616161622,-2.2727272727272725 1.1616161616161622,-2.1717171717171713 1.1616161616161622,-2.07070707070707 1.1616161616161622,-1.9696969696969693 1.1616161616161622,-1.8686868686868683 1.1616161616161622,-1.7676767676767675 1.1616161616161622,-1.6666666666666665 1.1616161616161622,-1.5656565656565653 1.1616161616161622,-1.4646464646464643 1.1616161616161622,-1.363636363636363 1.1616161616161622,-1.2626262626262625 1.1616161616161622,-1.1616161616161613 1.1616161616161622,-1.0606060606060603 1.1616161616161622,-0.9595959595959596 1.1616161616161622,-0.8585858585858579 1.1616161616161622,-0.7575757575757572 1.1616161616161622,-0.6565656565656557 1.1616161616161622,-0.555555555555555 1.1616161616161622,-0.4545454545454544 1.1616161616161622,-0.35353535353535287 1.1616161616161622,-0.2525252525252522 1.1616161616161622,-0.15151515151515066" data-type="line" data-label="" points="831.4343434343433,984 821.8989898989898,974.4646464646464 812.3636363636363,964.9292929292928 802.8282828282828,955.3939393939394 793.2929292929292,945.8585858585858 783.7575757575758,936.3232323232323 774.2222222222222,926.7878787878788 764.6868686868686,917.2525252525252 755.1515151515151,907.7171717171718 745.6161616161615,898.1818181818181 736.0808080808081,888.6464646464647 726.5454545454545,879.1111111111111 717.0101010101009,869.5757575757575 707.4747474747475,860.0404040404039 697.9393939393939,850.5050505050505 688.4040404040404,840.969696969697 678.8686868686868,831.4343434343434 669.3333333333333,821.8989898989898 659.7979797979798,812.3636363636363 650.2626262626262,802.8282828282828 640.7272727272727,793.2929292929292 631.1919191919192,783.7575757575758 621.6565656565656,774.2222222222222 621.6565656565656,764.6868686868687 621.6565656565656,755.1515151515151 621.6565656565656,745.6161616161615 621.6565656565656,736.0808080808081 621.6565656565656,726.5454545454545 621.6565656565656,717.010101010101 621.6565656565656,707.4747474747475 621.6565656565656,697.939393939394 621.6565656565656,688.4040404040404 621.6565656565656,678.8686868686868 621.6565656565656,669.3333333333334 621.6565656565656,659.7979797979798 621.6565656565656,650.2626262626263 621.6565656565656,640.7272727272727 621.6565656565656,631.1919191919193 621.6565656565656,621.6565656565657 621.6565656565656,612.1212121212121 621.6565656565656,602.5858585858587 621.6565656565656,593.0505050505051 621.6565656565656,583.5151515151516 621.6565656565656,573.979797979798 621.6565656565656,564.4444444444445 621.6565656565656,554.909090909091 621.6565656565656,545.3737373737374 621.6565656565656,535.838383838384 621.6565656565656,526.3030303030304" fill="none" stroke="rgba(0,0,255,0.75)" stroke-width="14.159999999999995"/></g><g><polyline data-points="1.1616161616161622,-0.15151515151515066 1.1616161616161622,-0.05050505050505001 1.1616161616161622,0.050505050505051545 1.1616161616161622,0.1515151515151522 1.1616161616161622,0.2525252525252529 1.1616161616161622,0.3535353535353544 1.1616161616161622,0.4545454545454551 1.1616161616161622,0.5555555555555567 1.1616161616161622,0.6565656565656574 1.1616161616161622,0.7575757575757579 1.1616161616161622,0.8585858585858596 1.1616161616161622,0.9595959595959602 1.1616161616161622,1.0606060606060617 1.1616161616161622,1.1616161616161622 1.1616161616161622,1.262626262626263 1.1616161616161622,1.3636363636363644 1.1616161616161622,1.4646464646464652 1.1616161616161622,1.5656565656565666 1.1616161616161622,1.6666666666666674 1.1616161616161622,1.767676767676768 1.1616161616161622,1.8686868686868696 1.1616161616161622,1.9696969696969702 1.1616161616161622,2.070707070707072 1.1616161616161622,2.1717171717171726 1.1616161616161622,2.2727272727272734 1.1616161616161622,2.373737373737375 1.1616161616161622,2.4747474747474754 1.1616161616161622,2.575757575757577 1.1616161616161622,2.676767676767678 1.1616161616161622,2.7777777777777786 1.1616161616161622,2.87878787878788 1.1616161616161622,2.9797979797979806 1.1616161616161622,3.080808080808082 1.1616161616161622,3.181818181818183 1.1616161616161622,3.2828282828282833 1.1616161616161622,3.383838383838384 1.1616161616161622,3.4848484848484866 1.1616161616161622,3.5858585858585874 1.1616161616161622,3.6868686868686877 1.1616161616161622,3.7878787878787885 1.1616161616161622,3.8888888888888893 1.1616161616161622,3.989898989898992" data-type="line" data-label="" points="621.6565656565656,526.3030303030304 621.6565656565656,516.7676767676768 621.6565656565656,507.23232323232327 621.6565656565656,497.69696969696975 621.6565656565656,488.1616161616163 621.6565656565656,478.6262626262627 621.6565656565656,469.0909090909092 621.6565656565656,459.5555555555556 621.6565656565656,450.0202020202021 621.6565656565656,440.4848484848486 621.6565656565656,430.94949494949503 621.6565656565656,421.4141414141415 621.6565656565656,411.87878787878793 621.6565656565656,402.3434343434344 621.6565656565656,392.80808080808094 621.6565656565656,383.27272727272737 621.6565656565656,373.73737373737384 621.6565656565656,364.2020202020203 621.6565656565656,354.66666666666674 621.6565656565656,345.1313131313133 621.6565656565656,335.5959595959597 621.6565656565656,326.06060606060623 621.6565656565656,316.5252525252526 621.6565656565656,306.9898989898991 621.6565656565656,297.4545454545456 621.6565656565656,287.91919191919203 621.6565656565656,278.38383838383857 621.6565656565656,268.84848484848493 621.6565656565656,259.3131313131314 621.6565656565656,249.77777777777794 621.6565656565656,240.24242424242436 621.6565656565656,230.70707070707084 621.6565656565656,221.17171717171726 621.6565656565656,211.63636363636374 621.6565656565656,202.10101010101027 621.6565656565656,192.56565656565675 621.6565656565656,183.03030303030312 621.6565656565656,173.4949494949496 621.6565656565656,163.95959595959613 621.6565656565656,154.4242424242426 621.6565656565656,144.88888888888908 621.6565656565656,135.35353535353545" fill="none" stroke="rgba(255,0,0,0.75)" stroke-width="14.159999999999995"/></g><g><polyline data-points="1.1616161616161622,3.989898989898992 1.1616161616161622,4.090909090909092 1.1616161616161622,4.191919191919193 1.1616161616161622,4.292929292929293 1.1616161616161622,4.393939393939394 1.1616161616161622,4.494949494949497 1.1616161616161622,4.595959595959597 1.1616161616161622,4.696969696969697 1.1616161616161622,4.7979797979797985 1.1616161616161622,4.898989898989901 1.1616161616161622,5.000000000000002" data-type="line" data-label="" points="621.6565656565656,135.35353535353545 621.6565656565656,125.81818181818198 621.6565656565656,116.28282828282846 621.6565656565656,106.747474747475 621.6565656565656,97.21212121212153 621.6565656565656,87.67676767676778 621.6565656565656,78.14141414141432 621.6565656565656,68.60606060606085 621.6565656565656,59.07070707070733 621.6565656565656,49.53535353535369 621.6565656565656,40.000000000000114" fill="none" stroke="rgba(0,0,255,0.75)" stroke-width="14.159999999999995"/></g><g><rect data-type="rect" data-label="" data-x="0" data-y="0" x="40.000000000000114" y="40.000000000000284" width="943.9999999999997" height="943.9999999999998" fill="none" stroke="gray" stroke-width="0.010593220338983056"/></g><g><rect data-type="rect" data-label="" data-x="0" data-y="0" x="40.000000000000114" y="40.000000000000284" width="943.9999999999997" height="943.9999999999998" fill="none" stroke="rgba(15, 23, 42, 0.8)" stroke-width="0.010593220338983056"/></g><circle data-type="circle" data-label="" data-x="-1.5656565656565653" data-y="3.989898989898992" cx="364.2020202020202" cy="135.35353535353545" r="28.791999999999987" fill="rgba(0,0,0,0.3)" stroke="black" stroke-width="0.010593220338983056"/><circle data-type="circle" data-label="" data-x="1.1616161616161622" data-y="-0.15151515151515066" cx="621.6565656565656" cy="526.3030303030304" r="28.791999999999987" fill="rgba(0,0,0,0.3)" stroke="black" stroke-width="0.010593220338983056"/><circle data-type="circle" data-label="" data-x="1.1616161616161622" data-y="3.989898989898992" cx="621.6565656565656" cy="135.35353535353545" r="28.791999999999987" fill="rgba(0,0,0,0.3)" stroke="black" stroke-width="0.010593220338983056"/><g id="crosshair" style="display: none"><line id="crosshair-h" y1="0" y2="1024" stroke="#666" stroke-width="0.5"/><line id="crosshair-v" x1="0" x2="1024" stroke="#666" stroke-width="0.5"/><text id="coordinates" font-family="monospace" font-size="12" fill="#666"></text></g><script><![CDATA[
              document.currentScript.parentElement.addEventListener('mousemove', (e) => {
                const svg = e.currentTarget;
                const rect = svg.getBoundingClientRect();
                const x = e.clientX - rect.left;
                const y = e.clientY - rect.top;
                const crosshair = svg.getElementById('crosshair');
                const h = svg.getElementById('crosshair-h');
                const v = svg.getElementById('crosshair-v');
                const coords = svg.getElementById('coordinates');
                
                crosshair.style.display = 'block';
                h.setAttribute('x1', '0');
                h.setAttribute('x2', '1024');
                h.setAttribute('y1', y);
                h.setAttribute('y2', y);
                v.setAttribute('x1', x);
                v.setAttribute('x2', x);
                v.setAttribute('y1', '0');
                v.setAttribute('y2', '1024');

                // Calculate real coordinates using inverse transformation
                const matrix = {"a":94.39999999999996,"c":0,"e":511.99999999999994,"b":0,"d":-94.39999999999996,"f":512.0000000000001};
                // Manually invert and apply the affine transform
                // Since we only use translate and scale, we can directly compute:
                // x' = (x - tx) / sx
                // y' = (y - ty) / sy
                const sx = matrix.a;
                const sy = matrix.d;
                const tx = matrix.e; 
                const ty = matrix.f;
                const realPoint = {
                  x: (x - tx) / sx,
                  y: (y - ty) / sy // Flip y back since we used negative scale
                }
                
                coords.textContent = `(${realPoint.x.toFixed(2)}, ${realPoint.y.toFixed(2)})`;
                coords.setAttribute('x', (x + 5).toString());
                coords.setAttribute('y', (y - 5).toString());
              });
              document.currentScript.parentElement.addEventListener('mouseleave', () => {
                document.currentScript.parentElement.getElementById('crosshair').style.display = 'none';
              });
            ]]></script></svg>