<svg width="1024" height="1024" viewBox="0 0 1024 1024" xmlns="http://www.w3.org/2000/svg"><rect width="100%" height="100%" fill="white"/><g><circle data-type="point" data-label="conn_000" data-x="4.54" data-y="5" cx="940.5759999999998" cy="40.000000000000284" r="28.792" fill="red" stroke="#740fbd" stroke-width="28.792"/></g><g><circle data-type="point" data-label="conn_000" data-x="-4.64" data-y="-5" cx="73.98400000000015" cy="984" r="28.792" fill="blue" stroke="#740fbd" stroke-width="28.792"/></g><g><circle data-type="point" data-label="conn_001" data-x="-5" data-y="1.82" cx="40.000000000000114" cy="340.1920000000002" r="28.792" fill="blue" stroke="#bda70f" stroke-width="28.792"/></g><g><circle data-type="point" data-label="conn_001" data-x="4.34" data-y="-5" cx="921.6959999999997" cy="984" r="28.792" fill="red" stroke="#bda70f" stroke-width="28.792"/></g><g><circle data-type="point" data-label="conn_002" data-x="-3.8000000000000003" data-y="5" cx="153.2800000000001" cy="40.000000000000284" r="28.792" fill="blue" stroke="#0fa0bd" stroke-width="28.792"/></g><g><circle data-type="point" data-label="conn_002" data-x="-3.44" data-y="-5" cx="187.26400000000007" cy="984" r="28.792" fill="blue" stroke="#0fa0bd" stroke-width="28.792"/></g><g><circle data-type="point" data-label="conn_003" data-x="1.58" data-y="5" cx="661.1519999999999" cy="40.000000000000284" r="28.792" fill="red" stroke="#bd0f6d" stroke-width="28.792"/></g><g><circle data-type="point" data-label="conn_003" data-x="-2.82" data-y="-5" cx="245.7920000000001" cy="984" r="28.792" fill="blue" stroke="#bd0f6d" stroke-width="28.792"/></g><g><circle data-type="point" data-label="conn_004" data-x="-0.1" data-y="5" cx="502.55999999999995" cy="40.000000000000284" r="28.792" fill="blue" stroke="#3bbd0f" stroke-width="28.792"/></g><g><circle data-type="point" data-label="conn_004" data-x="-5" data-y="-3.1" cx="40.000000000000114" cy="804.64" r="28.792" fill="blue" stroke="#3bbd0f" stroke-width="28.792"/></g><g><circle data-type="point" data-label="conn_005" data-x="-1.68" data-y="-5" cx="353.408" cy="984" r="28.792" fill="red" stroke="#170fbd" stroke-width="28.792"/></g><g><circle data-type="point" data-label="conn_005" data-x="2.44" data-y="5" cx="742.3359999999998" cy="40.000000000000284" r="28.792" fill="red" stroke="#170fbd" stroke-width="28.792"/></g><g><circle data-type="point" data-label="conn_006" data-x="-5" data-y="-2.12" cx="40.000000000000114" cy="712.128" r="28.792" fill="red" stroke="#bd490f" stroke-width="28.792"/></g><g><circle data-type="point" data-label="conn_006" data-x="5" data-y="-3.98" cx="983.9999999999998" cy="887.712" r="28.792" fill="blue" stroke="#bd490f" stroke-width="28.792"/></g><g><polyline data-points="-1.6666666666666665,-5.000000000000001 -1.5656565656565653,-4.898989898989899 -1.4646464646464643,-4.7979797979797985 -1.363636363636363,-4.696969696969697 -1.2626262626262625,-4.595959595959596 -1.1616161616161613,-4.494949494949496 -1.0606060606060603,-4.393939393939394 -0.9595959595959596,-4.292929292929293 -0.8585858585858579,-4.191919191919193 -0.7575757575757572,-4.090909090909091 -0.6565656565656557,-3.98989898989899 -0.555555555555555,-3.8888888888888884 -0.4545454545454544,-3.7878787878787876 -0.35353535353535287,-3.6868686868686864 -0.2525252525252522,-3.5858585858585856 -0.15151515151515066,-3.484848484848485 -0.05050505050505001,-3.383838383838383 0.050505050505051545,-3.2828282828282824 0.1515151515151522,-3.1818181818181817 0.2525252525252529,-3.0808080808080804 0.3535353535353544,-2.9797979797979792 0.4545454545454551,-2.8787878787878785 0.5555555555555567,-2.7777777777777777 0.6565656565656574,-2.6767676767676765 0.7575757575757579,-2.5757575757575752 0.8585858585858596,-2.474747474747474 0.9595959595959602,-2.3737373737373733 1.0606060606060617,-2.2727272727272725 1.1616161616161622,-2.1717171717171713 1.262626262626263,-2.07070707070707 1.3636363636363644,-1.9696969696969693 1.4646464646464652,-1.8686868686868683 1.5656565656565666,-1.7676767676767675 1.6666666666666674,-1.6666666666666665 1.767676767676768,-1.5656565656565653 1.8686868686868696,-1.4646464646464643 1.9696969696969702,-1.363636363636363 2.070707070707072,-1.2626262626262625 2.1717171717171726,-1.1616161616161613 2.2727272727272734,-1.0606060606060603 2.373737373737375,-0.9595959595959596 2.4747474747474754,-0.8585858585858579 2.4747474747474754,-0.7575757575757572 2.4747474747474754,-0.6565656565656557 2.4747474747474754,-0.555555555555555 2.4747474747474754,-0.4545454545454544 2.4747474747474754,-0.35353535353535287 2.4747474747474754,-0.2525252525252522 2.4747474747474754,-0.15151515151515066 2.4747474747474754,-0.05050505050505001 2.4747474747474754,0.050505050505051545 2.4747474747474754,0.1515151515151522 2.4747474747474754,0.2525252525252529 2.4747474747474754,0.3535353535353544 2.4747474747474754,0.4545454545454551 2.4747474747474754,0.5555555555555567 2.4747474747474754,0.6565656565656574 2.4747474747474754,0.7575757575757579 2.4747474747474754,0.8585858585858596 2.4747474747474754,0.9595959595959602 2.4747474747474754,1.0606060606060617 2.4747474747474754,1.1616161616161622 2.4747474747474754,1.262626262626263 2.4747474747474754,1.3636363636363644 2.4747474747474754,1.4646464646464652 2.4747474747474754,1.5656565656565666 2.4747474747474754,1.6666666666666674 2.4747474747474754,1.767676767676768 2.4747474747474754,1.8686868686868696 2.4747474747474754,1.9696969696969702 2.4747474747474754,2.070707070707072 2.4747474747474754,2.1717171717171726 2.4747474747474754,2.2727272727272734 2.4747474747474754,2.373737373737375 2.4747474747474754,2.4747474747474754 2.4747474747474754,2.575757575757577 2.4747474747474754,2.676767676767678 2.4747474747474754,2.7777777777777786 2.4747474747474754,2.87878787878788 2.4747474747474754,2.9797979797979806 2.4747474747474754,3.080808080808082 2.4747474747474754,3.181818181818183 2.4747474747474754,3.2828282828282833 2.4747474747474754,3.383838383838384 2.4747474747474754,3.4848484848484866 2.4747474747474754,3.5858585858585874 2.4747474747474754,3.6868686868686877 2.4747474747474754,3.7878787878787885 2.4747474747474754,3.8888888888888893 2.4747474747474754,3.989898989898992 2.4747474747474754,4.090909090909092 2.4747474747474754,4.191919191919193 2.4747474747474754,4.292929292929293 2.4747474747474754,4.393939393939394 2.4747474747474754,4.494949494949497 2.4747474747474754,4.595959595959597 2.4747474747474754,4.696969696969697 2.4747474747474754,4.7979797979797985 2.4747474747474754,4.898989898989901 2.4747474747474754,5.000000000000002" data-type="line" data-label="" points="354.6666666666667,984 364.2020202020202,974.4646464646464 373.7373737373738,964.9292929292928 383.2727272727273,955.3939393939394 392.80808080808083,945.8585858585858 402.34343434343435,936.3232323232323 411.8787878787879,926.7878787878788 421.4141414141414,917.2525252525252 430.949494949495,907.7171717171718 440.4848484848485,898.1818181818181 450.0202020202021,888.6464646464647 459.55555555555554,879.1111111111111 469.09090909090907,869.5757575757575 478.62626262626264,860.0404040404039 488.16161616161617,850.5050505050505 497.69696969696975,840.969696969697 507.2323232323232,831.4343434343434 516.7676767676768,821.8989898989898 526.3030303030303,812.3636363636363 535.8383838383838,802.8282828282828 545.3737373737374,793.2929292929292 554.9090909090909,783.7575757575758 564.4444444444445,774.2222222222222 573.9797979797979,764.6868686868687 583.5151515151515,755.1515151515151 593.0505050505051,745.6161616161615 602.5858585858585,736.0808080808081 612.1212121212121,726.5454545454545 621.6565656565656,717.010101010101 631.1919191919192,707.4747474747475 640.7272727272727,697.939393939394 650.2626262626262,688.4040404040404 659.7979797979798,678.8686868686868 669.3333333333333,669.3333333333334 678.8686868686868,659.7979797979798 688.4040404040404,650.2626262626263 697.9393939393939,640.7272727272727 707.4747474747475,631.1919191919193 717.0101010101009,621.6565656565657 726.5454545454545,612.1212121212121 736.0808080808081,602.5858585858587 745.6161616161615,593.0505050505051 745.6161616161615,583.5151515151516 745.6161616161615,573.979797979798 745.6161616161615,564.4444444444445 745.6161616161615,554.909090909091 745.6161616161615,545.3737373737374 745.6161616161615,535.838383838384 745.6161616161615,526.3030303030304 745.6161616161615,516.7676767676768 745.6161616161615,507.23232323232327 745.6161616161615,497.69696969696975 745.6161616161615,488.1616161616163 745.6161616161615,478.6262626262627 745.6161616161615,469.0909090909092 745.6161616161615,459.5555555555556 745.6161616161615,450.0202020202021 745.6161616161615,440.4848484848486 745.6161616161615,430.94949494949503 745.6161616161615,421.4141414141415 745.6161616161615,411.87878787878793 745.6161616161615,402.3434343434344 745.6161616161615,392.80808080808094 745.6161616161615,383.27272727272737 745.6161616161615,373.73737373737384 745.6161616161615,364.2020202020203 745.6161616161615,354.66666666666674 745.6161616161615,345.1313131313133 745.6161616161615,335.5959595959597 745.6161616161615,326.06060606060623 745.6161616161615,316.5252525252526 745.6161616161615,306.9898989898991 745.6161616161615,297.4545454545456 745.6161616161615,287.91919191919203 745.6161616161615,278.38383838383857 745.6161616161615,268.84848484848493 745.6161616161615,259.3131313131314 745.6161616161615,249.77777777777794 745.6161616161615,240.24242424242436 745.6161616161615,230.70707070707084 745.6161616161615,221.17171717171726 745.6161616161615,211.63636363636374 745.6161616161615,202.10101010101027 745.6161616161615,192.56565656565675 745.6161616161615,183.03030303030312 745.6161616161615,173.4949494949496 745.6161616161615,163.95959595959613 745.6161616161615,154.4242424242426 745.6161616161615,144.88888888888908 745.6161616161615,135.35353535353545 745.6161616161615,125.81818181818198 745.6161616161615,116.28282828282846 745.6161616161615,106.747474747475 745.6161616161615,97.21212121212153 745.6161616161615,87.67676767676778 745.6161616161615,78.14141414141432 745.6161616161615,68.60606060606085 745.6161616161615,59.07070707070733 745.6161616161615,49.53535353535369 745.6161616161615,40.000000000000114" fill="none" stroke="rgba(255,0,0,0.75)" stroke-width="14.159999999999995"/></g><g><polyline data-points="1.5656565656565666,5.000000000000002 1.4646464646464652,4.898989898989901 1.3636363636363644,4.7979797979797985 1.262626262626263,4.696969696969697 1.1616161616161622,4.595959595959597 1.0606060606060617,4.494949494949497 0.9595959595959602,4.393939393939394 0.8585858585858596,4.292929292929293 0.7575757575757579,4.191919191919193 0.6565656565656574,4.090909090909092 0.5555555555555567,3.989898989898992 0.4545454545454551,3.8888888888888893 0.3535353535353544,3.7878787878787885 0.2525252525252529,3.6868686868686877 0.1515151515151522,3.5858585858585874 0.050505050505051545,3.4848484848484866 -0.05050505050505001,3.383838383838384 -0.15151515151515066,3.2828282828282833 -0.2525252525252522,3.181818181818183 -0.35353535353535287,3.080808080808082 -0.4545454545454544,2.9797979797979806 -0.555555555555555,2.87878787878788 -0.6565656565656557,2.7777777777777786 -0.7575757575757572,2.676767676767678 -0.8585858585858579,2.575757575757577 -0.9595959595959596,2.4747474747474754 -1.0606060606060603,2.373737373737375 -1.0606060606060603,2.2727272727272734 -1.0606060606060603,2.1717171717171726 -1.0606060606060603,2.070707070707072 -1.0606060606060603,1.9696969696969702 -1.0606060606060603,1.8686868686868696 -1.0606060606060603,1.767676767676768 -1.0606060606060603,1.6666666666666674 -1.0606060606060603,1.5656565656565666 -1.0606060606060603,1.4646464646464652 -1.0606060606060603,1.3636363636363644 -1.0606060606060603,1.262626262626263 -1.0606060606060603,1.1616161616161622 -1.0606060606060603,1.0606060606060617 -1.0606060606060603,0.9595959595959602 -1.0606060606060603,0.8585858585858596 -1.0606060606060603,0.7575757575757579 -1.0606060606060603,0.6565656565656574 -1.0606060606060603,0.5555555555555567 -1.0606060606060603,0.4545454545454551 -1.0606060606060603,0.3535353535353544 -1.0606060606060603,0.2525252525252529 -1.0606060606060603,0.1515151515151522 -1.0606060606060603,0.050505050505051545 -1.0606060606060603,-0.05050505050505001 -1.0606060606060603,-0.15151515151515066 -1.0606060606060603,-0.2525252525252522 -1.0606060606060603,-0.35353535353535287 -1.0606060606060603,-0.4545454545454544 -1.0606060606060603,-0.555555555555555 -1.0606060606060603,-0.6565656565656557 -1.0606060606060603,-0.7575757575757572 -1.0606060606060603,-0.8585858585858579 -1.0606060606060603,-0.9595959595959596 -1.0606060606060603,-1.0606060606060603 -1.0606060606060603,-1.1616161616161613 -1.0606060606060603,-1.2626262626262625 -1.0606060606060603,-1.363636363636363 -1.0606060606060603,-1.4646464646464643 -1.0606060606060603,-1.5656565656565653 -1.0606060606060603,-1.6666666666666665 -1.0606060606060603,-1.7676767676767675 -1.0606060606060603,-1.8686868686868683 -1.0606060606060603,-1.9696969696969693 -1.0606060606060603,-2.07070707070707 -1.0606060606060603,-2.1717171717171713 -1.0606060606060603,-2.2727272727272725 -1.0606060606060603,-2.3737373737373733 -1.0606060606060603,-2.474747474747474 -1.0606060606060603,-2.5757575757575752 -1.0606060606060603,-2.6767676767676765 -1.0606060606060603,-2.7777777777777777 -1.0606060606060603,-2.8787878787878785 -1.0606060606060603,-2.9797979797979792 -1.0606060606060603,-3.0808080808080804 -1.0606060606060603,-3.1818181818181817 -1.0606060606060603,-3.2828282828282824 -1.0606060606060603,-3.383838383838383 -1.1616161616161613,-3.484848484848485 -1.2626262626262625,-3.5858585858585856 -1.363636363636363,-3.6868686868686864 -1.4646464646464643,-3.7878787878787876 -1.5656565656565653,-3.8888888888888884 -1.6666666666666665,-3.98989898989899" data-type="line" data-label="" points="659.7979797979798,40.000000000000114 650.2626262626262,49.53535353535369 640.7272727272727,59.07070707070733 631.1919191919192,68.60606060606085 621.6565656565656,78.14141414141432 612.1212121212121,87.67676767676778 602.5858585858585,97.21212121212153 593.0505050505051,106.747474747475 583.5151515151515,116.28282828282846 573.9797979797979,125.81818181818198 564.4444444444445,135.35353535353545 554.9090909090909,144.88888888888908 545.3737373737374,154.4242424242426 535.8383838383838,163.95959595959613 526.3030303030303,173.4949494949496 516.7676767676768,183.03030303030312 507.2323232323232,192.56565656565675 497.69696969696975,202.10101010101027 488.16161616161617,211.63636363636374 478.62626262626264,221.17171717171726 469.09090909090907,230.70707070707084 459.55555555555554,240.24242424242436 450.0202020202021,249.77777777777794 440.4848484848485,259.3131313131314 430.949494949495,268.84848484848493 421.4141414141414,278.38383838383857 411.8787878787879,287.91919191919203 411.8787878787879,297.4545454545456 411.8787878787879,306.9898989898991 411.8787878787879,316.5252525252526 411.8787878787879,326.06060606060623 411.8787878787879,335.5959595959597 411.8787878787879,345.1313131313133 411.8787878787879,354.66666666666674 411.8787878787879,364.2020202020203 411.8787878787879,373.73737373737384 411.8787878787879,383.27272727272737 411.8787878787879,392.80808080808094 411.8787878787879,402.3434343434344 411.8787878787879,411.87878787878793 411.8787878787879,421.4141414141415 411.8787878787879,430.94949494949503 411.8787878787879,440.4848484848486 411.8787878787879,450.0202020202021 411.8787878787879,459.5555555555556 411.8787878787879,469.0909090909092 411.8787878787879,478.6262626262627 411.8787878787879,488.1616161616163 411.8787878787879,497.69696969696975 411.8787878787879,507.23232323232327 411.8787878787879,516.7676767676768 411.8787878787879,526.3030303030304 411.8787878787879,535.838383838384 411.8787878787879,545.3737373737374 411.8787878787879,554.909090909091 411.8787878787879,564.4444444444445 411.8787878787879,573.979797979798 411.8787878787879,583.5151515151516 411.8787878787879,593.0505050505051 411.8787878787879,602.5858585858587 411.8787878787879,612.1212121212121 411.8787878787879,621.6565656565657 411.8787878787879,631.1919191919193 411.8787878787879,640.7272727272727 411.8787878787879,650.2626262626263 411.8787878787879,659.7979797979798 411.8787878787879,669.3333333333334 411.8787878787879,678.8686868686868 411.8787878787879,688.4040404040404 411.8787878787879,697.939393939394 411.8787878787879,707.4747474747475 411.8787878787879,717.010101010101 411.8787878787879,726.5454545454545 411.8787878787879,736.0808080808081 411.8787878787879,745.6161616161615 411.8787878787879,755.1515151515151 411.8787878787879,764.6868686868687 411.8787878787879,774.2222222222222 411.8787878787879,783.7575757575758 411.8787878787879,793.2929292929292 411.8787878787879,802.8282828282828 411.8787878787879,812.3636363636363 411.8787878787879,821.8989898989898 411.8787878787879,831.4343434343434 402.34343434343435,840.969696969697 392.80808080808083,850.5050505050505 383.2727272727273,860.0404040404039 373.7373737373738,869.5757575757575 364.2020202020202,879.1111111111111 354.6666666666667,888.6464646464647" fill="none" stroke="rgba(255,0,0,0.75)" stroke-width="14.159999999999995"/></g><g><polyline data-points="-1.6666666666666665,-3.98989898989899 -1.7676767676767675,-4.090909090909091 -1.8686868686868683,-4.191919191919193 -1.9696969696969693,-4.292929292929293 -2.07070707070707,-4.393939393939394 -2.1717171717171713,-4.494949494949496 -2.2727272727272725,-4.595959595959596 -2.3737373737373733,-4.696969696969697 -2.474747474747474,-4.7979797979797985 -2.5757575757575752,-4.7979797979797985 -2.6767676767676765,-4.7979797979797985 -2.7777777777777777,-4.898989898989899 -2.8787878787878785,-5.000000000000001" data-type="line" data-label="" points="354.6666666666667,888.6464646464647 345.13131313131316,898.1818181818181 335.59595959595964,907.7171717171718 326.0606060606061,917.2525252525252 316.5252525252526,926.7878787878788 306.9898989898991,936.3232323232323 297.4545454545455,945.8585858585858 287.91919191919203,955.3939393939394 278.38383838383845,964.9292929292928 268.84848484848493,964.9292929292928 259.3131313131314,964.9292929292928 249.77777777777783,974.4646464646464 240.2424242424243,984" fill="none" stroke="rgba(0,0,255,0.75)" stroke-width="14.159999999999995"/></g><g><polyline data-points="-3.8888888888888884,5.000000000000002 -3.7878787878787876,5.000000000000002 -3.6868686868686864,4.898989898989901 -3.5858585858585856,4.7979797979797985 -3.484848484848485,4.7979797979797985 -3.383838383838383,4.696969696969697 -3.383838383838383,4.595959595959597 -3.383838383838383,4.494949494949497 -3.383838383838383,4.393939393939394 -3.383838383838383,4.292929292929293 -3.383838383838383,4.191919191919193 -3.383838383838383,4.090909090909092 -3.383838383838383,3.989898989898992 -3.383838383838383,3.8888888888888893 -3.383838383838383,3.7878787878787885 -3.383838383838383,3.6868686868686877 -3.383838383838383,3.5858585858585874 -3.383838383838383,3.4848484848484866 -3.383838383838383,3.383838383838384 -3.383838383838383,3.2828282828282833 -3.383838383838383,3.181818181818183 -3.383838383838383,3.080808080808082 -3.383838383838383,2.9797979797979806 -3.383838383838383,2.87878787878788 -3.383838383838383,2.7777777777777786 -3.383838383838383,2.676767676767678 -3.383838383838383,2.575757575757577 -3.383838383838383,2.4747474747474754" data-type="line" data-label="" points="144.88888888888903,40.000000000000114 154.42424242424255,40.000000000000114 163.95959595959607,49.53535353535369 173.4949494949496,59.07070707070733 183.03030303030312,59.07070707070733 192.5656565656567,68.60606060606085 192.5656565656567,78.14141414141432 192.5656565656567,87.67676767676778 192.5656565656567,97.21212121212153 192.5656565656567,106.747474747475 192.5656565656567,116.28282828282846 192.5656565656567,125.81818181818198 192.5656565656567,135.35353535353545 192.5656565656567,144.88888888888908 192.5656565656567,154.4242424242426 192.5656565656567,163.95959595959613 192.5656565656567,173.4949494949496 192.5656565656567,183.03030303030312 192.5656565656567,192.56565656565675 192.5656565656567,202.10101010101027 192.5656565656567,211.63636363636374 192.5656565656567,221.17171717171726 192.5656565656567,230.70707070707084 192.5656565656567,240.24242424242436 192.5656565656567,249.77777777777794 192.5656565656567,259.3131313131314 192.5656565656567,268.84848484848493 192.5656565656567,278.38383838383857" fill="none" stroke="rgba(0,0,255,0.75)" stroke-width="14.159999999999995"/></g><g><polyline data-points="-3.383838383838383,2.4747474747474754 -3.383838383838383,2.373737373737375 -3.383838383838383,2.2727272727272734 -3.383838383838383,2.1717171717171726 -3.383838383838383,2.070707070707072 -3.383838383838383,1.9696969696969702 -3.383838383838383,1.8686868686868696 -3.383838383838383,1.767676767676768 -3.383838383838383,1.6666666666666674 -3.383838383838383,1.5656565656565666 -3.383838383838383,1.4646464646464652 -3.383838383838383,1.3636363636363644 -3.383838383838383,1.262626262626263 -3.383838383838383,1.1616161616161622 -3.383838383838383,1.0606060606060617 -3.383838383838383,0.9595959595959602 -3.383838383838383,0.8585858585858596 -3.383838383838383,0.7575757575757579 -3.383838383838383,0.6565656565656574 -3.383838383838383,0.5555555555555567 -3.383838383838383,0.4545454545454551 -3.383838383838383,0.3535353535353544 -3.383838383838383,0.2525252525252529 -3.383838383838383,0.1515151515151522 -3.383838383838383,0.050505050505051545 -3.383838383838383,-0.05050505050505001 -3.383838383838383,-0.15151515151515066 -3.383838383838383,-0.2525252525252522 -3.383838383838383,-0.35353535353535287 -3.383838383838383,-0.4545454545454544 -3.383838383838383,-0.555555555555555 -3.383838383838383,-0.6565656565656557 -3.383838383838383,-0.7575757575757572 -3.383838383838383,-0.8585858585858579 -3.383838383838383,-0.9595959595959596 -3.383838383838383,-1.0606060606060603 -3.383838383838383,-1.1616161616161613 -3.383838383838383,-1.2626262626262625 -3.383838383838383,-1.363636363636363 -3.383838383838383,-1.4646464646464643 -3.383838383838383,-1.5656565656565653 -3.383838383838383,-1.6666666666666665 -3.383838383838383,-1.7676767676767675 -3.383838383838383,-1.8686868686868683 -3.383838383838383,-1.9696969696969693 -3.383838383838383,-2.07070707070707 -3.383838383838383,-2.1717171717171713 -3.383838383838383,-2.2727272727272725 -3.383838383838383,-2.3737373737373733 -3.383838383838383,-2.474747474747474 -3.383838383838383,-2.5757575757575752 -3.383838383838383,-2.6767676767676765 -3.383838383838383,-2.7777777777777777 -3.383838383838383,-2.8787878787878785 -3.383838383838383,-2.9797979797979792 -3.383838383838383,-3.0808080808080804 -3.2828282828282824,-3.1818181818181817 -3.383838383838383,-3.2828282828282824 -3.2828282828282824,-3.383838383838383 -3.1818181818181817,-3.484848484848485 -3.0808080808080804,-3.5858585858585856 -2.9797979797979792,-3.6868686868686864 -2.8787878787878785,-3.7878787878787876 -2.7777777777777777,-3.8888888888888884 -2.8787878787878785,-3.98989898989899" data-type="line" data-label="" points="192.5656565656567,278.38383838383857 192.5656565656567,287.91919191919203 192.5656565656567,297.4545454545456 192.5656565656567,306.9898989898991 192.5656565656567,316.5252525252526 192.5656565656567,326.06060606060623 192.5656565656567,335.5959595959597 192.5656565656567,345.1313131313133 192.5656565656567,354.66666666666674 192.5656565656567,364.2020202020203 192.5656565656567,373.73737373737384 192.5656565656567,383.27272727272737 192.5656565656567,392.80808080808094 192.5656565656567,402.3434343434344 192.5656565656567,411.87878787878793 192.5656565656567,421.4141414141415 192.5656565656567,430.94949494949503 192.5656565656567,440.4848484848486 192.5656565656567,450.0202020202021 192.5656565656567,459.5555555555556 192.5656565656567,469.0909090909092 192.5656565656567,478.6262626262627 192.5656565656567,488.1616161616163 192.5656565656567,497.69696969696975 192.5656565656567,507.23232323232327 192.5656565656567,516.7676767676768 192.5656565656567,526.3030303030304 192.5656565656567,535.838383838384 192.5656565656567,545.3737373737374 192.5656565656567,554.909090909091 192.5656565656567,564.4444444444445 192.5656565656567,573.979797979798 192.5656565656567,583.5151515151516 192.5656565656567,593.0505050505051 192.5656565656567,602.5858585858587 192.5656565656567,612.1212121212121 192.5656565656567,621.6565656565657 192.5656565656567,631.1919191919193 192.5656565656567,640.7272727272727 192.5656565656567,650.2626262626263 192.5656565656567,659.7979797979798 192.5656565656567,669.3333333333334 192.5656565656567,678.8686868686868 192.5656565656567,688.4040404040404 192.5656565656567,697.939393939394 192.5656565656567,707.4747474747475 192.5656565656567,717.010101010101 192.5656565656567,726.5454545454545 192.5656565656567,736.0808080808081 192.5656565656567,745.6161616161615 192.5656565656567,755.1515151515151 192.5656565656567,764.6868686868687 192.5656565656567,774.2222222222222 192.5656565656567,783.7575757575758 192.5656565656567,793.2929292929292 192.5656565656567,802.8282828282828 202.10101010101022,812.3636363636363 192.5656565656567,821.8989898989898 202.10101010101022,831.4343434343434 211.63636363636374,840.969696969697 221.17171717171726,850.5050505050505 230.70707070707084,860.0404040404039 240.2424242424243,869.5757575757575 249.77777777777783,879.1111111111111 240.2424242424243,888.6464646464647" fill="none" stroke="rgba(255,0,0,0.75)" stroke-width="14.159999999999995"/></g><g><polyline data-points="-2.8787878787878785,-3.98989898989899 -2.9797979797979792,-4.090909090909091 -3.0808080808080804,-4.191919191919193 -3.1818181818181817,-4.292929292929293 -3.2828282828282824,-4.393939393939394 -3.383838383838383,-4.494949494949496 -3.383838383838383,-4.595959595959596 -3.383838383838383,-4.696969696969697 -3.383838383838383,-4.7979797979797985 -3.383838383838383,-4.898989898989899 -3.484848484848485,-5.000000000000001" data-type="line" data-label="" points="240.2424242424243,888.6464646464647 230.70707070707084,898.1818181818181 221.17171717171726,907.7171717171718 211.63636363636374,917.2525252525252 202.10101010101022,926.7878787878788 192.5656565656567,936.3232323232323 192.5656565656567,945.8585858585858 192.5656565656567,955.3939393939394 192.5656565656567,964.9292929292928 192.5656565656567,974.4646464646464 183.03030303030312,984" fill="none" stroke="rgba(0,0,255,0.75)" stroke-width="14.159999999999995"/></g><g><polyline data-points="-5.000000000000001,-2.1717171717171713 -5.000000000000001,-2.2727272727272725 -4.898989898989899,-2.3737373737373733 -4.7979797979797985,-2.474747474747474 -4.696969696969697,-2.5757575757575752 -4.595959595959596,-2.6767676767676765 -4.494949494949496,-2.7777777777777777 -4.393939393939394,-2.8787878787878785 -4.292929292929293,-2.9797979797979792 -4.191919191919193,-3.0808080808080804 -4.090909090909091,-3.1818181818181817 -3.98989898989899,-3.2828282828282824 -3.8888888888888884,-3.383838383838383 -3.7878787878787876,-3.484848484848485 -3.6868686868686864,-3.5858585858585856 -3.5858585858585856,-3.6868686868686864 -3.484848484848485,-3.7878787878787876 -3.383838383838383,-3.8888888888888884 -3.383838383838383,-3.98989898989899 -3.2828282828282824,-4.090909090909091 -3.2828282828282824,-4.191919191919193 -3.1818181818181817,-4.292929292929293 -3.0808080808080804,-4.393939393939394 -2.9797979797979792,-4.393939393939394 -2.8787878787878785,-4.494949494949496 -2.7777777777777777,-4.393939393939394 -2.6767676767676765,-4.393939393939394 -2.5757575757575752,-4.292929292929293 -2.474747474747474,-4.191919191919193 -2.3737373737373733,-4.090909090909091 -2.2727272727272725,-3.98989898989899 -2.2727272727272725,-3.8888888888888884 -2.2727272727272725,-3.7878787878787876 -2.2727272727272725,-3.6868686868686864 -2.2727272727272725,-3.5858585858585856 -2.2727272727272725,-3.484848484848485" data-type="line" data-label="" points="40.00000000000006,717.010101010101 40.00000000000006,726.5454545454545 49.53535353535369,736.0808080808081 59.07070707070716,745.6161616161615 68.60606060606068,755.1515151515151 78.14141414141426,764.6868686868687 87.67676767676772,774.2222222222222 97.21212121212136,783.7575757575758 106.74747474747483,793.2929292929292 116.28282828282829,802.8282828282828 125.81818181818193,812.3636363636363 135.35353535353545,821.8989898989898 144.88888888888903,831.4343434343434 154.42424242424255,840.969696969697 163.95959595959607,850.5050505050505 173.4949494949496,860.0404040404039 183.03030303030312,869.5757575757575 192.5656565656567,879.1111111111111 192.5656565656567,888.6464646464647 202.10101010101022,898.1818181818181 202.10101010101022,907.7171717171718 211.63636363636374,917.2525252525252 221.17171717171726,926.7878787878788 230.70707070707084,926.7878787878788 240.2424242424243,936.3232323232323 249.77777777777783,926.7878787878788 259.3131313131314,926.7878787878788 268.84848484848493,917.2525252525252 278.38383838383845,907.7171717171718 287.91919191919203,898.1818181818181 297.4545454545455,888.6464646464647 297.4545454545455,879.1111111111111 297.4545454545455,869.5757575757575 297.4545454545455,860.0404040404039 297.4545454545455,850.5050505050505 297.4545454545455,840.969696969697" fill="none" stroke="rgba(255,0,0,0.75)" stroke-width="14.159999999999995"/></g><g><polyline data-points="-2.2727272727272725,-3.484848484848485 -2.1717171717171713,-3.484848484848485 -2.07070707070707,-3.484848484848485 -1.9696969696969693,-3.484848484848485 -1.8686868686868683,-3.484848484848485 -1.7676767676767675,-3.484848484848485 -1.6666666666666665,-3.484848484848485 -1.5656565656565653,-3.5858585858585856 -1.4646464646464643,-3.5858585858585856 -1.363636363636363,-3.6868686868686864 -1.2626262626262625,-3.7878787878787876 -1.1616161616161613,-3.8888888888888884 -1.0606060606060603,-3.8888888888888884 -0.9595959595959596,-3.8888888888888884 -0.8585858585858579,-3.8888888888888884 -0.7575757575757572,-3.8888888888888884 -0.6565656565656557,-3.8888888888888884 -0.555555555555555,-3.8888888888888884 -0.4545454545454544,-3.8888888888888884 -0.35353535353535287,-3.8888888888888884 -0.2525252525252522,-3.8888888888888884 -0.15151515151515066,-3.8888888888888884 -0.05050505050505001,-3.8888888888888884 0.050505050505051545,-3.8888888888888884 0.1515151515151522,-3.8888888888888884 0.2525252525252529,-3.98989898989899 0.3535353535353544,-3.98989898989899 0.4545454545454551,-3.98989898989899 0.5555555555555567,-3.98989898989899 0.6565656565656574,-4.090909090909091 0.7575757575757579,-4.090909090909091 0.8585858585858596,-4.090909090909091 0.9595959595959602,-4.090909090909091 1.0606060606060617,-4.090909090909091 1.1616161616161622,-4.090909090909091 1.262626262626263,-4.090909090909091 1.3636363636363644,-4.090909090909091 1.4646464646464652,-4.090909090909091 1.5656565656565666,-4.090909090909091 1.6666666666666674,-4.090909090909091 1.767676767676768,-4.090909090909091 1.8686868686868696,-4.090909090909091 1.9696969696969702,-4.090909090909091 2.070707070707072,-4.090909090909091 2.1717171717171726,-4.090909090909091 2.2727272727272734,-4.090909090909091 2.373737373737375,-4.090909090909091 2.4747474747474754,-4.090909090909091 2.575757575757577,-4.090909090909091 2.676767676767678,-4.090909090909091 2.7777777777777786,-4.090909090909091 2.87878787878788,-4.090909090909091 2.9797979797979806,-4.090909090909091 3.080808080808082,-4.090909090909091 3.181818181818183,-4.090909090909091 3.2828282828282833,-4.090909090909091 3.383838383838384,-4.090909090909091 3.4848484848484866,-4.090909090909091 3.5858585858585874,-4.090909090909091 3.6868686868686877,-4.090909090909091 3.7878787878787885,-4.090909090909091 3.8888888888888893,-4.090909090909091 3.989898989898992,-4.090909090909091 4.090909090909092,-4.090909090909091 4.191919191919193,-4.090909090909091 4.292929292929293,-4.090909090909091 4.393939393939394,-4.090909090909091 4.494949494949497,-4.090909090909091 4.595959595959597,-4.090909090909091 4.696969696969697,-4.090909090909091 4.7979797979797985,-4.090909090909091 4.898989898989901,-4.090909090909091 5.000000000000002,-3.98989898989899" data-type="line" data-label="" points="297.4545454545455,840.969696969697 306.9898989898991,840.969696969697 316.5252525252526,840.969696969697 326.0606060606061,840.969696969697 335.59595959595964,840.969696969697 345.13131313131316,840.969696969697 354.6666666666667,840.969696969697 364.2020202020202,850.5050505050505 373.7373737373738,850.5050505050505 383.2727272727273,860.0404040404039 392.80808080808083,869.5757575757575 402.34343434343435,879.1111111111111 411.8787878787879,879.1111111111111 421.4141414141414,879.1111111111111 430.949494949495,879.1111111111111 440.4848484848485,879.1111111111111 450.0202020202021,879.1111111111111 459.55555555555554,879.1111111111111 469.09090909090907,879.1111111111111 478.62626262626264,879.1111111111111 488.16161616161617,879.1111111111111 497.69696969696975,879.1111111111111 507.2323232323232,879.1111111111111 516.7676767676768,879.1111111111111 526.3030303030303,879.1111111111111 535.8383838383838,888.6464646464647 545.3737373737374,888.6464646464647 554.9090909090909,888.6464646464647 564.4444444444445,888.6464646464647 573.9797979797979,898.1818181818181 583.5151515151515,898.1818181818181 593.0505050505051,898.1818181818181 602.5858585858585,898.1818181818181 612.1212121212121,898.1818181818181 621.6565656565656,898.1818181818181 631.1919191919192,898.1818181818181 640.7272727272727,898.1818181818181 650.2626262626262,898.1818181818181 659.7979797979798,898.1818181818181 669.3333333333333,898.1818181818181 678.8686868686868,898.1818181818181 688.4040404040404,898.1818181818181 697.9393939393939,898.1818181818181 707.4747474747475,898.1818181818181 717.0101010101009,898.1818181818181 726.5454545454545,898.1818181818181 736.0808080808081,898.1818181818181 745.6161616161615,898.1818181818181 755.1515151515151,898.1818181818181 764.6868686868686,898.1818181818181 774.2222222222222,898.1818181818181 783.7575757575758,898.1818181818181 793.2929292929292,898.1818181818181 802.8282828282828,898.1818181818181 812.3636363636363,898.1818181818181 821.8989898989898,898.1818181818181 831.4343434343433,898.1818181818181 840.969696969697,898.1818181818181 850.5050505050505,898.1818181818181 860.0404040404039,898.1818181818181 869.5757575757575,898.1818181818181 879.111111111111,898.1818181818181 888.6464646464647,898.1818181818181 898.181818181818,898.1818181818181 907.7171717171716,898.1818181818181 917.2525252525251,898.1818181818181 926.7878787878785,898.1818181818181 936.3232323232323,898.1818181818181 945.8585858585857,898.1818181818181 955.3939393939393,898.1818181818181 964.9292929292927,898.1818181818181 974.4646464646464,898.1818181818181 984,888.6464646464647" fill="none" stroke="rgba(0,0,255,0.75)" stroke-width="14.159999999999995"/></g><g><polyline data-points="4.595959595959597,5.000000000000002 4.595959595959597,4.898989898989901 4.494949494949497,4.7979797979797985 4.393939393939394,4.696969696969697 4.292929292929293,4.595959595959597 4.191919191919193,4.494949494949497 4.090909090909092,4.393939393939394 3.989898989898992,4.292929292929293 3.8888888888888893,4.191919191919193 3.7878787878787885,4.090909090909092 3.6868686868686877,3.989898989898992 3.5858585858585874,3.8888888888888893 3.4848484848484866,3.7878787878787885 3.383838383838384,3.6868686868686877 3.2828282828282833,3.5858585858585874 3.181818181818183,3.4848484848484866 3.080808080808082,3.383838383838384 2.9797979797979806,3.2828282828282833 2.87878787878788,3.181818181818183 2.7777777777777786,3.080808080808082 2.7777777777777786,2.9797979797979806 2.7777777777777786,2.87878787878788 2.7777777777777786,2.7777777777777786 2.7777777777777786,2.676767676767678 2.7777777777777786,2.575757575757577 2.7777777777777786,2.4747474747474754 2.7777777777777786,2.373737373737375 2.7777777777777786,2.2727272727272734 2.7777777777777786,2.1717171717171726 2.7777777777777786,2.070707070707072 2.7777777777777786,1.9696969696969702 2.7777777777777786,1.8686868686868696 2.7777777777777786,1.767676767676768 2.7777777777777786,1.6666666666666674 2.7777777777777786,1.5656565656565666 2.7777777777777786,1.4646464646464652 2.7777777777777786,1.3636363636363644 2.7777777777777786,1.262626262626263 2.7777777777777786,1.1616161616161622 2.7777777777777786,1.0606060606060617 2.7777777777777786,0.9595959595959602 2.7777777777777786,0.8585858585858596 2.7777777777777786,0.7575757575757579 2.7777777777777786,0.6565656565656574 2.7777777777777786,0.5555555555555567 2.7777777777777786,0.4545454545454551 2.7777777777777786,0.3535353535353544 2.7777777777777786,0.2525252525252529 2.7777777777777786,0.1515151515151522 2.7777777777777786,0.050505050505051545 2.7777777777777786,-0.05050505050505001 2.7777777777777786,-0.15151515151515066 2.7777777777777786,-0.2525252525252522 2.7777777777777786,-0.35353535353535287 2.7777777777777786,-0.4545454545454544 2.7777777777777786,-0.555555555555555 2.7777777777777786,-0.6565656565656557 2.7777777777777786,-0.7575757575757572 2.7777777777777786,-0.8585858585858579 2.7777777777777786,-0.9595959595959596 2.676767676767678,-1.0606060606060603 2.575757575757577,-1.1616161616161613 2.4747474747474754,-1.2626262626262625 2.373737373737375,-1.363636363636363 2.2727272727272734,-1.4646464646464643 2.1717171717171726,-1.5656565656565653 2.070707070707072,-1.6666666666666665 1.9696969696969702,-1.7676767676767675 1.8686868686868696,-1.8686868686868683 1.767676767676768,-1.9696969696969693 1.6666666666666674,-2.07070707070707 1.5656565656565666,-2.1717171717171713 1.4646464646464652,-2.2727272727272725 1.3636363636363644,-2.3737373737373733 1.3636363636363644,-2.474747474747474 1.3636363636363644,-2.5757575757575752 1.3636363636363644,-2.6767676767676765 1.3636363636363644,-2.7777777777777777" data-type="line" data-label="" points="945.8585858585857,40.000000000000114 945.8585858585857,49.53535353535369 936.3232323232323,59.07070707070733 926.7878787878785,68.60606060606085 917.2525252525251,78.14141414141432 907.7171717171716,87.67676767676778 898.181818181818,97.21212121212153 888.6464646464647,106.747474747475 879.111111111111,116.28282828282846 869.5757575757575,125.81818181818198 860.0404040404039,135.35353535353545 850.5050505050505,144.88888888888908 840.969696969697,154.4242424242426 831.4343434343433,163.95959595959613 821.8989898989898,173.4949494949496 812.3636363636363,183.03030303030312 802.8282828282828,192.56565656565675 793.2929292929292,202.10101010101027 783.7575757575758,211.63636363636374 774.2222222222222,221.17171717171726 774.2222222222222,230.70707070707084 774.2222222222222,240.24242424242436 774.2222222222222,249.77777777777794 774.2222222222222,259.3131313131314 774.2222222222222,268.84848484848493 774.2222222222222,278.38383838383857 774.2222222222222,287.91919191919203 774.2222222222222,297.4545454545456 774.2222222222222,306.9898989898991 774.2222222222222,316.5252525252526 774.2222222222222,326.06060606060623 774.2222222222222,335.5959595959597 774.2222222222222,345.1313131313133 774.2222222222222,354.66666666666674 774.2222222222222,364.2020202020203 774.2222222222222,373.73737373737384 774.2222222222222,383.27272727272737 774.2222222222222,392.80808080808094 774.2222222222222,402.3434343434344 774.2222222222222,411.87878787878793 774.2222222222222,421.4141414141415 774.2222222222222,430.94949494949503 774.2222222222222,440.4848484848486 774.2222222222222,450.0202020202021 774.2222222222222,459.5555555555556 774.2222222222222,469.0909090909092 774.2222222222222,478.6262626262627 774.2222222222222,488.1616161616163 774.2222222222222,497.69696969696975 774.2222222222222,507.23232323232327 774.2222222222222,516.7676767676768 774.2222222222222,526.3030303030304 774.2222222222222,535.838383838384 774.2222222222222,545.3737373737374 774.2222222222222,554.909090909091 774.2222222222222,564.4444444444445 774.2222222222222,573.979797979798 774.2222222222222,583.5151515151516 774.2222222222222,593.0505050505051 774.2222222222222,602.5858585858587 764.6868686868686,612.1212121212121 755.1515151515151,621.6565656565657 745.6161616161615,631.1919191919193 736.0808080808081,640.7272727272727 726.5454545454545,650.2626262626263 717.0101010101009,659.7979797979798 707.4747474747475,669.3333333333334 697.9393939393939,678.8686868686868 688.4040404040404,688.4040404040404 678.8686868686868,697.939393939394 669.3333333333333,707.4747474747475 659.7979797979798,717.010101010101 650.2626262626262,726.5454545454545 640.7272727272727,736.0808080808081 640.7272727272727,745.6161616161615 640.7272727272727,755.1515151515151 640.7272727272727,764.6868686868687 640.7272727272727,774.2222222222222" fill="none" stroke="rgba(255,0,0,0.75)" stroke-width="14.159999999999995"/></g><g><polyline data-points="1.3636363636363644,-2.7777777777777777 1.262626262626263,-2.7777777777777777 1.1616161616161622,-2.7777777777777777 1.0606060606060617,-2.7777777777777777 0.9595959595959602,-2.7777777777777777 0.8585858585858596,-2.6767676767676765 0.7575757575757579,-2.7777777777777777 0.6565656565656574,-2.8787878787878785 0.5555555555555567,-2.9797979797979792 0.4545454545454551,-2.9797979797979792 0.3535353535353544,-2.9797979797979792 0.2525252525252529,-2.9797979797979792 0.1515151515151522,-2.9797979797979792 0.050505050505051545,-2.9797979797979792 -0.05050505050505001,-2.9797979797979792 -0.15151515151515066,-2.9797979797979792 -0.2525252525252522,-2.9797979797979792 -0.35353535353535287,-2.9797979797979792 -0.4545454545454544,-2.9797979797979792 -0.555555555555555,-2.9797979797979792 -0.6565656565656557,-2.9797979797979792 -0.7575757575757572,-2.9797979797979792 -0.8585858585858579,-2.9797979797979792 -0.9595959595959596,-2.9797979797979792 -1.0606060606060603,-2.9797979797979792 -1.1616161616161613,-2.9797979797979792 -1.2626262626262625,-2.9797979797979792 -1.363636363636363,-2.9797979797979792 -1.4646464646464643,-2.9797979797979792 -1.5656565656565653,-2.9797979797979792 -1.6666666666666665,-2.9797979797979792 -1.7676767676767675,-2.9797979797979792 -1.8686868686868683,-2.9797979797979792 -1.9696969696969693,-2.9797979797979792 -2.07070707070707,-2.9797979797979792 -2.1717171717171713,-2.9797979797979792 -2.2727272727272725,-2.9797979797979792 -2.3737373737373733,-3.0808080808080804 -2.474747474747474,-3.0808080808080804 -2.5757575757575752,-3.1818181818181817 -2.6767676767676765,-3.2828282828282824 -2.7777777777777777,-3.383838383838383 -2.8787878787878785,-3.484848484848485 -2.9797979797979792,-3.5858585858585856 -3.0808080808080804,-3.5858585858585856 -3.1818181818181817,-3.6868686868686864 -3.2828282828282824,-3.7878787878787876 -3.383838383838383,-3.8888888888888884 -3.383838383838383,-3.98989898989899 -3.484848484848485,-4.090909090909091 -3.5858585858585856,-4.191919191919193 -3.6868686868686864,-4.292929292929293 -3.7878787878787876,-4.393939393939394 -3.8888888888888884,-4.494949494949496 -3.98989898989899,-4.595959595959596 -4.090909090909091,-4.696969696969697 -4.191919191919193,-4.7979797979797985 -4.292929292929293,-4.898989898989899 -4.393939393939394,-4.898989898989899 -4.494949494949496,-4.898989898989899 -4.595959595959596,-4.898989898989899 -4.696969696969697,-5.000000000000001" data-type="line" data-label="" points="640.7272727272727,774.2222222222222 631.1919191919192,774.2222222222222 621.6565656565656,774.2222222222222 612.1212121212121,774.2222222222222 602.5858585858585,774.2222222222222 593.0505050505051,764.6868686868687 583.5151515151515,774.2222222222222 573.9797979797979,783.7575757575758 564.4444444444445,793.2929292929292 554.9090909090909,793.2929292929292 545.3737373737374,793.2929292929292 535.8383838383838,793.2929292929292 526.3030303030303,793.2929292929292 516.7676767676768,793.2929292929292 507.2323232323232,793.2929292929292 497.69696969696975,793.2929292929292 488.16161616161617,793.2929292929292 478.62626262626264,793.2929292929292 469.09090909090907,793.2929292929292 459.55555555555554,793.2929292929292 450.0202020202021,793.2929292929292 440.4848484848485,793.2929292929292 430.949494949495,793.2929292929292 421.4141414141414,793.2929292929292 411.8787878787879,793.2929292929292 402.34343434343435,793.2929292929292 392.80808080808083,793.2929292929292 383.2727272727273,793.2929292929292 373.7373737373738,793.2929292929292 364.2020202020202,793.2929292929292 354.6666666666667,793.2929292929292 345.13131313131316,793.2929292929292 335.59595959595964,793.2929292929292 326.0606060606061,793.2929292929292 316.5252525252526,793.2929292929292 306.9898989898991,793.2929292929292 297.4545454545455,793.2929292929292 287.91919191919203,802.8282828282828 278.38383838383845,802.8282828282828 268.84848484848493,812.3636363636363 259.3131313131314,821.8989898989898 249.77777777777783,831.4343434343434 240.2424242424243,840.969696969697 230.70707070707084,850.5050505050505 221.17171717171726,850.5050505050505 211.63636363636374,860.0404040404039 202.10101010101022,869.5757575757575 192.5656565656567,879.1111111111111 192.5656565656567,888.6464646464647 183.03030303030312,898.1818181818181 173.4949494949496,907.7171717171718 163.95959595959607,917.2525252525252 154.42424242424255,926.7878787878788 144.88888888888903,936.3232323232323 135.35353535353545,945.8585858585858 125.81818181818193,955.3939393939394 116.28282828282829,964.9292929292928 106.74747474747483,974.4646464646464 97.21212121212136,974.4646464646464 87.67676767676772,974.4646464646464 78.14141414141426,974.4646464646464 68.60606060606068,984" fill="none" stroke="rgba(0,0,255,0.75)" stroke-width="14.159999999999995"/></g><g><polyline data-points="-5.000000000000001,1.8686868686868696 -5.000000000000001,1.767676767676768 -4.898989898989899,1.6666666666666674 -4.7979797979797985,1.5656565656565666 -4.696969696969697,1.4646464646464652 -4.595959595959596,1.3636363636363644 -4.494949494949496,1.262626262626263 -4.393939393939394,1.1616161616161622 -4.292929292929293,1.0606060606060617 -4.191919191919193,0.9595959595959602 -4.090909090909091,0.8585858585858596 -3.98989898989899,0.7575757575757579 -3.8888888888888884,0.6565656565656574 -3.7878787878787876,0.5555555555555567 -3.6868686868686864,0.6565656565656574 -3.5858585858585856,0.5555555555555567 -3.5858585858585856,0.4545454545454551 -3.5858585858585856,0.3535353535353544 -3.484848484848485,0.2525252525252529 -3.383838383838383,0.1515151515151522 -3.2828282828282824,0.050505050505051545 -3.2828282828282824,-0.05050505050505001 -3.2828282828282824,-0.15151515151515066 -3.2828282828282824,-0.2525252525252522 -3.2828282828282824,-0.35353535353535287 -3.2828282828282824,-0.4545454545454544 -3.2828282828282824,-0.555555555555555 -3.2828282828282824,-0.6565656565656557 -3.2828282828282824,-0.7575757575757572 -3.2828282828282824,-0.8585858585858579 -3.2828282828282824,-0.9595959595959596 -3.2828282828282824,-1.0606060606060603 -3.2828282828282824,-1.1616161616161613 -3.2828282828282824,-1.2626262626262625 -3.2828282828282824,-1.363636363636363 -3.1818181818181817,-1.4646464646464643 -3.0808080808080804,-1.5656565656565653 -2.9797979797979792,-1.6666666666666665 -2.8787878787878785,-1.7676767676767675 -2.7777777777777777,-1.8686868686868683 -2.6767676767676765,-1.9696969696969693 -2.5757575757575752,-2.07070707070707 -2.474747474747474,-2.1717171717171713 -2.3737373737373733,-2.1717171717171713 -2.2727272727272725,-2.1717171717171713 -2.1717171717171713,-2.1717171717171713 -2.07070707070707,-2.1717171717171713 -1.9696969696969693,-2.1717171717171713 -1.8686868686868683,-2.1717171717171713 -1.7676767676767675,-2.1717171717171713 -1.6666666666666665,-2.1717171717171713 -1.5656565656565653,-2.1717171717171713 -1.4646464646464643,-2.1717171717171713 -1.363636363636363,-2.1717171717171713 -1.2626262626262625,-2.1717171717171713 -1.1616161616161613,-2.1717171717171713 -1.0606060606060603,-2.1717171717171713 -0.9595959595959596,-2.1717171717171713 -0.8585858585858579,-2.1717171717171713 -0.7575757575757572,-2.1717171717171713 -0.6565656565656557,-2.1717171717171713 -0.555555555555555,-2.1717171717171713 -0.4545454545454544,-2.1717171717171713 -0.35353535353535287,-2.1717171717171713 -0.2525252525252522,-2.1717171717171713 -0.15151515151515066,-2.1717171717171713 -0.05050505050505001,-2.1717171717171713 0.050505050505051545,-2.1717171717171713 0.1515151515151522,-2.1717171717171713 0.2525252525252529,-2.1717171717171713 0.3535353535353544,-2.1717171717171713 0.4545454545454551,-2.1717171717171713 0.5555555555555567,-2.1717171717171713 0.6565656565656574,-2.1717171717171713 0.7575757575757579,-2.1717171717171713 0.8585858585858596,-2.1717171717171713 0.9595959595959602,-2.1717171717171713 1.0606060606060617,-2.1717171717171713 1.1616161616161622,-2.1717171717171713 1.262626262626263,-2.1717171717171713 1.3636363636363644,-2.1717171717171713 1.4646464646464652,-2.2727272727272725 1.5656565656565666,-2.3737373737373733 1.6666666666666674,-2.474747474747474 1.767676767676768,-2.5757575757575752 1.8686868686868696,-2.6767676767676765 1.9696969696969702,-2.7777777777777777 2.070707070707072,-2.8787878787878785 2.1717171717171726,-2.9797979797979792 2.2727272727272734,-3.0808080808080804 2.373737373737375,-3.1818181818181817 2.4747474747474754,-3.2828282828282824 2.575757575757577,-3.383838383838383 2.676767676767678,-3.484848484848485 2.7777777777777786,-3.484848484848485 2.87878787878788,-3.484848484848485 2.9797979797979806,-3.484848484848485 3.080808080808082,-3.484848484848485 3.181818181818183,-3.484848484848485 3.2828282828282833,-3.484848484848485 3.383838383838384,-3.484848484848485 3.4848484848484866,-3.484848484848485 3.5858585858585874,-3.484848484848485 3.6868686868686877,-3.484848484848485" data-type="line" data-label="" points="40.00000000000006,335.5959595959597 40.00000000000006,345.1313131313133 49.53535353535369,354.66666666666674 59.07070707070716,364.2020202020203 68.60606060606068,373.73737373737384 78.14141414141426,383.27272727272737 87.67676767676772,392.80808080808094 97.21212121212136,402.3434343434344 106.74747474747483,411.87878787878793 116.28282828282829,421.4141414141415 125.81818181818193,430.94949494949503 135.35353535353545,440.4848484848486 144.88888888888903,450.0202020202021 154.42424242424255,459.5555555555556 163.95959595959607,450.0202020202021 173.4949494949496,459.5555555555556 173.4949494949496,469.0909090909092 173.4949494949496,478.6262626262627 183.03030303030312,488.1616161616163 192.5656565656567,497.69696969696975 202.10101010101022,507.23232323232327 202.10101010101022,516.7676767676768 202.10101010101022,526.3030303030304 202.10101010101022,535.838383838384 202.10101010101022,545.3737373737374 202.10101010101022,554.909090909091 202.10101010101022,564.4444444444445 202.10101010101022,573.979797979798 202.10101010101022,583.5151515151516 202.10101010101022,593.0505050505051 202.10101010101022,602.5858585858587 202.10101010101022,612.1212121212121 202.10101010101022,621.6565656565657 202.10101010101022,631.1919191919193 202.10101010101022,640.7272727272727 211.63636363636374,650.2626262626263 221.17171717171726,659.7979797979798 230.70707070707084,669.3333333333334 240.2424242424243,678.8686868686868 249.77777777777783,688.4040404040404 259.3131313131314,697.939393939394 268.84848484848493,707.4747474747475 278.38383838383845,717.010101010101 287.91919191919203,717.010101010101 297.4545454545455,717.010101010101 306.9898989898991,717.010101010101 316.5252525252526,717.010101010101 326.0606060606061,717.010101010101 335.59595959595964,717.010101010101 345.13131313131316,717.010101010101 354.6666666666667,717.010101010101 364.2020202020202,717.010101010101 373.7373737373738,717.010101010101 383.2727272727273,717.010101010101 392.80808080808083,717.010101010101 402.34343434343435,717.010101010101 411.8787878787879,717.010101010101 421.4141414141414,717.010101010101 430.949494949495,717.010101010101 440.4848484848485,717.010101010101 450.0202020202021,717.010101010101 459.55555555555554,717.010101010101 469.09090909090907,717.010101010101 478.62626262626264,717.010101010101 488.16161616161617,717.010101010101 497.69696969696975,717.010101010101 507.2323232323232,717.010101010101 516.7676767676768,717.010101010101 526.3030303030303,717.010101010101 535.8383838383838,717.010101010101 545.3737373737374,717.010101010101 554.9090909090909,717.010101010101 564.4444444444445,717.010101010101 573.9797979797979,717.010101010101 583.5151515151515,717.010101010101 593.0505050505051,717.010101010101 602.5858585858585,717.010101010101 612.1212121212121,717.010101010101 621.6565656565656,717.010101010101 631.1919191919192,717.010101010101 640.7272727272727,717.010101010101 650.2626262626262,726.5454545454545 659.7979797979798,736.0808080808081 669.3333333333333,745.6161616161615 678.8686868686868,755.1515151515151 688.4040404040404,764.6868686868687 697.9393939393939,774.2222222222222 707.4747474747475,783.7575757575758 717.0101010101009,793.2929292929292 726.5454545454545,802.8282828282828 736.0808080808081,812.3636363636363 745.6161616161615,821.8989898989898 755.1515151515151,831.4343434343434 764.6868686868686,840.969696969697 774.2222222222222,840.969696969697 783.7575757575758,840.969696969697 793.2929292929292,840.969696969697 802.8282828282828,840.969696969697 812.3636363636363,840.969696969697 821.8989898989898,840.969696969697 831.4343434343433,840.969696969697 840.969696969697,840.969696969697 850.5050505050505,840.969696969697 860.0404040404039,840.969696969697" fill="none" stroke="rgba(0,0,255,0.75)" stroke-width="14.159999999999995"/></g><g><polyline data-points="3.6868686868686877,-3.484848484848485 3.7878787878787885,-3.5858585858585856 3.8888888888888893,-3.6868686868686864 3.989898989898992,-3.7878787878787876 4.090909090909092,-3.8888888888888884 4.191919191919193,-3.98989898989899 4.292929292929293,-4.090909090909091 4.393939393939394,-4.191919191919193 4.393939393939394,-4.292929292929293 4.393939393939394,-4.393939393939394 4.393939393939394,-4.494949494949496 4.393939393939394,-4.595959595959596 4.393939393939394,-4.696969696969697 4.393939393939394,-4.7979797979797985 4.393939393939394,-4.898989898989899 4.393939393939394,-5.000000000000001" data-type="line" data-label="" points="860.0404040404039,840.969696969697 869.5757575757575,850.5050505050505 879.111111111111,860.0404040404039 888.6464646464647,869.5757575757575 898.181818181818,879.1111111111111 907.7171717171716,888.6464646464647 917.2525252525251,898.1818181818181 926.7878787878785,907.7171717171718 926.7878787878785,917.2525252525252 926.7878787878785,926.7878787878788 926.7878787878785,936.3232323232323 926.7878787878785,945.8585858585858 926.7878787878785,955.3939393939394 926.7878787878785,964.9292929292928 926.7878787878785,974.4646464646464 926.7878787878785,984" fill="none" stroke="rgba(255,0,0,0.75)" stroke-width="14.159999999999995"/></g><g><polyline data-points="-0.05050505050505001,5.000000000000002 -0.05050505050505001,4.898989898989901 -0.15151515151515066,4.7979797979797985 -0.2525252525252522,4.696969696969697 -0.35353535353535287,4.595959595959597 -0.4545454545454544,4.494949494949497 -0.555555555555555,4.393939393939394 -0.6565656565656557,4.292929292929293 -0.7575757575757572,4.191919191919193 -0.8585858585858579,4.090909090909092 -0.9595959595959596,3.989898989898992 -1.0606060606060603,3.8888888888888893 -1.1616161616161613,3.7878787878787885 -1.2626262626262625,3.6868686868686877 -1.363636363636363,3.5858585858585874 -1.4646464646464643,3.4848484848484866 -1.5656565656565653,3.383838383838384 -1.6666666666666665,3.2828282828282833 -1.7676767676767675,3.181818181818183 -1.8686868686868683,3.080808080808082 -1.9696969696969693,2.9797979797979806 -2.07070707070707,2.87878787878788 -2.1717171717171713,2.7777777777777786 -2.2727272727272725,2.676767676767678 -2.3737373737373733,2.575757575757577 -2.474747474747474,2.4747474747474754 -2.5757575757575752,2.373737373737375 -2.6767676767676765,2.2727272727272734 -2.7777777777777777,2.1717171717171726 -2.8787878787878785,2.070707070707072 -2.9797979797979792,1.9696969696969702 -3.0808080808080804,1.8686868686868696 -3.1818181818181817,1.9696969696969702 -3.2828282828282824,1.8686868686868696 -3.383838383838383,1.767676767676768 -3.383838383838383,1.6666666666666674 -3.484848484848485,1.5656565656565666 -3.5858585858585856,1.5656565656565666 -3.6868686868686864,1.5656565656565666 -3.7878787878787876,1.5656565656565666 -3.8888888888888884,1.5656565656565666 -3.98989898989899,1.5656565656565666" data-type="line" data-label="" points="507.2323232323232,40.000000000000114 507.2323232323232,49.53535353535369 497.69696969696975,59.07070707070733 488.16161616161617,68.60606060606085 478.62626262626264,78.14141414141432 469.09090909090907,87.67676767676778 459.55555555555554,97.21212121212153 450.0202020202021,106.747474747475 440.4848484848485,116.28282828282846 430.949494949495,125.81818181818198 421.4141414141414,135.35353535353545 411.8787878787879,144.88888888888908 402.34343434343435,154.4242424242426 392.80808080808083,163.95959595959613 383.2727272727273,173.4949494949496 373.7373737373738,183.03030303030312 364.2020202020202,192.56565656565675 354.6666666666667,202.10101010101027 345.13131313131316,211.63636363636374 335.59595959595964,221.17171717171726 326.0606060606061,230.70707070707084 316.5252525252526,240.24242424242436 306.9898989898991,249.77777777777794 297.4545454545455,259.3131313131314 287.91919191919203,268.84848484848493 278.38383838383845,278.38383838383857 268.84848484848493,287.91919191919203 259.3131313131314,297.4545454545456 249.77777777777783,306.9898989898991 240.2424242424243,316.5252525252526 230.70707070707084,326.06060606060623 221.17171717171726,335.5959595959597 211.63636363636374,326.06060606060623 202.10101010101022,335.5959595959597 192.5656565656567,345.1313131313133 192.5656565656567,354.66666666666674 183.03030303030312,364.2020202020203 173.4949494949496,364.2020202020203 163.95959595959607,364.2020202020203 154.42424242424255,364.2020202020203 144.88888888888903,364.2020202020203 135.35353535353545,364.2020202020203" fill="none" stroke="rgba(0,0,255,0.75)" stroke-width="14.159999999999995"/></g><g><polyline data-points="-3.98989898989899,1.5656565656565666 -3.98989898989899,1.4646464646464652 -3.98989898989899,1.3636363636363644 -3.98989898989899,1.262626262626263 -3.98989898989899,1.1616161616161622 -3.98989898989899,1.0606060606060617 -3.98989898989899,0.9595959595959602 -4.090909090909091,0.8585858585858596 -4.090909090909091,0.7575757575757579 -4.090909090909091,0.6565656565656574 -4.090909090909091,0.5555555555555567 -4.090909090909091,0.4545454545454551 -4.090909090909091,0.3535353535353544 -4.090909090909091,0.2525252525252529 -4.090909090909091,0.1515151515151522 -4.090909090909091,0.050505050505051545 -4.090909090909091,-0.05050505050505001 -4.090909090909091,-0.15151515151515066 -4.090909090909091,-0.2525252525252522 -4.090909090909091,-0.35353535353535287 -4.090909090909091,-0.4545454545454544 -4.090909090909091,-0.555555555555555 -4.090909090909091,-0.6565656565656557 -4.090909090909091,-0.7575757575757572 -4.090909090909091,-0.8585858585858579 -4.090909090909091,-0.9595959595959596 -4.090909090909091,-1.0606060606060603 -4.090909090909091,-1.1616161616161613 -4.090909090909091,-1.2626262626262625 -4.090909090909091,-1.363636363636363 -4.090909090909091,-1.4646464646464643 -4.090909090909091,-1.5656565656565653 -4.090909090909091,-1.6666666666666665 -4.090909090909091,-1.7676767676767675 -4.090909090909091,-1.8686868686868683 -4.090909090909091,-1.9696969696969693 -4.090909090909091,-2.07070707070707 -4.090909090909091,-2.1717171717171713 -4.090909090909091,-2.2727272727272725 -4.090909090909091,-2.3737373737373733 -3.98989898989899,-2.474747474747474" data-type="line" data-label="" points="135.35353535353545,364.2020202020203 135.35353535353545,373.73737373737384 135.35353535353545,383.27272727272737 135.35353535353545,392.80808080808094 135.35353535353545,402.3434343434344 135.35353535353545,411.87878787878793 135.35353535353545,421.4141414141415 125.81818181818193,430.94949494949503 125.81818181818193,440.4848484848486 125.81818181818193,450.0202020202021 125.81818181818193,459.5555555555556 125.81818181818193,469.0909090909092 125.81818181818193,478.6262626262627 125.81818181818193,488.1616161616163 125.81818181818193,497.69696969696975 125.81818181818193,507.23232323232327 125.81818181818193,516.7676767676768 125.81818181818193,526.3030303030304 125.81818181818193,535.838383838384 125.81818181818193,545.3737373737374 125.81818181818193,554.909090909091 125.81818181818193,564.4444444444445 125.81818181818193,573.979797979798 125.81818181818193,583.5151515151516 125.81818181818193,593.0505050505051 125.81818181818193,602.5858585858587 125.81818181818193,612.1212121212121 125.81818181818193,621.6565656565657 125.81818181818193,631.1919191919193 125.81818181818193,640.7272727272727 125.81818181818193,650.2626262626263 125.81818181818193,659.7979797979798 125.81818181818193,669.3333333333334 125.81818181818193,678.8686868686868 125.81818181818193,688.4040404040404 125.81818181818193,697.939393939394 125.81818181818193,707.4747474747475 125.81818181818193,717.010101010101 125.81818181818193,726.5454545454545 125.81818181818193,736.0808080808081 135.35353535353545,745.6161616161615" fill="none" stroke="rgba(255,0,0,0.75)" stroke-width="14.159999999999995"/></g><g><polyline data-points="-3.98989898989899,-2.474747474747474 -4.090909090909091,-2.5757575757575752 -4.191919191919193,-2.6767676767676765 -4.292929292929293,-2.7777777777777777 -4.393939393939394,-2.8787878787878785 -4.494949494949496,-2.9797979797979792 -4.595959595959596,-3.0808080808080804 -4.696969696969697,-3.0808080808080804 -4.7979797979797985,-3.0808080808080804 -4.898989898989899,-3.0808080808080804 -5.000000000000001,-3.1818181818181817" data-type="line" data-label="" points="135.35353535353545,745.6161616161615 125.81818181818193,755.1515151515151 116.28282828282829,764.6868686868687 106.74747474747483,774.2222222222222 97.21212121212136,783.7575757575758 87.67676767676772,793.2929292929292 78.14141414141426,802.8282828282828 68.60606060606068,802.8282828282828 59.07070707070716,802.8282828282828 49.53535353535369,802.8282828282828 40.00000000000006,812.3636363636363" fill="none" stroke="rgba(0,0,255,0.75)" stroke-width="14.159999999999995"/></g><g><rect data-type="rect" data-label="" data-x="0" data-y="0" x="40.000000000000114" y="40.000000000000284" width="943.9999999999997" height="943.9999999999998" fill="none" stroke="gray" stroke-width="0.010593220338983056"/></g><g><rect data-type="rect" data-label="" data-x="0" data-y="0" x="40.000000000000114" y="40.000000000000284" width="943.9999999999997" height="943.9999999999998" fill="none" stroke="rgba(15, 23, 42, 0.8)" stroke-width="0.010593220338983056"/></g><circle data-type="circle" data-label="" data-x="-1.6666666666666665" data-y="-3.98989898989899" cx="354.6666666666667" cy="888.6464646464647" r="28.791999999999987" fill="rgba(0,0,0,0.3)" stroke="black" stroke-width="0.010593220338983056"/><circle data-type="circle" data-label="" data-x="-3.383838383838383" data-y="2.4747474747474754" cx="192.5656565656567" cy="278.38383838383857" r="28.791999999999987" fill="rgba(0,0,0,0.3)" stroke="black" stroke-width="0.010593220338983056"/><circle data-type="circle" data-label="" data-x="-2.8787878787878785" data-y="-3.98989898989899" cx="240.2424242424243" cy="888.6464646464647" r="28.791999999999987" fill="rgba(0,0,0,0.3)" stroke="black" stroke-width="0.010593220338983056"/><circle data-type="circle" data-label="" data-x="-2.2727272727272725" data-y="-3.484848484848485" cx="297.4545454545455" cy="840.969696969697" r="28.791999999999987" fill="rgba(0,0,0,0.3)" stroke="black" stroke-width="0.010593220338983056"/><circle data-type="circle" data-label="" data-x="1.3636363636363644" data-y="-2.7777777777777777" cx="640.7272727272727" cy="774.2222222222222" r="28.791999999999987" fill="rgba(0,0,0,0.3)" stroke="black" stroke-width="0.010593220338983056"/><circle data-type="circle" data-label="" data-x="3.6868686868686877" data-y="-3.484848484848485" cx="860.0404040404039" cy="840.969696969697" r="28.791999999999987" fill="rgba(0,0,0,0.3)" stroke="black" stroke-width="0.010593220338983056"/><circle data-type="circle" data-label="" data-x="-3.98989898989899" data-y="1.5656565656565666" cx="135.35353535353545" cy="364.2020202020203" r="28.791999999999987" fill="rgba(0,0,0,0.3)" stroke="black" stroke-width="0.010593220338983056"/><circle data-type="circle" data-label="" data-x="-3.98989898989899" data-y="-2.474747474747474" cx="135.35353535353545" cy="745.6161616161615" r="28.791999999999987" fill="rgba(0,0,0,0.3)" stroke="black" stroke-width="0.010593220338983056"/><g id="crosshair" style="display: none"><line id="crosshair-h" y1="0" y2="1024" stroke="#666" stroke-width="0.5"/><line id="crosshair-v" x1="0" x2="1024" stroke="#666" stroke-width="0.5"/><text id="coordinates" font-family="monospace" font-size="12" fill="#666"></text></g><script><![CDATA[
              document.currentScript.parentElement.addEventListener('mousemove', (e) => {
                const svg = e.currentTarget;
                const rect = svg.getBoundingClientRect();
                const x = e.clientX - rect.left;
                const y = e.clientY - rect.top;
                const crosshair = svg.getElementById('crosshair');
                const h = svg.getElementById('crosshair-h');
                const v = svg.getElementById('crosshair-v');
                const coords = svg.getElementById('coordinates');
                
                crosshair.style.display = 'block';
                h.setAttribute('x1', '0');
                h.setAttribute('x2', '1024');
                h.setAttribute('y1', y);
                h.setAttribute('y2', y);
                v.setAttribute('x1', x);
                v.setAttribute('x2', x);
                v.setAttribute('y1', '0');
                v.setAttribute('y2', '1024');

                // Calculate real coordinates using inverse transformation
                const matrix = {"a":94.39999999999996,"c":0,"e":511.99999999999994,"b":0,"d":-94.39999999999996,"f":512.0000000000001};
                // Manually invert and apply the affine transform
                // Since we only use translate and scale, we can directly compute:
                // x' = (x - tx) / sx
                // y' = (y - ty) / sy
                const sx = matrix.a;
                const sy = matrix.d;
                const tx = matrix.e; 
                const ty = matrix.f;
                const realPoint = {
                  x: (x - tx) / sx,
                  y: (y - ty) / sy // Flip y back since we used negative scale
                }
                
                coords.textContent = `(${realPoint.x.toFixed(2)}, ${realPoint.y.toFixed(2)})`;
                coords.setAttribute('x', (x + 5).toString());
                coords.setAttribute('y', (y - 5).toString());
              });
              document.currentScript.parentElement.addEventListener('mouseleave', () => {
                document.currentScript.parentElement.getElementById('crosshair').style.display = 'none';
              });
            ]]></script></svg>