<svg width="1024" height="1024" viewBox="0 0 1024 1024" xmlns="http://www.w3.org/2000/svg"><rect width="100%" height="100%" fill="white"/><g><circle data-type="point" data-label="conn_000" data-x="4.74" data-y="5" cx="959.4559999999998" cy="40.000000000000284" r="28.792" fill="blue" stroke="#0fa0bd" stroke-width="28.792"/></g><g><circle data-type="point" data-label="conn_000" data-x="-5" data-y="0.48" cx="40.000000000000114" cy="466.6880000000001" r="28.792" fill="blue" stroke="#0fa0bd" stroke-width="28.792"/></g><g><circle data-type="point" data-label="conn_001" data-x="5" data-y="-3.1" cx="983.9999999999998" cy="804.64" r="28.792" fill="blue" stroke="#bd0f6d" stroke-width="28.792"/></g><g><circle data-type="point" data-label="conn_001" data-x="-5" data-y="-3.46" cx="40.000000000000114" cy="838.624" r="28.792" fill="red" stroke="#bd0f6d" stroke-width="28.792"/></g><g><circle data-type="point" data-label="conn_002" data-x="-5" data-y="1.86" cx="40.000000000000114" cy="336.41600000000017" r="28.792" fill="blue" stroke="#3bbd0f" stroke-width="28.792"/></g><g><circle data-type="point" data-label="conn_002" data-x="1.42" data-y="-5" cx="646.0479999999999" cy="984" r="28.792" fill="blue" stroke="#3bbd0f" stroke-width="28.792"/></g><g><circle data-type="point" data-label="conn_003" data-x="-5" data-y="-1.36" cx="40.000000000000114" cy="640.384" r="28.792" fill="red" stroke="#170fbd" stroke-width="28.792"/></g><g><circle data-type="point" data-label="conn_003" data-x="5" data-y="-0.24" cx="983.9999999999998" cy="534.6560000000001" r="28.792" fill="red" stroke="#170fbd" stroke-width="28.792"/></g><g><circle data-type="point" data-label="conn_004" data-x="1.6600000000000001" data-y="5" cx="668.704" cy="40.000000000000284" r="28.792" fill="red" stroke="#bd490f" stroke-width="28.792"/></g><g><circle data-type="point" data-label="conn_004" data-x="-0.66" data-y="-5" cx="449.69599999999997" cy="984" r="28.792" fill="blue" stroke="#bd490f" stroke-width="28.792"/></g><g><polyline data-points="4.7979797979797985,5.000000000000002 4.696969696969697,4.898989898989901 4.595959595959597,4.7979797979797985 4.494949494949497,4.696969696969697 4.393939393939394,4.595959595959597 4.292929292929293,4.494949494949497 4.191919191919193,4.393939393939394 4.090909090909092,4.292929292929293 3.989898989898992,4.191919191919193 3.8888888888888893,4.090909090909092 3.7878787878787885,3.989898989898992 3.6868686868686877,3.8888888888888893 3.5858585858585874,3.7878787878787885 3.4848484848484866,3.6868686868686877 3.383838383838384,3.5858585858585874 3.2828282828282833,3.4848484848484866 3.181818181818183,3.383838383838384 3.080808080808082,3.2828282828282833 2.9797979797979806,3.181818181818183 2.87878787878788,3.080808080808082 2.7777777777777786,2.9797979797979806 2.676767676767678,2.87878787878788 2.575757575757577,2.7777777777777786 2.4747474747474754,2.676767676767678 2.373737373737375,2.575757575757577 2.2727272727272734,2.4747474747474754 2.1717171717171726,2.373737373737375 2.070707070707072,2.2727272727272734 1.9696969696969702,2.1717171717171726 1.8686868686868696,2.070707070707072 1.767676767676768,1.9696969696969702 1.6666666666666674,1.8686868686868696 1.5656565656565666,1.767676767676768 1.4646464646464652,1.6666666666666674 1.3636363636363644,1.5656565656565666 1.262626262626263,1.4646464646464652 1.1616161616161622,1.3636363636363644 1.0606060606060617,1.262626262626263 0.9595959595959602,1.1616161616161622 0.8585858585858596,1.0606060606060617 0.7575757575757579,0.9595959595959602 0.6565656565656574,0.8585858585858596 0.5555555555555567,0.7575757575757579 0.4545454545454551,0.6565656565656574 0.3535353535353544,0.5555555555555567 0.2525252525252529,0.4545454545454551 0.1515151515151522,0.4545454545454551 0.050505050505051545,0.4545454545454551 -0.05050505050505001,0.4545454545454551 -0.15151515151515066,0.4545454545454551 -0.2525252525252522,0.4545454545454551 -0.35353535353535287,0.4545454545454551 -0.4545454545454544,0.4545454545454551 -0.555555555555555,0.4545454545454551 -0.6565656565656557,0.4545454545454551 -0.7575757575757572,0.4545454545454551 -0.8585858585858579,0.4545454545454551 -0.9595959595959596,0.4545454545454551 -1.0606060606060603,0.4545454545454551 -1.1616161616161613,0.4545454545454551 -1.2626262626262625,0.4545454545454551 -1.363636363636363,0.4545454545454551 -1.4646464646464643,0.4545454545454551 -1.5656565656565653,0.4545454545454551 -1.6666666666666665,0.4545454545454551 -1.7676767676767675,0.4545454545454551 -1.8686868686868683,0.4545454545454551 -1.9696969696969693,0.4545454545454551 -2.07070707070707,0.4545454545454551 -2.1717171717171713,0.4545454545454551 -2.2727272727272725,0.4545454545454551 -2.3737373737373733,0.4545454545454551 -2.474747474747474,0.4545454545454551 -2.5757575757575752,0.4545454545454551 -2.6767676767676765,0.4545454545454551 -2.7777777777777777,0.4545454545454551 -2.8787878787878785,0.4545454545454551 -2.9797979797979792,0.4545454545454551 -3.0808080808080804,0.4545454545454551 -3.1818181818181817,0.4545454545454551 -3.2828282828282824,0.4545454545454551 -3.383838383838383,0.4545454545454551 -3.484848484848485,0.4545454545454551 -3.5858585858585856,0.4545454545454551 -3.6868686868686864,0.4545454545454551 -3.7878787878787876,0.4545454545454551 -3.8888888888888884,0.4545454545454551 -3.98989898989899,0.4545454545454551 -4.090909090909091,0.4545454545454551 -4.191919191919193,0.4545454545454551 -4.292929292929293,0.4545454545454551 -4.393939393939394,0.4545454545454551 -4.494949494949496,0.4545454545454551 -4.595959595959596,0.4545454545454551 -4.696969696969697,0.4545454545454551 -4.7979797979797985,0.4545454545454551 -4.898989898989899,0.4545454545454551 -5.000000000000001,0.4545454545454551" data-type="line" data-label="" points="964.9292929292927,40.000000000000114 955.3939393939393,49.53535353535369 945.8585858585857,59.07070707070733 936.3232323232323,68.60606060606085 926.7878787878785,78.14141414141432 917.2525252525251,87.67676767676778 907.7171717171716,97.21212121212153 898.181818181818,106.747474747475 888.6464646464647,116.28282828282846 879.111111111111,125.81818181818198 869.5757575757575,135.35353535353545 860.0404040404039,144.88888888888908 850.5050505050505,154.4242424242426 840.969696969697,163.95959595959613 831.4343434343433,173.4949494949496 821.8989898989898,183.03030303030312 812.3636363636363,192.56565656565675 802.8282828282828,202.10101010101027 793.2929292929292,211.63636363636374 783.7575757575758,221.17171717171726 774.2222222222222,230.70707070707084 764.6868686868686,240.24242424242436 755.1515151515151,249.77777777777794 745.6161616161615,259.3131313131314 736.0808080808081,268.84848484848493 726.5454545454545,278.38383838383857 717.0101010101009,287.91919191919203 707.4747474747475,297.4545454545456 697.9393939393939,306.9898989898991 688.4040404040404,316.5252525252526 678.8686868686868,326.06060606060623 669.3333333333333,335.5959595959597 659.7979797979798,345.1313131313133 650.2626262626262,354.66666666666674 640.7272727272727,364.2020202020203 631.1919191919192,373.73737373737384 621.6565656565656,383.27272727272737 612.1212121212121,392.80808080808094 602.5858585858585,402.3434343434344 593.0505050505051,411.87878787878793 583.5151515151515,421.4141414141415 573.9797979797979,430.94949494949503 564.4444444444445,440.4848484848486 554.9090909090909,450.0202020202021 545.3737373737374,459.5555555555556 535.8383838383838,469.0909090909092 526.3030303030303,469.0909090909092 516.7676767676768,469.0909090909092 507.2323232323232,469.0909090909092 497.69696969696975,469.0909090909092 488.16161616161617,469.0909090909092 478.62626262626264,469.0909090909092 469.09090909090907,469.0909090909092 459.55555555555554,469.0909090909092 450.0202020202021,469.0909090909092 440.4848484848485,469.0909090909092 430.949494949495,469.0909090909092 421.4141414141414,469.0909090909092 411.8787878787879,469.0909090909092 402.34343434343435,469.0909090909092 392.80808080808083,469.0909090909092 383.2727272727273,469.0909090909092 373.7373737373738,469.0909090909092 364.2020202020202,469.0909090909092 354.6666666666667,469.0909090909092 345.13131313131316,469.0909090909092 335.59595959595964,469.0909090909092 326.0606060606061,469.0909090909092 316.5252525252526,469.0909090909092 306.9898989898991,469.0909090909092 297.4545454545455,469.0909090909092 287.91919191919203,469.0909090909092 278.38383838383845,469.0909090909092 268.84848484848493,469.0909090909092 259.3131313131314,469.0909090909092 249.77777777777783,469.0909090909092 240.2424242424243,469.0909090909092 230.70707070707084,469.0909090909092 221.17171717171726,469.0909090909092 211.63636363636374,469.0909090909092 202.10101010101022,469.0909090909092 192.5656565656567,469.0909090909092 183.03030303030312,469.0909090909092 173.4949494949496,469.0909090909092 163.95959595959607,469.0909090909092 154.42424242424255,469.0909090909092 144.88888888888903,469.0909090909092 135.35353535353545,469.0909090909092 125.81818181818193,469.0909090909092 116.28282828282829,469.0909090909092 106.74747474747483,469.0909090909092 97.21212121212136,469.0909090909092 87.67676767676772,469.0909090909092 78.14141414141426,469.0909090909092 68.60606060606068,469.0909090909092 59.07070707070716,469.0909090909092 49.53535353535369,469.0909090909092 40.00000000000006,469.0909090909092" fill="none" stroke="rgba(0,0,255,0.75)" stroke-width="14.159999999999995"/></g><g><polyline data-points="1.6666666666666674,5.000000000000002 1.5656565656565666,4.898989898989901 1.4646464646464652,4.7979797979797985 1.3636363636363644,4.696969696969697 1.262626262626263,4.595959595959597 1.1616161616161622,4.494949494949497 1.0606060606060617,4.393939393939394 0.9595959595959602,4.292929292929293 0.8585858585858596,4.191919191919193 0.7575757575757579,4.090909090909092 0.6565656565656574,3.989898989898992 0.5555555555555567,3.8888888888888893 0.4545454545454551,3.7878787878787885 0.3535353535353544,3.6868686868686877 0.2525252525252529,3.5858585858585874 0.1515151515151522,3.4848484848484866 0.050505050505051545,3.383838383838384 -0.05050505050505001,3.2828282828282833 -0.15151515151515066,3.181818181818183 -0.2525252525252522,3.080808080808082 -0.35353535353535287,2.9797979797979806 -0.4545454545454544,2.87878787878788 -0.555555555555555,2.7777777777777786 -0.6565656565656557,2.676767676767678 -0.6565656565656557,2.575757575757577 -0.6565656565656557,2.4747474747474754 -0.6565656565656557,2.373737373737375 -0.6565656565656557,2.2727272727272734 -0.6565656565656557,2.1717171717171726 -0.6565656565656557,2.070707070707072 -0.6565656565656557,1.9696969696969702 -0.6565656565656557,1.8686868686868696 -0.6565656565656557,1.767676767676768 -0.6565656565656557,1.6666666666666674 -0.6565656565656557,1.5656565656565666 -0.6565656565656557,1.4646464646464652 -0.6565656565656557,1.3636363636363644 -0.6565656565656557,1.262626262626263 -0.6565656565656557,1.1616161616161622 -0.6565656565656557,1.0606060606060617 -0.6565656565656557,0.9595959595959602 -0.6565656565656557,0.8585858585858596 -0.6565656565656557,0.7575757575757579 -0.6565656565656557,0.6565656565656574 -0.6565656565656557,0.5555555555555567 -0.6565656565656557,0.4545454545454551 -0.7575757575757572,0.3535353535353544 -0.8585858585858579,0.2525252525252529 -0.9595959595959596,0.1515151515151522 -1.0606060606060603,0.050505050505051545 -1.1616161616161613,-0.05050505050505001 -1.2626262626262625,-0.15151515151515066" data-type="line" data-label="" points="669.3333333333333,40.000000000000114 659.7979797979798,49.53535353535369 650.2626262626262,59.07070707070733 640.7272727272727,68.60606060606085 631.1919191919192,78.14141414141432 621.6565656565656,87.67676767676778 612.1212121212121,97.21212121212153 602.5858585858585,106.747474747475 593.0505050505051,116.28282828282846 583.5151515151515,125.81818181818198 573.9797979797979,135.35353535353545 564.4444444444445,144.88888888888908 554.9090909090909,154.4242424242426 545.3737373737374,163.95959595959613 535.8383838383838,173.4949494949496 526.3030303030303,183.03030303030312 516.7676767676768,192.56565656565675 507.2323232323232,202.10101010101027 497.69696969696975,211.63636363636374 488.16161616161617,221.17171717171726 478.62626262626264,230.70707070707084 469.09090909090907,240.24242424242436 459.55555555555554,249.77777777777794 450.0202020202021,259.3131313131314 450.0202020202021,268.84848484848493 450.0202020202021,278.38383838383857 450.0202020202021,287.91919191919203 450.0202020202021,297.4545454545456 450.0202020202021,306.9898989898991 450.0202020202021,316.5252525252526 450.0202020202021,326.06060606060623 450.0202020202021,335.5959595959597 450.0202020202021,345.1313131313133 450.0202020202021,354.66666666666674 450.0202020202021,364.2020202020203 450.0202020202021,373.73737373737384 450.0202020202021,383.27272727272737 450.0202020202021,392.80808080808094 450.0202020202021,402.3434343434344 450.0202020202021,411.87878787878793 450.0202020202021,421.4141414141415 450.0202020202021,430.94949494949503 450.0202020202021,440.4848484848486 450.0202020202021,450.0202020202021 450.0202020202021,459.5555555555556 450.0202020202021,469.0909090909092 440.4848484848485,478.6262626262627 430.949494949495,488.1616161616163 421.4141414141414,497.69696969696975 411.8787878787879,507.23232323232327 402.34343434343435,516.7676767676768 392.80808080808083,526.3030303030304" fill="none" stroke="rgba(255,0,0,0.75)" stroke-width="14.159999999999995"/></g><g><polyline data-points="-1.2626262626262625,-0.15151515151515066 -1.363636363636363,-0.2525252525252522 -1.4646464646464643,-0.35353535353535287 -1.5656565656565653,-0.4545454545454544 -1.6666666666666665,-0.555555555555555 -1.7676767676767675,-0.6565656565656557 -1.8686868686868683,-0.7575757575757572 -1.9696969696969693,-0.8585858585858579 -2.07070707070707,-0.9595959595959596 -2.1717171717171713,-1.0606060606060603 -2.2727272727272725,-1.1616161616161613 -2.3737373737373733,-1.2626262626262625 -2.474747474747474,-1.363636363636363 -2.5757575757575752,-1.4646464646464643 -2.6767676767676765,-1.5656565656565653 -2.7777777777777777,-1.6666666666666665 -2.8787878787878785,-1.7676767676767675 -2.9797979797979792,-1.8686868686868683 -3.0808080808080804,-1.9696969696969693 -3.1818181818181817,-2.07070707070707 -3.2828282828282824,-2.1717171717171713 -3.383838383838383,-2.2727272727272725 -3.484848484848485,-2.3737373737373733 -3.5858585858585856,-2.474747474747474 -3.6868686868686864,-2.5757575757575752 -3.7878787878787876,-2.6767676767676765 -3.8888888888888884,-2.7777777777777777 -3.98989898989899,-2.8787878787878785 -4.090909090909091,-2.9797979797979792 -4.191919191919193,-3.0808080808080804 -4.292929292929293,-3.1818181818181817 -4.393939393939394,-3.2828282828282824 -4.393939393939394,-3.383838383838383 -4.494949494949496,-3.484848484848485 -4.393939393939394,-3.5858585858585856 -4.393939393939394,-3.6868686868686864 -4.292929292929293,-3.7878787878787876 -4.191919191919193,-3.8888888888888884 -4.090909090909091,-3.98989898989899 -3.98989898989899,-4.090909090909091 -3.8888888888888884,-4.191919191919193 -3.7878787878787876,-4.292929292929293 -3.6868686868686864,-4.393939393939394 -3.5858585858585856,-4.494949494949496 -3.484848484848485,-4.595959595959596 -3.383838383838383,-4.696969696969697 -3.2828282828282824,-4.7979797979797985 -3.1818181818181817,-4.898989898989899 -3.0808080808080804,-5.000000000000001 -2.9797979797979792,-5.000000000000001 -2.8787878787878785,-5.000000000000001 -2.7777777777777777,-5.000000000000001 -2.6767676767676765,-5.000000000000001 -2.5757575757575752,-5.000000000000001 -2.474747474747474,-5.000000000000001 -2.3737373737373733,-5.000000000000001 -2.2727272727272725,-5.000000000000001 -2.1717171717171713,-5.000000000000001 -2.07070707070707,-5.000000000000001 -1.9696969696969693,-5.000000000000001 -1.8686868686868683,-5.000000000000001 -1.7676767676767675,-5.000000000000001 -1.6666666666666665,-5.000000000000001 -1.5656565656565653,-5.000000000000001 -1.4646464646464643,-5.000000000000001 -1.363636363636363,-5.000000000000001 -1.2626262626262625,-5.000000000000001 -1.1616161616161613,-5.000000000000001 -1.0606060606060603,-5.000000000000001 -0.9595959595959596,-5.000000000000001 -0.8585858585858579,-5.000000000000001 -0.7575757575757572,-5.000000000000001 -0.6565656565656557,-5.000000000000001" data-type="line" data-label="" points="392.80808080808083,526.3030303030304 383.2727272727273,535.838383838384 373.7373737373738,545.3737373737374 364.2020202020202,554.909090909091 354.6666666666667,564.4444444444445 345.13131313131316,573.979797979798 335.59595959595964,583.5151515151516 326.0606060606061,593.0505050505051 316.5252525252526,602.5858585858587 306.9898989898991,612.1212121212121 297.4545454545455,621.6565656565657 287.91919191919203,631.1919191919193 278.38383838383845,640.7272727272727 268.84848484848493,650.2626262626263 259.3131313131314,659.7979797979798 249.77777777777783,669.3333333333334 240.2424242424243,678.8686868686868 230.70707070707084,688.4040404040404 221.17171717171726,697.939393939394 211.63636363636374,707.4747474747475 202.10101010101022,717.010101010101 192.5656565656567,726.5454545454545 183.03030303030312,736.0808080808081 173.4949494949496,745.6161616161615 163.95959595959607,755.1515151515151 154.42424242424255,764.6868686868687 144.88888888888903,774.2222222222222 135.35353535353545,783.7575757575758 125.81818181818193,793.2929292929292 116.28282828282829,802.8282828282828 106.74747474747483,812.3636363636363 97.21212121212136,821.8989898989898 97.21212121212136,831.4343434343434 87.67676767676772,840.969696969697 97.21212121212136,850.5050505050505 97.21212121212136,860.0404040404039 106.74747474747483,869.5757575757575 116.28282828282829,879.1111111111111 125.81818181818193,888.6464646464647 135.35353535353545,898.1818181818181 144.88888888888903,907.7171717171718 154.42424242424255,917.2525252525252 163.95959595959607,926.7878787878788 173.4949494949496,936.3232323232323 183.03030303030312,945.8585858585858 192.5656565656567,955.3939393939394 202.10101010101022,964.9292929292928 211.63636363636374,974.4646464646464 221.17171717171726,984 230.70707070707084,984 240.2424242424243,984 249.77777777777783,984 259.3131313131314,984 268.84848484848493,984 278.38383838383845,984 287.91919191919203,984 297.4545454545455,984 306.9898989898991,984 316.5252525252526,984 326.0606060606061,984 335.59595959595964,984 345.13131313131316,984 354.6666666666667,984 364.2020202020202,984 373.7373737373738,984 383.2727272727273,984 392.80808080808083,984 402.34343434343435,984 411.8787878787879,984 421.4141414141414,984 430.949494949495,984 440.4848484848485,984 450.0202020202021,984" fill="none" stroke="rgba(0,0,255,0.75)" stroke-width="14.159999999999995"/></g><g><polyline data-points="-5.000000000000001,-1.363636363636363 -4.898989898989899,-1.2626262626262625 -4.7979797979797985,-1.1616161616161613 -4.696969696969697,-1.0606060606060603 -4.595959595959596,-0.9595959595959596 -4.494949494949496,-0.8585858585858579 -4.393939393939394,-0.7575757575757572 -4.292929292929293,-0.6565656565656557 -4.191919191919193,-0.6565656565656557 -4.090909090909091,-0.6565656565656557 -3.98989898989899,-0.6565656565656557 -3.8888888888888884,-0.6565656565656557 -3.7878787878787876,-0.6565656565656557 -3.6868686868686864,-0.6565656565656557 -3.5858585858585856,-0.6565656565656557 -3.484848484848485,-0.6565656565656557 -3.383838383838383,-0.6565656565656557 -3.2828282828282824,-0.6565656565656557 -3.1818181818181817,-0.6565656565656557 -3.0808080808080804,-0.6565656565656557 -2.9797979797979792,-0.6565656565656557 -2.8787878787878785,-0.6565656565656557 -2.7777777777777777,-0.6565656565656557 -2.6767676767676765,-0.6565656565656557 -2.5757575757575752,-0.6565656565656557 -2.474747474747474,-0.6565656565656557 -2.3737373737373733,-0.6565656565656557 -2.2727272727272725,-0.6565656565656557 -2.1717171717171713,-0.6565656565656557 -2.07070707070707,-0.6565656565656557 -1.9696969696969693,-0.6565656565656557 -1.8686868686868683,-0.6565656565656557 -1.7676767676767675,-0.6565656565656557 -1.6666666666666665,-0.6565656565656557 -1.5656565656565653,-0.6565656565656557 -1.4646464646464643,-0.6565656565656557 -1.363636363636363,-0.6565656565656557 -1.2626262626262625,-0.6565656565656557 -1.1616161616161613,-0.555555555555555 -1.0606060606060603,-0.555555555555555 -0.9595959595959596,-0.4545454545454544 -0.8585858585858579,-0.35353535353535287 -0.7575757575757572,-0.2525252525252522 -0.6565656565656557,-0.2525252525252522 -0.555555555555555,-0.2525252525252522 -0.4545454545454544,-0.2525252525252522 -0.35353535353535287,-0.2525252525252522 -0.2525252525252522,-0.2525252525252522 -0.15151515151515066,-0.2525252525252522 -0.05050505050505001,-0.2525252525252522 0.050505050505051545,-0.2525252525252522 0.1515151515151522,-0.2525252525252522 0.2525252525252529,-0.2525252525252522 0.3535353535353544,-0.2525252525252522 0.4545454545454551,-0.2525252525252522 0.5555555555555567,-0.2525252525252522 0.6565656565656574,-0.2525252525252522 0.7575757575757579,-0.2525252525252522 0.8585858585858596,-0.2525252525252522 0.9595959595959602,-0.2525252525252522 1.0606060606060617,-0.2525252525252522 1.1616161616161622,-0.2525252525252522 1.262626262626263,-0.2525252525252522 1.3636363636363644,-0.2525252525252522 1.4646464646464652,-0.2525252525252522 1.5656565656565666,-0.2525252525252522 1.6666666666666674,-0.2525252525252522 1.767676767676768,-0.2525252525252522 1.8686868686868696,-0.2525252525252522 1.9696969696969702,-0.2525252525252522 2.070707070707072,-0.2525252525252522 2.1717171717171726,-0.2525252525252522 2.2727272727272734,-0.2525252525252522 2.373737373737375,-0.2525252525252522 2.4747474747474754,-0.2525252525252522 2.575757575757577,-0.2525252525252522 2.676767676767678,-0.2525252525252522 2.7777777777777786,-0.2525252525252522 2.87878787878788,-0.2525252525252522 2.9797979797979806,-0.2525252525252522 3.080808080808082,-0.2525252525252522 3.181818181818183,-0.2525252525252522 3.2828282828282833,-0.2525252525252522 3.383838383838384,-0.2525252525252522 3.4848484848484866,-0.2525252525252522 3.5858585858585874,-0.2525252525252522 3.6868686868686877,-0.2525252525252522 3.7878787878787885,-0.2525252525252522 3.8888888888888893,-0.2525252525252522 3.989898989898992,-0.2525252525252522 4.090909090909092,-0.2525252525252522 4.191919191919193,-0.2525252525252522 4.292929292929293,-0.2525252525252522 4.393939393939394,-0.2525252525252522 4.494949494949497,-0.2525252525252522 4.595959595959597,-0.2525252525252522 4.696969696969697,-0.2525252525252522 4.7979797979797985,-0.2525252525252522 4.898989898989901,-0.2525252525252522 5.000000000000002,-0.2525252525252522" data-type="line" data-label="" points="40.00000000000006,640.7272727272727 49.53535353535369,631.1919191919193 59.07070707070716,621.6565656565657 68.60606060606068,612.1212121212121 78.14141414141426,602.5858585858587 87.67676767676772,593.0505050505051 97.21212121212136,583.5151515151516 106.74747474747483,573.979797979798 116.28282828282829,573.979797979798 125.81818181818193,573.979797979798 135.35353535353545,573.979797979798 144.88888888888903,573.979797979798 154.42424242424255,573.979797979798 163.95959595959607,573.979797979798 173.4949494949496,573.979797979798 183.03030303030312,573.979797979798 192.5656565656567,573.979797979798 202.10101010101022,573.979797979798 211.63636363636374,573.979797979798 221.17171717171726,573.979797979798 230.70707070707084,573.979797979798 240.2424242424243,573.979797979798 249.77777777777783,573.979797979798 259.3131313131314,573.979797979798 268.84848484848493,573.979797979798 278.38383838383845,573.979797979798 287.91919191919203,573.979797979798 297.4545454545455,573.979797979798 306.9898989898991,573.979797979798 316.5252525252526,573.979797979798 326.0606060606061,573.979797979798 335.59595959595964,573.979797979798 345.13131313131316,573.979797979798 354.6666666666667,573.979797979798 364.2020202020202,573.979797979798 373.7373737373738,573.979797979798 383.2727272727273,573.979797979798 392.80808080808083,573.979797979798 402.34343434343435,564.4444444444445 411.8787878787879,564.4444444444445 421.4141414141414,554.909090909091 430.949494949495,545.3737373737374 440.4848484848485,535.838383838384 450.0202020202021,535.838383838384 459.55555555555554,535.838383838384 469.09090909090907,535.838383838384 478.62626262626264,535.838383838384 488.16161616161617,535.838383838384 497.69696969696975,535.838383838384 507.2323232323232,535.838383838384 516.7676767676768,535.838383838384 526.3030303030303,535.838383838384 535.8383838383838,535.838383838384 545.3737373737374,535.838383838384 554.9090909090909,535.838383838384 564.4444444444445,535.838383838384 573.9797979797979,535.838383838384 583.5151515151515,535.838383838384 593.0505050505051,535.838383838384 602.5858585858585,535.838383838384 612.1212121212121,535.838383838384 621.6565656565656,535.838383838384 631.1919191919192,535.838383838384 640.7272727272727,535.838383838384 650.2626262626262,535.838383838384 659.7979797979798,535.838383838384 669.3333333333333,535.838383838384 678.8686868686868,535.838383838384 688.4040404040404,535.838383838384 697.9393939393939,535.838383838384 707.4747474747475,535.838383838384 717.0101010101009,535.838383838384 726.5454545454545,535.838383838384 736.0808080808081,535.838383838384 745.6161616161615,535.838383838384 755.1515151515151,535.838383838384 764.6868686868686,535.838383838384 774.2222222222222,535.838383838384 783.7575757575758,535.838383838384 793.2929292929292,535.838383838384 802.8282828282828,535.838383838384 812.3636363636363,535.838383838384 821.8989898989898,535.838383838384 831.4343434343433,535.838383838384 840.969696969697,535.838383838384 850.5050505050505,535.838383838384 860.0404040404039,535.838383838384 869.5757575757575,535.838383838384 879.111111111111,535.838383838384 888.6464646464647,535.838383838384 898.181818181818,535.838383838384 907.7171717171716,535.838383838384 917.2525252525251,535.838383838384 926.7878787878785,535.838383838384 936.3232323232323,535.838383838384 945.8585858585857,535.838383838384 955.3939393939393,535.838383838384 964.9292929292927,535.838383838384 974.4646464646464,535.838383838384 984,535.838383838384" fill="none" stroke="rgba(255,0,0,0.75)" stroke-width="14.159999999999995"/></g><g><polyline data-points="-5.000000000000001,1.8686868686868696 -4.898989898989899,1.767676767676768 -4.7979797979797985,1.6666666666666674 -4.696969696969697,1.5656565656565666 -4.595959595959596,1.4646464646464652 -4.494949494949496,1.3636363636363644 -4.393939393939394,1.262626262626263 -4.292929292929293,1.1616161616161622 -4.191919191919193,1.0606060606060617 -4.090909090909091,1.0606060606060617 -3.98989898989899,1.0606060606060617 -3.8888888888888884,1.0606060606060617 -3.7878787878787876,1.0606060606060617 -3.6868686868686864,1.0606060606060617 -3.5858585858585856,1.0606060606060617 -3.484848484848485,1.0606060606060617 -3.383838383838383,1.0606060606060617 -3.2828282828282824,1.0606060606060617 -3.1818181818181817,1.0606060606060617 -3.0808080808080804,1.0606060606060617 -2.9797979797979792,1.0606060606060617 -2.8787878787878785,1.0606060606060617 -2.7777777777777777,1.0606060606060617 -2.6767676767676765,1.0606060606060617 -2.5757575757575752,1.0606060606060617 -2.474747474747474,1.0606060606060617 -2.3737373737373733,1.0606060606060617 -2.2727272727272725,1.0606060606060617 -2.1717171717171713,1.0606060606060617 -2.07070707070707,1.0606060606060617 -1.9696969696969693,1.0606060606060617 -1.8686868686868683,1.0606060606060617 -1.7676767676767675,1.0606060606060617 -1.6666666666666665,1.0606060606060617 -1.5656565656565653,1.0606060606060617 -1.4646464646464643,1.0606060606060617 -1.363636363636363,1.0606060606060617 -1.2626262626262625,1.0606060606060617 -1.1616161616161613,1.0606060606060617 -1.0606060606060603,1.0606060606060617 -0.9595959595959596,1.0606060606060617 -0.8585858585858579,1.0606060606060617 -0.7575757575757572,1.0606060606060617 -0.6565656565656557,1.0606060606060617 -0.555555555555555,1.0606060606060617 -0.4545454545454544,1.0606060606060617 -0.35353535353535287,1.0606060606060617 -0.2525252525252522,1.0606060606060617 -0.15151515151515066,1.0606060606060617 -0.05050505050505001,1.0606060606060617" data-type="line" data-label="" points="40.00000000000006,335.5959595959597 49.53535353535369,345.1313131313133 59.07070707070716,354.66666666666674 68.60606060606068,364.2020202020203 78.14141414141426,373.73737373737384 87.67676767676772,383.27272727272737 97.21212121212136,392.80808080808094 106.74747474747483,402.3434343434344 116.28282828282829,411.87878787878793 125.81818181818193,411.87878787878793 135.35353535353545,411.87878787878793 144.88888888888903,411.87878787878793 154.42424242424255,411.87878787878793 163.95959595959607,411.87878787878793 173.4949494949496,411.87878787878793 183.03030303030312,411.87878787878793 192.5656565656567,411.87878787878793 202.10101010101022,411.87878787878793 211.63636363636374,411.87878787878793 221.17171717171726,411.87878787878793 230.70707070707084,411.87878787878793 240.2424242424243,411.87878787878793 249.77777777777783,411.87878787878793 259.3131313131314,411.87878787878793 268.84848484848493,411.87878787878793 278.38383838383845,411.87878787878793 287.91919191919203,411.87878787878793 297.4545454545455,411.87878787878793 306.9898989898991,411.87878787878793 316.5252525252526,411.87878787878793 326.0606060606061,411.87878787878793 335.59595959595964,411.87878787878793 345.13131313131316,411.87878787878793 354.6666666666667,411.87878787878793 364.2020202020202,411.87878787878793 373.7373737373738,411.87878787878793 383.2727272727273,411.87878787878793 392.80808080808083,411.87878787878793 402.34343434343435,411.87878787878793 411.8787878787879,411.87878787878793 421.4141414141414,411.87878787878793 430.949494949495,411.87878787878793 440.4848484848485,411.87878787878793 450.0202020202021,411.87878787878793 459.55555555555554,411.87878787878793 469.09090909090907,411.87878787878793 478.62626262626264,411.87878787878793 488.16161616161617,411.87878787878793 497.69696969696975,411.87878787878793 507.2323232323232,411.87878787878793" fill="none" stroke="rgba(0,0,255,0.75)" stroke-width="14.159999999999995"/></g><g><polyline data-points="-0.05050505050505001,1.0606060606060617 0.050505050505051545,0.9595959595959602 0.1515151515151522,0.8585858585858596 0.2525252525252529,0.7575757575757579 0.3535353535353544,0.6565656565656574 0.4545454545454551,0.5555555555555567 0.5555555555555567,0.4545454545454551 0.6565656565656574,0.3535353535353544 0.7575757575757579,0.3535353535353544 0.8585858585858596,0.3535353535353544 0.9595959595959602,0.3535353535353544" data-type="line" data-label="" points="507.2323232323232,411.87878787878793 516.7676767676768,421.4141414141415 526.3030303030303,430.94949494949503 535.8383838383838,440.4848484848486 545.3737373737374,450.0202020202021 554.9090909090909,459.5555555555556 564.4444444444445,469.0909090909092 573.9797979797979,478.6262626262627 583.5151515151515,478.6262626262627 593.0505050505051,478.6262626262627 602.5858585858585,478.6262626262627" fill="none" stroke="rgba(255,0,0,0.75)" stroke-width="14.159999999999995"/></g><g><polyline data-points="0.9595959595959602,0.3535353535353544 1.0606060606060617,0.2525252525252529 1.1616161616161622,0.1515151515151522 1.262626262626263,0.050505050505051545 1.3636363636363644,-0.05050505050505001 1.4646464646464652,-0.15151515151515066 1.4646464646464652,-0.2525252525252522 1.4646464646464652,-0.35353535353535287 1.4646464646464652,-0.4545454545454544 1.4646464646464652,-0.555555555555555 1.4646464646464652,-0.6565656565656557 1.4646464646464652,-0.7575757575757572 1.4646464646464652,-0.8585858585858579 1.4646464646464652,-0.9595959595959596 1.4646464646464652,-1.0606060606060603 1.4646464646464652,-1.1616161616161613 1.4646464646464652,-1.2626262626262625 1.4646464646464652,-1.363636363636363 1.4646464646464652,-1.4646464646464643 1.4646464646464652,-1.5656565656565653 1.4646464646464652,-1.6666666666666665 1.4646464646464652,-1.7676767676767675 1.4646464646464652,-1.8686868686868683 1.4646464646464652,-1.9696969696969693 1.4646464646464652,-2.07070707070707 1.4646464646464652,-2.1717171717171713 1.4646464646464652,-2.2727272727272725 1.4646464646464652,-2.3737373737373733 1.4646464646464652,-2.474747474747474 1.4646464646464652,-2.5757575757575752 1.4646464646464652,-2.6767676767676765 1.4646464646464652,-2.7777777777777777 1.4646464646464652,-2.8787878787878785" data-type="line" data-label="" points="602.5858585858585,478.6262626262627 612.1212121212121,488.1616161616163 621.6565656565656,497.69696969696975 631.1919191919192,507.23232323232327 640.7272727272727,516.7676767676768 650.2626262626262,526.3030303030304 650.2626262626262,535.838383838384 650.2626262626262,545.3737373737374 650.2626262626262,554.909090909091 650.2626262626262,564.4444444444445 650.2626262626262,573.979797979798 650.2626262626262,583.5151515151516 650.2626262626262,593.0505050505051 650.2626262626262,602.5858585858587 650.2626262626262,612.1212121212121 650.2626262626262,621.6565656565657 650.2626262626262,631.1919191919193 650.2626262626262,640.7272727272727 650.2626262626262,650.2626262626263 650.2626262626262,659.7979797979798 650.2626262626262,669.3333333333334 650.2626262626262,678.8686868686868 650.2626262626262,688.4040404040404 650.2626262626262,697.939393939394 650.2626262626262,707.4747474747475 650.2626262626262,717.010101010101 650.2626262626262,726.5454545454545 650.2626262626262,736.0808080808081 650.2626262626262,745.6161616161615 650.2626262626262,755.1515151515151 650.2626262626262,764.6868686868687 650.2626262626262,774.2222222222222 650.2626262626262,783.7575757575758" fill="none" stroke="rgba(0,0,255,0.75)" stroke-width="14.159999999999995"/></g><g><polyline data-points="1.4646464646464652,-2.8787878787878785 1.4646464646464652,-2.9797979797979792 1.4646464646464652,-3.0808080808080804 1.4646464646464652,-3.1818181818181817 1.4646464646464652,-3.2828282828282824 1.4646464646464652,-3.383838383838383 1.4646464646464652,-3.484848484848485 1.4646464646464652,-3.5858585858585856 1.4646464646464652,-3.6868686868686864 1.4646464646464652,-3.7878787878787876 1.4646464646464652,-3.8888888888888884 1.4646464646464652,-3.98989898989899" data-type="line" data-label="" points="650.2626262626262,783.7575757575758 650.2626262626262,793.2929292929292 650.2626262626262,802.8282828282828 650.2626262626262,812.3636363636363 650.2626262626262,821.8989898989898 650.2626262626262,831.4343434343434 650.2626262626262,840.969696969697 650.2626262626262,850.5050505050505 650.2626262626262,860.0404040404039 650.2626262626262,869.5757575757575 650.2626262626262,879.1111111111111 650.2626262626262,888.6464646464647" fill="none" stroke="rgba(255,0,0,0.75)" stroke-width="14.159999999999995"/></g><g><polyline data-points="1.4646464646464652,-3.98989898989899 1.4646464646464652,-4.090909090909091 1.4646464646464652,-4.191919191919193 1.4646464646464652,-4.292929292929293 1.4646464646464652,-4.393939393939394 1.4646464646464652,-4.494949494949496 1.4646464646464652,-4.595959595959596 1.4646464646464652,-4.696969696969697 1.4646464646464652,-4.7979797979797985 1.4646464646464652,-4.898989898989899 1.4646464646464652,-5.000000000000001" data-type="line" data-label="" points="650.2626262626262,888.6464646464647 650.2626262626262,898.1818181818181 650.2626262626262,907.7171717171718 650.2626262626262,917.2525252525252 650.2626262626262,926.7878787878788 650.2626262626262,936.3232323232323 650.2626262626262,945.8585858585858 650.2626262626262,955.3939393939394 650.2626262626262,964.9292929292928 650.2626262626262,974.4646464646464 650.2626262626262,984" fill="none" stroke="rgba(0,0,255,0.75)" stroke-width="14.159999999999995"/></g><g><polyline data-points="5.000000000000002,-3.1818181818181817 4.898989898989901,-3.1818181818181817 4.7979797979797985,-3.2828282828282824 4.696969696969697,-3.383838383838383 4.595959595959597,-3.383838383838383 4.494949494949497,-3.383838383838383 4.393939393939394,-3.383838383838383 4.292929292929293,-3.383838383838383 4.191919191919193,-3.383838383838383 4.090909090909092,-3.383838383838383 3.989898989898992,-3.383838383838383 3.8888888888888893,-3.383838383838383 3.7878787878787885,-3.383838383838383 3.6868686868686877,-3.383838383838383 3.5858585858585874,-3.383838383838383 3.4848484848484866,-3.383838383838383 3.383838383838384,-3.383838383838383 3.2828282828282833,-3.383838383838383 3.181818181818183,-3.383838383838383 3.080808080808082,-3.383838383838383 2.9797979797979806,-3.383838383838383 2.87878787878788,-3.383838383838383 2.7777777777777786,-3.383838383838383 2.676767676767678,-3.383838383838383 2.575757575757577,-3.383838383838383 2.4747474747474754,-3.383838383838383 2.373737373737375,-3.383838383838383 2.2727272727272734,-3.383838383838383 2.1717171717171726,-3.383838383838383 2.070707070707072,-3.383838383838383 1.9696969696969702,-3.383838383838383 1.8686868686868696,-3.383838383838383 1.767676767676768,-3.383838383838383 1.6666666666666674,-3.383838383838383 1.5656565656565666,-3.383838383838383 1.4646464646464652,-3.383838383838383 1.3636363636363644,-3.383838383838383 1.262626262626263,-3.383838383838383 1.1616161616161622,-3.383838383838383 1.0606060606060617,-3.383838383838383 0.9595959595959602,-3.383838383838383 0.8585858585858596,-3.383838383838383 0.7575757575757579,-3.383838383838383 0.6565656565656574,-3.383838383838383 0.5555555555555567,-3.383838383838383 0.4545454545454551,-3.383838383838383 0.3535353535353544,-3.383838383838383 0.2525252525252529,-3.383838383838383 0.1515151515151522,-3.383838383838383 0.050505050505051545,-3.383838383838383 -0.05050505050505001,-3.383838383838383 -0.15151515151515066,-3.383838383838383 -0.2525252525252522,-3.383838383838383 -0.35353535353535287,-3.383838383838383 -0.4545454545454544,-3.383838383838383 -0.555555555555555,-3.383838383838383 -0.6565656565656557,-3.383838383838383 -0.7575757575757572,-3.383838383838383 -0.8585858585858579,-3.383838383838383 -0.9595959595959596,-3.383838383838383 -1.0606060606060603,-3.383838383838383 -1.1616161616161613,-3.383838383838383 -1.2626262626262625,-3.383838383838383 -1.363636363636363,-3.383838383838383 -1.4646464646464643,-3.383838383838383 -1.5656565656565653,-3.383838383838383 -1.6666666666666665,-3.383838383838383 -1.7676767676767675,-3.383838383838383 -1.8686868686868683,-3.383838383838383 -1.9696969696969693,-3.383838383838383 -2.07070707070707,-3.383838383838383 -2.1717171717171713,-3.383838383838383 -2.2727272727272725,-3.383838383838383 -2.3737373737373733,-3.383838383838383 -2.474747474747474,-3.383838383838383 -2.5757575757575752,-3.383838383838383 -2.6767676767676765,-3.383838383838383 -2.7777777777777777,-3.383838383838383 -2.8787878787878785,-3.383838383838383 -2.9797979797979792,-3.383838383838383 -3.0808080808080804,-3.383838383838383 -3.1818181818181817,-3.383838383838383 -3.2828282828282824,-3.383838383838383 -3.383838383838383,-3.383838383838383 -3.484848484848485,-3.383838383838383 -3.5858585858585856,-3.383838383838383 -3.6868686868686864,-3.383838383838383 -3.7878787878787876,-3.383838383838383" data-type="line" data-label="" points="984,812.3636363636363 974.4646464646464,812.3636363636363 964.9292929292927,821.8989898989898 955.3939393939393,831.4343434343434 945.8585858585857,831.4343434343434 936.3232323232323,831.4343434343434 926.7878787878785,831.4343434343434 917.2525252525251,831.4343434343434 907.7171717171716,831.4343434343434 898.181818181818,831.4343434343434 888.6464646464647,831.4343434343434 879.111111111111,831.4343434343434 869.5757575757575,831.4343434343434 860.0404040404039,831.4343434343434 850.5050505050505,831.4343434343434 840.969696969697,831.4343434343434 831.4343434343433,831.4343434343434 821.8989898989898,831.4343434343434 812.3636363636363,831.4343434343434 802.8282828282828,831.4343434343434 793.2929292929292,831.4343434343434 783.7575757575758,831.4343434343434 774.2222222222222,831.4343434343434 764.6868686868686,831.4343434343434 755.1515151515151,831.4343434343434 745.6161616161615,831.4343434343434 736.0808080808081,831.4343434343434 726.5454545454545,831.4343434343434 717.0101010101009,831.4343434343434 707.4747474747475,831.4343434343434 697.9393939393939,831.4343434343434 688.4040404040404,831.4343434343434 678.8686868686868,831.4343434343434 669.3333333333333,831.4343434343434 659.7979797979798,831.4343434343434 650.2626262626262,831.4343434343434 640.7272727272727,831.4343434343434 631.1919191919192,831.4343434343434 621.6565656565656,831.4343434343434 612.1212121212121,831.4343434343434 602.5858585858585,831.4343434343434 593.0505050505051,831.4343434343434 583.5151515151515,831.4343434343434 573.9797979797979,831.4343434343434 564.4444444444445,831.4343434343434 554.9090909090909,831.4343434343434 545.3737373737374,831.4343434343434 535.8383838383838,831.4343434343434 526.3030303030303,831.4343434343434 516.7676767676768,831.4343434343434 507.2323232323232,831.4343434343434 497.69696969696975,831.4343434343434 488.16161616161617,831.4343434343434 478.62626262626264,831.4343434343434 469.09090909090907,831.4343434343434 459.55555555555554,831.4343434343434 450.0202020202021,831.4343434343434 440.4848484848485,831.4343434343434 430.949494949495,831.4343434343434 421.4141414141414,831.4343434343434 411.8787878787879,831.4343434343434 402.34343434343435,831.4343434343434 392.80808080808083,831.4343434343434 383.2727272727273,831.4343434343434 373.7373737373738,831.4343434343434 364.2020202020202,831.4343434343434 354.6666666666667,831.4343434343434 345.13131313131316,831.4343434343434 335.59595959595964,831.4343434343434 326.0606060606061,831.4343434343434 316.5252525252526,831.4343434343434 306.9898989898991,831.4343434343434 297.4545454545455,831.4343434343434 287.91919191919203,831.4343434343434 278.38383838383845,831.4343434343434 268.84848484848493,831.4343434343434 259.3131313131314,831.4343434343434 249.77777777777783,831.4343434343434 240.2424242424243,831.4343434343434 230.70707070707084,831.4343434343434 221.17171717171726,831.4343434343434 211.63636363636374,831.4343434343434 202.10101010101022,831.4343434343434 192.5656565656567,831.4343434343434 183.03030303030312,831.4343434343434 173.4949494949496,831.4343434343434 163.95959595959607,831.4343434343434 154.42424242424255,831.4343434343434" fill="none" stroke="rgba(0,0,255,0.75)" stroke-width="14.159999999999995"/></g><g><polyline data-points="-3.7878787878787876,-3.383838383838383 -3.8888888888888884,-3.383838383838383 -3.98989898989899,-3.383838383838383 -4.090909090909091,-3.383838383838383 -4.191919191919193,-3.383838383838383 -4.292929292929293,-3.383838383838383 -4.393939393939394,-3.383838383838383 -4.494949494949496,-3.383838383838383 -4.595959595959596,-3.383838383838383 -4.696969696969697,-3.383838383838383 -4.7979797979797985,-3.383838383838383 -4.898989898989899,-3.383838383838383 -5.000000000000001,-3.484848484848485" data-type="line" data-label="" points="154.42424242424255,831.4343434343434 144.88888888888903,831.4343434343434 135.35353535353545,831.4343434343434 125.81818181818193,831.4343434343434 116.28282828282829,831.4343434343434 106.74747474747483,831.4343434343434 97.21212121212136,831.4343434343434 87.67676767676772,831.4343434343434 78.14141414141426,831.4343434343434 68.60606060606068,831.4343434343434 59.07070707070716,831.4343434343434 49.53535353535369,831.4343434343434 40.00000000000006,840.969696969697" fill="none" stroke="rgba(255,0,0,0.75)" stroke-width="14.159999999999995"/></g><g><rect data-type="rect" data-label="" data-x="0" data-y="0" x="40.000000000000114" y="40.000000000000284" width="943.9999999999997" height="943.9999999999998" fill="none" stroke="gray" stroke-width="0.010593220338983056"/></g><g><rect data-type="rect" data-label="" data-x="0" data-y="0" x="40.000000000000114" y="40.000000000000284" width="943.9999999999997" height="943.9999999999998" fill="none" stroke="rgba(15, 23, 42, 0.8)" stroke-width="0.010593220338983056"/></g><circle data-type="circle" data-label="" data-x="-1.2626262626262625" data-y="-0.15151515151515066" cx="392.80808080808083" cy="526.3030303030304" r="28.791999999999987" fill="rgba(0,0,0,0.3)" stroke="black" stroke-width="0.010593220338983056"/><circle data-type="circle" data-label="" data-x="-0.05050505050505001" data-y="1.0606060606060617" cx="507.2323232323232" cy="411.87878787878793" r="28.791999999999987" fill="rgba(0,0,0,0.3)" stroke="black" stroke-width="0.010593220338983056"/><circle data-type="circle" data-label="" data-x="0.9595959595959602" data-y="0.3535353535353544" cx="602.5858585858585" cy="478.6262626262627" r="28.791999999999987" fill="rgba(0,0,0,0.3)" stroke="black" stroke-width="0.010593220338983056"/><circle data-type="circle" data-label="" data-x="1.4646464646464652" data-y="-2.8787878787878785" cx="650.2626262626262" cy="783.7575757575758" r="28.791999999999987" fill="rgba(0,0,0,0.3)" stroke="black" stroke-width="0.010593220338983056"/><circle data-type="circle" data-label="" data-x="1.4646464646464652" data-y="-3.98989898989899" cx="650.2626262626262" cy="888.6464646464647" r="28.791999999999987" fill="rgba(0,0,0,0.3)" stroke="black" stroke-width="0.010593220338983056"/><circle data-type="circle" data-label="" data-x="-3.7878787878787876" data-y="-3.383838383838383" cx="154.42424242424255" cy="831.4343434343434" r="28.791999999999987" fill="rgba(0,0,0,0.3)" stroke="black" stroke-width="0.010593220338983056"/><g id="crosshair" style="display: none"><line id="crosshair-h" y1="0" y2="1024" stroke="#666" stroke-width="0.5"/><line id="crosshair-v" x1="0" x2="1024" stroke="#666" stroke-width="0.5"/><text id="coordinates" font-family="monospace" font-size="12" fill="#666"></text></g><script><![CDATA[
              document.currentScript.parentElement.addEventListener('mousemove', (e) => {
                const svg = e.currentTarget;
                const rect = svg.getBoundingClientRect();
                const x = e.clientX - rect.left;
                const y = e.clientY - rect.top;
                const crosshair = svg.getElementById('crosshair');
                const h = svg.getElementById('crosshair-h');
                const v = svg.getElementById('crosshair-v');
                const coords = svg.getElementById('coordinates');
                
                crosshair.style.display = 'block';
                h.setAttribute('x1', '0');
                h.setAttribute('x2', '1024');
                h.setAttribute('y1', y);
                h.setAttribute('y2', y);
                v.setAttribute('x1', x);
                v.setAttribute('x2', x);
                v.setAttribute('y1', '0');
                v.setAttribute('y2', '1024');

                // Calculate real coordinates using inverse transformation
                const matrix = {"a":94.39999999999996,"c":0,"e":511.99999999999994,"b":0,"d":-94.39999999999996,"f":512.0000000000001};
                // Manually invert and apply the affine transform
                // Since we only use translate and scale, we can directly compute:
                // x' = (x - tx) / sx
                // y' = (y - ty) / sy
                const sx = matrix.a;
                const sy = matrix.d;
                const tx = matrix.e; 
                const ty = matrix.f;
                const realPoint = {
                  x: (x - tx) / sx,
                  y: (y - ty) / sy // Flip y back since we used negative scale
                }
                
                coords.textContent = `(${realPoint.x.toFixed(2)}, ${realPoint.y.toFixed(2)})`;
                coords.setAttribute('x', (x + 5).toString());
                coords.setAttribute('y', (y - 5).toString());
              });
              document.currentScript.parentElement.addEventListener('mouseleave', () => {
                document.currentScript.parentElement.getElementById('crosshair').style.display = 'none';
              });
            ]]></script></svg>