<svg width="1024" height="1024" viewBox="0 0 1024 1024" xmlns="http://www.w3.org/2000/svg"><rect width="100%" height="100%" fill="white"/><g><circle data-type="point" data-label="conn_000" data-x="5" data-y="0.8" cx="983.9999999999998" cy="436.48000000000013" r="28.792" fill="blue" stroke="#0fa0bd" stroke-width="28.792"/></g><g><circle data-type="point" data-label="conn_000" data-x="-5" data-y="1.04" cx="40.000000000000114" cy="413.8240000000002" r="28.792" fill="blue" stroke="#0fa0bd" stroke-width="28.792"/></g><g><circle data-type="point" data-label="conn_001" data-x="2.24" data-y="-5" cx="723.4559999999999" cy="984" r="28.792" fill="blue" stroke="#bd0f6d" stroke-width="28.792"/></g><g><circle data-type="point" data-label="conn_001" data-x="5" data-y="-4.0600000000000005" cx="983.9999999999998" cy="895.264" r="28.792" fill="blue" stroke="#bd0f6d" stroke-width="28.792"/></g><g><circle data-type="point" data-label="conn_002" data-x="3.6" data-y="-5" cx="851.8399999999998" cy="984" r="28.792" fill="blue" stroke="#3bbd0f" stroke-width="28.792"/></g><g><circle data-type="point" data-label="conn_002" data-x="1.78" data-y="5" cx="680.0319999999999" cy="40.000000000000284" r="28.792" fill="blue" stroke="#3bbd0f" stroke-width="28.792"/></g><g><circle data-type="point" data-label="conn_003" data-x="5" data-y="2.22" cx="983.9999999999998" cy="302.4320000000002" r="28.792" fill="blue" stroke="#170fbd" stroke-width="28.792"/></g><g><circle data-type="point" data-label="conn_003" data-x="-5" data-y="-1.56" cx="40.000000000000114" cy="659.2640000000001" r="28.792" fill="blue" stroke="#170fbd" stroke-width="28.792"/></g><g><circle data-type="point" data-label="conn_004" data-x="-0.36" data-y="-5" cx="478.01599999999996" cy="984" r="28.792" fill="red" stroke="#bd490f" stroke-width="28.792"/></g><g><circle data-type="point" data-label="conn_004" data-x="-1.18" data-y="5" cx="400.608" cy="40.000000000000284" r="28.792" fill="blue" stroke="#bd490f" stroke-width="28.792"/></g><g><circle data-type="point" data-label="conn_005" data-x="5" data-y="-4.68" cx="983.9999999999998" cy="953.7919999999999" r="28.792" fill="red" stroke="#0fbd7c" stroke-width="28.792"/></g><g><circle data-type="point" data-label="conn_005" data-x="-5" data-y="1.96" cx="40.000000000000114" cy="326.9760000000002" r="28.792" fill="red" stroke="#0fbd7c" stroke-width="28.792"/></g><g><circle data-type="point" data-label="conn_006" data-x="-1.16" data-y="-5" cx="402.496" cy="984" r="28.792" fill="red" stroke="#ae0fbd" stroke-width="28.792"/></g><g><circle data-type="point" data-label="conn_006" data-x="2.56" data-y="5" cx="753.6639999999999" cy="40.000000000000284" r="28.792" fill="red" stroke="#ae0fbd" stroke-width="28.792"/></g><g><circle data-type="point" data-label="conn_007" data-x="5" data-y="-1.9000000000000001" cx="983.9999999999998" cy="691.36" r="28.792" fill="blue" stroke="#98bd0f" stroke-width="28.792"/></g><g><circle data-type="point" data-label="conn_007" data-x="-5" data-y="-0.24" cx="40.000000000000114" cy="534.6560000000001" r="28.792" fill="red" stroke="#98bd0f" stroke-width="28.792"/></g><g><circle data-type="point" data-label="conn_008" data-x="5" data-y="5" cx="983.9999999999998" cy="40.000000000000284" r="28.792" fill="blue" stroke="#0f66bd" stroke-width="28.792"/></g><g><circle data-type="point" data-label="conn_008" data-x="5" data-y="4.0600000000000005" cx="983.9999999999998" cy="128.73600000000022" r="28.792" fill="blue" stroke="#0f66bd" stroke-width="28.792"/></g><g><circle data-type="point" data-label="conn_009" data-x="-5" data-y="-4.14" cx="40.000000000000114" cy="902.8159999999999" r="28.792" fill="blue" stroke="#bd0f33" stroke-width="28.792"/></g><g><circle data-type="point" data-label="conn_009" data-x="3.66" data-y="5" cx="857.5039999999999" cy="40.000000000000284" r="28.792" fill="red" stroke="#bd0f33" stroke-width="28.792"/></g><g><polyline data-points="5.000000000000002,-4.696969696969697 4.898989898989901,-4.595959595959596 4.7979797979797985,-4.494949494949496 4.696969696969697,-4.393939393939394 4.595959595959597,-4.292929292929293 4.494949494949497,-4.191919191919193 4.393939393939394,-4.090909090909091 4.292929292929293,-3.98989898989899 4.191919191919193,-3.8888888888888884 4.090909090909092,-3.7878787878787876 3.989898989898992,-3.6868686868686864 3.8888888888888893,-3.5858585858585856 3.7878787878787885,-3.484848484848485 3.6868686868686877,-3.383838383838383 3.5858585858585874,-3.2828282828282824 3.4848484848484866,-3.1818181818181817 3.383838383838384,-3.0808080808080804 3.2828282828282833,-2.9797979797979792 3.181818181818183,-2.8787878787878785 3.080808080808082,-2.7777777777777777 2.9797979797979806,-2.6767676767676765 2.87878787878788,-2.5757575757575752 2.7777777777777786,-2.474747474747474 2.676767676767678,-2.3737373737373733 2.575757575757577,-2.2727272727272725 2.4747474747474754,-2.1717171717171713 2.373737373737375,-2.07070707070707 2.2727272727272734,-1.9696969696969693 2.1717171717171726,-1.8686868686868683 2.070707070707072,-1.7676767676767675 1.9696969696969702,-1.6666666666666665 1.8686868686868696,-1.5656565656565653 1.767676767676768,-1.4646464646464643 1.6666666666666674,-1.363636363636363 1.5656565656565666,-1.2626262626262625 1.4646464646464652,-1.1616161616161613 1.3636363636363644,-1.0606060606060603 1.262626262626263,-0.9595959595959596 1.1616161616161622,-0.8585858585858579 1.0606060606060617,-0.7575757575757572 0.9595959595959602,-0.6565656565656557 0.8585858585858596,-0.555555555555555 0.7575757575757579,-0.4545454545454544 0.6565656565656574,-0.35353535353535287 0.5555555555555567,-0.2525252525252522 0.4545454545454551,-0.15151515151515066 0.3535353535353544,-0.05050505050505001 0.2525252525252529,0.050505050505051545 0.1515151515151522,0.1515151515151522 0.050505050505051545,0.2525252525252529 -0.05050505050505001,0.3535353535353544 -0.15151515151515066,0.4545454545454551 -0.2525252525252522,0.5555555555555567 -0.35353535353535287,0.6565656565656574 -0.4545454545454544,0.7575757575757579 -0.555555555555555,0.8585858585858596 -0.6565656565656557,0.9595959595959602 -0.7575757575757572,1.0606060606060617 -0.8585858585858579,1.1616161616161622 -0.9595959595959596,1.262626262626263 -1.0606060606060603,1.3636363636363644 -1.1616161616161613,1.4646464646464652 -1.2626262626262625,1.5656565656565666 -1.363636363636363,1.6666666666666674 -1.4646464646464643,1.767676767676768 -1.5656565656565653,1.8686868686868696 -1.6666666666666665,1.9696969696969702 -1.7676767676767675,1.9696969696969702 -1.8686868686868683,1.9696969696969702 -1.9696969696969693,1.9696969696969702 -2.07070707070707,1.9696969696969702 -2.1717171717171713,1.9696969696969702 -2.2727272727272725,1.9696969696969702 -2.3737373737373733,1.9696969696969702 -2.474747474747474,1.9696969696969702 -2.5757575757575752,1.9696969696969702 -2.6767676767676765,1.9696969696969702 -2.7777777777777777,1.9696969696969702 -2.8787878787878785,1.9696969696969702 -2.9797979797979792,1.9696969696969702 -3.0808080808080804,1.9696969696969702 -3.1818181818181817,1.9696969696969702 -3.2828282828282824,1.9696969696969702 -3.383838383838383,1.9696969696969702 -3.484848484848485,1.9696969696969702 -3.5858585858585856,1.9696969696969702 -3.6868686868686864,1.9696969696969702 -3.7878787878787876,1.9696969696969702 -3.8888888888888884,1.9696969696969702 -3.98989898989899,1.9696969696969702 -4.090909090909091,1.9696969696969702 -4.191919191919193,1.9696969696969702 -4.292929292929293,1.9696969696969702 -4.393939393939394,1.9696969696969702 -4.494949494949496,1.9696969696969702 -4.595959595959596,1.9696969696969702 -4.696969696969697,1.9696969696969702 -4.7979797979797985,1.9696969696969702 -4.898989898989899,1.9696969696969702 -5.000000000000001,1.9696969696969702" data-type="line" data-label="" points="984,955.3939393939394 974.4646464646464,945.8585858585858 964.9292929292927,936.3232323232323 955.3939393939393,926.7878787878788 945.8585858585857,917.2525252525252 936.3232323232323,907.7171717171718 926.7878787878785,898.1818181818181 917.2525252525251,888.6464646464647 907.7171717171716,879.1111111111111 898.181818181818,869.5757575757575 888.6464646464647,860.0404040404039 879.111111111111,850.5050505050505 869.5757575757575,840.969696969697 860.0404040404039,831.4343434343434 850.5050505050505,821.8989898989898 840.969696969697,812.3636363636363 831.4343434343433,802.8282828282828 821.8989898989898,793.2929292929292 812.3636363636363,783.7575757575758 802.8282828282828,774.2222222222222 793.2929292929292,764.6868686868687 783.7575757575758,755.1515151515151 774.2222222222222,745.6161616161615 764.6868686868686,736.0808080808081 755.1515151515151,726.5454545454545 745.6161616161615,717.010101010101 736.0808080808081,707.4747474747475 726.5454545454545,697.939393939394 717.0101010101009,688.4040404040404 707.4747474747475,678.8686868686868 697.9393939393939,669.3333333333334 688.4040404040404,659.7979797979798 678.8686868686868,650.2626262626263 669.3333333333333,640.7272727272727 659.7979797979798,631.1919191919193 650.2626262626262,621.6565656565657 640.7272727272727,612.1212121212121 631.1919191919192,602.5858585858587 621.6565656565656,593.0505050505051 612.1212121212121,583.5151515151516 602.5858585858585,573.979797979798 593.0505050505051,564.4444444444445 583.5151515151515,554.909090909091 573.9797979797979,545.3737373737374 564.4444444444445,535.838383838384 554.9090909090909,526.3030303030304 545.3737373737374,516.7676767676768 535.8383838383838,507.23232323232327 526.3030303030303,497.69696969696975 516.7676767676768,488.1616161616163 507.2323232323232,478.6262626262627 497.69696969696975,469.0909090909092 488.16161616161617,459.5555555555556 478.62626262626264,450.0202020202021 469.09090909090907,440.4848484848486 459.55555555555554,430.94949494949503 450.0202020202021,421.4141414141415 440.4848484848485,411.87878787878793 430.949494949495,402.3434343434344 421.4141414141414,392.80808080808094 411.8787878787879,383.27272727272737 402.34343434343435,373.73737373737384 392.80808080808083,364.2020202020203 383.2727272727273,354.66666666666674 373.7373737373738,345.1313131313133 364.2020202020202,335.5959595959597 354.6666666666667,326.06060606060623 345.13131313131316,326.06060606060623 335.59595959595964,326.06060606060623 326.0606060606061,326.06060606060623 316.5252525252526,326.06060606060623 306.9898989898991,326.06060606060623 297.4545454545455,326.06060606060623 287.91919191919203,326.06060606060623 278.38383838383845,326.06060606060623 268.84848484848493,326.06060606060623 259.3131313131314,326.06060606060623 249.77777777777783,326.06060606060623 240.2424242424243,326.06060606060623 230.70707070707084,326.06060606060623 221.17171717171726,326.06060606060623 211.63636363636374,326.06060606060623 202.10101010101022,326.06060606060623 192.5656565656567,326.06060606060623 183.03030303030312,326.06060606060623 173.4949494949496,326.06060606060623 163.95959595959607,326.06060606060623 154.42424242424255,326.06060606060623 144.88888888888903,326.06060606060623 135.35353535353545,326.06060606060623 125.81818181818193,326.06060606060623 116.28282828282829,326.06060606060623 106.74747474747483,326.06060606060623 97.21212121212136,326.06060606060623 87.67676767676772,326.06060606060623 78.14141414141426,326.06060606060623 68.60606060606068,326.06060606060623 59.07070707070716,326.06060606060623 49.53535353535369,326.06060606060623 40.00000000000006,326.06060606060623" fill="none" stroke="rgba(255,0,0,0.75)" stroke-width="14.159999999999995"/></g><g><polyline data-points="-0.35353535353535287,-5.000000000000001 -0.4545454545454544,-4.898989898989899 -0.555555555555555,-4.7979797979797985 -0.6565656565656557,-4.696969696969697 -0.7575757575757572,-4.595959595959596 -0.8585858585858579,-4.494949494949496 -0.9595959595959596,-4.393939393939394 -1.0606060606060603,-4.292929292929293 -1.1616161616161613,-4.191919191919193 -1.1616161616161613,-4.090909090909091 -1.1616161616161613,-3.98989898989899 -1.1616161616161613,-3.8888888888888884 -1.1616161616161613,-3.7878787878787876 -1.1616161616161613,-3.6868686868686864 -1.1616161616161613,-3.5858585858585856 -1.1616161616161613,-3.484848484848485 -1.1616161616161613,-3.383838383838383 -1.1616161616161613,-3.2828282828282824 -1.1616161616161613,-3.1818181818181817 -1.1616161616161613,-3.0808080808080804 -1.1616161616161613,-2.9797979797979792 -1.1616161616161613,-2.8787878787878785 -1.1616161616161613,-2.7777777777777777 -1.1616161616161613,-2.6767676767676765 -1.1616161616161613,-2.5757575757575752 -1.1616161616161613,-2.474747474747474 -1.1616161616161613,-2.3737373737373733 -1.1616161616161613,-2.2727272727272725 -1.1616161616161613,-2.1717171717171713 -1.1616161616161613,-2.07070707070707 -1.1616161616161613,-1.9696969696969693 -1.1616161616161613,-1.8686868686868683 -1.1616161616161613,-1.7676767676767675 -1.1616161616161613,-1.6666666666666665 -1.1616161616161613,-1.5656565656565653 -1.1616161616161613,-1.4646464646464643 -1.1616161616161613,-1.363636363636363 -1.1616161616161613,-1.2626262626262625 -1.1616161616161613,-1.1616161616161613 -1.1616161616161613,-1.0606060606060603 -1.1616161616161613,-0.9595959595959596 -1.1616161616161613,-0.8585858585858579 -1.1616161616161613,-0.7575757575757572 -1.1616161616161613,-0.6565656565656557 -1.1616161616161613,-0.555555555555555 -1.1616161616161613,-0.4545454545454544 -1.1616161616161613,-0.35353535353535287 -1.1616161616161613,-0.2525252525252522 -1.1616161616161613,-0.15151515151515066 -1.1616161616161613,-0.05050505050505001 -1.1616161616161613,0.050505050505051545 -1.1616161616161613,0.1515151515151522 -1.1616161616161613,0.2525252525252529 -1.1616161616161613,0.3535353535353544 -1.1616161616161613,0.4545454545454551 -1.1616161616161613,0.5555555555555567 -1.1616161616161613,0.6565656565656574" data-type="line" data-label="" points="478.62626262626264,984 469.09090909090907,974.4646464646464 459.55555555555554,964.9292929292928 450.0202020202021,955.3939393939394 440.4848484848485,945.8585858585858 430.949494949495,936.3232323232323 421.4141414141414,926.7878787878788 411.8787878787879,917.2525252525252 402.34343434343435,907.7171717171718 402.34343434343435,898.1818181818181 402.34343434343435,888.6464646464647 402.34343434343435,879.1111111111111 402.34343434343435,869.5757575757575 402.34343434343435,860.0404040404039 402.34343434343435,850.5050505050505 402.34343434343435,840.969696969697 402.34343434343435,831.4343434343434 402.34343434343435,821.8989898989898 402.34343434343435,812.3636363636363 402.34343434343435,802.8282828282828 402.34343434343435,793.2929292929292 402.34343434343435,783.7575757575758 402.34343434343435,774.2222222222222 402.34343434343435,764.6868686868687 402.34343434343435,755.1515151515151 402.34343434343435,745.6161616161615 402.34343434343435,736.0808080808081 402.34343434343435,726.5454545454545 402.34343434343435,717.010101010101 402.34343434343435,707.4747474747475 402.34343434343435,697.939393939394 402.34343434343435,688.4040404040404 402.34343434343435,678.8686868686868 402.34343434343435,669.3333333333334 402.34343434343435,659.7979797979798 402.34343434343435,650.2626262626263 402.34343434343435,640.7272727272727 402.34343434343435,631.1919191919193 402.34343434343435,621.6565656565657 402.34343434343435,612.1212121212121 402.34343434343435,602.5858585858587 402.34343434343435,593.0505050505051 402.34343434343435,583.5151515151516 402.34343434343435,573.979797979798 402.34343434343435,564.4444444444445 402.34343434343435,554.909090909091 402.34343434343435,545.3737373737374 402.34343434343435,535.838383838384 402.34343434343435,526.3030303030304 402.34343434343435,516.7676767676768 402.34343434343435,507.23232323232327 402.34343434343435,497.69696969696975 402.34343434343435,488.1616161616163 402.34343434343435,478.6262626262627 402.34343434343435,469.0909090909092 402.34343434343435,459.5555555555556 402.34343434343435,450.0202020202021" fill="none" stroke="rgba(255,0,0,0.75)" stroke-width="14.159999999999995"/></g><g><polyline data-points="-1.1616161616161613,0.6565656565656574 -1.1616161616161613,0.7575757575757579 -1.1616161616161613,0.8585858585858596 -1.1616161616161613,0.9595959595959602 -1.1616161616161613,1.0606060606060617 -1.1616161616161613,1.1616161616161622 -1.1616161616161613,1.262626262626263 -1.1616161616161613,1.3636363636363644 -1.1616161616161613,1.4646464646464652 -1.1616161616161613,1.5656565656565666 -1.1616161616161613,1.6666666666666674 -1.1616161616161613,1.767676767676768 -1.1616161616161613,1.8686868686868696 -1.1616161616161613,1.9696969696969702 -1.1616161616161613,2.070707070707072 -1.1616161616161613,2.1717171717171726 -1.1616161616161613,2.2727272727272734 -1.1616161616161613,2.373737373737375 -1.1616161616161613,2.4747474747474754 -1.1616161616161613,2.575757575757577 -1.1616161616161613,2.676767676767678 -1.1616161616161613,2.7777777777777786 -1.1616161616161613,2.87878787878788 -1.1616161616161613,2.9797979797979806 -1.1616161616161613,3.080808080808082 -1.1616161616161613,3.181818181818183 -1.1616161616161613,3.2828282828282833 -1.1616161616161613,3.383838383838384 -1.1616161616161613,3.4848484848484866 -1.1616161616161613,3.5858585858585874 -1.1616161616161613,3.6868686868686877 -1.1616161616161613,3.7878787878787885 -1.1616161616161613,3.8888888888888893 -1.1616161616161613,3.989898989898992 -1.1616161616161613,4.090909090909092 -1.1616161616161613,4.191919191919193 -1.1616161616161613,4.292929292929293 -1.1616161616161613,4.393939393939394 -1.1616161616161613,4.494949494949497 -1.1616161616161613,4.595959595959597 -1.1616161616161613,4.696969696969697 -1.1616161616161613,4.7979797979797985 -1.1616161616161613,4.898989898989901 -1.1616161616161613,5.000000000000002" data-type="line" data-label="" points="402.34343434343435,450.0202020202021 402.34343434343435,440.4848484848486 402.34343434343435,430.94949494949503 402.34343434343435,421.4141414141415 402.34343434343435,411.87878787878793 402.34343434343435,402.3434343434344 402.34343434343435,392.80808080808094 402.34343434343435,383.27272727272737 402.34343434343435,373.73737373737384 402.34343434343435,364.2020202020203 402.34343434343435,354.66666666666674 402.34343434343435,345.1313131313133 402.34343434343435,335.5959595959597 402.34343434343435,326.06060606060623 402.34343434343435,316.5252525252526 402.34343434343435,306.9898989898991 402.34343434343435,297.4545454545456 402.34343434343435,287.91919191919203 402.34343434343435,278.38383838383857 402.34343434343435,268.84848484848493 402.34343434343435,259.3131313131314 402.34343434343435,249.77777777777794 402.34343434343435,240.24242424242436 402.34343434343435,230.70707070707084 402.34343434343435,221.17171717171726 402.34343434343435,211.63636363636374 402.34343434343435,202.10101010101027 402.34343434343435,192.56565656565675 402.34343434343435,183.03030303030312 402.34343434343435,173.4949494949496 402.34343434343435,163.95959595959613 402.34343434343435,154.4242424242426 402.34343434343435,144.88888888888908 402.34343434343435,135.35353535353545 402.34343434343435,125.81818181818198 402.34343434343435,116.28282828282846 402.34343434343435,106.747474747475 402.34343434343435,97.21212121212153 402.34343434343435,87.67676767676778 402.34343434343435,78.14141414141432 402.34343434343435,68.60606060606085 402.34343434343435,59.07070707070733 402.34343434343435,49.53535353535369 402.34343434343435,40.000000000000114" fill="none" stroke="rgba(0,0,255,0.75)" stroke-width="14.159999999999995"/></g><g><polyline data-points="5.000000000000002,2.2727272727272734 4.898989898989901,2.1717171717171726 4.7979797979797985,2.070707070707072 4.696969696969697,1.9696969696969702 4.595959595959597,1.8686868686868696 4.494949494949497,1.767676767676768 4.393939393939394,1.6666666666666674 4.292929292929293,1.5656565656565666 4.191919191919193,1.4646464646464652 4.090909090909092,1.3636363636363644 3.989898989898992,1.262626262626263 3.8888888888888893,1.1616161616161622 3.7878787878787885,1.0606060606060617 3.6868686868686877,0.9595959595959602 3.5858585858585874,0.8585858585858596 3.4848484848484866,0.7575757575757579 3.383838383838384,0.6565656565656574 3.2828282828282833,0.5555555555555567 3.181818181818183,0.4545454545454551 3.080808080808082,0.3535353535353544 2.9797979797979806,0.2525252525252529 2.87878787878788,0.1515151515151522 2.7777777777777786,0.050505050505051545 2.676767676767678,-0.05050505050505001 2.575757575757577,-0.05050505050505001 2.4747474747474754,-0.05050505050505001 2.373737373737375,-0.05050505050505001" data-type="line" data-label="" points="984,297.4545454545456 974.4646464646464,306.9898989898991 964.9292929292927,316.5252525252526 955.3939393939393,326.06060606060623 945.8585858585857,335.5959595959597 936.3232323232323,345.1313131313133 926.7878787878785,354.66666666666674 917.2525252525251,364.2020202020203 907.7171717171716,373.73737373737384 898.181818181818,383.27272727272737 888.6464646464647,392.80808080808094 879.111111111111,402.3434343434344 869.5757575757575,411.87878787878793 860.0404040404039,421.4141414141415 850.5050505050505,430.94949494949503 840.969696969697,440.4848484848486 831.4343434343433,450.0202020202021 821.8989898989898,459.5555555555556 812.3636363636363,469.0909090909092 802.8282828282828,478.6262626262627 793.2929292929292,488.1616161616163 783.7575757575758,497.69696969696975 774.2222222222222,507.23232323232327 764.6868686868686,516.7676767676768 755.1515151515151,516.7676767676768 745.6161616161615,516.7676767676768 736.0808080808081,516.7676767676768" fill="none" stroke="rgba(0,0,255,0.75)" stroke-width="14.159999999999995"/></g><g><polyline data-points="2.373737373737375,-0.05050505050505001 2.2727272727272734,-0.05050505050505001 2.1717171717171726,-0.05050505050505001 2.070707070707072,-0.05050505050505001 1.9696969696969702,-0.05050505050505001 1.8686868686868696,-0.05050505050505001 1.767676767676768,-0.05050505050505001 1.6666666666666674,-0.05050505050505001 1.5656565656565666,-0.05050505050505001 1.4646464646464652,-0.05050505050505001 1.3636363636363644,-0.05050505050505001 1.262626262626263,-0.05050505050505001 1.1616161616161622,-0.05050505050505001" data-type="line" data-label="" points="736.0808080808081,516.7676767676768 726.5454545454545,516.7676767676768 717.0101010101009,516.7676767676768 707.4747474747475,516.7676767676768 697.9393939393939,516.7676767676768 688.4040404040404,516.7676767676768 678.8686868686868,516.7676767676768 669.3333333333333,516.7676767676768 659.7979797979798,516.7676767676768 650.2626262626262,516.7676767676768 640.7272727272727,516.7676767676768 631.1919191919192,516.7676767676768 621.6565656565656,516.7676767676768" fill="none" stroke="rgba(255,0,0,0.75)" stroke-width="14.159999999999995"/></g><g><polyline data-points="1.1616161616161622,-0.05050505050505001 1.0606060606060617,-0.15151515151515066 0.9595959595959602,-0.2525252525252522 0.8585858585858596,-0.35353535353535287 0.7575757575757579,-0.4545454545454544 0.6565656565656574,-0.555555555555555 0.5555555555555567,-0.6565656565656557 0.4545454545454551,-0.7575757575757572 0.3535353535353544,-0.8585858585858579 0.2525252525252529,-0.9595959595959596 0.1515151515151522,-1.0606060606060603 0.050505050505051545,-1.1616161616161613 -0.05050505050505001,-1.2626262626262625 -0.15151515151515066,-1.363636363636363 -0.2525252525252522,-1.4646464646464643 -0.35353535353535287,-1.5656565656565653 -0.4545454545454544,-1.5656565656565653 -0.555555555555555,-1.5656565656565653 -0.6565656565656557,-1.5656565656565653 -0.7575757575757572,-1.5656565656565653 -0.8585858585858579,-1.5656565656565653 -0.9595959595959596,-1.5656565656565653 -1.0606060606060603,-1.5656565656565653 -1.1616161616161613,-1.5656565656565653 -1.2626262626262625,-1.5656565656565653 -1.363636363636363,-1.5656565656565653 -1.4646464646464643,-1.5656565656565653 -1.5656565656565653,-1.5656565656565653 -1.6666666666666665,-1.5656565656565653 -1.7676767676767675,-1.5656565656565653 -1.8686868686868683,-1.5656565656565653 -1.9696969696969693,-1.5656565656565653 -2.07070707070707,-1.5656565656565653 -2.1717171717171713,-1.5656565656565653 -2.2727272727272725,-1.5656565656565653 -2.3737373737373733,-1.5656565656565653 -2.474747474747474,-1.5656565656565653 -2.5757575757575752,-1.5656565656565653 -2.6767676767676765,-1.5656565656565653 -2.7777777777777777,-1.5656565656565653 -2.8787878787878785,-1.5656565656565653 -2.9797979797979792,-1.5656565656565653 -3.0808080808080804,-1.5656565656565653 -3.1818181818181817,-1.5656565656565653 -3.2828282828282824,-1.5656565656565653 -3.383838383838383,-1.5656565656565653 -3.484848484848485,-1.5656565656565653 -3.5858585858585856,-1.5656565656565653 -3.6868686868686864,-1.5656565656565653 -3.7878787878787876,-1.5656565656565653 -3.8888888888888884,-1.5656565656565653 -3.98989898989899,-1.5656565656565653 -4.090909090909091,-1.5656565656565653 -4.191919191919193,-1.5656565656565653 -4.292929292929293,-1.5656565656565653 -4.393939393939394,-1.5656565656565653 -4.494949494949496,-1.5656565656565653 -4.595959595959596,-1.5656565656565653 -4.696969696969697,-1.5656565656565653 -4.7979797979797985,-1.5656565656565653 -4.898989898989899,-1.5656565656565653 -5.000000000000001,-1.5656565656565653" data-type="line" data-label="" points="621.6565656565656,516.7676767676768 612.1212121212121,526.3030303030304 602.5858585858585,535.838383838384 593.0505050505051,545.3737373737374 583.5151515151515,554.909090909091 573.9797979797979,564.4444444444445 564.4444444444445,573.979797979798 554.9090909090909,583.5151515151516 545.3737373737374,593.0505050505051 535.8383838383838,602.5858585858587 526.3030303030303,612.1212121212121 516.7676767676768,621.6565656565657 507.2323232323232,631.1919191919193 497.69696969696975,640.7272727272727 488.16161616161617,650.2626262626263 478.62626262626264,659.7979797979798 469.09090909090907,659.7979797979798 459.55555555555554,659.7979797979798 450.0202020202021,659.7979797979798 440.4848484848485,659.7979797979798 430.949494949495,659.7979797979798 421.4141414141414,659.7979797979798 411.8787878787879,659.7979797979798 402.34343434343435,659.7979797979798 392.80808080808083,659.7979797979798 383.2727272727273,659.7979797979798 373.7373737373738,659.7979797979798 364.2020202020202,659.7979797979798 354.6666666666667,659.7979797979798 345.13131313131316,659.7979797979798 335.59595959595964,659.7979797979798 326.0606060606061,659.7979797979798 316.5252525252526,659.7979797979798 306.9898989898991,659.7979797979798 297.4545454545455,659.7979797979798 287.91919191919203,659.7979797979798 278.38383838383845,659.7979797979798 268.84848484848493,659.7979797979798 259.3131313131314,659.7979797979798 249.77777777777783,659.7979797979798 240.2424242424243,659.7979797979798 230.70707070707084,659.7979797979798 221.17171717171726,659.7979797979798 211.63636363636374,659.7979797979798 202.10101010101022,659.7979797979798 192.5656565656567,659.7979797979798 183.03030303030312,659.7979797979798 173.4949494949496,659.7979797979798 163.95959595959607,659.7979797979798 154.42424242424255,659.7979797979798 144.88888888888903,659.7979797979798 135.35353535353545,659.7979797979798 125.81818181818193,659.7979797979798 116.28282828282829,659.7979797979798 106.74747474747483,659.7979797979798 97.21212121212136,659.7979797979798 87.67676767676772,659.7979797979798 78.14141414141426,659.7979797979798 68.60606060606068,659.7979797979798 59.07070707070716,659.7979797979798 49.53535353535369,659.7979797979798 40.00000000000006,659.7979797979798" fill="none" stroke="rgba(0,0,255,0.75)" stroke-width="14.159999999999995"/></g><g><polyline data-points="5.000000000000002,5.000000000000002 5.000000000000002,4.898989898989901 5.000000000000002,4.7979797979797985 5.000000000000002,4.696969696969697 5.000000000000002,4.595959595959597 5.000000000000002,4.494949494949497 5.000000000000002,4.393939393939394 5.000000000000002,4.292929292929293 5.000000000000002,4.191919191919193 5.000000000000002,4.090909090909092" data-type="line" data-label="" points="984,40.000000000000114 984,49.53535353535369 984,59.07070707070733 984,68.60606060606085 984,78.14141414141432 984,87.67676767676778 984,97.21212121212153 984,106.747474747475 984,116.28282828282846 984,125.81818181818198" fill="none" stroke="rgba(0,0,255,0.75)" stroke-width="14.159999999999995"/></g><g><polyline data-points="2.2727272727272734,-5.000000000000001 2.2727272727272734,-4.898989898989899 2.2727272727272734,-4.7979797979797985 2.2727272727272734,-4.696969696969697 2.2727272727272734,-4.595959595959596 2.2727272727272734,-4.494949494949496 2.1717171717171726,-4.393939393939394 2.070707070707072,-4.292929292929293 1.9696969696969702,-4.191919191919193 1.8686868686868696,-4.090909090909091 1.767676767676768,-3.98989898989899" data-type="line" data-label="" points="726.5454545454545,984 726.5454545454545,974.4646464646464 726.5454545454545,964.9292929292928 726.5454545454545,955.3939393939394 726.5454545454545,945.8585858585858 726.5454545454545,936.3232323232323 717.0101010101009,926.7878787878788 707.4747474747475,917.2525252525252 697.9393939393939,907.7171717171718 688.4040404040404,898.1818181818181 678.8686868686868,888.6464646464647" fill="none" stroke="rgba(0,0,255,0.75)" stroke-width="14.159999999999995"/></g><g><polyline data-points="1.767676767676768,-3.98989898989899 1.8686868686868696,-3.98989898989899 1.9696969696969702,-3.98989898989899 2.070707070707072,-3.98989898989899 2.1717171717171726,-3.98989898989899 2.2727272727272734,-3.98989898989899 2.373737373737375,-3.98989898989899 2.4747474747474754,-3.98989898989899 2.575757575757577,-3.98989898989899 2.676767676767678,-3.98989898989899 2.7777777777777786,-3.98989898989899 2.87878787878788,-3.98989898989899 2.9797979797979806,-3.98989898989899 3.080808080808082,-3.98989898989899 3.181818181818183,-3.98989898989899 3.2828282828282833,-3.98989898989899 3.383838383838384,-3.98989898989899" data-type="line" data-label="" points="678.8686868686868,888.6464646464647 688.4040404040404,888.6464646464647 697.9393939393939,888.6464646464647 707.4747474747475,888.6464646464647 717.0101010101009,888.6464646464647 726.5454545454545,888.6464646464647 736.0808080808081,888.6464646464647 745.6161616161615,888.6464646464647 755.1515151515151,888.6464646464647 764.6868686868686,888.6464646464647 774.2222222222222,888.6464646464647 783.7575757575758,888.6464646464647 793.2929292929292,888.6464646464647 802.8282828282828,888.6464646464647 812.3636363636363,888.6464646464647 821.8989898989898,888.6464646464647 831.4343434343433,888.6464646464647" fill="none" stroke="rgba(255,0,0,0.75)" stroke-width="14.159999999999995"/></g><g><polyline data-points="3.383838383838384,-3.98989898989899 3.4848484848484866,-4.090909090909091 3.5858585858585874,-4.090909090909091 3.6868686868686877,-4.090909090909091 3.7878787878787885,-4.090909090909091 3.8888888888888893,-4.090909090909091 3.989898989898992,-4.090909090909091 4.090909090909092,-4.090909090909091 4.191919191919193,-4.090909090909091 4.292929292929293,-4.090909090909091 4.393939393939394,-4.090909090909091 4.494949494949497,-4.090909090909091 4.595959595959597,-4.090909090909091 4.696969696969697,-4.090909090909091 4.7979797979797985,-4.090909090909091 4.898989898989901,-4.090909090909091 5.000000000000002,-4.090909090909091" data-type="line" data-label="" points="831.4343434343433,888.6464646464647 840.969696969697,898.1818181818181 850.5050505050505,898.1818181818181 860.0404040404039,898.1818181818181 869.5757575757575,898.1818181818181 879.111111111111,898.1818181818181 888.6464646464647,898.1818181818181 898.181818181818,898.1818181818181 907.7171717171716,898.1818181818181 917.2525252525251,898.1818181818181 926.7878787878785,898.1818181818181 936.3232323232323,898.1818181818181 945.8585858585857,898.1818181818181 955.3939393939393,898.1818181818181 964.9292929292927,898.1818181818181 974.4646464646464,898.1818181818181 984,898.1818181818181" fill="none" stroke="rgba(0,0,255,0.75)" stroke-width="14.159999999999995"/></g><g><polyline data-points="5.000000000000002,-1.9696969696969693 4.898989898989901,-1.8686868686868683 4.7979797979797985,-1.7676767676767675 4.696969696969697,-1.6666666666666665 4.595959595959597,-1.5656565656565653 4.494949494949497,-1.4646464646464643 4.393939393939394,-1.363636363636363 4.292929292929293,-1.2626262626262625 4.191919191919193,-1.1616161616161613 4.090909090909092,-1.0606060606060603 3.989898989898992,-0.9595959595959596 3.8888888888888893,-0.8585858585858579 3.7878787878787885,-0.7575757575757572 3.6868686868686877,-0.6565656565656557 3.5858585858585874,-0.555555555555555 3.4848484848484866,-0.4545454545454544 3.383838383838384,-0.35353535353535287 3.2828282828282833,-0.2525252525252522" data-type="line" data-label="" points="984,697.939393939394 974.4646464646464,688.4040404040404 964.9292929292927,678.8686868686868 955.3939393939393,669.3333333333334 945.8585858585857,659.7979797979798 936.3232323232323,650.2626262626263 926.7878787878785,640.7272727272727 917.2525252525251,631.1919191919193 907.7171717171716,621.6565656565657 898.181818181818,612.1212121212121 888.6464646464647,602.5858585858587 879.111111111111,593.0505050505051 869.5757575757575,583.5151515151516 860.0404040404039,573.979797979798 850.5050505050505,564.4444444444445 840.969696969697,554.909090909091 831.4343434343433,545.3737373737374 821.8989898989898,535.838383838384" fill="none" stroke="rgba(0,0,255,0.75)" stroke-width="14.159999999999995"/></g><g><polyline data-points="3.2828282828282833,-0.2525252525252522 3.181818181818183,-0.2525252525252522 3.080808080808082,-0.15151515151515066 2.9797979797979806,-0.05050505050505001 2.87878787878788,0.050505050505051545 2.7777777777777786,0.1515151515151522 2.676767676767678,0.2525252525252529 2.575757575757577,0.3535353535353544 2.4747474747474754,0.3535353535353544 2.373737373737375,0.4545454545454551 2.2727272727272734,0.4545454545454551 2.1717171717171726,0.4545454545454551 2.070707070707072,0.4545454545454551 1.9696969696969702,0.4545454545454551 1.8686868686868696,0.4545454545454551 1.767676767676768,0.4545454545454551 1.6666666666666674,0.4545454545454551 1.5656565656565666,0.4545454545454551 1.4646464646464652,0.4545454545454551 1.3636363636363644,0.4545454545454551 1.262626262626263,0.4545454545454551 1.1616161616161622,0.4545454545454551 1.0606060606060617,0.4545454545454551 0.9595959595959602,0.4545454545454551 0.8585858585858596,0.4545454545454551 0.7575757575757579,0.4545454545454551 0.6565656565656574,0.5555555555555567" data-type="line" data-label="" points="821.8989898989898,535.838383838384 812.3636363636363,535.838383838384 802.8282828282828,526.3030303030304 793.2929292929292,516.7676767676768 783.7575757575758,507.23232323232327 774.2222222222222,497.69696969696975 764.6868686868686,488.1616161616163 755.1515151515151,478.6262626262627 745.6161616161615,478.6262626262627 736.0808080808081,469.0909090909092 726.5454545454545,469.0909090909092 717.0101010101009,469.0909090909092 707.4747474747475,469.0909090909092 697.9393939393939,469.0909090909092 688.4040404040404,469.0909090909092 678.8686868686868,469.0909090909092 669.3333333333333,469.0909090909092 659.7979797979798,469.0909090909092 650.2626262626262,469.0909090909092 640.7272727272727,469.0909090909092 631.1919191919192,469.0909090909092 621.6565656565656,469.0909090909092 612.1212121212121,469.0909090909092 602.5858585858585,469.0909090909092 593.0505050505051,469.0909090909092 583.5151515151515,469.0909090909092 573.9797979797979,459.5555555555556" fill="none" stroke="rgba(255,0,0,0.75)" stroke-width="14.159999999999995"/></g><g><polyline data-points="0.6565656565656574,0.5555555555555567 0.5555555555555567,0.4545454545454551 0.4545454545454551,0.3535353535353544 0.3535353535353544,0.2525252525252529 0.2525252525252529,0.1515151515151522 0.1515151515151522,0.050505050505051545 0.050505050505051545,-0.05050505050505001 -0.05050505050505001,-0.15151515151515066 -0.15151515151515066,-0.2525252525252522 -0.2525252525252522,-0.2525252525252522 -0.35353535353535287,-0.2525252525252522 -0.4545454545454544,-0.2525252525252522 -0.555555555555555,-0.2525252525252522 -0.6565656565656557,-0.2525252525252522 -0.7575757575757572,-0.2525252525252522 -0.8585858585858579,-0.2525252525252522 -0.9595959595959596,-0.2525252525252522 -1.0606060606060603,-0.2525252525252522 -1.1616161616161613,-0.2525252525252522 -1.2626262626262625,-0.2525252525252522 -1.363636363636363,-0.2525252525252522 -1.4646464646464643,-0.2525252525252522 -1.5656565656565653,-0.2525252525252522 -1.6666666666666665,-0.2525252525252522 -1.7676767676767675,-0.2525252525252522 -1.8686868686868683,-0.2525252525252522 -1.9696969696969693,-0.2525252525252522 -2.07070707070707,-0.2525252525252522 -2.1717171717171713,-0.2525252525252522 -2.2727272727272725,-0.2525252525252522 -2.3737373737373733,-0.2525252525252522 -2.474747474747474,-0.2525252525252522 -2.5757575757575752,-0.2525252525252522 -2.6767676767676765,-0.2525252525252522 -2.7777777777777777,-0.2525252525252522 -2.8787878787878785,-0.2525252525252522 -2.9797979797979792,-0.2525252525252522 -3.0808080808080804,-0.2525252525252522 -3.1818181818181817,-0.2525252525252522 -3.2828282828282824,-0.2525252525252522 -3.383838383838383,-0.2525252525252522 -3.484848484848485,-0.2525252525252522 -3.5858585858585856,-0.2525252525252522 -3.6868686868686864,-0.2525252525252522 -3.7878787878787876,-0.2525252525252522 -3.8888888888888884,-0.2525252525252522 -3.98989898989899,-0.2525252525252522" data-type="line" data-label="" points="573.9797979797979,459.5555555555556 564.4444444444445,469.0909090909092 554.9090909090909,478.6262626262627 545.3737373737374,488.1616161616163 535.8383838383838,497.69696969696975 526.3030303030303,507.23232323232327 516.7676767676768,516.7676767676768 507.2323232323232,526.3030303030304 497.69696969696975,535.838383838384 488.16161616161617,535.838383838384 478.62626262626264,535.838383838384 469.09090909090907,535.838383838384 459.55555555555554,535.838383838384 450.0202020202021,535.838383838384 440.4848484848485,535.838383838384 430.949494949495,535.838383838384 421.4141414141414,535.838383838384 411.8787878787879,535.838383838384 402.34343434343435,535.838383838384 392.80808080808083,535.838383838384 383.2727272727273,535.838383838384 373.7373737373738,535.838383838384 364.2020202020202,535.838383838384 354.6666666666667,535.838383838384 345.13131313131316,535.838383838384 335.59595959595964,535.838383838384 326.0606060606061,535.838383838384 316.5252525252526,535.838383838384 306.9898989898991,535.838383838384 297.4545454545455,535.838383838384 287.91919191919203,535.838383838384 278.38383838383845,535.838383838384 268.84848484848493,535.838383838384 259.3131313131314,535.838383838384 249.77777777777783,535.838383838384 240.2424242424243,535.838383838384 230.70707070707084,535.838383838384 221.17171717171726,535.838383838384 211.63636363636374,535.838383838384 202.10101010101022,535.838383838384 192.5656565656567,535.838383838384 183.03030303030312,535.838383838384 173.4949494949496,535.838383838384 163.95959595959607,535.838383838384 154.42424242424255,535.838383838384 144.88888888888903,535.838383838384 135.35353535353545,535.838383838384" fill="none" stroke="rgba(0,0,255,0.75)" stroke-width="14.159999999999995"/></g><g><polyline data-points="-3.98989898989899,-0.2525252525252522 -4.090909090909091,-0.2525252525252522 -4.191919191919193,-0.2525252525252522 -4.292929292929293,-0.2525252525252522 -4.393939393939394,-0.2525252525252522 -4.494949494949496,-0.2525252525252522 -4.595959595959596,-0.2525252525252522 -4.696969696969697,-0.2525252525252522 -4.7979797979797985,-0.2525252525252522 -4.898989898989899,-0.2525252525252522 -5.000000000000001,-0.2525252525252522" data-type="line" data-label="" points="135.35353535353545,535.838383838384 125.81818181818193,535.838383838384 116.28282828282829,535.838383838384 106.74747474747483,535.838383838384 97.21212121212136,535.838383838384 87.67676767676772,535.838383838384 78.14141414141426,535.838383838384 68.60606060606068,535.838383838384 59.07070707070716,535.838383838384 49.53535353535369,535.838383838384 40.00000000000006,535.838383838384" fill="none" stroke="rgba(255,0,0,0.75)" stroke-width="14.159999999999995"/></g><g><polyline data-points="-1.1616161616161613,-5.000000000000001 -1.1616161616161613,-4.898989898989899 -1.1616161616161613,-4.7979797979797985 -1.1616161616161613,-4.696969696969697 -1.1616161616161613,-4.595959595959596 -1.1616161616161613,-4.494949494949496 -1.2626262626262625,-4.393939393939394 -1.363636363636363,-4.292929292929293 -1.363636363636363,-4.191919191919193 -1.4646464646464643,-4.090909090909091 -1.5656565656565653,-3.98989898989899 -1.6666666666666665,-3.8888888888888884 -1.7676767676767675,-3.7878787878787876" data-type="line" data-label="" points="402.34343434343435,984 402.34343434343435,974.4646464646464 402.34343434343435,964.9292929292928 402.34343434343435,955.3939393939394 402.34343434343435,945.8585858585858 402.34343434343435,936.3232323232323 392.80808080808083,926.7878787878788 383.2727272727273,917.2525252525252 383.2727272727273,907.7171717171718 373.7373737373738,898.1818181818181 364.2020202020202,888.6464646464647 354.6666666666667,879.1111111111111 345.13131313131316,869.5757575757575" fill="none" stroke="rgba(255,0,0,0.75)" stroke-width="14.159999999999995"/></g><g><polyline data-points="-1.7676767676767675,-3.7878787878787876 -1.6666666666666665,-3.6868686868686864 -1.5656565656565653,-3.5858585858585856 -1.4646464646464643,-3.484848484848485 -1.363636363636363,-3.383838383838383 -1.2626262626262625,-3.2828282828282824 -1.1616161616161613,-3.1818181818181817 -1.0606060606060603,-3.0808080808080804 -0.9595959595959596,-2.9797979797979792 -0.8585858585858579,-2.8787878787878785 -0.7575757575757572,-2.8787878787878785 -0.6565656565656557,-2.8787878787878785 -0.555555555555555,-2.8787878787878785 -0.4545454545454544,-2.8787878787878785 -0.35353535353535287,-2.8787878787878785 -0.2525252525252522,-2.8787878787878785 -0.15151515151515066,-2.8787878787878785 -0.05050505050505001,-2.8787878787878785 0.050505050505051545,-2.8787878787878785 0.1515151515151522,-2.8787878787878785 0.2525252525252529,-2.8787878787878785 0.3535353535353544,-2.8787878787878785 0.4545454545454551,-2.8787878787878785 0.5555555555555567,-2.8787878787878785 0.6565656565656574,-2.8787878787878785 0.7575757575757579,-2.8787878787878785 0.8585858585858596,-2.8787878787878785 0.9595959595959602,-2.8787878787878785 1.0606060606060617,-2.8787878787878785 1.1616161616161622,-2.8787878787878785" data-type="line" data-label="" points="345.13131313131316,869.5757575757575 354.6666666666667,860.0404040404039 364.2020202020202,850.5050505050505 373.7373737373738,840.969696969697 383.2727272727273,831.4343434343434 392.80808080808083,821.8989898989898 402.34343434343435,812.3636363636363 411.8787878787879,802.8282828282828 421.4141414141414,793.2929292929292 430.949494949495,783.7575757575758 440.4848484848485,783.7575757575758 450.0202020202021,783.7575757575758 459.55555555555554,783.7575757575758 469.09090909090907,783.7575757575758 478.62626262626264,783.7575757575758 488.16161616161617,783.7575757575758 497.69696969696975,783.7575757575758 507.2323232323232,783.7575757575758 516.7676767676768,783.7575757575758 526.3030303030303,783.7575757575758 535.8383838383838,783.7575757575758 545.3737373737374,783.7575757575758 554.9090909090909,783.7575757575758 564.4444444444445,783.7575757575758 573.9797979797979,783.7575757575758 583.5151515151515,783.7575757575758 593.0505050505051,783.7575757575758 602.5858585858585,783.7575757575758 612.1212121212121,783.7575757575758 621.6565656565656,783.7575757575758" fill="none" stroke="rgba(0,0,255,0.75)" stroke-width="14.159999999999995"/></g><g><polyline data-points="1.1616161616161622,-2.8787878787878785 1.262626262626263,-2.8787878787878785 1.3636363636363644,-2.8787878787878785 1.4646464646464652,-2.8787878787878785 1.5656565656565666,-2.8787878787878785 1.6666666666666674,-2.8787878787878785 1.767676767676768,-2.8787878787878785 1.8686868686868696,-2.8787878787878785 1.9696969696969702,-2.8787878787878785 2.070707070707072,-2.8787878787878785 2.1717171717171726,-2.8787878787878785 2.2727272727272734,-2.8787878787878785 2.373737373737375,-2.8787878787878785" data-type="line" data-label="" points="621.6565656565656,783.7575757575758 631.1919191919192,783.7575757575758 640.7272727272727,783.7575757575758 650.2626262626262,783.7575757575758 659.7979797979798,783.7575757575758 669.3333333333333,783.7575757575758 678.8686868686868,783.7575757575758 688.4040404040404,783.7575757575758 697.9393939393939,783.7575757575758 707.4747474747475,783.7575757575758 717.0101010101009,783.7575757575758 726.5454545454545,783.7575757575758 736.0808080808081,783.7575757575758" fill="none" stroke="rgba(255,0,0,0.75)" stroke-width="14.159999999999995"/></g><g><polyline data-points="2.373737373737375,-2.8787878787878785 2.4747474747474754,-2.7777777777777777 2.575757575757577,-2.6767676767676765 2.575757575757577,-2.5757575757575752 2.575757575757577,-2.474747474747474 2.575757575757577,-2.3737373737373733 2.575757575757577,-2.2727272727272725 2.575757575757577,-2.1717171717171713 2.575757575757577,-2.07070707070707 2.575757575757577,-1.9696969696969693 2.575757575757577,-1.8686868686868683 2.575757575757577,-1.7676767676767675 2.575757575757577,-1.6666666666666665 2.575757575757577,-1.5656565656565653 2.676767676767678,-1.4646464646464643" data-type="line" data-label="" points="736.0808080808081,783.7575757575758 745.6161616161615,774.2222222222222 755.1515151515151,764.6868686868687 755.1515151515151,755.1515151515151 755.1515151515151,745.6161616161615 755.1515151515151,736.0808080808081 755.1515151515151,726.5454545454545 755.1515151515151,717.010101010101 755.1515151515151,707.4747474747475 755.1515151515151,697.939393939394 755.1515151515151,688.4040404040404 755.1515151515151,678.8686868686868 755.1515151515151,669.3333333333334 755.1515151515151,659.7979797979798 764.6868686868686,650.2626262626263" fill="none" stroke="rgba(0,0,255,0.75)" stroke-width="14.159999999999995"/></g><g><polyline data-points="2.676767676767678,-1.4646464646464643 2.7777777777777786,-1.363636363636363 2.87878787878788,-1.2626262626262625 2.9797979797979806,-1.1616161616161613 3.080808080808082,-1.0606060606060603 3.181818181818183,-0.9595959595959596 3.2828282828282833,-0.8585858585858579 3.383838383838384,-0.7575757575757572 3.4848484848484866,-0.6565656565656557 3.5858585858585874,-0.555555555555555 3.6868686868686877,-0.4545454545454544 3.6868686868686877,-0.35353535353535287 3.7878787878787885,-0.2525252525252522 3.6868686868686877,-0.15151515151515066 3.6868686868686877,-0.05050505050505001 3.5858585858585874,0.050505050505051545 3.4848484848484866,0.1515151515151522 3.383838383838384,0.2525252525252529 3.2828282828282833,0.3535353535353544 3.181818181818183,0.4545454545454551 3.080808080808082,0.5555555555555567 2.9797979797979806,0.6565656565656574 2.87878787878788,0.7575757575757579 2.7777777777777786,0.8585858585858596 2.676767676767678,0.9595959595959602 2.676767676767678,1.0606060606060617 2.676767676767678,1.1616161616161622 2.676767676767678,1.262626262626263 2.676767676767678,1.3636363636363644 2.676767676767678,1.4646464646464652 2.676767676767678,1.5656565656565666 2.676767676767678,1.6666666666666674 2.676767676767678,1.767676767676768 2.676767676767678,1.8686868686868696 2.676767676767678,1.9696969696969702 2.676767676767678,2.070707070707072 2.676767676767678,2.1717171717171726 2.676767676767678,2.2727272727272734 2.676767676767678,2.373737373737375 2.676767676767678,2.4747474747474754 2.676767676767678,2.575757575757577 2.676767676767678,2.676767676767678 2.676767676767678,2.7777777777777786 2.676767676767678,2.87878787878788 2.676767676767678,2.9797979797979806 2.676767676767678,3.080808080808082 2.676767676767678,3.181818181818183 2.676767676767678,3.2828282828282833 2.676767676767678,3.383838383838384 2.676767676767678,3.4848484848484866 2.676767676767678,3.5858585858585874 2.676767676767678,3.6868686868686877 2.676767676767678,3.7878787878787885 2.676767676767678,3.8888888888888893 2.676767676767678,3.989898989898992 2.676767676767678,4.090909090909092 2.676767676767678,4.191919191919193 2.676767676767678,4.292929292929293 2.676767676767678,4.393939393939394 2.676767676767678,4.494949494949497 2.676767676767678,4.595959595959597 2.676767676767678,4.696969696969697 2.676767676767678,4.7979797979797985 2.676767676767678,4.898989898989901 2.575757575757577,5.000000000000002" data-type="line" data-label="" points="764.6868686868686,650.2626262626263 774.2222222222222,640.7272727272727 783.7575757575758,631.1919191919193 793.2929292929292,621.6565656565657 802.8282828282828,612.1212121212121 812.3636363636363,602.5858585858587 821.8989898989898,593.0505050505051 831.4343434343433,583.5151515151516 840.969696969697,573.979797979798 850.5050505050505,564.4444444444445 860.0404040404039,554.909090909091 860.0404040404039,545.3737373737374 869.5757575757575,535.838383838384 860.0404040404039,526.3030303030304 860.0404040404039,516.7676767676768 850.5050505050505,507.23232323232327 840.969696969697,497.69696969696975 831.4343434343433,488.1616161616163 821.8989898989898,478.6262626262627 812.3636363636363,469.0909090909092 802.8282828282828,459.5555555555556 793.2929292929292,450.0202020202021 783.7575757575758,440.4848484848486 774.2222222222222,430.94949494949503 764.6868686868686,421.4141414141415 764.6868686868686,411.87878787878793 764.6868686868686,402.3434343434344 764.6868686868686,392.80808080808094 764.6868686868686,383.27272727272737 764.6868686868686,373.73737373737384 764.6868686868686,364.2020202020203 764.6868686868686,354.66666666666674 764.6868686868686,345.1313131313133 764.6868686868686,335.5959595959597 764.6868686868686,326.06060606060623 764.6868686868686,316.5252525252526 764.6868686868686,306.9898989898991 764.6868686868686,297.4545454545456 764.6868686868686,287.91919191919203 764.6868686868686,278.38383838383857 764.6868686868686,268.84848484848493 764.6868686868686,259.3131313131314 764.6868686868686,249.77777777777794 764.6868686868686,240.24242424242436 764.6868686868686,230.70707070707084 764.6868686868686,221.17171717171726 764.6868686868686,211.63636363636374 764.6868686868686,202.10101010101027 764.6868686868686,192.56565656565675 764.6868686868686,183.03030303030312 764.6868686868686,173.4949494949496 764.6868686868686,163.95959595959613 764.6868686868686,154.4242424242426 764.6868686868686,144.88888888888908 764.6868686868686,135.35353535353545 764.6868686868686,125.81818181818198 764.6868686868686,116.28282828282846 764.6868686868686,106.747474747475 764.6868686868686,97.21212121212153 764.6868686868686,87.67676767676778 764.6868686868686,78.14141414141432 764.6868686868686,68.60606060606085 764.6868686868686,59.07070707070733 764.6868686868686,49.53535353535369 755.1515151515151,40.000000000000114" fill="none" stroke="rgba(255,0,0,0.75)" stroke-width="14.159999999999995"/></g><g><polyline data-points="5.000000000000002,0.7575757575757579 4.898989898989901,0.7575757575757579 4.7979797979797985,0.7575757575757579 4.696969696969697,0.7575757575757579 4.595959595959597,0.7575757575757579 4.494949494949497,0.7575757575757579 4.393939393939394,0.7575757575757579 4.292929292929293,0.7575757575757579 4.191919191919193,0.6565656565656574 4.090909090909092,0.5555555555555567 3.989898989898992,0.4545454545454551" data-type="line" data-label="" points="984,440.4848484848486 974.4646464646464,440.4848484848486 964.9292929292927,440.4848484848486 955.3939393939393,440.4848484848486 945.8585858585857,440.4848484848486 936.3232323232323,440.4848484848486 926.7878787878785,440.4848484848486 917.2525252525251,440.4848484848486 907.7171717171716,450.0202020202021 898.181818181818,459.5555555555556 888.6464646464647,469.0909090909092" fill="none" stroke="rgba(0,0,255,0.75)" stroke-width="14.159999999999995"/></g><g><polyline data-points="3.989898989898992,0.4545454545454551 3.8888888888888893,0.5555555555555567 3.7878787878787885,0.6565656565656574 3.6868686868686877,0.7575757575757579 3.5858585858585874,0.8585858585858596 3.4848484848484866,0.9595959595959602 3.383838383838384,1.0606060606060617 3.2828282828282833,1.1616161616161622 3.2828282828282833,1.262626262626263 3.2828282828282833,1.3636363636363644" data-type="line" data-label="" points="888.6464646464647,469.0909090909092 879.111111111111,459.5555555555556 869.5757575757575,450.0202020202021 860.0404040404039,440.4848484848486 850.5050505050505,430.94949494949503 840.969696969697,421.4141414141415 831.4343434343433,411.87878787878793 821.8989898989898,402.3434343434344 821.8989898989898,392.80808080808094 821.8989898989898,383.27272727272737" fill="none" stroke="rgba(255,0,0,0.75)" stroke-width="14.159999999999995"/></g><g><polyline data-points="3.2828282828282833,1.3636363636363644 3.181818181818183,1.262626262626263 3.080808080808082,1.1616161616161622 2.9797979797979806,1.0606060606060617 2.87878787878788,1.0606060606060617 2.7777777777777786,1.0606060606060617 2.676767676767678,1.0606060606060617 2.575757575757577,1.0606060606060617 2.4747474747474754,1.0606060606060617 2.373737373737375,1.0606060606060617 2.2727272727272734,1.0606060606060617 2.1717171717171726,1.0606060606060617 2.070707070707072,1.0606060606060617 1.9696969696969702,1.0606060606060617" data-type="line" data-label="" points="821.8989898989898,383.27272727272737 812.3636363636363,392.80808080808094 802.8282828282828,402.3434343434344 793.2929292929292,411.87878787878793 783.7575757575758,411.87878787878793 774.2222222222222,411.87878787878793 764.6868686868686,411.87878787878793 755.1515151515151,411.87878787878793 745.6161616161615,411.87878787878793 736.0808080808081,411.87878787878793 726.5454545454545,411.87878787878793 717.0101010101009,411.87878787878793 707.4747474747475,411.87878787878793 697.9393939393939,411.87878787878793" fill="none" stroke="rgba(0,0,255,0.75)" stroke-width="14.159999999999995"/></g><g><polyline data-points="1.9696969696969702,1.0606060606060617 1.8686868686868696,1.0606060606060617 1.767676767676768,1.0606060606060617 1.6666666666666674,1.0606060606060617 1.5656565656565666,1.0606060606060617 1.4646464646464652,1.0606060606060617 1.3636363636363644,1.0606060606060617 1.262626262626263,1.0606060606060617 1.1616161616161622,1.0606060606060617 1.0606060606060617,1.0606060606060617 0.9595959595959602,1.0606060606060617 0.8585858585858596,1.0606060606060617 0.7575757575757579,1.0606060606060617 0.6565656565656574,1.0606060606060617 0.5555555555555567,1.0606060606060617 0.4545454545454551,1.0606060606060617 0.3535353535353544,1.0606060606060617 0.2525252525252529,1.0606060606060617 0.1515151515151522,1.0606060606060617 0.050505050505051545,1.0606060606060617" data-type="line" data-label="" points="697.9393939393939,411.87878787878793 688.4040404040404,411.87878787878793 678.8686868686868,411.87878787878793 669.3333333333333,411.87878787878793 659.7979797979798,411.87878787878793 650.2626262626262,411.87878787878793 640.7272727272727,411.87878787878793 631.1919191919192,411.87878787878793 621.6565656565656,411.87878787878793 612.1212121212121,411.87878787878793 602.5858585858585,411.87878787878793 593.0505050505051,411.87878787878793 583.5151515151515,411.87878787878793 573.9797979797979,411.87878787878793 564.4444444444445,411.87878787878793 554.9090909090909,411.87878787878793 545.3737373737374,411.87878787878793 535.8383838383838,411.87878787878793 526.3030303030303,411.87878787878793 516.7676767676768,411.87878787878793" fill="none" stroke="rgba(255,0,0,0.75)" stroke-width="14.159999999999995"/></g><g><polyline data-points="0.050505050505051545,1.0606060606060617 -0.05050505050505001,1.0606060606060617 -0.15151515151515066,1.0606060606060617 -0.2525252525252522,0.9595959595959602 -0.35353535353535287,0.8585858585858596 -0.4545454545454544,0.7575757575757579 -0.555555555555555,0.6565656565656574 -0.6565656565656557,0.5555555555555567 -0.7575757575757572,0.4545454545454551 -0.8585858585858579,0.3535353535353544 -0.9595959595959596,0.2525252525252529 -1.0606060606060603,0.2525252525252529 -1.1616161616161613,0.1515151515151522 -1.2626262626262625,0.2525252525252529 -1.363636363636363,0.2525252525252529 -1.4646464646464643,0.3535353535353544 -1.5656565656565653,0.4545454545454551 -1.6666666666666665,0.5555555555555567 -1.7676767676767675,0.6565656565656574 -1.8686868686868683,0.7575757575757579 -1.9696969696969693,0.8585858585858596 -2.07070707070707,0.9595959595959602 -2.1717171717171713,1.0606060606060617 -2.2727272727272725,1.0606060606060617 -2.3737373737373733,1.0606060606060617 -2.474747474747474,1.0606060606060617 -2.5757575757575752,1.0606060606060617 -2.6767676767676765,1.0606060606060617 -2.7777777777777777,1.0606060606060617 -2.8787878787878785,1.0606060606060617 -2.9797979797979792,1.0606060606060617 -3.0808080808080804,1.0606060606060617 -3.1818181818181817,1.0606060606060617 -3.2828282828282824,1.0606060606060617 -3.383838383838383,1.0606060606060617 -3.484848484848485,1.0606060606060617 -3.5858585858585856,1.0606060606060617 -3.6868686868686864,1.0606060606060617 -3.7878787878787876,1.0606060606060617 -3.8888888888888884,1.0606060606060617 -3.98989898989899,1.0606060606060617 -4.090909090909091,1.0606060606060617 -4.191919191919193,1.0606060606060617 -4.292929292929293,1.0606060606060617 -4.393939393939394,1.0606060606060617 -4.494949494949496,1.0606060606060617 -4.595959595959596,1.0606060606060617 -4.696969696969697,1.0606060606060617 -4.7979797979797985,1.0606060606060617 -4.898989898989899,1.0606060606060617 -5.000000000000001,1.0606060606060617" data-type="line" data-label="" points="516.7676767676768,411.87878787878793 507.2323232323232,411.87878787878793 497.69696969696975,411.87878787878793 488.16161616161617,421.4141414141415 478.62626262626264,430.94949494949503 469.09090909090907,440.4848484848486 459.55555555555554,450.0202020202021 450.0202020202021,459.5555555555556 440.4848484848485,469.0909090909092 430.949494949495,478.6262626262627 421.4141414141414,488.1616161616163 411.8787878787879,488.1616161616163 402.34343434343435,497.69696969696975 392.80808080808083,488.1616161616163 383.2727272727273,488.1616161616163 373.7373737373738,478.6262626262627 364.2020202020202,469.0909090909092 354.6666666666667,459.5555555555556 345.13131313131316,450.0202020202021 335.59595959595964,440.4848484848486 326.0606060606061,430.94949494949503 316.5252525252526,421.4141414141415 306.9898989898991,411.87878787878793 297.4545454545455,411.87878787878793 287.91919191919203,411.87878787878793 278.38383838383845,411.87878787878793 268.84848484848493,411.87878787878793 259.3131313131314,411.87878787878793 249.77777777777783,411.87878787878793 240.2424242424243,411.87878787878793 230.70707070707084,411.87878787878793 221.17171717171726,411.87878787878793 211.63636363636374,411.87878787878793 202.10101010101022,411.87878787878793 192.5656565656567,411.87878787878793 183.03030303030312,411.87878787878793 173.4949494949496,411.87878787878793 163.95959595959607,411.87878787878793 154.42424242424255,411.87878787878793 144.88888888888903,411.87878787878793 135.35353535353545,411.87878787878793 125.81818181818193,411.87878787878793 116.28282828282829,411.87878787878793 106.74747474747483,411.87878787878793 97.21212121212136,411.87878787878793 87.67676767676772,411.87878787878793 78.14141414141426,411.87878787878793 68.60606060606068,411.87878787878793 59.07070707070716,411.87878787878793 49.53535353535369,411.87878787878793 40.00000000000006,411.87878787878793" fill="none" stroke="rgba(0,0,255,0.75)" stroke-width="14.159999999999995"/></g><g><polyline data-points="-5.000000000000001,-4.191919191919193 -4.898989898989899,-4.191919191919193 -4.7979797979797985,-4.090909090909091 -4.696969696969697,-3.98989898989899 -4.595959595959596,-3.8888888888888884 -4.494949494949496,-3.7878787878787876 -4.393939393939394,-3.6868686868686864 -4.292929292929293,-3.5858585858585856 -4.191919191919193,-3.484848484848485 -4.090909090909091,-3.383838383838383 -3.98989898989899,-3.2828282828282824 -3.8888888888888884,-3.1818181818181817 -3.7878787878787876,-3.0808080808080804 -3.6868686868686864,-2.9797979797979792 -3.5858585858585856,-2.8787878787878785 -3.484848484848485,-2.7777777777777777 -3.383838383838383,-2.6767676767676765 -3.2828282828282824,-2.5757575757575752 -3.1818181818181817,-2.474747474747474 -3.0808080808080804,-2.3737373737373733 -2.9797979797979792,-2.2727272727272725 -2.8787878787878785,-2.1717171717171713 -2.7777777777777777,-2.07070707070707 -2.6767676767676765,-1.9696969696969693 -2.5757575757575752,-1.8686868686868683 -2.474747474747474,-1.7676767676767675 -2.3737373737373733,-1.7676767676767675 -2.2727272727272725,-1.7676767676767675 -2.1717171717171713,-1.7676767676767675 -2.07070707070707,-1.7676767676767675 -1.9696969696969693,-1.7676767676767675 -1.8686868686868683,-1.7676767676767675 -1.7676767676767675,-1.7676767676767675 -1.6666666666666665,-1.7676767676767675 -1.5656565656565653,-1.7676767676767675 -1.4646464646464643,-1.7676767676767675 -1.363636363636363,-1.7676767676767675 -1.2626262626262625,-1.7676767676767675 -1.1616161616161613,-1.7676767676767675 -1.0606060606060603,-1.7676767676767675 -0.9595959595959596,-1.7676767676767675 -0.8585858585858579,-1.7676767676767675 -0.7575757575757572,-1.7676767676767675 -0.6565656565656557,-1.7676767676767675 -0.555555555555555,-1.7676767676767675 -0.4545454545454544,-1.7676767676767675 -0.35353535353535287,-1.7676767676767675 -0.2525252525252522,-1.7676767676767675 -0.15151515151515066,-1.6666666666666665 -0.05050505050505001,-1.5656565656565653 0.050505050505051545,-1.4646464646464643 0.1515151515151522,-1.363636363636363 0.2525252525252529,-1.2626262626262625 0.3535353535353544,-1.1616161616161613 0.4545454545454551,-1.0606060606060603 0.5555555555555567,-0.9595959595959596 0.6565656565656574,-0.8585858585858579 0.7575757575757579,-0.7575757575757572 0.8585858585858596,-0.6565656565656557 0.9595959595959602,-0.555555555555555 1.0606060606060617,-0.555555555555555 1.1616161616161622,-0.555555555555555 1.262626262626263,-0.4545454545454544 1.3636363636363644,-0.4545454545454544 1.4646464646464652,-0.35353535353535287 1.5656565656565666,-0.2525252525252522 1.6666666666666674,-0.15151515151515066 1.6666666666666674,-0.05050505050505001 1.6666666666666674,0.050505050505051545 1.6666666666666674,0.1515151515151522 1.6666666666666674,0.2525252525252529 1.6666666666666674,0.3535353535353544 1.6666666666666674,0.4545454545454551 1.6666666666666674,0.5555555555555567 1.6666666666666674,0.6565656565656574 1.6666666666666674,0.7575757575757579 1.5656565656565666,0.8585858585858596 1.5656565656565666,0.9595959595959602 1.4646464646464652,1.0606060606060617 1.5656565656565666,1.1616161616161622 1.5656565656565666,1.262626262626263 1.6666666666666674,1.3636363636363644 1.6666666666666674,1.4646464646464652 1.6666666666666674,1.5656565656565666 1.6666666666666674,1.6666666666666674 1.6666666666666674,1.767676767676768 1.6666666666666674,1.8686868686868696 1.6666666666666674,1.9696969696969702 1.6666666666666674,2.070707070707072 1.6666666666666674,2.1717171717171726 1.6666666666666674,2.2727272727272734 1.6666666666666674,2.373737373737375 1.6666666666666674,2.4747474747474754 1.6666666666666674,2.575757575757577 1.6666666666666674,2.676767676767678 1.6666666666666674,2.7777777777777786 1.6666666666666674,2.87878787878788 1.6666666666666674,2.9797979797979806 1.6666666666666674,3.080808080808082 1.6666666666666674,3.181818181818183 1.6666666666666674,3.2828282828282833 1.6666666666666674,3.383838383838384 1.6666666666666674,3.4848484848484866 1.6666666666666674,3.5858585858585874 1.767676767676768,3.6868686868686877 1.8686868686868696,3.7878787878787885 1.9696969696969702,3.8888888888888893 2.070707070707072,3.989898989898992 2.1717171717171726,3.989898989898992 2.2727272727272734,3.989898989898992 2.373737373737375,3.989898989898992 2.4747474747474754,3.989898989898992 2.575757575757577,3.989898989898992 2.676767676767678,3.989898989898992 2.7777777777777786,3.989898989898992 2.87878787878788,3.989898989898992 2.9797979797979806,3.989898989898992 3.080808080808082,3.989898989898992 3.181818181818183,3.989898989898992 3.2828282828282833,3.989898989898992 3.383838383838384,3.989898989898992 3.4848484848484866,3.989898989898992 3.5858585858585874,3.989898989898992" data-type="line" data-label="" points="40.00000000000006,907.7171717171718 49.53535353535369,907.7171717171718 59.07070707070716,898.1818181818181 68.60606060606068,888.6464646464647 78.14141414141426,879.1111111111111 87.67676767676772,869.5757575757575 97.21212121212136,860.0404040404039 106.74747474747483,850.5050505050505 116.28282828282829,840.969696969697 125.81818181818193,831.4343434343434 135.35353535353545,821.8989898989898 144.88888888888903,812.3636363636363 154.42424242424255,802.8282828282828 163.95959595959607,793.2929292929292 173.4949494949496,783.7575757575758 183.03030303030312,774.2222222222222 192.5656565656567,764.6868686868687 202.10101010101022,755.1515151515151 211.63636363636374,745.6161616161615 221.17171717171726,736.0808080808081 230.70707070707084,726.5454545454545 240.2424242424243,717.010101010101 249.77777777777783,707.4747474747475 259.3131313131314,697.939393939394 268.84848484848493,688.4040404040404 278.38383838383845,678.8686868686868 287.91919191919203,678.8686868686868 297.4545454545455,678.8686868686868 306.9898989898991,678.8686868686868 316.5252525252526,678.8686868686868 326.0606060606061,678.8686868686868 335.59595959595964,678.8686868686868 345.13131313131316,678.8686868686868 354.6666666666667,678.8686868686868 364.2020202020202,678.8686868686868 373.7373737373738,678.8686868686868 383.2727272727273,678.8686868686868 392.80808080808083,678.8686868686868 402.34343434343435,678.8686868686868 411.8787878787879,678.8686868686868 421.4141414141414,678.8686868686868 430.949494949495,678.8686868686868 440.4848484848485,678.8686868686868 450.0202020202021,678.8686868686868 459.55555555555554,678.8686868686868 469.09090909090907,678.8686868686868 478.62626262626264,678.8686868686868 488.16161616161617,678.8686868686868 497.69696969696975,669.3333333333334 507.2323232323232,659.7979797979798 516.7676767676768,650.2626262626263 526.3030303030303,640.7272727272727 535.8383838383838,631.1919191919193 545.3737373737374,621.6565656565657 554.9090909090909,612.1212121212121 564.4444444444445,602.5858585858587 573.9797979797979,593.0505050505051 583.5151515151515,583.5151515151516 593.0505050505051,573.979797979798 602.5858585858585,564.4444444444445 612.1212121212121,564.4444444444445 621.6565656565656,564.4444444444445 631.1919191919192,554.909090909091 640.7272727272727,554.909090909091 650.2626262626262,545.3737373737374 659.7979797979798,535.838383838384 669.3333333333333,526.3030303030304 669.3333333333333,516.7676767676768 669.3333333333333,507.23232323232327 669.3333333333333,497.69696969696975 669.3333333333333,488.1616161616163 669.3333333333333,478.6262626262627 669.3333333333333,469.0909090909092 669.3333333333333,459.5555555555556 669.3333333333333,450.0202020202021 669.3333333333333,440.4848484848486 659.7979797979798,430.94949494949503 659.7979797979798,421.4141414141415 650.2626262626262,411.87878787878793 659.7979797979798,402.3434343434344 659.7979797979798,392.80808080808094 669.3333333333333,383.27272727272737 669.3333333333333,373.73737373737384 669.3333333333333,364.2020202020203 669.3333333333333,354.66666666666674 669.3333333333333,345.1313131313133 669.3333333333333,335.5959595959597 669.3333333333333,326.06060606060623 669.3333333333333,316.5252525252526 669.3333333333333,306.9898989898991 669.3333333333333,297.4545454545456 669.3333333333333,287.91919191919203 669.3333333333333,278.38383838383857 669.3333333333333,268.84848484848493 669.3333333333333,259.3131313131314 669.3333333333333,249.77777777777794 669.3333333333333,240.24242424242436 669.3333333333333,230.70707070707084 669.3333333333333,221.17171717171726 669.3333333333333,211.63636363636374 669.3333333333333,202.10101010101027 669.3333333333333,192.56565656565675 669.3333333333333,183.03030303030312 669.3333333333333,173.4949494949496 678.8686868686868,163.95959595959613 688.4040404040404,154.4242424242426 697.9393939393939,144.88888888888908 707.4747474747475,135.35353535353545 717.0101010101009,135.35353535353545 726.5454545454545,135.35353535353545 736.0808080808081,135.35353535353545 745.6161616161615,135.35353535353545 755.1515151515151,135.35353535353545 764.6868686868686,135.35353535353545 774.2222222222222,135.35353535353545 783.7575757575758,135.35353535353545 793.2929292929292,135.35353535353545 802.8282828282828,135.35353535353545 812.3636363636363,135.35353535353545 821.8989898989898,135.35353535353545 831.4343434343433,135.35353535353545 840.969696969697,135.35353535353545 850.5050505050505,135.35353535353545" fill="none" stroke="rgba(0,0,255,0.75)" stroke-width="14.159999999999995"/></g><g><polyline data-points="3.5858585858585874,3.989898989898992 3.6868686868686877,4.090909090909092 3.6868686868686877,4.191919191919193 3.6868686868686877,4.292929292929293 3.6868686868686877,4.393939393939394 3.6868686868686877,4.494949494949497 3.6868686868686877,4.595959595959597 3.6868686868686877,4.696969696969697 3.6868686868686877,4.7979797979797985 3.6868686868686877,4.898989898989901 3.6868686868686877,5.000000000000002" data-type="line" data-label="" points="850.5050505050505,135.35353535353545 860.0404040404039,125.81818181818198 860.0404040404039,116.28282828282846 860.0404040404039,106.747474747475 860.0404040404039,97.21212121212153 860.0404040404039,87.67676767676778 860.0404040404039,78.14141414141432 860.0404040404039,68.60606060606085 860.0404040404039,59.07070707070733 860.0404040404039,49.53535353535369 860.0404040404039,40.000000000000114" fill="none" stroke="rgba(255,0,0,0.75)" stroke-width="14.159999999999995"/></g><g><polyline data-points="3.5858585858585874,-5.000000000000001 3.4848484848484866,-5.000000000000001 3.383838383838384,-4.898989898989899 3.2828282828282833,-4.7979797979797985 3.181818181818183,-4.696969696969697 3.080808080808082,-4.595959595959596 2.9797979797979806,-4.494949494949496 2.87878787878788,-4.393939393939394 2.7777777777777786,-4.292929292929293 2.87878787878788,-4.191919191919193 2.87878787878788,-4.090909090909091 2.87878787878788,-3.98989898989899 2.87878787878788,-3.8888888888888884 2.87878787878788,-3.7878787878787876 2.87878787878788,-3.6868686868686864 2.87878787878788,-3.5858585858585856 2.87878787878788,-3.484848484848485 2.87878787878788,-3.383838383838383 2.87878787878788,-3.2828282828282824 2.87878787878788,-3.1818181818181817 2.87878787878788,-3.0808080808080804 2.87878787878788,-2.9797979797979792 2.87878787878788,-2.8787878787878785 2.87878787878788,-2.7777777777777777 2.87878787878788,-2.6767676767676765 2.87878787878788,-2.5757575757575752 2.87878787878788,-2.474747474747474 2.87878787878788,-2.3737373737373733 2.9797979797979806,-2.2727272727272725 3.080808080808082,-2.1717171717171713 3.181818181818183,-2.07070707070707" data-type="line" data-label="" points="850.5050505050505,984 840.969696969697,984 831.4343434343433,974.4646464646464 821.8989898989898,964.9292929292928 812.3636363636363,955.3939393939394 802.8282828282828,945.8585858585858 793.2929292929292,936.3232323232323 783.7575757575758,926.7878787878788 774.2222222222222,917.2525252525252 783.7575757575758,907.7171717171718 783.7575757575758,898.1818181818181 783.7575757575758,888.6464646464647 783.7575757575758,879.1111111111111 783.7575757575758,869.5757575757575 783.7575757575758,860.0404040404039 783.7575757575758,850.5050505050505 783.7575757575758,840.969696969697 783.7575757575758,831.4343434343434 783.7575757575758,821.8989898989898 783.7575757575758,812.3636363636363 783.7575757575758,802.8282828282828 783.7575757575758,793.2929292929292 783.7575757575758,783.7575757575758 783.7575757575758,774.2222222222222 783.7575757575758,764.6868686868687 783.7575757575758,755.1515151515151 783.7575757575758,745.6161616161615 783.7575757575758,736.0808080808081 793.2929292929292,726.5454545454545 802.8282828282828,717.010101010101 812.3636363636363,707.4747474747475" fill="none" stroke="rgba(0,0,255,0.75)" stroke-width="14.159999999999995"/></g><g><polyline data-points="3.181818181818183,-2.07070707070707 3.181818181818183,-1.9696969696969693 3.181818181818183,-1.8686868686868683 3.181818181818183,-1.7676767676767675 3.181818181818183,-1.6666666666666665 3.181818181818183,-1.5656565656565653 3.181818181818183,-1.4646464646464643 3.181818181818183,-1.363636363636363 3.181818181818183,-1.2626262626262625 3.2828282828282833,-1.1616161616161613 3.383838383838384,-1.0606060606060603 3.4848484848484866,-0.9595959595959596 3.5858585858585874,-0.8585858585858579 3.6868686868686877,-0.7575757575757572 3.7878787878787885,-0.6565656565656557 3.8888888888888893,-0.555555555555555 3.8888888888888893,-0.4545454545454544 3.989898989898992,-0.35353535353535287 3.989898989898992,-0.2525252525252522 3.989898989898992,-0.15151515151515066 4.090909090909092,-0.05050505050505001 4.191919191919193,0.050505050505051545 4.292929292929293,0.1515151515151522 4.393939393939394,0.2525252525252529 4.393939393939394,0.3535353535353544 4.494949494949497,0.4545454545454551 4.393939393939394,0.5555555555555567 4.393939393939394,0.6565656565656574 4.292929292929293,0.7575757575757579 4.191919191919193,0.8585858585858596 4.090909090909092,0.9595959595959602 3.989898989898992,1.0606060606060617 3.989898989898992,1.1616161616161622 3.989898989898992,1.262626262626263 3.989898989898992,1.3636363636363644 3.989898989898992,1.4646464646464652 3.989898989898992,1.5656565656565666 3.989898989898992,1.6666666666666674 3.989898989898992,1.767676767676768 3.989898989898992,1.8686868686868696 3.989898989898992,1.9696969696969702 3.989898989898992,2.070707070707072 3.989898989898992,2.1717171717171726 3.989898989898992,2.2727272727272734 3.989898989898992,2.373737373737375 3.989898989898992,2.4747474747474754 3.989898989898992,2.575757575757577 3.989898989898992,2.676767676767678 3.989898989898992,2.7777777777777786 3.989898989898992,2.87878787878788 3.989898989898992,2.9797979797979806 3.989898989898992,3.080808080808082 3.989898989898992,3.181818181818183 3.989898989898992,3.2828282828282833" data-type="line" data-label="" points="812.3636363636363,707.4747474747475 812.3636363636363,697.939393939394 812.3636363636363,688.4040404040404 812.3636363636363,678.8686868686868 812.3636363636363,669.3333333333334 812.3636363636363,659.7979797979798 812.3636363636363,650.2626262626263 812.3636363636363,640.7272727272727 812.3636363636363,631.1919191919193 821.8989898989898,621.6565656565657 831.4343434343433,612.1212121212121 840.969696969697,602.5858585858587 850.5050505050505,593.0505050505051 860.0404040404039,583.5151515151516 869.5757575757575,573.979797979798 879.111111111111,564.4444444444445 879.111111111111,554.909090909091 888.6464646464647,545.3737373737374 888.6464646464647,535.838383838384 888.6464646464647,526.3030303030304 898.181818181818,516.7676767676768 907.7171717171716,507.23232323232327 917.2525252525251,497.69696969696975 926.7878787878785,488.1616161616163 926.7878787878785,478.6262626262627 936.3232323232323,469.0909090909092 926.7878787878785,459.5555555555556 926.7878787878785,450.0202020202021 917.2525252525251,440.4848484848486 907.7171717171716,430.94949494949503 898.181818181818,421.4141414141415 888.6464646464647,411.87878787878793 888.6464646464647,402.3434343434344 888.6464646464647,392.80808080808094 888.6464646464647,383.27272727272737 888.6464646464647,373.73737373737384 888.6464646464647,364.2020202020203 888.6464646464647,354.66666666666674 888.6464646464647,345.1313131313133 888.6464646464647,335.5959595959597 888.6464646464647,326.06060606060623 888.6464646464647,316.5252525252526 888.6464646464647,306.9898989898991 888.6464646464647,297.4545454545456 888.6464646464647,287.91919191919203 888.6464646464647,278.38383838383857 888.6464646464647,268.84848484848493 888.6464646464647,259.3131313131314 888.6464646464647,249.77777777777794 888.6464646464647,240.24242424242436 888.6464646464647,230.70707070707084 888.6464646464647,221.17171717171726 888.6464646464647,211.63636363636374 888.6464646464647,202.10101010101027" fill="none" stroke="rgba(255,0,0,0.75)" stroke-width="14.159999999999995"/></g><g><polyline data-points="3.989898989898992,3.2828282828282833 3.989898989898992,3.383838383838384 3.989898989898992,3.4848484848484866 3.989898989898992,3.5858585858585874 3.989898989898992,3.6868686868686877 3.989898989898992,3.7878787878787885 3.989898989898992,3.8888888888888893 4.090909090909092,3.989898989898992 3.989898989898992,4.090909090909092 3.989898989898992,4.191919191919193 3.8888888888888893,4.292929292929293 3.7878787878787885,4.393939393939394 3.6868686868686877,4.494949494949497 3.5858585858585874,4.595959595959597 3.4848484848484866,4.696969696969697 3.383838383838384,4.7979797979797985 3.2828282828282833,4.898989898989901 3.181818181818183,4.898989898989901 3.080808080808082,4.898989898989901 2.9797979797979806,4.898989898989901 2.87878787878788,4.898989898989901 2.7777777777777786,4.898989898989901 2.676767676767678,4.898989898989901 2.575757575757577,4.898989898989901 2.4747474747474754,4.898989898989901 2.373737373737375,4.898989898989901 2.2727272727272734,4.898989898989901 2.1717171717171726,4.898989898989901 2.070707070707072,4.898989898989901 1.9696969696969702,4.898989898989901 1.8686868686868696,4.898989898989901 1.767676767676768,5.000000000000002" data-type="line" data-label="" points="888.6464646464647,202.10101010101027 888.6464646464647,192.56565656565675 888.6464646464647,183.03030303030312 888.6464646464647,173.4949494949496 888.6464646464647,163.95959595959613 888.6464646464647,154.4242424242426 888.6464646464647,144.88888888888908 898.181818181818,135.35353535353545 888.6464646464647,125.81818181818198 888.6464646464647,116.28282828282846 879.111111111111,106.747474747475 869.5757575757575,97.21212121212153 860.0404040404039,87.67676767676778 850.5050505050505,78.14141414141432 840.969696969697,68.60606060606085 831.4343434343433,59.07070707070733 821.8989898989898,49.53535353535369 812.3636363636363,49.53535353535369 802.8282828282828,49.53535353535369 793.2929292929292,49.53535353535369 783.7575757575758,49.53535353535369 774.2222222222222,49.53535353535369 764.6868686868686,49.53535353535369 755.1515151515151,49.53535353535369 745.6161616161615,49.53535353535369 736.0808080808081,49.53535353535369 726.5454545454545,49.53535353535369 717.0101010101009,49.53535353535369 707.4747474747475,49.53535353535369 697.9393939393939,49.53535353535369 688.4040404040404,49.53535353535369 678.8686868686868,40.000000000000114" fill="none" stroke="rgba(0,0,255,0.75)" stroke-width="14.159999999999995"/></g><g><rect data-type="rect" data-label="" data-x="0" data-y="0" x="40.000000000000114" y="40.000000000000284" width="943.9999999999997" height="943.9999999999998" fill="none" stroke="gray" stroke-width="0.010593220338983056"/></g><g><rect data-type="rect" data-label="" data-x="0" data-y="0" x="40.000000000000114" y="40.000000000000284" width="943.9999999999997" height="943.9999999999998" fill="none" stroke="rgba(15, 23, 42, 0.8)" stroke-width="0.010593220338983056"/></g><circle data-type="circle" data-label="" data-x="-1.1616161616161613" data-y="0.6565656565656574" cx="402.34343434343435" cy="450.0202020202021" r="28.791999999999987" fill="rgba(0,0,0,0.3)" stroke="black" stroke-width="0.010593220338983056"/><circle data-type="circle" data-label="" data-x="2.373737373737375" data-y="-0.05050505050505001" cx="736.0808080808081" cy="516.7676767676768" r="28.791999999999987" fill="rgba(0,0,0,0.3)" stroke="black" stroke-width="0.010593220338983056"/><circle data-type="circle" data-label="" data-x="1.1616161616161622" data-y="-0.05050505050505001" cx="621.6565656565656" cy="516.7676767676768" r="28.791999999999987" fill="rgba(0,0,0,0.3)" stroke="black" stroke-width="0.010593220338983056"/><circle data-type="circle" data-label="" data-x="1.767676767676768" data-y="-3.98989898989899" cx="678.8686868686868" cy="888.6464646464647" r="28.791999999999987" fill="rgba(0,0,0,0.3)" stroke="black" stroke-width="0.010593220338983056"/><circle data-type="circle" data-label="" data-x="3.383838383838384" data-y="-3.98989898989899" cx="831.4343434343433" cy="888.6464646464647" r="28.791999999999987" fill="rgba(0,0,0,0.3)" stroke="black" stroke-width="0.010593220338983056"/><circle data-type="circle" data-label="" data-x="3.2828282828282833" data-y="-0.2525252525252522" cx="821.8989898989898" cy="535.838383838384" r="28.791999999999987" fill="rgba(0,0,0,0.3)" stroke="black" stroke-width="0.010593220338983056"/><circle data-type="circle" data-label="" data-x="0.6565656565656574" data-y="0.5555555555555567" cx="573.9797979797979" cy="459.5555555555556" r="28.791999999999987" fill="rgba(0,0,0,0.3)" stroke="black" stroke-width="0.010593220338983056"/><circle data-type="circle" data-label="" data-x="-3.98989898989899" data-y="-0.2525252525252522" cx="135.35353535353545" cy="535.838383838384" r="28.791999999999987" fill="rgba(0,0,0,0.3)" stroke="black" stroke-width="0.010593220338983056"/><circle data-type="circle" data-label="" data-x="-1.7676767676767675" data-y="-3.7878787878787876" cx="345.13131313131316" cy="869.5757575757575" r="28.791999999999987" fill="rgba(0,0,0,0.3)" stroke="black" stroke-width="0.010593220338983056"/><circle data-type="circle" data-label="" data-x="1.1616161616161622" data-y="-2.8787878787878785" cx="621.6565656565656" cy="783.7575757575758" r="28.791999999999987" fill="rgba(0,0,0,0.3)" stroke="black" stroke-width="0.010593220338983056"/><circle data-type="circle" data-label="" data-x="2.373737373737375" data-y="-2.8787878787878785" cx="736.0808080808081" cy="783.7575757575758" r="28.791999999999987" fill="rgba(0,0,0,0.3)" stroke="black" stroke-width="0.010593220338983056"/><circle data-type="circle" data-label="" data-x="2.676767676767678" data-y="-1.4646464646464643" cx="764.6868686868686" cy="650.2626262626263" r="28.791999999999987" fill="rgba(0,0,0,0.3)" stroke="black" stroke-width="0.010593220338983056"/><circle data-type="circle" data-label="" data-x="3.989898989898992" data-y="0.4545454545454551" cx="888.6464646464647" cy="469.0909090909092" r="28.791999999999987" fill="rgba(0,0,0,0.3)" stroke="black" stroke-width="0.010593220338983056"/><circle data-type="circle" data-label="" data-x="3.2828282828282833" data-y="1.3636363636363644" cx="821.8989898989898" cy="383.27272727272737" r="28.791999999999987" fill="rgba(0,0,0,0.3)" stroke="black" stroke-width="0.010593220338983056"/><circle data-type="circle" data-label="" data-x="1.9696969696969702" data-y="1.0606060606060617" cx="697.9393939393939" cy="411.87878787878793" r="28.791999999999987" fill="rgba(0,0,0,0.3)" stroke="black" stroke-width="0.010593220338983056"/><circle data-type="circle" data-label="" data-x="0.050505050505051545" data-y="1.0606060606060617" cx="516.7676767676768" cy="411.87878787878793" r="28.791999999999987" fill="rgba(0,0,0,0.3)" stroke="black" stroke-width="0.010593220338983056"/><circle data-type="circle" data-label="" data-x="3.5858585858585874" data-y="3.989898989898992" cx="850.5050505050505" cy="135.35353535353545" r="28.791999999999987" fill="rgba(0,0,0,0.3)" stroke="black" stroke-width="0.010593220338983056"/><circle data-type="circle" data-label="" data-x="3.181818181818183" data-y="-2.07070707070707" cx="812.3636363636363" cy="707.4747474747475" r="28.791999999999987" fill="rgba(0,0,0,0.3)" stroke="black" stroke-width="0.010593220338983056"/><circle data-type="circle" data-label="" data-x="3.989898989898992" data-y="3.2828282828282833" cx="888.6464646464647" cy="202.10101010101027" r="28.791999999999987" fill="rgba(0,0,0,0.3)" stroke="black" stroke-width="0.010593220338983056"/><g id="crosshair" style="display: none"><line id="crosshair-h" y1="0" y2="1024" stroke="#666" stroke-width="0.5"/><line id="crosshair-v" x1="0" x2="1024" stroke="#666" stroke-width="0.5"/><text id="coordinates" font-family="monospace" font-size="12" fill="#666"></text></g><script><![CDATA[
              document.currentScript.parentElement.addEventListener('mousemove', (e) => {
                const svg = e.currentTarget;
                const rect = svg.getBoundingClientRect();
                const x = e.clientX - rect.left;
                const y = e.clientY - rect.top;
                const crosshair = svg.getElementById('crosshair');
                const h = svg.getElementById('crosshair-h');
                const v = svg.getElementById('crosshair-v');
                const coords = svg.getElementById('coordinates');
                
                crosshair.style.display = 'block';
                h.setAttribute('x1', '0');
                h.setAttribute('x2', '1024');
                h.setAttribute('y1', y);
                h.setAttribute('y2', y);
                v.setAttribute('x1', x);
                v.setAttribute('x2', x);
                v.setAttribute('y1', '0');
                v.setAttribute('y2', '1024');

                // Calculate real coordinates using inverse transformation
                const matrix = {"a":94.39999999999996,"c":0,"e":511.99999999999994,"b":0,"d":-94.39999999999996,"f":512.0000000000001};
                // Manually invert and apply the affine transform
                // Since we only use translate and scale, we can directly compute:
                // x' = (x - tx) / sx
                // y' = (y - ty) / sy
                const sx = matrix.a;
                const sy = matrix.d;
                const tx = matrix.e; 
                const ty = matrix.f;
                const realPoint = {
                  x: (x - tx) / sx,
                  y: (y - ty) / sy // Flip y back since we used negative scale
                }
                
                coords.textContent = `(${realPoint.x.toFixed(2)}, ${realPoint.y.toFixed(2)})`;
                coords.setAttribute('x', (x + 5).toString());
                coords.setAttribute('y', (y - 5).toString());
              });
              document.currentScript.parentElement.addEventListener('mouseleave', () => {
                document.currentScript.parentElement.getElementById('crosshair').style.display = 'none';
              });
            ]]></script></svg>