<svg width="1024" height="1024" viewBox="0 0 1024 1024" xmlns="http://www.w3.org/2000/svg"><rect width="100%" height="100%" fill="white"/><g><circle data-type="point" data-label="conn_000" data-x="2.3000000000000003" data-y="5" cx="729.1199999999999" cy="40.000000000000284" r="28.792" fill="red" stroke="#3bbd0f" stroke-width="28.792"/></g><g><circle data-type="point" data-label="conn_000" data-x="-1.82" data-y="-5" cx="340.192" cy="984" r="28.792" fill="blue" stroke="#3bbd0f" stroke-width="28.792"/></g><g><circle data-type="point" data-label="conn_001" data-x="-5" data-y="-1.3" cx="40.000000000000114" cy="634.72" r="28.792" fill="blue" stroke="#170fbd" stroke-width="28.792"/></g><g><circle data-type="point" data-label="conn_001" data-x="5" data-y="3.62" cx="983.9999999999998" cy="170.27200000000022" r="28.792" fill="red" stroke="#170fbd" stroke-width="28.792"/></g><g><circle data-type="point" data-label="conn_002" data-x="-5" data-y="1.86" cx="40.000000000000114" cy="336.41600000000017" r="28.792" fill="red" stroke="#bd490f" stroke-width="28.792"/></g><g><circle data-type="point" data-label="conn_002" data-x="5" data-y="-4.12" cx="983.9999999999998" cy="900.928" r="28.792" fill="blue" stroke="#bd490f" stroke-width="28.792"/></g><g><circle data-type="point" data-label="conn_003" data-x="1.78" data-y="-5" cx="680.0319999999999" cy="984" r="28.792" fill="red" stroke="#0fbd7c" stroke-width="28.792"/></g><g><circle data-type="point" data-label="conn_003" data-x="-1.62" data-y="5" cx="359.072" cy="40.000000000000284" r="28.792" fill="red" stroke="#0fbd7c" stroke-width="28.792"/></g><g><circle data-type="point" data-label="conn_004" data-x="-5" data-y="0.42" cx="40.000000000000114" cy="472.35200000000015" r="28.792" fill="blue" stroke="#ae0fbd" stroke-width="28.792"/></g><g><circle data-type="point" data-label="conn_004" data-x="-3" data-y="5" cx="228.80000000000007" cy="40.000000000000284" r="28.792" fill="red" stroke="#ae0fbd" stroke-width="28.792"/></g><g><circle data-type="point" data-label="conn_005" data-x="-4.32" data-y="5" cx="104.19200000000006" cy="40.000000000000284" r="28.792" fill="blue" stroke="#98bd0f" stroke-width="28.792"/></g><g><circle data-type="point" data-label="conn_005" data-x="1.04" data-y="5" cx="610.1759999999999" cy="40.000000000000284" r="28.792" fill="red" stroke="#98bd0f" stroke-width="28.792"/></g><g><circle data-type="point" data-label="conn_006" data-x="-5" data-y="-2.36" cx="40.000000000000114" cy="734.784" r="28.792" fill="blue" stroke="#0f66bd" stroke-width="28.792"/></g><g><circle data-type="point" data-label="conn_006" data-x="-5" data-y="4" cx="40.000000000000114" cy="134.40000000000026" r="28.792" fill="red" stroke="#0f66bd" stroke-width="28.792"/></g><g><polyline data-points="-5.000000000000001,-1.2626262626262625 -4.898989898989899,-1.1616161616161613 -4.7979797979797985,-1.0606060606060603 -4.696969696969697,-0.9595959595959596 -4.595959595959596,-0.8585858585858579 -4.494949494949496,-0.7575757575757572 -4.393939393939394,-0.6565656565656557 -4.292929292929293,-0.555555555555555 -4.191919191919193,-0.4545454545454544 -4.090909090909091,-0.35353535353535287 -3.98989898989899,-0.2525252525252522 -3.8888888888888884,-0.15151515151515066 -3.7878787878787876,-0.05050505050505001 -3.6868686868686864,0.050505050505051545 -3.5858585858585856,0.1515151515151522 -3.484848484848485,0.2525252525252529 -3.383838383838383,0.3535353535353544 -3.2828282828282824,0.4545454545454551 -3.1818181818181817,0.5555555555555567 -3.0808080808080804,0.6565656565656574 -2.9797979797979792,0.7575757575757579 -2.8787878787878785,0.8585858585858596 -2.7777777777777777,0.9595959595959602 -2.6767676767676765,1.0606060606060617 -2.5757575757575752,1.1616161616161622 -2.474747474747474,1.262626262626263 -2.3737373737373733,1.3636363636363644 -2.2727272727272725,1.4646464646464652 -2.1717171717171713,1.5656565656565666 -2.07070707070707,1.6666666666666674 -1.9696969696969693,1.767676767676768 -1.8686868686868683,1.8686868686868696 -1.7676767676767675,1.9696969696969702 -1.6666666666666665,2.070707070707072 -1.5656565656565653,2.1717171717171726 -1.4646464646464643,2.2727272727272734 -1.363636363636363,2.373737373737375 -1.2626262626262625,2.4747474747474754 -1.1616161616161613,2.575757575757577 -1.0606060606060603,2.676767676767678 -0.9595959595959596,2.7777777777777786 -0.8585858585858579,2.87878787878788 -0.7575757575757572,2.9797979797979806 -0.6565656565656557,3.080808080808082 -0.555555555555555,3.181818181818183 -0.4545454545454544,3.2828282828282833 -0.35353535353535287,3.383838383838384 -0.2525252525252522,3.4848484848484866 -0.15151515151515066,3.5858585858585874 -0.05050505050505001,3.6868686868686877 0.050505050505051545,3.6868686868686877 0.1515151515151522,3.6868686868686877 0.2525252525252529,3.6868686868686877 0.3535353535353544,3.6868686868686877 0.4545454545454551,3.6868686868686877 0.5555555555555567,3.6868686868686877 0.6565656565656574,3.6868686868686877 0.7575757575757579,3.6868686868686877 0.8585858585858596,3.6868686868686877 0.9595959595959602,3.6868686868686877 1.0606060606060617,3.6868686868686877 1.1616161616161622,3.6868686868686877 1.262626262626263,3.6868686868686877 1.3636363636363644,3.6868686868686877 1.4646464646464652,3.6868686868686877 1.5656565656565666,3.6868686868686877 1.6666666666666674,3.6868686868686877 1.767676767676768,3.6868686868686877 1.8686868686868696,3.6868686868686877 1.9696969696969702,3.6868686868686877 2.070707070707072,3.6868686868686877 2.1717171717171726,3.6868686868686877 2.2727272727272734,3.6868686868686877 2.373737373737375,3.6868686868686877 2.4747474747474754,3.6868686868686877 2.575757575757577,3.6868686868686877 2.676767676767678,3.6868686868686877 2.7777777777777786,3.6868686868686877 2.87878787878788,3.6868686868686877 2.9797979797979806,3.6868686868686877 3.080808080808082,3.6868686868686877 3.181818181818183,3.6868686868686877 3.2828282828282833,3.6868686868686877 3.383838383838384,3.6868686868686877 3.4848484848484866,3.6868686868686877 3.5858585858585874,3.6868686868686877 3.6868686868686877,3.6868686868686877 3.7878787878787885,3.6868686868686877 3.8888888888888893,3.6868686868686877 3.989898989898992,3.6868686868686877" data-type="line" data-label="" points="40.00000000000006,631.1919191919193 49.53535353535369,621.6565656565657 59.07070707070716,612.1212121212121 68.60606060606068,602.5858585858587 78.14141414141426,593.0505050505051 87.67676767676772,583.5151515151516 97.21212121212136,573.979797979798 106.74747474747483,564.4444444444445 116.28282828282829,554.909090909091 125.81818181818193,545.3737373737374 135.35353535353545,535.838383838384 144.88888888888903,526.3030303030304 154.42424242424255,516.7676767676768 163.95959595959607,507.23232323232327 173.4949494949496,497.69696969696975 183.03030303030312,488.1616161616163 192.5656565656567,478.6262626262627 202.10101010101022,469.0909090909092 211.63636363636374,459.5555555555556 221.17171717171726,450.0202020202021 230.70707070707084,440.4848484848486 240.2424242424243,430.94949494949503 249.77777777777783,421.4141414141415 259.3131313131314,411.87878787878793 268.84848484848493,402.3434343434344 278.38383838383845,392.80808080808094 287.91919191919203,383.27272727272737 297.4545454545455,373.73737373737384 306.9898989898991,364.2020202020203 316.5252525252526,354.66666666666674 326.0606060606061,345.1313131313133 335.59595959595964,335.5959595959597 345.13131313131316,326.06060606060623 354.6666666666667,316.5252525252526 364.2020202020202,306.9898989898991 373.7373737373738,297.4545454545456 383.2727272727273,287.91919191919203 392.80808080808083,278.38383838383857 402.34343434343435,268.84848484848493 411.8787878787879,259.3131313131314 421.4141414141414,249.77777777777794 430.949494949495,240.24242424242436 440.4848484848485,230.70707070707084 450.0202020202021,221.17171717171726 459.55555555555554,211.63636363636374 469.09090909090907,202.10101010101027 478.62626262626264,192.56565656565675 488.16161616161617,183.03030303030312 497.69696969696975,173.4949494949496 507.2323232323232,163.95959595959613 516.7676767676768,163.95959595959613 526.3030303030303,163.95959595959613 535.8383838383838,163.95959595959613 545.3737373737374,163.95959595959613 554.9090909090909,163.95959595959613 564.4444444444445,163.95959595959613 573.9797979797979,163.95959595959613 583.5151515151515,163.95959595959613 593.0505050505051,163.95959595959613 602.5858585858585,163.95959595959613 612.1212121212121,163.95959595959613 621.6565656565656,163.95959595959613 631.1919191919192,163.95959595959613 640.7272727272727,163.95959595959613 650.2626262626262,163.95959595959613 659.7979797979798,163.95959595959613 669.3333333333333,163.95959595959613 678.8686868686868,163.95959595959613 688.4040404040404,163.95959595959613 697.9393939393939,163.95959595959613 707.4747474747475,163.95959595959613 717.0101010101009,163.95959595959613 726.5454545454545,163.95959595959613 736.0808080808081,163.95959595959613 745.6161616161615,163.95959595959613 755.1515151515151,163.95959595959613 764.6868686868686,163.95959595959613 774.2222222222222,163.95959595959613 783.7575757575758,163.95959595959613 793.2929292929292,163.95959595959613 802.8282828282828,163.95959595959613 812.3636363636363,163.95959595959613 821.8989898989898,163.95959595959613 831.4343434343433,163.95959595959613 840.969696969697,163.95959595959613 850.5050505050505,163.95959595959613 860.0404040404039,163.95959595959613 869.5757575757575,163.95959595959613 879.111111111111,163.95959595959613 888.6464646464647,163.95959595959613" fill="none" stroke="rgba(0,0,255,0.75)" stroke-width="14.159999999999995"/></g><g><polyline data-points="3.989898989898992,3.6868686868686877 4.090909090909092,3.6868686868686877 4.191919191919193,3.6868686868686877 4.292929292929293,3.6868686868686877 4.393939393939394,3.6868686868686877 4.494949494949497,3.6868686868686877 4.595959595959597,3.6868686868686877 4.696969696969697,3.6868686868686877 4.7979797979797985,3.6868686868686877 4.898989898989901,3.6868686868686877 5.000000000000002,3.6868686868686877" data-type="line" data-label="" points="888.6464646464647,163.95959595959613 898.181818181818,163.95959595959613 907.7171717171716,163.95959595959613 917.2525252525251,163.95959595959613 926.7878787878785,163.95959595959613 936.3232323232323,163.95959595959613 945.8585858585857,163.95959595959613 955.3939393939393,163.95959595959613 964.9292929292927,163.95959595959613 974.4646464646464,163.95959595959613 984,163.95959595959613" fill="none" stroke="rgba(255,0,0,0.75)" stroke-width="14.159999999999995"/></g><g><polyline data-points="-5.000000000000001,0.4545454545454551 -4.898989898989899,0.5555555555555567 -4.7979797979797985,0.6565656565656574 -4.696969696969697,0.7575757575757579 -4.595959595959596,0.8585858585858596 -4.494949494949496,0.9595959595959602 -4.393939393939394,1.0606060606060617 -4.292929292929293,1.1616161616161622 -4.191919191919193,1.262626262626263 -4.090909090909091,1.3636363636363644 -3.98989898989899,1.4646464646464652 -3.8888888888888884,1.5656565656565666 -3.7878787878787876,1.6666666666666674 -3.6868686868686864,1.767676767676768 -3.5858585858585856,1.8686868686868696 -3.484848484848485,1.9696969696969702 -3.383838383838383,2.070707070707072 -3.2828282828282824,2.1717171717171726 -3.1818181818181817,2.2727272727272734 -3.0808080808080804,2.373737373737375 -2.9797979797979792,2.4747474747474754 -2.9797979797979792,2.575757575757577 -2.9797979797979792,2.676767676767678 -2.9797979797979792,2.7777777777777786 -2.9797979797979792,2.87878787878788 -2.9797979797979792,2.9797979797979806 -2.9797979797979792,3.080808080808082 -2.9797979797979792,3.181818181818183 -2.9797979797979792,3.2828282828282833 -2.9797979797979792,3.383838383838384 -2.9797979797979792,3.4848484848484866 -2.9797979797979792,3.5858585858585874 -2.9797979797979792,3.6868686868686877 -2.9797979797979792,3.7878787878787885 -2.9797979797979792,3.8888888888888893 -2.9797979797979792,3.989898989898992" data-type="line" data-label="" points="40.00000000000006,469.0909090909092 49.53535353535369,459.5555555555556 59.07070707070716,450.0202020202021 68.60606060606068,440.4848484848486 78.14141414141426,430.94949494949503 87.67676767676772,421.4141414141415 97.21212121212136,411.87878787878793 106.74747474747483,402.3434343434344 116.28282828282829,392.80808080808094 125.81818181818193,383.27272727272737 135.35353535353545,373.73737373737384 144.88888888888903,364.2020202020203 154.42424242424255,354.66666666666674 163.95959595959607,345.1313131313133 173.4949494949496,335.5959595959597 183.03030303030312,326.06060606060623 192.5656565656567,316.5252525252526 202.10101010101022,306.9898989898991 211.63636363636374,297.4545454545456 221.17171717171726,287.91919191919203 230.70707070707084,278.38383838383857 230.70707070707084,268.84848484848493 230.70707070707084,259.3131313131314 230.70707070707084,249.77777777777794 230.70707070707084,240.24242424242436 230.70707070707084,230.70707070707084 230.70707070707084,221.17171717171726 230.70707070707084,211.63636363636374 230.70707070707084,202.10101010101027 230.70707070707084,192.56565656565675 230.70707070707084,183.03030303030312 230.70707070707084,173.4949494949496 230.70707070707084,163.95959595959613 230.70707070707084,154.4242424242426 230.70707070707084,144.88888888888908 230.70707070707084,135.35353535353545" fill="none" stroke="rgba(0,0,255,0.75)" stroke-width="14.159999999999995"/></g><g><polyline data-points="-2.9797979797979792,3.989898989898992 -2.9797979797979792,4.090909090909092 -2.9797979797979792,4.191919191919193 -2.9797979797979792,4.292929292929293 -2.9797979797979792,4.393939393939394 -2.9797979797979792,4.494949494949497 -2.9797979797979792,4.595959595959597 -2.9797979797979792,4.696969696969697 -2.9797979797979792,4.7979797979797985 -2.9797979797979792,4.898989898989901 -2.9797979797979792,5.000000000000002" data-type="line" data-label="" points="230.70707070707084,135.35353535353545 230.70707070707084,125.81818181818198 230.70707070707084,116.28282828282846 230.70707070707084,106.747474747475 230.70707070707084,97.21212121212153 230.70707070707084,87.67676767676778 230.70707070707084,78.14141414141432 230.70707070707084,68.60606060606085 230.70707070707084,59.07070707070733 230.70707070707084,49.53535353535369 230.70707070707084,40.000000000000114" fill="none" stroke="rgba(255,0,0,0.75)" stroke-width="14.159999999999995"/></g><g><polyline data-points="2.373737373737375,5.000000000000002 2.2727272727272734,4.898989898989901 2.1717171717171726,4.7979797979797985 2.070707070707072,4.696969696969697 1.9696969696969702,4.595959595959597 1.8686868686868696,4.494949494949497 1.767676767676768,4.393939393939394 1.6666666666666674,4.292929292929293 1.5656565656565666,4.191919191919193 1.4646464646464652,4.090909090909092 1.3636363636363644,3.989898989898992 1.262626262626263,3.8888888888888893 1.1616161616161622,3.7878787878787885 1.0606060606060617,3.6868686868686877 0.9595959595959602,3.5858585858585874 0.8585858585858596,3.4848484848484866 0.7575757575757579,3.383838383838384 0.6565656565656574,3.2828282828282833 0.5555555555555567,3.181818181818183 0.4545454545454551,3.080808080808082 0.3535353535353544,2.9797979797979806 0.2525252525252529,2.87878787878788 0.1515151515151522,2.7777777777777786 0.050505050505051545,2.676767676767678 -0.05050505050505001,2.575757575757577 -0.15151515151515066,2.4747474747474754 -0.2525252525252522,2.373737373737375 -0.35353535353535287,2.2727272727272734 -0.4545454545454544,2.1717171717171726 -0.555555555555555,2.070707070707072 -0.6565656565656557,1.9696969696969702 -0.7575757575757572,1.8686868686868696 -0.8585858585858579,1.767676767676768 -0.9595959595959596,1.6666666666666674 -1.0606060606060603,1.5656565656565666 -1.1616161616161613,1.4646464646464652 -1.2626262626262625,1.3636363636363644 -1.363636363636363,1.262626262626263 -1.4646464646464643,1.1616161616161622 -1.5656565656565653,1.0606060606060617 -1.6666666666666665,0.9595959595959602 -1.7676767676767675,0.8585858585858596 -1.8686868686868683,0.7575757575757579 -1.8686868686868683,0.6565656565656574 -1.8686868686868683,0.5555555555555567 -1.8686868686868683,0.4545454545454551 -1.8686868686868683,0.3535353535353544 -1.8686868686868683,0.2525252525252529 -1.8686868686868683,0.1515151515151522 -1.8686868686868683,0.050505050505051545 -1.8686868686868683,-0.05050505050505001 -1.8686868686868683,-0.15151515151515066 -1.8686868686868683,-0.2525252525252522 -1.8686868686868683,-0.35353535353535287 -1.8686868686868683,-0.4545454545454544 -1.8686868686868683,-0.555555555555555 -1.8686868686868683,-0.6565656565656557 -1.8686868686868683,-0.7575757575757572 -1.8686868686868683,-0.8585858585858579 -1.8686868686868683,-0.9595959595959596 -1.8686868686868683,-1.0606060606060603 -1.8686868686868683,-1.1616161616161613 -1.8686868686868683,-1.2626262626262625 -1.8686868686868683,-1.363636363636363 -1.8686868686868683,-1.4646464646464643 -1.8686868686868683,-1.5656565656565653 -1.8686868686868683,-1.6666666666666665 -1.8686868686868683,-1.7676767676767675 -1.8686868686868683,-1.8686868686868683 -1.8686868686868683,-1.9696969696969693 -1.8686868686868683,-2.07070707070707 -1.8686868686868683,-2.1717171717171713 -1.8686868686868683,-2.2727272727272725 -1.8686868686868683,-2.3737373737373733 -1.8686868686868683,-2.474747474747474 -1.8686868686868683,-2.5757575757575752 -1.8686868686868683,-2.6767676767676765 -1.8686868686868683,-2.7777777777777777 -1.8686868686868683,-2.8787878787878785 -1.8686868686868683,-2.9797979797979792 -1.8686868686868683,-3.0808080808080804 -1.8686868686868683,-3.1818181818181817 -1.8686868686868683,-3.2828282828282824 -1.8686868686868683,-3.383838383838383 -1.8686868686868683,-3.484848484848485 -1.8686868686868683,-3.5858585858585856 -1.8686868686868683,-3.6868686868686864 -1.8686868686868683,-3.7878787878787876 -1.8686868686868683,-3.8888888888888884 -1.8686868686868683,-3.98989898989899" data-type="line" data-label="" points="736.0808080808081,40.000000000000114 726.5454545454545,49.53535353535369 717.0101010101009,59.07070707070733 707.4747474747475,68.60606060606085 697.9393939393939,78.14141414141432 688.4040404040404,87.67676767676778 678.8686868686868,97.21212121212153 669.3333333333333,106.747474747475 659.7979797979798,116.28282828282846 650.2626262626262,125.81818181818198 640.7272727272727,135.35353535353545 631.1919191919192,144.88888888888908 621.6565656565656,154.4242424242426 612.1212121212121,163.95959595959613 602.5858585858585,173.4949494949496 593.0505050505051,183.03030303030312 583.5151515151515,192.56565656565675 573.9797979797979,202.10101010101027 564.4444444444445,211.63636363636374 554.9090909090909,221.17171717171726 545.3737373737374,230.70707070707084 535.8383838383838,240.24242424242436 526.3030303030303,249.77777777777794 516.7676767676768,259.3131313131314 507.2323232323232,268.84848484848493 497.69696969696975,278.38383838383857 488.16161616161617,287.91919191919203 478.62626262626264,297.4545454545456 469.09090909090907,306.9898989898991 459.55555555555554,316.5252525252526 450.0202020202021,326.06060606060623 440.4848484848485,335.5959595959597 430.949494949495,345.1313131313133 421.4141414141414,354.66666666666674 411.8787878787879,364.2020202020203 402.34343434343435,373.73737373737384 392.80808080808083,383.27272727272737 383.2727272727273,392.80808080808094 373.7373737373738,402.3434343434344 364.2020202020202,411.87878787878793 354.6666666666667,421.4141414141415 345.13131313131316,430.94949494949503 335.59595959595964,440.4848484848486 335.59595959595964,450.0202020202021 335.59595959595964,459.5555555555556 335.59595959595964,469.0909090909092 335.59595959595964,478.6262626262627 335.59595959595964,488.1616161616163 335.59595959595964,497.69696969696975 335.59595959595964,507.23232323232327 335.59595959595964,516.7676767676768 335.59595959595964,526.3030303030304 335.59595959595964,535.838383838384 335.59595959595964,545.3737373737374 335.59595959595964,554.909090909091 335.59595959595964,564.4444444444445 335.59595959595964,573.979797979798 335.59595959595964,583.5151515151516 335.59595959595964,593.0505050505051 335.59595959595964,602.5858585858587 335.59595959595964,612.1212121212121 335.59595959595964,621.6565656565657 335.59595959595964,631.1919191919193 335.59595959595964,640.7272727272727 335.59595959595964,650.2626262626263 335.59595959595964,659.7979797979798 335.59595959595964,669.3333333333334 335.59595959595964,678.8686868686868 335.59595959595964,688.4040404040404 335.59595959595964,697.939393939394 335.59595959595964,707.4747474747475 335.59595959595964,717.010101010101 335.59595959595964,726.5454545454545 335.59595959595964,736.0808080808081 335.59595959595964,745.6161616161615 335.59595959595964,755.1515151515151 335.59595959595964,764.6868686868687 335.59595959595964,774.2222222222222 335.59595959595964,783.7575757575758 335.59595959595964,793.2929292929292 335.59595959595964,802.8282828282828 335.59595959595964,812.3636363636363 335.59595959595964,821.8989898989898 335.59595959595964,831.4343434343434 335.59595959595964,840.969696969697 335.59595959595964,850.5050505050505 335.59595959595964,860.0404040404039 335.59595959595964,869.5757575757575 335.59595959595964,879.1111111111111 335.59595959595964,888.6464646464647" fill="none" stroke="rgba(255,0,0,0.75)" stroke-width="14.159999999999995"/></g><g><polyline data-points="-1.8686868686868683,-3.98989898989899 -1.8686868686868683,-4.090909090909091 -1.8686868686868683,-4.191919191919193 -1.8686868686868683,-4.292929292929293 -1.8686868686868683,-4.393939393939394 -1.8686868686868683,-4.494949494949496 -1.8686868686868683,-4.595959595959596 -1.8686868686868683,-4.696969696969697 -1.8686868686868683,-4.7979797979797985 -1.8686868686868683,-4.898989898989899 -1.8686868686868683,-5.000000000000001" data-type="line" data-label="" points="335.59595959595964,888.6464646464647 335.59595959595964,898.1818181818181 335.59595959595964,907.7171717171718 335.59595959595964,917.2525252525252 335.59595959595964,926.7878787878788 335.59595959595964,936.3232323232323 335.59595959595964,945.8585858585858 335.59595959595964,955.3939393939394 335.59595959595964,964.9292929292928 335.59595959595964,974.4646464646464 335.59595959595964,984" fill="none" stroke="rgba(0,0,255,0.75)" stroke-width="14.159999999999995"/></g><g><polyline data-points="1.767676767676768,-5.000000000000001 1.6666666666666674,-4.898989898989899 1.5656565656565666,-4.7979797979797985 1.4646464646464652,-4.696969696969697 1.3636363636363644,-4.595959595959596 1.262626262626263,-4.494949494949496 1.1616161616161622,-4.393939393939394 1.0606060606060617,-4.292929292929293 0.9595959595959602,-4.191919191919193 0.8585858585858596,-4.090909090909091 0.7575757575757579,-3.98989898989899 0.6565656565656574,-3.8888888888888884 0.5555555555555567,-3.7878787878787876 0.4545454545454551,-3.6868686868686864 0.3535353535353544,-3.5858585858585856 0.2525252525252529,-3.484848484848485 0.1515151515151522,-3.383838383838383 0.050505050505051545,-3.2828282828282824 -0.05050505050505001,-3.1818181818181817 -0.15151515151515066,-3.0808080808080804 -0.2525252525252522,-2.9797979797979792 -0.35353535353535287,-2.8787878787878785 -0.4545454545454544,-2.7777777777777777 -0.555555555555555,-2.6767676767676765 -0.6565656565656557,-2.5757575757575752 -0.7575757575757572,-2.474747474747474 -0.8585858585858579,-2.3737373737373733 -0.9595959595959596,-2.2727272727272725 -1.0606060606060603,-2.1717171717171713 -1.1616161616161613,-2.07070707070707 -1.2626262626262625,-1.9696969696969693 -1.2626262626262625,-1.8686868686868683 -1.2626262626262625,-1.7676767676767675 -1.2626262626262625,-1.6666666666666665 -1.2626262626262625,-1.5656565656565653 -1.2626262626262625,-1.4646464646464643 -1.2626262626262625,-1.363636363636363 -1.2626262626262625,-1.2626262626262625 -1.2626262626262625,-1.1616161616161613" data-type="line" data-label="" points="678.8686868686868,984 669.3333333333333,974.4646464646464 659.7979797979798,964.9292929292928 650.2626262626262,955.3939393939394 640.7272727272727,945.8585858585858 631.1919191919192,936.3232323232323 621.6565656565656,926.7878787878788 612.1212121212121,917.2525252525252 602.5858585858585,907.7171717171718 593.0505050505051,898.1818181818181 583.5151515151515,888.6464646464647 573.9797979797979,879.1111111111111 564.4444444444445,869.5757575757575 554.9090909090909,860.0404040404039 545.3737373737374,850.5050505050505 535.8383838383838,840.969696969697 526.3030303030303,831.4343434343434 516.7676767676768,821.8989898989898 507.2323232323232,812.3636363636363 497.69696969696975,802.8282828282828 488.16161616161617,793.2929292929292 478.62626262626264,783.7575757575758 469.09090909090907,774.2222222222222 459.55555555555554,764.6868686868687 450.0202020202021,755.1515151515151 440.4848484848485,745.6161616161615 430.949494949495,736.0808080808081 421.4141414141414,726.5454545454545 411.8787878787879,717.010101010101 402.34343434343435,707.4747474747475 392.80808080808083,697.939393939394 392.80808080808083,688.4040404040404 392.80808080808083,678.8686868686868 392.80808080808083,669.3333333333334 392.80808080808083,659.7979797979798 392.80808080808083,650.2626262626263 392.80808080808083,640.7272727272727 392.80808080808083,631.1919191919193 392.80808080808083,621.6565656565657" fill="none" stroke="rgba(255,0,0,0.75)" stroke-width="14.159999999999995"/></g><g><polyline data-points="-1.2626262626262625,-1.1616161616161613 -1.363636363636363,-1.0606060606060603 -1.4646464646464643,-0.9595959595959596 -1.5656565656565653,-0.8585858585858579 -1.6666666666666665,-0.7575757575757572 -1.6666666666666665,-0.6565656565656557 -1.6666666666666665,-0.555555555555555 -1.7676767676767675,-0.4545454545454544 -1.8686868686868683,-0.35353535353535287 -1.9696969696969693,-0.2525252525252522 -2.07070707070707,-0.15151515151515066 -2.1717171717171713,-0.05050505050505001 -2.2727272727272725,0.050505050505051545 -2.3737373737373733,0.1515151515151522 -2.474747474747474,0.2525252525252529" data-type="line" data-label="" points="392.80808080808083,621.6565656565657 383.2727272727273,612.1212121212121 373.7373737373738,602.5858585858587 364.2020202020202,593.0505050505051 354.6666666666667,583.5151515151516 354.6666666666667,573.979797979798 354.6666666666667,564.4444444444445 345.13131313131316,554.909090909091 335.59595959595964,545.3737373737374 326.0606060606061,535.838383838384 316.5252525252526,526.3030303030304 306.9898989898991,516.7676767676768 297.4545454545455,507.23232323232327 287.91919191919203,497.69696969696975 278.38383838383845,488.1616161616163" fill="none" stroke="rgba(0,0,255,0.75)" stroke-width="14.159999999999995"/></g><g><polyline data-points="-2.474747474747474,0.2525252525252529 -2.3737373737373733,0.3535353535353544 -2.2727272727272725,0.4545454545454551 -2.1717171717171713,0.5555555555555567 -2.07070707070707,0.6565656565656574 -2.07070707070707,0.7575757575757579 -2.07070707070707,0.8585858585858596 -1.9696969696969693,0.9595959595959602 -1.8686868686868683,1.0606060606060617 -1.7676767676767675,1.1616161616161622 -1.6666666666666665,1.262626262626263 -1.6666666666666665,1.3636363636363644 -1.6666666666666665,1.4646464646464652 -1.6666666666666665,1.5656565656565666 -1.6666666666666665,1.6666666666666674 -1.6666666666666665,1.767676767676768 -1.6666666666666665,1.8686868686868696 -1.6666666666666665,1.9696969696969702 -1.6666666666666665,2.070707070707072 -1.6666666666666665,2.1717171717171726 -1.6666666666666665,2.2727272727272734 -1.6666666666666665,2.373737373737375 -1.6666666666666665,2.4747474747474754 -1.6666666666666665,2.575757575757577 -1.6666666666666665,2.676767676767678 -1.6666666666666665,2.7777777777777786 -1.6666666666666665,2.87878787878788 -1.6666666666666665,2.9797979797979806 -1.6666666666666665,3.080808080808082 -1.6666666666666665,3.181818181818183 -1.6666666666666665,3.2828282828282833 -1.6666666666666665,3.383838383838384 -1.6666666666666665,3.4848484848484866 -1.6666666666666665,3.5858585858585874 -1.6666666666666665,3.6868686868686877 -1.6666666666666665,3.7878787878787885 -1.6666666666666665,3.8888888888888893 -1.6666666666666665,3.989898989898992 -1.6666666666666665,4.090909090909092 -1.6666666666666665,4.191919191919193 -1.6666666666666665,4.292929292929293 -1.6666666666666665,4.393939393939394 -1.6666666666666665,4.494949494949497 -1.6666666666666665,4.595959595959597 -1.6666666666666665,4.696969696969697 -1.6666666666666665,4.7979797979797985 -1.6666666666666665,4.898989898989901 -1.6666666666666665,5.000000000000002" data-type="line" data-label="" points="278.38383838383845,488.1616161616163 287.91919191919203,478.6262626262627 297.4545454545455,469.0909090909092 306.9898989898991,459.5555555555556 316.5252525252526,450.0202020202021 316.5252525252526,440.4848484848486 316.5252525252526,430.94949494949503 326.0606060606061,421.4141414141415 335.59595959595964,411.87878787878793 345.13131313131316,402.3434343434344 354.6666666666667,392.80808080808094 354.6666666666667,383.27272727272737 354.6666666666667,373.73737373737384 354.6666666666667,364.2020202020203 354.6666666666667,354.66666666666674 354.6666666666667,345.1313131313133 354.6666666666667,335.5959595959597 354.6666666666667,326.06060606060623 354.6666666666667,316.5252525252526 354.6666666666667,306.9898989898991 354.6666666666667,297.4545454545456 354.6666666666667,287.91919191919203 354.6666666666667,278.38383838383857 354.6666666666667,268.84848484848493 354.6666666666667,259.3131313131314 354.6666666666667,249.77777777777794 354.6666666666667,240.24242424242436 354.6666666666667,230.70707070707084 354.6666666666667,221.17171717171726 354.6666666666667,211.63636363636374 354.6666666666667,202.10101010101027 354.6666666666667,192.56565656565675 354.6666666666667,183.03030303030312 354.6666666666667,173.4949494949496 354.6666666666667,163.95959595959613 354.6666666666667,154.4242424242426 354.6666666666667,144.88888888888908 354.6666666666667,135.35353535353545 354.6666666666667,125.81818181818198 354.6666666666667,116.28282828282846 354.6666666666667,106.747474747475 354.6666666666667,97.21212121212153 354.6666666666667,87.67676767676778 354.6666666666667,78.14141414141432 354.6666666666667,68.60606060606085 354.6666666666667,59.07070707070733 354.6666666666667,49.53535353535369 354.6666666666667,40.000000000000114" fill="none" stroke="rgba(255,0,0,0.75)" stroke-width="14.159999999999995"/></g><g><polyline data-points="-4.393939393939394,5.000000000000002 -4.292929292929293,5.000000000000002 -4.191919191919193,5.000000000000002 -4.090909090909091,5.000000000000002 -3.98989898989899,5.000000000000002 -3.8888888888888884,5.000000000000002 -3.7878787878787876,5.000000000000002 -3.6868686868686864,5.000000000000002 -3.5858585858585856,5.000000000000002 -3.484848484848485,5.000000000000002 -3.383838383838383,5.000000000000002 -3.2828282828282824,5.000000000000002 -3.1818181818181817,5.000000000000002 -3.0808080808080804,5.000000000000002 -2.9797979797979792,5.000000000000002 -2.8787878787878785,4.898989898989901 -2.7777777777777777,4.7979797979797985 -2.6767676767676765,4.696969696969697 -2.5757575757575752,4.595959595959597 -2.474747474747474,4.595959595959597 -2.3737373737373733,4.595959595959597 -2.2727272727272725,4.595959595959597 -2.1717171717171713,4.595959595959597 -2.07070707070707,4.595959595959597 -1.9696969696969693,4.494949494949497 -1.8686868686868683,4.393939393939394 -1.7676767676767675,4.393939393939394 -1.6666666666666665,4.393939393939394 -1.5656565656565653,4.393939393939394 -1.4646464646464643,4.393939393939394 -1.363636363636363,4.393939393939394 -1.2626262626262625,4.393939393939394 -1.1616161616161613,4.393939393939394 -1.0606060606060603,4.292929292929293 -0.9595959595959596,4.191919191919193 -0.8585858585858579,4.090909090909092 -0.7575757575757572,3.989898989898992" data-type="line" data-label="" points="97.21212121212136,40.000000000000114 106.74747474747483,40.000000000000114 116.28282828282829,40.000000000000114 125.81818181818193,40.000000000000114 135.35353535353545,40.000000000000114 144.88888888888903,40.000000000000114 154.42424242424255,40.000000000000114 163.95959595959607,40.000000000000114 173.4949494949496,40.000000000000114 183.03030303030312,40.000000000000114 192.5656565656567,40.000000000000114 202.10101010101022,40.000000000000114 211.63636363636374,40.000000000000114 221.17171717171726,40.000000000000114 230.70707070707084,40.000000000000114 240.2424242424243,49.53535353535369 249.77777777777783,59.07070707070733 259.3131313131314,68.60606060606085 268.84848484848493,78.14141414141432 278.38383838383845,78.14141414141432 287.91919191919203,78.14141414141432 297.4545454545455,78.14141414141432 306.9898989898991,78.14141414141432 316.5252525252526,78.14141414141432 326.0606060606061,87.67676767676778 335.59595959595964,97.21212121212153 345.13131313131316,97.21212121212153 354.6666666666667,97.21212121212153 364.2020202020202,97.21212121212153 373.7373737373738,97.21212121212153 383.2727272727273,97.21212121212153 392.80808080808083,97.21212121212153 402.34343434343435,97.21212121212153 411.8787878787879,106.747474747475 421.4141414141414,116.28282828282846 430.949494949495,125.81818181818198 440.4848484848485,135.35353535353545" fill="none" stroke="rgba(0,0,255,0.75)" stroke-width="14.159999999999995"/></g><g><polyline data-points="-0.7575757575757572,3.989898989898992 -0.6565656565656557,4.090909090909092 -0.555555555555555,4.191919191919193 -0.4545454545454544,4.292929292929293 -0.35353535353535287,4.393939393939394 -0.2525252525252522,4.494949494949497 -0.15151515151515066,4.595959595959597 -0.05050505050505001,4.696969696969697 0.050505050505051545,4.7979797979797985 0.1515151515151522,4.898989898989901 0.2525252525252529,5.000000000000002 0.3535353535353544,5.000000000000002 0.4545454545454551,5.000000000000002 0.5555555555555567,5.000000000000002 0.6565656565656574,5.000000000000002 0.7575757575757579,5.000000000000002 0.8585858585858596,5.000000000000002 0.9595959595959602,5.000000000000002 1.0606060606060617,5.000000000000002" data-type="line" data-label="" points="440.4848484848485,135.35353535353545 450.0202020202021,125.81818181818198 459.55555555555554,116.28282828282846 469.09090909090907,106.747474747475 478.62626262626264,97.21212121212153 488.16161616161617,87.67676767676778 497.69696969696975,78.14141414141432 507.2323232323232,68.60606060606085 516.7676767676768,59.07070707070733 526.3030303030303,49.53535353535369 535.8383838383838,40.000000000000114 545.3737373737374,40.000000000000114 554.9090909090909,40.000000000000114 564.4444444444445,40.000000000000114 573.9797979797979,40.000000000000114 583.5151515151515,40.000000000000114 593.0505050505051,40.000000000000114 602.5858585858585,40.000000000000114 612.1212121212121,40.000000000000114" fill="none" stroke="rgba(255,0,0,0.75)" stroke-width="14.159999999999995"/></g><g><polyline data-points="-5.000000000000001,1.8686868686868696 -4.898989898989899,1.9696969696969702 -4.7979797979797985,2.070707070707072 -4.696969696969697,2.1717171717171726 -4.595959595959596,2.070707070707072 -4.494949494949496,1.9696969696969702 -4.393939393939394,1.8686868686868696 -4.292929292929293,1.767676767676768 -4.191919191919193,1.6666666666666674 -4.090909090909091,1.5656565656565666 -3.98989898989899,1.4646464646464652 -3.8888888888888884,1.3636363636363644 -3.7878787878787876,1.262626262626263 -3.6868686868686864,1.1616161616161622 -3.5858585858585856,1.0606060606060617 -3.484848484848485,0.9595959595959602 -3.383838383838383,0.8585858585858596 -3.2828282828282824,0.7575757575757579 -3.1818181818181817,0.6565656565656574 -3.0808080808080804,0.5555555555555567 -2.9797979797979792,0.4545454545454551 -2.9797979797979792,0.3535353535353544 -2.9797979797979792,0.2525252525252529 -2.8787878787878785,0.1515151515151522 -2.8787878787878785,0.050505050505051545 -2.7777777777777777,-0.05050505050505001 -2.6767676767676765,-0.15151515151515066 -2.5757575757575752,-0.2525252525252522 -2.474747474747474,-0.35353535353535287 -2.3737373737373733,-0.4545454545454544 -2.3737373737373733,-0.555555555555555 -2.3737373737373733,-0.6565656565656557 -2.3737373737373733,-0.7575757575757572 -2.3737373737373733,-0.8585858585858579 -2.3737373737373733,-0.9595959595959596 -2.3737373737373733,-1.0606060606060603 -2.3737373737373733,-1.1616161616161613 -2.3737373737373733,-1.2626262626262625 -2.3737373737373733,-1.363636363636363 -2.3737373737373733,-1.4646464646464643 -2.3737373737373733,-1.5656565656565653 -2.3737373737373733,-1.6666666666666665 -2.3737373737373733,-1.7676767676767675 -2.3737373737373733,-1.8686868686868683 -2.3737373737373733,-1.9696969696969693 -2.3737373737373733,-2.07070707070707 -2.474747474747474,-2.1717171717171713" data-type="line" data-label="" points="40.00000000000006,335.5959595959597 49.53535353535369,326.06060606060623 59.07070707070716,316.5252525252526 68.60606060606068,306.9898989898991 78.14141414141426,316.5252525252526 87.67676767676772,326.06060606060623 97.21212121212136,335.5959595959597 106.74747474747483,345.1313131313133 116.28282828282829,354.66666666666674 125.81818181818193,364.2020202020203 135.35353535353545,373.73737373737384 144.88888888888903,383.27272727272737 154.42424242424255,392.80808080808094 163.95959595959607,402.3434343434344 173.4949494949496,411.87878787878793 183.03030303030312,421.4141414141415 192.5656565656567,430.94949494949503 202.10101010101022,440.4848484848486 211.63636363636374,450.0202020202021 221.17171717171726,459.5555555555556 230.70707070707084,469.0909090909092 230.70707070707084,478.6262626262627 230.70707070707084,488.1616161616163 240.2424242424243,497.69696969696975 240.2424242424243,507.23232323232327 249.77777777777783,516.7676767676768 259.3131313131314,526.3030303030304 268.84848484848493,535.838383838384 278.38383838383845,545.3737373737374 287.91919191919203,554.909090909091 287.91919191919203,564.4444444444445 287.91919191919203,573.979797979798 287.91919191919203,583.5151515151516 287.91919191919203,593.0505050505051 287.91919191919203,602.5858585858587 287.91919191919203,612.1212121212121 287.91919191919203,621.6565656565657 287.91919191919203,631.1919191919193 287.91919191919203,640.7272727272727 287.91919191919203,650.2626262626263 287.91919191919203,659.7979797979798 287.91919191919203,669.3333333333334 287.91919191919203,678.8686868686868 287.91919191919203,688.4040404040404 287.91919191919203,697.939393939394 287.91919191919203,707.4747474747475 278.38383838383845,717.010101010101" fill="none" stroke="rgba(255,0,0,0.75)" stroke-width="14.159999999999995"/></g><g><polyline data-points="-2.474747474747474,-2.1717171717171713 -2.3737373737373733,-2.2727272727272725 -2.2727272727272725,-2.3737373737373733 -2.1717171717171713,-2.474747474747474 -2.07070707070707,-2.5757575757575752 -1.9696969696969693,-2.6767676767676765 -1.8686868686868683,-2.7777777777777777 -1.7676767676767675,-2.8787878787878785 -1.6666666666666665,-2.9797979797979792 -1.5656565656565653,-3.0808080808080804 -1.4646464646464643,-3.1818181818181817 -1.363636363636363,-3.2828282828282824 -1.2626262626262625,-3.383838383838383 -1.1616161616161613,-3.484848484848485 -1.0606060606060603,-3.5858585858585856 -0.9595959595959596,-3.6868686868686864 -0.8585858585858579,-3.7878787878787876 -0.7575757575757572,-3.8888888888888884 -0.6565656565656557,-3.98989898989899 -0.555555555555555,-4.090909090909091 -0.4545454545454544,-4.191919191919193 -0.35353535353535287,-4.292929292929293 -0.2525252525252522,-4.292929292929293 -0.15151515151515066,-4.292929292929293 -0.05050505050505001,-4.292929292929293 0.050505050505051545,-4.292929292929293 0.1515151515151522,-4.292929292929293 0.2525252525252529,-4.292929292929293 0.3535353535353544,-4.292929292929293 0.4545454545454551,-4.292929292929293 0.5555555555555567,-4.292929292929293 0.6565656565656574,-4.292929292929293 0.7575757575757579,-4.292929292929293 0.8585858585858596,-4.292929292929293 0.9595959595959602,-4.292929292929293 1.0606060606060617,-4.292929292929293 1.1616161616161622,-4.292929292929293 1.262626262626263,-4.292929292929293 1.3636363636363644,-4.292929292929293 1.4646464646464652,-4.292929292929293 1.5656565656565666,-4.292929292929293 1.6666666666666674,-4.292929292929293 1.767676767676768,-4.292929292929293 1.8686868686868696,-4.292929292929293 1.9696969696969702,-4.292929292929293 2.070707070707072,-4.292929292929293 2.1717171717171726,-4.292929292929293 2.2727272727272734,-4.292929292929293 2.373737373737375,-4.292929292929293 2.4747474747474754,-4.292929292929293 2.575757575757577,-4.292929292929293 2.676767676767678,-4.292929292929293 2.7777777777777786,-4.292929292929293 2.87878787878788,-4.292929292929293 2.9797979797979806,-4.292929292929293 3.080808080808082,-4.292929292929293 3.181818181818183,-4.292929292929293 3.2828282828282833,-4.292929292929293 3.383838383838384,-4.292929292929293 3.4848484848484866,-4.292929292929293 3.5858585858585874,-4.292929292929293 3.6868686868686877,-4.292929292929293 3.7878787878787885,-4.292929292929293 3.8888888888888893,-4.292929292929293 3.989898989898992,-4.292929292929293 4.090909090909092,-4.292929292929293 4.191919191919193,-4.292929292929293 4.292929292929293,-4.292929292929293 4.393939393939394,-4.292929292929293 4.494949494949497,-4.292929292929293 4.595959595959597,-4.292929292929293 4.696969696969697,-4.292929292929293 4.7979797979797985,-4.292929292929293 4.898989898989901,-4.292929292929293 5.000000000000002,-4.191919191919193" data-type="line" data-label="" points="278.38383838383845,717.010101010101 287.91919191919203,726.5454545454545 297.4545454545455,736.0808080808081 306.9898989898991,745.6161616161615 316.5252525252526,755.1515151515151 326.0606060606061,764.6868686868687 335.59595959595964,774.2222222222222 345.13131313131316,783.7575757575758 354.6666666666667,793.2929292929292 364.2020202020202,802.8282828282828 373.7373737373738,812.3636363636363 383.2727272727273,821.8989898989898 392.80808080808083,831.4343434343434 402.34343434343435,840.969696969697 411.8787878787879,850.5050505050505 421.4141414141414,860.0404040404039 430.949494949495,869.5757575757575 440.4848484848485,879.1111111111111 450.0202020202021,888.6464646464647 459.55555555555554,898.1818181818181 469.09090909090907,907.7171717171718 478.62626262626264,917.2525252525252 488.16161616161617,917.2525252525252 497.69696969696975,917.2525252525252 507.2323232323232,917.2525252525252 516.7676767676768,917.2525252525252 526.3030303030303,917.2525252525252 535.8383838383838,917.2525252525252 545.3737373737374,917.2525252525252 554.9090909090909,917.2525252525252 564.4444444444445,917.2525252525252 573.9797979797979,917.2525252525252 583.5151515151515,917.2525252525252 593.0505050505051,917.2525252525252 602.5858585858585,917.2525252525252 612.1212121212121,917.2525252525252 621.6565656565656,917.2525252525252 631.1919191919192,917.2525252525252 640.7272727272727,917.2525252525252 650.2626262626262,917.2525252525252 659.7979797979798,917.2525252525252 669.3333333333333,917.2525252525252 678.8686868686868,917.2525252525252 688.4040404040404,917.2525252525252 697.9393939393939,917.2525252525252 707.4747474747475,917.2525252525252 717.0101010101009,917.2525252525252 726.5454545454545,917.2525252525252 736.0808080808081,917.2525252525252 745.6161616161615,917.2525252525252 755.1515151515151,917.2525252525252 764.6868686868686,917.2525252525252 774.2222222222222,917.2525252525252 783.7575757575758,917.2525252525252 793.2929292929292,917.2525252525252 802.8282828282828,917.2525252525252 812.3636363636363,917.2525252525252 821.8989898989898,917.2525252525252 831.4343434343433,917.2525252525252 840.969696969697,917.2525252525252 850.5050505050505,917.2525252525252 860.0404040404039,917.2525252525252 869.5757575757575,917.2525252525252 879.111111111111,917.2525252525252 888.6464646464647,917.2525252525252 898.181818181818,917.2525252525252 907.7171717171716,917.2525252525252 917.2525252525251,917.2525252525252 926.7878787878785,917.2525252525252 936.3232323232323,917.2525252525252 945.8585858585857,917.2525252525252 955.3939393939393,917.2525252525252 964.9292929292927,917.2525252525252 974.4646464646464,917.2525252525252 984,907.7171717171718" fill="none" stroke="rgba(0,0,255,0.75)" stroke-width="14.159999999999995"/></g><g><polyline data-points="-5.000000000000001,-2.3737373737373733 -4.898989898989899,-2.3737373737373733 -4.7979797979797985,-2.2727272727272725 -4.696969696969697,-2.1717171717171713 -4.595959595959596,-2.07070707070707 -4.595959595959596,-1.9696969696969693 -4.494949494949496,-1.8686868686868683 -4.393939393939394,-1.7676767676767675 -4.292929292929293,-1.6666666666666665 -4.191919191919193,-1.5656565656565653 -4.090909090909091,-1.4646464646464643 -3.98989898989899,-1.363636363636363 -3.8888888888888884,-1.2626262626262625 -3.8888888888888884,-1.1616161616161613 -3.98989898989899,-1.0606060606060603" data-type="line" data-label="" points="40.00000000000006,736.0808080808081 49.53535353535369,736.0808080808081 59.07070707070716,726.5454545454545 68.60606060606068,717.010101010101 78.14141414141426,707.4747474747475 78.14141414141426,697.939393939394 87.67676767676772,688.4040404040404 97.21212121212136,678.8686868686868 106.74747474747483,669.3333333333334 116.28282828282829,659.7979797979798 125.81818181818193,650.2626262626263 135.35353535353545,640.7272727272727 144.88888888888903,631.1919191919193 144.88888888888903,621.6565656565657 135.35353535353545,612.1212121212121" fill="none" stroke="rgba(0,0,255,0.75)" stroke-width="14.159999999999995"/></g><g><polyline data-points="-3.98989898989899,-1.0606060606060603 -3.98989898989899,-0.9595959595959596 -3.98989898989899,-0.8585858585858579 -3.98989898989899,-0.7575757575757572 -3.98989898989899,-0.6565656565656557 -3.98989898989899,-0.555555555555555 -3.98989898989899,-0.4545454545454544 -3.98989898989899,-0.35353535353535287 -3.98989898989899,-0.2525252525252522 -3.98989898989899,-0.15151515151515066 -3.98989898989899,-0.05050505050505001 -3.98989898989899,0.050505050505051545 -3.98989898989899,0.1515151515151522 -3.98989898989899,0.2525252525252529 -3.98989898989899,0.3535353535353544 -3.98989898989899,0.4545454545454551 -3.98989898989899,0.5555555555555567" data-type="line" data-label="" points="135.35353535353545,612.1212121212121 135.35353535353545,602.5858585858587 135.35353535353545,593.0505050505051 135.35353535353545,583.5151515151516 135.35353535353545,573.979797979798 135.35353535353545,564.4444444444445 135.35353535353545,554.909090909091 135.35353535353545,545.3737373737374 135.35353535353545,535.838383838384 135.35353535353545,526.3030303030304 135.35353535353545,516.7676767676768 135.35353535353545,507.23232323232327 135.35353535353545,497.69696969696975 135.35353535353545,488.1616161616163 135.35353535353545,478.6262626262627 135.35353535353545,469.0909090909092 135.35353535353545,459.5555555555556" fill="none" stroke="rgba(255,0,0,0.75)" stroke-width="14.159999999999995"/></g><g><polyline data-points="-3.98989898989899,0.5555555555555567 -3.8888888888888884,0.6565656565656574 -3.7878787878787876,0.7575757575757579 -3.7878787878787876,0.8585858585858596 -3.6868686868686864,0.9595959595959602 -3.5858585858585856,1.0606060606060617 -3.484848484848485,1.1616161616161622 -3.383838383838383,1.262626262626263 -3.2828282828282824,1.3636363636363644 -3.1818181818181817,1.4646464646464652" data-type="line" data-label="" points="135.35353535353545,459.5555555555556 144.88888888888903,450.0202020202021 154.42424242424255,440.4848484848486 154.42424242424255,430.94949494949503 163.95959595959607,421.4141414141415 173.4949494949496,411.87878787878793 183.03030303030312,402.3434343434344 192.5656565656567,392.80808080808094 202.10101010101022,383.27272727272737 211.63636363636374,373.73737373737384" fill="none" stroke="rgba(0,0,255,0.75)" stroke-width="14.159999999999995"/></g><g><polyline data-points="-3.1818181818181817,1.4646464646464652 -3.2828282828282824,1.5656565656565666 -3.383838383838383,1.6666666666666674 -3.484848484848485,1.767676767676768 -3.5858585858585856,1.8686868686868696 -3.6868686868686864,1.9696969696969702 -3.7878787878787876,2.070707070707072 -3.8888888888888884,2.1717171717171726 -3.98989898989899,2.2727272727272734 -4.090909090909091,2.373737373737375 -4.191919191919193,2.4747474747474754 -4.292929292929293,2.575757575757577 -4.393939393939394,2.676767676767678 -4.494949494949496,2.7777777777777786 -4.595959595959596,2.87878787878788 -4.696969696969697,2.9797979797979806 -4.7979797979797985,3.080808080808082 -4.7979797979797985,3.181818181818183 -4.7979797979797985,3.2828282828282833 -4.7979797979797985,3.383838383838384 -4.7979797979797985,3.4848484848484866 -4.7979797979797985,3.5858585858585874 -4.7979797979797985,3.6868686868686877 -4.7979797979797985,3.7878787878787885 -4.7979797979797985,3.8888888888888893 -4.7979797979797985,3.989898989898992 -4.898989898989899,4.090909090909092 -5.000000000000001,4.090909090909092" data-type="line" data-label="" points="211.63636363636374,373.73737373737384 202.10101010101022,364.2020202020203 192.5656565656567,354.66666666666674 183.03030303030312,345.1313131313133 173.4949494949496,335.5959595959597 163.95959595959607,326.06060606060623 154.42424242424255,316.5252525252526 144.88888888888903,306.9898989898991 135.35353535353545,297.4545454545456 125.81818181818193,287.91919191919203 116.28282828282829,278.38383838383857 106.74747474747483,268.84848484848493 97.21212121212136,259.3131313131314 87.67676767676772,249.77777777777794 78.14141414141426,240.24242424242436 68.60606060606068,230.70707070707084 59.07070707070716,221.17171717171726 59.07070707070716,211.63636363636374 59.07070707070716,202.10101010101027 59.07070707070716,192.56565656565675 59.07070707070716,183.03030303030312 59.07070707070716,173.4949494949496 59.07070707070716,163.95959595959613 59.07070707070716,154.4242424242426 59.07070707070716,144.88888888888908 59.07070707070716,135.35353535353545 49.53535353535369,125.81818181818198 40.00000000000006,125.81818181818198" fill="none" stroke="rgba(255,0,0,0.75)" stroke-width="14.159999999999995"/></g><g><rect data-type="rect" data-label="" data-x="0" data-y="0" x="40.000000000000114" y="40.000000000000284" width="943.9999999999997" height="943.9999999999998" fill="none" stroke="gray" stroke-width="0.010593220338983056"/></g><g><rect data-type="rect" data-label="" data-x="0" data-y="0" x="40.000000000000114" y="40.000000000000284" width="943.9999999999997" height="943.9999999999998" fill="none" stroke="rgba(15, 23, 42, 0.8)" stroke-width="0.010593220338983056"/></g><circle data-type="circle" data-label="" data-x="3.989898989898992" data-y="3.6868686868686877" cx="888.6464646464647" cy="163.95959595959613" r="28.791999999999987" fill="rgba(0,0,0,0.3)" stroke="black" stroke-width="0.010593220338983056"/><circle data-type="circle" data-label="" data-x="-2.9797979797979792" data-y="3.989898989898992" cx="230.70707070707084" cy="135.35353535353545" r="28.791999999999987" fill="rgba(0,0,0,0.3)" stroke="black" stroke-width="0.010593220338983056"/><circle data-type="circle" data-label="" data-x="-1.8686868686868683" data-y="-3.98989898989899" cx="335.59595959595964" cy="888.6464646464647" r="28.791999999999987" fill="rgba(0,0,0,0.3)" stroke="black" stroke-width="0.010593220338983056"/><circle data-type="circle" data-label="" data-x="-1.2626262626262625" data-y="-1.1616161616161613" cx="392.80808080808083" cy="621.6565656565657" r="28.791999999999987" fill="rgba(0,0,0,0.3)" stroke="black" stroke-width="0.010593220338983056"/><circle data-type="circle" data-label="" data-x="-2.474747474747474" data-y="0.2525252525252529" cx="278.38383838383845" cy="488.1616161616163" r="28.791999999999987" fill="rgba(0,0,0,0.3)" stroke="black" stroke-width="0.010593220338983056"/><circle data-type="circle" data-label="" data-x="-0.7575757575757572" data-y="3.989898989898992" cx="440.4848484848485" cy="135.35353535353545" r="28.791999999999987" fill="rgba(0,0,0,0.3)" stroke="black" stroke-width="0.010593220338983056"/><circle data-type="circle" data-label="" data-x="-2.474747474747474" data-y="-2.1717171717171713" cx="278.38383838383845" cy="717.010101010101" r="28.791999999999987" fill="rgba(0,0,0,0.3)" stroke="black" stroke-width="0.010593220338983056"/><circle data-type="circle" data-label="" data-x="-3.98989898989899" data-y="-1.0606060606060603" cx="135.35353535353545" cy="612.1212121212121" r="28.791999999999987" fill="rgba(0,0,0,0.3)" stroke="black" stroke-width="0.010593220338983056"/><circle data-type="circle" data-label="" data-x="-3.98989898989899" data-y="0.5555555555555567" cx="135.35353535353545" cy="459.5555555555556" r="28.791999999999987" fill="rgba(0,0,0,0.3)" stroke="black" stroke-width="0.010593220338983056"/><circle data-type="circle" data-label="" data-x="-3.1818181818181817" data-y="1.4646464646464652" cx="211.63636363636374" cy="373.73737373737384" r="28.791999999999987" fill="rgba(0,0,0,0.3)" stroke="black" stroke-width="0.010593220338983056"/><g id="crosshair" style="display: none"><line id="crosshair-h" y1="0" y2="1024" stroke="#666" stroke-width="0.5"/><line id="crosshair-v" x1="0" x2="1024" stroke="#666" stroke-width="0.5"/><text id="coordinates" font-family="monospace" font-size="12" fill="#666"></text></g><script><![CDATA[
              document.currentScript.parentElement.addEventListener('mousemove', (e) => {
                const svg = e.currentTarget;
                const rect = svg.getBoundingClientRect();
                const x = e.clientX - rect.left;
                const y = e.clientY - rect.top;
                const crosshair = svg.getElementById('crosshair');
                const h = svg.getElementById('crosshair-h');
                const v = svg.getElementById('crosshair-v');
                const coords = svg.getElementById('coordinates');
                
                crosshair.style.display = 'block';
                h.setAttribute('x1', '0');
                h.setAttribute('x2', '1024');
                h.setAttribute('y1', y);
                h.setAttribute('y2', y);
                v.setAttribute('x1', x);
                v.setAttribute('x2', x);
                v.setAttribute('y1', '0');
                v.setAttribute('y2', '1024');

                // Calculate real coordinates using inverse transformation
                const matrix = {"a":94.39999999999996,"c":0,"e":511.99999999999994,"b":0,"d":-94.39999999999996,"f":512.0000000000001};
                // Manually invert and apply the affine transform
                // Since we only use translate and scale, we can directly compute:
                // x' = (x - tx) / sx
                // y' = (y - ty) / sy
                const sx = matrix.a;
                const sy = matrix.d;
                const tx = matrix.e; 
                const ty = matrix.f;
                const realPoint = {
                  x: (x - tx) / sx,
                  y: (y - ty) / sy // Flip y back since we used negative scale
                }
                
                coords.textContent = `(${realPoint.x.toFixed(2)}, ${realPoint.y.toFixed(2)})`;
                coords.setAttribute('x', (x + 5).toString());
                coords.setAttribute('y', (y - 5).toString());
              });
              document.currentScript.parentElement.addEventListener('mouseleave', () => {
                document.currentScript.parentElement.getElementById('crosshair').style.display = 'none';
              });
            ]]></script></svg>