<svg width="1024" height="1024" viewBox="0 0 1024 1024" xmlns="http://www.w3.org/2000/svg"><rect width="100%" height="100%" fill="white"/><g><circle data-type="point" data-label="conn_000" data-x="1.78" data-y="-5" cx="680.0319999999999" cy="984" r="28.792" fill="blue" stroke="#3bbd0f" stroke-width="28.792"/></g><g><circle data-type="point" data-label="conn_000" data-x="-3.74" data-y="5" cx="158.94400000000007" cy="40.000000000000284" r="28.792" fill="red" stroke="#3bbd0f" stroke-width="28.792"/></g><g><circle data-type="point" data-label="conn_001" data-x="4.48" data-y="-5" cx="934.9119999999998" cy="984" r="28.792" fill="blue" stroke="#170fbd" stroke-width="28.792"/></g><g><circle data-type="point" data-label="conn_001" data-x="-1.1" data-y="5" cx="408.15999999999997" cy="40.000000000000284" r="28.792" fill="red" stroke="#170fbd" stroke-width="28.792"/></g><g><circle data-type="point" data-label="conn_002" data-x="5" data-y="-0.86" cx="983.9999999999998" cy="593.1840000000001" r="28.792" fill="blue" stroke="#bd490f" stroke-width="28.792"/></g><g><circle data-type="point" data-label="conn_002" data-x="-5" data-y="2.2800000000000002" cx="40.000000000000114" cy="296.76800000000014" r="28.792" fill="red" stroke="#bd490f" stroke-width="28.792"/></g><g><circle data-type="point" data-label="conn_003" data-x="-5" data-y="-1.34" cx="40.000000000000114" cy="638.4960000000001" r="28.792" fill="blue" stroke="#0fbd7c" stroke-width="28.792"/></g><g><circle data-type="point" data-label="conn_003" data-x="5" data-y="-4.16" cx="983.9999999999998" cy="904.704" r="28.792" fill="blue" stroke="#0fbd7c" stroke-width="28.792"/></g><g><circle data-type="point" data-label="conn_004" data-x="1.48" data-y="5" cx="651.7119999999999" cy="40.000000000000284" r="28.792" fill="red" stroke="#ae0fbd" stroke-width="28.792"/></g><g><circle data-type="point" data-label="conn_004" data-x="2.8000000000000003" data-y="5" cx="776.3199999999999" cy="40.000000000000284" r="28.792" fill="red" stroke="#ae0fbd" stroke-width="28.792"/></g><g><circle data-type="point" data-label="conn_005" data-x="5" data-y="4.5" cx="983.9999999999998" cy="87.20000000000027" r="28.792" fill="red" stroke="#98bd0f" stroke-width="28.792"/></g><g><circle data-type="point" data-label="conn_005" data-x="5" data-y="2.62" cx="983.9999999999998" cy="264.6720000000002" r="28.792" fill="red" stroke="#98bd0f" stroke-width="28.792"/></g><g><circle data-type="point" data-label="conn_006" data-x="-2.34" data-y="5" cx="291.10400000000004" cy="40.000000000000284" r="28.792" fill="red" stroke="#0f66bd" stroke-width="28.792"/></g><g><circle data-type="point" data-label="conn_006" data-x="0.5" data-y="-5" cx="559.1999999999999" cy="984" r="28.792" fill="blue" stroke="#0f66bd" stroke-width="28.792"/></g><g><circle data-type="point" data-label="conn_007" data-x="-2.96" data-y="5" cx="232.57600000000008" cy="40.000000000000284" r="28.792" fill="red" stroke="#bd0f33" stroke-width="28.792"/></g><g><circle data-type="point" data-label="conn_007" data-x="-4.6000000000000005" data-y="5" cx="77.76000000000005" cy="40.000000000000284" r="28.792" fill="red" stroke="#bd0f33" stroke-width="28.792"/></g><g><circle data-type="point" data-label="conn_008" data-x="5" data-y="1.68" cx="983.9999999999998" cy="353.4080000000002" r="28.792" fill="blue" stroke="#0fbd1e" stroke-width="28.792"/></g><g><circle data-type="point" data-label="conn_008" data-x="3.22" data-y="-5" cx="815.9679999999998" cy="984" r="28.792" fill="red" stroke="#0fbd1e" stroke-width="28.792"/></g><g><polyline data-points="5.000000000000002,1.6666666666666674 4.898989898989901,1.5656565656565666 4.7979797979797985,1.4646464646464652 4.696969696969697,1.3636363636363644 4.595959595959597,1.262626262626263 4.494949494949497,1.1616161616161622 4.393939393939394,1.0606060606060617 4.292929292929293,0.9595959595959602 4.191919191919193,0.8585858585858596 4.090909090909092,0.7575757575757579 3.989898989898992,0.6565656565656574 3.8888888888888893,0.5555555555555567 3.7878787878787885,0.4545454545454551 3.6868686868686877,0.3535353535353544 3.5858585858585874,0.2525252525252529 3.4848484848484866,0.1515151515151522 3.383838383838384,0.050505050505051545 3.2828282828282833,-0.05050505050505001 3.2828282828282833,-0.15151515151515066 3.2828282828282833,-0.2525252525252522 3.2828282828282833,-0.35353535353535287 3.2828282828282833,-0.4545454545454544 3.2828282828282833,-0.555555555555555 3.2828282828282833,-0.6565656565656557 3.2828282828282833,-0.7575757575757572 3.2828282828282833,-0.8585858585858579 3.2828282828282833,-0.9595959595959596 3.2828282828282833,-1.0606060606060603 3.2828282828282833,-1.1616161616161613 3.2828282828282833,-1.2626262626262625 3.2828282828282833,-1.363636363636363 3.2828282828282833,-1.4646464646464643 3.2828282828282833,-1.5656565656565653 3.2828282828282833,-1.6666666666666665 3.2828282828282833,-1.7676767676767675 3.2828282828282833,-1.8686868686868683 3.2828282828282833,-1.9696969696969693 3.2828282828282833,-2.07070707070707 3.2828282828282833,-2.1717171717171713 3.2828282828282833,-2.2727272727272725 3.2828282828282833,-2.3737373737373733 3.2828282828282833,-2.474747474747474 3.2828282828282833,-2.5757575757575752 3.2828282828282833,-2.6767676767676765 3.2828282828282833,-2.7777777777777777 3.2828282828282833,-2.8787878787878785 3.2828282828282833,-2.9797979797979792 3.2828282828282833,-3.0808080808080804 3.2828282828282833,-3.1818181818181817 3.2828282828282833,-3.2828282828282824 3.2828282828282833,-3.383838383838383 3.2828282828282833,-3.484848484848485 3.2828282828282833,-3.5858585858585856 3.2828282828282833,-3.6868686868686864 3.2828282828282833,-3.7878787878787876 3.2828282828282833,-3.8888888888888884 3.2828282828282833,-3.98989898989899" data-type="line" data-label="" points="984,354.66666666666674 974.4646464646464,364.2020202020203 964.9292929292927,373.73737373737384 955.3939393939393,383.27272727272737 945.8585858585857,392.80808080808094 936.3232323232323,402.3434343434344 926.7878787878785,411.87878787878793 917.2525252525251,421.4141414141415 907.7171717171716,430.94949494949503 898.181818181818,440.4848484848486 888.6464646464647,450.0202020202021 879.111111111111,459.5555555555556 869.5757575757575,469.0909090909092 860.0404040404039,478.6262626262627 850.5050505050505,488.1616161616163 840.969696969697,497.69696969696975 831.4343434343433,507.23232323232327 821.8989898989898,516.7676767676768 821.8989898989898,526.3030303030304 821.8989898989898,535.838383838384 821.8989898989898,545.3737373737374 821.8989898989898,554.909090909091 821.8989898989898,564.4444444444445 821.8989898989898,573.979797979798 821.8989898989898,583.5151515151516 821.8989898989898,593.0505050505051 821.8989898989898,602.5858585858587 821.8989898989898,612.1212121212121 821.8989898989898,621.6565656565657 821.8989898989898,631.1919191919193 821.8989898989898,640.7272727272727 821.8989898989898,650.2626262626263 821.8989898989898,659.7979797979798 821.8989898989898,669.3333333333334 821.8989898989898,678.8686868686868 821.8989898989898,688.4040404040404 821.8989898989898,697.939393939394 821.8989898989898,707.4747474747475 821.8989898989898,717.010101010101 821.8989898989898,726.5454545454545 821.8989898989898,736.0808080808081 821.8989898989898,745.6161616161615 821.8989898989898,755.1515151515151 821.8989898989898,764.6868686868687 821.8989898989898,774.2222222222222 821.8989898989898,783.7575757575758 821.8989898989898,793.2929292929292 821.8989898989898,802.8282828282828 821.8989898989898,812.3636363636363 821.8989898989898,821.8989898989898 821.8989898989898,831.4343434343434 821.8989898989898,840.969696969697 821.8989898989898,850.5050505050505 821.8989898989898,860.0404040404039 821.8989898989898,869.5757575757575 821.8989898989898,879.1111111111111 821.8989898989898,888.6464646464647" fill="none" stroke="rgba(0,0,255,0.75)" stroke-width="14.159999999999995"/></g><g><polyline data-points="3.2828282828282833,-3.98989898989899 3.2828282828282833,-4.090909090909091 3.2828282828282833,-4.191919191919193 3.2828282828282833,-4.292929292929293 3.2828282828282833,-4.393939393939394 3.2828282828282833,-4.494949494949496 3.2828282828282833,-4.595959595959596 3.2828282828282833,-4.696969696969697 3.2828282828282833,-4.7979797979797985 3.2828282828282833,-4.898989898989899 3.2828282828282833,-5.000000000000001" data-type="line" data-label="" points="821.8989898989898,888.6464646464647 821.8989898989898,898.1818181818181 821.8989898989898,907.7171717171718 821.8989898989898,917.2525252525252 821.8989898989898,926.7878787878788 821.8989898989898,936.3232323232323 821.8989898989898,945.8585858585858 821.8989898989898,955.3939393939394 821.8989898989898,964.9292929292928 821.8989898989898,974.4646464646464 821.8989898989898,984" fill="none" stroke="rgba(255,0,0,0.75)" stroke-width="14.159999999999995"/></g><g><polyline data-points="4.494949494949497,-5.000000000000001 4.393939393939394,-4.898989898989899 4.292929292929293,-4.7979797979797985 4.191919191919193,-4.696969696969697 4.090909090909092,-4.595959595959596 3.989898989898992,-4.494949494949496 3.8888888888888893,-4.494949494949496 3.7878787878787885,-4.494949494949496 3.6868686868686877,-4.494949494949496 3.5858585858585874,-4.494949494949496 3.4848484848484866,-4.494949494949496 3.383838383838384,-4.494949494949496 3.2828282828282833,-4.494949494949496 3.181818181818183,-4.393939393939394 3.080808080808082,-4.393939393939394 2.9797979797979806,-4.292929292929293 2.87878787878788,-4.191919191919193 2.7777777777777786,-4.090909090909091 2.676767676767678,-3.98989898989899 2.575757575757577,-3.8888888888888884 2.4747474747474754,-3.7878787878787876 2.373737373737375,-3.6868686868686864 2.2727272727272734,-3.5858585858585856 2.1717171717171726,-3.484848484848485 2.070707070707072,-3.383838383838383 1.9696969696969702,-3.2828282828282824 1.8686868686868696,-3.1818181818181817 1.767676767676768,-3.0808080808080804 1.6666666666666674,-2.9797979797979792 1.5656565656565666,-2.8787878787878785 1.4646464646464652,-2.7777777777777777 1.3636363636363644,-2.6767676767676765 1.262626262626263,-2.5757575757575752 1.1616161616161622,-2.474747474747474 1.0606060606060617,-2.3737373737373733 0.9595959595959602,-2.2727272727272725 0.8585858585858596,-2.1717171717171713 0.7575757575757579,-2.07070707070707 0.6565656565656574,-1.9696969696969693 0.5555555555555567,-1.8686868686868683 0.4545454545454551,-1.7676767676767675 0.3535353535353544,-1.6666666666666665 0.2525252525252529,-1.5656565656565653 0.1515151515151522,-1.4646464646464643 0.050505050505051545,-1.363636363636363 -0.05050505050505001,-1.2626262626262625 -0.15151515151515066,-1.1616161616161613 -0.2525252525252522,-1.0606060606060603 -0.35353535353535287,-0.9595959595959596 -0.4545454545454544,-0.8585858585858579 -0.555555555555555,-0.7575757575757572 -0.6565656565656557,-0.6565656565656557 -0.7575757575757572,-0.555555555555555 -0.8585858585858579,-0.4545454545454544 -0.9595959595959596,-0.35353535353535287 -1.0606060606060603,-0.2525252525252522 -1.0606060606060603,-0.15151515151515066 -1.0606060606060603,-0.05050505050505001 -1.0606060606060603,0.050505050505051545 -1.0606060606060603,0.1515151515151522 -1.0606060606060603,0.2525252525252529 -1.0606060606060603,0.3535353535353544 -1.0606060606060603,0.4545454545454551 -1.0606060606060603,0.5555555555555567 -1.0606060606060603,0.6565656565656574 -1.0606060606060603,0.7575757575757579 -1.0606060606060603,0.8585858585858596 -1.0606060606060603,0.9595959595959602 -1.0606060606060603,1.0606060606060617 -1.0606060606060603,1.1616161616161622 -1.0606060606060603,1.262626262626263 -1.0606060606060603,1.3636363636363644 -1.0606060606060603,1.4646464646464652 -1.0606060606060603,1.5656565656565666 -1.0606060606060603,1.6666666666666674 -1.0606060606060603,1.767676767676768 -1.0606060606060603,1.8686868686868696 -1.0606060606060603,1.9696969696969702 -1.0606060606060603,2.070707070707072 -1.0606060606060603,2.1717171717171726 -1.0606060606060603,2.2727272727272734 -1.0606060606060603,2.373737373737375 -1.0606060606060603,2.4747474747474754 -1.0606060606060603,2.575757575757577 -1.0606060606060603,2.676767676767678 -1.0606060606060603,2.7777777777777786 -1.0606060606060603,2.87878787878788 -1.0606060606060603,2.9797979797979806 -1.0606060606060603,3.080808080808082 -1.0606060606060603,3.181818181818183 -1.0606060606060603,3.2828282828282833 -1.0606060606060603,3.383838383838384 -1.0606060606060603,3.4848484848484866 -1.0606060606060603,3.5858585858585874 -1.0606060606060603,3.6868686868686877 -1.0606060606060603,3.7878787878787885 -1.0606060606060603,3.8888888888888893 -1.0606060606060603,3.989898989898992" data-type="line" data-label="" points="936.3232323232323,984 926.7878787878785,974.4646464646464 917.2525252525251,964.9292929292928 907.7171717171716,955.3939393939394 898.181818181818,945.8585858585858 888.6464646464647,936.3232323232323 879.111111111111,936.3232323232323 869.5757575757575,936.3232323232323 860.0404040404039,936.3232323232323 850.5050505050505,936.3232323232323 840.969696969697,936.3232323232323 831.4343434343433,936.3232323232323 821.8989898989898,936.3232323232323 812.3636363636363,926.7878787878788 802.8282828282828,926.7878787878788 793.2929292929292,917.2525252525252 783.7575757575758,907.7171717171718 774.2222222222222,898.1818181818181 764.6868686868686,888.6464646464647 755.1515151515151,879.1111111111111 745.6161616161615,869.5757575757575 736.0808080808081,860.0404040404039 726.5454545454545,850.5050505050505 717.0101010101009,840.969696969697 707.4747474747475,831.4343434343434 697.9393939393939,821.8989898989898 688.4040404040404,812.3636363636363 678.8686868686868,802.8282828282828 669.3333333333333,793.2929292929292 659.7979797979798,783.7575757575758 650.2626262626262,774.2222222222222 640.7272727272727,764.6868686868687 631.1919191919192,755.1515151515151 621.6565656565656,745.6161616161615 612.1212121212121,736.0808080808081 602.5858585858585,726.5454545454545 593.0505050505051,717.010101010101 583.5151515151515,707.4747474747475 573.9797979797979,697.939393939394 564.4444444444445,688.4040404040404 554.9090909090909,678.8686868686868 545.3737373737374,669.3333333333334 535.8383838383838,659.7979797979798 526.3030303030303,650.2626262626263 516.7676767676768,640.7272727272727 507.2323232323232,631.1919191919193 497.69696969696975,621.6565656565657 488.16161616161617,612.1212121212121 478.62626262626264,602.5858585858587 469.09090909090907,593.0505050505051 459.55555555555554,583.5151515151516 450.0202020202021,573.979797979798 440.4848484848485,564.4444444444445 430.949494949495,554.909090909091 421.4141414141414,545.3737373737374 411.8787878787879,535.838383838384 411.8787878787879,526.3030303030304 411.8787878787879,516.7676767676768 411.8787878787879,507.23232323232327 411.8787878787879,497.69696969696975 411.8787878787879,488.1616161616163 411.8787878787879,478.6262626262627 411.8787878787879,469.0909090909092 411.8787878787879,459.5555555555556 411.8787878787879,450.0202020202021 411.8787878787879,440.4848484848486 411.8787878787879,430.94949494949503 411.8787878787879,421.4141414141415 411.8787878787879,411.87878787878793 411.8787878787879,402.3434343434344 411.8787878787879,392.80808080808094 411.8787878787879,383.27272727272737 411.8787878787879,373.73737373737384 411.8787878787879,364.2020202020203 411.8787878787879,354.66666666666674 411.8787878787879,345.1313131313133 411.8787878787879,335.5959595959597 411.8787878787879,326.06060606060623 411.8787878787879,316.5252525252526 411.8787878787879,306.9898989898991 411.8787878787879,297.4545454545456 411.8787878787879,287.91919191919203 411.8787878787879,278.38383838383857 411.8787878787879,268.84848484848493 411.8787878787879,259.3131313131314 411.8787878787879,249.77777777777794 411.8787878787879,240.24242424242436 411.8787878787879,230.70707070707084 411.8787878787879,221.17171717171726 411.8787878787879,211.63636363636374 411.8787878787879,202.10101010101027 411.8787878787879,192.56565656565675 411.8787878787879,183.03030303030312 411.8787878787879,173.4949494949496 411.8787878787879,163.95959595959613 411.8787878787879,154.4242424242426 411.8787878787879,144.88888888888908 411.8787878787879,135.35353535353545" fill="none" stroke="rgba(0,0,255,0.75)" stroke-width="14.159999999999995"/></g><g><polyline data-points="-1.0606060606060603,3.989898989898992 -1.0606060606060603,4.090909090909092 -1.0606060606060603,4.191919191919193 -1.0606060606060603,4.292929292929293 -1.0606060606060603,4.393939393939394 -1.0606060606060603,4.494949494949497 -1.0606060606060603,4.595959595959597 -1.0606060606060603,4.696969696969697 -1.0606060606060603,4.7979797979797985 -1.0606060606060603,4.898989898989901 -1.0606060606060603,5.000000000000002" data-type="line" data-label="" points="411.8787878787879,135.35353535353545 411.8787878787879,125.81818181818198 411.8787878787879,116.28282828282846 411.8787878787879,106.747474747475 411.8787878787879,97.21212121212153 411.8787878787879,87.67676767676778 411.8787878787879,78.14141414141432 411.8787878787879,68.60606060606085 411.8787878787879,59.07070707070733 411.8787878787879,49.53535353535369 411.8787878787879,40.000000000000114" fill="none" stroke="rgba(255,0,0,0.75)" stroke-width="14.159999999999995"/></g><g><polyline data-points="5.000000000000002,4.595959595959597 5.000000000000002,4.494949494949497 5.000000000000002,4.393939393939394 5.000000000000002,4.292929292929293 5.000000000000002,4.191919191919193 5.000000000000002,4.090909090909092 5.000000000000002,3.989898989898992 5.000000000000002,3.8888888888888893 5.000000000000002,3.7878787878787885 5.000000000000002,3.6868686868686877 5.000000000000002,3.5858585858585874 5.000000000000002,3.4848484848484866 5.000000000000002,3.383838383838384 5.000000000000002,3.2828282828282833 5.000000000000002,3.181818181818183 5.000000000000002,3.080808080808082 5.000000000000002,2.9797979797979806 5.000000000000002,2.87878787878788 5.000000000000002,2.7777777777777786 5.000000000000002,2.676767676767678" data-type="line" data-label="" points="984,78.14141414141432 984,87.67676767676778 984,97.21212121212153 984,106.747474747475 984,116.28282828282846 984,125.81818181818198 984,135.35353535353545 984,144.88888888888908 984,154.4242424242426 984,163.95959595959613 984,173.4949494949496 984,183.03030303030312 984,192.56565656565675 984,202.10101010101027 984,211.63636363636374 984,221.17171717171726 984,230.70707070707084 984,240.24242424242436 984,249.77777777777794 984,259.3131313131314" fill="none" stroke="rgba(255,0,0,0.75)" stroke-width="14.159999999999995"/></g><g><polyline data-points="-2.3737373737373733,5.000000000000002 -2.2727272727272725,4.898989898989901 -2.1717171717171713,4.7979797979797985 -2.07070707070707,4.696969696969697 -1.9696969696969693,4.595959595959597 -1.8686868686868683,4.494949494949497 -1.7676767676767675,4.393939393939394 -1.6666666666666665,4.292929292929293 -1.5656565656565653,4.191919191919193 -1.5656565656565653,4.090909090909092 -1.5656565656565653,3.989898989898992 -1.4646464646464643,3.8888888888888893 -1.4646464646464643,3.7878787878787885 -1.363636363636363,3.6868686868686877 -1.2626262626262625,3.5858585858585874 -1.1616161616161613,3.4848484848484866 -1.0606060606060603,3.383838383838384 -0.9595959595959596,3.2828282828282833 -0.8585858585858579,3.181818181818183 -0.7575757575757572,3.080808080808082 -0.6565656565656557,2.9797979797979806 -0.555555555555555,2.87878787878788 -0.4545454545454544,2.7777777777777786 -0.35353535353535287,2.676767676767678 -0.2525252525252522,2.575757575757577 -0.15151515151515066,2.4747474747474754 -0.05050505050505001,2.373737373737375 0.050505050505051545,2.2727272727272734 0.1515151515151522,2.1717171717171726 0.2525252525252529,2.070707070707072 0.3535353535353544,1.9696969696969702 0.4545454545454551,1.8686868686868696 0.5555555555555567,1.767676767676768 0.5555555555555567,1.6666666666666674 0.5555555555555567,1.5656565656565666 0.5555555555555567,1.4646464646464652 0.5555555555555567,1.3636363636363644 0.5555555555555567,1.262626262626263 0.5555555555555567,1.1616161616161622 0.5555555555555567,1.0606060606060617 0.5555555555555567,0.9595959595959602 0.5555555555555567,0.8585858585858596 0.5555555555555567,0.7575757575757579 0.5555555555555567,0.6565656565656574 0.5555555555555567,0.5555555555555567 0.5555555555555567,0.4545454545454551 0.5555555555555567,0.3535353535353544 0.5555555555555567,0.2525252525252529 0.5555555555555567,0.1515151515151522 0.5555555555555567,0.050505050505051545 0.5555555555555567,-0.05050505050505001 0.5555555555555567,-0.15151515151515066 0.5555555555555567,-0.2525252525252522 0.5555555555555567,-0.35353535353535287 0.5555555555555567,-0.4545454545454544 0.5555555555555567,-0.555555555555555 0.5555555555555567,-0.6565656565656557 0.5555555555555567,-0.7575757575757572 0.5555555555555567,-0.8585858585858579 0.5555555555555567,-0.9595959595959596 0.5555555555555567,-1.0606060606060603 0.5555555555555567,-1.1616161616161613 0.5555555555555567,-1.2626262626262625 0.5555555555555567,-1.363636363636363 0.5555555555555567,-1.4646464646464643 0.5555555555555567,-1.5656565656565653 0.5555555555555567,-1.6666666666666665 0.5555555555555567,-1.7676767676767675 0.5555555555555567,-1.8686868686868683 0.5555555555555567,-1.9696969696969693 0.5555555555555567,-2.07070707070707 0.5555555555555567,-2.1717171717171713 0.5555555555555567,-2.2727272727272725 0.5555555555555567,-2.3737373737373733 0.5555555555555567,-2.474747474747474 0.5555555555555567,-2.5757575757575752 0.5555555555555567,-2.6767676767676765 0.5555555555555567,-2.7777777777777777 0.5555555555555567,-2.8787878787878785 0.5555555555555567,-2.9797979797979792 0.5555555555555567,-3.0808080808080804 0.5555555555555567,-3.1818181818181817 0.5555555555555567,-3.2828282828282824 0.5555555555555567,-3.383838383838383 0.5555555555555567,-3.484848484848485 0.5555555555555567,-3.5858585858585856 0.5555555555555567,-3.6868686868686864 0.5555555555555567,-3.7878787878787876 0.5555555555555567,-3.8888888888888884 0.5555555555555567,-3.98989898989899" data-type="line" data-label="" points="287.91919191919203,40.000000000000114 297.4545454545455,49.53535353535369 306.9898989898991,59.07070707070733 316.5252525252526,68.60606060606085 326.0606060606061,78.14141414141432 335.59595959595964,87.67676767676778 345.13131313131316,97.21212121212153 354.6666666666667,106.747474747475 364.2020202020202,116.28282828282846 364.2020202020202,125.81818181818198 364.2020202020202,135.35353535353545 373.7373737373738,144.88888888888908 373.7373737373738,154.4242424242426 383.2727272727273,163.95959595959613 392.80808080808083,173.4949494949496 402.34343434343435,183.03030303030312 411.8787878787879,192.56565656565675 421.4141414141414,202.10101010101027 430.949494949495,211.63636363636374 440.4848484848485,221.17171717171726 450.0202020202021,230.70707070707084 459.55555555555554,240.24242424242436 469.09090909090907,249.77777777777794 478.62626262626264,259.3131313131314 488.16161616161617,268.84848484848493 497.69696969696975,278.38383838383857 507.2323232323232,287.91919191919203 516.7676767676768,297.4545454545456 526.3030303030303,306.9898989898991 535.8383838383838,316.5252525252526 545.3737373737374,326.06060606060623 554.9090909090909,335.5959595959597 564.4444444444445,345.1313131313133 564.4444444444445,354.66666666666674 564.4444444444445,364.2020202020203 564.4444444444445,373.73737373737384 564.4444444444445,383.27272727272737 564.4444444444445,392.80808080808094 564.4444444444445,402.3434343434344 564.4444444444445,411.87878787878793 564.4444444444445,421.4141414141415 564.4444444444445,430.94949494949503 564.4444444444445,440.4848484848486 564.4444444444445,450.0202020202021 564.4444444444445,459.5555555555556 564.4444444444445,469.0909090909092 564.4444444444445,478.6262626262627 564.4444444444445,488.1616161616163 564.4444444444445,497.69696969696975 564.4444444444445,507.23232323232327 564.4444444444445,516.7676767676768 564.4444444444445,526.3030303030304 564.4444444444445,535.838383838384 564.4444444444445,545.3737373737374 564.4444444444445,554.909090909091 564.4444444444445,564.4444444444445 564.4444444444445,573.979797979798 564.4444444444445,583.5151515151516 564.4444444444445,593.0505050505051 564.4444444444445,602.5858585858587 564.4444444444445,612.1212121212121 564.4444444444445,621.6565656565657 564.4444444444445,631.1919191919193 564.4444444444445,640.7272727272727 564.4444444444445,650.2626262626263 564.4444444444445,659.7979797979798 564.4444444444445,669.3333333333334 564.4444444444445,678.8686868686868 564.4444444444445,688.4040404040404 564.4444444444445,697.939393939394 564.4444444444445,707.4747474747475 564.4444444444445,717.010101010101 564.4444444444445,726.5454545454545 564.4444444444445,736.0808080808081 564.4444444444445,745.6161616161615 564.4444444444445,755.1515151515151 564.4444444444445,764.6868686868687 564.4444444444445,774.2222222222222 564.4444444444445,783.7575757575758 564.4444444444445,793.2929292929292 564.4444444444445,802.8282828282828 564.4444444444445,812.3636363636363 564.4444444444445,821.8989898989898 564.4444444444445,831.4343434343434 564.4444444444445,840.969696969697 564.4444444444445,850.5050505050505 564.4444444444445,860.0404040404039 564.4444444444445,869.5757575757575 564.4444444444445,879.1111111111111 564.4444444444445,888.6464646464647" fill="none" stroke="rgba(255,0,0,0.75)" stroke-width="14.159999999999995"/></g><g><polyline data-points="0.5555555555555567,-3.98989898989899 0.5555555555555567,-4.090909090909091 0.5555555555555567,-4.191919191919193 0.5555555555555567,-4.292929292929293 0.5555555555555567,-4.393939393939394 0.5555555555555567,-4.494949494949496 0.5555555555555567,-4.595959595959596 0.5555555555555567,-4.696969696969697 0.5555555555555567,-4.7979797979797985 0.5555555555555567,-4.898989898989899 0.5555555555555567,-5.000000000000001" data-type="line" data-label="" points="564.4444444444445,888.6464646464647 564.4444444444445,898.1818181818181 564.4444444444445,907.7171717171718 564.4444444444445,917.2525252525252 564.4444444444445,926.7878787878788 564.4444444444445,936.3232323232323 564.4444444444445,945.8585858585858 564.4444444444445,955.3939393939394 564.4444444444445,964.9292929292928 564.4444444444445,974.4646464646464 564.4444444444445,984" fill="none" stroke="rgba(0,0,255,0.75)" stroke-width="14.159999999999995"/></g><g><polyline data-points="5.000000000000002,-0.8585858585858579 4.898989898989901,-0.7575757575757572 4.7979797979797985,-0.6565656565656557 4.696969696969697,-0.555555555555555 4.595959595959597,-0.4545454545454544 4.494949494949497,-0.35353535353535287 4.393939393939394,-0.2525252525252522 4.292929292929293,-0.15151515151515066 4.191919191919193,-0.15151515151515066 4.090909090909092,-0.15151515151515066 3.989898989898992,-0.15151515151515066" data-type="line" data-label="" points="984,593.0505050505051 974.4646464646464,583.5151515151516 964.9292929292927,573.979797979798 955.3939393939393,564.4444444444445 945.8585858585857,554.909090909091 936.3232323232323,545.3737373737374 926.7878787878785,535.838383838384 917.2525252525251,526.3030303030304 907.7171717171716,526.3030303030304 898.181818181818,526.3030303030304 888.6464646464647,526.3030303030304" fill="none" stroke="rgba(0,0,255,0.75)" stroke-width="14.159999999999995"/></g><g><polyline data-points="3.989898989898992,-0.15151515151515066 3.8888888888888893,-0.05050505050505001 3.7878787878787885,0.050505050505051545 3.6868686868686877,0.1515151515151522 3.5858585858585874,0.2525252525252529 3.4848484848484866,0.3535353535353544 3.383838383838384,0.4545454545454551 3.2828282828282833,0.5555555555555567 3.181818181818183,0.6565656565656574 3.080808080808082,0.7575757575757579 2.9797979797979806,0.8585858585858596 2.87878787878788,0.9595959595959602 2.7777777777777786,1.0606060606060617 2.676767676767678,1.1616161616161622 2.575757575757577,1.262626262626263 2.4747474747474754,1.3636363636363644 2.373737373737375,1.4646464646464652 2.2727272727272734,1.5656565656565666 2.1717171717171726,1.6666666666666674 2.070707070707072,1.767676767676768 1.9696969696969702,1.8686868686868696 1.8686868686868696,1.9696969696969702 1.767676767676768,1.9696969696969702 1.6666666666666674,1.9696969696969702 1.5656565656565666,1.9696969696969702 1.4646464646464652,1.9696969696969702 1.3636363636363644,1.9696969696969702 1.262626262626263,1.9696969696969702 1.1616161616161622,1.9696969696969702 1.0606060606060617,1.9696969696969702" data-type="line" data-label="" points="888.6464646464647,526.3030303030304 879.111111111111,516.7676767676768 869.5757575757575,507.23232323232327 860.0404040404039,497.69696969696975 850.5050505050505,488.1616161616163 840.969696969697,478.6262626262627 831.4343434343433,469.0909090909092 821.8989898989898,459.5555555555556 812.3636363636363,450.0202020202021 802.8282828282828,440.4848484848486 793.2929292929292,430.94949494949503 783.7575757575758,421.4141414141415 774.2222222222222,411.87878787878793 764.6868686868686,402.3434343434344 755.1515151515151,392.80808080808094 745.6161616161615,383.27272727272737 736.0808080808081,373.73737373737384 726.5454545454545,364.2020202020203 717.0101010101009,354.66666666666674 707.4747474747475,345.1313131313133 697.9393939393939,335.5959595959597 688.4040404040404,326.06060606060623 678.8686868686868,326.06060606060623 669.3333333333333,326.06060606060623 659.7979797979798,326.06060606060623 650.2626262626262,326.06060606060623 640.7272727272727,326.06060606060623 631.1919191919192,326.06060606060623 621.6565656565656,326.06060606060623 612.1212121212121,326.06060606060623" fill="none" stroke="rgba(255,0,0,0.75)" stroke-width="14.159999999999995"/></g><g><polyline data-points="1.0606060606060617,1.9696969696969702 0.9595959595959602,1.9696969696969702 0.8585858585858596,1.9696969696969702 0.7575757575757579,1.9696969696969702 0.6565656565656574,1.9696969696969702 0.5555555555555567,1.9696969696969702 0.4545454545454551,1.9696969696969702 0.3535353535353544,1.9696969696969702 0.2525252525252529,1.9696969696969702 0.1515151515151522,1.9696969696969702 0.050505050505051545,1.9696969696969702 -0.05050505050505001,1.9696969696969702 -0.15151515151515066,1.9696969696969702 -0.2525252525252522,1.9696969696969702 -0.35353535353535287,1.9696969696969702 -0.4545454545454544,1.9696969696969702" data-type="line" data-label="" points="612.1212121212121,326.06060606060623 602.5858585858585,326.06060606060623 593.0505050505051,326.06060606060623 583.5151515151515,326.06060606060623 573.9797979797979,326.06060606060623 564.4444444444445,326.06060606060623 554.9090909090909,326.06060606060623 545.3737373737374,326.06060606060623 535.8383838383838,326.06060606060623 526.3030303030303,326.06060606060623 516.7676767676768,326.06060606060623 507.2323232323232,326.06060606060623 497.69696969696975,326.06060606060623 488.16161616161617,326.06060606060623 478.62626262626264,326.06060606060623 469.09090909090907,326.06060606060623" fill="none" stroke="rgba(0,0,255,0.75)" stroke-width="14.159999999999995"/></g><g><polyline data-points="-0.4545454545454544,1.9696969696969702 -0.555555555555555,2.070707070707072 -0.6565656565656557,2.1717171717171726 -0.7575757575757572,2.2727272727272734 -0.8585858585858579,2.2727272727272734 -0.9595959595959596,2.2727272727272734 -1.0606060606060603,2.2727272727272734 -1.1616161616161613,2.2727272727272734 -1.2626262626262625,2.2727272727272734 -1.363636363636363,2.2727272727272734 -1.4646464646464643,2.2727272727272734 -1.5656565656565653,2.2727272727272734 -1.6666666666666665,2.2727272727272734 -1.7676767676767675,2.2727272727272734 -1.8686868686868683,2.2727272727272734 -1.9696969696969693,2.2727272727272734 -2.07070707070707,2.2727272727272734 -2.1717171717171713,2.2727272727272734 -2.2727272727272725,2.2727272727272734 -2.3737373737373733,2.2727272727272734 -2.474747474747474,2.2727272727272734 -2.5757575757575752,2.2727272727272734 -2.6767676767676765,2.2727272727272734 -2.7777777777777777,2.2727272727272734 -2.8787878787878785,2.2727272727272734 -2.9797979797979792,2.2727272727272734 -3.0808080808080804,2.2727272727272734 -3.1818181818181817,2.2727272727272734 -3.2828282828282824,2.2727272727272734 -3.383838383838383,2.2727272727272734 -3.484848484848485,2.2727272727272734 -3.5858585858585856,2.2727272727272734 -3.6868686868686864,2.2727272727272734 -3.7878787878787876,2.2727272727272734 -3.8888888888888884,2.2727272727272734 -3.98989898989899,2.2727272727272734 -4.090909090909091,2.2727272727272734 -4.191919191919193,2.2727272727272734 -4.292929292929293,2.2727272727272734 -4.393939393939394,2.2727272727272734 -4.494949494949496,2.2727272727272734 -4.595959595959596,2.2727272727272734 -4.696969696969697,2.2727272727272734 -4.7979797979797985,2.2727272727272734 -4.898989898989899,2.2727272727272734 -5.000000000000001,2.2727272727272734" data-type="line" data-label="" points="469.09090909090907,326.06060606060623 459.55555555555554,316.5252525252526 450.0202020202021,306.9898989898991 440.4848484848485,297.4545454545456 430.949494949495,297.4545454545456 421.4141414141414,297.4545454545456 411.8787878787879,297.4545454545456 402.34343434343435,297.4545454545456 392.80808080808083,297.4545454545456 383.2727272727273,297.4545454545456 373.7373737373738,297.4545454545456 364.2020202020202,297.4545454545456 354.6666666666667,297.4545454545456 345.13131313131316,297.4545454545456 335.59595959595964,297.4545454545456 326.0606060606061,297.4545454545456 316.5252525252526,297.4545454545456 306.9898989898991,297.4545454545456 297.4545454545455,297.4545454545456 287.91919191919203,297.4545454545456 278.38383838383845,297.4545454545456 268.84848484848493,297.4545454545456 259.3131313131314,297.4545454545456 249.77777777777783,297.4545454545456 240.2424242424243,297.4545454545456 230.70707070707084,297.4545454545456 221.17171717171726,297.4545454545456 211.63636363636374,297.4545454545456 202.10101010101022,297.4545454545456 192.5656565656567,297.4545454545456 183.03030303030312,297.4545454545456 173.4949494949496,297.4545454545456 163.95959595959607,297.4545454545456 154.42424242424255,297.4545454545456 144.88888888888903,297.4545454545456 135.35353535353545,297.4545454545456 125.81818181818193,297.4545454545456 116.28282828282829,297.4545454545456 106.74747474747483,297.4545454545456 97.21212121212136,297.4545454545456 87.67676767676772,297.4545454545456 78.14141414141426,297.4545454545456 68.60606060606068,297.4545454545456 59.07070707070716,297.4545454545456 49.53535353535369,297.4545454545456 40.00000000000006,297.4545454545456" fill="none" stroke="rgba(255,0,0,0.75)" stroke-width="14.159999999999995"/></g><g><polyline data-points="1.4646464646464652,5.000000000000002 1.5656565656565666,5.000000000000002 1.6666666666666674,5.000000000000002 1.767676767676768,5.000000000000002 1.8686868686868696,5.000000000000002 1.9696969696969702,5.000000000000002 2.070707070707072,5.000000000000002 2.1717171717171726,5.000000000000002 2.2727272727272734,5.000000000000002 2.373737373737375,5.000000000000002 2.4747474747474754,5.000000000000002 2.575757575757577,5.000000000000002 2.676767676767678,5.000000000000002 2.7777777777777786,5.000000000000002 2.87878787878788,5.000000000000002" data-type="line" data-label="" points="650.2626262626262,40.000000000000114 659.7979797979798,40.000000000000114 669.3333333333333,40.000000000000114 678.8686868686868,40.000000000000114 688.4040404040404,40.000000000000114 697.9393939393939,40.000000000000114 707.4747474747475,40.000000000000114 717.0101010101009,40.000000000000114 726.5454545454545,40.000000000000114 736.0808080808081,40.000000000000114 745.6161616161615,40.000000000000114 755.1515151515151,40.000000000000114 764.6868686868686,40.000000000000114 774.2222222222222,40.000000000000114 783.7575757575758,40.000000000000114" fill="none" stroke="rgba(255,0,0,0.75)" stroke-width="14.159999999999995"/></g><g><polyline data-points="1.767676767676768,-5.000000000000001 1.6666666666666674,-4.898989898989899 1.5656565656565666,-4.7979797979797985 1.4646464646464652,-4.696969696969697 1.3636363636363644,-4.595959595959596 1.262626262626263,-4.494949494949496 1.1616161616161622,-4.393939393939394 1.0606060606060617,-4.292929292929293 1.0606060606060617,-4.191919191919193 1.0606060606060617,-4.090909090909091 1.0606060606060617,-3.98989898989899 0.9595959595959602,-3.8888888888888884 0.9595959595959602,-3.7878787878787876 0.8585858585858596,-3.6868686868686864 0.7575757575757579,-3.5858585858585856 0.6565656565656574,-3.484848484848485 0.5555555555555567,-3.383838383838383 0.4545454545454551,-3.2828282828282824 0.3535353535353544,-3.1818181818181817 0.2525252525252529,-3.0808080808080804 0.1515151515151522,-2.9797979797979792 0.050505050505051545,-2.8787878787878785 -0.05050505050505001,-2.7777777777777777 -0.15151515151515066,-2.6767676767676765 -0.2525252525252522,-2.5757575757575752 -0.35353535353535287,-2.474747474747474 -0.4545454545454544,-2.3737373737373733 -0.555555555555555,-2.2727272727272725 -0.6565656565656557,-2.1717171717171713 -0.7575757575757572,-2.07070707070707 -0.8585858585858579,-1.9696969696969693 -0.9595959595959596,-1.8686868686868683 -1.0606060606060603,-1.7676767676767675 -1.1616161616161613,-1.6666666666666665 -1.2626262626262625,-1.5656565656565653 -1.363636363636363,-1.4646464646464643 -1.4646464646464643,-1.363636363636363 -1.5656565656565653,-1.2626262626262625 -1.6666666666666665,-1.1616161616161613 -1.7676767676767675,-1.0606060606060603 -1.8686868686868683,-0.9595959595959596 -1.9696969696969693,-0.8585858585858579 -2.07070707070707,-0.7575757575757572 -2.1717171717171713,-0.6565656565656557 -2.2727272727272725,-0.555555555555555 -2.3737373737373733,-0.4545454545454544 -2.474747474747474,-0.35353535353535287 -2.5757575757575752,-0.2525252525252522 -2.6767676767676765,-0.15151515151515066 -2.7777777777777777,-0.05050505050505001 -2.8787878787878785,0.050505050505051545 -2.9797979797979792,0.1515151515151522 -3.0808080808080804,0.2525252525252529 -3.1818181818181817,0.3535353535353544 -3.2828282828282824,0.4545454545454551 -3.383838383838383,0.5555555555555567 -3.484848484848485,0.6565656565656574 -3.5858585858585856,0.7575757575757579 -3.6868686868686864,0.8585858585858596 -3.7878787878787876,0.9595959595959602 -3.7878787878787876,1.0606060606060617 -3.7878787878787876,1.1616161616161622 -3.7878787878787876,1.262626262626263 -3.7878787878787876,1.3636363636363644 -3.7878787878787876,1.4646464646464652 -3.7878787878787876,1.5656565656565666 -3.7878787878787876,1.6666666666666674 -3.7878787878787876,1.767676767676768 -3.7878787878787876,1.8686868686868696 -3.7878787878787876,1.9696969696969702 -3.7878787878787876,2.070707070707072 -3.7878787878787876,2.1717171717171726 -3.7878787878787876,2.2727272727272734 -3.7878787878787876,2.373737373737375 -3.7878787878787876,2.4747474747474754 -3.7878787878787876,2.575757575757577 -3.7878787878787876,2.676767676767678 -3.7878787878787876,2.7777777777777786 -3.7878787878787876,2.87878787878788 -3.7878787878787876,2.9797979797979806 -3.7878787878787876,3.080808080808082 -3.7878787878787876,3.181818181818183 -3.7878787878787876,3.2828282828282833 -3.7878787878787876,3.383838383838384 -3.7878787878787876,3.4848484848484866 -3.7878787878787876,3.5858585858585874 -3.7878787878787876,3.6868686868686877 -3.7878787878787876,3.7878787878787885 -3.7878787878787876,3.8888888888888893 -3.7878787878787876,3.989898989898992" data-type="line" data-label="" points="678.8686868686868,984 669.3333333333333,974.4646464646464 659.7979797979798,964.9292929292928 650.2626262626262,955.3939393939394 640.7272727272727,945.8585858585858 631.1919191919192,936.3232323232323 621.6565656565656,926.7878787878788 612.1212121212121,917.2525252525252 612.1212121212121,907.7171717171718 612.1212121212121,898.1818181818181 612.1212121212121,888.6464646464647 602.5858585858585,879.1111111111111 602.5858585858585,869.5757575757575 593.0505050505051,860.0404040404039 583.5151515151515,850.5050505050505 573.9797979797979,840.969696969697 564.4444444444445,831.4343434343434 554.9090909090909,821.8989898989898 545.3737373737374,812.3636363636363 535.8383838383838,802.8282828282828 526.3030303030303,793.2929292929292 516.7676767676768,783.7575757575758 507.2323232323232,774.2222222222222 497.69696969696975,764.6868686868687 488.16161616161617,755.1515151515151 478.62626262626264,745.6161616161615 469.09090909090907,736.0808080808081 459.55555555555554,726.5454545454545 450.0202020202021,717.010101010101 440.4848484848485,707.4747474747475 430.949494949495,697.939393939394 421.4141414141414,688.4040404040404 411.8787878787879,678.8686868686868 402.34343434343435,669.3333333333334 392.80808080808083,659.7979797979798 383.2727272727273,650.2626262626263 373.7373737373738,640.7272727272727 364.2020202020202,631.1919191919193 354.6666666666667,621.6565656565657 345.13131313131316,612.1212121212121 335.59595959595964,602.5858585858587 326.0606060606061,593.0505050505051 316.5252525252526,583.5151515151516 306.9898989898991,573.979797979798 297.4545454545455,564.4444444444445 287.91919191919203,554.909090909091 278.38383838383845,545.3737373737374 268.84848484848493,535.838383838384 259.3131313131314,526.3030303030304 249.77777777777783,516.7676767676768 240.2424242424243,507.23232323232327 230.70707070707084,497.69696969696975 221.17171717171726,488.1616161616163 211.63636363636374,478.6262626262627 202.10101010101022,469.0909090909092 192.5656565656567,459.5555555555556 183.03030303030312,450.0202020202021 173.4949494949496,440.4848484848486 163.95959595959607,430.94949494949503 154.42424242424255,421.4141414141415 154.42424242424255,411.87878787878793 154.42424242424255,402.3434343434344 154.42424242424255,392.80808080808094 154.42424242424255,383.27272727272737 154.42424242424255,373.73737373737384 154.42424242424255,364.2020202020203 154.42424242424255,354.66666666666674 154.42424242424255,345.1313131313133 154.42424242424255,335.5959595959597 154.42424242424255,326.06060606060623 154.42424242424255,316.5252525252526 154.42424242424255,306.9898989898991 154.42424242424255,297.4545454545456 154.42424242424255,287.91919191919203 154.42424242424255,278.38383838383857 154.42424242424255,268.84848484848493 154.42424242424255,259.3131313131314 154.42424242424255,249.77777777777794 154.42424242424255,240.24242424242436 154.42424242424255,230.70707070707084 154.42424242424255,221.17171717171726 154.42424242424255,211.63636363636374 154.42424242424255,202.10101010101027 154.42424242424255,192.56565656565675 154.42424242424255,183.03030303030312 154.42424242424255,173.4949494949496 154.42424242424255,163.95959595959613 154.42424242424255,154.4242424242426 154.42424242424255,144.88888888888908 154.42424242424255,135.35353535353545" fill="none" stroke="rgba(0,0,255,0.75)" stroke-width="14.159999999999995"/></g><g><polyline data-points="-3.7878787878787876,3.989898989898992 -3.7878787878787876,4.090909090909092 -3.7878787878787876,4.191919191919193 -3.7878787878787876,4.292929292929293 -3.7878787878787876,4.393939393939394 -3.7878787878787876,4.494949494949497 -3.7878787878787876,4.595959595959597 -3.7878787878787876,4.696969696969697 -3.7878787878787876,4.7979797979797985 -3.7878787878787876,4.898989898989901 -3.7878787878787876,5.000000000000002" data-type="line" data-label="" points="154.42424242424255,135.35353535353545 154.42424242424255,125.81818181818198 154.42424242424255,116.28282828282846 154.42424242424255,106.747474747475 154.42424242424255,97.21212121212153 154.42424242424255,87.67676767676778 154.42424242424255,78.14141414141432 154.42424242424255,68.60606060606085 154.42424242424255,59.07070707070733 154.42424242424255,49.53535353535369 154.42424242424255,40.000000000000114" fill="none" stroke="rgba(255,0,0,0.75)" stroke-width="14.159999999999995"/></g><g><polyline data-points="-2.9797979797979792,5.000000000000002 -3.0808080808080804,4.898989898989901 -3.1818181818181817,4.7979797979797985 -3.2828282828282824,4.696969696969697 -3.2828282828282824,4.595959595959597 -3.2828282828282824,4.494949494949497 -3.2828282828282824,4.393939393939394 -3.2828282828282824,4.292929292929293 -3.2828282828282824,4.191919191919193 -3.2828282828282824,4.090909090909092 -3.2828282828282824,3.989898989898992 -3.383838383838383,3.8888888888888893 -3.383838383838383,3.7878787878787885 -3.484848484848485,3.6868686868686877 -3.5858585858585856,3.5858585858585874 -3.6868686868686864,3.5858585858585874 -3.7878787878787876,3.4848484848484866 -3.8888888888888884,3.5858585858585874 -3.98989898989899,3.5858585858585874 -4.090909090909091,3.6868686868686877 -4.191919191919193,3.7878787878787885 -4.292929292929293,3.8888888888888893 -4.393939393939394,3.989898989898992 -4.494949494949496,4.090909090909092 -4.595959595959596,4.191919191919193 -4.696969696969697,4.292929292929293 -4.696969696969697,4.393939393939394 -4.696969696969697,4.494949494949497 -4.696969696969697,4.595959595959597 -4.696969696969697,4.696969696969697 -4.696969696969697,4.7979797979797985 -4.696969696969697,4.898989898989901 -4.696969696969697,5.000000000000002" data-type="line" data-label="" points="230.70707070707084,40.000000000000114 221.17171717171726,49.53535353535369 211.63636363636374,59.07070707070733 202.10101010101022,68.60606060606085 202.10101010101022,78.14141414141432 202.10101010101022,87.67676767676778 202.10101010101022,97.21212121212153 202.10101010101022,106.747474747475 202.10101010101022,116.28282828282846 202.10101010101022,125.81818181818198 202.10101010101022,135.35353535353545 192.5656565656567,144.88888888888908 192.5656565656567,154.4242424242426 183.03030303030312,163.95959595959613 173.4949494949496,173.4949494949496 163.95959595959607,173.4949494949496 154.42424242424255,183.03030303030312 144.88888888888903,173.4949494949496 135.35353535353545,173.4949494949496 125.81818181818193,163.95959595959613 116.28282828282829,154.4242424242426 106.74747474747483,144.88888888888908 97.21212121212136,135.35353535353545 87.67676767676772,125.81818181818198 78.14141414141426,116.28282828282846 68.60606060606068,106.747474747475 68.60606060606068,97.21212121212153 68.60606060606068,87.67676767676778 68.60606060606068,78.14141414141432 68.60606060606068,68.60606060606085 68.60606060606068,59.07070707070733 68.60606060606068,49.53535353535369 68.60606060606068,40.000000000000114" fill="none" stroke="rgba(255,0,0,0.75)" stroke-width="14.159999999999995"/></g><g><polyline data-points="-5.000000000000001,-1.363636363636363 -5.000000000000001,-1.4646464646464643 -4.898989898989899,-1.5656565656565653 -4.7979797979797985,-1.6666666666666665 -4.696969696969697,-1.7676767676767675 -4.595959595959596,-1.8686868686868683 -4.494949494949496,-1.9696969696969693 -4.393939393939394,-2.07070707070707 -4.292929292929293,-2.1717171717171713 -4.191919191919193,-2.2727272727272725 -4.090909090909091,-2.3737373737373733 -3.98989898989899,-2.474747474747474 -3.8888888888888884,-2.5757575757575752 -3.7878787878787876,-2.6767676767676765 -3.6868686868686864,-2.7777777777777777 -3.5858585858585856,-2.8787878787878785 -3.484848484848485,-2.9797979797979792 -3.383838383838383,-3.0808080808080804 -3.2828282828282824,-3.1818181818181817 -3.1818181818181817,-3.2828282828282824 -3.0808080808080804,-3.383838383838383 -2.9797979797979792,-3.484848484848485 -2.8787878787878785,-3.5858585858585856 -2.7777777777777777,-3.6868686868686864 -2.6767676767676765,-3.7878787878787876 -2.5757575757575752,-3.8888888888888884 -2.474747474747474,-3.98989898989899 -2.3737373737373733,-3.98989898989899 -2.2727272727272725,-3.98989898989899 -2.1717171717171713,-3.98989898989899 -2.07070707070707,-3.98989898989899 -1.9696969696969693,-3.98989898989899 -1.8686868686868683,-3.98989898989899 -1.7676767676767675,-3.98989898989899 -1.6666666666666665,-3.98989898989899 -1.5656565656565653,-3.98989898989899 -1.4646464646464643,-3.98989898989899 -1.363636363636363,-3.98989898989899 -1.2626262626262625,-3.98989898989899 -1.1616161616161613,-3.98989898989899 -1.0606060606060603,-3.98989898989899 -0.9595959595959596,-3.98989898989899 -0.8585858585858579,-3.98989898989899 -0.7575757575757572,-3.98989898989899 -0.6565656565656557,-3.98989898989899 -0.555555555555555,-3.98989898989899 -0.4545454545454544,-3.98989898989899 -0.35353535353535287,-3.98989898989899" data-type="line" data-label="" points="40.00000000000006,640.7272727272727 40.00000000000006,650.2626262626263 49.53535353535369,659.7979797979798 59.07070707070716,669.3333333333334 68.60606060606068,678.8686868686868 78.14141414141426,688.4040404040404 87.67676767676772,697.939393939394 97.21212121212136,707.4747474747475 106.74747474747483,717.010101010101 116.28282828282829,726.5454545454545 125.81818181818193,736.0808080808081 135.35353535353545,745.6161616161615 144.88888888888903,755.1515151515151 154.42424242424255,764.6868686868687 163.95959595959607,774.2222222222222 173.4949494949496,783.7575757575758 183.03030303030312,793.2929292929292 192.5656565656567,802.8282828282828 202.10101010101022,812.3636363636363 211.63636363636374,821.8989898989898 221.17171717171726,831.4343434343434 230.70707070707084,840.969696969697 240.2424242424243,850.5050505050505 249.77777777777783,860.0404040404039 259.3131313131314,869.5757575757575 268.84848484848493,879.1111111111111 278.38383838383845,888.6464646464647 287.91919191919203,888.6464646464647 297.4545454545455,888.6464646464647 306.9898989898991,888.6464646464647 316.5252525252526,888.6464646464647 326.0606060606061,888.6464646464647 335.59595959595964,888.6464646464647 345.13131313131316,888.6464646464647 354.6666666666667,888.6464646464647 364.2020202020202,888.6464646464647 373.7373737373738,888.6464646464647 383.2727272727273,888.6464646464647 392.80808080808083,888.6464646464647 402.34343434343435,888.6464646464647 411.8787878787879,888.6464646464647 421.4141414141414,888.6464646464647 430.949494949495,888.6464646464647 440.4848484848485,888.6464646464647 450.0202020202021,888.6464646464647 459.55555555555554,888.6464646464647 469.09090909090907,888.6464646464647 478.62626262626264,888.6464646464647" fill="none" stroke="rgba(0,0,255,0.75)" stroke-width="14.159999999999995"/></g><g><polyline data-points="-0.35353535353535287,-3.98989898989899 -0.2525252525252522,-4.090909090909091 -0.15151515151515066,-4.191919191919193 -0.05050505050505001,-4.191919191919193 0.050505050505051545,-4.191919191919193 0.1515151515151522,-4.191919191919193 0.2525252525252529,-4.292929292929293 0.3535353535353544,-4.393939393939394 0.4545454545454551,-4.393939393939394 0.5555555555555567,-4.494949494949496 0.6565656565656574,-4.393939393939394 0.7575757575757579,-4.393939393939394 0.8585858585858596,-4.292929292929293 0.9595959595959602,-4.191919191919193 1.0606060606060617,-4.191919191919193 1.1616161616161622,-4.191919191919193 1.262626262626263,-4.191919191919193 1.3636363636363644,-4.191919191919193 1.4646464646464652,-4.191919191919193 1.5656565656565666,-4.191919191919193 1.6666666666666674,-4.191919191919193 1.767676767676768,-4.191919191919193 1.8686868686868696,-4.191919191919193 1.9696969696969702,-4.191919191919193 2.070707070707072,-4.191919191919193 2.1717171717171726,-4.191919191919193 2.2727272727272734,-4.191919191919193 2.373737373737375,-4.191919191919193 2.4747474747474754,-4.191919191919193 2.575757575757577,-4.090909090909091 2.676767676767678,-3.98989898989899 2.7777777777777786,-3.8888888888888884 2.87878787878788,-3.7878787878787876 2.9797979797979806,-3.6868686868686864 3.080808080808082,-3.5858585858585856 3.181818181818183,-3.5858585858585856 3.2828282828282833,-3.484848484848485 3.383838383838384,-3.484848484848485 3.4848484848484866,-3.484848484848485 3.5858585858585874,-3.5858585858585856 3.6868686868686877,-3.5858585858585856 3.7878787878787885,-3.5858585858585856 3.8888888888888893,-3.5858585858585856 3.989898989898992,-3.5858585858585856" data-type="line" data-label="" points="478.62626262626264,888.6464646464647 488.16161616161617,898.1818181818181 497.69696969696975,907.7171717171718 507.2323232323232,907.7171717171718 516.7676767676768,907.7171717171718 526.3030303030303,907.7171717171718 535.8383838383838,917.2525252525252 545.3737373737374,926.7878787878788 554.9090909090909,926.7878787878788 564.4444444444445,936.3232323232323 573.9797979797979,926.7878787878788 583.5151515151515,926.7878787878788 593.0505050505051,917.2525252525252 602.5858585858585,907.7171717171718 612.1212121212121,907.7171717171718 621.6565656565656,907.7171717171718 631.1919191919192,907.7171717171718 640.7272727272727,907.7171717171718 650.2626262626262,907.7171717171718 659.7979797979798,907.7171717171718 669.3333333333333,907.7171717171718 678.8686868686868,907.7171717171718 688.4040404040404,907.7171717171718 697.9393939393939,907.7171717171718 707.4747474747475,907.7171717171718 717.0101010101009,907.7171717171718 726.5454545454545,907.7171717171718 736.0808080808081,907.7171717171718 745.6161616161615,907.7171717171718 755.1515151515151,898.1818181818181 764.6868686868686,888.6464646464647 774.2222222222222,879.1111111111111 783.7575757575758,869.5757575757575 793.2929292929292,860.0404040404039 802.8282828282828,850.5050505050505 812.3636363636363,850.5050505050505 821.8989898989898,840.969696969697 831.4343434343433,840.969696969697 840.969696969697,840.969696969697 850.5050505050505,850.5050505050505 860.0404040404039,850.5050505050505 869.5757575757575,850.5050505050505 879.111111111111,850.5050505050505 888.6464646464647,850.5050505050505" fill="none" stroke="rgba(255,0,0,0.75)" stroke-width="14.159999999999995"/></g><g><polyline data-points="3.989898989898992,-3.5858585858585856 4.090909090909092,-3.6868686868686864 4.191919191919193,-3.7878787878787876 4.292929292929293,-3.8888888888888884 4.393939393939394,-3.98989898989899 4.494949494949497,-4.090909090909091 4.595959595959597,-4.090909090909091 4.696969696969697,-4.090909090909091 4.7979797979797985,-4.090909090909091 4.898989898989901,-4.090909090909091 5.000000000000002,-4.191919191919193" data-type="line" data-label="" points="888.6464646464647,850.5050505050505 898.181818181818,860.0404040404039 907.7171717171716,869.5757575757575 917.2525252525251,879.1111111111111 926.7878787878785,888.6464646464647 936.3232323232323,898.1818181818181 945.8585858585857,898.1818181818181 955.3939393939393,898.1818181818181 964.9292929292927,898.1818181818181 974.4646464646464,898.1818181818181 984,907.7171717171718" fill="none" stroke="rgba(0,0,255,0.75)" stroke-width="14.159999999999995"/></g><g><rect data-type="rect" data-label="" data-x="0" data-y="0" x="40.000000000000114" y="40.000000000000284" width="943.9999999999997" height="943.9999999999998" fill="none" stroke="gray" stroke-width="0.010593220338983056"/></g><g><rect data-type="rect" data-label="" data-x="0" data-y="0" x="40.000000000000114" y="40.000000000000284" width="943.9999999999997" height="943.9999999999998" fill="none" stroke="rgba(15, 23, 42, 0.8)" stroke-width="0.010593220338983056"/></g><circle data-type="circle" data-label="" data-x="3.2828282828282833" data-y="-3.98989898989899" cx="821.8989898989898" cy="888.6464646464647" r="28.791999999999987" fill="rgba(0,0,0,0.3)" stroke="black" stroke-width="0.010593220338983056"/><circle data-type="circle" data-label="" data-x="-1.0606060606060603" data-y="3.989898989898992" cx="411.8787878787879" cy="135.35353535353545" r="28.791999999999987" fill="rgba(0,0,0,0.3)" stroke="black" stroke-width="0.010593220338983056"/><circle data-type="circle" data-label="" data-x="0.5555555555555567" data-y="-3.98989898989899" cx="564.4444444444445" cy="888.6464646464647" r="28.791999999999987" fill="rgba(0,0,0,0.3)" stroke="black" stroke-width="0.010593220338983056"/><circle data-type="circle" data-label="" data-x="3.989898989898992" data-y="-0.15151515151515066" cx="888.6464646464647" cy="526.3030303030304" r="28.791999999999987" fill="rgba(0,0,0,0.3)" stroke="black" stroke-width="0.010593220338983056"/><circle data-type="circle" data-label="" data-x="1.0606060606060617" data-y="1.9696969696969702" cx="612.1212121212121" cy="326.06060606060623" r="28.791999999999987" fill="rgba(0,0,0,0.3)" stroke="black" stroke-width="0.010593220338983056"/><circle data-type="circle" data-label="" data-x="-0.4545454545454544" data-y="1.9696969696969702" cx="469.09090909090907" cy="326.06060606060623" r="28.791999999999987" fill="rgba(0,0,0,0.3)" stroke="black" stroke-width="0.010593220338983056"/><circle data-type="circle" data-label="" data-x="-3.7878787878787876" data-y="3.989898989898992" cx="154.42424242424255" cy="135.35353535353545" r="28.791999999999987" fill="rgba(0,0,0,0.3)" stroke="black" stroke-width="0.010593220338983056"/><circle data-type="circle" data-label="" data-x="-0.35353535353535287" data-y="-3.98989898989899" cx="478.62626262626264" cy="888.6464646464647" r="28.791999999999987" fill="rgba(0,0,0,0.3)" stroke="black" stroke-width="0.010593220338983056"/><circle data-type="circle" data-label="" data-x="3.989898989898992" data-y="-3.5858585858585856" cx="888.6464646464647" cy="850.5050505050505" r="28.791999999999987" fill="rgba(0,0,0,0.3)" stroke="black" stroke-width="0.010593220338983056"/><g id="crosshair" style="display: none"><line id="crosshair-h" y1="0" y2="1024" stroke="#666" stroke-width="0.5"/><line id="crosshair-v" x1="0" x2="1024" stroke="#666" stroke-width="0.5"/><text id="coordinates" font-family="monospace" font-size="12" fill="#666"></text></g><script><![CDATA[
              document.currentScript.parentElement.addEventListener('mousemove', (e) => {
                const svg = e.currentTarget;
                const rect = svg.getBoundingClientRect();
                const x = e.clientX - rect.left;
                const y = e.clientY - rect.top;
                const crosshair = svg.getElementById('crosshair');
                const h = svg.getElementById('crosshair-h');
                const v = svg.getElementById('crosshair-v');
                const coords = svg.getElementById('coordinates');
                
                crosshair.style.display = 'block';
                h.setAttribute('x1', '0');
                h.setAttribute('x2', '1024');
                h.setAttribute('y1', y);
                h.setAttribute('y2', y);
                v.setAttribute('x1', x);
                v.setAttribute('x2', x);
                v.setAttribute('y1', '0');
                v.setAttribute('y2', '1024');

                // Calculate real coordinates using inverse transformation
                const matrix = {"a":94.39999999999996,"c":0,"e":511.99999999999994,"b":0,"d":-94.39999999999996,"f":512.0000000000001};
                // Manually invert and apply the affine transform
                // Since we only use translate and scale, we can directly compute:
                // x' = (x - tx) / sx
                // y' = (y - ty) / sy
                const sx = matrix.a;
                const sy = matrix.d;
                const tx = matrix.e; 
                const ty = matrix.f;
                const realPoint = {
                  x: (x - tx) / sx,
                  y: (y - ty) / sy // Flip y back since we used negative scale
                }
                
                coords.textContent = `(${realPoint.x.toFixed(2)}, ${realPoint.y.toFixed(2)})`;
                coords.setAttribute('x', (x + 5).toString());
                coords.setAttribute('y', (y - 5).toString());
              });
              document.currentScript.parentElement.addEventListener('mouseleave', () => {
                document.currentScript.parentElement.getElementById('crosshair').style.display = 'none';
              });
            ]]></script></svg>