<svg width="1024" height="1024" viewBox="0 0 1024 1024" xmlns="http://www.w3.org/2000/svg"><rect width="100%" height="100%" fill="white"/><g><circle data-type="point" data-label="conn_000" data-x="5" data-y="-4.6000000000000005" cx="983.9999999999998" cy="946.24" r="28.792" fill="red" stroke="#0fa0bd" stroke-width="28.792"/></g><g><circle data-type="point" data-label="conn_000" data-x="-5" data-y="3.6" cx="40.000000000000114" cy="172.16000000000025" r="28.792" fill="red" stroke="#0fa0bd" stroke-width="28.792"/></g><g><circle data-type="point" data-label="conn_001" data-x="5" data-y="0.28" cx="983.9999999999998" cy="485.5680000000001" r="28.792" fill="blue" stroke="#bd0f6d" stroke-width="28.792"/></g><g><circle data-type="point" data-label="conn_001" data-x="-0.22" data-y="5" cx="491.23199999999997" cy="40.000000000000284" r="28.792" fill="blue" stroke="#bd0f6d" stroke-width="28.792"/></g><g><circle data-type="point" data-label="conn_002" data-x="4.68" data-y="5" cx="953.7919999999997" cy="40.000000000000284" r="28.792" fill="blue" stroke="#3bbd0f" stroke-width="28.792"/></g><g><circle data-type="point" data-label="conn_002" data-x="-1.86" data-y="-5" cx="336.416" cy="984" r="28.792" fill="red" stroke="#3bbd0f" stroke-width="28.792"/></g><g><circle data-type="point" data-label="conn_003" data-x="2.96" data-y="-5" cx="791.4239999999998" cy="984" r="28.792" fill="blue" stroke="#170fbd" stroke-width="28.792"/></g><g><circle data-type="point" data-label="conn_003" data-x="-5" data-y="0.32" cx="40.000000000000114" cy="481.79200000000014" r="28.792" fill="red" stroke="#170fbd" stroke-width="28.792"/></g><g><circle data-type="point" data-label="conn_004" data-x="5" data-y="-3.22" cx="983.9999999999998" cy="815.9680000000001" r="28.792" fill="blue" stroke="#bd490f" stroke-width="28.792"/></g><g><circle data-type="point" data-label="conn_004" data-x="-5" data-y="-3.44" cx="40.000000000000114" cy="836.736" r="28.792" fill="red" stroke="#bd490f" stroke-width="28.792"/></g><g><circle data-type="point" data-label="conn_005" data-x="-5" data-y="-1.8800000000000001" cx="40.000000000000114" cy="689.4720000000001" r="28.792" fill="red" stroke="#0fbd7c" stroke-width="28.792"/></g><g><circle data-type="point" data-label="conn_005" data-x="5" data-y="3.84" cx="983.9999999999998" cy="149.50400000000025" r="28.792" fill="red" stroke="#0fbd7c" stroke-width="28.792"/></g><g><circle data-type="point" data-label="conn_006" data-x="-2.24" data-y="5" cx="300.544" cy="40.000000000000284" r="28.792" fill="blue" stroke="#ae0fbd" stroke-width="28.792"/></g><g><circle data-type="point" data-label="conn_006" data-x="-5" data-y="1.48" cx="40.000000000000114" cy="372.2880000000002" r="28.792" fill="red" stroke="#ae0fbd" stroke-width="28.792"/></g><g><circle data-type="point" data-label="conn_007" data-x="1.3" data-y="5" cx="634.7199999999999" cy="40.000000000000284" r="28.792" fill="blue" stroke="#98bd0f" stroke-width="28.792"/></g><g><circle data-type="point" data-label="conn_007" data-x="5" data-y="-2.42" cx="983.9999999999998" cy="740.448" r="28.792" fill="red" stroke="#98bd0f" stroke-width="28.792"/></g><g><polyline data-points="5.000000000000002,-3.2828282828282824 4.898989898989901,-3.383838383838383 4.7979797979797985,-3.484848484848485 4.696969696969697,-3.484848484848485 4.595959595959597,-3.484848484848485 4.494949494949497,-3.484848484848485 4.393939393939394,-3.484848484848485 4.292929292929293,-3.484848484848485 4.191919191919193,-3.484848484848485 4.090909090909092,-3.484848484848485 3.989898989898992,-3.484848484848485 3.8888888888888893,-3.484848484848485 3.7878787878787885,-3.484848484848485 3.6868686868686877,-3.484848484848485 3.5858585858585874,-3.484848484848485 3.4848484848484866,-3.484848484848485 3.383838383838384,-3.484848484848485 3.2828282828282833,-3.484848484848485 3.181818181818183,-3.484848484848485 3.080808080808082,-3.484848484848485 2.9797979797979806,-3.484848484848485 2.87878787878788,-3.484848484848485 2.7777777777777786,-3.484848484848485 2.676767676767678,-3.484848484848485 2.575757575757577,-3.484848484848485 2.4747474747474754,-3.484848484848485 2.373737373737375,-3.484848484848485 2.2727272727272734,-3.484848484848485 2.1717171717171726,-3.484848484848485 2.070707070707072,-3.484848484848485 1.9696969696969702,-3.484848484848485 1.8686868686868696,-3.484848484848485 1.767676767676768,-3.484848484848485 1.6666666666666674,-3.484848484848485 1.5656565656565666,-3.484848484848485 1.4646464646464652,-3.484848484848485 1.3636363636363644,-3.484848484848485 1.262626262626263,-3.484848484848485 1.1616161616161622,-3.484848484848485 1.0606060606060617,-3.484848484848485 0.9595959595959602,-3.484848484848485 0.8585858585858596,-3.484848484848485 0.7575757575757579,-3.484848484848485 0.6565656565656574,-3.484848484848485 0.5555555555555567,-3.484848484848485 0.4545454545454551,-3.484848484848485 0.3535353535353544,-3.484848484848485 0.2525252525252529,-3.484848484848485 0.1515151515151522,-3.484848484848485 0.050505050505051545,-3.484848484848485 -0.05050505050505001,-3.484848484848485 -0.15151515151515066,-3.484848484848485 -0.2525252525252522,-3.484848484848485 -0.35353535353535287,-3.484848484848485 -0.4545454545454544,-3.484848484848485 -0.555555555555555,-3.484848484848485 -0.6565656565656557,-3.484848484848485 -0.7575757575757572,-3.484848484848485 -0.8585858585858579,-3.484848484848485 -0.9595959595959596,-3.484848484848485 -1.0606060606060603,-3.484848484848485 -1.1616161616161613,-3.484848484848485 -1.2626262626262625,-3.484848484848485 -1.363636363636363,-3.484848484848485 -1.4646464646464643,-3.484848484848485 -1.5656565656565653,-3.484848484848485 -1.6666666666666665,-3.484848484848485 -1.7676767676767675,-3.484848484848485 -1.8686868686868683,-3.484848484848485 -1.9696969696969693,-3.484848484848485 -2.07070707070707,-3.484848484848485 -2.1717171717171713,-3.484848484848485 -2.2727272727272725,-3.484848484848485 -2.3737373737373733,-3.484848484848485 -2.474747474747474,-3.484848484848485 -2.5757575757575752,-3.484848484848485 -2.6767676767676765,-3.484848484848485 -2.7777777777777777,-3.484848484848485 -2.8787878787878785,-3.484848484848485 -2.9797979797979792,-3.484848484848485 -3.0808080808080804,-3.484848484848485 -3.1818181818181817,-3.484848484848485 -3.2828282828282824,-3.484848484848485 -3.383838383838383,-3.484848484848485 -3.484848484848485,-3.484848484848485 -3.5858585858585856,-3.484848484848485 -3.6868686868686864,-3.484848484848485 -3.7878787878787876,-3.484848484848485 -3.8888888888888884,-3.484848484848485 -3.98989898989899,-3.484848484848485" data-type="line" data-label="" points="984,821.8989898989898 974.4646464646464,831.4343434343434 964.9292929292927,840.969696969697 955.3939393939393,840.969696969697 945.8585858585857,840.969696969697 936.3232323232323,840.969696969697 926.7878787878785,840.969696969697 917.2525252525251,840.969696969697 907.7171717171716,840.969696969697 898.181818181818,840.969696969697 888.6464646464647,840.969696969697 879.111111111111,840.969696969697 869.5757575757575,840.969696969697 860.0404040404039,840.969696969697 850.5050505050505,840.969696969697 840.969696969697,840.969696969697 831.4343434343433,840.969696969697 821.8989898989898,840.969696969697 812.3636363636363,840.969696969697 802.8282828282828,840.969696969697 793.2929292929292,840.969696969697 783.7575757575758,840.969696969697 774.2222222222222,840.969696969697 764.6868686868686,840.969696969697 755.1515151515151,840.969696969697 745.6161616161615,840.969696969697 736.0808080808081,840.969696969697 726.5454545454545,840.969696969697 717.0101010101009,840.969696969697 707.4747474747475,840.969696969697 697.9393939393939,840.969696969697 688.4040404040404,840.969696969697 678.8686868686868,840.969696969697 669.3333333333333,840.969696969697 659.7979797979798,840.969696969697 650.2626262626262,840.969696969697 640.7272727272727,840.969696969697 631.1919191919192,840.969696969697 621.6565656565656,840.969696969697 612.1212121212121,840.969696969697 602.5858585858585,840.969696969697 593.0505050505051,840.969696969697 583.5151515151515,840.969696969697 573.9797979797979,840.969696969697 564.4444444444445,840.969696969697 554.9090909090909,840.969696969697 545.3737373737374,840.969696969697 535.8383838383838,840.969696969697 526.3030303030303,840.969696969697 516.7676767676768,840.969696969697 507.2323232323232,840.969696969697 497.69696969696975,840.969696969697 488.16161616161617,840.969696969697 478.62626262626264,840.969696969697 469.09090909090907,840.969696969697 459.55555555555554,840.969696969697 450.0202020202021,840.969696969697 440.4848484848485,840.969696969697 430.949494949495,840.969696969697 421.4141414141414,840.969696969697 411.8787878787879,840.969696969697 402.34343434343435,840.969696969697 392.80808080808083,840.969696969697 383.2727272727273,840.969696969697 373.7373737373738,840.969696969697 364.2020202020202,840.969696969697 354.6666666666667,840.969696969697 345.13131313131316,840.969696969697 335.59595959595964,840.969696969697 326.0606060606061,840.969696969697 316.5252525252526,840.969696969697 306.9898989898991,840.969696969697 297.4545454545455,840.969696969697 287.91919191919203,840.969696969697 278.38383838383845,840.969696969697 268.84848484848493,840.969696969697 259.3131313131314,840.969696969697 249.77777777777783,840.969696969697 240.2424242424243,840.969696969697 230.70707070707084,840.969696969697 221.17171717171726,840.969696969697 211.63636363636374,840.969696969697 202.10101010101022,840.969696969697 192.5656565656567,840.969696969697 183.03030303030312,840.969696969697 173.4949494949496,840.969696969697 163.95959595959607,840.969696969697 154.42424242424255,840.969696969697 144.88888888888903,840.969696969697 135.35353535353545,840.969696969697" fill="none" stroke="rgba(0,0,255,0.75)" stroke-width="14.159999999999995"/></g><g><polyline data-points="-3.98989898989899,-3.484848484848485 -4.090909090909091,-3.484848484848485 -4.191919191919193,-3.484848484848485 -4.292929292929293,-3.484848484848485 -4.393939393939394,-3.484848484848485 -4.494949494949496,-3.484848484848485 -4.595959595959596,-3.484848484848485 -4.696969696969697,-3.484848484848485 -4.7979797979797985,-3.484848484848485 -4.898989898989899,-3.484848484848485 -5.000000000000001,-3.484848484848485" data-type="line" data-label="" points="135.35353535353545,840.969696969697 125.81818181818193,840.969696969697 116.28282828282829,840.969696969697 106.74747474747483,840.969696969697 97.21212121212136,840.969696969697 87.67676767676772,840.969696969697 78.14141414141426,840.969696969697 68.60606060606068,840.969696969697 59.07070707070716,840.969696969697 49.53535353535369,840.969696969697 40.00000000000006,840.969696969697" fill="none" stroke="rgba(255,0,0,0.75)" stroke-width="14.159999999999995"/></g><g><polyline data-points="-2.2727272727272725,5.000000000000002 -2.3737373737373733,4.898989898989901 -2.474747474747474,4.7979797979797985 -2.5757575757575752,4.696969696969697 -2.6767676767676765,4.595959595959597 -2.7777777777777777,4.494949494949497 -2.8787878787878785,4.393939393939394 -2.9797979797979792,4.292929292929293 -3.0808080808080804,4.191919191919193 -3.1818181818181817,4.090909090909092 -3.2828282828282824,3.989898989898992 -3.383838383838383,3.8888888888888893 -3.484848484848485,3.7878787878787885 -3.5858585858585856,3.6868686868686877 -3.6868686868686864,3.5858585858585874 -3.7878787878787876,3.4848484848484866 -3.8888888888888884,3.383838383838384 -3.98989898989899,3.2828282828282833 -3.98989898989899,3.181818181818183 -3.98989898989899,3.080808080808082 -3.98989898989899,2.9797979797979806 -3.98989898989899,2.87878787878788 -3.98989898989899,2.7777777777777786 -3.98989898989899,2.676767676767678 -3.98989898989899,2.575757575757577 -3.98989898989899,2.4747474747474754 -3.98989898989899,2.373737373737375 -3.98989898989899,2.2727272727272734 -3.98989898989899,2.1717171717171726 -3.98989898989899,2.070707070707072 -3.98989898989899,1.9696969696969702 -3.98989898989899,1.8686868686868696 -3.98989898989899,1.767676767676768 -3.98989898989899,1.6666666666666674 -3.98989898989899,1.5656565656565666 -3.98989898989899,1.4646464646464652" data-type="line" data-label="" points="297.4545454545455,40.000000000000114 287.91919191919203,49.53535353535369 278.38383838383845,59.07070707070733 268.84848484848493,68.60606060606085 259.3131313131314,78.14141414141432 249.77777777777783,87.67676767676778 240.2424242424243,97.21212121212153 230.70707070707084,106.747474747475 221.17171717171726,116.28282828282846 211.63636363636374,125.81818181818198 202.10101010101022,135.35353535353545 192.5656565656567,144.88888888888908 183.03030303030312,154.4242424242426 173.4949494949496,163.95959595959613 163.95959595959607,173.4949494949496 154.42424242424255,183.03030303030312 144.88888888888903,192.56565656565675 135.35353535353545,202.10101010101027 135.35353535353545,211.63636363636374 135.35353535353545,221.17171717171726 135.35353535353545,230.70707070707084 135.35353535353545,240.24242424242436 135.35353535353545,249.77777777777794 135.35353535353545,259.3131313131314 135.35353535353545,268.84848484848493 135.35353535353545,278.38383838383857 135.35353535353545,287.91919191919203 135.35353535353545,297.4545454545456 135.35353535353545,306.9898989898991 135.35353535353545,316.5252525252526 135.35353535353545,326.06060606060623 135.35353535353545,335.5959595959597 135.35353535353545,345.1313131313133 135.35353535353545,354.66666666666674 135.35353535353545,364.2020202020203 135.35353535353545,373.73737373737384" fill="none" stroke="rgba(0,0,255,0.75)" stroke-width="14.159999999999995"/></g><g><polyline data-points="-3.98989898989899,1.4646464646464652 -4.090909090909091,1.4646464646464652 -4.191919191919193,1.4646464646464652 -4.292929292929293,1.4646464646464652 -4.393939393939394,1.4646464646464652 -4.494949494949496,1.4646464646464652 -4.595959595959596,1.4646464646464652 -4.696969696969697,1.4646464646464652 -4.7979797979797985,1.4646464646464652 -4.898989898989899,1.4646464646464652 -5.000000000000001,1.4646464646464652" data-type="line" data-label="" points="135.35353535353545,373.73737373737384 125.81818181818193,373.73737373737384 116.28282828282829,373.73737373737384 106.74747474747483,373.73737373737384 97.21212121212136,373.73737373737384 87.67676767676772,373.73737373737384 78.14141414141426,373.73737373737384 68.60606060606068,373.73737373737384 59.07070707070716,373.73737373737384 49.53535353535369,373.73737373737384 40.00000000000006,373.73737373737384" fill="none" stroke="rgba(255,0,0,0.75)" stroke-width="14.159999999999995"/></g><g><polyline data-points="1.262626262626263,5.000000000000002 1.3636363636363644,4.898989898989901 1.4646464646464652,4.7979797979797985 1.5656565656565666,4.696969696969697 1.6666666666666674,4.595959595959597 1.767676767676768,4.494949494949497 1.8686868686868696,4.393939393939394 1.9696969696969702,4.292929292929293 2.070707070707072,4.191919191919193 2.1717171717171726,4.090909090909092 2.2727272727272734,3.989898989898992 2.373737373737375,3.8888888888888893 2.4747474747474754,3.7878787878787885 2.575757575757577,3.6868686868686877 2.676767676767678,3.5858585858585874 2.7777777777777786,3.4848484848484866 2.87878787878788,3.383838383838384 2.9797979797979806,3.2828282828282833 3.080808080808082,3.181818181818183 3.181818181818183,3.080808080808082 3.2828282828282833,2.9797979797979806 3.383838383838384,2.87878787878788 3.4848484848484866,2.7777777777777786 3.5858585858585874,2.676767676767678 3.6868686868686877,2.575757575757577 3.7878787878787885,2.4747474747474754 3.8888888888888893,2.373737373737375 3.989898989898992,2.2727272727272734 3.989898989898992,2.1717171717171726 3.989898989898992,2.070707070707072 3.989898989898992,1.9696969696969702 3.989898989898992,1.8686868686868696 3.989898989898992,1.767676767676768 3.989898989898992,1.6666666666666674 3.989898989898992,1.5656565656565666 3.989898989898992,1.4646464646464652 3.989898989898992,1.3636363636363644 3.989898989898992,1.262626262626263 3.989898989898992,1.1616161616161622 3.989898989898992,1.0606060606060617 3.989898989898992,0.9595959595959602 3.989898989898992,0.8585858585858596 3.989898989898992,0.7575757575757579 3.989898989898992,0.6565656565656574 3.989898989898992,0.5555555555555567 3.989898989898992,0.4545454545454551 3.989898989898992,0.3535353535353544 3.989898989898992,0.2525252525252529 3.989898989898992,0.1515151515151522 3.989898989898992,0.050505050505051545 3.989898989898992,-0.05050505050505001 3.989898989898992,-0.15151515151515066 3.989898989898992,-0.2525252525252522 3.989898989898992,-0.35353535353535287 3.989898989898992,-0.4545454545454544 3.989898989898992,-0.555555555555555 3.989898989898992,-0.6565656565656557 3.989898989898992,-0.7575757575757572 3.989898989898992,-0.8585858585858579 3.989898989898992,-0.9595959595959596 3.989898989898992,-1.0606060606060603 3.989898989898992,-1.1616161616161613 3.989898989898992,-1.2626262626262625 3.989898989898992,-1.363636363636363 3.989898989898992,-1.4646464646464643 3.989898989898992,-1.5656565656565653 3.989898989898992,-1.6666666666666665 3.989898989898992,-1.7676767676767675 3.989898989898992,-1.8686868686868683 3.989898989898992,-1.9696969696969693 3.989898989898992,-2.07070707070707 3.989898989898992,-2.1717171717171713 3.989898989898992,-2.2727272727272725" data-type="line" data-label="" points="631.1919191919192,40.000000000000114 640.7272727272727,49.53535353535369 650.2626262626262,59.07070707070733 659.7979797979798,68.60606060606085 669.3333333333333,78.14141414141432 678.8686868686868,87.67676767676778 688.4040404040404,97.21212121212153 697.9393939393939,106.747474747475 707.4747474747475,116.28282828282846 717.0101010101009,125.81818181818198 726.5454545454545,135.35353535353545 736.0808080808081,144.88888888888908 745.6161616161615,154.4242424242426 755.1515151515151,163.95959595959613 764.6868686868686,173.4949494949496 774.2222222222222,183.03030303030312 783.7575757575758,192.56565656565675 793.2929292929292,202.10101010101027 802.8282828282828,211.63636363636374 812.3636363636363,221.17171717171726 821.8989898989898,230.70707070707084 831.4343434343433,240.24242424242436 840.969696969697,249.77777777777794 850.5050505050505,259.3131313131314 860.0404040404039,268.84848484848493 869.5757575757575,278.38383838383857 879.111111111111,287.91919191919203 888.6464646464647,297.4545454545456 888.6464646464647,306.9898989898991 888.6464646464647,316.5252525252526 888.6464646464647,326.06060606060623 888.6464646464647,335.5959595959597 888.6464646464647,345.1313131313133 888.6464646464647,354.66666666666674 888.6464646464647,364.2020202020203 888.6464646464647,373.73737373737384 888.6464646464647,383.27272727272737 888.6464646464647,392.80808080808094 888.6464646464647,402.3434343434344 888.6464646464647,411.87878787878793 888.6464646464647,421.4141414141415 888.6464646464647,430.94949494949503 888.6464646464647,440.4848484848486 888.6464646464647,450.0202020202021 888.6464646464647,459.5555555555556 888.6464646464647,469.0909090909092 888.6464646464647,478.6262626262627 888.6464646464647,488.1616161616163 888.6464646464647,497.69696969696975 888.6464646464647,507.23232323232327 888.6464646464647,516.7676767676768 888.6464646464647,526.3030303030304 888.6464646464647,535.838383838384 888.6464646464647,545.3737373737374 888.6464646464647,554.909090909091 888.6464646464647,564.4444444444445 888.6464646464647,573.979797979798 888.6464646464647,583.5151515151516 888.6464646464647,593.0505050505051 888.6464646464647,602.5858585858587 888.6464646464647,612.1212121212121 888.6464646464647,621.6565656565657 888.6464646464647,631.1919191919193 888.6464646464647,640.7272727272727 888.6464646464647,650.2626262626263 888.6464646464647,659.7979797979798 888.6464646464647,669.3333333333334 888.6464646464647,678.8686868686868 888.6464646464647,688.4040404040404 888.6464646464647,697.939393939394 888.6464646464647,707.4747474747475 888.6464646464647,717.010101010101 888.6464646464647,726.5454545454545" fill="none" stroke="rgba(0,0,255,0.75)" stroke-width="14.159999999999995"/></g><g><polyline data-points="3.989898989898992,-2.2727272727272725 4.090909090909092,-2.3737373737373733 4.191919191919193,-2.474747474747474 4.292929292929293,-2.474747474747474 4.393939393939394,-2.474747474747474 4.494949494949497,-2.474747474747474 4.595959595959597,-2.474747474747474 4.696969696969697,-2.474747474747474 4.7979797979797985,-2.474747474747474 4.898989898989901,-2.474747474747474 5.000000000000002,-2.474747474747474" data-type="line" data-label="" points="888.6464646464647,726.5454545454545 898.181818181818,736.0808080808081 907.7171717171716,745.6161616161615 917.2525252525251,745.6161616161615 926.7878787878785,745.6161616161615 936.3232323232323,745.6161616161615 945.8585858585857,745.6161616161615 955.3939393939393,745.6161616161615 964.9292929292927,745.6161616161615 974.4646464646464,745.6161616161615 984,745.6161616161615" fill="none" stroke="rgba(255,0,0,0.75)" stroke-width="14.159999999999995"/></g><g><polyline data-points="5.000000000000002,0.2525252525252529 4.898989898989901,0.3535353535353544 4.7979797979797985,0.4545454545454551 4.696969696969697,0.5555555555555567 4.595959595959597,0.6565656565656574 4.494949494949497,0.7575757575757579 4.393939393939394,0.8585858585858596 4.292929292929293,0.9595959595959602 4.191919191919193,1.0606060606060617 4.191919191919193,1.1616161616161622 4.191919191919193,1.262626262626263 4.191919191919193,1.3636363636363644 4.191919191919193,1.4646464646464652 4.191919191919193,1.5656565656565666 4.191919191919193,1.6666666666666674 4.191919191919193,1.767676767676768 4.191919191919193,1.8686868686868696 4.191919191919193,1.9696969696969702 4.191919191919193,2.070707070707072 4.191919191919193,2.1717171717171726 4.191919191919193,2.2727272727272734 4.191919191919193,2.373737373737375 4.090909090909092,2.4747474747474754 3.989898989898992,2.575757575757577 3.8888888888888893,2.676767676767678 3.7878787878787885,2.7777777777777786 3.6868686868686877,2.87878787878788 3.5858585858585874,2.9797979797979806 3.4848484848484866,3.080808080808082 3.383838383838384,3.181818181818183 3.2828282828282833,3.2828282828282833 3.181818181818183,3.383838383838384 3.080808080808082,3.4848484848484866 3.080808080808082,3.5858585858585874 3.080808080808082,3.6868686868686877 3.080808080808082,3.7878787878787885 3.080808080808082,3.8888888888888893 3.080808080808082,3.989898989898992" data-type="line" data-label="" points="984,488.1616161616163 974.4646464646464,478.6262626262627 964.9292929292927,469.0909090909092 955.3939393939393,459.5555555555556 945.8585858585857,450.0202020202021 936.3232323232323,440.4848484848486 926.7878787878785,430.94949494949503 917.2525252525251,421.4141414141415 907.7171717171716,411.87878787878793 907.7171717171716,402.3434343434344 907.7171717171716,392.80808080808094 907.7171717171716,383.27272727272737 907.7171717171716,373.73737373737384 907.7171717171716,364.2020202020203 907.7171717171716,354.66666666666674 907.7171717171716,345.1313131313133 907.7171717171716,335.5959595959597 907.7171717171716,326.06060606060623 907.7171717171716,316.5252525252526 907.7171717171716,306.9898989898991 907.7171717171716,297.4545454545456 907.7171717171716,287.91919191919203 898.181818181818,278.38383838383857 888.6464646464647,268.84848484848493 879.111111111111,259.3131313131314 869.5757575757575,249.77777777777794 860.0404040404039,240.24242424242436 850.5050505050505,230.70707070707084 840.969696969697,221.17171717171726 831.4343434343433,211.63636363636374 821.8989898989898,202.10101010101027 812.3636363636363,192.56565656565675 802.8282828282828,183.03030303030312 802.8282828282828,173.4949494949496 802.8282828282828,163.95959595959613 802.8282828282828,154.4242424242426 802.8282828282828,144.88888888888908 802.8282828282828,135.35353535353545" fill="none" stroke="rgba(0,0,255,0.75)" stroke-width="14.159999999999995"/></g><g><polyline data-points="3.080808080808082,3.989898989898992 2.9797979797979806,3.989898989898992 2.87878787878788,3.989898989898992 2.7777777777777786,3.989898989898992 2.676767676767678,3.989898989898992 2.575757575757577,3.989898989898992 2.4747474747474754,3.989898989898992 2.373737373737375,3.989898989898992 2.2727272727272734,3.989898989898992 2.1717171717171726,3.989898989898992 2.070707070707072,3.989898989898992 1.9696969696969702,3.989898989898992 1.8686868686868696,3.989898989898992 1.767676767676768,3.989898989898992 1.6666666666666674,3.989898989898992 1.5656565656565666,3.989898989898992 1.4646464646464652,3.989898989898992 1.3636363636363644,3.989898989898992 1.262626262626263,3.989898989898992 1.1616161616161622,3.989898989898992 1.0606060606060617,3.989898989898992 0.9595959595959602,3.989898989898992 0.8585858585858596,3.989898989898992 0.7575757575757579,3.989898989898992 0.6565656565656574,3.989898989898992 0.5555555555555567,3.989898989898992 0.4545454545454551,3.989898989898992 0.3535353535353544,3.989898989898992 0.2525252525252529,3.989898989898992 0.1515151515151522,3.989898989898992" data-type="line" data-label="" points="802.8282828282828,135.35353535353545 793.2929292929292,135.35353535353545 783.7575757575758,135.35353535353545 774.2222222222222,135.35353535353545 764.6868686868686,135.35353535353545 755.1515151515151,135.35353535353545 745.6161616161615,135.35353535353545 736.0808080808081,135.35353535353545 726.5454545454545,135.35353535353545 717.0101010101009,135.35353535353545 707.4747474747475,135.35353535353545 697.9393939393939,135.35353535353545 688.4040404040404,135.35353535353545 678.8686868686868,135.35353535353545 669.3333333333333,135.35353535353545 659.7979797979798,135.35353535353545 650.2626262626262,135.35353535353545 640.7272727272727,135.35353535353545 631.1919191919192,135.35353535353545 621.6565656565656,135.35353535353545 612.1212121212121,135.35353535353545 602.5858585858585,135.35353535353545 593.0505050505051,135.35353535353545 583.5151515151515,135.35353535353545 573.9797979797979,135.35353535353545 564.4444444444445,135.35353535353545 554.9090909090909,135.35353535353545 545.3737373737374,135.35353535353545 535.8383838383838,135.35353535353545 526.3030303030303,135.35353535353545" fill="none" stroke="rgba(255,0,0,0.75)" stroke-width="14.159999999999995"/></g><g><polyline data-points="0.1515151515151522,3.989898989898992 0.050505050505051545,4.090909090909092 -0.05050505050505001,4.191919191919193 -0.15151515151515066,4.292929292929293 -0.2525252525252522,4.393939393939394 -0.2525252525252522,4.494949494949497 -0.2525252525252522,4.595959595959597 -0.2525252525252522,4.696969696969697 -0.2525252525252522,4.7979797979797985 -0.2525252525252522,4.898989898989901 -0.2525252525252522,5.000000000000002" data-type="line" data-label="" points="526.3030303030303,135.35353535353545 516.7676767676768,125.81818181818198 507.2323232323232,116.28282828282846 497.69696969696975,106.747474747475 488.16161616161617,97.21212121212153 488.16161616161617,87.67676767676778 488.16161616161617,78.14141414141432 488.16161616161617,68.60606060606085 488.16161616161617,59.07070707070733 488.16161616161617,49.53535353535369 488.16161616161617,40.000000000000114" fill="none" stroke="rgba(0,0,255,0.75)" stroke-width="14.159999999999995"/></g><g><polyline data-points="2.9797979797979806,-5.000000000000001 2.87878787878788,-4.898989898989899 2.7777777777777786,-4.7979797979797985 2.676767676767678,-4.696969696969697 2.575757575757577,-4.595959595959596 2.4747474747474754,-4.494949494949496 2.373737373737375,-4.393939393939394 2.2727272727272734,-4.292929292929293 2.1717171717171726,-4.191919191919193 2.070707070707072,-4.090909090909091 1.9696969696969702,-3.98989898989899 1.8686868686868696,-3.98989898989899 1.767676767676768,-3.98989898989899 1.6666666666666674,-3.98989898989899 1.5656565656565666,-3.98989898989899 1.4646464646464652,-3.98989898989899 1.3636363636363644,-3.98989898989899 1.262626262626263,-3.98989898989899 1.1616161616161622,-3.98989898989899 1.0606060606060617,-3.98989898989899 0.9595959595959602,-3.98989898989899 0.8585858585858596,-3.98989898989899 0.7575757575757579,-3.98989898989899 0.6565656565656574,-3.98989898989899 0.5555555555555567,-3.98989898989899 0.4545454545454551,-3.98989898989899 0.3535353535353544,-3.98989898989899 0.2525252525252529,-3.98989898989899 0.1515151515151522,-3.98989898989899 0.050505050505051545,-3.98989898989899 -0.05050505050505001,-3.98989898989899 -0.15151515151515066,-3.98989898989899 -0.2525252525252522,-3.98989898989899 -0.35353535353535287,-3.98989898989899 -0.4545454545454544,-3.98989898989899 -0.555555555555555,-3.98989898989899 -0.6565656565656557,-3.98989898989899 -0.7575757575757572,-3.98989898989899 -0.8585858585858579,-3.98989898989899 -0.9595959595959596,-3.98989898989899 -1.0606060606060603,-3.98989898989899 -1.1616161616161613,-3.98989898989899 -1.2626262626262625,-3.98989898989899 -1.363636363636363,-3.98989898989899 -1.4646464646464643,-3.98989898989899 -1.5656565656565653,-3.98989898989899 -1.6666666666666665,-3.98989898989899 -1.7676767676767675,-3.98989898989899 -1.8686868686868683,-3.98989898989899 -1.9696969696969693,-3.98989898989899 -2.07070707070707,-3.98989898989899 -2.1717171717171713,-3.98989898989899 -2.2727272727272725,-3.98989898989899 -2.3737373737373733,-3.98989898989899 -2.474747474747474,-3.98989898989899 -2.5757575757575752,-3.98989898989899 -2.6767676767676765,-3.98989898989899 -2.7777777777777777,-3.98989898989899 -2.8787878787878785,-3.98989898989899 -2.9797979797979792,-3.98989898989899 -3.0808080808080804,-3.98989898989899 -3.1818181818181817,-3.98989898989899 -3.2828282828282824,-3.98989898989899 -3.383838383838383,-3.98989898989899 -3.484848484848485,-3.98989898989899 -3.5858585858585856,-3.98989898989899 -3.6868686868686864,-3.98989898989899 -3.7878787878787876,-3.98989898989899 -3.8888888888888884,-3.98989898989899 -3.98989898989899,-3.98989898989899 -4.090909090909091,-3.8888888888888884 -4.191919191919193,-3.8888888888888884 -4.292929292929293,-3.7878787878787876 -4.393939393939394,-3.6868686868686864 -4.494949494949496,-3.5858585858585856 -4.494949494949496,-3.484848484848485 -4.494949494949496,-3.383838383838383 -4.494949494949496,-3.2828282828282824 -4.494949494949496,-3.1818181818181817 -4.494949494949496,-3.0808080808080804 -4.494949494949496,-2.9797979797979792 -4.494949494949496,-2.8787878787878785 -4.494949494949496,-2.7777777777777777 -4.494949494949496,-2.6767676767676765 -4.494949494949496,-2.5757575757575752 -4.494949494949496,-2.474747474747474 -4.494949494949496,-2.3737373737373733 -4.494949494949496,-2.2727272727272725 -4.494949494949496,-2.1717171717171713 -4.494949494949496,-2.07070707070707 -4.494949494949496,-1.9696969696969693 -4.494949494949496,-1.8686868686868683 -4.494949494949496,-1.7676767676767675 -4.494949494949496,-1.6666666666666665 -4.494949494949496,-1.5656565656565653 -4.494949494949496,-1.4646464646464643 -4.494949494949496,-1.363636363636363 -4.494949494949496,-1.2626262626262625 -4.494949494949496,-1.1616161616161613 -4.494949494949496,-1.0606060606060603 -4.494949494949496,-0.9595959595959596 -4.494949494949496,-0.8585858585858579 -4.494949494949496,-0.7575757575757572 -4.494949494949496,-0.6565656565656557 -4.494949494949496,-0.555555555555555 -4.494949494949496,-0.4545454545454544 -4.494949494949496,-0.35353535353535287 -4.494949494949496,-0.2525252525252522 -4.393939393939394,-0.15151515151515066 -4.292929292929293,-0.05050505050505001 -4.191919191919193,0.050505050505051545 -4.090909090909091,0.1515151515151522 -3.98989898989899,0.2525252525252529" data-type="line" data-label="" points="793.2929292929292,984 783.7575757575758,974.4646464646464 774.2222222222222,964.9292929292928 764.6868686868686,955.3939393939394 755.1515151515151,945.8585858585858 745.6161616161615,936.3232323232323 736.0808080808081,926.7878787878788 726.5454545454545,917.2525252525252 717.0101010101009,907.7171717171718 707.4747474747475,898.1818181818181 697.9393939393939,888.6464646464647 688.4040404040404,888.6464646464647 678.8686868686868,888.6464646464647 669.3333333333333,888.6464646464647 659.7979797979798,888.6464646464647 650.2626262626262,888.6464646464647 640.7272727272727,888.6464646464647 631.1919191919192,888.6464646464647 621.6565656565656,888.6464646464647 612.1212121212121,888.6464646464647 602.5858585858585,888.6464646464647 593.0505050505051,888.6464646464647 583.5151515151515,888.6464646464647 573.9797979797979,888.6464646464647 564.4444444444445,888.6464646464647 554.9090909090909,888.6464646464647 545.3737373737374,888.6464646464647 535.8383838383838,888.6464646464647 526.3030303030303,888.6464646464647 516.7676767676768,888.6464646464647 507.2323232323232,888.6464646464647 497.69696969696975,888.6464646464647 488.16161616161617,888.6464646464647 478.62626262626264,888.6464646464647 469.09090909090907,888.6464646464647 459.55555555555554,888.6464646464647 450.0202020202021,888.6464646464647 440.4848484848485,888.6464646464647 430.949494949495,888.6464646464647 421.4141414141414,888.6464646464647 411.8787878787879,888.6464646464647 402.34343434343435,888.6464646464647 392.80808080808083,888.6464646464647 383.2727272727273,888.6464646464647 373.7373737373738,888.6464646464647 364.2020202020202,888.6464646464647 354.6666666666667,888.6464646464647 345.13131313131316,888.6464646464647 335.59595959595964,888.6464646464647 326.0606060606061,888.6464646464647 316.5252525252526,888.6464646464647 306.9898989898991,888.6464646464647 297.4545454545455,888.6464646464647 287.91919191919203,888.6464646464647 278.38383838383845,888.6464646464647 268.84848484848493,888.6464646464647 259.3131313131314,888.6464646464647 249.77777777777783,888.6464646464647 240.2424242424243,888.6464646464647 230.70707070707084,888.6464646464647 221.17171717171726,888.6464646464647 211.63636363636374,888.6464646464647 202.10101010101022,888.6464646464647 192.5656565656567,888.6464646464647 183.03030303030312,888.6464646464647 173.4949494949496,888.6464646464647 163.95959595959607,888.6464646464647 154.42424242424255,888.6464646464647 144.88888888888903,888.6464646464647 135.35353535353545,888.6464646464647 125.81818181818193,879.1111111111111 116.28282828282829,879.1111111111111 106.74747474747483,869.5757575757575 97.21212121212136,860.0404040404039 87.67676767676772,850.5050505050505 87.67676767676772,840.969696969697 87.67676767676772,831.4343434343434 87.67676767676772,821.8989898989898 87.67676767676772,812.3636363636363 87.67676767676772,802.8282828282828 87.67676767676772,793.2929292929292 87.67676767676772,783.7575757575758 87.67676767676772,774.2222222222222 87.67676767676772,764.6868686868687 87.67676767676772,755.1515151515151 87.67676767676772,745.6161616161615 87.67676767676772,736.0808080808081 87.67676767676772,726.5454545454545 87.67676767676772,717.010101010101 87.67676767676772,707.4747474747475 87.67676767676772,697.939393939394 87.67676767676772,688.4040404040404 87.67676767676772,678.8686868686868 87.67676767676772,669.3333333333334 87.67676767676772,659.7979797979798 87.67676767676772,650.2626262626263 87.67676767676772,640.7272727272727 87.67676767676772,631.1919191919193 87.67676767676772,621.6565656565657 87.67676767676772,612.1212121212121 87.67676767676772,602.5858585858587 87.67676767676772,593.0505050505051 87.67676767676772,583.5151515151516 87.67676767676772,573.979797979798 87.67676767676772,564.4444444444445 87.67676767676772,554.909090909091 87.67676767676772,545.3737373737374 87.67676767676772,535.838383838384 97.21212121212136,526.3030303030304 106.74747474747483,516.7676767676768 116.28282828282829,507.23232323232327 125.81818181818193,497.69696969696975 135.35353535353545,488.1616161616163" fill="none" stroke="rgba(0,0,255,0.75)" stroke-width="14.159999999999995"/></g><g><polyline data-points="-3.98989898989899,0.2525252525252529 -4.090909090909091,0.3535353535353544 -4.191919191919193,0.3535353535353544 -4.292929292929293,0.3535353535353544 -4.393939393939394,0.3535353535353544 -4.494949494949496,0.3535353535353544 -4.595959595959596,0.3535353535353544 -4.696969696969697,0.3535353535353544 -4.7979797979797985,0.3535353535353544 -4.898989898989899,0.3535353535353544 -5.000000000000001,0.3535353535353544" data-type="line" data-label="" points="135.35353535353545,488.1616161616163 125.81818181818193,478.6262626262627 116.28282828282829,478.6262626262627 106.74747474747483,478.6262626262627 97.21212121212136,478.6262626262627 87.67676767676772,478.6262626262627 78.14141414141426,478.6262626262627 68.60606060606068,478.6262626262627 59.07070707070716,478.6262626262627 49.53535353535369,478.6262626262627 40.00000000000006,478.6262626262627" fill="none" stroke="rgba(255,0,0,0.75)" stroke-width="14.159999999999995"/></g><g><polyline data-points="5.000000000000002,-4.696969696969697 4.898989898989901,-4.595959595959596 4.7979797979797985,-4.494949494949496 4.696969696969697,-4.393939393939394 4.595959595959597,-4.292929292929293 4.494949494949497,-4.191919191919193 4.393939393939394,-4.090909090909091 4.292929292929293,-3.98989898989899 4.191919191919193,-3.8888888888888884 4.090909090909092,-3.7878787878787876 3.989898989898992,-3.6868686868686864 3.8888888888888893,-3.5858585858585856 3.7878787878787885,-3.484848484848485 3.6868686868686877,-3.383838383838383 3.5858585858585874,-3.2828282828282824 3.4848484848484866,-3.1818181818181817 3.383838383838384,-3.0808080808080804 3.2828282828282833,-2.9797979797979792 3.181818181818183,-2.8787878787878785 3.080808080808082,-2.7777777777777777 2.9797979797979806,-2.6767676767676765 2.87878787878788,-2.5757575757575752 2.7777777777777786,-2.474747474747474 2.676767676767678,-2.3737373737373733 2.575757575757577,-2.2727272727272725 2.4747474747474754,-2.1717171717171713 2.373737373737375,-2.07070707070707 2.2727272727272734,-1.9696969696969693 2.1717171717171726,-1.8686868686868683 2.070707070707072,-1.7676767676767675 1.9696969696969702,-1.6666666666666665 1.8686868686868696,-1.5656565656565653 1.767676767676768,-1.4646464646464643 1.6666666666666674,-1.363636363636363 1.5656565656565666,-1.2626262626262625 1.4646464646464652,-1.1616161616161613 1.3636363636363644,-1.0606060606060603 1.262626262626263,-0.9595959595959596 1.1616161616161622,-0.8585858585858579 1.0606060606060617,-0.7575757575757572 0.9595959595959602,-0.6565656565656557 0.8585858585858596,-0.555555555555555 0.7575757575757579,-0.4545454545454544 0.6565656565656574,-0.35353535353535287 0.5555555555555567,-0.2525252525252522 0.4545454545454551,-0.15151515151515066 0.3535353535353544,-0.05050505050505001 0.2525252525252529,0.050505050505051545 0.1515151515151522,0.1515151515151522 0.050505050505051545,0.2525252525252529 -0.05050505050505001,0.3535353535353544 -0.15151515151515066,0.4545454545454551 -0.2525252525252522,0.5555555555555567 -0.35353535353535287,0.6565656565656574 -0.4545454545454544,0.7575757575757579 -0.555555555555555,0.8585858585858596 -0.6565656565656557,0.9595959595959602 -0.7575757575757572,1.0606060606060617 -0.8585858585858579,1.1616161616161622 -0.9595959595959596,1.262626262626263 -1.0606060606060603,1.262626262626263" data-type="line" data-label="" points="984,955.3939393939394 974.4646464646464,945.8585858585858 964.9292929292927,936.3232323232323 955.3939393939393,926.7878787878788 945.8585858585857,917.2525252525252 936.3232323232323,907.7171717171718 926.7878787878785,898.1818181818181 917.2525252525251,888.6464646464647 907.7171717171716,879.1111111111111 898.181818181818,869.5757575757575 888.6464646464647,860.0404040404039 879.111111111111,850.5050505050505 869.5757575757575,840.969696969697 860.0404040404039,831.4343434343434 850.5050505050505,821.8989898989898 840.969696969697,812.3636363636363 831.4343434343433,802.8282828282828 821.8989898989898,793.2929292929292 812.3636363636363,783.7575757575758 802.8282828282828,774.2222222222222 793.2929292929292,764.6868686868687 783.7575757575758,755.1515151515151 774.2222222222222,745.6161616161615 764.6868686868686,736.0808080808081 755.1515151515151,726.5454545454545 745.6161616161615,717.010101010101 736.0808080808081,707.4747474747475 726.5454545454545,697.939393939394 717.0101010101009,688.4040404040404 707.4747474747475,678.8686868686868 697.9393939393939,669.3333333333334 688.4040404040404,659.7979797979798 678.8686868686868,650.2626262626263 669.3333333333333,640.7272727272727 659.7979797979798,631.1919191919193 650.2626262626262,621.6565656565657 640.7272727272727,612.1212121212121 631.1919191919192,602.5858585858587 621.6565656565656,593.0505050505051 612.1212121212121,583.5151515151516 602.5858585858585,573.979797979798 593.0505050505051,564.4444444444445 583.5151515151515,554.909090909091 573.9797979797979,545.3737373737374 564.4444444444445,535.838383838384 554.9090909090909,526.3030303030304 545.3737373737374,516.7676767676768 535.8383838383838,507.23232323232327 526.3030303030303,497.69696969696975 516.7676767676768,488.1616161616163 507.2323232323232,478.6262626262627 497.69696969696975,469.0909090909092 488.16161616161617,459.5555555555556 478.62626262626264,450.0202020202021 469.09090909090907,440.4848484848486 459.55555555555554,430.94949494949503 450.0202020202021,421.4141414141415 440.4848484848485,411.87878787878793 430.949494949495,402.3434343434344 421.4141414141414,392.80808080808094 411.8787878787879,392.80808080808094" fill="none" stroke="rgba(255,0,0,0.75)" stroke-width="14.159999999999995"/></g><g><polyline data-points="-1.0606060606060603,1.262626262626263 -1.1616161616161613,1.3636363636363644 -1.2626262626262625,1.4646464646464652 -1.363636363636363,1.5656565656565666 -1.4646464646464643,1.6666666666666674 -1.5656565656565653,1.767676767676768 -1.6666666666666665,1.8686868686868696 -1.7676767676767675,1.9696969696969702 -1.8686868686868683,2.070707070707072 -1.9696969696969693,2.1717171717171726 -2.07070707070707,2.2727272727272734 -2.1717171717171713,2.373737373737375 -2.2727272727272725,2.4747474747474754 -2.3737373737373733,2.575757575757577 -2.474747474747474,2.676767676767678 -2.5757575757575752,2.7777777777777786 -2.6767676767676765,2.87878787878788 -2.7777777777777777,2.9797979797979806 -2.8787878787878785,3.080808080808082 -2.9797979797979792,3.181818181818183 -3.0808080808080804,3.2828282828282833 -3.1818181818181817,3.2828282828282833" data-type="line" data-label="" points="411.8787878787879,392.80808080808094 402.34343434343435,383.27272727272737 392.80808080808083,373.73737373737384 383.2727272727273,364.2020202020203 373.7373737373738,354.66666666666674 364.2020202020202,345.1313131313133 354.6666666666667,335.5959595959597 345.13131313131316,326.06060606060623 335.59595959595964,316.5252525252526 326.0606060606061,306.9898989898991 316.5252525252526,297.4545454545456 306.9898989898991,287.91919191919203 297.4545454545455,278.38383838383857 287.91919191919203,268.84848484848493 278.38383838383845,259.3131313131314 268.84848484848493,249.77777777777794 259.3131313131314,240.24242424242436 249.77777777777783,230.70707070707084 240.2424242424243,221.17171717171726 230.70707070707084,211.63636363636374 221.17171717171726,202.10101010101027 211.63636363636374,202.10101010101027" fill="none" stroke="rgba(0,0,255,0.75)" stroke-width="14.159999999999995"/></g><g><polyline data-points="-3.1818181818181817,3.2828282828282833 -3.2828282828282824,3.383838383838384 -3.383838383838383,3.4848484848484866 -3.484848484848485,3.5858585858585874 -3.5858585858585856,3.5858585858585874 -3.6868686868686864,3.5858585858585874 -3.7878787878787876,3.5858585858585874 -3.8888888888888884,3.5858585858585874 -3.98989898989899,3.5858585858585874 -4.090909090909091,3.5858585858585874 -4.191919191919193,3.5858585858585874 -4.292929292929293,3.5858585858585874 -4.393939393939394,3.5858585858585874 -4.494949494949496,3.5858585858585874 -4.595959595959596,3.5858585858585874 -4.696969696969697,3.5858585858585874 -4.7979797979797985,3.5858585858585874 -4.898989898989899,3.5858585858585874 -5.000000000000001,3.5858585858585874" data-type="line" data-label="" points="211.63636363636374,202.10101010101027 202.10101010101022,192.56565656565675 192.5656565656567,183.03030303030312 183.03030303030312,173.4949494949496 173.4949494949496,173.4949494949496 163.95959595959607,173.4949494949496 154.42424242424255,173.4949494949496 144.88888888888903,173.4949494949496 135.35353535353545,173.4949494949496 125.81818181818193,173.4949494949496 116.28282828282829,173.4949494949496 106.74747474747483,173.4949494949496 97.21212121212136,173.4949494949496 87.67676767676772,173.4949494949496 78.14141414141426,173.4949494949496 68.60606060606068,173.4949494949496 59.07070707070716,173.4949494949496 49.53535353535369,173.4949494949496 40.00000000000006,173.4949494949496" fill="none" stroke="rgba(255,0,0,0.75)" stroke-width="14.159999999999995"/></g><g><polyline data-points="4.696969696969697,5.000000000000002 4.595959595959597,4.898989898989901 4.494949494949497,4.7979797979797985 4.393939393939394,4.696969696969697 4.292929292929293,4.595959595959597 4.191919191919193,4.494949494949497 4.090909090909092,4.393939393939394 3.989898989898992,4.292929292929293 3.8888888888888893,4.191919191919193 3.7878787878787885,4.090909090909092 3.7878787878787885,3.989898989898992 3.7878787878787885,3.8888888888888893 3.7878787878787885,3.7878787878787885 3.7878787878787885,3.6868686868686877" data-type="line" data-label="" points="955.3939393939393,40.000000000000114 945.8585858585857,49.53535353535369 936.3232323232323,59.07070707070733 926.7878787878785,68.60606060606085 917.2525252525251,78.14141414141432 907.7171717171716,87.67676767676778 898.181818181818,97.21212121212153 888.6464646464647,106.747474747475 879.111111111111,116.28282828282846 869.5757575757575,125.81818181818198 869.5757575757575,135.35353535353545 869.5757575757575,144.88888888888908 869.5757575757575,154.4242424242426 869.5757575757575,163.95959595959613" fill="none" stroke="rgba(0,0,255,0.75)" stroke-width="14.159999999999995"/></g><g><polyline data-points="3.7878787878787885,3.6868686868686877 3.6868686868686877,3.5858585858585874 3.5858585858585874,3.4848484848484866 3.4848484848484866,3.383838383838384 3.383838383838384,3.2828282828282833 3.2828282828282833,3.181818181818183 3.181818181818183,3.080808080808082 3.080808080808082,2.9797979797979806 2.9797979797979806,2.87878787878788 2.87878787878788,2.7777777777777786 2.7777777777777786,2.676767676767678 2.676767676767678,2.575757575757577 2.575757575757577,2.4747474747474754 2.4747474747474754,2.373737373737375 2.373737373737375,2.2727272727272734 2.2727272727272734,2.1717171717171726 2.1717171717171726,2.070707070707072 2.070707070707072,1.9696969696969702 1.9696969696969702,1.8686868686868696 1.8686868686868696,1.767676767676768 1.767676767676768,1.6666666666666674 1.6666666666666674,1.5656565656565666 1.5656565656565666,1.4646464646464652 1.4646464646464652,1.3636363636363644 1.3636363636363644,1.262626262626263 1.262626262626263,1.1616161616161622 1.1616161616161622,1.0606060606060617 1.0606060606060617,0.9595959595959602 0.9595959595959602,0.8585858585858596 0.8585858585858596,0.7575757575757579 0.7575757575757579,0.6565656565656574 0.6565656565656574,0.5555555555555567" data-type="line" data-label="" points="869.5757575757575,163.95959595959613 860.0404040404039,173.4949494949496 850.5050505050505,183.03030303030312 840.969696969697,192.56565656565675 831.4343434343433,202.10101010101027 821.8989898989898,211.63636363636374 812.3636363636363,221.17171717171726 802.8282828282828,230.70707070707084 793.2929292929292,240.24242424242436 783.7575757575758,249.77777777777794 774.2222222222222,259.3131313131314 764.6868686868686,268.84848484848493 755.1515151515151,278.38383838383857 745.6161616161615,287.91919191919203 736.0808080808081,297.4545454545456 726.5454545454545,306.9898989898991 717.0101010101009,316.5252525252526 707.4747474747475,326.06060606060623 697.9393939393939,335.5959595959597 688.4040404040404,345.1313131313133 678.8686868686868,354.66666666666674 669.3333333333333,364.2020202020203 659.7979797979798,373.73737373737384 650.2626262626262,383.27272727272737 640.7272727272727,392.80808080808094 631.1919191919192,402.3434343434344 621.6565656565656,411.87878787878793 612.1212121212121,421.4141414141415 602.5858585858585,430.94949494949503 593.0505050505051,440.4848484848486 583.5151515151515,450.0202020202021 573.9797979797979,459.5555555555556" fill="none" stroke="rgba(255,0,0,0.75)" stroke-width="14.159999999999995"/></g><g><polyline data-points="0.6565656565656574,0.5555555555555567 0.5555555555555567,0.4545454545454551 0.4545454545454551,0.3535353535353544 0.3535353535353544,0.2525252525252529 0.2525252525252529,0.1515151515151522 0.1515151515151522,0.050505050505051545 0.050505050505051545,-0.05050505050505001 -0.05050505050505001,-0.15151515151515066 -0.15151515151515066,-0.2525252525252522 -0.2525252525252522,-0.35353535353535287 -0.35353535353535287,-0.4545454545454544 -0.4545454545454544,-0.555555555555555 -0.555555555555555,-0.6565656565656557 -0.6565656565656557,-0.7575757575757572 -0.7575757575757572,-0.8585858585858579 -0.8585858585858579,-0.9595959595959596 -0.9595959595959596,-1.0606060606060603 -1.0606060606060603,-1.1616161616161613 -1.1616161616161613,-1.2626262626262625 -1.2626262626262625,-1.363636363636363 -1.363636363636363,-1.4646464646464643 -1.4646464646464643,-1.5656565656565653 -1.5656565656565653,-1.6666666666666665 -1.6666666666666665,-1.7676767676767675 -1.7676767676767675,-1.8686868686868683 -1.8686868686868683,-1.9696969696969693 -1.8686868686868683,-2.07070707070707 -1.8686868686868683,-2.1717171717171713 -1.8686868686868683,-2.2727272727272725 -1.8686868686868683,-2.3737373737373733 -1.8686868686868683,-2.474747474747474 -1.8686868686868683,-2.5757575757575752 -1.8686868686868683,-2.6767676767676765 -1.8686868686868683,-2.7777777777777777 -1.8686868686868683,-2.8787878787878785" data-type="line" data-label="" points="573.9797979797979,459.5555555555556 564.4444444444445,469.0909090909092 554.9090909090909,478.6262626262627 545.3737373737374,488.1616161616163 535.8383838383838,497.69696969696975 526.3030303030303,507.23232323232327 516.7676767676768,516.7676767676768 507.2323232323232,526.3030303030304 497.69696969696975,535.838383838384 488.16161616161617,545.3737373737374 478.62626262626264,554.909090909091 469.09090909090907,564.4444444444445 459.55555555555554,573.979797979798 450.0202020202021,583.5151515151516 440.4848484848485,593.0505050505051 430.949494949495,602.5858585858587 421.4141414141414,612.1212121212121 411.8787878787879,621.6565656565657 402.34343434343435,631.1919191919193 392.80808080808083,640.7272727272727 383.2727272727273,650.2626262626263 373.7373737373738,659.7979797979798 364.2020202020202,669.3333333333334 354.6666666666667,678.8686868686868 345.13131313131316,688.4040404040404 335.59595959595964,697.939393939394 335.59595959595964,707.4747474747475 335.59595959595964,717.010101010101 335.59595959595964,726.5454545454545 335.59595959595964,736.0808080808081 335.59595959595964,745.6161616161615 335.59595959595964,755.1515151515151 335.59595959595964,764.6868686868687 335.59595959595964,774.2222222222222 335.59595959595964,783.7575757575758" fill="none" stroke="rgba(0,0,255,0.75)" stroke-width="14.159999999999995"/></g><g><polyline data-points="-1.8686868686868683,-2.8787878787878785 -1.8686868686868683,-2.9797979797979792 -1.8686868686868683,-3.0808080808080804 -1.8686868686868683,-3.1818181818181817 -1.8686868686868683,-3.2828282828282824 -1.8686868686868683,-3.383838383838383 -1.8686868686868683,-3.484848484848485 -1.8686868686868683,-3.5858585858585856 -1.8686868686868683,-3.6868686868686864 -1.8686868686868683,-3.7878787878787876 -1.8686868686868683,-3.8888888888888884 -1.8686868686868683,-3.98989898989899 -1.8686868686868683,-4.090909090909091 -1.8686868686868683,-4.191919191919193 -1.8686868686868683,-4.292929292929293 -1.8686868686868683,-4.393939393939394 -1.8686868686868683,-4.494949494949496 -1.8686868686868683,-4.595959595959596 -1.8686868686868683,-4.696969696969697 -1.8686868686868683,-4.7979797979797985 -1.8686868686868683,-4.898989898989899 -1.8686868686868683,-5.000000000000001" data-type="line" data-label="" points="335.59595959595964,783.7575757575758 335.59595959595964,793.2929292929292 335.59595959595964,802.8282828282828 335.59595959595964,812.3636363636363 335.59595959595964,821.8989898989898 335.59595959595964,831.4343434343434 335.59595959595964,840.969696969697 335.59595959595964,850.5050505050505 335.59595959595964,860.0404040404039 335.59595959595964,869.5757575757575 335.59595959595964,879.1111111111111 335.59595959595964,888.6464646464647 335.59595959595964,898.1818181818181 335.59595959595964,907.7171717171718 335.59595959595964,917.2525252525252 335.59595959595964,926.7878787878788 335.59595959595964,936.3232323232323 335.59595959595964,945.8585858585858 335.59595959595964,955.3939393939394 335.59595959595964,964.9292929292928 335.59595959595964,974.4646464646464 335.59595959595964,984" fill="none" stroke="rgba(255,0,0,0.75)" stroke-width="14.159999999999995"/></g><g><polyline data-points="-5.000000000000001,-1.8686868686868683 -4.898989898989899,-1.8686868686868683 -4.7979797979797985,-1.7676767676767675 -4.696969696969697,-1.6666666666666665 -4.595959595959596,-1.5656565656565653 -4.494949494949496,-1.4646464646464643 -4.393939393939394,-1.363636363636363 -4.292929292929293,-1.2626262626262625 -4.191919191919193,-1.1616161616161613 -4.090909090909091,-1.0606060606060603 -3.98989898989899,-0.9595959595959596 -3.8888888888888884,-0.8585858585858579 -3.7878787878787876,-0.7575757575757572 -3.6868686868686864,-0.6565656565656557 -3.5858585858585856,-0.555555555555555 -3.484848484848485,-0.4545454545454544 -3.383838383838383,-0.35353535353535287 -3.2828282828282824,-0.2525252525252522 -3.1818181818181817,-0.15151515151515066 -3.0808080808080804,-0.05050505050505001 -2.9797979797979792,0.050505050505051545 -2.8787878787878785,0.1515151515151522 -2.7777777777777777,0.2525252525252529 -2.6767676767676765,0.3535353535353544 -2.5757575757575752,0.4545454545454551 -2.474747474747474,0.5555555555555567 -2.3737373737373733,0.6565656565656574 -2.2727272727272725,0.7575757575757579 -2.1717171717171713,0.8585858585858596 -2.07070707070707,0.9595959595959602 -1.9696969696969693,1.0606060606060617 -1.8686868686868683,1.1616161616161622 -1.7676767676767675,1.262626262626263 -1.6666666666666665,1.3636363636363644 -1.5656565656565653,1.4646464646464652 -1.4646464646464643,1.5656565656565666 -1.363636363636363,1.6666666666666674 -1.2626262626262625,1.767676767676768 -1.1616161616161613,1.8686868686868696 -1.0606060606060603,1.9696969696969702 -0.9595959595959596,2.070707070707072 -0.8585858585858579,2.1717171717171726 -0.7575757575757572,2.2727272727272734 -0.6565656565656557,2.2727272727272734 -0.555555555555555,2.2727272727272734 -0.4545454545454544,2.2727272727272734 -0.35353535353535287,2.2727272727272734 -0.2525252525252522,2.2727272727272734 -0.15151515151515066,2.2727272727272734 -0.05050505050505001,2.2727272727272734 0.050505050505051545,2.2727272727272734 0.1515151515151522,2.2727272727272734 0.2525252525252529,2.2727272727272734 0.3535353535353544,2.2727272727272734 0.4545454545454551,2.2727272727272734 0.5555555555555567,2.2727272727272734 0.6565656565656574,2.2727272727272734 0.7575757575757579,2.2727272727272734 0.8585858585858596,2.2727272727272734 0.9595959595959602,2.2727272727272734 1.0606060606060617,2.2727272727272734 1.1616161616161622,2.2727272727272734 1.262626262626263,2.2727272727272734 1.3636363636363644,2.2727272727272734 1.4646464646464652,2.2727272727272734 1.5656565656565666,2.2727272727272734" data-type="line" data-label="" points="40.00000000000006,688.4040404040404 49.53535353535369,688.4040404040404 59.07070707070716,678.8686868686868 68.60606060606068,669.3333333333334 78.14141414141426,659.7979797979798 87.67676767676772,650.2626262626263 97.21212121212136,640.7272727272727 106.74747474747483,631.1919191919193 116.28282828282829,621.6565656565657 125.81818181818193,612.1212121212121 135.35353535353545,602.5858585858587 144.88888888888903,593.0505050505051 154.42424242424255,583.5151515151516 163.95959595959607,573.979797979798 173.4949494949496,564.4444444444445 183.03030303030312,554.909090909091 192.5656565656567,545.3737373737374 202.10101010101022,535.838383838384 211.63636363636374,526.3030303030304 221.17171717171726,516.7676767676768 230.70707070707084,507.23232323232327 240.2424242424243,497.69696969696975 249.77777777777783,488.1616161616163 259.3131313131314,478.6262626262627 268.84848484848493,469.0909090909092 278.38383838383845,459.5555555555556 287.91919191919203,450.0202020202021 297.4545454545455,440.4848484848486 306.9898989898991,430.94949494949503 316.5252525252526,421.4141414141415 326.0606060606061,411.87878787878793 335.59595959595964,402.3434343434344 345.13131313131316,392.80808080808094 354.6666666666667,383.27272727272737 364.2020202020202,373.73737373737384 373.7373737373738,364.2020202020203 383.2727272727273,354.66666666666674 392.80808080808083,345.1313131313133 402.34343434343435,335.5959595959597 411.8787878787879,326.06060606060623 421.4141414141414,316.5252525252526 430.949494949495,306.9898989898991 440.4848484848485,297.4545454545456 450.0202020202021,297.4545454545456 459.55555555555554,297.4545454545456 469.09090909090907,297.4545454545456 478.62626262626264,297.4545454545456 488.16161616161617,297.4545454545456 497.69696969696975,297.4545454545456 507.2323232323232,297.4545454545456 516.7676767676768,297.4545454545456 526.3030303030303,297.4545454545456 535.8383838383838,297.4545454545456 545.3737373737374,297.4545454545456 554.9090909090909,297.4545454545456 564.4444444444445,297.4545454545456 573.9797979797979,297.4545454545456 583.5151515151515,297.4545454545456 593.0505050505051,297.4545454545456 602.5858585858585,297.4545454545456 612.1212121212121,297.4545454545456 621.6565656565656,297.4545454545456 631.1919191919192,297.4545454545456 640.7272727272727,297.4545454545456 650.2626262626262,297.4545454545456 659.7979797979798,297.4545454545456" fill="none" stroke="rgba(255,0,0,0.75)" stroke-width="14.159999999999995"/></g><g><polyline data-points="1.5656565656565666,2.2727272727272734 1.6666666666666674,2.2727272727272734 1.767676767676768,2.2727272727272734 1.8686868686868696,2.2727272727272734 1.9696969696969702,2.2727272727272734 2.070707070707072,2.2727272727272734 2.1717171717171726,2.2727272727272734 2.2727272727272734,2.2727272727272734 2.373737373737375,2.2727272727272734 2.4747474747474754,2.2727272727272734 2.575757575757577,2.2727272727272734 2.676767676767678,2.2727272727272734 2.7777777777777786,2.2727272727272734 2.87878787878788,2.2727272727272734 2.9797979797979806,2.2727272727272734 3.080808080808082,2.2727272727272734 3.181818181818183,2.2727272727272734" data-type="line" data-label="" points="659.7979797979798,297.4545454545456 669.3333333333333,297.4545454545456 678.8686868686868,297.4545454545456 688.4040404040404,297.4545454545456 697.9393939393939,297.4545454545456 707.4747474747475,297.4545454545456 717.0101010101009,297.4545454545456 726.5454545454545,297.4545454545456 736.0808080808081,297.4545454545456 745.6161616161615,297.4545454545456 755.1515151515151,297.4545454545456 764.6868686868686,297.4545454545456 774.2222222222222,297.4545454545456 783.7575757575758,297.4545454545456 793.2929292929292,297.4545454545456 802.8282828282828,297.4545454545456 812.3636363636363,297.4545454545456" fill="none" stroke="rgba(0,0,255,0.75)" stroke-width="14.159999999999995"/></g><g><polyline data-points="3.181818181818183,2.2727272727272734 3.2828282828282833,2.373737373737375 3.383838383838384,2.4747474747474754 3.4848484848484866,2.575757575757577 3.5858585858585874,2.676767676767678 3.6868686868686877,2.7777777777777786 3.7878787878787885,2.87878787878788 3.8888888888888893,2.9797979797979806 3.989898989898992,3.080808080808082 4.090909090909092,3.181818181818183 4.191919191919193,3.2828282828282833 4.292929292929293,3.383838383838384 4.393939393939394,3.4848484848484866 4.494949494949497,3.5858585858585874 4.595959595959597,3.6868686868686877 4.696969696969697,3.7878787878787885 4.7979797979797985,3.7878787878787885 4.898989898989901,3.7878787878787885 5.000000000000002,3.8888888888888893" data-type="line" data-label="" points="812.3636363636363,297.4545454545456 821.8989898989898,287.91919191919203 831.4343434343433,278.38383838383857 840.969696969697,268.84848484848493 850.5050505050505,259.3131313131314 860.0404040404039,249.77777777777794 869.5757575757575,240.24242424242436 879.111111111111,230.70707070707084 888.6464646464647,221.17171717171726 898.181818181818,211.63636363636374 907.7171717171716,202.10101010101027 917.2525252525251,192.56565656565675 926.7878787878785,183.03030303030312 936.3232323232323,173.4949494949496 945.8585858585857,163.95959595959613 955.3939393939393,154.4242424242426 964.9292929292927,154.4242424242426 974.4646464646464,154.4242424242426 984,144.88888888888908" fill="none" stroke="rgba(255,0,0,0.75)" stroke-width="14.159999999999995"/></g><g><rect data-type="rect" data-label="" data-x="0" data-y="0" x="40.000000000000114" y="40.000000000000284" width="943.9999999999997" height="943.9999999999998" fill="none" stroke="gray" stroke-width="0.010593220338983056"/></g><g><rect data-type="rect" data-label="" data-x="0" data-y="0" x="40.000000000000114" y="40.000000000000284" width="943.9999999999997" height="943.9999999999998" fill="none" stroke="rgba(15, 23, 42, 0.8)" stroke-width="0.010593220338983056"/></g><circle data-type="circle" data-label="" data-x="-3.98989898989899" data-y="-3.484848484848485" cx="135.35353535353545" cy="840.969696969697" r="28.791999999999987" fill="rgba(0,0,0,0.3)" stroke="black" stroke-width="0.010593220338983056"/><circle data-type="circle" data-label="" data-x="-3.98989898989899" data-y="1.4646464646464652" cx="135.35353535353545" cy="373.73737373737384" r="28.791999999999987" fill="rgba(0,0,0,0.3)" stroke="black" stroke-width="0.010593220338983056"/><circle data-type="circle" data-label="" data-x="3.989898989898992" data-y="-2.2727272727272725" cx="888.6464646464647" cy="726.5454545454545" r="28.791999999999987" fill="rgba(0,0,0,0.3)" stroke="black" stroke-width="0.010593220338983056"/><circle data-type="circle" data-label="" data-x="3.080808080808082" data-y="3.989898989898992" cx="802.8282828282828" cy="135.35353535353545" r="28.791999999999987" fill="rgba(0,0,0,0.3)" stroke="black" stroke-width="0.010593220338983056"/><circle data-type="circle" data-label="" data-x="0.1515151515151522" data-y="3.989898989898992" cx="526.3030303030303" cy="135.35353535353545" r="28.791999999999987" fill="rgba(0,0,0,0.3)" stroke="black" stroke-width="0.010593220338983056"/><circle data-type="circle" data-label="" data-x="-3.98989898989899" data-y="0.2525252525252529" cx="135.35353535353545" cy="488.1616161616163" r="28.791999999999987" fill="rgba(0,0,0,0.3)" stroke="black" stroke-width="0.010593220338983056"/><circle data-type="circle" data-label="" data-x="-1.0606060606060603" data-y="1.262626262626263" cx="411.8787878787879" cy="392.80808080808094" r="28.791999999999987" fill="rgba(0,0,0,0.3)" stroke="black" stroke-width="0.010593220338983056"/><circle data-type="circle" data-label="" data-x="-3.1818181818181817" data-y="3.2828282828282833" cx="211.63636363636374" cy="202.10101010101027" r="28.791999999999987" fill="rgba(0,0,0,0.3)" stroke="black" stroke-width="0.010593220338983056"/><circle data-type="circle" data-label="" data-x="3.7878787878787885" data-y="3.6868686868686877" cx="869.5757575757575" cy="163.95959595959613" r="28.791999999999987" fill="rgba(0,0,0,0.3)" stroke="black" stroke-width="0.010593220338983056"/><circle data-type="circle" data-label="" data-x="0.6565656565656574" data-y="0.5555555555555567" cx="573.9797979797979" cy="459.5555555555556" r="28.791999999999987" fill="rgba(0,0,0,0.3)" stroke="black" stroke-width="0.010593220338983056"/><circle data-type="circle" data-label="" data-x="-1.8686868686868683" data-y="-2.8787878787878785" cx="335.59595959595964" cy="783.7575757575758" r="28.791999999999987" fill="rgba(0,0,0,0.3)" stroke="black" stroke-width="0.010593220338983056"/><circle data-type="circle" data-label="" data-x="1.5656565656565666" data-y="2.2727272727272734" cx="659.7979797979798" cy="297.4545454545456" r="28.791999999999987" fill="rgba(0,0,0,0.3)" stroke="black" stroke-width="0.010593220338983056"/><circle data-type="circle" data-label="" data-x="3.181818181818183" data-y="2.2727272727272734" cx="812.3636363636363" cy="297.4545454545456" r="28.791999999999987" fill="rgba(0,0,0,0.3)" stroke="black" stroke-width="0.010593220338983056"/><g id="crosshair" style="display: none"><line id="crosshair-h" y1="0" y2="1024" stroke="#666" stroke-width="0.5"/><line id="crosshair-v" x1="0" x2="1024" stroke="#666" stroke-width="0.5"/><text id="coordinates" font-family="monospace" font-size="12" fill="#666"></text></g><script><![CDATA[
              document.currentScript.parentElement.addEventListener('mousemove', (e) => {
                const svg = e.currentTarget;
                const rect = svg.getBoundingClientRect();
                const x = e.clientX - rect.left;
                const y = e.clientY - rect.top;
                const crosshair = svg.getElementById('crosshair');
                const h = svg.getElementById('crosshair-h');
                const v = svg.getElementById('crosshair-v');
                const coords = svg.getElementById('coordinates');
                
                crosshair.style.display = 'block';
                h.setAttribute('x1', '0');
                h.setAttribute('x2', '1024');
                h.setAttribute('y1', y);
                h.setAttribute('y2', y);
                v.setAttribute('x1', x);
                v.setAttribute('x2', x);
                v.setAttribute('y1', '0');
                v.setAttribute('y2', '1024');

                // Calculate real coordinates using inverse transformation
                const matrix = {"a":94.39999999999996,"c":0,"e":511.99999999999994,"b":0,"d":-94.39999999999996,"f":512.0000000000001};
                // Manually invert and apply the affine transform
                // Since we only use translate and scale, we can directly compute:
                // x' = (x - tx) / sx
                // y' = (y - ty) / sy
                const sx = matrix.a;
                const sy = matrix.d;
                const tx = matrix.e; 
                const ty = matrix.f;
                const realPoint = {
                  x: (x - tx) / sx,
                  y: (y - ty) / sy // Flip y back since we used negative scale
                }
                
                coords.textContent = `(${realPoint.x.toFixed(2)}, ${realPoint.y.toFixed(2)})`;
                coords.setAttribute('x', (x + 5).toString());
                coords.setAttribute('y', (y - 5).toString());
              });
              document.currentScript.parentElement.addEventListener('mouseleave', () => {
                document.currentScript.parentElement.getElementById('crosshair').style.display = 'none';
              });
            ]]></script></svg>