<svg width="1024" height="1024" viewBox="0 0 1024 1024" xmlns="http://www.w3.org/2000/svg"><rect width="100%" height="100%" fill="white"/><g><circle data-type="point" data-label="conn_000" data-x="-5" data-y="-0.96" cx="40.000000000000114" cy="602.624" r="28.792" fill="red" stroke="#740fbd" stroke-width="28.792"/></g><g><circle data-type="point" data-label="conn_000" data-x="5" data-y="-4.6000000000000005" cx="983.9999999999998" cy="946.24" r="28.792" fill="blue" stroke="#740fbd" stroke-width="28.792"/></g><g><circle data-type="point" data-label="conn_001" data-x="-5" data-y="-2.82" cx="40.000000000000114" cy="778.208" r="28.792" fill="red" stroke="#bda70f" stroke-width="28.792"/></g><g><circle data-type="point" data-label="conn_001" data-x="0.48" data-y="-5" cx="557.3119999999999" cy="984" r="28.792" fill="blue" stroke="#bda70f" stroke-width="28.792"/></g><g><circle data-type="point" data-label="conn_002" data-x="5" data-y="2.8000000000000003" cx="983.9999999999998" cy="247.68000000000018" r="28.792" fill="red" stroke="#0fa0bd" stroke-width="28.792"/></g><g><circle data-type="point" data-label="conn_002" data-x="-2.8000000000000003" data-y="5" cx="247.68" cy="40.000000000000284" r="28.792" fill="red" stroke="#0fa0bd" stroke-width="28.792"/></g><g><circle data-type="point" data-label="conn_003" data-x="-1.28" data-y="-5" cx="391.168" cy="984" r="28.792" fill="red" stroke="#bd0f6d" stroke-width="28.792"/></g><g><circle data-type="point" data-label="conn_003" data-x="5" data-y="-0.92" cx="983.9999999999998" cy="598.8480000000001" r="28.792" fill="red" stroke="#bd0f6d" stroke-width="28.792"/></g><g><polyline data-points="-5.000000000000001,-2.8787878787878785 -4.898989898989899,-2.9797979797979792 -4.7979797979797985,-3.0808080808080804 -4.696969696969697,-3.1818181818181817 -4.595959595959596,-3.2828282828282824 -4.494949494949496,-3.383838383838383 -4.393939393939394,-3.484848484848485 -4.292929292929293,-3.5858585858585856 -4.191919191919193,-3.6868686868686864 -4.090909090909091,-3.7878787878787876 -3.98989898989899,-3.8888888888888884 -3.8888888888888884,-3.98989898989899 -3.7878787878787876,-3.98989898989899 -3.6868686868686864,-3.98989898989899 -3.5858585858585856,-3.98989898989899 -3.484848484848485,-3.98989898989899 -3.383838383838383,-3.98989898989899 -3.2828282828282824,-3.98989898989899 -3.1818181818181817,-3.98989898989899 -3.0808080808080804,-3.98989898989899 -2.9797979797979792,-3.98989898989899 -2.8787878787878785,-3.98989898989899 -2.7777777777777777,-3.98989898989899 -2.6767676767676765,-3.98989898989899 -2.5757575757575752,-3.98989898989899 -2.474747474747474,-3.98989898989899 -2.3737373737373733,-3.98989898989899 -2.2727272727272725,-3.98989898989899 -2.1717171717171713,-3.98989898989899 -2.07070707070707,-3.98989898989899 -1.9696969696969693,-3.98989898989899 -1.8686868686868683,-3.98989898989899 -1.7676767676767675,-3.98989898989899 -1.6666666666666665,-3.98989898989899 -1.5656565656565653,-3.98989898989899 -1.4646464646464643,-3.98989898989899 -1.363636363636363,-3.98989898989899 -1.2626262626262625,-3.98989898989899 -1.1616161616161613,-3.98989898989899 -1.0606060606060603,-3.98989898989899 -0.9595959595959596,-3.98989898989899 -0.8585858585858579,-3.98989898989899 -0.7575757575757572,-3.98989898989899 -0.6565656565656557,-3.98989898989899 -0.555555555555555,-3.98989898989899 -0.4545454545454544,-3.98989898989899 -0.35353535353535287,-3.98989898989899 -0.2525252525252522,-3.98989898989899 -0.15151515151515066,-3.98989898989899 -0.05050505050505001,-3.98989898989899 0.050505050505051545,-3.98989898989899 0.1515151515151522,-3.98989898989899 0.2525252525252529,-3.98989898989899 0.3535353535353544,-3.98989898989899" data-type="line" data-label="" points="40.00000000000006,783.7575757575758 49.53535353535369,793.2929292929292 59.07070707070716,802.8282828282828 68.60606060606068,812.3636363636363 78.14141414141426,821.8989898989898 87.67676767676772,831.4343434343434 97.21212121212136,840.969696969697 106.74747474747483,850.5050505050505 116.28282828282829,860.0404040404039 125.81818181818193,869.5757575757575 135.35353535353545,879.1111111111111 144.88888888888903,888.6464646464647 154.42424242424255,888.6464646464647 163.95959595959607,888.6464646464647 173.4949494949496,888.6464646464647 183.03030303030312,888.6464646464647 192.5656565656567,888.6464646464647 202.10101010101022,888.6464646464647 211.63636363636374,888.6464646464647 221.17171717171726,888.6464646464647 230.70707070707084,888.6464646464647 240.2424242424243,888.6464646464647 249.77777777777783,888.6464646464647 259.3131313131314,888.6464646464647 268.84848484848493,888.6464646464647 278.38383838383845,888.6464646464647 287.91919191919203,888.6464646464647 297.4545454545455,888.6464646464647 306.9898989898991,888.6464646464647 316.5252525252526,888.6464646464647 326.0606060606061,888.6464646464647 335.59595959595964,888.6464646464647 345.13131313131316,888.6464646464647 354.6666666666667,888.6464646464647 364.2020202020202,888.6464646464647 373.7373737373738,888.6464646464647 383.2727272727273,888.6464646464647 392.80808080808083,888.6464646464647 402.34343434343435,888.6464646464647 411.8787878787879,888.6464646464647 421.4141414141414,888.6464646464647 430.949494949495,888.6464646464647 440.4848484848485,888.6464646464647 450.0202020202021,888.6464646464647 459.55555555555554,888.6464646464647 469.09090909090907,888.6464646464647 478.62626262626264,888.6464646464647 488.16161616161617,888.6464646464647 497.69696969696975,888.6464646464647 507.2323232323232,888.6464646464647 516.7676767676768,888.6464646464647 526.3030303030303,888.6464646464647 535.8383838383838,888.6464646464647 545.3737373737374,888.6464646464647" fill="none" stroke="rgba(255,0,0,0.75)" stroke-width="14.159999999999995"/></g><g><polyline data-points="0.3535353535353544,-3.98989898989899 0.4545454545454551,-4.090909090909091 0.4545454545454551,-4.191919191919193 0.4545454545454551,-4.292929292929293 0.4545454545454551,-4.393939393939394 0.4545454545454551,-4.494949494949496 0.4545454545454551,-4.595959595959596 0.4545454545454551,-4.696969696969697 0.4545454545454551,-4.7979797979797985 0.4545454545454551,-4.898989898989899 0.4545454545454551,-5.000000000000001" data-type="line" data-label="" points="545.3737373737374,888.6464646464647 554.9090909090909,898.1818181818181 554.9090909090909,907.7171717171718 554.9090909090909,917.2525252525252 554.9090909090909,926.7878787878788 554.9090909090909,936.3232323232323 554.9090909090909,945.8585858585858 554.9090909090909,955.3939393939394 554.9090909090909,964.9292929292928 554.9090909090909,974.4646464646464 554.9090909090909,984" fill="none" stroke="rgba(0,0,255,0.75)" stroke-width="14.159999999999995"/></g><g><polyline data-points="-1.2626262626262625,-5.000000000000001 -1.1616161616161613,-4.898989898989899 -1.0606060606060603,-4.7979797979797985 -0.9595959595959596,-4.696969696969697 -0.8585858585858579,-4.595959595959596 -0.7575757575757572,-4.494949494949496 -0.6565656565656557,-4.494949494949496 -0.555555555555555,-4.494949494949496 -0.4545454545454544,-4.494949494949496 -0.35353535353535287,-4.494949494949496 -0.2525252525252522,-4.494949494949496 -0.15151515151515066,-4.494949494949496 -0.05050505050505001,-4.494949494949496 0.050505050505051545,-4.494949494949496 0.1515151515151522,-4.494949494949496 0.2525252525252529,-4.494949494949496 0.3535353535353544,-4.494949494949496 0.4545454545454551,-4.393939393939394 0.5555555555555567,-4.393939393939394 0.6565656565656574,-4.292929292929293 0.7575757575757579,-4.191919191919193 0.8585858585858596,-4.090909090909091 0.9595959595959602,-3.98989898989899 1.0606060606060617,-3.8888888888888884 1.1616161616161622,-3.7878787878787876 1.262626262626263,-3.6868686868686864 1.3636363636363644,-3.5858585858585856 1.4646464646464652,-3.484848484848485 1.5656565656565666,-3.383838383838383 1.6666666666666674,-3.2828282828282824 1.767676767676768,-3.1818181818181817 1.8686868686868696,-3.0808080808080804 1.9696969696969702,-2.9797979797979792 2.070707070707072,-2.8787878787878785 2.1717171717171726,-2.7777777777777777 2.2727272727272734,-2.6767676767676765 2.373737373737375,-2.5757575757575752 2.4747474747474754,-2.474747474747474 2.575757575757577,-2.3737373737373733 2.676767676767678,-2.2727272727272725 2.7777777777777786,-2.1717171717171713 2.87878787878788,-2.07070707070707 2.9797979797979806,-1.9696969696969693 3.080808080808082,-1.8686868686868683 3.181818181818183,-1.7676767676767675 3.2828282828282833,-1.6666666666666665 3.383838383838384,-1.5656565656565653 3.4848484848484866,-1.4646464646464643 3.5858585858585874,-1.363636363636363 3.6868686868686877,-1.2626262626262625 3.7878787878787885,-1.1616161616161613 3.8888888888888893,-1.0606060606060603 3.989898989898992,-0.9595959595959596 4.090909090909092,-0.9595959595959596 4.191919191919193,-0.9595959595959596 4.292929292929293,-0.9595959595959596 4.393939393939394,-0.9595959595959596 4.494949494949497,-0.9595959595959596 4.595959595959597,-0.9595959595959596 4.696969696969697,-0.9595959595959596 4.7979797979797985,-0.9595959595959596 4.898989898989901,-0.9595959595959596 5.000000000000002,-0.9595959595959596" data-type="line" data-label="" points="392.80808080808083,984 402.34343434343435,974.4646464646464 411.8787878787879,964.9292929292928 421.4141414141414,955.3939393939394 430.949494949495,945.8585858585858 440.4848484848485,936.3232323232323 450.0202020202021,936.3232323232323 459.55555555555554,936.3232323232323 469.09090909090907,936.3232323232323 478.62626262626264,936.3232323232323 488.16161616161617,936.3232323232323 497.69696969696975,936.3232323232323 507.2323232323232,936.3232323232323 516.7676767676768,936.3232323232323 526.3030303030303,936.3232323232323 535.8383838383838,936.3232323232323 545.3737373737374,936.3232323232323 554.9090909090909,926.7878787878788 564.4444444444445,926.7878787878788 573.9797979797979,917.2525252525252 583.5151515151515,907.7171717171718 593.0505050505051,898.1818181818181 602.5858585858585,888.6464646464647 612.1212121212121,879.1111111111111 621.6565656565656,869.5757575757575 631.1919191919192,860.0404040404039 640.7272727272727,850.5050505050505 650.2626262626262,840.969696969697 659.7979797979798,831.4343434343434 669.3333333333333,821.8989898989898 678.8686868686868,812.3636363636363 688.4040404040404,802.8282828282828 697.9393939393939,793.2929292929292 707.4747474747475,783.7575757575758 717.0101010101009,774.2222222222222 726.5454545454545,764.6868686868687 736.0808080808081,755.1515151515151 745.6161616161615,745.6161616161615 755.1515151515151,736.0808080808081 764.6868686868686,726.5454545454545 774.2222222222222,717.010101010101 783.7575757575758,707.4747474747475 793.2929292929292,697.939393939394 802.8282828282828,688.4040404040404 812.3636363636363,678.8686868686868 821.8989898989898,669.3333333333334 831.4343434343433,659.7979797979798 840.969696969697,650.2626262626263 850.5050505050505,640.7272727272727 860.0404040404039,631.1919191919193 869.5757575757575,621.6565656565657 879.111111111111,612.1212121212121 888.6464646464647,602.5858585858587 898.181818181818,602.5858585858587 907.7171717171716,602.5858585858587 917.2525252525251,602.5858585858587 926.7878787878785,602.5858585858587 936.3232323232323,602.5858585858587 945.8585858585857,602.5858585858587 955.3939393939393,602.5858585858587 964.9292929292927,602.5858585858587 974.4646464646464,602.5858585858587 984,602.5858585858587" fill="none" stroke="rgba(255,0,0,0.75)" stroke-width="14.159999999999995"/></g><g><polyline data-points="-5.000000000000001,-0.9595959595959596 -4.898989898989899,-1.0606060606060603 -4.7979797979797985,-1.1616161616161613 -4.696969696969697,-1.2626262626262625 -4.595959595959596,-1.363636363636363 -4.494949494949496,-1.4646464646464643 -4.393939393939394,-1.5656565656565653 -4.292929292929293,-1.6666666666666665 -4.191919191919193,-1.7676767676767675 -4.090909090909091,-1.8686868686868683 -3.98989898989899,-1.9696969696969693 -3.8888888888888884,-2.07070707070707 -3.7878787878787876,-2.1717171717171713 -3.6868686868686864,-2.2727272727272725 -3.5858585858585856,-2.3737373737373733 -3.484848484848485,-2.474747474747474 -3.383838383838383,-2.5757575757575752 -3.2828282828282824,-2.6767676767676765 -3.1818181818181817,-2.7777777777777777 -3.0808080808080804,-2.8787878787878785 -2.9797979797979792,-2.9797979797979792 -2.8787878787878785,-3.0808080808080804 -2.7777777777777777,-3.1818181818181817 -2.6767676767676765,-3.2828282828282824 -2.5757575757575752,-3.383838383838383 -2.474747474747474,-3.383838383838383 -2.3737373737373733,-3.383838383838383 -2.2727272727272725,-3.383838383838383 -2.1717171717171713,-3.383838383838383 -2.07070707070707,-3.383838383838383 -1.9696969696969693,-3.383838383838383 -1.8686868686868683,-3.383838383838383 -1.7676767676767675,-3.383838383838383 -1.6666666666666665,-3.383838383838383 -1.5656565656565653,-3.383838383838383 -1.4646464646464643,-3.383838383838383 -1.363636363636363,-3.383838383838383 -1.2626262626262625,-3.383838383838383 -1.1616161616161613,-3.383838383838383 -1.0606060606060603,-3.383838383838383 -0.9595959595959596,-3.383838383838383 -0.8585858585858579,-3.383838383838383 -0.7575757575757572,-3.383838383838383 -0.6565656565656557,-3.383838383838383 -0.555555555555555,-3.383838383838383 -0.4545454545454544,-3.383838383838383" data-type="line" data-label="" points="40.00000000000006,602.5858585858587 49.53535353535369,612.1212121212121 59.07070707070716,621.6565656565657 68.60606060606068,631.1919191919193 78.14141414141426,640.7272727272727 87.67676767676772,650.2626262626263 97.21212121212136,659.7979797979798 106.74747474747483,669.3333333333334 116.28282828282829,678.8686868686868 125.81818181818193,688.4040404040404 135.35353535353545,697.939393939394 144.88888888888903,707.4747474747475 154.42424242424255,717.010101010101 163.95959595959607,726.5454545454545 173.4949494949496,736.0808080808081 183.03030303030312,745.6161616161615 192.5656565656567,755.1515151515151 202.10101010101022,764.6868686868687 211.63636363636374,774.2222222222222 221.17171717171726,783.7575757575758 230.70707070707084,793.2929292929292 240.2424242424243,802.8282828282828 249.77777777777783,812.3636363636363 259.3131313131314,821.8989898989898 268.84848484848493,831.4343434343434 278.38383838383845,831.4343434343434 287.91919191919203,831.4343434343434 297.4545454545455,831.4343434343434 306.9898989898991,831.4343434343434 316.5252525252526,831.4343434343434 326.0606060606061,831.4343434343434 335.59595959595964,831.4343434343434 345.13131313131316,831.4343434343434 354.6666666666667,831.4343434343434 364.2020202020202,831.4343434343434 373.7373737373738,831.4343434343434 383.2727272727273,831.4343434343434 392.80808080808083,831.4343434343434 402.34343434343435,831.4343434343434 411.8787878787879,831.4343434343434 421.4141414141414,831.4343434343434 430.949494949495,831.4343434343434 440.4848484848485,831.4343434343434 450.0202020202021,831.4343434343434 459.55555555555554,831.4343434343434 469.09090909090907,831.4343434343434" fill="none" stroke="rgba(255,0,0,0.75)" stroke-width="14.159999999999995"/></g><g><polyline data-points="-0.4545454545454544,-3.383838383838383 -0.35353535353535287,-3.484848484848485 -0.2525252525252522,-3.484848484848485 -0.15151515151515066,-3.484848484848485 -0.05050505050505001,-3.484848484848485 0.050505050505051545,-3.484848484848485 0.1515151515151522,-3.484848484848485 0.2525252525252529,-3.484848484848485 0.3535353535353544,-3.484848484848485 0.4545454545454551,-3.5858585858585856 0.5555555555555567,-3.5858585858585856 0.6565656565656574,-3.6868686868686864 0.7575757575757579,-3.7878787878787876 0.8585858585858596,-3.8888888888888884 0.9595959595959602,-3.98989898989899 1.0606060606060617,-4.090909090909091 1.1616161616161622,-4.191919191919193 1.262626262626263,-4.292929292929293 1.3636363636363644,-4.393939393939394 1.4646464646464652,-4.494949494949496 1.5656565656565666,-4.595959595959596 1.6666666666666674,-4.696969696969697 1.767676767676768,-4.696969696969697 1.8686868686868696,-4.696969696969697 1.9696969696969702,-4.696969696969697 2.070707070707072,-4.696969696969697 2.1717171717171726,-4.696969696969697 2.2727272727272734,-4.696969696969697 2.373737373737375,-4.696969696969697 2.4747474747474754,-4.696969696969697 2.575757575757577,-4.696969696969697 2.676767676767678,-4.696969696969697 2.7777777777777786,-4.696969696969697 2.87878787878788,-4.696969696969697 2.9797979797979806,-4.696969696969697 3.080808080808082,-4.696969696969697 3.181818181818183,-4.696969696969697 3.2828282828282833,-4.696969696969697 3.383838383838384,-4.696969696969697 3.4848484848484866,-4.696969696969697 3.5858585858585874,-4.696969696969697 3.6868686868686877,-4.696969696969697 3.7878787878787885,-4.696969696969697 3.8888888888888893,-4.696969696969697 3.989898989898992,-4.696969696969697 4.090909090909092,-4.696969696969697 4.191919191919193,-4.696969696969697 4.292929292929293,-4.696969696969697 4.393939393939394,-4.696969696969697 4.494949494949497,-4.696969696969697 4.595959595959597,-4.696969696969697 4.696969696969697,-4.696969696969697 4.7979797979797985,-4.696969696969697 4.898989898989901,-4.696969696969697 5.000000000000002,-4.696969696969697" data-type="line" data-label="" points="469.09090909090907,831.4343434343434 478.62626262626264,840.969696969697 488.16161616161617,840.969696969697 497.69696969696975,840.969696969697 507.2323232323232,840.969696969697 516.7676767676768,840.969696969697 526.3030303030303,840.969696969697 535.8383838383838,840.969696969697 545.3737373737374,840.969696969697 554.9090909090909,850.5050505050505 564.4444444444445,850.5050505050505 573.9797979797979,860.0404040404039 583.5151515151515,869.5757575757575 593.0505050505051,879.1111111111111 602.5858585858585,888.6464646464647 612.1212121212121,898.1818181818181 621.6565656565656,907.7171717171718 631.1919191919192,917.2525252525252 640.7272727272727,926.7878787878788 650.2626262626262,936.3232323232323 659.7979797979798,945.8585858585858 669.3333333333333,955.3939393939394 678.8686868686868,955.3939393939394 688.4040404040404,955.3939393939394 697.9393939393939,955.3939393939394 707.4747474747475,955.3939393939394 717.0101010101009,955.3939393939394 726.5454545454545,955.3939393939394 736.0808080808081,955.3939393939394 745.6161616161615,955.3939393939394 755.1515151515151,955.3939393939394 764.6868686868686,955.3939393939394 774.2222222222222,955.3939393939394 783.7575757575758,955.3939393939394 793.2929292929292,955.3939393939394 802.8282828282828,955.3939393939394 812.3636363636363,955.3939393939394 821.8989898989898,955.3939393939394 831.4343434343433,955.3939393939394 840.969696969697,955.3939393939394 850.5050505050505,955.3939393939394 860.0404040404039,955.3939393939394 869.5757575757575,955.3939393939394 879.111111111111,955.3939393939394 888.6464646464647,955.3939393939394 898.181818181818,955.3939393939394 907.7171717171716,955.3939393939394 917.2525252525251,955.3939393939394 926.7878787878785,955.3939393939394 936.3232323232323,955.3939393939394 945.8585858585857,955.3939393939394 955.3939393939393,955.3939393939394 964.9292929292927,955.3939393939394 974.4646464646464,955.3939393939394 984,955.3939393939394" fill="none" stroke="rgba(0,0,255,0.75)" stroke-width="14.159999999999995"/></g><g><polyline data-points="5.000000000000002,2.87878787878788 4.898989898989901,2.9797979797979806 4.7979797979797985,3.080808080808082 4.696969696969697,3.181818181818183 4.595959595959597,3.2828282828282833 4.494949494949497,3.383838383838384 4.393939393939394,3.4848484848484866 4.292929292929293,3.5858585858585874 4.191919191919193,3.6868686868686877 4.090909090909092,3.7878787878787885 3.989898989898992,3.8888888888888893 3.8888888888888893,3.989898989898992 3.7878787878787885,4.090909090909092 3.6868686868686877,4.191919191919193 3.5858585858585874,4.292929292929293 3.4848484848484866,4.393939393939394 3.383838383838384,4.494949494949497 3.2828282828282833,4.595959595959597 3.181818181818183,4.696969696969697 3.080808080808082,4.7979797979797985 2.9797979797979806,4.898989898989901 2.87878787878788,5.000000000000002 2.7777777777777786,5.000000000000002 2.676767676767678,5.000000000000002 2.575757575757577,5.000000000000002 2.4747474747474754,5.000000000000002 2.373737373737375,5.000000000000002 2.2727272727272734,5.000000000000002 2.1717171717171726,5.000000000000002 2.070707070707072,5.000000000000002 1.9696969696969702,5.000000000000002 1.8686868686868696,5.000000000000002 1.767676767676768,5.000000000000002 1.6666666666666674,5.000000000000002 1.5656565656565666,5.000000000000002 1.4646464646464652,5.000000000000002 1.3636363636363644,5.000000000000002 1.262626262626263,5.000000000000002 1.1616161616161622,5.000000000000002 1.0606060606060617,5.000000000000002 0.9595959595959602,5.000000000000002 0.8585858585858596,5.000000000000002 0.7575757575757579,5.000000000000002 0.6565656565656574,5.000000000000002 0.5555555555555567,5.000000000000002 0.4545454545454551,5.000000000000002 0.3535353535353544,5.000000000000002 0.2525252525252529,5.000000000000002 0.1515151515151522,5.000000000000002 0.050505050505051545,5.000000000000002 -0.05050505050505001,5.000000000000002 -0.15151515151515066,5.000000000000002 -0.2525252525252522,5.000000000000002 -0.35353535353535287,5.000000000000002 -0.4545454545454544,5.000000000000002 -0.555555555555555,5.000000000000002 -0.6565656565656557,5.000000000000002 -0.7575757575757572,5.000000000000002 -0.8585858585858579,5.000000000000002 -0.9595959595959596,5.000000000000002 -1.0606060606060603,5.000000000000002 -1.1616161616161613,5.000000000000002 -1.2626262626262625,5.000000000000002 -1.363636363636363,5.000000000000002 -1.4646464646464643,5.000000000000002 -1.5656565656565653,5.000000000000002 -1.6666666666666665,5.000000000000002 -1.7676767676767675,5.000000000000002 -1.8686868686868683,5.000000000000002 -1.9696969696969693,5.000000000000002 -2.07070707070707,5.000000000000002 -2.1717171717171713,5.000000000000002 -2.2727272727272725,5.000000000000002 -2.3737373737373733,5.000000000000002 -2.474747474747474,5.000000000000002 -2.5757575757575752,5.000000000000002 -2.6767676767676765,5.000000000000002 -2.7777777777777777,5.000000000000002 -2.8787878787878785,5.000000000000002" data-type="line" data-label="" points="984,240.24242424242436 974.4646464646464,230.70707070707084 964.9292929292927,221.17171717171726 955.3939393939393,211.63636363636374 945.8585858585857,202.10101010101027 936.3232323232323,192.56565656565675 926.7878787878785,183.03030303030312 917.2525252525251,173.4949494949496 907.7171717171716,163.95959595959613 898.181818181818,154.4242424242426 888.6464646464647,144.88888888888908 879.111111111111,135.35353535353545 869.5757575757575,125.81818181818198 860.0404040404039,116.28282828282846 850.5050505050505,106.747474747475 840.969696969697,97.21212121212153 831.4343434343433,87.67676767676778 821.8989898989898,78.14141414141432 812.3636363636363,68.60606060606085 802.8282828282828,59.07070707070733 793.2929292929292,49.53535353535369 783.7575757575758,40.000000000000114 774.2222222222222,40.000000000000114 764.6868686868686,40.000000000000114 755.1515151515151,40.000000000000114 745.6161616161615,40.000000000000114 736.0808080808081,40.000000000000114 726.5454545454545,40.000000000000114 717.0101010101009,40.000000000000114 707.4747474747475,40.000000000000114 697.9393939393939,40.000000000000114 688.4040404040404,40.000000000000114 678.8686868686868,40.000000000000114 669.3333333333333,40.000000000000114 659.7979797979798,40.000000000000114 650.2626262626262,40.000000000000114 640.7272727272727,40.000000000000114 631.1919191919192,40.000000000000114 621.6565656565656,40.000000000000114 612.1212121212121,40.000000000000114 602.5858585858585,40.000000000000114 593.0505050505051,40.000000000000114 583.5151515151515,40.000000000000114 573.9797979797979,40.000000000000114 564.4444444444445,40.000000000000114 554.9090909090909,40.000000000000114 545.3737373737374,40.000000000000114 535.8383838383838,40.000000000000114 526.3030303030303,40.000000000000114 516.7676767676768,40.000000000000114 507.2323232323232,40.000000000000114 497.69696969696975,40.000000000000114 488.16161616161617,40.000000000000114 478.62626262626264,40.000000000000114 469.09090909090907,40.000000000000114 459.55555555555554,40.000000000000114 450.0202020202021,40.000000000000114 440.4848484848485,40.000000000000114 430.949494949495,40.000000000000114 421.4141414141414,40.000000000000114 411.8787878787879,40.000000000000114 402.34343434343435,40.000000000000114 392.80808080808083,40.000000000000114 383.2727272727273,40.000000000000114 373.7373737373738,40.000000000000114 364.2020202020202,40.000000000000114 354.6666666666667,40.000000000000114 345.13131313131316,40.000000000000114 335.59595959595964,40.000000000000114 326.0606060606061,40.000000000000114 316.5252525252526,40.000000000000114 306.9898989898991,40.000000000000114 297.4545454545455,40.000000000000114 287.91919191919203,40.000000000000114 278.38383838383845,40.000000000000114 268.84848484848493,40.000000000000114 259.3131313131314,40.000000000000114 249.77777777777783,40.000000000000114 240.2424242424243,40.000000000000114" fill="none" stroke="rgba(255,0,0,0.75)" stroke-width="14.159999999999995"/></g><g><rect data-type="rect" data-label="" data-x="0" data-y="0" x="40.000000000000114" y="40.000000000000284" width="943.9999999999997" height="943.9999999999998" fill="none" stroke="gray" stroke-width="0.010593220338983056"/></g><g><rect data-type="rect" data-label="" data-x="0" data-y="0" x="40.000000000000114" y="40.000000000000284" width="943.9999999999997" height="943.9999999999998" fill="none" stroke="rgba(15, 23, 42, 0.8)" stroke-width="0.010593220338983056"/></g><circle data-type="circle" data-label="" data-x="0.3535353535353544" data-y="-3.98989898989899" cx="545.3737373737374" cy="888.6464646464647" r="28.791999999999987" fill="rgba(0,0,0,0.3)" stroke="black" stroke-width="0.010593220338983056"/><circle data-type="circle" data-label="" data-x="-0.4545454545454544" data-y="-3.383838383838383" cx="469.09090909090907" cy="831.4343434343434" r="28.791999999999987" fill="rgba(0,0,0,0.3)" stroke="black" stroke-width="0.010593220338983056"/><g id="crosshair" style="display: none"><line id="crosshair-h" y1="0" y2="1024" stroke="#666" stroke-width="0.5"/><line id="crosshair-v" x1="0" x2="1024" stroke="#666" stroke-width="0.5"/><text id="coordinates" font-family="monospace" font-size="12" fill="#666"></text></g><script><![CDATA[
              document.currentScript.parentElement.addEventListener('mousemove', (e) => {
                const svg = e.currentTarget;
                const rect = svg.getBoundingClientRect();
                const x = e.clientX - rect.left;
                const y = e.clientY - rect.top;
                const crosshair = svg.getElementById('crosshair');
                const h = svg.getElementById('crosshair-h');
                const v = svg.getElementById('crosshair-v');
                const coords = svg.getElementById('coordinates');
                
                crosshair.style.display = 'block';
                h.setAttribute('x1', '0');
                h.setAttribute('x2', '1024');
                h.setAttribute('y1', y);
                h.setAttribute('y2', y);
                v.setAttribute('x1', x);
                v.setAttribute('x2', x);
                v.setAttribute('y1', '0');
                v.setAttribute('y2', '1024');

                // Calculate real coordinates using inverse transformation
                const matrix = {"a":94.39999999999996,"c":0,"e":511.99999999999994,"b":0,"d":-94.39999999999996,"f":512.0000000000001};
                // Manually invert and apply the affine transform
                // Since we only use translate and scale, we can directly compute:
                // x' = (x - tx) / sx
                // y' = (y - ty) / sy
                const sx = matrix.a;
                const sy = matrix.d;
                const tx = matrix.e; 
                const ty = matrix.f;
                const realPoint = {
                  x: (x - tx) / sx,
                  y: (y - ty) / sy // Flip y back since we used negative scale
                }
                
                coords.textContent = `(${realPoint.x.toFixed(2)}, ${realPoint.y.toFixed(2)})`;
                coords.setAttribute('x', (x + 5).toString());
                coords.setAttribute('y', (y - 5).toString());
              });
              document.currentScript.parentElement.addEventListener('mouseleave', () => {
                document.currentScript.parentElement.getElementById('crosshair').style.display = 'none';
              });
            ]]></script></svg>