<svg width="1024" height="1024" viewBox="0 0 1024 1024" xmlns="http://www.w3.org/2000/svg"><rect width="100%" height="100%" fill="white"/><g><circle data-type="point" data-label="conn_000" data-x="4.5200000000000005" data-y="5" cx="938.6879999999999" cy="40.000000000000284" r="28.792" fill="blue" stroke="#0fbd42" stroke-width="28.792"/></g><g><circle data-type="point" data-label="conn_000" data-x="-0.06" data-y="-5" cx="506.33599999999996" cy="984" r="28.792" fill="blue" stroke="#0fbd42" stroke-width="28.792"/></g><g><circle data-type="point" data-label="conn_001" data-x="2.46" data-y="-5" cx="744.2239999999998" cy="984" r="28.792" fill="red" stroke="#740fbd" stroke-width="28.792"/></g><g><circle data-type="point" data-label="conn_001" data-x="-5" data-y="-0.32" cx="40.000000000000114" cy="542.2080000000001" r="28.792" fill="blue" stroke="#740fbd" stroke-width="28.792"/></g><g><circle data-type="point" data-label="conn_002" data-x="5" data-y="0.36" cx="983.9999999999998" cy="478.01600000000013" r="28.792" fill="red" stroke="#bda70f" stroke-width="28.792"/></g><g><circle data-type="point" data-label="conn_002" data-x="3.22" data-y="-5" cx="815.9679999999998" cy="984" r="28.792" fill="blue" stroke="#bda70f" stroke-width="28.792"/></g><g><circle data-type="point" data-label="conn_003" data-x="2.7600000000000002" data-y="5" cx="772.5439999999999" cy="40.000000000000284" r="28.792" fill="red" stroke="#0fa0bd" stroke-width="28.792"/></g><g><circle data-type="point" data-label="conn_003" data-x="4.08" data-y="-5" cx="897.1519999999998" cy="984" r="28.792" fill="blue" stroke="#0fa0bd" stroke-width="28.792"/></g><g><circle data-type="point" data-label="conn_004" data-x="-5" data-y="-2.2800000000000002" cx="40.000000000000114" cy="727.2320000000001" r="28.792" fill="red" stroke="#bd0f6d" stroke-width="28.792"/></g><g><circle data-type="point" data-label="conn_004" data-x="5" data-y="3.64" cx="983.9999999999998" cy="168.38400000000024" r="28.792" fill="blue" stroke="#bd0f6d" stroke-width="28.792"/></g><g><circle data-type="point" data-label="conn_005" data-x="-0.76" data-y="-5" cx="440.256" cy="984" r="28.792" fill="red" stroke="#3bbd0f" stroke-width="28.792"/></g><g><circle data-type="point" data-label="conn_005" data-x="-0.04" data-y="5" cx="508.22399999999993" cy="40.000000000000284" r="28.792" fill="red" stroke="#3bbd0f" stroke-width="28.792"/></g><g><circle data-type="point" data-label="conn_006" data-x="-2.16" data-y="-5" cx="308.096" cy="984" r="28.792" fill="blue" stroke="#170fbd" stroke-width="28.792"/></g><g><circle data-type="point" data-label="conn_006" data-x="-2.7" data-y="5" cx="257.12" cy="40.000000000000284" r="28.792" fill="blue" stroke="#170fbd" stroke-width="28.792"/></g><g><circle data-type="point" data-label="conn_007" data-x="5" data-y="1.46" cx="983.9999999999998" cy="374.17600000000016" r="28.792" fill="blue" stroke="#bd490f" stroke-width="28.792"/></g><g><circle data-type="point" data-label="conn_007" data-x="-5" data-y="2.34" cx="40.000000000000114" cy="291.1040000000002" r="28.792" fill="red" stroke="#bd490f" stroke-width="28.792"/></g><g><polyline data-points="5.000000000000002,1.4646464646464652 4.898989898989901,1.5656565656565666 4.7979797979797985,1.6666666666666674 4.696969696969697,1.767676767676768 4.595959595959597,1.8686868686868696 4.494949494949497,1.9696969696969702 4.393939393939394,2.070707070707072 4.292929292929293,2.1717171717171726 4.191919191919193,2.2727272727272734 4.090909090909092,2.373737373737375 3.989898989898992,2.373737373737375 3.8888888888888893,2.373737373737375 3.7878787878787885,2.373737373737375 3.6868686868686877,2.373737373737375 3.5858585858585874,2.373737373737375 3.4848484848484866,2.373737373737375 3.383838383838384,2.373737373737375 3.2828282828282833,2.373737373737375 3.181818181818183,2.373737373737375 3.080808080808082,2.373737373737375 2.9797979797979806,2.373737373737375 2.87878787878788,2.373737373737375 2.7777777777777786,2.373737373737375 2.676767676767678,2.373737373737375 2.575757575757577,2.373737373737375 2.4747474747474754,2.373737373737375 2.373737373737375,2.373737373737375 2.2727272727272734,2.373737373737375 2.1717171717171726,2.373737373737375 2.070707070707072,2.373737373737375 1.9696969696969702,2.373737373737375 1.8686868686868696,2.373737373737375 1.767676767676768,2.373737373737375 1.6666666666666674,2.373737373737375 1.5656565656565666,2.373737373737375 1.4646464646464652,2.373737373737375 1.3636363636363644,2.373737373737375 1.262626262626263,2.373737373737375 1.1616161616161622,2.373737373737375 1.0606060606060617,2.373737373737375 0.9595959595959602,2.373737373737375 0.8585858585858596,2.373737373737375 0.7575757575757579,2.373737373737375 0.6565656565656574,2.373737373737375 0.5555555555555567,2.373737373737375 0.4545454545454551,2.373737373737375 0.3535353535353544,2.373737373737375 0.2525252525252529,2.373737373737375 0.1515151515151522,2.373737373737375 0.050505050505051545,2.373737373737375 -0.05050505050505001,2.373737373737375 -0.15151515151515066,2.373737373737375 -0.2525252525252522,2.373737373737375 -0.35353535353535287,2.373737373737375 -0.4545454545454544,2.373737373737375 -0.555555555555555,2.373737373737375 -0.6565656565656557,2.373737373737375 -0.7575757575757572,2.373737373737375 -0.8585858585858579,2.373737373737375 -0.9595959595959596,2.373737373737375 -1.0606060606060603,2.373737373737375 -1.1616161616161613,2.373737373737375 -1.2626262626262625,2.373737373737375 -1.363636363636363,2.373737373737375 -1.4646464646464643,2.373737373737375 -1.5656565656565653,2.373737373737375 -1.6666666666666665,2.373737373737375 -1.7676767676767675,2.373737373737375 -1.8686868686868683,2.373737373737375 -1.9696969696969693,2.373737373737375 -2.07070707070707,2.373737373737375 -2.1717171717171713,2.373737373737375 -2.2727272727272725,2.373737373737375 -2.3737373737373733,2.373737373737375 -2.474747474747474,2.373737373737375 -2.5757575757575752,2.373737373737375 -2.6767676767676765,2.373737373737375 -2.7777777777777777,2.373737373737375 -2.8787878787878785,2.373737373737375 -2.9797979797979792,2.373737373737375 -3.0808080808080804,2.373737373737375 -3.1818181818181817,2.373737373737375 -3.2828282828282824,2.373737373737375 -3.383838383838383,2.373737373737375 -3.484848484848485,2.373737373737375 -3.5858585858585856,2.373737373737375 -3.6868686868686864,2.373737373737375 -3.7878787878787876,2.373737373737375 -3.8888888888888884,2.373737373737375 -3.98989898989899,2.373737373737375" data-type="line" data-label="" points="984,373.73737373737384 974.4646464646464,364.2020202020203 964.9292929292927,354.66666666666674 955.3939393939393,345.1313131313133 945.8585858585857,335.5959595959597 936.3232323232323,326.06060606060623 926.7878787878785,316.5252525252526 917.2525252525251,306.9898989898991 907.7171717171716,297.4545454545456 898.181818181818,287.91919191919203 888.6464646464647,287.91919191919203 879.111111111111,287.91919191919203 869.5757575757575,287.91919191919203 860.0404040404039,287.91919191919203 850.5050505050505,287.91919191919203 840.969696969697,287.91919191919203 831.4343434343433,287.91919191919203 821.8989898989898,287.91919191919203 812.3636363636363,287.91919191919203 802.8282828282828,287.91919191919203 793.2929292929292,287.91919191919203 783.7575757575758,287.91919191919203 774.2222222222222,287.91919191919203 764.6868686868686,287.91919191919203 755.1515151515151,287.91919191919203 745.6161616161615,287.91919191919203 736.0808080808081,287.91919191919203 726.5454545454545,287.91919191919203 717.0101010101009,287.91919191919203 707.4747474747475,287.91919191919203 697.9393939393939,287.91919191919203 688.4040404040404,287.91919191919203 678.8686868686868,287.91919191919203 669.3333333333333,287.91919191919203 659.7979797979798,287.91919191919203 650.2626262626262,287.91919191919203 640.7272727272727,287.91919191919203 631.1919191919192,287.91919191919203 621.6565656565656,287.91919191919203 612.1212121212121,287.91919191919203 602.5858585858585,287.91919191919203 593.0505050505051,287.91919191919203 583.5151515151515,287.91919191919203 573.9797979797979,287.91919191919203 564.4444444444445,287.91919191919203 554.9090909090909,287.91919191919203 545.3737373737374,287.91919191919203 535.8383838383838,287.91919191919203 526.3030303030303,287.91919191919203 516.7676767676768,287.91919191919203 507.2323232323232,287.91919191919203 497.69696969696975,287.91919191919203 488.16161616161617,287.91919191919203 478.62626262626264,287.91919191919203 469.09090909090907,287.91919191919203 459.55555555555554,287.91919191919203 450.0202020202021,287.91919191919203 440.4848484848485,287.91919191919203 430.949494949495,287.91919191919203 421.4141414141414,287.91919191919203 411.8787878787879,287.91919191919203 402.34343434343435,287.91919191919203 392.80808080808083,287.91919191919203 383.2727272727273,287.91919191919203 373.7373737373738,287.91919191919203 364.2020202020202,287.91919191919203 354.6666666666667,287.91919191919203 345.13131313131316,287.91919191919203 335.59595959595964,287.91919191919203 326.0606060606061,287.91919191919203 316.5252525252526,287.91919191919203 306.9898989898991,287.91919191919203 297.4545454545455,287.91919191919203 287.91919191919203,287.91919191919203 278.38383838383845,287.91919191919203 268.84848484848493,287.91919191919203 259.3131313131314,287.91919191919203 249.77777777777783,287.91919191919203 240.2424242424243,287.91919191919203 230.70707070707084,287.91919191919203 221.17171717171726,287.91919191919203 211.63636363636374,287.91919191919203 202.10101010101022,287.91919191919203 192.5656565656567,287.91919191919203 183.03030303030312,287.91919191919203 173.4949494949496,287.91919191919203 163.95959595959607,287.91919191919203 154.42424242424255,287.91919191919203 144.88888888888903,287.91919191919203 135.35353535353545,287.91919191919203" fill="none" stroke="rgba(0,0,255,0.75)" stroke-width="14.159999999999995"/></g><g><polyline data-points="-3.98989898989899,2.373737373737375 -4.090909090909091,2.373737373737375 -4.191919191919193,2.373737373737375 -4.292929292929293,2.373737373737375 -4.393939393939394,2.373737373737375 -4.494949494949496,2.373737373737375 -4.595959595959596,2.373737373737375 -4.696969696969697,2.373737373737375 -4.7979797979797985,2.373737373737375 -4.898989898989899,2.373737373737375 -5.000000000000001,2.373737373737375" data-type="line" data-label="" points="135.35353535353545,287.91919191919203 125.81818181818193,287.91919191919203 116.28282828282829,287.91919191919203 106.74747474747483,287.91919191919203 97.21212121212136,287.91919191919203 87.67676767676772,287.91919191919203 78.14141414141426,287.91919191919203 68.60606060606068,287.91919191919203 59.07070707070716,287.91919191919203 49.53535353535369,287.91919191919203 40.00000000000006,287.91919191919203" fill="none" stroke="rgba(255,0,0,0.75)" stroke-width="14.159999999999995"/></g><g><polyline data-points="2.7777777777777786,5.000000000000002 2.87878787878788,4.898989898989901 2.9797979797979806,4.7979797979797985 3.080808080808082,4.696969696969697 3.181818181818183,4.595959595959597 3.2828282828282833,4.494949494949497 3.383838383838384,4.393939393939394 3.4848484848484866,4.292929292929293 3.5858585858585874,4.191919191919193 3.6868686868686877,4.090909090909092 3.7878787878787885,3.989898989898992 3.8888888888888893,3.8888888888888893 3.989898989898992,3.7878787878787885 3.989898989898992,3.6868686868686877 3.989898989898992,3.5858585858585874 3.989898989898992,3.4848484848484866 3.989898989898992,3.383838383838384 3.989898989898992,3.2828282828282833 3.989898989898992,3.181818181818183 3.989898989898992,3.080808080808082 3.989898989898992,2.9797979797979806 3.989898989898992,2.87878787878788 3.989898989898992,2.7777777777777786 3.989898989898992,2.676767676767678 3.989898989898992,2.575757575757577 3.989898989898992,2.4747474747474754 3.989898989898992,2.373737373737375 3.989898989898992,2.2727272727272734 3.989898989898992,2.1717171717171726 3.989898989898992,2.070707070707072 3.989898989898992,1.9696969696969702 3.989898989898992,1.8686868686868696 3.989898989898992,1.767676767676768 3.989898989898992,1.6666666666666674 3.989898989898992,1.5656565656565666 3.989898989898992,1.4646464646464652 3.989898989898992,1.3636363636363644 3.989898989898992,1.262626262626263 3.989898989898992,1.1616161616161622 3.989898989898992,1.0606060606060617 3.989898989898992,0.9595959595959602 3.989898989898992,0.8585858585858596 3.989898989898992,0.7575757575757579 3.989898989898992,0.6565656565656574 3.989898989898992,0.5555555555555567 3.989898989898992,0.4545454545454551 3.989898989898992,0.3535353535353544 3.989898989898992,0.2525252525252529 3.989898989898992,0.1515151515151522 3.989898989898992,0.050505050505051545 3.989898989898992,-0.05050505050505001 3.989898989898992,-0.15151515151515066 3.989898989898992,-0.2525252525252522 3.989898989898992,-0.35353535353535287 3.989898989898992,-0.4545454545454544 3.989898989898992,-0.555555555555555 3.989898989898992,-0.6565656565656557 3.989898989898992,-0.7575757575757572 3.989898989898992,-0.8585858585858579 3.989898989898992,-0.9595959595959596 3.989898989898992,-1.0606060606060603 3.989898989898992,-1.1616161616161613 3.989898989898992,-1.2626262626262625 3.989898989898992,-1.363636363636363 3.989898989898992,-1.4646464646464643 3.989898989898992,-1.5656565656565653 3.989898989898992,-1.6666666666666665 3.989898989898992,-1.7676767676767675 3.989898989898992,-1.8686868686868683 3.989898989898992,-1.9696969696969693 3.989898989898992,-2.07070707070707 3.989898989898992,-2.1717171717171713 3.989898989898992,-2.2727272727272725 3.989898989898992,-2.3737373737373733 3.989898989898992,-2.474747474747474 3.989898989898992,-2.5757575757575752 3.989898989898992,-2.6767676767676765 3.989898989898992,-2.7777777777777777 3.989898989898992,-2.8787878787878785 3.989898989898992,-2.9797979797979792 3.989898989898992,-3.0808080808080804 3.989898989898992,-3.1818181818181817 3.989898989898992,-3.2828282828282824 3.989898989898992,-3.383838383838383 3.989898989898992,-3.484848484848485 3.989898989898992,-3.5858585858585856 3.989898989898992,-3.6868686868686864 3.989898989898992,-3.7878787878787876 3.989898989898992,-3.8888888888888884 3.989898989898992,-3.98989898989899" data-type="line" data-label="" points="774.2222222222222,40.000000000000114 783.7575757575758,49.53535353535369 793.2929292929292,59.07070707070733 802.8282828282828,68.60606060606085 812.3636363636363,78.14141414141432 821.8989898989898,87.67676767676778 831.4343434343433,97.21212121212153 840.969696969697,106.747474747475 850.5050505050505,116.28282828282846 860.0404040404039,125.81818181818198 869.5757575757575,135.35353535353545 879.111111111111,144.88888888888908 888.6464646464647,154.4242424242426 888.6464646464647,163.95959595959613 888.6464646464647,173.4949494949496 888.6464646464647,183.03030303030312 888.6464646464647,192.56565656565675 888.6464646464647,202.10101010101027 888.6464646464647,211.63636363636374 888.6464646464647,221.17171717171726 888.6464646464647,230.70707070707084 888.6464646464647,240.24242424242436 888.6464646464647,249.77777777777794 888.6464646464647,259.3131313131314 888.6464646464647,268.84848484848493 888.6464646464647,278.38383838383857 888.6464646464647,287.91919191919203 888.6464646464647,297.4545454545456 888.6464646464647,306.9898989898991 888.6464646464647,316.5252525252526 888.6464646464647,326.06060606060623 888.6464646464647,335.5959595959597 888.6464646464647,345.1313131313133 888.6464646464647,354.66666666666674 888.6464646464647,364.2020202020203 888.6464646464647,373.73737373737384 888.6464646464647,383.27272727272737 888.6464646464647,392.80808080808094 888.6464646464647,402.3434343434344 888.6464646464647,411.87878787878793 888.6464646464647,421.4141414141415 888.6464646464647,430.94949494949503 888.6464646464647,440.4848484848486 888.6464646464647,450.0202020202021 888.6464646464647,459.5555555555556 888.6464646464647,469.0909090909092 888.6464646464647,478.6262626262627 888.6464646464647,488.1616161616163 888.6464646464647,497.69696969696975 888.6464646464647,507.23232323232327 888.6464646464647,516.7676767676768 888.6464646464647,526.3030303030304 888.6464646464647,535.838383838384 888.6464646464647,545.3737373737374 888.6464646464647,554.909090909091 888.6464646464647,564.4444444444445 888.6464646464647,573.979797979798 888.6464646464647,583.5151515151516 888.6464646464647,593.0505050505051 888.6464646464647,602.5858585858587 888.6464646464647,612.1212121212121 888.6464646464647,621.6565656565657 888.6464646464647,631.1919191919193 888.6464646464647,640.7272727272727 888.6464646464647,650.2626262626263 888.6464646464647,659.7979797979798 888.6464646464647,669.3333333333334 888.6464646464647,678.8686868686868 888.6464646464647,688.4040404040404 888.6464646464647,697.939393939394 888.6464646464647,707.4747474747475 888.6464646464647,717.010101010101 888.6464646464647,726.5454545454545 888.6464646464647,736.0808080808081 888.6464646464647,745.6161616161615 888.6464646464647,755.1515151515151 888.6464646464647,764.6868686868687 888.6464646464647,774.2222222222222 888.6464646464647,783.7575757575758 888.6464646464647,793.2929292929292 888.6464646464647,802.8282828282828 888.6464646464647,812.3636363636363 888.6464646464647,821.8989898989898 888.6464646464647,831.4343434343434 888.6464646464647,840.969696969697 888.6464646464647,850.5050505050505 888.6464646464647,860.0404040404039 888.6464646464647,869.5757575757575 888.6464646464647,879.1111111111111 888.6464646464647,888.6464646464647" fill="none" stroke="rgba(255,0,0,0.75)" stroke-width="14.159999999999995"/></g><g><polyline data-points="3.989898989898992,-3.98989898989899 4.090909090909092,-4.090909090909091 4.090909090909092,-4.191919191919193 4.090909090909092,-4.292929292929293 4.090909090909092,-4.393939393939394 4.090909090909092,-4.494949494949496 4.090909090909092,-4.595959595959596 4.090909090909092,-4.696969696969697 4.090909090909092,-4.7979797979797985 4.090909090909092,-4.898989898989899 4.090909090909092,-5.000000000000001" data-type="line" data-label="" points="888.6464646464647,888.6464646464647 898.181818181818,898.1818181818181 898.181818181818,907.7171717171718 898.181818181818,917.2525252525252 898.181818181818,926.7878787878788 898.181818181818,936.3232323232323 898.181818181818,945.8585858585858 898.181818181818,955.3939393939394 898.181818181818,964.9292929292928 898.181818181818,974.4646464646464 898.181818181818,984" fill="none" stroke="rgba(0,0,255,0.75)" stroke-width="14.159999999999995"/></g><g><polyline data-points="5.000000000000002,0.3535353535353544 4.898989898989901,0.2525252525252529 4.7979797979797985,0.1515151515151522 4.696969696969697,0.050505050505051545 4.595959595959597,-0.05050505050505001 4.494949494949497,-0.15151515151515066 4.494949494949497,-0.2525252525252522 4.494949494949497,-0.35353535353535287 4.494949494949497,-0.4545454545454544 4.494949494949497,-0.555555555555555 4.494949494949497,-0.6565656565656557 4.494949494949497,-0.7575757575757572 4.494949494949497,-0.8585858585858579 4.494949494949497,-0.9595959595959596 4.494949494949497,-1.0606060606060603 4.494949494949497,-1.1616161616161613 4.494949494949497,-1.2626262626262625 4.494949494949497,-1.363636363636363 4.494949494949497,-1.4646464646464643 4.494949494949497,-1.5656565656565653 4.494949494949497,-1.6666666666666665 4.494949494949497,-1.7676767676767675 4.494949494949497,-1.8686868686868683 4.494949494949497,-1.9696969696969693 4.494949494949497,-2.07070707070707 4.494949494949497,-2.1717171717171713 4.494949494949497,-2.2727272727272725 4.494949494949497,-2.3737373737373733 4.494949494949497,-2.474747474747474 4.494949494949497,-2.5757575757575752 4.494949494949497,-2.6767676767676765 4.494949494949497,-2.7777777777777777 4.494949494949497,-2.8787878787878785 4.494949494949497,-2.9797979797979792 4.494949494949497,-3.0808080808080804 4.494949494949497,-3.1818181818181817 4.494949494949497,-3.2828282828282824 4.494949494949497,-3.383838383838383 4.494949494949497,-3.484848484848485 4.494949494949497,-3.5858585858585856 4.494949494949497,-3.6868686868686864 4.494949494949497,-3.7878787878787876 4.494949494949497,-3.8888888888888884 4.494949494949497,-3.98989898989899 4.393939393939394,-4.090909090909091 4.393939393939394,-4.191919191919193 4.292929292929293,-4.292929292929293 4.191919191919193,-4.393939393939394 4.090909090909092,-4.494949494949496 3.989898989898992,-4.494949494949496 3.8888888888888893,-4.494949494949496 3.7878787878787885,-4.494949494949496 3.6868686868686877,-4.393939393939394 3.5858585858585874,-4.292929292929293 3.4848484848484866,-4.191919191919193 3.383838383838384,-4.090909090909091 3.2828282828282833,-3.98989898989899 3.181818181818183,-3.8888888888888884" data-type="line" data-label="" points="984,478.6262626262627 974.4646464646464,488.1616161616163 964.9292929292927,497.69696969696975 955.3939393939393,507.23232323232327 945.8585858585857,516.7676767676768 936.3232323232323,526.3030303030304 936.3232323232323,535.838383838384 936.3232323232323,545.3737373737374 936.3232323232323,554.909090909091 936.3232323232323,564.4444444444445 936.3232323232323,573.979797979798 936.3232323232323,583.5151515151516 936.3232323232323,593.0505050505051 936.3232323232323,602.5858585858587 936.3232323232323,612.1212121212121 936.3232323232323,621.6565656565657 936.3232323232323,631.1919191919193 936.3232323232323,640.7272727272727 936.3232323232323,650.2626262626263 936.3232323232323,659.7979797979798 936.3232323232323,669.3333333333334 936.3232323232323,678.8686868686868 936.3232323232323,688.4040404040404 936.3232323232323,697.939393939394 936.3232323232323,707.4747474747475 936.3232323232323,717.010101010101 936.3232323232323,726.5454545454545 936.3232323232323,736.0808080808081 936.3232323232323,745.6161616161615 936.3232323232323,755.1515151515151 936.3232323232323,764.6868686868687 936.3232323232323,774.2222222222222 936.3232323232323,783.7575757575758 936.3232323232323,793.2929292929292 936.3232323232323,802.8282828282828 936.3232323232323,812.3636363636363 936.3232323232323,821.8989898989898 936.3232323232323,831.4343434343434 936.3232323232323,840.969696969697 936.3232323232323,850.5050505050505 936.3232323232323,860.0404040404039 936.3232323232323,869.5757575757575 936.3232323232323,879.1111111111111 936.3232323232323,888.6464646464647 926.7878787878785,898.1818181818181 926.7878787878785,907.7171717171718 917.2525252525251,917.2525252525252 907.7171717171716,926.7878787878788 898.181818181818,936.3232323232323 888.6464646464647,936.3232323232323 879.111111111111,936.3232323232323 869.5757575757575,936.3232323232323 860.0404040404039,926.7878787878788 850.5050505050505,917.2525252525252 840.969696969697,907.7171717171718 831.4343434343433,898.1818181818181 821.8989898989898,888.6464646464647 812.3636363636363,879.1111111111111" fill="none" stroke="rgba(255,0,0,0.75)" stroke-width="14.159999999999995"/></g><g><polyline data-points="3.181818181818183,-3.8888888888888884 3.2828282828282833,-3.98989898989899 3.2828282828282833,-4.090909090909091 3.2828282828282833,-4.191919191919193 3.2828282828282833,-4.292929292929293 3.2828282828282833,-4.393939393939394 3.2828282828282833,-4.494949494949496 3.2828282828282833,-4.595959595959596 3.2828282828282833,-4.696969696969697 3.2828282828282833,-4.7979797979797985 3.2828282828282833,-4.898989898989899 3.2828282828282833,-5.000000000000001" data-type="line" data-label="" points="812.3636363636363,879.1111111111111 821.8989898989898,888.6464646464647 821.8989898989898,898.1818181818181 821.8989898989898,907.7171717171718 821.8989898989898,917.2525252525252 821.8989898989898,926.7878787878788 821.8989898989898,936.3232323232323 821.8989898989898,945.8585858585858 821.8989898989898,955.3939393939394 821.8989898989898,964.9292929292928 821.8989898989898,974.4646464646464 821.8989898989898,984" fill="none" stroke="rgba(0,0,255,0.75)" stroke-width="14.159999999999995"/></g><g><polyline data-points="-0.7575757575757572,-5.000000000000001 -0.6565656565656557,-4.898989898989899 -0.555555555555555,-4.7979797979797985 -0.4545454545454544,-4.696969696969697 -0.35353535353535287,-4.595959595959596 -0.2525252525252522,-4.494949494949496 -0.15151515151515066,-4.393939393939394 -0.05050505050505001,-4.292929292929293 -0.05050505050505001,-4.191919191919193 -0.05050505050505001,-4.090909090909091 -0.05050505050505001,-3.98989898989899 -0.05050505050505001,-3.8888888888888884 -0.05050505050505001,-3.7878787878787876 -0.05050505050505001,-3.6868686868686864 -0.05050505050505001,-3.5858585858585856 -0.05050505050505001,-3.484848484848485 -0.05050505050505001,-3.383838383838383 -0.05050505050505001,-3.2828282828282824 -0.05050505050505001,-3.1818181818181817 -0.05050505050505001,-3.0808080808080804 -0.05050505050505001,-2.9797979797979792 -0.05050505050505001,-2.8787878787878785 -0.05050505050505001,-2.7777777777777777 -0.05050505050505001,-2.6767676767676765 -0.05050505050505001,-2.5757575757575752 -0.05050505050505001,-2.474747474747474 -0.05050505050505001,-2.3737373737373733 -0.05050505050505001,-2.2727272727272725 -0.05050505050505001,-2.1717171717171713 -0.05050505050505001,-2.07070707070707 -0.05050505050505001,-1.9696969696969693 -0.05050505050505001,-1.8686868686868683 -0.05050505050505001,-1.7676767676767675 -0.05050505050505001,-1.6666666666666665 -0.05050505050505001,-1.5656565656565653 -0.05050505050505001,-1.4646464646464643 -0.05050505050505001,-1.363636363636363 -0.05050505050505001,-1.2626262626262625 -0.05050505050505001,-1.1616161616161613 -0.05050505050505001,-1.0606060606060603 -0.05050505050505001,-0.9595959595959596 -0.05050505050505001,-0.8585858585858579 -0.05050505050505001,-0.7575757575757572 -0.05050505050505001,-0.6565656565656557 -0.05050505050505001,-0.555555555555555 -0.05050505050505001,-0.4545454545454544 -0.05050505050505001,-0.35353535353535287 -0.05050505050505001,-0.2525252525252522 -0.05050505050505001,-0.15151515151515066 -0.05050505050505001,-0.05050505050505001 -0.05050505050505001,0.050505050505051545 -0.05050505050505001,0.1515151515151522 -0.05050505050505001,0.2525252525252529 -0.05050505050505001,0.3535353535353544 -0.05050505050505001,0.4545454545454551 -0.05050505050505001,0.5555555555555567 -0.05050505050505001,0.6565656565656574 -0.05050505050505001,0.7575757575757579 -0.05050505050505001,0.8585858585858596 -0.05050505050505001,0.9595959595959602 -0.05050505050505001,1.0606060606060617 -0.05050505050505001,1.1616161616161622 -0.05050505050505001,1.262626262626263 -0.05050505050505001,1.3636363636363644 -0.05050505050505001,1.4646464646464652 -0.05050505050505001,1.5656565656565666 -0.05050505050505001,1.6666666666666674 -0.05050505050505001,1.767676767676768 -0.05050505050505001,1.8686868686868696 -0.05050505050505001,1.9696969696969702 -0.05050505050505001,2.070707070707072 -0.05050505050505001,2.1717171717171726 -0.05050505050505001,2.2727272727272734 -0.05050505050505001,2.373737373737375 -0.05050505050505001,2.4747474747474754 -0.05050505050505001,2.575757575757577 -0.05050505050505001,2.676767676767678 -0.05050505050505001,2.7777777777777786 -0.05050505050505001,2.87878787878788 -0.05050505050505001,2.9797979797979806 -0.05050505050505001,3.080808080808082 -0.05050505050505001,3.181818181818183 -0.05050505050505001,3.2828282828282833 -0.05050505050505001,3.383838383838384 -0.05050505050505001,3.4848484848484866 -0.05050505050505001,3.5858585858585874 -0.05050505050505001,3.6868686868686877 -0.05050505050505001,3.7878787878787885 -0.05050505050505001,3.8888888888888893 -0.05050505050505001,3.989898989898992 -0.05050505050505001,4.090909090909092 -0.05050505050505001,4.191919191919193 -0.05050505050505001,4.292929292929293 -0.05050505050505001,4.393939393939394 -0.05050505050505001,4.494949494949497 -0.05050505050505001,4.595959595959597 -0.05050505050505001,4.696969696969697 -0.05050505050505001,4.7979797979797985 -0.05050505050505001,4.898989898989901 -0.05050505050505001,5.000000000000002" data-type="line" data-label="" points="440.4848484848485,984 450.0202020202021,974.4646464646464 459.55555555555554,964.9292929292928 469.09090909090907,955.3939393939394 478.62626262626264,945.8585858585858 488.16161616161617,936.3232323232323 497.69696969696975,926.7878787878788 507.2323232323232,917.2525252525252 507.2323232323232,907.7171717171718 507.2323232323232,898.1818181818181 507.2323232323232,888.6464646464647 507.2323232323232,879.1111111111111 507.2323232323232,869.5757575757575 507.2323232323232,860.0404040404039 507.2323232323232,850.5050505050505 507.2323232323232,840.969696969697 507.2323232323232,831.4343434343434 507.2323232323232,821.8989898989898 507.2323232323232,812.3636363636363 507.2323232323232,802.8282828282828 507.2323232323232,793.2929292929292 507.2323232323232,783.7575757575758 507.2323232323232,774.2222222222222 507.2323232323232,764.6868686868687 507.2323232323232,755.1515151515151 507.2323232323232,745.6161616161615 507.2323232323232,736.0808080808081 507.2323232323232,726.5454545454545 507.2323232323232,717.010101010101 507.2323232323232,707.4747474747475 507.2323232323232,697.939393939394 507.2323232323232,688.4040404040404 507.2323232323232,678.8686868686868 507.2323232323232,669.3333333333334 507.2323232323232,659.7979797979798 507.2323232323232,650.2626262626263 507.2323232323232,640.7272727272727 507.2323232323232,631.1919191919193 507.2323232323232,621.6565656565657 507.2323232323232,612.1212121212121 507.2323232323232,602.5858585858587 507.2323232323232,593.0505050505051 507.2323232323232,583.5151515151516 507.2323232323232,573.979797979798 507.2323232323232,564.4444444444445 507.2323232323232,554.909090909091 507.2323232323232,545.3737373737374 507.2323232323232,535.838383838384 507.2323232323232,526.3030303030304 507.2323232323232,516.7676767676768 507.2323232323232,507.23232323232327 507.2323232323232,497.69696969696975 507.2323232323232,488.1616161616163 507.2323232323232,478.6262626262627 507.2323232323232,469.0909090909092 507.2323232323232,459.5555555555556 507.2323232323232,450.0202020202021 507.2323232323232,440.4848484848486 507.2323232323232,430.94949494949503 507.2323232323232,421.4141414141415 507.2323232323232,411.87878787878793 507.2323232323232,402.3434343434344 507.2323232323232,392.80808080808094 507.2323232323232,383.27272727272737 507.2323232323232,373.73737373737384 507.2323232323232,364.2020202020203 507.2323232323232,354.66666666666674 507.2323232323232,345.1313131313133 507.2323232323232,335.5959595959597 507.2323232323232,326.06060606060623 507.2323232323232,316.5252525252526 507.2323232323232,306.9898989898991 507.2323232323232,297.4545454545456 507.2323232323232,287.91919191919203 507.2323232323232,278.38383838383857 507.2323232323232,268.84848484848493 507.2323232323232,259.3131313131314 507.2323232323232,249.77777777777794 507.2323232323232,240.24242424242436 507.2323232323232,230.70707070707084 507.2323232323232,221.17171717171726 507.2323232323232,211.63636363636374 507.2323232323232,202.10101010101027 507.2323232323232,192.56565656565675 507.2323232323232,183.03030303030312 507.2323232323232,173.4949494949496 507.2323232323232,163.95959595959613 507.2323232323232,154.4242424242426 507.2323232323232,144.88888888888908 507.2323232323232,135.35353535353545 507.2323232323232,125.81818181818198 507.2323232323232,116.28282828282846 507.2323232323232,106.747474747475 507.2323232323232,97.21212121212153 507.2323232323232,87.67676767676778 507.2323232323232,78.14141414141432 507.2323232323232,68.60606060606085 507.2323232323232,59.07070707070733 507.2323232323232,49.53535353535369 507.2323232323232,40.000000000000114" fill="none" stroke="rgba(255,0,0,0.75)" stroke-width="14.159999999999995"/></g><g><polyline data-points="-2.1717171717171713,-5.000000000000001 -2.2727272727272725,-4.898989898989899 -2.3737373737373733,-4.7979797979797985 -2.474747474747474,-4.696969696969697 -2.5757575757575752,-4.595959595959596 -2.6767676767676765,-4.494949494949496 -2.7777777777777777,-4.393939393939394 -2.7777777777777777,-4.292929292929293 -2.7777777777777777,-4.191919191919193 -2.7777777777777777,-4.090909090909091 -2.7777777777777777,-3.98989898989899 -2.7777777777777777,-3.8888888888888884 -2.7777777777777777,-3.7878787878787876 -2.7777777777777777,-3.6868686868686864 -2.7777777777777777,-3.5858585858585856 -2.7777777777777777,-3.484848484848485 -2.7777777777777777,-3.383838383838383 -2.7777777777777777,-3.2828282828282824 -2.7777777777777777,-3.1818181818181817 -2.7777777777777777,-3.0808080808080804 -2.7777777777777777,-2.9797979797979792 -2.7777777777777777,-2.8787878787878785 -2.7777777777777777,-2.7777777777777777 -2.7777777777777777,-2.6767676767676765 -2.7777777777777777,-2.5757575757575752 -2.7777777777777777,-2.474747474747474 -2.7777777777777777,-2.3737373737373733 -2.7777777777777777,-2.2727272727272725 -2.7777777777777777,-2.1717171717171713 -2.7777777777777777,-2.07070707070707 -2.7777777777777777,-1.9696969696969693 -2.7777777777777777,-1.8686868686868683 -2.7777777777777777,-1.7676767676767675 -2.7777777777777777,-1.6666666666666665 -2.7777777777777777,-1.5656565656565653 -2.7777777777777777,-1.4646464646464643 -2.7777777777777777,-1.363636363636363 -2.7777777777777777,-1.2626262626262625 -2.7777777777777777,-1.1616161616161613 -2.7777777777777777,-1.0606060606060603 -2.7777777777777777,-0.9595959595959596 -2.7777777777777777,-0.8585858585858579 -2.7777777777777777,-0.7575757575757572 -2.7777777777777777,-0.6565656565656557 -2.7777777777777777,-0.555555555555555 -2.7777777777777777,-0.4545454545454544 -2.7777777777777777,-0.35353535353535287 -2.7777777777777777,-0.2525252525252522 -2.7777777777777777,-0.15151515151515066 -2.7777777777777777,-0.05050505050505001 -2.7777777777777777,0.050505050505051545 -2.7777777777777777,0.1515151515151522 -2.7777777777777777,0.2525252525252529 -2.7777777777777777,0.3535353535353544 -2.7777777777777777,0.4545454545454551 -2.7777777777777777,0.5555555555555567 -2.7777777777777777,0.6565656565656574 -2.7777777777777777,0.7575757575757579 -2.7777777777777777,0.8585858585858596 -2.7777777777777777,0.9595959595959602 -2.7777777777777777,1.0606060606060617 -2.7777777777777777,1.1616161616161622 -2.7777777777777777,1.262626262626263 -2.7777777777777777,1.3636363636363644 -2.7777777777777777,1.4646464646464652 -2.7777777777777777,1.5656565656565666 -2.7777777777777777,1.6666666666666674 -2.7777777777777777,1.767676767676768" data-type="line" data-label="" points="306.9898989898991,984 297.4545454545455,974.4646464646464 287.91919191919203,964.9292929292928 278.38383838383845,955.3939393939394 268.84848484848493,945.8585858585858 259.3131313131314,936.3232323232323 249.77777777777783,926.7878787878788 249.77777777777783,917.2525252525252 249.77777777777783,907.7171717171718 249.77777777777783,898.1818181818181 249.77777777777783,888.6464646464647 249.77777777777783,879.1111111111111 249.77777777777783,869.5757575757575 249.77777777777783,860.0404040404039 249.77777777777783,850.5050505050505 249.77777777777783,840.969696969697 249.77777777777783,831.4343434343434 249.77777777777783,821.8989898989898 249.77777777777783,812.3636363636363 249.77777777777783,802.8282828282828 249.77777777777783,793.2929292929292 249.77777777777783,783.7575757575758 249.77777777777783,774.2222222222222 249.77777777777783,764.6868686868687 249.77777777777783,755.1515151515151 249.77777777777783,745.6161616161615 249.77777777777783,736.0808080808081 249.77777777777783,726.5454545454545 249.77777777777783,717.010101010101 249.77777777777783,707.4747474747475 249.77777777777783,697.939393939394 249.77777777777783,688.4040404040404 249.77777777777783,678.8686868686868 249.77777777777783,669.3333333333334 249.77777777777783,659.7979797979798 249.77777777777783,650.2626262626263 249.77777777777783,640.7272727272727 249.77777777777783,631.1919191919193 249.77777777777783,621.6565656565657 249.77777777777783,612.1212121212121 249.77777777777783,602.5858585858587 249.77777777777783,593.0505050505051 249.77777777777783,583.5151515151516 249.77777777777783,573.979797979798 249.77777777777783,564.4444444444445 249.77777777777783,554.909090909091 249.77777777777783,545.3737373737374 249.77777777777783,535.838383838384 249.77777777777783,526.3030303030304 249.77777777777783,516.7676767676768 249.77777777777783,507.23232323232327 249.77777777777783,497.69696969696975 249.77777777777783,488.1616161616163 249.77777777777783,478.6262626262627 249.77777777777783,469.0909090909092 249.77777777777783,459.5555555555556 249.77777777777783,450.0202020202021 249.77777777777783,440.4848484848486 249.77777777777783,430.94949494949503 249.77777777777783,421.4141414141415 249.77777777777783,411.87878787878793 249.77777777777783,402.3434343434344 249.77777777777783,392.80808080808094 249.77777777777783,383.27272727272737 249.77777777777783,373.73737373737384 249.77777777777783,364.2020202020203 249.77777777777783,354.66666666666674 249.77777777777783,345.1313131313133" fill="none" stroke="rgba(0,0,255,0.75)" stroke-width="14.159999999999995"/></g><g><polyline data-points="-2.7777777777777777,1.767676767676768 -2.7777777777777777,1.8686868686868696 -2.7777777777777777,1.9696969696969702 -2.7777777777777777,2.070707070707072 -2.7777777777777777,2.1717171717171726 -2.7777777777777777,2.2727272727272734 -2.7777777777777777,2.373737373737375 -2.7777777777777777,2.4747474747474754 -2.7777777777777777,2.575757575757577 -2.7777777777777777,2.676767676767678 -2.7777777777777777,2.7777777777777786 -2.7777777777777777,2.87878787878788 -2.7777777777777777,2.9797979797979806 -2.7777777777777777,3.080808080808082 -2.7777777777777777,3.181818181818183 -2.7777777777777777,3.2828282828282833 -2.7777777777777777,3.383838383838384 -2.7777777777777777,3.4848484848484866 -2.7777777777777777,3.5858585858585874 -2.7777777777777777,3.6868686868686877 -2.7777777777777777,3.7878787878787885 -2.7777777777777777,3.8888888888888893 -2.7777777777777777,3.989898989898992" data-type="line" data-label="" points="249.77777777777783,345.1313131313133 249.77777777777783,335.5959595959597 249.77777777777783,326.06060606060623 249.77777777777783,316.5252525252526 249.77777777777783,306.9898989898991 249.77777777777783,297.4545454545456 249.77777777777783,287.91919191919203 249.77777777777783,278.38383838383857 249.77777777777783,268.84848484848493 249.77777777777783,259.3131313131314 249.77777777777783,249.77777777777794 249.77777777777783,240.24242424242436 249.77777777777783,230.70707070707084 249.77777777777783,221.17171717171726 249.77777777777783,211.63636363636374 249.77777777777783,202.10101010101027 249.77777777777783,192.56565656565675 249.77777777777783,183.03030303030312 249.77777777777783,173.4949494949496 249.77777777777783,163.95959595959613 249.77777777777783,154.4242424242426 249.77777777777783,144.88888888888908 249.77777777777783,135.35353535353545" fill="none" stroke="rgba(255,0,0,0.75)" stroke-width="14.159999999999995"/></g><g><polyline data-points="-2.7777777777777777,3.989898989898992 -2.7777777777777777,4.090909090909092 -2.7777777777777777,4.191919191919193 -2.7777777777777777,4.292929292929293 -2.7777777777777777,4.393939393939394 -2.7777777777777777,4.494949494949497 -2.7777777777777777,4.595959595959597 -2.7777777777777777,4.696969696969697 -2.7777777777777777,4.7979797979797985 -2.7777777777777777,4.898989898989901 -2.7777777777777777,5.000000000000002" data-type="line" data-label="" points="249.77777777777783,135.35353535353545 249.77777777777783,125.81818181818198 249.77777777777783,116.28282828282846 249.77777777777783,106.747474747475 249.77777777777783,97.21212121212153 249.77777777777783,87.67676767676778 249.77777777777783,78.14141414141432 249.77777777777783,68.60606060606085 249.77777777777783,59.07070707070733 249.77777777777783,49.53535353535369 249.77777777777783,40.000000000000114" fill="none" stroke="rgba(0,0,255,0.75)" stroke-width="14.159999999999995"/></g><g><polyline data-points="4.595959595959597,5.000000000000002 4.494949494949497,4.898989898989901 4.393939393939394,4.7979797979797985 4.292929292929293,4.696969696969697 4.191919191919193,4.595959595959597 4.090909090909092,4.494949494949497 3.989898989898992,4.393939393939394 3.8888888888888893,4.292929292929293 3.7878787878787885,4.191919191919193 3.6868686868686877,4.090909090909092 3.5858585858585874,3.989898989898992 3.4848484848484866,3.8888888888888893 3.383838383838384,3.7878787878787885 3.2828282828282833,3.6868686868686877 3.181818181818183,3.5858585858585874 3.080808080808082,3.4848484848484866 2.9797979797979806,3.383838383838384 2.87878787878788,3.2828282828282833 2.7777777777777786,3.181818181818183 2.676767676767678,3.080808080808082 2.575757575757577,2.9797979797979806 2.4747474747474754,2.9797979797979806 2.373737373737375,2.9797979797979806 2.2727272727272734,2.9797979797979806 2.1717171717171726,2.9797979797979806 2.070707070707072,2.9797979797979806 1.9696969696969702,2.9797979797979806 1.8686868686868696,2.9797979797979806 1.767676767676768,2.9797979797979806 1.6666666666666674,2.9797979797979806 1.5656565656565666,2.9797979797979806 1.4646464646464652,2.9797979797979806 1.3636363636363644,2.9797979797979806 1.262626262626263,2.9797979797979806 1.1616161616161622,2.9797979797979806" data-type="line" data-label="" points="945.8585858585857,40.000000000000114 936.3232323232323,49.53535353535369 926.7878787878785,59.07070707070733 917.2525252525251,68.60606060606085 907.7171717171716,78.14141414141432 898.181818181818,87.67676767676778 888.6464646464647,97.21212121212153 879.111111111111,106.747474747475 869.5757575757575,116.28282828282846 860.0404040404039,125.81818181818198 850.5050505050505,135.35353535353545 840.969696969697,144.88888888888908 831.4343434343433,154.4242424242426 821.8989898989898,163.95959595959613 812.3636363636363,173.4949494949496 802.8282828282828,183.03030303030312 793.2929292929292,192.56565656565675 783.7575757575758,202.10101010101027 774.2222222222222,211.63636363636374 764.6868686868686,221.17171717171726 755.1515151515151,230.70707070707084 745.6161616161615,230.70707070707084 736.0808080808081,230.70707070707084 726.5454545454545,230.70707070707084 717.0101010101009,230.70707070707084 707.4747474747475,230.70707070707084 697.9393939393939,230.70707070707084 688.4040404040404,230.70707070707084 678.8686868686868,230.70707070707084 669.3333333333333,230.70707070707084 659.7979797979798,230.70707070707084 650.2626262626262,230.70707070707084 640.7272727272727,230.70707070707084 631.1919191919192,230.70707070707084 621.6565656565656,230.70707070707084" fill="none" stroke="rgba(0,0,255,0.75)" stroke-width="14.159999999999995"/></g><g><polyline data-points="1.1616161616161622,2.9797979797979806 1.0606060606060617,2.87878787878788 0.9595959595959602,2.7777777777777786 0.8585858585858596,2.676767676767678 0.7575757575757579,2.575757575757577 0.6565656565656574,2.4747474747474754 0.5555555555555567,2.373737373737375 0.5555555555555567,2.2727272727272734 0.5555555555555567,2.1717171717171726 0.5555555555555567,2.070707070707072 0.5555555555555567,1.9696969696969702 0.5555555555555567,1.8686868686868696 0.5555555555555567,1.767676767676768 0.5555555555555567,1.6666666666666674 0.5555555555555567,1.5656565656565666 0.5555555555555567,1.4646464646464652 0.5555555555555567,1.3636363636363644 0.5555555555555567,1.262626262626263 0.5555555555555567,1.1616161616161622 0.5555555555555567,1.0606060606060617 0.5555555555555567,0.9595959595959602 0.5555555555555567,0.8585858585858596 0.5555555555555567,0.7575757575757579 0.5555555555555567,0.6565656565656574 0.5555555555555567,0.5555555555555567 0.5555555555555567,0.4545454545454551 0.5555555555555567,0.3535353535353544 0.5555555555555567,0.2525252525252529 0.5555555555555567,0.1515151515151522 0.5555555555555567,0.050505050505051545 0.5555555555555567,-0.05050505050505001 0.5555555555555567,-0.15151515151515066 0.5555555555555567,-0.2525252525252522 0.5555555555555567,-0.35353535353535287 0.5555555555555567,-0.4545454545454544 0.5555555555555567,-0.555555555555555 0.5555555555555567,-0.6565656565656557 0.5555555555555567,-0.7575757575757572 0.5555555555555567,-0.8585858585858579 0.5555555555555567,-0.9595959595959596 0.5555555555555567,-1.0606060606060603 0.5555555555555567,-1.1616161616161613 0.5555555555555567,-1.2626262626262625 0.5555555555555567,-1.363636363636363 0.5555555555555567,-1.4646464646464643 0.5555555555555567,-1.5656565656565653 0.5555555555555567,-1.6666666666666665 0.5555555555555567,-1.7676767676767675 0.5555555555555567,-1.8686868686868683 0.5555555555555567,-1.9696969696969693 0.5555555555555567,-2.07070707070707 0.5555555555555567,-2.1717171717171713 0.5555555555555567,-2.2727272727272725 0.5555555555555567,-2.3737373737373733 0.5555555555555567,-2.474747474747474 0.5555555555555567,-2.5757575757575752 0.5555555555555567,-2.6767676767676765 0.5555555555555567,-2.7777777777777777 0.5555555555555567,-2.8787878787878785 0.5555555555555567,-2.9797979797979792 0.5555555555555567,-3.0808080808080804 0.5555555555555567,-3.1818181818181817 0.5555555555555567,-3.2828282828282824 0.5555555555555567,-3.383838383838383 0.5555555555555567,-3.484848484848485 0.5555555555555567,-3.5858585858585856 0.5555555555555567,-3.6868686868686864 0.5555555555555567,-3.7878787878787876 0.5555555555555567,-3.8888888888888884 0.5555555555555567,-3.98989898989899" data-type="line" data-label="" points="621.6565656565656,230.70707070707084 612.1212121212121,240.24242424242436 602.5858585858585,249.77777777777794 593.0505050505051,259.3131313131314 583.5151515151515,268.84848484848493 573.9797979797979,278.38383838383857 564.4444444444445,287.91919191919203 564.4444444444445,297.4545454545456 564.4444444444445,306.9898989898991 564.4444444444445,316.5252525252526 564.4444444444445,326.06060606060623 564.4444444444445,335.5959595959597 564.4444444444445,345.1313131313133 564.4444444444445,354.66666666666674 564.4444444444445,364.2020202020203 564.4444444444445,373.73737373737384 564.4444444444445,383.27272727272737 564.4444444444445,392.80808080808094 564.4444444444445,402.3434343434344 564.4444444444445,411.87878787878793 564.4444444444445,421.4141414141415 564.4444444444445,430.94949494949503 564.4444444444445,440.4848484848486 564.4444444444445,450.0202020202021 564.4444444444445,459.5555555555556 564.4444444444445,469.0909090909092 564.4444444444445,478.6262626262627 564.4444444444445,488.1616161616163 564.4444444444445,497.69696969696975 564.4444444444445,507.23232323232327 564.4444444444445,516.7676767676768 564.4444444444445,526.3030303030304 564.4444444444445,535.838383838384 564.4444444444445,545.3737373737374 564.4444444444445,554.909090909091 564.4444444444445,564.4444444444445 564.4444444444445,573.979797979798 564.4444444444445,583.5151515151516 564.4444444444445,593.0505050505051 564.4444444444445,602.5858585858587 564.4444444444445,612.1212121212121 564.4444444444445,621.6565656565657 564.4444444444445,631.1919191919193 564.4444444444445,640.7272727272727 564.4444444444445,650.2626262626263 564.4444444444445,659.7979797979798 564.4444444444445,669.3333333333334 564.4444444444445,678.8686868686868 564.4444444444445,688.4040404040404 564.4444444444445,697.939393939394 564.4444444444445,707.4747474747475 564.4444444444445,717.010101010101 564.4444444444445,726.5454545454545 564.4444444444445,736.0808080808081 564.4444444444445,745.6161616161615 564.4444444444445,755.1515151515151 564.4444444444445,764.6868686868687 564.4444444444445,774.2222222222222 564.4444444444445,783.7575757575758 564.4444444444445,793.2929292929292 564.4444444444445,802.8282828282828 564.4444444444445,812.3636363636363 564.4444444444445,821.8989898989898 564.4444444444445,831.4343434343434 564.4444444444445,840.969696969697 564.4444444444445,850.5050505050505 564.4444444444445,860.0404040404039 564.4444444444445,869.5757575757575 564.4444444444445,879.1111111111111 564.4444444444445,888.6464646464647" fill="none" stroke="rgba(255,0,0,0.75)" stroke-width="14.159999999999995"/></g><g><polyline data-points="0.5555555555555567,-3.98989898989899 0.4545454545454551,-4.090909090909091 0.3535353535353544,-4.191919191919193 0.2525252525252529,-4.292929292929293 0.1515151515151522,-4.393939393939394 0.050505050505051545,-4.494949494949496 -0.05050505050505001,-4.595959595959596 -0.05050505050505001,-4.696969696969697 -0.05050505050505001,-4.7979797979797985 -0.05050505050505001,-4.898989898989899 -0.05050505050505001,-5.000000000000001" data-type="line" data-label="" points="564.4444444444445,888.6464646464647 554.9090909090909,898.1818181818181 545.3737373737374,907.7171717171718 535.8383838383838,917.2525252525252 526.3030303030303,926.7878787878788 516.7676767676768,936.3232323232323 507.2323232323232,945.8585858585858 507.2323232323232,955.3939393939394 507.2323232323232,964.9292929292928 507.2323232323232,974.4646464646464 507.2323232323232,984" fill="none" stroke="rgba(0,0,255,0.75)" stroke-width="14.159999999999995"/></g><g><polyline data-points="2.4747474747474754,-5.000000000000001 2.373737373737375,-4.898989898989899 2.2727272727272734,-4.7979797979797985 2.1717171717171726,-4.696969696969697 2.070707070707072,-4.595959595959596 1.9696969696969702,-4.494949494949496 1.8686868686868696,-4.393939393939394 1.767676767676768,-4.292929292929293 1.6666666666666674,-4.191919191919193 1.5656565656565666,-4.090909090909091 1.4646464646464652,-3.98989898989899 1.3636363636363644,-3.8888888888888884 1.262626262626263,-3.7878787878787876 1.1616161616161622,-3.6868686868686864 1.1616161616161622,-3.5858585858585856 1.1616161616161622,-3.484848484848485 1.1616161616161622,-3.383838383838383" data-type="line" data-label="" points="745.6161616161615,984 736.0808080808081,974.4646464646464 726.5454545454545,964.9292929292928 717.0101010101009,955.3939393939394 707.4747474747475,945.8585858585858 697.9393939393939,936.3232323232323 688.4040404040404,926.7878787878788 678.8686868686868,917.2525252525252 669.3333333333333,907.7171717171718 659.7979797979798,898.1818181818181 650.2626262626262,888.6464646464647 640.7272727272727,879.1111111111111 631.1919191919192,869.5757575757575 621.6565656565656,860.0404040404039 621.6565656565656,850.5050505050505 621.6565656565656,840.969696969697 621.6565656565656,831.4343434343434" fill="none" stroke="rgba(255,0,0,0.75)" stroke-width="14.159999999999995"/></g><g><polyline data-points="1.1616161616161622,-3.383838383838383 1.0606060606060617,-3.2828282828282824 0.9595959595959602,-3.1818181818181817 0.8585858585858596,-3.0808080808080804 0.7575757575757579,-2.9797979797979792 0.6565656565656574,-2.8787878787878785 0.5555555555555567,-2.7777777777777777 0.4545454545454551,-2.6767676767676765 0.3535353535353544,-2.5757575757575752 0.2525252525252529,-2.474747474747474 0.1515151515151522,-2.3737373737373733 0.050505050505051545,-2.2727272727272725 -0.05050505050505001,-2.1717171717171713 -0.15151515151515066,-2.07070707070707 -0.2525252525252522,-1.9696969696969693 -0.35353535353535287,-1.8686868686868683 -0.4545454545454544,-1.7676767676767675 -0.555555555555555,-1.6666666666666665 -0.6565656565656557,-1.5656565656565653 -0.7575757575757572,-1.4646464646464643 -0.8585858585858579,-1.363636363636363 -0.9595959595959596,-1.2626262626262625 -1.0606060606060603,-1.1616161616161613 -1.1616161616161613,-1.0606060606060603 -1.2626262626262625,-0.9595959595959596 -1.363636363636363,-0.8585858585858579 -1.4646464646464643,-0.7575757575757572 -1.5656565656565653,-0.6565656565656557 -1.6666666666666665,-0.555555555555555 -1.7676767676767675,-0.555555555555555 -1.8686868686868683,-0.555555555555555 -1.9696969696969693,-0.555555555555555" data-type="line" data-label="" points="621.6565656565656,831.4343434343434 612.1212121212121,821.8989898989898 602.5858585858585,812.3636363636363 593.0505050505051,802.8282828282828 583.5151515151515,793.2929292929292 573.9797979797979,783.7575757575758 564.4444444444445,774.2222222222222 554.9090909090909,764.6868686868687 545.3737373737374,755.1515151515151 535.8383838383838,745.6161616161615 526.3030303030303,736.0808080808081 516.7676767676768,726.5454545454545 507.2323232323232,717.010101010101 497.69696969696975,707.4747474747475 488.16161616161617,697.939393939394 478.62626262626264,688.4040404040404 469.09090909090907,678.8686868686868 459.55555555555554,669.3333333333334 450.0202020202021,659.7979797979798 440.4848484848485,650.2626262626263 430.949494949495,640.7272727272727 421.4141414141414,631.1919191919193 411.8787878787879,621.6565656565657 402.34343434343435,612.1212121212121 392.80808080808083,602.5858585858587 383.2727272727273,593.0505050505051 373.7373737373738,583.5151515151516 364.2020202020202,573.979797979798 354.6666666666667,564.4444444444445 345.13131313131316,564.4444444444445 335.59595959595964,564.4444444444445 326.0606060606061,564.4444444444445" fill="none" stroke="rgba(0,0,255,0.75)" stroke-width="14.159999999999995"/></g><g><polyline data-points="-1.9696969696969693,-0.555555555555555 -2.07070707070707,-0.4545454545454544 -2.1717171717171713,-0.35353535353535287 -2.2727272727272725,-0.35353535353535287 -2.3737373737373733,-0.35353535353535287 -2.474747474747474,-0.35353535353535287 -2.5757575757575752,-0.35353535353535287 -2.6767676767676765,-0.35353535353535287 -2.7777777777777777,-0.35353535353535287 -2.8787878787878785,-0.35353535353535287 -2.9797979797979792,-0.35353535353535287 -3.0808080808080804,-0.35353535353535287 -3.1818181818181817,-0.35353535353535287 -3.2828282828282824,-0.35353535353535287 -3.383838383838383,-0.35353535353535287 -3.484848484848485,-0.35353535353535287 -3.5858585858585856,-0.35353535353535287 -3.6868686868686864,-0.35353535353535287 -3.7878787878787876,-0.35353535353535287 -3.8888888888888884,-0.35353535353535287 -3.98989898989899,-0.35353535353535287" data-type="line" data-label="" points="326.0606060606061,564.4444444444445 316.5252525252526,554.909090909091 306.9898989898991,545.3737373737374 297.4545454545455,545.3737373737374 287.91919191919203,545.3737373737374 278.38383838383845,545.3737373737374 268.84848484848493,545.3737373737374 259.3131313131314,545.3737373737374 249.77777777777783,545.3737373737374 240.2424242424243,545.3737373737374 230.70707070707084,545.3737373737374 221.17171717171726,545.3737373737374 211.63636363636374,545.3737373737374 202.10101010101022,545.3737373737374 192.5656565656567,545.3737373737374 183.03030303030312,545.3737373737374 173.4949494949496,545.3737373737374 163.95959595959607,545.3737373737374 154.42424242424255,545.3737373737374 144.88888888888903,545.3737373737374 135.35353535353545,545.3737373737374" fill="none" stroke="rgba(255,0,0,0.75)" stroke-width="14.159999999999995"/></g><g><polyline data-points="-3.98989898989899,-0.35353535353535287 -4.090909090909091,-0.35353535353535287 -4.191919191919193,-0.35353535353535287 -4.292929292929293,-0.35353535353535287 -4.393939393939394,-0.35353535353535287 -4.494949494949496,-0.35353535353535287 -4.595959595959596,-0.35353535353535287 -4.696969696969697,-0.35353535353535287 -4.7979797979797985,-0.35353535353535287 -4.898989898989899,-0.35353535353535287 -5.000000000000001,-0.35353535353535287" data-type="line" data-label="" points="135.35353535353545,545.3737373737374 125.81818181818193,545.3737373737374 116.28282828282829,545.3737373737374 106.74747474747483,545.3737373737374 97.21212121212136,545.3737373737374 87.67676767676772,545.3737373737374 78.14141414141426,545.3737373737374 68.60606060606068,545.3737373737374 59.07070707070716,545.3737373737374 49.53535353535369,545.3737373737374 40.00000000000006,545.3737373737374" fill="none" stroke="rgba(0,0,255,0.75)" stroke-width="14.159999999999995"/></g><g><polyline data-points="-5.000000000000001,-2.2727272727272725 -4.898989898989899,-2.1717171717171713 -4.7979797979797985,-2.07070707070707 -4.696969696969697,-1.9696969696969693 -4.595959595959596,-1.8686868686868683 -4.494949494949496,-1.7676767676767675 -4.393939393939394,-1.6666666666666665 -4.292929292929293,-1.5656565656565653 -4.191919191919193,-1.4646464646464643 -4.090909090909091,-1.363636363636363 -3.98989898989899,-1.2626262626262625 -3.8888888888888884,-1.1616161616161613 -3.7878787878787876,-1.0606060606060603 -3.6868686868686864,-1.0606060606060603 -3.5858585858585856,-1.0606060606060603 -3.484848484848485,-1.0606060606060603 -3.383838383838383,-1.0606060606060603 -3.2828282828282824,-1.0606060606060603 -3.1818181818181817,-1.0606060606060603 -3.0808080808080804,-1.0606060606060603 -2.9797979797979792,-1.0606060606060603 -2.8787878787878785,-1.0606060606060603 -2.7777777777777777,-1.0606060606060603 -2.6767676767676765,-1.0606060606060603 -2.5757575757575752,-1.0606060606060603 -2.474747474747474,-1.0606060606060603 -2.3737373737373733,-1.0606060606060603 -2.2727272727272725,-1.0606060606060603 -2.1717171717171713,-1.0606060606060603 -2.07070707070707,-1.0606060606060603 -1.9696969696969693,-1.0606060606060603 -1.8686868686868683,-0.9595959595959596 -1.7676767676767675,-0.9595959595959596 -1.6666666666666665,-0.8585858585858579 -1.5656565656565653,-0.7575757575757572 -1.4646464646464643,-0.6565656565656557 -1.363636363636363,-0.555555555555555 -1.2626262626262625,-0.4545454545454544 -1.1616161616161613,-0.35353535353535287 -1.0606060606060603,-0.2525252525252522 -0.9595959595959596,-0.15151515151515066 -0.8585858585858579,-0.05050505050505001 -0.7575757575757572,0.050505050505051545 -0.6565656565656557,0.1515151515151522 -0.6565656565656557,0.2525252525252529 -0.6565656565656557,0.3535353535353544 -0.6565656565656557,0.4545454545454551 -0.6565656565656557,0.5555555555555567 -0.6565656565656557,0.6565656565656574 -0.6565656565656557,0.7575757575757579 -0.6565656565656557,0.8585858585858596 -0.6565656565656557,0.9595959595959602 -0.6565656565656557,1.0606060606060617 -0.6565656565656557,1.1616161616161622" data-type="line" data-label="" points="40.00000000000006,726.5454545454545 49.53535353535369,717.010101010101 59.07070707070716,707.4747474747475 68.60606060606068,697.939393939394 78.14141414141426,688.4040404040404 87.67676767676772,678.8686868686868 97.21212121212136,669.3333333333334 106.74747474747483,659.7979797979798 116.28282828282829,650.2626262626263 125.81818181818193,640.7272727272727 135.35353535353545,631.1919191919193 144.88888888888903,621.6565656565657 154.42424242424255,612.1212121212121 163.95959595959607,612.1212121212121 173.4949494949496,612.1212121212121 183.03030303030312,612.1212121212121 192.5656565656567,612.1212121212121 202.10101010101022,612.1212121212121 211.63636363636374,612.1212121212121 221.17171717171726,612.1212121212121 230.70707070707084,612.1212121212121 240.2424242424243,612.1212121212121 249.77777777777783,612.1212121212121 259.3131313131314,612.1212121212121 268.84848484848493,612.1212121212121 278.38383838383845,612.1212121212121 287.91919191919203,612.1212121212121 297.4545454545455,612.1212121212121 306.9898989898991,612.1212121212121 316.5252525252526,612.1212121212121 326.0606060606061,612.1212121212121 335.59595959595964,602.5858585858587 345.13131313131316,602.5858585858587 354.6666666666667,593.0505050505051 364.2020202020202,583.5151515151516 373.7373737373738,573.979797979798 383.2727272727273,564.4444444444445 392.80808080808083,554.909090909091 402.34343434343435,545.3737373737374 411.8787878787879,535.838383838384 421.4141414141414,526.3030303030304 430.949494949495,516.7676767676768 440.4848484848485,507.23232323232327 450.0202020202021,497.69696969696975 450.0202020202021,488.1616161616163 450.0202020202021,478.6262626262627 450.0202020202021,469.0909090909092 450.0202020202021,459.5555555555556 450.0202020202021,450.0202020202021 450.0202020202021,440.4848484848486 450.0202020202021,430.94949494949503 450.0202020202021,421.4141414141415 450.0202020202021,411.87878787878793 450.0202020202021,402.3434343434344" fill="none" stroke="rgba(255,0,0,0.75)" stroke-width="14.159999999999995"/></g><g><polyline data-points="-0.6565656565656557,1.1616161616161622 -0.555555555555555,1.262626262626263 -0.4545454545454544,1.3636363636363644 -0.35353535353535287,1.4646464646464652 -0.2525252525252522,1.5656565656565666 -0.15151515151515066,1.6666666666666674 -0.05050505050505001,1.6666666666666674 0.050505050505051545,1.6666666666666674 0.1515151515151522,1.6666666666666674 0.2525252525252529,1.6666666666666674 0.3535353535353544,1.6666666666666674 0.4545454545454551,1.6666666666666674 0.5555555555555567,1.6666666666666674 0.6565656565656574,1.6666666666666674 0.7575757575757579,1.6666666666666674 0.8585858585858596,1.6666666666666674 0.9595959595959602,1.6666666666666674 1.0606060606060617,1.6666666666666674 1.1616161616161622,1.6666666666666674 1.262626262626263,1.6666666666666674 1.3636363636363644,1.6666666666666674 1.4646464646464652,1.6666666666666674 1.5656565656565666,1.6666666666666674 1.6666666666666674,1.6666666666666674 1.767676767676768,1.6666666666666674 1.8686868686868696,1.6666666666666674 1.9696969696969702,1.6666666666666674 2.070707070707072,1.6666666666666674 2.1717171717171726,1.6666666666666674 2.2727272727272734,1.6666666666666674 2.373737373737375,1.6666666666666674 2.4747474747474754,1.6666666666666674 2.575757575757577,1.6666666666666674 2.676767676767678,1.6666666666666674 2.7777777777777786,1.6666666666666674 2.87878787878788,1.6666666666666674 2.9797979797979806,1.6666666666666674 3.080808080808082,1.6666666666666674 3.181818181818183,1.6666666666666674 3.2828282828282833,1.6666666666666674" data-type="line" data-label="" points="450.0202020202021,402.3434343434344 459.55555555555554,392.80808080808094 469.09090909090907,383.27272727272737 478.62626262626264,373.73737373737384 488.16161616161617,364.2020202020203 497.69696969696975,354.66666666666674 507.2323232323232,354.66666666666674 516.7676767676768,354.66666666666674 526.3030303030303,354.66666666666674 535.8383838383838,354.66666666666674 545.3737373737374,354.66666666666674 554.9090909090909,354.66666666666674 564.4444444444445,354.66666666666674 573.9797979797979,354.66666666666674 583.5151515151515,354.66666666666674 593.0505050505051,354.66666666666674 602.5858585858585,354.66666666666674 612.1212121212121,354.66666666666674 621.6565656565656,354.66666666666674 631.1919191919192,354.66666666666674 640.7272727272727,354.66666666666674 650.2626262626262,354.66666666666674 659.7979797979798,354.66666666666674 669.3333333333333,354.66666666666674 678.8686868686868,354.66666666666674 688.4040404040404,354.66666666666674 697.9393939393939,354.66666666666674 707.4747474747475,354.66666666666674 717.0101010101009,354.66666666666674 726.5454545454545,354.66666666666674 736.0808080808081,354.66666666666674 745.6161616161615,354.66666666666674 755.1515151515151,354.66666666666674 764.6868686868686,354.66666666666674 774.2222222222222,354.66666666666674 783.7575757575758,354.66666666666674 793.2929292929292,354.66666666666674 802.8282828282828,354.66666666666674 812.3636363636363,354.66666666666674 821.8989898989898,354.66666666666674" fill="none" stroke="rgba(0,0,255,0.75)" stroke-width="14.159999999999995"/></g><g><polyline data-points="3.2828282828282833,1.6666666666666674 3.383838383838384,1.767676767676768 3.383838383838384,1.8686868686868696 3.383838383838384,1.9696969696969702 3.383838383838384,2.070707070707072 3.383838383838384,2.1717171717171726 3.383838383838384,2.2727272727272734 3.383838383838384,2.373737373737375 3.383838383838384,2.4747474747474754 3.383838383838384,2.575757575757577 3.383838383838384,2.676767676767678 3.383838383838384,2.7777777777777786 3.383838383838384,2.87878787878788 3.383838383838384,2.9797979797979806" data-type="line" data-label="" points="821.8989898989898,354.66666666666674 831.4343434343433,345.1313131313133 831.4343434343433,335.5959595959597 831.4343434343433,326.06060606060623 831.4343434343433,316.5252525252526 831.4343434343433,306.9898989898991 831.4343434343433,297.4545454545456 831.4343434343433,287.91919191919203 831.4343434343433,278.38383838383857 831.4343434343433,268.84848484848493 831.4343434343433,259.3131313131314 831.4343434343433,249.77777777777794 831.4343434343433,240.24242424242436 831.4343434343433,230.70707070707084" fill="none" stroke="rgba(255,0,0,0.75)" stroke-width="14.159999999999995"/></g><g><polyline data-points="3.383838383838384,2.9797979797979806 3.4848484848484866,3.080808080808082 3.5858585858585874,3.181818181818183 3.6868686868686877,3.2828282828282833 3.7878787878787885,3.383838383838384 3.8888888888888893,3.4848484848484866 3.989898989898992,3.5858585858585874 4.090909090909092,3.6868686868686877 4.191919191919193,3.6868686868686877 4.292929292929293,3.6868686868686877 4.393939393939394,3.6868686868686877 4.494949494949497,3.6868686868686877 4.595959595959597,3.6868686868686877 4.696969696969697,3.6868686868686877 4.7979797979797985,3.6868686868686877 4.898989898989901,3.6868686868686877 5.000000000000002,3.6868686868686877" data-type="line" data-label="" points="831.4343434343433,230.70707070707084 840.969696969697,221.17171717171726 850.5050505050505,211.63636363636374 860.0404040404039,202.10101010101027 869.5757575757575,192.56565656565675 879.111111111111,183.03030303030312 888.6464646464647,173.4949494949496 898.181818181818,163.95959595959613 907.7171717171716,163.95959595959613 917.2525252525251,163.95959595959613 926.7878787878785,163.95959595959613 936.3232323232323,163.95959595959613 945.8585858585857,163.95959595959613 955.3939393939393,163.95959595959613 964.9292929292927,163.95959595959613 974.4646464646464,163.95959595959613 984,163.95959595959613" fill="none" stroke="rgba(0,0,255,0.75)" stroke-width="14.159999999999995"/></g><g><rect data-type="rect" data-label="" data-x="0" data-y="0" x="40.000000000000114" y="40.000000000000284" width="943.9999999999997" height="943.9999999999998" fill="none" stroke="gray" stroke-width="0.010593220338983056"/></g><g><rect data-type="rect" data-label="" data-x="0" data-y="0" x="40.000000000000114" y="40.000000000000284" width="943.9999999999997" height="943.9999999999998" fill="none" stroke="rgba(15, 23, 42, 0.8)" stroke-width="0.010593220338983056"/></g><circle data-type="circle" data-label="" data-x="-3.98989898989899" data-y="2.373737373737375" cx="135.35353535353545" cy="287.91919191919203" r="28.791999999999987" fill="rgba(0,0,0,0.3)" stroke="black" stroke-width="0.010593220338983056"/><circle data-type="circle" data-label="" data-x="3.989898989898992" data-y="-3.98989898989899" cx="888.6464646464647" cy="888.6464646464647" r="28.791999999999987" fill="rgba(0,0,0,0.3)" stroke="black" stroke-width="0.010593220338983056"/><circle data-type="circle" data-label="" data-x="3.181818181818183" data-y="-3.8888888888888884" cx="812.3636363636363" cy="879.1111111111111" r="28.791999999999987" fill="rgba(0,0,0,0.3)" stroke="black" stroke-width="0.010593220338983056"/><circle data-type="circle" data-label="" data-x="-2.7777777777777777" data-y="1.767676767676768" cx="249.77777777777783" cy="345.1313131313133" r="28.791999999999987" fill="rgba(0,0,0,0.3)" stroke="black" stroke-width="0.010593220338983056"/><circle data-type="circle" data-label="" data-x="-2.7777777777777777" data-y="3.989898989898992" cx="249.77777777777783" cy="135.35353535353545" r="28.791999999999987" fill="rgba(0,0,0,0.3)" stroke="black" stroke-width="0.010593220338983056"/><circle data-type="circle" data-label="" data-x="1.1616161616161622" data-y="2.9797979797979806" cx="621.6565656565656" cy="230.70707070707084" r="28.791999999999987" fill="rgba(0,0,0,0.3)" stroke="black" stroke-width="0.010593220338983056"/><circle data-type="circle" data-label="" data-x="0.5555555555555567" data-y="-3.98989898989899" cx="564.4444444444445" cy="888.6464646464647" r="28.791999999999987" fill="rgba(0,0,0,0.3)" stroke="black" stroke-width="0.010593220338983056"/><circle data-type="circle" data-label="" data-x="1.1616161616161622" data-y="-3.383838383838383" cx="621.6565656565656" cy="831.4343434343434" r="28.791999999999987" fill="rgba(0,0,0,0.3)" stroke="black" stroke-width="0.010593220338983056"/><circle data-type="circle" data-label="" data-x="-1.9696969696969693" data-y="-0.555555555555555" cx="326.0606060606061" cy="564.4444444444445" r="28.791999999999987" fill="rgba(0,0,0,0.3)" stroke="black" stroke-width="0.010593220338983056"/><circle data-type="circle" data-label="" data-x="-3.98989898989899" data-y="-0.35353535353535287" cx="135.35353535353545" cy="545.3737373737374" r="28.791999999999987" fill="rgba(0,0,0,0.3)" stroke="black" stroke-width="0.010593220338983056"/><circle data-type="circle" data-label="" data-x="-0.6565656565656557" data-y="1.1616161616161622" cx="450.0202020202021" cy="402.3434343434344" r="28.791999999999987" fill="rgba(0,0,0,0.3)" stroke="black" stroke-width="0.010593220338983056"/><circle data-type="circle" data-label="" data-x="3.2828282828282833" data-y="1.6666666666666674" cx="821.8989898989898" cy="354.66666666666674" r="28.791999999999987" fill="rgba(0,0,0,0.3)" stroke="black" stroke-width="0.010593220338983056"/><circle data-type="circle" data-label="" data-x="3.383838383838384" data-y="2.9797979797979806" cx="831.4343434343433" cy="230.70707070707084" r="28.791999999999987" fill="rgba(0,0,0,0.3)" stroke="black" stroke-width="0.010593220338983056"/><g id="crosshair" style="display: none"><line id="crosshair-h" y1="0" y2="1024" stroke="#666" stroke-width="0.5"/><line id="crosshair-v" x1="0" x2="1024" stroke="#666" stroke-width="0.5"/><text id="coordinates" font-family="monospace" font-size="12" fill="#666"></text></g><script><![CDATA[
              document.currentScript.parentElement.addEventListener('mousemove', (e) => {
                const svg = e.currentTarget;
                const rect = svg.getBoundingClientRect();
                const x = e.clientX - rect.left;
                const y = e.clientY - rect.top;
                const crosshair = svg.getElementById('crosshair');
                const h = svg.getElementById('crosshair-h');
                const v = svg.getElementById('crosshair-v');
                const coords = svg.getElementById('coordinates');
                
                crosshair.style.display = 'block';
                h.setAttribute('x1', '0');
                h.setAttribute('x2', '1024');
                h.setAttribute('y1', y);
                h.setAttribute('y2', y);
                v.setAttribute('x1', x);
                v.setAttribute('x2', x);
                v.setAttribute('y1', '0');
                v.setAttribute('y2', '1024');

                // Calculate real coordinates using inverse transformation
                const matrix = {"a":94.39999999999996,"c":0,"e":511.99999999999994,"b":0,"d":-94.39999999999996,"f":512.0000000000001};
                // Manually invert and apply the affine transform
                // Since we only use translate and scale, we can directly compute:
                // x' = (x - tx) / sx
                // y' = (y - ty) / sy
                const sx = matrix.a;
                const sy = matrix.d;
                const tx = matrix.e; 
                const ty = matrix.f;
                const realPoint = {
                  x: (x - tx) / sx,
                  y: (y - ty) / sy // Flip y back since we used negative scale
                }
                
                coords.textContent = `(${realPoint.x.toFixed(2)}, ${realPoint.y.toFixed(2)})`;
                coords.setAttribute('x', (x + 5).toString());
                coords.setAttribute('y', (y - 5).toString());
              });
              document.currentScript.parentElement.addEventListener('mouseleave', () => {
                document.currentScript.parentElement.getElementById('crosshair').style.display = 'none';
              });
            ]]></script></svg>