<svg width="1024" height="1024" viewBox="0 0 1024 1024" xmlns="http://www.w3.org/2000/svg"><rect width="100%" height="100%" fill="white"/><g><circle data-type="point" data-label="conn_000" data-x="-5" data-y="2.2800000000000002" cx="40.000000000000114" cy="296.76800000000014" r="28.792" fill="red" stroke="#bd0f0f" stroke-width="28.792"/></g><g><circle data-type="point" data-label="conn_000" data-x="5" data-y="-2.14" cx="983.9999999999998" cy="714.0160000000001" r="28.792" fill="blue" stroke="#bd0f0f" stroke-width="28.792"/></g><g><circle data-type="point" data-label="conn_001" data-x="-2.16" data-y="5" cx="308.096" cy="40.000000000000284" r="28.792" fill="red" stroke="#0fbd42" stroke-width="28.792"/></g><g><circle data-type="point" data-label="conn_001" data-x="2.82" data-y="-5" cx="778.2079999999999" cy="984" r="28.792" fill="blue" stroke="#0fbd42" stroke-width="28.792"/></g><g><circle data-type="point" data-label="conn_002" data-x="0.5" data-y="-5" cx="559.1999999999999" cy="984" r="28.792" fill="blue" stroke="#740fbd" stroke-width="28.792"/></g><g><circle data-type="point" data-label="conn_002" data-x="4.46" data-y="5" cx="933.0239999999998" cy="40.000000000000284" r="28.792" fill="blue" stroke="#740fbd" stroke-width="28.792"/></g><g><polyline data-points="-5.000000000000001,2.2727272727272734 -4.898989898989899,2.1717171717171726 -4.7979797979797985,2.070707070707072 -4.696969696969697,1.9696969696969702 -4.595959595959596,1.8686868686868696 -4.494949494949496,1.767676767676768 -4.393939393939394,1.6666666666666674 -4.292929292929293,1.5656565656565666 -4.191919191919193,1.4646464646464652 -4.090909090909091,1.3636363636363644 -3.98989898989899,1.262626262626263 -3.8888888888888884,1.1616161616161622 -3.7878787878787876,1.0606060606060617 -3.6868686868686864,0.9595959595959602 -3.5858585858585856,0.8585858585858596 -3.484848484848485,0.7575757575757579 -3.383838383838383,0.6565656565656574 -3.2828282828282824,0.5555555555555567 -3.1818181818181817,0.4545454545454551 -3.0808080808080804,0.3535353535353544 -2.9797979797979792,0.2525252525252529 -2.8787878787878785,0.1515151515151522 -2.7777777777777777,0.050505050505051545 -2.6767676767676765,-0.05050505050505001 -2.5757575757575752,-0.15151515151515066 -2.474747474747474,-0.2525252525252522 -2.3737373737373733,-0.35353535353535287 -2.2727272727272725,-0.4545454545454544 -2.1717171717171713,-0.555555555555555 -2.07070707070707,-0.6565656565656557 -1.9696969696969693,-0.7575757575757572 -1.8686868686868683,-0.8585858585858579 -1.7676767676767675,-0.9595959595959596 -1.6666666666666665,-1.0606060606060603 -1.5656565656565653,-1.1616161616161613 -1.4646464646464643,-1.2626262626262625 -1.363636363636363,-1.363636363636363 -1.2626262626262625,-1.4646464646464643 -1.1616161616161613,-1.5656565656565653 -1.0606060606060603,-1.6666666666666665 -0.9595959595959596,-1.7676767676767675 -0.8585858585858579,-1.8686868686868683 -0.7575757575757572,-1.9696969696969693 -0.6565656565656557,-2.07070707070707 -0.555555555555555,-2.1717171717171713 -0.4545454545454544,-2.1717171717171713 -0.35353535353535287,-2.1717171717171713 -0.2525252525252522,-2.1717171717171713 -0.15151515151515066,-2.1717171717171713 -0.05050505050505001,-2.1717171717171713 0.050505050505051545,-2.1717171717171713 0.1515151515151522,-2.1717171717171713 0.2525252525252529,-2.1717171717171713 0.3535353535353544,-2.1717171717171713 0.4545454545454551,-2.1717171717171713 0.5555555555555567,-2.1717171717171713 0.6565656565656574,-2.1717171717171713 0.7575757575757579,-2.1717171717171713 0.8585858585858596,-2.1717171717171713 0.9595959595959602,-2.1717171717171713 1.0606060606060617,-2.1717171717171713 1.1616161616161622,-2.1717171717171713 1.262626262626263,-2.1717171717171713 1.3636363636363644,-2.1717171717171713 1.4646464646464652,-2.1717171717171713 1.5656565656565666,-2.1717171717171713 1.6666666666666674,-2.1717171717171713 1.767676767676768,-2.1717171717171713 1.8686868686868696,-2.1717171717171713 1.9696969696969702,-2.1717171717171713 2.070707070707072,-2.1717171717171713 2.1717171717171726,-2.1717171717171713 2.2727272727272734,-2.1717171717171713 2.373737373737375,-2.1717171717171713 2.4747474747474754,-2.1717171717171713 2.575757575757577,-2.1717171717171713 2.676767676767678,-2.1717171717171713 2.7777777777777786,-2.1717171717171713 2.87878787878788,-2.1717171717171713 2.9797979797979806,-2.1717171717171713 3.080808080808082,-2.1717171717171713 3.181818181818183,-2.1717171717171713 3.2828282828282833,-2.1717171717171713 3.383838383838384,-2.1717171717171713 3.4848484848484866,-2.1717171717171713 3.5858585858585874,-2.1717171717171713 3.6868686868686877,-2.1717171717171713 3.7878787878787885,-2.1717171717171713 3.8888888888888893,-2.1717171717171713 3.989898989898992,-2.1717171717171713" data-type="line" data-label="" points="40.00000000000006,297.4545454545456 49.53535353535369,306.9898989898991 59.07070707070716,316.5252525252526 68.60606060606068,326.06060606060623 78.14141414141426,335.5959595959597 87.67676767676772,345.1313131313133 97.21212121212136,354.66666666666674 106.74747474747483,364.2020202020203 116.28282828282829,373.73737373737384 125.81818181818193,383.27272727272737 135.35353535353545,392.80808080808094 144.88888888888903,402.3434343434344 154.42424242424255,411.87878787878793 163.95959595959607,421.4141414141415 173.4949494949496,430.94949494949503 183.03030303030312,440.4848484848486 192.5656565656567,450.0202020202021 202.10101010101022,459.5555555555556 211.63636363636374,469.0909090909092 221.17171717171726,478.6262626262627 230.70707070707084,488.1616161616163 240.2424242424243,497.69696969696975 249.77777777777783,507.23232323232327 259.3131313131314,516.7676767676768 268.84848484848493,526.3030303030304 278.38383838383845,535.838383838384 287.91919191919203,545.3737373737374 297.4545454545455,554.909090909091 306.9898989898991,564.4444444444445 316.5252525252526,573.979797979798 326.0606060606061,583.5151515151516 335.59595959595964,593.0505050505051 345.13131313131316,602.5858585858587 354.6666666666667,612.1212121212121 364.2020202020202,621.6565656565657 373.7373737373738,631.1919191919193 383.2727272727273,640.7272727272727 392.80808080808083,650.2626262626263 402.34343434343435,659.7979797979798 411.8787878787879,669.3333333333334 421.4141414141414,678.8686868686868 430.949494949495,688.4040404040404 440.4848484848485,697.939393939394 450.0202020202021,707.4747474747475 459.55555555555554,717.010101010101 469.09090909090907,717.010101010101 478.62626262626264,717.010101010101 488.16161616161617,717.010101010101 497.69696969696975,717.010101010101 507.2323232323232,717.010101010101 516.7676767676768,717.010101010101 526.3030303030303,717.010101010101 535.8383838383838,717.010101010101 545.3737373737374,717.010101010101 554.9090909090909,717.010101010101 564.4444444444445,717.010101010101 573.9797979797979,717.010101010101 583.5151515151515,717.010101010101 593.0505050505051,717.010101010101 602.5858585858585,717.010101010101 612.1212121212121,717.010101010101 621.6565656565656,717.010101010101 631.1919191919192,717.010101010101 640.7272727272727,717.010101010101 650.2626262626262,717.010101010101 659.7979797979798,717.010101010101 669.3333333333333,717.010101010101 678.8686868686868,717.010101010101 688.4040404040404,717.010101010101 697.9393939393939,717.010101010101 707.4747474747475,717.010101010101 717.0101010101009,717.010101010101 726.5454545454545,717.010101010101 736.0808080808081,717.010101010101 745.6161616161615,717.010101010101 755.1515151515151,717.010101010101 764.6868686868686,717.010101010101 774.2222222222222,717.010101010101 783.7575757575758,717.010101010101 793.2929292929292,717.010101010101 802.8282828282828,717.010101010101 812.3636363636363,717.010101010101 821.8989898989898,717.010101010101 831.4343434343433,717.010101010101 840.969696969697,717.010101010101 850.5050505050505,717.010101010101 860.0404040404039,717.010101010101 869.5757575757575,717.010101010101 879.111111111111,717.010101010101 888.6464646464647,717.010101010101" fill="none" stroke="rgba(255,0,0,0.75)" stroke-width="14.159999999999995"/></g><g><polyline data-points="3.989898989898992,-2.1717171717171713 4.090909090909092,-2.1717171717171713 4.191919191919193,-2.1717171717171713 4.292929292929293,-2.1717171717171713 4.393939393939394,-2.1717171717171713 4.494949494949497,-2.1717171717171713 4.595959595959597,-2.1717171717171713 4.696969696969697,-2.1717171717171713 4.7979797979797985,-2.1717171717171713 4.898989898989901,-2.1717171717171713 5.000000000000002,-2.1717171717171713" data-type="line" data-label="" points="888.6464646464647,717.010101010101 898.181818181818,717.010101010101 907.7171717171716,717.010101010101 917.2525252525251,717.010101010101 926.7878787878785,717.010101010101 936.3232323232323,717.010101010101 945.8585858585857,717.010101010101 955.3939393939393,717.010101010101 964.9292929292927,717.010101010101 974.4646464646464,717.010101010101 984,717.010101010101" fill="none" stroke="rgba(0,0,255,0.75)" stroke-width="14.159999999999995"/></g><g><polyline data-points="-2.1717171717171713,5.000000000000002 -2.07070707070707,4.898989898989901 -1.9696969696969693,4.7979797979797985 -1.8686868686868683,4.696969696969697 -1.7676767676767675,4.595959595959597 -1.6666666666666665,4.494949494949497 -1.5656565656565653,4.393939393939394 -1.4646464646464643,4.292929292929293 -1.363636363636363,4.191919191919193 -1.2626262626262625,4.090909090909092 -1.1616161616161613,3.989898989898992 -1.0606060606060603,3.8888888888888893 -0.9595959595959596,3.7878787878787885 -0.8585858585858579,3.6868686868686877 -0.7575757575757572,3.5858585858585874 -0.6565656565656557,3.4848484848484866 -0.555555555555555,3.383838383838384 -0.4545454545454544,3.2828282828282833 -0.35353535353535287,3.181818181818183 -0.2525252525252522,3.080808080808082 -0.15151515151515066,2.9797979797979806 -0.05050505050505001,2.87878787878788 0.050505050505051545,2.7777777777777786 0.1515151515151522,2.676767676767678 0.2525252525252529,2.575757575757577 0.3535353535353544,2.4747474747474754 0.4545454545454551,2.373737373737375 0.5555555555555567,2.2727272727272734 0.6565656565656574,2.1717171717171726 0.7575757575757579,2.070707070707072 0.8585858585858596,1.9696969696969702 0.9595959595959602,1.8686868686868696 1.0606060606060617,1.767676767676768 1.1616161616161622,1.6666666666666674 1.262626262626263,1.5656565656565666 1.3636363636363644,1.4646464646464652 1.4646464646464652,1.3636363636363644 1.5656565656565666,1.262626262626263 1.6666666666666674,1.1616161616161622 1.767676767676768,1.0606060606060617 1.8686868686868696,0.9595959595959602 1.9696969696969702,0.8585858585858596 2.070707070707072,0.7575757575757579 2.1717171717171726,0.6565656565656574 2.2727272727272734,0.5555555555555567 2.373737373737375,0.4545454545454551 2.4747474747474754,0.3535353535353544 2.575757575757577,0.2525252525252529 2.676767676767678,0.1515151515151522 2.7777777777777786,0.050505050505051545 2.87878787878788,-0.05050505050505001 2.87878787878788,-0.15151515151515066 2.87878787878788,-0.2525252525252522 2.87878787878788,-0.35353535353535287 2.87878787878788,-0.4545454545454544 2.87878787878788,-0.555555555555555 2.87878787878788,-0.6565656565656557 2.87878787878788,-0.7575757575757572 2.87878787878788,-0.8585858585858579 2.87878787878788,-0.9595959595959596 2.87878787878788,-1.0606060606060603 2.87878787878788,-1.1616161616161613 2.87878787878788,-1.2626262626262625 2.87878787878788,-1.363636363636363 2.87878787878788,-1.4646464646464643 2.87878787878788,-1.5656565656565653" data-type="line" data-label="" points="306.9898989898991,40.000000000000114 316.5252525252526,49.53535353535369 326.0606060606061,59.07070707070733 335.59595959595964,68.60606060606085 345.13131313131316,78.14141414141432 354.6666666666667,87.67676767676778 364.2020202020202,97.21212121212153 373.7373737373738,106.747474747475 383.2727272727273,116.28282828282846 392.80808080808083,125.81818181818198 402.34343434343435,135.35353535353545 411.8787878787879,144.88888888888908 421.4141414141414,154.4242424242426 430.949494949495,163.95959595959613 440.4848484848485,173.4949494949496 450.0202020202021,183.03030303030312 459.55555555555554,192.56565656565675 469.09090909090907,202.10101010101027 478.62626262626264,211.63636363636374 488.16161616161617,221.17171717171726 497.69696969696975,230.70707070707084 507.2323232323232,240.24242424242436 516.7676767676768,249.77777777777794 526.3030303030303,259.3131313131314 535.8383838383838,268.84848484848493 545.3737373737374,278.38383838383857 554.9090909090909,287.91919191919203 564.4444444444445,297.4545454545456 573.9797979797979,306.9898989898991 583.5151515151515,316.5252525252526 593.0505050505051,326.06060606060623 602.5858585858585,335.5959595959597 612.1212121212121,345.1313131313133 621.6565656565656,354.66666666666674 631.1919191919192,364.2020202020203 640.7272727272727,373.73737373737384 650.2626262626262,383.27272727272737 659.7979797979798,392.80808080808094 669.3333333333333,402.3434343434344 678.8686868686868,411.87878787878793 688.4040404040404,421.4141414141415 697.9393939393939,430.94949494949503 707.4747474747475,440.4848484848486 717.0101010101009,450.0202020202021 726.5454545454545,459.5555555555556 736.0808080808081,469.0909090909092 745.6161616161615,478.6262626262627 755.1515151515151,488.1616161616163 764.6868686868686,497.69696969696975 774.2222222222222,507.23232323232327 783.7575757575758,516.7676767676768 783.7575757575758,526.3030303030304 783.7575757575758,535.838383838384 783.7575757575758,545.3737373737374 783.7575757575758,554.909090909091 783.7575757575758,564.4444444444445 783.7575757575758,573.979797979798 783.7575757575758,583.5151515151516 783.7575757575758,593.0505050505051 783.7575757575758,602.5858585858587 783.7575757575758,612.1212121212121 783.7575757575758,621.6565656565657 783.7575757575758,631.1919191919193 783.7575757575758,640.7272727272727 783.7575757575758,650.2626262626263 783.7575757575758,659.7979797979798" fill="none" stroke="rgba(255,0,0,0.75)" stroke-width="14.159999999999995"/></g><g><polyline data-points="2.87878787878788,-1.5656565656565653 2.87878787878788,-1.6666666666666665 2.87878787878788,-1.7676767676767675 2.87878787878788,-1.8686868686868683 2.87878787878788,-1.9696969696969693 2.87878787878788,-2.07070707070707 2.87878787878788,-2.1717171717171713 2.87878787878788,-2.2727272727272725 2.87878787878788,-2.3737373737373733 2.87878787878788,-2.474747474747474 2.87878787878788,-2.5757575757575752 2.87878787878788,-2.6767676767676765 2.87878787878788,-2.7777777777777777 2.87878787878788,-2.8787878787878785 2.87878787878788,-2.9797979797979792 2.87878787878788,-3.0808080808080804 2.87878787878788,-3.1818181818181817 2.87878787878788,-3.2828282828282824 2.87878787878788,-3.383838383838383 2.87878787878788,-3.484848484848485 2.87878787878788,-3.5858585858585856 2.87878787878788,-3.6868686868686864 2.87878787878788,-3.7878787878787876 2.87878787878788,-3.8888888888888884 2.87878787878788,-3.98989898989899 2.87878787878788,-4.090909090909091 2.87878787878788,-4.191919191919193 2.87878787878788,-4.292929292929293 2.87878787878788,-4.393939393939394 2.87878787878788,-4.494949494949496 2.87878787878788,-4.595959595959596 2.87878787878788,-4.696969696969697 2.87878787878788,-4.7979797979797985 2.87878787878788,-4.898989898989899 2.87878787878788,-5.000000000000001" data-type="line" data-label="" points="783.7575757575758,659.7979797979798 783.7575757575758,669.3333333333334 783.7575757575758,678.8686868686868 783.7575757575758,688.4040404040404 783.7575757575758,697.939393939394 783.7575757575758,707.4747474747475 783.7575757575758,717.010101010101 783.7575757575758,726.5454545454545 783.7575757575758,736.0808080808081 783.7575757575758,745.6161616161615 783.7575757575758,755.1515151515151 783.7575757575758,764.6868686868687 783.7575757575758,774.2222222222222 783.7575757575758,783.7575757575758 783.7575757575758,793.2929292929292 783.7575757575758,802.8282828282828 783.7575757575758,812.3636363636363 783.7575757575758,821.8989898989898 783.7575757575758,831.4343434343434 783.7575757575758,840.969696969697 783.7575757575758,850.5050505050505 783.7575757575758,860.0404040404039 783.7575757575758,869.5757575757575 783.7575757575758,879.1111111111111 783.7575757575758,888.6464646464647 783.7575757575758,898.1818181818181 783.7575757575758,907.7171717171718 783.7575757575758,917.2525252525252 783.7575757575758,926.7878787878788 783.7575757575758,936.3232323232323 783.7575757575758,945.8585858585858 783.7575757575758,955.3939393939394 783.7575757575758,964.9292929292928 783.7575757575758,974.4646464646464 783.7575757575758,984" fill="none" stroke="rgba(0,0,255,0.75)" stroke-width="14.159999999999995"/></g><g><polyline data-points="0.5555555555555567,-5.000000000000001 0.6565656565656574,-4.898989898989899 0.7575757575757579,-4.7979797979797985 0.8585858585858596,-4.696969696969697 0.9595959595959602,-4.595959595959596 1.0606060606060617,-4.494949494949496 1.1616161616161622,-4.393939393939394 1.262626262626263,-4.292929292929293 1.3636363636363644,-4.191919191919193 1.4646464646464652,-4.090909090909091 1.5656565656565666,-3.98989898989899 1.6666666666666674,-3.8888888888888884 1.767676767676768,-3.7878787878787876 1.8686868686868696,-3.6868686868686864 1.9696969696969702,-3.5858585858585856 2.070707070707072,-3.484848484848485 2.1717171717171726,-3.383838383838383 2.2727272727272734,-3.2828282828282824 2.373737373737375,-3.1818181818181817 2.373737373737375,-3.0808080808080804 2.373737373737375,-2.9797979797979792 2.373737373737375,-2.8787878787878785 2.373737373737375,-2.7777777777777777 2.373737373737375,-2.6767676767676765 2.373737373737375,-2.5757575757575752 2.373737373737375,-2.474747474747474 2.373737373737375,-2.3737373737373733 2.373737373737375,-2.2727272727272725 2.373737373737375,-2.1717171717171713 2.373737373737375,-2.07070707070707 2.373737373737375,-1.9696969696969693 2.373737373737375,-1.8686868686868683 2.373737373737375,-1.7676767676767675 2.373737373737375,-1.6666666666666665 2.373737373737375,-1.5656565656565653 2.4747474747474754,-1.4646464646464643 2.4747474747474754,-1.363636363636363 2.575757575757577,-1.2626262626262625 2.676767676767678,-1.1616161616161613 2.7777777777777786,-1.0606060606060603 2.87878787878788,-0.9595959595959596 2.9797979797979806,-0.8585858585858579 3.080808080808082,-0.7575757575757572 3.181818181818183,-0.6565656565656557 3.2828282828282833,-0.555555555555555 3.383838383838384,-0.4545454545454544 3.4848484848484866,-0.35353535353535287 3.5858585858585874,-0.2525252525252522 3.6868686868686877,-0.15151515151515066 3.7878787878787885,-0.05050505050505001 3.8888888888888893,0.050505050505051545 3.989898989898992,0.1515151515151522 4.090909090909092,0.2525252525252529 4.191919191919193,0.3535353535353544 4.292929292929293,0.4545454545454551 4.393939393939394,0.5555555555555567 4.494949494949497,0.6565656565656574 4.494949494949497,0.7575757575757579 4.494949494949497,0.8585858585858596 4.494949494949497,0.9595959595959602 4.494949494949497,1.0606060606060617 4.494949494949497,1.1616161616161622 4.494949494949497,1.262626262626263 4.494949494949497,1.3636363636363644 4.494949494949497,1.4646464646464652 4.494949494949497,1.5656565656565666 4.494949494949497,1.6666666666666674 4.494949494949497,1.767676767676768 4.494949494949497,1.8686868686868696 4.494949494949497,1.9696969696969702 4.494949494949497,2.070707070707072 4.494949494949497,2.1717171717171726 4.494949494949497,2.2727272727272734 4.494949494949497,2.373737373737375 4.494949494949497,2.4747474747474754 4.494949494949497,2.575757575757577 4.494949494949497,2.676767676767678 4.494949494949497,2.7777777777777786 4.494949494949497,2.87878787878788 4.494949494949497,2.9797979797979806 4.494949494949497,3.080808080808082 4.494949494949497,3.181818181818183 4.494949494949497,3.2828282828282833 4.494949494949497,3.383838383838384 4.494949494949497,3.4848484848484866 4.494949494949497,3.5858585858585874 4.494949494949497,3.6868686868686877 4.494949494949497,3.7878787878787885 4.494949494949497,3.8888888888888893 4.494949494949497,3.989898989898992 4.494949494949497,4.090909090909092 4.494949494949497,4.191919191919193 4.494949494949497,4.292929292929293 4.494949494949497,4.393939393939394 4.494949494949497,4.494949494949497 4.494949494949497,4.595959595959597 4.494949494949497,4.696969696969697 4.494949494949497,4.7979797979797985 4.494949494949497,4.898989898989901 4.494949494949497,5.000000000000002" data-type="line" data-label="" points="564.4444444444445,984 573.9797979797979,974.4646464646464 583.5151515151515,964.9292929292928 593.0505050505051,955.3939393939394 602.5858585858585,945.8585858585858 612.1212121212121,936.3232323232323 621.6565656565656,926.7878787878788 631.1919191919192,917.2525252525252 640.7272727272727,907.7171717171718 650.2626262626262,898.1818181818181 659.7979797979798,888.6464646464647 669.3333333333333,879.1111111111111 678.8686868686868,869.5757575757575 688.4040404040404,860.0404040404039 697.9393939393939,850.5050505050505 707.4747474747475,840.969696969697 717.0101010101009,831.4343434343434 726.5454545454545,821.8989898989898 736.0808080808081,812.3636363636363 736.0808080808081,802.8282828282828 736.0808080808081,793.2929292929292 736.0808080808081,783.7575757575758 736.0808080808081,774.2222222222222 736.0808080808081,764.6868686868687 736.0808080808081,755.1515151515151 736.0808080808081,745.6161616161615 736.0808080808081,736.0808080808081 736.0808080808081,726.5454545454545 736.0808080808081,717.010101010101 736.0808080808081,707.4747474747475 736.0808080808081,697.939393939394 736.0808080808081,688.4040404040404 736.0808080808081,678.8686868686868 736.0808080808081,669.3333333333334 736.0808080808081,659.7979797979798 745.6161616161615,650.2626262626263 745.6161616161615,640.7272727272727 755.1515151515151,631.1919191919193 764.6868686868686,621.6565656565657 774.2222222222222,612.1212121212121 783.7575757575758,602.5858585858587 793.2929292929292,593.0505050505051 802.8282828282828,583.5151515151516 812.3636363636363,573.979797979798 821.8989898989898,564.4444444444445 831.4343434343433,554.909090909091 840.969696969697,545.3737373737374 850.5050505050505,535.838383838384 860.0404040404039,526.3030303030304 869.5757575757575,516.7676767676768 879.111111111111,507.23232323232327 888.6464646464647,497.69696969696975 898.181818181818,488.1616161616163 907.7171717171716,478.6262626262627 917.2525252525251,469.0909090909092 926.7878787878785,459.5555555555556 936.3232323232323,450.0202020202021 936.3232323232323,440.4848484848486 936.3232323232323,430.94949494949503 936.3232323232323,421.4141414141415 936.3232323232323,411.87878787878793 936.3232323232323,402.3434343434344 936.3232323232323,392.80808080808094 936.3232323232323,383.27272727272737 936.3232323232323,373.73737373737384 936.3232323232323,364.2020202020203 936.3232323232323,354.66666666666674 936.3232323232323,345.1313131313133 936.3232323232323,335.5959595959597 936.3232323232323,326.06060606060623 936.3232323232323,316.5252525252526 936.3232323232323,306.9898989898991 936.3232323232323,297.4545454545456 936.3232323232323,287.91919191919203 936.3232323232323,278.38383838383857 936.3232323232323,268.84848484848493 936.3232323232323,259.3131313131314 936.3232323232323,249.77777777777794 936.3232323232323,240.24242424242436 936.3232323232323,230.70707070707084 936.3232323232323,221.17171717171726 936.3232323232323,211.63636363636374 936.3232323232323,202.10101010101027 936.3232323232323,192.56565656565675 936.3232323232323,183.03030303030312 936.3232323232323,173.4949494949496 936.3232323232323,163.95959595959613 936.3232323232323,154.4242424242426 936.3232323232323,144.88888888888908 936.3232323232323,135.35353535353545 936.3232323232323,125.81818181818198 936.3232323232323,116.28282828282846 936.3232323232323,106.747474747475 936.3232323232323,97.21212121212153 936.3232323232323,87.67676767676778 936.3232323232323,78.14141414141432 936.3232323232323,68.60606060606085 936.3232323232323,59.07070707070733 936.3232323232323,49.53535353535369 936.3232323232323,40.000000000000114" fill="none" stroke="rgba(0,0,255,0.75)" stroke-width="14.159999999999995"/></g><g><rect data-type="rect" data-label="" data-x="0" data-y="0" x="40.000000000000114" y="40.000000000000284" width="943.9999999999997" height="943.9999999999998" fill="none" stroke="gray" stroke-width="0.010593220338983056"/></g><g><rect data-type="rect" data-label="" data-x="0" data-y="0" x="40.000000000000114" y="40.000000000000284" width="943.9999999999997" height="943.9999999999998" fill="none" stroke="rgba(15, 23, 42, 0.8)" stroke-width="0.010593220338983056"/></g><circle data-type="circle" data-label="" data-x="3.989898989898992" data-y="-2.1717171717171713" cx="888.6464646464647" cy="717.010101010101" r="28.791999999999987" fill="rgba(0,0,0,0.3)" stroke="black" stroke-width="0.010593220338983056"/><circle data-type="circle" data-label="" data-x="2.87878787878788" data-y="-1.5656565656565653" cx="783.7575757575758" cy="659.7979797979798" r="28.791999999999987" fill="rgba(0,0,0,0.3)" stroke="black" stroke-width="0.010593220338983056"/><g id="crosshair" style="display: none"><line id="crosshair-h" y1="0" y2="1024" stroke="#666" stroke-width="0.5"/><line id="crosshair-v" x1="0" x2="1024" stroke="#666" stroke-width="0.5"/><text id="coordinates" font-family="monospace" font-size="12" fill="#666"></text></g><script><![CDATA[
              document.currentScript.parentElement.addEventListener('mousemove', (e) => {
                const svg = e.currentTarget;
                const rect = svg.getBoundingClientRect();
                const x = e.clientX - rect.left;
                const y = e.clientY - rect.top;
                const crosshair = svg.getElementById('crosshair');
                const h = svg.getElementById('crosshair-h');
                const v = svg.getElementById('crosshair-v');
                const coords = svg.getElementById('coordinates');
                
                crosshair.style.display = 'block';
                h.setAttribute('x1', '0');
                h.setAttribute('x2', '1024');
                h.setAttribute('y1', y);
                h.setAttribute('y2', y);
                v.setAttribute('x1', x);
                v.setAttribute('x2', x);
                v.setAttribute('y1', '0');
                v.setAttribute('y2', '1024');

                // Calculate real coordinates using inverse transformation
                const matrix = {"a":94.39999999999996,"c":0,"e":511.99999999999994,"b":0,"d":-94.39999999999996,"f":512.0000000000001};
                // Manually invert and apply the affine transform
                // Since we only use translate and scale, we can directly compute:
                // x' = (x - tx) / sx
                // y' = (y - ty) / sy
                const sx = matrix.a;
                const sy = matrix.d;
                const tx = matrix.e; 
                const ty = matrix.f;
                const realPoint = {
                  x: (x - tx) / sx,
                  y: (y - ty) / sy // Flip y back since we used negative scale
                }
                
                coords.textContent = `(${realPoint.x.toFixed(2)}, ${realPoint.y.toFixed(2)})`;
                coords.setAttribute('x', (x + 5).toString());
                coords.setAttribute('y', (y - 5).toString());
              });
              document.currentScript.parentElement.addEventListener('mouseleave', () => {
                document.currentScript.parentElement.getElementById('crosshair').style.display = 'none';
              });
            ]]></script></svg>