<svg width="1024" height="1024" viewBox="0 0 1024 1024" xmlns="http://www.w3.org/2000/svg"><rect width="100%" height="100%" fill="white"/><g><circle data-type="point" data-label="conn_000" data-x="-1.26" data-y="-5" cx="393.056" cy="984" r="28.792" fill="red" stroke="#bda70f" stroke-width="28.792"/></g><g><circle data-type="point" data-label="conn_000" data-x="-5" data-y="0.42" cx="40.000000000000114" cy="472.35200000000015" r="28.792" fill="blue" stroke="#bda70f" stroke-width="28.792"/></g><g><circle data-type="point" data-label="conn_001" data-x="1.62" data-y="5" cx="664.9279999999999" cy="40.000000000000284" r="28.792" fill="red" stroke="#0fa0bd" stroke-width="28.792"/></g><g><circle data-type="point" data-label="conn_001" data-x="1.42" data-y="-5" cx="646.0479999999999" cy="984" r="28.792" fill="red" stroke="#0fa0bd" stroke-width="28.792"/></g><g><circle data-type="point" data-label="conn_002" data-x="-5" data-y="-2.34" cx="40.000000000000114" cy="732.896" r="28.792" fill="red" stroke="#bd0f6d" stroke-width="28.792"/></g><g><circle data-type="point" data-label="conn_002" data-x="5" data-y="0.88" cx="983.9999999999998" cy="428.9280000000001" r="28.792" fill="blue" stroke="#bd0f6d" stroke-width="28.792"/></g><g><circle data-type="point" data-label="conn_003" data-x="-5" data-y="-0.36" cx="40.000000000000114" cy="545.9840000000002" r="28.792" fill="red" stroke="#3bbd0f" stroke-width="28.792"/></g><g><circle data-type="point" data-label="conn_003" data-x="5" data-y="-3.06" cx="983.9999999999998" cy="800.864" r="28.792" fill="blue" stroke="#3bbd0f" stroke-width="28.792"/></g><g><circle data-type="point" data-label="conn_004" data-x="-5" data-y="4.28" cx="40.000000000000114" cy="107.96800000000025" r="28.792" fill="red" stroke="#170fbd" stroke-width="28.792"/></g><g><circle data-type="point" data-label="conn_004" data-x="5" data-y="4" cx="983.9999999999998" cy="134.40000000000026" r="28.792" fill="blue" stroke="#170fbd" stroke-width="28.792"/></g><g><polyline data-points="-5.000000000000001,-0.35353535353535287 -4.898989898989899,-0.4545454545454544 -4.7979797979797985,-0.555555555555555 -4.696969696969697,-0.6565656565656557 -4.595959595959596,-0.7575757575757572 -4.494949494949496,-0.8585858585858579 -4.393939393939394,-0.9595959595959596 -4.292929292929293,-1.0606060606060603 -4.191919191919193,-1.1616161616161613 -4.090909090909091,-1.2626262626262625 -3.98989898989899,-1.363636363636363 -3.8888888888888884,-1.4646464646464643 -3.7878787878787876,-1.5656565656565653 -3.6868686868686864,-1.6666666666666665 -3.5858585858585856,-1.7676767676767675 -3.484848484848485,-1.8686868686868683 -3.383838383838383,-1.9696969696969693 -3.2828282828282824,-2.07070707070707 -3.1818181818181817,-2.1717171717171713 -3.0808080808080804,-2.2727272727272725 -2.9797979797979792,-2.3737373737373733 -2.8787878787878785,-2.474747474747474 -2.7777777777777777,-2.5757575757575752 -2.6767676767676765,-2.6767676767676765 -2.5757575757575752,-2.7777777777777777 -2.474747474747474,-2.8787878787878785 -2.3737373737373733,-2.9797979797979792 -2.2727272727272725,-3.0808080808080804 -2.1717171717171713,-3.0808080808080804 -2.07070707070707,-3.0808080808080804 -1.9696969696969693,-3.0808080808080804 -1.8686868686868683,-3.0808080808080804 -1.7676767676767675,-3.0808080808080804 -1.6666666666666665,-3.0808080808080804 -1.5656565656565653,-3.0808080808080804 -1.4646464646464643,-3.0808080808080804 -1.363636363636363,-3.0808080808080804 -1.2626262626262625,-3.0808080808080804 -1.1616161616161613,-3.0808080808080804 -1.0606060606060603,-3.0808080808080804 -0.9595959595959596,-3.0808080808080804 -0.8585858585858579,-3.0808080808080804 -0.7575757575757572,-3.0808080808080804 -0.6565656565656557,-3.0808080808080804 -0.555555555555555,-3.0808080808080804 -0.4545454545454544,-3.0808080808080804 -0.35353535353535287,-3.0808080808080804 -0.2525252525252522,-3.0808080808080804 -0.15151515151515066,-3.0808080808080804 -0.05050505050505001,-3.0808080808080804 0.050505050505051545,-3.0808080808080804 0.1515151515151522,-3.0808080808080804 0.2525252525252529,-3.0808080808080804 0.3535353535353544,-3.0808080808080804 0.4545454545454551,-3.0808080808080804 0.5555555555555567,-3.0808080808080804 0.6565656565656574,-3.0808080808080804 0.7575757575757579,-3.0808080808080804 0.8585858585858596,-3.0808080808080804 0.9595959595959602,-3.0808080808080804 1.0606060606060617,-3.0808080808080804 1.1616161616161622,-3.0808080808080804 1.262626262626263,-3.0808080808080804 1.3636363636363644,-3.0808080808080804 1.4646464646464652,-3.0808080808080804 1.5656565656565666,-3.0808080808080804 1.6666666666666674,-3.0808080808080804 1.767676767676768,-3.0808080808080804 1.8686868686868696,-3.0808080808080804 1.9696969696969702,-3.0808080808080804 2.070707070707072,-3.0808080808080804 2.1717171717171726,-3.0808080808080804 2.2727272727272734,-3.0808080808080804 2.373737373737375,-3.0808080808080804 2.4747474747474754,-3.0808080808080804 2.575757575757577,-3.0808080808080804 2.676767676767678,-3.0808080808080804 2.7777777777777786,-3.0808080808080804 2.87878787878788,-3.0808080808080804 2.9797979797979806,-3.0808080808080804 3.080808080808082,-3.0808080808080804 3.181818181818183,-3.0808080808080804 3.2828282828282833,-3.0808080808080804 3.383838383838384,-3.0808080808080804 3.4848484848484866,-3.0808080808080804 3.5858585858585874,-3.0808080808080804 3.6868686868686877,-3.0808080808080804 3.7878787878787885,-3.0808080808080804 3.8888888888888893,-3.0808080808080804 3.989898989898992,-3.0808080808080804" data-type="line" data-label="" points="40.00000000000006,545.3737373737374 49.53535353535369,554.909090909091 59.07070707070716,564.4444444444445 68.60606060606068,573.979797979798 78.14141414141426,583.5151515151516 87.67676767676772,593.0505050505051 97.21212121212136,602.5858585858587 106.74747474747483,612.1212121212121 116.28282828282829,621.6565656565657 125.81818181818193,631.1919191919193 135.35353535353545,640.7272727272727 144.88888888888903,650.2626262626263 154.42424242424255,659.7979797979798 163.95959595959607,669.3333333333334 173.4949494949496,678.8686868686868 183.03030303030312,688.4040404040404 192.5656565656567,697.939393939394 202.10101010101022,707.4747474747475 211.63636363636374,717.010101010101 221.17171717171726,726.5454545454545 230.70707070707084,736.0808080808081 240.2424242424243,745.6161616161615 249.77777777777783,755.1515151515151 259.3131313131314,764.6868686868687 268.84848484848493,774.2222222222222 278.38383838383845,783.7575757575758 287.91919191919203,793.2929292929292 297.4545454545455,802.8282828282828 306.9898989898991,802.8282828282828 316.5252525252526,802.8282828282828 326.0606060606061,802.8282828282828 335.59595959595964,802.8282828282828 345.13131313131316,802.8282828282828 354.6666666666667,802.8282828282828 364.2020202020202,802.8282828282828 373.7373737373738,802.8282828282828 383.2727272727273,802.8282828282828 392.80808080808083,802.8282828282828 402.34343434343435,802.8282828282828 411.8787878787879,802.8282828282828 421.4141414141414,802.8282828282828 430.949494949495,802.8282828282828 440.4848484848485,802.8282828282828 450.0202020202021,802.8282828282828 459.55555555555554,802.8282828282828 469.09090909090907,802.8282828282828 478.62626262626264,802.8282828282828 488.16161616161617,802.8282828282828 497.69696969696975,802.8282828282828 507.2323232323232,802.8282828282828 516.7676767676768,802.8282828282828 526.3030303030303,802.8282828282828 535.8383838383838,802.8282828282828 545.3737373737374,802.8282828282828 554.9090909090909,802.8282828282828 564.4444444444445,802.8282828282828 573.9797979797979,802.8282828282828 583.5151515151515,802.8282828282828 593.0505050505051,802.8282828282828 602.5858585858585,802.8282828282828 612.1212121212121,802.8282828282828 621.6565656565656,802.8282828282828 631.1919191919192,802.8282828282828 640.7272727272727,802.8282828282828 650.2626262626262,802.8282828282828 659.7979797979798,802.8282828282828 669.3333333333333,802.8282828282828 678.8686868686868,802.8282828282828 688.4040404040404,802.8282828282828 697.9393939393939,802.8282828282828 707.4747474747475,802.8282828282828 717.0101010101009,802.8282828282828 726.5454545454545,802.8282828282828 736.0808080808081,802.8282828282828 745.6161616161615,802.8282828282828 755.1515151515151,802.8282828282828 764.6868686868686,802.8282828282828 774.2222222222222,802.8282828282828 783.7575757575758,802.8282828282828 793.2929292929292,802.8282828282828 802.8282828282828,802.8282828282828 812.3636363636363,802.8282828282828 821.8989898989898,802.8282828282828 831.4343434343433,802.8282828282828 840.969696969697,802.8282828282828 850.5050505050505,802.8282828282828 860.0404040404039,802.8282828282828 869.5757575757575,802.8282828282828 879.111111111111,802.8282828282828 888.6464646464647,802.8282828282828" fill="none" stroke="rgba(255,0,0,0.75)" stroke-width="14.159999999999995"/></g><g><polyline data-points="3.989898989898992,-3.0808080808080804 4.090909090909092,-3.0808080808080804 4.191919191919193,-3.0808080808080804 4.292929292929293,-3.0808080808080804 4.393939393939394,-3.0808080808080804 4.494949494949497,-3.0808080808080804 4.595959595959597,-3.0808080808080804 4.696969696969697,-3.0808080808080804 4.7979797979797985,-3.0808080808080804 4.898989898989901,-3.0808080808080804 5.000000000000002,-3.0808080808080804" data-type="line" data-label="" points="888.6464646464647,802.8282828282828 898.181818181818,802.8282828282828 907.7171717171716,802.8282828282828 917.2525252525251,802.8282828282828 926.7878787878785,802.8282828282828 936.3232323232323,802.8282828282828 945.8585858585857,802.8282828282828 955.3939393939393,802.8282828282828 964.9292929292927,802.8282828282828 974.4646464646464,802.8282828282828 984,802.8282828282828" fill="none" stroke="rgba(0,0,255,0.75)" stroke-width="14.159999999999995"/></g><g><polyline data-points="-5.000000000000001,4.292929292929293 -4.898989898989899,4.191919191919193 -4.7979797979797985,4.090909090909092 -4.696969696969697,4.090909090909092 -4.595959595959596,4.090909090909092 -4.494949494949496,4.090909090909092 -4.393939393939394,4.090909090909092 -4.292929292929293,4.090909090909092 -4.191919191919193,4.090909090909092 -4.090909090909091,4.090909090909092 -3.98989898989899,4.090909090909092 -3.8888888888888884,4.090909090909092 -3.7878787878787876,4.090909090909092 -3.6868686868686864,4.090909090909092 -3.5858585858585856,4.090909090909092 -3.484848484848485,4.090909090909092 -3.383838383838383,4.090909090909092 -3.2828282828282824,4.090909090909092 -3.1818181818181817,4.090909090909092 -3.0808080808080804,4.090909090909092 -2.9797979797979792,4.090909090909092 -2.8787878787878785,4.090909090909092 -2.7777777777777777,4.090909090909092 -2.6767676767676765,4.090909090909092 -2.5757575757575752,4.090909090909092 -2.474747474747474,4.090909090909092 -2.3737373737373733,4.090909090909092 -2.2727272727272725,4.090909090909092 -2.1717171717171713,4.090909090909092 -2.07070707070707,4.090909090909092 -1.9696969696969693,4.090909090909092 -1.8686868686868683,4.090909090909092 -1.7676767676767675,4.090909090909092 -1.6666666666666665,4.090909090909092 -1.5656565656565653,4.090909090909092 -1.4646464646464643,4.090909090909092 -1.363636363636363,4.090909090909092 -1.2626262626262625,4.090909090909092 -1.1616161616161613,4.090909090909092 -1.0606060606060603,4.090909090909092 -0.9595959595959596,4.090909090909092 -0.8585858585858579,4.090909090909092 -0.7575757575757572,4.090909090909092 -0.6565656565656557,4.090909090909092 -0.555555555555555,4.090909090909092 -0.4545454545454544,4.090909090909092 -0.35353535353535287,4.090909090909092 -0.2525252525252522,4.090909090909092 -0.15151515151515066,4.090909090909092 -0.05050505050505001,4.090909090909092 0.050505050505051545,4.090909090909092 0.1515151515151522,4.090909090909092 0.2525252525252529,4.090909090909092 0.3535353535353544,4.090909090909092 0.4545454545454551,4.090909090909092 0.5555555555555567,4.090909090909092 0.6565656565656574,4.090909090909092 0.7575757575757579,4.090909090909092 0.8585858585858596,4.090909090909092 0.9595959595959602,4.090909090909092 1.0606060606060617,4.090909090909092 1.1616161616161622,4.090909090909092 1.262626262626263,4.090909090909092 1.3636363636363644,4.090909090909092 1.4646464646464652,4.090909090909092 1.5656565656565666,4.090909090909092 1.6666666666666674,4.090909090909092 1.767676767676768,4.090909090909092 1.8686868686868696,4.090909090909092 1.9696969696969702,4.090909090909092 2.070707070707072,4.090909090909092 2.1717171717171726,4.090909090909092 2.2727272727272734,4.090909090909092 2.373737373737375,4.090909090909092 2.4747474747474754,4.090909090909092 2.575757575757577,4.090909090909092 2.676767676767678,4.090909090909092 2.7777777777777786,4.090909090909092 2.87878787878788,4.090909090909092 2.9797979797979806,4.090909090909092 3.080808080808082,4.090909090909092 3.181818181818183,4.090909090909092 3.2828282828282833,4.090909090909092 3.383838383838384,4.090909090909092 3.4848484848484866,4.090909090909092 3.5858585858585874,4.090909090909092 3.6868686868686877,4.090909090909092 3.7878787878787885,4.090909090909092 3.8888888888888893,4.090909090909092 3.989898989898992,3.989898989898992" data-type="line" data-label="" points="40.00000000000006,106.747474747475 49.53535353535369,116.28282828282846 59.07070707070716,125.81818181818198 68.60606060606068,125.81818181818198 78.14141414141426,125.81818181818198 87.67676767676772,125.81818181818198 97.21212121212136,125.81818181818198 106.74747474747483,125.81818181818198 116.28282828282829,125.81818181818198 125.81818181818193,125.81818181818198 135.35353535353545,125.81818181818198 144.88888888888903,125.81818181818198 154.42424242424255,125.81818181818198 163.95959595959607,125.81818181818198 173.4949494949496,125.81818181818198 183.03030303030312,125.81818181818198 192.5656565656567,125.81818181818198 202.10101010101022,125.81818181818198 211.63636363636374,125.81818181818198 221.17171717171726,125.81818181818198 230.70707070707084,125.81818181818198 240.2424242424243,125.81818181818198 249.77777777777783,125.81818181818198 259.3131313131314,125.81818181818198 268.84848484848493,125.81818181818198 278.38383838383845,125.81818181818198 287.91919191919203,125.81818181818198 297.4545454545455,125.81818181818198 306.9898989898991,125.81818181818198 316.5252525252526,125.81818181818198 326.0606060606061,125.81818181818198 335.59595959595964,125.81818181818198 345.13131313131316,125.81818181818198 354.6666666666667,125.81818181818198 364.2020202020202,125.81818181818198 373.7373737373738,125.81818181818198 383.2727272727273,125.81818181818198 392.80808080808083,125.81818181818198 402.34343434343435,125.81818181818198 411.8787878787879,125.81818181818198 421.4141414141414,125.81818181818198 430.949494949495,125.81818181818198 440.4848484848485,125.81818181818198 450.0202020202021,125.81818181818198 459.55555555555554,125.81818181818198 469.09090909090907,125.81818181818198 478.62626262626264,125.81818181818198 488.16161616161617,125.81818181818198 497.69696969696975,125.81818181818198 507.2323232323232,125.81818181818198 516.7676767676768,125.81818181818198 526.3030303030303,125.81818181818198 535.8383838383838,125.81818181818198 545.3737373737374,125.81818181818198 554.9090909090909,125.81818181818198 564.4444444444445,125.81818181818198 573.9797979797979,125.81818181818198 583.5151515151515,125.81818181818198 593.0505050505051,125.81818181818198 602.5858585858585,125.81818181818198 612.1212121212121,125.81818181818198 621.6565656565656,125.81818181818198 631.1919191919192,125.81818181818198 640.7272727272727,125.81818181818198 650.2626262626262,125.81818181818198 659.7979797979798,125.81818181818198 669.3333333333333,125.81818181818198 678.8686868686868,125.81818181818198 688.4040404040404,125.81818181818198 697.9393939393939,125.81818181818198 707.4747474747475,125.81818181818198 717.0101010101009,125.81818181818198 726.5454545454545,125.81818181818198 736.0808080808081,125.81818181818198 745.6161616161615,125.81818181818198 755.1515151515151,125.81818181818198 764.6868686868686,125.81818181818198 774.2222222222222,125.81818181818198 783.7575757575758,125.81818181818198 793.2929292929292,125.81818181818198 802.8282828282828,125.81818181818198 812.3636363636363,125.81818181818198 821.8989898989898,125.81818181818198 831.4343434343433,125.81818181818198 840.969696969697,125.81818181818198 850.5050505050505,125.81818181818198 860.0404040404039,125.81818181818198 869.5757575757575,125.81818181818198 879.111111111111,125.81818181818198 888.6464646464647,135.35353535353545" fill="none" stroke="rgba(255,0,0,0.75)" stroke-width="14.159999999999995"/></g><g><polyline data-points="3.989898989898992,3.989898989898992 4.090909090909092,4.090909090909092 4.191919191919193,4.090909090909092 4.292929292929293,4.090909090909092 4.393939393939394,4.090909090909092 4.494949494949497,4.090909090909092 4.595959595959597,4.090909090909092 4.696969696969697,4.090909090909092 4.7979797979797985,4.090909090909092 4.898989898989901,4.090909090909092 5.000000000000002,4.090909090909092" data-type="line" data-label="" points="888.6464646464647,135.35353535353545 898.181818181818,125.81818181818198 907.7171717171716,125.81818181818198 917.2525252525251,125.81818181818198 926.7878787878785,125.81818181818198 936.3232323232323,125.81818181818198 945.8585858585857,125.81818181818198 955.3939393939393,125.81818181818198 964.9292929292927,125.81818181818198 974.4646464646464,125.81818181818198 984,125.81818181818198" fill="none" stroke="rgba(0,0,255,0.75)" stroke-width="14.159999999999995"/></g><g><polyline data-points="1.6666666666666674,5.000000000000002 1.767676767676768,4.898989898989901 1.8686868686868696,4.7979797979797985 1.9696969696969702,4.7979797979797985 2.070707070707072,4.7979797979797985 2.1717171717171726,4.7979797979797985 2.2727272727272734,4.7979797979797985 2.373737373737375,4.7979797979797985 2.4747474747474754,4.7979797979797985 2.575757575757577,4.7979797979797985 2.676767676767678,4.7979797979797985 2.7777777777777786,4.7979797979797985 2.87878787878788,4.7979797979797985 2.9797979797979806,4.696969696969697 3.080808080808082,4.696969696969697 3.181818181818183,4.696969696969697 3.2828282828282833,4.696969696969697 3.383838383838384,4.595959595959597 3.4848484848484866,4.595959595959597 3.5858585858585874,4.595959595959597 3.6868686868686877,4.595959595959597 3.7878787878787885,4.494949494949497 3.8888888888888893,4.494949494949497 3.989898989898992,4.494949494949497 4.090909090909092,4.393939393939394 4.191919191919193,4.393939393939394 4.292929292929293,4.292929292929293 4.393939393939394,4.191919191919193 4.393939393939394,4.090909090909092 4.494949494949497,3.989898989898992 4.393939393939394,3.8888888888888893 4.393939393939394,3.7878787878787885 4.292929292929293,3.6868686868686877 4.191919191919193,3.5858585858585874 4.090909090909092,3.4848484848484866 3.989898989898992,3.383838383838384 3.8888888888888893,3.2828282828282833 3.7878787878787885,3.181818181818183 3.6868686868686877,3.080808080808082 3.5858585858585874,2.9797979797979806 3.4848484848484866,2.87878787878788 3.383838383838384,2.7777777777777786 3.2828282828282833,2.676767676767678 3.181818181818183,2.575757575757577 3.080808080808082,2.4747474747474754 2.9797979797979806,2.373737373737375 2.87878787878788,2.2727272727272734 2.7777777777777786,2.1717171717171726 2.676767676767678,2.070707070707072 2.575757575757577,1.9696969696969702 2.4747474747474754,1.8686868686868696 2.373737373737375,1.767676767676768 2.2727272727272734,1.6666666666666674 2.1717171717171726,1.5656565656565666 2.070707070707072,1.4646464646464652 1.9696969696969702,1.3636363636363644 1.8686868686868696,1.262626262626263 1.767676767676768,1.1616161616161622 1.6666666666666674,1.0606060606060617 1.5656565656565666,0.9595959595959602 1.4646464646464652,0.8585858585858596 1.4646464646464652,0.7575757575757579 1.4646464646464652,0.6565656565656574 1.4646464646464652,0.5555555555555567 1.4646464646464652,0.4545454545454551 1.4646464646464652,0.3535353535353544 1.4646464646464652,0.2525252525252529 1.4646464646464652,0.1515151515151522 1.4646464646464652,0.050505050505051545 1.4646464646464652,-0.05050505050505001 1.4646464646464652,-0.15151515151515066 1.4646464646464652,-0.2525252525252522 1.4646464646464652,-0.35353535353535287 1.4646464646464652,-0.4545454545454544 1.4646464646464652,-0.555555555555555 1.4646464646464652,-0.6565656565656557 1.4646464646464652,-0.7575757575757572 1.4646464646464652,-0.8585858585858579 1.4646464646464652,-0.9595959595959596 1.4646464646464652,-1.0606060606060603 1.4646464646464652,-1.1616161616161613 1.4646464646464652,-1.2626262626262625 1.4646464646464652,-1.363636363636363 1.4646464646464652,-1.4646464646464643 1.4646464646464652,-1.5656565656565653 1.4646464646464652,-1.6666666666666665 1.4646464646464652,-1.7676767676767675 1.4646464646464652,-1.8686868686868683 1.4646464646464652,-1.9696969696969693 1.4646464646464652,-2.07070707070707 1.4646464646464652,-2.1717171717171713 1.4646464646464652,-2.2727272727272725 1.4646464646464652,-2.3737373737373733 1.4646464646464652,-2.474747474747474" data-type="line" data-label="" points="669.3333333333333,40.000000000000114 678.8686868686868,49.53535353535369 688.4040404040404,59.07070707070733 697.9393939393939,59.07070707070733 707.4747474747475,59.07070707070733 717.0101010101009,59.07070707070733 726.5454545454545,59.07070707070733 736.0808080808081,59.07070707070733 745.6161616161615,59.07070707070733 755.1515151515151,59.07070707070733 764.6868686868686,59.07070707070733 774.2222222222222,59.07070707070733 783.7575757575758,59.07070707070733 793.2929292929292,68.60606060606085 802.8282828282828,68.60606060606085 812.3636363636363,68.60606060606085 821.8989898989898,68.60606060606085 831.4343434343433,78.14141414141432 840.969696969697,78.14141414141432 850.5050505050505,78.14141414141432 860.0404040404039,78.14141414141432 869.5757575757575,87.67676767676778 879.111111111111,87.67676767676778 888.6464646464647,87.67676767676778 898.181818181818,97.21212121212153 907.7171717171716,97.21212121212153 917.2525252525251,106.747474747475 926.7878787878785,116.28282828282846 926.7878787878785,125.81818181818198 936.3232323232323,135.35353535353545 926.7878787878785,144.88888888888908 926.7878787878785,154.4242424242426 917.2525252525251,163.95959595959613 907.7171717171716,173.4949494949496 898.181818181818,183.03030303030312 888.6464646464647,192.56565656565675 879.111111111111,202.10101010101027 869.5757575757575,211.63636363636374 860.0404040404039,221.17171717171726 850.5050505050505,230.70707070707084 840.969696969697,240.24242424242436 831.4343434343433,249.77777777777794 821.8989898989898,259.3131313131314 812.3636363636363,268.84848484848493 802.8282828282828,278.38383838383857 793.2929292929292,287.91919191919203 783.7575757575758,297.4545454545456 774.2222222222222,306.9898989898991 764.6868686868686,316.5252525252526 755.1515151515151,326.06060606060623 745.6161616161615,335.5959595959597 736.0808080808081,345.1313131313133 726.5454545454545,354.66666666666674 717.0101010101009,364.2020202020203 707.4747474747475,373.73737373737384 697.9393939393939,383.27272727272737 688.4040404040404,392.80808080808094 678.8686868686868,402.3434343434344 669.3333333333333,411.87878787878793 659.7979797979798,421.4141414141415 650.2626262626262,430.94949494949503 650.2626262626262,440.4848484848486 650.2626262626262,450.0202020202021 650.2626262626262,459.5555555555556 650.2626262626262,469.0909090909092 650.2626262626262,478.6262626262627 650.2626262626262,488.1616161616163 650.2626262626262,497.69696969696975 650.2626262626262,507.23232323232327 650.2626262626262,516.7676767676768 650.2626262626262,526.3030303030304 650.2626262626262,535.838383838384 650.2626262626262,545.3737373737374 650.2626262626262,554.909090909091 650.2626262626262,564.4444444444445 650.2626262626262,573.979797979798 650.2626262626262,583.5151515151516 650.2626262626262,593.0505050505051 650.2626262626262,602.5858585858587 650.2626262626262,612.1212121212121 650.2626262626262,621.6565656565657 650.2626262626262,631.1919191919193 650.2626262626262,640.7272727272727 650.2626262626262,650.2626262626263 650.2626262626262,659.7979797979798 650.2626262626262,669.3333333333334 650.2626262626262,678.8686868686868 650.2626262626262,688.4040404040404 650.2626262626262,697.939393939394 650.2626262626262,707.4747474747475 650.2626262626262,717.010101010101 650.2626262626262,726.5454545454545 650.2626262626262,736.0808080808081 650.2626262626262,745.6161616161615" fill="none" stroke="rgba(255,0,0,0.75)" stroke-width="14.159999999999995"/></g><g><polyline data-points="1.4646464646464652,-2.474747474747474 1.4646464646464652,-2.5757575757575752 1.4646464646464652,-2.6767676767676765 1.4646464646464652,-2.7777777777777777 1.4646464646464652,-2.8787878787878785 1.4646464646464652,-2.9797979797979792 1.4646464646464652,-3.0808080808080804 1.4646464646464652,-3.1818181818181817 1.4646464646464652,-3.2828282828282824 1.4646464646464652,-3.383838383838383 1.4646464646464652,-3.484848484848485 1.4646464646464652,-3.5858585858585856 1.4646464646464652,-3.6868686868686864 1.4646464646464652,-3.7878787878787876 1.4646464646464652,-3.8888888888888884 1.4646464646464652,-3.98989898989899" data-type="line" data-label="" points="650.2626262626262,745.6161616161615 650.2626262626262,755.1515151515151 650.2626262626262,764.6868686868687 650.2626262626262,774.2222222222222 650.2626262626262,783.7575757575758 650.2626262626262,793.2929292929292 650.2626262626262,802.8282828282828 650.2626262626262,812.3636363636363 650.2626262626262,821.8989898989898 650.2626262626262,831.4343434343434 650.2626262626262,840.969696969697 650.2626262626262,850.5050505050505 650.2626262626262,860.0404040404039 650.2626262626262,869.5757575757575 650.2626262626262,879.1111111111111 650.2626262626262,888.6464646464647" fill="none" stroke="rgba(0,0,255,0.75)" stroke-width="14.159999999999995"/></g><g><polyline data-points="1.4646464646464652,-3.98989898989899 1.4646464646464652,-4.090909090909091 1.4646464646464652,-4.191919191919193 1.4646464646464652,-4.292929292929293 1.4646464646464652,-4.393939393939394 1.4646464646464652,-4.494949494949496 1.4646464646464652,-4.595959595959596 1.4646464646464652,-4.696969696969697 1.4646464646464652,-4.7979797979797985 1.4646464646464652,-4.898989898989899 1.4646464646464652,-5.000000000000001" data-type="line" data-label="" points="650.2626262626262,888.6464646464647 650.2626262626262,898.1818181818181 650.2626262626262,907.7171717171718 650.2626262626262,917.2525252525252 650.2626262626262,926.7878787878788 650.2626262626262,936.3232323232323 650.2626262626262,945.8585858585858 650.2626262626262,955.3939393939394 650.2626262626262,964.9292929292928 650.2626262626262,974.4646464646464 650.2626262626262,984" fill="none" stroke="rgba(255,0,0,0.75)" stroke-width="14.159999999999995"/></g><g><polyline data-points="-1.2626262626262625,-5.000000000000001 -1.363636363636363,-4.898989898989899 -1.4646464646464643,-4.7979797979797985 -1.5656565656565653,-4.696969696969697 -1.6666666666666665,-4.595959595959596 -1.7676767676767675,-4.494949494949496 -1.8686868686868683,-4.393939393939394 -1.9696969696969693,-4.292929292929293 -2.07070707070707,-4.191919191919193 -2.1717171717171713,-4.090909090909091 -2.2727272727272725,-3.98989898989899 -2.3737373737373733,-3.8888888888888884 -2.474747474747474,-3.7878787878787876 -2.5757575757575752,-3.6868686868686864 -2.6767676767676765,-3.5858585858585856 -2.7777777777777777,-3.484848484848485 -2.8787878787878785,-3.383838383838383 -2.9797979797979792,-3.2828282828282824 -3.0808080808080804,-3.1818181818181817 -3.1818181818181817,-3.0808080808080804 -3.2828282828282824,-2.9797979797979792 -3.383838383838383,-2.8787878787878785 -3.484848484848485,-2.7777777777777777 -3.5858585858585856,-2.6767676767676765 -3.6868686868686864,-2.5757575757575752 -3.7878787878787876,-2.474747474747474 -3.8888888888888884,-2.3737373737373733 -3.98989898989899,-2.2727272727272725" data-type="line" data-label="" points="392.80808080808083,984 383.2727272727273,974.4646464646464 373.7373737373738,964.9292929292928 364.2020202020202,955.3939393939394 354.6666666666667,945.8585858585858 345.13131313131316,936.3232323232323 335.59595959595964,926.7878787878788 326.0606060606061,917.2525252525252 316.5252525252526,907.7171717171718 306.9898989898991,898.1818181818181 297.4545454545455,888.6464646464647 287.91919191919203,879.1111111111111 278.38383838383845,869.5757575757575 268.84848484848493,860.0404040404039 259.3131313131314,850.5050505050505 249.77777777777783,840.969696969697 240.2424242424243,831.4343434343434 230.70707070707084,821.8989898989898 221.17171717171726,812.3636363636363 211.63636363636374,802.8282828282828 202.10101010101022,793.2929292929292 192.5656565656567,783.7575757575758 183.03030303030312,774.2222222222222 173.4949494949496,764.6868686868687 163.95959595959607,755.1515151515151 154.42424242424255,745.6161616161615 144.88888888888903,736.0808080808081 135.35353535353545,726.5454545454545" fill="none" stroke="rgba(255,0,0,0.75)" stroke-width="14.159999999999995"/></g><g><polyline data-points="-3.98989898989899,-2.2727272727272725 -4.090909090909091,-2.1717171717171713 -4.191919191919193,-2.07070707070707 -4.292929292929293,-1.9696969696969693 -4.393939393939394,-1.8686868686868683 -4.494949494949496,-1.7676767676767675 -4.595959595959596,-1.6666666666666665 -4.696969696969697,-1.5656565656565653 -4.7979797979797985,-1.4646464646464643 -4.898989898989899,-1.363636363636363 -5.000000000000001,-1.2626262626262625 -5.000000000000001,-1.1616161616161613 -5.000000000000001,-1.0606060606060603 -5.000000000000001,-0.9595959595959596 -5.000000000000001,-0.8585858585858579 -5.000000000000001,-0.7575757575757572 -5.000000000000001,-0.6565656565656557 -5.000000000000001,-0.555555555555555 -5.000000000000001,-0.4545454545454544 -5.000000000000001,-0.35353535353535287 -5.000000000000001,-0.2525252525252522 -5.000000000000001,-0.15151515151515066 -5.000000000000001,-0.05050505050505001 -5.000000000000001,0.050505050505051545 -5.000000000000001,0.1515151515151522 -5.000000000000001,0.2525252525252529 -5.000000000000001,0.3535353535353544 -5.000000000000001,0.4545454545454551" data-type="line" data-label="" points="135.35353535353545,726.5454545454545 125.81818181818193,717.010101010101 116.28282828282829,707.4747474747475 106.74747474747483,697.939393939394 97.21212121212136,688.4040404040404 87.67676767676772,678.8686868686868 78.14141414141426,669.3333333333334 68.60606060606068,659.7979797979798 59.07070707070716,650.2626262626263 49.53535353535369,640.7272727272727 40.00000000000006,631.1919191919193 40.00000000000006,621.6565656565657 40.00000000000006,612.1212121212121 40.00000000000006,602.5858585858587 40.00000000000006,593.0505050505051 40.00000000000006,583.5151515151516 40.00000000000006,573.979797979798 40.00000000000006,564.4444444444445 40.00000000000006,554.909090909091 40.00000000000006,545.3737373737374 40.00000000000006,535.838383838384 40.00000000000006,526.3030303030304 40.00000000000006,516.7676767676768 40.00000000000006,507.23232323232327 40.00000000000006,497.69696969696975 40.00000000000006,488.1616161616163 40.00000000000006,478.6262626262627 40.00000000000006,469.0909090909092" fill="none" stroke="rgba(0,0,255,0.75)" stroke-width="14.159999999999995"/></g><g><polyline data-points="-5.000000000000001,-2.3737373737373733 -4.898989898989899,-2.3737373737373733 -4.7979797979797985,-2.3737373737373733 -4.696969696969697,-2.474747474747474 -4.595959595959596,-2.5757575757575752 -4.494949494949496,-2.6767676767676765 -4.393939393939394,-2.7777777777777777 -4.292929292929293,-2.8787878787878785 -4.191919191919193,-2.9797979797979792 -4.090909090909091,-3.0808080808080804 -3.98989898989899,-3.1818181818181817" data-type="line" data-label="" points="40.00000000000006,736.0808080808081 49.53535353535369,736.0808080808081 59.07070707070716,736.0808080808081 68.60606060606068,745.6161616161615 78.14141414141426,755.1515151515151 87.67676767676772,764.6868686868687 97.21212121212136,774.2222222222222 106.74747474747483,783.7575757575758 116.28282828282829,793.2929292929292 125.81818181818193,802.8282828282828 135.35353535353545,812.3636363636363" fill="none" stroke="rgba(255,0,0,0.75)" stroke-width="14.159999999999995"/></g><g><polyline data-points="-3.98989898989899,-3.1818181818181817 -3.8888888888888884,-3.0808080808080804 -3.7878787878787876,-2.9797979797979792 -3.6868686868686864,-2.8787878787878785 -3.5858585858585856,-2.7777777777777777 -3.484848484848485,-2.6767676767676765 -3.383838383838383,-2.5757575757575752 -3.2828282828282824,-2.474747474747474 -3.1818181818181817,-2.3737373737373733 -3.0808080808080804,-2.2727272727272725 -2.9797979797979792,-2.1717171717171713 -2.8787878787878785,-2.07070707070707 -2.7777777777777777,-1.9696969696969693 -2.6767676767676765,-1.8686868686868683 -2.5757575757575752,-1.7676767676767675 -2.474747474747474,-1.6666666666666665 -2.3737373737373733,-1.5656565656565653 -2.2727272727272725,-1.4646464646464643 -2.1717171717171713,-1.363636363636363 -2.07070707070707,-1.2626262626262625 -1.9696969696969693,-1.1616161616161613 -1.8686868686868683,-1.0606060606060603 -1.7676767676767675,-0.9595959595959596 -1.6666666666666665,-0.8585858585858579 -1.5656565656565653,-0.7575757575757572 -1.4646464646464643,-0.6565656565656557 -1.363636363636363,-0.555555555555555 -1.2626262626262625,-0.4545454545454544 -1.1616161616161613,-0.35353535353535287 -1.0606060606060603,-0.2525252525252522 -0.9595959595959596,-0.15151515151515066 -0.8585858585858579,-0.05050505050505001 -0.7575757575757572,0.050505050505051545 -0.6565656565656557,0.1515151515151522 -0.555555555555555,0.2525252525252529 -0.4545454545454544,0.3535353535353544 -0.35353535353535287,0.4545454545454551 -0.2525252525252522,0.5555555555555567 -0.15151515151515066,0.6565656565656574 -0.05050505050505001,0.7575757575757579 0.050505050505051545,0.8585858585858596 0.1515151515151522,0.8585858585858596 0.2525252525252529,0.8585858585858596 0.3535353535353544,0.8585858585858596 0.4545454545454551,0.8585858585858596 0.5555555555555567,0.8585858585858596 0.6565656565656574,0.8585858585858596 0.7575757575757579,0.8585858585858596 0.8585858585858596,0.8585858585858596 0.9595959595959602,0.8585858585858596 1.0606060606060617,0.8585858585858596 1.1616161616161622,0.8585858585858596 1.262626262626263,0.8585858585858596 1.3636363636363644,0.8585858585858596 1.4646464646464652,0.8585858585858596 1.5656565656565666,0.8585858585858596 1.6666666666666674,0.8585858585858596 1.767676767676768,0.8585858585858596 1.8686868686868696,0.8585858585858596 1.9696969696969702,0.8585858585858596 2.070707070707072,0.8585858585858596 2.1717171717171726,0.8585858585858596 2.2727272727272734,0.8585858585858596 2.373737373737375,0.8585858585858596 2.4747474747474754,0.8585858585858596 2.575757575757577,0.8585858585858596 2.676767676767678,0.8585858585858596 2.7777777777777786,0.8585858585858596 2.87878787878788,0.8585858585858596 2.9797979797979806,0.8585858585858596 3.080808080808082,0.8585858585858596 3.181818181818183,0.8585858585858596 3.2828282828282833,0.8585858585858596 3.383838383838384,0.8585858585858596 3.4848484848484866,0.8585858585858596 3.5858585858585874,0.8585858585858596 3.6868686868686877,0.8585858585858596 3.7878787878787885,0.8585858585858596 3.8888888888888893,0.8585858585858596 3.989898989898992,0.8585858585858596 4.090909090909092,0.8585858585858596 4.191919191919193,0.8585858585858596 4.292929292929293,0.8585858585858596 4.393939393939394,0.8585858585858596 4.494949494949497,0.8585858585858596 4.595959595959597,0.8585858585858596 4.696969696969697,0.8585858585858596 4.7979797979797985,0.8585858585858596 4.898989898989901,0.8585858585858596 5.000000000000002,0.8585858585858596" data-type="line" data-label="" points="135.35353535353545,812.3636363636363 144.88888888888903,802.8282828282828 154.42424242424255,793.2929292929292 163.95959595959607,783.7575757575758 173.4949494949496,774.2222222222222 183.03030303030312,764.6868686868687 192.5656565656567,755.1515151515151 202.10101010101022,745.6161616161615 211.63636363636374,736.0808080808081 221.17171717171726,726.5454545454545 230.70707070707084,717.010101010101 240.2424242424243,707.4747474747475 249.77777777777783,697.939393939394 259.3131313131314,688.4040404040404 268.84848484848493,678.8686868686868 278.38383838383845,669.3333333333334 287.91919191919203,659.7979797979798 297.4545454545455,650.2626262626263 306.9898989898991,640.7272727272727 316.5252525252526,631.1919191919193 326.0606060606061,621.6565656565657 335.59595959595964,612.1212121212121 345.13131313131316,602.5858585858587 354.6666666666667,593.0505050505051 364.2020202020202,583.5151515151516 373.7373737373738,573.979797979798 383.2727272727273,564.4444444444445 392.80808080808083,554.909090909091 402.34343434343435,545.3737373737374 411.8787878787879,535.838383838384 421.4141414141414,526.3030303030304 430.949494949495,516.7676767676768 440.4848484848485,507.23232323232327 450.0202020202021,497.69696969696975 459.55555555555554,488.1616161616163 469.09090909090907,478.6262626262627 478.62626262626264,469.0909090909092 488.16161616161617,459.5555555555556 497.69696969696975,450.0202020202021 507.2323232323232,440.4848484848486 516.7676767676768,430.94949494949503 526.3030303030303,430.94949494949503 535.8383838383838,430.94949494949503 545.3737373737374,430.94949494949503 554.9090909090909,430.94949494949503 564.4444444444445,430.94949494949503 573.9797979797979,430.94949494949503 583.5151515151515,430.94949494949503 593.0505050505051,430.94949494949503 602.5858585858585,430.94949494949503 612.1212121212121,430.94949494949503 621.6565656565656,430.94949494949503 631.1919191919192,430.94949494949503 640.7272727272727,430.94949494949503 650.2626262626262,430.94949494949503 659.7979797979798,430.94949494949503 669.3333333333333,430.94949494949503 678.8686868686868,430.94949494949503 688.4040404040404,430.94949494949503 697.9393939393939,430.94949494949503 707.4747474747475,430.94949494949503 717.0101010101009,430.94949494949503 726.5454545454545,430.94949494949503 736.0808080808081,430.94949494949503 745.6161616161615,430.94949494949503 755.1515151515151,430.94949494949503 764.6868686868686,430.94949494949503 774.2222222222222,430.94949494949503 783.7575757575758,430.94949494949503 793.2929292929292,430.94949494949503 802.8282828282828,430.94949494949503 812.3636363636363,430.94949494949503 821.8989898989898,430.94949494949503 831.4343434343433,430.94949494949503 840.969696969697,430.94949494949503 850.5050505050505,430.94949494949503 860.0404040404039,430.94949494949503 869.5757575757575,430.94949494949503 879.111111111111,430.94949494949503 888.6464646464647,430.94949494949503 898.181818181818,430.94949494949503 907.7171717171716,430.94949494949503 917.2525252525251,430.94949494949503 926.7878787878785,430.94949494949503 936.3232323232323,430.94949494949503 945.8585858585857,430.94949494949503 955.3939393939393,430.94949494949503 964.9292929292927,430.94949494949503 974.4646464646464,430.94949494949503 984,430.94949494949503" fill="none" stroke="rgba(0,0,255,0.75)" stroke-width="14.159999999999995"/></g><g><rect data-type="rect" data-label="" data-x="0" data-y="0" x="40.000000000000114" y="40.000000000000284" width="943.9999999999997" height="943.9999999999998" fill="none" stroke="gray" stroke-width="0.010593220338983056"/></g><g><rect data-type="rect" data-label="" data-x="0" data-y="0" x="40.000000000000114" y="40.000000000000284" width="943.9999999999997" height="943.9999999999998" fill="none" stroke="rgba(15, 23, 42, 0.8)" stroke-width="0.010593220338983056"/></g><circle data-type="circle" data-label="" data-x="3.989898989898992" data-y="-3.0808080808080804" cx="888.6464646464647" cy="802.8282828282828" r="28.791999999999987" fill="rgba(0,0,0,0.3)" stroke="black" stroke-width="0.010593220338983056"/><circle data-type="circle" data-label="" data-x="3.989898989898992" data-y="3.989898989898992" cx="888.6464646464647" cy="135.35353535353545" r="28.791999999999987" fill="rgba(0,0,0,0.3)" stroke="black" stroke-width="0.010593220338983056"/><circle data-type="circle" data-label="" data-x="1.4646464646464652" data-y="-2.474747474747474" cx="650.2626262626262" cy="745.6161616161615" r="28.791999999999987" fill="rgba(0,0,0,0.3)" stroke="black" stroke-width="0.010593220338983056"/><circle data-type="circle" data-label="" data-x="1.4646464646464652" data-y="-3.98989898989899" cx="650.2626262626262" cy="888.6464646464647" r="28.791999999999987" fill="rgba(0,0,0,0.3)" stroke="black" stroke-width="0.010593220338983056"/><circle data-type="circle" data-label="" data-x="-3.98989898989899" data-y="-2.2727272727272725" cx="135.35353535353545" cy="726.5454545454545" r="28.791999999999987" fill="rgba(0,0,0,0.3)" stroke="black" stroke-width="0.010593220338983056"/><circle data-type="circle" data-label="" data-x="-3.98989898989899" data-y="-3.1818181818181817" cx="135.35353535353545" cy="812.3636363636363" r="28.791999999999987" fill="rgba(0,0,0,0.3)" stroke="black" stroke-width="0.010593220338983056"/><g id="crosshair" style="display: none"><line id="crosshair-h" y1="0" y2="1024" stroke="#666" stroke-width="0.5"/><line id="crosshair-v" x1="0" x2="1024" stroke="#666" stroke-width="0.5"/><text id="coordinates" font-family="monospace" font-size="12" fill="#666"></text></g><script><![CDATA[
              document.currentScript.parentElement.addEventListener('mousemove', (e) => {
                const svg = e.currentTarget;
                const rect = svg.getBoundingClientRect();
                const x = e.clientX - rect.left;
                const y = e.clientY - rect.top;
                const crosshair = svg.getElementById('crosshair');
                const h = svg.getElementById('crosshair-h');
                const v = svg.getElementById('crosshair-v');
                const coords = svg.getElementById('coordinates');
                
                crosshair.style.display = 'block';
                h.setAttribute('x1', '0');
                h.setAttribute('x2', '1024');
                h.setAttribute('y1', y);
                h.setAttribute('y2', y);
                v.setAttribute('x1', x);
                v.setAttribute('x2', x);
                v.setAttribute('y1', '0');
                v.setAttribute('y2', '1024');

                // Calculate real coordinates using inverse transformation
                const matrix = {"a":94.39999999999996,"c":0,"e":511.99999999999994,"b":0,"d":-94.39999999999996,"f":512.0000000000001};
                // Manually invert and apply the affine transform
                // Since we only use translate and scale, we can directly compute:
                // x' = (x - tx) / sx
                // y' = (y - ty) / sy
                const sx = matrix.a;
                const sy = matrix.d;
                const tx = matrix.e; 
                const ty = matrix.f;
                const realPoint = {
                  x: (x - tx) / sx,
                  y: (y - ty) / sy // Flip y back since we used negative scale
                }
                
                coords.textContent = `(${realPoint.x.toFixed(2)}, ${realPoint.y.toFixed(2)})`;
                coords.setAttribute('x', (x + 5).toString());
                coords.setAttribute('y', (y - 5).toString());
              });
              document.currentScript.parentElement.addEventListener('mouseleave', () => {
                document.currentScript.parentElement.getElementById('crosshair').style.display = 'none';
              });
            ]]></script></svg>