<svg width="1024" height="1024" viewBox="0 0 1024 1024" xmlns="http://www.w3.org/2000/svg"><rect width="100%" height="100%" fill="white"/><g><circle data-type="point" data-label="conn_000" data-x="-1.84" data-y="-5" cx="338.304" cy="984" r="28.792" fill="blue" stroke="#0fa0bd" stroke-width="28.792"/></g><g><circle data-type="point" data-label="conn_000" data-x="1.74" data-y="5" cx="676.2559999999999" cy="40.000000000000284" r="28.792" fill="blue" stroke="#0fa0bd" stroke-width="28.792"/></g><g><circle data-type="point" data-label="conn_001" data-x="-5" data-y="-3.98" cx="40.000000000000114" cy="887.712" r="28.792" fill="blue" stroke="#bd0f6d" stroke-width="28.792"/></g><g><circle data-type="point" data-label="conn_001" data-x="5" data-y="2.74" cx="983.9999999999998" cy="253.34400000000022" r="28.792" fill="red" stroke="#bd0f6d" stroke-width="28.792"/></g><g><circle data-type="point" data-label="conn_002" data-x="-5" data-y="0.56" cx="40.000000000000114" cy="459.13600000000014" r="28.792" fill="red" stroke="#3bbd0f" stroke-width="28.792"/></g><g><circle data-type="point" data-label="conn_002" data-x="-5" data-y="-2.04" cx="40.000000000000114" cy="704.576" r="28.792" fill="blue" stroke="#3bbd0f" stroke-width="28.792"/></g><g><circle data-type="point" data-label="conn_003" data-x="5" data-y="-4.68" cx="983.9999999999998" cy="953.7919999999999" r="28.792" fill="blue" stroke="#170fbd" stroke-width="28.792"/></g><g><circle data-type="point" data-label="conn_003" data-x="3.04" data-y="5" cx="798.9759999999999" cy="40.000000000000284" r="28.792" fill="red" stroke="#170fbd" stroke-width="28.792"/></g><g><circle data-type="point" data-label="conn_004" data-x="5" data-y="2.12" cx="983.9999999999998" cy="311.8720000000002" r="28.792" fill="blue" stroke="#bd490f" stroke-width="28.792"/></g><g><circle data-type="point" data-label="conn_004" data-x="2.94" data-y="-5" cx="789.5359999999998" cy="984" r="28.792" fill="blue" stroke="#bd490f" stroke-width="28.792"/></g><g><polyline data-points="5.000000000000002,2.1717171717171726 4.898989898989901,2.070707070707072 4.7979797979797985,1.9696969696969702 4.696969696969697,1.8686868686868696 4.595959595959597,1.767676767676768 4.494949494949497,1.6666666666666674 4.393939393939394,1.5656565656565666 4.292929292929293,1.4646464646464652 4.191919191919193,1.3636363636363644 4.090909090909092,1.262626262626263 3.989898989898992,1.1616161616161622 3.8888888888888893,1.0606060606060617 3.7878787878787885,0.9595959595959602 3.6868686868686877,0.8585858585858596 3.5858585858585874,0.7575757575757579 3.4848484848484866,0.6565656565656574 3.383838383838384,0.5555555555555567 3.2828282828282833,0.4545454545454551 3.181818181818183,0.3535353535353544 3.080808080808082,0.2525252525252529 2.9797979797979806,0.1515151515151522 2.9797979797979806,0.050505050505051545 2.9797979797979806,-0.05050505050505001 2.9797979797979806,-0.15151515151515066 2.9797979797979806,-0.2525252525252522 2.9797979797979806,-0.35353535353535287 2.9797979797979806,-0.4545454545454544 2.9797979797979806,-0.555555555555555 2.9797979797979806,-0.6565656565656557 2.9797979797979806,-0.7575757575757572 2.9797979797979806,-0.8585858585858579 2.9797979797979806,-0.9595959595959596 2.9797979797979806,-1.0606060606060603 2.9797979797979806,-1.1616161616161613 2.9797979797979806,-1.2626262626262625 2.9797979797979806,-1.363636363636363 2.9797979797979806,-1.4646464646464643 2.9797979797979806,-1.5656565656565653 2.9797979797979806,-1.6666666666666665 2.9797979797979806,-1.7676767676767675 2.9797979797979806,-1.8686868686868683 2.9797979797979806,-1.9696969696969693 2.9797979797979806,-2.07070707070707 2.9797979797979806,-2.1717171717171713 2.9797979797979806,-2.2727272727272725 2.9797979797979806,-2.3737373737373733 2.9797979797979806,-2.474747474747474 2.9797979797979806,-2.5757575757575752 2.9797979797979806,-2.6767676767676765 2.9797979797979806,-2.7777777777777777 2.9797979797979806,-2.8787878787878785 2.9797979797979806,-2.9797979797979792 2.9797979797979806,-3.0808080808080804 2.9797979797979806,-3.1818181818181817 2.9797979797979806,-3.2828282828282824 2.9797979797979806,-3.383838383838383 2.9797979797979806,-3.484848484848485 2.9797979797979806,-3.5858585858585856 2.9797979797979806,-3.6868686868686864 2.9797979797979806,-3.7878787878787876 2.9797979797979806,-3.8888888888888884 2.9797979797979806,-3.98989898989899 2.9797979797979806,-4.090909090909091 2.9797979797979806,-4.191919191919193 2.9797979797979806,-4.292929292929293 2.9797979797979806,-4.393939393939394 2.9797979797979806,-4.494949494949496 2.9797979797979806,-4.595959595959596 2.9797979797979806,-4.696969696969697 2.9797979797979806,-4.7979797979797985 2.9797979797979806,-4.898989898989899 2.9797979797979806,-5.000000000000001" data-type="line" data-label="" points="984,306.9898989898991 974.4646464646464,316.5252525252526 964.9292929292927,326.06060606060623 955.3939393939393,335.5959595959597 945.8585858585857,345.1313131313133 936.3232323232323,354.66666666666674 926.7878787878785,364.2020202020203 917.2525252525251,373.73737373737384 907.7171717171716,383.27272727272737 898.181818181818,392.80808080808094 888.6464646464647,402.3434343434344 879.111111111111,411.87878787878793 869.5757575757575,421.4141414141415 860.0404040404039,430.94949494949503 850.5050505050505,440.4848484848486 840.969696969697,450.0202020202021 831.4343434343433,459.5555555555556 821.8989898989898,469.0909090909092 812.3636363636363,478.6262626262627 802.8282828282828,488.1616161616163 793.2929292929292,497.69696969696975 793.2929292929292,507.23232323232327 793.2929292929292,516.7676767676768 793.2929292929292,526.3030303030304 793.2929292929292,535.838383838384 793.2929292929292,545.3737373737374 793.2929292929292,554.909090909091 793.2929292929292,564.4444444444445 793.2929292929292,573.979797979798 793.2929292929292,583.5151515151516 793.2929292929292,593.0505050505051 793.2929292929292,602.5858585858587 793.2929292929292,612.1212121212121 793.2929292929292,621.6565656565657 793.2929292929292,631.1919191919193 793.2929292929292,640.7272727272727 793.2929292929292,650.2626262626263 793.2929292929292,659.7979797979798 793.2929292929292,669.3333333333334 793.2929292929292,678.8686868686868 793.2929292929292,688.4040404040404 793.2929292929292,697.939393939394 793.2929292929292,707.4747474747475 793.2929292929292,717.010101010101 793.2929292929292,726.5454545454545 793.2929292929292,736.0808080808081 793.2929292929292,745.6161616161615 793.2929292929292,755.1515151515151 793.2929292929292,764.6868686868687 793.2929292929292,774.2222222222222 793.2929292929292,783.7575757575758 793.2929292929292,793.2929292929292 793.2929292929292,802.8282828282828 793.2929292929292,812.3636363636363 793.2929292929292,821.8989898989898 793.2929292929292,831.4343434343434 793.2929292929292,840.969696969697 793.2929292929292,850.5050505050505 793.2929292929292,860.0404040404039 793.2929292929292,869.5757575757575 793.2929292929292,879.1111111111111 793.2929292929292,888.6464646464647 793.2929292929292,898.1818181818181 793.2929292929292,907.7171717171718 793.2929292929292,917.2525252525252 793.2929292929292,926.7878787878788 793.2929292929292,936.3232323232323 793.2929292929292,945.8585858585858 793.2929292929292,955.3939393939394 793.2929292929292,964.9292929292928 793.2929292929292,974.4646464646464 793.2929292929292,984" fill="none" stroke="rgba(0,0,255,0.75)" stroke-width="14.159999999999995"/></g><g><polyline data-points="-1.8686868686868683,-5.000000000000001 -1.7676767676767675,-4.898989898989899 -1.6666666666666665,-4.7979797979797985 -1.5656565656565653,-4.696969696969697 -1.4646464646464643,-4.595959595959596 -1.363636363636363,-4.494949494949496 -1.2626262626262625,-4.393939393939394 -1.1616161616161613,-4.292929292929293 -1.0606060606060603,-4.191919191919193 -0.9595959595959596,-4.090909090909091 -0.8585858585858579,-3.98989898989899 -0.7575757575757572,-3.8888888888888884 -0.6565656565656557,-3.7878787878787876 -0.555555555555555,-3.6868686868686864 -0.4545454545454544,-3.5858585858585856 -0.35353535353535287,-3.484848484848485 -0.2525252525252522,-3.383838383838383 -0.15151515151515066,-3.2828282828282824 -0.05050505050505001,-3.1818181818181817 0.050505050505051545,-3.0808080808080804 0.1515151515151522,-2.9797979797979792 0.2525252525252529,-2.8787878787878785 0.3535353535353544,-2.7777777777777777 0.4545454545454551,-2.6767676767676765 0.5555555555555567,-2.5757575757575752 0.6565656565656574,-2.474747474747474 0.7575757575757579,-2.3737373737373733 0.8585858585858596,-2.2727272727272725 0.9595959595959602,-2.1717171717171713 1.0606060606060617,-2.07070707070707 1.1616161616161622,-1.9696969696969693 1.262626262626263,-1.8686868686868683 1.3636363636363644,-1.7676767676767675 1.4646464646464652,-1.6666666666666665 1.5656565656565666,-1.5656565656565653 1.6666666666666674,-1.4646464646464643 1.767676767676768,-1.363636363636363 1.767676767676768,-1.2626262626262625 1.767676767676768,-1.1616161616161613 1.767676767676768,-1.0606060606060603 1.767676767676768,-0.9595959595959596 1.767676767676768,-0.8585858585858579 1.767676767676768,-0.7575757575757572 1.767676767676768,-0.6565656565656557 1.767676767676768,-0.555555555555555 1.767676767676768,-0.4545454545454544 1.767676767676768,-0.35353535353535287 1.767676767676768,-0.2525252525252522 1.767676767676768,-0.15151515151515066 1.767676767676768,-0.05050505050505001 1.767676767676768,0.050505050505051545 1.767676767676768,0.1515151515151522 1.767676767676768,0.2525252525252529 1.767676767676768,0.3535353535353544 1.767676767676768,0.4545454545454551 1.767676767676768,0.5555555555555567 1.767676767676768,0.6565656565656574 1.767676767676768,0.7575757575757579 1.767676767676768,0.8585858585858596 1.767676767676768,0.9595959595959602 1.767676767676768,1.0606060606060617 1.767676767676768,1.1616161616161622 1.767676767676768,1.262626262626263 1.767676767676768,1.3636363636363644 1.767676767676768,1.4646464646464652 1.767676767676768,1.5656565656565666 1.767676767676768,1.6666666666666674 1.767676767676768,1.767676767676768 1.767676767676768,1.8686868686868696 1.767676767676768,1.9696969696969702 1.767676767676768,2.070707070707072 1.767676767676768,2.1717171717171726 1.767676767676768,2.2727272727272734 1.767676767676768,2.373737373737375 1.767676767676768,2.4747474747474754 1.767676767676768,2.575757575757577 1.767676767676768,2.676767676767678 1.767676767676768,2.7777777777777786 1.767676767676768,2.87878787878788 1.767676767676768,2.9797979797979806 1.767676767676768,3.080808080808082 1.767676767676768,3.181818181818183 1.767676767676768,3.2828282828282833 1.767676767676768,3.383838383838384 1.767676767676768,3.4848484848484866 1.767676767676768,3.5858585858585874 1.767676767676768,3.6868686868686877 1.767676767676768,3.7878787878787885 1.767676767676768,3.8888888888888893 1.767676767676768,3.989898989898992 1.767676767676768,4.090909090909092 1.767676767676768,4.191919191919193 1.767676767676768,4.292929292929293 1.767676767676768,4.393939393939394 1.767676767676768,4.494949494949497 1.767676767676768,4.595959595959597 1.767676767676768,4.696969696969697 1.767676767676768,4.7979797979797985 1.767676767676768,4.898989898989901 1.767676767676768,5.000000000000002" data-type="line" data-label="" points="335.59595959595964,984 345.13131313131316,974.4646464646464 354.6666666666667,964.9292929292928 364.2020202020202,955.3939393939394 373.7373737373738,945.8585858585858 383.2727272727273,936.3232323232323 392.80808080808083,926.7878787878788 402.34343434343435,917.2525252525252 411.8787878787879,907.7171717171718 421.4141414141414,898.1818181818181 430.949494949495,888.6464646464647 440.4848484848485,879.1111111111111 450.0202020202021,869.5757575757575 459.55555555555554,860.0404040404039 469.09090909090907,850.5050505050505 478.62626262626264,840.969696969697 488.16161616161617,831.4343434343434 497.69696969696975,821.8989898989898 507.2323232323232,812.3636363636363 516.7676767676768,802.8282828282828 526.3030303030303,793.2929292929292 535.8383838383838,783.7575757575758 545.3737373737374,774.2222222222222 554.9090909090909,764.6868686868687 564.4444444444445,755.1515151515151 573.9797979797979,745.6161616161615 583.5151515151515,736.0808080808081 593.0505050505051,726.5454545454545 602.5858585858585,717.010101010101 612.1212121212121,707.4747474747475 621.6565656565656,697.939393939394 631.1919191919192,688.4040404040404 640.7272727272727,678.8686868686868 650.2626262626262,669.3333333333334 659.7979797979798,659.7979797979798 669.3333333333333,650.2626262626263 678.8686868686868,640.7272727272727 678.8686868686868,631.1919191919193 678.8686868686868,621.6565656565657 678.8686868686868,612.1212121212121 678.8686868686868,602.5858585858587 678.8686868686868,593.0505050505051 678.8686868686868,583.5151515151516 678.8686868686868,573.979797979798 678.8686868686868,564.4444444444445 678.8686868686868,554.909090909091 678.8686868686868,545.3737373737374 678.8686868686868,535.838383838384 678.8686868686868,526.3030303030304 678.8686868686868,516.7676767676768 678.8686868686868,507.23232323232327 678.8686868686868,497.69696969696975 678.8686868686868,488.1616161616163 678.8686868686868,478.6262626262627 678.8686868686868,469.0909090909092 678.8686868686868,459.5555555555556 678.8686868686868,450.0202020202021 678.8686868686868,440.4848484848486 678.8686868686868,430.94949494949503 678.8686868686868,421.4141414141415 678.8686868686868,411.87878787878793 678.8686868686868,402.3434343434344 678.8686868686868,392.80808080808094 678.8686868686868,383.27272727272737 678.8686868686868,373.73737373737384 678.8686868686868,364.2020202020203 678.8686868686868,354.66666666666674 678.8686868686868,345.1313131313133 678.8686868686868,335.5959595959597 678.8686868686868,326.06060606060623 678.8686868686868,316.5252525252526 678.8686868686868,306.9898989898991 678.8686868686868,297.4545454545456 678.8686868686868,287.91919191919203 678.8686868686868,278.38383838383857 678.8686868686868,268.84848484848493 678.8686868686868,259.3131313131314 678.8686868686868,249.77777777777794 678.8686868686868,240.24242424242436 678.8686868686868,230.70707070707084 678.8686868686868,221.17171717171726 678.8686868686868,211.63636363636374 678.8686868686868,202.10101010101027 678.8686868686868,192.56565656565675 678.8686868686868,183.03030303030312 678.8686868686868,173.4949494949496 678.8686868686868,163.95959595959613 678.8686868686868,154.4242424242426 678.8686868686868,144.88888888888908 678.8686868686868,135.35353535353545 678.8686868686868,125.81818181818198 678.8686868686868,116.28282828282846 678.8686868686868,106.747474747475 678.8686868686868,97.21212121212153 678.8686868686868,87.67676767676778 678.8686868686868,78.14141414141432 678.8686868686868,68.60606060606085 678.8686868686868,59.07070707070733 678.8686868686868,49.53535353535369 678.8686868686868,40.000000000000114" fill="none" stroke="rgba(0,0,255,0.75)" stroke-width="14.159999999999995"/></g><g><polyline data-points="-5.000000000000001,0.5555555555555567 -5.000000000000001,0.4545454545454551 -5.000000000000001,0.3535353535353544 -5.000000000000001,0.2525252525252529 -5.000000000000001,0.1515151515151522 -5.000000000000001,0.050505050505051545 -5.000000000000001,-0.05050505050505001 -5.000000000000001,-0.15151515151515066 -5.000000000000001,-0.2525252525252522 -4.898989898989899,-0.35353535353535287 -4.7979797979797985,-0.4545454545454544 -4.696969696969697,-0.555555555555555 -4.595959595959596,-0.6565656565656557 -4.494949494949496,-0.7575757575757572 -4.393939393939394,-0.8585858585858579 -4.292929292929293,-0.9595959595959596 -4.191919191919193,-1.0606060606060603 -4.090909090909091,-1.1616161616161613 -3.98989898989899,-1.2626262626262625" data-type="line" data-label="" points="40.00000000000006,459.5555555555556 40.00000000000006,469.0909090909092 40.00000000000006,478.6262626262627 40.00000000000006,488.1616161616163 40.00000000000006,497.69696969696975 40.00000000000006,507.23232323232327 40.00000000000006,516.7676767676768 40.00000000000006,526.3030303030304 40.00000000000006,535.838383838384 49.53535353535369,545.3737373737374 59.07070707070716,554.909090909091 68.60606060606068,564.4444444444445 78.14141414141426,573.979797979798 87.67676767676772,583.5151515151516 97.21212121212136,593.0505050505051 106.74747474747483,602.5858585858587 116.28282828282829,612.1212121212121 125.81818181818193,621.6565656565657 135.35353535353545,631.1919191919193" fill="none" stroke="rgba(255,0,0,0.75)" stroke-width="14.159999999999995"/></g><g><polyline data-points="-3.98989898989899,-1.2626262626262625 -4.090909090909091,-1.363636363636363 -4.191919191919193,-1.4646464646464643 -4.292929292929293,-1.5656565656565653 -4.393939393939394,-1.6666666666666665 -4.494949494949496,-1.7676767676767675 -4.595959595959596,-1.8686868686868683 -4.696969696969697,-1.9696969696969693 -4.7979797979797985,-2.07070707070707 -4.898989898989899,-2.07070707070707 -5.000000000000001,-2.07070707070707" data-type="line" data-label="" points="135.35353535353545,631.1919191919193 125.81818181818193,640.7272727272727 116.28282828282829,650.2626262626263 106.74747474747483,659.7979797979798 97.21212121212136,669.3333333333334 87.67676767676772,678.8686868686868 78.14141414141426,688.4040404040404 68.60606060606068,697.939393939394 59.07070707070716,707.4747474747475 49.53535353535369,707.4747474747475 40.00000000000006,707.4747474747475" fill="none" stroke="rgba(0,0,255,0.75)" stroke-width="14.159999999999995"/></g><g><polyline data-points="-5.000000000000001,-3.98989898989899 -4.898989898989899,-3.8888888888888884 -4.7979797979797985,-3.7878787878787876 -4.696969696969697,-3.6868686868686864 -4.595959595959596,-3.5858585858585856 -4.494949494949496,-3.484848484848485 -4.393939393939394,-3.383838383838383 -4.292929292929293,-3.2828282828282824 -4.191919191919193,-3.1818181818181817 -4.090909090909091,-3.0808080808080804 -3.98989898989899,-2.9797979797979792 -3.8888888888888884,-2.8787878787878785 -3.7878787878787876,-2.7777777777777777 -3.6868686868686864,-2.6767676767676765 -3.5858585858585856,-2.5757575757575752 -3.484848484848485,-2.474747474747474 -3.383838383838383,-2.3737373737373733 -3.2828282828282824,-2.2727272727272725 -3.1818181818181817,-2.1717171717171713 -3.0808080808080804,-2.07070707070707 -2.9797979797979792,-1.9696969696969693 -2.8787878787878785,-1.8686868686868683 -2.7777777777777777,-1.7676767676767675 -2.6767676767676765,-1.6666666666666665 -2.5757575757575752,-1.5656565656565653 -2.474747474747474,-1.4646464646464643 -2.3737373737373733,-1.363636363636363 -2.2727272727272725,-1.2626262626262625 -2.1717171717171713,-1.1616161616161613 -2.07070707070707,-1.0606060606060603 -1.9696969696969693,-0.9595959595959596 -1.8686868686868683,-0.8585858585858579 -1.7676767676767675,-0.7575757575757572 -1.6666666666666665,-0.6565656565656557 -1.5656565656565653,-0.555555555555555 -1.4646464646464643,-0.4545454545454544 -1.363636363636363,-0.35353535353535287 -1.2626262626262625,-0.2525252525252522 -1.1616161616161613,-0.15151515151515066 -1.0606060606060603,-0.05050505050505001 -0.9595959595959596,0.050505050505051545 -0.8585858585858579,0.1515151515151522 -0.7575757575757572,0.2525252525252529 -0.6565656565656557,0.3535353535353544 -0.555555555555555,0.4545454545454551 -0.4545454545454544,0.5555555555555567 -0.35353535353535287,0.6565656565656574 -0.2525252525252522,0.7575757575757579 -0.15151515151515066,0.8585858585858596 -0.05050505050505001,0.9595959595959602 0.050505050505051545,1.0606060606060617 0.1515151515151522,1.1616161616161622 0.2525252525252529,1.262626262626263 0.3535353535353544,1.3636363636363644 0.4545454545454551,1.4646464646464652 0.5555555555555567,1.5656565656565666 0.6565656565656574,1.6666666666666674 0.7575757575757579,1.767676767676768 0.8585858585858596,1.8686868686868696 0.9595959595959602,1.9696969696969702 1.0606060606060617,2.070707070707072 1.1616161616161622,2.1717171717171726 1.1616161616161622,2.2727272727272734 1.1616161616161622,2.373737373737375 1.1616161616161622,2.4747474747474754 1.1616161616161622,2.575757575757577" data-type="line" data-label="" points="40.00000000000006,888.6464646464647 49.53535353535369,879.1111111111111 59.07070707070716,869.5757575757575 68.60606060606068,860.0404040404039 78.14141414141426,850.5050505050505 87.67676767676772,840.969696969697 97.21212121212136,831.4343434343434 106.74747474747483,821.8989898989898 116.28282828282829,812.3636363636363 125.81818181818193,802.8282828282828 135.35353535353545,793.2929292929292 144.88888888888903,783.7575757575758 154.42424242424255,774.2222222222222 163.95959595959607,764.6868686868687 173.4949494949496,755.1515151515151 183.03030303030312,745.6161616161615 192.5656565656567,736.0808080808081 202.10101010101022,726.5454545454545 211.63636363636374,717.010101010101 221.17171717171726,707.4747474747475 230.70707070707084,697.939393939394 240.2424242424243,688.4040404040404 249.77777777777783,678.8686868686868 259.3131313131314,669.3333333333334 268.84848484848493,659.7979797979798 278.38383838383845,650.2626262626263 287.91919191919203,640.7272727272727 297.4545454545455,631.1919191919193 306.9898989898991,621.6565656565657 316.5252525252526,612.1212121212121 326.0606060606061,602.5858585858587 335.59595959595964,593.0505050505051 345.13131313131316,583.5151515151516 354.6666666666667,573.979797979798 364.2020202020202,564.4444444444445 373.7373737373738,554.909090909091 383.2727272727273,545.3737373737374 392.80808080808083,535.838383838384 402.34343434343435,526.3030303030304 411.8787878787879,516.7676767676768 421.4141414141414,507.23232323232327 430.949494949495,497.69696969696975 440.4848484848485,488.1616161616163 450.0202020202021,478.6262626262627 459.55555555555554,469.0909090909092 469.09090909090907,459.5555555555556 478.62626262626264,450.0202020202021 488.16161616161617,440.4848484848486 497.69696969696975,430.94949494949503 507.2323232323232,421.4141414141415 516.7676767676768,411.87878787878793 526.3030303030303,402.3434343434344 535.8383838383838,392.80808080808094 545.3737373737374,383.27272727272737 554.9090909090909,373.73737373737384 564.4444444444445,364.2020202020203 573.9797979797979,354.66666666666674 583.5151515151515,345.1313131313133 593.0505050505051,335.5959595959597 602.5858585858585,326.06060606060623 612.1212121212121,316.5252525252526 621.6565656565656,306.9898989898991 621.6565656565656,297.4545454545456 621.6565656565656,287.91919191919203 621.6565656565656,278.38383838383857 621.6565656565656,268.84848484848493" fill="none" stroke="rgba(0,0,255,0.75)" stroke-width="14.159999999999995"/></g><g><polyline data-points="1.1616161616161622,2.575757575757577 1.262626262626263,2.676767676767678 1.3636363636363644,2.7777777777777786 1.4646464646464652,2.7777777777777786 1.5656565656565666,2.7777777777777786 1.6666666666666674,2.7777777777777786 1.767676767676768,2.7777777777777786 1.8686868686868696,2.7777777777777786 1.9696969696969702,2.7777777777777786 2.070707070707072,2.7777777777777786 2.1717171717171726,2.7777777777777786 2.2727272727272734,2.7777777777777786 2.373737373737375,2.7777777777777786 2.4747474747474754,2.7777777777777786 2.575757575757577,2.7777777777777786 2.676767676767678,2.7777777777777786 2.7777777777777786,2.7777777777777786 2.87878787878788,2.7777777777777786 2.9797979797979806,2.7777777777777786 3.080808080808082,2.7777777777777786 3.181818181818183,2.7777777777777786 3.2828282828282833,2.7777777777777786 3.383838383838384,2.7777777777777786 3.4848484848484866,2.7777777777777786 3.5858585858585874,2.7777777777777786 3.6868686868686877,2.7777777777777786 3.7878787878787885,2.7777777777777786 3.8888888888888893,2.7777777777777786 3.989898989898992,2.7777777777777786 4.090909090909092,2.7777777777777786 4.191919191919193,2.7777777777777786 4.292929292929293,2.7777777777777786 4.393939393939394,2.7777777777777786 4.494949494949497,2.7777777777777786 4.595959595959597,2.7777777777777786 4.696969696969697,2.7777777777777786 4.7979797979797985,2.7777777777777786 4.898989898989901,2.7777777777777786 5.000000000000002,2.7777777777777786" data-type="line" data-label="" points="621.6565656565656,268.84848484848493 631.1919191919192,259.3131313131314 640.7272727272727,249.77777777777794 650.2626262626262,249.77777777777794 659.7979797979798,249.77777777777794 669.3333333333333,249.77777777777794 678.8686868686868,249.77777777777794 688.4040404040404,249.77777777777794 697.9393939393939,249.77777777777794 707.4747474747475,249.77777777777794 717.0101010101009,249.77777777777794 726.5454545454545,249.77777777777794 736.0808080808081,249.77777777777794 745.6161616161615,249.77777777777794 755.1515151515151,249.77777777777794 764.6868686868686,249.77777777777794 774.2222222222222,249.77777777777794 783.7575757575758,249.77777777777794 793.2929292929292,249.77777777777794 802.8282828282828,249.77777777777794 812.3636363636363,249.77777777777794 821.8989898989898,249.77777777777794 831.4343434343433,249.77777777777794 840.969696969697,249.77777777777794 850.5050505050505,249.77777777777794 860.0404040404039,249.77777777777794 869.5757575757575,249.77777777777794 879.111111111111,249.77777777777794 888.6464646464647,249.77777777777794 898.181818181818,249.77777777777794 907.7171717171716,249.77777777777794 917.2525252525251,249.77777777777794 926.7878787878785,249.77777777777794 936.3232323232323,249.77777777777794 945.8585858585857,249.77777777777794 955.3939393939393,249.77777777777794 964.9292929292927,249.77777777777794 974.4646464646464,249.77777777777794 984,249.77777777777794" fill="none" stroke="rgba(255,0,0,0.75)" stroke-width="14.159999999999995"/></g><g><polyline data-points="5.000000000000002,-4.696969696969697 4.898989898989901,-4.595959595959596 4.7979797979797985,-4.494949494949496 4.696969696969697,-4.393939393939394 4.595959595959597,-4.292929292929293 4.494949494949497,-4.191919191919193 4.393939393939394,-4.090909090909091 4.292929292929293,-3.98989898989899 4.191919191919193,-3.8888888888888884 4.090909090909092,-3.7878787878787876 3.989898989898992,-3.6868686868686864 3.8888888888888893,-3.5858585858585856 3.7878787878787885,-3.484848484848485 3.6868686868686877,-3.383838383838383 3.5858585858585874,-3.2828282828282824 3.5858585858585874,-3.1818181818181817 3.5858585858585874,-3.0808080808080804 3.5858585858585874,-2.9797979797979792 3.5858585858585874,-2.8787878787878785 3.5858585858585874,-2.7777777777777777 3.5858585858585874,-2.6767676767676765 3.5858585858585874,-2.5757575757575752 3.5858585858585874,-2.474747474747474 3.5858585858585874,-2.3737373737373733 3.5858585858585874,-2.2727272727272725 3.5858585858585874,-2.1717171717171713 3.5858585858585874,-2.07070707070707 3.5858585858585874,-1.9696969696969693 3.5858585858585874,-1.8686868686868683 3.5858585858585874,-1.7676767676767675 3.5858585858585874,-1.6666666666666665 3.5858585858585874,-1.5656565656565653 3.5858585858585874,-1.4646464646464643 3.5858585858585874,-1.363636363636363 3.5858585858585874,-1.2626262626262625 3.5858585858585874,-1.1616161616161613 3.5858585858585874,-1.0606060606060603 3.5858585858585874,-0.9595959595959596 3.5858585858585874,-0.8585858585858579 3.5858585858585874,-0.7575757575757572 3.5858585858585874,-0.6565656565656557 3.5858585858585874,-0.555555555555555 3.5858585858585874,-0.4545454545454544 3.5858585858585874,-0.35353535353535287 3.5858585858585874,-0.2525252525252522" data-type="line" data-label="" points="984,955.3939393939394 974.4646464646464,945.8585858585858 964.9292929292927,936.3232323232323 955.3939393939393,926.7878787878788 945.8585858585857,917.2525252525252 936.3232323232323,907.7171717171718 926.7878787878785,898.1818181818181 917.2525252525251,888.6464646464647 907.7171717171716,879.1111111111111 898.181818181818,869.5757575757575 888.6464646464647,860.0404040404039 879.111111111111,850.5050505050505 869.5757575757575,840.969696969697 860.0404040404039,831.4343434343434 850.5050505050505,821.8989898989898 850.5050505050505,812.3636363636363 850.5050505050505,802.8282828282828 850.5050505050505,793.2929292929292 850.5050505050505,783.7575757575758 850.5050505050505,774.2222222222222 850.5050505050505,764.6868686868687 850.5050505050505,755.1515151515151 850.5050505050505,745.6161616161615 850.5050505050505,736.0808080808081 850.5050505050505,726.5454545454545 850.5050505050505,717.010101010101 850.5050505050505,707.4747474747475 850.5050505050505,697.939393939394 850.5050505050505,688.4040404040404 850.5050505050505,678.8686868686868 850.5050505050505,669.3333333333334 850.5050505050505,659.7979797979798 850.5050505050505,650.2626262626263 850.5050505050505,640.7272727272727 850.5050505050505,631.1919191919193 850.5050505050505,621.6565656565657 850.5050505050505,612.1212121212121 850.5050505050505,602.5858585858587 850.5050505050505,593.0505050505051 850.5050505050505,583.5151515151516 850.5050505050505,573.979797979798 850.5050505050505,564.4444444444445 850.5050505050505,554.909090909091 850.5050505050505,545.3737373737374 850.5050505050505,535.838383838384" fill="none" stroke="rgba(0,0,255,0.75)" stroke-width="14.159999999999995"/></g><g><polyline data-points="3.5858585858585874,-0.2525252525252522 3.4848484848484866,-0.15151515151515066 3.383838383838384,-0.05050505050505001 3.2828282828282833,0.050505050505051545 3.181818181818183,0.1515151515151522 3.080808080808082,0.2525252525252529 3.080808080808082,0.3535353535353544 3.080808080808082,0.4545454545454551 3.080808080808082,0.5555555555555567 3.080808080808082,0.6565656565656574 3.080808080808082,0.7575757575757579 3.080808080808082,0.8585858585858596 3.080808080808082,0.9595959595959602 3.080808080808082,1.0606060606060617 3.080808080808082,1.1616161616161622 3.080808080808082,1.262626262626263 3.080808080808082,1.3636363636363644 3.080808080808082,1.4646464646464652 3.080808080808082,1.5656565656565666 3.080808080808082,1.6666666666666674 3.080808080808082,1.767676767676768 3.080808080808082,1.8686868686868696 3.080808080808082,1.9696969696969702 3.080808080808082,2.070707070707072 3.080808080808082,2.1717171717171726" data-type="line" data-label="" points="850.5050505050505,535.838383838384 840.969696969697,526.3030303030304 831.4343434343433,516.7676767676768 821.8989898989898,507.23232323232327 812.3636363636363,497.69696969696975 802.8282828282828,488.1616161616163 802.8282828282828,478.6262626262627 802.8282828282828,469.0909090909092 802.8282828282828,459.5555555555556 802.8282828282828,450.0202020202021 802.8282828282828,440.4848484848486 802.8282828282828,430.94949494949503 802.8282828282828,421.4141414141415 802.8282828282828,411.87878787878793 802.8282828282828,402.3434343434344 802.8282828282828,392.80808080808094 802.8282828282828,383.27272727272737 802.8282828282828,373.73737373737384 802.8282828282828,364.2020202020203 802.8282828282828,354.66666666666674 802.8282828282828,345.1313131313133 802.8282828282828,335.5959595959597 802.8282828282828,326.06060606060623 802.8282828282828,316.5252525252526 802.8282828282828,306.9898989898991" fill="none" stroke="rgba(255,0,0,0.75)" stroke-width="14.159999999999995"/></g><g><polyline data-points="3.080808080808082,2.1717171717171726 3.080808080808082,2.2727272727272734 3.080808080808082,2.373737373737375 3.080808080808082,2.4747474747474754 3.080808080808082,2.575757575757577 3.080808080808082,2.676767676767678 3.080808080808082,2.7777777777777786 3.080808080808082,2.87878787878788 3.080808080808082,2.9797979797979806 3.080808080808082,3.080808080808082 3.080808080808082,3.181818181818183 3.080808080808082,3.2828282828282833 3.080808080808082,3.383838383838384 3.080808080808082,3.4848484848484866 3.080808080808082,3.5858585858585874 3.080808080808082,3.6868686868686877 3.080808080808082,3.7878787878787885 3.080808080808082,3.8888888888888893 3.080808080808082,3.989898989898992" data-type="line" data-label="" points="802.8282828282828,306.9898989898991 802.8282828282828,297.4545454545456 802.8282828282828,287.91919191919203 802.8282828282828,278.38383838383857 802.8282828282828,268.84848484848493 802.8282828282828,259.3131313131314 802.8282828282828,249.77777777777794 802.8282828282828,240.24242424242436 802.8282828282828,230.70707070707084 802.8282828282828,221.17171717171726 802.8282828282828,211.63636363636374 802.8282828282828,202.10101010101027 802.8282828282828,192.56565656565675 802.8282828282828,183.03030303030312 802.8282828282828,173.4949494949496 802.8282828282828,163.95959595959613 802.8282828282828,154.4242424242426 802.8282828282828,144.88888888888908 802.8282828282828,135.35353535353545" fill="none" stroke="rgba(0,0,255,0.75)" stroke-width="14.159999999999995"/></g><g><polyline data-points="3.080808080808082,3.989898989898992 3.080808080808082,4.090909090909092 3.080808080808082,4.191919191919193 3.080808080808082,4.292929292929293 3.080808080808082,4.393939393939394 3.080808080808082,4.494949494949497 3.080808080808082,4.595959595959597 3.080808080808082,4.696969696969697 3.080808080808082,4.7979797979797985 3.080808080808082,4.898989898989901 3.080808080808082,5.000000000000002" data-type="line" data-label="" points="802.8282828282828,135.35353535353545 802.8282828282828,125.81818181818198 802.8282828282828,116.28282828282846 802.8282828282828,106.747474747475 802.8282828282828,97.21212121212153 802.8282828282828,87.67676767676778 802.8282828282828,78.14141414141432 802.8282828282828,68.60606060606085 802.8282828282828,59.07070707070733 802.8282828282828,49.53535353535369 802.8282828282828,40.000000000000114" fill="none" stroke="rgba(255,0,0,0.75)" stroke-width="14.159999999999995"/></g><g><rect data-type="rect" data-label="" data-x="0" data-y="0" x="40.000000000000114" y="40.000000000000284" width="943.9999999999997" height="943.9999999999998" fill="none" stroke="gray" stroke-width="0.010593220338983056"/></g><g><rect data-type="rect" data-label="" data-x="0" data-y="0" x="40.000000000000114" y="40.000000000000284" width="943.9999999999997" height="943.9999999999998" fill="none" stroke="rgba(15, 23, 42, 0.8)" stroke-width="0.010593220338983056"/></g><circle data-type="circle" data-label="" data-x="-3.98989898989899" data-y="-1.2626262626262625" cx="135.35353535353545" cy="631.1919191919193" r="28.791999999999987" fill="rgba(0,0,0,0.3)" stroke="black" stroke-width="0.010593220338983056"/><circle data-type="circle" data-label="" data-x="1.1616161616161622" data-y="2.575757575757577" cx="621.6565656565656" cy="268.84848484848493" r="28.791999999999987" fill="rgba(0,0,0,0.3)" stroke="black" stroke-width="0.010593220338983056"/><circle data-type="circle" data-label="" data-x="3.5858585858585874" data-y="-0.2525252525252522" cx="850.5050505050505" cy="535.838383838384" r="28.791999999999987" fill="rgba(0,0,0,0.3)" stroke="black" stroke-width="0.010593220338983056"/><circle data-type="circle" data-label="" data-x="3.080808080808082" data-y="2.1717171717171726" cx="802.8282828282828" cy="306.9898989898991" r="28.791999999999987" fill="rgba(0,0,0,0.3)" stroke="black" stroke-width="0.010593220338983056"/><circle data-type="circle" data-label="" data-x="3.080808080808082" data-y="3.989898989898992" cx="802.8282828282828" cy="135.35353535353545" r="28.791999999999987" fill="rgba(0,0,0,0.3)" stroke="black" stroke-width="0.010593220338983056"/><g id="crosshair" style="display: none"><line id="crosshair-h" y1="0" y2="1024" stroke="#666" stroke-width="0.5"/><line id="crosshair-v" x1="0" x2="1024" stroke="#666" stroke-width="0.5"/><text id="coordinates" font-family="monospace" font-size="12" fill="#666"></text></g><script><![CDATA[
              document.currentScript.parentElement.addEventListener('mousemove', (e) => {
                const svg = e.currentTarget;
                const rect = svg.getBoundingClientRect();
                const x = e.clientX - rect.left;
                const y = e.clientY - rect.top;
                const crosshair = svg.getElementById('crosshair');
                const h = svg.getElementById('crosshair-h');
                const v = svg.getElementById('crosshair-v');
                const coords = svg.getElementById('coordinates');
                
                crosshair.style.display = 'block';
                h.setAttribute('x1', '0');
                h.setAttribute('x2', '1024');
                h.setAttribute('y1', y);
                h.setAttribute('y2', y);
                v.setAttribute('x1', x);
                v.setAttribute('x2', x);
                v.setAttribute('y1', '0');
                v.setAttribute('y2', '1024');

                // Calculate real coordinates using inverse transformation
                const matrix = {"a":94.39999999999996,"c":0,"e":511.99999999999994,"b":0,"d":-94.39999999999996,"f":512.0000000000001};
                // Manually invert and apply the affine transform
                // Since we only use translate and scale, we can directly compute:
                // x' = (x - tx) / sx
                // y' = (y - ty) / sy
                const sx = matrix.a;
                const sy = matrix.d;
                const tx = matrix.e; 
                const ty = matrix.f;
                const realPoint = {
                  x: (x - tx) / sx,
                  y: (y - ty) / sy // Flip y back since we used negative scale
                }
                
                coords.textContent = `(${realPoint.x.toFixed(2)}, ${realPoint.y.toFixed(2)})`;
                coords.setAttribute('x', (x + 5).toString());
                coords.setAttribute('y', (y - 5).toString());
              });
              document.currentScript.parentElement.addEventListener('mouseleave', () => {
                document.currentScript.parentElement.getElementById('crosshair').style.display = 'none';
              });
            ]]></script></svg>