<svg width="1024" height="1024" viewBox="0 0 1024 1024" xmlns="http://www.w3.org/2000/svg"><rect width="100%" height="100%" fill="white"/><g><circle data-type="point" data-label="conn_000" data-x="5" data-y="4.12" cx="983.9999999999998" cy="123.07200000000012" r="28.792" fill="red" stroke="#0fbd42" stroke-width="28.792"/></g><g><circle data-type="point" data-label="conn_000" data-x="-5" data-y="1.68" cx="40.000000000000114" cy="353.4080000000001" r="28.792" fill="blue" stroke="#0fbd42" stroke-width="28.792"/></g><g><circle data-type="point" data-label="conn_001" data-x="-5" data-y="0.68" cx="40.000000000000114" cy="447.808" r="28.792" fill="blue" stroke="#740fbd" stroke-width="28.792"/></g><g><circle data-type="point" data-label="conn_001" data-x="5" data-y="-3.6" cx="983.9999999999998" cy="851.8399999999999" r="28.792" fill="red" stroke="#740fbd" stroke-width="28.792"/></g><g><circle data-type="point" data-label="conn_002" data-x="-5" data-y="2.94" cx="40.000000000000114" cy="234.4640000000001" r="28.792" fill="blue" stroke="#bda70f" stroke-width="28.792"/></g><g><circle data-type="point" data-label="conn_002" data-x="5" data-y="1.98" cx="983.9999999999998" cy="325.0880000000001" r="28.792" fill="red" stroke="#bda70f" stroke-width="28.792"/></g><g><polyline data-points="5.000000000000002,4.191919191919193 4.898989898989901,4.090909090909092 4.7979797979797985,3.989898989898992 4.696969696969697,3.8888888888888893 4.595959595959597,3.7878787878787885 4.494949494949497,3.6868686868686877 4.393939393939394,3.5858585858585874 4.292929292929293,3.4848484848484866 4.191919191919193,3.383838383838384 4.090909090909092,3.2828282828282833 3.989898989898992,3.181818181818183 3.8888888888888893,3.080808080808082 3.7878787878787885,2.9797979797979806 3.6868686868686877,2.87878787878788 3.5858585858585874,2.7777777777777786 3.4848484848484866,2.676767676767678 3.383838383838384,2.575757575757577 3.2828282828282833,2.4747474747474754 3.181818181818183,2.373737373737375 3.080808080808082,2.2727272727272734 2.9797979797979806,2.1717171717171726 2.87878787878788,2.070707070707072 2.7777777777777786,1.9696969696969702 2.676767676767678,1.8686868686868696 2.575757575757577,1.767676767676768 2.4747474747474754,1.6666666666666674 2.373737373737375,1.6666666666666674 2.2727272727272734,1.6666666666666674 2.1717171717171726,1.6666666666666674 2.070707070707072,1.6666666666666674 1.9696969696969702,1.6666666666666674 1.8686868686868696,1.6666666666666674 1.767676767676768,1.6666666666666674 1.6666666666666674,1.6666666666666674 1.5656565656565666,1.6666666666666674 1.4646464646464652,1.6666666666666674 1.3636363636363644,1.6666666666666674 1.262626262626263,1.6666666666666674 1.1616161616161622,1.6666666666666674 1.0606060606060617,1.6666666666666674 0.9595959595959602,1.6666666666666674 0.8585858585858596,1.6666666666666674 0.7575757575757579,1.6666666666666674 0.6565656565656574,1.6666666666666674 0.5555555555555567,1.6666666666666674 0.4545454545454551,1.6666666666666674 0.3535353535353544,1.6666666666666674 0.2525252525252529,1.6666666666666674 0.1515151515151522,1.6666666666666674 0.050505050505051545,1.6666666666666674 -0.05050505050505001,1.6666666666666674 -0.15151515151515066,1.6666666666666674 -0.2525252525252522,1.6666666666666674 -0.35353535353535287,1.6666666666666674 -0.4545454545454544,1.6666666666666674 -0.555555555555555,1.6666666666666674 -0.6565656565656557,1.6666666666666674 -0.7575757575757572,1.6666666666666674 -0.8585858585858579,1.6666666666666674 -0.9595959595959596,1.6666666666666674 -1.0606060606060603,1.6666666666666674 -1.1616161616161613,1.6666666666666674 -1.2626262626262625,1.6666666666666674 -1.363636363636363,1.6666666666666674 -1.4646464646464643,1.6666666666666674 -1.5656565656565653,1.6666666666666674 -1.6666666666666665,1.6666666666666674 -1.7676767676767675,1.6666666666666674 -1.8686868686868683,1.6666666666666674 -1.9696969696969693,1.6666666666666674 -2.07070707070707,1.6666666666666674 -2.1717171717171713,1.6666666666666674 -2.2727272727272725,1.6666666666666674 -2.3737373737373733,1.6666666666666674 -2.474747474747474,1.6666666666666674 -2.5757575757575752,1.6666666666666674 -2.6767676767676765,1.6666666666666674 -2.7777777777777777,1.6666666666666674 -2.8787878787878785,1.6666666666666674 -2.9797979797979792,1.6666666666666674 -3.0808080808080804,1.6666666666666674 -3.1818181818181817,1.6666666666666674 -3.2828282828282824,1.6666666666666674 -3.383838383838383,1.6666666666666674 -3.484848484848485,1.6666666666666674 -3.5858585858585856,1.6666666666666674 -3.6868686868686864,1.6666666666666674 -3.7878787878787876,1.6666666666666674 -3.8888888888888884,1.6666666666666674 -3.98989898989899,1.6666666666666674" data-type="line" data-label="" points="984,116.28282828282835 974.4646464646464,125.81818181818187 964.9292929292927,135.35353535353534 955.3939393939393,144.88888888888897 945.8585858585857,154.4242424242425 936.3232323232323,163.95959595959602 926.7878787878785,173.49494949494948 917.2525252525251,183.030303030303 907.7171717171716,192.56565656565664 898.181818181818,202.10101010101016 888.6464646464647,211.63636363636363 879.111111111111,221.17171717171715 869.5757575757575,230.70707070707073 860.0404040404039,240.24242424242425 850.5050505050505,249.77777777777783 840.969696969697,259.3131313131313 831.4343434343433,268.8484848484848 821.8989898989898,278.38383838383845 812.3636363636363,287.9191919191919 802.8282828282828,297.4545454545455 793.2929292929292,306.98989898989896 783.7575757575758,316.5252525252525 774.2222222222222,326.0606060606061 764.6868686868686,335.5959595959596 755.1515151515151,345.13131313131316 745.6161616161615,354.66666666666663 736.0808080808081,354.66666666666663 726.5454545454545,354.66666666666663 717.0101010101009,354.66666666666663 707.4747474747475,354.66666666666663 697.9393939393939,354.66666666666663 688.4040404040404,354.66666666666663 678.8686868686868,354.66666666666663 669.3333333333333,354.66666666666663 659.7979797979798,354.66666666666663 650.2626262626262,354.66666666666663 640.7272727272727,354.66666666666663 631.1919191919192,354.66666666666663 621.6565656565656,354.66666666666663 612.1212121212121,354.66666666666663 602.5858585858585,354.66666666666663 593.0505050505051,354.66666666666663 583.5151515151515,354.66666666666663 573.9797979797979,354.66666666666663 564.4444444444445,354.66666666666663 554.9090909090909,354.66666666666663 545.3737373737374,354.66666666666663 535.8383838383838,354.66666666666663 526.3030303030303,354.66666666666663 516.7676767676768,354.66666666666663 507.2323232323232,354.66666666666663 497.69696969696975,354.66666666666663 488.16161616161617,354.66666666666663 478.62626262626264,354.66666666666663 469.09090909090907,354.66666666666663 459.55555555555554,354.66666666666663 450.0202020202021,354.66666666666663 440.4848484848485,354.66666666666663 430.949494949495,354.66666666666663 421.4141414141414,354.66666666666663 411.8787878787879,354.66666666666663 402.34343434343435,354.66666666666663 392.80808080808083,354.66666666666663 383.2727272727273,354.66666666666663 373.7373737373738,354.66666666666663 364.2020202020202,354.66666666666663 354.6666666666667,354.66666666666663 345.13131313131316,354.66666666666663 335.59595959595964,354.66666666666663 326.0606060606061,354.66666666666663 316.5252525252526,354.66666666666663 306.9898989898991,354.66666666666663 297.4545454545455,354.66666666666663 287.91919191919203,354.66666666666663 278.38383838383845,354.66666666666663 268.84848484848493,354.66666666666663 259.3131313131314,354.66666666666663 249.77777777777783,354.66666666666663 240.2424242424243,354.66666666666663 230.70707070707084,354.66666666666663 221.17171717171726,354.66666666666663 211.63636363636374,354.66666666666663 202.10101010101022,354.66666666666663 192.5656565656567,354.66666666666663 183.03030303030312,354.66666666666663 173.4949494949496,354.66666666666663 163.95959595959607,354.66666666666663 154.42424242424255,354.66666666666663 144.88888888888903,354.66666666666663 135.35353535353545,354.66666666666663" fill="none" stroke="rgba(255,0,0,0.75)" stroke-width="14.159999999999995"/></g><g><polyline data-points="-3.98989898989899,1.6666666666666674 -4.090909090909091,1.6666666666666674 -4.191919191919193,1.6666666666666674 -4.292929292929293,1.6666666666666674 -4.393939393939394,1.6666666666666674 -4.494949494949496,1.6666666666666674 -4.595959595959596,1.6666666666666674 -4.696969696969697,1.6666666666666674 -4.7979797979797985,1.6666666666666674 -4.898989898989899,1.6666666666666674 -5.000000000000001,1.6666666666666674" data-type="line" data-label="" points="135.35353535353545,354.66666666666663 125.81818181818193,354.66666666666663 116.28282828282829,354.66666666666663 106.74747474747483,354.66666666666663 97.21212121212136,354.66666666666663 87.67676767676772,354.66666666666663 78.14141414141426,354.66666666666663 68.60606060606068,354.66666666666663 59.07070707070716,354.66666666666663 49.53535353535369,354.66666666666663 40.00000000000006,354.66666666666663" fill="none" stroke="rgba(0,0,255,0.75)" stroke-width="14.159999999999995"/></g><g><polyline data-points="-5.000000000000001,0.6565656565656574 -4.898989898989899,0.5555555555555567 -4.7979797979797985,0.4545454545454551 -4.696969696969697,0.3535353535353544 -4.595959595959596,0.2525252525252529 -4.494949494949496,0.1515151515151522 -4.393939393939394,0.050505050505051545 -4.292929292929293,-0.05050505050505001 -4.191919191919193,-0.15151515151515066 -4.090909090909091,-0.2525252525252522 -3.98989898989899,-0.35353535353535287 -3.8888888888888884,-0.4545454545454544 -3.7878787878787876,-0.555555555555555 -3.6868686868686864,-0.6565656565656557 -3.5858585858585856,-0.7575757575757572 -3.484848484848485,-0.8585858585858579 -3.383838383838383,-0.9595959595959596 -3.2828282828282824,-1.0606060606060603 -3.1818181818181817,-1.1616161616161613 -3.0808080808080804,-1.2626262626262625 -2.9797979797979792,-1.363636363636363 -2.8787878787878785,-1.4646464646464643 -2.7777777777777777,-1.5656565656565653 -2.6767676767676765,-1.6666666666666665 -2.5757575757575752,-1.7676767676767675 -2.474747474747474,-1.8686868686868683 -2.3737373737373733,-1.9696969696969693 -2.2727272727272725,-2.07070707070707 -2.1717171717171713,-2.1717171717171713 -2.07070707070707,-2.2727272727272725 -1.9696969696969693,-2.3737373737373733 -1.8686868686868683,-2.474747474747474 -1.7676767676767675,-2.5757575757575752 -1.6666666666666665,-2.6767676767676765 -1.5656565656565653,-2.7777777777777777 -1.4646464646464643,-2.8787878787878785 -1.363636363636363,-2.9797979797979792 -1.2626262626262625,-3.0808080808080804 -1.1616161616161613,-3.1818181818181817 -1.0606060606060603,-3.2828282828282824 -0.9595959595959596,-3.383838383838383 -0.8585858585858579,-3.484848484848485 -0.7575757575757572,-3.5858585858585856 -0.6565656565656557,-3.6868686868686864 -0.555555555555555,-3.6868686868686864 -0.4545454545454544,-3.6868686868686864 -0.35353535353535287,-3.6868686868686864 -0.2525252525252522,-3.6868686868686864 -0.15151515151515066,-3.6868686868686864 -0.05050505050505001,-3.6868686868686864 0.050505050505051545,-3.6868686868686864 0.1515151515151522,-3.6868686868686864 0.2525252525252529,-3.6868686868686864 0.3535353535353544,-3.6868686868686864 0.4545454545454551,-3.6868686868686864 0.5555555555555567,-3.6868686868686864 0.6565656565656574,-3.6868686868686864 0.7575757575757579,-3.6868686868686864 0.8585858585858596,-3.6868686868686864 0.9595959595959602,-3.6868686868686864 1.0606060606060617,-3.6868686868686864 1.1616161616161622,-3.6868686868686864 1.262626262626263,-3.6868686868686864 1.3636363636363644,-3.6868686868686864 1.4646464646464652,-3.6868686868686864 1.5656565656565666,-3.6868686868686864 1.6666666666666674,-3.6868686868686864 1.767676767676768,-3.6868686868686864 1.8686868686868696,-3.6868686868686864 1.9696969696969702,-3.6868686868686864 2.070707070707072,-3.6868686868686864 2.1717171717171726,-3.6868686868686864 2.2727272727272734,-3.6868686868686864 2.373737373737375,-3.6868686868686864 2.4747474747474754,-3.6868686868686864 2.575757575757577,-3.6868686868686864 2.676767676767678,-3.6868686868686864 2.7777777777777786,-3.6868686868686864 2.87878787878788,-3.6868686868686864 2.9797979797979806,-3.6868686868686864 3.080808080808082,-3.6868686868686864 3.181818181818183,-3.6868686868686864 3.2828282828282833,-3.6868686868686864 3.383838383838384,-3.6868686868686864 3.4848484848484866,-3.6868686868686864 3.5858585858585874,-3.6868686868686864 3.6868686868686877,-3.6868686868686864 3.7878787878787885,-3.6868686868686864 3.8888888888888893,-3.6868686868686864 3.989898989898992,-3.6868686868686864" data-type="line" data-label="" points="40.00000000000006,450.02020202020196 49.53535353535369,459.5555555555555 59.07070707070716,469.09090909090907 68.60606060606068,478.6262626262626 78.14141414141426,488.16161616161617 87.67676767676772,497.69696969696963 97.21212121212136,507.23232323232315 106.74747474747483,516.7676767676767 116.28282828282829,526.3030303030303 125.81818181818193,535.8383838383838 135.35353535353545,545.3737373737373 144.88888888888903,554.9090909090909 154.42424242424255,564.4444444444443 163.95959595959607,573.9797979797979 173.4949494949496,583.5151515151515 183.03030303030312,593.050505050505 192.5656565656567,602.5858585858585 202.10101010101022,612.121212121212 211.63636363636374,621.6565656565656 221.17171717171726,631.1919191919192 230.70707070707084,640.7272727272726 240.2424242424243,650.2626262626262 249.77777777777783,659.7979797979797 259.3131313131314,669.3333333333333 268.84848484848493,678.8686868686868 278.38383838383845,688.4040404040403 287.91919191919203,697.9393939393938 297.4545454545455,707.4747474747473 306.9898989898991,717.0101010101009 316.5252525252526,726.5454545454545 326.0606060606061,736.080808080808 335.59595959595964,745.6161616161614 345.13131313131316,755.151515151515 354.6666666666667,764.6868686868686 364.2020202020202,774.2222222222222 373.7373737373738,783.7575757575756 383.2727272727273,793.2929292929291 392.80808080808083,802.8282828282827 402.34343434343435,812.3636363636363 411.8787878787879,821.8989898989897 421.4141414141414,831.4343434343432 430.949494949495,840.9696969696968 440.4848484848485,850.5050505050503 450.0202020202021,860.0404040404039 459.55555555555554,860.0404040404039 469.09090909090907,860.0404040404039 478.62626262626264,860.0404040404039 488.16161616161617,860.0404040404039 497.69696969696975,860.0404040404039 507.2323232323232,860.0404040404039 516.7676767676768,860.0404040404039 526.3030303030303,860.0404040404039 535.8383838383838,860.0404040404039 545.3737373737374,860.0404040404039 554.9090909090909,860.0404040404039 564.4444444444445,860.0404040404039 573.9797979797979,860.0404040404039 583.5151515151515,860.0404040404039 593.0505050505051,860.0404040404039 602.5858585858585,860.0404040404039 612.1212121212121,860.0404040404039 621.6565656565656,860.0404040404039 631.1919191919192,860.0404040404039 640.7272727272727,860.0404040404039 650.2626262626262,860.0404040404039 659.7979797979798,860.0404040404039 669.3333333333333,860.0404040404039 678.8686868686868,860.0404040404039 688.4040404040404,860.0404040404039 697.9393939393939,860.0404040404039 707.4747474747475,860.0404040404039 717.0101010101009,860.0404040404039 726.5454545454545,860.0404040404039 736.0808080808081,860.0404040404039 745.6161616161615,860.0404040404039 755.1515151515151,860.0404040404039 764.6868686868686,860.0404040404039 774.2222222222222,860.0404040404039 783.7575757575758,860.0404040404039 793.2929292929292,860.0404040404039 802.8282828282828,860.0404040404039 812.3636363636363,860.0404040404039 821.8989898989898,860.0404040404039 831.4343434343433,860.0404040404039 840.969696969697,860.0404040404039 850.5050505050505,860.0404040404039 860.0404040404039,860.0404040404039 869.5757575757575,860.0404040404039 879.111111111111,860.0404040404039 888.6464646464647,860.0404040404039" fill="none" stroke="rgba(0,0,255,0.75)" stroke-width="14.159999999999995"/></g><g><polyline data-points="3.989898989898992,-3.6868686868686864 4.090909090909092,-3.6868686868686864 4.191919191919193,-3.6868686868686864 4.292929292929293,-3.6868686868686864 4.393939393939394,-3.6868686868686864 4.494949494949497,-3.6868686868686864 4.595959595959597,-3.6868686868686864 4.696969696969697,-3.6868686868686864 4.7979797979797985,-3.6868686868686864 4.898989898989901,-3.6868686868686864 5.000000000000002,-3.6868686868686864" data-type="line" data-label="" points="888.6464646464647,860.0404040404039 898.181818181818,860.0404040404039 907.7171717171716,860.0404040404039 917.2525252525251,860.0404040404039 926.7878787878785,860.0404040404039 936.3232323232323,860.0404040404039 945.8585858585857,860.0404040404039 955.3939393939393,860.0404040404039 964.9292929292927,860.0404040404039 974.4646464646464,860.0404040404039 984,860.0404040404039" fill="none" stroke="rgba(255,0,0,0.75)" stroke-width="14.159999999999995"/></g><g><polyline data-points="-5.000000000000001,2.9797979797979806 -4.898989898989899,2.87878787878788 -4.7979797979797985,2.7777777777777786 -4.696969696969697,2.676767676767678 -4.595959595959596,2.575757575757577 -4.494949494949496,2.4747474747474754 -4.393939393939394,2.373737373737375 -4.292929292929293,2.2727272727272734 -4.191919191919193,2.1717171717171726 -4.090909090909091,2.1717171717171726 -3.98989898989899,2.1717171717171726 -3.8888888888888884,2.070707070707072 -3.7878787878787876,2.070707070707072 -3.6868686868686864,1.9696969696969702 -3.5858585858585856,1.9696969696969702 -3.484848484848485,1.9696969696969702 -3.383838383838383,1.9696969696969702 -3.2828282828282824,1.9696969696969702 -3.1818181818181817,1.9696969696969702 -3.0808080808080804,1.9696969696969702 -2.9797979797979792,1.9696969696969702 -2.8787878787878785,1.9696969696969702 -2.7777777777777777,1.9696969696969702 -2.6767676767676765,1.9696969696969702 -2.5757575757575752,1.9696969696969702 -2.474747474747474,1.9696969696969702 -2.3737373737373733,1.9696969696969702 -2.2727272727272725,1.9696969696969702 -2.1717171717171713,1.9696969696969702 -2.07070707070707,1.9696969696969702 -1.9696969696969693,1.9696969696969702 -1.8686868686868683,1.9696969696969702 -1.7676767676767675,1.9696969696969702 -1.6666666666666665,1.9696969696969702 -1.5656565656565653,1.9696969696969702 -1.4646464646464643,1.9696969696969702 -1.363636363636363,1.9696969696969702 -1.2626262626262625,1.9696969696969702 -1.1616161616161613,1.9696969696969702 -1.0606060606060603,1.9696969696969702 -0.9595959595959596,1.9696969696969702 -0.8585858585858579,1.9696969696969702 -0.7575757575757572,1.9696969696969702 -0.6565656565656557,1.9696969696969702 -0.555555555555555,1.9696969696969702 -0.4545454545454544,1.9696969696969702 -0.35353535353535287,1.9696969696969702 -0.2525252525252522,1.9696969696969702 -0.15151515151515066,1.9696969696969702 -0.05050505050505001,1.9696969696969702 0.050505050505051545,1.9696969696969702 0.1515151515151522,1.9696969696969702 0.2525252525252529,1.9696969696969702 0.3535353535353544,1.9696969696969702 0.4545454545454551,1.9696969696969702 0.5555555555555567,1.9696969696969702 0.6565656565656574,1.9696969696969702 0.7575757575757579,1.9696969696969702 0.8585858585858596,1.9696969696969702 0.9595959595959602,1.9696969696969702 1.0606060606060617,1.9696969696969702 1.1616161616161622,1.9696969696969702 1.262626262626263,1.9696969696969702 1.3636363636363644,1.9696969696969702 1.4646464646464652,1.9696969696969702 1.5656565656565666,1.9696969696969702 1.6666666666666674,1.9696969696969702 1.767676767676768,1.9696969696969702 1.8686868686868696,1.9696969696969702 1.9696969696969702,1.9696969696969702 2.070707070707072,1.9696969696969702 2.1717171717171726,1.9696969696969702 2.2727272727272734,1.9696969696969702 2.373737373737375,1.9696969696969702 2.4747474747474754,1.9696969696969702 2.575757575757577,1.9696969696969702 2.676767676767678,1.9696969696969702 2.7777777777777786,1.9696969696969702 2.87878787878788,1.9696969696969702 2.9797979797979806,1.9696969696969702 3.080808080808082,1.9696969696969702 3.181818181818183,1.9696969696969702 3.2828282828282833,1.9696969696969702 3.383838383838384,1.9696969696969702 3.4848484848484866,1.9696969696969702 3.5858585858585874,1.9696969696969702 3.6868686868686877,1.9696969696969702 3.7878787878787885,1.9696969696969702 3.8888888888888893,1.9696969696969702 3.989898989898992,1.9696969696969702" data-type="line" data-label="" points="40.00000000000006,230.70707070707073 49.53535353535369,240.24242424242425 59.07070707070716,249.77777777777783 68.60606060606068,259.3131313131313 78.14141414141426,268.8484848484848 87.67676767676772,278.38383838383845 97.21212121212136,287.9191919191919 106.74747474747483,297.4545454545455 116.28282828282829,306.98989898989896 125.81818181818193,306.98989898989896 135.35353535353545,306.98989898989896 144.88888888888903,316.5252525252525 154.42424242424255,316.5252525252525 163.95959595959607,326.0606060606061 173.4949494949496,326.0606060606061 183.03030303030312,326.0606060606061 192.5656565656567,326.0606060606061 202.10101010101022,326.0606060606061 211.63636363636374,326.0606060606061 221.17171717171726,326.0606060606061 230.70707070707084,326.0606060606061 240.2424242424243,326.0606060606061 249.77777777777783,326.0606060606061 259.3131313131314,326.0606060606061 268.84848484848493,326.0606060606061 278.38383838383845,326.0606060606061 287.91919191919203,326.0606060606061 297.4545454545455,326.0606060606061 306.9898989898991,326.0606060606061 316.5252525252526,326.0606060606061 326.0606060606061,326.0606060606061 335.59595959595964,326.0606060606061 345.13131313131316,326.0606060606061 354.6666666666667,326.0606060606061 364.2020202020202,326.0606060606061 373.7373737373738,326.0606060606061 383.2727272727273,326.0606060606061 392.80808080808083,326.0606060606061 402.34343434343435,326.0606060606061 411.8787878787879,326.0606060606061 421.4141414141414,326.0606060606061 430.949494949495,326.0606060606061 440.4848484848485,326.0606060606061 450.0202020202021,326.0606060606061 459.55555555555554,326.0606060606061 469.09090909090907,326.0606060606061 478.62626262626264,326.0606060606061 488.16161616161617,326.0606060606061 497.69696969696975,326.0606060606061 507.2323232323232,326.0606060606061 516.7676767676768,326.0606060606061 526.3030303030303,326.0606060606061 535.8383838383838,326.0606060606061 545.3737373737374,326.0606060606061 554.9090909090909,326.0606060606061 564.4444444444445,326.0606060606061 573.9797979797979,326.0606060606061 583.5151515151515,326.0606060606061 593.0505050505051,326.0606060606061 602.5858585858585,326.0606060606061 612.1212121212121,326.0606060606061 621.6565656565656,326.0606060606061 631.1919191919192,326.0606060606061 640.7272727272727,326.0606060606061 650.2626262626262,326.0606060606061 659.7979797979798,326.0606060606061 669.3333333333333,326.0606060606061 678.8686868686868,326.0606060606061 688.4040404040404,326.0606060606061 697.9393939393939,326.0606060606061 707.4747474747475,326.0606060606061 717.0101010101009,326.0606060606061 726.5454545454545,326.0606060606061 736.0808080808081,326.0606060606061 745.6161616161615,326.0606060606061 755.1515151515151,326.0606060606061 764.6868686868686,326.0606060606061 774.2222222222222,326.0606060606061 783.7575757575758,326.0606060606061 793.2929292929292,326.0606060606061 802.8282828282828,326.0606060606061 812.3636363636363,326.0606060606061 821.8989898989898,326.0606060606061 831.4343434343433,326.0606060606061 840.969696969697,326.0606060606061 850.5050505050505,326.0606060606061 860.0404040404039,326.0606060606061 869.5757575757575,326.0606060606061 879.111111111111,326.0606060606061 888.6464646464647,326.0606060606061" fill="none" stroke="rgba(0,0,255,0.75)" stroke-width="14.159999999999995"/></g><g><polyline data-points="3.989898989898992,1.9696969696969702 4.090909090909092,1.9696969696969702 4.191919191919193,1.9696969696969702 4.292929292929293,1.9696969696969702 4.393939393939394,1.9696969696969702 4.494949494949497,1.9696969696969702 4.595959595959597,1.9696969696969702 4.696969696969697,1.9696969696969702 4.7979797979797985,1.9696969696969702 4.898989898989901,1.9696969696969702 5.000000000000002,1.9696969696969702" data-type="line" data-label="" points="888.6464646464647,326.0606060606061 898.181818181818,326.0606060606061 907.7171717171716,326.0606060606061 917.2525252525251,326.0606060606061 926.7878787878785,326.0606060606061 936.3232323232323,326.0606060606061 945.8585858585857,326.0606060606061 955.3939393939393,326.0606060606061 964.9292929292927,326.0606060606061 974.4646464646464,326.0606060606061 984,326.0606060606061" fill="none" stroke="rgba(255,0,0,0.75)" stroke-width="14.159999999999995"/></g><g><rect data-type="rect" data-label="" data-x="0" data-y="0" x="40.000000000000114" y="40.00000000000017" width="943.9999999999997" height="943.9999999999995" fill="none" stroke="gray" stroke-width="0.010593220338983056"/></g><g><rect data-type="rect" data-label="" data-x="0" data-y="0" x="40.000000000000114" y="40.00000000000017" width="943.9999999999997" height="943.9999999999995" fill="none" stroke="rgba(15, 23, 42, 0.8)" stroke-width="0.010593220338983056"/></g><circle data-type="circle" data-label="" data-x="-3.98989898989899" data-y="1.6666666666666674" cx="135.35353535353545" cy="354.66666666666663" r="28.791999999999987" fill="rgba(0,0,0,0.3)" stroke="black" stroke-width="0.010593220338983056"/><circle data-type="circle" data-label="" data-x="3.989898989898992" data-y="-3.6868686868686864" cx="888.6464646464647" cy="860.0404040404039" r="28.791999999999987" fill="rgba(0,0,0,0.3)" stroke="black" stroke-width="0.010593220338983056"/><circle data-type="circle" data-label="" data-x="3.989898989898992" data-y="1.9696969696969702" cx="888.6464646464647" cy="326.0606060606061" r="28.791999999999987" fill="rgba(0,0,0,0.3)" stroke="black" stroke-width="0.010593220338983056"/><g id="crosshair" style="display: none"><line id="crosshair-h" y1="0" y2="1024" stroke="#666" stroke-width="0.5"/><line id="crosshair-v" x1="0" x2="1024" stroke="#666" stroke-width="0.5"/><text id="coordinates" font-family="monospace" font-size="12" fill="#666"></text></g><script><![CDATA[
              document.currentScript.parentElement.addEventListener('mousemove', (e) => {
                const svg = e.currentTarget;
                const rect = svg.getBoundingClientRect();
                const x = e.clientX - rect.left;
                const y = e.clientY - rect.top;
                const crosshair = svg.getElementById('crosshair');
                const h = svg.getElementById('crosshair-h');
                const v = svg.getElementById('crosshair-v');
                const coords = svg.getElementById('coordinates');
                
                crosshair.style.display = 'block';
                h.setAttribute('x1', '0');
                h.setAttribute('x2', '1024');
                h.setAttribute('y1', y);
                h.setAttribute('y2', y);
                v.setAttribute('x1', x);
                v.setAttribute('x2', x);
                v.setAttribute('y1', '0');
                v.setAttribute('y2', '1024');

                // Calculate real coordinates using inverse transformation
                const matrix = {"a":94.39999999999996,"c":0,"e":511.99999999999994,"b":0,"d":-94.39999999999996,"f":512};
                // Manually invert and apply the affine transform
                // Since we only use translate and scale, we can directly compute:
                // x' = (x - tx) / sx
                // y' = (y - ty) / sy
                const sx = matrix.a;
                const sy = matrix.d;
                const tx = matrix.e; 
                const ty = matrix.f;
                const realPoint = {
                  x: (x - tx) / sx,
                  y: (y - ty) / sy // Flip y back since we used negative scale
                }
                
                coords.textContent = `(${realPoint.x.toFixed(2)}, ${realPoint.y.toFixed(2)})`;
                coords.setAttribute('x', (x + 5).toString());
                coords.setAttribute('y', (y - 5).toString());
              });
              document.currentScript.parentElement.addEventListener('mouseleave', () => {
                document.currentScript.parentElement.getElementById('crosshair').style.display = 'none';
              });
            ]]></script></svg>