<svg width="1024" height="1024" viewBox="0 0 1024 1024" xmlns="http://www.w3.org/2000/svg"><rect width="100%" height="100%" fill="white"/><g><circle data-type="point" data-label="conn_000" data-x="-4.08" data-y="-5" cx="126.84800000000007" cy="984" r="28.792" fill="red" stroke="#bd0f0f" stroke-width="28.792"/></g><g><circle data-type="point" data-label="conn_000" data-x="2.88" data-y="5" cx="783.8719999999998" cy="40.000000000000284" r="28.792" fill="red" stroke="#bd0f0f" stroke-width="28.792"/></g><g><circle data-type="point" data-label="conn_001" data-x="-5" data-y="2.46" cx="40.000000000000114" cy="279.7760000000002" r="28.792" fill="blue" stroke="#0fbd42" stroke-width="28.792"/></g><g><circle data-type="point" data-label="conn_001" data-x="5" data-y="3.42" cx="983.9999999999998" cy="189.15200000000027" r="28.792" fill="red" stroke="#0fbd42" stroke-width="28.792"/></g><g><circle data-type="point" data-label="conn_002" data-x="-5" data-y="-3.92" cx="40.000000000000114" cy="882.048" r="28.792" fill="blue" stroke="#740fbd" stroke-width="28.792"/></g><g><circle data-type="point" data-label="conn_002" data-x="5" data-y="-0.84" cx="983.9999999999998" cy="591.296" r="28.792" fill="blue" stroke="#740fbd" stroke-width="28.792"/></g><g><circle data-type="point" data-label="conn_003" data-x="-1.82" data-y="-5" cx="340.192" cy="984" r="28.792" fill="red" stroke="#bda70f" stroke-width="28.792"/></g><g><circle data-type="point" data-label="conn_003" data-x="3.5" data-y="5" cx="842.3999999999999" cy="40.000000000000284" r="28.792" fill="red" stroke="#bda70f" stroke-width="28.792"/></g><g><circle data-type="point" data-label="conn_004" data-x="5" data-y="-1.92" cx="983.9999999999998" cy="693.248" r="28.792" fill="blue" stroke="#0fa0bd" stroke-width="28.792"/></g><g><circle data-type="point" data-label="conn_004" data-x="-5" data-y="3.24" cx="40.000000000000114" cy="206.14400000000023" r="28.792" fill="blue" stroke="#0fa0bd" stroke-width="28.792"/></g><g><circle data-type="point" data-label="conn_005" data-x="5" data-y="0.8200000000000001" cx="983.9999999999998" cy="434.59200000000016" r="28.792" fill="blue" stroke="#bd0f6d" stroke-width="28.792"/></g><g><circle data-type="point" data-label="conn_005" data-x="-3.88" data-y="5" cx="145.72800000000012" cy="40.000000000000284" r="28.792" fill="blue" stroke="#bd0f6d" stroke-width="28.792"/></g><g><circle data-type="point" data-label="conn_006" data-x="5" data-y="-2.86" cx="983.9999999999998" cy="781.9839999999999" r="28.792" fill="blue" stroke="#3bbd0f" stroke-width="28.792"/></g><g><circle data-type="point" data-label="conn_006" data-x="-5" data-y="-4.66" cx="40.000000000000114" cy="951.904" r="28.792" fill="blue" stroke="#3bbd0f" stroke-width="28.792"/></g><g><polyline data-points="5.000000000000002,0.8585858585858596 4.898989898989901,0.9595959595959602 4.7979797979797985,1.0606060606060617 4.696969696969697,1.1616161616161622 4.595959595959597,1.262626262626263 4.494949494949497,1.3636363636363644 4.393939393939394,1.4646464646464652 4.292929292929293,1.5656565656565666 4.191919191919193,1.6666666666666674 4.090909090909092,1.767676767676768 3.989898989898992,1.8686868686868696 3.8888888888888893,1.9696969696969702 3.7878787878787885,2.070707070707072 3.6868686868686877,2.1717171717171726 3.5858585858585874,2.2727272727272734 3.4848484848484866,2.373737373737375 3.383838383838384,2.4747474747474754 3.2828282828282833,2.575757575757577 3.181818181818183,2.676767676767678 3.080808080808082,2.7777777777777786 2.9797979797979806,2.87878787878788 2.87878787878788,2.9797979797979806 2.7777777777777786,3.080808080808082 2.676767676767678,3.181818181818183 2.575757575757577,3.2828282828282833 2.4747474747474754,3.383838383838384 2.373737373737375,3.4848484848484866 2.2727272727272734,3.5858585858585874 2.1717171717171726,3.6868686868686877 2.070707070707072,3.7878787878787885 1.9696969696969702,3.8888888888888893 1.8686868686868696,3.989898989898992 1.767676767676768,4.090909090909092 1.6666666666666674,4.191919191919193 1.5656565656565666,4.292929292929293 1.4646464646464652,4.393939393939394 1.3636363636363644,4.494949494949497 1.262626262626263,4.595959595959597 1.1616161616161622,4.696969696969697 1.0606060606060617,4.7979797979797985 0.9595959595959602,4.898989898989901 0.8585858585858596,5.000000000000002 0.7575757575757579,5.000000000000002 0.6565656565656574,5.000000000000002 0.5555555555555567,5.000000000000002 0.4545454545454551,5.000000000000002 0.3535353535353544,5.000000000000002 0.2525252525252529,5.000000000000002 0.1515151515151522,5.000000000000002 0.050505050505051545,5.000000000000002 -0.05050505050505001,5.000000000000002 -0.15151515151515066,5.000000000000002 -0.2525252525252522,5.000000000000002 -0.35353535353535287,5.000000000000002 -0.4545454545454544,5.000000000000002 -0.555555555555555,5.000000000000002 -0.6565656565656557,5.000000000000002 -0.7575757575757572,5.000000000000002 -0.8585858585858579,5.000000000000002 -0.9595959595959596,5.000000000000002 -1.0606060606060603,5.000000000000002 -1.1616161616161613,5.000000000000002 -1.2626262626262625,5.000000000000002 -1.363636363636363,5.000000000000002 -1.4646464646464643,5.000000000000002 -1.5656565656565653,5.000000000000002 -1.6666666666666665,5.000000000000002 -1.7676767676767675,5.000000000000002 -1.8686868686868683,5.000000000000002 -1.9696969696969693,5.000000000000002 -2.07070707070707,5.000000000000002 -2.1717171717171713,5.000000000000002 -2.2727272727272725,5.000000000000002 -2.3737373737373733,5.000000000000002 -2.474747474747474,5.000000000000002 -2.5757575757575752,5.000000000000002 -2.6767676767676765,5.000000000000002 -2.7777777777777777,5.000000000000002 -2.8787878787878785,5.000000000000002 -2.9797979797979792,5.000000000000002 -3.0808080808080804,5.000000000000002 -3.1818181818181817,5.000000000000002 -3.2828282828282824,5.000000000000002 -3.383838383838383,5.000000000000002 -3.484848484848485,5.000000000000002 -3.5858585858585856,5.000000000000002 -3.6868686868686864,5.000000000000002 -3.7878787878787876,5.000000000000002 -3.8888888888888884,5.000000000000002" data-type="line" data-label="" points="984,430.94949494949503 974.4646464646464,421.4141414141415 964.9292929292927,411.87878787878793 955.3939393939393,402.3434343434344 945.8585858585857,392.80808080808094 936.3232323232323,383.27272727272737 926.7878787878785,373.73737373737384 917.2525252525251,364.2020202020203 907.7171717171716,354.66666666666674 898.181818181818,345.1313131313133 888.6464646464647,335.5959595959597 879.111111111111,326.06060606060623 869.5757575757575,316.5252525252526 860.0404040404039,306.9898989898991 850.5050505050505,297.4545454545456 840.969696969697,287.91919191919203 831.4343434343433,278.38383838383857 821.8989898989898,268.84848484848493 812.3636363636363,259.3131313131314 802.8282828282828,249.77777777777794 793.2929292929292,240.24242424242436 783.7575757575758,230.70707070707084 774.2222222222222,221.17171717171726 764.6868686868686,211.63636363636374 755.1515151515151,202.10101010101027 745.6161616161615,192.56565656565675 736.0808080808081,183.03030303030312 726.5454545454545,173.4949494949496 717.0101010101009,163.95959595959613 707.4747474747475,154.4242424242426 697.9393939393939,144.88888888888908 688.4040404040404,135.35353535353545 678.8686868686868,125.81818181818198 669.3333333333333,116.28282828282846 659.7979797979798,106.747474747475 650.2626262626262,97.21212121212153 640.7272727272727,87.67676767676778 631.1919191919192,78.14141414141432 621.6565656565656,68.60606060606085 612.1212121212121,59.07070707070733 602.5858585858585,49.53535353535369 593.0505050505051,40.000000000000114 583.5151515151515,40.000000000000114 573.9797979797979,40.000000000000114 564.4444444444445,40.000000000000114 554.9090909090909,40.000000000000114 545.3737373737374,40.000000000000114 535.8383838383838,40.000000000000114 526.3030303030303,40.000000000000114 516.7676767676768,40.000000000000114 507.2323232323232,40.000000000000114 497.69696969696975,40.000000000000114 488.16161616161617,40.000000000000114 478.62626262626264,40.000000000000114 469.09090909090907,40.000000000000114 459.55555555555554,40.000000000000114 450.0202020202021,40.000000000000114 440.4848484848485,40.000000000000114 430.949494949495,40.000000000000114 421.4141414141414,40.000000000000114 411.8787878787879,40.000000000000114 402.34343434343435,40.000000000000114 392.80808080808083,40.000000000000114 383.2727272727273,40.000000000000114 373.7373737373738,40.000000000000114 364.2020202020202,40.000000000000114 354.6666666666667,40.000000000000114 345.13131313131316,40.000000000000114 335.59595959595964,40.000000000000114 326.0606060606061,40.000000000000114 316.5252525252526,40.000000000000114 306.9898989898991,40.000000000000114 297.4545454545455,40.000000000000114 287.91919191919203,40.000000000000114 278.38383838383845,40.000000000000114 268.84848484848493,40.000000000000114 259.3131313131314,40.000000000000114 249.77777777777783,40.000000000000114 240.2424242424243,40.000000000000114 230.70707070707084,40.000000000000114 221.17171717171726,40.000000000000114 211.63636363636374,40.000000000000114 202.10101010101022,40.000000000000114 192.5656565656567,40.000000000000114 183.03030303030312,40.000000000000114 173.4949494949496,40.000000000000114 163.95959595959607,40.000000000000114 154.42424242424255,40.000000000000114 144.88888888888903,40.000000000000114" fill="none" stroke="rgba(0,0,255,0.75)" stroke-width="14.159999999999995"/></g><g><polyline data-points="-1.8686868686868683,-5.000000000000001 -1.7676767676767675,-4.898989898989899 -1.6666666666666665,-4.7979797979797985 -1.5656565656565653,-4.696969696969697 -1.4646464646464643,-4.595959595959596 -1.363636363636363,-4.494949494949496 -1.2626262626262625,-4.393939393939394 -1.1616161616161613,-4.292929292929293 -1.0606060606060603,-4.191919191919193 -0.9595959595959596,-4.090909090909091 -0.8585858585858579,-3.98989898989899 -0.7575757575757572,-3.8888888888888884 -0.6565656565656557,-3.7878787878787876 -0.555555555555555,-3.6868686868686864 -0.4545454545454544,-3.5858585858585856 -0.35353535353535287,-3.484848484848485 -0.2525252525252522,-3.383838383838383 -0.15151515151515066,-3.2828282828282824 -0.05050505050505001,-3.1818181818181817 0.050505050505051545,-3.0808080808080804 0.1515151515151522,-2.9797979797979792 0.2525252525252529,-2.8787878787878785 0.3535353535353544,-2.7777777777777777 0.4545454545454551,-2.6767676767676765 0.5555555555555567,-2.5757575757575752 0.6565656565656574,-2.474747474747474 0.7575757575757579,-2.3737373737373733 0.8585858585858596,-2.2727272727272725 0.9595959595959602,-2.1717171717171713 1.0606060606060617,-2.07070707070707 1.1616161616161622,-1.9696969696969693 1.262626262626263,-1.8686868686868683 1.3636363636363644,-1.7676767676767675 1.4646464646464652,-1.6666666666666665 1.5656565656565666,-1.5656565656565653 1.6666666666666674,-1.4646464646464643 1.767676767676768,-1.363636363636363 1.8686868686868696,-1.2626262626262625 1.9696969696969702,-1.1616161616161613 2.070707070707072,-1.0606060606060603 2.1717171717171726,-0.9595959595959596 2.2727272727272734,-0.8585858585858579 2.373737373737375,-0.7575757575757572 2.4747474747474754,-0.6565656565656557 2.575757575757577,-0.555555555555555 2.676767676767678,-0.4545454545454544 2.7777777777777786,-0.35353535353535287 2.87878787878788,-0.2525252525252522 2.9797979797979806,-0.15151515151515066 3.080808080808082,-0.05050505050505001 3.181818181818183,0.050505050505051545 3.2828282828282833,0.1515151515151522 3.383838383838384,0.2525252525252529 3.4848484848484866,0.3535353535353544 3.5858585858585874,0.4545454545454551 3.5858585858585874,0.5555555555555567 3.5858585858585874,0.6565656565656574 3.5858585858585874,0.7575757575757579 3.5858585858585874,0.8585858585858596 3.5858585858585874,0.9595959595959602 3.5858585858585874,1.0606060606060617 3.5858585858585874,1.1616161616161622 3.5858585858585874,1.262626262626263 3.5858585858585874,1.3636363636363644 3.5858585858585874,1.4646464646464652 3.5858585858585874,1.5656565656565666 3.5858585858585874,1.6666666666666674 3.5858585858585874,1.767676767676768 3.5858585858585874,1.8686868686868696 3.5858585858585874,1.9696969696969702 3.5858585858585874,2.070707070707072 3.5858585858585874,2.1717171717171726 3.5858585858585874,2.2727272727272734 3.5858585858585874,2.373737373737375 3.5858585858585874,2.4747474747474754 3.5858585858585874,2.575757575757577 3.5858585858585874,2.676767676767678 3.5858585858585874,2.7777777777777786 3.5858585858585874,2.87878787878788 3.5858585858585874,2.9797979797979806 3.5858585858585874,3.080808080808082 3.5858585858585874,3.181818181818183 3.5858585858585874,3.2828282828282833 3.5858585858585874,3.383838383838384 3.5858585858585874,3.4848484848484866 3.5858585858585874,3.5858585858585874 3.5858585858585874,3.6868686868686877 3.5858585858585874,3.7878787878787885 3.5858585858585874,3.8888888888888893 3.5858585858585874,3.989898989898992 3.5858585858585874,4.090909090909092 3.5858585858585874,4.191919191919193 3.5858585858585874,4.292929292929293 3.5858585858585874,4.393939393939394 3.5858585858585874,4.494949494949497 3.5858585858585874,4.595959595959597 3.5858585858585874,4.696969696969697 3.5858585858585874,4.7979797979797985 3.5858585858585874,4.898989898989901 3.5858585858585874,5.000000000000002" data-type="line" data-label="" points="335.59595959595964,984 345.13131313131316,974.4646464646464 354.6666666666667,964.9292929292928 364.2020202020202,955.3939393939394 373.7373737373738,945.8585858585858 383.2727272727273,936.3232323232323 392.80808080808083,926.7878787878788 402.34343434343435,917.2525252525252 411.8787878787879,907.7171717171718 421.4141414141414,898.1818181818181 430.949494949495,888.6464646464647 440.4848484848485,879.1111111111111 450.0202020202021,869.5757575757575 459.55555555555554,860.0404040404039 469.09090909090907,850.5050505050505 478.62626262626264,840.969696969697 488.16161616161617,831.4343434343434 497.69696969696975,821.8989898989898 507.2323232323232,812.3636363636363 516.7676767676768,802.8282828282828 526.3030303030303,793.2929292929292 535.8383838383838,783.7575757575758 545.3737373737374,774.2222222222222 554.9090909090909,764.6868686868687 564.4444444444445,755.1515151515151 573.9797979797979,745.6161616161615 583.5151515151515,736.0808080808081 593.0505050505051,726.5454545454545 602.5858585858585,717.010101010101 612.1212121212121,707.4747474747475 621.6565656565656,697.939393939394 631.1919191919192,688.4040404040404 640.7272727272727,678.8686868686868 650.2626262626262,669.3333333333334 659.7979797979798,659.7979797979798 669.3333333333333,650.2626262626263 678.8686868686868,640.7272727272727 688.4040404040404,631.1919191919193 697.9393939393939,621.6565656565657 707.4747474747475,612.1212121212121 717.0101010101009,602.5858585858587 726.5454545454545,593.0505050505051 736.0808080808081,583.5151515151516 745.6161616161615,573.979797979798 755.1515151515151,564.4444444444445 764.6868686868686,554.909090909091 774.2222222222222,545.3737373737374 783.7575757575758,535.838383838384 793.2929292929292,526.3030303030304 802.8282828282828,516.7676767676768 812.3636363636363,507.23232323232327 821.8989898989898,497.69696969696975 831.4343434343433,488.1616161616163 840.969696969697,478.6262626262627 850.5050505050505,469.0909090909092 850.5050505050505,459.5555555555556 850.5050505050505,450.0202020202021 850.5050505050505,440.4848484848486 850.5050505050505,430.94949494949503 850.5050505050505,421.4141414141415 850.5050505050505,411.87878787878793 850.5050505050505,402.3434343434344 850.5050505050505,392.80808080808094 850.5050505050505,383.27272727272737 850.5050505050505,373.73737373737384 850.5050505050505,364.2020202020203 850.5050505050505,354.66666666666674 850.5050505050505,345.1313131313133 850.5050505050505,335.5959595959597 850.5050505050505,326.06060606060623 850.5050505050505,316.5252525252526 850.5050505050505,306.9898989898991 850.5050505050505,297.4545454545456 850.5050505050505,287.91919191919203 850.5050505050505,278.38383838383857 850.5050505050505,268.84848484848493 850.5050505050505,259.3131313131314 850.5050505050505,249.77777777777794 850.5050505050505,240.24242424242436 850.5050505050505,230.70707070707084 850.5050505050505,221.17171717171726 850.5050505050505,211.63636363636374 850.5050505050505,202.10101010101027 850.5050505050505,192.56565656565675 850.5050505050505,183.03030303030312 850.5050505050505,173.4949494949496 850.5050505050505,163.95959595959613 850.5050505050505,154.4242424242426 850.5050505050505,144.88888888888908 850.5050505050505,135.35353535353545 850.5050505050505,125.81818181818198 850.5050505050505,116.28282828282846 850.5050505050505,106.747474747475 850.5050505050505,97.21212121212153 850.5050505050505,87.67676767676778 850.5050505050505,78.14141414141432 850.5050505050505,68.60606060606085 850.5050505050505,59.07070707070733 850.5050505050505,49.53535353535369 850.5050505050505,40.000000000000114" fill="none" stroke="rgba(255,0,0,0.75)" stroke-width="14.159999999999995"/></g><g><polyline data-points="-4.090909090909091,-5.000000000000001 -3.98989898989899,-4.898989898989899 -3.8888888888888884,-4.7979797979797985 -3.7878787878787876,-4.696969696969697 -3.6868686868686864,-4.595959595959596 -3.5858585858585856,-4.494949494949496 -3.484848484848485,-4.393939393939394 -3.383838383838383,-4.292929292929293 -3.2828282828282824,-4.191919191919193 -3.1818181818181817,-4.090909090909091 -3.0808080808080804,-3.98989898989899 -2.9797979797979792,-3.8888888888888884 -2.8787878787878785,-3.7878787878787876 -2.7777777777777777,-3.6868686868686864 -2.6767676767676765,-3.5858585858585856 -2.5757575757575752,-3.484848484848485 -2.474747474747474,-3.383838383838383 -2.3737373737373733,-3.2828282828282824 -2.2727272727272725,-3.1818181818181817 -2.1717171717171713,-3.0808080808080804 -2.07070707070707,-2.9797979797979792 -1.9696969696969693,-2.8787878787878785 -1.8686868686868683,-2.7777777777777777 -1.7676767676767675,-2.6767676767676765 -1.6666666666666665,-2.5757575757575752 -1.5656565656565653,-2.474747474747474 -1.4646464646464643,-2.3737373737373733 -1.363636363636363,-2.2727272727272725 -1.2626262626262625,-2.1717171717171713 -1.1616161616161613,-2.07070707070707 -1.0606060606060603,-1.9696969696969693 -0.9595959595959596,-1.8686868686868683 -0.8585858585858579,-1.7676767676767675 -0.7575757575757572,-1.6666666666666665 -0.6565656565656557,-1.5656565656565653 -0.555555555555555,-1.4646464646464643 -0.4545454545454544,-1.363636363636363 -0.35353535353535287,-1.2626262626262625 -0.2525252525252522,-1.1616161616161613 -0.15151515151515066,-1.0606060606060603 -0.05050505050505001,-0.9595959595959596 0.050505050505051545,-0.8585858585858579 0.1515151515151522,-0.7575757575757572 0.2525252525252529,-0.6565656565656557 0.3535353535353544,-0.555555555555555 0.4545454545454551,-0.4545454545454544 0.5555555555555567,-0.35353535353535287 0.6565656565656574,-0.2525252525252522 0.7575757575757579,-0.15151515151515066 0.8585858585858596,-0.05050505050505001 0.9595959595959602,0.050505050505051545 1.0606060606060617,0.1515151515151522 1.1616161616161622,0.2525252525252529 1.262626262626263,0.3535353535353544 1.3636363636363644,0.4545454545454551 1.4646464646464652,0.5555555555555567 1.5656565656565666,0.6565656565656574 1.6666666666666674,0.7575757575757579 1.767676767676768,0.8585858585858596 1.8686868686868696,0.9595959595959602 1.9696969696969702,1.0606060606060617 2.070707070707072,1.1616161616161622 2.1717171717171726,1.262626262626263 2.2727272727272734,1.3636363636363644 2.373737373737375,1.4646464646464652 2.4747474747474754,1.5656565656565666 2.575757575757577,1.6666666666666674 2.676767676767678,1.767676767676768 2.7777777777777786,1.8686868686868696 2.87878787878788,1.9696969696969702 2.87878787878788,2.070707070707072 2.87878787878788,2.1717171717171726 2.87878787878788,2.2727272727272734 2.87878787878788,2.373737373737375 2.87878787878788,2.4747474747474754 2.87878787878788,2.575757575757577 2.87878787878788,2.676767676767678 2.87878787878788,2.7777777777777786 2.87878787878788,2.87878787878788 2.87878787878788,2.9797979797979806 2.87878787878788,3.080808080808082 2.87878787878788,3.181818181818183 2.87878787878788,3.2828282828282833 2.87878787878788,3.383838383838384 2.87878787878788,3.4848484848484866 2.87878787878788,3.5858585858585874 2.87878787878788,3.6868686868686877 2.87878787878788,3.7878787878787885 2.87878787878788,3.8888888888888893 2.87878787878788,3.989898989898992 2.87878787878788,4.090909090909092 2.87878787878788,4.191919191919193 2.87878787878788,4.292929292929293 2.87878787878788,4.393939393939394 2.87878787878788,4.494949494949497 2.87878787878788,4.595959595959597 2.87878787878788,4.696969696969697 2.87878787878788,4.7979797979797985 2.87878787878788,4.898989898989901 2.87878787878788,5.000000000000002" data-type="line" data-label="" points="125.81818181818193,984 135.35353535353545,974.4646464646464 144.88888888888903,964.9292929292928 154.42424242424255,955.3939393939394 163.95959595959607,945.8585858585858 173.4949494949496,936.3232323232323 183.03030303030312,926.7878787878788 192.5656565656567,917.2525252525252 202.10101010101022,907.7171717171718 211.63636363636374,898.1818181818181 221.17171717171726,888.6464646464647 230.70707070707084,879.1111111111111 240.2424242424243,869.5757575757575 249.77777777777783,860.0404040404039 259.3131313131314,850.5050505050505 268.84848484848493,840.969696969697 278.38383838383845,831.4343434343434 287.91919191919203,821.8989898989898 297.4545454545455,812.3636363636363 306.9898989898991,802.8282828282828 316.5252525252526,793.2929292929292 326.0606060606061,783.7575757575758 335.59595959595964,774.2222222222222 345.13131313131316,764.6868686868687 354.6666666666667,755.1515151515151 364.2020202020202,745.6161616161615 373.7373737373738,736.0808080808081 383.2727272727273,726.5454545454545 392.80808080808083,717.010101010101 402.34343434343435,707.4747474747475 411.8787878787879,697.939393939394 421.4141414141414,688.4040404040404 430.949494949495,678.8686868686868 440.4848484848485,669.3333333333334 450.0202020202021,659.7979797979798 459.55555555555554,650.2626262626263 469.09090909090907,640.7272727272727 478.62626262626264,631.1919191919193 488.16161616161617,621.6565656565657 497.69696969696975,612.1212121212121 507.2323232323232,602.5858585858587 516.7676767676768,593.0505050505051 526.3030303030303,583.5151515151516 535.8383838383838,573.979797979798 545.3737373737374,564.4444444444445 554.9090909090909,554.909090909091 564.4444444444445,545.3737373737374 573.9797979797979,535.838383838384 583.5151515151515,526.3030303030304 593.0505050505051,516.7676767676768 602.5858585858585,507.23232323232327 612.1212121212121,497.69696969696975 621.6565656565656,488.1616161616163 631.1919191919192,478.6262626262627 640.7272727272727,469.0909090909092 650.2626262626262,459.5555555555556 659.7979797979798,450.0202020202021 669.3333333333333,440.4848484848486 678.8686868686868,430.94949494949503 688.4040404040404,421.4141414141415 697.9393939393939,411.87878787878793 707.4747474747475,402.3434343434344 717.0101010101009,392.80808080808094 726.5454545454545,383.27272727272737 736.0808080808081,373.73737373737384 745.6161616161615,364.2020202020203 755.1515151515151,354.66666666666674 764.6868686868686,345.1313131313133 774.2222222222222,335.5959595959597 783.7575757575758,326.06060606060623 783.7575757575758,316.5252525252526 783.7575757575758,306.9898989898991 783.7575757575758,297.4545454545456 783.7575757575758,287.91919191919203 783.7575757575758,278.38383838383857 783.7575757575758,268.84848484848493 783.7575757575758,259.3131313131314 783.7575757575758,249.77777777777794 783.7575757575758,240.24242424242436 783.7575757575758,230.70707070707084 783.7575757575758,221.17171717171726 783.7575757575758,211.63636363636374 783.7575757575758,202.10101010101027 783.7575757575758,192.56565656565675 783.7575757575758,183.03030303030312 783.7575757575758,173.4949494949496 783.7575757575758,163.95959595959613 783.7575757575758,154.4242424242426 783.7575757575758,144.88888888888908 783.7575757575758,135.35353535353545 783.7575757575758,125.81818181818198 783.7575757575758,116.28282828282846 783.7575757575758,106.747474747475 783.7575757575758,97.21212121212153 783.7575757575758,87.67676767676778 783.7575757575758,78.14141414141432 783.7575757575758,68.60606060606085 783.7575757575758,59.07070707070733 783.7575757575758,49.53535353535369 783.7575757575758,40.000000000000114" fill="none" stroke="rgba(255,0,0,0.75)" stroke-width="14.159999999999995"/></g><g><polyline data-points="5.000000000000002,-1.9696969696969693 4.898989898989901,-1.8686868686868683 4.7979797979797985,-1.7676767676767675 4.696969696969697,-1.6666666666666665 4.595959595959597,-1.5656565656565653 4.494949494949497,-1.4646464646464643 4.393939393939394,-1.363636363636363 4.292929292929293,-1.2626262626262625 4.191919191919193,-1.1616161616161613 4.090909090909092,-1.0606060606060603 3.989898989898992,-0.9595959595959596 3.8888888888888893,-0.8585858585858579 3.7878787878787885,-0.7575757575757572 3.6868686868686877,-0.6565656565656557 3.5858585858585874,-0.555555555555555 3.4848484848484866,-0.4545454545454544 3.383838383838384,-0.35353535353535287 3.2828282828282833,-0.2525252525252522 3.181818181818183,-0.15151515151515066 3.080808080808082,-0.05050505050505001 2.9797979797979806,0.050505050505051545 2.87878787878788,0.1515151515151522 2.7777777777777786,0.2525252525252529 2.676767676767678,0.3535353535353544 2.575757575757577,0.4545454545454551 2.4747474747474754,0.5555555555555567 2.373737373737375,0.6565656565656574 2.2727272727272734,0.7575757575757579 2.1717171717171726,0.8585858585858596 2.070707070707072,0.9595959595959602 1.9696969696969702,1.0606060606060617 1.8686868686868696,1.1616161616161622 1.767676767676768,1.262626262626263 1.6666666666666674,1.3636363636363644 1.5656565656565666,1.4646464646464652 1.4646464646464652,1.5656565656565666 1.3636363636363644,1.6666666666666674 1.262626262626263,1.767676767676768 1.1616161616161622,1.8686868686868696 1.0606060606060617,1.9696969696969702 0.9595959595959602,2.070707070707072 0.8585858585858596,2.1717171717171726 0.7575757575757579,2.2727272727272734 0.6565656565656574,2.373737373737375 0.5555555555555567,2.4747474747474754 0.4545454545454551,2.575757575757577 0.3535353535353544,2.676767676767678 0.2525252525252529,2.7777777777777786 0.1515151515151522,2.87878787878788 0.050505050505051545,2.9797979797979806 -0.05050505050505001,3.080808080808082 -0.15151515151515066,3.181818181818183 -0.2525252525252522,3.2828282828282833 -0.35353535353535287,3.2828282828282833 -0.4545454545454544,3.2828282828282833 -0.555555555555555,3.2828282828282833 -0.6565656565656557,3.2828282828282833 -0.7575757575757572,3.2828282828282833 -0.8585858585858579,3.2828282828282833 -0.9595959595959596,3.2828282828282833 -1.0606060606060603,3.2828282828282833 -1.1616161616161613,3.2828282828282833 -1.2626262626262625,3.2828282828282833 -1.363636363636363,3.2828282828282833 -1.4646464646464643,3.2828282828282833 -1.5656565656565653,3.2828282828282833 -1.6666666666666665,3.2828282828282833 -1.7676767676767675,3.2828282828282833 -1.8686868686868683,3.2828282828282833 -1.9696969696969693,3.2828282828282833 -2.07070707070707,3.2828282828282833 -2.1717171717171713,3.2828282828282833 -2.2727272727272725,3.2828282828282833 -2.3737373737373733,3.2828282828282833 -2.474747474747474,3.2828282828282833 -2.5757575757575752,3.2828282828282833 -2.6767676767676765,3.2828282828282833 -2.7777777777777777,3.2828282828282833 -2.8787878787878785,3.2828282828282833 -2.9797979797979792,3.2828282828282833 -3.0808080808080804,3.2828282828282833 -3.1818181818181817,3.2828282828282833 -3.2828282828282824,3.2828282828282833 -3.383838383838383,3.2828282828282833 -3.484848484848485,3.2828282828282833 -3.5858585858585856,3.2828282828282833 -3.6868686868686864,3.2828282828282833 -3.7878787878787876,3.2828282828282833 -3.8888888888888884,3.2828282828282833 -3.98989898989899,3.2828282828282833 -4.090909090909091,3.2828282828282833 -4.191919191919193,3.2828282828282833 -4.292929292929293,3.2828282828282833 -4.393939393939394,3.2828282828282833 -4.494949494949496,3.2828282828282833 -4.595959595959596,3.2828282828282833 -4.696969696969697,3.2828282828282833 -4.7979797979797985,3.2828282828282833 -4.898989898989899,3.2828282828282833 -5.000000000000001,3.2828282828282833" data-type="line" data-label="" points="984,697.939393939394 974.4646464646464,688.4040404040404 964.9292929292927,678.8686868686868 955.3939393939393,669.3333333333334 945.8585858585857,659.7979797979798 936.3232323232323,650.2626262626263 926.7878787878785,640.7272727272727 917.2525252525251,631.1919191919193 907.7171717171716,621.6565656565657 898.181818181818,612.1212121212121 888.6464646464647,602.5858585858587 879.111111111111,593.0505050505051 869.5757575757575,583.5151515151516 860.0404040404039,573.979797979798 850.5050505050505,564.4444444444445 840.969696969697,554.909090909091 831.4343434343433,545.3737373737374 821.8989898989898,535.838383838384 812.3636363636363,526.3030303030304 802.8282828282828,516.7676767676768 793.2929292929292,507.23232323232327 783.7575757575758,497.69696969696975 774.2222222222222,488.1616161616163 764.6868686868686,478.6262626262627 755.1515151515151,469.0909090909092 745.6161616161615,459.5555555555556 736.0808080808081,450.0202020202021 726.5454545454545,440.4848484848486 717.0101010101009,430.94949494949503 707.4747474747475,421.4141414141415 697.9393939393939,411.87878787878793 688.4040404040404,402.3434343434344 678.8686868686868,392.80808080808094 669.3333333333333,383.27272727272737 659.7979797979798,373.73737373737384 650.2626262626262,364.2020202020203 640.7272727272727,354.66666666666674 631.1919191919192,345.1313131313133 621.6565656565656,335.5959595959597 612.1212121212121,326.06060606060623 602.5858585858585,316.5252525252526 593.0505050505051,306.9898989898991 583.5151515151515,297.4545454545456 573.9797979797979,287.91919191919203 564.4444444444445,278.38383838383857 554.9090909090909,268.84848484848493 545.3737373737374,259.3131313131314 535.8383838383838,249.77777777777794 526.3030303030303,240.24242424242436 516.7676767676768,230.70707070707084 507.2323232323232,221.17171717171726 497.69696969696975,211.63636363636374 488.16161616161617,202.10101010101027 478.62626262626264,202.10101010101027 469.09090909090907,202.10101010101027 459.55555555555554,202.10101010101027 450.0202020202021,202.10101010101027 440.4848484848485,202.10101010101027 430.949494949495,202.10101010101027 421.4141414141414,202.10101010101027 411.8787878787879,202.10101010101027 402.34343434343435,202.10101010101027 392.80808080808083,202.10101010101027 383.2727272727273,202.10101010101027 373.7373737373738,202.10101010101027 364.2020202020202,202.10101010101027 354.6666666666667,202.10101010101027 345.13131313131316,202.10101010101027 335.59595959595964,202.10101010101027 326.0606060606061,202.10101010101027 316.5252525252526,202.10101010101027 306.9898989898991,202.10101010101027 297.4545454545455,202.10101010101027 287.91919191919203,202.10101010101027 278.38383838383845,202.10101010101027 268.84848484848493,202.10101010101027 259.3131313131314,202.10101010101027 249.77777777777783,202.10101010101027 240.2424242424243,202.10101010101027 230.70707070707084,202.10101010101027 221.17171717171726,202.10101010101027 211.63636363636374,202.10101010101027 202.10101010101022,202.10101010101027 192.5656565656567,202.10101010101027 183.03030303030312,202.10101010101027 173.4949494949496,202.10101010101027 163.95959595959607,202.10101010101027 154.42424242424255,202.10101010101027 144.88888888888903,202.10101010101027 135.35353535353545,202.10101010101027 125.81818181818193,202.10101010101027 116.28282828282829,202.10101010101027 106.74747474747483,202.10101010101027 97.21212121212136,202.10101010101027 87.67676767676772,202.10101010101027 78.14141414141426,202.10101010101027 68.60606060606068,202.10101010101027 59.07070707070716,202.10101010101027 49.53535353535369,202.10101010101027 40.00000000000006,202.10101010101027" fill="none" stroke="rgba(0,0,255,0.75)" stroke-width="14.159999999999995"/></g><g><polyline data-points="-5.000000000000001,2.4747474747474754 -4.898989898989899,2.4747474747474754 -4.7979797979797985,2.4747474747474754 -4.696969696969697,2.4747474747474754 -4.595959595959596,2.4747474747474754 -4.494949494949496,2.4747474747474754 -4.393939393939394,2.4747474747474754 -4.292929292929293,2.4747474747474754 -4.191919191919193,2.4747474747474754 -4.090909090909091,2.4747474747474754 -3.98989898989899,2.4747474747474754 -3.8888888888888884,2.4747474747474754 -3.7878787878787876,2.4747474747474754 -3.6868686868686864,2.4747474747474754 -3.5858585858585856,2.4747474747474754 -3.484848484848485,2.4747474747474754 -3.383838383838383,2.4747474747474754 -3.2828282828282824,2.4747474747474754 -3.1818181818181817,2.4747474747474754 -3.0808080808080804,2.4747474747474754 -2.9797979797979792,2.4747474747474754 -2.8787878787878785,2.4747474747474754 -2.7777777777777777,2.4747474747474754 -2.6767676767676765,2.4747474747474754 -2.5757575757575752,2.4747474747474754 -2.474747474747474,2.4747474747474754 -2.3737373737373733,2.4747474747474754 -2.2727272727272725,2.4747474747474754 -2.1717171717171713,2.4747474747474754 -2.07070707070707,2.4747474747474754 -1.9696969696969693,2.4747474747474754 -1.8686868686868683,2.4747474747474754 -1.7676767676767675,2.4747474747474754 -1.6666666666666665,2.4747474747474754 -1.5656565656565653,2.4747474747474754 -1.4646464646464643,2.4747474747474754 -1.363636363636363,2.4747474747474754 -1.2626262626262625,2.4747474747474754 -1.1616161616161613,2.4747474747474754 -1.0606060606060603,2.4747474747474754 -0.9595959595959596,2.4747474747474754 -0.8585858585858579,2.4747474747474754 -0.7575757575757572,2.4747474747474754 -0.6565656565656557,2.4747474747474754 -0.555555555555555,2.4747474747474754 -0.4545454545454544,2.4747474747474754 -0.35353535353535287,2.4747474747474754 -0.2525252525252522,2.4747474747474754" data-type="line" data-label="" points="40.00000000000006,278.38383838383857 49.53535353535369,278.38383838383857 59.07070707070716,278.38383838383857 68.60606060606068,278.38383838383857 78.14141414141426,278.38383838383857 87.67676767676772,278.38383838383857 97.21212121212136,278.38383838383857 106.74747474747483,278.38383838383857 116.28282828282829,278.38383838383857 125.81818181818193,278.38383838383857 135.35353535353545,278.38383838383857 144.88888888888903,278.38383838383857 154.42424242424255,278.38383838383857 163.95959595959607,278.38383838383857 173.4949494949496,278.38383838383857 183.03030303030312,278.38383838383857 192.5656565656567,278.38383838383857 202.10101010101022,278.38383838383857 211.63636363636374,278.38383838383857 221.17171717171726,278.38383838383857 230.70707070707084,278.38383838383857 240.2424242424243,278.38383838383857 249.77777777777783,278.38383838383857 259.3131313131314,278.38383838383857 268.84848484848493,278.38383838383857 278.38383838383845,278.38383838383857 287.91919191919203,278.38383838383857 297.4545454545455,278.38383838383857 306.9898989898991,278.38383838383857 316.5252525252526,278.38383838383857 326.0606060606061,278.38383838383857 335.59595959595964,278.38383838383857 345.13131313131316,278.38383838383857 354.6666666666667,278.38383838383857 364.2020202020202,278.38383838383857 373.7373737373738,278.38383838383857 383.2727272727273,278.38383838383857 392.80808080808083,278.38383838383857 402.34343434343435,278.38383838383857 411.8787878787879,278.38383838383857 421.4141414141414,278.38383838383857 430.949494949495,278.38383838383857 440.4848484848485,278.38383838383857 450.0202020202021,278.38383838383857 459.55555555555554,278.38383838383857 469.09090909090907,278.38383838383857 478.62626262626264,278.38383838383857 488.16161616161617,278.38383838383857" fill="none" stroke="rgba(0,0,255,0.75)" stroke-width="14.159999999999995"/></g><g><polyline data-points="-0.2525252525252522,2.4747474747474754 -0.15151515151515066,2.4747474747474754 -0.05050505050505001,2.4747474747474754 0.050505050505051545,2.4747474747474754 0.1515151515151522,2.4747474747474754 0.2525252525252529,2.4747474747474754 0.3535353535353544,2.4747474747474754 0.4545454545454551,2.4747474747474754 0.5555555555555567,2.4747474747474754 0.6565656565656574,2.4747474747474754 0.7575757575757579,2.4747474747474754 0.8585858585858596,2.4747474747474754 0.9595959595959602,2.4747474747474754 1.0606060606060617,2.4747474747474754 1.1616161616161622,2.4747474747474754 1.262626262626263,2.4747474747474754 1.3636363636363644,2.4747474747474754 1.4646464646464652,2.4747474747474754 1.5656565656565666,2.4747474747474754" data-type="line" data-label="" points="488.16161616161617,278.38383838383857 497.69696969696975,278.38383838383857 507.2323232323232,278.38383838383857 516.7676767676768,278.38383838383857 526.3030303030303,278.38383838383857 535.8383838383838,278.38383838383857 545.3737373737374,278.38383838383857 554.9090909090909,278.38383838383857 564.4444444444445,278.38383838383857 573.9797979797979,278.38383838383857 583.5151515151515,278.38383838383857 593.0505050505051,278.38383838383857 602.5858585858585,278.38383838383857 612.1212121212121,278.38383838383857 621.6565656565656,278.38383838383857 631.1919191919192,278.38383838383857 640.7272727272727,278.38383838383857 650.2626262626262,278.38383838383857 659.7979797979798,278.38383838383857" fill="none" stroke="rgba(255,0,0,0.75)" stroke-width="14.159999999999995"/></g><g><polyline data-points="1.5656565656565666,2.4747474747474754 1.6666666666666674,2.373737373737375 1.767676767676768,2.2727272727272734 1.8686868686868696,2.1717171717171726 1.9696969696969702,2.070707070707072 2.070707070707072,1.9696969696969702 2.1717171717171726,1.8686868686868696 2.2727272727272734,1.767676767676768 2.373737373737375,1.6666666666666674 2.4747474747474754,1.5656565656565666 2.575757575757577,1.4646464646464652 2.676767676767678,1.3636363636363644 2.7777777777777786,1.262626262626263 2.87878787878788,1.1616161616161622 2.9797979797979806,1.0606060606060617 3.080808080808082,0.9595959595959602 3.181818181818183,0.8585858585858596 3.2828282828282833,0.7575757575757579 3.383838383838384,0.6565656565656574 3.4848484848484866,0.5555555555555567 3.5858585858585874,0.4545454545454551 3.6868686868686877,0.3535353535353544 3.7878787878787885,0.2525252525252529 3.8888888888888893,0.1515151515151522 3.989898989898992,0.050505050505051545" data-type="line" data-label="" points="659.7979797979798,278.38383838383857 669.3333333333333,287.91919191919203 678.8686868686868,297.4545454545456 688.4040404040404,306.9898989898991 697.9393939393939,316.5252525252526 707.4747474747475,326.06060606060623 717.0101010101009,335.5959595959597 726.5454545454545,345.1313131313133 736.0808080808081,354.66666666666674 745.6161616161615,364.2020202020203 755.1515151515151,373.73737373737384 764.6868686868686,383.27272727272737 774.2222222222222,392.80808080808094 783.7575757575758,402.3434343434344 793.2929292929292,411.87878787878793 802.8282828282828,421.4141414141415 812.3636363636363,430.94949494949503 821.8989898989898,440.4848484848486 831.4343434343433,450.0202020202021 840.969696969697,459.5555555555556 850.5050505050505,469.0909090909092 860.0404040404039,478.6262626262627 869.5757575757575,488.1616161616163 879.111111111111,497.69696969696975 888.6464646464647,507.23232323232327" fill="none" stroke="rgba(0,0,255,0.75)" stroke-width="14.159999999999995"/></g><g><polyline data-points="3.989898989898992,0.050505050505051545 4.090909090909092,0.1515151515151522 4.191919191919193,0.2525252525252529 4.292929292929293,0.3535353535353544 4.393939393939394,0.4545454545454551 4.494949494949497,0.5555555555555567 4.595959595959597,0.6565656565656574 4.696969696969697,0.7575757575757579 4.7979797979797985,0.8585858585858596 4.898989898989901,0.9595959595959602 5.000000000000002,1.0606060606060617 5.000000000000002,1.1616161616161622 5.000000000000002,1.262626262626263 5.000000000000002,1.3636363636363644 5.000000000000002,1.4646464646464652 5.000000000000002,1.5656565656565666 5.000000000000002,1.6666666666666674 5.000000000000002,1.767676767676768 5.000000000000002,1.8686868686868696 5.000000000000002,1.9696969696969702 5.000000000000002,2.070707070707072 5.000000000000002,2.1717171717171726 5.000000000000002,2.2727272727272734 5.000000000000002,2.373737373737375 5.000000000000002,2.4747474747474754 5.000000000000002,2.575757575757577 5.000000000000002,2.676767676767678 5.000000000000002,2.7777777777777786 5.000000000000002,2.87878787878788 5.000000000000002,2.9797979797979806 5.000000000000002,3.080808080808082 5.000000000000002,3.181818181818183 5.000000000000002,3.2828282828282833 5.000000000000002,3.383838383838384 5.000000000000002,3.4848484848484866" data-type="line" data-label="" points="888.6464646464647,507.23232323232327 898.181818181818,497.69696969696975 907.7171717171716,488.1616161616163 917.2525252525251,478.6262626262627 926.7878787878785,469.0909090909092 936.3232323232323,459.5555555555556 945.8585858585857,450.0202020202021 955.3939393939393,440.4848484848486 964.9292929292927,430.94949494949503 974.4646464646464,421.4141414141415 984,411.87878787878793 984,402.3434343434344 984,392.80808080808094 984,383.27272727272737 984,373.73737373737384 984,364.2020202020203 984,354.66666666666674 984,345.1313131313133 984,335.5959595959597 984,326.06060606060623 984,316.5252525252526 984,306.9898989898991 984,297.4545454545456 984,287.91919191919203 984,278.38383838383857 984,268.84848484848493 984,259.3131313131314 984,249.77777777777794 984,240.24242424242436 984,230.70707070707084 984,221.17171717171726 984,211.63636363636374 984,202.10101010101027 984,192.56565656565675 984,183.03030303030312" fill="none" stroke="rgba(255,0,0,0.75)" stroke-width="14.159999999999995"/></g><g><polyline data-points="-5.000000000000001,-3.98989898989899 -4.898989898989899,-3.8888888888888884 -4.7979797979797985,-3.7878787878787876 -4.696969696969697,-3.6868686868686864 -4.595959595959596,-3.5858585858585856 -4.494949494949496,-3.484848484848485 -4.393939393939394,-3.383838383838383 -4.292929292929293,-3.2828282828282824 -4.191919191919193,-3.1818181818181817 -4.090909090909091,-3.0808080808080804 -3.98989898989899,-2.9797979797979792 -3.8888888888888884,-2.8787878787878785 -3.7878787878787876,-2.7777777777777777 -3.6868686868686864,-2.6767676767676765 -3.5858585858585856,-2.5757575757575752 -3.484848484848485,-2.474747474747474 -3.383838383838383,-2.3737373737373733 -3.2828282828282824,-2.2727272727272725 -3.1818181818181817,-2.1717171717171713 -3.0808080808080804,-2.07070707070707 -2.9797979797979792,-1.9696969696969693 -2.8787878787878785,-1.8686868686868683 -2.7777777777777777,-1.7676767676767675 -2.6767676767676765,-1.6666666666666665 -2.5757575757575752,-1.5656565656565653 -2.474747474747474,-1.4646464646464643 -2.3737373737373733,-1.363636363636363 -2.2727272727272725,-1.2626262626262625 -2.1717171717171713,-1.1616161616161613 -2.07070707070707,-1.0606060606060603 -1.9696969696969693,-0.9595959595959596 -1.8686868686868683,-0.8585858585858579 -1.7676767676767675,-0.8585858585858579 -1.6666666666666665,-0.8585858585858579 -1.5656565656565653,-0.8585858585858579 -1.4646464646464643,-0.8585858585858579 -1.363636363636363,-0.8585858585858579 -1.2626262626262625,-0.8585858585858579 -1.1616161616161613,-0.8585858585858579" data-type="line" data-label="" points="40.00000000000006,888.6464646464647 49.53535353535369,879.1111111111111 59.07070707070716,869.5757575757575 68.60606060606068,860.0404040404039 78.14141414141426,850.5050505050505 87.67676767676772,840.969696969697 97.21212121212136,831.4343434343434 106.74747474747483,821.8989898989898 116.28282828282829,812.3636363636363 125.81818181818193,802.8282828282828 135.35353535353545,793.2929292929292 144.88888888888903,783.7575757575758 154.42424242424255,774.2222222222222 163.95959595959607,764.6868686868687 173.4949494949496,755.1515151515151 183.03030303030312,745.6161616161615 192.5656565656567,736.0808080808081 202.10101010101022,726.5454545454545 211.63636363636374,717.010101010101 221.17171717171726,707.4747474747475 230.70707070707084,697.939393939394 240.2424242424243,688.4040404040404 249.77777777777783,678.8686868686868 259.3131313131314,669.3333333333334 268.84848484848493,659.7979797979798 278.38383838383845,650.2626262626263 287.91919191919203,640.7272727272727 297.4545454545455,631.1919191919193 306.9898989898991,621.6565656565657 316.5252525252526,612.1212121212121 326.0606060606061,602.5858585858587 335.59595959595964,593.0505050505051 345.13131313131316,593.0505050505051 354.6666666666667,593.0505050505051 364.2020202020202,593.0505050505051 373.7373737373738,593.0505050505051 383.2727272727273,593.0505050505051 392.80808080808083,593.0505050505051 402.34343434343435,593.0505050505051" fill="none" stroke="rgba(0,0,255,0.75)" stroke-width="14.159999999999995"/></g><g><polyline data-points="-1.1616161616161613,-0.8585858585858579 -1.0606060606060603,-0.7575757575757572 -0.9595959595959596,-0.6565656565656557 -0.8585858585858579,-0.555555555555555 -0.7575757575757572,-0.4545454545454544 -0.6565656565656557,-0.35353535353535287 -0.555555555555555,-0.2525252525252522 -0.4545454545454544,-0.15151515151515066 -0.35353535353535287,-0.05050505050505001 -0.2525252525252522,0.050505050505051545 -0.15151515151515066,0.1515151515151522 -0.05050505050505001,0.2525252525252529 0.050505050505051545,0.3535353535353544 0.1515151515151522,0.4545454545454551 0.2525252525252529,0.5555555555555567 0.3535353535353544,0.6565656565656574 0.4545454545454551,0.7575757575757579 0.5555555555555567,0.8585858585858596 0.6565656565656574,0.9595959595959602 0.7575757575757579,1.0606060606060617 0.8585858585858596,1.1616161616161622 0.9595959595959602,1.262626262626263 1.0606060606060617,1.3636363636363644 1.1616161616161622,1.4646464646464652 1.262626262626263,1.5656565656565666 1.3636363636363644,1.6666666666666674 1.4646464646464652,1.767676767676768 1.5656565656565666,1.8686868686868696 1.6666666666666674,1.9696969696969702 1.767676767676768,2.070707070707072 1.8686868686868696,2.1717171717171726 1.9696969696969702,2.2727272727272734 2.070707070707072,2.373737373737375 2.1717171717171726,2.4747474747474754 2.2727272727272734,2.575757575757577 2.2727272727272734,2.676767676767678 2.2727272727272734,2.7777777777777786" data-type="line" data-label="" points="402.34343434343435,593.0505050505051 411.8787878787879,583.5151515151516 421.4141414141414,573.979797979798 430.949494949495,564.4444444444445 440.4848484848485,554.909090909091 450.0202020202021,545.3737373737374 459.55555555555554,535.838383838384 469.09090909090907,526.3030303030304 478.62626262626264,516.7676767676768 488.16161616161617,507.23232323232327 497.69696969696975,497.69696969696975 507.2323232323232,488.1616161616163 516.7676767676768,478.6262626262627 526.3030303030303,469.0909090909092 535.8383838383838,459.5555555555556 545.3737373737374,450.0202020202021 554.9090909090909,440.4848484848486 564.4444444444445,430.94949494949503 573.9797979797979,421.4141414141415 583.5151515151515,411.87878787878793 593.0505050505051,402.3434343434344 602.5858585858585,392.80808080808094 612.1212121212121,383.27272727272737 621.6565656565656,373.73737373737384 631.1919191919192,364.2020202020203 640.7272727272727,354.66666666666674 650.2626262626262,345.1313131313133 659.7979797979798,335.5959595959597 669.3333333333333,326.06060606060623 678.8686868686868,316.5252525252526 688.4040404040404,306.9898989898991 697.9393939393939,297.4545454545456 707.4747474747475,287.91919191919203 717.0101010101009,278.38383838383857 726.5454545454545,268.84848484848493 726.5454545454545,259.3131313131314 726.5454545454545,249.77777777777794" fill="none" stroke="rgba(255,0,0,0.75)" stroke-width="14.159999999999995"/></g><g><polyline data-points="2.2727272727272734,2.7777777777777786 2.373737373737375,2.676767676767678 2.4747474747474754,2.575757575757577 2.575757575757577,2.4747474747474754 2.676767676767678,2.373737373737375 2.7777777777777786,2.2727272727272734 2.87878787878788,2.1717171717171726 2.9797979797979806,2.070707070707072 3.080808080808082,1.9696969696969702 3.181818181818183,1.8686868686868696 3.2828282828282833,1.767676767676768 3.383838383838384,1.6666666666666674 3.4848484848484866,1.5656565656565666 3.5858585858585874,1.4646464646464652 3.6868686868686877,1.3636363636363644 3.7878787878787885,1.262626262626263 3.8888888888888893,1.1616161616161622 3.989898989898992,1.0606060606060617 4.090909090909092,0.9595959595959602 4.191919191919193,0.8585858585858596 4.292929292929293,0.7575757575757579 4.393939393939394,0.6565656565656574 4.494949494949497,0.5555555555555567 4.595959595959597,0.4545454545454551 4.696969696969697,0.3535353535353544 4.7979797979797985,0.2525252525252529 4.898989898989901,0.1515151515151522 5.000000000000002,0.050505050505051545 5.000000000000002,-0.05050505050505001 5.000000000000002,-0.15151515151515066 5.000000000000002,-0.2525252525252522 5.000000000000002,-0.35353535353535287 5.000000000000002,-0.4545454545454544 5.000000000000002,-0.555555555555555 5.000000000000002,-0.6565656565656557 5.000000000000002,-0.7575757575757572 5.000000000000002,-0.8585858585858579" data-type="line" data-label="" points="726.5454545454545,249.77777777777794 736.0808080808081,259.3131313131314 745.6161616161615,268.84848484848493 755.1515151515151,278.38383838383857 764.6868686868686,287.91919191919203 774.2222222222222,297.4545454545456 783.7575757575758,306.9898989898991 793.2929292929292,316.5252525252526 802.8282828282828,326.06060606060623 812.3636363636363,335.5959595959597 821.8989898989898,345.1313131313133 831.4343434343433,354.66666666666674 840.969696969697,364.2020202020203 850.5050505050505,373.73737373737384 860.0404040404039,383.27272727272737 869.5757575757575,392.80808080808094 879.111111111111,402.3434343434344 888.6464646464647,411.87878787878793 898.181818181818,421.4141414141415 907.7171717171716,430.94949494949503 917.2525252525251,440.4848484848486 926.7878787878785,450.0202020202021 936.3232323232323,459.5555555555556 945.8585858585857,469.0909090909092 955.3939393939393,478.6262626262627 964.9292929292927,488.1616161616163 974.4646464646464,497.69696969696975 984,507.23232323232327 984,516.7676767676768 984,526.3030303030304 984,535.838383838384 984,545.3737373737374 984,554.909090909091 984,564.4444444444445 984,573.979797979798 984,583.5151515151516 984,593.0505050505051" fill="none" stroke="rgba(0,0,255,0.75)" stroke-width="14.159999999999995"/></g><g><polyline data-points="5.000000000000002,-2.8787878787878785 4.898989898989901,-2.9797979797979792 4.7979797979797985,-3.0808080808080804 4.696969696969697,-3.1818181818181817 4.595959595959597,-3.2828282828282824 4.494949494949497,-3.383838383838383 4.393939393939394,-3.484848484848485 4.292929292929293,-3.5858585858585856 4.191919191919193,-3.6868686868686864 4.090909090909092,-3.7878787878787876 3.989898989898992,-3.8888888888888884 3.8888888888888893,-3.98989898989899 3.7878787878787885,-4.090909090909091 3.6868686868686877,-4.191919191919193 3.5858585858585874,-4.292929292929293 3.4848484848484866,-4.393939393939394 3.383838383838384,-4.494949494949496 3.2828282828282833,-4.595959595959596 3.181818181818183,-4.696969696969697 3.080808080808082,-4.696969696969697 2.9797979797979806,-4.696969696969697 2.87878787878788,-4.696969696969697 2.7777777777777786,-4.696969696969697 2.676767676767678,-4.696969696969697 2.575757575757577,-4.696969696969697 2.4747474747474754,-4.696969696969697 2.373737373737375,-4.696969696969697 2.2727272727272734,-4.696969696969697 2.1717171717171726,-4.696969696969697 2.070707070707072,-4.696969696969697 1.9696969696969702,-4.696969696969697 1.8686868686868696,-4.696969696969697 1.767676767676768,-4.696969696969697 1.6666666666666674,-4.696969696969697 1.5656565656565666,-4.696969696969697 1.4646464646464652,-4.696969696969697 1.3636363636363644,-4.696969696969697 1.262626262626263,-4.696969696969697 1.1616161616161622,-4.696969696969697 1.0606060606060617,-4.696969696969697 0.9595959595959602,-4.696969696969697 0.8585858585858596,-4.696969696969697 0.7575757575757579,-4.696969696969697 0.6565656565656574,-4.696969696969697 0.5555555555555567,-4.696969696969697 0.4545454545454551,-4.696969696969697 0.3535353535353544,-4.696969696969697 0.2525252525252529,-4.696969696969697 0.1515151515151522,-4.696969696969697 0.050505050505051545,-4.696969696969697 -0.05050505050505001,-4.696969696969697 -0.15151515151515066,-4.696969696969697 -0.2525252525252522,-4.696969696969697 -0.35353535353535287,-4.696969696969697 -0.4545454545454544,-4.696969696969697 -0.555555555555555,-4.696969696969697 -0.6565656565656557,-4.696969696969697 -0.7575757575757572,-4.696969696969697 -0.8585858585858579,-4.696969696969697 -0.9595959595959596,-4.696969696969697 -1.0606060606060603,-4.696969696969697 -1.1616161616161613,-4.696969696969697 -1.2626262626262625,-4.696969696969697 -1.363636363636363,-4.696969696969697 -1.4646464646464643,-4.696969696969697 -1.5656565656565653,-4.696969696969697 -1.6666666666666665,-4.696969696969697 -1.7676767676767675,-4.696969696969697 -1.8686868686868683,-4.696969696969697 -1.9696969696969693,-4.696969696969697 -2.07070707070707,-4.696969696969697 -2.1717171717171713,-4.696969696969697 -2.2727272727272725,-4.696969696969697 -2.3737373737373733,-4.696969696969697 -2.474747474747474,-4.696969696969697 -2.5757575757575752,-4.696969696969697 -2.6767676767676765,-4.696969696969697 -2.7777777777777777,-4.696969696969697 -2.8787878787878785,-4.696969696969697 -2.9797979797979792,-4.696969696969697 -3.0808080808080804,-4.696969696969697 -3.1818181818181817,-4.696969696969697 -3.2828282828282824,-4.696969696969697 -3.383838383838383,-4.696969696969697 -3.484848484848485,-4.696969696969697 -3.5858585858585856,-4.696969696969697 -3.6868686868686864,-4.696969696969697 -3.7878787878787876,-4.696969696969697 -3.8888888888888884,-4.696969696969697 -3.98989898989899,-4.696969696969697 -4.090909090909091,-4.696969696969697 -4.191919191919193,-4.696969696969697 -4.292929292929293,-4.696969696969697 -4.393939393939394,-4.696969696969697 -4.494949494949496,-4.696969696969697 -4.595959595959596,-4.696969696969697 -4.696969696969697,-4.696969696969697 -4.7979797979797985,-4.696969696969697 -4.898989898989899,-4.696969696969697 -5.000000000000001,-4.696969696969697" data-type="line" data-label="" points="984,783.7575757575758 974.4646464646464,793.2929292929292 964.9292929292927,802.8282828282828 955.3939393939393,812.3636363636363 945.8585858585857,821.8989898989898 936.3232323232323,831.4343434343434 926.7878787878785,840.969696969697 917.2525252525251,850.5050505050505 907.7171717171716,860.0404040404039 898.181818181818,869.5757575757575 888.6464646464647,879.1111111111111 879.111111111111,888.6464646464647 869.5757575757575,898.1818181818181 860.0404040404039,907.7171717171718 850.5050505050505,917.2525252525252 840.969696969697,926.7878787878788 831.4343434343433,936.3232323232323 821.8989898989898,945.8585858585858 812.3636363636363,955.3939393939394 802.8282828282828,955.3939393939394 793.2929292929292,955.3939393939394 783.7575757575758,955.3939393939394 774.2222222222222,955.3939393939394 764.6868686868686,955.3939393939394 755.1515151515151,955.3939393939394 745.6161616161615,955.3939393939394 736.0808080808081,955.3939393939394 726.5454545454545,955.3939393939394 717.0101010101009,955.3939393939394 707.4747474747475,955.3939393939394 697.9393939393939,955.3939393939394 688.4040404040404,955.3939393939394 678.8686868686868,955.3939393939394 669.3333333333333,955.3939393939394 659.7979797979798,955.3939393939394 650.2626262626262,955.3939393939394 640.7272727272727,955.3939393939394 631.1919191919192,955.3939393939394 621.6565656565656,955.3939393939394 612.1212121212121,955.3939393939394 602.5858585858585,955.3939393939394 593.0505050505051,955.3939393939394 583.5151515151515,955.3939393939394 573.9797979797979,955.3939393939394 564.4444444444445,955.3939393939394 554.9090909090909,955.3939393939394 545.3737373737374,955.3939393939394 535.8383838383838,955.3939393939394 526.3030303030303,955.3939393939394 516.7676767676768,955.3939393939394 507.2323232323232,955.3939393939394 497.69696969696975,955.3939393939394 488.16161616161617,955.3939393939394 478.62626262626264,955.3939393939394 469.09090909090907,955.3939393939394 459.55555555555554,955.3939393939394 450.0202020202021,955.3939393939394 440.4848484848485,955.3939393939394 430.949494949495,955.3939393939394 421.4141414141414,955.3939393939394 411.8787878787879,955.3939393939394 402.34343434343435,955.3939393939394 392.80808080808083,955.3939393939394 383.2727272727273,955.3939393939394 373.7373737373738,955.3939393939394 364.2020202020202,955.3939393939394 354.6666666666667,955.3939393939394 345.13131313131316,955.3939393939394 335.59595959595964,955.3939393939394 326.0606060606061,955.3939393939394 316.5252525252526,955.3939393939394 306.9898989898991,955.3939393939394 297.4545454545455,955.3939393939394 287.91919191919203,955.3939393939394 278.38383838383845,955.3939393939394 268.84848484848493,955.3939393939394 259.3131313131314,955.3939393939394 249.77777777777783,955.3939393939394 240.2424242424243,955.3939393939394 230.70707070707084,955.3939393939394 221.17171717171726,955.3939393939394 211.63636363636374,955.3939393939394 202.10101010101022,955.3939393939394 192.5656565656567,955.3939393939394 183.03030303030312,955.3939393939394 173.4949494949496,955.3939393939394 163.95959595959607,955.3939393939394 154.42424242424255,955.3939393939394 144.88888888888903,955.3939393939394 135.35353535353545,955.3939393939394 125.81818181818193,955.3939393939394 116.28282828282829,955.3939393939394 106.74747474747483,955.3939393939394 97.21212121212136,955.3939393939394 87.67676767676772,955.3939393939394 78.14141414141426,955.3939393939394 68.60606060606068,955.3939393939394 59.07070707070716,955.3939393939394 49.53535353535369,955.3939393939394 40.00000000000006,955.3939393939394" fill="none" stroke="rgba(0,0,255,0.75)" stroke-width="14.159999999999995"/></g><g><rect data-type="rect" data-label="" data-x="0" data-y="0" x="40.000000000000114" y="40.000000000000284" width="943.9999999999997" height="943.9999999999998" fill="none" stroke="gray" stroke-width="0.010593220338983056"/></g><g><rect data-type="rect" data-label="" data-x="0" data-y="0" x="40.000000000000114" y="40.000000000000284" width="943.9999999999997" height="943.9999999999998" fill="none" stroke="rgba(15, 23, 42, 0.8)" stroke-width="0.010593220338983056"/></g><circle data-type="circle" data-label="" data-x="-0.2525252525252522" data-y="2.4747474747474754" cx="488.16161616161617" cy="278.38383838383857" r="28.791999999999987" fill="rgba(0,0,0,0.3)" stroke="black" stroke-width="0.010593220338983056"/><circle data-type="circle" data-label="" data-x="1.5656565656565666" data-y="2.4747474747474754" cx="659.7979797979798" cy="278.38383838383857" r="28.791999999999987" fill="rgba(0,0,0,0.3)" stroke="black" stroke-width="0.010593220338983056"/><circle data-type="circle" data-label="" data-x="3.989898989898992" data-y="0.050505050505051545" cx="888.6464646464647" cy="507.23232323232327" r="28.791999999999987" fill="rgba(0,0,0,0.3)" stroke="black" stroke-width="0.010593220338983056"/><circle data-type="circle" data-label="" data-x="-1.1616161616161613" data-y="-0.8585858585858579" cx="402.34343434343435" cy="593.0505050505051" r="28.791999999999987" fill="rgba(0,0,0,0.3)" stroke="black" stroke-width="0.010593220338983056"/><circle data-type="circle" data-label="" data-x="2.2727272727272734" data-y="2.7777777777777786" cx="726.5454545454545" cy="249.77777777777794" r="28.791999999999987" fill="rgba(0,0,0,0.3)" stroke="black" stroke-width="0.010593220338983056"/><g id="crosshair" style="display: none"><line id="crosshair-h" y1="0" y2="1024" stroke="#666" stroke-width="0.5"/><line id="crosshair-v" x1="0" x2="1024" stroke="#666" stroke-width="0.5"/><text id="coordinates" font-family="monospace" font-size="12" fill="#666"></text></g><script><![CDATA[
              document.currentScript.parentElement.addEventListener('mousemove', (e) => {
                const svg = e.currentTarget;
                const rect = svg.getBoundingClientRect();
                const x = e.clientX - rect.left;
                const y = e.clientY - rect.top;
                const crosshair = svg.getElementById('crosshair');
                const h = svg.getElementById('crosshair-h');
                const v = svg.getElementById('crosshair-v');
                const coords = svg.getElementById('coordinates');
                
                crosshair.style.display = 'block';
                h.setAttribute('x1', '0');
                h.setAttribute('x2', '1024');
                h.setAttribute('y1', y);
                h.setAttribute('y2', y);
                v.setAttribute('x1', x);
                v.setAttribute('x2', x);
                v.setAttribute('y1', '0');
                v.setAttribute('y2', '1024');

                // Calculate real coordinates using inverse transformation
                const matrix = {"a":94.39999999999996,"c":0,"e":511.99999999999994,"b":0,"d":-94.39999999999996,"f":512.0000000000001};
                // Manually invert and apply the affine transform
                // Since we only use translate and scale, we can directly compute:
                // x' = (x - tx) / sx
                // y' = (y - ty) / sy
                const sx = matrix.a;
                const sy = matrix.d;
                const tx = matrix.e; 
                const ty = matrix.f;
                const realPoint = {
                  x: (x - tx) / sx,
                  y: (y - ty) / sy // Flip y back since we used negative scale
                }
                
                coords.textContent = `(${realPoint.x.toFixed(2)}, ${realPoint.y.toFixed(2)})`;
                coords.setAttribute('x', (x + 5).toString());
                coords.setAttribute('y', (y - 5).toString());
              });
              document.currentScript.parentElement.addEventListener('mouseleave', () => {
                document.currentScript.parentElement.getElementById('crosshair').style.display = 'none';
              });
            ]]></script></svg>