<svg width="1024" height="1024" viewBox="0 0 1024 1024" xmlns="http://www.w3.org/2000/svg"><rect width="100%" height="100%" fill="white"/><g><circle data-type="point" data-label="conn_000" data-x="2.72" data-y="-5" cx="768.7679999999998" cy="984" r="28.792" fill="blue" stroke="#bd0f0f" stroke-width="28.792"/></g><g><circle data-type="point" data-label="conn_000" data-x="0.68" data-y="5" cx="576.1919999999999" cy="40.000000000000284" r="28.792" fill="blue" stroke="#bd0f0f" stroke-width="28.792"/></g><g><circle data-type="point" data-label="conn_001" data-x="-0.26" data-y="5" cx="487.45599999999996" cy="40.000000000000284" r="28.792" fill="blue" stroke="#0fbd42" stroke-width="28.792"/></g><g><circle data-type="point" data-label="conn_001" data-x="-4.14" data-y="-5" cx="121.18400000000014" cy="984" r="28.792" fill="red" stroke="#0fbd42" stroke-width="28.792"/></g><g><circle data-type="point" data-label="conn_002" data-x="5" data-y="-1.2" cx="983.9999999999998" cy="625.2800000000001" r="28.792" fill="blue" stroke="#740fbd" stroke-width="28.792"/></g><g><circle data-type="point" data-label="conn_002" data-x="-5" data-y="4.64" cx="40.000000000000114" cy="73.98400000000032" r="28.792" fill="red" stroke="#740fbd" stroke-width="28.792"/></g><g><polyline data-points="-0.2525252525252522,5.000000000000002 -0.35353535353535287,4.898989898989901 -0.4545454545454544,4.7979797979797985 -0.555555555555555,4.696969696969697 -0.6565656565656557,4.595959595959597 -0.7575757575757572,4.494949494949497 -0.8585858585858579,4.393939393939394 -0.9595959595959596,4.292929292929293 -1.0606060606060603,4.191919191919193 -1.1616161616161613,4.090909090909092 -1.2626262626262625,3.989898989898992 -1.363636363636363,3.8888888888888893 -1.4646464646464643,3.7878787878787885 -1.5656565656565653,3.6868686868686877 -1.6666666666666665,3.5858585858585874 -1.7676767676767675,3.4848484848484866 -1.8686868686868683,3.383838383838384 -1.9696969696969693,3.2828282828282833 -2.07070707070707,3.181818181818183 -2.1717171717171713,3.080808080808082 -2.2727272727272725,2.9797979797979806 -2.3737373737373733,2.87878787878788 -2.474747474747474,2.7777777777777786 -2.5757575757575752,2.676767676767678 -2.6767676767676765,2.575757575757577 -2.7777777777777777,2.4747474747474754 -2.8787878787878785,2.373737373737375 -2.9797979797979792,2.2727272727272734 -3.0808080808080804,2.1717171717171726 -3.1818181818181817,2.070707070707072 -3.2828282828282824,1.9696969696969702 -3.383838383838383,1.8686868686868696 -3.484848484848485,1.767676767676768 -3.5858585858585856,1.6666666666666674 -3.6868686868686864,1.5656565656565666 -3.7878787878787876,1.4646464646464652 -3.8888888888888884,1.3636363636363644 -3.98989898989899,1.262626262626263 -3.98989898989899,1.1616161616161622 -3.98989898989899,1.0606060606060617 -3.98989898989899,0.9595959595959602 -3.98989898989899,0.8585858585858596 -3.98989898989899,0.7575757575757579 -3.98989898989899,0.6565656565656574 -3.98989898989899,0.5555555555555567 -3.98989898989899,0.4545454545454551 -3.98989898989899,0.3535353535353544 -3.98989898989899,0.2525252525252529 -3.98989898989899,0.1515151515151522 -3.98989898989899,0.050505050505051545 -3.98989898989899,-0.05050505050505001 -3.98989898989899,-0.15151515151515066 -3.98989898989899,-0.2525252525252522 -3.98989898989899,-0.35353535353535287 -3.98989898989899,-0.4545454545454544 -3.98989898989899,-0.555555555555555 -3.98989898989899,-0.6565656565656557 -3.98989898989899,-0.7575757575757572 -3.98989898989899,-0.8585858585858579 -3.98989898989899,-0.9595959595959596 -3.98989898989899,-1.0606060606060603 -3.98989898989899,-1.1616161616161613 -3.98989898989899,-1.2626262626262625 -3.98989898989899,-1.363636363636363 -3.98989898989899,-1.4646464646464643 -3.98989898989899,-1.5656565656565653 -3.98989898989899,-1.6666666666666665 -3.98989898989899,-1.7676767676767675 -3.98989898989899,-1.8686868686868683 -3.98989898989899,-1.9696969696969693 -3.98989898989899,-2.07070707070707 -3.98989898989899,-2.1717171717171713 -3.98989898989899,-2.2727272727272725 -3.98989898989899,-2.3737373737373733 -3.98989898989899,-2.474747474747474 -3.98989898989899,-2.5757575757575752 -3.98989898989899,-2.6767676767676765 -3.98989898989899,-2.7777777777777777 -3.98989898989899,-2.8787878787878785 -3.98989898989899,-2.9797979797979792 -3.98989898989899,-3.0808080808080804 -3.98989898989899,-3.1818181818181817 -3.98989898989899,-3.2828282828282824 -3.98989898989899,-3.383838383838383 -3.98989898989899,-3.484848484848485" data-type="line" data-label="" points="488.16161616161617,40.000000000000114 478.62626262626264,49.53535353535369 469.09090909090907,59.07070707070733 459.55555555555554,68.60606060606085 450.0202020202021,78.14141414141432 440.4848484848485,87.67676767676778 430.949494949495,97.21212121212153 421.4141414141414,106.747474747475 411.8787878787879,116.28282828282846 402.34343434343435,125.81818181818198 392.80808080808083,135.35353535353545 383.2727272727273,144.88888888888908 373.7373737373738,154.4242424242426 364.2020202020202,163.95959595959613 354.6666666666667,173.4949494949496 345.13131313131316,183.03030303030312 335.59595959595964,192.56565656565675 326.0606060606061,202.10101010101027 316.5252525252526,211.63636363636374 306.9898989898991,221.17171717171726 297.4545454545455,230.70707070707084 287.91919191919203,240.24242424242436 278.38383838383845,249.77777777777794 268.84848484848493,259.3131313131314 259.3131313131314,268.84848484848493 249.77777777777783,278.38383838383857 240.2424242424243,287.91919191919203 230.70707070707084,297.4545454545456 221.17171717171726,306.9898989898991 211.63636363636374,316.5252525252526 202.10101010101022,326.06060606060623 192.5656565656567,335.5959595959597 183.03030303030312,345.1313131313133 173.4949494949496,354.66666666666674 163.95959595959607,364.2020202020203 154.42424242424255,373.73737373737384 144.88888888888903,383.27272727272737 135.35353535353545,392.80808080808094 135.35353535353545,402.3434343434344 135.35353535353545,411.87878787878793 135.35353535353545,421.4141414141415 135.35353535353545,430.94949494949503 135.35353535353545,440.4848484848486 135.35353535353545,450.0202020202021 135.35353535353545,459.5555555555556 135.35353535353545,469.0909090909092 135.35353535353545,478.6262626262627 135.35353535353545,488.1616161616163 135.35353535353545,497.69696969696975 135.35353535353545,507.23232323232327 135.35353535353545,516.7676767676768 135.35353535353545,526.3030303030304 135.35353535353545,535.838383838384 135.35353535353545,545.3737373737374 135.35353535353545,554.909090909091 135.35353535353545,564.4444444444445 135.35353535353545,573.979797979798 135.35353535353545,583.5151515151516 135.35353535353545,593.0505050505051 135.35353535353545,602.5858585858587 135.35353535353545,612.1212121212121 135.35353535353545,621.6565656565657 135.35353535353545,631.1919191919193 135.35353535353545,640.7272727272727 135.35353535353545,650.2626262626263 135.35353535353545,659.7979797979798 135.35353535353545,669.3333333333334 135.35353535353545,678.8686868686868 135.35353535353545,688.4040404040404 135.35353535353545,697.939393939394 135.35353535353545,707.4747474747475 135.35353535353545,717.010101010101 135.35353535353545,726.5454545454545 135.35353535353545,736.0808080808081 135.35353535353545,745.6161616161615 135.35353535353545,755.1515151515151 135.35353535353545,764.6868686868687 135.35353535353545,774.2222222222222 135.35353535353545,783.7575757575758 135.35353535353545,793.2929292929292 135.35353535353545,802.8282828282828 135.35353535353545,812.3636363636363 135.35353535353545,821.8989898989898 135.35353535353545,831.4343434343434 135.35353535353545,840.969696969697" fill="none" stroke="rgba(0,0,255,0.75)" stroke-width="14.159999999999995"/></g><g><polyline data-points="-3.98989898989899,-3.484848484848485 -4.090909090909091,-3.5858585858585856 -4.191919191919193,-3.6868686868686864 -4.191919191919193,-3.7878787878787876 -4.191919191919193,-3.8888888888888884 -4.191919191919193,-3.98989898989899 -4.191919191919193,-4.090909090909091 -4.191919191919193,-4.191919191919193 -4.191919191919193,-4.292929292929293 -4.191919191919193,-4.393939393939394 -4.191919191919193,-4.494949494949496 -4.191919191919193,-4.595959595959596 -4.191919191919193,-4.696969696969697 -4.191919191919193,-4.7979797979797985 -4.191919191919193,-4.898989898989899 -4.191919191919193,-5.000000000000001" data-type="line" data-label="" points="135.35353535353545,840.969696969697 125.81818181818193,850.5050505050505 116.28282828282829,860.0404040404039 116.28282828282829,869.5757575757575 116.28282828282829,879.1111111111111 116.28282828282829,888.6464646464647 116.28282828282829,898.1818181818181 116.28282828282829,907.7171717171718 116.28282828282829,917.2525252525252 116.28282828282829,926.7878787878788 116.28282828282829,936.3232323232323 116.28282828282829,945.8585858585858 116.28282828282829,955.3939393939394 116.28282828282829,964.9292929292928 116.28282828282829,974.4646464646464 116.28282828282829,984" fill="none" stroke="rgba(255,0,0,0.75)" stroke-width="14.159999999999995"/></g><g><polyline data-points="2.7777777777777786,-5.000000000000001 2.676767676767678,-4.898989898989899 2.575757575757577,-4.7979797979797985 2.4747474747474754,-4.696969696969697 2.373737373737375,-4.595959595959596 2.2727272727272734,-4.494949494949496 2.1717171717171726,-4.393939393939394 2.070707070707072,-4.292929292929293 1.9696969696969702,-4.191919191919193 1.8686868686868696,-4.090909090909091 1.767676767676768,-3.98989898989899 1.6666666666666674,-3.8888888888888884 1.5656565656565666,-3.7878787878787876 1.4646464646464652,-3.6868686868686864 1.3636363636363644,-3.5858585858585856 1.262626262626263,-3.484848484848485 1.1616161616161622,-3.383838383838383 1.0606060606060617,-3.2828282828282824 0.9595959595959602,-3.1818181818181817 0.8585858585858596,-3.0808080808080804 0.7575757575757579,-2.9797979797979792 0.6565656565656574,-2.8787878787878785 0.6565656565656574,-2.7777777777777777 0.6565656565656574,-2.6767676767676765 0.6565656565656574,-2.5757575757575752 0.6565656565656574,-2.474747474747474 0.6565656565656574,-2.3737373737373733 0.6565656565656574,-2.2727272727272725 0.6565656565656574,-2.1717171717171713 0.6565656565656574,-2.07070707070707 0.6565656565656574,-1.9696969696969693 0.6565656565656574,-1.8686868686868683 0.6565656565656574,-1.7676767676767675 0.6565656565656574,-1.6666666666666665 0.6565656565656574,-1.5656565656565653 0.6565656565656574,-1.4646464646464643 0.6565656565656574,-1.363636363636363 0.6565656565656574,-1.2626262626262625 0.6565656565656574,-1.1616161616161613 0.6565656565656574,-1.0606060606060603 0.6565656565656574,-0.9595959595959596 0.6565656565656574,-0.8585858585858579 0.6565656565656574,-0.7575757575757572 0.6565656565656574,-0.6565656565656557 0.6565656565656574,-0.555555555555555 0.6565656565656574,-0.4545454545454544 0.6565656565656574,-0.35353535353535287 0.6565656565656574,-0.2525252525252522 0.6565656565656574,-0.15151515151515066 0.6565656565656574,-0.05050505050505001 0.6565656565656574,0.050505050505051545 0.6565656565656574,0.1515151515151522 0.6565656565656574,0.2525252525252529 0.6565656565656574,0.3535353535353544 0.6565656565656574,0.4545454545454551 0.6565656565656574,0.5555555555555567 0.6565656565656574,0.6565656565656574 0.6565656565656574,0.7575757575757579 0.6565656565656574,0.8585858585858596 0.6565656565656574,0.9595959595959602 0.6565656565656574,1.0606060606060617 0.6565656565656574,1.1616161616161622 0.6565656565656574,1.262626262626263 0.6565656565656574,1.3636363636363644 0.6565656565656574,1.4646464646464652 0.6565656565656574,1.5656565656565666 0.6565656565656574,1.6666666666666674 0.6565656565656574,1.767676767676768 0.6565656565656574,1.8686868686868696 0.6565656565656574,1.9696969696969702 0.6565656565656574,2.070707070707072 0.6565656565656574,2.1717171717171726 0.6565656565656574,2.2727272727272734 0.6565656565656574,2.373737373737375 0.6565656565656574,2.4747474747474754 0.6565656565656574,2.575757575757577 0.6565656565656574,2.676767676767678 0.6565656565656574,2.7777777777777786 0.6565656565656574,2.87878787878788 0.6565656565656574,2.9797979797979806 0.6565656565656574,3.080808080808082 0.6565656565656574,3.181818181818183 0.6565656565656574,3.2828282828282833 0.6565656565656574,3.383838383838384 0.6565656565656574,3.4848484848484866 0.6565656565656574,3.5858585858585874 0.6565656565656574,3.6868686868686877 0.6565656565656574,3.7878787878787885 0.6565656565656574,3.8888888888888893 0.6565656565656574,3.989898989898992 0.6565656565656574,4.090909090909092 0.6565656565656574,4.191919191919193 0.6565656565656574,4.292929292929293 0.6565656565656574,4.393939393939394 0.6565656565656574,4.494949494949497 0.6565656565656574,4.595959595959597 0.6565656565656574,4.696969696969697 0.6565656565656574,4.7979797979797985 0.6565656565656574,4.898989898989901 0.6565656565656574,5.000000000000002" data-type="line" data-label="" points="774.2222222222222,984 764.6868686868686,974.4646464646464 755.1515151515151,964.9292929292928 745.6161616161615,955.3939393939394 736.0808080808081,945.8585858585858 726.5454545454545,936.3232323232323 717.0101010101009,926.7878787878788 707.4747474747475,917.2525252525252 697.9393939393939,907.7171717171718 688.4040404040404,898.1818181818181 678.8686868686868,888.6464646464647 669.3333333333333,879.1111111111111 659.7979797979798,869.5757575757575 650.2626262626262,860.0404040404039 640.7272727272727,850.5050505050505 631.1919191919192,840.969696969697 621.6565656565656,831.4343434343434 612.1212121212121,821.8989898989898 602.5858585858585,812.3636363636363 593.0505050505051,802.8282828282828 583.5151515151515,793.2929292929292 573.9797979797979,783.7575757575758 573.9797979797979,774.2222222222222 573.9797979797979,764.6868686868687 573.9797979797979,755.1515151515151 573.9797979797979,745.6161616161615 573.9797979797979,736.0808080808081 573.9797979797979,726.5454545454545 573.9797979797979,717.010101010101 573.9797979797979,707.4747474747475 573.9797979797979,697.939393939394 573.9797979797979,688.4040404040404 573.9797979797979,678.8686868686868 573.9797979797979,669.3333333333334 573.9797979797979,659.7979797979798 573.9797979797979,650.2626262626263 573.9797979797979,640.7272727272727 573.9797979797979,631.1919191919193 573.9797979797979,621.6565656565657 573.9797979797979,612.1212121212121 573.9797979797979,602.5858585858587 573.9797979797979,593.0505050505051 573.9797979797979,583.5151515151516 573.9797979797979,573.979797979798 573.9797979797979,564.4444444444445 573.9797979797979,554.909090909091 573.9797979797979,545.3737373737374 573.9797979797979,535.838383838384 573.9797979797979,526.3030303030304 573.9797979797979,516.7676767676768 573.9797979797979,507.23232323232327 573.9797979797979,497.69696969696975 573.9797979797979,488.1616161616163 573.9797979797979,478.6262626262627 573.9797979797979,469.0909090909092 573.9797979797979,459.5555555555556 573.9797979797979,450.0202020202021 573.9797979797979,440.4848484848486 573.9797979797979,430.94949494949503 573.9797979797979,421.4141414141415 573.9797979797979,411.87878787878793 573.9797979797979,402.3434343434344 573.9797979797979,392.80808080808094 573.9797979797979,383.27272727272737 573.9797979797979,373.73737373737384 573.9797979797979,364.2020202020203 573.9797979797979,354.66666666666674 573.9797979797979,345.1313131313133 573.9797979797979,335.5959595959597 573.9797979797979,326.06060606060623 573.9797979797979,316.5252525252526 573.9797979797979,306.9898989898991 573.9797979797979,297.4545454545456 573.9797979797979,287.91919191919203 573.9797979797979,278.38383838383857 573.9797979797979,268.84848484848493 573.9797979797979,259.3131313131314 573.9797979797979,249.77777777777794 573.9797979797979,240.24242424242436 573.9797979797979,230.70707070707084 573.9797979797979,221.17171717171726 573.9797979797979,211.63636363636374 573.9797979797979,202.10101010101027 573.9797979797979,192.56565656565675 573.9797979797979,183.03030303030312 573.9797979797979,173.4949494949496 573.9797979797979,163.95959595959613 573.9797979797979,154.4242424242426 573.9797979797979,144.88888888888908 573.9797979797979,135.35353535353545 573.9797979797979,125.81818181818198 573.9797979797979,116.28282828282846 573.9797979797979,106.747474747475 573.9797979797979,97.21212121212153 573.9797979797979,87.67676767676778 573.9797979797979,78.14141414141432 573.9797979797979,68.60606060606085 573.9797979797979,59.07070707070733 573.9797979797979,49.53535353535369 573.9797979797979,40.000000000000114" fill="none" stroke="rgba(0,0,255,0.75)" stroke-width="14.159999999999995"/></g><g><polyline data-points="5.000000000000002,-1.2626262626262625 4.898989898989901,-1.1616161616161613 4.7979797979797985,-1.0606060606060603 4.696969696969697,-0.9595959595959596 4.595959595959597,-0.8585858585858579 4.494949494949497,-0.7575757575757572 4.393939393939394,-0.6565656565656557 4.292929292929293,-0.555555555555555 4.191919191919193,-0.4545454545454544 4.090909090909092,-0.35353535353535287 3.989898989898992,-0.2525252525252522 3.8888888888888893,-0.15151515151515066 3.7878787878787885,-0.05050505050505001 3.6868686868686877,0.050505050505051545 3.5858585858585874,0.1515151515151522 3.4848484848484866,0.2525252525252529 3.383838383838384,0.3535353535353544 3.2828282828282833,0.4545454545454551 3.181818181818183,0.5555555555555567 3.080808080808082,0.6565656565656574 2.9797979797979806,0.7575757575757579 2.87878787878788,0.8585858585858596 2.7777777777777786,0.9595959595959602 2.676767676767678,1.0606060606060617 2.575757575757577,1.1616161616161622 2.4747474747474754,1.262626262626263 2.373737373737375,1.3636363636363644 2.2727272727272734,1.4646464646464652 2.1717171717171726,1.5656565656565666 2.070707070707072,1.6666666666666674 1.9696969696969702,1.767676767676768 1.8686868686868696,1.8686868686868696 1.767676767676768,1.9696969696969702 1.6666666666666674,2.070707070707072 1.5656565656565666,2.1717171717171726 1.4646464646464652,2.2727272727272734 1.3636363636363644,2.373737373737375 1.262626262626263,2.4747474747474754 1.262626262626263,2.575757575757577 1.262626262626263,2.676767676767678 1.262626262626263,2.7777777777777786 1.262626262626263,2.87878787878788 1.262626262626263,2.9797979797979806 1.262626262626263,3.080808080808082 1.262626262626263,3.181818181818183 1.262626262626263,3.2828282828282833 1.262626262626263,3.383838383838384 1.262626262626263,3.4848484848484866 1.262626262626263,3.5858585858585874 1.262626262626263,3.6868686868686877 1.262626262626263,3.7878787878787885 1.262626262626263,3.8888888888888893" data-type="line" data-label="" points="984,631.1919191919193 974.4646464646464,621.6565656565657 964.9292929292927,612.1212121212121 955.3939393939393,602.5858585858587 945.8585858585857,593.0505050505051 936.3232323232323,583.5151515151516 926.7878787878785,573.979797979798 917.2525252525251,564.4444444444445 907.7171717171716,554.909090909091 898.181818181818,545.3737373737374 888.6464646464647,535.838383838384 879.111111111111,526.3030303030304 869.5757575757575,516.7676767676768 860.0404040404039,507.23232323232327 850.5050505050505,497.69696969696975 840.969696969697,488.1616161616163 831.4343434343433,478.6262626262627 821.8989898989898,469.0909090909092 812.3636363636363,459.5555555555556 802.8282828282828,450.0202020202021 793.2929292929292,440.4848484848486 783.7575757575758,430.94949494949503 774.2222222222222,421.4141414141415 764.6868686868686,411.87878787878793 755.1515151515151,402.3434343434344 745.6161616161615,392.80808080808094 736.0808080808081,383.27272727272737 726.5454545454545,373.73737373737384 717.0101010101009,364.2020202020203 707.4747474747475,354.66666666666674 697.9393939393939,345.1313131313133 688.4040404040404,335.5959595959597 678.8686868686868,326.06060606060623 669.3333333333333,316.5252525252526 659.7979797979798,306.9898989898991 650.2626262626262,297.4545454545456 640.7272727272727,287.91919191919203 631.1919191919192,278.38383838383857 631.1919191919192,268.84848484848493 631.1919191919192,259.3131313131314 631.1919191919192,249.77777777777794 631.1919191919192,240.24242424242436 631.1919191919192,230.70707070707084 631.1919191919192,221.17171717171726 631.1919191919192,211.63636363636374 631.1919191919192,202.10101010101027 631.1919191919192,192.56565656565675 631.1919191919192,183.03030303030312 631.1919191919192,173.4949494949496 631.1919191919192,163.95959595959613 631.1919191919192,154.4242424242426 631.1919191919192,144.88888888888908" fill="none" stroke="rgba(0,0,255,0.75)" stroke-width="14.159999999999995"/></g><g><polyline data-points="1.262626262626263,3.8888888888888893 1.1616161616161622,3.989898989898992 1.0606060606060617,4.090909090909092 0.9595959595959602,4.191919191919193 0.8585858585858596,4.292929292929293 0.7575757575757579,4.393939393939394 0.6565656565656574,4.494949494949497 0.5555555555555567,4.595959595959597 0.4545454545454551,4.696969696969697 0.3535353535353544,4.696969696969697 0.2525252525252529,4.696969696969697 0.1515151515151522,4.696969696969697 0.050505050505051545,4.696969696969697 -0.05050505050505001,4.696969696969697 -0.15151515151515066,4.696969696969697 -0.2525252525252522,4.696969696969697 -0.35353535353535287,4.696969696969697 -0.4545454545454544,4.696969696969697 -0.555555555555555,4.696969696969697 -0.6565656565656557,4.696969696969697 -0.7575757575757572,4.696969696969697 -0.8585858585858579,4.696969696969697 -0.9595959595959596,4.696969696969697 -1.0606060606060603,4.696969696969697 -1.1616161616161613,4.696969696969697 -1.2626262626262625,4.696969696969697 -1.363636363636363,4.696969696969697 -1.4646464646464643,4.696969696969697 -1.5656565656565653,4.696969696969697 -1.6666666666666665,4.696969696969697 -1.7676767676767675,4.696969696969697 -1.8686868686868683,4.696969696969697 -1.9696969696969693,4.696969696969697 -2.07070707070707,4.696969696969697 -2.1717171717171713,4.696969696969697 -2.2727272727272725,4.696969696969697 -2.3737373737373733,4.696969696969697 -2.474747474747474,4.696969696969697 -2.5757575757575752,4.696969696969697 -2.6767676767676765,4.696969696969697 -2.7777777777777777,4.696969696969697 -2.8787878787878785,4.696969696969697 -2.9797979797979792,4.696969696969697 -3.0808080808080804,4.696969696969697 -3.1818181818181817,4.696969696969697 -3.2828282828282824,4.696969696969697 -3.383838383838383,4.696969696969697 -3.484848484848485,4.696969696969697 -3.5858585858585856,4.696969696969697 -3.6868686868686864,4.696969696969697 -3.7878787878787876,4.696969696969697 -3.8888888888888884,4.696969696969697 -3.98989898989899,4.696969696969697 -4.090909090909091,4.696969696969697 -4.191919191919193,4.696969696969697 -4.292929292929293,4.696969696969697 -4.393939393939394,4.696969696969697 -4.494949494949496,4.696969696969697 -4.595959595959596,4.696969696969697 -4.696969696969697,4.696969696969697 -4.7979797979797985,4.696969696969697 -4.898989898989899,4.696969696969697 -5.000000000000001,4.696969696969697" data-type="line" data-label="" points="631.1919191919192,144.88888888888908 621.6565656565656,135.35353535353545 612.1212121212121,125.81818181818198 602.5858585858585,116.28282828282846 593.0505050505051,106.747474747475 583.5151515151515,97.21212121212153 573.9797979797979,87.67676767676778 564.4444444444445,78.14141414141432 554.9090909090909,68.60606060606085 545.3737373737374,68.60606060606085 535.8383838383838,68.60606060606085 526.3030303030303,68.60606060606085 516.7676767676768,68.60606060606085 507.2323232323232,68.60606060606085 497.69696969696975,68.60606060606085 488.16161616161617,68.60606060606085 478.62626262626264,68.60606060606085 469.09090909090907,68.60606060606085 459.55555555555554,68.60606060606085 450.0202020202021,68.60606060606085 440.4848484848485,68.60606060606085 430.949494949495,68.60606060606085 421.4141414141414,68.60606060606085 411.8787878787879,68.60606060606085 402.34343434343435,68.60606060606085 392.80808080808083,68.60606060606085 383.2727272727273,68.60606060606085 373.7373737373738,68.60606060606085 364.2020202020202,68.60606060606085 354.6666666666667,68.60606060606085 345.13131313131316,68.60606060606085 335.59595959595964,68.60606060606085 326.0606060606061,68.60606060606085 316.5252525252526,68.60606060606085 306.9898989898991,68.60606060606085 297.4545454545455,68.60606060606085 287.91919191919203,68.60606060606085 278.38383838383845,68.60606060606085 268.84848484848493,68.60606060606085 259.3131313131314,68.60606060606085 249.77777777777783,68.60606060606085 240.2424242424243,68.60606060606085 230.70707070707084,68.60606060606085 221.17171717171726,68.60606060606085 211.63636363636374,68.60606060606085 202.10101010101022,68.60606060606085 192.5656565656567,68.60606060606085 183.03030303030312,68.60606060606085 173.4949494949496,68.60606060606085 163.95959595959607,68.60606060606085 154.42424242424255,68.60606060606085 144.88888888888903,68.60606060606085 135.35353535353545,68.60606060606085 125.81818181818193,68.60606060606085 116.28282828282829,68.60606060606085 106.74747474747483,68.60606060606085 97.21212121212136,68.60606060606085 87.67676767676772,68.60606060606085 78.14141414141426,68.60606060606085 68.60606060606068,68.60606060606085 59.07070707070716,68.60606060606085 49.53535353535369,68.60606060606085 40.00000000000006,68.60606060606085" fill="none" stroke="rgba(255,0,0,0.75)" stroke-width="14.159999999999995"/></g><g><rect data-type="rect" data-label="" data-x="0" data-y="0" x="40.000000000000114" y="40.000000000000284" width="943.9999999999997" height="943.9999999999998" fill="none" stroke="gray" stroke-width="0.010593220338983056"/></g><g><rect data-type="rect" data-label="" data-x="0" data-y="0" x="40.000000000000114" y="40.000000000000284" width="943.9999999999997" height="943.9999999999998" fill="none" stroke="rgba(15, 23, 42, 0.8)" stroke-width="0.010593220338983056"/></g><circle data-type="circle" data-label="" data-x="-3.98989898989899" data-y="-3.484848484848485" cx="135.35353535353545" cy="840.969696969697" r="28.791999999999987" fill="rgba(0,0,0,0.3)" stroke="black" stroke-width="0.010593220338983056"/><circle data-type="circle" data-label="" data-x="1.262626262626263" data-y="3.8888888888888893" cx="631.1919191919192" cy="144.88888888888908" r="28.791999999999987" fill="rgba(0,0,0,0.3)" stroke="black" stroke-width="0.010593220338983056"/><g id="crosshair" style="display: none"><line id="crosshair-h" y1="0" y2="1024" stroke="#666" stroke-width="0.5"/><line id="crosshair-v" x1="0" x2="1024" stroke="#666" stroke-width="0.5"/><text id="coordinates" font-family="monospace" font-size="12" fill="#666"></text></g><script><![CDATA[
              document.currentScript.parentElement.addEventListener('mousemove', (e) => {
                const svg = e.currentTarget;
                const rect = svg.getBoundingClientRect();
                const x = e.clientX - rect.left;
                const y = e.clientY - rect.top;
                const crosshair = svg.getElementById('crosshair');
                const h = svg.getElementById('crosshair-h');
                const v = svg.getElementById('crosshair-v');
                const coords = svg.getElementById('coordinates');
                
                crosshair.style.display = 'block';
                h.setAttribute('x1', '0');
                h.setAttribute('x2', '1024');
                h.setAttribute('y1', y);
                h.setAttribute('y2', y);
                v.setAttribute('x1', x);
                v.setAttribute('x2', x);
                v.setAttribute('y1', '0');
                v.setAttribute('y2', '1024');

                // Calculate real coordinates using inverse transformation
                const matrix = {"a":94.39999999999996,"c":0,"e":511.99999999999994,"b":0,"d":-94.39999999999996,"f":512.0000000000001};
                // Manually invert and apply the affine transform
                // Since we only use translate and scale, we can directly compute:
                // x' = (x - tx) / sx
                // y' = (y - ty) / sy
                const sx = matrix.a;
                const sy = matrix.d;
                const tx = matrix.e; 
                const ty = matrix.f;
                const realPoint = {
                  x: (x - tx) / sx,
                  y: (y - ty) / sy // Flip y back since we used negative scale
                }
                
                coords.textContent = `(${realPoint.x.toFixed(2)}, ${realPoint.y.toFixed(2)})`;
                coords.setAttribute('x', (x + 5).toString());
                coords.setAttribute('y', (y - 5).toString());
              });
              document.currentScript.parentElement.addEventListener('mouseleave', () => {
                document.currentScript.parentElement.getElementById('crosshair').style.display = 'none';
              });
            ]]></script></svg>