<svg width="1024" height="1024" viewBox="0 0 1024 1024" xmlns="http://www.w3.org/2000/svg"><rect width="100%" height="100%" fill="white"/><g><circle data-type="point" data-label="conn_000" data-x="3.5" data-y="5" cx="842.3999999999999" cy="40.000000000000284" r="28.792" fill="blue" stroke="#170fbd" stroke-width="28.792"/></g><g><circle data-type="point" data-label="conn_000" data-x="-5" data-y="-4.98" cx="40.000000000000114" cy="982.112" r="28.792" fill="blue" stroke="#170fbd" stroke-width="28.792"/></g><g><circle data-type="point" data-label="conn_001" data-x="2.22" data-y="-5" cx="721.5679999999999" cy="984" r="28.792" fill="red" stroke="#bd490f" stroke-width="28.792"/></g><g><circle data-type="point" data-label="conn_001" data-x="-0.18" data-y="-5" cx="495.0079999999999" cy="984" r="28.792" fill="blue" stroke="#bd490f" stroke-width="28.792"/></g><g><circle data-type="point" data-label="conn_002" data-x="-3.84" data-y="-5" cx="149.50400000000008" cy="984" r="28.792" fill="blue" stroke="#0fbd7c" stroke-width="28.792"/></g><g><circle data-type="point" data-label="conn_002" data-x="2.36" data-y="5" cx="734.7839999999999" cy="40.000000000000284" r="28.792" fill="red" stroke="#0fbd7c" stroke-width="28.792"/></g><g><circle data-type="point" data-label="conn_003" data-x="-5" data-y="-0.1" cx="40.000000000000114" cy="521.44" r="28.792" fill="blue" stroke="#ae0fbd" stroke-width="28.792"/></g><g><circle data-type="point" data-label="conn_003" data-x="5" data-y="4.82" cx="983.9999999999998" cy="56.992000000000246" r="28.792" fill="red" stroke="#ae0fbd" stroke-width="28.792"/></g><g><circle data-type="point" data-label="conn_004" data-x="0.1" data-y="5" cx="521.4399999999999" cy="40.000000000000284" r="28.792" fill="red" stroke="#98bd0f" stroke-width="28.792"/></g><g><circle data-type="point" data-label="conn_004" data-x="-5" data-y="-1" cx="40.000000000000114" cy="606.4000000000001" r="28.792" fill="blue" stroke="#98bd0f" stroke-width="28.792"/></g><g><circle data-type="point" data-label="conn_005" data-x="5" data-y="1.76" cx="983.9999999999998" cy="345.85600000000017" r="28.792" fill="red" stroke="#0f66bd" stroke-width="28.792"/></g><g><circle data-type="point" data-label="conn_005" data-x="-5" data-y="3.8200000000000003" cx="40.000000000000114" cy="151.39200000000022" r="28.792" fill="blue" stroke="#0f66bd" stroke-width="28.792"/></g><g><circle data-type="point" data-label="conn_006" data-x="5" data-y="-1.5" cx="983.9999999999998" cy="653.6" r="28.792" fill="blue" stroke="#bd0f33" stroke-width="28.792"/></g><g><circle data-type="point" data-label="conn_006" data-x="-5" data-y="-3.64" cx="40.000000000000114" cy="855.616" r="28.792" fill="red" stroke="#bd0f33" stroke-width="28.792"/></g><g><circle data-type="point" data-label="conn_007" data-x="-2.38" data-y="-5" cx="287.32800000000003" cy="984" r="28.792" fill="red" stroke="#0fbd1e" stroke-width="28.792"/></g><g><circle data-type="point" data-label="conn_007" data-x="-5" data-y="4.96" cx="40.000000000000114" cy="43.776000000000295" r="28.792" fill="red" stroke="#0fbd1e" stroke-width="28.792"/></g><g><polyline data-points="0.050505050505051545,5.000000000000002 -0.05050505050505001,4.898989898989901 -0.15151515151515066,4.7979797979797985 -0.2525252525252522,4.696969696969697 -0.35353535353535287,4.595959595959597 -0.4545454545454544,4.494949494949497 -0.555555555555555,4.393939393939394 -0.6565656565656557,4.393939393939394 -0.7575757575757572,4.393939393939394 -0.8585858585858579,4.393939393939394 -0.9595959595959596,4.393939393939394 -1.0606060606060603,4.393939393939394 -1.1616161616161613,4.393939393939394 -1.2626262626262625,4.393939393939394 -1.363636363636363,4.393939393939394 -1.4646464646464643,4.393939393939394 -1.5656565656565653,4.393939393939394 -1.6666666666666665,4.393939393939394 -1.7676767676767675,4.393939393939394 -1.8686868686868683,4.393939393939394 -1.9696969696969693,4.393939393939394 -2.07070707070707,4.393939393939394 -2.1717171717171713,4.393939393939394 -2.2727272727272725,4.393939393939394 -2.3737373737373733,4.393939393939394 -2.474747474747474,4.393939393939394 -2.5757575757575752,4.393939393939394 -2.6767676767676765,4.393939393939394 -2.7777777777777777,4.393939393939394 -2.8787878787878785,4.393939393939394 -2.9797979797979792,4.393939393939394 -3.0808080808080804,4.393939393939394 -3.1818181818181817,4.393939393939394 -3.2828282828282824,4.393939393939394 -3.383838383838383,4.393939393939394 -3.484848484848485,4.393939393939394 -3.5858585858585856,4.393939393939394 -3.6868686868686864,4.393939393939394 -3.7878787878787876,4.393939393939394 -3.8888888888888884,4.393939393939394 -3.98989898989899,4.393939393939394 -4.090909090909091,4.292929292929293 -4.191919191919193,4.292929292929293 -4.292929292929293,4.191919191919193 -4.393939393939394,4.090909090909092 -4.494949494949496,3.989898989898992 -4.494949494949496,3.8888888888888893 -4.494949494949496,3.7878787878787885 -4.494949494949496,3.6868686868686877 -4.494949494949496,3.5858585858585874 -4.494949494949496,3.4848484848484866 -4.494949494949496,3.383838383838384 -4.494949494949496,3.2828282828282833 -4.494949494949496,3.181818181818183 -4.494949494949496,3.080808080808082 -4.494949494949496,2.9797979797979806 -4.494949494949496,2.87878787878788 -4.494949494949496,2.7777777777777786 -4.494949494949496,2.676767676767678 -4.494949494949496,2.575757575757577 -4.494949494949496,2.4747474747474754 -4.494949494949496,2.373737373737375 -4.494949494949496,2.2727272727272734 -4.494949494949496,2.1717171717171726 -4.494949494949496,2.070707070707072 -4.494949494949496,1.9696969696969702 -4.494949494949496,1.8686868686868696 -4.494949494949496,1.767676767676768 -4.494949494949496,1.6666666666666674 -4.494949494949496,1.5656565656565666 -4.494949494949496,1.4646464646464652 -4.494949494949496,1.3636363636363644 -4.494949494949496,1.262626262626263 -4.494949494949496,1.1616161616161622 -4.494949494949496,1.0606060606060617 -4.494949494949496,0.9595959595959602 -4.494949494949496,0.8585858585858596 -4.494949494949496,0.7575757575757579 -4.494949494949496,0.6565656565656574 -4.494949494949496,0.5555555555555567 -4.494949494949496,0.4545454545454551 -4.494949494949496,0.3535353535353544 -4.494949494949496,0.2525252525252529 -4.494949494949496,0.1515151515151522 -4.494949494949496,0.050505050505051545 -4.494949494949496,-0.05050505050505001 -4.494949494949496,-0.15151515151515066 -4.494949494949496,-0.2525252525252522 -4.494949494949496,-0.35353535353535287 -4.393939393939394,-0.4545454545454544 -4.292929292929293,-0.555555555555555 -4.191919191919193,-0.6565656565656557 -4.090909090909091,-0.7575757575757572 -3.98989898989899,-0.8585858585858579" data-type="line" data-label="" points="516.7676767676768,40.000000000000114 507.2323232323232,49.53535353535369 497.69696969696975,59.07070707070733 488.16161616161617,68.60606060606085 478.62626262626264,78.14141414141432 469.09090909090907,87.67676767676778 459.55555555555554,97.21212121212153 450.0202020202021,97.21212121212153 440.4848484848485,97.21212121212153 430.949494949495,97.21212121212153 421.4141414141414,97.21212121212153 411.8787878787879,97.21212121212153 402.34343434343435,97.21212121212153 392.80808080808083,97.21212121212153 383.2727272727273,97.21212121212153 373.7373737373738,97.21212121212153 364.2020202020202,97.21212121212153 354.6666666666667,97.21212121212153 345.13131313131316,97.21212121212153 335.59595959595964,97.21212121212153 326.0606060606061,97.21212121212153 316.5252525252526,97.21212121212153 306.9898989898991,97.21212121212153 297.4545454545455,97.21212121212153 287.91919191919203,97.21212121212153 278.38383838383845,97.21212121212153 268.84848484848493,97.21212121212153 259.3131313131314,97.21212121212153 249.77777777777783,97.21212121212153 240.2424242424243,97.21212121212153 230.70707070707084,97.21212121212153 221.17171717171726,97.21212121212153 211.63636363636374,97.21212121212153 202.10101010101022,97.21212121212153 192.5656565656567,97.21212121212153 183.03030303030312,97.21212121212153 173.4949494949496,97.21212121212153 163.95959595959607,97.21212121212153 154.42424242424255,97.21212121212153 144.88888888888903,97.21212121212153 135.35353535353545,97.21212121212153 125.81818181818193,106.747474747475 116.28282828282829,106.747474747475 106.74747474747483,116.28282828282846 97.21212121212136,125.81818181818198 87.67676767676772,135.35353535353545 87.67676767676772,144.88888888888908 87.67676767676772,154.4242424242426 87.67676767676772,163.95959595959613 87.67676767676772,173.4949494949496 87.67676767676772,183.03030303030312 87.67676767676772,192.56565656565675 87.67676767676772,202.10101010101027 87.67676767676772,211.63636363636374 87.67676767676772,221.17171717171726 87.67676767676772,230.70707070707084 87.67676767676772,240.24242424242436 87.67676767676772,249.77777777777794 87.67676767676772,259.3131313131314 87.67676767676772,268.84848484848493 87.67676767676772,278.38383838383857 87.67676767676772,287.91919191919203 87.67676767676772,297.4545454545456 87.67676767676772,306.9898989898991 87.67676767676772,316.5252525252526 87.67676767676772,326.06060606060623 87.67676767676772,335.5959595959597 87.67676767676772,345.1313131313133 87.67676767676772,354.66666666666674 87.67676767676772,364.2020202020203 87.67676767676772,373.73737373737384 87.67676767676772,383.27272727272737 87.67676767676772,392.80808080808094 87.67676767676772,402.3434343434344 87.67676767676772,411.87878787878793 87.67676767676772,421.4141414141415 87.67676767676772,430.94949494949503 87.67676767676772,440.4848484848486 87.67676767676772,450.0202020202021 87.67676767676772,459.5555555555556 87.67676767676772,469.0909090909092 87.67676767676772,478.6262626262627 87.67676767676772,488.1616161616163 87.67676767676772,497.69696969696975 87.67676767676772,507.23232323232327 87.67676767676772,516.7676767676768 87.67676767676772,526.3030303030304 87.67676767676772,535.838383838384 87.67676767676772,545.3737373737374 97.21212121212136,554.909090909091 106.74747474747483,564.4444444444445 116.28282828282829,573.979797979798 125.81818181818193,583.5151515151516 135.35353535353545,593.0505050505051" fill="none" stroke="rgba(255,0,0,0.75)" stroke-width="14.159999999999995"/></g><g><polyline data-points="-3.98989898989899,-0.8585858585858579 -4.090909090909091,-0.9595959595959596 -4.191919191919193,-0.9595959595959596 -4.292929292929293,-0.9595959595959596 -4.393939393939394,-0.9595959595959596 -4.494949494949496,-0.9595959595959596 -4.595959595959596,-0.9595959595959596 -4.696969696969697,-0.9595959595959596 -4.7979797979797985,-0.9595959595959596 -4.898989898989899,-0.9595959595959596 -5.000000000000001,-0.9595959595959596" data-type="line" data-label="" points="135.35353535353545,593.0505050505051 125.81818181818193,602.5858585858587 116.28282828282829,602.5858585858587 106.74747474747483,602.5858585858587 97.21212121212136,602.5858585858587 87.67676767676772,602.5858585858587 78.14141414141426,602.5858585858587 68.60606060606068,602.5858585858587 59.07070707070716,602.5858585858587 49.53535353535369,602.5858585858587 40.00000000000006,602.5858585858587" fill="none" stroke="rgba(0,0,255,0.75)" stroke-width="14.159999999999995"/></g><g><polyline data-points="2.2727272727272734,-5.000000000000001 2.1717171717171726,-5.000000000000001 2.070707070707072,-5.000000000000001 1.9696969696969702,-5.000000000000001 1.8686868686868696,-5.000000000000001 1.767676767676768,-5.000000000000001 1.6666666666666674,-5.000000000000001 1.5656565656565666,-5.000000000000001 1.4646464646464652,-5.000000000000001 1.3636363636363644,-5.000000000000001 1.262626262626263,-4.898989898989899 1.1616161616161622,-4.7979797979797985 1.0606060606060617,-4.696969696969697 0.9595959595959602,-4.595959595959596 0.8585858585858596,-4.494949494949496 0.7575757575757579,-4.393939393939394 0.6565656565656574,-4.292929292929293 0.5555555555555567,-4.191919191919193 0.4545454545454551,-4.090909090909091 0.3535353535353544,-3.98989898989899" data-type="line" data-label="" points="726.5454545454545,984 717.0101010101009,984 707.4747474747475,984 697.9393939393939,984 688.4040404040404,984 678.8686868686868,984 669.3333333333333,984 659.7979797979798,984 650.2626262626262,984 640.7272727272727,984 631.1919191919192,974.4646464646464 621.6565656565656,964.9292929292928 612.1212121212121,955.3939393939394 602.5858585858585,945.8585858585858 593.0505050505051,936.3232323232323 583.5151515151515,926.7878787878788 573.9797979797979,917.2525252525252 564.4444444444445,907.7171717171718 554.9090909090909,898.1818181818181 545.3737373737374,888.6464646464647" fill="none" stroke="rgba(255,0,0,0.75)" stroke-width="14.159999999999995"/></g><g><polyline data-points="0.3535353535353544,-3.98989898989899 0.2525252525252529,-4.090909090909091 0.1515151515151522,-4.191919191919193 0.050505050505051545,-4.292929292929293 -0.05050505050505001,-4.393939393939394 -0.15151515151515066,-4.494949494949496 -0.15151515151515066,-4.595959595959596 -0.15151515151515066,-4.696969696969697 -0.15151515151515066,-4.7979797979797985 -0.15151515151515066,-4.898989898989899 -0.15151515151515066,-5.000000000000001" data-type="line" data-label="" points="545.3737373737374,888.6464646464647 535.8383838383838,898.1818181818181 526.3030303030303,907.7171717171718 516.7676767676768,917.2525252525252 507.2323232323232,926.7878787878788 497.69696969696975,936.3232323232323 497.69696969696975,945.8585858585858 497.69696969696975,955.3939393939394 497.69696969696975,964.9292929292928 497.69696969696975,974.4646464646464 497.69696969696975,984" fill="none" stroke="rgba(0,0,255,0.75)" stroke-width="14.159999999999995"/></g><g><polyline data-points="3.5858585858585874,5.000000000000002 3.4848484848484866,4.898989898989901 3.383838383838384,4.7979797979797985 3.2828282828282833,4.696969696969697 3.181818181818183,4.595959595959597 3.080808080808082,4.494949494949497 2.9797979797979806,4.393939393939394 2.87878787878788,4.292929292929293 2.7777777777777786,4.191919191919193 2.676767676767678,4.090909090909092 2.575757575757577,3.989898989898992 2.4747474747474754,3.8888888888888893 2.373737373737375,3.7878787878787885 2.2727272727272734,3.6868686868686877 2.1717171717171726,3.5858585858585874 2.070707070707072,3.4848484848484866 1.9696969696969702,3.383838383838384 1.8686868686868696,3.2828282828282833 1.767676767676768,3.181818181818183 1.6666666666666674,3.080808080808082 1.5656565656565666,2.9797979797979806 1.4646464646464652,2.87878787878788 1.3636363636363644,2.7777777777777786 1.262626262626263,2.676767676767678 1.1616161616161622,2.575757575757577 1.0606060606060617,2.4747474747474754 0.9595959595959602,2.373737373737375 0.8585858585858596,2.2727272727272734 0.7575757575757579,2.1717171717171726 0.6565656565656574,2.070707070707072 0.5555555555555567,1.9696969696969702 0.4545454545454551,1.8686868686868696 0.3535353535353544,1.767676767676768 0.2525252525252529,1.6666666666666674 0.1515151515151522,1.5656565656565666 0.050505050505051545,1.4646464646464652 -0.05050505050505001,1.3636363636363644 -0.15151515151515066,1.262626262626263 -0.2525252525252522,1.1616161616161622 -0.35353535353535287,1.0606060606060617 -0.4545454545454544,0.9595959595959602 -0.555555555555555,0.8585858585858596 -0.6565656565656557,0.7575757575757579 -0.7575757575757572,0.6565656565656574 -0.8585858585858579,0.5555555555555567 -0.9595959595959596,0.4545454545454551 -1.0606060606060603,0.3535353535353544 -1.1616161616161613,0.2525252525252529 -1.2626262626262625,0.1515151515151522 -1.363636363636363,0.050505050505051545 -1.4646464646464643,-0.05050505050505001 -1.5656565656565653,-0.15151515151515066 -1.6666666666666665,-0.2525252525252522 -1.7676767676767675,-0.35353535353535287 -1.8686868686868683,-0.4545454545454544 -1.9696969696969693,-0.555555555555555 -2.07070707070707,-0.6565656565656557 -2.1717171717171713,-0.7575757575757572 -2.2727272727272725,-0.8585858585858579 -2.3737373737373733,-0.9595959595959596 -2.474747474747474,-1.0606060606060603 -2.5757575757575752,-1.1616161616161613 -2.6767676767676765,-1.2626262626262625 -2.7777777777777777,-1.363636363636363 -2.8787878787878785,-1.4646464646464643 -2.9797979797979792,-1.5656565656565653 -3.0808080808080804,-1.6666666666666665 -3.1818181818181817,-1.7676767676767675 -3.2828282828282824,-1.8686868686868683 -3.383838383838383,-1.9696969696969693 -3.484848484848485,-2.07070707070707 -3.5858585858585856,-2.1717171717171713 -3.6868686868686864,-2.2727272727272725 -3.7878787878787876,-2.3737373737373733 -3.8888888888888884,-2.474747474747474 -3.98989898989899,-2.5757575757575752 -4.090909090909091,-2.6767676767676765 -4.191919191919193,-2.7777777777777777 -4.292929292929293,-2.8787878787878785 -4.393939393939394,-2.9797979797979792 -4.494949494949496,-3.0808080808080804 -4.595959595959596,-3.1818181818181817 -4.696969696969697,-3.2828282828282824 -4.7979797979797985,-3.383838383838383 -4.898989898989899,-3.484848484848485 -5.000000000000001,-3.5858585858585856 -5.000000000000001,-3.6868686868686864 -5.000000000000001,-3.7878787878787876 -5.000000000000001,-3.8888888888888884 -5.000000000000001,-3.98989898989899 -5.000000000000001,-4.090909090909091 -5.000000000000001,-4.191919191919193 -5.000000000000001,-4.292929292929293 -5.000000000000001,-4.393939393939394 -5.000000000000001,-4.494949494949496 -5.000000000000001,-4.595959595959596 -5.000000000000001,-4.696969696969697 -5.000000000000001,-4.7979797979797985 -5.000000000000001,-4.898989898989899 -5.000000000000001,-5.000000000000001" data-type="line" data-label="" points="850.5050505050505,40.000000000000114 840.969696969697,49.53535353535369 831.4343434343433,59.07070707070733 821.8989898989898,68.60606060606085 812.3636363636363,78.14141414141432 802.8282828282828,87.67676767676778 793.2929292929292,97.21212121212153 783.7575757575758,106.747474747475 774.2222222222222,116.28282828282846 764.6868686868686,125.81818181818198 755.1515151515151,135.35353535353545 745.6161616161615,144.88888888888908 736.0808080808081,154.4242424242426 726.5454545454545,163.95959595959613 717.0101010101009,173.4949494949496 707.4747474747475,183.03030303030312 697.9393939393939,192.56565656565675 688.4040404040404,202.10101010101027 678.8686868686868,211.63636363636374 669.3333333333333,221.17171717171726 659.7979797979798,230.70707070707084 650.2626262626262,240.24242424242436 640.7272727272727,249.77777777777794 631.1919191919192,259.3131313131314 621.6565656565656,268.84848484848493 612.1212121212121,278.38383838383857 602.5858585858585,287.91919191919203 593.0505050505051,297.4545454545456 583.5151515151515,306.9898989898991 573.9797979797979,316.5252525252526 564.4444444444445,326.06060606060623 554.9090909090909,335.5959595959597 545.3737373737374,345.1313131313133 535.8383838383838,354.66666666666674 526.3030303030303,364.2020202020203 516.7676767676768,373.73737373737384 507.2323232323232,383.27272727272737 497.69696969696975,392.80808080808094 488.16161616161617,402.3434343434344 478.62626262626264,411.87878787878793 469.09090909090907,421.4141414141415 459.55555555555554,430.94949494949503 450.0202020202021,440.4848484848486 440.4848484848485,450.0202020202021 430.949494949495,459.5555555555556 421.4141414141414,469.0909090909092 411.8787878787879,478.6262626262627 402.34343434343435,488.1616161616163 392.80808080808083,497.69696969696975 383.2727272727273,507.23232323232327 373.7373737373738,516.7676767676768 364.2020202020202,526.3030303030304 354.6666666666667,535.838383838384 345.13131313131316,545.3737373737374 335.59595959595964,554.909090909091 326.0606060606061,564.4444444444445 316.5252525252526,573.979797979798 306.9898989898991,583.5151515151516 297.4545454545455,593.0505050505051 287.91919191919203,602.5858585858587 278.38383838383845,612.1212121212121 268.84848484848493,621.6565656565657 259.3131313131314,631.1919191919193 249.77777777777783,640.7272727272727 240.2424242424243,650.2626262626263 230.70707070707084,659.7979797979798 221.17171717171726,669.3333333333334 211.63636363636374,678.8686868686868 202.10101010101022,688.4040404040404 192.5656565656567,697.939393939394 183.03030303030312,707.4747474747475 173.4949494949496,717.010101010101 163.95959595959607,726.5454545454545 154.42424242424255,736.0808080808081 144.88888888888903,745.6161616161615 135.35353535353545,755.1515151515151 125.81818181818193,764.6868686868687 116.28282828282829,774.2222222222222 106.74747474747483,783.7575757575758 97.21212121212136,793.2929292929292 87.67676767676772,802.8282828282828 78.14141414141426,812.3636363636363 68.60606060606068,821.8989898989898 59.07070707070716,831.4343434343434 49.53535353535369,840.969696969697 40.00000000000006,850.5050505050505 40.00000000000006,860.0404040404039 40.00000000000006,869.5757575757575 40.00000000000006,879.1111111111111 40.00000000000006,888.6464646464647 40.00000000000006,898.1818181818181 40.00000000000006,907.7171717171718 40.00000000000006,917.2525252525252 40.00000000000006,926.7878787878788 40.00000000000006,936.3232323232323 40.00000000000006,945.8585858585858 40.00000000000006,955.3939393939394 40.00000000000006,964.9292929292928 40.00000000000006,974.4646464646464 40.00000000000006,984" fill="none" stroke="rgba(0,0,255,0.75)" stroke-width="14.159999999999995"/></g><g><polyline data-points="5.000000000000002,-1.4646464646464643 4.898989898989901,-1.5656565656565653 4.7979797979797985,-1.6666666666666665 4.696969696969697,-1.7676767676767675 4.595959595959597,-1.8686868686868683 4.494949494949497,-1.9696969696969693 4.393939393939394,-2.07070707070707 4.292929292929293,-2.1717171717171713 4.191919191919193,-2.2727272727272725 4.090909090909092,-2.3737373737373733 3.989898989898992,-2.474747474747474 3.8888888888888893,-2.5757575757575752 3.7878787878787885,-2.6767676767676765 3.6868686868686877,-2.7777777777777777 3.5858585858585874,-2.8787878787878785 3.4848484848484866,-2.9797979797979792 3.383838383838384,-3.0808080808080804 3.2828282828282833,-3.1818181818181817 3.181818181818183,-3.2828282828282824 3.080808080808082,-3.383838383838383 2.9797979797979806,-3.383838383838383 2.87878787878788,-3.383838383838383 2.7777777777777786,-3.383838383838383 2.676767676767678,-3.383838383838383 2.575757575757577,-3.383838383838383 2.4747474747474754,-3.383838383838383 2.373737373737375,-3.383838383838383 2.2727272727272734,-3.383838383838383 2.1717171717171726,-3.383838383838383 2.070707070707072,-3.383838383838383 1.9696969696969702,-3.383838383838383 1.8686868686868696,-3.383838383838383 1.767676767676768,-3.383838383838383 1.6666666666666674,-3.383838383838383 1.5656565656565666,-3.383838383838383 1.4646464646464652,-3.383838383838383 1.3636363636363644,-3.383838383838383 1.262626262626263,-3.383838383838383 1.1616161616161622,-3.383838383838383 1.0606060606060617,-3.383838383838383 0.9595959595959602,-3.383838383838383 0.8585858585858596,-3.383838383838383 0.7575757575757579,-3.383838383838383 0.6565656565656574,-3.383838383838383 0.5555555555555567,-3.383838383838383 0.4545454545454551,-3.383838383838383 0.3535353535353544,-3.383838383838383 0.2525252525252529,-3.383838383838383 0.1515151515151522,-3.383838383838383 0.050505050505051545,-3.383838383838383 -0.05050505050505001,-3.383838383838383 -0.15151515151515066,-3.383838383838383 -0.2525252525252522,-3.383838383838383 -0.35353535353535287,-3.383838383838383 -0.4545454545454544,-3.383838383838383 -0.555555555555555,-3.383838383838383 -0.6565656565656557,-3.383838383838383 -0.7575757575757572,-3.383838383838383 -0.8585858585858579,-3.383838383838383 -0.9595959595959596,-3.383838383838383 -1.0606060606060603,-3.383838383838383 -1.1616161616161613,-3.383838383838383 -1.2626262626262625,-3.383838383838383 -1.363636363636363,-3.383838383838383 -1.4646464646464643,-3.383838383838383" data-type="line" data-label="" points="984,650.2626262626263 974.4646464646464,659.7979797979798 964.9292929292927,669.3333333333334 955.3939393939393,678.8686868686868 945.8585858585857,688.4040404040404 936.3232323232323,697.939393939394 926.7878787878785,707.4747474747475 917.2525252525251,717.010101010101 907.7171717171716,726.5454545454545 898.181818181818,736.0808080808081 888.6464646464647,745.6161616161615 879.111111111111,755.1515151515151 869.5757575757575,764.6868686868687 860.0404040404039,774.2222222222222 850.5050505050505,783.7575757575758 840.969696969697,793.2929292929292 831.4343434343433,802.8282828282828 821.8989898989898,812.3636363636363 812.3636363636363,821.8989898989898 802.8282828282828,831.4343434343434 793.2929292929292,831.4343434343434 783.7575757575758,831.4343434343434 774.2222222222222,831.4343434343434 764.6868686868686,831.4343434343434 755.1515151515151,831.4343434343434 745.6161616161615,831.4343434343434 736.0808080808081,831.4343434343434 726.5454545454545,831.4343434343434 717.0101010101009,831.4343434343434 707.4747474747475,831.4343434343434 697.9393939393939,831.4343434343434 688.4040404040404,831.4343434343434 678.8686868686868,831.4343434343434 669.3333333333333,831.4343434343434 659.7979797979798,831.4343434343434 650.2626262626262,831.4343434343434 640.7272727272727,831.4343434343434 631.1919191919192,831.4343434343434 621.6565656565656,831.4343434343434 612.1212121212121,831.4343434343434 602.5858585858585,831.4343434343434 593.0505050505051,831.4343434343434 583.5151515151515,831.4343434343434 573.9797979797979,831.4343434343434 564.4444444444445,831.4343434343434 554.9090909090909,831.4343434343434 545.3737373737374,831.4343434343434 535.8383838383838,831.4343434343434 526.3030303030303,831.4343434343434 516.7676767676768,831.4343434343434 507.2323232323232,831.4343434343434 497.69696969696975,831.4343434343434 488.16161616161617,831.4343434343434 478.62626262626264,831.4343434343434 469.09090909090907,831.4343434343434 459.55555555555554,831.4343434343434 450.0202020202021,831.4343434343434 440.4848484848485,831.4343434343434 430.949494949495,831.4343434343434 421.4141414141414,831.4343434343434 411.8787878787879,831.4343434343434 402.34343434343435,831.4343434343434 392.80808080808083,831.4343434343434 383.2727272727273,831.4343434343434 373.7373737373738,831.4343434343434" fill="none" stroke="rgba(0,0,255,0.75)" stroke-width="14.159999999999995"/></g><g><polyline data-points="-1.4646464646464643,-3.383838383838383 -1.5656565656565653,-3.383838383838383 -1.6666666666666665,-3.383838383838383 -1.7676767676767675,-3.383838383838383 -1.8686868686868683,-3.383838383838383 -1.9696969696969693,-3.383838383838383 -2.07070707070707,-3.383838383838383 -2.1717171717171713,-3.383838383838383 -2.2727272727272725,-3.383838383838383 -2.3737373737373733,-3.383838383838383 -2.474747474747474,-3.383838383838383 -2.5757575757575752,-3.383838383838383 -2.6767676767676765,-3.383838383838383 -2.7777777777777777,-3.383838383838383 -2.8787878787878785,-3.383838383838383 -2.9797979797979792,-3.383838383838383 -3.0808080808080804,-3.383838383838383" data-type="line" data-label="" points="373.7373737373738,831.4343434343434 364.2020202020202,831.4343434343434 354.6666666666667,831.4343434343434 345.13131313131316,831.4343434343434 335.59595959595964,831.4343434343434 326.0606060606061,831.4343434343434 316.5252525252526,831.4343434343434 306.9898989898991,831.4343434343434 297.4545454545455,831.4343434343434 287.91919191919203,831.4343434343434 278.38383838383845,831.4343434343434 268.84848484848493,831.4343434343434 259.3131313131314,831.4343434343434 249.77777777777783,831.4343434343434 240.2424242424243,831.4343434343434 230.70707070707084,831.4343434343434 221.17171717171726,831.4343434343434" fill="none" stroke="rgba(255,0,0,0.75)" stroke-width="14.159999999999995"/></g><g><polyline data-points="-3.0808080808080804,-3.383838383838383 -3.1818181818181817,-3.484848484848485 -3.2828282828282824,-3.5858585858585856 -3.383838383838383,-3.6868686868686864 -3.484848484848485,-3.6868686868686864 -3.5858585858585856,-3.6868686868686864 -3.6868686868686864,-3.6868686868686864 -3.7878787878787876,-3.6868686868686864 -3.8888888888888884,-3.6868686868686864 -3.98989898989899,-3.6868686868686864" data-type="line" data-label="" points="221.17171717171726,831.4343434343434 211.63636363636374,840.969696969697 202.10101010101022,850.5050505050505 192.5656565656567,860.0404040404039 183.03030303030312,860.0404040404039 173.4949494949496,860.0404040404039 163.95959595959607,860.0404040404039 154.42424242424255,860.0404040404039 144.88888888888903,860.0404040404039 135.35353535353545,860.0404040404039" fill="none" stroke="rgba(0,0,255,0.75)" stroke-width="14.159999999999995"/></g><g><polyline data-points="-3.98989898989899,-3.6868686868686864 -4.090909090909091,-3.6868686868686864 -4.191919191919193,-3.6868686868686864 -4.292929292929293,-3.6868686868686864 -4.393939393939394,-3.6868686868686864 -4.494949494949496,-3.6868686868686864 -4.595959595959596,-3.6868686868686864 -4.696969696969697,-3.6868686868686864 -4.7979797979797985,-3.6868686868686864 -4.898989898989899,-3.6868686868686864 -5.000000000000001,-3.6868686868686864" data-type="line" data-label="" points="135.35353535353545,860.0404040404039 125.81818181818193,860.0404040404039 116.28282828282829,860.0404040404039 106.74747474747483,860.0404040404039 97.21212121212136,860.0404040404039 87.67676767676772,860.0404040404039 78.14141414141426,860.0404040404039 68.60606060606068,860.0404040404039 59.07070707070716,860.0404040404039 49.53535353535369,860.0404040404039 40.00000000000006,860.0404040404039" fill="none" stroke="rgba(255,0,0,0.75)" stroke-width="14.159999999999995"/></g><g><polyline data-points="-5.000000000000001,-0.05050505050505001 -4.898989898989899,0.050505050505051545 -4.7979797979797985,0.1515151515151522 -4.696969696969697,0.2525252525252529 -4.595959595959596,0.3535353535353544 -4.494949494949496,0.4545454545454551 -4.393939393939394,0.5555555555555567 -4.292929292929293,0.6565656565656574 -4.191919191919193,0.7575757575757579 -4.090909090909091,0.8585858585858596 -3.98989898989899,0.9595959595959602 -3.8888888888888884,1.0606060606060617 -3.7878787878787876,1.1616161616161622 -3.6868686868686864,1.262626262626263 -3.5858585858585856,1.3636363636363644 -3.484848484848485,1.4646464646464652 -3.383838383838383,1.5656565656565666 -3.2828282828282824,1.6666666666666674 -3.1818181818181817,1.767676767676768 -3.0808080808080804,1.8686868686868696 -2.9797979797979792,1.9696969696969702 -2.8787878787878785,2.070707070707072 -2.7777777777777777,2.1717171717171726 -2.6767676767676765,2.2727272727272734 -2.5757575757575752,2.373737373737375 -2.474747474747474,2.4747474747474754 -2.3737373737373733,2.575757575757577 -2.2727272727272725,2.676767676767678 -2.1717171717171713,2.7777777777777786 -2.07070707070707,2.7777777777777786 -1.9696969696969693,2.7777777777777786 -1.8686868686868683,2.7777777777777786 -1.7676767676767675,2.7777777777777786 -1.6666666666666665,2.7777777777777786 -1.5656565656565653,2.7777777777777786 -1.4646464646464643,2.7777777777777786 -1.363636363636363,2.7777777777777786 -1.2626262626262625,2.7777777777777786 -1.1616161616161613,2.7777777777777786 -1.0606060606060603,2.7777777777777786 -0.9595959595959596,2.7777777777777786 -0.8585858585858579,2.7777777777777786 -0.7575757575757572,2.7777777777777786 -0.6565656565656557,2.7777777777777786 -0.555555555555555,2.7777777777777786 -0.4545454545454544,2.7777777777777786 -0.35353535353535287,2.7777777777777786 -0.2525252525252522,2.7777777777777786 -0.15151515151515066,2.7777777777777786 -0.05050505050505001,2.7777777777777786 0.050505050505051545,2.7777777777777786 0.1515151515151522,2.7777777777777786 0.2525252525252529,2.7777777777777786 0.3535353535353544,2.7777777777777786 0.4545454545454551,2.7777777777777786 0.5555555555555567,2.7777777777777786" data-type="line" data-label="" points="40.00000000000006,516.7676767676768 49.53535353535369,507.23232323232327 59.07070707070716,497.69696969696975 68.60606060606068,488.1616161616163 78.14141414141426,478.6262626262627 87.67676767676772,469.0909090909092 97.21212121212136,459.5555555555556 106.74747474747483,450.0202020202021 116.28282828282829,440.4848484848486 125.81818181818193,430.94949494949503 135.35353535353545,421.4141414141415 144.88888888888903,411.87878787878793 154.42424242424255,402.3434343434344 163.95959595959607,392.80808080808094 173.4949494949496,383.27272727272737 183.03030303030312,373.73737373737384 192.5656565656567,364.2020202020203 202.10101010101022,354.66666666666674 211.63636363636374,345.1313131313133 221.17171717171726,335.5959595959597 230.70707070707084,326.06060606060623 240.2424242424243,316.5252525252526 249.77777777777783,306.9898989898991 259.3131313131314,297.4545454545456 268.84848484848493,287.91919191919203 278.38383838383845,278.38383838383857 287.91919191919203,268.84848484848493 297.4545454545455,259.3131313131314 306.9898989898991,249.77777777777794 316.5252525252526,249.77777777777794 326.0606060606061,249.77777777777794 335.59595959595964,249.77777777777794 345.13131313131316,249.77777777777794 354.6666666666667,249.77777777777794 364.2020202020202,249.77777777777794 373.7373737373738,249.77777777777794 383.2727272727273,249.77777777777794 392.80808080808083,249.77777777777794 402.34343434343435,249.77777777777794 411.8787878787879,249.77777777777794 421.4141414141414,249.77777777777794 430.949494949495,249.77777777777794 440.4848484848485,249.77777777777794 450.0202020202021,249.77777777777794 459.55555555555554,249.77777777777794 469.09090909090907,249.77777777777794 478.62626262626264,249.77777777777794 488.16161616161617,249.77777777777794 497.69696969696975,249.77777777777794 507.2323232323232,249.77777777777794 516.7676767676768,249.77777777777794 526.3030303030303,249.77777777777794 535.8383838383838,249.77777777777794 545.3737373737374,249.77777777777794 554.9090909090909,249.77777777777794 564.4444444444445,249.77777777777794" fill="none" stroke="rgba(0,0,255,0.75)" stroke-width="14.159999999999995"/></g><g><polyline data-points="0.5555555555555567,2.7777777777777786 0.6565656565656574,2.7777777777777786 0.7575757575757579,2.7777777777777786 0.8585858585858596,2.7777777777777786 0.9595959595959602,2.7777777777777786 1.0606060606060617,2.7777777777777786 1.1616161616161622,2.7777777777777786 1.262626262626263,2.7777777777777786 1.3636363636363644,2.7777777777777786 1.4646464646464652,2.7777777777777786 1.5656565656565666,2.7777777777777786 1.6666666666666674,2.7777777777777786 1.767676767676768,2.7777777777777786 1.8686868686868696,2.7777777777777786 1.9696969696969702,2.7777777777777786 2.070707070707072,2.7777777777777786 2.1717171717171726,2.7777777777777786 2.2727272727272734,2.7777777777777786 2.373737373737375,2.7777777777777786 2.4747474747474754,2.7777777777777786 2.575757575757577,2.7777777777777786 2.676767676767678,2.7777777777777786 2.7777777777777786,2.7777777777777786 2.87878787878788,2.7777777777777786 2.9797979797979806,2.7777777777777786 3.080808080808082,2.7777777777777786 3.181818181818183,2.7777777777777786" data-type="line" data-label="" points="564.4444444444445,249.77777777777794 573.9797979797979,249.77777777777794 583.5151515151515,249.77777777777794 593.0505050505051,249.77777777777794 602.5858585858585,249.77777777777794 612.1212121212121,249.77777777777794 621.6565656565656,249.77777777777794 631.1919191919192,249.77777777777794 640.7272727272727,249.77777777777794 650.2626262626262,249.77777777777794 659.7979797979798,249.77777777777794 669.3333333333333,249.77777777777794 678.8686868686868,249.77777777777794 688.4040404040404,249.77777777777794 697.9393939393939,249.77777777777794 707.4747474747475,249.77777777777794 717.0101010101009,249.77777777777794 726.5454545454545,249.77777777777794 736.0808080808081,249.77777777777794 745.6161616161615,249.77777777777794 755.1515151515151,249.77777777777794 764.6868686868686,249.77777777777794 774.2222222222222,249.77777777777794 783.7575757575758,249.77777777777794 793.2929292929292,249.77777777777794 802.8282828282828,249.77777777777794 812.3636363636363,249.77777777777794" fill="none" stroke="rgba(255,0,0,0.75)" stroke-width="14.159999999999995"/></g><g><polyline data-points="3.181818181818183,2.7777777777777786 3.2828282828282833,2.87878787878788 3.383838383838384,2.9797979797979806 3.4848484848484866,3.080808080808082 3.5858585858585874,3.181818181818183 3.6868686868686877,3.2828282828282833 3.7878787878787885,3.383838383838384 3.8888888888888893,3.4848484848484866 3.989898989898992,3.5858585858585874 3.989898989898992,3.6868686868686877" data-type="line" data-label="" points="812.3636363636363,249.77777777777794 821.8989898989898,240.24242424242436 831.4343434343433,230.70707070707084 840.969696969697,221.17171717171726 850.5050505050505,211.63636363636374 860.0404040404039,202.10101010101027 869.5757575757575,192.56565656565675 879.111111111111,183.03030303030312 888.6464646464647,173.4949494949496 888.6464646464647,163.95959595959613" fill="none" stroke="rgba(0,0,255,0.75)" stroke-width="14.159999999999995"/></g><g><polyline data-points="3.989898989898992,3.6868686868686877 4.090909090909092,3.7878787878787885 4.191919191919193,3.8888888888888893 4.292929292929293,3.989898989898992 4.393939393939394,4.090909090909092 4.494949494949497,4.191919191919193 4.595959595959597,4.292929292929293 4.696969696969697,4.393939393939394 4.7979797979797985,4.494949494949497 4.898989898989901,4.595959595959597 5.000000000000002,4.696969696969697 5.000000000000002,4.7979797979797985 5.000000000000002,4.898989898989901" data-type="line" data-label="" points="888.6464646464647,163.95959595959613 898.181818181818,154.4242424242426 907.7171717171716,144.88888888888908 917.2525252525251,135.35353535353545 926.7878787878785,125.81818181818198 936.3232323232323,116.28282828282846 945.8585858585857,106.747474747475 955.3939393939393,97.21212121212153 964.9292929292927,87.67676767676778 974.4646464646464,78.14141414141432 984,68.60606060606085 984,59.07070707070733 984,49.53535353535369" fill="none" stroke="rgba(255,0,0,0.75)" stroke-width="14.159999999999995"/></g><g><polyline data-points="-2.3737373737373733,-5.000000000000001 -2.474747474747474,-5.000000000000001 -2.5757575757575752,-4.898989898989899 -2.6767676767676765,-4.7979797979797985 -2.7777777777777777,-4.696969696969697 -2.8787878787878785,-4.595959595959596 -2.9797979797979792,-4.494949494949496 -3.0808080808080804,-4.393939393939394 -3.1818181818181817,-4.393939393939394 -3.2828282828282824,-4.292929292929293 -3.383838383838383,-4.191919191919193 -3.484848484848485,-4.090909090909091 -3.5858585858585856,-3.98989898989899 -3.5858585858585856,-3.8888888888888884 -3.484848484848485,-3.7878787878787876 -3.484848484848485,-3.6868686868686864 -3.5858585858585856,-3.5858585858585856 -3.5858585858585856,-3.484848484848485 -3.6868686868686864,-3.383838383838383 -3.7878787878787876,-3.2828282828282824 -3.8888888888888884,-3.1818181818181817 -3.98989898989899,-3.0808080808080804 -4.090909090909091,-2.9797979797979792 -4.191919191919193,-2.8787878787878785 -4.292929292929293,-2.7777777777777777 -4.393939393939394,-2.6767676767676765 -4.494949494949496,-2.5757575757575752 -4.595959595959596,-2.474747474747474 -4.696969696969697,-2.3737373737373733 -4.7979797979797985,-2.2727272727272725 -4.898989898989899,-2.1717171717171713 -4.898989898989899,-2.07070707070707 -4.898989898989899,-1.9696969696969693 -4.898989898989899,-1.8686868686868683 -4.898989898989899,-1.7676767676767675 -4.898989898989899,-1.6666666666666665 -4.898989898989899,-1.5656565656565653 -4.898989898989899,-1.4646464646464643 -4.898989898989899,-1.363636363636363 -4.898989898989899,-1.2626262626262625 -4.898989898989899,-1.1616161616161613 -4.898989898989899,-1.0606060606060603 -4.898989898989899,-0.9595959595959596 -4.898989898989899,-0.8585858585858579 -4.898989898989899,-0.7575757575757572 -4.898989898989899,-0.6565656565656557 -4.898989898989899,-0.555555555555555 -4.898989898989899,-0.4545454545454544 -4.898989898989899,-0.35353535353535287 -4.898989898989899,-0.2525252525252522 -4.898989898989899,-0.15151515151515066 -4.898989898989899,-0.05050505050505001 -4.898989898989899,0.050505050505051545 -4.898989898989899,0.1515151515151522 -4.898989898989899,0.2525252525252529 -4.898989898989899,0.3535353535353544 -4.898989898989899,0.4545454545454551 -4.898989898989899,0.5555555555555567 -4.898989898989899,0.6565656565656574 -4.898989898989899,0.7575757575757579 -4.898989898989899,0.8585858585858596 -4.898989898989899,0.9595959595959602 -4.898989898989899,1.0606060606060617 -4.898989898989899,1.1616161616161622 -4.898989898989899,1.262626262626263 -4.898989898989899,1.3636363636363644 -4.898989898989899,1.4646464646464652 -4.898989898989899,1.5656565656565666 -4.898989898989899,1.6666666666666674 -4.898989898989899,1.767676767676768 -4.898989898989899,1.8686868686868696 -4.898989898989899,1.9696969696969702 -4.898989898989899,2.070707070707072 -4.898989898989899,2.1717171717171726 -4.898989898989899,2.2727272727272734 -4.898989898989899,2.373737373737375 -4.898989898989899,2.4747474747474754 -4.898989898989899,2.575757575757577 -4.898989898989899,2.676767676767678 -4.898989898989899,2.7777777777777786 -4.898989898989899,2.87878787878788 -4.898989898989899,2.9797979797979806 -4.898989898989899,3.080808080808082 -4.898989898989899,3.181818181818183 -4.898989898989899,3.2828282828282833 -4.898989898989899,3.383838383838384 -4.898989898989899,3.4848484848484866 -4.898989898989899,3.5858585858585874 -4.898989898989899,3.6868686868686877 -4.898989898989899,3.7878787878787885 -4.898989898989899,3.8888888888888893 -4.898989898989899,3.989898989898992 -4.898989898989899,4.090909090909092 -4.898989898989899,4.191919191919193 -4.898989898989899,4.292929292929293 -4.898989898989899,4.393939393939394 -4.898989898989899,4.494949494949497 -4.898989898989899,4.595959595959597 -4.898989898989899,4.696969696969697 -4.898989898989899,4.7979797979797985 -4.898989898989899,4.898989898989901 -5.000000000000001,5.000000000000002" data-type="line" data-label="" points="287.91919191919203,984 278.38383838383845,984 268.84848484848493,974.4646464646464 259.3131313131314,964.9292929292928 249.77777777777783,955.3939393939394 240.2424242424243,945.8585858585858 230.70707070707084,936.3232323232323 221.17171717171726,926.7878787878788 211.63636363636374,926.7878787878788 202.10101010101022,917.2525252525252 192.5656565656567,907.7171717171718 183.03030303030312,898.1818181818181 173.4949494949496,888.6464646464647 173.4949494949496,879.1111111111111 183.03030303030312,869.5757575757575 183.03030303030312,860.0404040404039 173.4949494949496,850.5050505050505 173.4949494949496,840.969696969697 163.95959595959607,831.4343434343434 154.42424242424255,821.8989898989898 144.88888888888903,812.3636363636363 135.35353535353545,802.8282828282828 125.81818181818193,793.2929292929292 116.28282828282829,783.7575757575758 106.74747474747483,774.2222222222222 97.21212121212136,764.6868686868687 87.67676767676772,755.1515151515151 78.14141414141426,745.6161616161615 68.60606060606068,736.0808080808081 59.07070707070716,726.5454545454545 49.53535353535369,717.010101010101 49.53535353535369,707.4747474747475 49.53535353535369,697.939393939394 49.53535353535369,688.4040404040404 49.53535353535369,678.8686868686868 49.53535353535369,669.3333333333334 49.53535353535369,659.7979797979798 49.53535353535369,650.2626262626263 49.53535353535369,640.7272727272727 49.53535353535369,631.1919191919193 49.53535353535369,621.6565656565657 49.53535353535369,612.1212121212121 49.53535353535369,602.5858585858587 49.53535353535369,593.0505050505051 49.53535353535369,583.5151515151516 49.53535353535369,573.979797979798 49.53535353535369,564.4444444444445 49.53535353535369,554.909090909091 49.53535353535369,545.3737373737374 49.53535353535369,535.838383838384 49.53535353535369,526.3030303030304 49.53535353535369,516.7676767676768 49.53535353535369,507.23232323232327 49.53535353535369,497.69696969696975 49.53535353535369,488.1616161616163 49.53535353535369,478.6262626262627 49.53535353535369,469.0909090909092 49.53535353535369,459.5555555555556 49.53535353535369,450.0202020202021 49.53535353535369,440.4848484848486 49.53535353535369,430.94949494949503 49.53535353535369,421.4141414141415 49.53535353535369,411.87878787878793 49.53535353535369,402.3434343434344 49.53535353535369,392.80808080808094 49.53535353535369,383.27272727272737 49.53535353535369,373.73737373737384 49.53535353535369,364.2020202020203 49.53535353535369,354.66666666666674 49.53535353535369,345.1313131313133 49.53535353535369,335.5959595959597 49.53535353535369,326.06060606060623 49.53535353535369,316.5252525252526 49.53535353535369,306.9898989898991 49.53535353535369,297.4545454545456 49.53535353535369,287.91919191919203 49.53535353535369,278.38383838383857 49.53535353535369,268.84848484848493 49.53535353535369,259.3131313131314 49.53535353535369,249.77777777777794 49.53535353535369,240.24242424242436 49.53535353535369,230.70707070707084 49.53535353535369,221.17171717171726 49.53535353535369,211.63636363636374 49.53535353535369,202.10101010101027 49.53535353535369,192.56565656565675 49.53535353535369,183.03030303030312 49.53535353535369,173.4949494949496 49.53535353535369,163.95959595959613 49.53535353535369,154.4242424242426 49.53535353535369,144.88888888888908 49.53535353535369,135.35353535353545 49.53535353535369,125.81818181818198 49.53535353535369,116.28282828282846 49.53535353535369,106.747474747475 49.53535353535369,97.21212121212153 49.53535353535369,87.67676767676778 49.53535353535369,78.14141414141432 49.53535353535369,68.60606060606085 49.53535353535369,59.07070707070733 49.53535353535369,49.53535353535369 40.00000000000006,40.000000000000114" fill="none" stroke="rgba(255,0,0,0.75)" stroke-width="14.159999999999995"/></g><g><polyline data-points="-3.8888888888888884,-5.000000000000001 -3.7878787878787876,-5.000000000000001 -3.6868686868686864,-4.898989898989899 -3.5858585858585856,-4.7979797979797985 -3.484848484848485,-4.696969696969697 -3.383838383838383,-4.595959595959596 -3.2828282828282824,-4.494949494949496 -3.1818181818181817,-4.393939393939394 -3.0808080808080804,-4.393939393939394 -2.9797979797979792,-4.292929292929293 -2.8787878787878785,-4.191919191919193 -2.7777777777777777,-4.090909090909091 -2.6767676767676765,-3.98989898989899 -2.5757575757575752,-3.8888888888888884 -2.474747474747474,-3.7878787878787876 -2.3737373737373733,-3.6868686868686864 -2.2727272727272725,-3.5858585858585856 -2.1717171717171713,-3.484848484848485 -2.07070707070707,-3.383838383838383 -1.9696969696969693,-3.2828282828282824 -1.8686868686868683,-3.1818181818181817 -1.7676767676767675,-3.0808080808080804 -1.6666666666666665,-2.9797979797979792 -1.5656565656565653,-2.8787878787878785 -1.4646464646464643,-2.7777777777777777 -1.363636363636363,-2.6767676767676765 -1.2626262626262625,-2.5757575757575752 -1.1616161616161613,-2.474747474747474 -1.0606060606060603,-2.3737373737373733 -0.9595959595959596,-2.2727272727272725 -0.8585858585858579,-2.1717171717171713 -0.7575757575757572,-2.07070707070707 -0.6565656565656557,-1.9696969696969693 -0.555555555555555,-1.8686868686868683 -0.4545454545454544,-1.7676767676767675 -0.35353535353535287,-1.6666666666666665 -0.2525252525252522,-1.5656565656565653 -0.15151515151515066,-1.4646464646464643 -0.05050505050505001,-1.363636363636363 0.050505050505051545,-1.2626262626262625 0.1515151515151522,-1.1616161616161613 0.2525252525252529,-1.0606060606060603 0.3535353535353544,-0.9595959595959596 0.4545454545454551,-0.8585858585858579 0.5555555555555567,-0.7575757575757572 0.6565656565656574,-0.6565656565656557 0.7575757575757579,-0.555555555555555 0.8585858585858596,-0.4545454545454544 0.9595959595959602,-0.35353535353535287 1.0606060606060617,-0.2525252525252522 1.1616161616161622,-0.15151515151515066 1.262626262626263,-0.05050505050505001 1.3636363636363644,0.050505050505051545 1.4646464646464652,0.1515151515151522 1.5656565656565666,0.2525252525252529 1.6666666666666674,0.3535353535353544 1.767676767676768,0.4545454545454551 1.8686868686868696,0.5555555555555567 1.9696969696969702,0.6565656565656574 2.070707070707072,0.7575757575757579 2.1717171717171726,0.8585858585858596 2.2727272727272734,0.9595959595959602 2.373737373737375,1.0606060606060617 2.373737373737375,1.1616161616161622 2.2727272727272734,1.262626262626263 2.2727272727272734,1.3636363636363644 2.2727272727272734,1.4646464646464652 2.2727272727272734,1.5656565656565666 2.2727272727272734,1.6666666666666674 2.2727272727272734,1.767676767676768 2.2727272727272734,1.8686868686868696 2.2727272727272734,1.9696969696969702 2.2727272727272734,2.070707070707072 2.2727272727272734,2.1717171717171726 2.2727272727272734,2.2727272727272734 2.2727272727272734,2.373737373737375 2.2727272727272734,2.4747474747474754 2.2727272727272734,2.575757575757577 2.2727272727272734,2.676767676767678 2.2727272727272734,2.7777777777777786 2.373737373737375,2.87878787878788 2.373737373737375,2.9797979797979806 2.4747474747474754,3.080808080808082 2.575757575757577,3.181818181818183 2.676767676767678,3.2828282828282833 2.7777777777777786,3.383838383838384 2.87878787878788,3.4848484848484866 2.9797979797979806,3.5858585858585874 3.080808080808082,3.6868686868686877 3.181818181818183,3.7878787878787885" data-type="line" data-label="" points="144.88888888888903,984 154.42424242424255,984 163.95959595959607,974.4646464646464 173.4949494949496,964.9292929292928 183.03030303030312,955.3939393939394 192.5656565656567,945.8585858585858 202.10101010101022,936.3232323232323 211.63636363636374,926.7878787878788 221.17171717171726,926.7878787878788 230.70707070707084,917.2525252525252 240.2424242424243,907.7171717171718 249.77777777777783,898.1818181818181 259.3131313131314,888.6464646464647 268.84848484848493,879.1111111111111 278.38383838383845,869.5757575757575 287.91919191919203,860.0404040404039 297.4545454545455,850.5050505050505 306.9898989898991,840.969696969697 316.5252525252526,831.4343434343434 326.0606060606061,821.8989898989898 335.59595959595964,812.3636363636363 345.13131313131316,802.8282828282828 354.6666666666667,793.2929292929292 364.2020202020202,783.7575757575758 373.7373737373738,774.2222222222222 383.2727272727273,764.6868686868687 392.80808080808083,755.1515151515151 402.34343434343435,745.6161616161615 411.8787878787879,736.0808080808081 421.4141414141414,726.5454545454545 430.949494949495,717.010101010101 440.4848484848485,707.4747474747475 450.0202020202021,697.939393939394 459.55555555555554,688.4040404040404 469.09090909090907,678.8686868686868 478.62626262626264,669.3333333333334 488.16161616161617,659.7979797979798 497.69696969696975,650.2626262626263 507.2323232323232,640.7272727272727 516.7676767676768,631.1919191919193 526.3030303030303,621.6565656565657 535.8383838383838,612.1212121212121 545.3737373737374,602.5858585858587 554.9090909090909,593.0505050505051 564.4444444444445,583.5151515151516 573.9797979797979,573.979797979798 583.5151515151515,564.4444444444445 593.0505050505051,554.909090909091 602.5858585858585,545.3737373737374 612.1212121212121,535.838383838384 621.6565656565656,526.3030303030304 631.1919191919192,516.7676767676768 640.7272727272727,507.23232323232327 650.2626262626262,497.69696969696975 659.7979797979798,488.1616161616163 669.3333333333333,478.6262626262627 678.8686868686868,469.0909090909092 688.4040404040404,459.5555555555556 697.9393939393939,450.0202020202021 707.4747474747475,440.4848484848486 717.0101010101009,430.94949494949503 726.5454545454545,421.4141414141415 736.0808080808081,411.87878787878793 736.0808080808081,402.3434343434344 726.5454545454545,392.80808080808094 726.5454545454545,383.27272727272737 726.5454545454545,373.73737373737384 726.5454545454545,364.2020202020203 726.5454545454545,354.66666666666674 726.5454545454545,345.1313131313133 726.5454545454545,335.5959595959597 726.5454545454545,326.06060606060623 726.5454545454545,316.5252525252526 726.5454545454545,306.9898989898991 726.5454545454545,297.4545454545456 726.5454545454545,287.91919191919203 726.5454545454545,278.38383838383857 726.5454545454545,268.84848484848493 726.5454545454545,259.3131313131314 726.5454545454545,249.77777777777794 736.0808080808081,240.24242424242436 736.0808080808081,230.70707070707084 745.6161616161615,221.17171717171726 755.1515151515151,211.63636363636374 764.6868686868686,202.10101010101027 774.2222222222222,192.56565656565675 783.7575757575758,183.03030303030312 793.2929292929292,173.4949494949496 802.8282828282828,163.95959595959613 812.3636363636363,154.4242424242426" fill="none" stroke="rgba(0,0,255,0.75)" stroke-width="14.159999999999995"/></g><g><polyline data-points="3.181818181818183,3.7878787878787885 3.181818181818183,3.8888888888888893 3.080808080808082,3.989898989898992 2.9797979797979806,4.090909090909092 2.87878787878788,4.191919191919193 2.7777777777777786,4.292929292929293 2.676767676767678,4.393939393939394 2.575757575757577,4.494949494949497 2.4747474747474754,4.595959595959597 2.373737373737375,4.696969696969697 2.373737373737375,4.7979797979797985 2.373737373737375,4.898989898989901 2.373737373737375,5.000000000000002" data-type="line" data-label="" points="812.3636363636363,154.4242424242426 812.3636363636363,144.88888888888908 802.8282828282828,135.35353535353545 793.2929292929292,125.81818181818198 783.7575757575758,116.28282828282846 774.2222222222222,106.747474747475 764.6868686868686,97.21212121212153 755.1515151515151,87.67676767676778 745.6161616161615,78.14141414141432 736.0808080808081,68.60606060606085 736.0808080808081,59.07070707070733 736.0808080808081,49.53535353535369 736.0808080808081,40.000000000000114" fill="none" stroke="rgba(255,0,0,0.75)" stroke-width="14.159999999999995"/></g><g><polyline data-points="5.000000000000002,1.767676767676768 4.898989898989901,1.767676767676768 4.7979797979797985,1.8686868686868696 4.696969696969697,1.9696969696969702 4.595959595959597,2.070707070707072 4.494949494949497,2.1717171717171726 4.393939393939394,2.2727272727272734 4.292929292929293,2.373737373737375 4.191919191919193,2.4747474747474754 4.090909090909092,2.575757575757577 3.989898989898992,2.676767676767678 3.8888888888888893,2.7777777777777786 3.7878787878787885,2.87878787878788 3.6868686868686877,2.9797979797979806 3.5858585858585874,3.080808080808082 3.4848484848484866,3.181818181818183 3.383838383838384,3.2828282828282833 3.2828282828282833,3.2828282828282833 3.181818181818183,3.2828282828282833 3.080808080808082,3.2828282828282833 2.9797979797979806,3.2828282828282833 2.87878787878788,3.383838383838384 2.7777777777777786,3.4848484848484866 2.676767676767678,3.5858585858585874 2.575757575757577,3.6868686868686877 2.4747474747474754,3.7878787878787885 2.373737373737375,3.7878787878787885 2.2727272727272734,3.7878787878787885 2.1717171717171726,3.7878787878787885 2.070707070707072,3.7878787878787885 1.9696969696969702,3.7878787878787885 1.8686868686868696,3.7878787878787885 1.767676767676768,3.7878787878787885 1.6666666666666674,3.7878787878787885 1.5656565656565666,3.7878787878787885 1.4646464646464652,3.7878787878787885 1.3636363636363644,3.7878787878787885 1.262626262626263,3.7878787878787885 1.1616161616161622,3.7878787878787885 1.0606060606060617,3.7878787878787885 0.9595959595959602,3.7878787878787885 0.8585858585858596,3.7878787878787885 0.7575757575757579,3.7878787878787885 0.6565656565656574,3.7878787878787885 0.5555555555555567,3.7878787878787885 0.4545454545454551,3.7878787878787885 0.3535353535353544,3.7878787878787885 0.2525252525252529,3.7878787878787885 0.1515151515151522,3.7878787878787885 0.050505050505051545,3.7878787878787885 -0.05050505050505001,3.7878787878787885 -0.15151515151515066,3.7878787878787885 -0.2525252525252522,3.7878787878787885 -0.35353535353535287,3.7878787878787885 -0.4545454545454544,3.7878787878787885 -0.555555555555555,3.7878787878787885 -0.6565656565656557,3.7878787878787885 -0.7575757575757572,3.7878787878787885 -0.8585858585858579,3.7878787878787885 -0.9595959595959596,3.7878787878787885 -1.0606060606060603,3.7878787878787885 -1.1616161616161613,3.7878787878787885 -1.2626262626262625,3.7878787878787885 -1.363636363636363,3.7878787878787885 -1.4646464646464643,3.7878787878787885 -1.5656565656565653,3.7878787878787885 -1.6666666666666665,3.7878787878787885 -1.7676767676767675,3.7878787878787885 -1.8686868686868683,3.7878787878787885 -1.9696969696969693,3.7878787878787885 -2.07070707070707,3.7878787878787885 -2.1717171717171713,3.7878787878787885 -2.2727272727272725,3.7878787878787885 -2.3737373737373733,3.7878787878787885 -2.474747474747474,3.7878787878787885 -2.5757575757575752,3.7878787878787885 -2.6767676767676765,3.7878787878787885 -2.7777777777777777,3.7878787878787885 -2.8787878787878785,3.7878787878787885 -2.9797979797979792,3.7878787878787885 -3.0808080808080804,3.7878787878787885 -3.1818181818181817,3.7878787878787885 -3.2828282828282824,3.7878787878787885 -3.383838383838383,3.7878787878787885 -3.484848484848485,3.7878787878787885 -3.5858585858585856,3.7878787878787885 -3.6868686868686864,3.7878787878787885 -3.7878787878787876,3.7878787878787885 -3.8888888888888884,3.7878787878787885" data-type="line" data-label="" points="984,345.1313131313133 974.4646464646464,345.1313131313133 964.9292929292927,335.5959595959597 955.3939393939393,326.06060606060623 945.8585858585857,316.5252525252526 936.3232323232323,306.9898989898991 926.7878787878785,297.4545454545456 917.2525252525251,287.91919191919203 907.7171717171716,278.38383838383857 898.181818181818,268.84848484848493 888.6464646464647,259.3131313131314 879.111111111111,249.77777777777794 869.5757575757575,240.24242424242436 860.0404040404039,230.70707070707084 850.5050505050505,221.17171717171726 840.969696969697,211.63636363636374 831.4343434343433,202.10101010101027 821.8989898989898,202.10101010101027 812.3636363636363,202.10101010101027 802.8282828282828,202.10101010101027 793.2929292929292,202.10101010101027 783.7575757575758,192.56565656565675 774.2222222222222,183.03030303030312 764.6868686868686,173.4949494949496 755.1515151515151,163.95959595959613 745.6161616161615,154.4242424242426 736.0808080808081,154.4242424242426 726.5454545454545,154.4242424242426 717.0101010101009,154.4242424242426 707.4747474747475,154.4242424242426 697.9393939393939,154.4242424242426 688.4040404040404,154.4242424242426 678.8686868686868,154.4242424242426 669.3333333333333,154.4242424242426 659.7979797979798,154.4242424242426 650.2626262626262,154.4242424242426 640.7272727272727,154.4242424242426 631.1919191919192,154.4242424242426 621.6565656565656,154.4242424242426 612.1212121212121,154.4242424242426 602.5858585858585,154.4242424242426 593.0505050505051,154.4242424242426 583.5151515151515,154.4242424242426 573.9797979797979,154.4242424242426 564.4444444444445,154.4242424242426 554.9090909090909,154.4242424242426 545.3737373737374,154.4242424242426 535.8383838383838,154.4242424242426 526.3030303030303,154.4242424242426 516.7676767676768,154.4242424242426 507.2323232323232,154.4242424242426 497.69696969696975,154.4242424242426 488.16161616161617,154.4242424242426 478.62626262626264,154.4242424242426 469.09090909090907,154.4242424242426 459.55555555555554,154.4242424242426 450.0202020202021,154.4242424242426 440.4848484848485,154.4242424242426 430.949494949495,154.4242424242426 421.4141414141414,154.4242424242426 411.8787878787879,154.4242424242426 402.34343434343435,154.4242424242426 392.80808080808083,154.4242424242426 383.2727272727273,154.4242424242426 373.7373737373738,154.4242424242426 364.2020202020202,154.4242424242426 354.6666666666667,154.4242424242426 345.13131313131316,154.4242424242426 335.59595959595964,154.4242424242426 326.0606060606061,154.4242424242426 316.5252525252526,154.4242424242426 306.9898989898991,154.4242424242426 297.4545454545455,154.4242424242426 287.91919191919203,154.4242424242426 278.38383838383845,154.4242424242426 268.84848484848493,154.4242424242426 259.3131313131314,154.4242424242426 249.77777777777783,154.4242424242426 240.2424242424243,154.4242424242426 230.70707070707084,154.4242424242426 221.17171717171726,154.4242424242426 211.63636363636374,154.4242424242426 202.10101010101022,154.4242424242426 192.5656565656567,154.4242424242426 183.03030303030312,154.4242424242426 173.4949494949496,154.4242424242426 163.95959595959607,154.4242424242426 154.42424242424255,154.4242424242426 144.88888888888903,154.4242424242426" fill="none" stroke="rgba(255,0,0,0.75)" stroke-width="14.159999999999995"/></g><g><polyline data-points="-3.8888888888888884,3.7878787878787885 -3.98989898989899,3.7878787878787885 -4.090909090909091,3.7878787878787885 -4.191919191919193,3.7878787878787885 -4.292929292929293,3.7878787878787885 -4.393939393939394,3.7878787878787885 -4.494949494949496,3.7878787878787885 -4.595959595959596,3.7878787878787885 -4.696969696969697,3.7878787878787885 -4.7979797979797985,3.7878787878787885 -4.898989898989899,3.7878787878787885 -5.000000000000001,3.8888888888888893" data-type="line" data-label="" points="144.88888888888903,154.4242424242426 135.35353535353545,154.4242424242426 125.81818181818193,154.4242424242426 116.28282828282829,154.4242424242426 106.74747474747483,154.4242424242426 97.21212121212136,154.4242424242426 87.67676767676772,154.4242424242426 78.14141414141426,154.4242424242426 68.60606060606068,154.4242424242426 59.07070707070716,154.4242424242426 49.53535353535369,154.4242424242426 40.00000000000006,144.88888888888908" fill="none" stroke="rgba(0,0,255,0.75)" stroke-width="14.159999999999995"/></g><g><rect data-type="rect" data-label="" data-x="0" data-y="0" x="40.000000000000114" y="40.000000000000284" width="943.9999999999997" height="943.9999999999998" fill="none" stroke="gray" stroke-width="0.010593220338983056"/></g><g><rect data-type="rect" data-label="" data-x="0" data-y="0" x="40.000000000000114" y="40.000000000000284" width="943.9999999999997" height="943.9999999999998" fill="none" stroke="rgba(15, 23, 42, 0.8)" stroke-width="0.010593220338983056"/></g><circle data-type="circle" data-label="" data-x="-3.98989898989899" data-y="-0.8585858585858579" cx="135.35353535353545" cy="593.0505050505051" r="28.791999999999987" fill="rgba(0,0,0,0.3)" stroke="black" stroke-width="0.010593220338983056"/><circle data-type="circle" data-label="" data-x="0.3535353535353544" data-y="-3.98989898989899" cx="545.3737373737374" cy="888.6464646464647" r="28.791999999999987" fill="rgba(0,0,0,0.3)" stroke="black" stroke-width="0.010593220338983056"/><circle data-type="circle" data-label="" data-x="-1.4646464646464643" data-y="-3.383838383838383" cx="373.7373737373738" cy="831.4343434343434" r="28.791999999999987" fill="rgba(0,0,0,0.3)" stroke="black" stroke-width="0.010593220338983056"/><circle data-type="circle" data-label="" data-x="-3.0808080808080804" data-y="-3.383838383838383" cx="221.17171717171726" cy="831.4343434343434" r="28.791999999999987" fill="rgba(0,0,0,0.3)" stroke="black" stroke-width="0.010593220338983056"/><circle data-type="circle" data-label="" data-x="-3.98989898989899" data-y="-3.6868686868686864" cx="135.35353535353545" cy="860.0404040404039" r="28.791999999999987" fill="rgba(0,0,0,0.3)" stroke="black" stroke-width="0.010593220338983056"/><circle data-type="circle" data-label="" data-x="0.5555555555555567" data-y="2.7777777777777786" cx="564.4444444444445" cy="249.77777777777794" r="28.791999999999987" fill="rgba(0,0,0,0.3)" stroke="black" stroke-width="0.010593220338983056"/><circle data-type="circle" data-label="" data-x="3.181818181818183" data-y="2.7777777777777786" cx="812.3636363636363" cy="249.77777777777794" r="28.791999999999987" fill="rgba(0,0,0,0.3)" stroke="black" stroke-width="0.010593220338983056"/><circle data-type="circle" data-label="" data-x="3.989898989898992" data-y="3.6868686868686877" cx="888.6464646464647" cy="163.95959595959613" r="28.791999999999987" fill="rgba(0,0,0,0.3)" stroke="black" stroke-width="0.010593220338983056"/><circle data-type="circle" data-label="" data-x="3.181818181818183" data-y="3.7878787878787885" cx="812.3636363636363" cy="154.4242424242426" r="28.791999999999987" fill="rgba(0,0,0,0.3)" stroke="black" stroke-width="0.010593220338983056"/><circle data-type="circle" data-label="" data-x="-3.8888888888888884" data-y="3.7878787878787885" cx="144.88888888888903" cy="154.4242424242426" r="28.791999999999987" fill="rgba(0,0,0,0.3)" stroke="black" stroke-width="0.010593220338983056"/><g id="crosshair" style="display: none"><line id="crosshair-h" y1="0" y2="1024" stroke="#666" stroke-width="0.5"/><line id="crosshair-v" x1="0" x2="1024" stroke="#666" stroke-width="0.5"/><text id="coordinates" font-family="monospace" font-size="12" fill="#666"></text></g><script><![CDATA[
              document.currentScript.parentElement.addEventListener('mousemove', (e) => {
                const svg = e.currentTarget;
                const rect = svg.getBoundingClientRect();
                const x = e.clientX - rect.left;
                const y = e.clientY - rect.top;
                const crosshair = svg.getElementById('crosshair');
                const h = svg.getElementById('crosshair-h');
                const v = svg.getElementById('crosshair-v');
                const coords = svg.getElementById('coordinates');
                
                crosshair.style.display = 'block';
                h.setAttribute('x1', '0');
                h.setAttribute('x2', '1024');
                h.setAttribute('y1', y);
                h.setAttribute('y2', y);
                v.setAttribute('x1', x);
                v.setAttribute('x2', x);
                v.setAttribute('y1', '0');
                v.setAttribute('y2', '1024');

                // Calculate real coordinates using inverse transformation
                const matrix = {"a":94.39999999999996,"c":0,"e":511.99999999999994,"b":0,"d":-94.39999999999996,"f":512.0000000000001};
                // Manually invert and apply the affine transform
                // Since we only use translate and scale, we can directly compute:
                // x' = (x - tx) / sx
                // y' = (y - ty) / sy
                const sx = matrix.a;
                const sy = matrix.d;
                const tx = matrix.e; 
                const ty = matrix.f;
                const realPoint = {
                  x: (x - tx) / sx,
                  y: (y - ty) / sy // Flip y back since we used negative scale
                }
                
                coords.textContent = `(${realPoint.x.toFixed(2)}, ${realPoint.y.toFixed(2)})`;
                coords.setAttribute('x', (x + 5).toString());
                coords.setAttribute('y', (y - 5).toString());
              });
              document.currentScript.parentElement.addEventListener('mouseleave', () => {
                document.currentScript.parentElement.getElementById('crosshair').style.display = 'none';
              });
            ]]></script></svg>