<svg width="1024" height="1024" viewBox="0 0 1024 1024" xmlns="http://www.w3.org/2000/svg"><rect width="100%" height="100%" fill="white"/><g><circle data-type="point" data-label="conn_000" data-x="5" data-y="3.64" cx="983.9999999999998" cy="168.38400000000024" r="28.792" fill="blue" stroke="#bd0f0f" stroke-width="28.792"/></g><g><circle data-type="point" data-label="conn_000" data-x="-5" data-y="2.36" cx="40.000000000000114" cy="289.21600000000024" r="28.792" fill="red" stroke="#bd0f0f" stroke-width="28.792"/></g><g><circle data-type="point" data-label="conn_001" data-x="-1.76" data-y="5" cx="345.856" cy="40.000000000000284" r="28.792" fill="red" stroke="#0fbd42" stroke-width="28.792"/></g><g><circle data-type="point" data-label="conn_001" data-x="3.98" data-y="-5" cx="887.7119999999998" cy="984" r="28.792" fill="blue" stroke="#0fbd42" stroke-width="28.792"/></g><g><circle data-type="point" data-label="conn_002" data-x="-5" data-y="0.9400000000000001" cx="40.000000000000114" cy="423.2640000000001" r="28.792" fill="red" stroke="#740fbd" stroke-width="28.792"/></g><g><circle data-type="point" data-label="conn_002" data-x="5" data-y="-4.18" cx="983.9999999999998" cy="906.5919999999999" r="28.792" fill="red" stroke="#740fbd" stroke-width="28.792"/></g><g><polyline data-points="-1.7676767676767675,5.000000000000002 -1.6666666666666665,4.898989898989901 -1.5656565656565653,4.7979797979797985 -1.4646464646464643,4.696969696969697 -1.363636363636363,4.595959595959597 -1.2626262626262625,4.494949494949497 -1.1616161616161613,4.393939393939394 -1.0606060606060603,4.292929292929293 -0.9595959595959596,4.191919191919193 -0.8585858585858579,4.090909090909092 -0.7575757575757572,3.989898989898992 -0.6565656565656557,3.8888888888888893 -0.555555555555555,3.7878787878787885 -0.4545454545454544,3.6868686868686877 -0.35353535353535287,3.5858585858585874 -0.2525252525252522,3.4848484848484866 -0.15151515151515066,3.383838383838384 -0.05050505050505001,3.2828282828282833 0.050505050505051545,3.181818181818183 0.1515151515151522,3.080808080808082 0.2525252525252529,2.9797979797979806 0.3535353535353544,2.87878787878788 0.4545454545454551,2.7777777777777786 0.5555555555555567,2.676767676767678 0.6565656565656574,2.575757575757577 0.7575757575757579,2.4747474747474754 0.8585858585858596,2.373737373737375 0.9595959595959602,2.2727272727272734 1.0606060606060617,2.1717171717171726 1.1616161616161622,2.070707070707072 1.262626262626263,1.9696969696969702 1.3636363636363644,1.8686868686868696 1.4646464646464652,1.767676767676768 1.5656565656565666,1.6666666666666674 1.6666666666666674,1.5656565656565666 1.767676767676768,1.4646464646464652 1.8686868686868696,1.3636363636363644 1.9696969696969702,1.262626262626263 2.070707070707072,1.1616161616161622 2.1717171717171726,1.0606060606060617 2.2727272727272734,0.9595959595959602 2.373737373737375,0.8585858585858596 2.4747474747474754,0.7575757575757579 2.575757575757577,0.6565656565656574 2.676767676767678,0.5555555555555567 2.7777777777777786,0.4545454545454551 2.87878787878788,0.3535353535353544 2.9797979797979806,0.2525252525252529 3.080808080808082,0.1515151515151522 3.181818181818183,0.050505050505051545 3.2828282828282833,-0.05050505050505001 3.383838383838384,-0.15151515151515066 3.4848484848484866,-0.2525252525252522 3.5858585858585874,-0.35353535353535287 3.6868686868686877,-0.4545454545454544 3.7878787878787885,-0.555555555555555 3.8888888888888893,-0.6565656565656557 3.989898989898992,-0.7575757575757572 3.989898989898992,-0.8585858585858579 3.989898989898992,-0.9595959595959596 3.989898989898992,-1.0606060606060603 3.989898989898992,-1.1616161616161613 3.989898989898992,-1.2626262626262625 3.989898989898992,-1.363636363636363 3.989898989898992,-1.4646464646464643 3.989898989898992,-1.5656565656565653 3.989898989898992,-1.6666666666666665 3.989898989898992,-1.7676767676767675 3.989898989898992,-1.8686868686868683 3.989898989898992,-1.9696969696969693 3.989898989898992,-2.07070707070707 3.989898989898992,-2.1717171717171713 3.989898989898992,-2.2727272727272725 3.989898989898992,-2.3737373737373733 3.989898989898992,-2.474747474747474 3.989898989898992,-2.5757575757575752 3.989898989898992,-2.6767676767676765 3.989898989898992,-2.7777777777777777 3.989898989898992,-2.8787878787878785 3.989898989898992,-2.9797979797979792 3.989898989898992,-3.0808080808080804 3.989898989898992,-3.1818181818181817 3.989898989898992,-3.2828282828282824 3.989898989898992,-3.383838383838383 3.989898989898992,-3.484848484848485 3.989898989898992,-3.5858585858585856 3.989898989898992,-3.6868686868686864 3.989898989898992,-3.7878787878787876 3.989898989898992,-3.8888888888888884 3.989898989898992,-3.98989898989899" data-type="line" data-label="" points="345.13131313131316,40.000000000000114 354.6666666666667,49.53535353535369 364.2020202020202,59.07070707070733 373.7373737373738,68.60606060606085 383.2727272727273,78.14141414141432 392.80808080808083,87.67676767676778 402.34343434343435,97.21212121212153 411.8787878787879,106.747474747475 421.4141414141414,116.28282828282846 430.949494949495,125.81818181818198 440.4848484848485,135.35353535353545 450.0202020202021,144.88888888888908 459.55555555555554,154.4242424242426 469.09090909090907,163.95959595959613 478.62626262626264,173.4949494949496 488.16161616161617,183.03030303030312 497.69696969696975,192.56565656565675 507.2323232323232,202.10101010101027 516.7676767676768,211.63636363636374 526.3030303030303,221.17171717171726 535.8383838383838,230.70707070707084 545.3737373737374,240.24242424242436 554.9090909090909,249.77777777777794 564.4444444444445,259.3131313131314 573.9797979797979,268.84848484848493 583.5151515151515,278.38383838383857 593.0505050505051,287.91919191919203 602.5858585858585,297.4545454545456 612.1212121212121,306.9898989898991 621.6565656565656,316.5252525252526 631.1919191919192,326.06060606060623 640.7272727272727,335.5959595959597 650.2626262626262,345.1313131313133 659.7979797979798,354.66666666666674 669.3333333333333,364.2020202020203 678.8686868686868,373.73737373737384 688.4040404040404,383.27272727272737 697.9393939393939,392.80808080808094 707.4747474747475,402.3434343434344 717.0101010101009,411.87878787878793 726.5454545454545,421.4141414141415 736.0808080808081,430.94949494949503 745.6161616161615,440.4848484848486 755.1515151515151,450.0202020202021 764.6868686868686,459.5555555555556 774.2222222222222,469.0909090909092 783.7575757575758,478.6262626262627 793.2929292929292,488.1616161616163 802.8282828282828,497.69696969696975 812.3636363636363,507.23232323232327 821.8989898989898,516.7676767676768 831.4343434343433,526.3030303030304 840.969696969697,535.838383838384 850.5050505050505,545.3737373737374 860.0404040404039,554.909090909091 869.5757575757575,564.4444444444445 879.111111111111,573.979797979798 888.6464646464647,583.5151515151516 888.6464646464647,593.0505050505051 888.6464646464647,602.5858585858587 888.6464646464647,612.1212121212121 888.6464646464647,621.6565656565657 888.6464646464647,631.1919191919193 888.6464646464647,640.7272727272727 888.6464646464647,650.2626262626263 888.6464646464647,659.7979797979798 888.6464646464647,669.3333333333334 888.6464646464647,678.8686868686868 888.6464646464647,688.4040404040404 888.6464646464647,697.939393939394 888.6464646464647,707.4747474747475 888.6464646464647,717.010101010101 888.6464646464647,726.5454545454545 888.6464646464647,736.0808080808081 888.6464646464647,745.6161616161615 888.6464646464647,755.1515151515151 888.6464646464647,764.6868686868687 888.6464646464647,774.2222222222222 888.6464646464647,783.7575757575758 888.6464646464647,793.2929292929292 888.6464646464647,802.8282828282828 888.6464646464647,812.3636363636363 888.6464646464647,821.8989898989898 888.6464646464647,831.4343434343434 888.6464646464647,840.969696969697 888.6464646464647,850.5050505050505 888.6464646464647,860.0404040404039 888.6464646464647,869.5757575757575 888.6464646464647,879.1111111111111 888.6464646464647,888.6464646464647" fill="none" stroke="rgba(255,0,0,0.75)" stroke-width="14.159999999999995"/></g><g><polyline data-points="3.989898989898992,-3.98989898989899 3.989898989898992,-4.090909090909091 3.989898989898992,-4.191919191919193 3.989898989898992,-4.292929292929293 3.989898989898992,-4.393939393939394 3.989898989898992,-4.494949494949496 3.989898989898992,-4.595959595959596 3.989898989898992,-4.696969696969697 3.989898989898992,-4.7979797979797985 3.989898989898992,-4.898989898989899 3.989898989898992,-5.000000000000001" data-type="line" data-label="" points="888.6464646464647,888.6464646464647 888.6464646464647,898.1818181818181 888.6464646464647,907.7171717171718 888.6464646464647,917.2525252525252 888.6464646464647,926.7878787878788 888.6464646464647,936.3232323232323 888.6464646464647,945.8585858585858 888.6464646464647,955.3939393939394 888.6464646464647,964.9292929292928 888.6464646464647,974.4646464646464 888.6464646464647,984" fill="none" stroke="rgba(0,0,255,0.75)" stroke-width="14.159999999999995"/></g><g><polyline data-points="5.000000000000002,3.6868686868686877 4.898989898989901,3.5858585858585874 4.7979797979797985,3.4848484848484866 4.696969696969697,3.383838383838384 4.595959595959597,3.2828282828282833 4.494949494949497,3.181818181818183 4.393939393939394,3.080808080808082 4.292929292929293,2.9797979797979806 4.191919191919193,2.87878787878788 4.090909090909092,2.7777777777777786 3.989898989898992,2.676767676767678 3.8888888888888893,2.575757575757577 3.7878787878787885,2.4747474747474754 3.6868686868686877,2.373737373737375 3.5858585858585874,2.373737373737375 3.4848484848484866,2.373737373737375 3.383838383838384,2.373737373737375 3.2828282828282833,2.373737373737375 3.181818181818183,2.373737373737375 3.080808080808082,2.373737373737375 2.9797979797979806,2.373737373737375 2.87878787878788,2.373737373737375 2.7777777777777786,2.373737373737375 2.676767676767678,2.373737373737375 2.575757575757577,2.373737373737375 2.4747474747474754,2.373737373737375 2.373737373737375,2.373737373737375 2.2727272727272734,2.373737373737375 2.1717171717171726,2.373737373737375 2.070707070707072,2.373737373737375 1.9696969696969702,2.373737373737375 1.8686868686868696,2.373737373737375 1.767676767676768,2.373737373737375 1.6666666666666674,2.373737373737375 1.5656565656565666,2.373737373737375 1.4646464646464652,2.373737373737375 1.3636363636363644,2.373737373737375 1.262626262626263,2.373737373737375 1.1616161616161622,2.373737373737375 1.0606060606060617,2.373737373737375 0.9595959595959602,2.373737373737375 0.8585858585858596,2.373737373737375 0.7575757575757579,2.373737373737375 0.6565656565656574,2.373737373737375 0.5555555555555567,2.373737373737375 0.4545454545454551,2.373737373737375 0.3535353535353544,2.373737373737375 0.2525252525252529,2.373737373737375 0.1515151515151522,2.373737373737375 0.050505050505051545,2.373737373737375 -0.05050505050505001,2.373737373737375 -0.15151515151515066,2.373737373737375 -0.2525252525252522,2.373737373737375 -0.35353535353535287,2.373737373737375 -0.4545454545454544,2.373737373737375 -0.555555555555555,2.373737373737375 -0.6565656565656557,2.373737373737375 -0.7575757575757572,2.373737373737375 -0.8585858585858579,2.373737373737375 -0.9595959595959596,2.373737373737375 -1.0606060606060603,2.373737373737375 -1.1616161616161613,2.373737373737375 -1.2626262626262625,2.373737373737375 -1.363636363636363,2.373737373737375 -1.4646464646464643,2.373737373737375 -1.5656565656565653,2.373737373737375 -1.6666666666666665,2.373737373737375 -1.7676767676767675,2.373737373737375 -1.8686868686868683,2.373737373737375 -1.9696969696969693,2.373737373737375 -2.07070707070707,2.373737373737375 -2.1717171717171713,2.373737373737375 -2.2727272727272725,2.373737373737375 -2.3737373737373733,2.373737373737375 -2.474747474747474,2.373737373737375 -2.5757575757575752,2.373737373737375 -2.6767676767676765,2.373737373737375 -2.7777777777777777,2.373737373737375 -2.8787878787878785,2.373737373737375 -2.9797979797979792,2.373737373737375 -3.0808080808080804,2.373737373737375 -3.1818181818181817,2.373737373737375 -3.2828282828282824,2.373737373737375 -3.383838383838383,2.373737373737375 -3.484848484848485,2.373737373737375 -3.5858585858585856,2.373737373737375 -3.6868686868686864,2.373737373737375 -3.7878787878787876,2.373737373737375 -3.8888888888888884,2.373737373737375 -3.98989898989899,2.373737373737375" data-type="line" data-label="" points="984,163.95959595959613 974.4646464646464,173.4949494949496 964.9292929292927,183.03030303030312 955.3939393939393,192.56565656565675 945.8585858585857,202.10101010101027 936.3232323232323,211.63636363636374 926.7878787878785,221.17171717171726 917.2525252525251,230.70707070707084 907.7171717171716,240.24242424242436 898.181818181818,249.77777777777794 888.6464646464647,259.3131313131314 879.111111111111,268.84848484848493 869.5757575757575,278.38383838383857 860.0404040404039,287.91919191919203 850.5050505050505,287.91919191919203 840.969696969697,287.91919191919203 831.4343434343433,287.91919191919203 821.8989898989898,287.91919191919203 812.3636363636363,287.91919191919203 802.8282828282828,287.91919191919203 793.2929292929292,287.91919191919203 783.7575757575758,287.91919191919203 774.2222222222222,287.91919191919203 764.6868686868686,287.91919191919203 755.1515151515151,287.91919191919203 745.6161616161615,287.91919191919203 736.0808080808081,287.91919191919203 726.5454545454545,287.91919191919203 717.0101010101009,287.91919191919203 707.4747474747475,287.91919191919203 697.9393939393939,287.91919191919203 688.4040404040404,287.91919191919203 678.8686868686868,287.91919191919203 669.3333333333333,287.91919191919203 659.7979797979798,287.91919191919203 650.2626262626262,287.91919191919203 640.7272727272727,287.91919191919203 631.1919191919192,287.91919191919203 621.6565656565656,287.91919191919203 612.1212121212121,287.91919191919203 602.5858585858585,287.91919191919203 593.0505050505051,287.91919191919203 583.5151515151515,287.91919191919203 573.9797979797979,287.91919191919203 564.4444444444445,287.91919191919203 554.9090909090909,287.91919191919203 545.3737373737374,287.91919191919203 535.8383838383838,287.91919191919203 526.3030303030303,287.91919191919203 516.7676767676768,287.91919191919203 507.2323232323232,287.91919191919203 497.69696969696975,287.91919191919203 488.16161616161617,287.91919191919203 478.62626262626264,287.91919191919203 469.09090909090907,287.91919191919203 459.55555555555554,287.91919191919203 450.0202020202021,287.91919191919203 440.4848484848485,287.91919191919203 430.949494949495,287.91919191919203 421.4141414141414,287.91919191919203 411.8787878787879,287.91919191919203 402.34343434343435,287.91919191919203 392.80808080808083,287.91919191919203 383.2727272727273,287.91919191919203 373.7373737373738,287.91919191919203 364.2020202020202,287.91919191919203 354.6666666666667,287.91919191919203 345.13131313131316,287.91919191919203 335.59595959595964,287.91919191919203 326.0606060606061,287.91919191919203 316.5252525252526,287.91919191919203 306.9898989898991,287.91919191919203 297.4545454545455,287.91919191919203 287.91919191919203,287.91919191919203 278.38383838383845,287.91919191919203 268.84848484848493,287.91919191919203 259.3131313131314,287.91919191919203 249.77777777777783,287.91919191919203 240.2424242424243,287.91919191919203 230.70707070707084,287.91919191919203 221.17171717171726,287.91919191919203 211.63636363636374,287.91919191919203 202.10101010101022,287.91919191919203 192.5656565656567,287.91919191919203 183.03030303030312,287.91919191919203 173.4949494949496,287.91919191919203 163.95959595959607,287.91919191919203 154.42424242424255,287.91919191919203 144.88888888888903,287.91919191919203 135.35353535353545,287.91919191919203" fill="none" stroke="rgba(0,0,255,0.75)" stroke-width="14.159999999999995"/></g><g><polyline data-points="-3.98989898989899,2.373737373737375 -4.090909090909091,2.373737373737375 -4.191919191919193,2.373737373737375 -4.292929292929293,2.373737373737375 -4.393939393939394,2.373737373737375 -4.494949494949496,2.373737373737375 -4.595959595959596,2.373737373737375 -4.696969696969697,2.373737373737375 -4.7979797979797985,2.373737373737375 -4.898989898989899,2.373737373737375 -5.000000000000001,2.373737373737375" data-type="line" data-label="" points="135.35353535353545,287.91919191919203 125.81818181818193,287.91919191919203 116.28282828282829,287.91919191919203 106.74747474747483,287.91919191919203 97.21212121212136,287.91919191919203 87.67676767676772,287.91919191919203 78.14141414141426,287.91919191919203 68.60606060606068,287.91919191919203 59.07070707070716,287.91919191919203 49.53535353535369,287.91919191919203 40.00000000000006,287.91919191919203" fill="none" stroke="rgba(255,0,0,0.75)" stroke-width="14.159999999999995"/></g><g><polyline data-points="-5.000000000000001,0.9595959595959602 -4.898989898989899,0.8585858585858596 -4.7979797979797985,0.7575757575757579 -4.696969696969697,0.6565656565656574 -4.595959595959596,0.5555555555555567 -4.494949494949496,0.4545454545454551 -4.393939393939394,0.3535353535353544 -4.292929292929293,0.2525252525252529 -4.191919191919193,0.1515151515151522 -4.090909090909091,0.050505050505051545 -3.98989898989899,-0.05050505050505001 -3.8888888888888884,-0.15151515151515066 -3.7878787878787876,-0.2525252525252522 -3.6868686868686864,-0.35353535353535287 -3.5858585858585856,-0.4545454545454544 -3.484848484848485,-0.555555555555555 -3.383838383838383,-0.6565656565656557 -3.2828282828282824,-0.7575757575757572 -3.1818181818181817,-0.8585858585858579 -3.0808080808080804,-0.9595959595959596 -2.9797979797979792,-1.0606060606060603 -2.8787878787878785,-1.1616161616161613 -2.7777777777777777,-1.2626262626262625 -2.6767676767676765,-1.363636363636363 -2.5757575757575752,-1.4646464646464643 -2.474747474747474,-1.5656565656565653 -2.3737373737373733,-1.6666666666666665 -2.2727272727272725,-1.7676767676767675 -2.1717171717171713,-1.8686868686868683 -2.07070707070707,-1.9696969696969693 -1.9696969696969693,-2.07070707070707 -1.8686868686868683,-2.1717171717171713 -1.7676767676767675,-2.2727272727272725 -1.6666666666666665,-2.3737373737373733 -1.5656565656565653,-2.474747474747474 -1.4646464646464643,-2.5757575757575752 -1.363636363636363,-2.6767676767676765 -1.2626262626262625,-2.7777777777777777 -1.1616161616161613,-2.8787878787878785 -1.0606060606060603,-2.9797979797979792 -0.9595959595959596,-3.0808080808080804 -0.8585858585858579,-3.1818181818181817 -0.7575757575757572,-3.2828282828282824 -0.6565656565656557,-3.383838383838383 -0.555555555555555,-3.484848484848485 -0.4545454545454544,-3.5858585858585856 -0.35353535353535287,-3.6868686868686864 -0.2525252525252522,-3.7878787878787876 -0.15151515151515066,-3.8888888888888884 -0.05050505050505001,-3.98989898989899 0.050505050505051545,-4.090909090909091 0.1515151515151522,-4.191919191919193 0.2525252525252529,-4.191919191919193 0.3535353535353544,-4.191919191919193 0.4545454545454551,-4.191919191919193 0.5555555555555567,-4.191919191919193 0.6565656565656574,-4.191919191919193 0.7575757575757579,-4.191919191919193 0.8585858585858596,-4.191919191919193 0.9595959595959602,-4.191919191919193 1.0606060606060617,-4.191919191919193 1.1616161616161622,-4.191919191919193 1.262626262626263,-4.191919191919193 1.3636363636363644,-4.191919191919193 1.4646464646464652,-4.191919191919193 1.5656565656565666,-4.191919191919193 1.6666666666666674,-4.191919191919193 1.767676767676768,-4.191919191919193 1.8686868686868696,-4.191919191919193 1.9696969696969702,-4.191919191919193 2.070707070707072,-4.191919191919193 2.1717171717171726,-4.191919191919193 2.2727272727272734,-4.191919191919193 2.373737373737375,-4.191919191919193 2.4747474747474754,-4.191919191919193 2.575757575757577,-4.191919191919193 2.676767676767678,-4.191919191919193 2.7777777777777786,-4.191919191919193 2.87878787878788,-4.191919191919193 2.9797979797979806,-4.191919191919193 3.080808080808082,-4.191919191919193 3.181818181818183,-4.191919191919193 3.2828282828282833,-4.191919191919193 3.383838383838384,-4.191919191919193 3.4848484848484866,-4.191919191919193 3.5858585858585874,-4.191919191919193 3.6868686868686877,-4.292929292929293 3.7878787878787885,-4.393939393939394 3.8888888888888893,-4.393939393939394 3.989898989898992,-4.494949494949496 4.090909090909092,-4.393939393939394 4.191919191919193,-4.393939393939394 4.292929292929293,-4.292929292929293 4.393939393939394,-4.191919191919193 4.494949494949497,-4.191919191919193 4.595959595959597,-4.191919191919193 4.696969696969697,-4.191919191919193 4.7979797979797985,-4.191919191919193 4.898989898989901,-4.191919191919193 5.000000000000002,-4.191919191919193" data-type="line" data-label="" points="40.00000000000006,421.4141414141415 49.53535353535369,430.94949494949503 59.07070707070716,440.4848484848486 68.60606060606068,450.0202020202021 78.14141414141426,459.5555555555556 87.67676767676772,469.0909090909092 97.21212121212136,478.6262626262627 106.74747474747483,488.1616161616163 116.28282828282829,497.69696969696975 125.81818181818193,507.23232323232327 135.35353535353545,516.7676767676768 144.88888888888903,526.3030303030304 154.42424242424255,535.838383838384 163.95959595959607,545.3737373737374 173.4949494949496,554.909090909091 183.03030303030312,564.4444444444445 192.5656565656567,573.979797979798 202.10101010101022,583.5151515151516 211.63636363636374,593.0505050505051 221.17171717171726,602.5858585858587 230.70707070707084,612.1212121212121 240.2424242424243,621.6565656565657 249.77777777777783,631.1919191919193 259.3131313131314,640.7272727272727 268.84848484848493,650.2626262626263 278.38383838383845,659.7979797979798 287.91919191919203,669.3333333333334 297.4545454545455,678.8686868686868 306.9898989898991,688.4040404040404 316.5252525252526,697.939393939394 326.0606060606061,707.4747474747475 335.59595959595964,717.010101010101 345.13131313131316,726.5454545454545 354.6666666666667,736.0808080808081 364.2020202020202,745.6161616161615 373.7373737373738,755.1515151515151 383.2727272727273,764.6868686868687 392.80808080808083,774.2222222222222 402.34343434343435,783.7575757575758 411.8787878787879,793.2929292929292 421.4141414141414,802.8282828282828 430.949494949495,812.3636363636363 440.4848484848485,821.8989898989898 450.0202020202021,831.4343434343434 459.55555555555554,840.969696969697 469.09090909090907,850.5050505050505 478.62626262626264,860.0404040404039 488.16161616161617,869.5757575757575 497.69696969696975,879.1111111111111 507.2323232323232,888.6464646464647 516.7676767676768,898.1818181818181 526.3030303030303,907.7171717171718 535.8383838383838,907.7171717171718 545.3737373737374,907.7171717171718 554.9090909090909,907.7171717171718 564.4444444444445,907.7171717171718 573.9797979797979,907.7171717171718 583.5151515151515,907.7171717171718 593.0505050505051,907.7171717171718 602.5858585858585,907.7171717171718 612.1212121212121,907.7171717171718 621.6565656565656,907.7171717171718 631.1919191919192,907.7171717171718 640.7272727272727,907.7171717171718 650.2626262626262,907.7171717171718 659.7979797979798,907.7171717171718 669.3333333333333,907.7171717171718 678.8686868686868,907.7171717171718 688.4040404040404,907.7171717171718 697.9393939393939,907.7171717171718 707.4747474747475,907.7171717171718 717.0101010101009,907.7171717171718 726.5454545454545,907.7171717171718 736.0808080808081,907.7171717171718 745.6161616161615,907.7171717171718 755.1515151515151,907.7171717171718 764.6868686868686,907.7171717171718 774.2222222222222,907.7171717171718 783.7575757575758,907.7171717171718 793.2929292929292,907.7171717171718 802.8282828282828,907.7171717171718 812.3636363636363,907.7171717171718 821.8989898989898,907.7171717171718 831.4343434343433,907.7171717171718 840.969696969697,907.7171717171718 850.5050505050505,907.7171717171718 860.0404040404039,917.2525252525252 869.5757575757575,926.7878787878788 879.111111111111,926.7878787878788 888.6464646464647,936.3232323232323 898.181818181818,926.7878787878788 907.7171717171716,926.7878787878788 917.2525252525251,917.2525252525252 926.7878787878785,907.7171717171718 936.3232323232323,907.7171717171718 945.8585858585857,907.7171717171718 955.3939393939393,907.7171717171718 964.9292929292927,907.7171717171718 974.4646464646464,907.7171717171718 984,907.7171717171718" fill="none" stroke="rgba(255,0,0,0.75)" stroke-width="14.159999999999995"/></g><g><rect data-type="rect" data-label="" data-x="0" data-y="0" x="40.000000000000114" y="40.000000000000284" width="943.9999999999997" height="943.9999999999998" fill="none" stroke="gray" stroke-width="0.010593220338983056"/></g><g><rect data-type="rect" data-label="" data-x="0" data-y="0" x="40.000000000000114" y="40.000000000000284" width="943.9999999999997" height="943.9999999999998" fill="none" stroke="rgba(15, 23, 42, 0.8)" stroke-width="0.010593220338983056"/></g><circle data-type="circle" data-label="" data-x="3.989898989898992" data-y="-3.98989898989899" cx="888.6464646464647" cy="888.6464646464647" r="28.791999999999987" fill="rgba(0,0,0,0.3)" stroke="black" stroke-width="0.010593220338983056"/><circle data-type="circle" data-label="" data-x="-3.98989898989899" data-y="2.373737373737375" cx="135.35353535353545" cy="287.91919191919203" r="28.791999999999987" fill="rgba(0,0,0,0.3)" stroke="black" stroke-width="0.010593220338983056"/><g id="crosshair" style="display: none"><line id="crosshair-h" y1="0" y2="1024" stroke="#666" stroke-width="0.5"/><line id="crosshair-v" x1="0" x2="1024" stroke="#666" stroke-width="0.5"/><text id="coordinates" font-family="monospace" font-size="12" fill="#666"></text></g><script><![CDATA[
              document.currentScript.parentElement.addEventListener('mousemove', (e) => {
                const svg = e.currentTarget;
                const rect = svg.getBoundingClientRect();
                const x = e.clientX - rect.left;
                const y = e.clientY - rect.top;
                const crosshair = svg.getElementById('crosshair');
                const h = svg.getElementById('crosshair-h');
                const v = svg.getElementById('crosshair-v');
                const coords = svg.getElementById('coordinates');
                
                crosshair.style.display = 'block';
                h.setAttribute('x1', '0');
                h.setAttribute('x2', '1024');
                h.setAttribute('y1', y);
                h.setAttribute('y2', y);
                v.setAttribute('x1', x);
                v.setAttribute('x2', x);
                v.setAttribute('y1', '0');
                v.setAttribute('y2', '1024');

                // Calculate real coordinates using inverse transformation
                const matrix = {"a":94.39999999999996,"c":0,"e":511.99999999999994,"b":0,"d":-94.39999999999996,"f":512.0000000000001};
                // Manually invert and apply the affine transform
                // Since we only use translate and scale, we can directly compute:
                // x' = (x - tx) / sx
                // y' = (y - ty) / sy
                const sx = matrix.a;
                const sy = matrix.d;
                const tx = matrix.e; 
                const ty = matrix.f;
                const realPoint = {
                  x: (x - tx) / sx,
                  y: (y - ty) / sy // Flip y back since we used negative scale
                }
                
                coords.textContent = `(${realPoint.x.toFixed(2)}, ${realPoint.y.toFixed(2)})`;
                coords.setAttribute('x', (x + 5).toString());
                coords.setAttribute('y', (y - 5).toString());
              });
              document.currentScript.parentElement.addEventListener('mouseleave', () => {
                document.currentScript.parentElement.getElementById('crosshair').style.display = 'none';
              });
            ]]></script></svg>