<svg width="1024" height="1024" viewBox="0 0 1024 1024" xmlns="http://www.w3.org/2000/svg"><rect width="100%" height="100%" fill="white"/><g><circle data-type="point" data-label="conn_000" data-x="-2.44" data-y="5" cx="281.66400000000004" cy="40.000000000000284" r="28.792" fill="red" stroke="#bd0f0f" stroke-width="28.792"/></g><g><circle data-type="point" data-label="conn_000" data-x="-4.24" data-y="-5" cx="111.74400000000009" cy="984" r="28.792" fill="blue" stroke="#bd0f0f" stroke-width="28.792"/></g><g><circle data-type="point" data-label="conn_001" data-x="5" data-y="4.28" cx="983.9999999999998" cy="107.96800000000025" r="28.792" fill="blue" stroke="#0fbd42" stroke-width="28.792"/></g><g><circle data-type="point" data-label="conn_001" data-x="-5" data-y="-2.7" cx="40.000000000000114" cy="766.88" r="28.792" fill="blue" stroke="#0fbd42" stroke-width="28.792"/></g><g><circle data-type="point" data-label="conn_002" data-x="-5" data-y="-1.7" cx="40.000000000000114" cy="672.48" r="28.792" fill="blue" stroke="#740fbd" stroke-width="28.792"/></g><g><circle data-type="point" data-label="conn_002" data-x="5" data-y="-2.9" cx="983.9999999999998" cy="785.76" r="28.792" fill="blue" stroke="#740fbd" stroke-width="28.792"/></g><g><circle data-type="point" data-label="conn_003" data-x="0.52" data-y="5" cx="561.088" cy="40.000000000000284" r="28.792" fill="red" stroke="#bda70f" stroke-width="28.792"/></g><g><circle data-type="point" data-label="conn_003" data-x="5" data-y="1.76" cx="983.9999999999998" cy="345.85600000000017" r="28.792" fill="red" stroke="#bda70f" stroke-width="28.792"/></g><g><circle data-type="point" data-label="conn_004" data-x="-5" data-y="1.16" cx="40.000000000000114" cy="402.49600000000015" r="28.792" fill="blue" stroke="#0fa0bd" stroke-width="28.792"/></g><g><circle data-type="point" data-label="conn_004" data-x="5" data-y="0.74" cx="983.9999999999998" cy="442.1440000000001" r="28.792" fill="blue" stroke="#0fa0bd" stroke-width="28.792"/></g><g><circle data-type="point" data-label="conn_005" data-x="-5" data-y="4.92" cx="40.000000000000114" cy="47.552000000000305" r="28.792" fill="red" stroke="#bd0f6d" stroke-width="28.792"/></g><g><circle data-type="point" data-label="conn_005" data-x="5" data-y="-4.72" cx="983.9999999999998" cy="957.568" r="28.792" fill="red" stroke="#bd0f6d" stroke-width="28.792"/></g><g><circle data-type="point" data-label="conn_006" data-x="5" data-y="-1.76" cx="983.9999999999998" cy="678.144" r="28.792" fill="blue" stroke="#3bbd0f" stroke-width="28.792"/></g><g><circle data-type="point" data-label="conn_006" data-x="-5" data-y="-4.36" cx="40.000000000000114" cy="923.5840000000001" r="28.792" fill="red" stroke="#3bbd0f" stroke-width="28.792"/></g><g><circle data-type="point" data-label="conn_007" data-x="5" data-y="-0.18" cx="983.9999999999998" cy="528.9920000000001" r="28.792" fill="blue" stroke="#170fbd" stroke-width="28.792"/></g><g><circle data-type="point" data-label="conn_007" data-x="5" data-y="3.16" cx="983.9999999999998" cy="213.6960000000002" r="28.792" fill="blue" stroke="#170fbd" stroke-width="28.792"/></g><g><polyline data-points="-5.000000000000001,5.000000000000002 -4.898989898989899,4.898989898989901 -4.7979797979797985,4.7979797979797985 -4.696969696969697,4.696969696969697 -4.595959595959596,4.595959595959597 -4.494949494949496,4.494949494949497 -4.393939393939394,4.393939393939394 -4.292929292929293,4.292929292929293 -4.191919191919193,4.191919191919193 -4.090909090909091,4.090909090909092 -3.98989898989899,3.989898989898992 -3.8888888888888884,3.8888888888888893 -3.7878787878787876,3.7878787878787885 -3.6868686868686864,3.6868686868686877 -3.5858585858585856,3.5858585858585874 -3.484848484848485,3.4848484848484866 -3.383838383838383,3.383838383838384 -3.2828282828282824,3.2828282828282833 -3.1818181818181817,3.181818181818183 -3.0808080808080804,3.080808080808082 -2.9797979797979792,2.9797979797979806 -2.8787878787878785,2.87878787878788 -2.7777777777777777,2.7777777777777786 -2.6767676767676765,2.676767676767678 -2.5757575757575752,2.575757575757577 -2.474747474747474,2.4747474747474754 -2.3737373737373733,2.373737373737375 -2.2727272727272725,2.2727272727272734 -2.1717171717171713,2.1717171717171726 -2.07070707070707,2.070707070707072 -1.9696969696969693,1.9696969696969702 -1.8686868686868683,1.8686868686868696 -1.7676767676767675,1.767676767676768 -1.6666666666666665,1.6666666666666674 -1.5656565656565653,1.5656565656565666 -1.4646464646464643,1.4646464646464652 -1.363636363636363,1.3636363636363644 -1.2626262626262625,1.262626262626263 -1.1616161616161613,1.1616161616161622 -1.0606060606060603,1.0606060606060617 -0.9595959595959596,0.9595959595959602 -0.8585858585858579,0.8585858585858596 -0.7575757575757572,0.7575757575757579 -0.6565656565656557,0.6565656565656574 -0.555555555555555,0.5555555555555567 -0.4545454545454544,0.4545454545454551 -0.35353535353535287,0.3535353535353544 -0.2525252525252522,0.2525252525252529 -0.15151515151515066,0.1515151515151522 -0.05050505050505001,0.050505050505051545 0.050505050505051545,-0.05050505050505001 0.1515151515151522,-0.15151515151515066 0.2525252525252529,-0.2525252525252522 0.3535353535353544,-0.35353535353535287 0.4545454545454551,-0.4545454545454544 0.5555555555555567,-0.555555555555555 0.6565656565656574,-0.6565656565656557 0.7575757575757579,-0.7575757575757572 0.8585858585858596,-0.8585858585858579 0.9595959595959602,-0.9595959595959596 1.0606060606060617,-1.0606060606060603 1.1616161616161622,-1.1616161616161613 1.262626262626263,-1.2626262626262625 1.3636363636363644,-1.363636363636363 1.4646464646464652,-1.4646464646464643 1.5656565656565666,-1.5656565656565653 1.6666666666666674,-1.6666666666666665 1.767676767676768,-1.7676767676767675 1.8686868686868696,-1.8686868686868683 1.9696969696969702,-1.9696969696969693 2.070707070707072,-2.07070707070707 2.1717171717171726,-2.1717171717171713 2.2727272727272734,-2.2727272727272725 2.373737373737375,-2.3737373737373733 2.4747474747474754,-2.474747474747474 2.575757575757577,-2.5757575757575752 2.676767676767678,-2.6767676767676765 2.7777777777777786,-2.7777777777777777 2.87878787878788,-2.8787878787878785 2.9797979797979806,-2.9797979797979792 3.080808080808082,-3.0808080808080804 3.181818181818183,-3.1818181818181817 3.2828282828282833,-3.2828282828282824 3.383838383838384,-3.383838383838383 3.4848484848484866,-3.484848484848485 3.5858585858585874,-3.5858585858585856 3.6868686868686877,-3.6868686868686864 3.7878787878787885,-3.7878787878787876 3.8888888888888893,-3.8888888888888884 3.989898989898992,-3.98989898989899 4.090909090909092,-4.090909090909091 4.191919191919193,-4.191919191919193 4.292929292929293,-4.292929292929293 4.393939393939394,-4.393939393939394 4.494949494949497,-4.494949494949496 4.595959595959597,-4.595959595959596 4.696969696969697,-4.696969696969697 4.7979797979797985,-4.7979797979797985 4.898989898989901,-4.7979797979797985 5.000000000000002,-4.7979797979797985" data-type="line" data-label="" points="40.00000000000006,40.000000000000114 49.53535353535369,49.53535353535369 59.07070707070716,59.07070707070733 68.60606060606068,68.60606060606085 78.14141414141426,78.14141414141432 87.67676767676772,87.67676767676778 97.21212121212136,97.21212121212153 106.74747474747483,106.747474747475 116.28282828282829,116.28282828282846 125.81818181818193,125.81818181818198 135.35353535353545,135.35353535353545 144.88888888888903,144.88888888888908 154.42424242424255,154.4242424242426 163.95959595959607,163.95959595959613 173.4949494949496,173.4949494949496 183.03030303030312,183.03030303030312 192.5656565656567,192.56565656565675 202.10101010101022,202.10101010101027 211.63636363636374,211.63636363636374 221.17171717171726,221.17171717171726 230.70707070707084,230.70707070707084 240.2424242424243,240.24242424242436 249.77777777777783,249.77777777777794 259.3131313131314,259.3131313131314 268.84848484848493,268.84848484848493 278.38383838383845,278.38383838383857 287.91919191919203,287.91919191919203 297.4545454545455,297.4545454545456 306.9898989898991,306.9898989898991 316.5252525252526,316.5252525252526 326.0606060606061,326.06060606060623 335.59595959595964,335.5959595959597 345.13131313131316,345.1313131313133 354.6666666666667,354.66666666666674 364.2020202020202,364.2020202020203 373.7373737373738,373.73737373737384 383.2727272727273,383.27272727272737 392.80808080808083,392.80808080808094 402.34343434343435,402.3434343434344 411.8787878787879,411.87878787878793 421.4141414141414,421.4141414141415 430.949494949495,430.94949494949503 440.4848484848485,440.4848484848486 450.0202020202021,450.0202020202021 459.55555555555554,459.5555555555556 469.09090909090907,469.0909090909092 478.62626262626264,478.6262626262627 488.16161616161617,488.1616161616163 497.69696969696975,497.69696969696975 507.2323232323232,507.23232323232327 516.7676767676768,516.7676767676768 526.3030303030303,526.3030303030304 535.8383838383838,535.838383838384 545.3737373737374,545.3737373737374 554.9090909090909,554.909090909091 564.4444444444445,564.4444444444445 573.9797979797979,573.979797979798 583.5151515151515,583.5151515151516 593.0505050505051,593.0505050505051 602.5858585858585,602.5858585858587 612.1212121212121,612.1212121212121 621.6565656565656,621.6565656565657 631.1919191919192,631.1919191919193 640.7272727272727,640.7272727272727 650.2626262626262,650.2626262626263 659.7979797979798,659.7979797979798 669.3333333333333,669.3333333333334 678.8686868686868,678.8686868686868 688.4040404040404,688.4040404040404 697.9393939393939,697.939393939394 707.4747474747475,707.4747474747475 717.0101010101009,717.010101010101 726.5454545454545,726.5454545454545 736.0808080808081,736.0808080808081 745.6161616161615,745.6161616161615 755.1515151515151,755.1515151515151 764.6868686868686,764.6868686868687 774.2222222222222,774.2222222222222 783.7575757575758,783.7575757575758 793.2929292929292,793.2929292929292 802.8282828282828,802.8282828282828 812.3636363636363,812.3636363636363 821.8989898989898,821.8989898989898 831.4343434343433,831.4343434343434 840.969696969697,840.969696969697 850.5050505050505,850.5050505050505 860.0404040404039,860.0404040404039 869.5757575757575,869.5757575757575 879.111111111111,879.1111111111111 888.6464646464647,888.6464646464647 898.181818181818,898.1818181818181 907.7171717171716,907.7171717171718 917.2525252525251,917.2525252525252 926.7878787878785,926.7878787878788 936.3232323232323,936.3232323232323 945.8585858585857,945.8585858585858 955.3939393939393,955.3939393939394 964.9292929292927,964.9292929292928 974.4646464646464,964.9292929292928 984,964.9292929292928" fill="none" stroke="rgba(255,0,0,0.75)" stroke-width="14.159999999999995"/></g><g><polyline data-points="-5.000000000000001,1.1616161616161622 -4.898989898989899,1.0606060606060617 -4.7979797979797985,0.9595959595959602 -4.696969696969697,0.8585858585858596 -4.595959595959596,0.7575757575757579 -4.494949494949496,0.7575757575757579 -4.393939393939394,0.7575757575757579 -4.292929292929293,0.7575757575757579 -4.191919191919193,0.7575757575757579 -4.090909090909091,0.7575757575757579 -3.98989898989899,0.7575757575757579 -3.8888888888888884,0.7575757575757579 -3.7878787878787876,0.7575757575757579 -3.6868686868686864,0.7575757575757579 -3.5858585858585856,0.7575757575757579 -3.484848484848485,0.7575757575757579 -3.383838383838383,0.7575757575757579 -3.2828282828282824,0.7575757575757579 -3.1818181818181817,0.7575757575757579 -3.0808080808080804,0.7575757575757579 -2.9797979797979792,0.7575757575757579 -2.8787878787878785,0.7575757575757579 -2.7777777777777777,0.7575757575757579 -2.6767676767676765,0.7575757575757579 -2.5757575757575752,0.7575757575757579 -2.474747474747474,0.7575757575757579 -2.3737373737373733,0.7575757575757579 -2.2727272727272725,0.7575757575757579 -2.1717171717171713,0.7575757575757579 -2.07070707070707,0.7575757575757579 -1.9696969696969693,0.7575757575757579 -1.8686868686868683,0.7575757575757579 -1.7676767676767675,0.7575757575757579 -1.6666666666666665,0.7575757575757579 -1.5656565656565653,0.7575757575757579 -1.4646464646464643,0.7575757575757579 -1.363636363636363,0.7575757575757579 -1.2626262626262625,0.7575757575757579 -1.1616161616161613,0.7575757575757579 -1.0606060606060603,0.7575757575757579 -0.9595959595959596,0.7575757575757579 -0.8585858585858579,0.7575757575757579 -0.7575757575757572,0.7575757575757579 -0.6565656565656557,0.7575757575757579 -0.555555555555555,0.7575757575757579 -0.4545454545454544,0.7575757575757579 -0.35353535353535287,0.7575757575757579 -0.2525252525252522,0.7575757575757579 -0.15151515151515066,0.7575757575757579 -0.05050505050505001,0.7575757575757579 0.050505050505051545,0.7575757575757579 0.1515151515151522,0.7575757575757579 0.2525252525252529,0.7575757575757579 0.3535353535353544,0.7575757575757579 0.4545454545454551,0.7575757575757579 0.5555555555555567,0.7575757575757579 0.6565656565656574,0.7575757575757579 0.7575757575757579,0.7575757575757579 0.8585858585858596,0.7575757575757579 0.9595959595959602,0.7575757575757579 1.0606060606060617,0.7575757575757579 1.1616161616161622,0.7575757575757579 1.262626262626263,0.7575757575757579 1.3636363636363644,0.7575757575757579 1.4646464646464652,0.7575757575757579 1.5656565656565666,0.7575757575757579 1.6666666666666674,0.7575757575757579 1.767676767676768,0.7575757575757579 1.8686868686868696,0.7575757575757579 1.9696969696969702,0.7575757575757579 2.070707070707072,0.7575757575757579 2.1717171717171726,0.7575757575757579 2.2727272727272734,0.7575757575757579 2.373737373737375,0.7575757575757579 2.4747474747474754,0.7575757575757579 2.575757575757577,0.7575757575757579 2.676767676767678,0.7575757575757579 2.7777777777777786,0.7575757575757579 2.87878787878788,0.7575757575757579 2.9797979797979806,0.7575757575757579 3.080808080808082,0.7575757575757579 3.181818181818183,0.7575757575757579 3.2828282828282833,0.7575757575757579 3.383838383838384,0.7575757575757579 3.4848484848484866,0.7575757575757579 3.5858585858585874,0.7575757575757579 3.6868686868686877,0.7575757575757579 3.7878787878787885,0.7575757575757579 3.8888888888888893,0.7575757575757579 3.989898989898992,0.7575757575757579 4.090909090909092,0.7575757575757579 4.191919191919193,0.7575757575757579 4.292929292929293,0.7575757575757579 4.393939393939394,0.7575757575757579 4.494949494949497,0.7575757575757579 4.595959595959597,0.7575757575757579 4.696969696969697,0.7575757575757579 4.7979797979797985,0.7575757575757579 4.898989898989901,0.7575757575757579 5.000000000000002,0.7575757575757579" data-type="line" data-label="" points="40.00000000000006,402.3434343434344 49.53535353535369,411.87878787878793 59.07070707070716,421.4141414141415 68.60606060606068,430.94949494949503 78.14141414141426,440.4848484848486 87.67676767676772,440.4848484848486 97.21212121212136,440.4848484848486 106.74747474747483,440.4848484848486 116.28282828282829,440.4848484848486 125.81818181818193,440.4848484848486 135.35353535353545,440.4848484848486 144.88888888888903,440.4848484848486 154.42424242424255,440.4848484848486 163.95959595959607,440.4848484848486 173.4949494949496,440.4848484848486 183.03030303030312,440.4848484848486 192.5656565656567,440.4848484848486 202.10101010101022,440.4848484848486 211.63636363636374,440.4848484848486 221.17171717171726,440.4848484848486 230.70707070707084,440.4848484848486 240.2424242424243,440.4848484848486 249.77777777777783,440.4848484848486 259.3131313131314,440.4848484848486 268.84848484848493,440.4848484848486 278.38383838383845,440.4848484848486 287.91919191919203,440.4848484848486 297.4545454545455,440.4848484848486 306.9898989898991,440.4848484848486 316.5252525252526,440.4848484848486 326.0606060606061,440.4848484848486 335.59595959595964,440.4848484848486 345.13131313131316,440.4848484848486 354.6666666666667,440.4848484848486 364.2020202020202,440.4848484848486 373.7373737373738,440.4848484848486 383.2727272727273,440.4848484848486 392.80808080808083,440.4848484848486 402.34343434343435,440.4848484848486 411.8787878787879,440.4848484848486 421.4141414141414,440.4848484848486 430.949494949495,440.4848484848486 440.4848484848485,440.4848484848486 450.0202020202021,440.4848484848486 459.55555555555554,440.4848484848486 469.09090909090907,440.4848484848486 478.62626262626264,440.4848484848486 488.16161616161617,440.4848484848486 497.69696969696975,440.4848484848486 507.2323232323232,440.4848484848486 516.7676767676768,440.4848484848486 526.3030303030303,440.4848484848486 535.8383838383838,440.4848484848486 545.3737373737374,440.4848484848486 554.9090909090909,440.4848484848486 564.4444444444445,440.4848484848486 573.9797979797979,440.4848484848486 583.5151515151515,440.4848484848486 593.0505050505051,440.4848484848486 602.5858585858585,440.4848484848486 612.1212121212121,440.4848484848486 621.6565656565656,440.4848484848486 631.1919191919192,440.4848484848486 640.7272727272727,440.4848484848486 650.2626262626262,440.4848484848486 659.7979797979798,440.4848484848486 669.3333333333333,440.4848484848486 678.8686868686868,440.4848484848486 688.4040404040404,440.4848484848486 697.9393939393939,440.4848484848486 707.4747474747475,440.4848484848486 717.0101010101009,440.4848484848486 726.5454545454545,440.4848484848486 736.0808080808081,440.4848484848486 745.6161616161615,440.4848484848486 755.1515151515151,440.4848484848486 764.6868686868686,440.4848484848486 774.2222222222222,440.4848484848486 783.7575757575758,440.4848484848486 793.2929292929292,440.4848484848486 802.8282828282828,440.4848484848486 812.3636363636363,440.4848484848486 821.8989898989898,440.4848484848486 831.4343434343433,440.4848484848486 840.969696969697,440.4848484848486 850.5050505050505,440.4848484848486 860.0404040404039,440.4848484848486 869.5757575757575,440.4848484848486 879.111111111111,440.4848484848486 888.6464646464647,440.4848484848486 898.181818181818,440.4848484848486 907.7171717171716,440.4848484848486 917.2525252525251,440.4848484848486 926.7878787878785,440.4848484848486 936.3232323232323,440.4848484848486 945.8585858585857,440.4848484848486 955.3939393939393,440.4848484848486 964.9292929292927,440.4848484848486 974.4646464646464,440.4848484848486 984,440.4848484848486" fill="none" stroke="rgba(0,0,255,0.75)" stroke-width="14.159999999999995"/></g><g><polyline data-points="5.000000000000002,4.292929292929293 4.898989898989901,4.191919191919193 4.7979797979797985,4.090909090909092 4.696969696969697,3.989898989898992 4.595959595959597,3.8888888888888893 4.494949494949497,3.7878787878787885 4.393939393939394,3.6868686868686877 4.292929292929293,3.5858585858585874 4.191919191919193,3.4848484848484866 4.090909090909092,3.383838383838384 3.989898989898992,3.2828282828282833 3.8888888888888893,3.181818181818183 3.7878787878787885,3.080808080808082 3.6868686868686877,2.9797979797979806 3.5858585858585874,2.87878787878788 3.4848484848484866,2.7777777777777786 3.383838383838384,2.676767676767678 3.2828282828282833,2.575757575757577 3.181818181818183,2.4747474747474754 3.080808080808082,2.373737373737375 2.9797979797979806,2.2727272727272734 2.87878787878788,2.1717171717171726 2.7777777777777786,2.070707070707072 2.676767676767678,1.9696969696969702 2.575757575757577,1.8686868686868696 2.4747474747474754,1.767676767676768 2.373737373737375,1.6666666666666674 2.2727272727272734,1.5656565656565666 2.1717171717171726,1.4646464646464652 2.070707070707072,1.3636363636363644 1.9696969696969702,1.3636363636363644 1.8686868686868696,1.3636363636363644 1.767676767676768,1.3636363636363644 1.6666666666666674,1.3636363636363644 1.5656565656565666,1.3636363636363644 1.4646464646464652,1.3636363636363644" data-type="line" data-label="" points="984,106.747474747475 974.4646464646464,116.28282828282846 964.9292929292927,125.81818181818198 955.3939393939393,135.35353535353545 945.8585858585857,144.88888888888908 936.3232323232323,154.4242424242426 926.7878787878785,163.95959595959613 917.2525252525251,173.4949494949496 907.7171717171716,183.03030303030312 898.181818181818,192.56565656565675 888.6464646464647,202.10101010101027 879.111111111111,211.63636363636374 869.5757575757575,221.17171717171726 860.0404040404039,230.70707070707084 850.5050505050505,240.24242424242436 840.969696969697,249.77777777777794 831.4343434343433,259.3131313131314 821.8989898989898,268.84848484848493 812.3636363636363,278.38383838383857 802.8282828282828,287.91919191919203 793.2929292929292,297.4545454545456 783.7575757575758,306.9898989898991 774.2222222222222,316.5252525252526 764.6868686868686,326.06060606060623 755.1515151515151,335.5959595959597 745.6161616161615,345.1313131313133 736.0808080808081,354.66666666666674 726.5454545454545,364.2020202020203 717.0101010101009,373.73737373737384 707.4747474747475,383.27272727272737 697.9393939393939,383.27272727272737 688.4040404040404,383.27272727272737 678.8686868686868,383.27272727272737 669.3333333333333,383.27272727272737 659.7979797979798,383.27272727272737 650.2626262626262,383.27272727272737" fill="none" stroke="rgba(0,0,255,0.75)" stroke-width="14.159999999999995"/></g><g><polyline data-points="1.4646464646464652,1.3636363636363644 1.3636363636363644,1.262626262626263 1.262626262626263,1.1616161616161622 1.1616161616161622,1.0606060606060617 1.0606060606060617,0.9595959595959602 0.9595959595959602,0.8585858585858596 0.8585858585858596,0.7575757575757579 0.7575757575757579,0.6565656565656574 0.6565656565656574,0.5555555555555567 0.6565656565656574,0.4545454545454551 0.6565656565656574,0.3535353535353544 0.6565656565656574,0.2525252525252529 0.6565656565656574,0.1515151515151522" data-type="line" data-label="" points="650.2626262626262,383.27272727272737 640.7272727272727,392.80808080808094 631.1919191919192,402.3434343434344 621.6565656565656,411.87878787878793 612.1212121212121,421.4141414141415 602.5858585858585,430.94949494949503 593.0505050505051,440.4848484848486 583.5151515151515,450.0202020202021 573.9797979797979,459.5555555555556 573.9797979797979,469.0909090909092 573.9797979797979,478.6262626262627 573.9797979797979,488.1616161616163 573.9797979797979,497.69696969696975" fill="none" stroke="rgba(255,0,0,0.75)" stroke-width="14.159999999999995"/></g><g><polyline data-points="0.6565656565656574,0.1515151515151522 0.5555555555555567,0.050505050505051545 0.4545454545454551,-0.05050505050505001 0.3535353535353544,-0.15151515151515066 0.2525252525252529,-0.2525252525252522 0.1515151515151522,-0.35353535353535287 0.050505050505051545,-0.4545454545454544 -0.05050505050505001,-0.555555555555555 -0.15151515151515066,-0.6565656565656557 -0.2525252525252522,-0.7575757575757572 -0.35353535353535287,-0.8585858585858579 -0.4545454545454544,-0.9595959595959596 -0.555555555555555,-1.0606060606060603 -0.6565656565656557,-1.1616161616161613 -0.7575757575757572,-1.2626262626262625 -0.8585858585858579,-1.363636363636363 -0.9595959595959596,-1.4646464646464643 -1.0606060606060603,-1.5656565656565653 -1.1616161616161613,-1.6666666666666665 -1.2626262626262625,-1.7676767676767675 -1.363636363636363,-1.8686868686868683 -1.4646464646464643,-1.9696969696969693 -1.5656565656565653,-2.07070707070707 -1.6666666666666665,-2.1717171717171713 -1.7676767676767675,-2.2727272727272725 -1.8686868686868683,-2.3737373737373733 -1.9696969696969693,-2.474747474747474 -2.07070707070707,-2.5757575757575752 -2.1717171717171713,-2.6767676767676765 -2.2727272727272725,-2.7777777777777777 -2.3737373737373733,-2.8787878787878785 -2.474747474747474,-2.8787878787878785 -2.5757575757575752,-2.8787878787878785 -2.6767676767676765,-2.8787878787878785 -2.7777777777777777,-2.9797979797979792 -2.8787878787878785,-2.9797979797979792 -2.9797979797979792,-2.9797979797979792 -3.0808080808080804,-2.9797979797979792 -3.1818181818181817,-2.9797979797979792 -3.2828282828282824,-2.9797979797979792 -3.383838383838383,-2.9797979797979792 -3.484848484848485,-2.9797979797979792 -3.5858585858585856,-2.9797979797979792 -3.6868686868686864,-2.9797979797979792 -3.7878787878787876,-3.0808080808080804 -3.8888888888888884,-3.0808080808080804 -3.98989898989899,-3.0808080808080804 -4.090909090909091,-3.0808080808080804 -4.191919191919193,-3.0808080808080804 -4.292929292929293,-3.0808080808080804 -4.393939393939394,-3.0808080808080804 -4.494949494949496,-3.0808080808080804 -4.595959595959596,-3.1818181818181817 -4.696969696969697,-3.0808080808080804 -4.7979797979797985,-2.9797979797979792 -4.898989898989899,-2.8787878787878785 -5.000000000000001,-2.7777777777777777" data-type="line" data-label="" points="573.9797979797979,497.69696969696975 564.4444444444445,507.23232323232327 554.9090909090909,516.7676767676768 545.3737373737374,526.3030303030304 535.8383838383838,535.838383838384 526.3030303030303,545.3737373737374 516.7676767676768,554.909090909091 507.2323232323232,564.4444444444445 497.69696969696975,573.979797979798 488.16161616161617,583.5151515151516 478.62626262626264,593.0505050505051 469.09090909090907,602.5858585858587 459.55555555555554,612.1212121212121 450.0202020202021,621.6565656565657 440.4848484848485,631.1919191919193 430.949494949495,640.7272727272727 421.4141414141414,650.2626262626263 411.8787878787879,659.7979797979798 402.34343434343435,669.3333333333334 392.80808080808083,678.8686868686868 383.2727272727273,688.4040404040404 373.7373737373738,697.939393939394 364.2020202020202,707.4747474747475 354.6666666666667,717.010101010101 345.13131313131316,726.5454545454545 335.59595959595964,736.0808080808081 326.0606060606061,745.6161616161615 316.5252525252526,755.1515151515151 306.9898989898991,764.6868686868687 297.4545454545455,774.2222222222222 287.91919191919203,783.7575757575758 278.38383838383845,783.7575757575758 268.84848484848493,783.7575757575758 259.3131313131314,783.7575757575758 249.77777777777783,793.2929292929292 240.2424242424243,793.2929292929292 230.70707070707084,793.2929292929292 221.17171717171726,793.2929292929292 211.63636363636374,793.2929292929292 202.10101010101022,793.2929292929292 192.5656565656567,793.2929292929292 183.03030303030312,793.2929292929292 173.4949494949496,793.2929292929292 163.95959595959607,793.2929292929292 154.42424242424255,802.8282828282828 144.88888888888903,802.8282828282828 135.35353535353545,802.8282828282828 125.81818181818193,802.8282828282828 116.28282828282829,802.8282828282828 106.74747474747483,802.8282828282828 97.21212121212136,802.8282828282828 87.67676767676772,802.8282828282828 78.14141414141426,812.3636363636363 68.60606060606068,802.8282828282828 59.07070707070716,793.2929292929292 49.53535353535369,783.7575757575758 40.00000000000006,774.2222222222222" fill="none" stroke="rgba(0,0,255,0.75)" stroke-width="14.159999999999995"/></g><g><polyline data-points="-2.474747474747474,5.000000000000002 -2.474747474747474,4.898989898989901 -2.474747474747474,4.7979797979797985 -2.474747474747474,4.696969696969697 -2.474747474747474,4.595959595959597 -2.474747474747474,4.494949494949497 -2.474747474747474,4.393939393939394 -2.474747474747474,4.292929292929293 -2.474747474747474,4.191919191919193 -2.474747474747474,4.090909090909092 -2.474747474747474,3.989898989898992 -2.474747474747474,3.8888888888888893 -2.474747474747474,3.7878787878787885 -2.474747474747474,3.6868686868686877 -2.474747474747474,3.5858585858585874 -2.474747474747474,3.4848484848484866 -2.474747474747474,3.383838383838384 -2.474747474747474,3.2828282828282833" data-type="line" data-label="" points="278.38383838383845,40.000000000000114 278.38383838383845,49.53535353535369 278.38383838383845,59.07070707070733 278.38383838383845,68.60606060606085 278.38383838383845,78.14141414141432 278.38383838383845,87.67676767676778 278.38383838383845,97.21212121212153 278.38383838383845,106.747474747475 278.38383838383845,116.28282828282846 278.38383838383845,125.81818181818198 278.38383838383845,135.35353535353545 278.38383838383845,144.88888888888908 278.38383838383845,154.4242424242426 278.38383838383845,163.95959595959613 278.38383838383845,173.4949494949496 278.38383838383845,183.03030303030312 278.38383838383845,192.56565656565675 278.38383838383845,202.10101010101027" fill="none" stroke="rgba(255,0,0,0.75)" stroke-width="14.159999999999995"/></g><g><polyline data-points="-2.474747474747474,3.2828282828282833 -2.474747474747474,3.181818181818183 -2.474747474747474,3.080808080808082 -2.474747474747474,2.9797979797979806 -2.474747474747474,2.87878787878788 -2.474747474747474,2.7777777777777786 -2.474747474747474,2.676767676767678 -2.474747474747474,2.575757575757577 -2.474747474747474,2.4747474747474754 -2.474747474747474,2.373737373737375 -2.474747474747474,2.2727272727272734 -2.474747474747474,2.1717171717171726 -2.474747474747474,2.070707070707072 -2.474747474747474,1.9696969696969702 -2.474747474747474,1.8686868686868696 -2.474747474747474,1.767676767676768 -2.474747474747474,1.6666666666666674 -2.474747474747474,1.5656565656565666 -2.474747474747474,1.4646464646464652 -2.474747474747474,1.3636363636363644" data-type="line" data-label="" points="278.38383838383845,202.10101010101027 278.38383838383845,211.63636363636374 278.38383838383845,221.17171717171726 278.38383838383845,230.70707070707084 278.38383838383845,240.24242424242436 278.38383838383845,249.77777777777794 278.38383838383845,259.3131313131314 278.38383838383845,268.84848484848493 278.38383838383845,278.38383838383857 278.38383838383845,287.91919191919203 278.38383838383845,297.4545454545456 278.38383838383845,306.9898989898991 278.38383838383845,316.5252525252526 278.38383838383845,326.06060606060623 278.38383838383845,335.5959595959597 278.38383838383845,345.1313131313133 278.38383838383845,354.66666666666674 278.38383838383845,364.2020202020203 278.38383838383845,373.73737373737384 278.38383838383845,383.27272727272737" fill="none" stroke="rgba(0,0,255,0.75)" stroke-width="14.159999999999995"/></g><g><polyline data-points="-2.474747474747474,1.3636363636363644 -2.474747474747474,1.262626262626263 -2.474747474747474,1.1616161616161622 -2.474747474747474,1.0606060606060617 -2.474747474747474,0.9595959595959602 -2.474747474747474,0.8585858585858596 -2.474747474747474,0.7575757575757579 -2.474747474747474,0.6565656565656574 -2.474747474747474,0.5555555555555567 -2.474747474747474,0.4545454545454551 -2.474747474747474,0.3535353535353544 -2.474747474747474,0.2525252525252529 -2.474747474747474,0.1515151515151522 -2.474747474747474,0.050505050505051545 -2.474747474747474,-0.05050505050505001 -2.474747474747474,-0.15151515151515066 -2.474747474747474,-0.2525252525252522 -2.474747474747474,-0.35353535353535287 -2.474747474747474,-0.4545454545454544 -2.474747474747474,-0.555555555555555 -2.474747474747474,-0.6565656565656557 -2.474747474747474,-0.7575757575757572 -2.474747474747474,-0.8585858585858579 -2.474747474747474,-0.9595959595959596 -2.474747474747474,-1.0606060606060603 -2.474747474747474,-1.1616161616161613 -2.474747474747474,-1.2626262626262625 -2.474747474747474,-1.363636363636363 -2.474747474747474,-1.4646464646464643 -2.474747474747474,-1.5656565656565653 -2.474747474747474,-1.6666666666666665 -2.474747474747474,-1.7676767676767675 -2.474747474747474,-1.8686868686868683 -2.474747474747474,-1.9696969696969693 -2.474747474747474,-2.07070707070707 -2.474747474747474,-2.1717171717171713 -2.474747474747474,-2.2727272727272725 -2.474747474747474,-2.3737373737373733 -2.474747474747474,-2.474747474747474 -2.474747474747474,-2.5757575757575752 -2.474747474747474,-2.6767676767676765 -2.474747474747474,-2.7777777777777777 -2.474747474747474,-2.8787878787878785 -2.474747474747474,-2.9797979797979792 -2.474747474747474,-3.0808080808080804 -2.3737373737373733,-3.1818181818181817 -2.2727272727272725,-3.2828282828282824 -2.1717171717171713,-3.383838383838383" data-type="line" data-label="" points="278.38383838383845,383.27272727272737 278.38383838383845,392.80808080808094 278.38383838383845,402.3434343434344 278.38383838383845,411.87878787878793 278.38383838383845,421.4141414141415 278.38383838383845,430.94949494949503 278.38383838383845,440.4848484848486 278.38383838383845,450.0202020202021 278.38383838383845,459.5555555555556 278.38383838383845,469.0909090909092 278.38383838383845,478.6262626262627 278.38383838383845,488.1616161616163 278.38383838383845,497.69696969696975 278.38383838383845,507.23232323232327 278.38383838383845,516.7676767676768 278.38383838383845,526.3030303030304 278.38383838383845,535.838383838384 278.38383838383845,545.3737373737374 278.38383838383845,554.909090909091 278.38383838383845,564.4444444444445 278.38383838383845,573.979797979798 278.38383838383845,583.5151515151516 278.38383838383845,593.0505050505051 278.38383838383845,602.5858585858587 278.38383838383845,612.1212121212121 278.38383838383845,621.6565656565657 278.38383838383845,631.1919191919193 278.38383838383845,640.7272727272727 278.38383838383845,650.2626262626263 278.38383838383845,659.7979797979798 278.38383838383845,669.3333333333334 278.38383838383845,678.8686868686868 278.38383838383845,688.4040404040404 278.38383838383845,697.939393939394 278.38383838383845,707.4747474747475 278.38383838383845,717.010101010101 278.38383838383845,726.5454545454545 278.38383838383845,736.0808080808081 278.38383838383845,745.6161616161615 278.38383838383845,755.1515151515151 278.38383838383845,764.6868686868687 278.38383838383845,774.2222222222222 278.38383838383845,783.7575757575758 278.38383838383845,793.2929292929292 278.38383838383845,802.8282828282828 287.91919191919203,812.3636363636363 297.4545454545455,821.8989898989898 306.9898989898991,831.4343434343434" fill="none" stroke="rgba(255,0,0,0.75)" stroke-width="14.159999999999995"/></g><g><polyline data-points="-2.1717171717171713,-3.383838383838383 -2.2727272727272725,-3.383838383838383 -2.3737373737373733,-3.383838383838383 -2.474747474747474,-3.383838383838383 -2.5757575757575752,-3.383838383838383 -2.6767676767676765,-3.383838383838383 -2.7777777777777777,-3.383838383838383 -2.8787878787878785,-3.383838383838383 -2.9797979797979792,-3.383838383838383 -3.0808080808080804,-3.383838383838383 -3.1818181818181817,-3.383838383838383 -3.2828282828282824,-3.383838383838383 -3.383838383838383,-3.383838383838383 -3.484848484848485,-3.383838383838383 -3.5858585858585856,-3.383838383838383 -3.6868686868686864,-3.383838383838383 -3.7878787878787876,-3.383838383838383 -3.8888888888888884,-3.383838383838383 -3.98989898989899,-3.383838383838383 -4.090909090909091,-3.383838383838383 -4.191919191919193,-3.383838383838383 -4.292929292929293,-3.383838383838383 -4.393939393939394,-3.484848484848485 -4.393939393939394,-3.5858585858585856 -4.393939393939394,-3.6868686868686864 -4.393939393939394,-3.7878787878787876 -4.393939393939394,-3.8888888888888884 -4.393939393939394,-3.98989898989899 -4.292929292929293,-4.090909090909091 -4.292929292929293,-4.191919191919193 -4.292929292929293,-4.292929292929293 -4.292929292929293,-4.393939393939394 -4.292929292929293,-4.494949494949496 -4.292929292929293,-4.595959595959596 -4.292929292929293,-4.696969696969697 -4.292929292929293,-4.7979797979797985 -4.292929292929293,-4.898989898989899 -4.292929292929293,-5.000000000000001" data-type="line" data-label="" points="306.9898989898991,831.4343434343434 297.4545454545455,831.4343434343434 287.91919191919203,831.4343434343434 278.38383838383845,831.4343434343434 268.84848484848493,831.4343434343434 259.3131313131314,831.4343434343434 249.77777777777783,831.4343434343434 240.2424242424243,831.4343434343434 230.70707070707084,831.4343434343434 221.17171717171726,831.4343434343434 211.63636363636374,831.4343434343434 202.10101010101022,831.4343434343434 192.5656565656567,831.4343434343434 183.03030303030312,831.4343434343434 173.4949494949496,831.4343434343434 163.95959595959607,831.4343434343434 154.42424242424255,831.4343434343434 144.88888888888903,831.4343434343434 135.35353535353545,831.4343434343434 125.81818181818193,831.4343434343434 116.28282828282829,831.4343434343434 106.74747474747483,831.4343434343434 97.21212121212136,840.969696969697 97.21212121212136,850.5050505050505 97.21212121212136,860.0404040404039 97.21212121212136,869.5757575757575 97.21212121212136,879.1111111111111 97.21212121212136,888.6464646464647 106.74747474747483,898.1818181818181 106.74747474747483,907.7171717171718 106.74747474747483,917.2525252525252 106.74747474747483,926.7878787878788 106.74747474747483,936.3232323232323 106.74747474747483,945.8585858585858 106.74747474747483,955.3939393939394 106.74747474747483,964.9292929292928 106.74747474747483,974.4646464646464 106.74747474747483,984" fill="none" stroke="rgba(0,0,255,0.75)" stroke-width="14.159999999999995"/></g><g><polyline data-points="0.5555555555555567,5.000000000000002 0.6565656565656574,4.898989898989901 0.7575757575757579,4.7979797979797985 0.8585858585858596,4.696969696969697 0.9595959595959602,4.595959595959597 1.0606060606060617,4.494949494949497 1.1616161616161622,4.393939393939394 1.262626262626263,4.292929292929293 1.3636363636363644,4.191919191919193 1.4646464646464652,4.090909090909092 1.5656565656565666,3.989898989898992 1.6666666666666674,3.8888888888888893 1.767676767676768,3.7878787878787885 1.8686868686868696,3.6868686868686877 1.9696969696969702,3.5858585858585874 2.070707070707072,3.4848484848484866 2.1717171717171726,3.383838383838384 2.2727272727272734,3.2828282828282833 2.373737373737375,3.181818181818183 2.4747474747474754,3.080808080808082 2.575757575757577,2.9797979797979806 2.676767676767678,2.87878787878788 2.7777777777777786,2.7777777777777786 2.87878787878788,2.676767676767678 2.9797979797979806,2.575757575757577 3.080808080808082,2.4747474747474754 3.181818181818183,2.373737373737375 3.2828282828282833,2.2727272727272734 3.383838383838384,2.1717171717171726 3.4848484848484866,2.070707070707072 3.5858585858585874,1.9696969696969702 3.6868686868686877,1.8686868686868696 3.7878787878787885,1.767676767676768 3.8888888888888893,1.767676767676768 3.989898989898992,1.767676767676768 4.090909090909092,1.767676767676768 4.191919191919193,1.767676767676768 4.292929292929293,1.767676767676768 4.393939393939394,1.767676767676768 4.494949494949497,1.767676767676768 4.595959595959597,1.767676767676768 4.696969696969697,1.767676767676768 4.7979797979797985,1.767676767676768 4.898989898989901,1.767676767676768 5.000000000000002,1.767676767676768" data-type="line" data-label="" points="564.4444444444445,40.000000000000114 573.9797979797979,49.53535353535369 583.5151515151515,59.07070707070733 593.0505050505051,68.60606060606085 602.5858585858585,78.14141414141432 612.1212121212121,87.67676767676778 621.6565656565656,97.21212121212153 631.1919191919192,106.747474747475 640.7272727272727,116.28282828282846 650.2626262626262,125.81818181818198 659.7979797979798,135.35353535353545 669.3333333333333,144.88888888888908 678.8686868686868,154.4242424242426 688.4040404040404,163.95959595959613 697.9393939393939,173.4949494949496 707.4747474747475,183.03030303030312 717.0101010101009,192.56565656565675 726.5454545454545,202.10101010101027 736.0808080808081,211.63636363636374 745.6161616161615,221.17171717171726 755.1515151515151,230.70707070707084 764.6868686868686,240.24242424242436 774.2222222222222,249.77777777777794 783.7575757575758,259.3131313131314 793.2929292929292,268.84848484848493 802.8282828282828,278.38383838383857 812.3636363636363,287.91919191919203 821.8989898989898,297.4545454545456 831.4343434343433,306.9898989898991 840.969696969697,316.5252525252526 850.5050505050505,326.06060606060623 860.0404040404039,335.5959595959597 869.5757575757575,345.1313131313133 879.111111111111,345.1313131313133 888.6464646464647,345.1313131313133 898.181818181818,345.1313131313133 907.7171717171716,345.1313131313133 917.2525252525251,345.1313131313133 926.7878787878785,345.1313131313133 936.3232323232323,345.1313131313133 945.8585858585857,345.1313131313133 955.3939393939393,345.1313131313133 964.9292929292927,345.1313131313133 974.4646464646464,345.1313131313133 984,345.1313131313133" fill="none" stroke="rgba(255,0,0,0.75)" stroke-width="14.159999999999995"/></g><g><polyline data-points="5.000000000000002,-0.15151515151515066 4.898989898989901,-0.05050505050505001 4.7979797979797985,0.050505050505051545 4.696969696969697,0.1515151515151522 4.595959595959597,0.1515151515151522 4.494949494949497,0.1515151515151522 4.393939393939394,0.1515151515151522 4.292929292929293,0.1515151515151522 4.191919191919193,0.1515151515151522 4.090909090909092,0.1515151515151522 3.989898989898992,0.1515151515151522" data-type="line" data-label="" points="984,526.3030303030304 974.4646464646464,516.7676767676768 964.9292929292927,507.23232323232327 955.3939393939393,497.69696969696975 945.8585858585857,497.69696969696975 936.3232323232323,497.69696969696975 926.7878787878785,497.69696969696975 917.2525252525251,497.69696969696975 907.7171717171716,497.69696969696975 898.181818181818,497.69696969696975 888.6464646464647,497.69696969696975" fill="none" stroke="rgba(0,0,255,0.75)" stroke-width="14.159999999999995"/></g><g><polyline data-points="3.989898989898992,0.1515151515151522 3.989898989898992,0.2525252525252529 3.989898989898992,0.3535353535353544 3.8888888888888893,0.4545454545454551 3.7878787878787885,0.5555555555555567 3.6868686868686877,0.6565656565656574 3.5858585858585874,0.7575757575757579 3.4848484848484866,0.8585858585858596 3.383838383838384,0.9595959595959602 3.383838383838384,1.0606060606060617 3.383838383838384,1.1616161616161622 3.383838383838384,1.262626262626263 3.383838383838384,1.3636363636363644" data-type="line" data-label="" points="888.6464646464647,497.69696969696975 888.6464646464647,488.1616161616163 888.6464646464647,478.6262626262627 879.111111111111,469.0909090909092 869.5757575757575,459.5555555555556 860.0404040404039,450.0202020202021 850.5050505050505,440.4848484848486 840.969696969697,430.94949494949503 831.4343434343433,421.4141414141415 831.4343434343433,411.87878787878793 831.4343434343433,402.3434343434344 831.4343434343433,392.80808080808094 831.4343434343433,383.27272727272737" fill="none" stroke="rgba(255,0,0,0.75)" stroke-width="14.159999999999995"/></g><g><polyline data-points="3.383838383838384,1.3636363636363644 3.4848484848484866,1.4646464646464652 3.5858585858585874,1.5656565656565666 3.6868686868686877,1.6666666666666674 3.7878787878787885,1.767676767676768 3.8888888888888893,1.8686868686868696 3.989898989898992,1.9696969696969702 4.090909090909092,2.070707070707072 4.191919191919193,2.1717171717171726 4.292929292929293,2.2727272727272734 4.393939393939394,2.373737373737375 4.494949494949497,2.4747474747474754 4.595959595959597,2.575757575757577 4.696969696969697,2.676767676767678 4.7979797979797985,2.7777777777777786 4.898989898989901,2.87878787878788 5.000000000000002,2.9797979797979806 5.000000000000002,3.080808080808082 5.000000000000002,3.181818181818183" data-type="line" data-label="" points="831.4343434343433,383.27272727272737 840.969696969697,373.73737373737384 850.5050505050505,364.2020202020203 860.0404040404039,354.66666666666674 869.5757575757575,345.1313131313133 879.111111111111,335.5959595959597 888.6464646464647,326.06060606060623 898.181818181818,316.5252525252526 907.7171717171716,306.9898989898991 917.2525252525251,297.4545454545456 926.7878787878785,287.91919191919203 936.3232323232323,278.38383838383857 945.8585858585857,268.84848484848493 955.3939393939393,259.3131313131314 964.9292929292927,249.77777777777794 974.4646464646464,240.24242424242436 984,230.70707070707084 984,221.17171717171726 984,211.63636363636374" fill="none" stroke="rgba(0,0,255,0.75)" stroke-width="14.159999999999995"/></g><g><polyline data-points="-5.000000000000001,-1.7676767676767675 -4.898989898989899,-1.7676767676767675 -4.7979797979797985,-1.7676767676767675 -4.696969696969697,-1.7676767676767675 -4.595959595959596,-1.7676767676767675 -4.494949494949496,-1.7676767676767675 -4.393939393939394,-1.7676767676767675 -4.292929292929293,-1.7676767676767675 -4.191919191919193,-1.7676767676767675 -4.090909090909091,-1.7676767676767675 -3.98989898989899,-1.7676767676767675 -3.8888888888888884,-1.7676767676767675 -3.7878787878787876,-1.7676767676767675 -3.6868686868686864,-1.7676767676767675 -3.5858585858585856,-1.7676767676767675 -3.484848484848485,-1.7676767676767675 -3.383838383838383,-1.7676767676767675 -3.2828282828282824,-1.7676767676767675 -3.1818181818181817,-1.7676767676767675 -3.0808080808080804,-1.7676767676767675 -2.9797979797979792,-1.7676767676767675 -2.8787878787878785,-1.7676767676767675 -2.7777777777777777,-1.7676767676767675 -2.6767676767676765,-1.7676767676767675 -2.5757575757575752,-1.7676767676767675 -2.474747474747474,-1.7676767676767675 -2.3737373737373733,-1.7676767676767675 -2.2727272727272725,-1.7676767676767675 -2.1717171717171713,-1.7676767676767675 -2.07070707070707,-1.7676767676767675 -1.9696969696969693,-1.6666666666666665 -1.8686868686868683,-1.5656565656565653" data-type="line" data-label="" points="40.00000000000006,678.8686868686868 49.53535353535369,678.8686868686868 59.07070707070716,678.8686868686868 68.60606060606068,678.8686868686868 78.14141414141426,678.8686868686868 87.67676767676772,678.8686868686868 97.21212121212136,678.8686868686868 106.74747474747483,678.8686868686868 116.28282828282829,678.8686868686868 125.81818181818193,678.8686868686868 135.35353535353545,678.8686868686868 144.88888888888903,678.8686868686868 154.42424242424255,678.8686868686868 163.95959595959607,678.8686868686868 173.4949494949496,678.8686868686868 183.03030303030312,678.8686868686868 192.5656565656567,678.8686868686868 202.10101010101022,678.8686868686868 211.63636363636374,678.8686868686868 221.17171717171726,678.8686868686868 230.70707070707084,678.8686868686868 240.2424242424243,678.8686868686868 249.77777777777783,678.8686868686868 259.3131313131314,678.8686868686868 268.84848484848493,678.8686868686868 278.38383838383845,678.8686868686868 287.91919191919203,678.8686868686868 297.4545454545455,678.8686868686868 306.9898989898991,678.8686868686868 316.5252525252526,678.8686868686868 326.0606060606061,669.3333333333334 335.59595959595964,659.7979797979798" fill="none" stroke="rgba(0,0,255,0.75)" stroke-width="14.159999999999995"/></g><g><polyline data-points="-1.8686868686868683,-1.5656565656565653 -1.7676767676767675,-1.6666666666666665 -1.6666666666666665,-1.7676767676767675 -1.5656565656565653,-1.8686868686868683 -1.4646464646464643,-1.9696969696969693 -1.363636363636363,-2.07070707070707 -1.2626262626262625,-2.1717171717171713 -1.1616161616161613,-2.2727272727272725 -1.0606060606060603,-2.3737373737373733 -0.9595959595959596,-2.474747474747474 -0.8585858585858579,-2.474747474747474 -0.7575757575757572,-2.474747474747474 -0.6565656565656557,-2.474747474747474 -0.555555555555555,-2.474747474747474 -0.4545454545454544,-2.474747474747474 -0.35353535353535287,-2.474747474747474 -0.2525252525252522,-2.474747474747474 -0.15151515151515066,-2.474747474747474 -0.05050505050505001,-2.474747474747474 0.050505050505051545,-2.474747474747474 0.1515151515151522,-2.474747474747474 0.2525252525252529,-2.474747474747474 0.3535353535353544,-2.474747474747474 0.4545454545454551,-2.474747474747474 0.5555555555555567,-2.474747474747474 0.6565656565656574,-2.474747474747474 0.7575757575757579,-2.474747474747474 0.8585858585858596,-2.474747474747474 0.9595959595959602,-2.474747474747474 1.0606060606060617,-2.474747474747474 1.1616161616161622,-2.474747474747474 1.262626262626263,-2.474747474747474 1.3636363636363644,-2.474747474747474 1.4646464646464652,-2.474747474747474 1.5656565656565666,-2.474747474747474 1.6666666666666674,-2.474747474747474" data-type="line" data-label="" points="335.59595959595964,659.7979797979798 345.13131313131316,669.3333333333334 354.6666666666667,678.8686868686868 364.2020202020202,688.4040404040404 373.7373737373738,697.939393939394 383.2727272727273,707.4747474747475 392.80808080808083,717.010101010101 402.34343434343435,726.5454545454545 411.8787878787879,736.0808080808081 421.4141414141414,745.6161616161615 430.949494949495,745.6161616161615 440.4848484848485,745.6161616161615 450.0202020202021,745.6161616161615 459.55555555555554,745.6161616161615 469.09090909090907,745.6161616161615 478.62626262626264,745.6161616161615 488.16161616161617,745.6161616161615 497.69696969696975,745.6161616161615 507.2323232323232,745.6161616161615 516.7676767676768,745.6161616161615 526.3030303030303,745.6161616161615 535.8383838383838,745.6161616161615 545.3737373737374,745.6161616161615 554.9090909090909,745.6161616161615 564.4444444444445,745.6161616161615 573.9797979797979,745.6161616161615 583.5151515151515,745.6161616161615 593.0505050505051,745.6161616161615 602.5858585858585,745.6161616161615 612.1212121212121,745.6161616161615 621.6565656565656,745.6161616161615 631.1919191919192,745.6161616161615 640.7272727272727,745.6161616161615 650.2626262626262,745.6161616161615 659.7979797979798,745.6161616161615 669.3333333333333,745.6161616161615" fill="none" stroke="rgba(255,0,0,0.75)" stroke-width="14.159999999999995"/></g><g><polyline data-points="1.6666666666666674,-2.474747474747474 1.767676767676768,-2.474747474747474 1.8686868686868696,-2.474747474747474 1.9696969696969702,-2.474747474747474 2.070707070707072,-2.474747474747474 2.1717171717171726,-2.474747474747474 2.2727272727272734,-2.474747474747474 2.373737373737375,-2.474747474747474 2.4747474747474754,-2.474747474747474 2.575757575757577,-2.474747474747474 2.676767676767678,-2.474747474747474 2.7777777777777786,-2.474747474747474 2.87878787878788,-2.474747474747474 2.9797979797979806,-2.474747474747474 3.080808080808082,-2.474747474747474 3.181818181818183,-2.474747474747474 3.2828282828282833,-2.474747474747474 3.383838383838384,-2.474747474747474 3.4848484848484866,-2.474747474747474 3.5858585858585874,-2.474747474747474 3.6868686868686877,-2.474747474747474 3.7878787878787885,-2.474747474747474 3.8888888888888893,-2.474747474747474 3.989898989898992,-2.474747474747474 4.090909090909092,-2.5757575757575752 4.191919191919193,-2.6767676767676765 4.292929292929293,-2.7777777777777777 4.393939393939394,-2.7777777777777777 4.494949494949497,-2.7777777777777777 4.595959595959597,-2.7777777777777777 4.696969696969697,-2.7777777777777777 4.7979797979797985,-2.7777777777777777 4.898989898989901,-2.7777777777777777 5.000000000000002,-2.8787878787878785" data-type="line" data-label="" points="669.3333333333333,745.6161616161615 678.8686868686868,745.6161616161615 688.4040404040404,745.6161616161615 697.9393939393939,745.6161616161615 707.4747474747475,745.6161616161615 717.0101010101009,745.6161616161615 726.5454545454545,745.6161616161615 736.0808080808081,745.6161616161615 745.6161616161615,745.6161616161615 755.1515151515151,745.6161616161615 764.6868686868686,745.6161616161615 774.2222222222222,745.6161616161615 783.7575757575758,745.6161616161615 793.2929292929292,745.6161616161615 802.8282828282828,745.6161616161615 812.3636363636363,745.6161616161615 821.8989898989898,745.6161616161615 831.4343434343433,745.6161616161615 840.969696969697,745.6161616161615 850.5050505050505,745.6161616161615 860.0404040404039,745.6161616161615 869.5757575757575,745.6161616161615 879.111111111111,745.6161616161615 888.6464646464647,745.6161616161615 898.181818181818,755.1515151515151 907.7171717171716,764.6868686868687 917.2525252525251,774.2222222222222 926.7878787878785,774.2222222222222 936.3232323232323,774.2222222222222 945.8585858585857,774.2222222222222 955.3939393939393,774.2222222222222 964.9292929292927,774.2222222222222 974.4646464646464,774.2222222222222 984,783.7575757575758" fill="none" stroke="rgba(0,0,255,0.75)" stroke-width="14.159999999999995"/></g><g><polyline data-points="5.000000000000002,-1.7676767676767675 4.898989898989901,-1.7676767676767675 4.7979797979797985,-1.8686868686868683 4.696969696969697,-1.9696969696969693 4.595959595959597,-1.9696969696969693 4.494949494949497,-1.9696969696969693 4.393939393939394,-1.9696969696969693 4.292929292929293,-1.9696969696969693 4.191919191919193,-1.9696969696969693 4.090909090909092,-1.9696969696969693 3.989898989898992,-1.9696969696969693 3.8888888888888893,-1.9696969696969693 3.7878787878787885,-1.9696969696969693 3.6868686868686877,-1.9696969696969693 3.5858585858585874,-1.9696969696969693 3.4848484848484866,-1.9696969696969693 3.383838383838384,-1.9696969696969693 3.2828282828282833,-1.9696969696969693 3.181818181818183,-1.9696969696969693 3.080808080808082,-1.9696969696969693 2.9797979797979806,-1.9696969696969693 2.87878787878788,-1.9696969696969693 2.7777777777777786,-1.9696969696969693 2.676767676767678,-1.9696969696969693 2.575757575757577,-1.9696969696969693 2.4747474747474754,-1.9696969696969693 2.373737373737375,-1.9696969696969693 2.2727272727272734,-1.9696969696969693 2.1717171717171726,-1.9696969696969693 2.070707070707072,-1.9696969696969693 1.9696969696969702,-1.9696969696969693 1.8686868686868696,-1.9696969696969693 1.767676767676768,-1.9696969696969693 1.6666666666666674,-1.9696969696969693 1.5656565656565666,-2.07070707070707 1.4646464646464652,-2.07070707070707 1.3636363636363644,-2.1717171717171713 1.262626262626263,-2.2727272727272725 1.1616161616161622,-2.3737373737373733 1.0606060606060617,-2.474747474747474 0.9595959595959602,-2.5757575757575752 0.8585858585858596,-2.6767676767676765 0.7575757575757579,-2.7777777777777777 0.6565656565656574,-2.8787878787878785 0.5555555555555567,-2.9797979797979792 0.4545454545454551,-3.0808080808080804 0.3535353535353544,-3.1818181818181817 0.2525252525252529,-3.2828282828282824 0.1515151515151522,-3.383838383838383 0.050505050505051545,-3.484848484848485 -0.05050505050505001,-3.5858585858585856 -0.15151515151515066,-3.6868686868686864 -0.2525252525252522,-3.7878787878787876 -0.35353535353535287,-3.8888888888888884 -0.4545454545454544,-3.8888888888888884 -0.555555555555555,-3.8888888888888884 -0.6565656565656557,-3.8888888888888884 -0.7575757575757572,-3.8888888888888884 -0.8585858585858579,-3.8888888888888884 -0.9595959595959596,-3.8888888888888884 -1.0606060606060603,-3.8888888888888884 -1.1616161616161613,-3.8888888888888884 -1.2626262626262625,-3.8888888888888884 -1.363636363636363,-3.8888888888888884 -1.4646464646464643,-3.8888888888888884 -1.5656565656565653,-3.8888888888888884" data-type="line" data-label="" points="984,678.8686868686868 974.4646464646464,678.8686868686868 964.9292929292927,688.4040404040404 955.3939393939393,697.939393939394 945.8585858585857,697.939393939394 936.3232323232323,697.939393939394 926.7878787878785,697.939393939394 917.2525252525251,697.939393939394 907.7171717171716,697.939393939394 898.181818181818,697.939393939394 888.6464646464647,697.939393939394 879.111111111111,697.939393939394 869.5757575757575,697.939393939394 860.0404040404039,697.939393939394 850.5050505050505,697.939393939394 840.969696969697,697.939393939394 831.4343434343433,697.939393939394 821.8989898989898,697.939393939394 812.3636363636363,697.939393939394 802.8282828282828,697.939393939394 793.2929292929292,697.939393939394 783.7575757575758,697.939393939394 774.2222222222222,697.939393939394 764.6868686868686,697.939393939394 755.1515151515151,697.939393939394 745.6161616161615,697.939393939394 736.0808080808081,697.939393939394 726.5454545454545,697.939393939394 717.0101010101009,697.939393939394 707.4747474747475,697.939393939394 697.9393939393939,697.939393939394 688.4040404040404,697.939393939394 678.8686868686868,697.939393939394 669.3333333333333,697.939393939394 659.7979797979798,707.4747474747475 650.2626262626262,707.4747474747475 640.7272727272727,717.010101010101 631.1919191919192,726.5454545454545 621.6565656565656,736.0808080808081 612.1212121212121,745.6161616161615 602.5858585858585,755.1515151515151 593.0505050505051,764.6868686868687 583.5151515151515,774.2222222222222 573.9797979797979,783.7575757575758 564.4444444444445,793.2929292929292 554.9090909090909,802.8282828282828 545.3737373737374,812.3636363636363 535.8383838383838,821.8989898989898 526.3030303030303,831.4343434343434 516.7676767676768,840.969696969697 507.2323232323232,850.5050505050505 497.69696969696975,860.0404040404039 488.16161616161617,869.5757575757575 478.62626262626264,879.1111111111111 469.09090909090907,879.1111111111111 459.55555555555554,879.1111111111111 450.0202020202021,879.1111111111111 440.4848484848485,879.1111111111111 430.949494949495,879.1111111111111 421.4141414141414,879.1111111111111 411.8787878787879,879.1111111111111 402.34343434343435,879.1111111111111 392.80808080808083,879.1111111111111 383.2727272727273,879.1111111111111 373.7373737373738,879.1111111111111 364.2020202020202,879.1111111111111" fill="none" stroke="rgba(0,0,255,0.75)" stroke-width="14.159999999999995"/></g><g><polyline data-points="-1.5656565656565653,-3.8888888888888884 -1.6666666666666665,-3.8888888888888884 -1.7676767676767675,-3.8888888888888884 -1.8686868686868683,-3.8888888888888884 -1.9696969696969693,-3.8888888888888884 -2.07070707070707,-3.8888888888888884 -2.1717171717171713,-3.8888888888888884 -2.2727272727272725,-3.8888888888888884 -2.3737373737373733,-3.8888888888888884 -2.474747474747474,-3.8888888888888884 -2.5757575757575752,-3.8888888888888884 -2.6767676767676765,-3.8888888888888884 -2.7777777777777777,-3.8888888888888884 -2.8787878787878785,-3.8888888888888884 -2.9797979797979792,-3.8888888888888884 -3.0808080808080804,-3.8888888888888884 -3.1818181818181817,-3.8888888888888884 -3.2828282828282824,-3.8888888888888884 -3.383838383838383,-3.8888888888888884 -3.484848484848485,-3.8888888888888884 -3.5858585858585856,-3.8888888888888884 -3.6868686868686864,-3.8888888888888884 -3.7878787878787876,-3.8888888888888884 -3.8888888888888884,-3.98989898989899 -3.98989898989899,-4.090909090909091 -4.090909090909091,-4.191919191919193 -4.191919191919193,-4.292929292929293 -4.292929292929293,-4.292929292929293 -4.393939393939394,-4.292929292929293 -4.494949494949496,-4.292929292929293 -4.595959595959596,-4.292929292929293 -4.696969696969697,-4.292929292929293 -4.7979797979797985,-4.292929292929293 -4.898989898989899,-4.292929292929293 -5.000000000000001,-4.393939393939394" data-type="line" data-label="" points="364.2020202020202,879.1111111111111 354.6666666666667,879.1111111111111 345.13131313131316,879.1111111111111 335.59595959595964,879.1111111111111 326.0606060606061,879.1111111111111 316.5252525252526,879.1111111111111 306.9898989898991,879.1111111111111 297.4545454545455,879.1111111111111 287.91919191919203,879.1111111111111 278.38383838383845,879.1111111111111 268.84848484848493,879.1111111111111 259.3131313131314,879.1111111111111 249.77777777777783,879.1111111111111 240.2424242424243,879.1111111111111 230.70707070707084,879.1111111111111 221.17171717171726,879.1111111111111 211.63636363636374,879.1111111111111 202.10101010101022,879.1111111111111 192.5656565656567,879.1111111111111 183.03030303030312,879.1111111111111 173.4949494949496,879.1111111111111 163.95959595959607,879.1111111111111 154.42424242424255,879.1111111111111 144.88888888888903,888.6464646464647 135.35353535353545,898.1818181818181 125.81818181818193,907.7171717171718 116.28282828282829,917.2525252525252 106.74747474747483,917.2525252525252 97.21212121212136,917.2525252525252 87.67676767676772,917.2525252525252 78.14141414141426,917.2525252525252 68.60606060606068,917.2525252525252 59.07070707070716,917.2525252525252 49.53535353535369,917.2525252525252 40.00000000000006,926.7878787878788" fill="none" stroke="rgba(255,0,0,0.75)" stroke-width="14.159999999999995"/></g><g><rect data-type="rect" data-label="" data-x="0" data-y="0" x="40.000000000000114" y="40.000000000000284" width="943.9999999999997" height="943.9999999999998" fill="none" stroke="gray" stroke-width="0.010593220338983056"/></g><g><rect data-type="rect" data-label="" data-x="0" data-y="0" x="40.000000000000114" y="40.000000000000284" width="943.9999999999997" height="943.9999999999998" fill="none" stroke="rgba(15, 23, 42, 0.8)" stroke-width="0.010593220338983056"/></g><circle data-type="circle" data-label="" data-x="1.4646464646464652" data-y="1.3636363636363644" cx="650.2626262626262" cy="383.27272727272737" r="28.791999999999987" fill="rgba(0,0,0,0.3)" stroke="black" stroke-width="0.010593220338983056"/><circle data-type="circle" data-label="" data-x="0.6565656565656574" data-y="0.1515151515151522" cx="573.9797979797979" cy="497.69696969696975" r="28.791999999999987" fill="rgba(0,0,0,0.3)" stroke="black" stroke-width="0.010593220338983056"/><circle data-type="circle" data-label="" data-x="-2.474747474747474" data-y="3.2828282828282833" cx="278.38383838383845" cy="202.10101010101027" r="28.791999999999987" fill="rgba(0,0,0,0.3)" stroke="black" stroke-width="0.010593220338983056"/><circle data-type="circle" data-label="" data-x="-2.474747474747474" data-y="1.3636363636363644" cx="278.38383838383845" cy="383.27272727272737" r="28.791999999999987" fill="rgba(0,0,0,0.3)" stroke="black" stroke-width="0.010593220338983056"/><circle data-type="circle" data-label="" data-x="-2.1717171717171713" data-y="-3.383838383838383" cx="306.9898989898991" cy="831.4343434343434" r="28.791999999999987" fill="rgba(0,0,0,0.3)" stroke="black" stroke-width="0.010593220338983056"/><circle data-type="circle" data-label="" data-x="3.989898989898992" data-y="0.1515151515151522" cx="888.6464646464647" cy="497.69696969696975" r="28.791999999999987" fill="rgba(0,0,0,0.3)" stroke="black" stroke-width="0.010593220338983056"/><circle data-type="circle" data-label="" data-x="3.383838383838384" data-y="1.3636363636363644" cx="831.4343434343433" cy="383.27272727272737" r="28.791999999999987" fill="rgba(0,0,0,0.3)" stroke="black" stroke-width="0.010593220338983056"/><circle data-type="circle" data-label="" data-x="-1.8686868686868683" data-y="-1.5656565656565653" cx="335.59595959595964" cy="659.7979797979798" r="28.791999999999987" fill="rgba(0,0,0,0.3)" stroke="black" stroke-width="0.010593220338983056"/><circle data-type="circle" data-label="" data-x="1.6666666666666674" data-y="-2.474747474747474" cx="669.3333333333333" cy="745.6161616161615" r="28.791999999999987" fill="rgba(0,0,0,0.3)" stroke="black" stroke-width="0.010593220338983056"/><circle data-type="circle" data-label="" data-x="-1.5656565656565653" data-y="-3.8888888888888884" cx="364.2020202020202" cy="879.1111111111111" r="28.791999999999987" fill="rgba(0,0,0,0.3)" stroke="black" stroke-width="0.010593220338983056"/><g id="crosshair" style="display: none"><line id="crosshair-h" y1="0" y2="1024" stroke="#666" stroke-width="0.5"/><line id="crosshair-v" x1="0" x2="1024" stroke="#666" stroke-width="0.5"/><text id="coordinates" font-family="monospace" font-size="12" fill="#666"></text></g><script><![CDATA[
              document.currentScript.parentElement.addEventListener('mousemove', (e) => {
                const svg = e.currentTarget;
                const rect = svg.getBoundingClientRect();
                const x = e.clientX - rect.left;
                const y = e.clientY - rect.top;
                const crosshair = svg.getElementById('crosshair');
                const h = svg.getElementById('crosshair-h');
                const v = svg.getElementById('crosshair-v');
                const coords = svg.getElementById('coordinates');
                
                crosshair.style.display = 'block';
                h.setAttribute('x1', '0');
                h.setAttribute('x2', '1024');
                h.setAttribute('y1', y);
                h.setAttribute('y2', y);
                v.setAttribute('x1', x);
                v.setAttribute('x2', x);
                v.setAttribute('y1', '0');
                v.setAttribute('y2', '1024');

                // Calculate real coordinates using inverse transformation
                const matrix = {"a":94.39999999999996,"c":0,"e":511.99999999999994,"b":0,"d":-94.39999999999996,"f":512.0000000000001};
                // Manually invert and apply the affine transform
                // Since we only use translate and scale, we can directly compute:
                // x' = (x - tx) / sx
                // y' = (y - ty) / sy
                const sx = matrix.a;
                const sy = matrix.d;
                const tx = matrix.e; 
                const ty = matrix.f;
                const realPoint = {
                  x: (x - tx) / sx,
                  y: (y - ty) / sy // Flip y back since we used negative scale
                }
                
                coords.textContent = `(${realPoint.x.toFixed(2)}, ${realPoint.y.toFixed(2)})`;
                coords.setAttribute('x', (x + 5).toString());
                coords.setAttribute('y', (y - 5).toString());
              });
              document.currentScript.parentElement.addEventListener('mouseleave', () => {
                document.currentScript.parentElement.getElementById('crosshair').style.display = 'none';
              });
            ]]></script></svg>