<svg width="1024" height="1024" viewBox="0 0 1024 1024" xmlns="http://www.w3.org/2000/svg"><rect width="100%" height="100%" fill="white"/><g><circle data-type="point" data-label="conn_000" data-x="1.74" data-y="5" cx="676.2559999999999" cy="40.000000000000284" r="28.792" fill="red" stroke="#0fbd42" stroke-width="28.792"/></g><g><circle data-type="point" data-label="conn_000" data-x="-3.12" data-y="-5" cx="217.47200000000004" cy="984" r="28.792" fill="blue" stroke="#0fbd42" stroke-width="28.792"/></g><g><circle data-type="point" data-label="conn_001" data-x="-5" data-y="0.56" cx="40.000000000000114" cy="459.13600000000014" r="28.792" fill="red" stroke="#740fbd" stroke-width="28.792"/></g><g><circle data-type="point" data-label="conn_001" data-x="5" data-y="-4.12" cx="983.9999999999998" cy="900.928" r="28.792" fill="blue" stroke="#740fbd" stroke-width="28.792"/></g><g><circle data-type="point" data-label="conn_002" data-x="5" data-y="-0.72" cx="983.9999999999998" cy="579.9680000000001" r="28.792" fill="red" stroke="#bda70f" stroke-width="28.792"/></g><g><circle data-type="point" data-label="conn_002" data-x="-5" data-y="1.74" cx="40.000000000000114" cy="347.74400000000014" r="28.792" fill="red" stroke="#bda70f" stroke-width="28.792"/></g><g><circle data-type="point" data-label="conn_003" data-x="1.06" data-y="5" cx="612.0639999999999" cy="40.000000000000284" r="28.792" fill="red" stroke="#0fa0bd" stroke-width="28.792"/></g><g><circle data-type="point" data-label="conn_003" data-x="-1.78" data-y="-5" cx="343.968" cy="984" r="28.792" fill="blue" stroke="#0fa0bd" stroke-width="28.792"/></g><g><circle data-type="point" data-label="conn_004" data-x="-4.38" data-y="5" cx="98.52800000000013" cy="40.000000000000284" r="28.792" fill="blue" stroke="#bd0f6d" stroke-width="28.792"/></g><g><circle data-type="point" data-label="conn_004" data-x="3.3000000000000003" data-y="5" cx="823.5199999999999" cy="40.000000000000284" r="28.792" fill="red" stroke="#bd0f6d" stroke-width="28.792"/></g><g><circle data-type="point" data-label="conn_005" data-x="-3.92" data-y="-5" cx="141.9520000000001" cy="984" r="28.792" fill="blue" stroke="#3bbd0f" stroke-width="28.792"/></g><g><circle data-type="point" data-label="conn_005" data-x="-3.2" data-y="5" cx="209.92000000000007" cy="40.000000000000284" r="28.792" fill="blue" stroke="#3bbd0f" stroke-width="28.792"/></g><g><circle data-type="point" data-label="conn_006" data-x="-5" data-y="2.86" cx="40.000000000000114" cy="242.01600000000025" r="28.792" fill="red" stroke="#170fbd" stroke-width="28.792"/></g><g><circle data-type="point" data-label="conn_006" data-x="3" data-y="-5" cx="795.1999999999998" cy="984" r="28.792" fill="red" stroke="#170fbd" stroke-width="28.792"/></g><g><circle data-type="point" data-label="conn_007" data-x="-0.98" data-y="5" cx="419.488" cy="40.000000000000284" r="28.792" fill="red" stroke="#bd490f" stroke-width="28.792"/></g><g><circle data-type="point" data-label="conn_007" data-x="5" data-y="2.2" cx="983.9999999999998" cy="304.32000000000016" r="28.792" fill="blue" stroke="#bd490f" stroke-width="28.792"/></g><g><polyline data-points="1.0606060606060617,5.000000000000002 0.9595959595959602,4.898989898989901 0.8585858585858596,4.7979797979797985 0.7575757575757579,4.696969696969697 0.6565656565656574,4.595959595959597 0.5555555555555567,4.494949494949497 0.4545454545454551,4.393939393939394 0.3535353535353544,4.292929292929293 0.2525252525252529,4.191919191919193 0.1515151515151522,4.090909090909092 0.050505050505051545,3.989898989898992 -0.05050505050505001,3.8888888888888893 -0.15151515151515066,3.7878787878787885 -0.2525252525252522,3.6868686868686877 -0.35353535353535287,3.5858585858585874 -0.4545454545454544,3.4848484848484866 -0.555555555555555,3.383838383838384 -0.6565656565656557,3.2828282828282833 -0.7575757575757572,3.181818181818183 -0.8585858585858579,3.080808080808082 -0.9595959595959596,2.9797979797979806 -1.0606060606060603,2.87878787878788 -1.1616161616161613,2.7777777777777786 -1.2626262626262625,2.676767676767678 -1.363636363636363,2.575757575757577 -1.4646464646464643,2.4747474747474754 -1.5656565656565653,2.373737373737375 -1.6666666666666665,2.2727272727272734 -1.7676767676767675,2.1717171717171726 -1.7676767676767675,2.070707070707072 -1.7676767676767675,1.9696969696969702 -1.7676767676767675,1.8686868686868696 -1.7676767676767675,1.767676767676768 -1.7676767676767675,1.6666666666666674 -1.7676767676767675,1.5656565656565666 -1.7676767676767675,1.4646464646464652 -1.7676767676767675,1.3636363636363644 -1.7676767676767675,1.262626262626263 -1.7676767676767675,1.1616161616161622 -1.7676767676767675,1.0606060606060617 -1.7676767676767675,0.9595959595959602 -1.7676767676767675,0.8585858585858596 -1.7676767676767675,0.7575757575757579 -1.7676767676767675,0.6565656565656574 -1.7676767676767675,0.5555555555555567 -1.7676767676767675,0.4545454545454551 -1.7676767676767675,0.3535353535353544 -1.7676767676767675,0.2525252525252529 -1.7676767676767675,0.1515151515151522 -1.7676767676767675,0.050505050505051545 -1.7676767676767675,-0.05050505050505001 -1.7676767676767675,-0.15151515151515066 -1.7676767676767675,-0.2525252525252522 -1.7676767676767675,-0.35353535353535287 -1.7676767676767675,-0.4545454545454544 -1.7676767676767675,-0.555555555555555 -1.7676767676767675,-0.6565656565656557 -1.7676767676767675,-0.7575757575757572 -1.7676767676767675,-0.8585858585858579 -1.7676767676767675,-0.9595959595959596 -1.7676767676767675,-1.0606060606060603 -1.7676767676767675,-1.1616161616161613 -1.7676767676767675,-1.2626262626262625 -1.7676767676767675,-1.363636363636363 -1.7676767676767675,-1.4646464646464643 -1.7676767676767675,-1.5656565656565653 -1.7676767676767675,-1.6666666666666665 -1.7676767676767675,-1.7676767676767675 -1.7676767676767675,-1.8686868686868683 -1.7676767676767675,-1.9696969696969693 -1.7676767676767675,-2.07070707070707 -1.7676767676767675,-2.1717171717171713 -1.7676767676767675,-2.2727272727272725 -1.7676767676767675,-2.3737373737373733 -1.7676767676767675,-2.474747474747474 -1.7676767676767675,-2.5757575757575752 -1.7676767676767675,-2.6767676767676765 -1.7676767676767675,-2.7777777777777777 -1.7676767676767675,-2.8787878787878785 -1.7676767676767675,-2.9797979797979792 -1.7676767676767675,-3.0808080808080804 -1.7676767676767675,-3.1818181818181817 -1.7676767676767675,-3.2828282828282824 -1.7676767676767675,-3.383838383838383 -1.7676767676767675,-3.484848484848485 -1.7676767676767675,-3.5858585858585856 -1.7676767676767675,-3.6868686868686864 -1.7676767676767675,-3.7878787878787876 -1.7676767676767675,-3.8888888888888884 -1.7676767676767675,-3.98989898989899" data-type="line" data-label="" points="612.1212121212121,40.000000000000114 602.5858585858585,49.53535353535369 593.0505050505051,59.07070707070733 583.5151515151515,68.60606060606085 573.9797979797979,78.14141414141432 564.4444444444445,87.67676767676778 554.9090909090909,97.21212121212153 545.3737373737374,106.747474747475 535.8383838383838,116.28282828282846 526.3030303030303,125.81818181818198 516.7676767676768,135.35353535353545 507.2323232323232,144.88888888888908 497.69696969696975,154.4242424242426 488.16161616161617,163.95959595959613 478.62626262626264,173.4949494949496 469.09090909090907,183.03030303030312 459.55555555555554,192.56565656565675 450.0202020202021,202.10101010101027 440.4848484848485,211.63636363636374 430.949494949495,221.17171717171726 421.4141414141414,230.70707070707084 411.8787878787879,240.24242424242436 402.34343434343435,249.77777777777794 392.80808080808083,259.3131313131314 383.2727272727273,268.84848484848493 373.7373737373738,278.38383838383857 364.2020202020202,287.91919191919203 354.6666666666667,297.4545454545456 345.13131313131316,306.9898989898991 345.13131313131316,316.5252525252526 345.13131313131316,326.06060606060623 345.13131313131316,335.5959595959597 345.13131313131316,345.1313131313133 345.13131313131316,354.66666666666674 345.13131313131316,364.2020202020203 345.13131313131316,373.73737373737384 345.13131313131316,383.27272727272737 345.13131313131316,392.80808080808094 345.13131313131316,402.3434343434344 345.13131313131316,411.87878787878793 345.13131313131316,421.4141414141415 345.13131313131316,430.94949494949503 345.13131313131316,440.4848484848486 345.13131313131316,450.0202020202021 345.13131313131316,459.5555555555556 345.13131313131316,469.0909090909092 345.13131313131316,478.6262626262627 345.13131313131316,488.1616161616163 345.13131313131316,497.69696969696975 345.13131313131316,507.23232323232327 345.13131313131316,516.7676767676768 345.13131313131316,526.3030303030304 345.13131313131316,535.838383838384 345.13131313131316,545.3737373737374 345.13131313131316,554.909090909091 345.13131313131316,564.4444444444445 345.13131313131316,573.979797979798 345.13131313131316,583.5151515151516 345.13131313131316,593.0505050505051 345.13131313131316,602.5858585858587 345.13131313131316,612.1212121212121 345.13131313131316,621.6565656565657 345.13131313131316,631.1919191919193 345.13131313131316,640.7272727272727 345.13131313131316,650.2626262626263 345.13131313131316,659.7979797979798 345.13131313131316,669.3333333333334 345.13131313131316,678.8686868686868 345.13131313131316,688.4040404040404 345.13131313131316,697.939393939394 345.13131313131316,707.4747474747475 345.13131313131316,717.010101010101 345.13131313131316,726.5454545454545 345.13131313131316,736.0808080808081 345.13131313131316,745.6161616161615 345.13131313131316,755.1515151515151 345.13131313131316,764.6868686868687 345.13131313131316,774.2222222222222 345.13131313131316,783.7575757575758 345.13131313131316,793.2929292929292 345.13131313131316,802.8282828282828 345.13131313131316,812.3636363636363 345.13131313131316,821.8989898989898 345.13131313131316,831.4343434343434 345.13131313131316,840.969696969697 345.13131313131316,850.5050505050505 345.13131313131316,860.0404040404039 345.13131313131316,869.5757575757575 345.13131313131316,879.1111111111111 345.13131313131316,888.6464646464647" fill="none" stroke="rgba(255,0,0,0.75)" stroke-width="14.159999999999995"/></g><g><polyline data-points="-1.7676767676767675,-3.98989898989899 -1.7676767676767675,-4.090909090909091 -1.7676767676767675,-4.191919191919193 -1.7676767676767675,-4.292929292929293 -1.7676767676767675,-4.393939393939394 -1.7676767676767675,-4.494949494949496 -1.7676767676767675,-4.595959595959596 -1.7676767676767675,-4.696969696969697 -1.7676767676767675,-4.7979797979797985 -1.7676767676767675,-4.898989898989899 -1.7676767676767675,-5.000000000000001" data-type="line" data-label="" points="345.13131313131316,888.6464646464647 345.13131313131316,898.1818181818181 345.13131313131316,907.7171717171718 345.13131313131316,917.2525252525252 345.13131313131316,926.7878787878788 345.13131313131316,936.3232323232323 345.13131313131316,945.8585858585858 345.13131313131316,955.3939393939394 345.13131313131316,964.9292929292928 345.13131313131316,974.4646464646464 345.13131313131316,984" fill="none" stroke="rgba(0,0,255,0.75)" stroke-width="14.159999999999995"/></g><g><polyline data-points="1.767676767676768,5.000000000000002 1.6666666666666674,4.898989898989901 1.5656565656565666,4.7979797979797985 1.4646464646464652,4.696969696969697 1.3636363636363644,4.595959595959597 1.262626262626263,4.494949494949497 1.1616161616161622,4.393939393939394 1.0606060606060617,4.292929292929293 0.9595959595959602,4.191919191919193 0.8585858585858596,4.090909090909092 0.7575757575757579,3.989898989898992 0.6565656565656574,3.8888888888888893 0.5555555555555567,3.7878787878787885 0.4545454545454551,3.6868686868686877 0.3535353535353544,3.5858585858585874 0.2525252525252529,3.4848484848484866 0.1515151515151522,3.383838383838384 0.050505050505051545,3.2828282828282833 -0.05050505050505001,3.181818181818183 -0.15151515151515066,3.080808080808082 -0.2525252525252522,2.9797979797979806 -0.35353535353535287,2.87878787878788 -0.4545454545454544,2.7777777777777786 -0.555555555555555,2.676767676767678 -0.6565656565656557,2.575757575757577 -0.7575757575757572,2.4747474747474754 -0.8585858585858579,2.373737373737375 -0.9595959595959596,2.2727272727272734 -1.0606060606060603,2.1717171717171726 -1.1616161616161613,2.070707070707072 -1.1616161616161613,1.9696969696969702 -1.1616161616161613,1.8686868686868696 -1.1616161616161613,1.767676767676768 -1.1616161616161613,1.6666666666666674 -1.1616161616161613,1.5656565656565666 -1.1616161616161613,1.4646464646464652 -1.1616161616161613,1.3636363636363644 -1.1616161616161613,1.262626262626263 -1.1616161616161613,1.1616161616161622 -1.1616161616161613,1.0606060606060617 -1.1616161616161613,0.9595959595959602 -1.1616161616161613,0.8585858585858596 -1.1616161616161613,0.7575757575757579 -1.1616161616161613,0.6565656565656574 -1.1616161616161613,0.5555555555555567 -1.1616161616161613,0.4545454545454551 -1.1616161616161613,0.3535353535353544 -1.1616161616161613,0.2525252525252529 -1.1616161616161613,0.1515151515151522 -1.1616161616161613,0.050505050505051545 -1.1616161616161613,-0.05050505050505001 -1.1616161616161613,-0.15151515151515066 -1.1616161616161613,-0.2525252525252522 -1.1616161616161613,-0.35353535353535287 -1.1616161616161613,-0.4545454545454544 -1.1616161616161613,-0.555555555555555 -1.1616161616161613,-0.6565656565656557 -1.1616161616161613,-0.7575757575757572 -1.1616161616161613,-0.8585858585858579 -1.1616161616161613,-0.9595959595959596 -1.1616161616161613,-1.0606060606060603 -1.1616161616161613,-1.1616161616161613 -1.1616161616161613,-1.2626262626262625 -1.1616161616161613,-1.363636363636363 -1.1616161616161613,-1.4646464646464643 -1.1616161616161613,-1.5656565656565653 -1.1616161616161613,-1.6666666666666665 -1.1616161616161613,-1.7676767676767675 -1.1616161616161613,-1.8686868686868683 -1.1616161616161613,-1.9696969696969693 -1.1616161616161613,-2.07070707070707 -1.1616161616161613,-2.1717171717171713 -1.1616161616161613,-2.2727272727272725 -1.1616161616161613,-2.3737373737373733 -1.1616161616161613,-2.474747474747474 -1.1616161616161613,-2.5757575757575752 -1.1616161616161613,-2.6767676767676765 -1.1616161616161613,-2.7777777777777777 -1.1616161616161613,-2.8787878787878785 -1.1616161616161613,-2.9797979797979792 -1.1616161616161613,-3.0808080808080804 -1.1616161616161613,-3.1818181818181817 -1.1616161616161613,-3.2828282828282824" data-type="line" data-label="" points="678.8686868686868,40.000000000000114 669.3333333333333,49.53535353535369 659.7979797979798,59.07070707070733 650.2626262626262,68.60606060606085 640.7272727272727,78.14141414141432 631.1919191919192,87.67676767676778 621.6565656565656,97.21212121212153 612.1212121212121,106.747474747475 602.5858585858585,116.28282828282846 593.0505050505051,125.81818181818198 583.5151515151515,135.35353535353545 573.9797979797979,144.88888888888908 564.4444444444445,154.4242424242426 554.9090909090909,163.95959595959613 545.3737373737374,173.4949494949496 535.8383838383838,183.03030303030312 526.3030303030303,192.56565656565675 516.7676767676768,202.10101010101027 507.2323232323232,211.63636363636374 497.69696969696975,221.17171717171726 488.16161616161617,230.70707070707084 478.62626262626264,240.24242424242436 469.09090909090907,249.77777777777794 459.55555555555554,259.3131313131314 450.0202020202021,268.84848484848493 440.4848484848485,278.38383838383857 430.949494949495,287.91919191919203 421.4141414141414,297.4545454545456 411.8787878787879,306.9898989898991 402.34343434343435,316.5252525252526 402.34343434343435,326.06060606060623 402.34343434343435,335.5959595959597 402.34343434343435,345.1313131313133 402.34343434343435,354.66666666666674 402.34343434343435,364.2020202020203 402.34343434343435,373.73737373737384 402.34343434343435,383.27272727272737 402.34343434343435,392.80808080808094 402.34343434343435,402.3434343434344 402.34343434343435,411.87878787878793 402.34343434343435,421.4141414141415 402.34343434343435,430.94949494949503 402.34343434343435,440.4848484848486 402.34343434343435,450.0202020202021 402.34343434343435,459.5555555555556 402.34343434343435,469.0909090909092 402.34343434343435,478.6262626262627 402.34343434343435,488.1616161616163 402.34343434343435,497.69696969696975 402.34343434343435,507.23232323232327 402.34343434343435,516.7676767676768 402.34343434343435,526.3030303030304 402.34343434343435,535.838383838384 402.34343434343435,545.3737373737374 402.34343434343435,554.909090909091 402.34343434343435,564.4444444444445 402.34343434343435,573.979797979798 402.34343434343435,583.5151515151516 402.34343434343435,593.0505050505051 402.34343434343435,602.5858585858587 402.34343434343435,612.1212121212121 402.34343434343435,621.6565656565657 402.34343434343435,631.1919191919193 402.34343434343435,640.7272727272727 402.34343434343435,650.2626262626263 402.34343434343435,659.7979797979798 402.34343434343435,669.3333333333334 402.34343434343435,678.8686868686868 402.34343434343435,688.4040404040404 402.34343434343435,697.939393939394 402.34343434343435,707.4747474747475 402.34343434343435,717.010101010101 402.34343434343435,726.5454545454545 402.34343434343435,736.0808080808081 402.34343434343435,745.6161616161615 402.34343434343435,755.1515151515151 402.34343434343435,764.6868686868687 402.34343434343435,774.2222222222222 402.34343434343435,783.7575757575758 402.34343434343435,793.2929292929292 402.34343434343435,802.8282828282828 402.34343434343435,812.3636363636363 402.34343434343435,821.8989898989898" fill="none" stroke="rgba(255,0,0,0.75)" stroke-width="14.159999999999995"/></g><g><polyline data-points="-1.1616161616161613,-3.2828282828282824 -1.2626262626262625,-3.383838383838383 -1.363636363636363,-3.484848484848485 -1.4646464646464643,-3.484848484848485 -1.5656565656565653,-3.484848484848485 -1.6666666666666665,-3.484848484848485 -1.7676767676767675,-3.484848484848485 -1.8686868686868683,-3.5858585858585856 -1.9696969696969693,-3.5858585858585856 -2.07070707070707,-3.6868686868686864 -2.1717171717171713,-3.7878787878787876 -2.2727272727272725,-3.8888888888888884 -2.3737373737373733,-3.98989898989899 -2.474747474747474,-4.090909090909091 -2.5757575757575752,-4.191919191919193 -2.6767676767676765,-4.292929292929293 -2.7777777777777777,-4.393939393939394 -2.8787878787878785,-4.494949494949496 -2.9797979797979792,-4.595959595959596 -3.0808080808080804,-4.696969696969697 -3.1818181818181817,-4.7979797979797985 -3.1818181818181817,-4.898989898989899 -3.1818181818181817,-5.000000000000001" data-type="line" data-label="" points="402.34343434343435,821.8989898989898 392.80808080808083,831.4343434343434 383.2727272727273,840.969696969697 373.7373737373738,840.969696969697 364.2020202020202,840.969696969697 354.6666666666667,840.969696969697 345.13131313131316,840.969696969697 335.59595959595964,850.5050505050505 326.0606060606061,850.5050505050505 316.5252525252526,860.0404040404039 306.9898989898991,869.5757575757575 297.4545454545455,879.1111111111111 287.91919191919203,888.6464646464647 278.38383838383845,898.1818181818181 268.84848484848493,907.7171717171718 259.3131313131314,917.2525252525252 249.77777777777783,926.7878787878788 240.2424242424243,936.3232323232323 230.70707070707084,945.8585858585858 221.17171717171726,955.3939393939394 211.63636363636374,964.9292929292928 211.63636363636374,974.4646464646464 211.63636363636374,984" fill="none" stroke="rgba(0,0,255,0.75)" stroke-width="14.159999999999995"/></g><g><polyline data-points="-5.000000000000001,2.87878787878788 -4.898989898989899,2.7777777777777786 -4.7979797979797985,2.676767676767678 -4.696969696969697,2.575757575757577 -4.595959595959596,2.4747474747474754 -4.494949494949496,2.373737373737375 -4.393939393939394,2.2727272727272734 -4.292929292929293,2.1717171717171726 -4.191919191919193,2.070707070707072 -4.090909090909091,1.9696969696969702 -3.98989898989899,1.8686868686868696 -3.8888888888888884,1.767676767676768 -3.7878787878787876,1.6666666666666674 -3.6868686868686864,1.5656565656565666 -3.5858585858585856,1.4646464646464652 -3.484848484848485,1.3636363636363644 -3.383838383838383,1.262626262626263 -3.2828282828282824,1.1616161616161622 -3.1818181818181817,1.0606060606060617 -3.0808080808080804,0.9595959595959602 -2.9797979797979792,0.8585858585858596 -2.8787878787878785,0.7575757575757579 -2.7777777777777777,0.6565656565656574 -2.6767676767676765,0.5555555555555567 -2.5757575757575752,0.4545454545454551 -2.474747474747474,0.3535353535353544 -2.3737373737373733,0.2525252525252529 -2.2727272727272725,0.1515151515151522 -2.2727272727272725,0.050505050505051545 -2.2727272727272725,-0.05050505050505001 -2.2727272727272725,-0.15151515151515066 -2.2727272727272725,-0.2525252525252522 -2.2727272727272725,-0.35353535353535287 -2.2727272727272725,-0.4545454545454544 -2.2727272727272725,-0.555555555555555 -2.2727272727272725,-0.6565656565656557 -2.2727272727272725,-0.7575757575757572 -2.2727272727272725,-0.8585858585858579 -2.2727272727272725,-0.9595959595959596 -2.2727272727272725,-1.0606060606060603 -2.2727272727272725,-1.1616161616161613 -2.2727272727272725,-1.2626262626262625 -2.2727272727272725,-1.363636363636363 -2.2727272727272725,-1.4646464646464643 -2.2727272727272725,-1.5656565656565653 -2.2727272727272725,-1.6666666666666665 -2.2727272727272725,-1.7676767676767675 -2.2727272727272725,-1.8686868686868683 -2.2727272727272725,-1.9696969696969693 -2.2727272727272725,-2.07070707070707 -2.2727272727272725,-2.1717171717171713 -2.2727272727272725,-2.2727272727272725 -2.2727272727272725,-2.3737373737373733 -2.2727272727272725,-2.474747474747474 -2.2727272727272725,-2.5757575757575752 -2.2727272727272725,-2.6767676767676765 -2.2727272727272725,-2.7777777777777777 -2.2727272727272725,-2.8787878787878785 -2.2727272727272725,-2.9797979797979792 -2.2727272727272725,-3.0808080808080804 -2.2727272727272725,-3.1818181818181817 -2.2727272727272725,-3.2828282828282824 -2.2727272727272725,-3.383838383838383 -2.2727272727272725,-3.484848484848485 -2.2727272727272725,-3.5858585858585856 -2.2727272727272725,-3.6868686868686864 -2.2727272727272725,-3.7878787878787876 -2.2727272727272725,-3.8888888888888884 -2.2727272727272725,-3.98989898989899 -2.1717171717171713,-4.090909090909091 -2.1717171717171713,-4.191919191919193 -2.07070707070707,-4.292929292929293 -1.9696969696969693,-4.393939393939394 -1.8686868686868683,-4.494949494949496 -1.7676767676767675,-4.595959595959596 -1.6666666666666665,-4.696969696969697 -1.5656565656565653,-4.7979797979797985 -1.4646464646464643,-4.898989898989899 -1.363636363636363,-5.000000000000001 -1.2626262626262625,-5.000000000000001 -1.1616161616161613,-5.000000000000001 -1.0606060606060603,-5.000000000000001 -0.9595959595959596,-5.000000000000001 -0.8585858585858579,-5.000000000000001 -0.7575757575757572,-5.000000000000001 -0.6565656565656557,-5.000000000000001 -0.555555555555555,-5.000000000000001 -0.4545454545454544,-5.000000000000001 -0.35353535353535287,-5.000000000000001 -0.2525252525252522,-5.000000000000001 -0.15151515151515066,-5.000000000000001 -0.05050505050505001,-5.000000000000001 0.050505050505051545,-5.000000000000001 0.1515151515151522,-5.000000000000001 0.2525252525252529,-5.000000000000001 0.3535353535353544,-5.000000000000001 0.4545454545454551,-5.000000000000001 0.5555555555555567,-5.000000000000001 0.6565656565656574,-5.000000000000001 0.7575757575757579,-5.000000000000001 0.8585858585858596,-5.000000000000001 0.9595959595959602,-5.000000000000001 1.0606060606060617,-5.000000000000001 1.1616161616161622,-5.000000000000001 1.262626262626263,-5.000000000000001 1.3636363636363644,-5.000000000000001 1.4646464646464652,-5.000000000000001 1.5656565656565666,-5.000000000000001 1.6666666666666674,-5.000000000000001 1.767676767676768,-5.000000000000001 1.8686868686868696,-5.000000000000001 1.9696969696969702,-5.000000000000001 2.070707070707072,-5.000000000000001 2.1717171717171726,-5.000000000000001 2.2727272727272734,-5.000000000000001 2.373737373737375,-5.000000000000001 2.4747474747474754,-5.000000000000001 2.575757575757577,-5.000000000000001 2.676767676767678,-5.000000000000001 2.7777777777777786,-5.000000000000001 2.87878787878788,-5.000000000000001 2.9797979797979806,-5.000000000000001 3.080808080808082,-5.000000000000001" data-type="line" data-label="" points="40.00000000000006,240.24242424242436 49.53535353535369,249.77777777777794 59.07070707070716,259.3131313131314 68.60606060606068,268.84848484848493 78.14141414141426,278.38383838383857 87.67676767676772,287.91919191919203 97.21212121212136,297.4545454545456 106.74747474747483,306.9898989898991 116.28282828282829,316.5252525252526 125.81818181818193,326.06060606060623 135.35353535353545,335.5959595959597 144.88888888888903,345.1313131313133 154.42424242424255,354.66666666666674 163.95959595959607,364.2020202020203 173.4949494949496,373.73737373737384 183.03030303030312,383.27272727272737 192.5656565656567,392.80808080808094 202.10101010101022,402.3434343434344 211.63636363636374,411.87878787878793 221.17171717171726,421.4141414141415 230.70707070707084,430.94949494949503 240.2424242424243,440.4848484848486 249.77777777777783,450.0202020202021 259.3131313131314,459.5555555555556 268.84848484848493,469.0909090909092 278.38383838383845,478.6262626262627 287.91919191919203,488.1616161616163 297.4545454545455,497.69696969696975 297.4545454545455,507.23232323232327 297.4545454545455,516.7676767676768 297.4545454545455,526.3030303030304 297.4545454545455,535.838383838384 297.4545454545455,545.3737373737374 297.4545454545455,554.909090909091 297.4545454545455,564.4444444444445 297.4545454545455,573.979797979798 297.4545454545455,583.5151515151516 297.4545454545455,593.0505050505051 297.4545454545455,602.5858585858587 297.4545454545455,612.1212121212121 297.4545454545455,621.6565656565657 297.4545454545455,631.1919191919193 297.4545454545455,640.7272727272727 297.4545454545455,650.2626262626263 297.4545454545455,659.7979797979798 297.4545454545455,669.3333333333334 297.4545454545455,678.8686868686868 297.4545454545455,688.4040404040404 297.4545454545455,697.939393939394 297.4545454545455,707.4747474747475 297.4545454545455,717.010101010101 297.4545454545455,726.5454545454545 297.4545454545455,736.0808080808081 297.4545454545455,745.6161616161615 297.4545454545455,755.1515151515151 297.4545454545455,764.6868686868687 297.4545454545455,774.2222222222222 297.4545454545455,783.7575757575758 297.4545454545455,793.2929292929292 297.4545454545455,802.8282828282828 297.4545454545455,812.3636363636363 297.4545454545455,821.8989898989898 297.4545454545455,831.4343434343434 297.4545454545455,840.969696969697 297.4545454545455,850.5050505050505 297.4545454545455,860.0404040404039 297.4545454545455,869.5757575757575 297.4545454545455,879.1111111111111 297.4545454545455,888.6464646464647 306.9898989898991,898.1818181818181 306.9898989898991,907.7171717171718 316.5252525252526,917.2525252525252 326.0606060606061,926.7878787878788 335.59595959595964,936.3232323232323 345.13131313131316,945.8585858585858 354.6666666666667,955.3939393939394 364.2020202020202,964.9292929292928 373.7373737373738,974.4646464646464 383.2727272727273,984 392.80808080808083,984 402.34343434343435,984 411.8787878787879,984 421.4141414141414,984 430.949494949495,984 440.4848484848485,984 450.0202020202021,984 459.55555555555554,984 469.09090909090907,984 478.62626262626264,984 488.16161616161617,984 497.69696969696975,984 507.2323232323232,984 516.7676767676768,984 526.3030303030303,984 535.8383838383838,984 545.3737373737374,984 554.9090909090909,984 564.4444444444445,984 573.9797979797979,984 583.5151515151515,984 593.0505050505051,984 602.5858585858585,984 612.1212121212121,984 621.6565656565656,984 631.1919191919192,984 640.7272727272727,984 650.2626262626262,984 659.7979797979798,984 669.3333333333333,984 678.8686868686868,984 688.4040404040404,984 697.9393939393939,984 707.4747474747475,984 717.0101010101009,984 726.5454545454545,984 736.0808080808081,984 745.6161616161615,984 755.1515151515151,984 764.6868686868686,984 774.2222222222222,984 783.7575757575758,984 793.2929292929292,984 802.8282828282828,984" fill="none" stroke="rgba(255,0,0,0.75)" stroke-width="14.159999999999995"/></g><g><polyline data-points="-0.9595959595959596,5.000000000000002 -0.8585858585858579,4.898989898989901 -0.7575757575757572,4.7979797979797985 -0.7575757575757572,4.696969696969697 -0.7575757575757572,4.595959595959597 -0.7575757575757572,4.494949494949497 -0.7575757575757572,4.393939393939394 -0.7575757575757572,4.292929292929293 -0.7575757575757572,4.191919191919193 -0.7575757575757572,4.090909090909092 -0.7575757575757572,3.989898989898992" data-type="line" data-label="" points="421.4141414141414,40.000000000000114 430.949494949495,49.53535353535369 440.4848484848485,59.07070707070733 440.4848484848485,68.60606060606085 440.4848484848485,78.14141414141432 440.4848484848485,87.67676767676778 440.4848484848485,97.21212121212153 440.4848484848485,106.747474747475 440.4848484848485,116.28282828282846 440.4848484848485,125.81818181818198 440.4848484848485,135.35353535353545" fill="none" stroke="rgba(255,0,0,0.75)" stroke-width="14.159999999999995"/></g><g><polyline data-points="-0.7575757575757572,3.989898989898992 -0.6565656565656557,3.8888888888888893 -0.555555555555555,3.7878787878787885 -0.4545454545454544,3.6868686868686877 -0.35353535353535287,3.5858585858585874 -0.2525252525252522,3.4848484848484866 -0.15151515151515066,3.383838383838384 -0.05050505050505001,3.2828282828282833 0.050505050505051545,3.181818181818183 0.1515151515151522,3.080808080808082 0.2525252525252529,2.9797979797979806 0.3535353535353544,2.87878787878788 0.4545454545454551,2.7777777777777786 0.5555555555555567,2.676767676767678 0.6565656565656574,2.575757575757577 0.7575757575757579,2.4747474747474754 0.8585858585858596,2.373737373737375 0.9595959595959602,2.2727272727272734 1.0606060606060617,2.2727272727272734 1.1616161616161622,2.2727272727272734 1.262626262626263,2.2727272727272734 1.3636363636363644,2.2727272727272734 1.4646464646464652,2.2727272727272734 1.5656565656565666,2.2727272727272734 1.6666666666666674,2.2727272727272734 1.767676767676768,2.2727272727272734 1.8686868686868696,2.2727272727272734 1.9696969696969702,2.2727272727272734 2.070707070707072,2.2727272727272734 2.1717171717171726,2.2727272727272734 2.2727272727272734,2.2727272727272734 2.373737373737375,2.2727272727272734 2.4747474747474754,2.2727272727272734 2.575757575757577,2.2727272727272734 2.676767676767678,2.2727272727272734 2.7777777777777786,2.2727272727272734 2.87878787878788,2.2727272727272734 2.9797979797979806,2.2727272727272734 3.080808080808082,2.2727272727272734 3.181818181818183,2.2727272727272734 3.2828282828282833,2.2727272727272734 3.383838383838384,2.2727272727272734 3.4848484848484866,2.2727272727272734 3.5858585858585874,2.2727272727272734 3.6868686868686877,2.2727272727272734 3.7878787878787885,2.2727272727272734 3.8888888888888893,2.2727272727272734 3.989898989898992,2.2727272727272734 4.090909090909092,2.2727272727272734 4.191919191919193,2.2727272727272734 4.292929292929293,2.2727272727272734 4.393939393939394,2.2727272727272734 4.494949494949497,2.2727272727272734 4.595959595959597,2.2727272727272734 4.696969696969697,2.2727272727272734 4.7979797979797985,2.2727272727272734 4.898989898989901,2.2727272727272734 5.000000000000002,2.2727272727272734" data-type="line" data-label="" points="440.4848484848485,135.35353535353545 450.0202020202021,144.88888888888908 459.55555555555554,154.4242424242426 469.09090909090907,163.95959595959613 478.62626262626264,173.4949494949496 488.16161616161617,183.03030303030312 497.69696969696975,192.56565656565675 507.2323232323232,202.10101010101027 516.7676767676768,211.63636363636374 526.3030303030303,221.17171717171726 535.8383838383838,230.70707070707084 545.3737373737374,240.24242424242436 554.9090909090909,249.77777777777794 564.4444444444445,259.3131313131314 573.9797979797979,268.84848484848493 583.5151515151515,278.38383838383857 593.0505050505051,287.91919191919203 602.5858585858585,297.4545454545456 612.1212121212121,297.4545454545456 621.6565656565656,297.4545454545456 631.1919191919192,297.4545454545456 640.7272727272727,297.4545454545456 650.2626262626262,297.4545454545456 659.7979797979798,297.4545454545456 669.3333333333333,297.4545454545456 678.8686868686868,297.4545454545456 688.4040404040404,297.4545454545456 697.9393939393939,297.4545454545456 707.4747474747475,297.4545454545456 717.0101010101009,297.4545454545456 726.5454545454545,297.4545454545456 736.0808080808081,297.4545454545456 745.6161616161615,297.4545454545456 755.1515151515151,297.4545454545456 764.6868686868686,297.4545454545456 774.2222222222222,297.4545454545456 783.7575757575758,297.4545454545456 793.2929292929292,297.4545454545456 802.8282828282828,297.4545454545456 812.3636363636363,297.4545454545456 821.8989898989898,297.4545454545456 831.4343434343433,297.4545454545456 840.969696969697,297.4545454545456 850.5050505050505,297.4545454545456 860.0404040404039,297.4545454545456 869.5757575757575,297.4545454545456 879.111111111111,297.4545454545456 888.6464646464647,297.4545454545456 898.181818181818,297.4545454545456 907.7171717171716,297.4545454545456 917.2525252525251,297.4545454545456 926.7878787878785,297.4545454545456 936.3232323232323,297.4545454545456 945.8585858585857,297.4545454545456 955.3939393939393,297.4545454545456 964.9292929292927,297.4545454545456 974.4646464646464,297.4545454545456 984,297.4545454545456" fill="none" stroke="rgba(0,0,255,0.75)" stroke-width="14.159999999999995"/></g><g><polyline data-points="5.000000000000002,-0.7575757575757572 4.898989898989901,-0.6565656565656557 4.7979797979797985,-0.555555555555555 4.696969696969697,-0.4545454545454544 4.595959595959597,-0.35353535353535287 4.494949494949497,-0.2525252525252522 4.393939393939394,-0.15151515151515066 4.292929292929293,-0.05050505050505001 4.191919191919193,0.050505050505051545 4.090909090909092,0.1515151515151522 3.989898989898992,0.2525252525252529 3.8888888888888893,0.3535353535353544 3.7878787878787885,0.4545454545454551 3.6868686868686877,0.5555555555555567 3.5858585858585874,0.6565656565656574 3.4848484848484866,0.7575757575757579 3.383838383838384,0.8585858585858596 3.2828282828282833,0.9595959595959602 3.181818181818183,1.0606060606060617 3.080808080808082,1.0606060606060617 2.9797979797979806,1.0606060606060617 2.87878787878788,1.0606060606060617 2.7777777777777786,1.0606060606060617 2.676767676767678,1.0606060606060617 2.575757575757577,1.0606060606060617 2.4747474747474754,1.0606060606060617 2.373737373737375,1.0606060606060617 2.2727272727272734,1.0606060606060617 2.1717171717171726,1.0606060606060617 2.070707070707072,1.0606060606060617 1.9696969696969702,1.0606060606060617 1.8686868686868696,1.0606060606060617 1.767676767676768,1.0606060606060617 1.6666666666666674,1.0606060606060617 1.5656565656565666,1.0606060606060617 1.4646464646464652,1.0606060606060617 1.3636363636363644,1.0606060606060617 1.262626262626263,1.0606060606060617 1.1616161616161622,1.0606060606060617 1.0606060606060617,1.0606060606060617 0.9595959595959602,1.0606060606060617 0.8585858585858596,1.0606060606060617 0.7575757575757579,1.0606060606060617 0.6565656565656574,1.0606060606060617 0.5555555555555567,1.0606060606060617 0.4545454545454551,1.0606060606060617 0.3535353535353544,1.0606060606060617 0.2525252525252529,1.0606060606060617 0.1515151515151522,1.0606060606060617 0.050505050505051545,1.0606060606060617 -0.05050505050505001,1.0606060606060617 -0.15151515151515066,1.0606060606060617 -0.2525252525252522,1.0606060606060617 -0.35353535353535287,1.0606060606060617 -0.4545454545454544,1.0606060606060617 -0.555555555555555,1.0606060606060617" data-type="line" data-label="" points="984,583.5151515151516 974.4646464646464,573.979797979798 964.9292929292927,564.4444444444445 955.3939393939393,554.909090909091 945.8585858585857,545.3737373737374 936.3232323232323,535.838383838384 926.7878787878785,526.3030303030304 917.2525252525251,516.7676767676768 907.7171717171716,507.23232323232327 898.181818181818,497.69696969696975 888.6464646464647,488.1616161616163 879.111111111111,478.6262626262627 869.5757575757575,469.0909090909092 860.0404040404039,459.5555555555556 850.5050505050505,450.0202020202021 840.969696969697,440.4848484848486 831.4343434343433,430.94949494949503 821.8989898989898,421.4141414141415 812.3636363636363,411.87878787878793 802.8282828282828,411.87878787878793 793.2929292929292,411.87878787878793 783.7575757575758,411.87878787878793 774.2222222222222,411.87878787878793 764.6868686868686,411.87878787878793 755.1515151515151,411.87878787878793 745.6161616161615,411.87878787878793 736.0808080808081,411.87878787878793 726.5454545454545,411.87878787878793 717.0101010101009,411.87878787878793 707.4747474747475,411.87878787878793 697.9393939393939,411.87878787878793 688.4040404040404,411.87878787878793 678.8686868686868,411.87878787878793 669.3333333333333,411.87878787878793 659.7979797979798,411.87878787878793 650.2626262626262,411.87878787878793 640.7272727272727,411.87878787878793 631.1919191919192,411.87878787878793 621.6565656565656,411.87878787878793 612.1212121212121,411.87878787878793 602.5858585858585,411.87878787878793 593.0505050505051,411.87878787878793 583.5151515151515,411.87878787878793 573.9797979797979,411.87878787878793 564.4444444444445,411.87878787878793 554.9090909090909,411.87878787878793 545.3737373737374,411.87878787878793 535.8383838383838,411.87878787878793 526.3030303030303,411.87878787878793 516.7676767676768,411.87878787878793 507.2323232323232,411.87878787878793 497.69696969696975,411.87878787878793 488.16161616161617,411.87878787878793 478.62626262626264,411.87878787878793 469.09090909090907,411.87878787878793 459.55555555555554,411.87878787878793" fill="none" stroke="rgba(255,0,0,0.75)" stroke-width="14.159999999999995"/></g><g><polyline data-points="-0.555555555555555,1.0606060606060617 -0.6565656565656557,1.0606060606060617 -0.7575757575757572,1.0606060606060617 -0.8585858585858579,1.0606060606060617 -0.9595959595959596,1.0606060606060617 -1.0606060606060603,1.0606060606060617 -1.1616161616161613,1.0606060606060617 -1.2626262626262625,1.0606060606060617 -1.363636363636363,1.0606060606060617 -1.4646464646464643,1.0606060606060617 -1.5656565656565653,1.0606060606060617 -1.6666666666666665,1.0606060606060617 -1.7676767676767675,1.0606060606060617 -1.8686868686868683,1.0606060606060617 -1.9696969696969693,1.0606060606060617 -2.07070707070707,1.0606060606060617 -2.1717171717171713,1.0606060606060617 -2.2727272727272725,1.0606060606060617 -2.3737373737373733,1.0606060606060617 -2.474747474747474,1.0606060606060617 -2.5757575757575752,1.0606060606060617 -2.6767676767676765,1.0606060606060617 -2.7777777777777777,1.0606060606060617 -2.8787878787878785,1.0606060606060617 -2.9797979797979792,1.0606060606060617 -3.0808080808080804,1.0606060606060617 -3.1818181818181817,1.0606060606060617 -3.2828282828282824,1.0606060606060617 -3.383838383838383,1.0606060606060617 -3.484848484848485,1.0606060606060617 -3.5858585858585856,1.0606060606060617 -3.6868686868686864,1.0606060606060617 -3.7878787878787876,1.0606060606060617 -3.8888888888888884,1.0606060606060617 -3.98989898989899,1.0606060606060617" data-type="line" data-label="" points="459.55555555555554,411.87878787878793 450.0202020202021,411.87878787878793 440.4848484848485,411.87878787878793 430.949494949495,411.87878787878793 421.4141414141414,411.87878787878793 411.8787878787879,411.87878787878793 402.34343434343435,411.87878787878793 392.80808080808083,411.87878787878793 383.2727272727273,411.87878787878793 373.7373737373738,411.87878787878793 364.2020202020202,411.87878787878793 354.6666666666667,411.87878787878793 345.13131313131316,411.87878787878793 335.59595959595964,411.87878787878793 326.0606060606061,411.87878787878793 316.5252525252526,411.87878787878793 306.9898989898991,411.87878787878793 297.4545454545455,411.87878787878793 287.91919191919203,411.87878787878793 278.38383838383845,411.87878787878793 268.84848484848493,411.87878787878793 259.3131313131314,411.87878787878793 249.77777777777783,411.87878787878793 240.2424242424243,411.87878787878793 230.70707070707084,411.87878787878793 221.17171717171726,411.87878787878793 211.63636363636374,411.87878787878793 202.10101010101022,411.87878787878793 192.5656565656567,411.87878787878793 183.03030303030312,411.87878787878793 173.4949494949496,411.87878787878793 163.95959595959607,411.87878787878793 154.42424242424255,411.87878787878793 144.88888888888903,411.87878787878793 135.35353535353545,411.87878787878793" fill="none" stroke="rgba(0,0,255,0.75)" stroke-width="14.159999999999995"/></g><g><polyline data-points="-3.98989898989899,1.0606060606060617 -4.090909090909091,1.1616161616161622 -4.191919191919193,1.262626262626263 -4.292929292929293,1.3636363636363644 -4.393939393939394,1.4646464646464652 -4.494949494949496,1.5656565656565666 -4.595959595959596,1.6666666666666674 -4.696969696969697,1.767676767676768 -4.7979797979797985,1.767676767676768 -4.898989898989899,1.767676767676768 -5.000000000000001,1.767676767676768" data-type="line" data-label="" points="135.35353535353545,411.87878787878793 125.81818181818193,402.3434343434344 116.28282828282829,392.80808080808094 106.74747474747483,383.27272727272737 97.21212121212136,373.73737373737384 87.67676767676772,364.2020202020203 78.14141414141426,354.66666666666674 68.60606060606068,345.1313131313133 59.07070707070716,345.1313131313133 49.53535353535369,345.1313131313133 40.00000000000006,345.1313131313133" fill="none" stroke="rgba(255,0,0,0.75)" stroke-width="14.159999999999995"/></g><g><polyline data-points="-3.98989898989899,-5.000000000000001 -3.98989898989899,-4.898989898989899 -3.98989898989899,-4.7979797979797985 -3.98989898989899,-4.696969696969697 -3.98989898989899,-4.595959595959596 -3.98989898989899,-4.494949494949496 -3.98989898989899,-4.393939393939394 -3.98989898989899,-4.292929292929293 -3.98989898989899,-4.191919191919193 -3.98989898989899,-4.090909090909091 -3.98989898989899,-3.98989898989899 -3.98989898989899,-3.8888888888888884 -3.98989898989899,-3.7878787878787876 -3.98989898989899,-3.6868686868686864 -3.98989898989899,-3.5858585858585856 -3.98989898989899,-3.484848484848485 -3.98989898989899,-3.383838383838383 -3.98989898989899,-3.2828282828282824 -3.98989898989899,-3.1818181818181817 -3.98989898989899,-3.0808080808080804 -3.98989898989899,-2.9797979797979792 -3.98989898989899,-2.8787878787878785 -3.98989898989899,-2.7777777777777777 -3.98989898989899,-2.6767676767676765 -3.98989898989899,-2.5757575757575752 -3.98989898989899,-2.474747474747474 -3.98989898989899,-2.3737373737373733 -3.98989898989899,-2.2727272727272725 -3.98989898989899,-2.1717171717171713 -3.98989898989899,-2.07070707070707 -3.98989898989899,-1.9696969696969693 -3.98989898989899,-1.8686868686868683 -3.98989898989899,-1.7676767676767675 -3.98989898989899,-1.6666666666666665 -3.98989898989899,-1.5656565656565653 -3.98989898989899,-1.4646464646464643 -3.98989898989899,-1.363636363636363 -3.98989898989899,-1.2626262626262625 -3.98989898989899,-1.1616161616161613 -3.98989898989899,-1.0606060606060603 -3.98989898989899,-0.9595959595959596 -3.98989898989899,-0.8585858585858579 -3.98989898989899,-0.7575757575757572 -3.98989898989899,-0.6565656565656557 -3.98989898989899,-0.555555555555555 -3.98989898989899,-0.4545454545454544 -3.98989898989899,-0.35353535353535287 -3.98989898989899,-0.2525252525252522 -3.98989898989899,-0.15151515151515066 -3.98989898989899,-0.05050505050505001 -3.98989898989899,0.050505050505051545 -3.98989898989899,0.1515151515151522 -3.98989898989899,0.2525252525252529 -3.98989898989899,0.3535353535353544 -3.98989898989899,0.4545454545454551 -4.090909090909091,0.5555555555555567 -4.191919191919193,0.6565656565656574 -4.292929292929293,0.7575757575757579 -4.393939393939394,0.8585858585858596 -4.393939393939394,0.9595959595959602 -4.494949494949496,1.0606060606060617 -4.393939393939394,1.1616161616161622 -4.393939393939394,1.262626262626263 -4.292929292929293,1.3636363636363644 -4.191919191919193,1.4646464646464652 -4.090909090909091,1.5656565656565666 -3.98989898989899,1.6666666666666674 -3.8888888888888884,1.767676767676768 -3.7878787878787876,1.8686868686868696 -3.6868686868686864,1.9696969696969702 -3.5858585858585856,2.070707070707072 -3.484848484848485,2.1717171717171726 -3.383838383838383,2.2727272727272734 -3.2828282828282824,2.373737373737375 -3.2828282828282824,2.4747474747474754 -3.2828282828282824,2.575757575757577 -3.2828282828282824,2.676767676767678 -3.2828282828282824,2.7777777777777786 -3.2828282828282824,2.87878787878788 -3.2828282828282824,2.9797979797979806 -3.2828282828282824,3.080808080808082 -3.2828282828282824,3.181818181818183 -3.2828282828282824,3.2828282828282833 -3.2828282828282824,3.383838383838384 -3.2828282828282824,3.4848484848484866 -3.2828282828282824,3.5858585858585874 -3.2828282828282824,3.6868686868686877 -3.2828282828282824,3.7878787878787885 -3.2828282828282824,3.8888888888888893 -3.2828282828282824,3.989898989898992 -3.2828282828282824,4.090909090909092 -3.2828282828282824,4.191919191919193 -3.2828282828282824,4.292929292929293 -3.2828282828282824,4.393939393939394 -3.2828282828282824,4.494949494949497 -3.2828282828282824,4.595959595959597 -3.2828282828282824,4.696969696969697 -3.2828282828282824,4.7979797979797985 -3.2828282828282824,4.898989898989901 -3.2828282828282824,5.000000000000002" data-type="line" data-label="" points="135.35353535353545,984 135.35353535353545,974.4646464646464 135.35353535353545,964.9292929292928 135.35353535353545,955.3939393939394 135.35353535353545,945.8585858585858 135.35353535353545,936.3232323232323 135.35353535353545,926.7878787878788 135.35353535353545,917.2525252525252 135.35353535353545,907.7171717171718 135.35353535353545,898.1818181818181 135.35353535353545,888.6464646464647 135.35353535353545,879.1111111111111 135.35353535353545,869.5757575757575 135.35353535353545,860.0404040404039 135.35353535353545,850.5050505050505 135.35353535353545,840.969696969697 135.35353535353545,831.4343434343434 135.35353535353545,821.8989898989898 135.35353535353545,812.3636363636363 135.35353535353545,802.8282828282828 135.35353535353545,793.2929292929292 135.35353535353545,783.7575757575758 135.35353535353545,774.2222222222222 135.35353535353545,764.6868686868687 135.35353535353545,755.1515151515151 135.35353535353545,745.6161616161615 135.35353535353545,736.0808080808081 135.35353535353545,726.5454545454545 135.35353535353545,717.010101010101 135.35353535353545,707.4747474747475 135.35353535353545,697.939393939394 135.35353535353545,688.4040404040404 135.35353535353545,678.8686868686868 135.35353535353545,669.3333333333334 135.35353535353545,659.7979797979798 135.35353535353545,650.2626262626263 135.35353535353545,640.7272727272727 135.35353535353545,631.1919191919193 135.35353535353545,621.6565656565657 135.35353535353545,612.1212121212121 135.35353535353545,602.5858585858587 135.35353535353545,593.0505050505051 135.35353535353545,583.5151515151516 135.35353535353545,573.979797979798 135.35353535353545,564.4444444444445 135.35353535353545,554.909090909091 135.35353535353545,545.3737373737374 135.35353535353545,535.838383838384 135.35353535353545,526.3030303030304 135.35353535353545,516.7676767676768 135.35353535353545,507.23232323232327 135.35353535353545,497.69696969696975 135.35353535353545,488.1616161616163 135.35353535353545,478.6262626262627 135.35353535353545,469.0909090909092 125.81818181818193,459.5555555555556 116.28282828282829,450.0202020202021 106.74747474747483,440.4848484848486 97.21212121212136,430.94949494949503 97.21212121212136,421.4141414141415 87.67676767676772,411.87878787878793 97.21212121212136,402.3434343434344 97.21212121212136,392.80808080808094 106.74747474747483,383.27272727272737 116.28282828282829,373.73737373737384 125.81818181818193,364.2020202020203 135.35353535353545,354.66666666666674 144.88888888888903,345.1313131313133 154.42424242424255,335.5959595959597 163.95959595959607,326.06060606060623 173.4949494949496,316.5252525252526 183.03030303030312,306.9898989898991 192.5656565656567,297.4545454545456 202.10101010101022,287.91919191919203 202.10101010101022,278.38383838383857 202.10101010101022,268.84848484848493 202.10101010101022,259.3131313131314 202.10101010101022,249.77777777777794 202.10101010101022,240.24242424242436 202.10101010101022,230.70707070707084 202.10101010101022,221.17171717171726 202.10101010101022,211.63636363636374 202.10101010101022,202.10101010101027 202.10101010101022,192.56565656565675 202.10101010101022,183.03030303030312 202.10101010101022,173.4949494949496 202.10101010101022,163.95959595959613 202.10101010101022,154.4242424242426 202.10101010101022,144.88888888888908 202.10101010101022,135.35353535353545 202.10101010101022,125.81818181818198 202.10101010101022,116.28282828282846 202.10101010101022,106.747474747475 202.10101010101022,97.21212121212153 202.10101010101022,87.67676767676778 202.10101010101022,78.14141414141432 202.10101010101022,68.60606060606085 202.10101010101022,59.07070707070733 202.10101010101022,49.53535353535369 202.10101010101022,40.000000000000114" fill="none" stroke="rgba(0,0,255,0.75)" stroke-width="14.159999999999995"/></g><g><polyline data-points="-5.000000000000001,0.5555555555555567 -4.898989898989899,0.4545454545454551 -4.7979797979797985,0.3535353535353544 -4.696969696969697,0.2525252525252529 -4.595959595959596,0.1515151515151522 -4.494949494949496,0.050505050505051545 -4.393939393939394,-0.05050505050505001 -4.292929292929293,-0.15151515151515066 -4.191919191919193,-0.2525252525252522 -4.090909090909091,-0.35353535353535287 -3.98989898989899,-0.4545454545454544 -3.8888888888888884,-0.555555555555555 -3.7878787878787876,-0.6565656565656557 -3.6868686868686864,-0.7575757575757572 -3.5858585858585856,-0.8585858585858579 -3.484848484848485,-0.9595959595959596 -3.383838383838383,-1.0606060606060603 -3.2828282828282824,-1.1616161616161613 -3.1818181818181817,-1.2626262626262625 -3.0808080808080804,-1.363636363636363 -2.9797979797979792,-1.4646464646464643 -2.8787878787878785,-1.5656565656565653" data-type="line" data-label="" points="40.00000000000006,459.5555555555556 49.53535353535369,469.0909090909092 59.07070707070716,478.6262626262627 68.60606060606068,488.1616161616163 78.14141414141426,497.69696969696975 87.67676767676772,507.23232323232327 97.21212121212136,516.7676767676768 106.74747474747483,526.3030303030304 116.28282828282829,535.838383838384 125.81818181818193,545.3737373737374 135.35353535353545,554.909090909091 144.88888888888903,564.4444444444445 154.42424242424255,573.979797979798 163.95959595959607,583.5151515151516 173.4949494949496,593.0505050505051 183.03030303030312,602.5858585858587 192.5656565656567,612.1212121212121 202.10101010101022,621.6565656565657 211.63636363636374,631.1919191919193 221.17171717171726,640.7272727272727 230.70707070707084,650.2626262626263 240.2424242424243,659.7979797979798" fill="none" stroke="rgba(255,0,0,0.75)" stroke-width="14.159999999999995"/></g><g><polyline data-points="-2.8787878787878785,-1.5656565656565653 -2.7777777777777777,-1.6666666666666665 -2.6767676767676765,-1.7676767676767675 -2.5757575757575752,-1.8686868686868683 -2.474747474747474,-1.9696969696969693 -2.3737373737373733,-2.07070707070707 -2.2727272727272725,-2.1717171717171713 -2.1717171717171713,-2.2727272727272725 -2.07070707070707,-2.3737373737373733 -1.9696969696969693,-2.474747474747474 -1.8686868686868683,-2.5757575757575752 -1.7676767676767675,-2.6767676767676765 -1.6666666666666665,-2.7777777777777777 -1.5656565656565653,-2.7777777777777777 -1.4646464646464643,-2.7777777777777777 -1.363636363636363,-2.7777777777777777 -1.2626262626262625,-2.7777777777777777 -1.1616161616161613,-2.7777777777777777 -1.0606060606060603,-2.8787878787878785 -0.9595959595959596,-2.8787878787878785 -0.8585858585858579,-2.9797979797979792 -0.7575757575757572,-3.0808080808080804 -0.6565656565656557,-3.1818181818181817 -0.555555555555555,-3.2828282828282824 -0.4545454545454544,-3.383838383838383 -0.35353535353535287,-3.484848484848485 -0.2525252525252522,-3.5858585858585856 -0.15151515151515066,-3.6868686868686864 -0.05050505050505001,-3.7878787878787876 0.050505050505051545,-3.8888888888888884 0.1515151515151522,-3.98989898989899 0.2525252525252529,-4.090909090909091 0.3535353535353544,-4.191919191919193 0.4545454545454551,-4.191919191919193 0.5555555555555567,-4.191919191919193 0.6565656565656574,-4.191919191919193 0.7575757575757579,-4.191919191919193 0.8585858585858596,-4.191919191919193 0.9595959595959602,-4.191919191919193 1.0606060606060617,-4.191919191919193 1.1616161616161622,-4.191919191919193 1.262626262626263,-4.191919191919193 1.3636363636363644,-4.191919191919193 1.4646464646464652,-4.191919191919193 1.5656565656565666,-4.191919191919193 1.6666666666666674,-4.191919191919193 1.767676767676768,-4.191919191919193 1.8686868686868696,-4.191919191919193 1.9696969696969702,-4.191919191919193 2.070707070707072,-4.191919191919193 2.1717171717171726,-4.191919191919193 2.2727272727272734,-4.191919191919193 2.373737373737375,-4.191919191919193 2.4747474747474754,-4.191919191919193 2.575757575757577,-4.191919191919193 2.676767676767678,-4.191919191919193 2.7777777777777786,-4.191919191919193 2.87878787878788,-4.191919191919193 2.9797979797979806,-4.191919191919193 3.080808080808082,-4.191919191919193 3.181818181818183,-4.191919191919193 3.2828282828282833,-4.191919191919193 3.383838383838384,-4.191919191919193 3.4848484848484866,-4.191919191919193 3.5858585858585874,-4.191919191919193 3.6868686868686877,-4.191919191919193 3.7878787878787885,-4.191919191919193 3.8888888888888893,-4.191919191919193 3.989898989898992,-4.191919191919193 4.090909090909092,-4.191919191919193 4.191919191919193,-4.191919191919193 4.292929292929293,-4.191919191919193 4.393939393939394,-4.191919191919193 4.494949494949497,-4.191919191919193 4.595959595959597,-4.191919191919193 4.696969696969697,-4.191919191919193 4.7979797979797985,-4.191919191919193 4.898989898989901,-4.191919191919193 5.000000000000002,-4.191919191919193" data-type="line" data-label="" points="240.2424242424243,659.7979797979798 249.77777777777783,669.3333333333334 259.3131313131314,678.8686868686868 268.84848484848493,688.4040404040404 278.38383838383845,697.939393939394 287.91919191919203,707.4747474747475 297.4545454545455,717.010101010101 306.9898989898991,726.5454545454545 316.5252525252526,736.0808080808081 326.0606060606061,745.6161616161615 335.59595959595964,755.1515151515151 345.13131313131316,764.6868686868687 354.6666666666667,774.2222222222222 364.2020202020202,774.2222222222222 373.7373737373738,774.2222222222222 383.2727272727273,774.2222222222222 392.80808080808083,774.2222222222222 402.34343434343435,774.2222222222222 411.8787878787879,783.7575757575758 421.4141414141414,783.7575757575758 430.949494949495,793.2929292929292 440.4848484848485,802.8282828282828 450.0202020202021,812.3636363636363 459.55555555555554,821.8989898989898 469.09090909090907,831.4343434343434 478.62626262626264,840.969696969697 488.16161616161617,850.5050505050505 497.69696969696975,860.0404040404039 507.2323232323232,869.5757575757575 516.7676767676768,879.1111111111111 526.3030303030303,888.6464646464647 535.8383838383838,898.1818181818181 545.3737373737374,907.7171717171718 554.9090909090909,907.7171717171718 564.4444444444445,907.7171717171718 573.9797979797979,907.7171717171718 583.5151515151515,907.7171717171718 593.0505050505051,907.7171717171718 602.5858585858585,907.7171717171718 612.1212121212121,907.7171717171718 621.6565656565656,907.7171717171718 631.1919191919192,907.7171717171718 640.7272727272727,907.7171717171718 650.2626262626262,907.7171717171718 659.7979797979798,907.7171717171718 669.3333333333333,907.7171717171718 678.8686868686868,907.7171717171718 688.4040404040404,907.7171717171718 697.9393939393939,907.7171717171718 707.4747474747475,907.7171717171718 717.0101010101009,907.7171717171718 726.5454545454545,907.7171717171718 736.0808080808081,907.7171717171718 745.6161616161615,907.7171717171718 755.1515151515151,907.7171717171718 764.6868686868686,907.7171717171718 774.2222222222222,907.7171717171718 783.7575757575758,907.7171717171718 793.2929292929292,907.7171717171718 802.8282828282828,907.7171717171718 812.3636363636363,907.7171717171718 821.8989898989898,907.7171717171718 831.4343434343433,907.7171717171718 840.969696969697,907.7171717171718 850.5050505050505,907.7171717171718 860.0404040404039,907.7171717171718 869.5757575757575,907.7171717171718 879.111111111111,907.7171717171718 888.6464646464647,907.7171717171718 898.181818181818,907.7171717171718 907.7171717171716,907.7171717171718 917.2525252525251,907.7171717171718 926.7878787878785,907.7171717171718 936.3232323232323,907.7171717171718 945.8585858585857,907.7171717171718 955.3939393939393,907.7171717171718 964.9292929292927,907.7171717171718 974.4646464646464,907.7171717171718 984,907.7171717171718" fill="none" stroke="rgba(0,0,255,0.75)" stroke-width="14.159999999999995"/></g><g><polyline data-points="-4.393939393939394,5.000000000000002 -4.292929292929293,4.898989898989901 -4.191919191919193,4.7979797979797985 -4.090909090909091,4.696969696969697 -3.98989898989899,4.595959595959597 -3.8888888888888884,4.494949494949497 -3.8888888888888884,4.393939393939394 -3.8888888888888884,4.292929292929293 -3.8888888888888884,4.191919191919193 -3.8888888888888884,4.090909090909092 -3.8888888888888884,3.989898989898992" data-type="line" data-label="" points="97.21212121212136,40.000000000000114 106.74747474747483,49.53535353535369 116.28282828282829,59.07070707070733 125.81818181818193,68.60606060606085 135.35353535353545,78.14141414141432 144.88888888888903,87.67676767676778 144.88888888888903,97.21212121212153 144.88888888888903,106.747474747475 144.88888888888903,116.28282828282846 144.88888888888903,125.81818181818198 144.88888888888903,135.35353535353545" fill="none" stroke="rgba(0,0,255,0.75)" stroke-width="14.159999999999995"/></g><g><polyline data-points="-3.8888888888888884,3.989898989898992 -3.7878787878787876,3.989898989898992 -3.6868686868686864,3.989898989898992 -3.5858585858585856,3.989898989898992 -3.484848484848485,3.989898989898992 -3.383838383838383,3.989898989898992 -3.2828282828282824,3.989898989898992 -3.1818181818181817,3.989898989898992 -3.0808080808080804,3.989898989898992 -2.9797979797979792,3.989898989898992 -2.8787878787878785,3.989898989898992 -2.7777777777777777,3.989898989898992 -2.6767676767676765,3.989898989898992" data-type="line" data-label="" points="144.88888888888903,135.35353535353545 154.42424242424255,135.35353535353545 163.95959595959607,135.35353535353545 173.4949494949496,135.35353535353545 183.03030303030312,135.35353535353545 192.5656565656567,135.35353535353545 202.10101010101022,135.35353535353545 211.63636363636374,135.35353535353545 221.17171717171726,135.35353535353545 230.70707070707084,135.35353535353545 240.2424242424243,135.35353535353545 249.77777777777783,135.35353535353545 259.3131313131314,135.35353535353545" fill="none" stroke="rgba(255,0,0,0.75)" stroke-width="14.159999999999995"/></g><g><polyline data-points="-2.6767676767676765,3.989898989898992 -2.5757575757575752,4.090909090909092 -2.474747474747474,4.191919191919193 -2.3737373737373733,4.292929292929293 -2.2727272727272725,4.393939393939394 -2.1717171717171713,4.494949494949497 -2.07070707070707,4.494949494949497 -1.9696969696969693,4.494949494949497 -1.8686868686868683,4.494949494949497 -1.7676767676767675,4.494949494949497 -1.6666666666666665,4.494949494949497 -1.5656565656565653,4.494949494949497 -1.4646464646464643,4.494949494949497 -1.363636363636363,4.494949494949497 -1.2626262626262625,4.494949494949497 -1.1616161616161613,4.494949494949497 -1.0606060606060603,4.494949494949497 -0.9595959595959596,4.494949494949497 -0.8585858585858579,4.494949494949497 -0.7575757575757572,4.494949494949497 -0.6565656565656557,4.494949494949497 -0.555555555555555,4.494949494949497 -0.4545454545454544,4.494949494949497 -0.35353535353535287,4.494949494949497 -0.2525252525252522,4.494949494949497 -0.15151515151515066,4.494949494949497 -0.05050505050505001,4.494949494949497 0.050505050505051545,4.494949494949497 0.1515151515151522,4.494949494949497 0.2525252525252529,4.494949494949497 0.3535353535353544,4.494949494949497 0.4545454545454551,4.494949494949497 0.5555555555555567,4.494949494949497 0.6565656565656574,4.494949494949497 0.7575757575757579,4.494949494949497 0.8585858585858596,4.494949494949497 0.9595959595959602,4.494949494949497 1.0606060606060617,4.494949494949497 1.1616161616161622,4.494949494949497 1.262626262626263,4.494949494949497 1.3636363636363644,4.494949494949497 1.4646464646464652,4.494949494949497 1.5656565656565666,4.494949494949497 1.6666666666666674,4.494949494949497 1.767676767676768,4.494949494949497 1.8686868686868696,4.494949494949497 1.9696969696969702,4.494949494949497 2.070707070707072,4.494949494949497 2.1717171717171726,4.494949494949497 2.2727272727272734,4.494949494949497 2.373737373737375,4.494949494949497 2.4747474747474754,4.494949494949497 2.575757575757577,4.494949494949497 2.676767676767678,4.494949494949497 2.7777777777777786,4.393939393939394 2.87878787878788,4.292929292929293 2.9797979797979806,4.191919191919193 3.080808080808082,4.090909090909092 3.181818181818183,3.989898989898992" data-type="line" data-label="" points="259.3131313131314,135.35353535353545 268.84848484848493,125.81818181818198 278.38383838383845,116.28282828282846 287.91919191919203,106.747474747475 297.4545454545455,97.21212121212153 306.9898989898991,87.67676767676778 316.5252525252526,87.67676767676778 326.0606060606061,87.67676767676778 335.59595959595964,87.67676767676778 345.13131313131316,87.67676767676778 354.6666666666667,87.67676767676778 364.2020202020202,87.67676767676778 373.7373737373738,87.67676767676778 383.2727272727273,87.67676767676778 392.80808080808083,87.67676767676778 402.34343434343435,87.67676767676778 411.8787878787879,87.67676767676778 421.4141414141414,87.67676767676778 430.949494949495,87.67676767676778 440.4848484848485,87.67676767676778 450.0202020202021,87.67676767676778 459.55555555555554,87.67676767676778 469.09090909090907,87.67676767676778 478.62626262626264,87.67676767676778 488.16161616161617,87.67676767676778 497.69696969696975,87.67676767676778 507.2323232323232,87.67676767676778 516.7676767676768,87.67676767676778 526.3030303030303,87.67676767676778 535.8383838383838,87.67676767676778 545.3737373737374,87.67676767676778 554.9090909090909,87.67676767676778 564.4444444444445,87.67676767676778 573.9797979797979,87.67676767676778 583.5151515151515,87.67676767676778 593.0505050505051,87.67676767676778 602.5858585858585,87.67676767676778 612.1212121212121,87.67676767676778 621.6565656565656,87.67676767676778 631.1919191919192,87.67676767676778 640.7272727272727,87.67676767676778 650.2626262626262,87.67676767676778 659.7979797979798,87.67676767676778 669.3333333333333,87.67676767676778 678.8686868686868,87.67676767676778 688.4040404040404,87.67676767676778 697.9393939393939,87.67676767676778 707.4747474747475,87.67676767676778 717.0101010101009,87.67676767676778 726.5454545454545,87.67676767676778 736.0808080808081,87.67676767676778 745.6161616161615,87.67676767676778 755.1515151515151,87.67676767676778 764.6868686868686,87.67676767676778 774.2222222222222,97.21212121212153 783.7575757575758,106.747474747475 793.2929292929292,116.28282828282846 802.8282828282828,125.81818181818198 812.3636363636363,135.35353535353545" fill="none" stroke="rgba(0,0,255,0.75)" stroke-width="14.159999999999995"/></g><g><polyline data-points="3.181818181818183,3.989898989898992 3.2828282828282833,4.090909090909092 3.2828282828282833,4.191919191919193 3.2828282828282833,4.292929292929293 3.2828282828282833,4.393939393939394 3.2828282828282833,4.494949494949497 3.2828282828282833,4.595959595959597 3.2828282828282833,4.696969696969697 3.2828282828282833,4.7979797979797985 3.2828282828282833,4.898989898989901 3.383838383838384,5.000000000000002" data-type="line" data-label="" points="812.3636363636363,135.35353535353545 821.8989898989898,125.81818181818198 821.8989898989898,116.28282828282846 821.8989898989898,106.747474747475 821.8989898989898,97.21212121212153 821.8989898989898,87.67676767676778 821.8989898989898,78.14141414141432 821.8989898989898,68.60606060606085 821.8989898989898,59.07070707070733 821.8989898989898,49.53535353535369 831.4343434343433,40.000000000000114" fill="none" stroke="rgba(255,0,0,0.75)" stroke-width="14.159999999999995"/></g><g><rect data-type="rect" data-label="" data-x="0" data-y="0" x="40.000000000000114" y="40.000000000000284" width="943.9999999999997" height="943.9999999999998" fill="none" stroke="gray" stroke-width="0.010593220338983056"/></g><g><rect data-type="rect" data-label="" data-x="0" data-y="0" x="40.000000000000114" y="40.000000000000284" width="943.9999999999997" height="943.9999999999998" fill="none" stroke="rgba(15, 23, 42, 0.8)" stroke-width="0.010593220338983056"/></g><circle data-type="circle" data-label="" data-x="-1.7676767676767675" data-y="-3.98989898989899" cx="345.13131313131316" cy="888.6464646464647" r="28.791999999999987" fill="rgba(0,0,0,0.3)" stroke="black" stroke-width="0.010593220338983056"/><circle data-type="circle" data-label="" data-x="-1.1616161616161613" data-y="-3.2828282828282824" cx="402.34343434343435" cy="821.8989898989898" r="28.791999999999987" fill="rgba(0,0,0,0.3)" stroke="black" stroke-width="0.010593220338983056"/><circle data-type="circle" data-label="" data-x="-0.7575757575757572" data-y="3.989898989898992" cx="440.4848484848485" cy="135.35353535353545" r="28.791999999999987" fill="rgba(0,0,0,0.3)" stroke="black" stroke-width="0.010593220338983056"/><circle data-type="circle" data-label="" data-x="-0.555555555555555" data-y="1.0606060606060617" cx="459.55555555555554" cy="411.87878787878793" r="28.791999999999987" fill="rgba(0,0,0,0.3)" stroke="black" stroke-width="0.010593220338983056"/><circle data-type="circle" data-label="" data-x="-3.98989898989899" data-y="1.0606060606060617" cx="135.35353535353545" cy="411.87878787878793" r="28.791999999999987" fill="rgba(0,0,0,0.3)" stroke="black" stroke-width="0.010593220338983056"/><circle data-type="circle" data-label="" data-x="-2.8787878787878785" data-y="-1.5656565656565653" cx="240.2424242424243" cy="659.7979797979798" r="28.791999999999987" fill="rgba(0,0,0,0.3)" stroke="black" stroke-width="0.010593220338983056"/><circle data-type="circle" data-label="" data-x="-3.8888888888888884" data-y="3.989898989898992" cx="144.88888888888903" cy="135.35353535353545" r="28.791999999999987" fill="rgba(0,0,0,0.3)" stroke="black" stroke-width="0.010593220338983056"/><circle data-type="circle" data-label="" data-x="-2.6767676767676765" data-y="3.989898989898992" cx="259.3131313131314" cy="135.35353535353545" r="28.791999999999987" fill="rgba(0,0,0,0.3)" stroke="black" stroke-width="0.010593220338983056"/><circle data-type="circle" data-label="" data-x="3.181818181818183" data-y="3.989898989898992" cx="812.3636363636363" cy="135.35353535353545" r="28.791999999999987" fill="rgba(0,0,0,0.3)" stroke="black" stroke-width="0.010593220338983056"/><g id="crosshair" style="display: none"><line id="crosshair-h" y1="0" y2="1024" stroke="#666" stroke-width="0.5"/><line id="crosshair-v" x1="0" x2="1024" stroke="#666" stroke-width="0.5"/><text id="coordinates" font-family="monospace" font-size="12" fill="#666"></text></g><script><![CDATA[
              document.currentScript.parentElement.addEventListener('mousemove', (e) => {
                const svg = e.currentTarget;
                const rect = svg.getBoundingClientRect();
                const x = e.clientX - rect.left;
                const y = e.clientY - rect.top;
                const crosshair = svg.getElementById('crosshair');
                const h = svg.getElementById('crosshair-h');
                const v = svg.getElementById('crosshair-v');
                const coords = svg.getElementById('coordinates');
                
                crosshair.style.display = 'block';
                h.setAttribute('x1', '0');
                h.setAttribute('x2', '1024');
                h.setAttribute('y1', y);
                h.setAttribute('y2', y);
                v.setAttribute('x1', x);
                v.setAttribute('x2', x);
                v.setAttribute('y1', '0');
                v.setAttribute('y2', '1024');

                // Calculate real coordinates using inverse transformation
                const matrix = {"a":94.39999999999996,"c":0,"e":511.99999999999994,"b":0,"d":-94.39999999999996,"f":512.0000000000001};
                // Manually invert and apply the affine transform
                // Since we only use translate and scale, we can directly compute:
                // x' = (x - tx) / sx
                // y' = (y - ty) / sy
                const sx = matrix.a;
                const sy = matrix.d;
                const tx = matrix.e; 
                const ty = matrix.f;
                const realPoint = {
                  x: (x - tx) / sx,
                  y: (y - ty) / sy // Flip y back since we used negative scale
                }
                
                coords.textContent = `(${realPoint.x.toFixed(2)}, ${realPoint.y.toFixed(2)})`;
                coords.setAttribute('x', (x + 5).toString());
                coords.setAttribute('y', (y - 5).toString());
              });
              document.currentScript.parentElement.addEventListener('mouseleave', () => {
                document.currentScript.parentElement.getElementById('crosshair').style.display = 'none';
              });
            ]]></script></svg>