<svg width="1024" height="1024" viewBox="0 0 1024 1024" xmlns="http://www.w3.org/2000/svg"><rect width="100%" height="100%" fill="white"/><g><circle data-type="point" data-label="conn_000" data-x="5" data-y="0.38" cx="983.9999999999998" cy="476.12800000000016" r="28.792" fill="blue" stroke="#bda70f" stroke-width="28.792"/></g><g><circle data-type="point" data-label="conn_000" data-x="5" data-y="3.56" cx="983.9999999999998" cy="175.93600000000026" r="28.792" fill="red" stroke="#bda70f" stroke-width="28.792"/></g><g><circle data-type="point" data-label="conn_001" data-x="5" data-y="-1.3800000000000001" cx="983.9999999999998" cy="642.272" r="28.792" fill="red" stroke="#0fa0bd" stroke-width="28.792"/></g><g><circle data-type="point" data-label="conn_001" data-x="-5" data-y="-2.54" cx="40.000000000000114" cy="751.7760000000001" r="28.792" fill="blue" stroke="#0fa0bd" stroke-width="28.792"/></g><g><circle data-type="point" data-label="conn_002" data-x="3.74" data-y="-5" cx="865.0559999999998" cy="984" r="28.792" fill="blue" stroke="#bd0f6d" stroke-width="28.792"/></g><g><circle data-type="point" data-label="conn_002" data-x="0.48" data-y="5" cx="557.3119999999999" cy="40.000000000000284" r="28.792" fill="blue" stroke="#bd0f6d" stroke-width="28.792"/></g><g><circle data-type="point" data-label="conn_003" data-x="0.9400000000000001" data-y="-5" cx="600.7359999999999" cy="984" r="28.792" fill="blue" stroke="#3bbd0f" stroke-width="28.792"/></g><g><circle data-type="point" data-label="conn_003" data-x="3.86" data-y="5" cx="876.3839999999998" cy="40.000000000000284" r="28.792" fill="blue" stroke="#3bbd0f" stroke-width="28.792"/></g><g><polyline data-points="3.7878787878787885,-5.000000000000001 3.6868686868686877,-4.898989898989899 3.5858585858585874,-4.7979797979797985 3.4848484848484866,-4.696969696969697 3.383838383838384,-4.595959595959596 3.2828282828282833,-4.494949494949496 3.181818181818183,-4.393939393939394 3.080808080808082,-4.292929292929293 2.9797979797979806,-4.191919191919193 2.87878787878788,-4.090909090909091 2.7777777777777786,-3.98989898989899" data-type="line" data-label="" points="869.5757575757575,984 860.0404040404039,974.4646464646464 850.5050505050505,964.9292929292928 840.969696969697,955.3939393939394 831.4343434343433,945.8585858585858 821.8989898989898,936.3232323232323 812.3636363636363,926.7878787878788 802.8282828282828,917.2525252525252 793.2929292929292,907.7171717171718 783.7575757575758,898.1818181818181 774.2222222222222,888.6464646464647" fill="none" stroke="rgba(0,0,255,0.75)" stroke-width="14.159999999999995"/></g><g><polyline data-points="2.7777777777777786,-3.98989898989899 2.676767676767678,-3.8888888888888884 2.575757575757577,-3.7878787878787876 2.4747474747474754,-3.6868686868686864 2.373737373737375,-3.5858585858585856 2.2727272727272734,-3.484848484848485 2.1717171717171726,-3.383838383838383 2.070707070707072,-3.2828282828282824 1.9696969696969702,-3.1818181818181817 1.8686868686868696,-3.0808080808080804 1.767676767676768,-2.9797979797979792 1.6666666666666674,-2.8787878787878785 1.5656565656565666,-2.7777777777777777 1.4646464646464652,-2.6767676767676765 1.3636363636363644,-2.5757575757575752 1.262626262626263,-2.474747474747474 1.1616161616161622,-2.3737373737373733 1.0606060606060617,-2.2727272727272725 0.9595959595959602,-2.1717171717171713 0.8585858585858596,-2.07070707070707 0.7575757575757579,-1.9696969696969693 0.6565656565656574,-1.8686868686868683 0.5555555555555567,-1.7676767676767675 0.4545454545454551,-1.6666666666666665 0.4545454545454551,-1.5656565656565653 0.4545454545454551,-1.4646464646464643 0.4545454545454551,-1.363636363636363 0.4545454545454551,-1.2626262626262625 0.4545454545454551,-1.1616161616161613 0.4545454545454551,-1.0606060606060603 0.4545454545454551,-0.9595959595959596 0.4545454545454551,-0.8585858585858579 0.4545454545454551,-0.7575757575757572 0.4545454545454551,-0.6565656565656557 0.4545454545454551,-0.555555555555555 0.4545454545454551,-0.4545454545454544 0.4545454545454551,-0.35353535353535287 0.4545454545454551,-0.2525252525252522 0.4545454545454551,-0.15151515151515066 0.4545454545454551,-0.05050505050505001 0.4545454545454551,0.050505050505051545 0.4545454545454551,0.1515151515151522 0.4545454545454551,0.2525252525252529 0.4545454545454551,0.3535353535353544 0.4545454545454551,0.4545454545454551 0.4545454545454551,0.5555555555555567 0.4545454545454551,0.6565656565656574 0.4545454545454551,0.7575757575757579 0.4545454545454551,0.8585858585858596 0.4545454545454551,0.9595959595959602 0.4545454545454551,1.0606060606060617 0.4545454545454551,1.1616161616161622 0.4545454545454551,1.262626262626263 0.4545454545454551,1.3636363636363644 0.4545454545454551,1.4646464646464652 0.4545454545454551,1.5656565656565666 0.4545454545454551,1.6666666666666674 0.4545454545454551,1.767676767676768 0.4545454545454551,1.8686868686868696 0.4545454545454551,1.9696969696969702 0.4545454545454551,2.070707070707072 0.4545454545454551,2.1717171717171726 0.4545454545454551,2.2727272727272734 0.4545454545454551,2.373737373737375 0.4545454545454551,2.4747474747474754 0.4545454545454551,2.575757575757577 0.4545454545454551,2.676767676767678 0.4545454545454551,2.7777777777777786 0.4545454545454551,2.87878787878788 0.4545454545454551,2.9797979797979806 0.4545454545454551,3.080808080808082 0.4545454545454551,3.181818181818183 0.4545454545454551,3.2828282828282833 0.4545454545454551,3.383838383838384 0.4545454545454551,3.4848484848484866 0.4545454545454551,3.5858585858585874 0.4545454545454551,3.6868686868686877 0.4545454545454551,3.7878787878787885 0.4545454545454551,3.8888888888888893 0.4545454545454551,3.989898989898992" data-type="line" data-label="" points="774.2222222222222,888.6464646464647 764.6868686868686,879.1111111111111 755.1515151515151,869.5757575757575 745.6161616161615,860.0404040404039 736.0808080808081,850.5050505050505 726.5454545454545,840.969696969697 717.0101010101009,831.4343434343434 707.4747474747475,821.8989898989898 697.9393939393939,812.3636363636363 688.4040404040404,802.8282828282828 678.8686868686868,793.2929292929292 669.3333333333333,783.7575757575758 659.7979797979798,774.2222222222222 650.2626262626262,764.6868686868687 640.7272727272727,755.1515151515151 631.1919191919192,745.6161616161615 621.6565656565656,736.0808080808081 612.1212121212121,726.5454545454545 602.5858585858585,717.010101010101 593.0505050505051,707.4747474747475 583.5151515151515,697.939393939394 573.9797979797979,688.4040404040404 564.4444444444445,678.8686868686868 554.9090909090909,669.3333333333334 554.9090909090909,659.7979797979798 554.9090909090909,650.2626262626263 554.9090909090909,640.7272727272727 554.9090909090909,631.1919191919193 554.9090909090909,621.6565656565657 554.9090909090909,612.1212121212121 554.9090909090909,602.5858585858587 554.9090909090909,593.0505050505051 554.9090909090909,583.5151515151516 554.9090909090909,573.979797979798 554.9090909090909,564.4444444444445 554.9090909090909,554.909090909091 554.9090909090909,545.3737373737374 554.9090909090909,535.838383838384 554.9090909090909,526.3030303030304 554.9090909090909,516.7676767676768 554.9090909090909,507.23232323232327 554.9090909090909,497.69696969696975 554.9090909090909,488.1616161616163 554.9090909090909,478.6262626262627 554.9090909090909,469.0909090909092 554.9090909090909,459.5555555555556 554.9090909090909,450.0202020202021 554.9090909090909,440.4848484848486 554.9090909090909,430.94949494949503 554.9090909090909,421.4141414141415 554.9090909090909,411.87878787878793 554.9090909090909,402.3434343434344 554.9090909090909,392.80808080808094 554.9090909090909,383.27272727272737 554.9090909090909,373.73737373737384 554.9090909090909,364.2020202020203 554.9090909090909,354.66666666666674 554.9090909090909,345.1313131313133 554.9090909090909,335.5959595959597 554.9090909090909,326.06060606060623 554.9090909090909,316.5252525252526 554.9090909090909,306.9898989898991 554.9090909090909,297.4545454545456 554.9090909090909,287.91919191919203 554.9090909090909,278.38383838383857 554.9090909090909,268.84848484848493 554.9090909090909,259.3131313131314 554.9090909090909,249.77777777777794 554.9090909090909,240.24242424242436 554.9090909090909,230.70707070707084 554.9090909090909,221.17171717171726 554.9090909090909,211.63636363636374 554.9090909090909,202.10101010101027 554.9090909090909,192.56565656565675 554.9090909090909,183.03030303030312 554.9090909090909,173.4949494949496 554.9090909090909,163.95959595959613 554.9090909090909,154.4242424242426 554.9090909090909,144.88888888888908 554.9090909090909,135.35353535353545" fill="none" stroke="rgba(255,0,0,0.75)" stroke-width="14.159999999999995"/></g><g><polyline data-points="0.4545454545454551,3.989898989898992 0.4545454545454551,4.090909090909092 0.4545454545454551,4.191919191919193 0.4545454545454551,4.292929292929293 0.4545454545454551,4.393939393939394 0.4545454545454551,4.494949494949497 0.4545454545454551,4.595959595959597 0.4545454545454551,4.696969696969697 0.4545454545454551,4.7979797979797985 0.4545454545454551,4.898989898989901 0.4545454545454551,5.000000000000002" data-type="line" data-label="" points="554.9090909090909,135.35353535353545 554.9090909090909,125.81818181818198 554.9090909090909,116.28282828282846 554.9090909090909,106.747474747475 554.9090909090909,97.21212121212153 554.9090909090909,87.67676767676778 554.9090909090909,78.14141414141432 554.9090909090909,68.60606060606085 554.9090909090909,59.07070707070733 554.9090909090909,49.53535353535369 554.9090909090909,40.000000000000114" fill="none" stroke="rgba(0,0,255,0.75)" stroke-width="14.159999999999995"/></g><g><polyline data-points="5.000000000000002,-1.363636363636363 4.898989898989901,-1.4646464646464643 4.7979797979797985,-1.5656565656565653 4.696969696969697,-1.6666666666666665 4.595959595959597,-1.7676767676767675 4.494949494949497,-1.8686868686868683 4.393939393939394,-1.9696969696969693 4.292929292929293,-2.07070707070707 4.191919191919193,-2.1717171717171713 4.090909090909092,-2.2727272727272725 3.989898989898992,-2.2727272727272725 3.8888888888888893,-2.3737373737373733 3.7878787878787885,-2.3737373737373733 3.6868686868686877,-2.474747474747474 3.5858585858585874,-2.5757575757575752 3.4848484848484866,-2.5757575757575752 3.383838383838384,-2.5757575757575752 3.2828282828282833,-2.5757575757575752 3.181818181818183,-2.5757575757575752 3.080808080808082,-2.5757575757575752 2.9797979797979806,-2.5757575757575752 2.87878787878788,-2.5757575757575752 2.7777777777777786,-2.5757575757575752 2.676767676767678,-2.5757575757575752 2.575757575757577,-2.5757575757575752 2.4747474747474754,-2.5757575757575752 2.373737373737375,-2.5757575757575752 2.2727272727272734,-2.5757575757575752 2.1717171717171726,-2.5757575757575752" data-type="line" data-label="" points="984,640.7272727272727 974.4646464646464,650.2626262626263 964.9292929292927,659.7979797979798 955.3939393939393,669.3333333333334 945.8585858585857,678.8686868686868 936.3232323232323,688.4040404040404 926.7878787878785,697.939393939394 917.2525252525251,707.4747474747475 907.7171717171716,717.010101010101 898.181818181818,726.5454545454545 888.6464646464647,726.5454545454545 879.111111111111,736.0808080808081 869.5757575757575,736.0808080808081 860.0404040404039,745.6161616161615 850.5050505050505,755.1515151515151 840.969696969697,755.1515151515151 831.4343434343433,755.1515151515151 821.8989898989898,755.1515151515151 812.3636363636363,755.1515151515151 802.8282828282828,755.1515151515151 793.2929292929292,755.1515151515151 783.7575757575758,755.1515151515151 774.2222222222222,755.1515151515151 764.6868686868686,755.1515151515151 755.1515151515151,755.1515151515151 745.6161616161615,755.1515151515151 736.0808080808081,755.1515151515151 726.5454545454545,755.1515151515151 717.0101010101009,755.1515151515151" fill="none" stroke="rgba(255,0,0,0.75)" stroke-width="14.159999999999995"/></g><g><polyline data-points="2.1717171717171726,-2.5757575757575752 2.070707070707072,-2.5757575757575752 1.9696969696969702,-2.5757575757575752 1.8686868686868696,-2.5757575757575752 1.767676767676768,-2.5757575757575752 1.6666666666666674,-2.5757575757575752 1.5656565656565666,-2.5757575757575752 1.4646464646464652,-2.5757575757575752 1.3636363636363644,-2.5757575757575752 1.262626262626263,-2.5757575757575752 1.1616161616161622,-2.5757575757575752 1.0606060606060617,-2.5757575757575752 0.9595959595959602,-2.5757575757575752 0.8585858585858596,-2.5757575757575752 0.7575757575757579,-2.5757575757575752 0.6565656565656574,-2.5757575757575752 0.5555555555555567,-2.5757575757575752 0.4545454545454551,-2.5757575757575752 0.3535353535353544,-2.5757575757575752 0.2525252525252529,-2.5757575757575752 0.1515151515151522,-2.5757575757575752 0.050505050505051545,-2.5757575757575752 -0.05050505050505001,-2.5757575757575752 -0.15151515151515066,-2.5757575757575752 -0.2525252525252522,-2.5757575757575752 -0.35353535353535287,-2.5757575757575752 -0.4545454545454544,-2.5757575757575752 -0.555555555555555,-2.5757575757575752 -0.6565656565656557,-2.5757575757575752 -0.7575757575757572,-2.5757575757575752 -0.8585858585858579,-2.5757575757575752 -0.9595959595959596,-2.5757575757575752 -1.0606060606060603,-2.5757575757575752 -1.1616161616161613,-2.5757575757575752 -1.2626262626262625,-2.5757575757575752 -1.363636363636363,-2.5757575757575752 -1.4646464646464643,-2.5757575757575752 -1.5656565656565653,-2.5757575757575752 -1.6666666666666665,-2.5757575757575752 -1.7676767676767675,-2.5757575757575752 -1.8686868686868683,-2.5757575757575752 -1.9696969696969693,-2.5757575757575752 -2.07070707070707,-2.5757575757575752 -2.1717171717171713,-2.5757575757575752 -2.2727272727272725,-2.5757575757575752 -2.3737373737373733,-2.5757575757575752 -2.474747474747474,-2.5757575757575752 -2.5757575757575752,-2.5757575757575752 -2.6767676767676765,-2.5757575757575752 -2.7777777777777777,-2.5757575757575752 -2.8787878787878785,-2.5757575757575752 -2.9797979797979792,-2.5757575757575752 -3.0808080808080804,-2.5757575757575752 -3.1818181818181817,-2.5757575757575752 -3.2828282828282824,-2.5757575757575752 -3.383838383838383,-2.5757575757575752 -3.484848484848485,-2.5757575757575752 -3.5858585858585856,-2.5757575757575752 -3.6868686868686864,-2.5757575757575752 -3.7878787878787876,-2.5757575757575752 -3.8888888888888884,-2.5757575757575752 -3.98989898989899,-2.5757575757575752 -4.090909090909091,-2.5757575757575752 -4.191919191919193,-2.5757575757575752 -4.292929292929293,-2.5757575757575752 -4.393939393939394,-2.5757575757575752 -4.494949494949496,-2.5757575757575752 -4.595959595959596,-2.5757575757575752 -4.696969696969697,-2.5757575757575752 -4.7979797979797985,-2.5757575757575752 -4.898989898989899,-2.5757575757575752 -5.000000000000001,-2.5757575757575752" data-type="line" data-label="" points="717.0101010101009,755.1515151515151 707.4747474747475,755.1515151515151 697.9393939393939,755.1515151515151 688.4040404040404,755.1515151515151 678.8686868686868,755.1515151515151 669.3333333333333,755.1515151515151 659.7979797979798,755.1515151515151 650.2626262626262,755.1515151515151 640.7272727272727,755.1515151515151 631.1919191919192,755.1515151515151 621.6565656565656,755.1515151515151 612.1212121212121,755.1515151515151 602.5858585858585,755.1515151515151 593.0505050505051,755.1515151515151 583.5151515151515,755.1515151515151 573.9797979797979,755.1515151515151 564.4444444444445,755.1515151515151 554.9090909090909,755.1515151515151 545.3737373737374,755.1515151515151 535.8383838383838,755.1515151515151 526.3030303030303,755.1515151515151 516.7676767676768,755.1515151515151 507.2323232323232,755.1515151515151 497.69696969696975,755.1515151515151 488.16161616161617,755.1515151515151 478.62626262626264,755.1515151515151 469.09090909090907,755.1515151515151 459.55555555555554,755.1515151515151 450.0202020202021,755.1515151515151 440.4848484848485,755.1515151515151 430.949494949495,755.1515151515151 421.4141414141414,755.1515151515151 411.8787878787879,755.1515151515151 402.34343434343435,755.1515151515151 392.80808080808083,755.1515151515151 383.2727272727273,755.1515151515151 373.7373737373738,755.1515151515151 364.2020202020202,755.1515151515151 354.6666666666667,755.1515151515151 345.13131313131316,755.1515151515151 335.59595959595964,755.1515151515151 326.0606060606061,755.1515151515151 316.5252525252526,755.1515151515151 306.9898989898991,755.1515151515151 297.4545454545455,755.1515151515151 287.91919191919203,755.1515151515151 278.38383838383845,755.1515151515151 268.84848484848493,755.1515151515151 259.3131313131314,755.1515151515151 249.77777777777783,755.1515151515151 240.2424242424243,755.1515151515151 230.70707070707084,755.1515151515151 221.17171717171726,755.1515151515151 211.63636363636374,755.1515151515151 202.10101010101022,755.1515151515151 192.5656565656567,755.1515151515151 183.03030303030312,755.1515151515151 173.4949494949496,755.1515151515151 163.95959595959607,755.1515151515151 154.42424242424255,755.1515151515151 144.88888888888903,755.1515151515151 135.35353535353545,755.1515151515151 125.81818181818193,755.1515151515151 116.28282828282829,755.1515151515151 106.74747474747483,755.1515151515151 97.21212121212136,755.1515151515151 87.67676767676772,755.1515151515151 78.14141414141426,755.1515151515151 68.60606060606068,755.1515151515151 59.07070707070716,755.1515151515151 49.53535353535369,755.1515151515151 40.00000000000006,755.1515151515151" fill="none" stroke="rgba(0,0,255,0.75)" stroke-width="14.159999999999995"/></g><g><polyline data-points="5.000000000000002,0.3535353535353544 4.898989898989901,0.4545454545454551 4.898989898989901,0.5555555555555567 4.898989898989901,0.6565656565656574 4.898989898989901,0.7575757575757579 4.898989898989901,0.8585858585858596 4.898989898989901,0.9595959595959602 4.898989898989901,1.0606060606060617 4.7979797979797985,1.1616161616161622 4.696969696969697,1.262626262626263 4.595959595959597,1.3636363636363644 4.494949494949497,1.4646464646464652 4.393939393939394,1.5656565656565666 4.292929292929293,1.6666666666666674 4.191919191919193,1.767676767676768 4.090909090909092,1.8686868686868696 3.989898989898992,1.9696969696969702" data-type="line" data-label="" points="984,478.6262626262627 974.4646464646464,469.0909090909092 974.4646464646464,459.5555555555556 974.4646464646464,450.0202020202021 974.4646464646464,440.4848484848486 974.4646464646464,430.94949494949503 974.4646464646464,421.4141414141415 974.4646464646464,411.87878787878793 964.9292929292927,402.3434343434344 955.3939393939393,392.80808080808094 945.8585858585857,383.27272727272737 936.3232323232323,373.73737373737384 926.7878787878785,364.2020202020203 917.2525252525251,354.66666666666674 907.7171717171716,345.1313131313133 898.181818181818,335.5959595959597 888.6464646464647,326.06060606060623" fill="none" stroke="rgba(0,0,255,0.75)" stroke-width="14.159999999999995"/></g><g><polyline data-points="3.989898989898992,1.9696969696969702 4.090909090909092,2.070707070707072 4.191919191919193,2.1717171717171726 4.292929292929293,2.2727272727272734 4.393939393939394,2.373737373737375 4.494949494949497,2.4747474747474754 4.595959595959597,2.575757575757577 4.696969696969697,2.676767676767678 4.7979797979797985,2.7777777777777786 4.898989898989901,2.87878787878788 4.898989898989901,2.9797979797979806 4.898989898989901,3.080808080808082 4.898989898989901,3.181818181818183 4.898989898989901,3.2828282828282833 4.898989898989901,3.383838383838384 4.898989898989901,3.4848484848484866 5.000000000000002,3.5858585858585874" data-type="line" data-label="" points="888.6464646464647,326.06060606060623 898.181818181818,316.5252525252526 907.7171717171716,306.9898989898991 917.2525252525251,297.4545454545456 926.7878787878785,287.91919191919203 936.3232323232323,278.38383838383857 945.8585858585857,268.84848484848493 955.3939393939393,259.3131313131314 964.9292929292927,249.77777777777794 974.4646464646464,240.24242424242436 974.4646464646464,230.70707070707084 974.4646464646464,221.17171717171726 974.4646464646464,211.63636363636374 974.4646464646464,202.10101010101027 974.4646464646464,192.56565656565675 974.4646464646464,183.03030303030312 984,173.4949494949496" fill="none" stroke="rgba(255,0,0,0.75)" stroke-width="14.159999999999995"/></g><g><polyline data-points="0.9595959595959602,-5.000000000000001 1.0606060606060617,-5.000000000000001 1.1616161616161622,-4.898989898989899 1.262626262626263,-4.7979797979797985 1.3636363636363644,-4.696969696969697 1.4646464646464652,-4.595959595959596 1.5656565656565666,-4.494949494949496 1.6666666666666674,-4.393939393939394 1.767676767676768,-4.292929292929293 1.8686868686868696,-4.191919191919193 1.9696969696969702,-4.090909090909091 2.070707070707072,-3.98989898989899 2.1717171717171726,-3.8888888888888884 2.2727272727272734,-3.7878787878787876 2.373737373737375,-3.6868686868686864 2.4747474747474754,-3.5858585858585856 2.575757575757577,-3.484848484848485 2.676767676767678,-3.383838383838383 2.7777777777777786,-3.2828282828282824 2.87878787878788,-3.1818181818181817 2.9797979797979806,-3.0808080808080804 3.080808080808082,-2.9797979797979792 3.181818181818183,-2.8787878787878785 3.2828282828282833,-2.7777777777777777 3.383838383838384,-2.6767676767676765 3.4848484848484866,-2.5757575757575752 3.5858585858585874,-2.474747474747474 3.4848484848484866,-2.3737373737373733 3.4848484848484866,-2.2727272727272725 3.4848484848484866,-2.1717171717171713 3.4848484848484866,-2.07070707070707 3.4848484848484866,-1.9696969696969693 3.4848484848484866,-1.8686868686868683 3.4848484848484866,-1.7676767676767675 3.4848484848484866,-1.6666666666666665 3.4848484848484866,-1.5656565656565653 3.4848484848484866,-1.4646464646464643 3.4848484848484866,-1.363636363636363 3.4848484848484866,-1.2626262626262625 3.4848484848484866,-1.1616161616161613 3.4848484848484866,-1.0606060606060603 3.4848484848484866,-0.9595959595959596 3.4848484848484866,-0.8585858585858579 3.4848484848484866,-0.7575757575757572 3.4848484848484866,-0.6565656565656557 3.4848484848484866,-0.555555555555555 3.4848484848484866,-0.4545454545454544 3.4848484848484866,-0.35353535353535287 3.4848484848484866,-0.2525252525252522 3.4848484848484866,-0.15151515151515066 3.4848484848484866,-0.05050505050505001 3.4848484848484866,0.050505050505051545 3.4848484848484866,0.1515151515151522 3.4848484848484866,0.2525252525252529 3.4848484848484866,0.3535353535353544 3.4848484848484866,0.4545454545454551 3.4848484848484866,0.5555555555555567 3.4848484848484866,0.6565656565656574 3.4848484848484866,0.7575757575757579 3.4848484848484866,0.8585858585858596 3.4848484848484866,0.9595959595959602 3.4848484848484866,1.0606060606060617 3.4848484848484866,1.1616161616161622 3.4848484848484866,1.262626262626263 3.4848484848484866,1.3636363636363644 3.4848484848484866,1.4646464646464652 3.4848484848484866,1.5656565656565666 3.4848484848484866,1.6666666666666674 3.4848484848484866,1.767676767676768 3.4848484848484866,1.8686868686868696 3.4848484848484866,1.9696969696969702 3.5858585858585874,2.070707070707072 3.5858585858585874,2.1717171717171726 3.6868686868686877,2.2727272727272734 3.7878787878787885,2.373737373737375 3.7878787878787885,2.4747474747474754 3.7878787878787885,2.575757575757577 3.7878787878787885,2.676767676767678 3.7878787878787885,2.7777777777777786 3.7878787878787885,2.87878787878788 3.7878787878787885,2.9797979797979806 3.7878787878787885,3.080808080808082 3.7878787878787885,3.181818181818183 3.7878787878787885,3.2828282828282833 3.7878787878787885,3.383838383838384 3.7878787878787885,3.4848484848484866 3.7878787878787885,3.5858585858585874 3.7878787878787885,3.6868686868686877 3.7878787878787885,3.7878787878787885 3.7878787878787885,3.8888888888888893 3.7878787878787885,3.989898989898992 3.7878787878787885,4.090909090909092 3.7878787878787885,4.191919191919193 3.7878787878787885,4.292929292929293 3.7878787878787885,4.393939393939394 3.7878787878787885,4.494949494949497 3.7878787878787885,4.595959595959597 3.7878787878787885,4.696969696969697 3.7878787878787885,4.7979797979797985 3.7878787878787885,4.898989898989901 3.8888888888888893,5.000000000000002" data-type="line" data-label="" points="602.5858585858585,984 612.1212121212121,984 621.6565656565656,974.4646464646464 631.1919191919192,964.9292929292928 640.7272727272727,955.3939393939394 650.2626262626262,945.8585858585858 659.7979797979798,936.3232323232323 669.3333333333333,926.7878787878788 678.8686868686868,917.2525252525252 688.4040404040404,907.7171717171718 697.9393939393939,898.1818181818181 707.4747474747475,888.6464646464647 717.0101010101009,879.1111111111111 726.5454545454545,869.5757575757575 736.0808080808081,860.0404040404039 745.6161616161615,850.5050505050505 755.1515151515151,840.969696969697 764.6868686868686,831.4343434343434 774.2222222222222,821.8989898989898 783.7575757575758,812.3636363636363 793.2929292929292,802.8282828282828 802.8282828282828,793.2929292929292 812.3636363636363,783.7575757575758 821.8989898989898,774.2222222222222 831.4343434343433,764.6868686868687 840.969696969697,755.1515151515151 850.5050505050505,745.6161616161615 840.969696969697,736.0808080808081 840.969696969697,726.5454545454545 840.969696969697,717.010101010101 840.969696969697,707.4747474747475 840.969696969697,697.939393939394 840.969696969697,688.4040404040404 840.969696969697,678.8686868686868 840.969696969697,669.3333333333334 840.969696969697,659.7979797979798 840.969696969697,650.2626262626263 840.969696969697,640.7272727272727 840.969696969697,631.1919191919193 840.969696969697,621.6565656565657 840.969696969697,612.1212121212121 840.969696969697,602.5858585858587 840.969696969697,593.0505050505051 840.969696969697,583.5151515151516 840.969696969697,573.979797979798 840.969696969697,564.4444444444445 840.969696969697,554.909090909091 840.969696969697,545.3737373737374 840.969696969697,535.838383838384 840.969696969697,526.3030303030304 840.969696969697,516.7676767676768 840.969696969697,507.23232323232327 840.969696969697,497.69696969696975 840.969696969697,488.1616161616163 840.969696969697,478.6262626262627 840.969696969697,469.0909090909092 840.969696969697,459.5555555555556 840.969696969697,450.0202020202021 840.969696969697,440.4848484848486 840.969696969697,430.94949494949503 840.969696969697,421.4141414141415 840.969696969697,411.87878787878793 840.969696969697,402.3434343434344 840.969696969697,392.80808080808094 840.969696969697,383.27272727272737 840.969696969697,373.73737373737384 840.969696969697,364.2020202020203 840.969696969697,354.66666666666674 840.969696969697,345.1313131313133 840.969696969697,335.5959595959597 840.969696969697,326.06060606060623 850.5050505050505,316.5252525252526 850.5050505050505,306.9898989898991 860.0404040404039,297.4545454545456 869.5757575757575,287.91919191919203 869.5757575757575,278.38383838383857 869.5757575757575,268.84848484848493 869.5757575757575,259.3131313131314 869.5757575757575,249.77777777777794 869.5757575757575,240.24242424242436 869.5757575757575,230.70707070707084 869.5757575757575,221.17171717171726 869.5757575757575,211.63636363636374 869.5757575757575,202.10101010101027 869.5757575757575,192.56565656565675 869.5757575757575,183.03030303030312 869.5757575757575,173.4949494949496 869.5757575757575,163.95959595959613 869.5757575757575,154.4242424242426 869.5757575757575,144.88888888888908 869.5757575757575,135.35353535353545 869.5757575757575,125.81818181818198 869.5757575757575,116.28282828282846 869.5757575757575,106.747474747475 869.5757575757575,97.21212121212153 869.5757575757575,87.67676767676778 869.5757575757575,78.14141414141432 869.5757575757575,68.60606060606085 869.5757575757575,59.07070707070733 869.5757575757575,49.53535353535369 879.111111111111,40.000000000000114" fill="none" stroke="rgba(0,0,255,0.75)" stroke-width="14.159999999999995"/></g><g><rect data-type="rect" data-label="" data-x="0" data-y="0" x="40.000000000000114" y="40.000000000000284" width="943.9999999999997" height="943.9999999999998" fill="none" stroke="gray" stroke-width="0.010593220338983056"/></g><g><rect data-type="rect" data-label="" data-x="0" data-y="0" x="40.000000000000114" y="40.000000000000284" width="943.9999999999997" height="943.9999999999998" fill="none" stroke="rgba(15, 23, 42, 0.8)" stroke-width="0.010593220338983056"/></g><circle data-type="circle" data-label="" data-x="2.7777777777777786" data-y="-3.98989898989899" cx="774.2222222222222" cy="888.6464646464647" r="28.791999999999987" fill="rgba(0,0,0,0.3)" stroke="black" stroke-width="0.010593220338983056"/><circle data-type="circle" data-label="" data-x="0.4545454545454551" data-y="3.989898989898992" cx="554.9090909090909" cy="135.35353535353545" r="28.791999999999987" fill="rgba(0,0,0,0.3)" stroke="black" stroke-width="0.010593220338983056"/><circle data-type="circle" data-label="" data-x="2.1717171717171726" data-y="-2.5757575757575752" cx="717.0101010101009" cy="755.1515151515151" r="28.791999999999987" fill="rgba(0,0,0,0.3)" stroke="black" stroke-width="0.010593220338983056"/><circle data-type="circle" data-label="" data-x="3.989898989898992" data-y="1.9696969696969702" cx="888.6464646464647" cy="326.06060606060623" r="28.791999999999987" fill="rgba(0,0,0,0.3)" stroke="black" stroke-width="0.010593220338983056"/><g id="crosshair" style="display: none"><line id="crosshair-h" y1="0" y2="1024" stroke="#666" stroke-width="0.5"/><line id="crosshair-v" x1="0" x2="1024" stroke="#666" stroke-width="0.5"/><text id="coordinates" font-family="monospace" font-size="12" fill="#666"></text></g><script><![CDATA[
              document.currentScript.parentElement.addEventListener('mousemove', (e) => {
                const svg = e.currentTarget;
                const rect = svg.getBoundingClientRect();
                const x = e.clientX - rect.left;
                const y = e.clientY - rect.top;
                const crosshair = svg.getElementById('crosshair');
                const h = svg.getElementById('crosshair-h');
                const v = svg.getElementById('crosshair-v');
                const coords = svg.getElementById('coordinates');
                
                crosshair.style.display = 'block';
                h.setAttribute('x1', '0');
                h.setAttribute('x2', '1024');
                h.setAttribute('y1', y);
                h.setAttribute('y2', y);
                v.setAttribute('x1', x);
                v.setAttribute('x2', x);
                v.setAttribute('y1', '0');
                v.setAttribute('y2', '1024');

                // Calculate real coordinates using inverse transformation
                const matrix = {"a":94.39999999999996,"c":0,"e":511.99999999999994,"b":0,"d":-94.39999999999996,"f":512.0000000000001};
                // Manually invert and apply the affine transform
                // Since we only use translate and scale, we can directly compute:
                // x' = (x - tx) / sx
                // y' = (y - ty) / sy
                const sx = matrix.a;
                const sy = matrix.d;
                const tx = matrix.e; 
                const ty = matrix.f;
                const realPoint = {
                  x: (x - tx) / sx,
                  y: (y - ty) / sy // Flip y back since we used negative scale
                }
                
                coords.textContent = `(${realPoint.x.toFixed(2)}, ${realPoint.y.toFixed(2)})`;
                coords.setAttribute('x', (x + 5).toString());
                coords.setAttribute('y', (y - 5).toString());
              });
              document.currentScript.parentElement.addEventListener('mouseleave', () => {
                document.currentScript.parentElement.getElementById('crosshair').style.display = 'none';
              });
            ]]></script></svg>