<svg width="1024" height="1024" viewBox="0 0 1024 1024" xmlns="http://www.w3.org/2000/svg"><rect width="100%" height="100%" fill="white"/><g><circle data-type="point" data-label="conn_000" data-x="-5" data-y="-4.86" cx="40.000000000000114" cy="970.784" r="28.792" fill="red" stroke="#3bbd0f" stroke-width="28.792"/></g><g><circle data-type="point" data-label="conn_000" data-x="4.94" data-y="-5" cx="978.3359999999998" cy="984" r="28.792" fill="red" stroke="#3bbd0f" stroke-width="28.792"/></g><g><circle data-type="point" data-label="conn_001" data-x="-5" data-y="4.7" cx="40.000000000000114" cy="68.32000000000028" r="28.792" fill="blue" stroke="#170fbd" stroke-width="28.792"/></g><g><circle data-type="point" data-label="conn_001" data-x="5" data-y="3.68" cx="983.9999999999998" cy="164.60800000000023" r="28.792" fill="blue" stroke="#170fbd" stroke-width="28.792"/></g><g><circle data-type="point" data-label="conn_002" data-x="-1.9000000000000001" data-y="5" cx="332.64" cy="40.000000000000284" r="28.792" fill="blue" stroke="#bd490f" stroke-width="28.792"/></g><g><circle data-type="point" data-label="conn_002" data-x="-2.7600000000000002" data-y="5" cx="251.45600000000002" cy="40.000000000000284" r="28.792" fill="red" stroke="#bd490f" stroke-width="28.792"/></g><g><circle data-type="point" data-label="conn_003" data-x="4.86" data-y="5" cx="970.7839999999999" cy="40.000000000000284" r="28.792" fill="blue" stroke="#0fbd7c" stroke-width="28.792"/></g><g><circle data-type="point" data-label="conn_003" data-x="-2.72" data-y="-5" cx="255.23200000000003" cy="984" r="28.792" fill="red" stroke="#0fbd7c" stroke-width="28.792"/></g><g><circle data-type="point" data-label="conn_004" data-x="-0.92" data-y="-5" cx="425.152" cy="984" r="28.792" fill="red" stroke="#ae0fbd" stroke-width="28.792"/></g><g><circle data-type="point" data-label="conn_004" data-x="2.08" data-y="5" cx="708.3519999999999" cy="40.000000000000284" r="28.792" fill="blue" stroke="#ae0fbd" stroke-width="28.792"/></g><g><circle data-type="point" data-label="conn_005" data-x="5" data-y="-1.76" cx="983.9999999999998" cy="678.144" r="28.792" fill="blue" stroke="#98bd0f" stroke-width="28.792"/></g><g><circle data-type="point" data-label="conn_005" data-x="-5" data-y="-1.58" cx="40.000000000000114" cy="661.152" r="28.792" fill="blue" stroke="#98bd0f" stroke-width="28.792"/></g><g><circle data-type="point" data-label="conn_006" data-x="-5" data-y="2.92" cx="40.000000000000114" cy="236.3520000000002" r="28.792" fill="red" stroke="#0f66bd" stroke-width="28.792"/></g><g><circle data-type="point" data-label="conn_006" data-x="0.92" data-y="-5" cx="598.848" cy="984" r="28.792" fill="red" stroke="#0f66bd" stroke-width="28.792"/></g><g><circle data-type="point" data-label="conn_007" data-x="5" data-y="0.04" cx="983.9999999999998" cy="508.2240000000001" r="28.792" fill="red" stroke="#bd0f33" stroke-width="28.792"/></g><g><circle data-type="point" data-label="conn_007" data-x="-5" data-y="2.2" cx="40.000000000000114" cy="304.32000000000016" r="28.792" fill="red" stroke="#bd0f33" stroke-width="28.792"/></g><g><circle data-type="point" data-label="conn_008" data-x="-1.04" data-y="5" cx="413.82399999999996" cy="40.000000000000284" r="28.792" fill="blue" stroke="#0fbd1e" stroke-width="28.792"/></g><g><circle data-type="point" data-label="conn_008" data-x="1.12" data-y="5" cx="617.728" cy="40.000000000000284" r="28.792" fill="red" stroke="#0fbd1e" stroke-width="28.792"/></g><g><circle data-type="point" data-label="conn_009" data-x="3.3200000000000003" data-y="5" cx="825.4079999999999" cy="40.000000000000284" r="28.792" fill="red" stroke="#510fbd" stroke-width="28.792"/></g><g><circle data-type="point" data-label="conn_009" data-x="5" data-y="-3.54" cx="983.9999999999998" cy="846.1759999999999" r="28.792" fill="blue" stroke="#510fbd" stroke-width="28.792"/></g><g><polyline data-points="-5.000000000000001,2.9797979797979806 -4.898989898989899,2.87878787878788 -4.7979797979797985,2.7777777777777786 -4.696969696969697,2.676767676767678 -4.595959595959596,2.575757575757577 -4.494949494949496,2.4747474747474754 -4.393939393939394,2.373737373737375 -4.292929292929293,2.2727272727272734 -4.191919191919193,2.1717171717171726 -4.090909090909091,2.070707070707072 -3.98989898989899,1.9696969696969702 -3.8888888888888884,1.8686868686868696 -3.7878787878787876,1.767676767676768 -3.6868686868686864,1.6666666666666674 -3.5858585858585856,1.5656565656565666 -3.484848484848485,1.4646464646464652 -3.383838383838383,1.3636363636363644 -3.2828282828282824,1.262626262626263 -3.1818181818181817,1.1616161616161622 -3.0808080808080804,1.0606060606060617 -2.9797979797979792,0.9595959595959602 -2.8787878787878785,0.8585858585858596 -2.7777777777777777,0.7575757575757579 -2.6767676767676765,0.6565656565656574 -2.5757575757575752,0.5555555555555567 -2.474747474747474,0.4545454545454551 -2.3737373737373733,0.3535353535353544 -2.2727272727272725,0.2525252525252529 -2.1717171717171713,0.1515151515151522 -2.07070707070707,0.050505050505051545 -1.9696969696969693,-0.05050505050505001 -1.8686868686868683,-0.15151515151515066 -1.7676767676767675,-0.2525252525252522 -1.6666666666666665,-0.35353535353535287 -1.5656565656565653,-0.4545454545454544 -1.4646464646464643,-0.555555555555555 -1.363636363636363,-0.6565656565656557 -1.2626262626262625,-0.7575757575757572 -1.1616161616161613,-0.8585858585858579 -1.0606060606060603,-0.9595959595959596 -0.9595959595959596,-1.0606060606060603 -0.8585858585858579,-1.1616161616161613 -0.7575757575757572,-1.2626262626262625 -0.6565656565656557,-1.363636363636363 -0.555555555555555,-1.4646464646464643 -0.4545454545454544,-1.5656565656565653 -0.35353535353535287,-1.6666666666666665 -0.2525252525252522,-1.7676767676767675 -0.15151515151515066,-1.8686868686868683 -0.05050505050505001,-1.9696969696969693 0.050505050505051545,-2.07070707070707 0.1515151515151522,-2.1717171717171713 0.2525252525252529,-2.2727272727272725 0.3535353535353544,-2.3737373737373733 0.4545454545454551,-2.474747474747474 0.5555555555555567,-2.5757575757575752 0.6565656565656574,-2.6767676767676765 0.7575757575757579,-2.7777777777777777 0.8585858585858596,-2.8787878787878785 0.9595959595959602,-2.9797979797979792 0.9595959595959602,-3.0808080808080804 0.9595959595959602,-3.1818181818181817 0.9595959595959602,-3.2828282828282824 0.9595959595959602,-3.383838383838383 0.9595959595959602,-3.484848484848485 0.9595959595959602,-3.5858585858585856 0.9595959595959602,-3.6868686868686864 0.9595959595959602,-3.7878787878787876 0.9595959595959602,-3.8888888888888884 0.9595959595959602,-3.98989898989899 0.9595959595959602,-4.090909090909091 0.9595959595959602,-4.191919191919193 0.9595959595959602,-4.292929292929293 0.9595959595959602,-4.393939393939394 0.9595959595959602,-4.494949494949496 0.9595959595959602,-4.595959595959596 0.9595959595959602,-4.696969696969697 0.9595959595959602,-4.7979797979797985 0.9595959595959602,-4.898989898989899 0.9595959595959602,-5.000000000000001" data-type="line" data-label="" points="40.00000000000006,230.70707070707084 49.53535353535369,240.24242424242436 59.07070707070716,249.77777777777794 68.60606060606068,259.3131313131314 78.14141414141426,268.84848484848493 87.67676767676772,278.38383838383857 97.21212121212136,287.91919191919203 106.74747474747483,297.4545454545456 116.28282828282829,306.9898989898991 125.81818181818193,316.5252525252526 135.35353535353545,326.06060606060623 144.88888888888903,335.5959595959597 154.42424242424255,345.1313131313133 163.95959595959607,354.66666666666674 173.4949494949496,364.2020202020203 183.03030303030312,373.73737373737384 192.5656565656567,383.27272727272737 202.10101010101022,392.80808080808094 211.63636363636374,402.3434343434344 221.17171717171726,411.87878787878793 230.70707070707084,421.4141414141415 240.2424242424243,430.94949494949503 249.77777777777783,440.4848484848486 259.3131313131314,450.0202020202021 268.84848484848493,459.5555555555556 278.38383838383845,469.0909090909092 287.91919191919203,478.6262626262627 297.4545454545455,488.1616161616163 306.9898989898991,497.69696969696975 316.5252525252526,507.23232323232327 326.0606060606061,516.7676767676768 335.59595959595964,526.3030303030304 345.13131313131316,535.838383838384 354.6666666666667,545.3737373737374 364.2020202020202,554.909090909091 373.7373737373738,564.4444444444445 383.2727272727273,573.979797979798 392.80808080808083,583.5151515151516 402.34343434343435,593.0505050505051 411.8787878787879,602.5858585858587 421.4141414141414,612.1212121212121 430.949494949495,621.6565656565657 440.4848484848485,631.1919191919193 450.0202020202021,640.7272727272727 459.55555555555554,650.2626262626263 469.09090909090907,659.7979797979798 478.62626262626264,669.3333333333334 488.16161616161617,678.8686868686868 497.69696969696975,688.4040404040404 507.2323232323232,697.939393939394 516.7676767676768,707.4747474747475 526.3030303030303,717.010101010101 535.8383838383838,726.5454545454545 545.3737373737374,736.0808080808081 554.9090909090909,745.6161616161615 564.4444444444445,755.1515151515151 573.9797979797979,764.6868686868687 583.5151515151515,774.2222222222222 593.0505050505051,783.7575757575758 602.5858585858585,793.2929292929292 602.5858585858585,802.8282828282828 602.5858585858585,812.3636363636363 602.5858585858585,821.8989898989898 602.5858585858585,831.4343434343434 602.5858585858585,840.969696969697 602.5858585858585,850.5050505050505 602.5858585858585,860.0404040404039 602.5858585858585,869.5757575757575 602.5858585858585,879.1111111111111 602.5858585858585,888.6464646464647 602.5858585858585,898.1818181818181 602.5858585858585,907.7171717171718 602.5858585858585,917.2525252525252 602.5858585858585,926.7878787878788 602.5858585858585,936.3232323232323 602.5858585858585,945.8585858585858 602.5858585858585,955.3939393939394 602.5858585858585,964.9292929292928 602.5858585858585,974.4646464646464 602.5858585858585,984" fill="none" stroke="rgba(255,0,0,0.75)" stroke-width="14.159999999999995"/></g><g><polyline data-points="5.000000000000002,0.050505050505051545 4.898989898989901,0.1515151515151522 4.7979797979797985,0.2525252525252529 4.696969696969697,0.3535353535353544 4.595959595959597,0.4545454545454551 4.494949494949497,0.5555555555555567 4.393939393939394,0.6565656565656574 4.292929292929293,0.7575757575757579 4.191919191919193,0.8585858585858596 4.090909090909092,0.9595959595959602 3.989898989898992,1.0606060606060617 3.8888888888888893,1.1616161616161622 3.7878787878787885,1.262626262626263 3.6868686868686877,1.3636363636363644 3.5858585858585874,1.4646464646464652 3.4848484848484866,1.5656565656565666 3.383838383838384,1.6666666666666674 3.2828282828282833,1.767676767676768 3.181818181818183,1.8686868686868696 3.080808080808082,1.9696969696969702 2.9797979797979806,2.070707070707072 2.87878787878788,2.070707070707072 2.7777777777777786,2.070707070707072 2.676767676767678,2.070707070707072 2.575757575757577,2.070707070707072 2.4747474747474754,2.070707070707072 2.373737373737375,2.070707070707072 2.2727272727272734,2.070707070707072 2.1717171717171726,2.070707070707072 2.070707070707072,2.070707070707072 1.9696969696969702,2.070707070707072 1.8686868686868696,2.070707070707072 1.767676767676768,2.070707070707072 1.6666666666666674,2.070707070707072 1.5656565656565666,2.070707070707072 1.4646464646464652,2.070707070707072 1.3636363636363644,2.070707070707072 1.262626262626263,2.070707070707072 1.1616161616161622,2.070707070707072 1.0606060606060617,2.070707070707072 0.9595959595959602,2.070707070707072 0.8585858585858596,2.070707070707072 0.7575757575757579,2.070707070707072 0.6565656565656574,2.070707070707072 0.5555555555555567,2.070707070707072 0.4545454545454551,2.070707070707072 0.3535353535353544,2.070707070707072 0.2525252525252529,2.070707070707072 0.1515151515151522,2.070707070707072 0.050505050505051545,2.070707070707072 -0.05050505050505001,2.070707070707072 -0.15151515151515066,2.070707070707072 -0.2525252525252522,2.070707070707072 -0.35353535353535287,2.070707070707072 -0.4545454545454544,2.070707070707072 -0.555555555555555,2.070707070707072 -0.6565656565656557,2.070707070707072 -0.7575757575757572,2.070707070707072 -0.8585858585858579,2.070707070707072 -0.9595959595959596,2.070707070707072 -1.0606060606060603,2.070707070707072 -1.1616161616161613,2.070707070707072 -1.2626262626262625,2.070707070707072 -1.363636363636363,2.070707070707072 -1.4646464646464643,2.070707070707072 -1.5656565656565653,2.070707070707072 -1.6666666666666665,2.070707070707072 -1.7676767676767675,2.070707070707072 -1.8686868686868683,2.070707070707072 -1.9696969696969693,2.070707070707072 -2.07070707070707,2.070707070707072 -2.1717171717171713,2.070707070707072" data-type="line" data-label="" points="984,507.23232323232327 974.4646464646464,497.69696969696975 964.9292929292927,488.1616161616163 955.3939393939393,478.6262626262627 945.8585858585857,469.0909090909092 936.3232323232323,459.5555555555556 926.7878787878785,450.0202020202021 917.2525252525251,440.4848484848486 907.7171717171716,430.94949494949503 898.181818181818,421.4141414141415 888.6464646464647,411.87878787878793 879.111111111111,402.3434343434344 869.5757575757575,392.80808080808094 860.0404040404039,383.27272727272737 850.5050505050505,373.73737373737384 840.969696969697,364.2020202020203 831.4343434343433,354.66666666666674 821.8989898989898,345.1313131313133 812.3636363636363,335.5959595959597 802.8282828282828,326.06060606060623 793.2929292929292,316.5252525252526 783.7575757575758,316.5252525252526 774.2222222222222,316.5252525252526 764.6868686868686,316.5252525252526 755.1515151515151,316.5252525252526 745.6161616161615,316.5252525252526 736.0808080808081,316.5252525252526 726.5454545454545,316.5252525252526 717.0101010101009,316.5252525252526 707.4747474747475,316.5252525252526 697.9393939393939,316.5252525252526 688.4040404040404,316.5252525252526 678.8686868686868,316.5252525252526 669.3333333333333,316.5252525252526 659.7979797979798,316.5252525252526 650.2626262626262,316.5252525252526 640.7272727272727,316.5252525252526 631.1919191919192,316.5252525252526 621.6565656565656,316.5252525252526 612.1212121212121,316.5252525252526 602.5858585858585,316.5252525252526 593.0505050505051,316.5252525252526 583.5151515151515,316.5252525252526 573.9797979797979,316.5252525252526 564.4444444444445,316.5252525252526 554.9090909090909,316.5252525252526 545.3737373737374,316.5252525252526 535.8383838383838,316.5252525252526 526.3030303030303,316.5252525252526 516.7676767676768,316.5252525252526 507.2323232323232,316.5252525252526 497.69696969696975,316.5252525252526 488.16161616161617,316.5252525252526 478.62626262626264,316.5252525252526 469.09090909090907,316.5252525252526 459.55555555555554,316.5252525252526 450.0202020202021,316.5252525252526 440.4848484848485,316.5252525252526 430.949494949495,316.5252525252526 421.4141414141414,316.5252525252526 411.8787878787879,316.5252525252526 402.34343434343435,316.5252525252526 392.80808080808083,316.5252525252526 383.2727272727273,316.5252525252526 373.7373737373738,316.5252525252526 364.2020202020202,316.5252525252526 354.6666666666667,316.5252525252526 345.13131313131316,316.5252525252526 335.59595959595964,316.5252525252526 326.0606060606061,316.5252525252526 316.5252525252526,316.5252525252526 306.9898989898991,316.5252525252526" fill="none" stroke="rgba(255,0,0,0.75)" stroke-width="14.159999999999995"/></g><g><polyline data-points="-2.1717171717171713,2.070707070707072 -2.2727272727272725,2.070707070707072 -2.3737373737373733,2.070707070707072 -2.474747474747474,2.070707070707072 -2.5757575757575752,2.070707070707072 -2.6767676767676765,2.070707070707072 -2.7777777777777777,2.070707070707072 -2.8787878787878785,2.070707070707072 -2.9797979797979792,2.070707070707072 -3.0808080808080804,2.070707070707072 -3.1818181818181817,1.9696969696969702 -3.2828282828282824,1.8686868686868696 -3.383838383838383,1.767676767676768 -3.484848484848485,1.6666666666666674 -3.5858585858585856,1.5656565656565666 -3.6868686868686864,1.4646464646464652 -3.7878787878787876,1.3636363636363644 -3.8888888888888884,1.262626262626263 -3.98989898989899,1.1616161616161622" data-type="line" data-label="" points="306.9898989898991,316.5252525252526 297.4545454545455,316.5252525252526 287.91919191919203,316.5252525252526 278.38383838383845,316.5252525252526 268.84848484848493,316.5252525252526 259.3131313131314,316.5252525252526 249.77777777777783,316.5252525252526 240.2424242424243,316.5252525252526 230.70707070707084,316.5252525252526 221.17171717171726,316.5252525252526 211.63636363636374,326.06060606060623 202.10101010101022,335.5959595959597 192.5656565656567,345.1313131313133 183.03030303030312,354.66666666666674 173.4949494949496,364.2020202020203 163.95959595959607,373.73737373737384 154.42424242424255,383.27272727272737 144.88888888888903,392.80808080808094 135.35353535353545,402.3434343434344" fill="none" stroke="rgba(0,0,255,0.75)" stroke-width="14.159999999999995"/></g><g><polyline data-points="-3.98989898989899,1.1616161616161622 -4.090909090909091,1.262626262626263 -4.191919191919193,1.3636363636363644 -4.292929292929293,1.4646464646464652 -4.393939393939394,1.5656565656565666 -4.494949494949496,1.6666666666666674 -4.595959595959596,1.767676767676768 -4.696969696969697,1.8686868686868696 -4.7979797979797985,1.9696969696969702 -4.898989898989899,2.070707070707072 -5.000000000000001,2.1717171717171726 -5.000000000000001,2.2727272727272734" data-type="line" data-label="" points="135.35353535353545,402.3434343434344 125.81818181818193,392.80808080808094 116.28282828282829,383.27272727272737 106.74747474747483,373.73737373737384 97.21212121212136,364.2020202020203 87.67676767676772,354.66666666666674 78.14141414141426,345.1313131313133 68.60606060606068,335.5959595959597 59.07070707070716,326.06060606060623 49.53535353535369,316.5252525252526 40.00000000000006,306.9898989898991 40.00000000000006,297.4545454545456" fill="none" stroke="rgba(255,0,0,0.75)" stroke-width="14.159999999999995"/></g><g><polyline data-points="5.000000000000002,-1.7676767676767675 4.898989898989901,-1.6666666666666665 4.7979797979797985,-1.5656565656565653 4.696969696969697,-1.5656565656565653 4.595959595959597,-1.5656565656565653 4.494949494949497,-1.5656565656565653 4.393939393939394,-1.5656565656565653 4.292929292929293,-1.5656565656565653 4.191919191919193,-1.5656565656565653 4.090909090909092,-1.5656565656565653 3.989898989898992,-1.5656565656565653 3.8888888888888893,-1.5656565656565653 3.7878787878787885,-1.5656565656565653 3.6868686868686877,-1.5656565656565653 3.5858585858585874,-1.5656565656565653 3.4848484848484866,-1.5656565656565653 3.383838383838384,-1.5656565656565653 3.2828282828282833,-1.5656565656565653 3.181818181818183,-1.5656565656565653 3.080808080808082,-1.5656565656565653 2.9797979797979806,-1.5656565656565653 2.87878787878788,-1.5656565656565653 2.7777777777777786,-1.5656565656565653 2.676767676767678,-1.5656565656565653 2.575757575757577,-1.5656565656565653 2.4747474747474754,-1.5656565656565653 2.373737373737375,-1.5656565656565653 2.2727272727272734,-1.5656565656565653 2.1717171717171726,-1.5656565656565653 2.070707070707072,-1.5656565656565653 1.9696969696969702,-1.5656565656565653 1.8686868686868696,-1.5656565656565653 1.767676767676768,-1.5656565656565653 1.6666666666666674,-1.5656565656565653 1.5656565656565666,-1.5656565656565653 1.4646464646464652,-1.5656565656565653 1.3636363636363644,-1.5656565656565653 1.262626262626263,-1.5656565656565653 1.1616161616161622,-1.5656565656565653 1.0606060606060617,-1.5656565656565653 0.9595959595959602,-1.5656565656565653 0.8585858585858596,-1.5656565656565653 0.7575757575757579,-1.5656565656565653 0.6565656565656574,-1.5656565656565653 0.5555555555555567,-1.5656565656565653 0.4545454545454551,-1.5656565656565653 0.3535353535353544,-1.5656565656565653 0.2525252525252529,-1.5656565656565653 0.1515151515151522,-1.5656565656565653 0.050505050505051545,-1.5656565656565653 -0.05050505050505001,-1.5656565656565653 -0.15151515151515066,-1.5656565656565653 -0.2525252525252522,-1.5656565656565653 -0.35353535353535287,-1.5656565656565653 -0.4545454545454544,-1.5656565656565653 -0.555555555555555,-1.5656565656565653 -0.6565656565656557,-1.5656565656565653 -0.7575757575757572,-1.5656565656565653 -0.8585858585858579,-1.5656565656565653 -0.9595959595959596,-1.5656565656565653 -1.0606060606060603,-1.5656565656565653 -1.1616161616161613,-1.5656565656565653 -1.2626262626262625,-1.5656565656565653 -1.363636363636363,-1.5656565656565653 -1.4646464646464643,-1.5656565656565653 -1.5656565656565653,-1.5656565656565653 -1.6666666666666665,-1.5656565656565653 -1.7676767676767675,-1.5656565656565653 -1.8686868686868683,-1.5656565656565653 -1.9696969696969693,-1.5656565656565653 -2.07070707070707,-1.5656565656565653 -2.1717171717171713,-1.5656565656565653" data-type="line" data-label="" points="984,678.8686868686868 974.4646464646464,669.3333333333334 964.9292929292927,659.7979797979798 955.3939393939393,659.7979797979798 945.8585858585857,659.7979797979798 936.3232323232323,659.7979797979798 926.7878787878785,659.7979797979798 917.2525252525251,659.7979797979798 907.7171717171716,659.7979797979798 898.181818181818,659.7979797979798 888.6464646464647,659.7979797979798 879.111111111111,659.7979797979798 869.5757575757575,659.7979797979798 860.0404040404039,659.7979797979798 850.5050505050505,659.7979797979798 840.969696969697,659.7979797979798 831.4343434343433,659.7979797979798 821.8989898989898,659.7979797979798 812.3636363636363,659.7979797979798 802.8282828282828,659.7979797979798 793.2929292929292,659.7979797979798 783.7575757575758,659.7979797979798 774.2222222222222,659.7979797979798 764.6868686868686,659.7979797979798 755.1515151515151,659.7979797979798 745.6161616161615,659.7979797979798 736.0808080808081,659.7979797979798 726.5454545454545,659.7979797979798 717.0101010101009,659.7979797979798 707.4747474747475,659.7979797979798 697.9393939393939,659.7979797979798 688.4040404040404,659.7979797979798 678.8686868686868,659.7979797979798 669.3333333333333,659.7979797979798 659.7979797979798,659.7979797979798 650.2626262626262,659.7979797979798 640.7272727272727,659.7979797979798 631.1919191919192,659.7979797979798 621.6565656565656,659.7979797979798 612.1212121212121,659.7979797979798 602.5858585858585,659.7979797979798 593.0505050505051,659.7979797979798 583.5151515151515,659.7979797979798 573.9797979797979,659.7979797979798 564.4444444444445,659.7979797979798 554.9090909090909,659.7979797979798 545.3737373737374,659.7979797979798 535.8383838383838,659.7979797979798 526.3030303030303,659.7979797979798 516.7676767676768,659.7979797979798 507.2323232323232,659.7979797979798 497.69696969696975,659.7979797979798 488.16161616161617,659.7979797979798 478.62626262626264,659.7979797979798 469.09090909090907,659.7979797979798 459.55555555555554,659.7979797979798 450.0202020202021,659.7979797979798 440.4848484848485,659.7979797979798 430.949494949495,659.7979797979798 421.4141414141414,659.7979797979798 411.8787878787879,659.7979797979798 402.34343434343435,659.7979797979798 392.80808080808083,659.7979797979798 383.2727272727273,659.7979797979798 373.7373737373738,659.7979797979798 364.2020202020202,659.7979797979798 354.6666666666667,659.7979797979798 345.13131313131316,659.7979797979798 335.59595959595964,659.7979797979798 326.0606060606061,659.7979797979798 316.5252525252526,659.7979797979798 306.9898989898991,659.7979797979798" fill="none" stroke="rgba(0,0,255,0.75)" stroke-width="14.159999999999995"/></g><g><polyline data-points="-2.1717171717171713,-1.5656565656565653 -2.2727272727272725,-1.5656565656565653 -2.3737373737373733,-1.5656565656565653 -2.474747474747474,-1.5656565656565653 -2.5757575757575752,-1.5656565656565653 -2.6767676767676765,-1.5656565656565653 -2.7777777777777777,-1.5656565656565653 -2.8787878787878785,-1.5656565656565653 -2.9797979797979792,-1.5656565656565653 -3.0808080808080804,-1.5656565656565653 -3.1818181818181817,-1.5656565656565653 -3.2828282828282824,-1.5656565656565653 -3.383838383838383,-1.5656565656565653 -3.484848484848485,-1.5656565656565653 -3.5858585858585856,-1.5656565656565653 -3.6868686868686864,-1.5656565656565653 -3.7878787878787876,-1.5656565656565653 -3.8888888888888884,-1.5656565656565653 -3.98989898989899,-1.5656565656565653" data-type="line" data-label="" points="306.9898989898991,659.7979797979798 297.4545454545455,659.7979797979798 287.91919191919203,659.7979797979798 278.38383838383845,659.7979797979798 268.84848484848493,659.7979797979798 259.3131313131314,659.7979797979798 249.77777777777783,659.7979797979798 240.2424242424243,659.7979797979798 230.70707070707084,659.7979797979798 221.17171717171726,659.7979797979798 211.63636363636374,659.7979797979798 202.10101010101022,659.7979797979798 192.5656565656567,659.7979797979798 183.03030303030312,659.7979797979798 173.4949494949496,659.7979797979798 163.95959595959607,659.7979797979798 154.42424242424255,659.7979797979798 144.88888888888903,659.7979797979798 135.35353535353545,659.7979797979798" fill="none" stroke="rgba(255,0,0,0.75)" stroke-width="14.159999999999995"/></g><g><polyline data-points="-3.98989898989899,-1.5656565656565653 -4.090909090909091,-1.5656565656565653 -4.191919191919193,-1.5656565656565653 -4.292929292929293,-1.5656565656565653 -4.393939393939394,-1.5656565656565653 -4.494949494949496,-1.5656565656565653 -4.595959595959596,-1.5656565656565653 -4.696969696969697,-1.5656565656565653 -4.7979797979797985,-1.5656565656565653 -4.898989898989899,-1.5656565656565653 -5.000000000000001,-1.5656565656565653" data-type="line" data-label="" points="135.35353535353545,659.7979797979798 125.81818181818193,659.7979797979798 116.28282828282829,659.7979797979798 106.74747474747483,659.7979797979798 97.21212121212136,659.7979797979798 87.67676767676772,659.7979797979798 78.14141414141426,659.7979797979798 68.60606060606068,659.7979797979798 59.07070707070716,659.7979797979798 49.53535353535369,659.7979797979798 40.00000000000006,659.7979797979798" fill="none" stroke="rgba(0,0,255,0.75)" stroke-width="14.159999999999995"/></g><g><polyline data-points="-1.0606060606060603,5.000000000000002 -1.1616161616161613,5.000000000000002 -1.2626262626262625,5.000000000000002 -1.363636363636363,5.000000000000002 -1.4646464646464643,5.000000000000002 -1.5656565656565653,4.898989898989901 -1.6666666666666665,4.7979797979797985 -1.7676767676767675,4.696969696969697 -1.8686868686868683,4.595959595959597 -1.9696969696969693,4.494949494949497 -2.07070707070707,4.393939393939394 -2.1717171717171713,4.292929292929293 -2.2727272727272725,4.191919191919193 -2.3737373737373733,4.090909090909092 -2.474747474747474,3.989898989898992" data-type="line" data-label="" points="411.8787878787879,40.000000000000114 402.34343434343435,40.000000000000114 392.80808080808083,40.000000000000114 383.2727272727273,40.000000000000114 373.7373737373738,40.000000000000114 364.2020202020202,49.53535353535369 354.6666666666667,59.07070707070733 345.13131313131316,68.60606060606085 335.59595959595964,78.14141414141432 326.0606060606061,87.67676767676778 316.5252525252526,97.21212121212153 306.9898989898991,106.747474747475 297.4545454545455,116.28282828282846 287.91919191919203,125.81818181818198 278.38383838383845,135.35353535353545" fill="none" stroke="rgba(0,0,255,0.75)" stroke-width="14.159999999999995"/></g><g><polyline data-points="-2.474747474747474,3.989898989898992 -2.3737373737373733,4.090909090909092 -2.2727272727272725,4.191919191919193 -2.1717171717171713,4.292929292929293 -2.07070707070707,4.393939393939394 -1.9696969696969693,4.494949494949497 -1.8686868686868683,4.595959595959597 -1.7676767676767675,4.696969696969697 -1.6666666666666665,4.7979797979797985 -1.5656565656565653,4.898989898989901 -1.4646464646464643,5.000000000000002 -1.363636363636363,5.000000000000002 -1.2626262626262625,5.000000000000002 -1.1616161616161613,5.000000000000002 -1.0606060606060603,5.000000000000002 -0.9595959595959596,5.000000000000002 -0.8585858585858579,5.000000000000002 -0.7575757575757572,5.000000000000002 -0.6565656565656557,5.000000000000002 -0.555555555555555,5.000000000000002 -0.4545454545454544,5.000000000000002 -0.35353535353535287,5.000000000000002 -0.2525252525252522,5.000000000000002 -0.15151515151515066,5.000000000000002 -0.05050505050505001,5.000000000000002 0.050505050505051545,5.000000000000002 0.1515151515151522,5.000000000000002 0.2525252525252529,5.000000000000002 0.3535353535353544,5.000000000000002 0.4545454545454551,5.000000000000002 0.5555555555555567,5.000000000000002 0.6565656565656574,5.000000000000002 0.7575757575757579,5.000000000000002 0.8585858585858596,5.000000000000002 0.9595959595959602,5.000000000000002 1.0606060606060617,5.000000000000002 1.1616161616161622,5.000000000000002" data-type="line" data-label="" points="278.38383838383845,135.35353535353545 287.91919191919203,125.81818181818198 297.4545454545455,116.28282828282846 306.9898989898991,106.747474747475 316.5252525252526,97.21212121212153 326.0606060606061,87.67676767676778 335.59595959595964,78.14141414141432 345.13131313131316,68.60606060606085 354.6666666666667,59.07070707070733 364.2020202020202,49.53535353535369 373.7373737373738,40.000000000000114 383.2727272727273,40.000000000000114 392.80808080808083,40.000000000000114 402.34343434343435,40.000000000000114 411.8787878787879,40.000000000000114 421.4141414141414,40.000000000000114 430.949494949495,40.000000000000114 440.4848484848485,40.000000000000114 450.0202020202021,40.000000000000114 459.55555555555554,40.000000000000114 469.09090909090907,40.000000000000114 478.62626262626264,40.000000000000114 488.16161616161617,40.000000000000114 497.69696969696975,40.000000000000114 507.2323232323232,40.000000000000114 516.7676767676768,40.000000000000114 526.3030303030303,40.000000000000114 535.8383838383838,40.000000000000114 545.3737373737374,40.000000000000114 554.9090909090909,40.000000000000114 564.4444444444445,40.000000000000114 573.9797979797979,40.000000000000114 583.5151515151515,40.000000000000114 593.0505050505051,40.000000000000114 602.5858585858585,40.000000000000114 612.1212121212121,40.000000000000114 621.6565656565656,40.000000000000114" fill="none" stroke="rgba(255,0,0,0.75)" stroke-width="14.159999999999995"/></g><g><polyline data-points="-1.9696969696969693,5.000000000000002 -2.07070707070707,4.898989898989901 -2.1717171717171713,4.7979797979797985 -2.2727272727272725,4.696969696969697 -2.3737373737373733,4.696969696969697 -2.474747474747474,4.696969696969697 -2.5757575757575752,4.595959595959597 -2.6767676767676765,4.494949494949497 -2.7777777777777777,4.393939393939394 -2.8787878787878785,4.292929292929293 -2.9797979797979792,4.191919191919193 -3.0808080808080804,4.090909090909092 -3.1818181818181817,3.989898989898992 -3.2828282828282824,3.8888888888888893" data-type="line" data-label="" points="326.0606060606061,40.000000000000114 316.5252525252526,49.53535353535369 306.9898989898991,59.07070707070733 297.4545454545455,68.60606060606085 287.91919191919203,68.60606060606085 278.38383838383845,68.60606060606085 268.84848484848493,78.14141414141432 259.3131313131314,87.67676767676778 249.77777777777783,97.21212121212153 240.2424242424243,106.747474747475 230.70707070707084,116.28282828282846 221.17171717171726,125.81818181818198 211.63636363636374,135.35353535353545 202.10101010101022,144.88888888888908" fill="none" stroke="rgba(0,0,255,0.75)" stroke-width="14.159999999999995"/></g><g><polyline data-points="-3.2828282828282824,3.8888888888888893 -3.1818181818181817,3.989898989898992 -3.0808080808080804,4.090909090909092 -2.9797979797979792,4.191919191919193 -2.8787878787878785,4.292929292929293 -2.7777777777777777,4.393939393939394 -2.7777777777777777,4.494949494949497 -2.7777777777777777,4.595959595959597 -2.7777777777777777,4.696969696969697 -2.7777777777777777,4.7979797979797985 -2.7777777777777777,4.898989898989901 -2.7777777777777777,5.000000000000002" data-type="line" data-label="" points="202.10101010101022,144.88888888888908 211.63636363636374,135.35353535353545 221.17171717171726,125.81818181818198 230.70707070707084,116.28282828282846 240.2424242424243,106.747474747475 249.77777777777783,97.21212121212153 249.77777777777783,87.67676767676778 249.77777777777783,78.14141414141432 249.77777777777783,68.60606060606085 249.77777777777783,59.07070707070733 249.77777777777783,49.53535353535369 249.77777777777783,40.000000000000114" fill="none" stroke="rgba(255,0,0,0.75)" stroke-width="14.159999999999995"/></g><g><polyline data-points="-5.000000000000001,-4.898989898989899 -4.898989898989899,-4.898989898989899 -4.7979797979797985,-4.7979797979797985 -4.696969696969697,-4.696969696969697 -4.595959595959596,-4.595959595959596 -4.494949494949496,-4.494949494949496 -4.393939393939394,-4.393939393939394 -4.292929292929293,-4.292929292929293 -4.191919191919193,-4.191919191919193 -4.090909090909091,-4.090909090909091 -3.98989898989899,-3.98989898989899" data-type="line" data-label="" points="40.00000000000006,974.4646464646464 49.53535353535369,974.4646464646464 59.07070707070716,964.9292929292928 68.60606060606068,955.3939393939394 78.14141414141426,945.8585858585858 87.67676767676772,936.3232323232323 97.21212121212136,926.7878787878788 106.74747474747483,917.2525252525252 116.28282828282829,907.7171717171718 125.81818181818193,898.1818181818181 135.35353535353545,888.6464646464647" fill="none" stroke="rgba(255,0,0,0.75)" stroke-width="14.159999999999995"/></g><g><polyline data-points="-3.98989898989899,-3.98989898989899 -3.8888888888888884,-4.090909090909091 -3.7878787878787876,-4.191919191919193 -3.6868686868686864,-4.292929292929293 -3.5858585858585856,-4.393939393939394 -3.484848484848485,-4.494949494949496 -3.383838383838383,-4.494949494949496 -3.2828282828282824,-4.494949494949496 -3.1818181818181817,-4.494949494949496 -3.0808080808080804,-4.494949494949496 -2.9797979797979792,-4.494949494949496 -2.8787878787878785,-4.494949494949496 -2.7777777777777777,-4.494949494949496 -2.6767676767676765,-4.494949494949496 -2.5757575757575752,-4.494949494949496 -2.474747474747474,-4.494949494949496 -2.3737373737373733,-4.494949494949496 -2.2727272727272725,-4.494949494949496 -2.1717171717171713,-4.494949494949496 -2.07070707070707,-4.494949494949496 -1.9696969696969693,-4.494949494949496 -1.8686868686868683,-4.494949494949496 -1.7676767676767675,-4.494949494949496 -1.6666666666666665,-4.494949494949496 -1.5656565656565653,-4.494949494949496 -1.4646464646464643,-4.494949494949496 -1.363636363636363,-4.494949494949496 -1.2626262626262625,-4.494949494949496 -1.1616161616161613,-4.494949494949496 -1.0606060606060603,-4.494949494949496 -0.9595959595959596,-4.494949494949496 -0.8585858585858579,-4.494949494949496 -0.7575757575757572,-4.494949494949496 -0.6565656565656557,-4.494949494949496 -0.555555555555555,-4.494949494949496 -0.4545454545454544,-4.494949494949496 -0.35353535353535287,-4.494949494949496 -0.2525252525252522,-4.494949494949496 -0.15151515151515066,-4.494949494949496 -0.05050505050505001,-4.494949494949496 0.050505050505051545,-4.494949494949496 0.1515151515151522,-4.494949494949496 0.2525252525252529,-4.494949494949496 0.3535353535353544,-4.494949494949496 0.4545454545454551,-4.494949494949496 0.5555555555555567,-4.494949494949496 0.6565656565656574,-4.494949494949496 0.7575757575757579,-4.494949494949496 0.8585858585858596,-4.494949494949496 0.9595959595959602,-4.494949494949496 1.0606060606060617,-4.494949494949496 1.1616161616161622,-4.494949494949496 1.262626262626263,-4.494949494949496 1.3636363636363644,-4.494949494949496 1.4646464646464652,-4.494949494949496 1.5656565656565666,-4.494949494949496 1.6666666666666674,-4.494949494949496 1.767676767676768,-4.494949494949496 1.8686868686868696,-4.494949494949496 1.9696969696969702,-4.494949494949496 2.070707070707072,-4.494949494949496 2.1717171717171726,-4.494949494949496 2.2727272727272734,-4.494949494949496 2.373737373737375,-4.494949494949496 2.4747474747474754,-4.494949494949496 2.575757575757577,-4.494949494949496 2.676767676767678,-4.494949494949496 2.7777777777777786,-4.494949494949496 2.87878787878788,-4.494949494949496 2.9797979797979806,-4.494949494949496 3.080808080808082,-4.494949494949496 3.181818181818183,-4.494949494949496 3.2828282828282833,-4.494949494949496 3.383838383838384,-4.494949494949496 3.4848484848484866,-4.393939393939394 3.5858585858585874,-4.292929292929293 3.6868686868686877,-4.191919191919193 3.7878787878787885,-4.090909090909091 3.8888888888888893,-3.98989898989899" data-type="line" data-label="" points="135.35353535353545,888.6464646464647 144.88888888888903,898.1818181818181 154.42424242424255,907.7171717171718 163.95959595959607,917.2525252525252 173.4949494949496,926.7878787878788 183.03030303030312,936.3232323232323 192.5656565656567,936.3232323232323 202.10101010101022,936.3232323232323 211.63636363636374,936.3232323232323 221.17171717171726,936.3232323232323 230.70707070707084,936.3232323232323 240.2424242424243,936.3232323232323 249.77777777777783,936.3232323232323 259.3131313131314,936.3232323232323 268.84848484848493,936.3232323232323 278.38383838383845,936.3232323232323 287.91919191919203,936.3232323232323 297.4545454545455,936.3232323232323 306.9898989898991,936.3232323232323 316.5252525252526,936.3232323232323 326.0606060606061,936.3232323232323 335.59595959595964,936.3232323232323 345.13131313131316,936.3232323232323 354.6666666666667,936.3232323232323 364.2020202020202,936.3232323232323 373.7373737373738,936.3232323232323 383.2727272727273,936.3232323232323 392.80808080808083,936.3232323232323 402.34343434343435,936.3232323232323 411.8787878787879,936.3232323232323 421.4141414141414,936.3232323232323 430.949494949495,936.3232323232323 440.4848484848485,936.3232323232323 450.0202020202021,936.3232323232323 459.55555555555554,936.3232323232323 469.09090909090907,936.3232323232323 478.62626262626264,936.3232323232323 488.16161616161617,936.3232323232323 497.69696969696975,936.3232323232323 507.2323232323232,936.3232323232323 516.7676767676768,936.3232323232323 526.3030303030303,936.3232323232323 535.8383838383838,936.3232323232323 545.3737373737374,936.3232323232323 554.9090909090909,936.3232323232323 564.4444444444445,936.3232323232323 573.9797979797979,936.3232323232323 583.5151515151515,936.3232323232323 593.0505050505051,936.3232323232323 602.5858585858585,936.3232323232323 612.1212121212121,936.3232323232323 621.6565656565656,936.3232323232323 631.1919191919192,936.3232323232323 640.7272727272727,936.3232323232323 650.2626262626262,936.3232323232323 659.7979797979798,936.3232323232323 669.3333333333333,936.3232323232323 678.8686868686868,936.3232323232323 688.4040404040404,936.3232323232323 697.9393939393939,936.3232323232323 707.4747474747475,936.3232323232323 717.0101010101009,936.3232323232323 726.5454545454545,936.3232323232323 736.0808080808081,936.3232323232323 745.6161616161615,936.3232323232323 755.1515151515151,936.3232323232323 764.6868686868686,936.3232323232323 774.2222222222222,936.3232323232323 783.7575757575758,936.3232323232323 793.2929292929292,936.3232323232323 802.8282828282828,936.3232323232323 812.3636363636363,936.3232323232323 821.8989898989898,936.3232323232323 831.4343434343433,936.3232323232323 840.969696969697,926.7878787878788 850.5050505050505,917.2525252525252 860.0404040404039,907.7171717171718 869.5757575757575,898.1818181818181 879.111111111111,888.6464646464647" fill="none" stroke="rgba(0,0,255,0.75)" stroke-width="14.159999999999995"/></g><g><polyline data-points="3.8888888888888893,-3.98989898989899 3.989898989898992,-4.090909090909091 4.090909090909092,-4.191919191919193 4.191919191919193,-4.292929292929293 4.292929292929293,-4.393939393939394 4.393939393939394,-4.494949494949496 4.494949494949497,-4.595959595959596 4.595959595959597,-4.696969696969697 4.696969696969697,-4.7979797979797985 4.7979797979797985,-4.898989898989899 4.898989898989901,-5.000000000000001 5.000000000000002,-5.000000000000001" data-type="line" data-label="" points="879.111111111111,888.6464646464647 888.6464646464647,898.1818181818181 898.181818181818,907.7171717171718 907.7171717171716,917.2525252525252 917.2525252525251,926.7878787878788 926.7878787878785,936.3232323232323 936.3232323232323,945.8585858585858 945.8585858585857,955.3939393939394 955.3939393939393,964.9292929292928 964.9292929292927,974.4646464646464 974.4646464646464,984 984,984" fill="none" stroke="rgba(255,0,0,0.75)" stroke-width="14.159999999999995"/></g><g><polyline data-points="-0.9595959595959596,-5.000000000000001 -0.8585858585858579,-4.898989898989899 -0.7575757575757572,-4.7979797979797985 -0.6565656565656557,-4.696969696969697 -0.555555555555555,-4.595959595959596 -0.4545454545454544,-4.494949494949496 -0.35353535353535287,-4.393939393939394 -0.2525252525252522,-4.292929292929293 -0.15151515151515066,-4.191919191919193 -0.05050505050505001,-4.090909090909091 0.050505050505051545,-3.98989898989899 0.1515151515151522,-3.8888888888888884 0.2525252525252529,-3.7878787878787876 0.3535353535353544,-3.6868686868686864" data-type="line" data-label="" points="421.4141414141414,984 430.949494949495,974.4646464646464 440.4848484848485,964.9292929292928 450.0202020202021,955.3939393939394 459.55555555555554,945.8585858585858 469.09090909090907,936.3232323232323 478.62626262626264,926.7878787878788 488.16161616161617,917.2525252525252 497.69696969696975,907.7171717171718 507.2323232323232,898.1818181818181 516.7676767676768,888.6464646464647 526.3030303030303,879.1111111111111 535.8383838383838,869.5757575757575 545.3737373737374,860.0404040404039" fill="none" stroke="rgba(255,0,0,0.75)" stroke-width="14.159999999999995"/></g><g><polyline data-points="0.3535353535353544,-3.6868686868686864 0.4545454545454551,-3.5858585858585856 0.5555555555555567,-3.484848484848485 0.6565656565656574,-3.383838383838383 0.7575757575757579,-3.2828282828282824 0.8585858585858596,-3.1818181818181817 0.9595959595959602,-3.0808080808080804 1.0606060606060617,-2.9797979797979792 1.1616161616161622,-2.8787878787878785 1.262626262626263,-2.7777777777777777 1.3636363636363644,-2.6767676767676765 1.4646464646464652,-2.5757575757575752 1.5656565656565666,-2.474747474747474 1.6666666666666674,-2.3737373737373733 1.767676767676768,-2.2727272727272725 1.8686868686868696,-2.1717171717171713" data-type="line" data-label="" points="545.3737373737374,860.0404040404039 554.9090909090909,850.5050505050505 564.4444444444445,840.969696969697 573.9797979797979,831.4343434343434 583.5151515151515,821.8989898989898 593.0505050505051,812.3636363636363 602.5858585858585,802.8282828282828 612.1212121212121,793.2929292929292 621.6565656565656,783.7575757575758 631.1919191919192,774.2222222222222 640.7272727272727,764.6868686868687 650.2626262626262,755.1515151515151 659.7979797979798,745.6161616161615 669.3333333333333,736.0808080808081 678.8686868686868,726.5454545454545 688.4040404040404,717.010101010101" fill="none" stroke="rgba(0,0,255,0.75)" stroke-width="14.159999999999995"/></g><g><polyline data-points="1.8686868686868696,-2.1717171717171713 1.9696969696969702,-2.07070707070707 2.070707070707072,-1.9696969696969693 2.070707070707072,-1.8686868686868683 2.070707070707072,-1.7676767676767675 2.070707070707072,-1.6666666666666665 2.070707070707072,-1.5656565656565653 2.070707070707072,-1.4646464646464643 2.070707070707072,-1.363636363636363 2.070707070707072,-1.2626262626262625 2.070707070707072,-1.1616161616161613 2.070707070707072,-1.0606060606060603 2.070707070707072,-0.9595959595959596 2.070707070707072,-0.8585858585858579 2.070707070707072,-0.7575757575757572 2.070707070707072,-0.6565656565656557 2.070707070707072,-0.555555555555555 2.070707070707072,-0.4545454545454544 2.070707070707072,-0.35353535353535287 2.070707070707072,-0.2525252525252522 2.070707070707072,-0.15151515151515066 2.070707070707072,-0.05050505050505001 2.070707070707072,0.050505050505051545 2.070707070707072,0.1515151515151522 2.070707070707072,0.2525252525252529 2.070707070707072,0.3535353535353544 2.070707070707072,0.4545454545454551 2.070707070707072,0.5555555555555567 2.070707070707072,0.6565656565656574 2.070707070707072,0.7575757575757579 2.070707070707072,0.8585858585858596 2.070707070707072,0.9595959595959602 2.070707070707072,1.0606060606060617 2.070707070707072,1.1616161616161622 2.070707070707072,1.262626262626263 2.070707070707072,1.3636363636363644 2.070707070707072,1.4646464646464652" data-type="line" data-label="" points="688.4040404040404,717.010101010101 697.9393939393939,707.4747474747475 707.4747474747475,697.939393939394 707.4747474747475,688.4040404040404 707.4747474747475,678.8686868686868 707.4747474747475,669.3333333333334 707.4747474747475,659.7979797979798 707.4747474747475,650.2626262626263 707.4747474747475,640.7272727272727 707.4747474747475,631.1919191919193 707.4747474747475,621.6565656565657 707.4747474747475,612.1212121212121 707.4747474747475,602.5858585858587 707.4747474747475,593.0505050505051 707.4747474747475,583.5151515151516 707.4747474747475,573.979797979798 707.4747474747475,564.4444444444445 707.4747474747475,554.909090909091 707.4747474747475,545.3737373737374 707.4747474747475,535.838383838384 707.4747474747475,526.3030303030304 707.4747474747475,516.7676767676768 707.4747474747475,507.23232323232327 707.4747474747475,497.69696969696975 707.4747474747475,488.1616161616163 707.4747474747475,478.6262626262627 707.4747474747475,469.0909090909092 707.4747474747475,459.5555555555556 707.4747474747475,450.0202020202021 707.4747474747475,440.4848484848486 707.4747474747475,430.94949494949503 707.4747474747475,421.4141414141415 707.4747474747475,411.87878787878793 707.4747474747475,402.3434343434344 707.4747474747475,392.80808080808094 707.4747474747475,383.27272727272737 707.4747474747475,373.73737373737384" fill="none" stroke="rgba(255,0,0,0.75)" stroke-width="14.159999999999995"/></g><g><polyline data-points="2.070707070707072,1.4646464646464652 2.070707070707072,1.5656565656565666 2.070707070707072,1.6666666666666674 2.070707070707072,1.767676767676768 2.070707070707072,1.8686868686868696 2.070707070707072,1.9696969696969702 2.070707070707072,2.070707070707072 2.070707070707072,2.1717171717171726 2.070707070707072,2.2727272727272734 2.070707070707072,2.373737373737375 2.070707070707072,2.4747474747474754 2.070707070707072,2.575757575757577 2.070707070707072,2.676767676767678 2.070707070707072,2.7777777777777786 2.070707070707072,2.87878787878788 2.070707070707072,2.9797979797979806 2.070707070707072,3.080808080808082 2.070707070707072,3.181818181818183 2.070707070707072,3.2828282828282833" data-type="line" data-label="" points="707.4747474747475,373.73737373737384 707.4747474747475,364.2020202020203 707.4747474747475,354.66666666666674 707.4747474747475,345.1313131313133 707.4747474747475,335.5959595959597 707.4747474747475,326.06060606060623 707.4747474747475,316.5252525252526 707.4747474747475,306.9898989898991 707.4747474747475,297.4545454545456 707.4747474747475,287.91919191919203 707.4747474747475,278.38383838383857 707.4747474747475,268.84848484848493 707.4747474747475,259.3131313131314 707.4747474747475,249.77777777777794 707.4747474747475,240.24242424242436 707.4747474747475,230.70707070707084 707.4747474747475,221.17171717171726 707.4747474747475,211.63636363636374 707.4747474747475,202.10101010101027" fill="none" stroke="rgba(0,0,255,0.75)" stroke-width="14.159999999999995"/></g><g><polyline data-points="2.070707070707072,3.2828282828282833 2.070707070707072,3.383838383838384 2.070707070707072,3.4848484848484866 2.070707070707072,3.5858585858585874 2.070707070707072,3.6868686868686877 2.070707070707072,3.7878787878787885 2.070707070707072,3.8888888888888893 2.070707070707072,3.989898989898992" data-type="line" data-label="" points="707.4747474747475,202.10101010101027 707.4747474747475,192.56565656565675 707.4747474747475,183.03030303030312 707.4747474747475,173.4949494949496 707.4747474747475,163.95959595959613 707.4747474747475,154.4242424242426 707.4747474747475,144.88888888888908 707.4747474747475,135.35353535353545" fill="none" stroke="rgba(255,0,0,0.75)" stroke-width="14.159999999999995"/></g><g><polyline data-points="2.070707070707072,3.989898989898992 2.070707070707072,4.090909090909092 2.070707070707072,4.191919191919193 2.070707070707072,4.292929292929293 2.070707070707072,4.393939393939394 2.070707070707072,4.494949494949497 2.070707070707072,4.595959595959597 2.070707070707072,4.696969696969697 2.070707070707072,4.7979797979797985 2.070707070707072,4.898989898989901 2.070707070707072,5.000000000000002" data-type="line" data-label="" points="707.4747474747475,135.35353535353545 707.4747474747475,125.81818181818198 707.4747474747475,116.28282828282846 707.4747474747475,106.747474747475 707.4747474747475,97.21212121212153 707.4747474747475,87.67676767676778 707.4747474747475,78.14141414141432 707.4747474747475,68.60606060606085 707.4747474747475,59.07070707070733 707.4747474747475,49.53535353535369 707.4747474747475,40.000000000000114" fill="none" stroke="rgba(0,0,255,0.75)" stroke-width="14.159999999999995"/></g><g><polyline data-points="3.383838383838384,5.000000000000002 3.4848484848484866,4.898989898989901 3.5858585858585874,4.7979797979797985 3.6868686868686877,4.696969696969697 3.7878787878787885,4.595959595959597 3.8888888888888893,4.494949494949497 3.8888888888888893,4.393939393939394 3.8888888888888893,4.292929292929293 3.8888888888888893,4.191919191919193 3.8888888888888893,4.090909090909092 3.989898989898992,3.989898989898992 3.989898989898992,3.8888888888888893 3.989898989898992,3.7878787878787885 3.989898989898992,3.6868686868686877 3.989898989898992,3.5858585858585874 3.989898989898992,3.4848484848484866 3.989898989898992,3.383838383838384 3.989898989898992,3.2828282828282833 3.989898989898992,3.181818181818183 3.989898989898992,3.080808080808082 3.989898989898992,2.9797979797979806 3.989898989898992,2.87878787878788 3.989898989898992,2.7777777777777786 3.989898989898992,2.676767676767678 3.989898989898992,2.575757575757577 3.989898989898992,2.4747474747474754 3.989898989898992,2.373737373737375 3.989898989898992,2.2727272727272734 3.989898989898992,2.1717171717171726 3.989898989898992,2.070707070707072 3.989898989898992,1.9696969696969702 3.989898989898992,1.8686868686868696" data-type="line" data-label="" points="831.4343434343433,40.000000000000114 840.969696969697,49.53535353535369 850.5050505050505,59.07070707070733 860.0404040404039,68.60606060606085 869.5757575757575,78.14141414141432 879.111111111111,87.67676767676778 879.111111111111,97.21212121212153 879.111111111111,106.747474747475 879.111111111111,116.28282828282846 879.111111111111,125.81818181818198 888.6464646464647,135.35353535353545 888.6464646464647,144.88888888888908 888.6464646464647,154.4242424242426 888.6464646464647,163.95959595959613 888.6464646464647,173.4949494949496 888.6464646464647,183.03030303030312 888.6464646464647,192.56565656565675 888.6464646464647,202.10101010101027 888.6464646464647,211.63636363636374 888.6464646464647,221.17171717171726 888.6464646464647,230.70707070707084 888.6464646464647,240.24242424242436 888.6464646464647,249.77777777777794 888.6464646464647,259.3131313131314 888.6464646464647,268.84848484848493 888.6464646464647,278.38383838383857 888.6464646464647,287.91919191919203 888.6464646464647,297.4545454545456 888.6464646464647,306.9898989898991 888.6464646464647,316.5252525252526 888.6464646464647,326.06060606060623 888.6464646464647,335.5959595959597" fill="none" stroke="rgba(255,0,0,0.75)" stroke-width="14.159999999999995"/></g><g><polyline data-points="3.989898989898992,1.8686868686868696 3.989898989898992,1.767676767676768 3.989898989898992,1.6666666666666674 3.989898989898992,1.5656565656565666 3.989898989898992,1.4646464646464652 3.989898989898992,1.3636363636363644 3.989898989898992,1.262626262626263 3.989898989898992,1.1616161616161622 3.989898989898992,1.0606060606060617 3.989898989898992,0.9595959595959602 3.989898989898992,0.8585858585858596 3.989898989898992,0.7575757575757579 3.989898989898992,0.6565656565656574 3.989898989898992,0.5555555555555567 3.989898989898992,0.4545454545454551 3.989898989898992,0.3535353535353544 3.989898989898992,0.2525252525252529 3.989898989898992,0.1515151515151522 3.989898989898992,0.050505050505051545 3.989898989898992,-0.05050505050505001 3.989898989898992,-0.15151515151515066 3.989898989898992,-0.2525252525252522 3.989898989898992,-0.35353535353535287 3.989898989898992,-0.4545454545454544 3.989898989898992,-0.555555555555555 3.989898989898992,-0.6565656565656557 3.989898989898992,-0.7575757575757572 3.989898989898992,-0.8585858585858579 3.989898989898992,-0.9595959595959596" data-type="line" data-label="" points="888.6464646464647,335.5959595959597 888.6464646464647,345.1313131313133 888.6464646464647,354.66666666666674 888.6464646464647,364.2020202020203 888.6464646464647,373.73737373737384 888.6464646464647,383.27272727272737 888.6464646464647,392.80808080808094 888.6464646464647,402.3434343434344 888.6464646464647,411.87878787878793 888.6464646464647,421.4141414141415 888.6464646464647,430.94949494949503 888.6464646464647,440.4848484848486 888.6464646464647,450.0202020202021 888.6464646464647,459.5555555555556 888.6464646464647,469.0909090909092 888.6464646464647,478.6262626262627 888.6464646464647,488.1616161616163 888.6464646464647,497.69696969696975 888.6464646464647,507.23232323232327 888.6464646464647,516.7676767676768 888.6464646464647,526.3030303030304 888.6464646464647,535.838383838384 888.6464646464647,545.3737373737374 888.6464646464647,554.909090909091 888.6464646464647,564.4444444444445 888.6464646464647,573.979797979798 888.6464646464647,583.5151515151516 888.6464646464647,593.0505050505051 888.6464646464647,602.5858585858587" fill="none" stroke="rgba(0,0,255,0.75)" stroke-width="14.159999999999995"/></g><g><polyline data-points="3.989898989898992,-0.9595959595959596 3.989898989898992,-1.0606060606060603 3.989898989898992,-1.1616161616161613 3.989898989898992,-1.2626262626262625 3.989898989898992,-1.363636363636363 3.989898989898992,-1.4646464646464643 3.989898989898992,-1.5656565656565653 3.989898989898992,-1.6666666666666665 3.989898989898992,-1.7676767676767675 3.989898989898992,-1.8686868686868683 3.989898989898992,-1.9696969696969693 3.989898989898992,-2.07070707070707 3.989898989898992,-2.1717171717171713 3.989898989898992,-2.2727272727272725 3.989898989898992,-2.3737373737373733 3.989898989898992,-2.474747474747474 3.989898989898992,-2.5757575757575752 3.989898989898992,-2.6767676767676765 3.989898989898992,-2.7777777777777777 3.989898989898992,-2.8787878787878785 3.989898989898992,-2.9797979797979792" data-type="line" data-label="" points="888.6464646464647,602.5858585858587 888.6464646464647,612.1212121212121 888.6464646464647,621.6565656565657 888.6464646464647,631.1919191919193 888.6464646464647,640.7272727272727 888.6464646464647,650.2626262626263 888.6464646464647,659.7979797979798 888.6464646464647,669.3333333333334 888.6464646464647,678.8686868686868 888.6464646464647,688.4040404040404 888.6464646464647,697.939393939394 888.6464646464647,707.4747474747475 888.6464646464647,717.010101010101 888.6464646464647,726.5454545454545 888.6464646464647,736.0808080808081 888.6464646464647,745.6161616161615 888.6464646464647,755.1515151515151 888.6464646464647,764.6868686868687 888.6464646464647,774.2222222222222 888.6464646464647,783.7575757575758 888.6464646464647,793.2929292929292" fill="none" stroke="rgba(255,0,0,0.75)" stroke-width="14.159999999999995"/></g><g><polyline data-points="3.989898989898992,-2.9797979797979792 4.090909090909092,-3.0808080808080804 4.191919191919193,-3.1818181818181817 4.292929292929293,-3.2828282828282824 4.393939393939394,-3.383838383838383 4.494949494949497,-3.484848484848485 4.595959595959597,-3.5858585858585856 4.696969696969697,-3.5858585858585856 4.7979797979797985,-3.5858585858585856 4.898989898989901,-3.5858585858585856 5.000000000000002,-3.5858585858585856" data-type="line" data-label="" points="888.6464646464647,793.2929292929292 898.181818181818,802.8282828282828 907.7171717171716,812.3636363636363 917.2525252525251,821.8989898989898 926.7878787878785,831.4343434343434 936.3232323232323,840.969696969697 945.8585858585857,850.5050505050505 955.3939393939393,850.5050505050505 964.9292929292927,850.5050505050505 974.4646464646464,850.5050505050505 984,850.5050505050505" fill="none" stroke="rgba(0,0,255,0.75)" stroke-width="14.159999999999995"/></g><g><polyline data-points="-5.000000000000001,4.696969696969697 -5.000000000000001,4.595959595959597 -4.898989898989899,4.494949494949497 -4.7979797979797985,4.393939393939394 -4.696969696969697,4.292929292929293 -4.595959595959596,4.191919191919193 -4.494949494949496,4.090909090909092 -4.393939393939394,3.989898989898992 -4.292929292929293,3.8888888888888893 -4.191919191919193,3.7878787878787885 -4.090909090909091,3.6868686868686877 -3.98989898989899,3.5858585858585874 -3.8888888888888884,3.5858585858585874 -3.7878787878787876,3.5858585858585874 -3.6868686868686864,3.5858585858585874 -3.5858585858585856,3.5858585858585874 -3.484848484848485,3.4848484848484866 -3.383838383838383,3.4848484848484866 -3.2828282828282824,3.383838383838384 -3.1818181818181817,3.383838383838384 -3.0808080808080804,3.383838383838384 -2.9797979797979792,3.383838383838384 -2.8787878787878785,3.383838383838384 -2.7777777777777777,3.383838383838384 -2.6767676767676765,3.383838383838384 -2.5757575757575752,3.383838383838384 -2.474747474747474,3.383838383838384 -2.3737373737373733,3.383838383838384 -2.2727272727272725,3.383838383838384 -2.1717171717171713,3.2828282828282833 -2.07070707070707,3.2828282828282833 -1.9696969696969693,3.2828282828282833 -1.8686868686868683,3.2828282828282833 -1.7676767676767675,3.2828282828282833 -1.6666666666666665,3.2828282828282833 -1.5656565656565653,3.2828282828282833 -1.4646464646464643,3.2828282828282833 -1.363636363636363,3.2828282828282833 -1.2626262626262625,3.2828282828282833 -1.1616161616161613,3.2828282828282833 -1.0606060606060603,3.2828282828282833 -0.9595959595959596,3.2828282828282833 -0.8585858585858579,3.2828282828282833 -0.7575757575757572,3.2828282828282833 -0.6565656565656557,3.2828282828282833 -0.555555555555555,3.2828282828282833 -0.4545454545454544,3.2828282828282833 -0.35353535353535287,3.2828282828282833 -0.2525252525252522,3.2828282828282833 -0.15151515151515066,3.2828282828282833 -0.05050505050505001,3.2828282828282833 0.050505050505051545,3.2828282828282833 0.1515151515151522,3.2828282828282833 0.2525252525252529,3.2828282828282833 0.3535353535353544,3.2828282828282833 0.4545454545454551,3.2828282828282833 0.5555555555555567,3.2828282828282833 0.6565656565656574,3.2828282828282833 0.7575757575757579,3.2828282828282833 0.8585858585858596,3.2828282828282833 0.9595959595959602,3.2828282828282833 1.0606060606060617,3.2828282828282833 1.1616161616161622,3.2828282828282833" data-type="line" data-label="" points="40.00000000000006,68.60606060606085 40.00000000000006,78.14141414141432 49.53535353535369,87.67676767676778 59.07070707070716,97.21212121212153 68.60606060606068,106.747474747475 78.14141414141426,116.28282828282846 87.67676767676772,125.81818181818198 97.21212121212136,135.35353535353545 106.74747474747483,144.88888888888908 116.28282828282829,154.4242424242426 125.81818181818193,163.95959595959613 135.35353535353545,173.4949494949496 144.88888888888903,173.4949494949496 154.42424242424255,173.4949494949496 163.95959595959607,173.4949494949496 173.4949494949496,173.4949494949496 183.03030303030312,183.03030303030312 192.5656565656567,183.03030303030312 202.10101010101022,192.56565656565675 211.63636363636374,192.56565656565675 221.17171717171726,192.56565656565675 230.70707070707084,192.56565656565675 240.2424242424243,192.56565656565675 249.77777777777783,192.56565656565675 259.3131313131314,192.56565656565675 268.84848484848493,192.56565656565675 278.38383838383845,192.56565656565675 287.91919191919203,192.56565656565675 297.4545454545455,192.56565656565675 306.9898989898991,202.10101010101027 316.5252525252526,202.10101010101027 326.0606060606061,202.10101010101027 335.59595959595964,202.10101010101027 345.13131313131316,202.10101010101027 354.6666666666667,202.10101010101027 364.2020202020202,202.10101010101027 373.7373737373738,202.10101010101027 383.2727272727273,202.10101010101027 392.80808080808083,202.10101010101027 402.34343434343435,202.10101010101027 411.8787878787879,202.10101010101027 421.4141414141414,202.10101010101027 430.949494949495,202.10101010101027 440.4848484848485,202.10101010101027 450.0202020202021,202.10101010101027 459.55555555555554,202.10101010101027 469.09090909090907,202.10101010101027 478.62626262626264,202.10101010101027 488.16161616161617,202.10101010101027 497.69696969696975,202.10101010101027 507.2323232323232,202.10101010101027 516.7676767676768,202.10101010101027 526.3030303030303,202.10101010101027 535.8383838383838,202.10101010101027 545.3737373737374,202.10101010101027 554.9090909090909,202.10101010101027 564.4444444444445,202.10101010101027 573.9797979797979,202.10101010101027 583.5151515151515,202.10101010101027 593.0505050505051,202.10101010101027 602.5858585858585,202.10101010101027 612.1212121212121,202.10101010101027 621.6565656565656,202.10101010101027" fill="none" stroke="rgba(0,0,255,0.75)" stroke-width="14.159999999999995"/></g><g><polyline data-points="1.1616161616161622,3.2828282828282833 1.262626262626263,3.2828282828282833 1.3636363636363644,3.2828282828282833 1.4646464646464652,3.2828282828282833 1.5656565656565666,3.181818181818183 1.6666666666666674,3.080808080808082 1.767676767676768,2.9797979797979806 1.8686868686868696,2.87878787878788 1.9696969696969702,2.87878787878788 2.070707070707072,2.7777777777777786 2.1717171717171726,2.87878787878788 2.2727272727272734,2.87878787878788 2.373737373737375,2.9797979797979806 2.4747474747474754,3.080808080808082 2.575757575757577,3.181818181818183 2.676767676767678,3.2828282828282833 2.7777777777777786,3.383838383838384 2.87878787878788,3.4848484848484866 2.9797979797979806,3.5858585858585874 3.080808080808082,3.5858585858585874 3.181818181818183,3.5858585858585874 3.2828282828282833,3.5858585858585874 3.383838383838384,3.5858585858585874" data-type="line" data-label="" points="621.6565656565656,202.10101010101027 631.1919191919192,202.10101010101027 640.7272727272727,202.10101010101027 650.2626262626262,202.10101010101027 659.7979797979798,211.63636363636374 669.3333333333333,221.17171717171726 678.8686868686868,230.70707070707084 688.4040404040404,240.24242424242436 697.9393939393939,240.24242424242436 707.4747474747475,249.77777777777794 717.0101010101009,240.24242424242436 726.5454545454545,240.24242424242436 736.0808080808081,230.70707070707084 745.6161616161615,221.17171717171726 755.1515151515151,211.63636363636374 764.6868686868686,202.10101010101027 774.2222222222222,192.56565656565675 783.7575757575758,183.03030303030312 793.2929292929292,173.4949494949496 802.8282828282828,173.4949494949496 812.3636363636363,173.4949494949496 821.8989898989898,173.4949494949496 831.4343434343433,173.4949494949496" fill="none" stroke="rgba(255,0,0,0.75)" stroke-width="14.159999999999995"/></g><g><polyline data-points="3.383838383838384,3.5858585858585874 3.4848484848484866,3.5858585858585874 3.5858585858585874,3.5858585858585874 3.6868686868686877,3.5858585858585874 3.7878787878787885,3.5858585858585874 3.8888888888888893,3.5858585858585874 3.989898989898992,3.5858585858585874 4.090909090909092,3.5858585858585874 4.191919191919193,3.5858585858585874 4.292929292929293,3.5858585858585874 4.393939393939394,3.5858585858585874 4.494949494949497,3.5858585858585874 4.595959595959597,3.5858585858585874 4.696969696969697,3.5858585858585874 4.7979797979797985,3.5858585858585874 4.898989898989901,3.5858585858585874 5.000000000000002,3.6868686868686877" data-type="line" data-label="" points="831.4343434343433,173.4949494949496 840.969696969697,173.4949494949496 850.5050505050505,173.4949494949496 860.0404040404039,173.4949494949496 869.5757575757575,173.4949494949496 879.111111111111,173.4949494949496 888.6464646464647,173.4949494949496 898.181818181818,173.4949494949496 907.7171717171716,173.4949494949496 917.2525252525251,173.4949494949496 926.7878787878785,173.4949494949496 936.3232323232323,173.4949494949496 945.8585858585857,173.4949494949496 955.3939393939393,173.4949494949496 964.9292929292927,173.4949494949496 974.4646464646464,173.4949494949496 984,163.95959595959613" fill="none" stroke="rgba(0,0,255,0.75)" stroke-width="14.159999999999995"/></g><g><polyline data-points="4.898989898989901,5.000000000000002 4.898989898989901,4.898989898989901 4.7979797979797985,4.7979797979797985 4.696969696969697,4.696969696969697 4.595959595959597,4.595959595959597 4.494949494949497,4.494949494949497 4.393939393939394,4.393939393939394 4.292929292929293,4.292929292929293 4.191919191919193,4.191919191919193 4.090909090909092,4.090909090909092 3.989898989898992,3.989898989898992 3.8888888888888893,4.090909090909092 3.7878787878787885,4.090909090909092 3.6868686868686877,4.090909090909092 3.5858585858585874,4.090909090909092 3.4848484848484866,4.090909090909092 3.383838383838384,4.090909090909092 3.2828282828282833,3.989898989898992 3.181818181818183,3.989898989898992 3.080808080808082,3.8888888888888893 2.9797979797979806,3.7878787878787885 2.87878787878788,3.6868686868686877 2.7777777777777786,3.5858585858585874 2.676767676767678,3.4848484848484866 2.575757575757577,3.383838383838384 2.575757575757577,3.2828282828282833 2.575757575757577,3.181818181818183 2.575757575757577,3.080808080808082 2.575757575757577,2.9797979797979806 2.575757575757577,2.87878787878788 2.575757575757577,2.7777777777777786 2.575757575757577,2.676767676767678 2.575757575757577,2.575757575757577 2.575757575757577,2.4747474747474754 2.575757575757577,2.373737373737375 2.575757575757577,2.2727272727272734 2.575757575757577,2.1717171717171726 2.575757575757577,2.070707070707072 2.575757575757577,1.9696969696969702 2.575757575757577,1.8686868686868696 2.575757575757577,1.767676767676768 2.575757575757577,1.6666666666666674 2.575757575757577,1.5656565656565666 2.575757575757577,1.4646464646464652 2.4747474747474754,1.3636363636363644 2.4747474747474754,1.262626262626263 2.373737373737375,1.1616161616161622 2.2727272727272734,1.0606060606060617 2.1717171717171726,0.9595959595959602 2.070707070707072,0.8585858585858596 1.9696969696969702,0.7575757575757579 1.8686868686868696,0.6565656565656574 1.767676767676768,0.5555555555555567 1.6666666666666674,0.4545454545454551 1.5656565656565666,0.3535353535353544 1.4646464646464652,0.2525252525252529 1.3636363636363644,0.1515151515151522 1.262626262626263,0.050505050505051545 1.1616161616161622,-0.05050505050505001 1.0606060606060617,-0.15151515151515066 0.9595959595959602,-0.2525252525252522 0.8585858585858596,-0.35353535353535287 0.7575757575757579,-0.4545454545454544 0.6565656565656574,-0.555555555555555 0.5555555555555567,-0.6565656565656557 0.4545454545454551,-0.7575757575757572 0.3535353535353544,-0.8585858585858579 0.2525252525252529,-0.9595959595959596 0.1515151515151522,-1.0606060606060603 0.050505050505051545,-1.0606060606060603 -0.05050505050505001,-1.0606060606060603 -0.15151515151515066,-1.0606060606060603 -0.2525252525252522,-1.0606060606060603 -0.35353535353535287,-1.0606060606060603 -0.4545454545454544,-1.0606060606060603 -0.555555555555555,-1.0606060606060603 -0.6565656565656557,-1.0606060606060603 -0.7575757575757572,-1.0606060606060603 -0.8585858585858579,-1.0606060606060603 -0.9595959595959596,-1.0606060606060603 -1.0606060606060603,-1.0606060606060603 -1.1616161616161613,-1.0606060606060603 -1.2626262626262625,-1.0606060606060603 -1.363636363636363,-1.0606060606060603 -1.4646464646464643,-1.0606060606060603 -1.5656565656565653,-1.0606060606060603 -1.6666666666666665,-1.0606060606060603 -1.7676767676767675,-1.0606060606060603 -1.8686868686868683,-1.0606060606060603 -1.9696969696969693,-1.0606060606060603 -2.07070707070707,-1.0606060606060603 -2.1717171717171713,-1.0606060606060603 -2.2727272727272725,-1.1616161616161613 -2.3737373737373733,-1.1616161616161613 -2.474747474747474,-1.2626262626262625 -2.5757575757575752,-1.363636363636363 -2.6767676767676765,-1.4646464646464643 -2.6767676767676765,-1.5656565656565653 -2.6767676767676765,-1.6666666666666665 -2.6767676767676765,-1.7676767676767675 -2.6767676767676765,-1.8686868686868683 -2.6767676767676765,-1.9696969696969693 -2.6767676767676765,-2.07070707070707 -2.6767676767676765,-2.1717171717171713 -2.6767676767676765,-2.2727272727272725 -2.6767676767676765,-2.3737373737373733 -2.6767676767676765,-2.474747474747474 -2.6767676767676765,-2.5757575757575752 -2.6767676767676765,-2.6767676767676765 -2.6767676767676765,-2.7777777777777777 -2.6767676767676765,-2.8787878787878785 -2.6767676767676765,-2.9797979797979792 -2.6767676767676765,-3.0808080808080804 -2.6767676767676765,-3.1818181818181817 -2.6767676767676765,-3.2828282828282824 -2.6767676767676765,-3.383838383838383 -2.6767676767676765,-3.484848484848485 -2.6767676767676765,-3.5858585858585856 -2.6767676767676765,-3.6868686868686864 -2.6767676767676765,-3.7878787878787876 -2.6767676767676765,-3.8888888888888884" data-type="line" data-label="" points="974.4646464646464,40.000000000000114 974.4646464646464,49.53535353535369 964.9292929292927,59.07070707070733 955.3939393939393,68.60606060606085 945.8585858585857,78.14141414141432 936.3232323232323,87.67676767676778 926.7878787878785,97.21212121212153 917.2525252525251,106.747474747475 907.7171717171716,116.28282828282846 898.181818181818,125.81818181818198 888.6464646464647,135.35353535353545 879.111111111111,125.81818181818198 869.5757575757575,125.81818181818198 860.0404040404039,125.81818181818198 850.5050505050505,125.81818181818198 840.969696969697,125.81818181818198 831.4343434343433,125.81818181818198 821.8989898989898,135.35353535353545 812.3636363636363,135.35353535353545 802.8282828282828,144.88888888888908 793.2929292929292,154.4242424242426 783.7575757575758,163.95959595959613 774.2222222222222,173.4949494949496 764.6868686868686,183.03030303030312 755.1515151515151,192.56565656565675 755.1515151515151,202.10101010101027 755.1515151515151,211.63636363636374 755.1515151515151,221.17171717171726 755.1515151515151,230.70707070707084 755.1515151515151,240.24242424242436 755.1515151515151,249.77777777777794 755.1515151515151,259.3131313131314 755.1515151515151,268.84848484848493 755.1515151515151,278.38383838383857 755.1515151515151,287.91919191919203 755.1515151515151,297.4545454545456 755.1515151515151,306.9898989898991 755.1515151515151,316.5252525252526 755.1515151515151,326.06060606060623 755.1515151515151,335.5959595959597 755.1515151515151,345.1313131313133 755.1515151515151,354.66666666666674 755.1515151515151,364.2020202020203 755.1515151515151,373.73737373737384 745.6161616161615,383.27272727272737 745.6161616161615,392.80808080808094 736.0808080808081,402.3434343434344 726.5454545454545,411.87878787878793 717.0101010101009,421.4141414141415 707.4747474747475,430.94949494949503 697.9393939393939,440.4848484848486 688.4040404040404,450.0202020202021 678.8686868686868,459.5555555555556 669.3333333333333,469.0909090909092 659.7979797979798,478.6262626262627 650.2626262626262,488.1616161616163 640.7272727272727,497.69696969696975 631.1919191919192,507.23232323232327 621.6565656565656,516.7676767676768 612.1212121212121,526.3030303030304 602.5858585858585,535.838383838384 593.0505050505051,545.3737373737374 583.5151515151515,554.909090909091 573.9797979797979,564.4444444444445 564.4444444444445,573.979797979798 554.9090909090909,583.5151515151516 545.3737373737374,593.0505050505051 535.8383838383838,602.5858585858587 526.3030303030303,612.1212121212121 516.7676767676768,612.1212121212121 507.2323232323232,612.1212121212121 497.69696969696975,612.1212121212121 488.16161616161617,612.1212121212121 478.62626262626264,612.1212121212121 469.09090909090907,612.1212121212121 459.55555555555554,612.1212121212121 450.0202020202021,612.1212121212121 440.4848484848485,612.1212121212121 430.949494949495,612.1212121212121 421.4141414141414,612.1212121212121 411.8787878787879,612.1212121212121 402.34343434343435,612.1212121212121 392.80808080808083,612.1212121212121 383.2727272727273,612.1212121212121 373.7373737373738,612.1212121212121 364.2020202020202,612.1212121212121 354.6666666666667,612.1212121212121 345.13131313131316,612.1212121212121 335.59595959595964,612.1212121212121 326.0606060606061,612.1212121212121 316.5252525252526,612.1212121212121 306.9898989898991,612.1212121212121 297.4545454545455,621.6565656565657 287.91919191919203,621.6565656565657 278.38383838383845,631.1919191919193 268.84848484848493,640.7272727272727 259.3131313131314,650.2626262626263 259.3131313131314,659.7979797979798 259.3131313131314,669.3333333333334 259.3131313131314,678.8686868686868 259.3131313131314,688.4040404040404 259.3131313131314,697.939393939394 259.3131313131314,707.4747474747475 259.3131313131314,717.010101010101 259.3131313131314,726.5454545454545 259.3131313131314,736.0808080808081 259.3131313131314,745.6161616161615 259.3131313131314,755.1515151515151 259.3131313131314,764.6868686868687 259.3131313131314,774.2222222222222 259.3131313131314,783.7575757575758 259.3131313131314,793.2929292929292 259.3131313131314,802.8282828282828 259.3131313131314,812.3636363636363 259.3131313131314,821.8989898989898 259.3131313131314,831.4343434343434 259.3131313131314,840.969696969697 259.3131313131314,850.5050505050505 259.3131313131314,860.0404040404039 259.3131313131314,869.5757575757575 259.3131313131314,879.1111111111111" fill="none" stroke="rgba(0,0,255,0.75)" stroke-width="14.159999999999995"/></g><g><polyline data-points="-2.6767676767676765,-3.8888888888888884 -2.6767676767676765,-3.98989898989899 -2.6767676767676765,-4.090909090909091 -2.6767676767676765,-4.191919191919193 -2.6767676767676765,-4.292929292929293 -2.6767676767676765,-4.393939393939394 -2.6767676767676765,-4.494949494949496 -2.6767676767676765,-4.595959595959596 -2.6767676767676765,-4.696969696969697 -2.6767676767676765,-4.7979797979797985 -2.6767676767676765,-4.898989898989899 -2.7777777777777777,-5.000000000000001" data-type="line" data-label="" points="259.3131313131314,879.1111111111111 259.3131313131314,888.6464646464647 259.3131313131314,898.1818181818181 259.3131313131314,907.7171717171718 259.3131313131314,917.2525252525252 259.3131313131314,926.7878787878788 259.3131313131314,936.3232323232323 259.3131313131314,945.8585858585858 259.3131313131314,955.3939393939394 259.3131313131314,964.9292929292928 259.3131313131314,974.4646464646464 249.77777777777783,984" fill="none" stroke="rgba(255,0,0,0.75)" stroke-width="14.159999999999995"/></g><g><rect data-type="rect" data-label="" data-x="0" data-y="0" x="40.000000000000114" y="40.000000000000284" width="943.9999999999997" height="943.9999999999998" fill="none" stroke="gray" stroke-width="0.010593220338983056"/></g><g><rect data-type="rect" data-label="" data-x="0" data-y="0" x="40.000000000000114" y="40.000000000000284" width="943.9999999999997" height="943.9999999999998" fill="none" stroke="rgba(15, 23, 42, 0.8)" stroke-width="0.010593220338983056"/></g><circle data-type="circle" data-label="" data-x="-2.1717171717171713" data-y="2.070707070707072" cx="306.9898989898991" cy="316.5252525252526" r="28.791999999999987" fill="rgba(0,0,0,0.3)" stroke="black" stroke-width="0.010593220338983056"/><circle data-type="circle" data-label="" data-x="-3.98989898989899" data-y="1.1616161616161622" cx="135.35353535353545" cy="402.3434343434344" r="28.791999999999987" fill="rgba(0,0,0,0.3)" stroke="black" stroke-width="0.010593220338983056"/><circle data-type="circle" data-label="" data-x="-2.1717171717171713" data-y="-1.5656565656565653" cx="306.9898989898991" cy="659.7979797979798" r="28.791999999999987" fill="rgba(0,0,0,0.3)" stroke="black" stroke-width="0.010593220338983056"/><circle data-type="circle" data-label="" data-x="-3.98989898989899" data-y="-1.5656565656565653" cx="135.35353535353545" cy="659.7979797979798" r="28.791999999999987" fill="rgba(0,0,0,0.3)" stroke="black" stroke-width="0.010593220338983056"/><circle data-type="circle" data-label="" data-x="-2.474747474747474" data-y="3.989898989898992" cx="278.38383838383845" cy="135.35353535353545" r="28.791999999999987" fill="rgba(0,0,0,0.3)" stroke="black" stroke-width="0.010593220338983056"/><circle data-type="circle" data-label="" data-x="-3.2828282828282824" data-y="3.8888888888888893" cx="202.10101010101022" cy="144.88888888888908" r="28.791999999999987" fill="rgba(0,0,0,0.3)" stroke="black" stroke-width="0.010593220338983056"/><circle data-type="circle" data-label="" data-x="-3.98989898989899" data-y="-3.98989898989899" cx="135.35353535353545" cy="888.6464646464647" r="28.791999999999987" fill="rgba(0,0,0,0.3)" stroke="black" stroke-width="0.010593220338983056"/><circle data-type="circle" data-label="" data-x="3.8888888888888893" data-y="-3.98989898989899" cx="879.111111111111" cy="888.6464646464647" r="28.791999999999987" fill="rgba(0,0,0,0.3)" stroke="black" stroke-width="0.010593220338983056"/><circle data-type="circle" data-label="" data-x="0.3535353535353544" data-y="-3.6868686868686864" cx="545.3737373737374" cy="860.0404040404039" r="28.791999999999987" fill="rgba(0,0,0,0.3)" stroke="black" stroke-width="0.010593220338983056"/><circle data-type="circle" data-label="" data-x="1.8686868686868696" data-y="-2.1717171717171713" cx="688.4040404040404" cy="717.010101010101" r="28.791999999999987" fill="rgba(0,0,0,0.3)" stroke="black" stroke-width="0.010593220338983056"/><circle data-type="circle" data-label="" data-x="2.070707070707072" data-y="1.4646464646464652" cx="707.4747474747475" cy="373.73737373737384" r="28.791999999999987" fill="rgba(0,0,0,0.3)" stroke="black" stroke-width="0.010593220338983056"/><circle data-type="circle" data-label="" data-x="2.070707070707072" data-y="3.2828282828282833" cx="707.4747474747475" cy="202.10101010101027" r="28.791999999999987" fill="rgba(0,0,0,0.3)" stroke="black" stroke-width="0.010593220338983056"/><circle data-type="circle" data-label="" data-x="2.070707070707072" data-y="3.989898989898992" cx="707.4747474747475" cy="135.35353535353545" r="28.791999999999987" fill="rgba(0,0,0,0.3)" stroke="black" stroke-width="0.010593220338983056"/><circle data-type="circle" data-label="" data-x="3.989898989898992" data-y="1.8686868686868696" cx="888.6464646464647" cy="335.5959595959597" r="28.791999999999987" fill="rgba(0,0,0,0.3)" stroke="black" stroke-width="0.010593220338983056"/><circle data-type="circle" data-label="" data-x="3.989898989898992" data-y="-0.9595959595959596" cx="888.6464646464647" cy="602.5858585858587" r="28.791999999999987" fill="rgba(0,0,0,0.3)" stroke="black" stroke-width="0.010593220338983056"/><circle data-type="circle" data-label="" data-x="3.989898989898992" data-y="-2.9797979797979792" cx="888.6464646464647" cy="793.2929292929292" r="28.791999999999987" fill="rgba(0,0,0,0.3)" stroke="black" stroke-width="0.010593220338983056"/><circle data-type="circle" data-label="" data-x="1.1616161616161622" data-y="3.2828282828282833" cx="621.6565656565656" cy="202.10101010101027" r="28.791999999999987" fill="rgba(0,0,0,0.3)" stroke="black" stroke-width="0.010593220338983056"/><circle data-type="circle" data-label="" data-x="3.383838383838384" data-y="3.5858585858585874" cx="831.4343434343433" cy="173.4949494949496" r="28.791999999999987" fill="rgba(0,0,0,0.3)" stroke="black" stroke-width="0.010593220338983056"/><circle data-type="circle" data-label="" data-x="-2.6767676767676765" data-y="-3.8888888888888884" cx="259.3131313131314" cy="879.1111111111111" r="28.791999999999987" fill="rgba(0,0,0,0.3)" stroke="black" stroke-width="0.010593220338983056"/><g id="crosshair" style="display: none"><line id="crosshair-h" y1="0" y2="1024" stroke="#666" stroke-width="0.5"/><line id="crosshair-v" x1="0" x2="1024" stroke="#666" stroke-width="0.5"/><text id="coordinates" font-family="monospace" font-size="12" fill="#666"></text></g><script><![CDATA[
              document.currentScript.parentElement.addEventListener('mousemove', (e) => {
                const svg = e.currentTarget;
                const rect = svg.getBoundingClientRect();
                const x = e.clientX - rect.left;
                const y = e.clientY - rect.top;
                const crosshair = svg.getElementById('crosshair');
                const h = svg.getElementById('crosshair-h');
                const v = svg.getElementById('crosshair-v');
                const coords = svg.getElementById('coordinates');
                
                crosshair.style.display = 'block';
                h.setAttribute('x1', '0');
                h.setAttribute('x2', '1024');
                h.setAttribute('y1', y);
                h.setAttribute('y2', y);
                v.setAttribute('x1', x);
                v.setAttribute('x2', x);
                v.setAttribute('y1', '0');
                v.setAttribute('y2', '1024');

                // Calculate real coordinates using inverse transformation
                const matrix = {"a":94.39999999999996,"c":0,"e":511.99999999999994,"b":0,"d":-94.39999999999996,"f":512.0000000000001};
                // Manually invert and apply the affine transform
                // Since we only use translate and scale, we can directly compute:
                // x' = (x - tx) / sx
                // y' = (y - ty) / sy
                const sx = matrix.a;
                const sy = matrix.d;
                const tx = matrix.e; 
                const ty = matrix.f;
                const realPoint = {
                  x: (x - tx) / sx,
                  y: (y - ty) / sy // Flip y back since we used negative scale
                }
                
                coords.textContent = `(${realPoint.x.toFixed(2)}, ${realPoint.y.toFixed(2)})`;
                coords.setAttribute('x', (x + 5).toString());
                coords.setAttribute('y', (y - 5).toString());
              });
              document.currentScript.parentElement.addEventListener('mouseleave', () => {
                document.currentScript.parentElement.getElementById('crosshair').style.display = 'none';
              });
            ]]></script></svg>