<svg width="1024" height="1024" viewBox="0 0 1024 1024" xmlns="http://www.w3.org/2000/svg"><rect width="100%" height="100%" fill="white"/><g><circle data-type="point" data-label="conn_000" data-x="5" data-y="-3.92" cx="983.9999999999998" cy="882.048" r="28.792" fill="blue" stroke="#0fbd42" stroke-width="28.792"/></g><g><circle data-type="point" data-label="conn_000" data-x="-5" data-y="-3.42" cx="40.000000000000114" cy="834.848" r="28.792" fill="blue" stroke="#0fbd42" stroke-width="28.792"/></g><g><circle data-type="point" data-label="conn_001" data-x="-5" data-y="1.32" cx="40.000000000000114" cy="387.39200000000017" r="28.792" fill="red" stroke="#740fbd" stroke-width="28.792"/></g><g><circle data-type="point" data-label="conn_001" data-x="-5" data-y="-4.16" cx="40.000000000000114" cy="904.704" r="28.792" fill="red" stroke="#740fbd" stroke-width="28.792"/></g><g><circle data-type="point" data-label="conn_002" data-x="4.2" data-y="-5" cx="908.4799999999998" cy="984" r="28.792" fill="blue" stroke="#bda70f" stroke-width="28.792"/></g><g><circle data-type="point" data-label="conn_002" data-x="2" data-y="5" cx="700.7999999999998" cy="40.000000000000284" r="28.792" fill="blue" stroke="#bda70f" stroke-width="28.792"/></g><g><circle data-type="point" data-label="conn_003" data-x="1.52" data-y="-5" cx="655.4879999999998" cy="984" r="28.792" fill="blue" stroke="#0fa0bd" stroke-width="28.792"/></g><g><circle data-type="point" data-label="conn_003" data-x="-2.68" data-y="5" cx="259.00800000000004" cy="40.000000000000284" r="28.792" fill="blue" stroke="#0fa0bd" stroke-width="28.792"/></g><g><circle data-type="point" data-label="conn_004" data-x="-3.56" data-y="-5" cx="175.9360000000001" cy="984" r="28.792" fill="red" stroke="#bd0f6d" stroke-width="28.792"/></g><g><circle data-type="point" data-label="conn_004" data-x="-3.96" data-y="5" cx="138.1760000000001" cy="40.000000000000284" r="28.792" fill="red" stroke="#bd0f6d" stroke-width="28.792"/></g><g><polyline data-points="1.5656565656565666,-5.000000000000001 1.4646464646464652,-4.898989898989899 1.3636363636363644,-4.7979797979797985 1.262626262626263,-4.696969696969697 1.1616161616161622,-4.595959595959596 1.0606060606060617,-4.494949494949496 0.9595959595959602,-4.393939393939394 0.8585858585858596,-4.292929292929293 0.7575757575757579,-4.191919191919193 0.6565656565656574,-4.090909090909091 0.5555555555555567,-3.98989898989899 0.4545454545454551,-3.8888888888888884 0.3535353535353544,-3.7878787878787876 0.2525252525252529,-3.6868686868686864" data-type="line" data-label="" points="659.7979797979798,984 650.2626262626262,974.4646464646464 640.7272727272727,964.9292929292928 631.1919191919192,955.3939393939394 621.6565656565656,945.8585858585858 612.1212121212121,936.3232323232323 602.5858585858585,926.7878787878788 593.0505050505051,917.2525252525252 583.5151515151515,907.7171717171718 573.9797979797979,898.1818181818181 564.4444444444445,888.6464646464647 554.9090909090909,879.1111111111111 545.3737373737374,869.5757575757575 535.8383838383838,860.0404040404039" fill="none" stroke="rgba(0,0,255,0.75)" stroke-width="14.159999999999995"/></g><g><polyline data-points="0.2525252525252529,-3.6868686868686864 0.1515151515151522,-3.5858585858585856 0.050505050505051545,-3.484848484848485 -0.05050505050505001,-3.383838383838383 -0.15151515151515066,-3.2828282828282824 -0.2525252525252522,-3.1818181818181817 -0.35353535353535287,-3.0808080808080804 -0.4545454545454544,-2.9797979797979792 -0.555555555555555,-2.8787878787878785 -0.6565656565656557,-2.7777777777777777 -0.7575757575757572,-2.6767676767676765 -0.8585858585858579,-2.5757575757575752 -0.9595959595959596,-2.474747474747474 -1.0606060606060603,-2.3737373737373733 -1.1616161616161613,-2.2727272727272725 -1.2626262626262625,-2.1717171717171713 -1.363636363636363,-2.07070707070707 -1.4646464646464643,-1.9696969696969693 -1.5656565656565653,-1.8686868686868683 -1.6666666666666665,-1.7676767676767675 -1.7676767676767675,-1.6666666666666665 -1.8686868686868683,-1.5656565656565653 -1.9696969696969693,-1.4646464646464643 -2.07070707070707,-1.363636363636363 -2.1717171717171713,-1.2626262626262625 -2.2727272727272725,-1.1616161616161613 -2.3737373737373733,-1.0606060606060603 -2.474747474747474,-0.9595959595959596 -2.5757575757575752,-0.8585858585858579 -2.6767676767676765,-0.7575757575757572 -2.6767676767676765,-0.6565656565656557 -2.6767676767676765,-0.555555555555555 -2.6767676767676765,-0.4545454545454544 -2.6767676767676765,-0.35353535353535287 -2.6767676767676765,-0.2525252525252522 -2.6767676767676765,-0.15151515151515066 -2.6767676767676765,-0.05050505050505001 -2.6767676767676765,0.050505050505051545 -2.6767676767676765,0.1515151515151522 -2.6767676767676765,0.2525252525252529 -2.6767676767676765,0.3535353535353544 -2.6767676767676765,0.4545454545454551 -2.6767676767676765,0.5555555555555567 -2.6767676767676765,0.6565656565656574 -2.6767676767676765,0.7575757575757579 -2.6767676767676765,0.8585858585858596 -2.6767676767676765,0.9595959595959602 -2.6767676767676765,1.0606060606060617 -2.6767676767676765,1.1616161616161622 -2.6767676767676765,1.262626262626263 -2.6767676767676765,1.3636363636363644 -2.6767676767676765,1.4646464646464652 -2.6767676767676765,1.5656565656565666 -2.6767676767676765,1.6666666666666674 -2.6767676767676765,1.767676767676768 -2.6767676767676765,1.8686868686868696 -2.6767676767676765,1.9696969696969702 -2.6767676767676765,2.070707070707072 -2.6767676767676765,2.1717171717171726 -2.6767676767676765,2.2727272727272734 -2.6767676767676765,2.373737373737375 -2.6767676767676765,2.4747474747474754 -2.6767676767676765,2.575757575757577 -2.6767676767676765,2.676767676767678 -2.6767676767676765,2.7777777777777786 -2.6767676767676765,2.87878787878788 -2.6767676767676765,2.9797979797979806 -2.6767676767676765,3.080808080808082 -2.6767676767676765,3.181818181818183 -2.6767676767676765,3.2828282828282833 -2.6767676767676765,3.383838383838384 -2.6767676767676765,3.4848484848484866 -2.6767676767676765,3.5858585858585874 -2.6767676767676765,3.6868686868686877 -2.6767676767676765,3.7878787878787885 -2.6767676767676765,3.8888888888888893 -2.6767676767676765,3.989898989898992" data-type="line" data-label="" points="535.8383838383838,860.0404040404039 526.3030303030303,850.5050505050505 516.7676767676768,840.969696969697 507.2323232323232,831.4343434343434 497.69696969696975,821.8989898989898 488.16161616161617,812.3636363636363 478.62626262626264,802.8282828282828 469.09090909090907,793.2929292929292 459.55555555555554,783.7575757575758 450.0202020202021,774.2222222222222 440.4848484848485,764.6868686868687 430.949494949495,755.1515151515151 421.4141414141414,745.6161616161615 411.8787878787879,736.0808080808081 402.34343434343435,726.5454545454545 392.80808080808083,717.010101010101 383.2727272727273,707.4747474747475 373.7373737373738,697.939393939394 364.2020202020202,688.4040404040404 354.6666666666667,678.8686868686868 345.13131313131316,669.3333333333334 335.59595959595964,659.7979797979798 326.0606060606061,650.2626262626263 316.5252525252526,640.7272727272727 306.9898989898991,631.1919191919193 297.4545454545455,621.6565656565657 287.91919191919203,612.1212121212121 278.38383838383845,602.5858585858587 268.84848484848493,593.0505050505051 259.3131313131314,583.5151515151516 259.3131313131314,573.979797979798 259.3131313131314,564.4444444444445 259.3131313131314,554.909090909091 259.3131313131314,545.3737373737374 259.3131313131314,535.838383838384 259.3131313131314,526.3030303030304 259.3131313131314,516.7676767676768 259.3131313131314,507.23232323232327 259.3131313131314,497.69696969696975 259.3131313131314,488.1616161616163 259.3131313131314,478.6262626262627 259.3131313131314,469.0909090909092 259.3131313131314,459.5555555555556 259.3131313131314,450.0202020202021 259.3131313131314,440.4848484848486 259.3131313131314,430.94949494949503 259.3131313131314,421.4141414141415 259.3131313131314,411.87878787878793 259.3131313131314,402.3434343434344 259.3131313131314,392.80808080808094 259.3131313131314,383.27272727272737 259.3131313131314,373.73737373737384 259.3131313131314,364.2020202020203 259.3131313131314,354.66666666666674 259.3131313131314,345.1313131313133 259.3131313131314,335.5959595959597 259.3131313131314,326.06060606060623 259.3131313131314,316.5252525252526 259.3131313131314,306.9898989898991 259.3131313131314,297.4545454545456 259.3131313131314,287.91919191919203 259.3131313131314,278.38383838383857 259.3131313131314,268.84848484848493 259.3131313131314,259.3131313131314 259.3131313131314,249.77777777777794 259.3131313131314,240.24242424242436 259.3131313131314,230.70707070707084 259.3131313131314,221.17171717171726 259.3131313131314,211.63636363636374 259.3131313131314,202.10101010101027 259.3131313131314,192.56565656565675 259.3131313131314,183.03030303030312 259.3131313131314,173.4949494949496 259.3131313131314,163.95959595959613 259.3131313131314,154.4242424242426 259.3131313131314,144.88888888888908 259.3131313131314,135.35353535353545" fill="none" stroke="rgba(255,0,0,0.75)" stroke-width="14.159999999999995"/></g><g><polyline data-points="-2.6767676767676765,3.989898989898992 -2.6767676767676765,4.090909090909092 -2.6767676767676765,4.191919191919193 -2.6767676767676765,4.292929292929293 -2.6767676767676765,4.393939393939394 -2.6767676767676765,4.494949494949497 -2.6767676767676765,4.595959595959597 -2.6767676767676765,4.696969696969697 -2.6767676767676765,4.7979797979797985 -2.6767676767676765,4.898989898989901 -2.6767676767676765,5.000000000000002" data-type="line" data-label="" points="259.3131313131314,135.35353535353545 259.3131313131314,125.81818181818198 259.3131313131314,116.28282828282846 259.3131313131314,106.747474747475 259.3131313131314,97.21212121212153 259.3131313131314,87.67676767676778 259.3131313131314,78.14141414141432 259.3131313131314,68.60606060606085 259.3131313131314,59.07070707070733 259.3131313131314,49.53535353535369 259.3131313131314,40.000000000000114" fill="none" stroke="rgba(0,0,255,0.75)" stroke-width="14.159999999999995"/></g><g><polyline data-points="-5.000000000000001,1.3636363636363644 -5.000000000000001,1.262626262626263 -5.000000000000001,1.1616161616161622 -5.000000000000001,1.0606060606060617 -5.000000000000001,0.9595959595959602 -5.000000000000001,0.8585858585858596 -5.000000000000001,0.7575757575757579 -5.000000000000001,0.6565656565656574 -5.000000000000001,0.5555555555555567 -5.000000000000001,0.4545454545454551 -5.000000000000001,0.3535353535353544 -5.000000000000001,0.2525252525252529 -5.000000000000001,0.1515151515151522 -5.000000000000001,0.050505050505051545 -5.000000000000001,-0.05050505050505001 -5.000000000000001,-0.15151515151515066 -5.000000000000001,-0.2525252525252522 -5.000000000000001,-0.35353535353535287 -5.000000000000001,-0.4545454545454544 -5.000000000000001,-0.555555555555555 -5.000000000000001,-0.6565656565656557 -5.000000000000001,-0.7575757575757572 -5.000000000000001,-0.8585858585858579 -5.000000000000001,-0.9595959595959596 -5.000000000000001,-1.0606060606060603 -5.000000000000001,-1.1616161616161613 -5.000000000000001,-1.2626262626262625 -5.000000000000001,-1.363636363636363 -5.000000000000001,-1.4646464646464643 -5.000000000000001,-1.5656565656565653 -5.000000000000001,-1.6666666666666665 -5.000000000000001,-1.7676767676767675 -5.000000000000001,-1.8686868686868683 -5.000000000000001,-1.9696969696969693 -5.000000000000001,-2.07070707070707 -5.000000000000001,-2.1717171717171713 -5.000000000000001,-2.2727272727272725 -5.000000000000001,-2.3737373737373733 -5.000000000000001,-2.474747474747474 -5.000000000000001,-2.5757575757575752 -5.000000000000001,-2.6767676767676765 -5.000000000000001,-2.7777777777777777 -5.000000000000001,-2.8787878787878785 -5.000000000000001,-2.9797979797979792 -5.000000000000001,-3.0808080808080804 -5.000000000000001,-3.1818181818181817 -5.000000000000001,-3.2828282828282824 -5.000000000000001,-3.383838383838383 -5.000000000000001,-3.484848484848485 -5.000000000000001,-3.5858585858585856 -5.000000000000001,-3.6868686868686864 -5.000000000000001,-3.7878787878787876 -5.000000000000001,-3.8888888888888884 -5.000000000000001,-3.98989898989899 -5.000000000000001,-4.090909090909091 -5.000000000000001,-4.191919191919193" data-type="line" data-label="" points="40.00000000000006,383.27272727272737 40.00000000000006,392.80808080808094 40.00000000000006,402.3434343434344 40.00000000000006,411.87878787878793 40.00000000000006,421.4141414141415 40.00000000000006,430.94949494949503 40.00000000000006,440.4848484848486 40.00000000000006,450.0202020202021 40.00000000000006,459.5555555555556 40.00000000000006,469.0909090909092 40.00000000000006,478.6262626262627 40.00000000000006,488.1616161616163 40.00000000000006,497.69696969696975 40.00000000000006,507.23232323232327 40.00000000000006,516.7676767676768 40.00000000000006,526.3030303030304 40.00000000000006,535.838383838384 40.00000000000006,545.3737373737374 40.00000000000006,554.909090909091 40.00000000000006,564.4444444444445 40.00000000000006,573.979797979798 40.00000000000006,583.5151515151516 40.00000000000006,593.0505050505051 40.00000000000006,602.5858585858587 40.00000000000006,612.1212121212121 40.00000000000006,621.6565656565657 40.00000000000006,631.1919191919193 40.00000000000006,640.7272727272727 40.00000000000006,650.2626262626263 40.00000000000006,659.7979797979798 40.00000000000006,669.3333333333334 40.00000000000006,678.8686868686868 40.00000000000006,688.4040404040404 40.00000000000006,697.939393939394 40.00000000000006,707.4747474747475 40.00000000000006,717.010101010101 40.00000000000006,726.5454545454545 40.00000000000006,736.0808080808081 40.00000000000006,745.6161616161615 40.00000000000006,755.1515151515151 40.00000000000006,764.6868686868687 40.00000000000006,774.2222222222222 40.00000000000006,783.7575757575758 40.00000000000006,793.2929292929292 40.00000000000006,802.8282828282828 40.00000000000006,812.3636363636363 40.00000000000006,821.8989898989898 40.00000000000006,831.4343434343434 40.00000000000006,840.969696969697 40.00000000000006,850.5050505050505 40.00000000000006,860.0404040404039 40.00000000000006,869.5757575757575 40.00000000000006,879.1111111111111 40.00000000000006,888.6464646464647 40.00000000000006,898.1818181818181 40.00000000000006,907.7171717171718" fill="none" stroke="rgba(255,0,0,0.75)" stroke-width="14.159999999999995"/></g><g><polyline data-points="4.191919191919193,-5.000000000000001 4.090909090909092,-4.898989898989899 3.989898989898992,-4.7979797979797985 3.8888888888888893,-4.696969696969697 3.7878787878787885,-4.595959595959596 3.6868686868686877,-4.494949494949496 3.5858585858585874,-4.393939393939394 3.4848484848484866,-4.292929292929293 3.383838383838384,-4.191919191919193 3.2828282828282833,-4.090909090909091 3.181818181818183,-3.98989898989899 3.080808080808082,-3.8888888888888884 2.9797979797979806,-3.7878787878787876 2.87878787878788,-3.6868686868686864 2.7777777777777786,-3.5858585858585856 2.676767676767678,-3.484848484848485 2.575757575757577,-3.383838383838383 2.4747474747474754,-3.2828282828282824 2.373737373737375,-3.1818181818181817 2.2727272727272734,-3.0808080808080804 2.1717171717171726,-2.9797979797979792 2.070707070707072,-2.8787878787878785 2.070707070707072,-2.7777777777777777 2.070707070707072,-2.6767676767676765 2.070707070707072,-2.5757575757575752 2.070707070707072,-2.474747474747474 2.070707070707072,-2.3737373737373733 2.070707070707072,-2.2727272727272725 2.070707070707072,-2.1717171717171713 2.070707070707072,-2.07070707070707 2.070707070707072,-1.9696969696969693 2.070707070707072,-1.8686868686868683 2.070707070707072,-1.7676767676767675 2.070707070707072,-1.6666666666666665 2.070707070707072,-1.5656565656565653 2.070707070707072,-1.4646464646464643 2.070707070707072,-1.363636363636363 2.070707070707072,-1.2626262626262625 2.070707070707072,-1.1616161616161613 2.070707070707072,-1.0606060606060603 2.070707070707072,-0.9595959595959596 2.070707070707072,-0.8585858585858579 2.070707070707072,-0.7575757575757572 2.070707070707072,-0.6565656565656557 2.070707070707072,-0.555555555555555 2.070707070707072,-0.4545454545454544 2.070707070707072,-0.35353535353535287 2.070707070707072,-0.2525252525252522 2.070707070707072,-0.15151515151515066 2.070707070707072,-0.05050505050505001 2.070707070707072,0.050505050505051545 2.070707070707072,0.1515151515151522 2.070707070707072,0.2525252525252529 2.070707070707072,0.3535353535353544 2.070707070707072,0.4545454545454551 2.070707070707072,0.5555555555555567 2.070707070707072,0.6565656565656574 2.070707070707072,0.7575757575757579 2.070707070707072,0.8585858585858596 2.070707070707072,0.9595959595959602 2.070707070707072,1.0606060606060617 2.070707070707072,1.1616161616161622 2.070707070707072,1.262626262626263 2.070707070707072,1.3636363636363644 2.070707070707072,1.4646464646464652 2.070707070707072,1.5656565656565666 2.070707070707072,1.6666666666666674 2.070707070707072,1.767676767676768 2.070707070707072,1.8686868686868696 2.070707070707072,1.9696969696969702 2.070707070707072,2.070707070707072 2.070707070707072,2.1717171717171726 2.070707070707072,2.2727272727272734 2.070707070707072,2.373737373737375 2.070707070707072,2.4747474747474754 2.070707070707072,2.575757575757577 2.070707070707072,2.676767676767678 2.070707070707072,2.7777777777777786 2.070707070707072,2.87878787878788 2.070707070707072,2.9797979797979806 2.070707070707072,3.080808080808082 2.070707070707072,3.181818181818183 2.070707070707072,3.2828282828282833 2.070707070707072,3.383838383838384 2.070707070707072,3.4848484848484866 2.070707070707072,3.5858585858585874 2.070707070707072,3.6868686868686877 2.070707070707072,3.7878787878787885 2.070707070707072,3.8888888888888893 2.070707070707072,3.989898989898992 2.070707070707072,4.090909090909092 2.070707070707072,4.191919191919193 2.070707070707072,4.292929292929293 2.070707070707072,4.393939393939394 2.070707070707072,4.494949494949497 2.070707070707072,4.595959595959597 2.070707070707072,4.696969696969697 2.070707070707072,4.7979797979797985 2.070707070707072,4.898989898989901 2.070707070707072,5.000000000000002" data-type="line" data-label="" points="907.7171717171716,984 898.181818181818,974.4646464646464 888.6464646464647,964.9292929292928 879.111111111111,955.3939393939394 869.5757575757575,945.8585858585858 860.0404040404039,936.3232323232323 850.5050505050505,926.7878787878788 840.969696969697,917.2525252525252 831.4343434343433,907.7171717171718 821.8989898989898,898.1818181818181 812.3636363636363,888.6464646464647 802.8282828282828,879.1111111111111 793.2929292929292,869.5757575757575 783.7575757575758,860.0404040404039 774.2222222222222,850.5050505050505 764.6868686868686,840.969696969697 755.1515151515151,831.4343434343434 745.6161616161615,821.8989898989898 736.0808080808081,812.3636363636363 726.5454545454545,802.8282828282828 717.0101010101009,793.2929292929292 707.4747474747475,783.7575757575758 707.4747474747475,774.2222222222222 707.4747474747475,764.6868686868687 707.4747474747475,755.1515151515151 707.4747474747475,745.6161616161615 707.4747474747475,736.0808080808081 707.4747474747475,726.5454545454545 707.4747474747475,717.010101010101 707.4747474747475,707.4747474747475 707.4747474747475,697.939393939394 707.4747474747475,688.4040404040404 707.4747474747475,678.8686868686868 707.4747474747475,669.3333333333334 707.4747474747475,659.7979797979798 707.4747474747475,650.2626262626263 707.4747474747475,640.7272727272727 707.4747474747475,631.1919191919193 707.4747474747475,621.6565656565657 707.4747474747475,612.1212121212121 707.4747474747475,602.5858585858587 707.4747474747475,593.0505050505051 707.4747474747475,583.5151515151516 707.4747474747475,573.979797979798 707.4747474747475,564.4444444444445 707.4747474747475,554.909090909091 707.4747474747475,545.3737373737374 707.4747474747475,535.838383838384 707.4747474747475,526.3030303030304 707.4747474747475,516.7676767676768 707.4747474747475,507.23232323232327 707.4747474747475,497.69696969696975 707.4747474747475,488.1616161616163 707.4747474747475,478.6262626262627 707.4747474747475,469.0909090909092 707.4747474747475,459.5555555555556 707.4747474747475,450.0202020202021 707.4747474747475,440.4848484848486 707.4747474747475,430.94949494949503 707.4747474747475,421.4141414141415 707.4747474747475,411.87878787878793 707.4747474747475,402.3434343434344 707.4747474747475,392.80808080808094 707.4747474747475,383.27272727272737 707.4747474747475,373.73737373737384 707.4747474747475,364.2020202020203 707.4747474747475,354.66666666666674 707.4747474747475,345.1313131313133 707.4747474747475,335.5959595959597 707.4747474747475,326.06060606060623 707.4747474747475,316.5252525252526 707.4747474747475,306.9898989898991 707.4747474747475,297.4545454545456 707.4747474747475,287.91919191919203 707.4747474747475,278.38383838383857 707.4747474747475,268.84848484848493 707.4747474747475,259.3131313131314 707.4747474747475,249.77777777777794 707.4747474747475,240.24242424242436 707.4747474747475,230.70707070707084 707.4747474747475,221.17171717171726 707.4747474747475,211.63636363636374 707.4747474747475,202.10101010101027 707.4747474747475,192.56565656565675 707.4747474747475,183.03030303030312 707.4747474747475,173.4949494949496 707.4747474747475,163.95959595959613 707.4747474747475,154.4242424242426 707.4747474747475,144.88888888888908 707.4747474747475,135.35353535353545 707.4747474747475,125.81818181818198 707.4747474747475,116.28282828282846 707.4747474747475,106.747474747475 707.4747474747475,97.21212121212153 707.4747474747475,87.67676767676778 707.4747474747475,78.14141414141432 707.4747474747475,68.60606060606085 707.4747474747475,59.07070707070733 707.4747474747475,49.53535353535369 707.4747474747475,40.000000000000114" fill="none" stroke="rgba(0,0,255,0.75)" stroke-width="14.159999999999995"/></g><g><polyline data-points="-3.5858585858585856,-5.000000000000001 -3.6868686868686864,-4.898989898989899 -3.7878787878787876,-4.7979797979797985 -3.8888888888888884,-4.696969696969697 -3.98989898989899,-4.595959595959596 -3.98989898989899,-4.494949494949496 -3.98989898989899,-4.393939393939394 -3.98989898989899,-4.292929292929293 -3.98989898989899,-4.191919191919193 -3.98989898989899,-4.090909090909091 -3.98989898989899,-3.98989898989899 -3.98989898989899,-3.8888888888888884 -3.98989898989899,-3.7878787878787876 -3.98989898989899,-3.6868686868686864 -3.98989898989899,-3.5858585858585856 -3.98989898989899,-3.484848484848485 -3.98989898989899,-3.383838383838383 -3.98989898989899,-3.2828282828282824 -3.98989898989899,-3.1818181818181817 -3.98989898989899,-3.0808080808080804 -3.98989898989899,-2.9797979797979792 -3.98989898989899,-2.8787878787878785 -3.98989898989899,-2.7777777777777777 -3.98989898989899,-2.6767676767676765 -3.98989898989899,-2.5757575757575752 -3.98989898989899,-2.474747474747474 -3.98989898989899,-2.3737373737373733 -3.98989898989899,-2.2727272727272725 -3.98989898989899,-2.1717171717171713 -3.98989898989899,-2.07070707070707 -3.98989898989899,-1.9696969696969693 -3.98989898989899,-1.8686868686868683 -3.98989898989899,-1.7676767676767675 -3.98989898989899,-1.6666666666666665 -3.98989898989899,-1.5656565656565653 -3.98989898989899,-1.4646464646464643 -3.98989898989899,-1.363636363636363 -3.98989898989899,-1.2626262626262625 -3.98989898989899,-1.1616161616161613 -3.98989898989899,-1.0606060606060603 -3.98989898989899,-0.9595959595959596 -3.98989898989899,-0.8585858585858579 -3.98989898989899,-0.7575757575757572 -3.98989898989899,-0.6565656565656557 -3.98989898989899,-0.555555555555555 -3.98989898989899,-0.4545454545454544 -3.98989898989899,-0.35353535353535287 -3.98989898989899,-0.2525252525252522 -3.98989898989899,-0.15151515151515066 -3.98989898989899,-0.05050505050505001 -3.98989898989899,0.050505050505051545 -3.98989898989899,0.1515151515151522 -3.98989898989899,0.2525252525252529 -3.98989898989899,0.3535353535353544 -3.98989898989899,0.4545454545454551 -3.98989898989899,0.5555555555555567 -3.98989898989899,0.6565656565656574 -3.98989898989899,0.7575757575757579 -3.98989898989899,0.8585858585858596 -3.98989898989899,0.9595959595959602 -3.98989898989899,1.0606060606060617 -3.98989898989899,1.1616161616161622 -3.98989898989899,1.262626262626263 -3.98989898989899,1.3636363636363644 -3.98989898989899,1.4646464646464652 -3.98989898989899,1.5656565656565666 -3.98989898989899,1.6666666666666674 -3.98989898989899,1.767676767676768 -3.98989898989899,1.8686868686868696 -3.98989898989899,1.9696969696969702 -3.98989898989899,2.070707070707072 -3.98989898989899,2.1717171717171726 -3.98989898989899,2.2727272727272734 -3.98989898989899,2.373737373737375 -3.98989898989899,2.4747474747474754 -3.98989898989899,2.575757575757577 -3.98989898989899,2.676767676767678 -3.98989898989899,2.7777777777777786 -3.98989898989899,2.87878787878788 -3.98989898989899,2.9797979797979806 -3.98989898989899,3.080808080808082 -3.98989898989899,3.181818181818183 -3.98989898989899,3.2828282828282833 -3.98989898989899,3.383838383838384 -3.98989898989899,3.4848484848484866 -3.98989898989899,3.5858585858585874 -3.98989898989899,3.6868686868686877 -3.98989898989899,3.7878787878787885 -3.98989898989899,3.8888888888888893 -3.98989898989899,3.989898989898992 -3.98989898989899,4.090909090909092 -3.98989898989899,4.191919191919193 -3.98989898989899,4.292929292929293 -3.98989898989899,4.393939393939394 -3.98989898989899,4.494949494949497 -3.98989898989899,4.595959595959597 -3.98989898989899,4.696969696969697 -3.98989898989899,4.7979797979797985 -3.98989898989899,4.898989898989901 -3.98989898989899,5.000000000000002" data-type="line" data-label="" points="173.4949494949496,984 163.95959595959607,974.4646464646464 154.42424242424255,964.9292929292928 144.88888888888903,955.3939393939394 135.35353535353545,945.8585858585858 135.35353535353545,936.3232323232323 135.35353535353545,926.7878787878788 135.35353535353545,917.2525252525252 135.35353535353545,907.7171717171718 135.35353535353545,898.1818181818181 135.35353535353545,888.6464646464647 135.35353535353545,879.1111111111111 135.35353535353545,869.5757575757575 135.35353535353545,860.0404040404039 135.35353535353545,850.5050505050505 135.35353535353545,840.969696969697 135.35353535353545,831.4343434343434 135.35353535353545,821.8989898989898 135.35353535353545,812.3636363636363 135.35353535353545,802.8282828282828 135.35353535353545,793.2929292929292 135.35353535353545,783.7575757575758 135.35353535353545,774.2222222222222 135.35353535353545,764.6868686868687 135.35353535353545,755.1515151515151 135.35353535353545,745.6161616161615 135.35353535353545,736.0808080808081 135.35353535353545,726.5454545454545 135.35353535353545,717.010101010101 135.35353535353545,707.4747474747475 135.35353535353545,697.939393939394 135.35353535353545,688.4040404040404 135.35353535353545,678.8686868686868 135.35353535353545,669.3333333333334 135.35353535353545,659.7979797979798 135.35353535353545,650.2626262626263 135.35353535353545,640.7272727272727 135.35353535353545,631.1919191919193 135.35353535353545,621.6565656565657 135.35353535353545,612.1212121212121 135.35353535353545,602.5858585858587 135.35353535353545,593.0505050505051 135.35353535353545,583.5151515151516 135.35353535353545,573.979797979798 135.35353535353545,564.4444444444445 135.35353535353545,554.909090909091 135.35353535353545,545.3737373737374 135.35353535353545,535.838383838384 135.35353535353545,526.3030303030304 135.35353535353545,516.7676767676768 135.35353535353545,507.23232323232327 135.35353535353545,497.69696969696975 135.35353535353545,488.1616161616163 135.35353535353545,478.6262626262627 135.35353535353545,469.0909090909092 135.35353535353545,459.5555555555556 135.35353535353545,450.0202020202021 135.35353535353545,440.4848484848486 135.35353535353545,430.94949494949503 135.35353535353545,421.4141414141415 135.35353535353545,411.87878787878793 135.35353535353545,402.3434343434344 135.35353535353545,392.80808080808094 135.35353535353545,383.27272727272737 135.35353535353545,373.73737373737384 135.35353535353545,364.2020202020203 135.35353535353545,354.66666666666674 135.35353535353545,345.1313131313133 135.35353535353545,335.5959595959597 135.35353535353545,326.06060606060623 135.35353535353545,316.5252525252526 135.35353535353545,306.9898989898991 135.35353535353545,297.4545454545456 135.35353535353545,287.91919191919203 135.35353535353545,278.38383838383857 135.35353535353545,268.84848484848493 135.35353535353545,259.3131313131314 135.35353535353545,249.77777777777794 135.35353535353545,240.24242424242436 135.35353535353545,230.70707070707084 135.35353535353545,221.17171717171726 135.35353535353545,211.63636363636374 135.35353535353545,202.10101010101027 135.35353535353545,192.56565656565675 135.35353535353545,183.03030303030312 135.35353535353545,173.4949494949496 135.35353535353545,163.95959595959613 135.35353535353545,154.4242424242426 135.35353535353545,144.88888888888908 135.35353535353545,135.35353535353545 135.35353535353545,125.81818181818198 135.35353535353545,116.28282828282846 135.35353535353545,106.747474747475 135.35353535353545,97.21212121212153 135.35353535353545,87.67676767676778 135.35353535353545,78.14141414141432 135.35353535353545,68.60606060606085 135.35353535353545,59.07070707070733 135.35353535353545,49.53535353535369 135.35353535353545,40.000000000000114" fill="none" stroke="rgba(255,0,0,0.75)" stroke-width="14.159999999999995"/></g><g><polyline data-points="5.000000000000002,-3.98989898989899 4.898989898989901,-3.98989898989899 4.7979797979797985,-3.98989898989899 4.696969696969697,-3.98989898989899 4.595959595959597,-3.98989898989899 4.494949494949497,-3.98989898989899 4.393939393939394,-3.98989898989899 4.292929292929293,-3.98989898989899 4.191919191919193,-3.98989898989899 4.090909090909092,-3.98989898989899 3.989898989898992,-3.98989898989899" data-type="line" data-label="" points="984,888.6464646464647 974.4646464646464,888.6464646464647 964.9292929292927,888.6464646464647 955.3939393939393,888.6464646464647 945.8585858585857,888.6464646464647 936.3232323232323,888.6464646464647 926.7878787878785,888.6464646464647 917.2525252525251,888.6464646464647 907.7171717171716,888.6464646464647 898.181818181818,888.6464646464647 888.6464646464647,888.6464646464647" fill="none" stroke="rgba(0,0,255,0.75)" stroke-width="14.159999999999995"/></g><g><polyline data-points="3.989898989898992,-3.98989898989899 3.8888888888888893,-3.98989898989899 3.7878787878787885,-3.98989898989899 3.6868686868686877,-3.98989898989899 3.5858585858585874,-3.98989898989899 3.4848484848484866,-3.98989898989899 3.383838383838384,-3.98989898989899 3.2828282828282833,-3.98989898989899 3.181818181818183,-3.98989898989899 3.080808080808082,-3.98989898989899 2.9797979797979806,-3.98989898989899 2.87878787878788,-3.98989898989899 2.7777777777777786,-3.98989898989899 2.676767676767678,-3.98989898989899 2.575757575757577,-3.98989898989899 2.4747474747474754,-3.98989898989899 2.373737373737375,-3.98989898989899 2.2727272727272734,-3.98989898989899 2.1717171717171726,-3.98989898989899 2.070707070707072,-3.98989898989899 1.9696969696969702,-3.98989898989899 1.8686868686868696,-3.98989898989899 1.767676767676768,-3.98989898989899 1.6666666666666674,-3.98989898989899 1.5656565656565666,-3.98989898989899 1.4646464646464652,-3.98989898989899 1.3636363636363644,-3.98989898989899 1.262626262626263,-3.98989898989899 1.1616161616161622,-3.98989898989899 1.0606060606060617,-3.98989898989899 0.9595959595959602,-3.98989898989899 0.8585858585858596,-3.98989898989899 0.7575757575757579,-3.98989898989899 0.6565656565656574,-3.98989898989899 0.5555555555555567,-3.98989898989899 0.4545454545454551,-4.090909090909091 0.3535353535353544,-4.090909090909091 0.2525252525252529,-4.191919191919193 0.1515151515151522,-4.090909090909091 0.050505050505051545,-4.090909090909091 -0.05050505050505001,-3.98989898989899 -0.15151515151515066,-3.8888888888888884 -0.2525252525252522,-3.7878787878787876 -0.35353535353535287,-3.6868686868686864 -0.4545454545454544,-3.5858585858585856 -0.555555555555555,-3.5858585858585856 -0.6565656565656557,-3.5858585858585856 -0.7575757575757572,-3.5858585858585856 -0.8585858585858579,-3.5858585858585856 -0.9595959595959596,-3.5858585858585856 -1.0606060606060603,-3.5858585858585856 -1.1616161616161613,-3.5858585858585856 -1.2626262626262625,-3.5858585858585856 -1.363636363636363,-3.5858585858585856 -1.4646464646464643,-3.5858585858585856 -1.5656565656565653,-3.5858585858585856 -1.6666666666666665,-3.5858585858585856 -1.7676767676767675,-3.5858585858585856 -1.8686868686868683,-3.5858585858585856 -1.9696969696969693,-3.5858585858585856 -2.07070707070707,-3.5858585858585856 -2.1717171717171713,-3.5858585858585856 -2.2727272727272725,-3.5858585858585856 -2.3737373737373733,-3.5858585858585856 -2.474747474747474,-3.5858585858585856 -2.5757575757575752,-3.5858585858585856 -2.6767676767676765,-3.5858585858585856 -2.7777777777777777,-3.5858585858585856 -2.8787878787878785,-3.5858585858585856 -2.9797979797979792,-3.5858585858585856 -3.0808080808080804,-3.5858585858585856 -3.1818181818181817,-3.5858585858585856 -3.2828282828282824,-3.5858585858585856 -3.383838383838383,-3.5858585858585856" data-type="line" data-label="" points="888.6464646464647,888.6464646464647 879.111111111111,888.6464646464647 869.5757575757575,888.6464646464647 860.0404040404039,888.6464646464647 850.5050505050505,888.6464646464647 840.969696969697,888.6464646464647 831.4343434343433,888.6464646464647 821.8989898989898,888.6464646464647 812.3636363636363,888.6464646464647 802.8282828282828,888.6464646464647 793.2929292929292,888.6464646464647 783.7575757575758,888.6464646464647 774.2222222222222,888.6464646464647 764.6868686868686,888.6464646464647 755.1515151515151,888.6464646464647 745.6161616161615,888.6464646464647 736.0808080808081,888.6464646464647 726.5454545454545,888.6464646464647 717.0101010101009,888.6464646464647 707.4747474747475,888.6464646464647 697.9393939393939,888.6464646464647 688.4040404040404,888.6464646464647 678.8686868686868,888.6464646464647 669.3333333333333,888.6464646464647 659.7979797979798,888.6464646464647 650.2626262626262,888.6464646464647 640.7272727272727,888.6464646464647 631.1919191919192,888.6464646464647 621.6565656565656,888.6464646464647 612.1212121212121,888.6464646464647 602.5858585858585,888.6464646464647 593.0505050505051,888.6464646464647 583.5151515151515,888.6464646464647 573.9797979797979,888.6464646464647 564.4444444444445,888.6464646464647 554.9090909090909,898.1818181818181 545.3737373737374,898.1818181818181 535.8383838383838,907.7171717171718 526.3030303030303,898.1818181818181 516.7676767676768,898.1818181818181 507.2323232323232,888.6464646464647 497.69696969696975,879.1111111111111 488.16161616161617,869.5757575757575 478.62626262626264,860.0404040404039 469.09090909090907,850.5050505050505 459.55555555555554,850.5050505050505 450.0202020202021,850.5050505050505 440.4848484848485,850.5050505050505 430.949494949495,850.5050505050505 421.4141414141414,850.5050505050505 411.8787878787879,850.5050505050505 402.34343434343435,850.5050505050505 392.80808080808083,850.5050505050505 383.2727272727273,850.5050505050505 373.7373737373738,850.5050505050505 364.2020202020202,850.5050505050505 354.6666666666667,850.5050505050505 345.13131313131316,850.5050505050505 335.59595959595964,850.5050505050505 326.0606060606061,850.5050505050505 316.5252525252526,850.5050505050505 306.9898989898991,850.5050505050505 297.4545454545455,850.5050505050505 287.91919191919203,850.5050505050505 278.38383838383845,850.5050505050505 268.84848484848493,850.5050505050505 259.3131313131314,850.5050505050505 249.77777777777783,850.5050505050505 240.2424242424243,850.5050505050505 230.70707070707084,850.5050505050505 221.17171717171726,850.5050505050505 211.63636363636374,850.5050505050505 202.10101010101022,850.5050505050505 192.5656565656567,850.5050505050505" fill="none" stroke="rgba(255,0,0,0.75)" stroke-width="14.159999999999995"/></g><g><polyline data-points="-3.383838383838383,-3.5858585858585856 -3.484848484848485,-3.5858585858585856 -3.5858585858585856,-3.5858585858585856 -3.6868686868686864,-3.5858585858585856 -3.7878787878787876,-3.5858585858585856 -3.8888888888888884,-3.5858585858585856 -3.98989898989899,-3.5858585858585856 -4.090909090909091,-3.5858585858585856 -4.191919191919193,-3.5858585858585856 -4.292929292929293,-3.5858585858585856 -4.393939393939394,-3.5858585858585856 -4.494949494949496,-3.5858585858585856 -4.595959595959596,-3.5858585858585856 -4.696969696969697,-3.5858585858585856 -4.7979797979797985,-3.5858585858585856 -4.898989898989899,-3.5858585858585856 -5.000000000000001,-3.484848484848485" data-type="line" data-label="" points="192.5656565656567,850.5050505050505 183.03030303030312,850.5050505050505 173.4949494949496,850.5050505050505 163.95959595959607,850.5050505050505 154.42424242424255,850.5050505050505 144.88888888888903,850.5050505050505 135.35353535353545,850.5050505050505 125.81818181818193,850.5050505050505 116.28282828282829,850.5050505050505 106.74747474747483,850.5050505050505 97.21212121212136,850.5050505050505 87.67676767676772,850.5050505050505 78.14141414141426,850.5050505050505 68.60606060606068,850.5050505050505 59.07070707070716,850.5050505050505 49.53535353535369,850.5050505050505 40.00000000000006,840.969696969697" fill="none" stroke="rgba(0,0,255,0.75)" stroke-width="14.159999999999995"/></g><g><rect data-type="rect" data-label="" data-x="0" data-y="0" x="40.000000000000114" y="40.000000000000284" width="943.9999999999997" height="943.9999999999998" fill="none" stroke="gray" stroke-width="0.010593220338983056"/></g><g><rect data-type="rect" data-label="" data-x="0" data-y="0" x="40.000000000000114" y="40.000000000000284" width="943.9999999999997" height="943.9999999999998" fill="none" stroke="rgba(15, 23, 42, 0.8)" stroke-width="0.010593220338983056"/></g><circle data-type="circle" data-label="" data-x="0.2525252525252529" data-y="-3.6868686868686864" cx="535.8383838383838" cy="860.0404040404039" r="28.791999999999987" fill="rgba(0,0,0,0.3)" stroke="black" stroke-width="0.010593220338983056"/><circle data-type="circle" data-label="" data-x="-2.6767676767676765" data-y="3.989898989898992" cx="259.3131313131314" cy="135.35353535353545" r="28.791999999999987" fill="rgba(0,0,0,0.3)" stroke="black" stroke-width="0.010593220338983056"/><circle data-type="circle" data-label="" data-x="3.989898989898992" data-y="-3.98989898989899" cx="888.6464646464647" cy="888.6464646464647" r="28.791999999999987" fill="rgba(0,0,0,0.3)" stroke="black" stroke-width="0.010593220338983056"/><circle data-type="circle" data-label="" data-x="-3.383838383838383" data-y="-3.5858585858585856" cx="192.5656565656567" cy="850.5050505050505" r="28.791999999999987" fill="rgba(0,0,0,0.3)" stroke="black" stroke-width="0.010593220338983056"/><g id="crosshair" style="display: none"><line id="crosshair-h" y1="0" y2="1024" stroke="#666" stroke-width="0.5"/><line id="crosshair-v" x1="0" x2="1024" stroke="#666" stroke-width="0.5"/><text id="coordinates" font-family="monospace" font-size="12" fill="#666"></text></g><script><![CDATA[
              document.currentScript.parentElement.addEventListener('mousemove', (e) => {
                const svg = e.currentTarget;
                const rect = svg.getBoundingClientRect();
                const x = e.clientX - rect.left;
                const y = e.clientY - rect.top;
                const crosshair = svg.getElementById('crosshair');
                const h = svg.getElementById('crosshair-h');
                const v = svg.getElementById('crosshair-v');
                const coords = svg.getElementById('coordinates');
                
                crosshair.style.display = 'block';
                h.setAttribute('x1', '0');
                h.setAttribute('x2', '1024');
                h.setAttribute('y1', y);
                h.setAttribute('y2', y);
                v.setAttribute('x1', x);
                v.setAttribute('x2', x);
                v.setAttribute('y1', '0');
                v.setAttribute('y2', '1024');

                // Calculate real coordinates using inverse transformation
                const matrix = {"a":94.39999999999996,"c":0,"e":511.99999999999994,"b":0,"d":-94.39999999999996,"f":512.0000000000001};
                // Manually invert and apply the affine transform
                // Since we only use translate and scale, we can directly compute:
                // x' = (x - tx) / sx
                // y' = (y - ty) / sy
                const sx = matrix.a;
                const sy = matrix.d;
                const tx = matrix.e; 
                const ty = matrix.f;
                const realPoint = {
                  x: (x - tx) / sx,
                  y: (y - ty) / sy // Flip y back since we used negative scale
                }
                
                coords.textContent = `(${realPoint.x.toFixed(2)}, ${realPoint.y.toFixed(2)})`;
                coords.setAttribute('x', (x + 5).toString());
                coords.setAttribute('y', (y - 5).toString());
              });
              document.currentScript.parentElement.addEventListener('mouseleave', () => {
                document.currentScript.parentElement.getElementById('crosshair').style.display = 'none';
              });
            ]]></script></svg>