<svg width="1024" height="1024" viewBox="0 0 1024 1024" xmlns="http://www.w3.org/2000/svg"><rect width="100%" height="100%" fill="white"/><g><circle data-type="point" data-label="conn_000" data-x="-0.74" data-y="-5" cx="442.144" cy="984" r="28.792" fill="red" stroke="#0fa0bd" stroke-width="28.792"/></g><g><circle data-type="point" data-label="conn_000" data-x="-5" data-y="4.94" cx="40.000000000000114" cy="45.66400000000027" r="28.792" fill="blue" stroke="#0fa0bd" stroke-width="28.792"/></g><g><circle data-type="point" data-label="conn_001" data-x="-5" data-y="3.2800000000000002" cx="40.000000000000114" cy="202.36800000000022" r="28.792" fill="red" stroke="#bd0f6d" stroke-width="28.792"/></g><g><circle data-type="point" data-label="conn_001" data-x="5" data-y="2.94" cx="983.9999999999998" cy="234.46400000000023" r="28.792" fill="red" stroke="#bd0f6d" stroke-width="28.792"/></g><g><circle data-type="point" data-label="conn_002" data-x="4.58" data-y="5" cx="944.3519999999999" cy="40.000000000000284" r="28.792" fill="red" stroke="#3bbd0f" stroke-width="28.792"/></g><g><circle data-type="point" data-label="conn_002" data-x="2.32" data-y="-5" cx="731.0079999999998" cy="984" r="28.792" fill="blue" stroke="#3bbd0f" stroke-width="28.792"/></g><g><circle data-type="point" data-label="conn_003" data-x="-5" data-y="-0.08" cx="40.000000000000114" cy="519.5520000000001" r="28.792" fill="red" stroke="#170fbd" stroke-width="28.792"/></g><g><circle data-type="point" data-label="conn_003" data-x="-5" data-y="-2.04" cx="40.000000000000114" cy="704.576" r="28.792" fill="red" stroke="#170fbd" stroke-width="28.792"/></g><g><circle data-type="point" data-label="conn_004" data-x="-5" data-y="-4.22" cx="40.000000000000114" cy="910.3679999999999" r="28.792" fill="blue" stroke="#bd490f" stroke-width="28.792"/></g><g><circle data-type="point" data-label="conn_004" data-x="0.56" data-y="5" cx="564.8639999999999" cy="40.000000000000284" r="28.792" fill="red" stroke="#bd490f" stroke-width="28.792"/></g><g><circle data-type="point" data-label="conn_005" data-x="5" data-y="3.98" cx="983.9999999999998" cy="136.28800000000024" r="28.792" fill="blue" stroke="#0fbd7c" stroke-width="28.792"/></g><g><circle data-type="point" data-label="conn_005" data-x="-2.4" data-y="-5" cx="285.44000000000005" cy="984" r="28.792" fill="red" stroke="#0fbd7c" stroke-width="28.792"/></g><g><polyline data-points="-5.000000000000001,3.2828282828282833 -4.898989898989899,3.181818181818183 -4.7979797979797985,3.080808080808082 -4.696969696969697,2.9797979797979806 -4.595959595959596,2.9797979797979806 -4.494949494949496,2.9797979797979806 -4.393939393939394,2.9797979797979806 -4.292929292929293,2.9797979797979806 -4.191919191919193,2.9797979797979806 -4.090909090909091,2.9797979797979806 -3.98989898989899,2.9797979797979806 -3.8888888888888884,2.9797979797979806 -3.7878787878787876,2.9797979797979806 -3.6868686868686864,2.9797979797979806 -3.5858585858585856,2.9797979797979806 -3.484848484848485,2.9797979797979806 -3.383838383838383,2.9797979797979806 -3.2828282828282824,2.9797979797979806 -3.1818181818181817,2.9797979797979806 -3.0808080808080804,2.9797979797979806 -2.9797979797979792,2.9797979797979806 -2.8787878787878785,2.9797979797979806 -2.7777777777777777,2.9797979797979806 -2.6767676767676765,2.9797979797979806 -2.5757575757575752,2.9797979797979806 -2.474747474747474,2.9797979797979806 -2.3737373737373733,2.9797979797979806 -2.2727272727272725,2.9797979797979806 -2.1717171717171713,2.9797979797979806 -2.07070707070707,2.9797979797979806 -1.9696969696969693,2.9797979797979806 -1.8686868686868683,2.9797979797979806 -1.7676767676767675,2.9797979797979806 -1.6666666666666665,2.9797979797979806 -1.5656565656565653,2.9797979797979806 -1.4646464646464643,2.9797979797979806 -1.363636363636363,2.9797979797979806 -1.2626262626262625,2.9797979797979806 -1.1616161616161613,2.9797979797979806 -1.0606060606060603,2.9797979797979806 -0.9595959595959596,2.9797979797979806 -0.8585858585858579,2.9797979797979806 -0.7575757575757572,2.9797979797979806 -0.6565656565656557,2.9797979797979806 -0.555555555555555,2.9797979797979806 -0.4545454545454544,2.9797979797979806 -0.35353535353535287,2.9797979797979806 -0.2525252525252522,2.9797979797979806 -0.15151515151515066,2.9797979797979806 -0.05050505050505001,2.9797979797979806 0.050505050505051545,2.9797979797979806 0.1515151515151522,2.9797979797979806 0.2525252525252529,2.9797979797979806 0.3535353535353544,2.9797979797979806 0.4545454545454551,2.9797979797979806 0.5555555555555567,2.9797979797979806 0.6565656565656574,2.9797979797979806 0.7575757575757579,2.9797979797979806 0.8585858585858596,2.9797979797979806 0.9595959595959602,2.9797979797979806 1.0606060606060617,2.9797979797979806 1.1616161616161622,2.9797979797979806 1.262626262626263,2.9797979797979806 1.3636363636363644,2.9797979797979806 1.4646464646464652,2.9797979797979806 1.5656565656565666,2.9797979797979806 1.6666666666666674,2.9797979797979806 1.767676767676768,2.9797979797979806 1.8686868686868696,2.9797979797979806 1.9696969696969702,2.9797979797979806 2.070707070707072,2.9797979797979806 2.1717171717171726,2.9797979797979806 2.2727272727272734,2.9797979797979806 2.373737373737375,2.9797979797979806 2.4747474747474754,2.9797979797979806 2.575757575757577,2.9797979797979806 2.676767676767678,2.9797979797979806 2.7777777777777786,2.9797979797979806 2.87878787878788,2.9797979797979806 2.9797979797979806,2.9797979797979806 3.080808080808082,2.9797979797979806 3.181818181818183,2.9797979797979806 3.2828282828282833,2.9797979797979806 3.383838383838384,2.9797979797979806 3.4848484848484866,2.9797979797979806 3.5858585858585874,2.9797979797979806 3.6868686868686877,2.9797979797979806 3.7878787878787885,2.9797979797979806 3.8888888888888893,2.9797979797979806 3.989898989898992,2.9797979797979806 4.090909090909092,2.9797979797979806 4.191919191919193,2.9797979797979806 4.292929292929293,2.9797979797979806 4.393939393939394,2.9797979797979806 4.494949494949497,2.9797979797979806 4.595959595959597,2.9797979797979806 4.696969696969697,2.9797979797979806 4.7979797979797985,2.9797979797979806 4.898989898989901,2.9797979797979806 5.000000000000002,2.9797979797979806" data-type="line" data-label="" points="40.00000000000006,202.10101010101027 49.53535353535369,211.63636363636374 59.07070707070716,221.17171717171726 68.60606060606068,230.70707070707084 78.14141414141426,230.70707070707084 87.67676767676772,230.70707070707084 97.21212121212136,230.70707070707084 106.74747474747483,230.70707070707084 116.28282828282829,230.70707070707084 125.81818181818193,230.70707070707084 135.35353535353545,230.70707070707084 144.88888888888903,230.70707070707084 154.42424242424255,230.70707070707084 163.95959595959607,230.70707070707084 173.4949494949496,230.70707070707084 183.03030303030312,230.70707070707084 192.5656565656567,230.70707070707084 202.10101010101022,230.70707070707084 211.63636363636374,230.70707070707084 221.17171717171726,230.70707070707084 230.70707070707084,230.70707070707084 240.2424242424243,230.70707070707084 249.77777777777783,230.70707070707084 259.3131313131314,230.70707070707084 268.84848484848493,230.70707070707084 278.38383838383845,230.70707070707084 287.91919191919203,230.70707070707084 297.4545454545455,230.70707070707084 306.9898989898991,230.70707070707084 316.5252525252526,230.70707070707084 326.0606060606061,230.70707070707084 335.59595959595964,230.70707070707084 345.13131313131316,230.70707070707084 354.6666666666667,230.70707070707084 364.2020202020202,230.70707070707084 373.7373737373738,230.70707070707084 383.2727272727273,230.70707070707084 392.80808080808083,230.70707070707084 402.34343434343435,230.70707070707084 411.8787878787879,230.70707070707084 421.4141414141414,230.70707070707084 430.949494949495,230.70707070707084 440.4848484848485,230.70707070707084 450.0202020202021,230.70707070707084 459.55555555555554,230.70707070707084 469.09090909090907,230.70707070707084 478.62626262626264,230.70707070707084 488.16161616161617,230.70707070707084 497.69696969696975,230.70707070707084 507.2323232323232,230.70707070707084 516.7676767676768,230.70707070707084 526.3030303030303,230.70707070707084 535.8383838383838,230.70707070707084 545.3737373737374,230.70707070707084 554.9090909090909,230.70707070707084 564.4444444444445,230.70707070707084 573.9797979797979,230.70707070707084 583.5151515151515,230.70707070707084 593.0505050505051,230.70707070707084 602.5858585858585,230.70707070707084 612.1212121212121,230.70707070707084 621.6565656565656,230.70707070707084 631.1919191919192,230.70707070707084 640.7272727272727,230.70707070707084 650.2626262626262,230.70707070707084 659.7979797979798,230.70707070707084 669.3333333333333,230.70707070707084 678.8686868686868,230.70707070707084 688.4040404040404,230.70707070707084 697.9393939393939,230.70707070707084 707.4747474747475,230.70707070707084 717.0101010101009,230.70707070707084 726.5454545454545,230.70707070707084 736.0808080808081,230.70707070707084 745.6161616161615,230.70707070707084 755.1515151515151,230.70707070707084 764.6868686868686,230.70707070707084 774.2222222222222,230.70707070707084 783.7575757575758,230.70707070707084 793.2929292929292,230.70707070707084 802.8282828282828,230.70707070707084 812.3636363636363,230.70707070707084 821.8989898989898,230.70707070707084 831.4343434343433,230.70707070707084 840.969696969697,230.70707070707084 850.5050505050505,230.70707070707084 860.0404040404039,230.70707070707084 869.5757575757575,230.70707070707084 879.111111111111,230.70707070707084 888.6464646464647,230.70707070707084 898.181818181818,230.70707070707084 907.7171717171716,230.70707070707084 917.2525252525251,230.70707070707084 926.7878787878785,230.70707070707084 936.3232323232323,230.70707070707084 945.8585858585857,230.70707070707084 955.3939393939393,230.70707070707084 964.9292929292927,230.70707070707084 974.4646464646464,230.70707070707084 984,230.70707070707084" fill="none" stroke="rgba(255,0,0,0.75)" stroke-width="14.159999999999995"/></g><g><polyline data-points="-0.7575757575757572,-5.000000000000001 -0.8585858585858579,-4.898989898989899 -0.9595959595959596,-4.7979797979797985 -1.0606060606060603,-4.696969696969697 -1.1616161616161613,-4.595959595959596 -1.2626262626262625,-4.494949494949496 -1.363636363636363,-4.393939393939394 -1.4646464646464643,-4.292929292929293 -1.5656565656565653,-4.191919191919193 -1.6666666666666665,-4.090909090909091 -1.7676767676767675,-3.98989898989899 -1.8686868686868683,-3.8888888888888884 -1.9696969696969693,-3.7878787878787876 -2.07070707070707,-3.6868686868686864 -2.1717171717171713,-3.5858585858585856 -2.2727272727272725,-3.484848484848485 -2.3737373737373733,-3.383838383838383 -2.474747474747474,-3.2828282828282824 -2.5757575757575752,-3.1818181818181817 -2.6767676767676765,-3.0808080808080804 -2.7777777777777777,-2.9797979797979792 -2.8787878787878785,-2.8787878787878785 -2.9797979797979792,-2.7777777777777777 -3.0808080808080804,-2.6767676767676765 -3.1818181818181817,-2.5757575757575752 -3.2828282828282824,-2.474747474747474 -3.383838383838383,-2.3737373737373733 -3.484848484848485,-2.2727272727272725 -3.5858585858585856,-2.1717171717171713 -3.6868686868686864,-2.07070707070707 -3.7878787878787876,-1.9696969696969693 -3.8888888888888884,-1.8686868686868683 -3.98989898989899,-1.7676767676767675 -3.98989898989899,-1.6666666666666665 -3.98989898989899,-1.5656565656565653 -3.98989898989899,-1.4646464646464643 -3.98989898989899,-1.363636363636363 -3.98989898989899,-1.2626262626262625 -3.98989898989899,-1.1616161616161613 -3.98989898989899,-1.0606060606060603 -3.98989898989899,-0.9595959595959596 -3.98989898989899,-0.8585858585858579 -3.98989898989899,-0.7575757575757572 -3.98989898989899,-0.6565656565656557 -3.98989898989899,-0.555555555555555 -3.98989898989899,-0.4545454545454544 -3.98989898989899,-0.35353535353535287 -3.98989898989899,-0.2525252525252522 -3.98989898989899,-0.15151515151515066 -3.98989898989899,-0.05050505050505001 -3.98989898989899,0.050505050505051545 -3.98989898989899,0.1515151515151522 -3.98989898989899,0.2525252525252529 -3.98989898989899,0.3535353535353544 -3.98989898989899,0.4545454545454551 -3.98989898989899,0.5555555555555567 -3.98989898989899,0.6565656565656574 -3.98989898989899,0.7575757575757579 -3.98989898989899,0.8585858585858596 -3.98989898989899,0.9595959595959602 -3.98989898989899,1.0606060606060617 -3.98989898989899,1.1616161616161622 -3.98989898989899,1.262626262626263 -3.98989898989899,1.3636363636363644 -3.98989898989899,1.4646464646464652 -3.98989898989899,1.5656565656565666 -3.98989898989899,1.6666666666666674 -3.98989898989899,1.767676767676768 -3.98989898989899,1.8686868686868696 -3.98989898989899,1.9696969696969702 -3.98989898989899,2.070707070707072 -3.98989898989899,2.1717171717171726 -3.98989898989899,2.2727272727272734 -3.98989898989899,2.373737373737375" data-type="line" data-label="" points="440.4848484848485,984 430.949494949495,974.4646464646464 421.4141414141414,964.9292929292928 411.8787878787879,955.3939393939394 402.34343434343435,945.8585858585858 392.80808080808083,936.3232323232323 383.2727272727273,926.7878787878788 373.7373737373738,917.2525252525252 364.2020202020202,907.7171717171718 354.6666666666667,898.1818181818181 345.13131313131316,888.6464646464647 335.59595959595964,879.1111111111111 326.0606060606061,869.5757575757575 316.5252525252526,860.0404040404039 306.9898989898991,850.5050505050505 297.4545454545455,840.969696969697 287.91919191919203,831.4343434343434 278.38383838383845,821.8989898989898 268.84848484848493,812.3636363636363 259.3131313131314,802.8282828282828 249.77777777777783,793.2929292929292 240.2424242424243,783.7575757575758 230.70707070707084,774.2222222222222 221.17171717171726,764.6868686868687 211.63636363636374,755.1515151515151 202.10101010101022,745.6161616161615 192.5656565656567,736.0808080808081 183.03030303030312,726.5454545454545 173.4949494949496,717.010101010101 163.95959595959607,707.4747474747475 154.42424242424255,697.939393939394 144.88888888888903,688.4040404040404 135.35353535353545,678.8686868686868 135.35353535353545,669.3333333333334 135.35353535353545,659.7979797979798 135.35353535353545,650.2626262626263 135.35353535353545,640.7272727272727 135.35353535353545,631.1919191919193 135.35353535353545,621.6565656565657 135.35353535353545,612.1212121212121 135.35353535353545,602.5858585858587 135.35353535353545,593.0505050505051 135.35353535353545,583.5151515151516 135.35353535353545,573.979797979798 135.35353535353545,564.4444444444445 135.35353535353545,554.909090909091 135.35353535353545,545.3737373737374 135.35353535353545,535.838383838384 135.35353535353545,526.3030303030304 135.35353535353545,516.7676767676768 135.35353535353545,507.23232323232327 135.35353535353545,497.69696969696975 135.35353535353545,488.1616161616163 135.35353535353545,478.6262626262627 135.35353535353545,469.0909090909092 135.35353535353545,459.5555555555556 135.35353535353545,450.0202020202021 135.35353535353545,440.4848484848486 135.35353535353545,430.94949494949503 135.35353535353545,421.4141414141415 135.35353535353545,411.87878787878793 135.35353535353545,402.3434343434344 135.35353535353545,392.80808080808094 135.35353535353545,383.27272727272737 135.35353535353545,373.73737373737384 135.35353535353545,364.2020202020203 135.35353535353545,354.66666666666674 135.35353535353545,345.1313131313133 135.35353535353545,335.5959595959597 135.35353535353545,326.06060606060623 135.35353535353545,316.5252525252526 135.35353535353545,306.9898989898991 135.35353535353545,297.4545454545456 135.35353535353545,287.91919191919203" fill="none" stroke="rgba(255,0,0,0.75)" stroke-width="14.159999999999995"/></g><g><polyline data-points="-3.98989898989899,2.373737373737375 -4.090909090909091,2.4747474747474754 -4.191919191919193,2.575757575757577 -4.292929292929293,2.676767676767678 -4.393939393939394,2.7777777777777786 -4.494949494949496,2.87878787878788 -4.595959595959596,2.9797979797979806 -4.696969696969697,3.080808080808082 -4.7979797979797985,3.181818181818183 -4.898989898989899,3.2828282828282833 -5.000000000000001,3.383838383838384 -5.000000000000001,3.4848484848484866 -5.000000000000001,3.5858585858585874 -5.000000000000001,3.6868686868686877 -5.000000000000001,3.7878787878787885 -5.000000000000001,3.8888888888888893 -5.000000000000001,3.989898989898992 -5.000000000000001,4.090909090909092 -5.000000000000001,4.191919191919193 -5.000000000000001,4.292929292929293 -5.000000000000001,4.393939393939394 -5.000000000000001,4.494949494949497 -5.000000000000001,4.595959595959597 -5.000000000000001,4.696969696969697 -5.000000000000001,4.7979797979797985 -5.000000000000001,4.898989898989901 -5.000000000000001,5.000000000000002" data-type="line" data-label="" points="135.35353535353545,287.91919191919203 125.81818181818193,278.38383838383857 116.28282828282829,268.84848484848493 106.74747474747483,259.3131313131314 97.21212121212136,249.77777777777794 87.67676767676772,240.24242424242436 78.14141414141426,230.70707070707084 68.60606060606068,221.17171717171726 59.07070707070716,211.63636363636374 49.53535353535369,202.10101010101027 40.00000000000006,192.56565656565675 40.00000000000006,183.03030303030312 40.00000000000006,173.4949494949496 40.00000000000006,163.95959595959613 40.00000000000006,154.4242424242426 40.00000000000006,144.88888888888908 40.00000000000006,135.35353535353545 40.00000000000006,125.81818181818198 40.00000000000006,116.28282828282846 40.00000000000006,106.747474747475 40.00000000000006,97.21212121212153 40.00000000000006,87.67676767676778 40.00000000000006,78.14141414141432 40.00000000000006,68.60606060606085 40.00000000000006,59.07070707070733 40.00000000000006,49.53535353535369 40.00000000000006,40.000000000000114" fill="none" stroke="rgba(0,0,255,0.75)" stroke-width="14.159999999999995"/></g><g><polyline data-points="-5.000000000000001,-0.05050505050505001 -5.000000000000001,-0.15151515151515066 -5.000000000000001,-0.2525252525252522 -5.000000000000001,-0.35353535353535287 -5.000000000000001,-0.4545454545454544 -5.000000000000001,-0.555555555555555 -5.000000000000001,-0.6565656565656557 -5.000000000000001,-0.7575757575757572 -5.000000000000001,-0.8585858585858579 -5.000000000000001,-0.9595959595959596 -5.000000000000001,-1.0606060606060603 -5.000000000000001,-1.1616161616161613 -5.000000000000001,-1.2626262626262625 -5.000000000000001,-1.363636363636363 -5.000000000000001,-1.4646464646464643 -5.000000000000001,-1.5656565656565653 -5.000000000000001,-1.6666666666666665 -5.000000000000001,-1.7676767676767675 -5.000000000000001,-1.8686868686868683 -5.000000000000001,-1.9696969696969693 -5.000000000000001,-2.07070707070707" data-type="line" data-label="" points="40.00000000000006,516.7676767676768 40.00000000000006,526.3030303030304 40.00000000000006,535.838383838384 40.00000000000006,545.3737373737374 40.00000000000006,554.909090909091 40.00000000000006,564.4444444444445 40.00000000000006,573.979797979798 40.00000000000006,583.5151515151516 40.00000000000006,593.0505050505051 40.00000000000006,602.5858585858587 40.00000000000006,612.1212121212121 40.00000000000006,621.6565656565657 40.00000000000006,631.1919191919193 40.00000000000006,640.7272727272727 40.00000000000006,650.2626262626263 40.00000000000006,659.7979797979798 40.00000000000006,669.3333333333334 40.00000000000006,678.8686868686868 40.00000000000006,688.4040404040404 40.00000000000006,697.939393939394 40.00000000000006,707.4747474747475" fill="none" stroke="rgba(255,0,0,0.75)" stroke-width="14.159999999999995"/></g><g><polyline data-points="5.000000000000002,3.989898989898992 4.898989898989901,3.8888888888888893 4.7979797979797985,3.7878787878787885 4.696969696969697,3.6868686868686877 4.595959595959597,3.5858585858585874 4.494949494949497,3.4848484848484866 4.393939393939394,3.383838383838384 4.292929292929293,3.2828282828282833 4.191919191919193,3.181818181818183 4.090909090909092,3.080808080808082 3.989898989898992,2.9797979797979806 3.8888888888888893,2.87878787878788 3.7878787878787885,2.7777777777777786 3.6868686868686877,2.676767676767678 3.5858585858585874,2.575757575757577 3.4848484848484866,2.4747474747474754 3.383838383838384,2.373737373737375 3.2828282828282833,2.2727272727272734 3.181818181818183,2.1717171717171726 3.080808080808082,2.070707070707072 2.9797979797979806,1.9696969696969702 2.87878787878788,1.8686868686868696 2.7777777777777786,1.767676767676768 2.676767676767678,1.6666666666666674 2.575757575757577,1.5656565656565666 2.4747474747474754,1.4646464646464652 2.373737373737375,1.3636363636363644 2.2727272727272734,1.262626262626263 2.1717171717171726,1.1616161616161622 2.070707070707072,1.0606060606060617 1.9696969696969702,0.9595959595959602 1.8686868686868696,0.8585858585858596 1.767676767676768,0.7575757575757579 1.6666666666666674,0.6565656565656574 1.5656565656565666,0.5555555555555567 1.4646464646464652,0.4545454545454551 1.3636363636363644,0.3535353535353544 1.262626262626263,0.2525252525252529 1.1616161616161622,0.1515151515151522 1.0606060606060617,0.050505050505051545 0.9595959595959602,-0.05050505050505001 0.8585858585858596,-0.15151515151515066 0.7575757575757579,-0.2525252525252522 0.6565656565656574,-0.35353535353535287 0.5555555555555567,-0.4545454545454544 0.4545454545454551,-0.555555555555555 0.3535353535353544,-0.6565656565656557 0.2525252525252529,-0.7575757575757572 0.1515151515151522,-0.8585858585858579 0.050505050505051545,-0.9595959595959596 -0.05050505050505001,-1.0606060606060603 -0.15151515151515066,-1.1616161616161613 -0.2525252525252522,-1.2626262626262625 -0.35353535353535287,-1.363636363636363 -0.4545454545454544,-1.4646464646464643 -0.555555555555555,-1.5656565656565653 -0.6565656565656557,-1.6666666666666665 -0.7575757575757572,-1.7676767676767675 -0.8585858585858579,-1.8686868686868683 -0.9595959595959596,-1.9696969696969693 -1.0606060606060603,-2.07070707070707 -1.1616161616161613,-2.1717171717171713 -1.2626262626262625,-2.2727272727272725 -1.363636363636363,-2.3737373737373733 -1.4646464646464643,-2.474747474747474 -1.5656565656565653,-2.5757575757575752 -1.6666666666666665,-2.6767676767676765 -1.7676767676767675,-2.7777777777777777 -1.8686868686868683,-2.8787878787878785 -1.9696969696969693,-2.9797979797979792 -2.07070707070707,-3.0808080808080804 -2.1717171717171713,-3.1818181818181817 -2.2727272727272725,-3.2828282828282824 -2.3737373737373733,-3.383838383838383 -2.3737373737373733,-3.484848484848485 -2.3737373737373733,-3.5858585858585856 -2.3737373737373733,-3.6868686868686864 -2.3737373737373733,-3.7878787878787876 -2.474747474747474,-3.8888888888888884 -2.5757575757575752,-3.98989898989899" data-type="line" data-label="" points="984,135.35353535353545 974.4646464646464,144.88888888888908 964.9292929292927,154.4242424242426 955.3939393939393,163.95959595959613 945.8585858585857,173.4949494949496 936.3232323232323,183.03030303030312 926.7878787878785,192.56565656565675 917.2525252525251,202.10101010101027 907.7171717171716,211.63636363636374 898.181818181818,221.17171717171726 888.6464646464647,230.70707070707084 879.111111111111,240.24242424242436 869.5757575757575,249.77777777777794 860.0404040404039,259.3131313131314 850.5050505050505,268.84848484848493 840.969696969697,278.38383838383857 831.4343434343433,287.91919191919203 821.8989898989898,297.4545454545456 812.3636363636363,306.9898989898991 802.8282828282828,316.5252525252526 793.2929292929292,326.06060606060623 783.7575757575758,335.5959595959597 774.2222222222222,345.1313131313133 764.6868686868686,354.66666666666674 755.1515151515151,364.2020202020203 745.6161616161615,373.73737373737384 736.0808080808081,383.27272727272737 726.5454545454545,392.80808080808094 717.0101010101009,402.3434343434344 707.4747474747475,411.87878787878793 697.9393939393939,421.4141414141415 688.4040404040404,430.94949494949503 678.8686868686868,440.4848484848486 669.3333333333333,450.0202020202021 659.7979797979798,459.5555555555556 650.2626262626262,469.0909090909092 640.7272727272727,478.6262626262627 631.1919191919192,488.1616161616163 621.6565656565656,497.69696969696975 612.1212121212121,507.23232323232327 602.5858585858585,516.7676767676768 593.0505050505051,526.3030303030304 583.5151515151515,535.838383838384 573.9797979797979,545.3737373737374 564.4444444444445,554.909090909091 554.9090909090909,564.4444444444445 545.3737373737374,573.979797979798 535.8383838383838,583.5151515151516 526.3030303030303,593.0505050505051 516.7676767676768,602.5858585858587 507.2323232323232,612.1212121212121 497.69696969696975,621.6565656565657 488.16161616161617,631.1919191919193 478.62626262626264,640.7272727272727 469.09090909090907,650.2626262626263 459.55555555555554,659.7979797979798 450.0202020202021,669.3333333333334 440.4848484848485,678.8686868686868 430.949494949495,688.4040404040404 421.4141414141414,697.939393939394 411.8787878787879,707.4747474747475 402.34343434343435,717.010101010101 392.80808080808083,726.5454545454545 383.2727272727273,736.0808080808081 373.7373737373738,745.6161616161615 364.2020202020202,755.1515151515151 354.6666666666667,764.6868686868687 345.13131313131316,774.2222222222222 335.59595959595964,783.7575757575758 326.0606060606061,793.2929292929292 316.5252525252526,802.8282828282828 306.9898989898991,812.3636363636363 297.4545454545455,821.8989898989898 287.91919191919203,831.4343434343434 287.91919191919203,840.969696969697 287.91919191919203,850.5050505050505 287.91919191919203,860.0404040404039 287.91919191919203,869.5757575757575 278.38383838383845,879.1111111111111 268.84848484848493,888.6464646464647" fill="none" stroke="rgba(0,0,255,0.75)" stroke-width="14.159999999999995"/></g><g><polyline data-points="-2.5757575757575752,-3.98989898989899 -2.474747474747474,-4.090909090909091 -2.3737373737373733,-4.191919191919193 -2.3737373737373733,-4.292929292929293 -2.3737373737373733,-4.393939393939394 -2.3737373737373733,-4.494949494949496 -2.3737373737373733,-4.595959595959596 -2.3737373737373733,-4.696969696969697 -2.3737373737373733,-4.7979797979797985 -2.3737373737373733,-4.898989898989899 -2.3737373737373733,-5.000000000000001" data-type="line" data-label="" points="268.84848484848493,888.6464646464647 278.38383838383845,898.1818181818181 287.91919191919203,907.7171717171718 287.91919191919203,917.2525252525252 287.91919191919203,926.7878787878788 287.91919191919203,936.3232323232323 287.91919191919203,945.8585858585858 287.91919191919203,955.3939393939394 287.91919191919203,964.9292929292928 287.91919191919203,974.4646464646464 287.91919191919203,984" fill="none" stroke="rgba(255,0,0,0.75)" stroke-width="14.159999999999995"/></g><g><polyline data-points="4.595959595959597,5.000000000000002 4.494949494949497,4.898989898989901 4.393939393939394,4.7979797979797985 4.292929292929293,4.696969696969697 4.191919191919193,4.595959595959597 4.090909090909092,4.494949494949497 3.989898989898992,4.393939393939394 3.8888888888888893,4.292929292929293 3.7878787878787885,4.191919191919193 3.6868686868686877,4.090909090909092 3.5858585858585874,3.989898989898992 3.4848484848484866,3.8888888888888893 3.383838383838384,3.7878787878787885 3.2828282828282833,3.6868686868686877 3.181818181818183,3.5858585858585874" data-type="line" data-label="" points="945.8585858585857,40.000000000000114 936.3232323232323,49.53535353535369 926.7878787878785,59.07070707070733 917.2525252525251,68.60606060606085 907.7171717171716,78.14141414141432 898.181818181818,87.67676767676778 888.6464646464647,97.21212121212153 879.111111111111,106.747474747475 869.5757575757575,116.28282828282846 860.0404040404039,125.81818181818198 850.5050505050505,135.35353535353545 840.969696969697,144.88888888888908 831.4343434343433,154.4242424242426 821.8989898989898,163.95959595959613 812.3636363636363,173.4949494949496" fill="none" stroke="rgba(255,0,0,0.75)" stroke-width="14.159999999999995"/></g><g><polyline data-points="3.181818181818183,3.5858585858585874 3.080808080808082,3.4848484848484866 2.9797979797979806,3.383838383838384 2.87878787878788,3.2828282828282833 2.7777777777777786,3.181818181818183 2.676767676767678,3.080808080808082 2.575757575757577,2.9797979797979806 2.4747474747474754,2.87878787878788 2.373737373737375,2.7777777777777786 2.373737373737375,2.676767676767678 2.373737373737375,2.575757575757577 2.373737373737375,2.4747474747474754 2.373737373737375,2.373737373737375 2.373737373737375,2.2727272727272734 2.373737373737375,2.1717171717171726" data-type="line" data-label="" points="812.3636363636363,173.4949494949496 802.8282828282828,183.03030303030312 793.2929292929292,192.56565656565675 783.7575757575758,202.10101010101027 774.2222222222222,211.63636363636374 764.6868686868686,221.17171717171726 755.1515151515151,230.70707070707084 745.6161616161615,240.24242424242436 736.0808080808081,249.77777777777794 736.0808080808081,259.3131313131314 736.0808080808081,268.84848484848493 736.0808080808081,278.38383838383857 736.0808080808081,287.91919191919203 736.0808080808081,297.4545454545456 736.0808080808081,306.9898989898991" fill="none" stroke="rgba(0,0,255,0.75)" stroke-width="14.159999999999995"/></g><g><polyline data-points="2.373737373737375,2.1717171717171726 2.373737373737375,2.070707070707072 2.373737373737375,1.9696969696969702 2.373737373737375,1.8686868686868696 2.373737373737375,1.767676767676768 2.373737373737375,1.6666666666666674 2.373737373737375,1.5656565656565666 2.373737373737375,1.4646464646464652 2.373737373737375,1.3636363636363644 2.373737373737375,1.262626262626263 2.373737373737375,1.1616161616161622 2.373737373737375,1.0606060606060617 2.373737373737375,0.9595959595959602 2.373737373737375,0.8585858585858596 2.373737373737375,0.7575757575757579 2.373737373737375,0.6565656565656574 2.373737373737375,0.5555555555555567 2.373737373737375,0.4545454545454551 2.373737373737375,0.3535353535353544 2.373737373737375,0.2525252525252529 2.373737373737375,0.1515151515151522 2.373737373737375,0.050505050505051545 2.373737373737375,-0.05050505050505001 2.373737373737375,-0.15151515151515066 2.373737373737375,-0.2525252525252522 2.373737373737375,-0.35353535353535287 2.373737373737375,-0.4545454545454544 2.373737373737375,-0.555555555555555 2.373737373737375,-0.6565656565656557 2.373737373737375,-0.7575757575757572 2.373737373737375,-0.8585858585858579 2.373737373737375,-0.9595959595959596 2.373737373737375,-1.0606060606060603 2.373737373737375,-1.1616161616161613 2.373737373737375,-1.2626262626262625 2.373737373737375,-1.363636363636363 2.373737373737375,-1.4646464646464643 2.373737373737375,-1.5656565656565653 2.373737373737375,-1.6666666666666665 2.373737373737375,-1.7676767676767675 2.373737373737375,-1.8686868686868683 2.373737373737375,-1.9696969696969693 2.373737373737375,-2.07070707070707 2.373737373737375,-2.1717171717171713 2.373737373737375,-2.2727272727272725 2.373737373737375,-2.3737373737373733 2.373737373737375,-2.474747474747474 2.373737373737375,-2.5757575757575752 2.373737373737375,-2.6767676767676765 2.373737373737375,-2.7777777777777777 2.373737373737375,-2.8787878787878785 2.373737373737375,-2.9797979797979792 2.373737373737375,-3.0808080808080804 2.373737373737375,-3.1818181818181817 2.373737373737375,-3.2828282828282824 2.373737373737375,-3.383838383838383 2.373737373737375,-3.484848484848485 2.373737373737375,-3.5858585858585856 2.373737373737375,-3.6868686868686864 2.373737373737375,-3.7878787878787876 2.373737373737375,-3.8888888888888884 2.373737373737375,-3.98989898989899" data-type="line" data-label="" points="736.0808080808081,306.9898989898991 736.0808080808081,316.5252525252526 736.0808080808081,326.06060606060623 736.0808080808081,335.5959595959597 736.0808080808081,345.1313131313133 736.0808080808081,354.66666666666674 736.0808080808081,364.2020202020203 736.0808080808081,373.73737373737384 736.0808080808081,383.27272727272737 736.0808080808081,392.80808080808094 736.0808080808081,402.3434343434344 736.0808080808081,411.87878787878793 736.0808080808081,421.4141414141415 736.0808080808081,430.94949494949503 736.0808080808081,440.4848484848486 736.0808080808081,450.0202020202021 736.0808080808081,459.5555555555556 736.0808080808081,469.0909090909092 736.0808080808081,478.6262626262627 736.0808080808081,488.1616161616163 736.0808080808081,497.69696969696975 736.0808080808081,507.23232323232327 736.0808080808081,516.7676767676768 736.0808080808081,526.3030303030304 736.0808080808081,535.838383838384 736.0808080808081,545.3737373737374 736.0808080808081,554.909090909091 736.0808080808081,564.4444444444445 736.0808080808081,573.979797979798 736.0808080808081,583.5151515151516 736.0808080808081,593.0505050505051 736.0808080808081,602.5858585858587 736.0808080808081,612.1212121212121 736.0808080808081,621.6565656565657 736.0808080808081,631.1919191919193 736.0808080808081,640.7272727272727 736.0808080808081,650.2626262626263 736.0808080808081,659.7979797979798 736.0808080808081,669.3333333333334 736.0808080808081,678.8686868686868 736.0808080808081,688.4040404040404 736.0808080808081,697.939393939394 736.0808080808081,707.4747474747475 736.0808080808081,717.010101010101 736.0808080808081,726.5454545454545 736.0808080808081,736.0808080808081 736.0808080808081,745.6161616161615 736.0808080808081,755.1515151515151 736.0808080808081,764.6868686868687 736.0808080808081,774.2222222222222 736.0808080808081,783.7575757575758 736.0808080808081,793.2929292929292 736.0808080808081,802.8282828282828 736.0808080808081,812.3636363636363 736.0808080808081,821.8989898989898 736.0808080808081,831.4343434343434 736.0808080808081,840.969696969697 736.0808080808081,850.5050505050505 736.0808080808081,860.0404040404039 736.0808080808081,869.5757575757575 736.0808080808081,879.1111111111111 736.0808080808081,888.6464646464647" fill="none" stroke="rgba(255,0,0,0.75)" stroke-width="14.159999999999995"/></g><g><polyline data-points="2.373737373737375,-3.98989898989899 2.373737373737375,-4.090909090909091 2.373737373737375,-4.191919191919193 2.373737373737375,-4.292929292929293 2.373737373737375,-4.393939393939394 2.373737373737375,-4.494949494949496 2.373737373737375,-4.595959595959596 2.373737373737375,-4.696969696969697 2.373737373737375,-4.7979797979797985 2.373737373737375,-4.898989898989899 2.373737373737375,-5.000000000000001" data-type="line" data-label="" points="736.0808080808081,888.6464646464647 736.0808080808081,898.1818181818181 736.0808080808081,907.7171717171718 736.0808080808081,917.2525252525252 736.0808080808081,926.7878787878788 736.0808080808081,936.3232323232323 736.0808080808081,945.8585858585858 736.0808080808081,955.3939393939394 736.0808080808081,964.9292929292928 736.0808080808081,974.4646464646464 736.0808080808081,984" fill="none" stroke="rgba(0,0,255,0.75)" stroke-width="14.159999999999995"/></g><g><polyline data-points="-5.000000000000001,-4.292929292929293 -4.898989898989899,-4.191919191919193 -4.7979797979797985,-4.090909090909091 -4.696969696969697,-3.98989898989899 -4.595959595959596,-3.8888888888888884 -4.494949494949496,-3.7878787878787876 -4.393939393939394,-3.6868686868686864 -4.292929292929293,-3.5858585858585856 -4.191919191919193,-3.484848484848485 -4.090909090909091,-3.383838383838383 -3.98989898989899,-3.2828282828282824 -3.8888888888888884,-3.1818181818181817 -3.7878787878787876,-3.0808080808080804 -3.6868686868686864,-2.9797979797979792 -3.5858585858585856,-2.8787878787878785 -3.484848484848485,-2.7777777777777777 -3.383838383838383,-2.6767676767676765 -3.2828282828282824,-2.5757575757575752 -3.1818181818181817,-2.474747474747474 -3.0808080808080804,-2.3737373737373733 -2.9797979797979792,-2.2727272727272725 -2.8787878787878785,-2.1717171717171713 -2.7777777777777777,-2.07070707070707 -2.6767676767676765,-1.9696969696969693 -2.5757575757575752,-1.8686868686868683 -2.474747474747474,-1.7676767676767675 -2.3737373737373733,-1.6666666666666665 -2.2727272727272725,-1.5656565656565653 -2.1717171717171713,-1.4646464646464643 -2.07070707070707,-1.363636363636363 -1.9696969696969693,-1.2626262626262625 -1.8686868686868683,-1.1616161616161613 -1.7676767676767675,-1.0606060606060603 -1.6666666666666665,-0.9595959595959596 -1.5656565656565653,-0.8585858585858579 -1.4646464646464643,-0.7575757575757572 -1.363636363636363,-0.6565656565656557 -1.2626262626262625,-0.555555555555555 -1.1616161616161613,-0.4545454545454544 -1.0606060606060603,-0.35353535353535287 -0.9595959595959596,-0.2525252525252522 -0.8585858585858579,-0.15151515151515066 -0.7575757575757572,-0.05050505050505001 -0.6565656565656557,0.050505050505051545 -0.555555555555555,0.1515151515151522 -0.4545454545454544,0.2525252525252529 -0.35353535353535287,0.3535353535353544 -0.2525252525252522,0.4545454545454551 -0.15151515151515066,0.5555555555555567 -0.05050505050505001,0.6565656565656574 0.050505050505051545,0.7575757575757579 0.1515151515151522,0.8585858585858596 0.2525252525252529,0.9595959595959602 0.3535353535353544,1.0606060606060617 0.4545454545454551,1.1616161616161622 0.5555555555555567,1.262626262626263 0.5555555555555567,1.3636363636363644 0.5555555555555567,1.4646464646464652 0.5555555555555567,1.5656565656565666 0.5555555555555567,1.6666666666666674 0.5555555555555567,1.767676767676768 0.5555555555555567,1.8686868686868696 0.5555555555555567,1.9696969696969702 0.5555555555555567,2.070707070707072 0.5555555555555567,2.1717171717171726 0.5555555555555567,2.2727272727272734 0.5555555555555567,2.373737373737375 0.5555555555555567,2.4747474747474754 0.5555555555555567,2.575757575757577 0.5555555555555567,2.676767676767678 0.5555555555555567,2.7777777777777786 0.5555555555555567,2.87878787878788 0.5555555555555567,2.9797979797979806 0.5555555555555567,3.080808080808082 0.5555555555555567,3.181818181818183 0.5555555555555567,3.2828282828282833 0.5555555555555567,3.383838383838384 0.5555555555555567,3.4848484848484866 0.5555555555555567,3.5858585858585874 0.5555555555555567,3.6868686868686877 0.5555555555555567,3.7878787878787885 0.5555555555555567,3.8888888888888893 0.5555555555555567,3.989898989898992" data-type="line" data-label="" points="40.00000000000006,917.2525252525252 49.53535353535369,907.7171717171718 59.07070707070716,898.1818181818181 68.60606060606068,888.6464646464647 78.14141414141426,879.1111111111111 87.67676767676772,869.5757575757575 97.21212121212136,860.0404040404039 106.74747474747483,850.5050505050505 116.28282828282829,840.969696969697 125.81818181818193,831.4343434343434 135.35353535353545,821.8989898989898 144.88888888888903,812.3636363636363 154.42424242424255,802.8282828282828 163.95959595959607,793.2929292929292 173.4949494949496,783.7575757575758 183.03030303030312,774.2222222222222 192.5656565656567,764.6868686868687 202.10101010101022,755.1515151515151 211.63636363636374,745.6161616161615 221.17171717171726,736.0808080808081 230.70707070707084,726.5454545454545 240.2424242424243,717.010101010101 249.77777777777783,707.4747474747475 259.3131313131314,697.939393939394 268.84848484848493,688.4040404040404 278.38383838383845,678.8686868686868 287.91919191919203,669.3333333333334 297.4545454545455,659.7979797979798 306.9898989898991,650.2626262626263 316.5252525252526,640.7272727272727 326.0606060606061,631.1919191919193 335.59595959595964,621.6565656565657 345.13131313131316,612.1212121212121 354.6666666666667,602.5858585858587 364.2020202020202,593.0505050505051 373.7373737373738,583.5151515151516 383.2727272727273,573.979797979798 392.80808080808083,564.4444444444445 402.34343434343435,554.909090909091 411.8787878787879,545.3737373737374 421.4141414141414,535.838383838384 430.949494949495,526.3030303030304 440.4848484848485,516.7676767676768 450.0202020202021,507.23232323232327 459.55555555555554,497.69696969696975 469.09090909090907,488.1616161616163 478.62626262626264,478.6262626262627 488.16161616161617,469.0909090909092 497.69696969696975,459.5555555555556 507.2323232323232,450.0202020202021 516.7676767676768,440.4848484848486 526.3030303030303,430.94949494949503 535.8383838383838,421.4141414141415 545.3737373737374,411.87878787878793 554.9090909090909,402.3434343434344 564.4444444444445,392.80808080808094 564.4444444444445,383.27272727272737 564.4444444444445,373.73737373737384 564.4444444444445,364.2020202020203 564.4444444444445,354.66666666666674 564.4444444444445,345.1313131313133 564.4444444444445,335.5959595959597 564.4444444444445,326.06060606060623 564.4444444444445,316.5252525252526 564.4444444444445,306.9898989898991 564.4444444444445,297.4545454545456 564.4444444444445,287.91919191919203 564.4444444444445,278.38383838383857 564.4444444444445,268.84848484848493 564.4444444444445,259.3131313131314 564.4444444444445,249.77777777777794 564.4444444444445,240.24242424242436 564.4444444444445,230.70707070707084 564.4444444444445,221.17171717171726 564.4444444444445,211.63636363636374 564.4444444444445,202.10101010101027 564.4444444444445,192.56565656565675 564.4444444444445,183.03030303030312 564.4444444444445,173.4949494949496 564.4444444444445,163.95959595959613 564.4444444444445,154.4242424242426 564.4444444444445,144.88888888888908 564.4444444444445,135.35353535353545" fill="none" stroke="rgba(0,0,255,0.75)" stroke-width="14.159999999999995"/></g><g><polyline data-points="0.5555555555555567,3.989898989898992 0.5555555555555567,4.090909090909092 0.5555555555555567,4.191919191919193 0.5555555555555567,4.292929292929293 0.5555555555555567,4.393939393939394 0.5555555555555567,4.494949494949497 0.5555555555555567,4.595959595959597 0.5555555555555567,4.696969696969697 0.5555555555555567,4.7979797979797985 0.5555555555555567,4.898989898989901 0.5555555555555567,5.000000000000002" data-type="line" data-label="" points="564.4444444444445,135.35353535353545 564.4444444444445,125.81818181818198 564.4444444444445,116.28282828282846 564.4444444444445,106.747474747475 564.4444444444445,97.21212121212153 564.4444444444445,87.67676767676778 564.4444444444445,78.14141414141432 564.4444444444445,68.60606060606085 564.4444444444445,59.07070707070733 564.4444444444445,49.53535353535369 564.4444444444445,40.000000000000114" fill="none" stroke="rgba(255,0,0,0.75)" stroke-width="14.159999999999995"/></g><g><rect data-type="rect" data-label="" data-x="0" data-y="0" x="40.000000000000114" y="40.000000000000284" width="943.9999999999997" height="943.9999999999998" fill="none" stroke="gray" stroke-width="0.010593220338983056"/></g><g><rect data-type="rect" data-label="" data-x="0" data-y="0" x="40.000000000000114" y="40.000000000000284" width="943.9999999999997" height="943.9999999999998" fill="none" stroke="rgba(15, 23, 42, 0.8)" stroke-width="0.010593220338983056"/></g><circle data-type="circle" data-label="" data-x="-3.98989898989899" data-y="2.373737373737375" cx="135.35353535353545" cy="287.91919191919203" r="28.791999999999987" fill="rgba(0,0,0,0.3)" stroke="black" stroke-width="0.010593220338983056"/><circle data-type="circle" data-label="" data-x="-2.5757575757575752" data-y="-3.98989898989899" cx="268.84848484848493" cy="888.6464646464647" r="28.791999999999987" fill="rgba(0,0,0,0.3)" stroke="black" stroke-width="0.010593220338983056"/><circle data-type="circle" data-label="" data-x="3.181818181818183" data-y="3.5858585858585874" cx="812.3636363636363" cy="173.4949494949496" r="28.791999999999987" fill="rgba(0,0,0,0.3)" stroke="black" stroke-width="0.010593220338983056"/><circle data-type="circle" data-label="" data-x="2.373737373737375" data-y="2.1717171717171726" cx="736.0808080808081" cy="306.9898989898991" r="28.791999999999987" fill="rgba(0,0,0,0.3)" stroke="black" stroke-width="0.010593220338983056"/><circle data-type="circle" data-label="" data-x="2.373737373737375" data-y="-3.98989898989899" cx="736.0808080808081" cy="888.6464646464647" r="28.791999999999987" fill="rgba(0,0,0,0.3)" stroke="black" stroke-width="0.010593220338983056"/><circle data-type="circle" data-label="" data-x="0.5555555555555567" data-y="3.989898989898992" cx="564.4444444444445" cy="135.35353535353545" r="28.791999999999987" fill="rgba(0,0,0,0.3)" stroke="black" stroke-width="0.010593220338983056"/><g id="crosshair" style="display: none"><line id="crosshair-h" y1="0" y2="1024" stroke="#666" stroke-width="0.5"/><line id="crosshair-v" x1="0" x2="1024" stroke="#666" stroke-width="0.5"/><text id="coordinates" font-family="monospace" font-size="12" fill="#666"></text></g><script><![CDATA[
              document.currentScript.parentElement.addEventListener('mousemove', (e) => {
                const svg = e.currentTarget;
                const rect = svg.getBoundingClientRect();
                const x = e.clientX - rect.left;
                const y = e.clientY - rect.top;
                const crosshair = svg.getElementById('crosshair');
                const h = svg.getElementById('crosshair-h');
                const v = svg.getElementById('crosshair-v');
                const coords = svg.getElementById('coordinates');
                
                crosshair.style.display = 'block';
                h.setAttribute('x1', '0');
                h.setAttribute('x2', '1024');
                h.setAttribute('y1', y);
                h.setAttribute('y2', y);
                v.setAttribute('x1', x);
                v.setAttribute('x2', x);
                v.setAttribute('y1', '0');
                v.setAttribute('y2', '1024');

                // Calculate real coordinates using inverse transformation
                const matrix = {"a":94.39999999999996,"c":0,"e":511.99999999999994,"b":0,"d":-94.39999999999996,"f":512.0000000000001};
                // Manually invert and apply the affine transform
                // Since we only use translate and scale, we can directly compute:
                // x' = (x - tx) / sx
                // y' = (y - ty) / sy
                const sx = matrix.a;
                const sy = matrix.d;
                const tx = matrix.e; 
                const ty = matrix.f;
                const realPoint = {
                  x: (x - tx) / sx,
                  y: (y - ty) / sy // Flip y back since we used negative scale
                }
                
                coords.textContent = `(${realPoint.x.toFixed(2)}, ${realPoint.y.toFixed(2)})`;
                coords.setAttribute('x', (x + 5).toString());
                coords.setAttribute('y', (y - 5).toString());
              });
              document.currentScript.parentElement.addEventListener('mouseleave', () => {
                document.currentScript.parentElement.getElementById('crosshair').style.display = 'none';
              });
            ]]></script></svg>