<svg width="1024" height="1024" viewBox="0 0 1024 1024" xmlns="http://www.w3.org/2000/svg"><rect width="100%" height="100%" fill="white"/><g><circle data-type="point" data-label="conn_000" data-x="-4.0200000000000005" data-y="-5" cx="132.51200000000006" cy="984" r="28.792" fill="blue" stroke="#3bbd0f" stroke-width="28.792"/></g><g><circle data-type="point" data-label="conn_000" data-x="2.2600000000000002" data-y="5" cx="725.3439999999998" cy="40.000000000000284" r="28.792" fill="blue" stroke="#3bbd0f" stroke-width="28.792"/></g><g><circle data-type="point" data-label="conn_001" data-x="-5" data-y="0.68" cx="40.000000000000114" cy="447.8080000000001" r="28.792" fill="red" stroke="#170fbd" stroke-width="28.792"/></g><g><circle data-type="point" data-label="conn_001" data-x="-2" data-y="-5" cx="323.20000000000005" cy="984" r="28.792" fill="red" stroke="#170fbd" stroke-width="28.792"/></g><g><circle data-type="point" data-label="conn_002" data-x="-1.9000000000000001" data-y="5" cx="332.64" cy="40.000000000000284" r="28.792" fill="red" stroke="#bd490f" stroke-width="28.792"/></g><g><circle data-type="point" data-label="conn_002" data-x="3.46" data-y="-5" cx="838.6239999999998" cy="984" r="28.792" fill="blue" stroke="#bd490f" stroke-width="28.792"/></g><g><circle data-type="point" data-label="conn_003" data-x="-5" data-y="-2.38" cx="40.000000000000114" cy="736.672" r="28.792" fill="red" stroke="#0fbd7c" stroke-width="28.792"/></g><g><circle data-type="point" data-label="conn_003" data-x="5" data-y="-1.12" cx="983.9999999999998" cy="617.7280000000001" r="28.792" fill="blue" stroke="#0fbd7c" stroke-width="28.792"/></g><g><circle data-type="point" data-label="conn_004" data-x="3.46" data-y="5" cx="838.6239999999998" cy="40.000000000000284" r="28.792" fill="blue" stroke="#ae0fbd" stroke-width="28.792"/></g><g><circle data-type="point" data-label="conn_004" data-x="-5" data-y="-4.42" cx="40.000000000000114" cy="929.2479999999999" r="28.792" fill="red" stroke="#ae0fbd" stroke-width="28.792"/></g><g><circle data-type="point" data-label="conn_005" data-x="-3.24" data-y="5" cx="206.14400000000006" cy="40.000000000000284" r="28.792" fill="red" stroke="#98bd0f" stroke-width="28.792"/></g><g><circle data-type="point" data-label="conn_005" data-x="4.26" data-y="-5" cx="914.1439999999998" cy="984" r="28.792" fill="blue" stroke="#98bd0f" stroke-width="28.792"/></g><g><circle data-type="point" data-label="conn_006" data-x="5" data-y="-2.54" cx="983.9999999999998" cy="751.7760000000001" r="28.792" fill="red" stroke="#0f66bd" stroke-width="28.792"/></g><g><circle data-type="point" data-label="conn_006" data-x="5" data-y="-0.02" cx="983.9999999999998" cy="513.8880000000001" r="28.792" fill="blue" stroke="#0f66bd" stroke-width="28.792"/></g><g><circle data-type="point" data-label="conn_007" data-x="-0.7000000000000001" data-y="5" cx="445.91999999999996" cy="40.000000000000284" r="28.792" fill="blue" stroke="#bd0f33" stroke-width="28.792"/></g><g><circle data-type="point" data-label="conn_007" data-x="5" data-y="0.66" cx="983.9999999999998" cy="449.69600000000014" r="28.792" fill="red" stroke="#bd0f33" stroke-width="28.792"/></g><g><circle data-type="point" data-label="conn_008" data-x="-5" data-y="-1.3" cx="40.000000000000114" cy="634.72" r="28.792" fill="blue" stroke="#0fbd1e" stroke-width="28.792"/></g><g><circle data-type="point" data-label="conn_008" data-x="-0.42" data-y="-5" cx="472.352" cy="984" r="28.792" fill="red" stroke="#0fbd1e" stroke-width="28.792"/></g><g><circle data-type="point" data-label="conn_009" data-x="2.2800000000000002" data-y="-5" cx="727.2319999999999" cy="984" r="28.792" fill="blue" stroke="#510fbd" stroke-width="28.792"/></g><g><circle data-type="point" data-label="conn_009" data-x="-5" data-y="-0.56" cx="40.000000000000114" cy="564.8640000000001" r="28.792" fill="red" stroke="#510fbd" stroke-width="28.792"/></g><g><polyline data-points="-5.000000000000001,0.6565656565656574 -4.898989898989899,0.5555555555555567 -4.7979797979797985,0.4545454545454551 -4.696969696969697,0.3535353535353544 -4.595959595959596,0.2525252525252529 -4.494949494949496,0.1515151515151522 -4.393939393939394,0.050505050505051545 -4.292929292929293,-0.05050505050505001 -4.191919191919193,-0.15151515151515066 -4.090909090909091,-0.2525252525252522 -3.98989898989899,-0.35353535353535287 -3.8888888888888884,-0.4545454545454544 -3.7878787878787876,-0.555555555555555 -3.6868686868686864,-0.6565656565656557 -3.5858585858585856,-0.7575757575757572 -3.484848484848485,-0.8585858585858579 -3.383838383838383,-0.9595959595959596 -3.2828282828282824,-1.0606060606060603 -3.1818181818181817,-1.1616161616161613 -3.0808080808080804,-1.2626262626262625 -2.9797979797979792,-1.363636363636363 -2.8787878787878785,-1.4646464646464643 -2.7777777777777777,-1.5656565656565653 -2.6767676767676765,-1.6666666666666665 -2.5757575757575752,-1.7676767676767675 -2.474747474747474,-1.8686868686868683 -2.3737373737373733,-1.9696969696969693 -2.2727272727272725,-2.07070707070707 -2.1717171717171713,-2.1717171717171713 -2.07070707070707,-2.2727272727272725 -1.9696969696969693,-2.3737373737373733 -1.9696969696969693,-2.474747474747474 -1.9696969696969693,-2.5757575757575752 -1.9696969696969693,-2.6767676767676765 -1.9696969696969693,-2.7777777777777777 -1.9696969696969693,-2.8787878787878785 -1.9696969696969693,-2.9797979797979792 -1.9696969696969693,-3.0808080808080804 -1.9696969696969693,-3.1818181818181817 -1.9696969696969693,-3.2828282828282824 -1.9696969696969693,-3.383838383838383 -1.9696969696969693,-3.484848484848485 -1.9696969696969693,-3.5858585858585856 -1.9696969696969693,-3.6868686868686864 -1.9696969696969693,-3.7878787878787876 -1.9696969696969693,-3.8888888888888884 -1.9696969696969693,-3.98989898989899 -1.9696969696969693,-4.090909090909091 -1.9696969696969693,-4.191919191919193 -1.9696969696969693,-4.292929292929293 -1.9696969696969693,-4.393939393939394 -1.9696969696969693,-4.494949494949496 -1.9696969696969693,-4.595959595959596 -1.9696969696969693,-4.696969696969697 -1.9696969696969693,-4.7979797979797985 -1.9696969696969693,-4.898989898989899 -1.9696969696969693,-5.000000000000001" data-type="line" data-label="" points="40.00000000000006,450.0202020202021 49.53535353535369,459.5555555555556 59.07070707070716,469.0909090909092 68.60606060606068,478.6262626262627 78.14141414141426,488.1616161616163 87.67676767676772,497.69696969696975 97.21212121212136,507.23232323232327 106.74747474747483,516.7676767676768 116.28282828282829,526.3030303030304 125.81818181818193,535.838383838384 135.35353535353545,545.3737373737374 144.88888888888903,554.909090909091 154.42424242424255,564.4444444444445 163.95959595959607,573.979797979798 173.4949494949496,583.5151515151516 183.03030303030312,593.0505050505051 192.5656565656567,602.5858585858587 202.10101010101022,612.1212121212121 211.63636363636374,621.6565656565657 221.17171717171726,631.1919191919193 230.70707070707084,640.7272727272727 240.2424242424243,650.2626262626263 249.77777777777783,659.7979797979798 259.3131313131314,669.3333333333334 268.84848484848493,678.8686868686868 278.38383838383845,688.4040404040404 287.91919191919203,697.939393939394 297.4545454545455,707.4747474747475 306.9898989898991,717.010101010101 316.5252525252526,726.5454545454545 326.0606060606061,736.0808080808081 326.0606060606061,745.6161616161615 326.0606060606061,755.1515151515151 326.0606060606061,764.6868686868687 326.0606060606061,774.2222222222222 326.0606060606061,783.7575757575758 326.0606060606061,793.2929292929292 326.0606060606061,802.8282828282828 326.0606060606061,812.3636363636363 326.0606060606061,821.8989898989898 326.0606060606061,831.4343434343434 326.0606060606061,840.969696969697 326.0606060606061,850.5050505050505 326.0606060606061,860.0404040404039 326.0606060606061,869.5757575757575 326.0606060606061,879.1111111111111 326.0606060606061,888.6464646464647 326.0606060606061,898.1818181818181 326.0606060606061,907.7171717171718 326.0606060606061,917.2525252525252 326.0606060606061,926.7878787878788 326.0606060606061,936.3232323232323 326.0606060606061,945.8585858585858 326.0606060606061,955.3939393939394 326.0606060606061,964.9292929292928 326.0606060606061,974.4646464646464 326.0606060606061,984" fill="none" stroke="rgba(255,0,0,0.75)" stroke-width="14.159999999999995"/></g><g><polyline data-points="3.4848484848484866,5.000000000000002 3.383838383838384,4.898989898989901 3.2828282828282833,4.7979797979797985 3.181818181818183,4.696969696969697 3.080808080808082,4.595959595959597 2.9797979797979806,4.494949494949497 2.87878787878788,4.393939393939394 2.7777777777777786,4.292929292929293 2.676767676767678,4.191919191919193 2.575757575757577,4.090909090909092 2.4747474747474754,3.989898989898992 2.373737373737375,3.8888888888888893 2.2727272727272734,3.7878787878787885 2.1717171717171726,3.6868686868686877 2.070707070707072,3.5858585858585874 1.9696969696969702,3.4848484848484866 1.8686868686868696,3.383838383838384 1.767676767676768,3.2828282828282833 1.6666666666666674,3.181818181818183 1.5656565656565666,3.080808080808082 1.4646464646464652,2.9797979797979806 1.3636363636363644,2.87878787878788 1.262626262626263,2.7777777777777786 1.1616161616161622,2.676767676767678 1.0606060606060617,2.575757575757577 0.9595959595959602,2.4747474747474754 0.8585858585858596,2.373737373737375 0.7575757575757579,2.2727272727272734 0.6565656565656574,2.1717171717171726 0.5555555555555567,2.070707070707072 0.4545454545454551,1.9696969696969702 0.3535353535353544,1.8686868686868696 0.2525252525252529,1.767676767676768 0.1515151515151522,1.6666666666666674 0.050505050505051545,1.5656565656565666 -0.05050505050505001,1.4646464646464652 -0.15151515151515066,1.3636363636363644 -0.2525252525252522,1.262626262626263 -0.35353535353535287,1.1616161616161622 -0.4545454545454544,1.0606060606060617 -0.555555555555555,0.9595959595959602 -0.6565656565656557,0.8585858585858596 -0.7575757575757572,0.7575757575757579 -0.8585858585858579,0.6565656565656574 -0.9595959595959596,0.5555555555555567 -1.0606060606060603,0.4545454545454551 -1.1616161616161613,0.3535353535353544 -1.2626262626262625,0.2525252525252529 -1.363636363636363,0.1515151515151522 -1.4646464646464643,0.050505050505051545 -1.5656565656565653,-0.05050505050505001 -1.6666666666666665,-0.15151515151515066 -1.7676767676767675,-0.2525252525252522 -1.8686868686868683,-0.35353535353535287 -1.9696969696969693,-0.4545454545454544 -2.07070707070707,-0.555555555555555 -2.1717171717171713,-0.6565656565656557 -2.2727272727272725,-0.7575757575757572 -2.3737373737373733,-0.8585858585858579 -2.474747474747474,-0.9595959595959596 -2.5757575757575752,-1.0606060606060603 -2.6767676767676765,-1.1616161616161613 -2.7777777777777777,-1.2626262626262625 -2.8787878787878785,-1.363636363636363 -2.9797979797979792,-1.4646464646464643 -3.0808080808080804,-1.5656565656565653 -3.1818181818181817,-1.6666666666666665 -3.2828282828282824,-1.7676767676767675 -3.383838383838383,-1.8686868686868683 -3.484848484848485,-1.9696969696969693 -3.5858585858585856,-2.07070707070707 -3.6868686868686864,-2.1717171717171713 -3.7878787878787876,-2.2727272727272725 -3.8888888888888884,-2.3737373737373733 -3.98989898989899,-2.474747474747474 -3.98989898989899,-2.5757575757575752 -3.98989898989899,-2.6767676767676765 -3.98989898989899,-2.7777777777777777 -3.98989898989899,-2.8787878787878785 -3.98989898989899,-2.9797979797979792 -3.98989898989899,-3.0808080808080804 -3.98989898989899,-3.1818181818181817 -3.98989898989899,-3.2828282828282824 -3.98989898989899,-3.383838383838383 -3.98989898989899,-3.484848484848485 -3.98989898989899,-3.5858585858585856 -3.98989898989899,-3.6868686868686864 -3.98989898989899,-3.7878787878787876" data-type="line" data-label="" points="840.969696969697,40.000000000000114 831.4343434343433,49.53535353535369 821.8989898989898,59.07070707070733 812.3636363636363,68.60606060606085 802.8282828282828,78.14141414141432 793.2929292929292,87.67676767676778 783.7575757575758,97.21212121212153 774.2222222222222,106.747474747475 764.6868686868686,116.28282828282846 755.1515151515151,125.81818181818198 745.6161616161615,135.35353535353545 736.0808080808081,144.88888888888908 726.5454545454545,154.4242424242426 717.0101010101009,163.95959595959613 707.4747474747475,173.4949494949496 697.9393939393939,183.03030303030312 688.4040404040404,192.56565656565675 678.8686868686868,202.10101010101027 669.3333333333333,211.63636363636374 659.7979797979798,221.17171717171726 650.2626262626262,230.70707070707084 640.7272727272727,240.24242424242436 631.1919191919192,249.77777777777794 621.6565656565656,259.3131313131314 612.1212121212121,268.84848484848493 602.5858585858585,278.38383838383857 593.0505050505051,287.91919191919203 583.5151515151515,297.4545454545456 573.9797979797979,306.9898989898991 564.4444444444445,316.5252525252526 554.9090909090909,326.06060606060623 545.3737373737374,335.5959595959597 535.8383838383838,345.1313131313133 526.3030303030303,354.66666666666674 516.7676767676768,364.2020202020203 507.2323232323232,373.73737373737384 497.69696969696975,383.27272727272737 488.16161616161617,392.80808080808094 478.62626262626264,402.3434343434344 469.09090909090907,411.87878787878793 459.55555555555554,421.4141414141415 450.0202020202021,430.94949494949503 440.4848484848485,440.4848484848486 430.949494949495,450.0202020202021 421.4141414141414,459.5555555555556 411.8787878787879,469.0909090909092 402.34343434343435,478.6262626262627 392.80808080808083,488.1616161616163 383.2727272727273,497.69696969696975 373.7373737373738,507.23232323232327 364.2020202020202,516.7676767676768 354.6666666666667,526.3030303030304 345.13131313131316,535.838383838384 335.59595959595964,545.3737373737374 326.0606060606061,554.909090909091 316.5252525252526,564.4444444444445 306.9898989898991,573.979797979798 297.4545454545455,583.5151515151516 287.91919191919203,593.0505050505051 278.38383838383845,602.5858585858587 268.84848484848493,612.1212121212121 259.3131313131314,621.6565656565657 249.77777777777783,631.1919191919193 240.2424242424243,640.7272727272727 230.70707070707084,650.2626262626263 221.17171717171726,659.7979797979798 211.63636363636374,669.3333333333334 202.10101010101022,678.8686868686868 192.5656565656567,688.4040404040404 183.03030303030312,697.939393939394 173.4949494949496,707.4747474747475 163.95959595959607,717.010101010101 154.42424242424255,726.5454545454545 144.88888888888903,736.0808080808081 135.35353535353545,745.6161616161615 135.35353535353545,755.1515151515151 135.35353535353545,764.6868686868687 135.35353535353545,774.2222222222222 135.35353535353545,783.7575757575758 135.35353535353545,793.2929292929292 135.35353535353545,802.8282828282828 135.35353535353545,812.3636363636363 135.35353535353545,821.8989898989898 135.35353535353545,831.4343434343434 135.35353535353545,840.969696969697 135.35353535353545,850.5050505050505 135.35353535353545,860.0404040404039 135.35353535353545,869.5757575757575" fill="none" stroke="rgba(0,0,255,0.75)" stroke-width="14.159999999999995"/></g><g><polyline data-points="-3.98989898989899,-3.7878787878787876 -4.090909090909091,-3.8888888888888884 -4.191919191919193,-3.98989898989899 -4.292929292929293,-4.090909090909091 -4.393939393939394,-4.191919191919193 -4.494949494949496,-4.292929292929293 -4.595959595959596,-4.393939393939394 -4.696969696969697,-4.494949494949496 -4.7979797979797985,-4.494949494949496 -4.898989898989899,-4.494949494949496 -5.000000000000001,-4.494949494949496" data-type="line" data-label="" points="135.35353535353545,869.5757575757575 125.81818181818193,879.1111111111111 116.28282828282829,888.6464646464647 106.74747474747483,898.1818181818181 97.21212121212136,907.7171717171718 87.67676767676772,917.2525252525252 78.14141414141426,926.7878787878788 68.60606060606068,936.3232323232323 59.07070707070716,936.3232323232323 49.53535353535369,936.3232323232323 40.00000000000006,936.3232323232323" fill="none" stroke="rgba(255,0,0,0.75)" stroke-width="14.159999999999995"/></g><g><polyline data-points="-0.7575757575757572,5.000000000000002 -0.6565656565656557,4.898989898989901 -0.555555555555555,4.7979797979797985 -0.4545454545454544,4.696969696969697 -0.35353535353535287,4.595959595959597 -0.2525252525252522,4.494949494949497 -0.15151515151515066,4.393939393939394 -0.05050505050505001,4.292929292929293 0.050505050505051545,4.191919191919193 0.1515151515151522,4.090909090909092 0.2525252525252529,3.989898989898992 0.3535353535353544,3.8888888888888893 0.4545454545454551,3.7878787878787885 0.5555555555555567,3.6868686868686877 0.6565656565656574,3.5858585858585874 0.7575757575757579,3.4848484848484866 0.8585858585858596,3.383838383838384 0.9595959595959602,3.2828282828282833" data-type="line" data-label="" points="440.4848484848485,40.000000000000114 450.0202020202021,49.53535353535369 459.55555555555554,59.07070707070733 469.09090909090907,68.60606060606085 478.62626262626264,78.14141414141432 488.16161616161617,87.67676767676778 497.69696969696975,97.21212121212153 507.2323232323232,106.747474747475 516.7676767676768,116.28282828282846 526.3030303030303,125.81818181818198 535.8383838383838,135.35353535353545 545.3737373737374,144.88888888888908 554.9090909090909,154.4242424242426 564.4444444444445,163.95959595959613 573.9797979797979,173.4949494949496 583.5151515151515,183.03030303030312 593.0505050505051,192.56565656565675 602.5858585858585,202.10101010101027" fill="none" stroke="rgba(0,0,255,0.75)" stroke-width="14.159999999999995"/></g><g><polyline data-points="0.9595959595959602,3.2828282828282833 1.0606060606060617,3.181818181818183 1.1616161616161622,3.080808080808082 1.262626262626263,2.9797979797979806 1.3636363636363644,2.87878787878788 1.4646464646464652,2.7777777777777786 1.5656565656565666,2.676767676767678 1.6666666666666674,2.575757575757577 1.767676767676768,2.4747474747474754 1.8686868686868696,2.373737373737375 1.9696969696969702,2.2727272727272734 2.070707070707072,2.1717171717171726 2.1717171717171726,2.070707070707072 2.2727272727272734,1.9696969696969702 2.373737373737375,1.8686868686868696 2.4747474747474754,1.767676767676768 2.575757575757577,1.6666666666666674 2.676767676767678,1.5656565656565666 2.7777777777777786,1.4646464646464652 2.87878787878788,1.3636363636363644 2.9797979797979806,1.262626262626263 3.080808080808082,1.1616161616161622 3.181818181818183,1.0606060606060617 3.2828282828282833,0.9595959595959602 3.383838383838384,0.8585858585858596 3.4848484848484866,0.7575757575757579 3.5858585858585874,0.6565656565656574 3.6868686868686877,0.6565656565656574 3.7878787878787885,0.6565656565656574 3.8888888888888893,0.6565656565656574 3.989898989898992,0.6565656565656574 4.090909090909092,0.6565656565656574 4.191919191919193,0.6565656565656574 4.292929292929293,0.6565656565656574 4.393939393939394,0.6565656565656574 4.494949494949497,0.6565656565656574 4.595959595959597,0.6565656565656574 4.696969696969697,0.6565656565656574 4.7979797979797985,0.6565656565656574 4.898989898989901,0.6565656565656574 5.000000000000002,0.6565656565656574" data-type="line" data-label="" points="602.5858585858585,202.10101010101027 612.1212121212121,211.63636363636374 621.6565656565656,221.17171717171726 631.1919191919192,230.70707070707084 640.7272727272727,240.24242424242436 650.2626262626262,249.77777777777794 659.7979797979798,259.3131313131314 669.3333333333333,268.84848484848493 678.8686868686868,278.38383838383857 688.4040404040404,287.91919191919203 697.9393939393939,297.4545454545456 707.4747474747475,306.9898989898991 717.0101010101009,316.5252525252526 726.5454545454545,326.06060606060623 736.0808080808081,335.5959595959597 745.6161616161615,345.1313131313133 755.1515151515151,354.66666666666674 764.6868686868686,364.2020202020203 774.2222222222222,373.73737373737384 783.7575757575758,383.27272727272737 793.2929292929292,392.80808080808094 802.8282828282828,402.3434343434344 812.3636363636363,411.87878787878793 821.8989898989898,421.4141414141415 831.4343434343433,430.94949494949503 840.969696969697,440.4848484848486 850.5050505050505,450.0202020202021 860.0404040404039,450.0202020202021 869.5757575757575,450.0202020202021 879.111111111111,450.0202020202021 888.6464646464647,450.0202020202021 898.181818181818,450.0202020202021 907.7171717171716,450.0202020202021 917.2525252525251,450.0202020202021 926.7878787878785,450.0202020202021 936.3232323232323,450.0202020202021 945.8585858585857,450.0202020202021 955.3939393939393,450.0202020202021 964.9292929292927,450.0202020202021 974.4646464646464,450.0202020202021 984,450.0202020202021" fill="none" stroke="rgba(255,0,0,0.75)" stroke-width="14.159999999999995"/></g><g><polyline data-points="5.000000000000002,-2.5757575757575752 5.000000000000002,-2.474747474747474 5.000000000000002,-2.3737373737373733 5.000000000000002,-2.2727272727272725 5.000000000000002,-2.1717171717171713 5.000000000000002,-2.07070707070707 5.000000000000002,-1.9696969696969693 5.000000000000002,-1.8686868686868683 4.898989898989901,-1.7676767676767675 4.7979797979797985,-1.6666666666666665 4.696969696969697,-1.5656565656565653 4.595959595959597,-1.4646464646464643 4.494949494949497,-1.363636363636363 4.393939393939394,-1.2626262626262625 4.292929292929293,-1.1616161616161613 4.191919191919193,-1.0606060606060603 4.090909090909092,-0.9595959595959596 3.989898989898992,-0.8585858585858579" data-type="line" data-label="" points="984,755.1515151515151 984,745.6161616161615 984,736.0808080808081 984,726.5454545454545 984,717.010101010101 984,707.4747474747475 984,697.939393939394 984,688.4040404040404 974.4646464646464,678.8686868686868 964.9292929292927,669.3333333333334 955.3939393939393,659.7979797979798 945.8585858585857,650.2626262626263 936.3232323232323,640.7272727272727 926.7878787878785,631.1919191919193 917.2525252525251,621.6565656565657 907.7171717171716,612.1212121212121 898.181818181818,602.5858585858587 888.6464646464647,593.0505050505051" fill="none" stroke="rgba(255,0,0,0.75)" stroke-width="14.159999999999995"/></g><g><polyline data-points="3.989898989898992,-0.8585858585858579 4.090909090909092,-0.7575757575757572 4.191919191919193,-0.6565656565656557 4.292929292929293,-0.555555555555555 4.393939393939394,-0.4545454545454544 4.494949494949497,-0.35353535353535287 4.595959595959597,-0.2525252525252522 4.696969696969697,-0.15151515151515066 4.7979797979797985,-0.05050505050505001 4.898989898989901,-0.05050505050505001 5.000000000000002,-0.05050505050505001" data-type="line" data-label="" points="888.6464646464647,593.0505050505051 898.181818181818,583.5151515151516 907.7171717171716,573.979797979798 917.2525252525251,564.4444444444445 926.7878787878785,554.909090909091 936.3232323232323,545.3737373737374 945.8585858585857,535.838383838384 955.3939393939393,526.3030303030304 964.9292929292927,516.7676767676768 974.4646464646464,516.7676767676768 984,516.7676767676768" fill="none" stroke="rgba(0,0,255,0.75)" stroke-width="14.159999999999995"/></g><g><polyline data-points="-3.2828282828282824,5.000000000000002 -3.1818181818181817,4.898989898989901 -3.0808080808080804,4.7979797979797985 -2.9797979797979792,4.696969696969697 -2.8787878787878785,4.595959595959597 -2.7777777777777777,4.494949494949497 -2.6767676767676765,4.393939393939394 -2.5757575757575752,4.292929292929293 -2.474747474747474,4.191919191919193 -2.3737373737373733,4.090909090909092 -2.2727272727272725,3.989898989898992 -2.1717171717171713,3.8888888888888893 -2.07070707070707,3.7878787878787885 -1.9696969696969693,3.6868686868686877 -1.8686868686868683,3.5858585858585874 -1.7676767676767675,3.4848484848484866 -1.6666666666666665,3.383838383838384 -1.5656565656565653,3.2828282828282833 -1.4646464646464643,3.181818181818183 -1.363636363636363,3.080808080808082 -1.2626262626262625,2.9797979797979806 -1.1616161616161613,2.87878787878788 -1.0606060606060603,2.7777777777777786 -0.9595959595959596,2.676767676767678 -0.8585858585858579,2.575757575757577 -0.7575757575757572,2.4747474747474754 -0.6565656565656557,2.373737373737375 -0.555555555555555,2.2727272727272734 -0.4545454545454544,2.1717171717171726 -0.35353535353535287,2.070707070707072 -0.2525252525252522,1.9696969696969702 -0.15151515151515066,1.8686868686868696 -0.05050505050505001,1.767676767676768 0.050505050505051545,1.6666666666666674 0.1515151515151522,1.5656565656565666 0.2525252525252529,1.4646464646464652 0.3535353535353544,1.3636363636363644 0.4545454545454551,1.262626262626263 0.5555555555555567,1.1616161616161622 0.6565656565656574,1.0606060606060617 0.7575757575757579,0.9595959595959602 0.8585858585858596,0.8585858585858596 0.9595959595959602,0.7575757575757579 1.0606060606060617,0.6565656565656574 1.1616161616161622,0.5555555555555567 1.262626262626263,0.4545454545454551 1.3636363636363644,0.3535353535353544 1.4646464646464652,0.2525252525252529 1.5656565656565666,0.1515151515151522 1.6666666666666674,0.050505050505051545 1.767676767676768,-0.05050505050505001 1.8686868686868696,-0.15151515151515066 1.9696969696969702,-0.2525252525252522 2.070707070707072,-0.35353535353535287 2.1717171717171726,-0.4545454545454544 2.2727272727272734,-0.555555555555555 2.373737373737375,-0.6565656565656557 2.4747474747474754,-0.7575757575757572 2.575757575757577,-0.8585858585858579 2.676767676767678,-0.9595959595959596 2.7777777777777786,-1.0606060606060603 2.87878787878788,-1.1616161616161613 2.9797979797979806,-1.2626262626262625 3.080808080808082,-1.363636363636363 3.181818181818183,-1.4646464646464643 3.2828282828282833,-1.5656565656565653 3.383838383838384,-1.6666666666666665 3.4848484848484866,-1.7676767676767675 3.5858585858585874,-1.8686868686868683 3.6868686868686877,-1.9696969696969693 3.7878787878787885,-2.07070707070707 3.8888888888888893,-2.1717171717171713 3.989898989898992,-2.2727272727272725 3.989898989898992,-2.3737373737373733 3.989898989898992,-2.474747474747474 3.989898989898992,-2.5757575757575752 3.989898989898992,-2.6767676767676765 3.989898989898992,-2.7777777777777777 3.989898989898992,-2.8787878787878785 3.989898989898992,-2.9797979797979792 3.989898989898992,-3.0808080808080804 3.989898989898992,-3.1818181818181817 3.989898989898992,-3.2828282828282824 3.989898989898992,-3.383838383838383 3.989898989898992,-3.484848484848485 3.989898989898992,-3.5858585858585856" data-type="line" data-label="" points="202.10101010101022,40.000000000000114 211.63636363636374,49.53535353535369 221.17171717171726,59.07070707070733 230.70707070707084,68.60606060606085 240.2424242424243,78.14141414141432 249.77777777777783,87.67676767676778 259.3131313131314,97.21212121212153 268.84848484848493,106.747474747475 278.38383838383845,116.28282828282846 287.91919191919203,125.81818181818198 297.4545454545455,135.35353535353545 306.9898989898991,144.88888888888908 316.5252525252526,154.4242424242426 326.0606060606061,163.95959595959613 335.59595959595964,173.4949494949496 345.13131313131316,183.03030303030312 354.6666666666667,192.56565656565675 364.2020202020202,202.10101010101027 373.7373737373738,211.63636363636374 383.2727272727273,221.17171717171726 392.80808080808083,230.70707070707084 402.34343434343435,240.24242424242436 411.8787878787879,249.77777777777794 421.4141414141414,259.3131313131314 430.949494949495,268.84848484848493 440.4848484848485,278.38383838383857 450.0202020202021,287.91919191919203 459.55555555555554,297.4545454545456 469.09090909090907,306.9898989898991 478.62626262626264,316.5252525252526 488.16161616161617,326.06060606060623 497.69696969696975,335.5959595959597 507.2323232323232,345.1313131313133 516.7676767676768,354.66666666666674 526.3030303030303,364.2020202020203 535.8383838383838,373.73737373737384 545.3737373737374,383.27272727272737 554.9090909090909,392.80808080808094 564.4444444444445,402.3434343434344 573.9797979797979,411.87878787878793 583.5151515151515,421.4141414141415 593.0505050505051,430.94949494949503 602.5858585858585,440.4848484848486 612.1212121212121,450.0202020202021 621.6565656565656,459.5555555555556 631.1919191919192,469.0909090909092 640.7272727272727,478.6262626262627 650.2626262626262,488.1616161616163 659.7979797979798,497.69696969696975 669.3333333333333,507.23232323232327 678.8686868686868,516.7676767676768 688.4040404040404,526.3030303030304 697.9393939393939,535.838383838384 707.4747474747475,545.3737373737374 717.0101010101009,554.909090909091 726.5454545454545,564.4444444444445 736.0808080808081,573.979797979798 745.6161616161615,583.5151515151516 755.1515151515151,593.0505050505051 764.6868686868686,602.5858585858587 774.2222222222222,612.1212121212121 783.7575757575758,621.6565656565657 793.2929292929292,631.1919191919193 802.8282828282828,640.7272727272727 812.3636363636363,650.2626262626263 821.8989898989898,659.7979797979798 831.4343434343433,669.3333333333334 840.969696969697,678.8686868686868 850.5050505050505,688.4040404040404 860.0404040404039,697.939393939394 869.5757575757575,707.4747474747475 879.111111111111,717.010101010101 888.6464646464647,726.5454545454545 888.6464646464647,736.0808080808081 888.6464646464647,745.6161616161615 888.6464646464647,755.1515151515151 888.6464646464647,764.6868686868687 888.6464646464647,774.2222222222222 888.6464646464647,783.7575757575758 888.6464646464647,793.2929292929292 888.6464646464647,802.8282828282828 888.6464646464647,812.3636363636363 888.6464646464647,821.8989898989898 888.6464646464647,831.4343434343434 888.6464646464647,840.969696969697 888.6464646464647,850.5050505050505" fill="none" stroke="rgba(255,0,0,0.75)" stroke-width="14.159999999999995"/></g><g><polyline data-points="3.989898989898992,-3.5858585858585856 4.090909090909092,-3.6868686868686864 4.191919191919193,-3.7878787878787876 4.292929292929293,-3.8888888888888884 4.292929292929293,-3.98989898989899 4.292929292929293,-4.090909090909091 4.292929292929293,-4.191919191919193 4.292929292929293,-4.292929292929293 4.292929292929293,-4.393939393939394 4.292929292929293,-4.494949494949496 4.292929292929293,-4.595959595959596 4.292929292929293,-4.696969696969697 4.292929292929293,-4.7979797979797985 4.292929292929293,-4.898989898989899 4.292929292929293,-5.000000000000001" data-type="line" data-label="" points="888.6464646464647,850.5050505050505 898.181818181818,860.0404040404039 907.7171717171716,869.5757575757575 917.2525252525251,879.1111111111111 917.2525252525251,888.6464646464647 917.2525252525251,898.1818181818181 917.2525252525251,907.7171717171718 917.2525252525251,917.2525252525252 917.2525252525251,926.7878787878788 917.2525252525251,936.3232323232323 917.2525252525251,945.8585858585858 917.2525252525251,955.3939393939394 917.2525252525251,964.9292929292928 917.2525252525251,974.4646464646464 917.2525252525251,984" fill="none" stroke="rgba(0,0,255,0.75)" stroke-width="14.159999999999995"/></g><g><polyline data-points="2.2727272727272734,-5.000000000000001 2.1717171717171726,-4.898989898989899 2.070707070707072,-4.7979797979797985 1.9696969696969702,-4.696969696969697 1.8686868686868696,-4.595959595959596 1.767676767676768,-4.494949494949496 1.6666666666666674,-4.393939393939394 1.5656565656565666,-4.292929292929293 1.4646464646464652,-4.191919191919193 1.3636363636363644,-4.090909090909091 1.262626262626263,-3.98989898989899 1.1616161616161622,-3.8888888888888884 1.0606060606060617,-3.7878787878787876 0.9595959595959602,-3.6868686868686864 0.8585858585858596,-3.5858585858585856 0.7575757575757579,-3.484848484848485 0.6565656565656574,-3.383838383838383 0.5555555555555567,-3.2828282828282824 0.4545454545454551,-3.1818181818181817 0.3535353535353544,-3.0808080808080804 0.2525252525252529,-2.9797979797979792 0.1515151515151522,-2.8787878787878785 0.050505050505051545,-2.7777777777777777 -0.05050505050505001,-2.6767676767676765 -0.15151515151515066,-2.5757575757575752 -0.2525252525252522,-2.474747474747474 -0.35353535353535287,-2.3737373737373733 -0.4545454545454544,-2.2727272727272725 -0.555555555555555,-2.2727272727272725 -0.6565656565656557,-2.2727272727272725 -0.7575757575757572,-2.2727272727272725 -0.8585858585858579,-2.2727272727272725 -0.9595959595959596,-2.2727272727272725 -1.0606060606060603,-2.2727272727272725 -1.1616161616161613,-2.2727272727272725 -1.2626262626262625,-2.2727272727272725 -1.363636363636363,-2.2727272727272725 -1.4646464646464643,-2.2727272727272725 -1.5656565656565653,-2.2727272727272725 -1.6666666666666665,-2.2727272727272725 -1.7676767676767675,-2.2727272727272725 -1.8686868686868683,-2.2727272727272725 -1.9696969696969693,-2.2727272727272725 -2.07070707070707,-2.2727272727272725 -2.1717171717171713,-2.2727272727272725 -2.2727272727272725,-2.2727272727272725 -2.3737373737373733,-2.2727272727272725 -2.474747474747474,-2.2727272727272725 -2.5757575757575752,-2.2727272727272725 -2.6767676767676765,-2.2727272727272725 -2.7777777777777777,-2.2727272727272725 -2.8787878787878785,-2.2727272727272725" data-type="line" data-label="" points="726.5454545454545,984 717.0101010101009,974.4646464646464 707.4747474747475,964.9292929292928 697.9393939393939,955.3939393939394 688.4040404040404,945.8585858585858 678.8686868686868,936.3232323232323 669.3333333333333,926.7878787878788 659.7979797979798,917.2525252525252 650.2626262626262,907.7171717171718 640.7272727272727,898.1818181818181 631.1919191919192,888.6464646464647 621.6565656565656,879.1111111111111 612.1212121212121,869.5757575757575 602.5858585858585,860.0404040404039 593.0505050505051,850.5050505050505 583.5151515151515,840.969696969697 573.9797979797979,831.4343434343434 564.4444444444445,821.8989898989898 554.9090909090909,812.3636363636363 545.3737373737374,802.8282828282828 535.8383838383838,793.2929292929292 526.3030303030303,783.7575757575758 516.7676767676768,774.2222222222222 507.2323232323232,764.6868686868687 497.69696969696975,755.1515151515151 488.16161616161617,745.6161616161615 478.62626262626264,736.0808080808081 469.09090909090907,726.5454545454545 459.55555555555554,726.5454545454545 450.0202020202021,726.5454545454545 440.4848484848485,726.5454545454545 430.949494949495,726.5454545454545 421.4141414141414,726.5454545454545 411.8787878787879,726.5454545454545 402.34343434343435,726.5454545454545 392.80808080808083,726.5454545454545 383.2727272727273,726.5454545454545 373.7373737373738,726.5454545454545 364.2020202020202,726.5454545454545 354.6666666666667,726.5454545454545 345.13131313131316,726.5454545454545 335.59595959595964,726.5454545454545 326.0606060606061,726.5454545454545 316.5252525252526,726.5454545454545 306.9898989898991,726.5454545454545 297.4545454545455,726.5454545454545 287.91919191919203,726.5454545454545 278.38383838383845,726.5454545454545 268.84848484848493,726.5454545454545 259.3131313131314,726.5454545454545 249.77777777777783,726.5454545454545 240.2424242424243,726.5454545454545" fill="none" stroke="rgba(0,0,255,0.75)" stroke-width="14.159999999999995"/></g><g><polyline data-points="-2.8787878787878785,-2.2727272727272725 -2.9797979797979792,-2.1717171717171713 -3.0808080808080804,-2.07070707070707 -3.1818181818181817,-1.9696969696969693 -3.2828282828282824,-1.8686868686868683 -3.383838383838383,-1.7676767676767675 -3.484848484848485,-1.6666666666666665 -3.5858585858585856,-1.5656565656565653 -3.6868686868686864,-1.4646464646464643 -3.7878787878787876,-1.363636363636363 -3.8888888888888884,-1.2626262626262625 -3.98989898989899,-1.1616161616161613 -4.090909090909091,-1.0606060606060603 -4.191919191919193,-0.9595959595959596 -4.292929292929293,-0.8585858585858579 -4.393939393939394,-0.7575757575757572 -4.494949494949496,-0.6565656565656557 -4.595959595959596,-0.555555555555555 -4.696969696969697,-0.555555555555555 -4.7979797979797985,-0.555555555555555 -4.898989898989899,-0.555555555555555 -5.000000000000001,-0.555555555555555" data-type="line" data-label="" points="240.2424242424243,726.5454545454545 230.70707070707084,717.010101010101 221.17171717171726,707.4747474747475 211.63636363636374,697.939393939394 202.10101010101022,688.4040404040404 192.5656565656567,678.8686868686868 183.03030303030312,669.3333333333334 173.4949494949496,659.7979797979798 163.95959595959607,650.2626262626263 154.42424242424255,640.7272727272727 144.88888888888903,631.1919191919193 135.35353535353545,621.6565656565657 125.81818181818193,612.1212121212121 116.28282828282829,602.5858585858587 106.74747474747483,593.0505050505051 97.21212121212136,583.5151515151516 87.67676767676772,573.979797979798 78.14141414141426,564.4444444444445 68.60606060606068,564.4444444444445 59.07070707070716,564.4444444444445 49.53535353535369,564.4444444444445 40.00000000000006,564.4444444444445" fill="none" stroke="rgba(255,0,0,0.75)" stroke-width="14.159999999999995"/></g><g><polyline data-points="-5.000000000000001,-2.3737373737373733 -4.898989898989899,-2.3737373737373733 -4.7979797979797985,-2.3737373737373733 -4.696969696969697,-2.3737373737373733 -4.595959595959596,-2.3737373737373733 -4.494949494949496,-2.3737373737373733 -4.393939393939394,-2.3737373737373733 -4.292929292929293,-2.3737373737373733 -4.191919191919193,-2.3737373737373733 -4.090909090909091,-2.3737373737373733 -3.98989898989899,-2.3737373737373733 -3.8888888888888884,-2.3737373737373733 -3.7878787878787876,-2.474747474747474 -3.6868686868686864,-2.5757575757575752 -3.5858585858585856,-2.6767676767676765 -3.484848484848485,-2.7777777777777777 -3.383838383838383,-2.8787878787878785" data-type="line" data-label="" points="40.00000000000006,736.0808080808081 49.53535353535369,736.0808080808081 59.07070707070716,736.0808080808081 68.60606060606068,736.0808080808081 78.14141414141426,736.0808080808081 87.67676767676772,736.0808080808081 97.21212121212136,736.0808080808081 106.74747474747483,736.0808080808081 116.28282828282829,736.0808080808081 125.81818181818193,736.0808080808081 135.35353535353545,736.0808080808081 144.88888888888903,736.0808080808081 154.42424242424255,745.6161616161615 163.95959595959607,755.1515151515151 173.4949494949496,764.6868686868687 183.03030303030312,774.2222222222222 192.5656565656567,783.7575757575758" fill="none" stroke="rgba(255,0,0,0.75)" stroke-width="14.159999999999995"/></g><g><polyline data-points="-3.383838383838383,-2.8787878787878785 -3.383838383838383,-2.7777777777777777 -3.383838383838383,-2.6767676767676765 -3.383838383838383,-2.5757575757575752 -3.383838383838383,-2.474747474747474 -3.383838383838383,-2.3737373737373733 -3.383838383838383,-2.2727272727272725 -3.2828282828282824,-2.1717171717171713 -3.2828282828282824,-2.07070707070707 -3.1818181818181817,-1.9696969696969693 -3.0808080808080804,-1.8686868686868683 -2.9797979797979792,-1.7676767676767675 -2.8787878787878785,-1.6666666666666665 -2.7777777777777777,-1.5656565656565653 -2.6767676767676765,-1.4646464646464643 -2.5757575757575752,-1.363636363636363 -2.474747474747474,-1.363636363636363 -2.3737373737373733,-1.363636363636363 -2.2727272727272725,-1.363636363636363 -2.1717171717171713,-1.363636363636363 -2.07070707070707,-1.363636363636363 -1.9696969696969693,-1.363636363636363 -1.8686868686868683,-1.363636363636363 -1.7676767676767675,-1.363636363636363 -1.6666666666666665,-1.363636363636363 -1.5656565656565653,-1.363636363636363 -1.4646464646464643,-1.363636363636363 -1.363636363636363,-1.363636363636363 -1.2626262626262625,-1.363636363636363 -1.1616161616161613,-1.363636363636363 -1.0606060606060603,-1.363636363636363 -0.9595959595959596,-1.363636363636363 -0.8585858585858579,-1.363636363636363 -0.7575757575757572,-1.363636363636363 -0.6565656565656557,-1.363636363636363 -0.555555555555555,-1.363636363636363 -0.4545454545454544,-1.363636363636363 -0.35353535353535287,-1.363636363636363 -0.2525252525252522,-1.363636363636363 -0.15151515151515066,-1.363636363636363 -0.05050505050505001,-1.363636363636363 0.050505050505051545,-1.363636363636363 0.1515151515151522,-1.363636363636363 0.2525252525252529,-1.363636363636363 0.3535353535353544,-1.363636363636363 0.4545454545454551,-1.363636363636363 0.5555555555555567,-1.363636363636363 0.6565656565656574,-1.363636363636363 0.7575757575757579,-1.363636363636363 0.8585858585858596,-1.363636363636363 0.9595959595959602,-1.363636363636363 1.0606060606060617,-1.363636363636363 1.1616161616161622,-1.363636363636363 1.262626262626263,-1.363636363636363 1.3636363636363644,-1.363636363636363 1.4646464646464652,-1.363636363636363 1.5656565656565666,-1.363636363636363 1.6666666666666674,-1.363636363636363 1.767676767676768,-1.363636363636363 1.8686868686868696,-1.363636363636363 1.9696969696969702,-1.363636363636363 2.070707070707072,-1.363636363636363 2.1717171717171726,-1.363636363636363 2.2727272727272734,-1.363636363636363 2.373737373737375,-1.363636363636363 2.4747474747474754,-1.363636363636363 2.575757575757577,-1.363636363636363 2.676767676767678,-1.363636363636363 2.7777777777777786,-1.363636363636363 2.87878787878788,-1.363636363636363 2.9797979797979806,-1.363636363636363 3.080808080808082,-1.363636363636363 3.181818181818183,-1.363636363636363 3.2828282828282833,-1.363636363636363 3.383838383838384,-1.363636363636363 3.4848484848484866,-1.363636363636363 3.5858585858585874,-1.363636363636363 3.6868686868686877,-1.363636363636363 3.7878787878787885,-1.363636363636363 3.8888888888888893,-1.363636363636363 3.989898989898992,-1.363636363636363 4.090909090909092,-1.2626262626262625 4.191919191919193,-1.2626262626262625 4.292929292929293,-1.1616161616161613 4.393939393939394,-1.1616161616161613 4.494949494949497,-1.1616161616161613 4.595959595959597,-1.1616161616161613 4.696969696969697,-1.1616161616161613 4.7979797979797985,-1.1616161616161613 4.898989898989901,-1.1616161616161613 5.000000000000002,-1.1616161616161613" data-type="line" data-label="" points="192.5656565656567,783.7575757575758 192.5656565656567,774.2222222222222 192.5656565656567,764.6868686868687 192.5656565656567,755.1515151515151 192.5656565656567,745.6161616161615 192.5656565656567,736.0808080808081 192.5656565656567,726.5454545454545 202.10101010101022,717.010101010101 202.10101010101022,707.4747474747475 211.63636363636374,697.939393939394 221.17171717171726,688.4040404040404 230.70707070707084,678.8686868686868 240.2424242424243,669.3333333333334 249.77777777777783,659.7979797979798 259.3131313131314,650.2626262626263 268.84848484848493,640.7272727272727 278.38383838383845,640.7272727272727 287.91919191919203,640.7272727272727 297.4545454545455,640.7272727272727 306.9898989898991,640.7272727272727 316.5252525252526,640.7272727272727 326.0606060606061,640.7272727272727 335.59595959595964,640.7272727272727 345.13131313131316,640.7272727272727 354.6666666666667,640.7272727272727 364.2020202020202,640.7272727272727 373.7373737373738,640.7272727272727 383.2727272727273,640.7272727272727 392.80808080808083,640.7272727272727 402.34343434343435,640.7272727272727 411.8787878787879,640.7272727272727 421.4141414141414,640.7272727272727 430.949494949495,640.7272727272727 440.4848484848485,640.7272727272727 450.0202020202021,640.7272727272727 459.55555555555554,640.7272727272727 469.09090909090907,640.7272727272727 478.62626262626264,640.7272727272727 488.16161616161617,640.7272727272727 497.69696969696975,640.7272727272727 507.2323232323232,640.7272727272727 516.7676767676768,640.7272727272727 526.3030303030303,640.7272727272727 535.8383838383838,640.7272727272727 545.3737373737374,640.7272727272727 554.9090909090909,640.7272727272727 564.4444444444445,640.7272727272727 573.9797979797979,640.7272727272727 583.5151515151515,640.7272727272727 593.0505050505051,640.7272727272727 602.5858585858585,640.7272727272727 612.1212121212121,640.7272727272727 621.6565656565656,640.7272727272727 631.1919191919192,640.7272727272727 640.7272727272727,640.7272727272727 650.2626262626262,640.7272727272727 659.7979797979798,640.7272727272727 669.3333333333333,640.7272727272727 678.8686868686868,640.7272727272727 688.4040404040404,640.7272727272727 697.9393939393939,640.7272727272727 707.4747474747475,640.7272727272727 717.0101010101009,640.7272727272727 726.5454545454545,640.7272727272727 736.0808080808081,640.7272727272727 745.6161616161615,640.7272727272727 755.1515151515151,640.7272727272727 764.6868686868686,640.7272727272727 774.2222222222222,640.7272727272727 783.7575757575758,640.7272727272727 793.2929292929292,640.7272727272727 802.8282828282828,640.7272727272727 812.3636363636363,640.7272727272727 821.8989898989898,640.7272727272727 831.4343434343433,640.7272727272727 840.969696969697,640.7272727272727 850.5050505050505,640.7272727272727 860.0404040404039,640.7272727272727 869.5757575757575,640.7272727272727 879.111111111111,640.7272727272727 888.6464646464647,640.7272727272727 898.181818181818,631.1919191919193 907.7171717171716,631.1919191919193 917.2525252525251,621.6565656565657 926.7878787878785,621.6565656565657 936.3232323232323,621.6565656565657 945.8585858585857,621.6565656565657 955.3939393939393,621.6565656565657 964.9292929292927,621.6565656565657 974.4646464646464,621.6565656565657 984,621.6565656565657" fill="none" stroke="rgba(0,0,255,0.75)" stroke-width="14.159999999999995"/></g><g><polyline data-points="-1.9696969696969693,5.000000000000002 -1.8686868686868683,4.898989898989901 -1.7676767676767675,4.7979797979797985 -1.6666666666666665,4.696969696969697 -1.5656565656565653,4.595959595959597 -1.4646464646464643,4.494949494949497 -1.363636363636363,4.393939393939394 -1.2626262626262625,4.292929292929293 -1.1616161616161613,4.191919191919193 -1.0606060606060603,4.090909090909092 -0.9595959595959596,3.989898989898992 -0.8585858585858579,3.8888888888888893 -0.7575757575757572,3.7878787878787885 -0.6565656565656557,3.6868686868686877 -0.555555555555555,3.5858585858585874 -0.4545454545454544,3.4848484848484866 -0.35353535353535287,3.383838383838384 -0.2525252525252522,3.2828282828282833 -0.15151515151515066,3.181818181818183 -0.05050505050505001,3.080808080808082 0.050505050505051545,2.9797979797979806 0.1515151515151522,2.87878787878788 0.2525252525252529,2.7777777777777786 0.3535353535353544,2.676767676767678 0.4545454545454551,2.575757575757577 0.5555555555555567,2.4747474747474754 0.6565656565656574,2.373737373737375 0.7575757575757579,2.2727272727272734 0.8585858585858596,2.1717171717171726 0.9595959595959602,2.070707070707072 1.0606060606060617,1.9696969696969702 1.1616161616161622,1.8686868686868696 1.262626262626263,1.767676767676768 1.3636363636363644,1.6666666666666674 1.4646464646464652,1.5656565656565666 1.5656565656565666,1.4646464646464652 1.6666666666666674,1.3636363636363644 1.6666666666666674,1.262626262626263 1.6666666666666674,1.1616161616161622 1.6666666666666674,1.0606060606060617 1.6666666666666674,0.9595959595959602 1.6666666666666674,0.8585858585858596" data-type="line" data-label="" points="326.0606060606061,40.000000000000114 335.59595959595964,49.53535353535369 345.13131313131316,59.07070707070733 354.6666666666667,68.60606060606085 364.2020202020202,78.14141414141432 373.7373737373738,87.67676767676778 383.2727272727273,97.21212121212153 392.80808080808083,106.747474747475 402.34343434343435,116.28282828282846 411.8787878787879,125.81818181818198 421.4141414141414,135.35353535353545 430.949494949495,144.88888888888908 440.4848484848485,154.4242424242426 450.0202020202021,163.95959595959613 459.55555555555554,173.4949494949496 469.09090909090907,183.03030303030312 478.62626262626264,192.56565656565675 488.16161616161617,202.10101010101027 497.69696969696975,211.63636363636374 507.2323232323232,221.17171717171726 516.7676767676768,230.70707070707084 526.3030303030303,240.24242424242436 535.8383838383838,249.77777777777794 545.3737373737374,259.3131313131314 554.9090909090909,268.84848484848493 564.4444444444445,278.38383838383857 573.9797979797979,287.91919191919203 583.5151515151515,297.4545454545456 593.0505050505051,306.9898989898991 602.5858585858585,316.5252525252526 612.1212121212121,326.06060606060623 621.6565656565656,335.5959595959597 631.1919191919192,345.1313131313133 640.7272727272727,354.66666666666674 650.2626262626262,364.2020202020203 659.7979797979798,373.73737373737384 669.3333333333333,383.27272727272737 669.3333333333333,392.80808080808094 669.3333333333333,402.3434343434344 669.3333333333333,411.87878787878793 669.3333333333333,421.4141414141415 669.3333333333333,430.94949494949503" fill="none" stroke="rgba(255,0,0,0.75)" stroke-width="14.159999999999995"/></g><g><polyline data-points="1.6666666666666674,0.8585858585858596 1.6666666666666674,0.7575757575757579 1.6666666666666674,0.6565656565656574 1.6666666666666674,0.5555555555555567 1.6666666666666674,0.4545454545454551 1.6666666666666674,0.3535353535353544 1.6666666666666674,0.2525252525252529 1.6666666666666674,0.1515151515151522 1.6666666666666674,0.050505050505051545 1.6666666666666674,-0.05050505050505001 1.6666666666666674,-0.15151515151515066 1.6666666666666674,-0.2525252525252522 1.6666666666666674,-0.35353535353535287 1.6666666666666674,-0.4545454545454544 1.6666666666666674,-0.555555555555555 1.6666666666666674,-0.6565656565656557 1.6666666666666674,-0.7575757575757572" data-type="line" data-label="" points="669.3333333333333,430.94949494949503 669.3333333333333,440.4848484848486 669.3333333333333,450.0202020202021 669.3333333333333,459.5555555555556 669.3333333333333,469.0909090909092 669.3333333333333,478.6262626262627 669.3333333333333,488.1616161616163 669.3333333333333,497.69696969696975 669.3333333333333,507.23232323232327 669.3333333333333,516.7676767676768 669.3333333333333,526.3030303030304 669.3333333333333,535.838383838384 669.3333333333333,545.3737373737374 669.3333333333333,554.909090909091 669.3333333333333,564.4444444444445 669.3333333333333,573.979797979798 669.3333333333333,583.5151515151516" fill="none" stroke="rgba(0,0,255,0.75)" stroke-width="14.159999999999995"/></g><g><polyline data-points="1.6666666666666674,-0.7575757575757572 1.767676767676768,-0.8585858585858579 1.8686868686868696,-0.9595959595959596 1.9696969696969702,-1.0606060606060603 2.070707070707072,-1.1616161616161613 2.1717171717171726,-1.2626262626262625 2.2727272727272734,-1.363636363636363 2.373737373737375,-1.4646464646464643 2.4747474747474754,-1.5656565656565653 2.575757575757577,-1.6666666666666665 2.676767676767678,-1.7676767676767675 2.7777777777777786,-1.8686868686868683 2.87878787878788,-1.9696969696969693 2.9797979797979806,-2.07070707070707 3.080808080808082,-2.1717171717171713 3.181818181818183,-2.2727272727272725 3.2828282828282833,-2.3737373737373733 3.383838383838384,-2.474747474747474 3.383838383838384,-2.5757575757575752 3.383838383838384,-2.6767676767676765 3.383838383838384,-2.7777777777777777 3.383838383838384,-2.8787878787878785" data-type="line" data-label="" points="669.3333333333333,583.5151515151516 678.8686868686868,593.0505050505051 688.4040404040404,602.5858585858587 697.9393939393939,612.1212121212121 707.4747474747475,621.6565656565657 717.0101010101009,631.1919191919193 726.5454545454545,640.7272727272727 736.0808080808081,650.2626262626263 745.6161616161615,659.7979797979798 755.1515151515151,669.3333333333334 764.6868686868686,678.8686868686868 774.2222222222222,688.4040404040404 783.7575757575758,697.939393939394 793.2929292929292,707.4747474747475 802.8282828282828,717.010101010101 812.3636363636363,726.5454545454545 821.8989898989898,736.0808080808081 831.4343434343433,745.6161616161615 831.4343434343433,755.1515151515151 831.4343434343433,764.6868686868687 831.4343434343433,774.2222222222222 831.4343434343433,783.7575757575758" fill="none" stroke="rgba(255,0,0,0.75)" stroke-width="14.159999999999995"/></g><g><polyline data-points="3.383838383838384,-2.8787878787878785 3.4848484848484866,-2.9797979797979792 3.4848484848484866,-3.0808080808080804 3.4848484848484866,-3.1818181818181817 3.4848484848484866,-3.2828282828282824 3.4848484848484866,-3.383838383838383 3.4848484848484866,-3.484848484848485 3.4848484848484866,-3.5858585858585856 3.4848484848484866,-3.6868686868686864 3.4848484848484866,-3.7878787878787876 3.4848484848484866,-3.8888888888888884 3.4848484848484866,-3.98989898989899 3.4848484848484866,-4.090909090909091 3.4848484848484866,-4.191919191919193 3.4848484848484866,-4.292929292929293 3.4848484848484866,-4.393939393939394 3.4848484848484866,-4.494949494949496 3.4848484848484866,-4.595959595959596 3.4848484848484866,-4.696969696969697 3.4848484848484866,-4.7979797979797985 3.4848484848484866,-4.898989898989899 3.4848484848484866,-5.000000000000001" data-type="line" data-label="" points="831.4343434343433,783.7575757575758 840.969696969697,793.2929292929292 840.969696969697,802.8282828282828 840.969696969697,812.3636363636363 840.969696969697,821.8989898989898 840.969696969697,831.4343434343434 840.969696969697,840.969696969697 840.969696969697,850.5050505050505 840.969696969697,860.0404040404039 840.969696969697,869.5757575757575 840.969696969697,879.1111111111111 840.969696969697,888.6464646464647 840.969696969697,898.1818181818181 840.969696969697,907.7171717171718 840.969696969697,917.2525252525252 840.969696969697,926.7878787878788 840.969696969697,936.3232323232323 840.969696969697,945.8585858585858 840.969696969697,955.3939393939394 840.969696969697,964.9292929292928 840.969696969697,974.4646464646464 840.969696969697,984" fill="none" stroke="rgba(0,0,255,0.75)" stroke-width="14.159999999999995"/></g><g><polyline data-points="-5.000000000000001,-1.2626262626262625 -4.898989898989899,-1.2626262626262625 -4.7979797979797985,-1.2626262626262625 -4.696969696969697,-1.2626262626262625 -4.595959595959596,-1.2626262626262625 -4.494949494949496,-1.2626262626262625 -4.393939393939394,-1.2626262626262625 -4.292929292929293,-1.2626262626262625 -4.191919191919193,-1.2626262626262625 -4.090909090909091,-1.2626262626262625 -3.98989898989899,-1.2626262626262625 -3.8888888888888884,-1.2626262626262625 -3.7878787878787876,-1.2626262626262625 -3.6868686868686864,-1.2626262626262625 -3.5858585858585856,-1.1616161616161613 -3.484848484848485,-1.0606060606060603 -3.383838383838383,-0.9595959595959596 -3.2828282828282824,-0.8585858585858579 -3.1818181818181817,-0.7575757575757572 -3.0808080808080804,-0.6565656565656557 -2.9797979797979792,-0.555555555555555" data-type="line" data-label="" points="40.00000000000006,631.1919191919193 49.53535353535369,631.1919191919193 59.07070707070716,631.1919191919193 68.60606060606068,631.1919191919193 78.14141414141426,631.1919191919193 87.67676767676772,631.1919191919193 97.21212121212136,631.1919191919193 106.74747474747483,631.1919191919193 116.28282828282829,631.1919191919193 125.81818181818193,631.1919191919193 135.35353535353545,631.1919191919193 144.88888888888903,631.1919191919193 154.42424242424255,631.1919191919193 163.95959595959607,631.1919191919193 173.4949494949496,621.6565656565657 183.03030303030312,612.1212121212121 192.5656565656567,602.5858585858587 202.10101010101022,593.0505050505051 211.63636363636374,583.5151515151516 221.17171717171726,573.979797979798 230.70707070707084,564.4444444444445" fill="none" stroke="rgba(0,0,255,0.75)" stroke-width="14.159999999999995"/></g><g><polyline data-points="-2.9797979797979792,-0.555555555555555 -2.8787878787878785,-0.6565656565656557 -2.7777777777777777,-0.7575757575757572 -2.6767676767676765,-0.8585858585858579 -2.5757575757575752,-0.9595959595959596 -2.474747474747474,-1.0606060606060603 -2.3737373737373733,-1.1616161616161613 -2.2727272727272725,-1.2626262626262625 -2.1717171717171713,-1.363636363636363 -2.07070707070707,-1.4646464646464643 -1.9696969696969693,-1.5656565656565653 -1.8686868686868683,-1.6666666666666665 -1.7676767676767675,-1.7676767676767675 -1.7676767676767675,-1.8686868686868683 -1.7676767676767675,-1.9696969696969693 -1.7676767676767675,-2.07070707070707 -1.7676767676767675,-2.1717171717171713 -1.7676767676767675,-2.2727272727272725 -1.7676767676767675,-2.3737373737373733 -1.7676767676767675,-2.474747474747474 -1.7676767676767675,-2.5757575757575752 -1.7676767676767675,-2.6767676767676765 -1.7676767676767675,-2.7777777777777777 -1.7676767676767675,-2.8787878787878785 -1.7676767676767675,-2.9797979797979792 -1.7676767676767675,-3.0808080808080804 -1.6666666666666665,-3.1818181818181817 -1.5656565656565653,-3.2828282828282824 -1.4646464646464643,-3.383838383838383 -1.363636363636363,-3.484848484848485 -1.2626262626262625,-3.5858585858585856 -1.1616161616161613,-3.6868686868686864 -1.0606060606060603,-3.7878787878787876 -0.9595959595959596,-3.8888888888888884 -0.8585858585858579,-3.98989898989899 -0.7575757575757572,-4.090909090909091 -0.6565656565656557,-4.191919191919193 -0.555555555555555,-4.292929292929293 -0.4545454545454544,-4.393939393939394 -0.4545454545454544,-4.494949494949496 -0.4545454545454544,-4.595959595959596 -0.4545454545454544,-4.696969696969697 -0.4545454545454544,-4.7979797979797985 -0.4545454545454544,-4.898989898989899 -0.4545454545454544,-5.000000000000001" data-type="line" data-label="" points="230.70707070707084,564.4444444444445 240.2424242424243,573.979797979798 249.77777777777783,583.5151515151516 259.3131313131314,593.0505050505051 268.84848484848493,602.5858585858587 278.38383838383845,612.1212121212121 287.91919191919203,621.6565656565657 297.4545454545455,631.1919191919193 306.9898989898991,640.7272727272727 316.5252525252526,650.2626262626263 326.0606060606061,659.7979797979798 335.59595959595964,669.3333333333334 345.13131313131316,678.8686868686868 345.13131313131316,688.4040404040404 345.13131313131316,697.939393939394 345.13131313131316,707.4747474747475 345.13131313131316,717.010101010101 345.13131313131316,726.5454545454545 345.13131313131316,736.0808080808081 345.13131313131316,745.6161616161615 345.13131313131316,755.1515151515151 345.13131313131316,764.6868686868687 345.13131313131316,774.2222222222222 345.13131313131316,783.7575757575758 345.13131313131316,793.2929292929292 345.13131313131316,802.8282828282828 354.6666666666667,812.3636363636363 364.2020202020202,821.8989898989898 373.7373737373738,831.4343434343434 383.2727272727273,840.969696969697 392.80808080808083,850.5050505050505 402.34343434343435,860.0404040404039 411.8787878787879,869.5757575757575 421.4141414141414,879.1111111111111 430.949494949495,888.6464646464647 440.4848484848485,898.1818181818181 450.0202020202021,907.7171717171718 459.55555555555554,917.2525252525252 469.09090909090907,926.7878787878788 469.09090909090907,936.3232323232323 469.09090909090907,945.8585858585858 469.09090909090907,955.3939393939394 469.09090909090907,964.9292929292928 469.09090909090907,974.4646464646464 469.09090909090907,984" fill="none" stroke="rgba(255,0,0,0.75)" stroke-width="14.159999999999995"/></g><g><polyline data-points="-4.090909090909091,-5.000000000000001 -3.98989898989899,-5.000000000000001 -3.8888888888888884,-4.898989898989899 -3.7878787878787876,-4.7979797979797985 -3.6868686868686864,-4.696969696969697 -3.5858585858585856,-4.595959595959596 -3.484848484848485,-4.494949494949496 -3.383838383838383,-4.393939393939394 -3.2828282828282824,-4.292929292929293 -3.1818181818181817,-4.191919191919193 -3.0808080808080804,-4.090909090909091 -2.9797979797979792,-3.98989898989899 -2.8787878787878785,-3.8888888888888884 -2.7777777777777777,-3.7878787878787876 -2.6767676767676765,-3.6868686868686864 -2.5757575757575752,-3.5858585858585856 -2.474747474747474,-3.484848484848485 -2.3737373737373733,-3.383838383838383 -2.2727272727272725,-3.2828282828282824 -2.1717171717171713,-3.1818181818181817 -2.07070707070707,-3.0808080808080804 -1.9696969696969693,-2.9797979797979792 -1.8686868686868683,-2.9797979797979792 -1.7676767676767675,-2.9797979797979792 -1.6666666666666665,-2.9797979797979792 -1.5656565656565653,-2.9797979797979792 -1.4646464646464643,-2.9797979797979792 -1.363636363636363,-2.9797979797979792 -1.2626262626262625,-2.8787878787878785 -1.1616161616161613,-2.8787878787878785" data-type="line" data-label="" points="125.81818181818193,984 135.35353535353545,984 144.88888888888903,974.4646464646464 154.42424242424255,964.9292929292928 163.95959595959607,955.3939393939394 173.4949494949496,945.8585858585858 183.03030303030312,936.3232323232323 192.5656565656567,926.7878787878788 202.10101010101022,917.2525252525252 211.63636363636374,907.7171717171718 221.17171717171726,898.1818181818181 230.70707070707084,888.6464646464647 240.2424242424243,879.1111111111111 249.77777777777783,869.5757575757575 259.3131313131314,860.0404040404039 268.84848484848493,850.5050505050505 278.38383838383845,840.969696969697 287.91919191919203,831.4343434343434 297.4545454545455,821.8989898989898 306.9898989898991,812.3636363636363 316.5252525252526,802.8282828282828 326.0606060606061,793.2929292929292 335.59595959595964,793.2929292929292 345.13131313131316,793.2929292929292 354.6666666666667,793.2929292929292 364.2020202020202,793.2929292929292 373.7373737373738,793.2929292929292 383.2727272727273,793.2929292929292 392.80808080808083,783.7575757575758 402.34343434343435,783.7575757575758" fill="none" stroke="rgba(0,0,255,0.75)" stroke-width="14.159999999999995"/></g><g><polyline data-points="-1.1616161616161613,-2.8787878787878785 -1.0606060606060603,-2.7777777777777777 -0.9595959595959596,-2.6767676767676765 -0.8585858585858579,-2.5757575757575752 -0.7575757575757572,-2.474747474747474 -0.6565656565656557,-2.3737373737373733 -0.555555555555555,-2.2727272727272725 -0.4545454545454544,-2.1717171717171713 -0.35353535353535287,-2.07070707070707 -0.2525252525252522,-1.9696969696969693 -0.15151515151515066,-1.8686868686868683 -0.05050505050505001,-1.7676767676767675 0.050505050505051545,-1.6666666666666665 0.1515151515151522,-1.5656565656565653 0.2525252525252529,-1.4646464646464643 0.3535353535353544,-1.363636363636363 0.4545454545454551,-1.2626262626262625 0.5555555555555567,-1.1616161616161613 0.6565656565656574,-1.0606060606060603 0.7575757575757579,-0.9595959595959596 0.8585858585858596,-0.8585858585858579 0.9595959595959602,-0.7575757575757572 1.0606060606060617,-0.6565656565656557 1.1616161616161622,-0.555555555555555 1.1616161616161622,-0.4545454545454544 1.1616161616161622,-0.35353535353535287 1.1616161616161622,-0.2525252525252522 1.0606060606060617,-0.15151515151515066" data-type="line" data-label="" points="402.34343434343435,783.7575757575758 411.8787878787879,774.2222222222222 421.4141414141414,764.6868686868687 430.949494949495,755.1515151515151 440.4848484848485,745.6161616161615 450.0202020202021,736.0808080808081 459.55555555555554,726.5454545454545 469.09090909090907,717.010101010101 478.62626262626264,707.4747474747475 488.16161616161617,697.939393939394 497.69696969696975,688.4040404040404 507.2323232323232,678.8686868686868 516.7676767676768,669.3333333333334 526.3030303030303,659.7979797979798 535.8383838383838,650.2626262626263 545.3737373737374,640.7272727272727 554.9090909090909,631.1919191919193 564.4444444444445,621.6565656565657 573.9797979797979,612.1212121212121 583.5151515151515,602.5858585858587 593.0505050505051,593.0505050505051 602.5858585858585,583.5151515151516 612.1212121212121,573.979797979798 621.6565656565656,564.4444444444445 621.6565656565656,554.909090909091 621.6565656565656,545.3737373737374 621.6565656565656,535.838383838384 612.1212121212121,526.3030303030304" fill="none" stroke="rgba(255,0,0,0.75)" stroke-width="14.159999999999995"/></g><g><polyline data-points="1.0606060606060617,-0.15151515151515066 1.0606060606060617,-0.05050505050505001 1.0606060606060617,0.050505050505051545 1.0606060606060617,0.1515151515151522 1.0606060606060617,0.2525252525252529 1.0606060606060617,0.3535353535353544 1.0606060606060617,0.4545454545454551 1.0606060606060617,0.5555555555555567 1.0606060606060617,0.6565656565656574 1.0606060606060617,0.7575757575757579 1.0606060606060617,0.8585858585858596 1.1616161616161622,0.9595959595959602 1.1616161616161622,1.0606060606060617 1.262626262626263,1.1616161616161622 1.3636363636363644,1.262626262626263 1.4646464646464652,1.3636363636363644 1.5656565656565666,1.4646464646464652 1.6666666666666674,1.5656565656565666 1.767676767676768,1.6666666666666674 1.8686868686868696,1.767676767676768 1.9696969696969702,1.8686868686868696 2.070707070707072,1.9696969696969702 2.1717171717171726,1.8686868686868696 2.2727272727272734,1.9696969696969702 2.2727272727272734,2.070707070707072 2.2727272727272734,2.1717171717171726 2.2727272727272734,2.2727272727272734 2.2727272727272734,2.373737373737375 2.2727272727272734,2.4747474747474754 2.2727272727272734,2.575757575757577 2.2727272727272734,2.676767676767678 2.2727272727272734,2.7777777777777786 2.2727272727272734,2.87878787878788 2.2727272727272734,2.9797979797979806" data-type="line" data-label="" points="612.1212121212121,526.3030303030304 612.1212121212121,516.7676767676768 612.1212121212121,507.23232323232327 612.1212121212121,497.69696969696975 612.1212121212121,488.1616161616163 612.1212121212121,478.6262626262627 612.1212121212121,469.0909090909092 612.1212121212121,459.5555555555556 612.1212121212121,450.0202020202021 612.1212121212121,440.4848484848486 612.1212121212121,430.94949494949503 621.6565656565656,421.4141414141415 621.6565656565656,411.87878787878793 631.1919191919192,402.3434343434344 640.7272727272727,392.80808080808094 650.2626262626262,383.27272727272737 659.7979797979798,373.73737373737384 669.3333333333333,364.2020202020203 678.8686868686868,354.66666666666674 688.4040404040404,345.1313131313133 697.9393939393939,335.5959595959597 707.4747474747475,326.06060606060623 717.0101010101009,335.5959595959597 726.5454545454545,326.06060606060623 726.5454545454545,316.5252525252526 726.5454545454545,306.9898989898991 726.5454545454545,297.4545454545456 726.5454545454545,287.91919191919203 726.5454545454545,278.38383838383857 726.5454545454545,268.84848484848493 726.5454545454545,259.3131313131314 726.5454545454545,249.77777777777794 726.5454545454545,240.24242424242436 726.5454545454545,230.70707070707084" fill="none" stroke="rgba(0,0,255,0.75)" stroke-width="14.159999999999995"/></g><g><polyline data-points="2.2727272727272734,2.9797979797979806 2.2727272727272734,3.080808080808082 2.2727272727272734,3.181818181818183 2.2727272727272734,3.2828282828282833 2.2727272727272734,3.383838383838384 2.2727272727272734,3.4848484848484866 2.1717171717171726,3.5858585858585874 2.070707070707072,3.6868686868686877 1.9696969696969702,3.7878787878787885 1.8686868686868696,3.8888888888888893 1.767676767676768,3.989898989898992 1.6666666666666674,4.090909090909092 1.5656565656565666,3.989898989898992" data-type="line" data-label="" points="726.5454545454545,230.70707070707084 726.5454545454545,221.17171717171726 726.5454545454545,211.63636363636374 726.5454545454545,202.10101010101027 726.5454545454545,192.56565656565675 726.5454545454545,183.03030303030312 717.0101010101009,173.4949494949496 707.4747474747475,163.95959595959613 697.9393939393939,154.4242424242426 688.4040404040404,144.88888888888908 678.8686868686868,135.35353535353545 669.3333333333333,125.81818181818198 659.7979797979798,135.35353535353545" fill="none" stroke="rgba(255,0,0,0.75)" stroke-width="14.159999999999995"/></g><g><polyline data-points="1.5656565656565666,3.989898989898992 1.6666666666666674,4.090909090909092 1.767676767676768,4.191919191919193 1.8686868686868696,4.292929292929293 1.9696969696969702,4.393939393939394 2.070707070707072,4.494949494949497 2.1717171717171726,4.595959595959597 2.1717171717171726,4.696969696969697 2.1717171717171726,4.7979797979797985 2.1717171717171726,4.898989898989901 2.2727272727272734,5.000000000000002" data-type="line" data-label="" points="659.7979797979798,135.35353535353545 669.3333333333333,125.81818181818198 678.8686868686868,116.28282828282846 688.4040404040404,106.747474747475 697.9393939393939,97.21212121212153 707.4747474747475,87.67676767676778 717.0101010101009,78.14141414141432 717.0101010101009,68.60606060606085 717.0101010101009,59.07070707070733 717.0101010101009,49.53535353535369 726.5454545454545,40.000000000000114" fill="none" stroke="rgba(0,0,255,0.75)" stroke-width="14.159999999999995"/></g><g><rect data-type="rect" data-label="" data-x="0" data-y="0" x="40.000000000000114" y="40.000000000000284" width="943.9999999999997" height="943.9999999999998" fill="none" stroke="gray" stroke-width="0.010593220338983056"/></g><g><rect data-type="rect" data-label="" data-x="0" data-y="0" x="40.000000000000114" y="40.000000000000284" width="943.9999999999997" height="943.9999999999998" fill="none" stroke="rgba(15, 23, 42, 0.8)" stroke-width="0.010593220338983056"/></g><circle data-type="circle" data-label="" data-x="-3.98989898989899" data-y="-3.7878787878787876" cx="135.35353535353545" cy="869.5757575757575" r="28.791999999999987" fill="rgba(0,0,0,0.3)" stroke="black" stroke-width="0.010593220338983056"/><circle data-type="circle" data-label="" data-x="0.9595959595959602" data-y="3.2828282828282833" cx="602.5858585858585" cy="202.10101010101027" r="28.791999999999987" fill="rgba(0,0,0,0.3)" stroke="black" stroke-width="0.010593220338983056"/><circle data-type="circle" data-label="" data-x="3.989898989898992" data-y="-0.8585858585858579" cx="888.6464646464647" cy="593.0505050505051" r="28.791999999999987" fill="rgba(0,0,0,0.3)" stroke="black" stroke-width="0.010593220338983056"/><circle data-type="circle" data-label="" data-x="3.989898989898992" data-y="-3.5858585858585856" cx="888.6464646464647" cy="850.5050505050505" r="28.791999999999987" fill="rgba(0,0,0,0.3)" stroke="black" stroke-width="0.010593220338983056"/><circle data-type="circle" data-label="" data-x="-2.8787878787878785" data-y="-2.2727272727272725" cx="240.2424242424243" cy="726.5454545454545" r="28.791999999999987" fill="rgba(0,0,0,0.3)" stroke="black" stroke-width="0.010593220338983056"/><circle data-type="circle" data-label="" data-x="-3.383838383838383" data-y="-2.8787878787878785" cx="192.5656565656567" cy="783.7575757575758" r="28.791999999999987" fill="rgba(0,0,0,0.3)" stroke="black" stroke-width="0.010593220338983056"/><circle data-type="circle" data-label="" data-x="1.6666666666666674" data-y="0.8585858585858596" cx="669.3333333333333" cy="430.94949494949503" r="28.791999999999987" fill="rgba(0,0,0,0.3)" stroke="black" stroke-width="0.010593220338983056"/><circle data-type="circle" data-label="" data-x="1.6666666666666674" data-y="-0.7575757575757572" cx="669.3333333333333" cy="583.5151515151516" r="28.791999999999987" fill="rgba(0,0,0,0.3)" stroke="black" stroke-width="0.010593220338983056"/><circle data-type="circle" data-label="" data-x="3.383838383838384" data-y="-2.8787878787878785" cx="831.4343434343433" cy="783.7575757575758" r="28.791999999999987" fill="rgba(0,0,0,0.3)" stroke="black" stroke-width="0.010593220338983056"/><circle data-type="circle" data-label="" data-x="-2.9797979797979792" data-y="-0.555555555555555" cx="230.70707070707084" cy="564.4444444444445" r="28.791999999999987" fill="rgba(0,0,0,0.3)" stroke="black" stroke-width="0.010593220338983056"/><circle data-type="circle" data-label="" data-x="-1.1616161616161613" data-y="-2.8787878787878785" cx="402.34343434343435" cy="783.7575757575758" r="28.791999999999987" fill="rgba(0,0,0,0.3)" stroke="black" stroke-width="0.010593220338983056"/><circle data-type="circle" data-label="" data-x="1.0606060606060617" data-y="-0.15151515151515066" cx="612.1212121212121" cy="526.3030303030304" r="28.791999999999987" fill="rgba(0,0,0,0.3)" stroke="black" stroke-width="0.010593220338983056"/><circle data-type="circle" data-label="" data-x="2.2727272727272734" data-y="2.9797979797979806" cx="726.5454545454545" cy="230.70707070707084" r="28.791999999999987" fill="rgba(0,0,0,0.3)" stroke="black" stroke-width="0.010593220338983056"/><circle data-type="circle" data-label="" data-x="1.5656565656565666" data-y="3.989898989898992" cx="659.7979797979798" cy="135.35353535353545" r="28.791999999999987" fill="rgba(0,0,0,0.3)" stroke="black" stroke-width="0.010593220338983056"/><g id="crosshair" style="display: none"><line id="crosshair-h" y1="0" y2="1024" stroke="#666" stroke-width="0.5"/><line id="crosshair-v" x1="0" x2="1024" stroke="#666" stroke-width="0.5"/><text id="coordinates" font-family="monospace" font-size="12" fill="#666"></text></g><script><![CDATA[
              document.currentScript.parentElement.addEventListener('mousemove', (e) => {
                const svg = e.currentTarget;
                const rect = svg.getBoundingClientRect();
                const x = e.clientX - rect.left;
                const y = e.clientY - rect.top;
                const crosshair = svg.getElementById('crosshair');
                const h = svg.getElementById('crosshair-h');
                const v = svg.getElementById('crosshair-v');
                const coords = svg.getElementById('coordinates');
                
                crosshair.style.display = 'block';
                h.setAttribute('x1', '0');
                h.setAttribute('x2', '1024');
                h.setAttribute('y1', y);
                h.setAttribute('y2', y);
                v.setAttribute('x1', x);
                v.setAttribute('x2', x);
                v.setAttribute('y1', '0');
                v.setAttribute('y2', '1024');

                // Calculate real coordinates using inverse transformation
                const matrix = {"a":94.39999999999996,"c":0,"e":511.99999999999994,"b":0,"d":-94.39999999999996,"f":512.0000000000001};
                // Manually invert and apply the affine transform
                // Since we only use translate and scale, we can directly compute:
                // x' = (x - tx) / sx
                // y' = (y - ty) / sy
                const sx = matrix.a;
                const sy = matrix.d;
                const tx = matrix.e; 
                const ty = matrix.f;
                const realPoint = {
                  x: (x - tx) / sx,
                  y: (y - ty) / sy // Flip y back since we used negative scale
                }
                
                coords.textContent = `(${realPoint.x.toFixed(2)}, ${realPoint.y.toFixed(2)})`;
                coords.setAttribute('x', (x + 5).toString());
                coords.setAttribute('y', (y - 5).toString());
              });
              document.currentScript.parentElement.addEventListener('mouseleave', () => {
                document.currentScript.parentElement.getElementById('crosshair').style.display = 'none';
              });
            ]]></script></svg>