<svg width="1024" height="1024" viewBox="0 0 1024 1024" xmlns="http://www.w3.org/2000/svg"><rect width="100%" height="100%" fill="white"/><g><circle data-type="point" data-label="conn_000" data-x="-2.6" data-y="-5" cx="266.56000000000006" cy="984" r="28.792" fill="red" stroke="#bda70f" stroke-width="28.792"/></g><g><circle data-type="point" data-label="conn_000" data-x="2.96" data-y="5" cx="791.4239999999998" cy="40.000000000000284" r="28.792" fill="blue" stroke="#bda70f" stroke-width="28.792"/></g><g><circle data-type="point" data-label="conn_001" data-x="-0.64" data-y="-5" cx="451.58399999999995" cy="984" r="28.792" fill="red" stroke="#0fa0bd" stroke-width="28.792"/></g><g><circle data-type="point" data-label="conn_001" data-x="4.98" data-y="5" cx="982.1119999999999" cy="40.000000000000284" r="28.792" fill="blue" stroke="#0fa0bd" stroke-width="28.792"/></g><g><circle data-type="point" data-label="conn_002" data-x="5" data-y="0.3" cx="983.9999999999998" cy="483.6800000000001" r="28.792" fill="blue" stroke="#bd0f6d" stroke-width="28.792"/></g><g><circle data-type="point" data-label="conn_002" data-x="-5" data-y="4.8" cx="40.000000000000114" cy="58.88000000000028" r="28.792" fill="blue" stroke="#bd0f6d" stroke-width="28.792"/></g><g><circle data-type="point" data-label="conn_003" data-x="-5" data-y="1.6400000000000001" cx="40.000000000000114" cy="357.1840000000002" r="28.792" fill="blue" stroke="#3bbd0f" stroke-width="28.792"/></g><g><circle data-type="point" data-label="conn_003" data-x="5" data-y="4.04" cx="983.9999999999998" cy="130.62400000000025" r="28.792" fill="red" stroke="#3bbd0f" stroke-width="28.792"/></g><g><circle data-type="point" data-label="conn_004" data-x="-4.22" data-y="-5" cx="113.63200000000012" cy="984" r="28.792" fill="blue" stroke="#170fbd" stroke-width="28.792"/></g><g><circle data-type="point" data-label="conn_004" data-x="5" data-y="2.54" cx="983.9999999999998" cy="272.2240000000002" r="28.792" fill="blue" stroke="#170fbd" stroke-width="28.792"/></g><g><circle data-type="point" data-label="conn_005" data-x="3.02" data-y="-5" cx="797.0879999999999" cy="984" r="28.792" fill="red" stroke="#bd490f" stroke-width="28.792"/></g><g><circle data-type="point" data-label="conn_005" data-x="0.86" data-y="5" cx="593.184" cy="40.000000000000284" r="28.792" fill="blue" stroke="#bd490f" stroke-width="28.792"/></g><g><circle data-type="point" data-label="conn_006" data-x="5" data-y="1.04" cx="983.9999999999998" cy="413.8240000000002" r="28.792" fill="blue" stroke="#0fbd7c" stroke-width="28.792"/></g><g><circle data-type="point" data-label="conn_006" data-x="-5" data-y="-2.9" cx="40.000000000000114" cy="785.76" r="28.792" fill="red" stroke="#0fbd7c" stroke-width="28.792"/></g><g><circle data-type="point" data-label="conn_007" data-x="5" data-y="-3.96" cx="983.9999999999998" cy="885.824" r="28.792" fill="blue" stroke="#ae0fbd" stroke-width="28.792"/></g><g><circle data-type="point" data-label="conn_007" data-x="-3.72" data-y="5" cx="160.83200000000005" cy="40.000000000000284" r="28.792" fill="red" stroke="#ae0fbd" stroke-width="28.792"/></g><g><circle data-type="point" data-label="conn_008" data-x="4.34" data-y="-5" cx="921.6959999999997" cy="984" r="28.792" fill="red" stroke="#98bd0f" stroke-width="28.792"/></g><g><circle data-type="point" data-label="conn_008" data-x="-5" data-y="0.12" cx="40.000000000000114" cy="500.67200000000014" r="28.792" fill="blue" stroke="#98bd0f" stroke-width="28.792"/></g><g><circle data-type="point" data-label="conn_009" data-x="-5" data-y="3.46" cx="40.000000000000114" cy="185.37600000000026" r="28.792" fill="blue" stroke="#0f66bd" stroke-width="28.792"/></g><g><circle data-type="point" data-label="conn_009" data-x="-0.7000000000000001" data-y="5" cx="445.91999999999996" cy="40.000000000000284" r="28.792" fill="blue" stroke="#0f66bd" stroke-width="28.792"/></g><g><polyline data-points="-0.6565656565656557,-5.000000000000001 -0.555555555555555,-4.898989898989899 -0.4545454545454544,-4.7979797979797985 -0.35353535353535287,-4.696969696969697 -0.2525252525252522,-4.595959595959596 -0.15151515151515066,-4.494949494949496 -0.05050505050505001,-4.393939393939394 0.050505050505051545,-4.292929292929293 0.1515151515151522,-4.191919191919193 0.2525252525252529,-4.090909090909091 0.3535353535353544,-3.98989898989899 0.4545454545454551,-3.8888888888888884 0.5555555555555567,-3.7878787878787876 0.6565656565656574,-3.6868686868686864 0.7575757575757579,-3.5858585858585856 0.8585858585858596,-3.484848484848485 0.9595959595959602,-3.383838383838383 1.0606060606060617,-3.2828282828282824 1.1616161616161622,-3.1818181818181817 1.262626262626263,-3.0808080808080804 1.3636363636363644,-2.9797979797979792 1.4646464646464652,-2.8787878787878785 1.5656565656565666,-2.7777777777777777 1.6666666666666674,-2.6767676767676765 1.767676767676768,-2.5757575757575752 1.8686868686868696,-2.474747474747474 1.9696969696969702,-2.3737373737373733 2.070707070707072,-2.2727272727272725 2.1717171717171726,-2.1717171717171713 2.2727272727272734,-2.07070707070707 2.373737373737375,-1.9696969696969693 2.4747474747474754,-1.8686868686868683 2.575757575757577,-1.7676767676767675 2.676767676767678,-1.6666666666666665 2.7777777777777786,-1.5656565656565653 2.87878787878788,-1.4646464646464643 2.9797979797979806,-1.363636363636363 3.080808080808082,-1.2626262626262625 3.181818181818183,-1.1616161616161613 3.2828282828282833,-1.0606060606060603 3.383838383838384,-0.9595959595959596 3.4848484848484866,-0.8585858585858579 3.5858585858585874,-0.7575757575757572 3.6868686868686877,-0.6565656565656557 3.7878787878787885,-0.555555555555555 3.8888888888888893,-0.4545454545454544 3.989898989898992,-0.35353535353535287 3.989898989898992,-0.2525252525252522 3.989898989898992,-0.15151515151515066 3.989898989898992,-0.05050505050505001 3.989898989898992,0.050505050505051545 3.989898989898992,0.1515151515151522 3.989898989898992,0.2525252525252529 3.989898989898992,0.3535353535353544 3.989898989898992,0.4545454545454551 3.989898989898992,0.5555555555555567 3.989898989898992,0.6565656565656574 3.989898989898992,0.7575757575757579 3.989898989898992,0.8585858585858596 3.989898989898992,0.9595959595959602 3.989898989898992,1.0606060606060617 3.989898989898992,1.1616161616161622 3.989898989898992,1.262626262626263 3.989898989898992,1.3636363636363644 3.989898989898992,1.4646464646464652 3.989898989898992,1.5656565656565666 3.989898989898992,1.6666666666666674 3.989898989898992,1.767676767676768 3.989898989898992,1.8686868686868696 3.989898989898992,1.9696969696969702 3.989898989898992,2.070707070707072 3.989898989898992,2.1717171717171726 3.989898989898992,2.2727272727272734 3.989898989898992,2.373737373737375 3.989898989898992,2.4747474747474754 3.989898989898992,2.575757575757577 3.989898989898992,2.676767676767678 3.989898989898992,2.7777777777777786 3.989898989898992,2.87878787878788 3.989898989898992,2.9797979797979806 3.989898989898992,3.080808080808082 3.989898989898992,3.181818181818183 3.989898989898992,3.2828282828282833 3.989898989898992,3.383838383838384 3.989898989898992,3.4848484848484866 3.989898989898992,3.5858585858585874 3.989898989898992,3.6868686868686877 3.989898989898992,3.7878787878787885" data-type="line" data-label="" points="450.0202020202021,984 459.55555555555554,974.4646464646464 469.09090909090907,964.9292929292928 478.62626262626264,955.3939393939394 488.16161616161617,945.8585858585858 497.69696969696975,936.3232323232323 507.2323232323232,926.7878787878788 516.7676767676768,917.2525252525252 526.3030303030303,907.7171717171718 535.8383838383838,898.1818181818181 545.3737373737374,888.6464646464647 554.9090909090909,879.1111111111111 564.4444444444445,869.5757575757575 573.9797979797979,860.0404040404039 583.5151515151515,850.5050505050505 593.0505050505051,840.969696969697 602.5858585858585,831.4343434343434 612.1212121212121,821.8989898989898 621.6565656565656,812.3636363636363 631.1919191919192,802.8282828282828 640.7272727272727,793.2929292929292 650.2626262626262,783.7575757575758 659.7979797979798,774.2222222222222 669.3333333333333,764.6868686868687 678.8686868686868,755.1515151515151 688.4040404040404,745.6161616161615 697.9393939393939,736.0808080808081 707.4747474747475,726.5454545454545 717.0101010101009,717.010101010101 726.5454545454545,707.4747474747475 736.0808080808081,697.939393939394 745.6161616161615,688.4040404040404 755.1515151515151,678.8686868686868 764.6868686868686,669.3333333333334 774.2222222222222,659.7979797979798 783.7575757575758,650.2626262626263 793.2929292929292,640.7272727272727 802.8282828282828,631.1919191919193 812.3636363636363,621.6565656565657 821.8989898989898,612.1212121212121 831.4343434343433,602.5858585858587 840.969696969697,593.0505050505051 850.5050505050505,583.5151515151516 860.0404040404039,573.979797979798 869.5757575757575,564.4444444444445 879.111111111111,554.909090909091 888.6464646464647,545.3737373737374 888.6464646464647,535.838383838384 888.6464646464647,526.3030303030304 888.6464646464647,516.7676767676768 888.6464646464647,507.23232323232327 888.6464646464647,497.69696969696975 888.6464646464647,488.1616161616163 888.6464646464647,478.6262626262627 888.6464646464647,469.0909090909092 888.6464646464647,459.5555555555556 888.6464646464647,450.0202020202021 888.6464646464647,440.4848484848486 888.6464646464647,430.94949494949503 888.6464646464647,421.4141414141415 888.6464646464647,411.87878787878793 888.6464646464647,402.3434343434344 888.6464646464647,392.80808080808094 888.6464646464647,383.27272727272737 888.6464646464647,373.73737373737384 888.6464646464647,364.2020202020203 888.6464646464647,354.66666666666674 888.6464646464647,345.1313131313133 888.6464646464647,335.5959595959597 888.6464646464647,326.06060606060623 888.6464646464647,316.5252525252526 888.6464646464647,306.9898989898991 888.6464646464647,297.4545454545456 888.6464646464647,287.91919191919203 888.6464646464647,278.38383838383857 888.6464646464647,268.84848484848493 888.6464646464647,259.3131313131314 888.6464646464647,249.77777777777794 888.6464646464647,240.24242424242436 888.6464646464647,230.70707070707084 888.6464646464647,221.17171717171726 888.6464646464647,211.63636363636374 888.6464646464647,202.10101010101027 888.6464646464647,192.56565656565675 888.6464646464647,183.03030303030312 888.6464646464647,173.4949494949496 888.6464646464647,163.95959595959613 888.6464646464647,154.4242424242426" fill="none" stroke="rgba(255,0,0,0.75)" stroke-width="14.159999999999995"/></g><g><polyline data-points="3.989898989898992,3.7878787878787885 4.090909090909092,3.8888888888888893 4.191919191919193,3.989898989898992 4.292929292929293,4.090909090909092 4.393939393939394,4.191919191919193 4.494949494949497,4.292929292929293 4.595959595959597,4.393939393939394 4.696969696969697,4.494949494949497 4.7979797979797985,4.595959595959597 4.898989898989901,4.696969696969697 5.000000000000002,4.7979797979797985 5.000000000000002,4.898989898989901 5.000000000000002,5.000000000000002" data-type="line" data-label="" points="888.6464646464647,154.4242424242426 898.181818181818,144.88888888888908 907.7171717171716,135.35353535353545 917.2525252525251,125.81818181818198 926.7878787878785,116.28282828282846 936.3232323232323,106.747474747475 945.8585858585857,97.21212121212153 955.3939393939393,87.67676767676778 964.9292929292927,78.14141414141432 974.4646464646464,68.60606060606085 984,59.07070707070733 984,49.53535353535369 984,40.000000000000114" fill="none" stroke="rgba(0,0,255,0.75)" stroke-width="14.159999999999995"/></g><g><polyline data-points="3.080808080808082,-5.000000000000001 2.9797979797979806,-4.898989898989899 2.87878787878788,-4.7979797979797985 2.7777777777777786,-4.696969696969697 2.676767676767678,-4.595959595959596 2.575757575757577,-4.494949494949496 2.4747474747474754,-4.393939393939394 2.373737373737375,-4.292929292929293 2.2727272727272734,-4.191919191919193 2.1717171717171726,-4.090909090909091 2.070707070707072,-3.98989898989899 1.9696969696969702,-3.8888888888888884 1.8686868686868696,-3.7878787878787876 1.767676767676768,-3.6868686868686864 1.6666666666666674,-3.5858585858585856" data-type="line" data-label="" points="802.8282828282828,984 793.2929292929292,974.4646464646464 783.7575757575758,964.9292929292928 774.2222222222222,955.3939393939394 764.6868686868686,945.8585858585858 755.1515151515151,936.3232323232323 745.6161616161615,926.7878787878788 736.0808080808081,917.2525252525252 726.5454545454545,907.7171717171718 717.0101010101009,898.1818181818181 707.4747474747475,888.6464646464647 697.9393939393939,879.1111111111111 688.4040404040404,869.5757575757575 678.8686868686868,860.0404040404039 669.3333333333333,850.5050505050505" fill="none" stroke="rgba(255,0,0,0.75)" stroke-width="14.159999999999995"/></g><g><polyline data-points="1.6666666666666674,-3.5858585858585856 1.5656565656565666,-3.484848484848485 1.4646464646464652,-3.383838383838383 1.3636363636363644,-3.2828282828282824 1.262626262626263,-3.1818181818181817 1.1616161616161622,-3.0808080808080804 1.0606060606060617,-2.9797979797979792 0.9595959595959602,-2.8787878787878785 0.8585858585858596,-2.7777777777777777 0.8585858585858596,-2.6767676767676765 0.8585858585858596,-2.5757575757575752 0.8585858585858596,-2.474747474747474 0.8585858585858596,-2.3737373737373733 0.8585858585858596,-2.2727272727272725 0.8585858585858596,-2.1717171717171713 0.8585858585858596,-2.07070707070707 0.8585858585858596,-1.9696969696969693 0.8585858585858596,-1.8686868686868683 0.8585858585858596,-1.7676767676767675 0.8585858585858596,-1.6666666666666665 0.8585858585858596,-1.5656565656565653 0.8585858585858596,-1.4646464646464643 0.8585858585858596,-1.363636363636363 0.8585858585858596,-1.2626262626262625 0.8585858585858596,-1.1616161616161613 0.8585858585858596,-1.0606060606060603 0.8585858585858596,-0.9595959595959596 0.8585858585858596,-0.8585858585858579 0.8585858585858596,-0.7575757575757572 0.8585858585858596,-0.6565656565656557 0.8585858585858596,-0.555555555555555 0.8585858585858596,-0.4545454545454544 0.8585858585858596,-0.35353535353535287 0.8585858585858596,-0.2525252525252522 0.8585858585858596,-0.15151515151515066 0.8585858585858596,-0.05050505050505001 0.8585858585858596,0.050505050505051545 0.8585858585858596,0.1515151515151522 0.8585858585858596,0.2525252525252529 0.8585858585858596,0.3535353535353544 0.8585858585858596,0.4545454545454551 0.8585858585858596,0.5555555555555567 0.8585858585858596,0.6565656565656574 0.8585858585858596,0.7575757575757579 0.8585858585858596,0.8585858585858596 0.8585858585858596,0.9595959595959602 0.8585858585858596,1.0606060606060617 0.8585858585858596,1.1616161616161622 0.8585858585858596,1.262626262626263 0.8585858585858596,1.3636363636363644 0.8585858585858596,1.4646464646464652 0.8585858585858596,1.5656565656565666 0.8585858585858596,1.6666666666666674 0.8585858585858596,1.767676767676768 0.8585858585858596,1.8686868686868696 0.8585858585858596,1.9696969696969702 0.8585858585858596,2.070707070707072 0.8585858585858596,2.1717171717171726 0.8585858585858596,2.2727272727272734 0.8585858585858596,2.373737373737375 0.8585858585858596,2.4747474747474754 0.8585858585858596,2.575757575757577 0.8585858585858596,2.676767676767678 0.8585858585858596,2.7777777777777786 0.8585858585858596,2.87878787878788 0.8585858585858596,2.9797979797979806 0.8585858585858596,3.080808080808082 0.8585858585858596,3.181818181818183 0.8585858585858596,3.2828282828282833 0.8585858585858596,3.383838383838384 0.8585858585858596,3.4848484848484866 0.8585858585858596,3.5858585858585874 0.8585858585858596,3.6868686868686877 0.8585858585858596,3.7878787878787885 0.8585858585858596,3.8888888888888893 0.8585858585858596,3.989898989898992 0.8585858585858596,4.090909090909092 0.8585858585858596,4.191919191919193 0.8585858585858596,4.292929292929293 0.8585858585858596,4.393939393939394 0.8585858585858596,4.494949494949497 0.8585858585858596,4.595959595959597 0.8585858585858596,4.696969696969697 0.8585858585858596,4.7979797979797985 0.8585858585858596,4.898989898989901 0.8585858585858596,5.000000000000002" data-type="line" data-label="" points="669.3333333333333,850.5050505050505 659.7979797979798,840.969696969697 650.2626262626262,831.4343434343434 640.7272727272727,821.8989898989898 631.1919191919192,812.3636363636363 621.6565656565656,802.8282828282828 612.1212121212121,793.2929292929292 602.5858585858585,783.7575757575758 593.0505050505051,774.2222222222222 593.0505050505051,764.6868686868687 593.0505050505051,755.1515151515151 593.0505050505051,745.6161616161615 593.0505050505051,736.0808080808081 593.0505050505051,726.5454545454545 593.0505050505051,717.010101010101 593.0505050505051,707.4747474747475 593.0505050505051,697.939393939394 593.0505050505051,688.4040404040404 593.0505050505051,678.8686868686868 593.0505050505051,669.3333333333334 593.0505050505051,659.7979797979798 593.0505050505051,650.2626262626263 593.0505050505051,640.7272727272727 593.0505050505051,631.1919191919193 593.0505050505051,621.6565656565657 593.0505050505051,612.1212121212121 593.0505050505051,602.5858585858587 593.0505050505051,593.0505050505051 593.0505050505051,583.5151515151516 593.0505050505051,573.979797979798 593.0505050505051,564.4444444444445 593.0505050505051,554.909090909091 593.0505050505051,545.3737373737374 593.0505050505051,535.838383838384 593.0505050505051,526.3030303030304 593.0505050505051,516.7676767676768 593.0505050505051,507.23232323232327 593.0505050505051,497.69696969696975 593.0505050505051,488.1616161616163 593.0505050505051,478.6262626262627 593.0505050505051,469.0909090909092 593.0505050505051,459.5555555555556 593.0505050505051,450.0202020202021 593.0505050505051,440.4848484848486 593.0505050505051,430.94949494949503 593.0505050505051,421.4141414141415 593.0505050505051,411.87878787878793 593.0505050505051,402.3434343434344 593.0505050505051,392.80808080808094 593.0505050505051,383.27272727272737 593.0505050505051,373.73737373737384 593.0505050505051,364.2020202020203 593.0505050505051,354.66666666666674 593.0505050505051,345.1313131313133 593.0505050505051,335.5959595959597 593.0505050505051,326.06060606060623 593.0505050505051,316.5252525252526 593.0505050505051,306.9898989898991 593.0505050505051,297.4545454545456 593.0505050505051,287.91919191919203 593.0505050505051,278.38383838383857 593.0505050505051,268.84848484848493 593.0505050505051,259.3131313131314 593.0505050505051,249.77777777777794 593.0505050505051,240.24242424242436 593.0505050505051,230.70707070707084 593.0505050505051,221.17171717171726 593.0505050505051,211.63636363636374 593.0505050505051,202.10101010101027 593.0505050505051,192.56565656565675 593.0505050505051,183.03030303030312 593.0505050505051,173.4949494949496 593.0505050505051,163.95959595959613 593.0505050505051,154.4242424242426 593.0505050505051,144.88888888888908 593.0505050505051,135.35353535353545 593.0505050505051,125.81818181818198 593.0505050505051,116.28282828282846 593.0505050505051,106.747474747475 593.0505050505051,97.21212121212153 593.0505050505051,87.67676767676778 593.0505050505051,78.14141414141432 593.0505050505051,68.60606060606085 593.0505050505051,59.07070707070733 593.0505050505051,49.53535353535369 593.0505050505051,40.000000000000114" fill="none" stroke="rgba(0,0,255,0.75)" stroke-width="14.159999999999995"/></g><g><polyline data-points="-2.6767676767676765,-5.000000000000001 -2.5757575757575752,-4.898989898989899 -2.474747474747474,-4.7979797979797985 -2.3737373737373733,-4.696969696969697 -2.2727272727272725,-4.595959595959596 -2.1717171717171713,-4.494949494949496 -2.07070707070707,-4.393939393939394 -1.9696969696969693,-4.292929292929293 -1.8686868686868683,-4.191919191919193 -1.7676767676767675,-4.090909090909091 -1.6666666666666665,-3.98989898989899 -1.5656565656565653,-3.8888888888888884 -1.4646464646464643,-3.7878787878787876 -1.363636363636363,-3.6868686868686864 -1.2626262626262625,-3.5858585858585856 -1.1616161616161613,-3.484848484848485 -1.0606060606060603,-3.383838383838383 -0.9595959595959596,-3.2828282828282824 -0.8585858585858579,-3.1818181818181817 -0.7575757575757572,-3.0808080808080804 -0.6565656565656557,-2.9797979797979792 -0.555555555555555,-2.8787878787878785 -0.4545454545454544,-2.7777777777777777 -0.35353535353535287,-2.6767676767676765 -0.2525252525252522,-2.5757575757575752 -0.15151515151515066,-2.474747474747474 -0.05050505050505001,-2.3737373737373733 0.050505050505051545,-2.2727272727272725 0.1515151515151522,-2.1717171717171713 0.2525252525252529,-2.07070707070707 0.3535353535353544,-1.9696969696969693 0.4545454545454551,-1.8686868686868683 0.5555555555555567,-1.7676767676767675 0.6565656565656574,-1.6666666666666665 0.7575757575757579,-1.5656565656565653 0.8585858585858596,-1.4646464646464643 0.9595959595959602,-1.363636363636363 1.0606060606060617,-1.2626262626262625 1.1616161616161622,-1.1616161616161613 1.262626262626263,-1.0606060606060603 1.3636363636363644,-0.9595959595959596 1.4646464646464652,-0.8585858585858579 1.5656565656565666,-0.7575757575757572 1.6666666666666674,-0.6565656565656557 1.767676767676768,-0.555555555555555 1.8686868686868696,-0.4545454545454544 1.9696969696969702,-0.35353535353535287 2.070707070707072,-0.2525252525252522 2.1717171717171726,-0.15151515151515066 2.2727272727272734,-0.05050505050505001 2.373737373737375,0.050505050505051545 2.4747474747474754,0.1515151515151522 2.575757575757577,0.2525252525252529 2.676767676767678,0.3535353535353544 2.7777777777777786,0.4545454545454551 2.87878787878788,0.5555555555555567 2.9797979797979806,0.6565656565656574 2.9797979797979806,0.7575757575757579 2.9797979797979806,0.8585858585858596 2.9797979797979806,0.9595959595959602 2.9797979797979806,1.0606060606060617 2.9797979797979806,1.1616161616161622 2.9797979797979806,1.262626262626263 2.9797979797979806,1.3636363636363644 2.9797979797979806,1.4646464646464652 2.9797979797979806,1.5656565656565666 2.9797979797979806,1.6666666666666674 2.9797979797979806,1.767676767676768 2.9797979797979806,1.8686868686868696 2.9797979797979806,1.9696969696969702 2.9797979797979806,2.070707070707072 2.9797979797979806,2.1717171717171726 2.9797979797979806,2.2727272727272734 2.9797979797979806,2.373737373737375 2.9797979797979806,2.4747474747474754 2.9797979797979806,2.575757575757577 2.9797979797979806,2.676767676767678 2.9797979797979806,2.7777777777777786 2.9797979797979806,2.87878787878788 2.9797979797979806,2.9797979797979806 2.9797979797979806,3.080808080808082 2.9797979797979806,3.181818181818183 2.9797979797979806,3.2828282828282833 2.9797979797979806,3.383838383838384 2.9797979797979806,3.4848484848484866 2.9797979797979806,3.5858585858585874 2.9797979797979806,3.6868686868686877 2.9797979797979806,3.7878787878787885 2.9797979797979806,3.8888888888888893 2.9797979797979806,3.989898989898992" data-type="line" data-label="" points="259.3131313131314,984 268.84848484848493,974.4646464646464 278.38383838383845,964.9292929292928 287.91919191919203,955.3939393939394 297.4545454545455,945.8585858585858 306.9898989898991,936.3232323232323 316.5252525252526,926.7878787878788 326.0606060606061,917.2525252525252 335.59595959595964,907.7171717171718 345.13131313131316,898.1818181818181 354.6666666666667,888.6464646464647 364.2020202020202,879.1111111111111 373.7373737373738,869.5757575757575 383.2727272727273,860.0404040404039 392.80808080808083,850.5050505050505 402.34343434343435,840.969696969697 411.8787878787879,831.4343434343434 421.4141414141414,821.8989898989898 430.949494949495,812.3636363636363 440.4848484848485,802.8282828282828 450.0202020202021,793.2929292929292 459.55555555555554,783.7575757575758 469.09090909090907,774.2222222222222 478.62626262626264,764.6868686868687 488.16161616161617,755.1515151515151 497.69696969696975,745.6161616161615 507.2323232323232,736.0808080808081 516.7676767676768,726.5454545454545 526.3030303030303,717.010101010101 535.8383838383838,707.4747474747475 545.3737373737374,697.939393939394 554.9090909090909,688.4040404040404 564.4444444444445,678.8686868686868 573.9797979797979,669.3333333333334 583.5151515151515,659.7979797979798 593.0505050505051,650.2626262626263 602.5858585858585,640.7272727272727 612.1212121212121,631.1919191919193 621.6565656565656,621.6565656565657 631.1919191919192,612.1212121212121 640.7272727272727,602.5858585858587 650.2626262626262,593.0505050505051 659.7979797979798,583.5151515151516 669.3333333333333,573.979797979798 678.8686868686868,564.4444444444445 688.4040404040404,554.909090909091 697.9393939393939,545.3737373737374 707.4747474747475,535.838383838384 717.0101010101009,526.3030303030304 726.5454545454545,516.7676767676768 736.0808080808081,507.23232323232327 745.6161616161615,497.69696969696975 755.1515151515151,488.1616161616163 764.6868686868686,478.6262626262627 774.2222222222222,469.0909090909092 783.7575757575758,459.5555555555556 793.2929292929292,450.0202020202021 793.2929292929292,440.4848484848486 793.2929292929292,430.94949494949503 793.2929292929292,421.4141414141415 793.2929292929292,411.87878787878793 793.2929292929292,402.3434343434344 793.2929292929292,392.80808080808094 793.2929292929292,383.27272727272737 793.2929292929292,373.73737373737384 793.2929292929292,364.2020202020203 793.2929292929292,354.66666666666674 793.2929292929292,345.1313131313133 793.2929292929292,335.5959595959597 793.2929292929292,326.06060606060623 793.2929292929292,316.5252525252526 793.2929292929292,306.9898989898991 793.2929292929292,297.4545454545456 793.2929292929292,287.91919191919203 793.2929292929292,278.38383838383857 793.2929292929292,268.84848484848493 793.2929292929292,259.3131313131314 793.2929292929292,249.77777777777794 793.2929292929292,240.24242424242436 793.2929292929292,230.70707070707084 793.2929292929292,221.17171717171726 793.2929292929292,211.63636363636374 793.2929292929292,202.10101010101027 793.2929292929292,192.56565656565675 793.2929292929292,183.03030303030312 793.2929292929292,173.4949494949496 793.2929292929292,163.95959595959613 793.2929292929292,154.4242424242426 793.2929292929292,144.88888888888908 793.2929292929292,135.35353535353545" fill="none" stroke="rgba(255,0,0,0.75)" stroke-width="14.159999999999995"/></g><g><polyline data-points="2.9797979797979806,3.989898989898992 2.9797979797979806,4.090909090909092 2.9797979797979806,4.191919191919193 2.9797979797979806,4.292929292929293 2.9797979797979806,4.393939393939394 2.9797979797979806,4.494949494949497 2.9797979797979806,4.595959595959597 2.9797979797979806,4.696969696969697 2.9797979797979806,4.7979797979797985 2.9797979797979806,4.898989898989901 2.9797979797979806,5.000000000000002" data-type="line" data-label="" points="793.2929292929292,135.35353535353545 793.2929292929292,125.81818181818198 793.2929292929292,116.28282828282846 793.2929292929292,106.747474747475 793.2929292929292,97.21212121212153 793.2929292929292,87.67676767676778 793.2929292929292,78.14141414141432 793.2929292929292,68.60606060606085 793.2929292929292,59.07070707070733 793.2929292929292,49.53535353535369 793.2929292929292,40.000000000000114" fill="none" stroke="rgba(0,0,255,0.75)" stroke-width="14.159999999999995"/></g><g><polyline data-points="-4.292929292929293,-5.000000000000001 -4.191919191919193,-4.898989898989899 -4.090909090909091,-4.7979797979797985 -3.98989898989899,-4.696969696969697 -3.8888888888888884,-4.595959595959596 -3.7878787878787876,-4.494949494949496 -3.6868686868686864,-4.393939393939394 -3.5858585858585856,-4.292929292929293 -3.484848484848485,-4.191919191919193 -3.383838383838383,-4.090909090909091 -3.2828282828282824,-3.98989898989899 -3.1818181818181817,-3.8888888888888884 -3.0808080808080804,-3.7878787878787876 -2.9797979797979792,-3.6868686868686864 -2.8787878787878785,-3.5858585858585856 -2.7777777777777777,-3.484848484848485 -2.6767676767676765,-3.383838383838383 -2.5757575757575752,-3.2828282828282824 -2.474747474747474,-3.1818181818181817 -2.3737373737373733,-3.0808080808080804 -2.2727272727272725,-2.9797979797979792 -2.1717171717171713,-2.8787878787878785 -2.07070707070707,-2.7777777777777777 -1.9696969696969693,-2.6767676767676765 -1.8686868686868683,-2.5757575757575752 -1.7676767676767675,-2.474747474747474 -1.6666666666666665,-2.3737373737373733 -1.5656565656565653,-2.2727272727272725 -1.4646464646464643,-2.1717171717171713 -1.363636363636363,-2.07070707070707 -1.2626262626262625,-1.9696969696969693 -1.1616161616161613,-1.8686868686868683 -1.0606060606060603,-1.7676767676767675 -0.9595959595959596,-1.6666666666666665 -0.8585858585858579,-1.5656565656565653 -0.7575757575757572,-1.4646464646464643 -0.6565656565656557,-1.363636363636363 -0.555555555555555,-1.2626262626262625 -0.4545454545454544,-1.1616161616161613 -0.35353535353535287,-1.0606060606060603 -0.2525252525252522,-0.9595959595959596 -0.15151515151515066,-0.8585858585858579 -0.05050505050505001,-0.7575757575757572 0.050505050505051545,-0.6565656565656557 0.1515151515151522,-0.555555555555555 0.2525252525252529,-0.4545454545454544 0.2525252525252529,-0.35353535353535287 0.2525252525252529,-0.2525252525252522 0.2525252525252529,-0.15151515151515066 0.2525252525252529,-0.05050505050505001 0.2525252525252529,0.050505050505051545 0.2525252525252529,0.1515151515151522 0.2525252525252529,0.2525252525252529 0.2525252525252529,0.3535353535353544 0.2525252525252529,0.4545454545454551 0.2525252525252529,0.5555555555555567 0.2525252525252529,0.6565656565656574 0.2525252525252529,0.7575757575757579 0.2525252525252529,0.8585858585858596 0.2525252525252529,0.9595959595959602 0.2525252525252529,1.0606060606060617 0.2525252525252529,1.1616161616161622 0.2525252525252529,1.262626262626263 0.2525252525252529,1.3636363636363644 0.2525252525252529,1.4646464646464652 0.2525252525252529,1.5656565656565666 0.2525252525252529,1.6666666666666674 0.2525252525252529,1.767676767676768 0.2525252525252529,1.8686868686868696 0.2525252525252529,1.9696969696969702 0.2525252525252529,2.070707070707072" data-type="line" data-label="" points="106.74747474747483,984 116.28282828282829,974.4646464646464 125.81818181818193,964.9292929292928 135.35353535353545,955.3939393939394 144.88888888888903,945.8585858585858 154.42424242424255,936.3232323232323 163.95959595959607,926.7878787878788 173.4949494949496,917.2525252525252 183.03030303030312,907.7171717171718 192.5656565656567,898.1818181818181 202.10101010101022,888.6464646464647 211.63636363636374,879.1111111111111 221.17171717171726,869.5757575757575 230.70707070707084,860.0404040404039 240.2424242424243,850.5050505050505 249.77777777777783,840.969696969697 259.3131313131314,831.4343434343434 268.84848484848493,821.8989898989898 278.38383838383845,812.3636363636363 287.91919191919203,802.8282828282828 297.4545454545455,793.2929292929292 306.9898989898991,783.7575757575758 316.5252525252526,774.2222222222222 326.0606060606061,764.6868686868687 335.59595959595964,755.1515151515151 345.13131313131316,745.6161616161615 354.6666666666667,736.0808080808081 364.2020202020202,726.5454545454545 373.7373737373738,717.010101010101 383.2727272727273,707.4747474747475 392.80808080808083,697.939393939394 402.34343434343435,688.4040404040404 411.8787878787879,678.8686868686868 421.4141414141414,669.3333333333334 430.949494949495,659.7979797979798 440.4848484848485,650.2626262626263 450.0202020202021,640.7272727272727 459.55555555555554,631.1919191919193 469.09090909090907,621.6565656565657 478.62626262626264,612.1212121212121 488.16161616161617,602.5858585858587 497.69696969696975,593.0505050505051 507.2323232323232,583.5151515151516 516.7676767676768,573.979797979798 526.3030303030303,564.4444444444445 535.8383838383838,554.909090909091 535.8383838383838,545.3737373737374 535.8383838383838,535.838383838384 535.8383838383838,526.3030303030304 535.8383838383838,516.7676767676768 535.8383838383838,507.23232323232327 535.8383838383838,497.69696969696975 535.8383838383838,488.1616161616163 535.8383838383838,478.6262626262627 535.8383838383838,469.0909090909092 535.8383838383838,459.5555555555556 535.8383838383838,450.0202020202021 535.8383838383838,440.4848484848486 535.8383838383838,430.94949494949503 535.8383838383838,421.4141414141415 535.8383838383838,411.87878787878793 535.8383838383838,402.3434343434344 535.8383838383838,392.80808080808094 535.8383838383838,383.27272727272737 535.8383838383838,373.73737373737384 535.8383838383838,364.2020202020203 535.8383838383838,354.66666666666674 535.8383838383838,345.1313131313133 535.8383838383838,335.5959595959597 535.8383838383838,326.06060606060623 535.8383838383838,316.5252525252526" fill="none" stroke="rgba(0,0,255,0.75)" stroke-width="14.159999999999995"/></g><g><polyline data-points="0.2525252525252529,2.070707070707072 0.3535353535353544,2.1717171717171726 0.4545454545454551,2.2727272727272734 0.5555555555555567,2.373737373737375 0.6565656565656574,2.4747474747474754 0.7575757575757579,2.575757575757577 0.8585858585858596,2.575757575757577 0.9595959595959602,2.575757575757577 1.0606060606060617,2.575757575757577 1.1616161616161622,2.575757575757577 1.262626262626263,2.575757575757577 1.3636363636363644,2.575757575757577 1.4646464646464652,2.575757575757577 1.5656565656565666,2.575757575757577 1.6666666666666674,2.575757575757577 1.767676767676768,2.575757575757577 1.8686868686868696,2.575757575757577 1.9696969696969702,2.575757575757577 2.070707070707072,2.575757575757577 2.1717171717171726,2.575757575757577 2.2727272727272734,2.575757575757577 2.373737373737375,2.575757575757577" data-type="line" data-label="" points="535.8383838383838,316.5252525252526 545.3737373737374,306.9898989898991 554.9090909090909,297.4545454545456 564.4444444444445,287.91919191919203 573.9797979797979,278.38383838383857 583.5151515151515,268.84848484848493 593.0505050505051,268.84848484848493 602.5858585858585,268.84848484848493 612.1212121212121,268.84848484848493 621.6565656565656,268.84848484848493 631.1919191919192,268.84848484848493 640.7272727272727,268.84848484848493 650.2626262626262,268.84848484848493 659.7979797979798,268.84848484848493 669.3333333333333,268.84848484848493 678.8686868686868,268.84848484848493 688.4040404040404,268.84848484848493 697.9393939393939,268.84848484848493 707.4747474747475,268.84848484848493 717.0101010101009,268.84848484848493 726.5454545454545,268.84848484848493 736.0808080808081,268.84848484848493" fill="none" stroke="rgba(255,0,0,0.75)" stroke-width="14.159999999999995"/></g><g><polyline data-points="2.373737373737375,2.575757575757577 2.4747474747474754,2.575757575757577 2.575757575757577,2.575757575757577 2.676767676767678,2.575757575757577 2.7777777777777786,2.575757575757577 2.87878787878788,2.575757575757577 2.9797979797979806,2.575757575757577 3.080808080808082,2.575757575757577 3.181818181818183,2.575757575757577 3.2828282828282833,2.575757575757577 3.383838383838384,2.575757575757577 3.4848484848484866,2.575757575757577 3.5858585858585874,2.575757575757577 3.6868686868686877,2.575757575757577 3.7878787878787885,2.575757575757577 3.8888888888888893,2.575757575757577 3.989898989898992,2.575757575757577 4.090909090909092,2.575757575757577 4.191919191919193,2.575757575757577 4.292929292929293,2.575757575757577 4.393939393939394,2.575757575757577 4.494949494949497,2.575757575757577 4.595959595959597,2.575757575757577 4.696969696969697,2.575757575757577 4.7979797979797985,2.575757575757577 4.898989898989901,2.575757575757577 5.000000000000002,2.575757575757577" data-type="line" data-label="" points="736.0808080808081,268.84848484848493 745.6161616161615,268.84848484848493 755.1515151515151,268.84848484848493 764.6868686868686,268.84848484848493 774.2222222222222,268.84848484848493 783.7575757575758,268.84848484848493 793.2929292929292,268.84848484848493 802.8282828282828,268.84848484848493 812.3636363636363,268.84848484848493 821.8989898989898,268.84848484848493 831.4343434343433,268.84848484848493 840.969696969697,268.84848484848493 850.5050505050505,268.84848484848493 860.0404040404039,268.84848484848493 869.5757575757575,268.84848484848493 879.111111111111,268.84848484848493 888.6464646464647,268.84848484848493 898.181818181818,268.84848484848493 907.7171717171716,268.84848484848493 917.2525252525251,268.84848484848493 926.7878787878785,268.84848484848493 936.3232323232323,268.84848484848493 945.8585858585857,268.84848484848493 955.3939393939393,268.84848484848493 964.9292929292927,268.84848484848493 974.4646464646464,268.84848484848493 984,268.84848484848493" fill="none" stroke="rgba(0,0,255,0.75)" stroke-width="14.159999999999995"/></g><g><polyline data-points="4.393939393939394,-5.000000000000001 4.292929292929293,-4.898989898989899 4.191919191919193,-4.7979797979797985 4.090909090909092,-4.696969696969697 3.989898989898992,-4.595959595959596 3.8888888888888893,-4.494949494949496 3.7878787878787885,-4.393939393939394 3.6868686868686877,-4.292929292929293 3.5858585858585874,-4.191919191919193 3.4848484848484866,-4.090909090909091 3.383838383838384,-3.98989898989899 3.2828282828282833,-3.8888888888888884 3.181818181818183,-3.7878787878787876 3.080808080808082,-3.6868686868686864 2.9797979797979806,-3.5858585858585856 2.87878787878788,-3.484848484848485 2.7777777777777786,-3.383838383838383 2.676767676767678,-3.2828282828282824 2.575757575757577,-3.1818181818181817 2.4747474747474754,-3.0808080808080804 2.373737373737375,-2.9797979797979792 2.2727272727272734,-2.8787878787878785" data-type="line" data-label="" points="926.7878787878785,984 917.2525252525251,974.4646464646464 907.7171717171716,964.9292929292928 898.181818181818,955.3939393939394 888.6464646464647,945.8585858585858 879.111111111111,936.3232323232323 869.5757575757575,926.7878787878788 860.0404040404039,917.2525252525252 850.5050505050505,907.7171717171718 840.969696969697,898.1818181818181 831.4343434343433,888.6464646464647 821.8989898989898,879.1111111111111 812.3636363636363,869.5757575757575 802.8282828282828,860.0404040404039 793.2929292929292,850.5050505050505 783.7575757575758,840.969696969697 774.2222222222222,831.4343434343434 764.6868686868686,821.8989898989898 755.1515151515151,812.3636363636363 745.6161616161615,802.8282828282828 736.0808080808081,793.2929292929292 726.5454545454545,783.7575757575758" fill="none" stroke="rgba(255,0,0,0.75)" stroke-width="14.159999999999995"/></g><g><polyline data-points="2.2727272727272734,-2.8787878787878785 2.1717171717171726,-2.7777777777777777 2.070707070707072,-2.6767676767676765 1.9696969696969702,-2.5757575757575752 1.8686868686868696,-2.474747474747474 1.767676767676768,-2.3737373737373733 1.6666666666666674,-2.2727272727272725 1.5656565656565666,-2.1717171717171713 1.4646464646464652,-2.07070707070707 1.4646464646464652,-1.9696969696969693 1.4646464646464652,-1.8686868686868683 1.4646464646464652,-1.7676767676767675 1.4646464646464652,-1.6666666666666665 1.4646464646464652,-1.5656565656565653 1.4646464646464652,-1.4646464646464643 1.4646464646464652,-1.363636363636363 1.4646464646464652,-1.2626262626262625 1.4646464646464652,-1.1616161616161613 1.4646464646464652,-1.0606060606060603 1.4646464646464652,-0.9595959595959596 1.4646464646464652,-0.8585858585858579 1.4646464646464652,-0.7575757575757572 1.4646464646464652,-0.6565656565656557 1.4646464646464652,-0.555555555555555 1.4646464646464652,-0.4545454545454544 1.4646464646464652,-0.35353535353535287 1.4646464646464652,-0.2525252525252522 1.4646464646464652,-0.15151515151515066 1.4646464646464652,-0.05050505050505001 1.4646464646464652,0.050505050505051545" data-type="line" data-label="" points="726.5454545454545,783.7575757575758 717.0101010101009,774.2222222222222 707.4747474747475,764.6868686868687 697.9393939393939,755.1515151515151 688.4040404040404,745.6161616161615 678.8686868686868,736.0808080808081 669.3333333333333,726.5454545454545 659.7979797979798,717.010101010101 650.2626262626262,707.4747474747475 650.2626262626262,697.939393939394 650.2626262626262,688.4040404040404 650.2626262626262,678.8686868686868 650.2626262626262,669.3333333333334 650.2626262626262,659.7979797979798 650.2626262626262,650.2626262626263 650.2626262626262,640.7272727272727 650.2626262626262,631.1919191919193 650.2626262626262,621.6565656565657 650.2626262626262,612.1212121212121 650.2626262626262,602.5858585858587 650.2626262626262,593.0505050505051 650.2626262626262,583.5151515151516 650.2626262626262,573.979797979798 650.2626262626262,564.4444444444445 650.2626262626262,554.909090909091 650.2626262626262,545.3737373737374 650.2626262626262,535.838383838384 650.2626262626262,526.3030303030304 650.2626262626262,516.7676767676768 650.2626262626262,507.23232323232327" fill="none" stroke="rgba(0,0,255,0.75)" stroke-width="14.159999999999995"/></g><g><polyline data-points="1.4646464646464652,0.050505050505051545 1.3636363636363644,0.1515151515151522 1.262626262626263,0.1515151515151522 1.1616161616161622,0.1515151515151522 1.0606060606060617,0.1515151515151522 0.9595959595959602,0.1515151515151522 0.8585858585858596,0.1515151515151522 0.7575757575757579,0.1515151515151522 0.6565656565656574,0.1515151515151522 0.5555555555555567,0.1515151515151522 0.4545454545454551,0.1515151515151522 0.3535353535353544,0.1515151515151522 0.2525252525252529,0.1515151515151522 0.1515151515151522,0.1515151515151522 0.050505050505051545,0.1515151515151522 -0.05050505050505001,0.1515151515151522 -0.15151515151515066,0.1515151515151522 -0.2525252525252522,0.1515151515151522 -0.35353535353535287,0.1515151515151522 -0.4545454545454544,0.1515151515151522 -0.555555555555555,0.1515151515151522 -0.6565656565656557,0.1515151515151522 -0.7575757575757572,0.1515151515151522 -0.8585858585858579,0.1515151515151522 -0.9595959595959596,0.1515151515151522 -1.0606060606060603,0.1515151515151522 -1.1616161616161613,0.1515151515151522 -1.2626262626262625,0.1515151515151522 -1.363636363636363,0.1515151515151522 -1.4646464646464643,0.1515151515151522 -1.5656565656565653,0.1515151515151522 -1.6666666666666665,0.1515151515151522 -1.7676767676767675,0.1515151515151522 -1.8686868686868683,0.1515151515151522 -1.9696969696969693,0.1515151515151522 -2.07070707070707,0.1515151515151522 -2.1717171717171713,0.1515151515151522 -2.2727272727272725,0.1515151515151522 -2.3737373737373733,0.1515151515151522 -2.474747474747474,0.1515151515151522 -2.5757575757575752,0.1515151515151522 -2.6767676767676765,0.1515151515151522 -2.7777777777777777,0.1515151515151522 -2.8787878787878785,0.1515151515151522 -2.9797979797979792,0.1515151515151522 -3.0808080808080804,0.1515151515151522 -3.1818181818181817,0.1515151515151522 -3.2828282828282824,0.1515151515151522 -3.383838383838383,0.1515151515151522 -3.484848484848485,0.1515151515151522 -3.5858585858585856,0.1515151515151522 -3.6868686868686864,0.1515151515151522 -3.7878787878787876,0.1515151515151522 -3.8888888888888884,0.1515151515151522 -3.98989898989899,0.1515151515151522" data-type="line" data-label="" points="650.2626262626262,507.23232323232327 640.7272727272727,497.69696969696975 631.1919191919192,497.69696969696975 621.6565656565656,497.69696969696975 612.1212121212121,497.69696969696975 602.5858585858585,497.69696969696975 593.0505050505051,497.69696969696975 583.5151515151515,497.69696969696975 573.9797979797979,497.69696969696975 564.4444444444445,497.69696969696975 554.9090909090909,497.69696969696975 545.3737373737374,497.69696969696975 535.8383838383838,497.69696969696975 526.3030303030303,497.69696969696975 516.7676767676768,497.69696969696975 507.2323232323232,497.69696969696975 497.69696969696975,497.69696969696975 488.16161616161617,497.69696969696975 478.62626262626264,497.69696969696975 469.09090909090907,497.69696969696975 459.55555555555554,497.69696969696975 450.0202020202021,497.69696969696975 440.4848484848485,497.69696969696975 430.949494949495,497.69696969696975 421.4141414141414,497.69696969696975 411.8787878787879,497.69696969696975 402.34343434343435,497.69696969696975 392.80808080808083,497.69696969696975 383.2727272727273,497.69696969696975 373.7373737373738,497.69696969696975 364.2020202020202,497.69696969696975 354.6666666666667,497.69696969696975 345.13131313131316,497.69696969696975 335.59595959595964,497.69696969696975 326.0606060606061,497.69696969696975 316.5252525252526,497.69696969696975 306.9898989898991,497.69696969696975 297.4545454545455,497.69696969696975 287.91919191919203,497.69696969696975 278.38383838383845,497.69696969696975 268.84848484848493,497.69696969696975 259.3131313131314,497.69696969696975 249.77777777777783,497.69696969696975 240.2424242424243,497.69696969696975 230.70707070707084,497.69696969696975 221.17171717171726,497.69696969696975 211.63636363636374,497.69696969696975 202.10101010101022,497.69696969696975 192.5656565656567,497.69696969696975 183.03030303030312,497.69696969696975 173.4949494949496,497.69696969696975 163.95959595959607,497.69696969696975 154.42424242424255,497.69696969696975 144.88888888888903,497.69696969696975 135.35353535353545,497.69696969696975" fill="none" stroke="rgba(255,0,0,0.75)" stroke-width="14.159999999999995"/></g><g><polyline data-points="-3.98989898989899,0.1515151515151522 -4.090909090909091,0.1515151515151522 -4.191919191919193,0.1515151515151522 -4.292929292929293,0.1515151515151522 -4.393939393939394,0.1515151515151522 -4.494949494949496,0.1515151515151522 -4.595959595959596,0.1515151515151522 -4.696969696969697,0.1515151515151522 -4.7979797979797985,0.1515151515151522 -4.898989898989899,0.1515151515151522 -5.000000000000001,0.1515151515151522" data-type="line" data-label="" points="135.35353535353545,497.69696969696975 125.81818181818193,497.69696969696975 116.28282828282829,497.69696969696975 106.74747474747483,497.69696969696975 97.21212121212136,497.69696969696975 87.67676767676772,497.69696969696975 78.14141414141426,497.69696969696975 68.60606060606068,497.69696969696975 59.07070707070716,497.69696969696975 49.53535353535369,497.69696969696975 40.00000000000006,497.69696969696975" fill="none" stroke="rgba(0,0,255,0.75)" stroke-width="14.159999999999995"/></g><g><polyline data-points="5.000000000000002,1.0606060606060617 4.898989898989901,0.9595959595959602 4.7979797979797985,0.8585858585858596 4.696969696969697,0.7575757575757579 4.595959595959597,0.6565656565656574 4.494949494949497,0.5555555555555567 4.393939393939394,0.4545454545454551 4.292929292929293,0.3535353535353544 4.191919191919193,0.2525252525252529 4.090909090909092,0.1515151515151522 3.989898989898992,0.050505050505051545 3.8888888888888893,-0.05050505050505001 3.7878787878787885,-0.15151515151515066 3.6868686868686877,-0.2525252525252522 3.5858585858585874,-0.35353535353535287 3.4848484848484866,-0.4545454545454544 3.383838383838384,-0.555555555555555 3.2828282828282833,-0.6565656565656557 3.181818181818183,-0.7575757575757572 3.080808080808082,-0.8585858585858579 2.9797979797979806,-0.9595959595959596 2.87878787878788,-1.0606060606060603 2.7777777777777786,-1.1616161616161613 2.676767676767678,-1.2626262626262625 2.575757575757577,-1.363636363636363 2.4747474747474754,-1.4646464646464643 2.373737373737375,-1.4646464646464643 2.2727272727272734,-1.4646464646464643 2.1717171717171726,-1.4646464646464643 2.070707070707072,-1.4646464646464643" data-type="line" data-label="" points="984,411.87878787878793 974.4646464646464,421.4141414141415 964.9292929292927,430.94949494949503 955.3939393939393,440.4848484848486 945.8585858585857,450.0202020202021 936.3232323232323,459.5555555555556 926.7878787878785,469.0909090909092 917.2525252525251,478.6262626262627 907.7171717171716,488.1616161616163 898.181818181818,497.69696969696975 888.6464646464647,507.23232323232327 879.111111111111,516.7676767676768 869.5757575757575,526.3030303030304 860.0404040404039,535.838383838384 850.5050505050505,545.3737373737374 840.969696969697,554.909090909091 831.4343434343433,564.4444444444445 821.8989898989898,573.979797979798 812.3636363636363,583.5151515151516 802.8282828282828,593.0505050505051 793.2929292929292,602.5858585858587 783.7575757575758,612.1212121212121 774.2222222222222,621.6565656565657 764.6868686868686,631.1919191919193 755.1515151515151,640.7272727272727 745.6161616161615,650.2626262626263 736.0808080808081,650.2626262626263 726.5454545454545,650.2626262626263 717.0101010101009,650.2626262626263 707.4747474747475,650.2626262626263" fill="none" stroke="rgba(0,0,255,0.75)" stroke-width="14.159999999999995"/></g><g><polyline data-points="2.070707070707072,-1.4646464646464643 1.9696969696969702,-1.5656565656565653 1.8686868686868696,-1.6666666666666665 1.767676767676768,-1.7676767676767675 1.6666666666666674,-1.8686868686868683 1.5656565656565666,-1.9696969696969693 1.4646464646464652,-2.07070707070707 1.3636363636363644,-2.1717171717171713 1.262626262626263,-2.2727272727272725 1.1616161616161622,-2.3737373737373733 1.0606060606060617,-2.474747474747474 0.9595959595959602,-2.5757575757575752 0.8585858585858596,-2.6767676767676765 0.7575757575757579,-2.7777777777777777 0.6565656565656574,-2.8787878787878785 0.5555555555555567,-2.8787878787878785 0.4545454545454551,-2.8787878787878785 0.3535353535353544,-2.8787878787878785 0.2525252525252529,-2.8787878787878785" data-type="line" data-label="" points="707.4747474747475,650.2626262626263 697.9393939393939,659.7979797979798 688.4040404040404,669.3333333333334 678.8686868686868,678.8686868686868 669.3333333333333,688.4040404040404 659.7979797979798,697.939393939394 650.2626262626262,707.4747474747475 640.7272727272727,717.010101010101 631.1919191919192,726.5454545454545 621.6565656565656,736.0808080808081 612.1212121212121,745.6161616161615 602.5858585858585,755.1515151515151 593.0505050505051,764.6868686868687 583.5151515151515,774.2222222222222 573.9797979797979,783.7575757575758 564.4444444444445,783.7575757575758 554.9090909090909,783.7575757575758 545.3737373737374,783.7575757575758 535.8383838383838,783.7575757575758" fill="none" stroke="rgba(255,0,0,0.75)" stroke-width="14.159999999999995"/></g><g><polyline data-points="0.2525252525252529,-2.8787878787878785 0.1515151515151522,-2.8787878787878785 0.050505050505051545,-2.8787878787878785 -0.05050505050505001,-2.8787878787878785 -0.15151515151515066,-2.8787878787878785 -0.2525252525252522,-2.8787878787878785 -0.35353535353535287,-2.8787878787878785 -0.4545454545454544,-2.8787878787878785 -0.555555555555555,-2.8787878787878785 -0.6565656565656557,-2.8787878787878785 -0.7575757575757572,-2.8787878787878785 -0.8585858585858579,-2.8787878787878785 -0.9595959595959596,-2.8787878787878785 -1.0606060606060603,-2.8787878787878785 -1.1616161616161613,-2.8787878787878785 -1.2626262626262625,-2.8787878787878785 -1.363636363636363,-2.8787878787878785" data-type="line" data-label="" points="535.8383838383838,783.7575757575758 526.3030303030303,783.7575757575758 516.7676767676768,783.7575757575758 507.2323232323232,783.7575757575758 497.69696969696975,783.7575757575758 488.16161616161617,783.7575757575758 478.62626262626264,783.7575757575758 469.09090909090907,783.7575757575758 459.55555555555554,783.7575757575758 450.0202020202021,783.7575757575758 440.4848484848485,783.7575757575758 430.949494949495,783.7575757575758 421.4141414141414,783.7575757575758 411.8787878787879,783.7575757575758 402.34343434343435,783.7575757575758 392.80808080808083,783.7575757575758 383.2727272727273,783.7575757575758" fill="none" stroke="rgba(0,0,255,0.75)" stroke-width="14.159999999999995"/></g><g><polyline data-points="-1.363636363636363,-2.8787878787878785 -1.4646464646464643,-2.8787878787878785 -1.5656565656565653,-2.8787878787878785 -1.6666666666666665,-2.8787878787878785 -1.7676767676767675,-2.8787878787878785 -1.8686868686868683,-2.8787878787878785 -1.9696969696969693,-2.8787878787878785 -2.07070707070707,-2.8787878787878785 -2.1717171717171713,-2.8787878787878785 -2.2727272727272725,-2.8787878787878785 -2.3737373737373733,-2.8787878787878785 -2.474747474747474,-2.8787878787878785 -2.5757575757575752,-2.8787878787878785 -2.6767676767676765,-2.8787878787878785 -2.7777777777777777,-2.8787878787878785 -2.8787878787878785,-2.8787878787878785 -2.9797979797979792,-2.8787878787878785 -3.0808080808080804,-2.8787878787878785 -3.1818181818181817,-2.8787878787878785 -3.2828282828282824,-2.8787878787878785 -3.383838383838383,-2.8787878787878785 -3.484848484848485,-2.8787878787878785 -3.5858585858585856,-2.8787878787878785 -3.6868686868686864,-2.8787878787878785 -3.7878787878787876,-2.8787878787878785 -3.8888888888888884,-2.8787878787878785 -3.98989898989899,-2.8787878787878785 -4.090909090909091,-2.8787878787878785 -4.191919191919193,-2.8787878787878785 -4.292929292929293,-2.8787878787878785 -4.393939393939394,-2.8787878787878785 -4.494949494949496,-2.8787878787878785 -4.595959595959596,-2.8787878787878785 -4.696969696969697,-2.8787878787878785 -4.7979797979797985,-2.8787878787878785 -4.898989898989899,-2.8787878787878785 -5.000000000000001,-2.8787878787878785" data-type="line" data-label="" points="383.2727272727273,783.7575757575758 373.7373737373738,783.7575757575758 364.2020202020202,783.7575757575758 354.6666666666667,783.7575757575758 345.13131313131316,783.7575757575758 335.59595959595964,783.7575757575758 326.0606060606061,783.7575757575758 316.5252525252526,783.7575757575758 306.9898989898991,783.7575757575758 297.4545454545455,783.7575757575758 287.91919191919203,783.7575757575758 278.38383838383845,783.7575757575758 268.84848484848493,783.7575757575758 259.3131313131314,783.7575757575758 249.77777777777783,783.7575757575758 240.2424242424243,783.7575757575758 230.70707070707084,783.7575757575758 221.17171717171726,783.7575757575758 211.63636363636374,783.7575757575758 202.10101010101022,783.7575757575758 192.5656565656567,783.7575757575758 183.03030303030312,783.7575757575758 173.4949494949496,783.7575757575758 163.95959595959607,783.7575757575758 154.42424242424255,783.7575757575758 144.88888888888903,783.7575757575758 135.35353535353545,783.7575757575758 125.81818181818193,783.7575757575758 116.28282828282829,783.7575757575758 106.74747474747483,783.7575757575758 97.21212121212136,783.7575757575758 87.67676767676772,783.7575757575758 78.14141414141426,783.7575757575758 68.60606060606068,783.7575757575758 59.07070707070716,783.7575757575758 49.53535353535369,783.7575757575758 40.00000000000006,783.7575757575758" fill="none" stroke="rgba(255,0,0,0.75)" stroke-width="14.159999999999995"/></g><g><polyline data-points="-5.000000000000001,1.6666666666666674 -4.898989898989899,1.767676767676768 -4.7979797979797985,1.8686868686868696 -4.696969696969697,1.9696969696969702 -4.595959595959596,2.070707070707072 -4.494949494949496,2.1717171717171726 -4.393939393939394,2.2727272727272734 -4.292929292929293,2.373737373737375 -4.191919191919193,2.4747474747474754 -4.090909090909091,2.575757575757577 -3.98989898989899,2.676767676767678 -3.8888888888888884,2.7777777777777786 -3.7878787878787876,2.87878787878788 -3.6868686868686864,2.9797979797979806 -3.5858585858585856,3.080808080808082 -3.5858585858585856,3.181818181818183 -3.5858585858585856,3.2828282828282833 -3.5858585858585856,3.383838383838384" data-type="line" data-label="" points="40.00000000000006,354.66666666666674 49.53535353535369,345.1313131313133 59.07070707070716,335.5959595959597 68.60606060606068,326.06060606060623 78.14141414141426,316.5252525252526 87.67676767676772,306.9898989898991 97.21212121212136,297.4545454545456 106.74747474747483,287.91919191919203 116.28282828282829,278.38383838383857 125.81818181818193,268.84848484848493 135.35353535353545,259.3131313131314 144.88888888888903,249.77777777777794 154.42424242424255,240.24242424242436 163.95959595959607,230.70707070707084 173.4949494949496,221.17171717171726 173.4949494949496,211.63636363636374 173.4949494949496,202.10101010101027 173.4949494949496,192.56565656565675" fill="none" stroke="rgba(0,0,255,0.75)" stroke-width="14.159999999999995"/></g><g><polyline data-points="-3.5858585858585856,3.383838383838384 -3.5858585858585856,3.4848484848484866 -3.5858585858585856,3.5858585858585874 -3.5858585858585856,3.6868686868686877 -3.5858585858585856,3.7878787878787885 -3.5858585858585856,3.8888888888888893 -3.5858585858585856,3.989898989898992 -3.484848484848485,4.090909090909092 -3.484848484848485,4.191919191919193 -3.383838383838383,4.292929292929293 -3.2828282828282824,4.393939393939394 -3.1818181818181817,4.393939393939394 -3.0808080808080804,4.494949494949497 -2.9797979797979792,4.494949494949497 -2.8787878787878785,4.494949494949497 -2.7777777777777777,4.595959595959597 -2.6767676767676765,4.696969696969697 -2.5757575757575752,4.696969696969697 -2.474747474747474,4.696969696969697 -2.3737373737373733,4.696969696969697 -2.2727272727272725,4.696969696969697 -2.1717171717171713,4.696969696969697 -2.07070707070707,4.696969696969697 -1.9696969696969693,4.696969696969697 -1.8686868686868683,4.696969696969697 -1.7676767676767675,4.696969696969697 -1.6666666666666665,4.696969696969697 -1.5656565656565653,4.696969696969697 -1.4646464646464643,4.696969696969697 -1.363636363636363,4.696969696969697 -1.2626262626262625,4.696969696969697 -1.1616161616161613,4.696969696969697 -1.0606060606060603,4.696969696969697 -0.9595959595959596,4.696969696969697 -0.8585858585858579,4.696969696969697 -0.7575757575757572,4.696969696969697 -0.6565656565656557,4.696969696969697 -0.555555555555555,4.696969696969697 -0.4545454545454544,4.696969696969697 -0.35353535353535287,4.696969696969697 -0.2525252525252522,4.696969696969697 -0.15151515151515066,4.696969696969697 -0.05050505050505001,4.696969696969697 0.050505050505051545,4.696969696969697 0.1515151515151522,4.696969696969697 0.2525252525252529,4.696969696969697 0.3535353535353544,4.696969696969697 0.4545454545454551,4.696969696969697 0.5555555555555567,4.696969696969697 0.6565656565656574,4.696969696969697 0.7575757575757579,4.696969696969697 0.8585858585858596,4.696969696969697 0.9595959595959602,4.696969696969697 1.0606060606060617,4.696969696969697 1.1616161616161622,4.696969696969697 1.262626262626263,4.696969696969697 1.3636363636363644,4.696969696969697 1.4646464646464652,4.696969696969697 1.5656565656565666,4.696969696969697 1.6666666666666674,4.696969696969697 1.767676767676768,4.696969696969697 1.8686868686868696,4.696969696969697 1.9696969696969702,4.696969696969697 2.070707070707072,4.696969696969697 2.1717171717171726,4.696969696969697 2.2727272727272734,4.696969696969697 2.373737373737375,4.696969696969697 2.4747474747474754,4.696969696969697 2.575757575757577,4.696969696969697 2.676767676767678,4.696969696969697 2.7777777777777786,4.696969696969697 2.87878787878788,4.696969696969697 2.9797979797979806,4.696969696969697 3.080808080808082,4.696969696969697 3.181818181818183,4.696969696969697 3.2828282828282833,4.696969696969697 3.383838383838384,4.696969696969697 3.4848484848484866,4.696969696969697 3.5858585858585874,4.696969696969697 3.6868686868686877,4.696969696969697 3.7878787878787885,4.696969696969697 3.8888888888888893,4.696969696969697 3.989898989898992,4.696969696969697 4.090909090909092,4.595959595959597 4.191919191919193,4.494949494949497 4.292929292929293,4.393939393939394 4.393939393939394,4.292929292929293 4.494949494949497,4.191919191919193 4.595959595959597,4.090909090909092 4.696969696969697,4.090909090909092 4.7979797979797985,4.090909090909092 4.898989898989901,4.090909090909092 5.000000000000002,4.090909090909092" data-type="line" data-label="" points="173.4949494949496,192.56565656565675 173.4949494949496,183.03030303030312 173.4949494949496,173.4949494949496 173.4949494949496,163.95959595959613 173.4949494949496,154.4242424242426 173.4949494949496,144.88888888888908 173.4949494949496,135.35353535353545 183.03030303030312,125.81818181818198 183.03030303030312,116.28282828282846 192.5656565656567,106.747474747475 202.10101010101022,97.21212121212153 211.63636363636374,97.21212121212153 221.17171717171726,87.67676767676778 230.70707070707084,87.67676767676778 240.2424242424243,87.67676767676778 249.77777777777783,78.14141414141432 259.3131313131314,68.60606060606085 268.84848484848493,68.60606060606085 278.38383838383845,68.60606060606085 287.91919191919203,68.60606060606085 297.4545454545455,68.60606060606085 306.9898989898991,68.60606060606085 316.5252525252526,68.60606060606085 326.0606060606061,68.60606060606085 335.59595959595964,68.60606060606085 345.13131313131316,68.60606060606085 354.6666666666667,68.60606060606085 364.2020202020202,68.60606060606085 373.7373737373738,68.60606060606085 383.2727272727273,68.60606060606085 392.80808080808083,68.60606060606085 402.34343434343435,68.60606060606085 411.8787878787879,68.60606060606085 421.4141414141414,68.60606060606085 430.949494949495,68.60606060606085 440.4848484848485,68.60606060606085 450.0202020202021,68.60606060606085 459.55555555555554,68.60606060606085 469.09090909090907,68.60606060606085 478.62626262626264,68.60606060606085 488.16161616161617,68.60606060606085 497.69696969696975,68.60606060606085 507.2323232323232,68.60606060606085 516.7676767676768,68.60606060606085 526.3030303030303,68.60606060606085 535.8383838383838,68.60606060606085 545.3737373737374,68.60606060606085 554.9090909090909,68.60606060606085 564.4444444444445,68.60606060606085 573.9797979797979,68.60606060606085 583.5151515151515,68.60606060606085 593.0505050505051,68.60606060606085 602.5858585858585,68.60606060606085 612.1212121212121,68.60606060606085 621.6565656565656,68.60606060606085 631.1919191919192,68.60606060606085 640.7272727272727,68.60606060606085 650.2626262626262,68.60606060606085 659.7979797979798,68.60606060606085 669.3333333333333,68.60606060606085 678.8686868686868,68.60606060606085 688.4040404040404,68.60606060606085 697.9393939393939,68.60606060606085 707.4747474747475,68.60606060606085 717.0101010101009,68.60606060606085 726.5454545454545,68.60606060606085 736.0808080808081,68.60606060606085 745.6161616161615,68.60606060606085 755.1515151515151,68.60606060606085 764.6868686868686,68.60606060606085 774.2222222222222,68.60606060606085 783.7575757575758,68.60606060606085 793.2929292929292,68.60606060606085 802.8282828282828,68.60606060606085 812.3636363636363,68.60606060606085 821.8989898989898,68.60606060606085 831.4343434343433,68.60606060606085 840.969696969697,68.60606060606085 850.5050505050505,68.60606060606085 860.0404040404039,68.60606060606085 869.5757575757575,68.60606060606085 879.111111111111,68.60606060606085 888.6464646464647,68.60606060606085 898.181818181818,78.14141414141432 907.7171717171716,87.67676767676778 917.2525252525251,97.21212121212153 926.7878787878785,106.747474747475 936.3232323232323,116.28282828282846 945.8585858585857,125.81818181818198 955.3939393939393,125.81818181818198 964.9292929292927,125.81818181818198 974.4646464646464,125.81818181818198 984,125.81818181818198" fill="none" stroke="rgba(255,0,0,0.75)" stroke-width="14.159999999999995"/></g><g><polyline data-points="5.000000000000002,-3.98989898989899 4.898989898989901,-3.98989898989899 4.7979797979797985,-3.98989898989899 4.696969696969697,-3.98989898989899 4.595959595959597,-3.98989898989899 4.494949494949497,-3.98989898989899 4.393939393939394,-3.98989898989899 4.292929292929293,-3.98989898989899 4.191919191919193,-3.98989898989899 4.090909090909092,-3.98989898989899 3.989898989898992,-3.98989898989899 3.8888888888888893,-3.98989898989899 3.7878787878787885,-3.98989898989899 3.6868686868686877,-3.98989898989899 3.5858585858585874,-3.98989898989899 3.4848484848484866,-3.98989898989899 3.383838383838384,-3.98989898989899 3.2828282828282833,-3.98989898989899 3.181818181818183,-3.98989898989899 3.080808080808082,-3.98989898989899 2.9797979797979806,-3.98989898989899 2.87878787878788,-3.98989898989899 2.7777777777777786,-3.98989898989899 2.676767676767678,-3.98989898989899 2.575757575757577,-3.98989898989899 2.4747474747474754,-3.98989898989899 2.373737373737375,-3.98989898989899 2.2727272727272734,-3.98989898989899 2.1717171717171726,-3.98989898989899 2.070707070707072,-3.98989898989899 1.9696969696969702,-3.98989898989899 1.8686868686868696,-3.98989898989899 1.767676767676768,-3.98989898989899 1.6666666666666674,-4.090909090909091 1.5656565656565666,-3.98989898989899 1.4646464646464652,-3.98989898989899 1.3636363636363644,-3.8888888888888884 1.262626262626263,-3.7878787878787876 1.1616161616161622,-3.6868686868686864 1.0606060606060617,-3.5858585858585856 0.9595959595959602,-3.484848484848485 0.8585858585858596,-3.484848484848485 0.7575757575757579,-3.484848484848485 0.6565656565656574,-3.484848484848485 0.5555555555555567,-3.484848484848485 0.4545454545454551,-3.484848484848485 0.3535353535353544,-3.484848484848485 0.2525252525252529,-3.484848484848485 0.1515151515151522,-3.484848484848485 0.050505050505051545,-3.484848484848485 -0.05050505050505001,-3.484848484848485 -0.15151515151515066,-3.484848484848485 -0.2525252525252522,-3.484848484848485 -0.35353535353535287,-3.484848484848485 -0.4545454545454544,-3.484848484848485 -0.555555555555555,-3.484848484848485 -0.6565656565656557,-3.484848484848485 -0.7575757575757572,-3.484848484848485 -0.8585858585858579,-3.484848484848485 -0.9595959595959596,-3.484848484848485 -1.0606060606060603,-3.484848484848485 -1.1616161616161613,-3.484848484848485 -1.2626262626262625,-3.484848484848485 -1.363636363636363,-3.484848484848485 -1.4646464646464643,-3.484848484848485 -1.5656565656565653,-3.484848484848485 -1.6666666666666665,-3.484848484848485 -1.7676767676767675,-3.484848484848485 -1.8686868686868683,-3.484848484848485 -1.9696969696969693,-3.484848484848485" data-type="line" data-label="" points="984,888.6464646464647 974.4646464646464,888.6464646464647 964.9292929292927,888.6464646464647 955.3939393939393,888.6464646464647 945.8585858585857,888.6464646464647 936.3232323232323,888.6464646464647 926.7878787878785,888.6464646464647 917.2525252525251,888.6464646464647 907.7171717171716,888.6464646464647 898.181818181818,888.6464646464647 888.6464646464647,888.6464646464647 879.111111111111,888.6464646464647 869.5757575757575,888.6464646464647 860.0404040404039,888.6464646464647 850.5050505050505,888.6464646464647 840.969696969697,888.6464646464647 831.4343434343433,888.6464646464647 821.8989898989898,888.6464646464647 812.3636363636363,888.6464646464647 802.8282828282828,888.6464646464647 793.2929292929292,888.6464646464647 783.7575757575758,888.6464646464647 774.2222222222222,888.6464646464647 764.6868686868686,888.6464646464647 755.1515151515151,888.6464646464647 745.6161616161615,888.6464646464647 736.0808080808081,888.6464646464647 726.5454545454545,888.6464646464647 717.0101010101009,888.6464646464647 707.4747474747475,888.6464646464647 697.9393939393939,888.6464646464647 688.4040404040404,888.6464646464647 678.8686868686868,888.6464646464647 669.3333333333333,898.1818181818181 659.7979797979798,888.6464646464647 650.2626262626262,888.6464646464647 640.7272727272727,879.1111111111111 631.1919191919192,869.5757575757575 621.6565656565656,860.0404040404039 612.1212121212121,850.5050505050505 602.5858585858585,840.969696969697 593.0505050505051,840.969696969697 583.5151515151515,840.969696969697 573.9797979797979,840.969696969697 564.4444444444445,840.969696969697 554.9090909090909,840.969696969697 545.3737373737374,840.969696969697 535.8383838383838,840.969696969697 526.3030303030303,840.969696969697 516.7676767676768,840.969696969697 507.2323232323232,840.969696969697 497.69696969696975,840.969696969697 488.16161616161617,840.969696969697 478.62626262626264,840.969696969697 469.09090909090907,840.969696969697 459.55555555555554,840.969696969697 450.0202020202021,840.969696969697 440.4848484848485,840.969696969697 430.949494949495,840.969696969697 421.4141414141414,840.969696969697 411.8787878787879,840.969696969697 402.34343434343435,840.969696969697 392.80808080808083,840.969696969697 383.2727272727273,840.969696969697 373.7373737373738,840.969696969697 364.2020202020202,840.969696969697 354.6666666666667,840.969696969697 345.13131313131316,840.969696969697 335.59595959595964,840.969696969697 326.0606060606061,840.969696969697" fill="none" stroke="rgba(0,0,255,0.75)" stroke-width="14.159999999999995"/></g><g><polyline data-points="-1.9696969696969693,-3.484848484848485 -2.07070707070707,-3.484848484848485 -2.1717171717171713,-3.484848484848485 -2.2727272727272725,-3.484848484848485 -2.3737373737373733,-3.484848484848485 -2.474747474747474,-3.484848484848485 -2.5757575757575752,-3.484848484848485 -2.6767676767676765,-3.484848484848485 -2.7777777777777777,-3.484848484848485 -2.8787878787878785,-3.484848484848485 -2.9797979797979792,-3.484848484848485 -3.0808080808080804,-3.484848484848485 -3.1818181818181817,-3.484848484848485 -3.2828282828282824,-3.484848484848485 -3.383838383838383,-3.484848484848485 -3.484848484848485,-3.484848484848485 -3.5858585858585856,-3.484848484848485" data-type="line" data-label="" points="326.0606060606061,840.969696969697 316.5252525252526,840.969696969697 306.9898989898991,840.969696969697 297.4545454545455,840.969696969697 287.91919191919203,840.969696969697 278.38383838383845,840.969696969697 268.84848484848493,840.969696969697 259.3131313131314,840.969696969697 249.77777777777783,840.969696969697 240.2424242424243,840.969696969697 230.70707070707084,840.969696969697 221.17171717171726,840.969696969697 211.63636363636374,840.969696969697 202.10101010101022,840.969696969697 192.5656565656567,840.969696969697 183.03030303030312,840.969696969697 173.4949494949496,840.969696969697" fill="none" stroke="rgba(255,0,0,0.75)" stroke-width="14.159999999999995"/></g><g><polyline data-points="-3.5858585858585856,-3.484848484848485 -3.5858585858585856,-3.383838383838383 -3.5858585858585856,-3.2828282828282824 -3.5858585858585856,-3.1818181818181817 -3.5858585858585856,-3.0808080808080804 -3.5858585858585856,-2.9797979797979792 -3.5858585858585856,-2.8787878787878785 -3.5858585858585856,-2.7777777777777777 -3.5858585858585856,-2.6767676767676765 -3.5858585858585856,-2.5757575757575752 -3.5858585858585856,-2.474747474747474 -3.5858585858585856,-2.3737373737373733 -3.5858585858585856,-2.2727272727272725 -3.5858585858585856,-2.1717171717171713 -3.5858585858585856,-2.07070707070707 -3.5858585858585856,-1.9696969696969693 -3.5858585858585856,-1.8686868686868683 -3.5858585858585856,-1.7676767676767675 -3.5858585858585856,-1.6666666666666665 -3.5858585858585856,-1.5656565656565653 -3.5858585858585856,-1.4646464646464643 -3.5858585858585856,-1.363636363636363 -3.5858585858585856,-1.2626262626262625 -3.5858585858585856,-1.1616161616161613 -3.5858585858585856,-1.0606060606060603 -3.5858585858585856,-0.9595959595959596 -3.5858585858585856,-0.8585858585858579 -3.5858585858585856,-0.7575757575757572 -3.5858585858585856,-0.6565656565656557 -3.5858585858585856,-0.555555555555555 -3.5858585858585856,-0.4545454545454544 -3.5858585858585856,-0.35353535353535287 -3.5858585858585856,-0.2525252525252522 -3.5858585858585856,-0.15151515151515066 -3.5858585858585856,-0.05050505050505001 -3.5858585858585856,0.050505050505051545 -3.484848484848485,0.1515151515151522 -3.5858585858585856,0.2525252525252529 -3.5858585858585856,0.3535353535353544 -3.6868686868686864,0.4545454545454551 -3.7878787878787876,0.5555555555555567 -3.7878787878787876,0.6565656565656574 -3.7878787878787876,0.7575757575757579 -3.7878787878787876,0.8585858585858596 -3.7878787878787876,0.9595959595959602 -3.7878787878787876,1.0606060606060617 -3.7878787878787876,1.1616161616161622 -3.7878787878787876,1.262626262626263 -3.7878787878787876,1.3636363636363644 -3.7878787878787876,1.4646464646464652 -3.7878787878787876,1.5656565656565666 -3.7878787878787876,1.6666666666666674 -3.7878787878787876,1.767676767676768 -3.7878787878787876,1.8686868686868696 -3.7878787878787876,1.9696969696969702 -3.7878787878787876,2.070707070707072" data-type="line" data-label="" points="173.4949494949496,840.969696969697 173.4949494949496,831.4343434343434 173.4949494949496,821.8989898989898 173.4949494949496,812.3636363636363 173.4949494949496,802.8282828282828 173.4949494949496,793.2929292929292 173.4949494949496,783.7575757575758 173.4949494949496,774.2222222222222 173.4949494949496,764.6868686868687 173.4949494949496,755.1515151515151 173.4949494949496,745.6161616161615 173.4949494949496,736.0808080808081 173.4949494949496,726.5454545454545 173.4949494949496,717.010101010101 173.4949494949496,707.4747474747475 173.4949494949496,697.939393939394 173.4949494949496,688.4040404040404 173.4949494949496,678.8686868686868 173.4949494949496,669.3333333333334 173.4949494949496,659.7979797979798 173.4949494949496,650.2626262626263 173.4949494949496,640.7272727272727 173.4949494949496,631.1919191919193 173.4949494949496,621.6565656565657 173.4949494949496,612.1212121212121 173.4949494949496,602.5858585858587 173.4949494949496,593.0505050505051 173.4949494949496,583.5151515151516 173.4949494949496,573.979797979798 173.4949494949496,564.4444444444445 173.4949494949496,554.909090909091 173.4949494949496,545.3737373737374 173.4949494949496,535.838383838384 173.4949494949496,526.3030303030304 173.4949494949496,516.7676767676768 173.4949494949496,507.23232323232327 183.03030303030312,497.69696969696975 173.4949494949496,488.1616161616163 173.4949494949496,478.6262626262627 163.95959595959607,469.0909090909092 154.42424242424255,459.5555555555556 154.42424242424255,450.0202020202021 154.42424242424255,440.4848484848486 154.42424242424255,430.94949494949503 154.42424242424255,421.4141414141415 154.42424242424255,411.87878787878793 154.42424242424255,402.3434343434344 154.42424242424255,392.80808080808094 154.42424242424255,383.27272727272737 154.42424242424255,373.73737373737384 154.42424242424255,364.2020202020203 154.42424242424255,354.66666666666674 154.42424242424255,345.1313131313133 154.42424242424255,335.5959595959597 154.42424242424255,326.06060606060623 154.42424242424255,316.5252525252526" fill="none" stroke="rgba(0,0,255,0.75)" stroke-width="14.159999999999995"/></g><g><polyline data-points="-3.7878787878787876,2.070707070707072 -3.7878787878787876,2.1717171717171726 -3.7878787878787876,2.2727272727272734 -3.7878787878787876,2.373737373737375 -3.7878787878787876,2.4747474747474754 -3.7878787878787876,2.575757575757577 -3.7878787878787876,2.676767676767678 -3.7878787878787876,2.7777777777777786 -3.7878787878787876,2.87878787878788 -3.7878787878787876,2.9797979797979806 -3.8888888888888884,3.080808080808082 -3.98989898989899,3.181818181818183 -3.98989898989899,3.2828282828282833 -4.090909090909091,3.383838383838384 -3.98989898989899,3.4848484848484866 -3.98989898989899,3.5858585858585874 -3.8888888888888884,3.6868686868686877 -3.7878787878787876,3.7878787878787885 -3.7878787878787876,3.8888888888888893 -3.7878787878787876,3.989898989898992 -3.7878787878787876,4.090909090909092 -3.7878787878787876,4.191919191919193 -3.7878787878787876,4.292929292929293 -3.7878787878787876,4.393939393939394 -3.7878787878787876,4.494949494949497 -3.7878787878787876,4.595959595959597 -3.8888888888888884,4.696969696969697 -3.7878787878787876,4.7979797979797985 -3.7878787878787876,4.898989898989901 -3.7878787878787876,5.000000000000002" data-type="line" data-label="" points="154.42424242424255,316.5252525252526 154.42424242424255,306.9898989898991 154.42424242424255,297.4545454545456 154.42424242424255,287.91919191919203 154.42424242424255,278.38383838383857 154.42424242424255,268.84848484848493 154.42424242424255,259.3131313131314 154.42424242424255,249.77777777777794 154.42424242424255,240.24242424242436 154.42424242424255,230.70707070707084 144.88888888888903,221.17171717171726 135.35353535353545,211.63636363636374 135.35353535353545,202.10101010101027 125.81818181818193,192.56565656565675 135.35353535353545,183.03030303030312 135.35353535353545,173.4949494949496 144.88888888888903,163.95959595959613 154.42424242424255,154.4242424242426 154.42424242424255,144.88888888888908 154.42424242424255,135.35353535353545 154.42424242424255,125.81818181818198 154.42424242424255,116.28282828282846 154.42424242424255,106.747474747475 154.42424242424255,97.21212121212153 154.42424242424255,87.67676767676778 154.42424242424255,78.14141414141432 144.88888888888903,68.60606060606085 154.42424242424255,59.07070707070733 154.42424242424255,49.53535353535369 154.42424242424255,40.000000000000114" fill="none" stroke="rgba(255,0,0,0.75)" stroke-width="14.159999999999995"/></g><g><polyline data-points="5.000000000000002,0.2525252525252529 5.000000000000002,0.1515151515151522 4.898989898989901,0.050505050505051545 4.7979797979797985,-0.05050505050505001 4.696969696969697,-0.15151515151515066 4.595959595959597,-0.2525252525252522 4.494949494949497,-0.35353535353535287 4.393939393939394,-0.4545454545454544 4.292929292929293,-0.555555555555555 4.191919191919193,-0.6565656565656557 4.090909090909092,-0.7575757575757572 4.090909090909092,-0.8585858585858579 4.090909090909092,-0.9595959595959596 4.090909090909092,-1.0606060606060603 4.090909090909092,-1.1616161616161613 3.989898989898992,-1.2626262626262625" data-type="line" data-label="" points="984,488.1616161616163 984,497.69696969696975 974.4646464646464,507.23232323232327 964.9292929292927,516.7676767676768 955.3939393939393,526.3030303030304 945.8585858585857,535.838383838384 936.3232323232323,545.3737373737374 926.7878787878785,554.909090909091 917.2525252525251,564.4444444444445 907.7171717171716,573.979797979798 898.181818181818,583.5151515151516 898.181818181818,593.0505050505051 898.181818181818,602.5858585858587 898.181818181818,612.1212121212121 898.181818181818,621.6565656565657 888.6464646464647,631.1919191919193" fill="none" stroke="rgba(0,0,255,0.75)" stroke-width="14.159999999999995"/></g><g><polyline data-points="3.989898989898992,-1.2626262626262625 4.090909090909092,-1.1616161616161613 4.090909090909092,-1.0606060606060603 4.090909090909092,-0.9595959595959596 4.090909090909092,-0.8585858585858579 4.090909090909092,-0.7575757575757572 4.191919191919193,-0.6565656565656557 4.292929292929293,-0.555555555555555 4.393939393939394,-0.4545454545454544 4.292929292929293,-0.35353535353535287 4.292929292929293,-0.2525252525252522 4.292929292929293,-0.15151515151515066 4.292929292929293,-0.05050505050505001 4.292929292929293,0.050505050505051545 4.292929292929293,0.1515151515151522 4.292929292929293,0.2525252525252529 4.292929292929293,0.3535353535353544 4.292929292929293,0.4545454545454551 4.292929292929293,0.5555555555555567 4.292929292929293,0.6565656565656574 4.292929292929293,0.7575757575757579 4.292929292929293,0.8585858585858596 4.292929292929293,0.9595959595959602 4.292929292929293,1.0606060606060617 4.292929292929293,1.1616161616161622 4.292929292929293,1.262626262626263 4.292929292929293,1.3636363636363644 4.292929292929293,1.4646464646464652 4.292929292929293,1.5656565656565666 4.292929292929293,1.6666666666666674 4.292929292929293,1.767676767676768 4.292929292929293,1.8686868686868696 4.292929292929293,1.9696969696969702 4.292929292929293,2.070707070707072 4.292929292929293,2.1717171717171726 4.292929292929293,2.2727272727272734 4.292929292929293,2.373737373737375 4.292929292929293,2.4747474747474754 4.292929292929293,2.575757575757577 4.292929292929293,2.676767676767678 4.292929292929293,2.7777777777777786 4.292929292929293,2.87878787878788 4.292929292929293,2.9797979797979806 4.292929292929293,3.080808080808082 4.292929292929293,3.181818181818183 4.292929292929293,3.2828282828282833 4.292929292929293,3.383838383838384 4.393939393939394,3.4848484848484866 4.494949494949497,3.5858585858585874 4.494949494949497,3.6868686868686877 4.595959595959597,3.7878787878787885 4.494949494949497,3.8888888888888893 4.494949494949497,3.989898989898992 4.393939393939394,4.090909090909092 4.292929292929293,4.191919191919193 4.191919191919193,4.292929292929293 4.090909090909092,4.393939393939394 3.989898989898992,4.494949494949497 3.8888888888888893,4.595959595959597 3.7878787878787885,4.595959595959597 3.6868686868686877,4.595959595959597 3.5858585858585874,4.595959595959597 3.4848484848484866,4.595959595959597 3.383838383838384,4.595959595959597 3.2828282828282833,4.595959595959597 3.181818181818183,4.595959595959597 3.080808080808082,4.595959595959597 2.9797979797979806,4.595959595959597 2.87878787878788,4.595959595959597 2.7777777777777786,4.595959595959597 2.676767676767678,4.595959595959597 2.575757575757577,4.595959595959597 2.4747474747474754,4.595959595959597 2.373737373737375,4.595959595959597 2.2727272727272734,4.595959595959597 2.1717171717171726,4.595959595959597 2.070707070707072,4.595959595959597 1.9696969696969702,4.595959595959597 1.8686868686868696,4.595959595959597 1.767676767676768,4.595959595959597 1.6666666666666674,4.595959595959597 1.5656565656565666,4.595959595959597 1.4646464646464652,4.595959595959597 1.3636363636363644,4.595959595959597 1.262626262626263,4.595959595959597 1.1616161616161622,4.595959595959597 1.0606060606060617,4.595959595959597 0.9595959595959602,4.595959595959597 0.8585858585858596,4.595959595959597 0.7575757575757579,4.595959595959597 0.6565656565656574,4.595959595959597 0.5555555555555567,4.595959595959597 0.4545454545454551,4.595959595959597 0.3535353535353544,4.595959595959597 0.2525252525252529,4.595959595959597 0.1515151515151522,4.595959595959597 0.050505050505051545,4.595959595959597 -0.05050505050505001,4.595959595959597 -0.15151515151515066,4.595959595959597 -0.2525252525252522,4.595959595959597 -0.35353535353535287,4.595959595959597 -0.4545454545454544,4.595959595959597 -0.555555555555555,4.595959595959597 -0.6565656565656557,4.595959595959597 -0.7575757575757572,4.595959595959597 -0.8585858585858579,4.595959595959597 -0.9595959595959596,4.595959595959597 -1.0606060606060603,4.595959595959597 -1.1616161616161613,4.595959595959597 -1.2626262626262625,4.595959595959597 -1.363636363636363,4.595959595959597 -1.4646464646464643,4.595959595959597 -1.5656565656565653,4.595959595959597 -1.6666666666666665,4.595959595959597 -1.7676767676767675,4.595959595959597 -1.8686868686868683,4.595959595959597 -1.9696969696969693,4.595959595959597 -2.07070707070707,4.595959595959597 -2.1717171717171713,4.595959595959597 -2.2727272727272725,4.595959595959597 -2.3737373737373733,4.595959595959597 -2.474747474747474,4.595959595959597 -2.5757575757575752,4.595959595959597 -2.6767676767676765,4.494949494949497 -2.7777777777777777,4.393939393939394 -2.8787878787878785,4.292929292929293 -2.9797979797979792,4.191919191919193 -2.8787878787878785,4.090909090909092 -2.8787878787878785,3.989898989898992" data-type="line" data-label="" points="888.6464646464647,631.1919191919193 898.181818181818,621.6565656565657 898.181818181818,612.1212121212121 898.181818181818,602.5858585858587 898.181818181818,593.0505050505051 898.181818181818,583.5151515151516 907.7171717171716,573.979797979798 917.2525252525251,564.4444444444445 926.7878787878785,554.909090909091 917.2525252525251,545.3737373737374 917.2525252525251,535.838383838384 917.2525252525251,526.3030303030304 917.2525252525251,516.7676767676768 917.2525252525251,507.23232323232327 917.2525252525251,497.69696969696975 917.2525252525251,488.1616161616163 917.2525252525251,478.6262626262627 917.2525252525251,469.0909090909092 917.2525252525251,459.5555555555556 917.2525252525251,450.0202020202021 917.2525252525251,440.4848484848486 917.2525252525251,430.94949494949503 917.2525252525251,421.4141414141415 917.2525252525251,411.87878787878793 917.2525252525251,402.3434343434344 917.2525252525251,392.80808080808094 917.2525252525251,383.27272727272737 917.2525252525251,373.73737373737384 917.2525252525251,364.2020202020203 917.2525252525251,354.66666666666674 917.2525252525251,345.1313131313133 917.2525252525251,335.5959595959597 917.2525252525251,326.06060606060623 917.2525252525251,316.5252525252526 917.2525252525251,306.9898989898991 917.2525252525251,297.4545454545456 917.2525252525251,287.91919191919203 917.2525252525251,278.38383838383857 917.2525252525251,268.84848484848493 917.2525252525251,259.3131313131314 917.2525252525251,249.77777777777794 917.2525252525251,240.24242424242436 917.2525252525251,230.70707070707084 917.2525252525251,221.17171717171726 917.2525252525251,211.63636363636374 917.2525252525251,202.10101010101027 917.2525252525251,192.56565656565675 926.7878787878785,183.03030303030312 936.3232323232323,173.4949494949496 936.3232323232323,163.95959595959613 945.8585858585857,154.4242424242426 936.3232323232323,144.88888888888908 936.3232323232323,135.35353535353545 926.7878787878785,125.81818181818198 917.2525252525251,116.28282828282846 907.7171717171716,106.747474747475 898.181818181818,97.21212121212153 888.6464646464647,87.67676767676778 879.111111111111,78.14141414141432 869.5757575757575,78.14141414141432 860.0404040404039,78.14141414141432 850.5050505050505,78.14141414141432 840.969696969697,78.14141414141432 831.4343434343433,78.14141414141432 821.8989898989898,78.14141414141432 812.3636363636363,78.14141414141432 802.8282828282828,78.14141414141432 793.2929292929292,78.14141414141432 783.7575757575758,78.14141414141432 774.2222222222222,78.14141414141432 764.6868686868686,78.14141414141432 755.1515151515151,78.14141414141432 745.6161616161615,78.14141414141432 736.0808080808081,78.14141414141432 726.5454545454545,78.14141414141432 717.0101010101009,78.14141414141432 707.4747474747475,78.14141414141432 697.9393939393939,78.14141414141432 688.4040404040404,78.14141414141432 678.8686868686868,78.14141414141432 669.3333333333333,78.14141414141432 659.7979797979798,78.14141414141432 650.2626262626262,78.14141414141432 640.7272727272727,78.14141414141432 631.1919191919192,78.14141414141432 621.6565656565656,78.14141414141432 612.1212121212121,78.14141414141432 602.5858585858585,78.14141414141432 593.0505050505051,78.14141414141432 583.5151515151515,78.14141414141432 573.9797979797979,78.14141414141432 564.4444444444445,78.14141414141432 554.9090909090909,78.14141414141432 545.3737373737374,78.14141414141432 535.8383838383838,78.14141414141432 526.3030303030303,78.14141414141432 516.7676767676768,78.14141414141432 507.2323232323232,78.14141414141432 497.69696969696975,78.14141414141432 488.16161616161617,78.14141414141432 478.62626262626264,78.14141414141432 469.09090909090907,78.14141414141432 459.55555555555554,78.14141414141432 450.0202020202021,78.14141414141432 440.4848484848485,78.14141414141432 430.949494949495,78.14141414141432 421.4141414141414,78.14141414141432 411.8787878787879,78.14141414141432 402.34343434343435,78.14141414141432 392.80808080808083,78.14141414141432 383.2727272727273,78.14141414141432 373.7373737373738,78.14141414141432 364.2020202020202,78.14141414141432 354.6666666666667,78.14141414141432 345.13131313131316,78.14141414141432 335.59595959595964,78.14141414141432 326.0606060606061,78.14141414141432 316.5252525252526,78.14141414141432 306.9898989898991,78.14141414141432 297.4545454545455,78.14141414141432 287.91919191919203,78.14141414141432 278.38383838383845,78.14141414141432 268.84848484848493,78.14141414141432 259.3131313131314,87.67676767676778 249.77777777777783,97.21212121212153 240.2424242424243,106.747474747475 230.70707070707084,116.28282828282846 240.2424242424243,125.81818181818198 240.2424242424243,135.35353535353545" fill="none" stroke="rgba(255,0,0,0.75)" stroke-width="14.159999999999995"/></g><g><polyline data-points="-2.8787878787878785,3.989898989898992 -2.9797979797979792,3.989898989898992 -3.0808080808080804,4.090909090909092 -3.1818181818181817,4.191919191919193 -3.2828282828282824,4.292929292929293 -3.383838383838383,4.393939393939394 -3.484848484848485,4.494949494949497 -3.5858585858585856,4.393939393939394 -3.6868686868686864,4.494949494949497 -3.7878787878787876,4.595959595959597 -3.8888888888888884,4.696969696969697 -3.98989898989899,4.7979797979797985 -4.090909090909091,4.7979797979797985 -4.191919191919193,4.7979797979797985 -4.292929292929293,4.7979797979797985 -4.393939393939394,4.7979797979797985 -4.494949494949496,4.7979797979797985 -4.595959595959596,4.7979797979797985 -4.696969696969697,4.7979797979797985 -4.7979797979797985,4.7979797979797985 -4.898989898989899,4.7979797979797985 -5.000000000000001,4.898989898989901" data-type="line" data-label="" points="240.2424242424243,135.35353535353545 230.70707070707084,135.35353535353545 221.17171717171726,125.81818181818198 211.63636363636374,116.28282828282846 202.10101010101022,106.747474747475 192.5656565656567,97.21212121212153 183.03030303030312,87.67676767676778 173.4949494949496,97.21212121212153 163.95959595959607,87.67676767676778 154.42424242424255,78.14141414141432 144.88888888888903,68.60606060606085 135.35353535353545,59.07070707070733 125.81818181818193,59.07070707070733 116.28282828282829,59.07070707070733 106.74747474747483,59.07070707070733 97.21212121212136,59.07070707070733 87.67676767676772,59.07070707070733 78.14141414141426,59.07070707070733 68.60606060606068,59.07070707070733 59.07070707070716,59.07070707070733 49.53535353535369,59.07070707070733 40.00000000000006,49.53535353535369" fill="none" stroke="rgba(0,0,255,0.75)" stroke-width="14.159999999999995"/></g><g><polyline data-points="-5.000000000000001,3.4848484848484866 -4.898989898989899,3.383838383838384 -4.7979797979797985,3.4848484848484866 -4.696969696969697,3.5858585858585874 -4.595959595959596,3.6868686868686877 -4.494949494949496,3.7878787878787885 -4.393939393939394,3.8888888888888893 -4.292929292929293,3.8888888888888893 -4.191919191919193,3.8888888888888893 -4.090909090909091,3.8888888888888893 -3.98989898989899,3.8888888888888893 -3.8888888888888884,3.8888888888888893 -3.7878787878787876,3.8888888888888893 -3.6868686868686864,3.8888888888888893 -3.5858585858585856,3.8888888888888893 -3.484848484848485,3.8888888888888893 -3.383838383838383,3.8888888888888893 -3.2828282828282824,3.7878787878787885 -3.1818181818181817,3.6868686868686877 -3.0808080808080804,3.5858585858585874 -2.9797979797979792,3.5858585858585874 -2.8787878787878785,3.4848484848484866 -2.7777777777777777,3.5858585858585874 -2.6767676767676765,3.5858585858585874 -2.5757575757575752,3.6868686868686877 -2.474747474747474,3.7878787878787885 -2.3737373737373733,3.8888888888888893 -2.2727272727272725,3.989898989898992 -2.1717171717171713,4.090909090909092 -2.07070707070707,4.191919191919193 -1.9696969696969693,4.292929292929293 -1.8686868686868683,4.393939393939394 -1.7676767676767675,4.393939393939394 -1.6666666666666665,4.393939393939394 -1.5656565656565653,4.393939393939394 -1.4646464646464643,4.393939393939394 -1.363636363636363,4.393939393939394 -1.2626262626262625,4.393939393939394 -1.1616161616161613,4.393939393939394 -1.0606060606060603,4.393939393939394 -0.9595959595959596,4.393939393939394 -0.8585858585858579,4.393939393939394 -0.7575757575757572,4.494949494949497 -0.7575757575757572,4.595959595959597 -0.7575757575757572,4.696969696969697 -0.7575757575757572,4.7979797979797985 -0.7575757575757572,4.898989898989901 -0.7575757575757572,5.000000000000002" data-type="line" data-label="" points="40.00000000000006,183.03030303030312 49.53535353535369,192.56565656565675 59.07070707070716,183.03030303030312 68.60606060606068,173.4949494949496 78.14141414141426,163.95959595959613 87.67676767676772,154.4242424242426 97.21212121212136,144.88888888888908 106.74747474747483,144.88888888888908 116.28282828282829,144.88888888888908 125.81818181818193,144.88888888888908 135.35353535353545,144.88888888888908 144.88888888888903,144.88888888888908 154.42424242424255,144.88888888888908 163.95959595959607,144.88888888888908 173.4949494949496,144.88888888888908 183.03030303030312,144.88888888888908 192.5656565656567,144.88888888888908 202.10101010101022,154.4242424242426 211.63636363636374,163.95959595959613 221.17171717171726,173.4949494949496 230.70707070707084,173.4949494949496 240.2424242424243,183.03030303030312 249.77777777777783,173.4949494949496 259.3131313131314,173.4949494949496 268.84848484848493,163.95959595959613 278.38383838383845,154.4242424242426 287.91919191919203,144.88888888888908 297.4545454545455,135.35353535353545 306.9898989898991,125.81818181818198 316.5252525252526,116.28282828282846 326.0606060606061,106.747474747475 335.59595959595964,97.21212121212153 345.13131313131316,97.21212121212153 354.6666666666667,97.21212121212153 364.2020202020202,97.21212121212153 373.7373737373738,97.21212121212153 383.2727272727273,97.21212121212153 392.80808080808083,97.21212121212153 402.34343434343435,97.21212121212153 411.8787878787879,97.21212121212153 421.4141414141414,97.21212121212153 430.949494949495,97.21212121212153 440.4848484848485,87.67676767676778 440.4848484848485,78.14141414141432 440.4848484848485,68.60606060606085 440.4848484848485,59.07070707070733 440.4848484848485,49.53535353535369 440.4848484848485,40.000000000000114" fill="none" stroke="rgba(0,0,255,0.75)" stroke-width="14.159999999999995"/></g><g><rect data-type="rect" data-label="" data-x="0" data-y="0" x="40.000000000000114" y="40.000000000000284" width="943.9999999999997" height="943.9999999999998" fill="none" stroke="gray" stroke-width="0.010593220338983056"/></g><g><rect data-type="rect" data-label="" data-x="0" data-y="0" x="40.000000000000114" y="40.000000000000284" width="943.9999999999997" height="943.9999999999998" fill="none" stroke="rgba(15, 23, 42, 0.8)" stroke-width="0.010593220338983056"/></g><circle data-type="circle" data-label="" data-x="3.989898989898992" data-y="3.7878787878787885" cx="888.6464646464647" cy="154.4242424242426" r="28.791999999999987" fill="rgba(0,0,0,0.3)" stroke="black" stroke-width="0.010593220338983056"/><circle data-type="circle" data-label="" data-x="1.6666666666666674" data-y="-3.5858585858585856" cx="669.3333333333333" cy="850.5050505050505" r="28.791999999999987" fill="rgba(0,0,0,0.3)" stroke="black" stroke-width="0.010593220338983056"/><circle data-type="circle" data-label="" data-x="2.9797979797979806" data-y="3.989898989898992" cx="793.2929292929292" cy="135.35353535353545" r="28.791999999999987" fill="rgba(0,0,0,0.3)" stroke="black" stroke-width="0.010593220338983056"/><circle data-type="circle" data-label="" data-x="0.2525252525252529" data-y="2.070707070707072" cx="535.8383838383838" cy="316.5252525252526" r="28.791999999999987" fill="rgba(0,0,0,0.3)" stroke="black" stroke-width="0.010593220338983056"/><circle data-type="circle" data-label="" data-x="2.373737373737375" data-y="2.575757575757577" cx="736.0808080808081" cy="268.84848484848493" r="28.791999999999987" fill="rgba(0,0,0,0.3)" stroke="black" stroke-width="0.010593220338983056"/><circle data-type="circle" data-label="" data-x="2.2727272727272734" data-y="-2.8787878787878785" cx="726.5454545454545" cy="783.7575757575758" r="28.791999999999987" fill="rgba(0,0,0,0.3)" stroke="black" stroke-width="0.010593220338983056"/><circle data-type="circle" data-label="" data-x="1.4646464646464652" data-y="0.050505050505051545" cx="650.2626262626262" cy="507.23232323232327" r="28.791999999999987" fill="rgba(0,0,0,0.3)" stroke="black" stroke-width="0.010593220338983056"/><circle data-type="circle" data-label="" data-x="-3.98989898989899" data-y="0.1515151515151522" cx="135.35353535353545" cy="497.69696969696975" r="28.791999999999987" fill="rgba(0,0,0,0.3)" stroke="black" stroke-width="0.010593220338983056"/><circle data-type="circle" data-label="" data-x="2.070707070707072" data-y="-1.4646464646464643" cx="707.4747474747475" cy="650.2626262626263" r="28.791999999999987" fill="rgba(0,0,0,0.3)" stroke="black" stroke-width="0.010593220338983056"/><circle data-type="circle" data-label="" data-x="0.2525252525252529" data-y="-2.8787878787878785" cx="535.8383838383838" cy="783.7575757575758" r="28.791999999999987" fill="rgba(0,0,0,0.3)" stroke="black" stroke-width="0.010593220338983056"/><circle data-type="circle" data-label="" data-x="-1.363636363636363" data-y="-2.8787878787878785" cx="383.2727272727273" cy="783.7575757575758" r="28.791999999999987" fill="rgba(0,0,0,0.3)" stroke="black" stroke-width="0.010593220338983056"/><circle data-type="circle" data-label="" data-x="-3.5858585858585856" data-y="3.383838383838384" cx="173.4949494949496" cy="192.56565656565675" r="28.791999999999987" fill="rgba(0,0,0,0.3)" stroke="black" stroke-width="0.010593220338983056"/><circle data-type="circle" data-label="" data-x="-1.9696969696969693" data-y="-3.484848484848485" cx="326.0606060606061" cy="840.969696969697" r="28.791999999999987" fill="rgba(0,0,0,0.3)" stroke="black" stroke-width="0.010593220338983056"/><circle data-type="circle" data-label="" data-x="-3.5858585858585856" data-y="-3.484848484848485" cx="173.4949494949496" cy="840.969696969697" r="28.791999999999987" fill="rgba(0,0,0,0.3)" stroke="black" stroke-width="0.010593220338983056"/><circle data-type="circle" data-label="" data-x="-3.7878787878787876" data-y="2.070707070707072" cx="154.42424242424255" cy="316.5252525252526" r="28.791999999999987" fill="rgba(0,0,0,0.3)" stroke="black" stroke-width="0.010593220338983056"/><circle data-type="circle" data-label="" data-x="3.989898989898992" data-y="-1.2626262626262625" cx="888.6464646464647" cy="631.1919191919193" r="28.791999999999987" fill="rgba(0,0,0,0.3)" stroke="black" stroke-width="0.010593220338983056"/><circle data-type="circle" data-label="" data-x="-2.8787878787878785" data-y="3.989898989898992" cx="240.2424242424243" cy="135.35353535353545" r="28.791999999999987" fill="rgba(0,0,0,0.3)" stroke="black" stroke-width="0.010593220338983056"/><g id="crosshair" style="display: none"><line id="crosshair-h" y1="0" y2="1024" stroke="#666" stroke-width="0.5"/><line id="crosshair-v" x1="0" x2="1024" stroke="#666" stroke-width="0.5"/><text id="coordinates" font-family="monospace" font-size="12" fill="#666"></text></g><script><![CDATA[
              document.currentScript.parentElement.addEventListener('mousemove', (e) => {
                const svg = e.currentTarget;
                const rect = svg.getBoundingClientRect();
                const x = e.clientX - rect.left;
                const y = e.clientY - rect.top;
                const crosshair = svg.getElementById('crosshair');
                const h = svg.getElementById('crosshair-h');
                const v = svg.getElementById('crosshair-v');
                const coords = svg.getElementById('coordinates');
                
                crosshair.style.display = 'block';
                h.setAttribute('x1', '0');
                h.setAttribute('x2', '1024');
                h.setAttribute('y1', y);
                h.setAttribute('y2', y);
                v.setAttribute('x1', x);
                v.setAttribute('x2', x);
                v.setAttribute('y1', '0');
                v.setAttribute('y2', '1024');

                // Calculate real coordinates using inverse transformation
                const matrix = {"a":94.39999999999996,"c":0,"e":511.99999999999994,"b":0,"d":-94.39999999999996,"f":512.0000000000001};
                // Manually invert and apply the affine transform
                // Since we only use translate and scale, we can directly compute:
                // x' = (x - tx) / sx
                // y' = (y - ty) / sy
                const sx = matrix.a;
                const sy = matrix.d;
                const tx = matrix.e; 
                const ty = matrix.f;
                const realPoint = {
                  x: (x - tx) / sx,
                  y: (y - ty) / sy // Flip y back since we used negative scale
                }
                
                coords.textContent = `(${realPoint.x.toFixed(2)}, ${realPoint.y.toFixed(2)})`;
                coords.setAttribute('x', (x + 5).toString());
                coords.setAttribute('y', (y - 5).toString());
              });
              document.currentScript.parentElement.addEventListener('mouseleave', () => {
                document.currentScript.parentElement.getElementById('crosshair').style.display = 'none';
              });
            ]]></script></svg>