<svg width="1024" height="1024" viewBox="0 0 1024 1024" xmlns="http://www.w3.org/2000/svg"><rect width="100%" height="100%" fill="white"/><g><circle data-type="point" data-label="conn_000" data-x="5" data-y="-0.46" cx="983.9999999999998" cy="555.4240000000001" r="28.792" fill="red" stroke="#bd0f0f" stroke-width="28.792"/></g><g><circle data-type="point" data-label="conn_000" data-x="-5" data-y="3.7" cx="40.000000000000114" cy="162.72000000000025" r="28.792" fill="red" stroke="#bd0f0f" stroke-width="28.792"/></g><g><circle data-type="point" data-label="conn_001" data-x="-0.24" data-y="-5" cx="489.34399999999994" cy="984" r="28.792" fill="blue" stroke="#0fbd42" stroke-width="28.792"/></g><g><circle data-type="point" data-label="conn_001" data-x="-5" data-y="-1.26" cx="40.000000000000114" cy="630.9440000000001" r="28.792" fill="red" stroke="#0fbd42" stroke-width="28.792"/></g><g><circle data-type="point" data-label="conn_002" data-x="0.6" data-y="-5" cx="568.6399999999999" cy="984" r="28.792" fill="blue" stroke="#740fbd" stroke-width="28.792"/></g><g><circle data-type="point" data-label="conn_002" data-x="5" data-y="1.02" cx="983.9999999999998" cy="415.71200000000016" r="28.792" fill="red" stroke="#740fbd" stroke-width="28.792"/></g><g><circle data-type="point" data-label="conn_003" data-x="-3.2600000000000002" data-y="5" cx="204.25600000000003" cy="40.000000000000284" r="28.792" fill="blue" stroke="#bda70f" stroke-width="28.792"/></g><g><circle data-type="point" data-label="conn_003" data-x="-1.96" data-y="-5" cx="326.976" cy="984" r="28.792" fill="red" stroke="#bda70f" stroke-width="28.792"/></g><g><circle data-type="point" data-label="conn_004" data-x="5" data-y="2.5" cx="983.9999999999998" cy="276.0000000000002" r="28.792" fill="blue" stroke="#0fa0bd" stroke-width="28.792"/></g><g><circle data-type="point" data-label="conn_004" data-x="-5" data-y="0.36" cx="40.000000000000114" cy="478.01600000000013" r="28.792" fill="blue" stroke="#0fa0bd" stroke-width="28.792"/></g><g><circle data-type="point" data-label="conn_005" data-x="5" data-y="-2.96" cx="983.9999999999998" cy="791.424" r="28.792" fill="red" stroke="#bd0f6d" stroke-width="28.792"/></g><g><circle data-type="point" data-label="conn_005" data-x="-5" data-y="2.14" cx="40.000000000000114" cy="309.98400000000015" r="28.792" fill="blue" stroke="#bd0f6d" stroke-width="28.792"/></g><g><polyline data-points="5.000000000000002,2.575757575757577 4.898989898989901,2.4747474747474754 4.7979797979797985,2.373737373737375 4.696969696969697,2.2727272727272734 4.595959595959597,2.1717171717171726 4.494949494949497,2.070707070707072 4.393939393939394,1.9696969696969702 4.292929292929293,1.8686868686868696 4.191919191919193,1.767676767676768 4.090909090909092,1.6666666666666674 3.989898989898992,1.5656565656565666 3.8888888888888893,1.4646464646464652 3.7878787878787885,1.3636363636363644 3.6868686868686877,1.262626262626263 3.5858585858585874,1.1616161616161622 3.4848484848484866,1.0606060606060617 3.383838383838384,0.9595959595959602 3.2828282828282833,0.8585858585858596 3.181818181818183,0.7575757575757579 3.080808080808082,0.6565656565656574 2.9797979797979806,0.5555555555555567 2.87878787878788,0.4545454545454551 2.7777777777777786,0.3535353535353544 2.676767676767678,0.3535353535353544 2.575757575757577,0.3535353535353544 2.4747474747474754,0.3535353535353544 2.373737373737375,0.3535353535353544 2.2727272727272734,0.3535353535353544 2.1717171717171726,0.3535353535353544 2.070707070707072,0.3535353535353544 1.9696969696969702,0.3535353535353544 1.8686868686868696,0.3535353535353544 1.767676767676768,0.3535353535353544 1.6666666666666674,0.3535353535353544 1.5656565656565666,0.3535353535353544 1.4646464646464652,0.3535353535353544 1.3636363636363644,0.3535353535353544 1.262626262626263,0.3535353535353544 1.1616161616161622,0.3535353535353544 1.0606060606060617,0.3535353535353544 0.9595959595959602,0.3535353535353544 0.8585858585858596,0.3535353535353544 0.7575757575757579,0.3535353535353544 0.6565656565656574,0.3535353535353544 0.5555555555555567,0.3535353535353544 0.4545454545454551,0.3535353535353544 0.3535353535353544,0.3535353535353544 0.2525252525252529,0.3535353535353544 0.1515151515151522,0.3535353535353544 0.050505050505051545,0.3535353535353544 -0.05050505050505001,0.3535353535353544 -0.15151515151515066,0.3535353535353544 -0.2525252525252522,0.3535353535353544 -0.35353535353535287,0.3535353535353544 -0.4545454545454544,0.3535353535353544 -0.555555555555555,0.3535353535353544 -0.6565656565656557,0.3535353535353544 -0.7575757575757572,0.3535353535353544 -0.8585858585858579,0.3535353535353544 -0.9595959595959596,0.3535353535353544 -1.0606060606060603,0.3535353535353544 -1.1616161616161613,0.3535353535353544 -1.2626262626262625,0.3535353535353544 -1.363636363636363,0.3535353535353544 -1.4646464646464643,0.3535353535353544 -1.5656565656565653,0.3535353535353544 -1.6666666666666665,0.3535353535353544 -1.7676767676767675,0.3535353535353544 -1.8686868686868683,0.3535353535353544 -1.9696969696969693,0.3535353535353544 -2.07070707070707,0.3535353535353544 -2.1717171717171713,0.3535353535353544 -2.2727272727272725,0.3535353535353544 -2.3737373737373733,0.3535353535353544 -2.474747474747474,0.3535353535353544 -2.5757575757575752,0.3535353535353544 -2.6767676767676765,0.3535353535353544 -2.7777777777777777,0.3535353535353544 -2.8787878787878785,0.3535353535353544 -2.9797979797979792,0.3535353535353544 -3.0808080808080804,0.3535353535353544 -3.1818181818181817,0.3535353535353544 -3.2828282828282824,0.3535353535353544 -3.383838383838383,0.3535353535353544 -3.484848484848485,0.3535353535353544 -3.5858585858585856,0.3535353535353544 -3.6868686868686864,0.3535353535353544 -3.7878787878787876,0.3535353535353544 -3.8888888888888884,0.3535353535353544 -3.98989898989899,0.3535353535353544 -4.090909090909091,0.3535353535353544 -4.191919191919193,0.3535353535353544 -4.292929292929293,0.3535353535353544 -4.393939393939394,0.3535353535353544 -4.494949494949496,0.3535353535353544 -4.595959595959596,0.3535353535353544 -4.696969696969697,0.3535353535353544 -4.7979797979797985,0.3535353535353544 -4.898989898989899,0.3535353535353544 -5.000000000000001,0.3535353535353544" data-type="line" data-label="" points="984,268.84848484848493 974.4646464646464,278.38383838383857 964.9292929292927,287.91919191919203 955.3939393939393,297.4545454545456 945.8585858585857,306.9898989898991 936.3232323232323,316.5252525252526 926.7878787878785,326.06060606060623 917.2525252525251,335.5959595959597 907.7171717171716,345.1313131313133 898.181818181818,354.66666666666674 888.6464646464647,364.2020202020203 879.111111111111,373.73737373737384 869.5757575757575,383.27272727272737 860.0404040404039,392.80808080808094 850.5050505050505,402.3434343434344 840.969696969697,411.87878787878793 831.4343434343433,421.4141414141415 821.8989898989898,430.94949494949503 812.3636363636363,440.4848484848486 802.8282828282828,450.0202020202021 793.2929292929292,459.5555555555556 783.7575757575758,469.0909090909092 774.2222222222222,478.6262626262627 764.6868686868686,478.6262626262627 755.1515151515151,478.6262626262627 745.6161616161615,478.6262626262627 736.0808080808081,478.6262626262627 726.5454545454545,478.6262626262627 717.0101010101009,478.6262626262627 707.4747474747475,478.6262626262627 697.9393939393939,478.6262626262627 688.4040404040404,478.6262626262627 678.8686868686868,478.6262626262627 669.3333333333333,478.6262626262627 659.7979797979798,478.6262626262627 650.2626262626262,478.6262626262627 640.7272727272727,478.6262626262627 631.1919191919192,478.6262626262627 621.6565656565656,478.6262626262627 612.1212121212121,478.6262626262627 602.5858585858585,478.6262626262627 593.0505050505051,478.6262626262627 583.5151515151515,478.6262626262627 573.9797979797979,478.6262626262627 564.4444444444445,478.6262626262627 554.9090909090909,478.6262626262627 545.3737373737374,478.6262626262627 535.8383838383838,478.6262626262627 526.3030303030303,478.6262626262627 516.7676767676768,478.6262626262627 507.2323232323232,478.6262626262627 497.69696969696975,478.6262626262627 488.16161616161617,478.6262626262627 478.62626262626264,478.6262626262627 469.09090909090907,478.6262626262627 459.55555555555554,478.6262626262627 450.0202020202021,478.6262626262627 440.4848484848485,478.6262626262627 430.949494949495,478.6262626262627 421.4141414141414,478.6262626262627 411.8787878787879,478.6262626262627 402.34343434343435,478.6262626262627 392.80808080808083,478.6262626262627 383.2727272727273,478.6262626262627 373.7373737373738,478.6262626262627 364.2020202020202,478.6262626262627 354.6666666666667,478.6262626262627 345.13131313131316,478.6262626262627 335.59595959595964,478.6262626262627 326.0606060606061,478.6262626262627 316.5252525252526,478.6262626262627 306.9898989898991,478.6262626262627 297.4545454545455,478.6262626262627 287.91919191919203,478.6262626262627 278.38383838383845,478.6262626262627 268.84848484848493,478.6262626262627 259.3131313131314,478.6262626262627 249.77777777777783,478.6262626262627 240.2424242424243,478.6262626262627 230.70707070707084,478.6262626262627 221.17171717171726,478.6262626262627 211.63636363636374,478.6262626262627 202.10101010101022,478.6262626262627 192.5656565656567,478.6262626262627 183.03030303030312,478.6262626262627 173.4949494949496,478.6262626262627 163.95959595959607,478.6262626262627 154.42424242424255,478.6262626262627 144.88888888888903,478.6262626262627 135.35353535353545,478.6262626262627 125.81818181818193,478.6262626262627 116.28282828282829,478.6262626262627 106.74747474747483,478.6262626262627 97.21212121212136,478.6262626262627 87.67676767676772,478.6262626262627 78.14141414141426,478.6262626262627 68.60606060606068,478.6262626262627 59.07070707070716,478.6262626262627 49.53535353535369,478.6262626262627 40.00000000000006,478.6262626262627" fill="none" stroke="rgba(0,0,255,0.75)" stroke-width="14.159999999999995"/></g><g><polyline data-points="0.5555555555555567,-5.000000000000001 0.6565656565656574,-4.898989898989899 0.7575757575757579,-4.7979797979797985 0.8585858585858596,-4.696969696969697 0.9595959595959602,-4.595959595959596 1.0606060606060617,-4.494949494949496 1.1616161616161622,-4.393939393939394 1.262626262626263,-4.292929292929293 1.3636363636363644,-4.191919191919193 1.4646464646464652,-4.090909090909091 1.5656565656565666,-3.98989898989899 1.6666666666666674,-3.8888888888888884 1.767676767676768,-3.7878787878787876 1.8686868686868696,-3.6868686868686864 1.9696969696969702,-3.5858585858585856 2.070707070707072,-3.484848484848485 2.1717171717171726,-3.383838383838383 2.2727272727272734,-3.2828282828282824 2.373737373737375,-3.1818181818181817 2.4747474747474754,-3.0808080808080804 2.575757575757577,-2.9797979797979792 2.676767676767678,-2.8787878787878785 2.7777777777777786,-2.7777777777777777 2.87878787878788,-2.6767676767676765 2.9797979797979806,-2.5757575757575752 3.080808080808082,-2.474747474747474 3.181818181818183,-2.3737373737373733 3.2828282828282833,-2.2727272727272725 3.383838383838384,-2.1717171717171713 3.4848484848484866,-2.07070707070707 3.5858585858585874,-1.9696969696969693 3.6868686868686877,-1.8686868686868683 3.7878787878787885,-1.7676767676767675 3.8888888888888893,-1.6666666666666665 3.989898989898992,-1.5656565656565653 3.989898989898992,-1.4646464646464643 3.989898989898992,-1.363636363636363 3.989898989898992,-1.2626262626262625 3.989898989898992,-1.1616161616161613 3.989898989898992,-1.0606060606060603 3.989898989898992,-0.9595959595959596 3.989898989898992,-0.8585858585858579 3.989898989898992,-0.7575757575757572 3.989898989898992,-0.6565656565656557 3.989898989898992,-0.555555555555555 3.989898989898992,-0.4545454545454544 3.989898989898992,-0.35353535353535287 3.989898989898992,-0.2525252525252522 3.989898989898992,-0.15151515151515066 3.989898989898992,-0.05050505050505001 3.989898989898992,0.050505050505051545 3.989898989898992,0.1515151515151522 3.989898989898992,0.2525252525252529 3.989898989898992,0.3535353535353544 3.989898989898992,0.4545454545454551 3.989898989898992,0.5555555555555567 3.989898989898992,0.6565656565656574" data-type="line" data-label="" points="564.4444444444445,984 573.9797979797979,974.4646464646464 583.5151515151515,964.9292929292928 593.0505050505051,955.3939393939394 602.5858585858585,945.8585858585858 612.1212121212121,936.3232323232323 621.6565656565656,926.7878787878788 631.1919191919192,917.2525252525252 640.7272727272727,907.7171717171718 650.2626262626262,898.1818181818181 659.7979797979798,888.6464646464647 669.3333333333333,879.1111111111111 678.8686868686868,869.5757575757575 688.4040404040404,860.0404040404039 697.9393939393939,850.5050505050505 707.4747474747475,840.969696969697 717.0101010101009,831.4343434343434 726.5454545454545,821.8989898989898 736.0808080808081,812.3636363636363 745.6161616161615,802.8282828282828 755.1515151515151,793.2929292929292 764.6868686868686,783.7575757575758 774.2222222222222,774.2222222222222 783.7575757575758,764.6868686868687 793.2929292929292,755.1515151515151 802.8282828282828,745.6161616161615 812.3636363636363,736.0808080808081 821.8989898989898,726.5454545454545 831.4343434343433,717.010101010101 840.969696969697,707.4747474747475 850.5050505050505,697.939393939394 860.0404040404039,688.4040404040404 869.5757575757575,678.8686868686868 879.111111111111,669.3333333333334 888.6464646464647,659.7979797979798 888.6464646464647,650.2626262626263 888.6464646464647,640.7272727272727 888.6464646464647,631.1919191919193 888.6464646464647,621.6565656565657 888.6464646464647,612.1212121212121 888.6464646464647,602.5858585858587 888.6464646464647,593.0505050505051 888.6464646464647,583.5151515151516 888.6464646464647,573.979797979798 888.6464646464647,564.4444444444445 888.6464646464647,554.909090909091 888.6464646464647,545.3737373737374 888.6464646464647,535.838383838384 888.6464646464647,526.3030303030304 888.6464646464647,516.7676767676768 888.6464646464647,507.23232323232327 888.6464646464647,497.69696969696975 888.6464646464647,488.1616161616163 888.6464646464647,478.6262626262627 888.6464646464647,469.0909090909092 888.6464646464647,459.5555555555556 888.6464646464647,450.0202020202021" fill="none" stroke="rgba(0,0,255,0.75)" stroke-width="14.159999999999995"/></g><g><polyline data-points="3.989898989898992,0.6565656565656574 4.090909090909092,0.7575757575757579 4.191919191919193,0.8585858585858596 4.292929292929293,0.9595959595959602 4.393939393939394,1.0606060606060617 4.494949494949497,1.0606060606060617 4.595959595959597,1.0606060606060617 4.696969696969697,1.0606060606060617 4.7979797979797985,1.0606060606060617 4.898989898989901,1.0606060606060617 5.000000000000002,1.0606060606060617" data-type="line" data-label="" points="888.6464646464647,450.0202020202021 898.181818181818,440.4848484848486 907.7171717171716,430.94949494949503 917.2525252525251,421.4141414141415 926.7878787878785,411.87878787878793 936.3232323232323,411.87878787878793 945.8585858585857,411.87878787878793 955.3939393939393,411.87878787878793 964.9292929292927,411.87878787878793 974.4646464646464,411.87878787878793 984,411.87878787878793" fill="none" stroke="rgba(255,0,0,0.75)" stroke-width="14.159999999999995"/></g><g><polyline data-points="5.000000000000002,-0.4545454545454544 4.898989898989901,-0.35353535353535287 4.7979797979797985,-0.2525252525252522 4.696969696969697,-0.15151515151515066 4.595959595959597,-0.05050505050505001 4.494949494949497,0.050505050505051545 4.393939393939394,0.1515151515151522 4.292929292929293,0.1515151515151522 4.191919191919193,0.1515151515151522 4.090909090909092,0.1515151515151522 3.989898989898992,0.1515151515151522 3.8888888888888893,0.2525252525252529 3.7878787878787885,0.2525252525252529 3.6868686868686877,0.3535353535353544 3.5858585858585874,0.4545454545454551 3.4848484848484866,0.5555555555555567 3.383838383838384,0.6565656565656574 3.2828282828282833,0.7575757575757579 3.181818181818183,0.8585858585858596 3.080808080808082,0.9595959595959602 2.9797979797979806,1.0606060606060617 2.87878787878788,1.1616161616161622 2.7777777777777786,1.262626262626263 2.676767676767678,1.3636363636363644 2.575757575757577,1.4646464646464652 2.4747474747474754,1.5656565656565666 2.373737373737375,1.6666666666666674 2.2727272727272734,1.767676767676768 2.1717171717171726,1.8686868686868696 2.070707070707072,1.9696969696969702 1.9696969696969702,2.070707070707072 1.8686868686868696,2.1717171717171726 1.767676767676768,2.2727272727272734 1.6666666666666674,2.373737373737375 1.5656565656565666,2.4747474747474754 1.4646464646464652,2.575757575757577 1.3636363636363644,2.676767676767678 1.262626262626263,2.7777777777777786 1.1616161616161622,2.87878787878788 1.0606060606060617,2.9797979797979806 0.9595959595959602,3.080808080808082 0.8585858585858596,3.181818181818183 0.7575757575757579,3.2828282828282833 0.6565656565656574,3.383838383838384 0.5555555555555567,3.4848484848484866 0.4545454545454551,3.5858585858585874 0.3535353535353544,3.6868686868686877 0.2525252525252529,3.6868686868686877 0.1515151515151522,3.6868686868686877 0.050505050505051545,3.6868686868686877 -0.05050505050505001,3.6868686868686877 -0.15151515151515066,3.6868686868686877 -0.2525252525252522,3.6868686868686877 -0.35353535353535287,3.6868686868686877 -0.4545454545454544,3.6868686868686877 -0.555555555555555,3.6868686868686877 -0.6565656565656557,3.6868686868686877 -0.7575757575757572,3.6868686868686877 -0.8585858585858579,3.6868686868686877 -0.9595959595959596,3.6868686868686877 -1.0606060606060603,3.6868686868686877 -1.1616161616161613,3.6868686868686877 -1.2626262626262625,3.6868686868686877 -1.363636363636363,3.6868686868686877 -1.4646464646464643,3.6868686868686877 -1.5656565656565653,3.6868686868686877 -1.6666666666666665,3.6868686868686877 -1.7676767676767675,3.6868686868686877 -1.8686868686868683,3.6868686868686877 -1.9696969696969693,3.6868686868686877 -2.07070707070707,3.6868686868686877 -2.1717171717171713,3.6868686868686877 -2.2727272727272725,3.6868686868686877 -2.3737373737373733,3.6868686868686877 -2.474747474747474,3.6868686868686877 -2.5757575757575752,3.6868686868686877 -2.6767676767676765,3.6868686868686877 -2.7777777777777777,3.6868686868686877 -2.8787878787878785,3.6868686868686877 -2.9797979797979792,3.6868686868686877 -3.0808080808080804,3.6868686868686877 -3.1818181818181817,3.6868686868686877 -3.2828282828282824,3.6868686868686877 -3.383838383838383,3.6868686868686877 -3.484848484848485,3.6868686868686877 -3.5858585858585856,3.6868686868686877 -3.6868686868686864,3.6868686868686877 -3.7878787878787876,3.6868686868686877 -3.8888888888888884,3.6868686868686877 -3.98989898989899,3.6868686868686877 -4.090909090909091,3.6868686868686877 -4.191919191919193,3.6868686868686877 -4.292929292929293,3.6868686868686877 -4.393939393939394,3.6868686868686877 -4.494949494949496,3.6868686868686877 -4.595959595959596,3.6868686868686877 -4.696969696969697,3.6868686868686877 -4.7979797979797985,3.6868686868686877 -4.898989898989899,3.6868686868686877 -5.000000000000001,3.6868686868686877" data-type="line" data-label="" points="984,554.909090909091 974.4646464646464,545.3737373737374 964.9292929292927,535.838383838384 955.3939393939393,526.3030303030304 945.8585858585857,516.7676767676768 936.3232323232323,507.23232323232327 926.7878787878785,497.69696969696975 917.2525252525251,497.69696969696975 907.7171717171716,497.69696969696975 898.181818181818,497.69696969696975 888.6464646464647,497.69696969696975 879.111111111111,488.1616161616163 869.5757575757575,488.1616161616163 860.0404040404039,478.6262626262627 850.5050505050505,469.0909090909092 840.969696969697,459.5555555555556 831.4343434343433,450.0202020202021 821.8989898989898,440.4848484848486 812.3636363636363,430.94949494949503 802.8282828282828,421.4141414141415 793.2929292929292,411.87878787878793 783.7575757575758,402.3434343434344 774.2222222222222,392.80808080808094 764.6868686868686,383.27272727272737 755.1515151515151,373.73737373737384 745.6161616161615,364.2020202020203 736.0808080808081,354.66666666666674 726.5454545454545,345.1313131313133 717.0101010101009,335.5959595959597 707.4747474747475,326.06060606060623 697.9393939393939,316.5252525252526 688.4040404040404,306.9898989898991 678.8686868686868,297.4545454545456 669.3333333333333,287.91919191919203 659.7979797979798,278.38383838383857 650.2626262626262,268.84848484848493 640.7272727272727,259.3131313131314 631.1919191919192,249.77777777777794 621.6565656565656,240.24242424242436 612.1212121212121,230.70707070707084 602.5858585858585,221.17171717171726 593.0505050505051,211.63636363636374 583.5151515151515,202.10101010101027 573.9797979797979,192.56565656565675 564.4444444444445,183.03030303030312 554.9090909090909,173.4949494949496 545.3737373737374,163.95959595959613 535.8383838383838,163.95959595959613 526.3030303030303,163.95959595959613 516.7676767676768,163.95959595959613 507.2323232323232,163.95959595959613 497.69696969696975,163.95959595959613 488.16161616161617,163.95959595959613 478.62626262626264,163.95959595959613 469.09090909090907,163.95959595959613 459.55555555555554,163.95959595959613 450.0202020202021,163.95959595959613 440.4848484848485,163.95959595959613 430.949494949495,163.95959595959613 421.4141414141414,163.95959595959613 411.8787878787879,163.95959595959613 402.34343434343435,163.95959595959613 392.80808080808083,163.95959595959613 383.2727272727273,163.95959595959613 373.7373737373738,163.95959595959613 364.2020202020202,163.95959595959613 354.6666666666667,163.95959595959613 345.13131313131316,163.95959595959613 335.59595959595964,163.95959595959613 326.0606060606061,163.95959595959613 316.5252525252526,163.95959595959613 306.9898989898991,163.95959595959613 297.4545454545455,163.95959595959613 287.91919191919203,163.95959595959613 278.38383838383845,163.95959595959613 268.84848484848493,163.95959595959613 259.3131313131314,163.95959595959613 249.77777777777783,163.95959595959613 240.2424242424243,163.95959595959613 230.70707070707084,163.95959595959613 221.17171717171726,163.95959595959613 211.63636363636374,163.95959595959613 202.10101010101022,163.95959595959613 192.5656565656567,163.95959595959613 183.03030303030312,163.95959595959613 173.4949494949496,163.95959595959613 163.95959595959607,163.95959595959613 154.42424242424255,163.95959595959613 144.88888888888903,163.95959595959613 135.35353535353545,163.95959595959613 125.81818181818193,163.95959595959613 116.28282828282829,163.95959595959613 106.74747474747483,163.95959595959613 97.21212121212136,163.95959595959613 87.67676767676772,163.95959595959613 78.14141414141426,163.95959595959613 68.60606060606068,163.95959595959613 59.07070707070716,163.95959595959613 49.53535353535369,163.95959595959613 40.00000000000006,163.95959595959613" fill="none" stroke="rgba(255,0,0,0.75)" stroke-width="14.159999999999995"/></g><g><polyline data-points="5.000000000000002,-2.9797979797979792 4.898989898989901,-2.8787878787878785 4.7979797979797985,-2.7777777777777777 4.696969696969697,-2.6767676767676765 4.595959595959597,-2.5757575757575752 4.494949494949497,-2.474747474747474 4.393939393939394,-2.3737373737373733 4.292929292929293,-2.2727272727272725 4.191919191919193,-2.1717171717171713 4.090909090909092,-2.07070707070707 3.989898989898992,-1.9696969696969693 3.8888888888888893,-1.8686868686868683 3.7878787878787885,-1.7676767676767675 3.6868686868686877,-1.6666666666666665 3.5858585858585874,-1.5656565656565653 3.4848484848484866,-1.4646464646464643 3.383838383838384,-1.363636363636363 3.2828282828282833,-1.2626262626262625 3.181818181818183,-1.1616161616161613 3.080808080808082,-1.0606060606060603 2.9797979797979806,-0.9595959595959596 2.87878787878788,-0.8585858585858579 2.7777777777777786,-0.7575757575757572 2.676767676767678,-0.6565656565656557 2.575757575757577,-0.555555555555555 2.4747474747474754,-0.4545454545454544 2.373737373737375,-0.35353535353535287 2.2727272727272734,-0.2525252525252522 2.1717171717171726,-0.15151515151515066 2.070707070707072,-0.05050505050505001 1.9696969696969702,0.050505050505051545 1.8686868686868696,0.1515151515151522 1.767676767676768,0.2525252525252529 1.6666666666666674,0.3535353535353544 1.5656565656565666,0.4545454545454551 1.4646464646464652,0.5555555555555567 1.3636363636363644,0.6565656565656574 1.262626262626263,0.7575757575757579 1.1616161616161622,0.8585858585858596 1.0606060606060617,0.9595959595959602 0.9595959595959602,1.0606060606060617 0.8585858585858596,1.1616161616161622 0.7575757575757579,1.262626262626263 0.6565656565656574,1.3636363636363644 0.5555555555555567,1.4646464646464652 0.4545454545454551,1.5656565656565666 0.3535353535353544,1.6666666666666674 0.2525252525252529,1.767676767676768 0.1515151515151522,1.8686868686868696 0.050505050505051545,1.9696969696969702 -0.05050505050505001,2.070707070707072 -0.15151515151515066,2.1717171717171726 -0.2525252525252522,2.1717171717171726 -0.35353535353535287,2.1717171717171726 -0.4545454545454544,2.1717171717171726 -0.555555555555555,2.1717171717171726 -0.6565656565656557,2.1717171717171726 -0.7575757575757572,2.1717171717171726 -0.8585858585858579,2.1717171717171726 -0.9595959595959596,2.1717171717171726 -1.0606060606060603,2.1717171717171726 -1.1616161616161613,2.1717171717171726 -1.2626262626262625,2.1717171717171726 -1.363636363636363,2.1717171717171726 -1.4646464646464643,2.1717171717171726 -1.5656565656565653,2.1717171717171726 -1.6666666666666665,2.1717171717171726 -1.7676767676767675,2.1717171717171726 -1.8686868686868683,2.1717171717171726 -1.9696969696969693,2.1717171717171726 -2.07070707070707,2.1717171717171726 -2.1717171717171713,2.1717171717171726 -2.2727272727272725,2.1717171717171726 -2.3737373737373733,2.1717171717171726 -2.474747474747474,2.1717171717171726 -2.5757575757575752,2.1717171717171726 -2.6767676767676765,2.1717171717171726 -2.7777777777777777,2.1717171717171726 -2.8787878787878785,2.1717171717171726 -2.9797979797979792,2.1717171717171726 -3.0808080808080804,2.1717171717171726 -3.1818181818181817,2.1717171717171726 -3.2828282828282824,2.1717171717171726 -3.383838383838383,2.1717171717171726 -3.484848484848485,2.1717171717171726 -3.5858585858585856,2.1717171717171726 -3.6868686868686864,2.1717171717171726 -3.7878787878787876,2.1717171717171726 -3.8888888888888884,2.1717171717171726 -3.98989898989899,2.1717171717171726" data-type="line" data-label="" points="984,793.2929292929292 974.4646464646464,783.7575757575758 964.9292929292927,774.2222222222222 955.3939393939393,764.6868686868687 945.8585858585857,755.1515151515151 936.3232323232323,745.6161616161615 926.7878787878785,736.0808080808081 917.2525252525251,726.5454545454545 907.7171717171716,717.010101010101 898.181818181818,707.4747474747475 888.6464646464647,697.939393939394 879.111111111111,688.4040404040404 869.5757575757575,678.8686868686868 860.0404040404039,669.3333333333334 850.5050505050505,659.7979797979798 840.969696969697,650.2626262626263 831.4343434343433,640.7272727272727 821.8989898989898,631.1919191919193 812.3636363636363,621.6565656565657 802.8282828282828,612.1212121212121 793.2929292929292,602.5858585858587 783.7575757575758,593.0505050505051 774.2222222222222,583.5151515151516 764.6868686868686,573.979797979798 755.1515151515151,564.4444444444445 745.6161616161615,554.909090909091 736.0808080808081,545.3737373737374 726.5454545454545,535.838383838384 717.0101010101009,526.3030303030304 707.4747474747475,516.7676767676768 697.9393939393939,507.23232323232327 688.4040404040404,497.69696969696975 678.8686868686868,488.1616161616163 669.3333333333333,478.6262626262627 659.7979797979798,469.0909090909092 650.2626262626262,459.5555555555556 640.7272727272727,450.0202020202021 631.1919191919192,440.4848484848486 621.6565656565656,430.94949494949503 612.1212121212121,421.4141414141415 602.5858585858585,411.87878787878793 593.0505050505051,402.3434343434344 583.5151515151515,392.80808080808094 573.9797979797979,383.27272727272737 564.4444444444445,373.73737373737384 554.9090909090909,364.2020202020203 545.3737373737374,354.66666666666674 535.8383838383838,345.1313131313133 526.3030303030303,335.5959595959597 516.7676767676768,326.06060606060623 507.2323232323232,316.5252525252526 497.69696969696975,306.9898989898991 488.16161616161617,306.9898989898991 478.62626262626264,306.9898989898991 469.09090909090907,306.9898989898991 459.55555555555554,306.9898989898991 450.0202020202021,306.9898989898991 440.4848484848485,306.9898989898991 430.949494949495,306.9898989898991 421.4141414141414,306.9898989898991 411.8787878787879,306.9898989898991 402.34343434343435,306.9898989898991 392.80808080808083,306.9898989898991 383.2727272727273,306.9898989898991 373.7373737373738,306.9898989898991 364.2020202020202,306.9898989898991 354.6666666666667,306.9898989898991 345.13131313131316,306.9898989898991 335.59595959595964,306.9898989898991 326.0606060606061,306.9898989898991 316.5252525252526,306.9898989898991 306.9898989898991,306.9898989898991 297.4545454545455,306.9898989898991 287.91919191919203,306.9898989898991 278.38383838383845,306.9898989898991 268.84848484848493,306.9898989898991 259.3131313131314,306.9898989898991 249.77777777777783,306.9898989898991 240.2424242424243,306.9898989898991 230.70707070707084,306.9898989898991 221.17171717171726,306.9898989898991 211.63636363636374,306.9898989898991 202.10101010101022,306.9898989898991 192.5656565656567,306.9898989898991 183.03030303030312,306.9898989898991 173.4949494949496,306.9898989898991 163.95959595959607,306.9898989898991 154.42424242424255,306.9898989898991 144.88888888888903,306.9898989898991 135.35353535353545,306.9898989898991" fill="none" stroke="rgba(255,0,0,0.75)" stroke-width="14.159999999999995"/></g><g><polyline data-points="-3.98989898989899,2.1717171717171726 -4.090909090909091,2.1717171717171726 -4.191919191919193,2.1717171717171726 -4.292929292929293,2.1717171717171726 -4.393939393939394,2.1717171717171726 -4.494949494949496,2.1717171717171726 -4.595959595959596,2.1717171717171726 -4.696969696969697,2.1717171717171726 -4.7979797979797985,2.1717171717171726 -4.898989898989899,2.1717171717171726 -5.000000000000001,2.1717171717171726" data-type="line" data-label="" points="135.35353535353545,306.9898989898991 125.81818181818193,306.9898989898991 116.28282828282829,306.9898989898991 106.74747474747483,306.9898989898991 97.21212121212136,306.9898989898991 87.67676767676772,306.9898989898991 78.14141414141426,306.9898989898991 68.60606060606068,306.9898989898991 59.07070707070716,306.9898989898991 49.53535353535369,306.9898989898991 40.00000000000006,306.9898989898991" fill="none" stroke="rgba(0,0,255,0.75)" stroke-width="14.159999999999995"/></g><g><polyline data-points="-0.2525252525252522,-5.000000000000001 -0.35353535353535287,-4.898989898989899 -0.4545454545454544,-4.7979797979797985 -0.555555555555555,-4.696969696969697 -0.6565656565656557,-4.595959595959596 -0.7575757575757572,-4.494949494949496 -0.8585858585858579,-4.393939393939394 -0.9595959595959596,-4.292929292929293 -1.0606060606060603,-4.191919191919193 -1.1616161616161613,-4.090909090909091 -1.2626262626262625,-3.98989898989899 -1.363636363636363,-3.8888888888888884 -1.4646464646464643,-3.7878787878787876 -1.5656565656565653,-3.6868686868686864 -1.6666666666666665,-3.5858585858585856 -1.7676767676767675,-3.484848484848485 -1.8686868686868683,-3.383838383838383 -1.9696969696969693,-3.2828282828282824 -2.07070707070707,-3.1818181818181817 -2.1717171717171713,-3.0808080808080804 -2.2727272727272725,-2.9797979797979792 -2.3737373737373733,-2.8787878787878785 -2.474747474747474,-2.7777777777777777 -2.5757575757575752,-2.6767676767676765 -2.6767676767676765,-2.5757575757575752 -2.7777777777777777,-2.474747474747474 -2.8787878787878785,-2.3737373737373733 -2.9797979797979792,-2.2727272727272725 -3.0808080808080804,-2.1717171717171713 -3.1818181818181817,-2.07070707070707 -3.2828282828282824,-1.9696969696969693 -3.383838383838383,-1.8686868686868683 -3.484848484848485,-1.7676767676767675 -3.5858585858585856,-1.6666666666666665 -3.6868686868686864,-1.5656565656565653 -3.7878787878787876,-1.4646464646464643 -3.8888888888888884,-1.363636363636363 -3.98989898989899,-1.2626262626262625" data-type="line" data-label="" points="488.16161616161617,984 478.62626262626264,974.4646464646464 469.09090909090907,964.9292929292928 459.55555555555554,955.3939393939394 450.0202020202021,945.8585858585858 440.4848484848485,936.3232323232323 430.949494949495,926.7878787878788 421.4141414141414,917.2525252525252 411.8787878787879,907.7171717171718 402.34343434343435,898.1818181818181 392.80808080808083,888.6464646464647 383.2727272727273,879.1111111111111 373.7373737373738,869.5757575757575 364.2020202020202,860.0404040404039 354.6666666666667,850.5050505050505 345.13131313131316,840.969696969697 335.59595959595964,831.4343434343434 326.0606060606061,821.8989898989898 316.5252525252526,812.3636363636363 306.9898989898991,802.8282828282828 297.4545454545455,793.2929292929292 287.91919191919203,783.7575757575758 278.38383838383845,774.2222222222222 268.84848484848493,764.6868686868687 259.3131313131314,755.1515151515151 249.77777777777783,745.6161616161615 240.2424242424243,736.0808080808081 230.70707070707084,726.5454545454545 221.17171717171726,717.010101010101 211.63636363636374,707.4747474747475 202.10101010101022,697.939393939394 192.5656565656567,688.4040404040404 183.03030303030312,678.8686868686868 173.4949494949496,669.3333333333334 163.95959595959607,659.7979797979798 154.42424242424255,650.2626262626263 144.88888888888903,640.7272727272727 135.35353535353545,631.1919191919193" fill="none" stroke="rgba(0,0,255,0.75)" stroke-width="14.159999999999995"/></g><g><polyline data-points="-3.98989898989899,-1.2626262626262625 -4.090909090909091,-1.2626262626262625 -4.191919191919193,-1.2626262626262625 -4.292929292929293,-1.2626262626262625 -4.393939393939394,-1.2626262626262625 -4.494949494949496,-1.2626262626262625 -4.595959595959596,-1.2626262626262625 -4.696969696969697,-1.2626262626262625 -4.7979797979797985,-1.2626262626262625 -4.898989898989899,-1.2626262626262625 -5.000000000000001,-1.2626262626262625" data-type="line" data-label="" points="135.35353535353545,631.1919191919193 125.81818181818193,631.1919191919193 116.28282828282829,631.1919191919193 106.74747474747483,631.1919191919193 97.21212121212136,631.1919191919193 87.67676767676772,631.1919191919193 78.14141414141426,631.1919191919193 68.60606060606068,631.1919191919193 59.07070707070716,631.1919191919193 49.53535353535369,631.1919191919193 40.00000000000006,631.1919191919193" fill="none" stroke="rgba(255,0,0,0.75)" stroke-width="14.159999999999995"/></g><g><polyline data-points="-3.2828282828282824,5.000000000000002 -3.1818181818181817,4.898989898989901 -3.0808080808080804,4.7979797979797985 -2.9797979797979792,4.696969696969697 -2.8787878787878785,4.595959595959597 -2.7777777777777777,4.494949494949497 -2.6767676767676765,4.393939393939394 -2.5757575757575752,4.292929292929293 -2.474747474747474,4.191919191919193 -2.3737373737373733,4.090909090909092 -2.2727272727272725,3.989898989898992 -2.1717171717171713,3.8888888888888893 -2.07070707070707,3.7878787878787885 -1.9696969696969693,3.6868686868686877 -1.9696969696969693,3.5858585858585874 -1.9696969696969693,3.4848484848484866 -1.9696969696969693,3.383838383838384 -1.9696969696969693,3.2828282828282833 -1.9696969696969693,3.181818181818183 -1.9696969696969693,3.080808080808082 -1.9696969696969693,2.9797979797979806 -1.9696969696969693,2.87878787878788 -1.9696969696969693,2.7777777777777786 -1.9696969696969693,2.676767676767678 -1.9696969696969693,2.575757575757577 -1.9696969696969693,2.4747474747474754 -1.9696969696969693,2.373737373737375 -1.9696969696969693,2.2727272727272734 -1.9696969696969693,2.1717171717171726 -1.9696969696969693,2.070707070707072 -1.9696969696969693,1.9696969696969702 -1.9696969696969693,1.8686868686868696 -1.9696969696969693,1.767676767676768 -1.9696969696969693,1.6666666666666674 -1.9696969696969693,1.5656565656565666 -1.9696969696969693,1.4646464646464652 -1.9696969696969693,1.3636363636363644 -1.9696969696969693,1.262626262626263 -1.9696969696969693,1.1616161616161622 -1.9696969696969693,1.0606060606060617 -1.9696969696969693,0.9595959595959602" data-type="line" data-label="" points="202.10101010101022,40.000000000000114 211.63636363636374,49.53535353535369 221.17171717171726,59.07070707070733 230.70707070707084,68.60606060606085 240.2424242424243,78.14141414141432 249.77777777777783,87.67676767676778 259.3131313131314,97.21212121212153 268.84848484848493,106.747474747475 278.38383838383845,116.28282828282846 287.91919191919203,125.81818181818198 297.4545454545455,135.35353535353545 306.9898989898991,144.88888888888908 316.5252525252526,154.4242424242426 326.0606060606061,163.95959595959613 326.0606060606061,173.4949494949496 326.0606060606061,183.03030303030312 326.0606060606061,192.56565656565675 326.0606060606061,202.10101010101027 326.0606060606061,211.63636363636374 326.0606060606061,221.17171717171726 326.0606060606061,230.70707070707084 326.0606060606061,240.24242424242436 326.0606060606061,249.77777777777794 326.0606060606061,259.3131313131314 326.0606060606061,268.84848484848493 326.0606060606061,278.38383838383857 326.0606060606061,287.91919191919203 326.0606060606061,297.4545454545456 326.0606060606061,306.9898989898991 326.0606060606061,316.5252525252526 326.0606060606061,326.06060606060623 326.0606060606061,335.5959595959597 326.0606060606061,345.1313131313133 326.0606060606061,354.66666666666674 326.0606060606061,364.2020202020203 326.0606060606061,373.73737373737384 326.0606060606061,383.27272727272737 326.0606060606061,392.80808080808094 326.0606060606061,402.3434343434344 326.0606060606061,411.87878787878793 326.0606060606061,421.4141414141415" fill="none" stroke="rgba(0,0,255,0.75)" stroke-width="14.159999999999995"/></g><g><polyline data-points="-1.9696969696969693,0.9595959595959602 -1.9696969696969693,0.8585858585858596 -1.9696969696969693,0.7575757575757579 -1.9696969696969693,0.6565656565656574 -1.9696969696969693,0.5555555555555567 -1.9696969696969693,0.4545454545454551 -1.9696969696969693,0.3535353535353544 -1.9696969696969693,0.2525252525252529 -1.9696969696969693,0.1515151515151522 -1.9696969696969693,0.050505050505051545 -1.9696969696969693,-0.05050505050505001 -1.9696969696969693,-0.15151515151515066 -1.9696969696969693,-0.2525252525252522 -1.9696969696969693,-0.35353535353535287 -1.9696969696969693,-0.4545454545454544 -1.9696969696969693,-0.555555555555555 -1.9696969696969693,-0.6565656565656557 -1.9696969696969693,-0.7575757575757572 -1.9696969696969693,-0.8585858585858579 -1.9696969696969693,-0.9595959595959596 -1.9696969696969693,-1.0606060606060603 -1.9696969696969693,-1.1616161616161613 -1.9696969696969693,-1.2626262626262625 -1.9696969696969693,-1.363636363636363 -1.9696969696969693,-1.4646464646464643 -1.9696969696969693,-1.5656565656565653 -1.9696969696969693,-1.6666666666666665 -1.9696969696969693,-1.7676767676767675 -1.9696969696969693,-1.8686868686868683 -1.9696969696969693,-1.9696969696969693 -1.9696969696969693,-2.07070707070707 -1.9696969696969693,-2.1717171717171713 -1.9696969696969693,-2.2727272727272725 -1.9696969696969693,-2.3737373737373733 -1.9696969696969693,-2.474747474747474 -1.9696969696969693,-2.5757575757575752 -1.9696969696969693,-2.6767676767676765 -1.9696969696969693,-2.7777777777777777 -1.9696969696969693,-2.8787878787878785 -1.9696969696969693,-2.9797979797979792 -1.9696969696969693,-3.0808080808080804 -1.9696969696969693,-3.1818181818181817 -1.9696969696969693,-3.2828282828282824 -1.9696969696969693,-3.383838383838383 -1.9696969696969693,-3.484848484848485 -1.9696969696969693,-3.5858585858585856 -1.9696969696969693,-3.6868686868686864 -1.9696969696969693,-3.7878787878787876 -1.9696969696969693,-3.8888888888888884 -1.9696969696969693,-3.98989898989899 -1.9696969696969693,-4.090909090909091 -1.9696969696969693,-4.191919191919193 -1.9696969696969693,-4.292929292929293 -1.9696969696969693,-4.393939393939394 -1.9696969696969693,-4.494949494949496 -1.9696969696969693,-4.595959595959596 -1.9696969696969693,-4.696969696969697 -1.9696969696969693,-4.7979797979797985 -1.9696969696969693,-4.898989898989899 -1.9696969696969693,-5.000000000000001" data-type="line" data-label="" points="326.0606060606061,421.4141414141415 326.0606060606061,430.94949494949503 326.0606060606061,440.4848484848486 326.0606060606061,450.0202020202021 326.0606060606061,459.5555555555556 326.0606060606061,469.0909090909092 326.0606060606061,478.6262626262627 326.0606060606061,488.1616161616163 326.0606060606061,497.69696969696975 326.0606060606061,507.23232323232327 326.0606060606061,516.7676767676768 326.0606060606061,526.3030303030304 326.0606060606061,535.838383838384 326.0606060606061,545.3737373737374 326.0606060606061,554.909090909091 326.0606060606061,564.4444444444445 326.0606060606061,573.979797979798 326.0606060606061,583.5151515151516 326.0606060606061,593.0505050505051 326.0606060606061,602.5858585858587 326.0606060606061,612.1212121212121 326.0606060606061,621.6565656565657 326.0606060606061,631.1919191919193 326.0606060606061,640.7272727272727 326.0606060606061,650.2626262626263 326.0606060606061,659.7979797979798 326.0606060606061,669.3333333333334 326.0606060606061,678.8686868686868 326.0606060606061,688.4040404040404 326.0606060606061,697.939393939394 326.0606060606061,707.4747474747475 326.0606060606061,717.010101010101 326.0606060606061,726.5454545454545 326.0606060606061,736.0808080808081 326.0606060606061,745.6161616161615 326.0606060606061,755.1515151515151 326.0606060606061,764.6868686868687 326.0606060606061,774.2222222222222 326.0606060606061,783.7575757575758 326.0606060606061,793.2929292929292 326.0606060606061,802.8282828282828 326.0606060606061,812.3636363636363 326.0606060606061,821.8989898989898 326.0606060606061,831.4343434343434 326.0606060606061,840.969696969697 326.0606060606061,850.5050505050505 326.0606060606061,860.0404040404039 326.0606060606061,869.5757575757575 326.0606060606061,879.1111111111111 326.0606060606061,888.6464646464647 326.0606060606061,898.1818181818181 326.0606060606061,907.7171717171718 326.0606060606061,917.2525252525252 326.0606060606061,926.7878787878788 326.0606060606061,936.3232323232323 326.0606060606061,945.8585858585858 326.0606060606061,955.3939393939394 326.0606060606061,964.9292929292928 326.0606060606061,974.4646464646464 326.0606060606061,984" fill="none" stroke="rgba(255,0,0,0.75)" stroke-width="14.159999999999995"/></g><g><rect data-type="rect" data-label="" data-x="0" data-y="0" x="40.000000000000114" y="40.000000000000284" width="943.9999999999997" height="943.9999999999998" fill="none" stroke="gray" stroke-width="0.010593220338983056"/></g><g><rect data-type="rect" data-label="" data-x="0" data-y="0" x="40.000000000000114" y="40.000000000000284" width="943.9999999999997" height="943.9999999999998" fill="none" stroke="rgba(15, 23, 42, 0.8)" stroke-width="0.010593220338983056"/></g><circle data-type="circle" data-label="" data-x="3.989898989898992" data-y="0.6565656565656574" cx="888.6464646464647" cy="450.0202020202021" r="28.791999999999987" fill="rgba(0,0,0,0.3)" stroke="black" stroke-width="0.010593220338983056"/><circle data-type="circle" data-label="" data-x="-3.98989898989899" data-y="2.1717171717171726" cx="135.35353535353545" cy="306.9898989898991" r="28.791999999999987" fill="rgba(0,0,0,0.3)" stroke="black" stroke-width="0.010593220338983056"/><circle data-type="circle" data-label="" data-x="-3.98989898989899" data-y="-1.2626262626262625" cx="135.35353535353545" cy="631.1919191919193" r="28.791999999999987" fill="rgba(0,0,0,0.3)" stroke="black" stroke-width="0.010593220338983056"/><circle data-type="circle" data-label="" data-x="-1.9696969696969693" data-y="0.9595959595959602" cx="326.0606060606061" cy="421.4141414141415" r="28.791999999999987" fill="rgba(0,0,0,0.3)" stroke="black" stroke-width="0.010593220338983056"/><g id="crosshair" style="display: none"><line id="crosshair-h" y1="0" y2="1024" stroke="#666" stroke-width="0.5"/><line id="crosshair-v" x1="0" x2="1024" stroke="#666" stroke-width="0.5"/><text id="coordinates" font-family="monospace" font-size="12" fill="#666"></text></g><script><![CDATA[
              document.currentScript.parentElement.addEventListener('mousemove', (e) => {
                const svg = e.currentTarget;
                const rect = svg.getBoundingClientRect();
                const x = e.clientX - rect.left;
                const y = e.clientY - rect.top;
                const crosshair = svg.getElementById('crosshair');
                const h = svg.getElementById('crosshair-h');
                const v = svg.getElementById('crosshair-v');
                const coords = svg.getElementById('coordinates');
                
                crosshair.style.display = 'block';
                h.setAttribute('x1', '0');
                h.setAttribute('x2', '1024');
                h.setAttribute('y1', y);
                h.setAttribute('y2', y);
                v.setAttribute('x1', x);
                v.setAttribute('x2', x);
                v.setAttribute('y1', '0');
                v.setAttribute('y2', '1024');

                // Calculate real coordinates using inverse transformation
                const matrix = {"a":94.39999999999996,"c":0,"e":511.99999999999994,"b":0,"d":-94.39999999999996,"f":512.0000000000001};
                // Manually invert and apply the affine transform
                // Since we only use translate and scale, we can directly compute:
                // x' = (x - tx) / sx
                // y' = (y - ty) / sy
                const sx = matrix.a;
                const sy = matrix.d;
                const tx = matrix.e; 
                const ty = matrix.f;
                const realPoint = {
                  x: (x - tx) / sx,
                  y: (y - ty) / sy // Flip y back since we used negative scale
                }
                
                coords.textContent = `(${realPoint.x.toFixed(2)}, ${realPoint.y.toFixed(2)})`;
                coords.setAttribute('x', (x + 5).toString());
                coords.setAttribute('y', (y - 5).toString());
              });
              document.currentScript.parentElement.addEventListener('mouseleave', () => {
                document.currentScript.parentElement.getElementById('crosshair').style.display = 'none';
              });
            ]]></script></svg>