<svg width="1024" height="1024" viewBox="0 0 1024 1024" xmlns="http://www.w3.org/2000/svg"><rect width="100%" height="100%" fill="white"/><g><circle data-type="point" data-label="conn_000" data-x="5" data-y="-4.74" cx="983.9999999999998" cy="959.4559999999998" r="28.792" fill="blue" stroke="#0fbd42" stroke-width="28.792"/></g><g><circle data-type="point" data-label="conn_000" data-x="-5" data-y="-3.86" cx="40.000000000000114" cy="876.3839999999998" r="28.792" fill="red" stroke="#0fbd42" stroke-width="28.792"/></g><g><circle data-type="point" data-label="conn_001" data-x="5" data-y="1.48" cx="983.9999999999998" cy="372.288" r="28.792" fill="blue" stroke="#740fbd" stroke-width="28.792"/></g><g><circle data-type="point" data-label="conn_001" data-x="-0.14" data-y="-5" cx="498.78399999999993" cy="983.9999999999998" r="28.792" fill="red" stroke="#740fbd" stroke-width="28.792"/></g><g><circle data-type="point" data-label="conn_002" data-x="5" data-y="3.16" cx="983.9999999999998" cy="213.69600000000003" r="28.792" fill="red" stroke="#bda70f" stroke-width="28.792"/></g><g><circle data-type="point" data-label="conn_002" data-x="-5" data-y="4.32" cx="40.000000000000114" cy="104.19200000000006" r="28.792" fill="red" stroke="#bda70f" stroke-width="28.792"/></g><g><polyline data-points="5.000000000000002,3.181818181818183 4.898989898989901,3.2828282828282833 4.7979797979797985,3.383838383838384 4.696969696969697,3.4848484848484866 4.595959595959597,3.5858585858585874 4.494949494949497,3.6868686868686877 4.393939393939394,3.7878787878787885 4.292929292929293,3.8888888888888893 4.191919191919193,3.989898989898992 4.090909090909092,4.090909090909092 3.989898989898992,4.191919191919193 3.8888888888888893,4.292929292929293 3.7878787878787885,4.393939393939394 3.6868686868686877,4.393939393939394 3.5858585858585874,4.393939393939394 3.4848484848484866,4.393939393939394 3.383838383838384,4.393939393939394 3.2828282828282833,4.393939393939394 3.181818181818183,4.393939393939394 3.080808080808082,4.393939393939394 2.9797979797979806,4.393939393939394 2.87878787878788,4.393939393939394 2.7777777777777786,4.393939393939394 2.676767676767678,4.393939393939394 2.575757575757577,4.393939393939394 2.4747474747474754,4.393939393939394 2.373737373737375,4.393939393939394 2.2727272727272734,4.393939393939394 2.1717171717171726,4.393939393939394 2.070707070707072,4.393939393939394 1.9696969696969702,4.393939393939394 1.8686868686868696,4.393939393939394 1.767676767676768,4.393939393939394 1.6666666666666674,4.393939393939394 1.5656565656565666,4.393939393939394 1.4646464646464652,4.393939393939394 1.3636363636363644,4.393939393939394 1.262626262626263,4.393939393939394 1.1616161616161622,4.393939393939394 1.0606060606060617,4.393939393939394 0.9595959595959602,4.393939393939394 0.8585858585858596,4.393939393939394 0.7575757575757579,4.393939393939394 0.6565656565656574,4.393939393939394 0.5555555555555567,4.393939393939394 0.4545454545454551,4.393939393939394 0.3535353535353544,4.393939393939394 0.2525252525252529,4.393939393939394 0.1515151515151522,4.393939393939394 0.050505050505051545,4.393939393939394 -0.05050505050505001,4.393939393939394 -0.15151515151515066,4.393939393939394 -0.2525252525252522,4.393939393939394 -0.35353535353535287,4.393939393939394 -0.4545454545454544,4.393939393939394 -0.555555555555555,4.393939393939394 -0.6565656565656557,4.393939393939394 -0.7575757575757572,4.393939393939394 -0.8585858585858579,4.393939393939394 -0.9595959595959596,4.393939393939394 -1.0606060606060603,4.393939393939394 -1.1616161616161613,4.393939393939394 -1.2626262626262625,4.393939393939394 -1.363636363636363,4.393939393939394 -1.4646464646464643,4.393939393939394 -1.5656565656565653,4.393939393939394 -1.6666666666666665,4.393939393939394 -1.7676767676767675,4.393939393939394 -1.8686868686868683,4.393939393939394 -1.9696969696969693,4.393939393939394 -2.07070707070707,4.393939393939394 -2.1717171717171713,4.393939393939394 -2.2727272727272725,4.393939393939394 -2.3737373737373733,4.393939393939394 -2.474747474747474,4.393939393939394 -2.5757575757575752,4.393939393939394 -2.6767676767676765,4.393939393939394 -2.7777777777777777,4.393939393939394 -2.8787878787878785,4.393939393939394 -2.9797979797979792,4.393939393939394 -3.0808080808080804,4.393939393939394 -3.1818181818181817,4.393939393939394 -3.2828282828282824,4.393939393939394 -3.383838383838383,4.393939393939394 -3.484848484848485,4.393939393939394 -3.5858585858585856,4.393939393939394 -3.6868686868686864,4.393939393939394 -3.7878787878787876,4.393939393939394 -3.8888888888888884,4.393939393939394 -3.98989898989899,4.393939393939394 -4.090909090909091,4.393939393939394 -4.191919191919193,4.393939393939394 -4.292929292929293,4.393939393939394 -4.393939393939394,4.393939393939394 -4.494949494949496,4.393939393939394 -4.595959595959596,4.393939393939394 -4.696969696969697,4.393939393939394 -4.7979797979797985,4.393939393939394 -4.898989898989899,4.393939393939394 -5.000000000000001,4.393939393939394" data-type="line" data-label="" points="984,211.63636363636357 974.4646464646464,202.1010101010101 964.9292929292927,192.56565656565658 955.3939393939393,183.03030303030295 945.8585858585857,173.49494949494942 936.3232323232323,163.95959595959596 926.7878787878785,154.42424242424244 917.2525252525251,144.8888888888889 907.7171717171716,135.35353535353528 898.181818181818,125.81818181818181 888.6464646464647,116.28282828282829 879.111111111111,106.74747474747483 869.5757575757575,97.21212121212136 860.0404040404039,97.21212121212136 850.5050505050505,97.21212121212136 840.969696969697,97.21212121212136 831.4343434343433,97.21212121212136 821.8989898989898,97.21212121212136 812.3636363636363,97.21212121212136 802.8282828282828,97.21212121212136 793.2929292929292,97.21212121212136 783.7575757575758,97.21212121212136 774.2222222222222,97.21212121212136 764.6868686868686,97.21212121212136 755.1515151515151,97.21212121212136 745.6161616161615,97.21212121212136 736.0808080808081,97.21212121212136 726.5454545454545,97.21212121212136 717.0101010101009,97.21212121212136 707.4747474747475,97.21212121212136 697.9393939393939,97.21212121212136 688.4040404040404,97.21212121212136 678.8686868686868,97.21212121212136 669.3333333333333,97.21212121212136 659.7979797979798,97.21212121212136 650.2626262626262,97.21212121212136 640.7272727272727,97.21212121212136 631.1919191919192,97.21212121212136 621.6565656565656,97.21212121212136 612.1212121212121,97.21212121212136 602.5858585858585,97.21212121212136 593.0505050505051,97.21212121212136 583.5151515151515,97.21212121212136 573.9797979797979,97.21212121212136 564.4444444444445,97.21212121212136 554.9090909090909,97.21212121212136 545.3737373737374,97.21212121212136 535.8383838383838,97.21212121212136 526.3030303030303,97.21212121212136 516.7676767676768,97.21212121212136 507.2323232323232,97.21212121212136 497.69696969696975,97.21212121212136 488.16161616161617,97.21212121212136 478.62626262626264,97.21212121212136 469.09090909090907,97.21212121212136 459.55555555555554,97.21212121212136 450.0202020202021,97.21212121212136 440.4848484848485,97.21212121212136 430.949494949495,97.21212121212136 421.4141414141414,97.21212121212136 411.8787878787879,97.21212121212136 402.34343434343435,97.21212121212136 392.80808080808083,97.21212121212136 383.2727272727273,97.21212121212136 373.7373737373738,97.21212121212136 364.2020202020202,97.21212121212136 354.6666666666667,97.21212121212136 345.13131313131316,97.21212121212136 335.59595959595964,97.21212121212136 326.0606060606061,97.21212121212136 316.5252525252526,97.21212121212136 306.9898989898991,97.21212121212136 297.4545454545455,97.21212121212136 287.91919191919203,97.21212121212136 278.38383838383845,97.21212121212136 268.84848484848493,97.21212121212136 259.3131313131314,97.21212121212136 249.77777777777783,97.21212121212136 240.2424242424243,97.21212121212136 230.70707070707084,97.21212121212136 221.17171717171726,97.21212121212136 211.63636363636374,97.21212121212136 202.10101010101022,97.21212121212136 192.5656565656567,97.21212121212136 183.03030303030312,97.21212121212136 173.4949494949496,97.21212121212136 163.95959595959607,97.21212121212136 154.42424242424255,97.21212121212136 144.88888888888903,97.21212121212136 135.35353535353545,97.21212121212136 125.81818181818193,97.21212121212136 116.28282828282829,97.21212121212136 106.74747474747483,97.21212121212136 97.21212121212136,97.21212121212136 87.67676767676772,97.21212121212136 78.14141414141426,97.21212121212136 68.60606060606068,97.21212121212136 59.07070707070716,97.21212121212136 49.53535353535369,97.21212121212136 40.00000000000006,97.21212121212136" fill="none" stroke="rgba(255,0,0,0.75)" stroke-width="14.159999999999995"/></g><g><polyline data-points="5.000000000000002,1.4646464646464652 4.898989898989901,1.3636363636363644 4.7979797979797985,1.262626262626263 4.696969696969697,1.1616161616161622 4.595959595959597,1.0606060606060617 4.494949494949497,0.9595959595959602 4.393939393939394,0.8585858585858596 4.292929292929293,0.7575757575757579 4.191919191919193,0.6565656565656574 4.090909090909092,0.5555555555555567 3.989898989898992,0.4545454545454551 3.8888888888888893,0.3535353535353544 3.7878787878787885,0.2525252525252529 3.6868686868686877,0.1515151515151522 3.5858585858585874,0.050505050505051545 3.4848484848484866,-0.05050505050505001 3.383838383838384,-0.15151515151515066 3.2828282828282833,-0.2525252525252522 3.181818181818183,-0.35353535353535287 3.080808080808082,-0.4545454545454544 2.9797979797979806,-0.555555555555555 2.87878787878788,-0.6565656565656557 2.7777777777777786,-0.7575757575757572 2.676767676767678,-0.8585858585858579 2.575757575757577,-0.9595959595959596 2.4747474747474754,-1.0606060606060603 2.373737373737375,-1.1616161616161613 2.2727272727272734,-1.2626262626262625 2.1717171717171726,-1.363636363636363 2.070707070707072,-1.4646464646464643 1.9696969696969702,-1.5656565656565653 1.8686868686868696,-1.6666666666666665 1.767676767676768,-1.7676767676767675 1.6666666666666674,-1.8686868686868683 1.5656565656565666,-1.9696969696969693 1.4646464646464652,-2.07070707070707 1.3636363636363644,-2.1717171717171713 1.262626262626263,-2.2727272727272725 1.1616161616161622,-2.3737373737373733 1.0606060606060617,-2.474747474747474 0.9595959595959602,-2.5757575757575752 0.8585858585858596,-2.6767676767676765 0.7575757575757579,-2.7777777777777777 0.6565656565656574,-2.8787878787878785 0.5555555555555567,-2.9797979797979792 0.4545454545454551,-3.0808080808080804 0.3535353535353544,-3.1818181818181817 0.2525252525252529,-3.2828282828282824 0.1515151515151522,-3.383838383838383 0.050505050505051545,-3.484848484848485 -0.05050505050505001,-3.5858585858585856 -0.15151515151515066,-3.6868686868686864 -0.15151515151515066,-3.7878787878787876 -0.15151515151515066,-3.8888888888888884 -0.15151515151515066,-3.98989898989899" data-type="line" data-label="" points="984,373.7373737373737 974.4646464646464,383.2727272727272 964.9292929292927,392.8080808080808 955.3939393939393,402.3434343434343 945.8585858585857,411.87878787878776 936.3232323232323,421.41414141414134 926.7878787878785,430.9494949494948 917.2525252525251,440.48484848484844 907.7171717171716,450.0202020202019 898.181818181818,459.55555555555543 888.6464646464647,469.090909090909 879.111111111111,478.6262626262625 869.5757575757575,488.16161616161605 860.0404040404039,497.6969696969696 850.5050505050505,507.2323232323231 840.969696969697,516.7676767676767 831.4343434343433,526.3030303030301 821.8989898989898,535.8383838383837 812.3636363636363,545.3737373737372 802.8282828282828,554.9090909090908 793.2929292929292,564.4444444444443 783.7575757575758,573.9797979797978 774.2222222222222,583.5151515151514 764.6868686868686,593.0505050505049 755.1515151515151,602.5858585858584 745.6161616161615,612.121212121212 736.0808080808081,621.6565656565656 726.5454545454545,631.191919191919 717.0101010101009,640.7272727272725 707.4747474747475,650.2626262626261 697.9393939393939,659.7979797979797 688.4040404040404,669.3333333333333 678.8686868686868,678.8686868686867 669.3333333333333,688.4040404040402 659.7979797979798,697.9393939393938 650.2626262626262,707.4747474747473 640.7272727272727,717.0101010101008 631.1919191919192,726.5454545454544 621.6565656565656,736.0808080808079 612.1212121212121,745.6161616161614 602.5858585858585,755.151515151515 593.0505050505051,764.6868686868685 583.5151515151515,774.2222222222221 573.9797979797979,783.7575757575755 564.4444444444445,793.2929292929291 554.9090909090909,802.8282828282827 545.3737373737374,812.3636363636361 535.8383838383838,821.8989898989896 526.3030303030303,831.4343434343432 516.7676767676768,840.9696969696968 507.2323232323232,850.5050505050503 497.69696969696975,860.0404040404038 497.69696969696975,869.5757575757573 497.69696969696975,879.1111111111109 497.69696969696975,888.6464646464644" fill="none" stroke="rgba(0,0,255,0.75)" stroke-width="14.159999999999995"/></g><g><polyline data-points="-0.15151515151515066,-3.98989898989899 -0.15151515151515066,-4.090909090909091 -0.15151515151515066,-4.191919191919193 -0.15151515151515066,-4.292929292929293 -0.15151515151515066,-4.393939393939394 -0.15151515151515066,-4.494949494949496 -0.15151515151515066,-4.595959595959596 -0.15151515151515066,-4.696969696969697 -0.15151515151515066,-4.7979797979797985 -0.15151515151515066,-4.898989898989899 -0.15151515151515066,-5.000000000000001" data-type="line" data-label="" points="497.69696969696975,888.6464646464644 497.69696969696975,898.181818181818 497.69696969696975,907.7171717171716 497.69696969696975,917.2525252525251 497.69696969696975,926.7878787878785 497.69696969696975,936.3232323232321 497.69696969696975,945.8585858585857 497.69696969696975,955.3939393939393 497.69696969696975,964.9292929292927 497.69696969696975,974.4646464646462 497.69696969696975,983.9999999999998" fill="none" stroke="rgba(255,0,0,0.75)" stroke-width="14.159999999999995"/></g><g><polyline data-points="5.000000000000002,-4.7979797979797985 4.898989898989901,-4.696969696969697 4.7979797979797985,-4.595959595959596 4.696969696969697,-4.494949494949496 4.595959595959597,-4.494949494949496 4.494949494949497,-4.494949494949496 4.393939393939394,-4.494949494949496 4.292929292929293,-4.494949494949496 4.191919191919193,-4.494949494949496 4.090909090909092,-4.494949494949496 3.989898989898992,-4.494949494949496 3.8888888888888893,-4.494949494949496 3.7878787878787885,-4.494949494949496 3.6868686868686877,-4.494949494949496 3.5858585858585874,-4.494949494949496 3.4848484848484866,-4.494949494949496 3.383838383838384,-4.494949494949496 3.2828282828282833,-4.494949494949496 3.181818181818183,-4.494949494949496 3.080808080808082,-4.494949494949496 2.9797979797979806,-4.494949494949496 2.87878787878788,-4.494949494949496 2.7777777777777786,-4.494949494949496 2.676767676767678,-4.494949494949496 2.575757575757577,-4.494949494949496 2.4747474747474754,-4.494949494949496 2.373737373737375,-4.494949494949496 2.2727272727272734,-4.494949494949496 2.1717171717171726,-4.494949494949496 2.070707070707072,-4.494949494949496 1.9696969696969702,-4.494949494949496 1.8686868686868696,-4.494949494949496 1.767676767676768,-4.494949494949496 1.6666666666666674,-4.494949494949496 1.5656565656565666,-4.494949494949496 1.4646464646464652,-4.494949494949496 1.3636363636363644,-4.494949494949496 1.262626262626263,-4.494949494949496 1.1616161616161622,-4.494949494949496 1.0606060606060617,-4.494949494949496 0.9595959595959602,-4.494949494949496 0.8585858585858596,-4.494949494949496 0.7575757575757579,-4.494949494949496 0.6565656565656574,-4.494949494949496 0.5555555555555567,-4.494949494949496 0.4545454545454551,-4.494949494949496 0.3535353535353544,-4.494949494949496 0.2525252525252529,-4.494949494949496 0.1515151515151522,-4.494949494949496 0.050505050505051545,-4.494949494949496 -0.05050505050505001,-4.494949494949496 -0.15151515151515066,-4.494949494949496 -0.2525252525252522,-4.393939393939394 -0.35353535353535287,-4.393939393939394 -0.4545454545454544,-4.292929292929293 -0.555555555555555,-4.191919191919193 -0.6565656565656557,-4.090909090909091 -0.7575757575757572,-3.98989898989899 -0.8585858585858579,-3.8888888888888884 -0.9595959595959596,-3.8888888888888884 -1.0606060606060603,-3.8888888888888884 -1.1616161616161613,-3.8888888888888884 -1.2626262626262625,-3.8888888888888884 -1.363636363636363,-3.8888888888888884 -1.4646464646464643,-3.8888888888888884 -1.5656565656565653,-3.8888888888888884 -1.6666666666666665,-3.8888888888888884 -1.7676767676767675,-3.8888888888888884 -1.8686868686868683,-3.8888888888888884 -1.9696969696969693,-3.8888888888888884 -2.07070707070707,-3.8888888888888884 -2.1717171717171713,-3.8888888888888884 -2.2727272727272725,-3.8888888888888884 -2.3737373737373733,-3.8888888888888884 -2.474747474747474,-3.8888888888888884 -2.5757575757575752,-3.8888888888888884 -2.6767676767676765,-3.8888888888888884 -2.7777777777777777,-3.8888888888888884 -2.8787878787878785,-3.8888888888888884 -2.9797979797979792,-3.8888888888888884 -3.0808080808080804,-3.8888888888888884 -3.1818181818181817,-3.8888888888888884 -3.2828282828282824,-3.8888888888888884 -3.383838383838383,-3.8888888888888884 -3.484848484848485,-3.8888888888888884 -3.5858585858585856,-3.8888888888888884 -3.6868686868686864,-3.8888888888888884 -3.7878787878787876,-3.8888888888888884 -3.8888888888888884,-3.8888888888888884 -3.98989898989899,-3.8888888888888884" data-type="line" data-label="" points="984,964.9292929292927 974.4646464646464,955.3939393939393 964.9292929292927,945.8585858585857 955.3939393939393,936.3232323232321 945.8585858585857,936.3232323232321 936.3232323232323,936.3232323232321 926.7878787878785,936.3232323232321 917.2525252525251,936.3232323232321 907.7171717171716,936.3232323232321 898.181818181818,936.3232323232321 888.6464646464647,936.3232323232321 879.111111111111,936.3232323232321 869.5757575757575,936.3232323232321 860.0404040404039,936.3232323232321 850.5050505050505,936.3232323232321 840.969696969697,936.3232323232321 831.4343434343433,936.3232323232321 821.8989898989898,936.3232323232321 812.3636363636363,936.3232323232321 802.8282828282828,936.3232323232321 793.2929292929292,936.3232323232321 783.7575757575758,936.3232323232321 774.2222222222222,936.3232323232321 764.6868686868686,936.3232323232321 755.1515151515151,936.3232323232321 745.6161616161615,936.3232323232321 736.0808080808081,936.3232323232321 726.5454545454545,936.3232323232321 717.0101010101009,936.3232323232321 707.4747474747475,936.3232323232321 697.9393939393939,936.3232323232321 688.4040404040404,936.3232323232321 678.8686868686868,936.3232323232321 669.3333333333333,936.3232323232321 659.7979797979798,936.3232323232321 650.2626262626262,936.3232323232321 640.7272727272727,936.3232323232321 631.1919191919192,936.3232323232321 621.6565656565656,936.3232323232321 612.1212121212121,936.3232323232321 602.5858585858585,936.3232323232321 593.0505050505051,936.3232323232321 583.5151515151515,936.3232323232321 573.9797979797979,936.3232323232321 564.4444444444445,936.3232323232321 554.9090909090909,936.3232323232321 545.3737373737374,936.3232323232321 535.8383838383838,936.3232323232321 526.3030303030303,936.3232323232321 516.7676767676768,936.3232323232321 507.2323232323232,936.3232323232321 497.69696969696975,936.3232323232321 488.16161616161617,926.7878787878785 478.62626262626264,926.7878787878785 469.09090909090907,917.2525252525251 459.55555555555554,907.7171717171716 450.0202020202021,898.181818181818 440.4848484848485,888.6464646464644 430.949494949495,879.1111111111109 421.4141414141414,879.1111111111109 411.8787878787879,879.1111111111109 402.34343434343435,879.1111111111109 392.80808080808083,879.1111111111109 383.2727272727273,879.1111111111109 373.7373737373738,879.1111111111109 364.2020202020202,879.1111111111109 354.6666666666667,879.1111111111109 345.13131313131316,879.1111111111109 335.59595959595964,879.1111111111109 326.0606060606061,879.1111111111109 316.5252525252526,879.1111111111109 306.9898989898991,879.1111111111109 297.4545454545455,879.1111111111109 287.91919191919203,879.1111111111109 278.38383838383845,879.1111111111109 268.84848484848493,879.1111111111109 259.3131313131314,879.1111111111109 249.77777777777783,879.1111111111109 240.2424242424243,879.1111111111109 230.70707070707084,879.1111111111109 221.17171717171726,879.1111111111109 211.63636363636374,879.1111111111109 202.10101010101022,879.1111111111109 192.5656565656567,879.1111111111109 183.03030303030312,879.1111111111109 173.4949494949496,879.1111111111109 163.95959595959607,879.1111111111109 154.42424242424255,879.1111111111109 144.88888888888903,879.1111111111109 135.35353535353545,879.1111111111109" fill="none" stroke="rgba(0,0,255,0.75)" stroke-width="14.159999999999995"/></g><g><polyline data-points="-3.98989898989899,-3.8888888888888884 -4.090909090909091,-3.8888888888888884 -4.191919191919193,-3.8888888888888884 -4.292929292929293,-3.8888888888888884 -4.393939393939394,-3.8888888888888884 -4.494949494949496,-3.8888888888888884 -4.595959595959596,-3.8888888888888884 -4.696969696969697,-3.8888888888888884 -4.7979797979797985,-3.8888888888888884 -4.898989898989899,-3.8888888888888884 -5.000000000000001,-3.8888888888888884" data-type="line" data-label="" points="135.35353535353545,879.1111111111109 125.81818181818193,879.1111111111109 116.28282828282829,879.1111111111109 106.74747474747483,879.1111111111109 97.21212121212136,879.1111111111109 87.67676767676772,879.1111111111109 78.14141414141426,879.1111111111109 68.60606060606068,879.1111111111109 59.07070707070716,879.1111111111109 49.53535353535369,879.1111111111109 40.00000000000006,879.1111111111109" fill="none" stroke="rgba(255,0,0,0.75)" stroke-width="14.159999999999995"/></g><g><rect data-type="rect" data-label="" data-x="0" data-y="0" x="40.000000000000114" y="40.000000000000114" width="943.9999999999997" height="943.9999999999997" fill="none" stroke="gray" stroke-width="0.010593220338983056"/></g><g><rect data-type="rect" data-label="" data-x="0" data-y="0" x="40.000000000000114" y="40.000000000000114" width="943.9999999999997" height="943.9999999999997" fill="none" stroke="rgba(15, 23, 42, 0.8)" stroke-width="0.010593220338983056"/></g><circle data-type="circle" data-label="" data-x="-0.15151515151515066" data-y="-3.98989898989899" cx="497.69696969696975" cy="888.6464646464644" r="28.791999999999987" fill="rgba(0,0,0,0.3)" stroke="black" stroke-width="0.010593220338983056"/><circle data-type="circle" data-label="" data-x="-3.98989898989899" data-y="-3.8888888888888884" cx="135.35353535353545" cy="879.1111111111109" r="28.791999999999987" fill="rgba(0,0,0,0.3)" stroke="black" stroke-width="0.010593220338983056"/><g id="crosshair" style="display: none"><line id="crosshair-h" y1="0" y2="1024" stroke="#666" stroke-width="0.5"/><line id="crosshair-v" x1="0" x2="1024" stroke="#666" stroke-width="0.5"/><text id="coordinates" font-family="monospace" font-size="12" fill="#666"></text></g><script><![CDATA[
              document.currentScript.parentElement.addEventListener('mousemove', (e) => {
                const svg = e.currentTarget;
                const rect = svg.getBoundingClientRect();
                const x = e.clientX - rect.left;
                const y = e.clientY - rect.top;
                const crosshair = svg.getElementById('crosshair');
                const h = svg.getElementById('crosshair-h');
                const v = svg.getElementById('crosshair-v');
                const coords = svg.getElementById('coordinates');
                
                crosshair.style.display = 'block';
                h.setAttribute('x1', '0');
                h.setAttribute('x2', '1024');
                h.setAttribute('y1', y);
                h.setAttribute('y2', y);
                v.setAttribute('x1', x);
                v.setAttribute('x2', x);
                v.setAttribute('y1', '0');
                v.setAttribute('y2', '1024');

                // Calculate real coordinates using inverse transformation
                const matrix = {"a":94.39999999999996,"c":0,"e":511.99999999999994,"b":0,"d":-94.39999999999996,"f":511.99999999999994};
                // Manually invert and apply the affine transform
                // Since we only use translate and scale, we can directly compute:
                // x' = (x - tx) / sx
                // y' = (y - ty) / sy
                const sx = matrix.a;
                const sy = matrix.d;
                const tx = matrix.e; 
                const ty = matrix.f;
                const realPoint = {
                  x: (x - tx) / sx,
                  y: (y - ty) / sy // Flip y back since we used negative scale
                }
                
                coords.textContent = `(${realPoint.x.toFixed(2)}, ${realPoint.y.toFixed(2)})`;
                coords.setAttribute('x', (x + 5).toString());
                coords.setAttribute('y', (y - 5).toString());
              });
              document.currentScript.parentElement.addEventListener('mouseleave', () => {
                document.currentScript.parentElement.getElementById('crosshair').style.display = 'none';
              });
            ]]></script></svg>