<svg width="1024" height="1024" viewBox="0 0 1024 1024" xmlns="http://www.w3.org/2000/svg"><rect width="100%" height="100%" fill="white"/><g><circle data-type="point" data-label="conn_000" data-x="-5" data-y="-3.36" cx="40.000000000000114" cy="829.184" r="28.792" fill="blue" stroke="#bda70f" stroke-width="28.792"/></g><g><circle data-type="point" data-label="conn_000" data-x="5" data-y="3.92" cx="983.9999999999998" cy="141.95200000000028" r="28.792" fill="red" stroke="#bda70f" stroke-width="28.792"/></g><g><circle data-type="point" data-label="conn_001" data-x="-5" data-y="2.6" cx="40.000000000000114" cy="266.5600000000002" r="28.792" fill="red" stroke="#0fa0bd" stroke-width="28.792"/></g><g><circle data-type="point" data-label="conn_001" data-x="5" data-y="-2.92" cx="983.9999999999998" cy="787.648" r="28.792" fill="red" stroke="#0fa0bd" stroke-width="28.792"/></g><g><circle data-type="point" data-label="conn_002" data-x="-1.32" data-y="5" cx="387.392" cy="40.000000000000284" r="28.792" fill="red" stroke="#bd0f6d" stroke-width="28.792"/></g><g><circle data-type="point" data-label="conn_002" data-x="-5" data-y="3.2600000000000002" cx="40.000000000000114" cy="204.2560000000002" r="28.792" fill="blue" stroke="#bd0f6d" stroke-width="28.792"/></g><g><circle data-type="point" data-label="conn_003" data-x="0.02" data-y="-5" cx="513.8879999999999" cy="984" r="28.792" fill="red" stroke="#3bbd0f" stroke-width="28.792"/></g><g><circle data-type="point" data-label="conn_003" data-x="-3.84" data-y="5" cx="149.50400000000008" cy="40.000000000000284" r="28.792" fill="red" stroke="#3bbd0f" stroke-width="28.792"/></g><g><circle data-type="point" data-label="conn_004" data-x="-5" data-y="0.68" cx="40.000000000000114" cy="447.8080000000001" r="28.792" fill="red" stroke="#170fbd" stroke-width="28.792"/></g><g><circle data-type="point" data-label="conn_004" data-x="5" data-y="-0.8" cx="983.9999999999998" cy="587.5200000000001" r="28.792" fill="blue" stroke="#170fbd" stroke-width="28.792"/></g><g><polyline data-points="-5.000000000000001,-3.383838383838383 -4.898989898989899,-3.2828282828282824 -4.7979797979797985,-3.1818181818181817 -4.696969696969697,-3.0808080808080804 -4.595959595959596,-2.9797979797979792 -4.494949494949496,-2.8787878787878785 -4.393939393939394,-2.7777777777777777 -4.292929292929293,-2.6767676767676765 -4.191919191919193,-2.5757575757575752 -4.090909090909091,-2.474747474747474 -3.98989898989899,-2.3737373737373733 -3.8888888888888884,-2.2727272727272725 -3.7878787878787876,-2.1717171717171713 -3.6868686868686864,-2.07070707070707 -3.5858585858585856,-1.9696969696969693 -3.484848484848485,-1.8686868686868683 -3.383838383838383,-1.7676767676767675 -3.2828282828282824,-1.6666666666666665 -3.1818181818181817,-1.5656565656565653 -3.0808080808080804,-1.4646464646464643 -2.9797979797979792,-1.363636363636363 -2.8787878787878785,-1.2626262626262625 -2.7777777777777777,-1.1616161616161613 -2.6767676767676765,-1.0606060606060603 -2.5757575757575752,-0.9595959595959596 -2.474747474747474,-0.8585858585858579 -2.3737373737373733,-0.7575757575757572 -2.2727272727272725,-0.6565656565656557 -2.1717171717171713,-0.555555555555555 -2.07070707070707,-0.4545454545454544 -1.9696969696969693,-0.35353535353535287 -1.8686868686868683,-0.2525252525252522 -1.7676767676767675,-0.15151515151515066 -1.6666666666666665,-0.05050505050505001 -1.5656565656565653,0.050505050505051545 -1.4646464646464643,0.1515151515151522 -1.363636363636363,0.2525252525252529 -1.2626262626262625,0.3535353535353544 -1.1616161616161613,0.4545454545454551 -1.0606060606060603,0.5555555555555567 -0.9595959595959596,0.6565656565656574 -0.8585858585858579,0.7575757575757579 -0.7575757575757572,0.8585858585858596 -0.6565656565656557,0.9595959595959602 -0.555555555555555,1.0606060606060617 -0.4545454545454544,1.1616161616161622 -0.35353535353535287,1.262626262626263 -0.2525252525252522,1.3636363636363644 -0.15151515151515066,1.4646464646464652 -0.05050505050505001,1.5656565656565666 0.050505050505051545,1.6666666666666674 0.1515151515151522,1.767676767676768 0.2525252525252529,1.8686868686868696 0.3535353535353544,1.9696969696969702 0.4545454545454551,2.070707070707072 0.5555555555555567,2.1717171717171726 0.6565656565656574,2.2727272727272734 0.7575757575757579,2.373737373737375 0.8585858585858596,2.4747474747474754 0.9595959595959602,2.575757575757577 1.0606060606060617,2.676767676767678 1.1616161616161622,2.7777777777777786 1.262626262626263,2.87878787878788 1.3636363636363644,2.9797979797979806 1.4646464646464652,3.080808080808082 1.5656565656565666,3.181818181818183 1.6666666666666674,3.2828282828282833 1.767676767676768,3.383838383838384 1.8686868686868696,3.4848484848484866 1.9696969696969702,3.5858585858585874 2.070707070707072,3.6868686868686877 2.1717171717171726,3.7878787878787885 2.2727272727272734,3.8888888888888893 2.373737373737375,3.989898989898992 2.4747474747474754,3.989898989898992 2.575757575757577,3.989898989898992 2.676767676767678,3.989898989898992 2.7777777777777786,3.989898989898992 2.87878787878788,3.989898989898992 2.9797979797979806,3.989898989898992 3.080808080808082,3.989898989898992 3.181818181818183,3.989898989898992 3.2828282828282833,3.989898989898992 3.383838383838384,3.989898989898992 3.4848484848484866,3.989898989898992 3.5858585858585874,3.989898989898992 3.6868686868686877,3.989898989898992 3.7878787878787885,3.989898989898992 3.8888888888888893,3.989898989898992 3.989898989898992,3.989898989898992" data-type="line" data-label="" points="40.00000000000006,831.4343434343434 49.53535353535369,821.8989898989898 59.07070707070716,812.3636363636363 68.60606060606068,802.8282828282828 78.14141414141426,793.2929292929292 87.67676767676772,783.7575757575758 97.21212121212136,774.2222222222222 106.74747474747483,764.6868686868687 116.28282828282829,755.1515151515151 125.81818181818193,745.6161616161615 135.35353535353545,736.0808080808081 144.88888888888903,726.5454545454545 154.42424242424255,717.010101010101 163.95959595959607,707.4747474747475 173.4949494949496,697.939393939394 183.03030303030312,688.4040404040404 192.5656565656567,678.8686868686868 202.10101010101022,669.3333333333334 211.63636363636374,659.7979797979798 221.17171717171726,650.2626262626263 230.70707070707084,640.7272727272727 240.2424242424243,631.1919191919193 249.77777777777783,621.6565656565657 259.3131313131314,612.1212121212121 268.84848484848493,602.5858585858587 278.38383838383845,593.0505050505051 287.91919191919203,583.5151515151516 297.4545454545455,573.979797979798 306.9898989898991,564.4444444444445 316.5252525252526,554.909090909091 326.0606060606061,545.3737373737374 335.59595959595964,535.838383838384 345.13131313131316,526.3030303030304 354.6666666666667,516.7676767676768 364.2020202020202,507.23232323232327 373.7373737373738,497.69696969696975 383.2727272727273,488.1616161616163 392.80808080808083,478.6262626262627 402.34343434343435,469.0909090909092 411.8787878787879,459.5555555555556 421.4141414141414,450.0202020202021 430.949494949495,440.4848484848486 440.4848484848485,430.94949494949503 450.0202020202021,421.4141414141415 459.55555555555554,411.87878787878793 469.09090909090907,402.3434343434344 478.62626262626264,392.80808080808094 488.16161616161617,383.27272727272737 497.69696969696975,373.73737373737384 507.2323232323232,364.2020202020203 516.7676767676768,354.66666666666674 526.3030303030303,345.1313131313133 535.8383838383838,335.5959595959597 545.3737373737374,326.06060606060623 554.9090909090909,316.5252525252526 564.4444444444445,306.9898989898991 573.9797979797979,297.4545454545456 583.5151515151515,287.91919191919203 593.0505050505051,278.38383838383857 602.5858585858585,268.84848484848493 612.1212121212121,259.3131313131314 621.6565656565656,249.77777777777794 631.1919191919192,240.24242424242436 640.7272727272727,230.70707070707084 650.2626262626262,221.17171717171726 659.7979797979798,211.63636363636374 669.3333333333333,202.10101010101027 678.8686868686868,192.56565656565675 688.4040404040404,183.03030303030312 697.9393939393939,173.4949494949496 707.4747474747475,163.95959595959613 717.0101010101009,154.4242424242426 726.5454545454545,144.88888888888908 736.0808080808081,135.35353535353545 745.6161616161615,135.35353535353545 755.1515151515151,135.35353535353545 764.6868686868686,135.35353535353545 774.2222222222222,135.35353535353545 783.7575757575758,135.35353535353545 793.2929292929292,135.35353535353545 802.8282828282828,135.35353535353545 812.3636363636363,135.35353535353545 821.8989898989898,135.35353535353545 831.4343434343433,135.35353535353545 840.969696969697,135.35353535353545 850.5050505050505,135.35353535353545 860.0404040404039,135.35353535353545 869.5757575757575,135.35353535353545 879.111111111111,135.35353535353545 888.6464646464647,135.35353535353545" fill="none" stroke="rgba(0,0,255,0.75)" stroke-width="14.159999999999995"/></g><g><polyline data-points="3.989898989898992,3.989898989898992 4.090909090909092,3.989898989898992 4.191919191919193,3.989898989898992 4.292929292929293,3.989898989898992 4.393939393939394,3.989898989898992 4.494949494949497,3.989898989898992 4.595959595959597,3.989898989898992 4.696969696969697,3.989898989898992 4.7979797979797985,3.989898989898992 4.898989898989901,3.989898989898992 5.000000000000002,3.989898989898992" data-type="line" data-label="" points="888.6464646464647,135.35353535353545 898.181818181818,135.35353535353545 907.7171717171716,135.35353535353545 917.2525252525251,135.35353535353545 926.7878787878785,135.35353535353545 936.3232323232323,135.35353535353545 945.8585858585857,135.35353535353545 955.3939393939393,135.35353535353545 964.9292929292927,135.35353535353545 974.4646464646464,135.35353535353545 984,135.35353535353545" fill="none" stroke="rgba(255,0,0,0.75)" stroke-width="14.159999999999995"/></g><g><polyline data-points="-5.000000000000001,0.6565656565656574 -4.898989898989899,0.5555555555555567 -4.7979797979797985,0.4545454545454551 -4.696969696969697,0.3535353535353544 -4.595959595959596,0.2525252525252529 -4.494949494949496,0.1515151515151522 -4.393939393939394,0.050505050505051545 -4.292929292929293,-0.05050505050505001 -4.191919191919193,-0.15151515151515066 -4.090909090909091,-0.2525252525252522 -3.98989898989899,-0.35353535353535287 -3.8888888888888884,-0.4545454545454544 -3.7878787878787876,-0.555555555555555 -3.6868686868686864,-0.6565656565656557 -3.5858585858585856,-0.7575757575757572 -3.484848484848485,-0.7575757575757572 -3.383838383838383,-0.7575757575757572 -3.2828282828282824,-0.7575757575757572 -3.1818181818181817,-0.7575757575757572 -3.0808080808080804,-0.7575757575757572 -2.9797979797979792,-0.7575757575757572 -2.8787878787878785,-0.7575757575757572 -2.7777777777777777,-0.7575757575757572 -2.6767676767676765,-0.7575757575757572 -2.5757575757575752,-0.7575757575757572 -2.474747474747474,-0.7575757575757572 -2.3737373737373733,-0.7575757575757572 -2.2727272727272725,-0.7575757575757572 -2.1717171717171713,-0.7575757575757572 -2.07070707070707,-0.7575757575757572 -1.9696969696969693,-0.7575757575757572 -1.8686868686868683,-0.7575757575757572 -1.7676767676767675,-0.7575757575757572 -1.6666666666666665,-0.7575757575757572 -1.5656565656565653,-0.7575757575757572 -1.4646464646464643,-0.7575757575757572 -1.363636363636363,-0.7575757575757572 -1.2626262626262625,-0.7575757575757572 -1.1616161616161613,-0.7575757575757572 -1.0606060606060603,-0.7575757575757572 -0.9595959595959596,-0.7575757575757572 -0.8585858585858579,-0.7575757575757572 -0.7575757575757572,-0.7575757575757572 -0.6565656565656557,-0.7575757575757572 -0.555555555555555,-0.7575757575757572 -0.4545454545454544,-0.7575757575757572 -0.35353535353535287,-0.7575757575757572 -0.2525252525252522,-0.7575757575757572 -0.15151515151515066,-0.7575757575757572 -0.05050505050505001,-0.7575757575757572 0.050505050505051545,-0.7575757575757572 0.1515151515151522,-0.7575757575757572 0.2525252525252529,-0.7575757575757572 0.3535353535353544,-0.7575757575757572 0.4545454545454551,-0.7575757575757572 0.5555555555555567,-0.7575757575757572 0.6565656565656574,-0.7575757575757572 0.7575757575757579,-0.7575757575757572 0.8585858585858596,-0.7575757575757572 0.9595959595959602,-0.7575757575757572 1.0606060606060617,-0.7575757575757572 1.1616161616161622,-0.7575757575757572 1.262626262626263,-0.7575757575757572 1.3636363636363644,-0.7575757575757572 1.4646464646464652,-0.7575757575757572 1.5656565656565666,-0.7575757575757572 1.6666666666666674,-0.7575757575757572 1.767676767676768,-0.7575757575757572 1.8686868686868696,-0.7575757575757572 1.9696969696969702,-0.7575757575757572 2.070707070707072,-0.7575757575757572 2.1717171717171726,-0.7575757575757572 2.2727272727272734,-0.7575757575757572 2.373737373737375,-0.7575757575757572 2.4747474747474754,-0.7575757575757572 2.575757575757577,-0.7575757575757572 2.676767676767678,-0.7575757575757572 2.7777777777777786,-0.7575757575757572 2.87878787878788,-0.7575757575757572 2.9797979797979806,-0.7575757575757572 3.080808080808082,-0.7575757575757572 3.181818181818183,-0.7575757575757572 3.2828282828282833,-0.7575757575757572 3.383838383838384,-0.7575757575757572 3.4848484848484866,-0.7575757575757572 3.5858585858585874,-0.7575757575757572 3.6868686868686877,-0.7575757575757572 3.7878787878787885,-0.7575757575757572 3.8888888888888893,-0.7575757575757572 3.989898989898992,-0.7575757575757572" data-type="line" data-label="" points="40.00000000000006,450.0202020202021 49.53535353535369,459.5555555555556 59.07070707070716,469.0909090909092 68.60606060606068,478.6262626262627 78.14141414141426,488.1616161616163 87.67676767676772,497.69696969696975 97.21212121212136,507.23232323232327 106.74747474747483,516.7676767676768 116.28282828282829,526.3030303030304 125.81818181818193,535.838383838384 135.35353535353545,545.3737373737374 144.88888888888903,554.909090909091 154.42424242424255,564.4444444444445 163.95959595959607,573.979797979798 173.4949494949496,583.5151515151516 183.03030303030312,583.5151515151516 192.5656565656567,583.5151515151516 202.10101010101022,583.5151515151516 211.63636363636374,583.5151515151516 221.17171717171726,583.5151515151516 230.70707070707084,583.5151515151516 240.2424242424243,583.5151515151516 249.77777777777783,583.5151515151516 259.3131313131314,583.5151515151516 268.84848484848493,583.5151515151516 278.38383838383845,583.5151515151516 287.91919191919203,583.5151515151516 297.4545454545455,583.5151515151516 306.9898989898991,583.5151515151516 316.5252525252526,583.5151515151516 326.0606060606061,583.5151515151516 335.59595959595964,583.5151515151516 345.13131313131316,583.5151515151516 354.6666666666667,583.5151515151516 364.2020202020202,583.5151515151516 373.7373737373738,583.5151515151516 383.2727272727273,583.5151515151516 392.80808080808083,583.5151515151516 402.34343434343435,583.5151515151516 411.8787878787879,583.5151515151516 421.4141414141414,583.5151515151516 430.949494949495,583.5151515151516 440.4848484848485,583.5151515151516 450.0202020202021,583.5151515151516 459.55555555555554,583.5151515151516 469.09090909090907,583.5151515151516 478.62626262626264,583.5151515151516 488.16161616161617,583.5151515151516 497.69696969696975,583.5151515151516 507.2323232323232,583.5151515151516 516.7676767676768,583.5151515151516 526.3030303030303,583.5151515151516 535.8383838383838,583.5151515151516 545.3737373737374,583.5151515151516 554.9090909090909,583.5151515151516 564.4444444444445,583.5151515151516 573.9797979797979,583.5151515151516 583.5151515151515,583.5151515151516 593.0505050505051,583.5151515151516 602.5858585858585,583.5151515151516 612.1212121212121,583.5151515151516 621.6565656565656,583.5151515151516 631.1919191919192,583.5151515151516 640.7272727272727,583.5151515151516 650.2626262626262,583.5151515151516 659.7979797979798,583.5151515151516 669.3333333333333,583.5151515151516 678.8686868686868,583.5151515151516 688.4040404040404,583.5151515151516 697.9393939393939,583.5151515151516 707.4747474747475,583.5151515151516 717.0101010101009,583.5151515151516 726.5454545454545,583.5151515151516 736.0808080808081,583.5151515151516 745.6161616161615,583.5151515151516 755.1515151515151,583.5151515151516 764.6868686868686,583.5151515151516 774.2222222222222,583.5151515151516 783.7575757575758,583.5151515151516 793.2929292929292,583.5151515151516 802.8282828282828,583.5151515151516 812.3636363636363,583.5151515151516 821.8989898989898,583.5151515151516 831.4343434343433,583.5151515151516 840.969696969697,583.5151515151516 850.5050505050505,583.5151515151516 860.0404040404039,583.5151515151516 869.5757575757575,583.5151515151516 879.111111111111,583.5151515151516 888.6464646464647,583.5151515151516" fill="none" stroke="rgba(255,0,0,0.75)" stroke-width="14.159999999999995"/></g><g><polyline data-points="3.989898989898992,-0.7575757575757572 4.090909090909092,-0.7575757575757572 4.191919191919193,-0.7575757575757572 4.292929292929293,-0.7575757575757572 4.393939393939394,-0.7575757575757572 4.494949494949497,-0.7575757575757572 4.595959595959597,-0.7575757575757572 4.696969696969697,-0.7575757575757572 4.7979797979797985,-0.7575757575757572 4.898989898989901,-0.7575757575757572 5.000000000000002,-0.7575757575757572" data-type="line" data-label="" points="888.6464646464647,583.5151515151516 898.181818181818,583.5151515151516 907.7171717171716,583.5151515151516 917.2525252525251,583.5151515151516 926.7878787878785,583.5151515151516 936.3232323232323,583.5151515151516 945.8585858585857,583.5151515151516 955.3939393939393,583.5151515151516 964.9292929292927,583.5151515151516 974.4646464646464,583.5151515151516 984,583.5151515151516" fill="none" stroke="rgba(0,0,255,0.75)" stroke-width="14.159999999999995"/></g><g><polyline data-points="-1.363636363636363,5.000000000000002 -1.4646464646464643,4.898989898989901 -1.5656565656565653,4.7979797979797985 -1.6666666666666665,4.696969696969697 -1.7676767676767675,4.595959595959597 -1.8686868686868683,4.494949494949497 -1.9696969696969693,4.393939393939394 -2.07070707070707,4.292929292929293 -2.1717171717171713,4.191919191919193 -2.2727272727272725,4.090909090909092 -2.3737373737373733,3.989898989898992 -2.474747474747474,3.8888888888888893 -2.5757575757575752,3.7878787878787885 -2.6767676767676765,3.6868686868686877 -2.7777777777777777,3.5858585858585874 -2.8787878787878785,3.4848484848484866 -2.9797979797979792,3.383838383838384 -3.0808080808080804,3.2828282828282833 -3.1818181818181817,3.2828282828282833 -3.2828282828282824,3.2828282828282833 -3.383838383838383,3.2828282828282833 -3.484848484848485,3.2828282828282833 -3.5858585858585856,3.2828282828282833 -3.6868686868686864,3.2828282828282833 -3.7878787878787876,3.2828282828282833 -3.8888888888888884,3.2828282828282833 -3.98989898989899,3.2828282828282833" data-type="line" data-label="" points="383.2727272727273,40.000000000000114 373.7373737373738,49.53535353535369 364.2020202020202,59.07070707070733 354.6666666666667,68.60606060606085 345.13131313131316,78.14141414141432 335.59595959595964,87.67676767676778 326.0606060606061,97.21212121212153 316.5252525252526,106.747474747475 306.9898989898991,116.28282828282846 297.4545454545455,125.81818181818198 287.91919191919203,135.35353535353545 278.38383838383845,144.88888888888908 268.84848484848493,154.4242424242426 259.3131313131314,163.95959595959613 249.77777777777783,173.4949494949496 240.2424242424243,183.03030303030312 230.70707070707084,192.56565656565675 221.17171717171726,202.10101010101027 211.63636363636374,202.10101010101027 202.10101010101022,202.10101010101027 192.5656565656567,202.10101010101027 183.03030303030312,202.10101010101027 173.4949494949496,202.10101010101027 163.95959595959607,202.10101010101027 154.42424242424255,202.10101010101027 144.88888888888903,202.10101010101027 135.35353535353545,202.10101010101027" fill="none" stroke="rgba(255,0,0,0.75)" stroke-width="14.159999999999995"/></g><g><polyline data-points="-3.98989898989899,3.2828282828282833 -4.090909090909091,3.2828282828282833 -4.191919191919193,3.2828282828282833 -4.292929292929293,3.2828282828282833 -4.393939393939394,3.2828282828282833 -4.494949494949496,3.2828282828282833 -4.595959595959596,3.2828282828282833 -4.696969696969697,3.2828282828282833 -4.7979797979797985,3.2828282828282833 -4.898989898989899,3.2828282828282833 -5.000000000000001,3.2828282828282833" data-type="line" data-label="" points="135.35353535353545,202.10101010101027 125.81818181818193,202.10101010101027 116.28282828282829,202.10101010101027 106.74747474747483,202.10101010101027 97.21212121212136,202.10101010101027 87.67676767676772,202.10101010101027 78.14141414141426,202.10101010101027 68.60606060606068,202.10101010101027 59.07070707070716,202.10101010101027 49.53535353535369,202.10101010101027 40.00000000000006,202.10101010101027" fill="none" stroke="rgba(0,0,255,0.75)" stroke-width="14.159999999999995"/></g><g><polyline data-points="0.050505050505051545,-5.000000000000001 -0.05050505050505001,-4.898989898989899 -0.15151515151515066,-4.7979797979797985 -0.2525252525252522,-4.696969696969697 -0.35353535353535287,-4.595959595959596 -0.4545454545454544,-4.494949494949496 -0.555555555555555,-4.393939393939394 -0.6565656565656557,-4.292929292929293 -0.7575757575757572,-4.191919191919193 -0.8585858585858579,-4.090909090909091 -0.9595959595959596,-3.98989898989899 -1.0606060606060603,-3.8888888888888884 -1.1616161616161613,-3.7878787878787876 -1.2626262626262625,-3.6868686868686864 -1.363636363636363,-3.5858585858585856 -1.4646464646464643,-3.484848484848485 -1.5656565656565653,-3.383838383838383 -1.6666666666666665,-3.2828282828282824 -1.7676767676767675,-3.1818181818181817 -1.8686868686868683,-3.0808080808080804 -1.9696969696969693,-2.9797979797979792 -2.07070707070707,-2.8787878787878785 -2.1717171717171713,-2.7777777777777777 -2.2727272727272725,-2.6767676767676765 -2.3737373737373733,-2.5757575757575752 -2.474747474747474,-2.474747474747474 -2.5757575757575752,-2.3737373737373733 -2.6767676767676765,-2.2727272727272725 -2.7777777777777777,-2.1717171717171713 -2.8787878787878785,-2.07070707070707 -2.9797979797979792,-1.9696969696969693 -3.0808080808080804,-1.8686868686868683 -3.1818181818181817,-1.7676767676767675 -3.2828282828282824,-1.6666666666666665 -3.383838383838383,-1.5656565656565653 -3.484848484848485,-1.4646464646464643 -3.5858585858585856,-1.363636363636363 -3.6868686868686864,-1.2626262626262625 -3.7878787878787876,-1.2626262626262625" data-type="line" data-label="" points="516.7676767676768,984 507.2323232323232,974.4646464646464 497.69696969696975,964.9292929292928 488.16161616161617,955.3939393939394 478.62626262626264,945.8585858585858 469.09090909090907,936.3232323232323 459.55555555555554,926.7878787878788 450.0202020202021,917.2525252525252 440.4848484848485,907.7171717171718 430.949494949495,898.1818181818181 421.4141414141414,888.6464646464647 411.8787878787879,879.1111111111111 402.34343434343435,869.5757575757575 392.80808080808083,860.0404040404039 383.2727272727273,850.5050505050505 373.7373737373738,840.969696969697 364.2020202020202,831.4343434343434 354.6666666666667,821.8989898989898 345.13131313131316,812.3636363636363 335.59595959595964,802.8282828282828 326.0606060606061,793.2929292929292 316.5252525252526,783.7575757575758 306.9898989898991,774.2222222222222 297.4545454545455,764.6868686868687 287.91919191919203,755.1515151515151 278.38383838383845,745.6161616161615 268.84848484848493,736.0808080808081 259.3131313131314,726.5454545454545 249.77777777777783,717.010101010101 240.2424242424243,707.4747474747475 230.70707070707084,697.939393939394 221.17171717171726,688.4040404040404 211.63636363636374,678.8686868686868 202.10101010101022,669.3333333333334 192.5656565656567,659.7979797979798 183.03030303030312,650.2626262626263 173.4949494949496,640.7272727272727 163.95959595959607,631.1919191919193 154.42424242424255,631.1919191919193" fill="none" stroke="rgba(255,0,0,0.75)" stroke-width="14.159999999999995"/></g><g><polyline data-points="-3.7878787878787876,-1.2626262626262625 -3.7878787878787876,-1.1616161616161613 -3.7878787878787876,-1.0606060606060603 -3.7878787878787876,-0.9595959595959596 -3.7878787878787876,-0.8585858585858579 -3.7878787878787876,-0.7575757575757572 -3.7878787878787876,-0.6565656565656557 -3.7878787878787876,-0.555555555555555 -3.7878787878787876,-0.4545454545454544 -3.7878787878787876,-0.35353535353535287 -3.7878787878787876,-0.2525252525252522 -3.7878787878787876,-0.15151515151515066 -3.7878787878787876,-0.05050505050505001 -3.7878787878787876,0.050505050505051545 -3.7878787878787876,0.1515151515151522 -3.7878787878787876,0.2525252525252529 -3.7878787878787876,0.3535353535353544 -3.7878787878787876,0.4545454545454551 -3.7878787878787876,0.5555555555555567 -3.7878787878787876,0.6565656565656574 -3.7878787878787876,0.7575757575757579 -3.7878787878787876,0.8585858585858596 -3.7878787878787876,0.9595959595959602 -3.7878787878787876,1.0606060606060617 -3.7878787878787876,1.1616161616161622 -3.7878787878787876,1.262626262626263 -3.7878787878787876,1.3636363636363644 -3.7878787878787876,1.4646464646464652 -3.7878787878787876,1.5656565656565666 -3.7878787878787876,1.6666666666666674 -3.7878787878787876,1.767676767676768 -3.7878787878787876,1.8686868686868696 -3.7878787878787876,1.9696969696969702 -3.7878787878787876,2.070707070707072 -3.7878787878787876,2.1717171717171726 -3.7878787878787876,2.2727272727272734 -3.7878787878787876,2.373737373737375 -3.7878787878787876,2.4747474747474754 -3.7878787878787876,2.575757575757577 -3.7878787878787876,2.676767676767678 -3.7878787878787876,2.7777777777777786 -3.7878787878787876,2.87878787878788 -3.6868686868686864,2.9797979797979806 -3.5858585858585856,3.080808080808082 -3.5858585858585856,3.181818181818183 -3.484848484848485,3.2828282828282833 -3.5858585858585856,3.383838383838384 -3.5858585858585856,3.4848484848484866 -3.6868686868686864,3.5858585858585874 -3.6868686868686864,3.6868686868686877 -3.6868686868686864,3.7878787878787885 -3.6868686868686864,3.8888888888888893 -3.6868686868686864,3.989898989898992" data-type="line" data-label="" points="154.42424242424255,631.1919191919193 154.42424242424255,621.6565656565657 154.42424242424255,612.1212121212121 154.42424242424255,602.5858585858587 154.42424242424255,593.0505050505051 154.42424242424255,583.5151515151516 154.42424242424255,573.979797979798 154.42424242424255,564.4444444444445 154.42424242424255,554.909090909091 154.42424242424255,545.3737373737374 154.42424242424255,535.838383838384 154.42424242424255,526.3030303030304 154.42424242424255,516.7676767676768 154.42424242424255,507.23232323232327 154.42424242424255,497.69696969696975 154.42424242424255,488.1616161616163 154.42424242424255,478.6262626262627 154.42424242424255,469.0909090909092 154.42424242424255,459.5555555555556 154.42424242424255,450.0202020202021 154.42424242424255,440.4848484848486 154.42424242424255,430.94949494949503 154.42424242424255,421.4141414141415 154.42424242424255,411.87878787878793 154.42424242424255,402.3434343434344 154.42424242424255,392.80808080808094 154.42424242424255,383.27272727272737 154.42424242424255,373.73737373737384 154.42424242424255,364.2020202020203 154.42424242424255,354.66666666666674 154.42424242424255,345.1313131313133 154.42424242424255,335.5959595959597 154.42424242424255,326.06060606060623 154.42424242424255,316.5252525252526 154.42424242424255,306.9898989898991 154.42424242424255,297.4545454545456 154.42424242424255,287.91919191919203 154.42424242424255,278.38383838383857 154.42424242424255,268.84848484848493 154.42424242424255,259.3131313131314 154.42424242424255,249.77777777777794 154.42424242424255,240.24242424242436 163.95959595959607,230.70707070707084 173.4949494949496,221.17171717171726 173.4949494949496,211.63636363636374 183.03030303030312,202.10101010101027 173.4949494949496,192.56565656565675 173.4949494949496,183.03030303030312 163.95959595959607,173.4949494949496 163.95959595959607,163.95959595959613 163.95959595959607,154.4242424242426 163.95959595959607,144.88888888888908 163.95959595959607,135.35353535353545" fill="none" stroke="rgba(0,0,255,0.75)" stroke-width="14.159999999999995"/></g><g><polyline data-points="-3.6868686868686864,3.989898989898992 -3.7878787878787876,4.090909090909092 -3.8888888888888884,4.191919191919193 -3.8888888888888884,4.292929292929293 -3.8888888888888884,4.393939393939394 -3.8888888888888884,4.494949494949497 -3.8888888888888884,4.595959595959597 -3.8888888888888884,4.696969696969697 -3.8888888888888884,4.7979797979797985 -3.8888888888888884,4.898989898989901 -3.8888888888888884,5.000000000000002" data-type="line" data-label="" points="163.95959595959607,135.35353535353545 154.42424242424255,125.81818181818198 144.88888888888903,116.28282828282846 144.88888888888903,106.747474747475 144.88888888888903,97.21212121212153 144.88888888888903,87.67676767676778 144.88888888888903,78.14141414141432 144.88888888888903,68.60606060606085 144.88888888888903,59.07070707070733 144.88888888888903,49.53535353535369 144.88888888888903,40.000000000000114" fill="none" stroke="rgba(255,0,0,0.75)" stroke-width="14.159999999999995"/></g><g><polyline data-points="-5.000000000000001,2.575757575757577 -4.898989898989899,2.4747474747474754 -4.7979797979797985,2.373737373737375 -4.696969696969697,2.2727272727272734 -4.595959595959596,2.1717171717171726 -4.494949494949496,2.070707070707072 -4.393939393939394,1.9696969696969702 -4.292929292929293,1.8686868686868696 -4.191919191919193,1.767676767676768 -4.090909090909091,1.6666666666666674 -3.98989898989899,1.5656565656565666 -3.8888888888888884,1.4646464646464652 -3.7878787878787876,1.3636363636363644 -3.6868686868686864,1.262626262626263 -3.5858585858585856,1.1616161616161622 -3.484848484848485,1.0606060606060617 -3.383838383838383,0.9595959595959602 -3.2828282828282824,0.8585858585858596 -3.1818181818181817,0.7575757575757579 -3.0808080808080804,0.6565656565656574 -2.9797979797979792,0.5555555555555567 -2.8787878787878785,0.4545454545454551 -2.7777777777777777,0.3535353535353544 -2.6767676767676765,0.2525252525252529 -2.5757575757575752,0.1515151515151522 -2.474747474747474,0.050505050505051545 -2.3737373737373733,-0.05050505050505001 -2.2727272727272725,-0.15151515151515066 -2.1717171717171713,-0.2525252525252522 -2.07070707070707,-0.2525252525252522 -1.9696969696969693,-0.2525252525252522 -1.8686868686868683,-0.2525252525252522 -1.7676767676767675,-0.2525252525252522 -1.6666666666666665,-0.2525252525252522 -1.5656565656565653,-0.2525252525252522 -1.4646464646464643,-0.2525252525252522 -1.363636363636363,-0.2525252525252522 -1.2626262626262625,-0.2525252525252522 -1.1616161616161613,-0.2525252525252522 -1.0606060606060603,-0.2525252525252522 -0.9595959595959596,-0.2525252525252522 -0.8585858585858579,-0.2525252525252522 -0.7575757575757572,-0.2525252525252522 -0.6565656565656557,-0.2525252525252522 -0.555555555555555,-0.2525252525252522 -0.4545454545454544,-0.2525252525252522 -0.35353535353535287,-0.2525252525252522 -0.2525252525252522,-0.2525252525252522 -0.15151515151515066,-0.2525252525252522 -0.05050505050505001,-0.2525252525252522 0.050505050505051545,-0.2525252525252522 0.1515151515151522,-0.2525252525252522 0.2525252525252529,-0.2525252525252522 0.3535353535353544,-0.2525252525252522 0.4545454545454551,-0.2525252525252522 0.5555555555555567,-0.2525252525252522 0.6565656565656574,-0.2525252525252522 0.7575757575757579,-0.2525252525252522 0.8585858585858596,-0.2525252525252522 0.9595959595959602,-0.2525252525252522 1.0606060606060617,-0.2525252525252522 1.1616161616161622,-0.2525252525252522 1.262626262626263,-0.2525252525252522 1.3636363636363644,-0.2525252525252522 1.4646464646464652,-0.2525252525252522 1.5656565656565666,-0.2525252525252522 1.6666666666666674,-0.2525252525252522 1.767676767676768,-0.2525252525252522 1.8686868686868696,-0.2525252525252522 1.9696969696969702,-0.2525252525252522 2.070707070707072,-0.2525252525252522 2.1717171717171726,-0.2525252525252522 2.2727272727272734,-0.2525252525252522 2.373737373737375,-0.2525252525252522 2.4747474747474754,-0.2525252525252522 2.575757575757577,-0.2525252525252522 2.676767676767678,-0.2525252525252522 2.7777777777777786,-0.2525252525252522 2.87878787878788,-0.2525252525252522 2.9797979797979806,-0.2525252525252522 3.080808080808082,-0.2525252525252522 3.181818181818183,-0.2525252525252522 3.2828282828282833,-0.2525252525252522 3.383838383838384,-0.2525252525252522 3.4848484848484866,-0.2525252525252522 3.5858585858585874,-0.2525252525252522 3.6868686868686877,-0.2525252525252522 3.7878787878787885,-0.2525252525252522 3.8888888888888893,-0.2525252525252522 3.989898989898992,-0.2525252525252522 4.090909090909092,-0.35353535353535287 4.191919191919193,-0.35353535353535287 4.292929292929293,-0.4545454545454544 4.393939393939394,-0.555555555555555 4.494949494949497,-0.6565656565656557 4.595959595959597,-0.7575757575757572 4.696969696969697,-0.8585858585858579 4.7979797979797985,-0.9595959595959596 4.898989898989901,-1.0606060606060603 5.000000000000002,-1.1616161616161613 5.000000000000002,-1.2626262626262625 5.000000000000002,-1.363636363636363 5.000000000000002,-1.4646464646464643 5.000000000000002,-1.5656565656565653 5.000000000000002,-1.6666666666666665 5.000000000000002,-1.7676767676767675 5.000000000000002,-1.8686868686868683 5.000000000000002,-1.9696969696969693 5.000000000000002,-2.07070707070707 5.000000000000002,-2.1717171717171713 5.000000000000002,-2.2727272727272725 5.000000000000002,-2.3737373737373733 5.000000000000002,-2.474747474747474 5.000000000000002,-2.5757575757575752 5.000000000000002,-2.6767676767676765 5.000000000000002,-2.7777777777777777 5.000000000000002,-2.8787878787878785 5.000000000000002,-2.9797979797979792" data-type="line" data-label="" points="40.00000000000006,268.84848484848493 49.53535353535369,278.38383838383857 59.07070707070716,287.91919191919203 68.60606060606068,297.4545454545456 78.14141414141426,306.9898989898991 87.67676767676772,316.5252525252526 97.21212121212136,326.06060606060623 106.74747474747483,335.5959595959597 116.28282828282829,345.1313131313133 125.81818181818193,354.66666666666674 135.35353535353545,364.2020202020203 144.88888888888903,373.73737373737384 154.42424242424255,383.27272727272737 163.95959595959607,392.80808080808094 173.4949494949496,402.3434343434344 183.03030303030312,411.87878787878793 192.5656565656567,421.4141414141415 202.10101010101022,430.94949494949503 211.63636363636374,440.4848484848486 221.17171717171726,450.0202020202021 230.70707070707084,459.5555555555556 240.2424242424243,469.0909090909092 249.77777777777783,478.6262626262627 259.3131313131314,488.1616161616163 268.84848484848493,497.69696969696975 278.38383838383845,507.23232323232327 287.91919191919203,516.7676767676768 297.4545454545455,526.3030303030304 306.9898989898991,535.838383838384 316.5252525252526,535.838383838384 326.0606060606061,535.838383838384 335.59595959595964,535.838383838384 345.13131313131316,535.838383838384 354.6666666666667,535.838383838384 364.2020202020202,535.838383838384 373.7373737373738,535.838383838384 383.2727272727273,535.838383838384 392.80808080808083,535.838383838384 402.34343434343435,535.838383838384 411.8787878787879,535.838383838384 421.4141414141414,535.838383838384 430.949494949495,535.838383838384 440.4848484848485,535.838383838384 450.0202020202021,535.838383838384 459.55555555555554,535.838383838384 469.09090909090907,535.838383838384 478.62626262626264,535.838383838384 488.16161616161617,535.838383838384 497.69696969696975,535.838383838384 507.2323232323232,535.838383838384 516.7676767676768,535.838383838384 526.3030303030303,535.838383838384 535.8383838383838,535.838383838384 545.3737373737374,535.838383838384 554.9090909090909,535.838383838384 564.4444444444445,535.838383838384 573.9797979797979,535.838383838384 583.5151515151515,535.838383838384 593.0505050505051,535.838383838384 602.5858585858585,535.838383838384 612.1212121212121,535.838383838384 621.6565656565656,535.838383838384 631.1919191919192,535.838383838384 640.7272727272727,535.838383838384 650.2626262626262,535.838383838384 659.7979797979798,535.838383838384 669.3333333333333,535.838383838384 678.8686868686868,535.838383838384 688.4040404040404,535.838383838384 697.9393939393939,535.838383838384 707.4747474747475,535.838383838384 717.0101010101009,535.838383838384 726.5454545454545,535.838383838384 736.0808080808081,535.838383838384 745.6161616161615,535.838383838384 755.1515151515151,535.838383838384 764.6868686868686,535.838383838384 774.2222222222222,535.838383838384 783.7575757575758,535.838383838384 793.2929292929292,535.838383838384 802.8282828282828,535.838383838384 812.3636363636363,535.838383838384 821.8989898989898,535.838383838384 831.4343434343433,535.838383838384 840.969696969697,535.838383838384 850.5050505050505,535.838383838384 860.0404040404039,535.838383838384 869.5757575757575,535.838383838384 879.111111111111,535.838383838384 888.6464646464647,535.838383838384 898.181818181818,545.3737373737374 907.7171717171716,545.3737373737374 917.2525252525251,554.909090909091 926.7878787878785,564.4444444444445 936.3232323232323,573.979797979798 945.8585858585857,583.5151515151516 955.3939393939393,593.0505050505051 964.9292929292927,602.5858585858587 974.4646464646464,612.1212121212121 984,621.6565656565657 984,631.1919191919193 984,640.7272727272727 984,650.2626262626263 984,659.7979797979798 984,669.3333333333334 984,678.8686868686868 984,688.4040404040404 984,697.939393939394 984,707.4747474747475 984,717.010101010101 984,726.5454545454545 984,736.0808080808081 984,745.6161616161615 984,755.1515151515151 984,764.6868686868687 984,774.2222222222222 984,783.7575757575758 984,793.2929292929292" fill="none" stroke="rgba(255,0,0,0.75)" stroke-width="14.159999999999995"/></g><g><rect data-type="rect" data-label="" data-x="0" data-y="0" x="40.000000000000114" y="40.000000000000284" width="943.9999999999997" height="943.9999999999998" fill="none" stroke="gray" stroke-width="0.010593220338983056"/></g><g><rect data-type="rect" data-label="" data-x="0" data-y="0" x="40.000000000000114" y="40.000000000000284" width="943.9999999999997" height="943.9999999999998" fill="none" stroke="rgba(15, 23, 42, 0.8)" stroke-width="0.010593220338983056"/></g><circle data-type="circle" data-label="" data-x="3.989898989898992" data-y="3.989898989898992" cx="888.6464646464647" cy="135.35353535353545" r="28.791999999999987" fill="rgba(0,0,0,0.3)" stroke="black" stroke-width="0.010593220338983056"/><circle data-type="circle" data-label="" data-x="3.989898989898992" data-y="-0.7575757575757572" cx="888.6464646464647" cy="583.5151515151516" r="28.791999999999987" fill="rgba(0,0,0,0.3)" stroke="black" stroke-width="0.010593220338983056"/><circle data-type="circle" data-label="" data-x="-3.98989898989899" data-y="3.2828282828282833" cx="135.35353535353545" cy="202.10101010101027" r="28.791999999999987" fill="rgba(0,0,0,0.3)" stroke="black" stroke-width="0.010593220338983056"/><circle data-type="circle" data-label="" data-x="-3.7878787878787876" data-y="-1.2626262626262625" cx="154.42424242424255" cy="631.1919191919193" r="28.791999999999987" fill="rgba(0,0,0,0.3)" stroke="black" stroke-width="0.010593220338983056"/><circle data-type="circle" data-label="" data-x="-3.6868686868686864" data-y="3.989898989898992" cx="163.95959595959607" cy="135.35353535353545" r="28.791999999999987" fill="rgba(0,0,0,0.3)" stroke="black" stroke-width="0.010593220338983056"/><g id="crosshair" style="display: none"><line id="crosshair-h" y1="0" y2="1024" stroke="#666" stroke-width="0.5"/><line id="crosshair-v" x1="0" x2="1024" stroke="#666" stroke-width="0.5"/><text id="coordinates" font-family="monospace" font-size="12" fill="#666"></text></g><script><![CDATA[
              document.currentScript.parentElement.addEventListener('mousemove', (e) => {
                const svg = e.currentTarget;
                const rect = svg.getBoundingClientRect();
                const x = e.clientX - rect.left;
                const y = e.clientY - rect.top;
                const crosshair = svg.getElementById('crosshair');
                const h = svg.getElementById('crosshair-h');
                const v = svg.getElementById('crosshair-v');
                const coords = svg.getElementById('coordinates');
                
                crosshair.style.display = 'block';
                h.setAttribute('x1', '0');
                h.setAttribute('x2', '1024');
                h.setAttribute('y1', y);
                h.setAttribute('y2', y);
                v.setAttribute('x1', x);
                v.setAttribute('x2', x);
                v.setAttribute('y1', '0');
                v.setAttribute('y2', '1024');

                // Calculate real coordinates using inverse transformation
                const matrix = {"a":94.39999999999996,"c":0,"e":511.99999999999994,"b":0,"d":-94.39999999999996,"f":512.0000000000001};
                // Manually invert and apply the affine transform
                // Since we only use translate and scale, we can directly compute:
                // x' = (x - tx) / sx
                // y' = (y - ty) / sy
                const sx = matrix.a;
                const sy = matrix.d;
                const tx = matrix.e; 
                const ty = matrix.f;
                const realPoint = {
                  x: (x - tx) / sx,
                  y: (y - ty) / sy // Flip y back since we used negative scale
                }
                
                coords.textContent = `(${realPoint.x.toFixed(2)}, ${realPoint.y.toFixed(2)})`;
                coords.setAttribute('x', (x + 5).toString());
                coords.setAttribute('y', (y - 5).toString());
              });
              document.currentScript.parentElement.addEventListener('mouseleave', () => {
                document.currentScript.parentElement.getElementById('crosshair').style.display = 'none';
              });
            ]]></script></svg>