<svg width="1024" height="1024" viewBox="0 0 1024 1024" xmlns="http://www.w3.org/2000/svg"><rect width="100%" height="100%" fill="white"/><g><circle data-type="point" data-label="conn_000" data-x="-5" data-y="-2.64" cx="40.000000000000114" cy="761.216" r="28.792" fill="red" stroke="#740fbd" stroke-width="28.792"/></g><g><circle data-type="point" data-label="conn_000" data-x="5" data-y="-0.04" cx="983.9999999999998" cy="515.7760000000001" r="28.792" fill="red" stroke="#740fbd" stroke-width="28.792"/></g><g><circle data-type="point" data-label="conn_001" data-x="3.08" data-y="-5" cx="802.7519999999998" cy="984" r="28.792" fill="red" stroke="#bda70f" stroke-width="28.792"/></g><g><circle data-type="point" data-label="conn_001" data-x="-4.58" data-y="5" cx="79.64800000000008" cy="40.000000000000284" r="28.792" fill="red" stroke="#bda70f" stroke-width="28.792"/></g><g><circle data-type="point" data-label="conn_002" data-x="1.2" data-y="5" cx="625.2799999999999" cy="40.000000000000284" r="28.792" fill="blue" stroke="#0fa0bd" stroke-width="28.792"/></g><g><circle data-type="point" data-label="conn_002" data-x="0.48" data-y="-5" cx="557.3119999999999" cy="984" r="28.792" fill="blue" stroke="#0fa0bd" stroke-width="28.792"/></g><g><circle data-type="point" data-label="conn_003" data-x="5" data-y="-4.22" cx="983.9999999999998" cy="910.3679999999999" r="28.792" fill="red" stroke="#bd0f6d" stroke-width="28.792"/></g><g><circle data-type="point" data-label="conn_003" data-x="-3.34" data-y="-5" cx="196.70400000000006" cy="984" r="28.792" fill="blue" stroke="#bd0f6d" stroke-width="28.792"/></g><g><circle data-type="point" data-label="conn_004" data-x="-5" data-y="-1.34" cx="40.000000000000114" cy="638.4960000000001" r="28.792" fill="red" stroke="#3bbd0f" stroke-width="28.792"/></g><g><circle data-type="point" data-label="conn_004" data-x="5" data-y="3.8200000000000003" cx="983.9999999999998" cy="151.39200000000022" r="28.792" fill="red" stroke="#3bbd0f" stroke-width="28.792"/></g><g><circle data-type="point" data-label="conn_005" data-x="-1.76" data-y="-5" cx="345.856" cy="984" r="28.792" fill="red" stroke="#170fbd" stroke-width="28.792"/></g><g><circle data-type="point" data-label="conn_005" data-x="-1.16" data-y="5" cx="402.496" cy="40.000000000000284" r="28.792" fill="blue" stroke="#170fbd" stroke-width="28.792"/></g><g><circle data-type="point" data-label="conn_006" data-x="5" data-y="4.8" cx="983.9999999999998" cy="58.88000000000028" r="28.792" fill="blue" stroke="#bd490f" stroke-width="28.792"/></g><g><circle data-type="point" data-label="conn_006" data-x="-5" data-y="4.22" cx="40.000000000000114" cy="113.63200000000029" r="28.792" fill="red" stroke="#bd490f" stroke-width="28.792"/></g><g><circle data-type="point" data-label="conn_007" data-x="2.16" data-y="-5" cx="715.9039999999999" cy="984" r="28.792" fill="blue" stroke="#0fbd7c" stroke-width="28.792"/></g><g><circle data-type="point" data-label="conn_007" data-x="-5" data-y="-4.26" cx="40.000000000000114" cy="914.144" r="28.792" fill="blue" stroke="#0fbd7c" stroke-width="28.792"/></g><g><circle data-type="point" data-label="conn_008" data-x="5" data-y="-1.98" cx="983.9999999999998" cy="698.912" r="28.792" fill="red" stroke="#ae0fbd" stroke-width="28.792"/></g><g><circle data-type="point" data-label="conn_008" data-x="-5" data-y="-0.26" cx="40.000000000000114" cy="536.5440000000001" r="28.792" fill="blue" stroke="#ae0fbd" stroke-width="28.792"/></g><g><polyline data-points="-1.7676767676767675,-5.000000000000001 -1.6666666666666665,-4.898989898989899 -1.5656565656565653,-4.7979797979797985 -1.4646464646464643,-4.696969696969697 -1.363636363636363,-4.595959595959596 -1.2626262626262625,-4.494949494949496 -1.1616161616161613,-4.393939393939394 -1.1616161616161613,-4.292929292929293 -1.1616161616161613,-4.191919191919193 -1.1616161616161613,-4.090909090909091 -1.1616161616161613,-3.98989898989899 -1.1616161616161613,-3.8888888888888884 -1.1616161616161613,-3.7878787878787876 -1.1616161616161613,-3.6868686868686864 -1.1616161616161613,-3.5858585858585856 -1.1616161616161613,-3.484848484848485 -1.1616161616161613,-3.383838383838383 -1.1616161616161613,-3.2828282828282824 -1.1616161616161613,-3.1818181818181817 -1.1616161616161613,-3.0808080808080804 -1.1616161616161613,-2.9797979797979792 -1.1616161616161613,-2.8787878787878785 -1.1616161616161613,-2.7777777777777777 -1.1616161616161613,-2.6767676767676765 -1.1616161616161613,-2.5757575757575752 -1.1616161616161613,-2.474747474747474 -1.1616161616161613,-2.3737373737373733 -1.1616161616161613,-2.2727272727272725 -1.1616161616161613,-2.1717171717171713 -1.1616161616161613,-2.07070707070707 -1.1616161616161613,-1.9696969696969693 -1.1616161616161613,-1.8686868686868683 -1.1616161616161613,-1.7676767676767675 -1.1616161616161613,-1.6666666666666665 -1.1616161616161613,-1.5656565656565653 -1.1616161616161613,-1.4646464646464643 -1.1616161616161613,-1.363636363636363 -1.1616161616161613,-1.2626262626262625 -1.1616161616161613,-1.1616161616161613 -1.1616161616161613,-1.0606060606060603 -1.1616161616161613,-0.9595959595959596 -1.1616161616161613,-0.8585858585858579 -1.1616161616161613,-0.7575757575757572 -1.1616161616161613,-0.6565656565656557 -1.1616161616161613,-0.555555555555555 -1.1616161616161613,-0.4545454545454544 -1.1616161616161613,-0.35353535353535287 -1.1616161616161613,-0.2525252525252522 -1.1616161616161613,-0.15151515151515066 -1.1616161616161613,-0.05050505050505001 -1.1616161616161613,0.050505050505051545 -1.1616161616161613,0.1515151515151522 -1.1616161616161613,0.2525252525252529 -1.1616161616161613,0.3535353535353544 -1.1616161616161613,0.4545454545454551 -1.1616161616161613,0.5555555555555567 -1.1616161616161613,0.6565656565656574 -1.1616161616161613,0.7575757575757579 -1.1616161616161613,0.8585858585858596 -1.1616161616161613,0.9595959595959602 -1.1616161616161613,1.0606060606060617 -1.1616161616161613,1.1616161616161622 -1.1616161616161613,1.262626262626263 -1.1616161616161613,1.3636363636363644 -1.1616161616161613,1.4646464646464652 -1.1616161616161613,1.5656565656565666 -1.1616161616161613,1.6666666666666674 -1.1616161616161613,1.767676767676768 -1.1616161616161613,1.8686868686868696 -1.1616161616161613,1.9696969696969702 -1.1616161616161613,2.070707070707072 -1.1616161616161613,2.1717171717171726 -1.1616161616161613,2.2727272727272734 -1.1616161616161613,2.373737373737375 -1.1616161616161613,2.4747474747474754 -1.1616161616161613,2.575757575757577 -1.1616161616161613,2.676767676767678 -1.1616161616161613,2.7777777777777786 -1.1616161616161613,2.87878787878788 -1.1616161616161613,2.9797979797979806 -1.1616161616161613,3.080808080808082 -1.1616161616161613,3.181818181818183 -1.1616161616161613,3.2828282828282833 -1.1616161616161613,3.383838383838384 -1.1616161616161613,3.4848484848484866 -1.1616161616161613,3.5858585858585874 -1.1616161616161613,3.6868686868686877 -1.1616161616161613,3.7878787878787885 -1.1616161616161613,3.8888888888888893 -1.1616161616161613,3.989898989898992" data-type="line" data-label="" points="345.13131313131316,984 354.6666666666667,974.4646464646464 364.2020202020202,964.9292929292928 373.7373737373738,955.3939393939394 383.2727272727273,945.8585858585858 392.80808080808083,936.3232323232323 402.34343434343435,926.7878787878788 402.34343434343435,917.2525252525252 402.34343434343435,907.7171717171718 402.34343434343435,898.1818181818181 402.34343434343435,888.6464646464647 402.34343434343435,879.1111111111111 402.34343434343435,869.5757575757575 402.34343434343435,860.0404040404039 402.34343434343435,850.5050505050505 402.34343434343435,840.969696969697 402.34343434343435,831.4343434343434 402.34343434343435,821.8989898989898 402.34343434343435,812.3636363636363 402.34343434343435,802.8282828282828 402.34343434343435,793.2929292929292 402.34343434343435,783.7575757575758 402.34343434343435,774.2222222222222 402.34343434343435,764.6868686868687 402.34343434343435,755.1515151515151 402.34343434343435,745.6161616161615 402.34343434343435,736.0808080808081 402.34343434343435,726.5454545454545 402.34343434343435,717.010101010101 402.34343434343435,707.4747474747475 402.34343434343435,697.939393939394 402.34343434343435,688.4040404040404 402.34343434343435,678.8686868686868 402.34343434343435,669.3333333333334 402.34343434343435,659.7979797979798 402.34343434343435,650.2626262626263 402.34343434343435,640.7272727272727 402.34343434343435,631.1919191919193 402.34343434343435,621.6565656565657 402.34343434343435,612.1212121212121 402.34343434343435,602.5858585858587 402.34343434343435,593.0505050505051 402.34343434343435,583.5151515151516 402.34343434343435,573.979797979798 402.34343434343435,564.4444444444445 402.34343434343435,554.909090909091 402.34343434343435,545.3737373737374 402.34343434343435,535.838383838384 402.34343434343435,526.3030303030304 402.34343434343435,516.7676767676768 402.34343434343435,507.23232323232327 402.34343434343435,497.69696969696975 402.34343434343435,488.1616161616163 402.34343434343435,478.6262626262627 402.34343434343435,469.0909090909092 402.34343434343435,459.5555555555556 402.34343434343435,450.0202020202021 402.34343434343435,440.4848484848486 402.34343434343435,430.94949494949503 402.34343434343435,421.4141414141415 402.34343434343435,411.87878787878793 402.34343434343435,402.3434343434344 402.34343434343435,392.80808080808094 402.34343434343435,383.27272727272737 402.34343434343435,373.73737373737384 402.34343434343435,364.2020202020203 402.34343434343435,354.66666666666674 402.34343434343435,345.1313131313133 402.34343434343435,335.5959595959597 402.34343434343435,326.06060606060623 402.34343434343435,316.5252525252526 402.34343434343435,306.9898989898991 402.34343434343435,297.4545454545456 402.34343434343435,287.91919191919203 402.34343434343435,278.38383838383857 402.34343434343435,268.84848484848493 402.34343434343435,259.3131313131314 402.34343434343435,249.77777777777794 402.34343434343435,240.24242424242436 402.34343434343435,230.70707070707084 402.34343434343435,221.17171717171726 402.34343434343435,211.63636363636374 402.34343434343435,202.10101010101027 402.34343434343435,192.56565656565675 402.34343434343435,183.03030303030312 402.34343434343435,173.4949494949496 402.34343434343435,163.95959595959613 402.34343434343435,154.4242424242426 402.34343434343435,144.88888888888908 402.34343434343435,135.35353535353545" fill="none" stroke="rgba(255,0,0,0.75)" stroke-width="14.159999999999995"/></g><g><polyline data-points="-1.1616161616161613,3.989898989898992 -1.1616161616161613,4.090909090909092 -1.1616161616161613,4.191919191919193 -1.1616161616161613,4.292929292929293 -1.1616161616161613,4.393939393939394 -1.1616161616161613,4.494949494949497 -1.1616161616161613,4.595959595959597 -1.1616161616161613,4.696969696969697 -1.1616161616161613,4.7979797979797985 -1.1616161616161613,4.898989898989901 -1.1616161616161613,5.000000000000002" data-type="line" data-label="" points="402.34343434343435,135.35353535353545 402.34343434343435,125.81818181818198 402.34343434343435,116.28282828282846 402.34343434343435,106.747474747475 402.34343434343435,97.21212121212153 402.34343434343435,87.67676767676778 402.34343434343435,78.14141414141432 402.34343434343435,68.60606060606085 402.34343434343435,59.07070707070733 402.34343434343435,49.53535353535369 402.34343434343435,40.000000000000114" fill="none" stroke="rgba(0,0,255,0.75)" stroke-width="14.159999999999995"/></g><g><polyline data-points="5.000000000000002,-4.292929292929293 4.898989898989901,-4.292929292929293 4.7979797979797985,-4.292929292929293 4.696969696969697,-4.292929292929293 4.595959595959597,-4.292929292929293 4.494949494949497,-4.292929292929293 4.393939393939394,-4.292929292929293 4.292929292929293,-4.292929292929293 4.191919191919193,-4.292929292929293 4.090909090909092,-4.292929292929293 3.989898989898992,-4.292929292929293 3.8888888888888893,-4.292929292929293 3.7878787878787885,-4.292929292929293 3.6868686868686877,-4.292929292929293 3.5858585858585874,-4.292929292929293 3.4848484848484866,-4.292929292929293 3.383838383838384,-4.292929292929293 3.2828282828282833,-4.292929292929293 3.181818181818183,-4.292929292929293 3.080808080808082,-4.292929292929293 2.9797979797979806,-4.292929292929293 2.87878787878788,-4.292929292929293 2.7777777777777786,-4.292929292929293 2.676767676767678,-4.292929292929293 2.575757575757577,-4.292929292929293 2.4747474747474754,-4.292929292929293 2.373737373737375,-4.292929292929293 2.2727272727272734,-4.292929292929293 2.1717171717171726,-4.292929292929293 2.070707070707072,-4.292929292929293 1.9696969696969702,-4.292929292929293 1.8686868686868696,-4.292929292929293 1.767676767676768,-4.292929292929293 1.6666666666666674,-4.292929292929293 1.5656565656565666,-4.292929292929293 1.4646464646464652,-4.292929292929293 1.3636363636363644,-4.292929292929293 1.262626262626263,-4.292929292929293 1.1616161616161622,-4.292929292929293 1.0606060606060617,-4.292929292929293 0.9595959595959602,-4.292929292929293 0.8585858585858596,-4.292929292929293 0.7575757575757579,-4.292929292929293 0.6565656565656574,-4.292929292929293 0.5555555555555567,-4.292929292929293 0.4545454545454551,-4.292929292929293 0.3535353535353544,-4.292929292929293 0.2525252525252529,-4.292929292929293 0.1515151515151522,-4.292929292929293 0.050505050505051545,-4.292929292929293 -0.05050505050505001,-4.292929292929293 -0.15151515151515066,-4.191919191919193 -0.2525252525252522,-4.090909090909091 -0.35353535353535287,-3.98989898989899" data-type="line" data-label="" points="984,917.2525252525252 974.4646464646464,917.2525252525252 964.9292929292927,917.2525252525252 955.3939393939393,917.2525252525252 945.8585858585857,917.2525252525252 936.3232323232323,917.2525252525252 926.7878787878785,917.2525252525252 917.2525252525251,917.2525252525252 907.7171717171716,917.2525252525252 898.181818181818,917.2525252525252 888.6464646464647,917.2525252525252 879.111111111111,917.2525252525252 869.5757575757575,917.2525252525252 860.0404040404039,917.2525252525252 850.5050505050505,917.2525252525252 840.969696969697,917.2525252525252 831.4343434343433,917.2525252525252 821.8989898989898,917.2525252525252 812.3636363636363,917.2525252525252 802.8282828282828,917.2525252525252 793.2929292929292,917.2525252525252 783.7575757575758,917.2525252525252 774.2222222222222,917.2525252525252 764.6868686868686,917.2525252525252 755.1515151515151,917.2525252525252 745.6161616161615,917.2525252525252 736.0808080808081,917.2525252525252 726.5454545454545,917.2525252525252 717.0101010101009,917.2525252525252 707.4747474747475,917.2525252525252 697.9393939393939,917.2525252525252 688.4040404040404,917.2525252525252 678.8686868686868,917.2525252525252 669.3333333333333,917.2525252525252 659.7979797979798,917.2525252525252 650.2626262626262,917.2525252525252 640.7272727272727,917.2525252525252 631.1919191919192,917.2525252525252 621.6565656565656,917.2525252525252 612.1212121212121,917.2525252525252 602.5858585858585,917.2525252525252 593.0505050505051,917.2525252525252 583.5151515151515,917.2525252525252 573.9797979797979,917.2525252525252 564.4444444444445,917.2525252525252 554.9090909090909,917.2525252525252 545.3737373737374,917.2525252525252 535.8383838383838,917.2525252525252 526.3030303030303,917.2525252525252 516.7676767676768,917.2525252525252 507.2323232323232,917.2525252525252 497.69696969696975,907.7171717171718 488.16161616161617,898.1818181818181 478.62626262626264,888.6464646464647" fill="none" stroke="rgba(255,0,0,0.75)" stroke-width="14.159999999999995"/></g><g><polyline data-points="-0.35353535353535287,-3.98989898989899 -0.4545454545454544,-4.090909090909091 -0.555555555555555,-4.191919191919193 -0.6565656565656557,-4.292929292929293 -0.7575757575757572,-4.393939393939394 -0.8585858585858579,-4.494949494949496 -0.9595959595959596,-4.595959595959596 -1.0606060606060603,-4.696969696969697 -1.1616161616161613,-4.7979797979797985 -1.2626262626262625,-4.898989898989899 -1.363636363636363,-5.000000000000001 -1.4646464646464643,-5.000000000000001 -1.5656565656565653,-5.000000000000001 -1.6666666666666665,-5.000000000000001 -1.7676767676767675,-5.000000000000001 -1.8686868686868683,-5.000000000000001 -1.9696969696969693,-5.000000000000001 -2.07070707070707,-5.000000000000001 -2.1717171717171713,-5.000000000000001 -2.2727272727272725,-5.000000000000001 -2.3737373737373733,-5.000000000000001 -2.474747474747474,-5.000000000000001 -2.5757575757575752,-5.000000000000001 -2.6767676767676765,-5.000000000000001 -2.7777777777777777,-5.000000000000001 -2.8787878787878785,-5.000000000000001 -2.9797979797979792,-5.000000000000001 -3.0808080808080804,-5.000000000000001 -3.1818181818181817,-5.000000000000001 -3.2828282828282824,-5.000000000000001 -3.383838383838383,-5.000000000000001" data-type="line" data-label="" points="478.62626262626264,888.6464646464647 469.09090909090907,898.1818181818181 459.55555555555554,907.7171717171718 450.0202020202021,917.2525252525252 440.4848484848485,926.7878787878788 430.949494949495,936.3232323232323 421.4141414141414,945.8585858585858 411.8787878787879,955.3939393939394 402.34343434343435,964.9292929292928 392.80808080808083,974.4646464646464 383.2727272727273,984 373.7373737373738,984 364.2020202020202,984 354.6666666666667,984 345.13131313131316,984 335.59595959595964,984 326.0606060606061,984 316.5252525252526,984 306.9898989898991,984 297.4545454545455,984 287.91919191919203,984 278.38383838383845,984 268.84848484848493,984 259.3131313131314,984 249.77777777777783,984 240.2424242424243,984 230.70707070707084,984 221.17171717171726,984 211.63636363636374,984 202.10101010101022,984 192.5656565656567,984" fill="none" stroke="rgba(0,0,255,0.75)" stroke-width="14.159999999999995"/></g><g><polyline data-points="-5.000000000000001,-1.363636363636363 -4.898989898989899,-1.2626262626262625 -4.7979797979797985,-1.1616161616161613 -4.696969696969697,-1.0606060606060603 -4.595959595959596,-0.9595959595959596 -4.494949494949496,-0.8585858585858579 -4.393939393939394,-0.7575757575757572 -4.292929292929293,-0.6565656565656557 -4.191919191919193,-0.555555555555555 -4.090909090909091,-0.4545454545454544 -3.98989898989899,-0.35353535353535287 -3.8888888888888884,-0.2525252525252522 -3.7878787878787876,-0.15151515151515066 -3.6868686868686864,-0.05050505050505001 -3.5858585858585856,0.050505050505051545 -3.484848484848485,0.1515151515151522 -3.383838383838383,0.2525252525252529 -3.2828282828282824,0.3535353535353544 -3.1818181818181817,0.4545454545454551 -3.0808080808080804,0.5555555555555567 -2.9797979797979792,0.6565656565656574 -2.8787878787878785,0.7575757575757579 -2.7777777777777777,0.8585858585858596 -2.6767676767676765,0.9595959595959602 -2.5757575757575752,1.0606060606060617 -2.474747474747474,1.1616161616161622 -2.3737373737373733,1.262626262626263 -2.2727272727272725,1.3636363636363644 -2.1717171717171713,1.4646464646464652 -2.07070707070707,1.5656565656565666 -1.9696969696969693,1.6666666666666674 -1.8686868686868683,1.767676767676768 -1.7676767676767675,1.8686868686868696 -1.7676767676767675,1.9696969696969702 -1.7676767676767675,2.070707070707072 -1.7676767676767675,2.1717171717171726 -1.7676767676767675,2.2727272727272734 -1.7676767676767675,2.373737373737375 -1.7676767676767675,2.4747474747474754 -1.7676767676767675,2.575757575757577 -1.7676767676767675,2.676767676767678 -1.7676767676767675,2.7777777777777786 -1.7676767676767675,2.87878787878788 -1.7676767676767675,2.9797979797979806 -1.7676767676767675,3.080808080808082" data-type="line" data-label="" points="40.00000000000006,640.7272727272727 49.53535353535369,631.1919191919193 59.07070707070716,621.6565656565657 68.60606060606068,612.1212121212121 78.14141414141426,602.5858585858587 87.67676767676772,593.0505050505051 97.21212121212136,583.5151515151516 106.74747474747483,573.979797979798 116.28282828282829,564.4444444444445 125.81818181818193,554.909090909091 135.35353535353545,545.3737373737374 144.88888888888903,535.838383838384 154.42424242424255,526.3030303030304 163.95959595959607,516.7676767676768 173.4949494949496,507.23232323232327 183.03030303030312,497.69696969696975 192.5656565656567,488.1616161616163 202.10101010101022,478.6262626262627 211.63636363636374,469.0909090909092 221.17171717171726,459.5555555555556 230.70707070707084,450.0202020202021 240.2424242424243,440.4848484848486 249.77777777777783,430.94949494949503 259.3131313131314,421.4141414141415 268.84848484848493,411.87878787878793 278.38383838383845,402.3434343434344 287.91919191919203,392.80808080808094 297.4545454545455,383.27272727272737 306.9898989898991,373.73737373737384 316.5252525252526,364.2020202020203 326.0606060606061,354.66666666666674 335.59595959595964,345.1313131313133 345.13131313131316,335.5959595959597 345.13131313131316,326.06060606060623 345.13131313131316,316.5252525252526 345.13131313131316,306.9898989898991 345.13131313131316,297.4545454545456 345.13131313131316,287.91919191919203 345.13131313131316,278.38383838383857 345.13131313131316,268.84848484848493 345.13131313131316,259.3131313131314 345.13131313131316,249.77777777777794 345.13131313131316,240.24242424242436 345.13131313131316,230.70707070707084 345.13131313131316,221.17171717171726" fill="none" stroke="rgba(255,0,0,0.75)" stroke-width="14.159999999999995"/></g><g><polyline data-points="-1.7676767676767675,3.080808080808082 -1.6666666666666665,3.181818181818183 -1.5656565656565653,3.2828282828282833 -1.4646464646464643,3.383838383838384 -1.363636363636363,3.4848484848484866 -1.2626262626262625,3.4848484848484866 -1.1616161616161613,3.4848484848484866 -1.0606060606060603,3.5858585858585874 -0.9595959595959596,3.5858585858585874 -0.8585858585858579,3.6868686868686877 -0.7575757575757572,3.7878787878787885 -0.6565656565656557,3.8888888888888893 -0.555555555555555,3.8888888888888893 -0.4545454545454544,3.8888888888888893 -0.35353535353535287,3.8888888888888893 -0.2525252525252522,3.8888888888888893 -0.15151515151515066,3.8888888888888893 -0.05050505050505001,3.8888888888888893 0.050505050505051545,3.8888888888888893 0.1515151515151522,3.8888888888888893 0.2525252525252529,3.8888888888888893 0.3535353535353544,3.8888888888888893 0.4545454545454551,3.8888888888888893 0.5555555555555567,3.8888888888888893 0.6565656565656574,3.8888888888888893 0.7575757575757579,3.8888888888888893 0.8585858585858596,3.8888888888888893 0.9595959595959602,3.8888888888888893 1.0606060606060617,3.8888888888888893 1.1616161616161622,3.8888888888888893 1.262626262626263,3.8888888888888893 1.3636363636363644,3.8888888888888893 1.4646464646464652,3.8888888888888893 1.5656565656565666,3.8888888888888893 1.6666666666666674,3.8888888888888893 1.767676767676768,3.8888888888888893 1.8686868686868696,3.8888888888888893 1.9696969696969702,3.8888888888888893 2.070707070707072,3.8888888888888893 2.1717171717171726,3.8888888888888893 2.2727272727272734,3.8888888888888893 2.373737373737375,3.8888888888888893 2.4747474747474754,3.8888888888888893 2.575757575757577,3.8888888888888893 2.676767676767678,3.8888888888888893 2.7777777777777786,3.8888888888888893 2.87878787878788,3.8888888888888893 2.9797979797979806,3.8888888888888893 3.080808080808082,3.8888888888888893 3.181818181818183,3.8888888888888893 3.2828282828282833,3.8888888888888893 3.383838383838384,3.8888888888888893 3.4848484848484866,3.8888888888888893 3.5858585858585874,3.8888888888888893 3.6868686868686877,3.8888888888888893 3.7878787878787885,3.8888888888888893 3.8888888888888893,3.8888888888888893 3.989898989898992,3.8888888888888893" data-type="line" data-label="" points="345.13131313131316,221.17171717171726 354.6666666666667,211.63636363636374 364.2020202020202,202.10101010101027 373.7373737373738,192.56565656565675 383.2727272727273,183.03030303030312 392.80808080808083,183.03030303030312 402.34343434343435,183.03030303030312 411.8787878787879,173.4949494949496 421.4141414141414,173.4949494949496 430.949494949495,163.95959595959613 440.4848484848485,154.4242424242426 450.0202020202021,144.88888888888908 459.55555555555554,144.88888888888908 469.09090909090907,144.88888888888908 478.62626262626264,144.88888888888908 488.16161616161617,144.88888888888908 497.69696969696975,144.88888888888908 507.2323232323232,144.88888888888908 516.7676767676768,144.88888888888908 526.3030303030303,144.88888888888908 535.8383838383838,144.88888888888908 545.3737373737374,144.88888888888908 554.9090909090909,144.88888888888908 564.4444444444445,144.88888888888908 573.9797979797979,144.88888888888908 583.5151515151515,144.88888888888908 593.0505050505051,144.88888888888908 602.5858585858585,144.88888888888908 612.1212121212121,144.88888888888908 621.6565656565656,144.88888888888908 631.1919191919192,144.88888888888908 640.7272727272727,144.88888888888908 650.2626262626262,144.88888888888908 659.7979797979798,144.88888888888908 669.3333333333333,144.88888888888908 678.8686868686868,144.88888888888908 688.4040404040404,144.88888888888908 697.9393939393939,144.88888888888908 707.4747474747475,144.88888888888908 717.0101010101009,144.88888888888908 726.5454545454545,144.88888888888908 736.0808080808081,144.88888888888908 745.6161616161615,144.88888888888908 755.1515151515151,144.88888888888908 764.6868686868686,144.88888888888908 774.2222222222222,144.88888888888908 783.7575757575758,144.88888888888908 793.2929292929292,144.88888888888908 802.8282828282828,144.88888888888908 812.3636363636363,144.88888888888908 821.8989898989898,144.88888888888908 831.4343434343433,144.88888888888908 840.969696969697,144.88888888888908 850.5050505050505,144.88888888888908 860.0404040404039,144.88888888888908 869.5757575757575,144.88888888888908 879.111111111111,144.88888888888908 888.6464646464647,144.88888888888908" fill="none" stroke="rgba(0,0,255,0.75)" stroke-width="14.159999999999995"/></g><g><polyline data-points="3.989898989898992,3.8888888888888893 4.090909090909092,3.8888888888888893 4.191919191919193,3.8888888888888893 4.292929292929293,3.8888888888888893 4.393939393939394,3.8888888888888893 4.494949494949497,3.8888888888888893 4.595959595959597,3.8888888888888893 4.696969696969697,3.8888888888888893 4.7979797979797985,3.8888888888888893 4.898989898989901,3.8888888888888893 5.000000000000002,3.8888888888888893" data-type="line" data-label="" points="888.6464646464647,144.88888888888908 898.181818181818,144.88888888888908 907.7171717171716,144.88888888888908 917.2525252525251,144.88888888888908 926.7878787878785,144.88888888888908 936.3232323232323,144.88888888888908 945.8585858585857,144.88888888888908 955.3939393939393,144.88888888888908 964.9292929292927,144.88888888888908 974.4646464646464,144.88888888888908 984,144.88888888888908" fill="none" stroke="rgba(255,0,0,0.75)" stroke-width="14.159999999999995"/></g><g><polyline data-points="5.000000000000002,-1.9696969696969693 4.898989898989901,-1.8686868686868683 4.7979797979797985,-1.7676767676767675 4.696969696969697,-1.6666666666666665 4.595959595959597,-1.5656565656565653 4.494949494949497,-1.4646464646464643 4.393939393939394,-1.363636363636363 4.292929292929293,-1.2626262626262625 4.191919191919193,-1.1616161616161613 4.090909090909092,-1.0606060606060603 3.989898989898992,-0.9595959595959596 3.8888888888888893,-0.8585858585858579 3.7878787878787885,-0.7575757575757572 3.6868686868686877,-0.6565656565656557 3.5858585858585874,-0.555555555555555 3.4848484848484866,-0.4545454545454544 3.383838383838384,-0.35353535353535287 3.2828282828282833,-0.2525252525252522 3.181818181818183,-0.2525252525252522 3.080808080808082,-0.2525252525252522 2.9797979797979806,-0.2525252525252522 2.87878787878788,-0.2525252525252522 2.7777777777777786,-0.2525252525252522 2.676767676767678,-0.2525252525252522 2.575757575757577,-0.2525252525252522 2.4747474747474754,-0.2525252525252522 2.373737373737375,-0.2525252525252522 2.2727272727272734,-0.2525252525252522 2.1717171717171726,-0.2525252525252522 2.070707070707072,-0.2525252525252522 1.9696969696969702,-0.2525252525252522 1.8686868686868696,-0.2525252525252522 1.767676767676768,-0.2525252525252522 1.6666666666666674,-0.2525252525252522 1.5656565656565666,-0.2525252525252522 1.4646464646464652,-0.2525252525252522 1.3636363636363644,-0.2525252525252522 1.262626262626263,-0.2525252525252522 1.1616161616161622,-0.2525252525252522 1.0606060606060617,-0.2525252525252522 0.9595959595959602,-0.2525252525252522 0.8585858585858596,-0.2525252525252522 0.7575757575757579,-0.2525252525252522 0.6565656565656574,-0.2525252525252522 0.5555555555555567,-0.2525252525252522 0.4545454545454551,-0.2525252525252522 0.3535353535353544,-0.2525252525252522 0.2525252525252529,-0.2525252525252522 0.1515151515151522,-0.2525252525252522 0.050505050505051545,-0.2525252525252522 -0.05050505050505001,-0.2525252525252522 -0.15151515151515066,-0.2525252525252522 -0.2525252525252522,-0.2525252525252522 -0.35353535353535287,-0.2525252525252522 -0.4545454545454544,-0.2525252525252522 -0.555555555555555,-0.2525252525252522" data-type="line" data-label="" points="984,697.939393939394 974.4646464646464,688.4040404040404 964.9292929292927,678.8686868686868 955.3939393939393,669.3333333333334 945.8585858585857,659.7979797979798 936.3232323232323,650.2626262626263 926.7878787878785,640.7272727272727 917.2525252525251,631.1919191919193 907.7171717171716,621.6565656565657 898.181818181818,612.1212121212121 888.6464646464647,602.5858585858587 879.111111111111,593.0505050505051 869.5757575757575,583.5151515151516 860.0404040404039,573.979797979798 850.5050505050505,564.4444444444445 840.969696969697,554.909090909091 831.4343434343433,545.3737373737374 821.8989898989898,535.838383838384 812.3636363636363,535.838383838384 802.8282828282828,535.838383838384 793.2929292929292,535.838383838384 783.7575757575758,535.838383838384 774.2222222222222,535.838383838384 764.6868686868686,535.838383838384 755.1515151515151,535.838383838384 745.6161616161615,535.838383838384 736.0808080808081,535.838383838384 726.5454545454545,535.838383838384 717.0101010101009,535.838383838384 707.4747474747475,535.838383838384 697.9393939393939,535.838383838384 688.4040404040404,535.838383838384 678.8686868686868,535.838383838384 669.3333333333333,535.838383838384 659.7979797979798,535.838383838384 650.2626262626262,535.838383838384 640.7272727272727,535.838383838384 631.1919191919192,535.838383838384 621.6565656565656,535.838383838384 612.1212121212121,535.838383838384 602.5858585858585,535.838383838384 593.0505050505051,535.838383838384 583.5151515151515,535.838383838384 573.9797979797979,535.838383838384 564.4444444444445,535.838383838384 554.9090909090909,535.838383838384 545.3737373737374,535.838383838384 535.8383838383838,535.838383838384 526.3030303030303,535.838383838384 516.7676767676768,535.838383838384 507.2323232323232,535.838383838384 497.69696969696975,535.838383838384 488.16161616161617,535.838383838384 478.62626262626264,535.838383838384 469.09090909090907,535.838383838384 459.55555555555554,535.838383838384" fill="none" stroke="rgba(255,0,0,0.75)" stroke-width="14.159999999999995"/></g><g><polyline data-points="-0.555555555555555,-0.2525252525252522 -0.6565656565656557,-0.2525252525252522 -0.7575757575757572,-0.2525252525252522 -0.8585858585858579,-0.2525252525252522 -0.9595959595959596,-0.2525252525252522 -1.0606060606060603,-0.2525252525252522 -1.1616161616161613,-0.2525252525252522 -1.2626262626262625,-0.2525252525252522 -1.363636363636363,-0.2525252525252522 -1.4646464646464643,-0.2525252525252522 -1.5656565656565653,-0.2525252525252522 -1.6666666666666665,-0.2525252525252522 -1.7676767676767675,-0.2525252525252522 -1.8686868686868683,-0.2525252525252522 -1.9696969696969693,-0.2525252525252522 -2.07070707070707,-0.2525252525252522 -2.1717171717171713,-0.2525252525252522 -2.2727272727272725,-0.2525252525252522 -2.3737373737373733,-0.2525252525252522 -2.474747474747474,-0.2525252525252522 -2.5757575757575752,-0.2525252525252522 -2.6767676767676765,-0.2525252525252522 -2.7777777777777777,-0.2525252525252522 -2.8787878787878785,-0.2525252525252522 -2.9797979797979792,-0.2525252525252522 -3.0808080808080804,-0.2525252525252522 -3.1818181818181817,-0.2525252525252522 -3.2828282828282824,-0.2525252525252522 -3.383838383838383,-0.2525252525252522 -3.484848484848485,-0.2525252525252522 -3.5858585858585856,-0.2525252525252522 -3.6868686868686864,-0.2525252525252522 -3.7878787878787876,-0.2525252525252522 -3.8888888888888884,-0.2525252525252522 -3.98989898989899,-0.2525252525252522 -4.090909090909091,-0.2525252525252522 -4.191919191919193,-0.2525252525252522 -4.292929292929293,-0.2525252525252522 -4.393939393939394,-0.2525252525252522 -4.494949494949496,-0.2525252525252522 -4.595959595959596,-0.2525252525252522 -4.696969696969697,-0.2525252525252522 -4.7979797979797985,-0.2525252525252522 -4.898989898989899,-0.2525252525252522 -5.000000000000001,-0.2525252525252522" data-type="line" data-label="" points="459.55555555555554,535.838383838384 450.0202020202021,535.838383838384 440.4848484848485,535.838383838384 430.949494949495,535.838383838384 421.4141414141414,535.838383838384 411.8787878787879,535.838383838384 402.34343434343435,535.838383838384 392.80808080808083,535.838383838384 383.2727272727273,535.838383838384 373.7373737373738,535.838383838384 364.2020202020202,535.838383838384 354.6666666666667,535.838383838384 345.13131313131316,535.838383838384 335.59595959595964,535.838383838384 326.0606060606061,535.838383838384 316.5252525252526,535.838383838384 306.9898989898991,535.838383838384 297.4545454545455,535.838383838384 287.91919191919203,535.838383838384 278.38383838383845,535.838383838384 268.84848484848493,535.838383838384 259.3131313131314,535.838383838384 249.77777777777783,535.838383838384 240.2424242424243,535.838383838384 230.70707070707084,535.838383838384 221.17171717171726,535.838383838384 211.63636363636374,535.838383838384 202.10101010101022,535.838383838384 192.5656565656567,535.838383838384 183.03030303030312,535.838383838384 173.4949494949496,535.838383838384 163.95959595959607,535.838383838384 154.42424242424255,535.838383838384 144.88888888888903,535.838383838384 135.35353535353545,535.838383838384 125.81818181818193,535.838383838384 116.28282828282829,535.838383838384 106.74747474747483,535.838383838384 97.21212121212136,535.838383838384 87.67676767676772,535.838383838384 78.14141414141426,535.838383838384 68.60606060606068,535.838383838384 59.07070707070716,535.838383838384 49.53535353535369,535.838383838384 40.00000000000006,535.838383838384" fill="none" stroke="rgba(0,0,255,0.75)" stroke-width="14.159999999999995"/></g><g><polyline data-points="3.080808080808082,-5.000000000000001 2.9797979797979806,-4.898989898989899 2.87878787878788,-4.7979797979797985 2.7777777777777786,-4.696969696969697 2.676767676767678,-4.595959595959596 2.575757575757577,-4.494949494949496 2.4747474747474754,-4.494949494949496 2.373737373737375,-4.494949494949496 2.2727272727272734,-4.494949494949496 2.1717171717171726,-4.494949494949496 2.070707070707072,-4.494949494949496 1.9696969696969702,-4.494949494949496 1.8686868686868696,-4.494949494949496 1.767676767676768,-4.494949494949496 1.6666666666666674,-4.494949494949496 1.5656565656565666,-4.494949494949496 1.4646464646464652,-4.494949494949496 1.3636363636363644,-4.494949494949496 1.262626262626263,-4.494949494949496 1.1616161616161622,-4.494949494949496 1.0606060606060617,-4.494949494949496 0.9595959595959602,-4.494949494949496 0.8585858585858596,-4.494949494949496 0.7575757575757579,-4.494949494949496 0.6565656565656574,-4.494949494949496 0.5555555555555567,-4.494949494949496 0.4545454545454551,-4.494949494949496 0.3535353535353544,-4.494949494949496 0.2525252525252529,-4.494949494949496 0.1515151515151522,-4.494949494949496 0.050505050505051545,-4.494949494949496 -0.05050505050505001,-4.494949494949496 -0.15151515151515066,-4.494949494949496 -0.2525252525252522,-4.494949494949496 -0.35353535353535287,-4.494949494949496 -0.4545454545454544,-4.393939393939394 -0.555555555555555,-4.393939393939394 -0.6565656565656557,-4.292929292929293 -0.7575757575757572,-4.191919191919193 -0.8585858585858579,-4.090909090909091 -0.8585858585858579,-3.98989898989899 -0.8585858585858579,-3.8888888888888884 -0.8585858585858579,-3.7878787878787876 -0.8585858585858579,-3.6868686868686864 -0.8585858585858579,-3.5858585858585856 -0.8585858585858579,-3.484848484848485 -0.8585858585858579,-3.383838383838383 -0.8585858585858579,-3.2828282828282824 -0.8585858585858579,-3.1818181818181817 -0.8585858585858579,-3.0808080808080804 -0.8585858585858579,-2.9797979797979792 -0.8585858585858579,-2.8787878787878785 -0.8585858585858579,-2.7777777777777777 -0.8585858585858579,-2.6767676767676765 -0.8585858585858579,-2.5757575757575752 -0.8585858585858579,-2.474747474747474 -0.8585858585858579,-2.3737373737373733 -0.8585858585858579,-2.2727272727272725 -0.8585858585858579,-2.1717171717171713 -0.8585858585858579,-2.07070707070707 -0.8585858585858579,-1.9696969696969693 -0.8585858585858579,-1.8686868686868683 -0.7575757575757572,-1.7676767676767675 -0.6565656565656557,-1.6666666666666665 -0.555555555555555,-1.5656565656565653" data-type="line" data-label="" points="802.8282828282828,984 793.2929292929292,974.4646464646464 783.7575757575758,964.9292929292928 774.2222222222222,955.3939393939394 764.6868686868686,945.8585858585858 755.1515151515151,936.3232323232323 745.6161616161615,936.3232323232323 736.0808080808081,936.3232323232323 726.5454545454545,936.3232323232323 717.0101010101009,936.3232323232323 707.4747474747475,936.3232323232323 697.9393939393939,936.3232323232323 688.4040404040404,936.3232323232323 678.8686868686868,936.3232323232323 669.3333333333333,936.3232323232323 659.7979797979798,936.3232323232323 650.2626262626262,936.3232323232323 640.7272727272727,936.3232323232323 631.1919191919192,936.3232323232323 621.6565656565656,936.3232323232323 612.1212121212121,936.3232323232323 602.5858585858585,936.3232323232323 593.0505050505051,936.3232323232323 583.5151515151515,936.3232323232323 573.9797979797979,936.3232323232323 564.4444444444445,936.3232323232323 554.9090909090909,936.3232323232323 545.3737373737374,936.3232323232323 535.8383838383838,936.3232323232323 526.3030303030303,936.3232323232323 516.7676767676768,936.3232323232323 507.2323232323232,936.3232323232323 497.69696969696975,936.3232323232323 488.16161616161617,936.3232323232323 478.62626262626264,936.3232323232323 469.09090909090907,926.7878787878788 459.55555555555554,926.7878787878788 450.0202020202021,917.2525252525252 440.4848484848485,907.7171717171718 430.949494949495,898.1818181818181 430.949494949495,888.6464646464647 430.949494949495,879.1111111111111 430.949494949495,869.5757575757575 430.949494949495,860.0404040404039 430.949494949495,850.5050505050505 430.949494949495,840.969696969697 430.949494949495,831.4343434343434 430.949494949495,821.8989898989898 430.949494949495,812.3636363636363 430.949494949495,802.8282828282828 430.949494949495,793.2929292929292 430.949494949495,783.7575757575758 430.949494949495,774.2222222222222 430.949494949495,764.6868686868687 430.949494949495,755.1515151515151 430.949494949495,745.6161616161615 430.949494949495,736.0808080808081 430.949494949495,726.5454545454545 430.949494949495,717.010101010101 430.949494949495,707.4747474747475 430.949494949495,697.939393939394 430.949494949495,688.4040404040404 440.4848484848485,678.8686868686868 450.0202020202021,669.3333333333334 459.55555555555554,659.7979797979798" fill="none" stroke="rgba(255,0,0,0.75)" stroke-width="14.159999999999995"/></g><g><polyline data-points="-0.555555555555555,-1.5656565656565653 -0.6565656565656557,-1.4646464646464643 -0.7575757575757572,-1.363636363636363 -0.8585858585858579,-1.2626262626262625 -0.9595959595959596,-1.1616161616161613 -1.0606060606060603,-1.0606060606060603 -1.1616161616161613,-0.9595959595959596 -1.2626262626262625,-0.8585858585858579 -1.363636363636363,-0.8585858585858579 -1.4646464646464643,-0.8585858585858579 -1.5656565656565653,-0.8585858585858579 -1.6666666666666665,-0.8585858585858579 -1.7676767676767675,-0.8585858585858579" data-type="line" data-label="" points="459.55555555555554,659.7979797979798 450.0202020202021,650.2626262626263 440.4848484848485,640.7272727272727 430.949494949495,631.1919191919193 421.4141414141414,621.6565656565657 411.8787878787879,612.1212121212121 402.34343434343435,602.5858585858587 392.80808080808083,593.0505050505051 383.2727272727273,593.0505050505051 373.7373737373738,593.0505050505051 364.2020202020202,593.0505050505051 354.6666666666667,593.0505050505051 345.13131313131316,593.0505050505051" fill="none" stroke="rgba(0,0,255,0.75)" stroke-width="14.159999999999995"/></g><g><polyline data-points="-1.7676767676767675,-0.8585858585858579 -1.8686868686868683,-0.7575757575757572 -1.9696969696969693,-0.6565656565656557 -2.07070707070707,-0.555555555555555 -2.1717171717171713,-0.4545454545454544 -2.2727272727272725,-0.35353535353535287 -2.3737373737373733,-0.2525252525252522 -2.474747474747474,-0.15151515151515066 -2.474747474747474,-0.05050505050505001 -2.474747474747474,0.050505050505051545 -2.474747474747474,0.1515151515151522 -2.474747474747474,0.2525252525252529 -2.474747474747474,0.3535353535353544" data-type="line" data-label="" points="345.13131313131316,593.0505050505051 335.59595959595964,583.5151515151516 326.0606060606061,573.979797979798 316.5252525252526,564.4444444444445 306.9898989898991,554.909090909091 297.4545454545455,545.3737373737374 287.91919191919203,535.838383838384 278.38383838383845,526.3030303030304 278.38383838383845,516.7676767676768 278.38383838383845,507.23232323232327 278.38383838383845,497.69696969696975 278.38383838383845,488.1616161616163 278.38383838383845,478.6262626262627" fill="none" stroke="rgba(255,0,0,0.75)" stroke-width="14.159999999999995"/></g><g><polyline data-points="-2.474747474747474,0.3535353535353544 -2.5757575757575752,0.4545454545454551 -2.6767676767676765,0.5555555555555567 -2.7777777777777777,0.6565656565656574 -2.8787878787878785,0.7575757575757579 -2.9797979797979792,0.8585858585858596 -3.0808080808080804,0.9595959595959602 -3.1818181818181817,1.0606060606060617 -3.2828282828282824,1.1616161616161622 -3.383838383838383,1.262626262626263 -3.484848484848485,1.3636363636363644 -3.5858585858585856,1.4646464646464652 -3.6868686868686864,1.5656565656565666 -3.7878787878787876,1.6666666666666674 -3.8888888888888884,1.767676767676768 -3.98989898989899,1.8686868686868696 -3.98989898989899,1.9696969696969702 -3.98989898989899,2.070707070707072 -3.98989898989899,2.1717171717171726 -3.98989898989899,2.2727272727272734 -3.98989898989899,2.373737373737375 -3.98989898989899,2.4747474747474754 -3.98989898989899,2.575757575757577 -3.98989898989899,2.676767676767678 -3.98989898989899,2.7777777777777786 -3.98989898989899,2.87878787878788 -3.98989898989899,2.9797979797979806 -3.98989898989899,3.080808080808082 -3.98989898989899,3.181818181818183 -3.98989898989899,3.2828282828282833" data-type="line" data-label="" points="278.38383838383845,478.6262626262627 268.84848484848493,469.0909090909092 259.3131313131314,459.5555555555556 249.77777777777783,450.0202020202021 240.2424242424243,440.4848484848486 230.70707070707084,430.94949494949503 221.17171717171726,421.4141414141415 211.63636363636374,411.87878787878793 202.10101010101022,402.3434343434344 192.5656565656567,392.80808080808094 183.03030303030312,383.27272727272737 173.4949494949496,373.73737373737384 163.95959595959607,364.2020202020203 154.42424242424255,354.66666666666674 144.88888888888903,345.1313131313133 135.35353535353545,335.5959595959597 135.35353535353545,326.06060606060623 135.35353535353545,316.5252525252526 135.35353535353545,306.9898989898991 135.35353535353545,297.4545454545456 135.35353535353545,287.91919191919203 135.35353535353545,278.38383838383857 135.35353535353545,268.84848484848493 135.35353535353545,259.3131313131314 135.35353535353545,249.77777777777794 135.35353535353545,240.24242424242436 135.35353535353545,230.70707070707084 135.35353535353545,221.17171717171726 135.35353535353545,211.63636363636374 135.35353535353545,202.10101010101027" fill="none" stroke="rgba(0,0,255,0.75)" stroke-width="14.159999999999995"/></g><g><polyline data-points="-3.98989898989899,3.2828282828282833 -4.090909090909091,3.383838383838384 -4.191919191919193,3.4848484848484866 -4.292929292929293,3.5858585858585874 -4.393939393939394,3.6868686868686877 -4.494949494949496,3.7878787878787885 -4.595959595959596,3.8888888888888893 -4.595959595959596,3.989898989898992 -4.595959595959596,4.090909090909092 -4.595959595959596,4.191919191919193 -4.595959595959596,4.292929292929293 -4.595959595959596,4.393939393939394 -4.595959595959596,4.494949494949497 -4.595959595959596,4.595959595959597 -4.595959595959596,4.696969696969697 -4.595959595959596,4.7979797979797985 -4.595959595959596,4.898989898989901 -4.595959595959596,5.000000000000002" data-type="line" data-label="" points="135.35353535353545,202.10101010101027 125.81818181818193,192.56565656565675 116.28282828282829,183.03030303030312 106.74747474747483,173.4949494949496 97.21212121212136,163.95959595959613 87.67676767676772,154.4242424242426 78.14141414141426,144.88888888888908 78.14141414141426,135.35353535353545 78.14141414141426,125.81818181818198 78.14141414141426,116.28282828282846 78.14141414141426,106.747474747475 78.14141414141426,97.21212121212153 78.14141414141426,87.67676767676778 78.14141414141426,78.14141414141432 78.14141414141426,68.60606060606085 78.14141414141426,59.07070707070733 78.14141414141426,49.53535353535369 78.14141414141426,40.000000000000114" fill="none" stroke="rgba(255,0,0,0.75)" stroke-width="14.159999999999995"/></g><g><polyline data-points="1.262626262626263,5.000000000000002 1.3636363636363644,4.898989898989901 1.4646464646464652,4.7979797979797985 1.5656565656565666,4.696969696969697 1.6666666666666674,4.595959595959597 1.767676767676768,4.595959595959597 1.8686868686868696,4.595959595959597 1.9696969696969702,4.595959595959597 2.070707070707072,4.595959595959597 2.1717171717171726,4.595959595959597 2.2727272727272734,4.595959595959597 2.373737373737375,4.595959595959597 2.4747474747474754,4.595959595959597 2.575757575757577,4.494949494949497 2.676767676767678,4.494949494949497 2.7777777777777786,4.494949494949497 2.87878787878788,4.494949494949497 2.9797979797979806,4.393939393939394 3.080808080808082,4.393939393939394 3.181818181818183,4.393939393939394 3.2828282828282833,4.393939393939394 3.383838383838384,4.393939393939394 3.4848484848484866,4.393939393939394 3.5858585858585874,4.393939393939394 3.6868686868686877,4.393939393939394 3.7878787878787885,4.393939393939394 3.8888888888888893,4.393939393939394 3.989898989898992,4.393939393939394 4.090909090909092,4.292929292929293 4.191919191919193,4.292929292929293 4.292929292929293,4.191919191919193 4.393939393939394,4.090909090909092 4.393939393939394,3.989898989898992 4.494949494949497,3.8888888888888893 4.393939393939394,3.7878787878787885 4.393939393939394,3.6868686868686877 4.292929292929293,3.5858585858585874 4.191919191919193,3.4848484848484866 4.090909090909092,3.383838383838384 3.989898989898992,3.2828282828282833 3.8888888888888893,3.181818181818183 3.7878787878787885,3.080808080808082 3.6868686868686877,2.9797979797979806 3.5858585858585874,2.87878787878788 3.4848484848484866,2.7777777777777786 3.383838383838384,2.676767676767678 3.2828282828282833,2.575757575757577 3.181818181818183,2.4747474747474754 3.080808080808082,2.373737373737375 2.9797979797979806,2.2727272727272734 2.87878787878788,2.1717171717171726 2.7777777777777786,2.070707070707072 2.676767676767678,1.9696969696969702 2.575757575757577,1.8686868686868696 2.4747474747474754,1.767676767676768 2.373737373737375,1.6666666666666674 2.2727272727272734,1.5656565656565666 2.1717171717171726,1.4646464646464652 2.070707070707072,1.3636363636363644 1.9696969696969702,1.262626262626263 1.8686868686868696,1.1616161616161622 1.767676767676768,1.0606060606060617 1.6666666666666674,0.9595959595959602 1.5656565656565666,0.8585858585858596 1.4646464646464652,0.7575757575757579 1.3636363636363644,0.6565656565656574 1.262626262626263,0.5555555555555567 1.1616161616161622,0.4545454545454551 1.0606060606060617,0.3535353535353544 0.9595959595959602,0.2525252525252529 0.8585858585858596,0.1515151515151522 0.7575757575757579,0.050505050505051545 0.6565656565656574,-0.05050505050505001 0.5555555555555567,-0.15151515151515066 0.4545454545454551,-0.2525252525252522 0.4545454545454551,-0.35353535353535287 0.4545454545454551,-0.4545454545454544 0.4545454545454551,-0.555555555555555 0.4545454545454551,-0.6565656565656557 0.4545454545454551,-0.7575757575757572 0.4545454545454551,-0.8585858585858579 0.4545454545454551,-0.9595959595959596 0.4545454545454551,-1.0606060606060603 0.4545454545454551,-1.1616161616161613 0.4545454545454551,-1.2626262626262625 0.4545454545454551,-1.363636363636363 0.4545454545454551,-1.4646464646464643 0.4545454545454551,-1.5656565656565653 0.4545454545454551,-1.6666666666666665 0.4545454545454551,-1.7676767676767675 0.4545454545454551,-1.8686868686868683 0.4545454545454551,-1.9696969696969693 0.4545454545454551,-2.07070707070707 0.4545454545454551,-2.1717171717171713 0.4545454545454551,-2.2727272727272725 0.4545454545454551,-2.3737373737373733 0.4545454545454551,-2.474747474747474 0.4545454545454551,-2.5757575757575752 0.4545454545454551,-2.6767676767676765 0.4545454545454551,-2.7777777777777777 0.4545454545454551,-2.8787878787878785 0.4545454545454551,-2.9797979797979792 0.4545454545454551,-3.0808080808080804 0.4545454545454551,-3.1818181818181817 0.4545454545454551,-3.2828282828282824 0.4545454545454551,-3.383838383838383 0.4545454545454551,-3.484848484848485 0.4545454545454551,-3.5858585858585856 0.4545454545454551,-3.6868686868686864 0.4545454545454551,-3.7878787878787876 0.4545454545454551,-3.8888888888888884 0.4545454545454551,-3.98989898989899 0.4545454545454551,-4.090909090909091 0.4545454545454551,-4.191919191919193 0.4545454545454551,-4.292929292929293 0.4545454545454551,-4.393939393939394 0.4545454545454551,-4.494949494949496 0.4545454545454551,-4.595959595959596 0.4545454545454551,-4.696969696969697 0.4545454545454551,-4.7979797979797985 0.4545454545454551,-4.898989898989899 0.4545454545454551,-5.000000000000001" data-type="line" data-label="" points="631.1919191919192,40.000000000000114 640.7272727272727,49.53535353535369 650.2626262626262,59.07070707070733 659.7979797979798,68.60606060606085 669.3333333333333,78.14141414141432 678.8686868686868,78.14141414141432 688.4040404040404,78.14141414141432 697.9393939393939,78.14141414141432 707.4747474747475,78.14141414141432 717.0101010101009,78.14141414141432 726.5454545454545,78.14141414141432 736.0808080808081,78.14141414141432 745.6161616161615,78.14141414141432 755.1515151515151,87.67676767676778 764.6868686868686,87.67676767676778 774.2222222222222,87.67676767676778 783.7575757575758,87.67676767676778 793.2929292929292,97.21212121212153 802.8282828282828,97.21212121212153 812.3636363636363,97.21212121212153 821.8989898989898,97.21212121212153 831.4343434343433,97.21212121212153 840.969696969697,97.21212121212153 850.5050505050505,97.21212121212153 860.0404040404039,97.21212121212153 869.5757575757575,97.21212121212153 879.111111111111,97.21212121212153 888.6464646464647,97.21212121212153 898.181818181818,106.747474747475 907.7171717171716,106.747474747475 917.2525252525251,116.28282828282846 926.7878787878785,125.81818181818198 926.7878787878785,135.35353535353545 936.3232323232323,144.88888888888908 926.7878787878785,154.4242424242426 926.7878787878785,163.95959595959613 917.2525252525251,173.4949494949496 907.7171717171716,183.03030303030312 898.181818181818,192.56565656565675 888.6464646464647,202.10101010101027 879.111111111111,211.63636363636374 869.5757575757575,221.17171717171726 860.0404040404039,230.70707070707084 850.5050505050505,240.24242424242436 840.969696969697,249.77777777777794 831.4343434343433,259.3131313131314 821.8989898989898,268.84848484848493 812.3636363636363,278.38383838383857 802.8282828282828,287.91919191919203 793.2929292929292,297.4545454545456 783.7575757575758,306.9898989898991 774.2222222222222,316.5252525252526 764.6868686868686,326.06060606060623 755.1515151515151,335.5959595959597 745.6161616161615,345.1313131313133 736.0808080808081,354.66666666666674 726.5454545454545,364.2020202020203 717.0101010101009,373.73737373737384 707.4747474747475,383.27272727272737 697.9393939393939,392.80808080808094 688.4040404040404,402.3434343434344 678.8686868686868,411.87878787878793 669.3333333333333,421.4141414141415 659.7979797979798,430.94949494949503 650.2626262626262,440.4848484848486 640.7272727272727,450.0202020202021 631.1919191919192,459.5555555555556 621.6565656565656,469.0909090909092 612.1212121212121,478.6262626262627 602.5858585858585,488.1616161616163 593.0505050505051,497.69696969696975 583.5151515151515,507.23232323232327 573.9797979797979,516.7676767676768 564.4444444444445,526.3030303030304 554.9090909090909,535.838383838384 554.9090909090909,545.3737373737374 554.9090909090909,554.909090909091 554.9090909090909,564.4444444444445 554.9090909090909,573.979797979798 554.9090909090909,583.5151515151516 554.9090909090909,593.0505050505051 554.9090909090909,602.5858585858587 554.9090909090909,612.1212121212121 554.9090909090909,621.6565656565657 554.9090909090909,631.1919191919193 554.9090909090909,640.7272727272727 554.9090909090909,650.2626262626263 554.9090909090909,659.7979797979798 554.9090909090909,669.3333333333334 554.9090909090909,678.8686868686868 554.9090909090909,688.4040404040404 554.9090909090909,697.939393939394 554.9090909090909,707.4747474747475 554.9090909090909,717.010101010101 554.9090909090909,726.5454545454545 554.9090909090909,736.0808080808081 554.9090909090909,745.6161616161615 554.9090909090909,755.1515151515151 554.9090909090909,764.6868686868687 554.9090909090909,774.2222222222222 554.9090909090909,783.7575757575758 554.9090909090909,793.2929292929292 554.9090909090909,802.8282828282828 554.9090909090909,812.3636363636363 554.9090909090909,821.8989898989898 554.9090909090909,831.4343434343434 554.9090909090909,840.969696969697 554.9090909090909,850.5050505050505 554.9090909090909,860.0404040404039 554.9090909090909,869.5757575757575 554.9090909090909,879.1111111111111 554.9090909090909,888.6464646464647 554.9090909090909,898.1818181818181 554.9090909090909,907.7171717171718 554.9090909090909,917.2525252525252 554.9090909090909,926.7878787878788 554.9090909090909,936.3232323232323 554.9090909090909,945.8585858585858 554.9090909090909,955.3939393939394 554.9090909090909,964.9292929292928 554.9090909090909,974.4646464646464 554.9090909090909,984" fill="none" stroke="rgba(0,0,255,0.75)" stroke-width="14.159999999999995"/></g><g><polyline data-points="2.1717171717171726,-5.000000000000001 2.070707070707072,-4.898989898989899 1.9696969696969702,-4.7979797979797985 1.8686868686868696,-4.696969696969697 1.767676767676768,-4.595959595959596 1.6666666666666674,-4.494949494949496 1.5656565656565666,-4.393939393939394 1.4646464646464652,-4.292929292929293 1.3636363636363644,-4.191919191919193 1.262626262626263,-4.090909090909091 1.1616161616161622,-3.98989898989899 1.0606060606060617,-3.8888888888888884 1.0606060606060617,-3.7878787878787876 1.0606060606060617,-3.6868686868686864" data-type="line" data-label="" points="717.0101010101009,984 707.4747474747475,974.4646464646464 697.9393939393939,964.9292929292928 688.4040404040404,955.3939393939394 678.8686868686868,945.8585858585858 669.3333333333333,936.3232323232323 659.7979797979798,926.7878787878788 650.2626262626262,917.2525252525252 640.7272727272727,907.7171717171718 631.1919191919192,898.1818181818181 621.6565656565656,888.6464646464647 612.1212121212121,879.1111111111111 612.1212121212121,869.5757575757575 612.1212121212121,860.0404040404039" fill="none" stroke="rgba(0,0,255,0.75)" stroke-width="14.159999999999995"/></g><g><polyline data-points="1.0606060606060617,-3.6868686868686864 0.9595959595959602,-3.6868686868686864 0.8585858585858596,-3.6868686868686864 0.7575757575757579,-3.6868686868686864 0.6565656565656574,-3.6868686868686864 0.5555555555555567,-3.6868686868686864 0.4545454545454551,-3.6868686868686864 0.3535353535353544,-3.6868686868686864 0.2525252525252529,-3.5858585858585856 0.1515151515151522,-3.484848484848485 0.050505050505051545,-3.383838383838383 -0.05050505050505001,-3.2828282828282824 -0.15151515151515066,-3.1818181818181817" data-type="line" data-label="" points="612.1212121212121,860.0404040404039 602.5858585858585,860.0404040404039 593.0505050505051,860.0404040404039 583.5151515151515,860.0404040404039 573.9797979797979,860.0404040404039 564.4444444444445,860.0404040404039 554.9090909090909,860.0404040404039 545.3737373737374,860.0404040404039 535.8383838383838,850.5050505050505 526.3030303030303,840.969696969697 516.7676767676768,831.4343434343434 507.2323232323232,821.8989898989898 497.69696969696975,812.3636363636363" fill="none" stroke="rgba(255,0,0,0.75)" stroke-width="14.159999999999995"/></g><g><polyline data-points="-0.15151515151515066,-3.1818181818181817 -0.2525252525252522,-3.2828282828282824 -0.35353535353535287,-3.383838383838383 -0.4545454545454544,-3.484848484848485 -0.555555555555555,-3.5858585858585856 -0.6565656565656557,-3.6868686868686864 -0.7575757575757572,-3.7878787878787876 -0.8585858585858579,-3.8888888888888884 -0.9595959595959596,-3.98989898989899 -1.0606060606060603,-4.090909090909091 -1.1616161616161613,-4.191919191919193 -1.2626262626262625,-4.292929292929293 -1.363636363636363,-4.292929292929293 -1.4646464646464643,-4.292929292929293 -1.5656565656565653,-4.292929292929293 -1.6666666666666665,-4.292929292929293 -1.7676767676767675,-4.292929292929293 -1.8686868686868683,-4.292929292929293 -1.9696969696969693,-4.292929292929293 -2.07070707070707,-4.292929292929293 -2.1717171717171713,-4.292929292929293 -2.2727272727272725,-4.292929292929293 -2.3737373737373733,-4.292929292929293 -2.474747474747474,-4.292929292929293 -2.5757575757575752,-4.292929292929293 -2.6767676767676765,-4.292929292929293 -2.7777777777777777,-4.292929292929293 -2.8787878787878785,-4.292929292929293 -2.9797979797979792,-4.292929292929293 -3.0808080808080804,-4.292929292929293 -3.1818181818181817,-4.292929292929293 -3.2828282828282824,-4.292929292929293 -3.383838383838383,-4.292929292929293 -3.484848484848485,-4.292929292929293 -3.5858585858585856,-4.292929292929293 -3.6868686868686864,-4.292929292929293 -3.7878787878787876,-4.292929292929293 -3.8888888888888884,-4.292929292929293 -3.98989898989899,-4.292929292929293 -4.090909090909091,-4.292929292929293 -4.191919191919193,-4.292929292929293 -4.292929292929293,-4.292929292929293 -4.393939393939394,-4.292929292929293 -4.494949494949496,-4.292929292929293 -4.595959595959596,-4.292929292929293 -4.696969696969697,-4.292929292929293 -4.7979797979797985,-4.292929292929293 -4.898989898989899,-4.292929292929293 -5.000000000000001,-4.292929292929293" data-type="line" data-label="" points="497.69696969696975,812.3636363636363 488.16161616161617,821.8989898989898 478.62626262626264,831.4343434343434 469.09090909090907,840.969696969697 459.55555555555554,850.5050505050505 450.0202020202021,860.0404040404039 440.4848484848485,869.5757575757575 430.949494949495,879.1111111111111 421.4141414141414,888.6464646464647 411.8787878787879,898.1818181818181 402.34343434343435,907.7171717171718 392.80808080808083,917.2525252525252 383.2727272727273,917.2525252525252 373.7373737373738,917.2525252525252 364.2020202020202,917.2525252525252 354.6666666666667,917.2525252525252 345.13131313131316,917.2525252525252 335.59595959595964,917.2525252525252 326.0606060606061,917.2525252525252 316.5252525252526,917.2525252525252 306.9898989898991,917.2525252525252 297.4545454545455,917.2525252525252 287.91919191919203,917.2525252525252 278.38383838383845,917.2525252525252 268.84848484848493,917.2525252525252 259.3131313131314,917.2525252525252 249.77777777777783,917.2525252525252 240.2424242424243,917.2525252525252 230.70707070707084,917.2525252525252 221.17171717171726,917.2525252525252 211.63636363636374,917.2525252525252 202.10101010101022,917.2525252525252 192.5656565656567,917.2525252525252 183.03030303030312,917.2525252525252 173.4949494949496,917.2525252525252 163.95959595959607,917.2525252525252 154.42424242424255,917.2525252525252 144.88888888888903,917.2525252525252 135.35353535353545,917.2525252525252 125.81818181818193,917.2525252525252 116.28282828282829,917.2525252525252 106.74747474747483,917.2525252525252 97.21212121212136,917.2525252525252 87.67676767676772,917.2525252525252 78.14141414141426,917.2525252525252 68.60606060606068,917.2525252525252 59.07070707070716,917.2525252525252 49.53535353535369,917.2525252525252 40.00000000000006,917.2525252525252" fill="none" stroke="rgba(0,0,255,0.75)" stroke-width="14.159999999999995"/></g><g><polyline data-points="5.000000000000002,4.898989898989901 4.898989898989901,4.7979797979797985 4.7979797979797985,4.696969696969697 4.696969696969697,4.595959595959597 4.696969696969697,4.494949494949497 4.696969696969697,4.393939393939394 4.696969696969697,4.292929292929293 4.696969696969697,4.191919191919193 4.696969696969697,4.090909090909092 4.696969696969697,3.989898989898992 4.696969696969697,3.8888888888888893 4.696969696969697,3.7878787878787885 4.595959595959597,3.6868686868686877 4.595959595959597,3.5858585858585874 4.494949494949497,3.4848484848484866 4.393939393939394,3.383838383838384 4.292929292929293,3.2828282828282833 4.191919191919193,3.181818181818183 4.090909090909092,3.080808080808082 3.989898989898992,2.9797979797979806 3.989898989898992,2.87878787878788 3.989898989898992,2.7777777777777786 3.989898989898992,2.676767676767678 3.989898989898992,2.575757575757577 3.989898989898992,2.4747474747474754" data-type="line" data-label="" points="984,49.53535353535369 974.4646464646464,59.07070707070733 964.9292929292927,68.60606060606085 955.3939393939393,78.14141414141432 955.3939393939393,87.67676767676778 955.3939393939393,97.21212121212153 955.3939393939393,106.747474747475 955.3939393939393,116.28282828282846 955.3939393939393,125.81818181818198 955.3939393939393,135.35353535353545 955.3939393939393,144.88888888888908 955.3939393939393,154.4242424242426 945.8585858585857,163.95959595959613 945.8585858585857,173.4949494949496 936.3232323232323,183.03030303030312 926.7878787878785,192.56565656565675 917.2525252525251,202.10101010101027 907.7171717171716,211.63636363636374 898.181818181818,221.17171717171726 888.6464646464647,230.70707070707084 888.6464646464647,240.24242424242436 888.6464646464647,249.77777777777794 888.6464646464647,259.3131313131314 888.6464646464647,268.84848484848493 888.6464646464647,278.38383838383857" fill="none" stroke="rgba(0,0,255,0.75)" stroke-width="14.159999999999995"/></g><g><polyline data-points="3.989898989898992,2.4747474747474754 3.8888888888888893,2.575757575757577 3.7878787878787885,2.575757575757577 3.6868686868686877,2.575757575757577 3.5858585858585874,2.575757575757577 3.4848484848484866,2.575757575757577 3.383838383838384,2.575757575757577 3.2828282828282833,2.575757575757577 3.181818181818183,2.575757575757577 3.080808080808082,2.575757575757577 2.9797979797979806,2.575757575757577 2.87878787878788,2.575757575757577 2.7777777777777786,2.575757575757577 2.676767676767678,2.575757575757577 2.575757575757577,2.575757575757577 2.4747474747474754,2.575757575757577 2.373737373737375,2.575757575757577 2.2727272727272734,2.575757575757577 2.1717171717171726,2.575757575757577 2.070707070707072,2.575757575757577 1.9696969696969702,2.575757575757577 1.8686868686868696,2.575757575757577 1.767676767676768,2.575757575757577 1.6666666666666674,2.575757575757577 1.5656565656565666,2.575757575757577 1.4646464646464652,2.575757575757577 1.3636363636363644,2.575757575757577 1.262626262626263,2.575757575757577 1.1616161616161622,2.575757575757577 1.0606060606060617,2.575757575757577 0.9595959595959602,2.575757575757577 0.8585858585858596,2.575757575757577 0.7575757575757579,2.575757575757577 0.6565656565656574,2.575757575757577 0.5555555555555567,2.575757575757577 0.4545454545454551,2.575757575757577 0.3535353535353544,2.575757575757577 0.2525252525252529,2.575757575757577 0.1515151515151522,2.575757575757577 0.050505050505051545,2.575757575757577 -0.05050505050505001,2.575757575757577 -0.15151515151515066,2.575757575757577 -0.2525252525252522,2.575757575757577 -0.35353535353535287,2.575757575757577 -0.4545454545454544,2.575757575757577 -0.555555555555555,2.575757575757577" data-type="line" data-label="" points="888.6464646464647,278.38383838383857 879.111111111111,268.84848484848493 869.5757575757575,268.84848484848493 860.0404040404039,268.84848484848493 850.5050505050505,268.84848484848493 840.969696969697,268.84848484848493 831.4343434343433,268.84848484848493 821.8989898989898,268.84848484848493 812.3636363636363,268.84848484848493 802.8282828282828,268.84848484848493 793.2929292929292,268.84848484848493 783.7575757575758,268.84848484848493 774.2222222222222,268.84848484848493 764.6868686868686,268.84848484848493 755.1515151515151,268.84848484848493 745.6161616161615,268.84848484848493 736.0808080808081,268.84848484848493 726.5454545454545,268.84848484848493 717.0101010101009,268.84848484848493 707.4747474747475,268.84848484848493 697.9393939393939,268.84848484848493 688.4040404040404,268.84848484848493 678.8686868686868,268.84848484848493 669.3333333333333,268.84848484848493 659.7979797979798,268.84848484848493 650.2626262626262,268.84848484848493 640.7272727272727,268.84848484848493 631.1919191919192,268.84848484848493 621.6565656565656,268.84848484848493 612.1212121212121,268.84848484848493 602.5858585858585,268.84848484848493 593.0505050505051,268.84848484848493 583.5151515151515,268.84848484848493 573.9797979797979,268.84848484848493 564.4444444444445,268.84848484848493 554.9090909090909,268.84848484848493 545.3737373737374,268.84848484848493 535.8383838383838,268.84848484848493 526.3030303030303,268.84848484848493 516.7676767676768,268.84848484848493 507.2323232323232,268.84848484848493 497.69696969696975,268.84848484848493 488.16161616161617,268.84848484848493 478.62626262626264,268.84848484848493 469.09090909090907,268.84848484848493 459.55555555555554,268.84848484848493" fill="none" stroke="rgba(255,0,0,0.75)" stroke-width="14.159999999999995"/></g><g><polyline data-points="-0.555555555555555,2.575757575757577 -0.6565656565656557,2.575757575757577 -0.7575757575757572,2.575757575757577 -0.8585858585858579,2.575757575757577 -0.9595959595959596,2.575757575757577 -1.0606060606060603,2.575757575757577 -1.1616161616161613,2.575757575757577 -1.2626262626262625,2.575757575757577 -1.363636363636363,2.575757575757577 -1.4646464646464643,2.575757575757577 -1.5656565656565653,2.575757575757577 -1.6666666666666665,2.575757575757577 -1.7676767676767675,2.575757575757577 -1.8686868686868683,2.676767676767678 -1.9696969696969693,2.676767676767678 -2.07070707070707,2.7777777777777786 -2.1717171717171713,2.7777777777777786 -2.2727272727272725,2.7777777777777786 -2.3737373737373733,2.7777777777777786 -2.474747474747474,2.7777777777777786 -2.5757575757575752,2.7777777777777786 -2.6767676767676765,2.7777777777777786 -2.7777777777777777,2.7777777777777786 -2.8787878787878785,2.7777777777777786 -2.9797979797979792,2.7777777777777786 -3.0808080808080804,2.7777777777777786 -3.1818181818181817,2.7777777777777786 -3.2828282828282824,2.7777777777777786 -3.383838383838383,2.7777777777777786" data-type="line" data-label="" points="459.55555555555554,268.84848484848493 450.0202020202021,268.84848484848493 440.4848484848485,268.84848484848493 430.949494949495,268.84848484848493 421.4141414141414,268.84848484848493 411.8787878787879,268.84848484848493 402.34343434343435,268.84848484848493 392.80808080808083,268.84848484848493 383.2727272727273,268.84848484848493 373.7373737373738,268.84848484848493 364.2020202020202,268.84848484848493 354.6666666666667,268.84848484848493 345.13131313131316,268.84848484848493 335.59595959595964,259.3131313131314 326.0606060606061,259.3131313131314 316.5252525252526,249.77777777777794 306.9898989898991,249.77777777777794 297.4545454545455,249.77777777777794 287.91919191919203,249.77777777777794 278.38383838383845,249.77777777777794 268.84848484848493,249.77777777777794 259.3131313131314,249.77777777777794 249.77777777777783,249.77777777777794 240.2424242424243,249.77777777777794 230.70707070707084,249.77777777777794 221.17171717171726,249.77777777777794 211.63636363636374,249.77777777777794 202.10101010101022,249.77777777777794 192.5656565656567,249.77777777777794" fill="none" stroke="rgba(0,0,255,0.75)" stroke-width="14.159999999999995"/></g><g><polyline data-points="-3.383838383838383,2.7777777777777786 -3.484848484848485,2.7777777777777786 -3.5858585858585856,2.7777777777777786 -3.6868686868686864,2.7777777777777786 -3.7878787878787876,2.7777777777777786 -3.8888888888888884,2.7777777777777786 -3.98989898989899,2.7777777777777786 -4.090909090909091,2.87878787878788 -4.191919191919193,2.87878787878788 -4.292929292929293,2.9797979797979806 -4.393939393939394,3.080808080808082 -4.494949494949496,3.181818181818183 -4.595959595959596,3.2828282828282833 -4.696969696969697,3.383838383838384 -4.7979797979797985,3.4848484848484866 -4.898989898989899,3.5858585858585874 -5.000000000000001,3.6868686868686877 -5.000000000000001,3.7878787878787885 -5.000000000000001,3.8888888888888893 -5.000000000000001,3.989898989898992 -5.000000000000001,4.090909090909092 -5.000000000000001,4.191919191919193 -5.000000000000001,4.292929292929293" data-type="line" data-label="" points="192.5656565656567,249.77777777777794 183.03030303030312,249.77777777777794 173.4949494949496,249.77777777777794 163.95959595959607,249.77777777777794 154.42424242424255,249.77777777777794 144.88888888888903,249.77777777777794 135.35353535353545,249.77777777777794 125.81818181818193,240.24242424242436 116.28282828282829,240.24242424242436 106.74747474747483,230.70707070707084 97.21212121212136,221.17171717171726 87.67676767676772,211.63636363636374 78.14141414141426,202.10101010101027 68.60606060606068,192.56565656565675 59.07070707070716,183.03030303030312 49.53535353535369,173.4949494949496 40.00000000000006,163.95959595959613 40.00000000000006,154.4242424242426 40.00000000000006,144.88888888888908 40.00000000000006,135.35353535353545 40.00000000000006,125.81818181818198 40.00000000000006,116.28282828282846 40.00000000000006,106.747474747475" fill="none" stroke="rgba(255,0,0,0.75)" stroke-width="14.159999999999995"/></g><g><polyline data-points="-5.000000000000001,-2.6767676767676765 -4.898989898989899,-2.5757575757575752 -4.7979797979797985,-2.474747474747474 -4.696969696969697,-2.3737373737373733 -4.595959595959596,-2.2727272727272725 -4.494949494949496,-2.2727272727272725 -4.393939393939394,-2.2727272727272725 -4.292929292929293,-2.2727272727272725 -4.191919191919193,-2.2727272727272725 -4.090909090909091,-2.2727272727272725 -3.98989898989899,-2.2727272727272725 -3.8888888888888884,-2.2727272727272725 -3.7878787878787876,-2.2727272727272725 -3.6868686868686864,-2.2727272727272725 -3.5858585858585856,-2.2727272727272725 -3.484848484848485,-2.2727272727272725 -3.383838383838383,-2.2727272727272725 -3.2828282828282824,-2.2727272727272725 -3.1818181818181817,-2.2727272727272725 -3.0808080808080804,-2.2727272727272725 -2.9797979797979792,-2.2727272727272725 -2.8787878787878785,-2.2727272727272725 -2.7777777777777777,-2.2727272727272725 -2.6767676767676765,-2.2727272727272725 -2.5757575757575752,-2.2727272727272725 -2.474747474747474,-2.2727272727272725 -2.3737373737373733,-2.2727272727272725 -2.2727272727272725,-2.2727272727272725 -2.1717171717171713,-2.2727272727272725 -2.07070707070707,-2.2727272727272725 -1.9696969696969693,-2.2727272727272725 -1.8686868686868683,-2.2727272727272725 -1.7676767676767675,-2.2727272727272725" data-type="line" data-label="" points="40.00000000000006,764.6868686868687 49.53535353535369,755.1515151515151 59.07070707070716,745.6161616161615 68.60606060606068,736.0808080808081 78.14141414141426,726.5454545454545 87.67676767676772,726.5454545454545 97.21212121212136,726.5454545454545 106.74747474747483,726.5454545454545 116.28282828282829,726.5454545454545 125.81818181818193,726.5454545454545 135.35353535353545,726.5454545454545 144.88888888888903,726.5454545454545 154.42424242424255,726.5454545454545 163.95959595959607,726.5454545454545 173.4949494949496,726.5454545454545 183.03030303030312,726.5454545454545 192.5656565656567,726.5454545454545 202.10101010101022,726.5454545454545 211.63636363636374,726.5454545454545 221.17171717171726,726.5454545454545 230.70707070707084,726.5454545454545 240.2424242424243,726.5454545454545 249.77777777777783,726.5454545454545 259.3131313131314,726.5454545454545 268.84848484848493,726.5454545454545 278.38383838383845,726.5454545454545 287.91919191919203,726.5454545454545 297.4545454545455,726.5454545454545 306.9898989898991,726.5454545454545 316.5252525252526,726.5454545454545 326.0606060606061,726.5454545454545 335.59595959595964,726.5454545454545 345.13131313131316,726.5454545454545" fill="none" stroke="rgba(255,0,0,0.75)" stroke-width="14.159999999999995"/></g><g><polyline data-points="-1.7676767676767675,-2.2727272727272725 -1.6666666666666665,-2.2727272727272725 -1.5656565656565653,-2.2727272727272725 -1.4646464646464643,-2.2727272727272725 -1.363636363636363,-2.2727272727272725 -1.2626262626262625,-2.2727272727272725 -1.1616161616161613,-2.2727272727272725 -1.0606060606060603,-2.2727272727272725 -0.9595959595959596,-2.2727272727272725 -0.8585858585858579,-2.2727272727272725 -0.7575757575757572,-2.2727272727272725 -0.6565656565656557,-2.2727272727272725 -0.555555555555555,-2.2727272727272725 -0.4545454545454544,-2.2727272727272725 -0.35353535353535287,-2.2727272727272725 -0.2525252525252522,-2.2727272727272725" data-type="line" data-label="" points="345.13131313131316,726.5454545454545 354.6666666666667,726.5454545454545 364.2020202020202,726.5454545454545 373.7373737373738,726.5454545454545 383.2727272727273,726.5454545454545 392.80808080808083,726.5454545454545 402.34343434343435,726.5454545454545 411.8787878787879,726.5454545454545 421.4141414141414,726.5454545454545 430.949494949495,726.5454545454545 440.4848484848485,726.5454545454545 450.0202020202021,726.5454545454545 459.55555555555554,726.5454545454545 469.09090909090907,726.5454545454545 478.62626262626264,726.5454545454545 488.16161616161617,726.5454545454545" fill="none" stroke="rgba(0,0,255,0.75)" stroke-width="14.159999999999995"/></g><g><polyline data-points="-0.2525252525252522,-2.2727272727272725 -0.15151515151515066,-2.1717171717171713 -0.05050505050505001,-2.07070707070707 0.050505050505051545,-1.9696969696969693 0.1515151515151522,-1.8686868686868683 0.2525252525252529,-1.7676767676767675 0.3535353535353544,-1.6666666666666665 0.4545454545454551,-1.5656565656565653 0.5555555555555567,-1.4646464646464643 0.6565656565656574,-1.363636363636363 0.7575757575757579,-1.2626262626262625 0.8585858585858596,-1.1616161616161613 0.9595959595959602,-1.0606060606060603 1.0606060606060617,-0.9595959595959596 1.1616161616161622,-0.8585858585858579 1.262626262626263,-0.8585858585858579 1.3636363636363644,-0.8585858585858579 1.4646464646464652,-0.8585858585858579 1.5656565656565666,-0.8585858585858579 1.6666666666666674,-0.8585858585858579 1.767676767676768,-0.8585858585858579 1.8686868686868696,-0.8585858585858579 1.9696969696969702,-0.8585858585858579 2.070707070707072,-0.8585858585858579 2.1717171717171726,-0.8585858585858579 2.2727272727272734,-0.8585858585858579 2.373737373737375,-0.8585858585858579 2.4747474747474754,-0.8585858585858579 2.575757575757577,-0.8585858585858579 2.676767676767678,-0.8585858585858579 2.7777777777777786,-0.8585858585858579 2.87878787878788,-0.8585858585858579 2.9797979797979806,-0.8585858585858579 3.080808080808082,-0.8585858585858579" data-type="line" data-label="" points="488.16161616161617,726.5454545454545 497.69696969696975,717.010101010101 507.2323232323232,707.4747474747475 516.7676767676768,697.939393939394 526.3030303030303,688.4040404040404 535.8383838383838,678.8686868686868 545.3737373737374,669.3333333333334 554.9090909090909,659.7979797979798 564.4444444444445,650.2626262626263 573.9797979797979,640.7272727272727 583.5151515151515,631.1919191919193 593.0505050505051,621.6565656565657 602.5858585858585,612.1212121212121 612.1212121212121,602.5858585858587 621.6565656565656,593.0505050505051 631.1919191919192,593.0505050505051 640.7272727272727,593.0505050505051 650.2626262626262,593.0505050505051 659.7979797979798,593.0505050505051 669.3333333333333,593.0505050505051 678.8686868686868,593.0505050505051 688.4040404040404,593.0505050505051 697.9393939393939,593.0505050505051 707.4747474747475,593.0505050505051 717.0101010101009,593.0505050505051 726.5454545454545,593.0505050505051 736.0808080808081,593.0505050505051 745.6161616161615,593.0505050505051 755.1515151515151,593.0505050505051 764.6868686868686,593.0505050505051 774.2222222222222,593.0505050505051 783.7575757575758,593.0505050505051 793.2929292929292,593.0505050505051 802.8282828282828,593.0505050505051" fill="none" stroke="rgba(255,0,0,0.75)" stroke-width="14.159999999999995"/></g><g><polyline data-points="3.080808080808082,-0.8585858585858579 3.181818181818183,-0.7575757575757572 3.2828282828282833,-0.6565656565656557 3.383838383838384,-0.555555555555555 3.4848484848484866,-0.4545454545454544 3.5858585858585874,-0.35353535353535287 3.6868686868686877,-0.2525252525252522 3.7878787878787885,-0.15151515151515066 3.8888888888888893,-0.05050505050505001 3.989898989898992,-0.05050505050505001" data-type="line" data-label="" points="802.8282828282828,593.0505050505051 812.3636363636363,583.5151515151516 821.8989898989898,573.979797979798 831.4343434343433,564.4444444444445 840.969696969697,554.909090909091 850.5050505050505,545.3737373737374 860.0404040404039,535.838383838384 869.5757575757575,526.3030303030304 879.111111111111,516.7676767676768 888.6464646464647,516.7676767676768" fill="none" stroke="rgba(0,0,255,0.75)" stroke-width="14.159999999999995"/></g><g><polyline data-points="3.989898989898992,-0.05050505050505001 4.090909090909092,-0.05050505050505001 4.191919191919193,-0.05050505050505001 4.292929292929293,-0.05050505050505001 4.393939393939394,-0.05050505050505001 4.494949494949497,-0.05050505050505001 4.595959595959597,-0.05050505050505001 4.696969696969697,-0.05050505050505001 4.7979797979797985,-0.05050505050505001 4.898989898989901,-0.05050505050505001 5.000000000000002,-0.05050505050505001" data-type="line" data-label="" points="888.6464646464647,516.7676767676768 898.181818181818,516.7676767676768 907.7171717171716,516.7676767676768 917.2525252525251,516.7676767676768 926.7878787878785,516.7676767676768 936.3232323232323,516.7676767676768 945.8585858585857,516.7676767676768 955.3939393939393,516.7676767676768 964.9292929292927,516.7676767676768 974.4646464646464,516.7676767676768 984,516.7676767676768" fill="none" stroke="rgba(255,0,0,0.75)" stroke-width="14.159999999999995"/></g><g><rect data-type="rect" data-label="" data-x="0" data-y="0" x="40.000000000000114" y="40.000000000000284" width="943.9999999999997" height="943.9999999999998" fill="none" stroke="gray" stroke-width="0.010593220338983056"/></g><g><rect data-type="rect" data-label="" data-x="0" data-y="0" x="40.000000000000114" y="40.000000000000284" width="943.9999999999997" height="943.9999999999998" fill="none" stroke="rgba(15, 23, 42, 0.8)" stroke-width="0.010593220338983056"/></g><circle data-type="circle" data-label="" data-x="-1.1616161616161613" data-y="3.989898989898992" cx="402.34343434343435" cy="135.35353535353545" r="28.791999999999987" fill="rgba(0,0,0,0.3)" stroke="black" stroke-width="0.010593220338983056"/><circle data-type="circle" data-label="" data-x="-0.35353535353535287" data-y="-3.98989898989899" cx="478.62626262626264" cy="888.6464646464647" r="28.791999999999987" fill="rgba(0,0,0,0.3)" stroke="black" stroke-width="0.010593220338983056"/><circle data-type="circle" data-label="" data-x="-1.7676767676767675" data-y="3.080808080808082" cx="345.13131313131316" cy="221.17171717171726" r="28.791999999999987" fill="rgba(0,0,0,0.3)" stroke="black" stroke-width="0.010593220338983056"/><circle data-type="circle" data-label="" data-x="3.989898989898992" data-y="3.8888888888888893" cx="888.6464646464647" cy="144.88888888888908" r="28.791999999999987" fill="rgba(0,0,0,0.3)" stroke="black" stroke-width="0.010593220338983056"/><circle data-type="circle" data-label="" data-x="-0.555555555555555" data-y="-0.2525252525252522" cx="459.55555555555554" cy="535.838383838384" r="28.791999999999987" fill="rgba(0,0,0,0.3)" stroke="black" stroke-width="0.010593220338983056"/><circle data-type="circle" data-label="" data-x="-0.555555555555555" data-y="-1.5656565656565653" cx="459.55555555555554" cy="659.7979797979798" r="28.791999999999987" fill="rgba(0,0,0,0.3)" stroke="black" stroke-width="0.010593220338983056"/><circle data-type="circle" data-label="" data-x="-1.7676767676767675" data-y="-0.8585858585858579" cx="345.13131313131316" cy="593.0505050505051" r="28.791999999999987" fill="rgba(0,0,0,0.3)" stroke="black" stroke-width="0.010593220338983056"/><circle data-type="circle" data-label="" data-x="-2.474747474747474" data-y="0.3535353535353544" cx="278.38383838383845" cy="478.6262626262627" r="28.791999999999987" fill="rgba(0,0,0,0.3)" stroke="black" stroke-width="0.010593220338983056"/><circle data-type="circle" data-label="" data-x="-3.98989898989899" data-y="3.2828282828282833" cx="135.35353535353545" cy="202.10101010101027" r="28.791999999999987" fill="rgba(0,0,0,0.3)" stroke="black" stroke-width="0.010593220338983056"/><circle data-type="circle" data-label="" data-x="1.0606060606060617" data-y="-3.6868686868686864" cx="612.1212121212121" cy="860.0404040404039" r="28.791999999999987" fill="rgba(0,0,0,0.3)" stroke="black" stroke-width="0.010593220338983056"/><circle data-type="circle" data-label="" data-x="-0.15151515151515066" data-y="-3.1818181818181817" cx="497.69696969696975" cy="812.3636363636363" r="28.791999999999987" fill="rgba(0,0,0,0.3)" stroke="black" stroke-width="0.010593220338983056"/><circle data-type="circle" data-label="" data-x="3.989898989898992" data-y="2.4747474747474754" cx="888.6464646464647" cy="278.38383838383857" r="28.791999999999987" fill="rgba(0,0,0,0.3)" stroke="black" stroke-width="0.010593220338983056"/><circle data-type="circle" data-label="" data-x="-0.555555555555555" data-y="2.575757575757577" cx="459.55555555555554" cy="268.84848484848493" r="28.791999999999987" fill="rgba(0,0,0,0.3)" stroke="black" stroke-width="0.010593220338983056"/><circle data-type="circle" data-label="" data-x="-3.383838383838383" data-y="2.7777777777777786" cx="192.5656565656567" cy="249.77777777777794" r="28.791999999999987" fill="rgba(0,0,0,0.3)" stroke="black" stroke-width="0.010593220338983056"/><circle data-type="circle" data-label="" data-x="-1.7676767676767675" data-y="-2.2727272727272725" cx="345.13131313131316" cy="726.5454545454545" r="28.791999999999987" fill="rgba(0,0,0,0.3)" stroke="black" stroke-width="0.010593220338983056"/><circle data-type="circle" data-label="" data-x="-0.2525252525252522" data-y="-2.2727272727272725" cx="488.16161616161617" cy="726.5454545454545" r="28.791999999999987" fill="rgba(0,0,0,0.3)" stroke="black" stroke-width="0.010593220338983056"/><circle data-type="circle" data-label="" data-x="3.080808080808082" data-y="-0.8585858585858579" cx="802.8282828282828" cy="593.0505050505051" r="28.791999999999987" fill="rgba(0,0,0,0.3)" stroke="black" stroke-width="0.010593220338983056"/><circle data-type="circle" data-label="" data-x="3.989898989898992" data-y="-0.05050505050505001" cx="888.6464646464647" cy="516.7676767676768" r="28.791999999999987" fill="rgba(0,0,0,0.3)" stroke="black" stroke-width="0.010593220338983056"/><g id="crosshair" style="display: none"><line id="crosshair-h" y1="0" y2="1024" stroke="#666" stroke-width="0.5"/><line id="crosshair-v" x1="0" x2="1024" stroke="#666" stroke-width="0.5"/><text id="coordinates" font-family="monospace" font-size="12" fill="#666"></text></g><script><![CDATA[
              document.currentScript.parentElement.addEventListener('mousemove', (e) => {
                const svg = e.currentTarget;
                const rect = svg.getBoundingClientRect();
                const x = e.clientX - rect.left;
                const y = e.clientY - rect.top;
                const crosshair = svg.getElementById('crosshair');
                const h = svg.getElementById('crosshair-h');
                const v = svg.getElementById('crosshair-v');
                const coords = svg.getElementById('coordinates');
                
                crosshair.style.display = 'block';
                h.setAttribute('x1', '0');
                h.setAttribute('x2', '1024');
                h.setAttribute('y1', y);
                h.setAttribute('y2', y);
                v.setAttribute('x1', x);
                v.setAttribute('x2', x);
                v.setAttribute('y1', '0');
                v.setAttribute('y2', '1024');

                // Calculate real coordinates using inverse transformation
                const matrix = {"a":94.39999999999996,"c":0,"e":511.99999999999994,"b":0,"d":-94.39999999999996,"f":512.0000000000001};
                // Manually invert and apply the affine transform
                // Since we only use translate and scale, we can directly compute:
                // x' = (x - tx) / sx
                // y' = (y - ty) / sy
                const sx = matrix.a;
                const sy = matrix.d;
                const tx = matrix.e; 
                const ty = matrix.f;
                const realPoint = {
                  x: (x - tx) / sx,
                  y: (y - ty) / sy // Flip y back since we used negative scale
                }
                
                coords.textContent = `(${realPoint.x.toFixed(2)}, ${realPoint.y.toFixed(2)})`;
                coords.setAttribute('x', (x + 5).toString());
                coords.setAttribute('y', (y - 5).toString());
              });
              document.currentScript.parentElement.addEventListener('mouseleave', () => {
                document.currentScript.parentElement.getElementById('crosshair').style.display = 'none';
              });
            ]]></script></svg>