<svg width="1024" height="1024" viewBox="0 0 1024 1024" xmlns="http://www.w3.org/2000/svg"><rect width="100%" height="100%" fill="white"/><g><circle data-type="point" data-label="conn_000" data-x="5" data-y="-1.48" cx="983.9999999999998" cy="651.712" r="28.792" fill="red" stroke="#bda70f" stroke-width="28.792"/></g><g><circle data-type="point" data-label="conn_000" data-x="-5" data-y="2.52" cx="40.000000000000114" cy="274.1120000000002" r="28.792" fill="blue" stroke="#bda70f" stroke-width="28.792"/></g><g><circle data-type="point" data-label="conn_001" data-x="-3.22" data-y="5" cx="208.03200000000004" cy="40.000000000000284" r="28.792" fill="red" stroke="#0fa0bd" stroke-width="28.792"/></g><g><circle data-type="point" data-label="conn_001" data-x="-2.32" data-y="-5" cx="292.9920000000001" cy="984" r="28.792" fill="red" stroke="#0fa0bd" stroke-width="28.792"/></g><g><circle data-type="point" data-label="conn_002" data-x="-5" data-y="-1.58" cx="40.000000000000114" cy="661.152" r="28.792" fill="red" stroke="#bd0f6d" stroke-width="28.792"/></g><g><circle data-type="point" data-label="conn_002" data-x="5" data-y="-2.7600000000000002" cx="983.9999999999998" cy="772.5440000000001" r="28.792" fill="red" stroke="#bd0f6d" stroke-width="28.792"/></g><g><circle data-type="point" data-label="conn_003" data-x="-5" data-y="3.2" cx="40.000000000000114" cy="209.92000000000024" r="28.792" fill="blue" stroke="#3bbd0f" stroke-width="28.792"/></g><g><circle data-type="point" data-label="conn_003" data-x="4" data-y="-5" cx="889.5999999999998" cy="984" r="28.792" fill="red" stroke="#3bbd0f" stroke-width="28.792"/></g><g><circle data-type="point" data-label="conn_004" data-x="-5" data-y="-3.4" cx="40.000000000000114" cy="832.96" r="28.792" fill="blue" stroke="#170fbd" stroke-width="28.792"/></g><g><circle data-type="point" data-label="conn_004" data-x="0.96" data-y="5" cx="602.6239999999999" cy="40.000000000000284" r="28.792" fill="blue" stroke="#170fbd" stroke-width="28.792"/></g><g><polyline data-points="-3.2828282828282824,5.000000000000002 -3.1818181818181817,4.898989898989901 -3.0808080808080804,4.7979797979797985 -2.9797979797979792,4.696969696969697 -2.8787878787878785,4.595959595959597 -2.7777777777777777,4.494949494949497 -2.6767676767676765,4.393939393939394 -2.5757575757575752,4.292929292929293 -2.474747474747474,4.191919191919193 -2.3737373737373733,4.090909090909092 -2.3737373737373733,3.989898989898992 -2.3737373737373733,3.8888888888888893 -2.3737373737373733,3.7878787878787885 -2.3737373737373733,3.6868686868686877 -2.3737373737373733,3.5858585858585874 -2.3737373737373733,3.4848484848484866 -2.3737373737373733,3.383838383838384 -2.3737373737373733,3.2828282828282833 -2.3737373737373733,3.181818181818183 -2.3737373737373733,3.080808080808082 -2.3737373737373733,2.9797979797979806 -2.3737373737373733,2.87878787878788 -2.3737373737373733,2.7777777777777786 -2.3737373737373733,2.676767676767678 -2.3737373737373733,2.575757575757577 -2.3737373737373733,2.4747474747474754 -2.3737373737373733,2.373737373737375 -2.3737373737373733,2.2727272727272734 -2.3737373737373733,2.1717171717171726 -2.3737373737373733,2.070707070707072 -2.3737373737373733,1.9696969696969702 -2.3737373737373733,1.8686868686868696 -2.3737373737373733,1.767676767676768 -2.3737373737373733,1.6666666666666674 -2.3737373737373733,1.5656565656565666 -2.3737373737373733,1.4646464646464652 -2.3737373737373733,1.3636363636363644 -2.3737373737373733,1.262626262626263 -2.3737373737373733,1.1616161616161622 -2.3737373737373733,1.0606060606060617 -2.3737373737373733,0.9595959595959602 -2.3737373737373733,0.8585858585858596 -2.3737373737373733,0.7575757575757579 -2.3737373737373733,0.6565656565656574 -2.3737373737373733,0.5555555555555567 -2.3737373737373733,0.4545454545454551 -2.3737373737373733,0.3535353535353544 -2.3737373737373733,0.2525252525252529 -2.3737373737373733,0.1515151515151522 -2.3737373737373733,0.050505050505051545 -2.3737373737373733,-0.05050505050505001 -2.3737373737373733,-0.15151515151515066 -2.3737373737373733,-0.2525252525252522 -2.3737373737373733,-0.35353535353535287 -2.3737373737373733,-0.4545454545454544 -2.3737373737373733,-0.555555555555555 -2.3737373737373733,-0.6565656565656557 -2.3737373737373733,-0.7575757575757572 -2.3737373737373733,-0.8585858585858579 -2.3737373737373733,-0.9595959595959596 -2.3737373737373733,-1.0606060606060603 -2.3737373737373733,-1.1616161616161613 -2.3737373737373733,-1.2626262626262625 -2.3737373737373733,-1.363636363636363 -2.3737373737373733,-1.4646464646464643 -2.3737373737373733,-1.5656565656565653 -2.3737373737373733,-1.6666666666666665 -2.3737373737373733,-1.7676767676767675 -2.3737373737373733,-1.8686868686868683 -2.3737373737373733,-1.9696969696969693 -2.3737373737373733,-2.07070707070707 -2.3737373737373733,-2.1717171717171713 -2.3737373737373733,-2.2727272727272725 -2.3737373737373733,-2.3737373737373733 -2.3737373737373733,-2.474747474747474 -2.3737373737373733,-2.5757575757575752 -2.3737373737373733,-2.6767676767676765 -2.3737373737373733,-2.7777777777777777 -2.3737373737373733,-2.8787878787878785 -2.3737373737373733,-2.9797979797979792 -2.3737373737373733,-3.0808080808080804 -2.3737373737373733,-3.1818181818181817 -2.3737373737373733,-3.2828282828282824 -2.3737373737373733,-3.383838383838383 -2.3737373737373733,-3.484848484848485 -2.3737373737373733,-3.5858585858585856 -2.3737373737373733,-3.6868686868686864 -2.3737373737373733,-3.7878787878787876 -2.3737373737373733,-3.8888888888888884 -2.3737373737373733,-3.98989898989899 -2.3737373737373733,-4.090909090909091 -2.3737373737373733,-4.191919191919193 -2.3737373737373733,-4.292929292929293 -2.3737373737373733,-4.393939393939394 -2.3737373737373733,-4.494949494949496 -2.3737373737373733,-4.595959595959596 -2.3737373737373733,-4.696969696969697 -2.3737373737373733,-4.7979797979797985 -2.3737373737373733,-4.898989898989899 -2.3737373737373733,-5.000000000000001" data-type="line" data-label="" points="202.10101010101022,40.000000000000114 211.63636363636374,49.53535353535369 221.17171717171726,59.07070707070733 230.70707070707084,68.60606060606085 240.2424242424243,78.14141414141432 249.77777777777783,87.67676767676778 259.3131313131314,97.21212121212153 268.84848484848493,106.747474747475 278.38383838383845,116.28282828282846 287.91919191919203,125.81818181818198 287.91919191919203,135.35353535353545 287.91919191919203,144.88888888888908 287.91919191919203,154.4242424242426 287.91919191919203,163.95959595959613 287.91919191919203,173.4949494949496 287.91919191919203,183.03030303030312 287.91919191919203,192.56565656565675 287.91919191919203,202.10101010101027 287.91919191919203,211.63636363636374 287.91919191919203,221.17171717171726 287.91919191919203,230.70707070707084 287.91919191919203,240.24242424242436 287.91919191919203,249.77777777777794 287.91919191919203,259.3131313131314 287.91919191919203,268.84848484848493 287.91919191919203,278.38383838383857 287.91919191919203,287.91919191919203 287.91919191919203,297.4545454545456 287.91919191919203,306.9898989898991 287.91919191919203,316.5252525252526 287.91919191919203,326.06060606060623 287.91919191919203,335.5959595959597 287.91919191919203,345.1313131313133 287.91919191919203,354.66666666666674 287.91919191919203,364.2020202020203 287.91919191919203,373.73737373737384 287.91919191919203,383.27272727272737 287.91919191919203,392.80808080808094 287.91919191919203,402.3434343434344 287.91919191919203,411.87878787878793 287.91919191919203,421.4141414141415 287.91919191919203,430.94949494949503 287.91919191919203,440.4848484848486 287.91919191919203,450.0202020202021 287.91919191919203,459.5555555555556 287.91919191919203,469.0909090909092 287.91919191919203,478.6262626262627 287.91919191919203,488.1616161616163 287.91919191919203,497.69696969696975 287.91919191919203,507.23232323232327 287.91919191919203,516.7676767676768 287.91919191919203,526.3030303030304 287.91919191919203,535.838383838384 287.91919191919203,545.3737373737374 287.91919191919203,554.909090909091 287.91919191919203,564.4444444444445 287.91919191919203,573.979797979798 287.91919191919203,583.5151515151516 287.91919191919203,593.0505050505051 287.91919191919203,602.5858585858587 287.91919191919203,612.1212121212121 287.91919191919203,621.6565656565657 287.91919191919203,631.1919191919193 287.91919191919203,640.7272727272727 287.91919191919203,650.2626262626263 287.91919191919203,659.7979797979798 287.91919191919203,669.3333333333334 287.91919191919203,678.8686868686868 287.91919191919203,688.4040404040404 287.91919191919203,697.939393939394 287.91919191919203,707.4747474747475 287.91919191919203,717.010101010101 287.91919191919203,726.5454545454545 287.91919191919203,736.0808080808081 287.91919191919203,745.6161616161615 287.91919191919203,755.1515151515151 287.91919191919203,764.6868686868687 287.91919191919203,774.2222222222222 287.91919191919203,783.7575757575758 287.91919191919203,793.2929292929292 287.91919191919203,802.8282828282828 287.91919191919203,812.3636363636363 287.91919191919203,821.8989898989898 287.91919191919203,831.4343434343434 287.91919191919203,840.969696969697 287.91919191919203,850.5050505050505 287.91919191919203,860.0404040404039 287.91919191919203,869.5757575757575 287.91919191919203,879.1111111111111 287.91919191919203,888.6464646464647 287.91919191919203,898.1818181818181 287.91919191919203,907.7171717171718 287.91919191919203,917.2525252525252 287.91919191919203,926.7878787878788 287.91919191919203,936.3232323232323 287.91919191919203,945.8585858585858 287.91919191919203,955.3939393939394 287.91919191919203,964.9292929292928 287.91919191919203,974.4646464646464 287.91919191919203,984" fill="none" stroke="rgba(255,0,0,0.75)" stroke-width="14.159999999999995"/></g><g><polyline data-points="-5.000000000000001,-1.5656565656565653 -4.898989898989899,-1.6666666666666665 -4.7979797979797985,-1.7676767676767675 -4.696969696969697,-1.8686868686868683 -4.595959595959596,-1.9696969696969693 -4.494949494949496,-2.07070707070707 -4.393939393939394,-2.1717171717171713 -4.292929292929293,-2.2727272727272725 -4.191919191919193,-2.3737373737373733 -4.090909090909091,-2.474747474747474 -3.98989898989899,-2.5757575757575752 -3.8888888888888884,-2.6767676767676765 -3.7878787878787876,-2.7777777777777777 -3.6868686868686864,-2.7777777777777777 -3.5858585858585856,-2.7777777777777777 -3.484848484848485,-2.7777777777777777 -3.383838383838383,-2.7777777777777777 -3.2828282828282824,-2.7777777777777777 -3.1818181818181817,-2.7777777777777777 -3.0808080808080804,-2.7777777777777777 -2.9797979797979792,-2.7777777777777777" data-type="line" data-label="" points="40.00000000000006,659.7979797979798 49.53535353535369,669.3333333333334 59.07070707070716,678.8686868686868 68.60606060606068,688.4040404040404 78.14141414141426,697.939393939394 87.67676767676772,707.4747474747475 97.21212121212136,717.010101010101 106.74747474747483,726.5454545454545 116.28282828282829,736.0808080808081 125.81818181818193,745.6161616161615 135.35353535353545,755.1515151515151 144.88888888888903,764.6868686868687 154.42424242424255,774.2222222222222 163.95959595959607,774.2222222222222 173.4949494949496,774.2222222222222 183.03030303030312,774.2222222222222 192.5656565656567,774.2222222222222 202.10101010101022,774.2222222222222 211.63636363636374,774.2222222222222 221.17171717171726,774.2222222222222 230.70707070707084,774.2222222222222" fill="none" stroke="rgba(255,0,0,0.75)" stroke-width="14.159999999999995"/></g><g><polyline data-points="-2.9797979797979792,-2.7777777777777777 -2.8787878787878785,-2.7777777777777777 -2.7777777777777777,-2.7777777777777777 -2.6767676767676765,-2.7777777777777777 -2.5757575757575752,-2.7777777777777777 -2.474747474747474,-2.7777777777777777 -2.3737373737373733,-2.7777777777777777 -2.2727272727272725,-2.7777777777777777 -2.1717171717171713,-2.7777777777777777 -2.07070707070707,-2.7777777777777777 -1.9696969696969693,-2.7777777777777777 -1.8686868686868683,-2.7777777777777777 -1.7676767676767675,-2.7777777777777777 -1.6666666666666665,-2.7777777777777777 -1.5656565656565653,-2.7777777777777777 -1.4646464646464643,-2.7777777777777777 -1.363636363636363,-2.7777777777777777 -1.2626262626262625,-2.7777777777777777 -1.1616161616161613,-2.7777777777777777 -1.0606060606060603,-2.7777777777777777 -0.9595959595959596,-2.7777777777777777 -0.8585858585858579,-2.7777777777777777 -0.7575757575757572,-2.7777777777777777 -0.6565656565656557,-2.7777777777777777 -0.555555555555555,-2.7777777777777777 -0.4545454545454544,-2.7777777777777777 -0.35353535353535287,-2.7777777777777777 -0.2525252525252522,-2.7777777777777777 -0.15151515151515066,-2.7777777777777777 -0.05050505050505001,-2.7777777777777777 0.050505050505051545,-2.7777777777777777 0.1515151515151522,-2.7777777777777777 0.2525252525252529,-2.7777777777777777 0.3535353535353544,-2.7777777777777777 0.4545454545454551,-2.7777777777777777 0.5555555555555567,-2.7777777777777777 0.6565656565656574,-2.7777777777777777 0.7575757575757579,-2.7777777777777777 0.8585858585858596,-2.7777777777777777 0.9595959595959602,-2.7777777777777777 1.0606060606060617,-2.7777777777777777 1.1616161616161622,-2.7777777777777777 1.262626262626263,-2.7777777777777777 1.3636363636363644,-2.7777777777777777 1.4646464646464652,-2.7777777777777777 1.5656565656565666,-2.7777777777777777 1.6666666666666674,-2.7777777777777777 1.767676767676768,-2.7777777777777777 1.8686868686868696,-2.7777777777777777 1.9696969696969702,-2.7777777777777777 2.070707070707072,-2.7777777777777777 2.1717171717171726,-2.7777777777777777 2.2727272727272734,-2.7777777777777777 2.373737373737375,-2.7777777777777777 2.4747474747474754,-2.7777777777777777 2.575757575757577,-2.7777777777777777 2.676767676767678,-2.7777777777777777 2.7777777777777786,-2.7777777777777777 2.87878787878788,-2.7777777777777777 2.9797979797979806,-2.7777777777777777 3.080808080808082,-2.7777777777777777 3.181818181818183,-2.7777777777777777 3.2828282828282833,-2.7777777777777777 3.383838383838384,-2.7777777777777777 3.4848484848484866,-2.7777777777777777 3.5858585858585874,-2.7777777777777777 3.6868686868686877,-2.7777777777777777 3.7878787878787885,-2.7777777777777777 3.8888888888888893,-2.7777777777777777 3.989898989898992,-2.7777777777777777" data-type="line" data-label="" points="230.70707070707084,774.2222222222222 240.2424242424243,774.2222222222222 249.77777777777783,774.2222222222222 259.3131313131314,774.2222222222222 268.84848484848493,774.2222222222222 278.38383838383845,774.2222222222222 287.91919191919203,774.2222222222222 297.4545454545455,774.2222222222222 306.9898989898991,774.2222222222222 316.5252525252526,774.2222222222222 326.0606060606061,774.2222222222222 335.59595959595964,774.2222222222222 345.13131313131316,774.2222222222222 354.6666666666667,774.2222222222222 364.2020202020202,774.2222222222222 373.7373737373738,774.2222222222222 383.2727272727273,774.2222222222222 392.80808080808083,774.2222222222222 402.34343434343435,774.2222222222222 411.8787878787879,774.2222222222222 421.4141414141414,774.2222222222222 430.949494949495,774.2222222222222 440.4848484848485,774.2222222222222 450.0202020202021,774.2222222222222 459.55555555555554,774.2222222222222 469.09090909090907,774.2222222222222 478.62626262626264,774.2222222222222 488.16161616161617,774.2222222222222 497.69696969696975,774.2222222222222 507.2323232323232,774.2222222222222 516.7676767676768,774.2222222222222 526.3030303030303,774.2222222222222 535.8383838383838,774.2222222222222 545.3737373737374,774.2222222222222 554.9090909090909,774.2222222222222 564.4444444444445,774.2222222222222 573.9797979797979,774.2222222222222 583.5151515151515,774.2222222222222 593.0505050505051,774.2222222222222 602.5858585858585,774.2222222222222 612.1212121212121,774.2222222222222 621.6565656565656,774.2222222222222 631.1919191919192,774.2222222222222 640.7272727272727,774.2222222222222 650.2626262626262,774.2222222222222 659.7979797979798,774.2222222222222 669.3333333333333,774.2222222222222 678.8686868686868,774.2222222222222 688.4040404040404,774.2222222222222 697.9393939393939,774.2222222222222 707.4747474747475,774.2222222222222 717.0101010101009,774.2222222222222 726.5454545454545,774.2222222222222 736.0808080808081,774.2222222222222 745.6161616161615,774.2222222222222 755.1515151515151,774.2222222222222 764.6868686868686,774.2222222222222 774.2222222222222,774.2222222222222 783.7575757575758,774.2222222222222 793.2929292929292,774.2222222222222 802.8282828282828,774.2222222222222 812.3636363636363,774.2222222222222 821.8989898989898,774.2222222222222 831.4343434343433,774.2222222222222 840.969696969697,774.2222222222222 850.5050505050505,774.2222222222222 860.0404040404039,774.2222222222222 869.5757575757575,774.2222222222222 879.111111111111,774.2222222222222 888.6464646464647,774.2222222222222" fill="none" stroke="rgba(0,0,255,0.75)" stroke-width="14.159999999999995"/></g><g><polyline data-points="3.989898989898992,-2.7777777777777777 4.090909090909092,-2.7777777777777777 4.191919191919193,-2.7777777777777777 4.292929292929293,-2.7777777777777777 4.393939393939394,-2.7777777777777777 4.494949494949497,-2.7777777777777777 4.595959595959597,-2.7777777777777777 4.696969696969697,-2.7777777777777777 4.7979797979797985,-2.7777777777777777 4.898989898989901,-2.7777777777777777 5.000000000000002,-2.7777777777777777" data-type="line" data-label="" points="888.6464646464647,774.2222222222222 898.181818181818,774.2222222222222 907.7171717171716,774.2222222222222 917.2525252525251,774.2222222222222 926.7878787878785,774.2222222222222 936.3232323232323,774.2222222222222 945.8585858585857,774.2222222222222 955.3939393939393,774.2222222222222 964.9292929292927,774.2222222222222 974.4646464646464,774.2222222222222 984,774.2222222222222" fill="none" stroke="rgba(255,0,0,0.75)" stroke-width="14.159999999999995"/></g><g><polyline data-points="-5.000000000000001,-3.383838383838383 -4.898989898989899,-3.2828282828282824 -4.7979797979797985,-3.1818181818181817 -4.696969696969697,-3.0808080808080804 -4.595959595959596,-2.9797979797979792 -4.494949494949496,-2.8787878787878785 -4.393939393939394,-2.7777777777777777 -4.292929292929293,-2.6767676767676765 -4.191919191919193,-2.5757575757575752 -4.090909090909091,-2.474747474747474 -3.98989898989899,-2.3737373737373733 -3.8888888888888884,-2.2727272727272725 -3.7878787878787876,-2.1717171717171713 -3.6868686868686864,-2.07070707070707 -3.5858585858585856,-1.9696969696969693 -3.484848484848485,-1.8686868686868683 -3.383838383838383,-1.7676767676767675 -3.2828282828282824,-1.6666666666666665 -3.1818181818181817,-1.5656565656565653 -3.0808080808080804,-1.4646464646464643 -2.9797979797979792,-1.363636363636363 -2.8787878787878785,-1.2626262626262625 -2.7777777777777777,-1.1616161616161613 -2.6767676767676765,-1.0606060606060603 -2.5757575757575752,-0.9595959595959596 -2.474747474747474,-0.8585858585858579 -2.3737373737373733,-0.7575757575757572 -2.2727272727272725,-0.6565656565656557 -2.1717171717171713,-0.555555555555555 -2.07070707070707,-0.4545454545454544 -1.9696969696969693,-0.35353535353535287 -1.8686868686868683,-0.2525252525252522 -1.7676767676767675,-0.15151515151515066 -1.6666666666666665,-0.05050505050505001 -1.5656565656565653,0.050505050505051545 -1.4646464646464643,0.1515151515151522 -1.363636363636363,0.2525252525252529 -1.2626262626262625,0.3535353535353544 -1.1616161616161613,0.4545454545454551 -1.0606060606060603,0.5555555555555567 -0.9595959595959596,0.6565656565656574 -0.8585858585858579,0.7575757575757579 -0.7575757575757572,0.8585858585858596 -0.6565656565656557,0.9595959595959602 -0.555555555555555,1.0606060606060617 -0.4545454545454544,1.1616161616161622 -0.35353535353535287,1.262626262626263 -0.2525252525252522,1.3636363636363644 -0.15151515151515066,1.4646464646464652 -0.05050505050505001,1.5656565656565666 0.050505050505051545,1.6666666666666674 0.1515151515151522,1.767676767676768 0.2525252525252529,1.8686868686868696 0.3535353535353544,1.9696969696969702 0.4545454545454551,2.070707070707072 0.5555555555555567,2.1717171717171726 0.6565656565656574,2.2727272727272734 0.7575757575757579,2.373737373737375 0.8585858585858596,2.4747474747474754 0.9595959595959602,2.575757575757577 0.9595959595959602,2.676767676767678 0.9595959595959602,2.7777777777777786 0.9595959595959602,2.87878787878788 0.9595959595959602,2.9797979797979806 0.9595959595959602,3.080808080808082 0.9595959595959602,3.181818181818183 0.9595959595959602,3.2828282828282833 0.9595959595959602,3.383838383838384 0.9595959595959602,3.4848484848484866 0.9595959595959602,3.5858585858585874 0.9595959595959602,3.6868686868686877 0.9595959595959602,3.7878787878787885 0.9595959595959602,3.8888888888888893 0.9595959595959602,3.989898989898992 0.9595959595959602,4.090909090909092 0.9595959595959602,4.191919191919193 0.9595959595959602,4.292929292929293 0.9595959595959602,4.393939393939394 0.9595959595959602,4.494949494949497 0.9595959595959602,4.595959595959597 0.9595959595959602,4.696969696969697 0.9595959595959602,4.7979797979797985 0.9595959595959602,4.898989898989901 0.9595959595959602,5.000000000000002" data-type="line" data-label="" points="40.00000000000006,831.4343434343434 49.53535353535369,821.8989898989898 59.07070707070716,812.3636363636363 68.60606060606068,802.8282828282828 78.14141414141426,793.2929292929292 87.67676767676772,783.7575757575758 97.21212121212136,774.2222222222222 106.74747474747483,764.6868686868687 116.28282828282829,755.1515151515151 125.81818181818193,745.6161616161615 135.35353535353545,736.0808080808081 144.88888888888903,726.5454545454545 154.42424242424255,717.010101010101 163.95959595959607,707.4747474747475 173.4949494949496,697.939393939394 183.03030303030312,688.4040404040404 192.5656565656567,678.8686868686868 202.10101010101022,669.3333333333334 211.63636363636374,659.7979797979798 221.17171717171726,650.2626262626263 230.70707070707084,640.7272727272727 240.2424242424243,631.1919191919193 249.77777777777783,621.6565656565657 259.3131313131314,612.1212121212121 268.84848484848493,602.5858585858587 278.38383838383845,593.0505050505051 287.91919191919203,583.5151515151516 297.4545454545455,573.979797979798 306.9898989898991,564.4444444444445 316.5252525252526,554.909090909091 326.0606060606061,545.3737373737374 335.59595959595964,535.838383838384 345.13131313131316,526.3030303030304 354.6666666666667,516.7676767676768 364.2020202020202,507.23232323232327 373.7373737373738,497.69696969696975 383.2727272727273,488.1616161616163 392.80808080808083,478.6262626262627 402.34343434343435,469.0909090909092 411.8787878787879,459.5555555555556 421.4141414141414,450.0202020202021 430.949494949495,440.4848484848486 440.4848484848485,430.94949494949503 450.0202020202021,421.4141414141415 459.55555555555554,411.87878787878793 469.09090909090907,402.3434343434344 478.62626262626264,392.80808080808094 488.16161616161617,383.27272727272737 497.69696969696975,373.73737373737384 507.2323232323232,364.2020202020203 516.7676767676768,354.66666666666674 526.3030303030303,345.1313131313133 535.8383838383838,335.5959595959597 545.3737373737374,326.06060606060623 554.9090909090909,316.5252525252526 564.4444444444445,306.9898989898991 573.9797979797979,297.4545454545456 583.5151515151515,287.91919191919203 593.0505050505051,278.38383838383857 602.5858585858585,268.84848484848493 602.5858585858585,259.3131313131314 602.5858585858585,249.77777777777794 602.5858585858585,240.24242424242436 602.5858585858585,230.70707070707084 602.5858585858585,221.17171717171726 602.5858585858585,211.63636363636374 602.5858585858585,202.10101010101027 602.5858585858585,192.56565656565675 602.5858585858585,183.03030303030312 602.5858585858585,173.4949494949496 602.5858585858585,163.95959595959613 602.5858585858585,154.4242424242426 602.5858585858585,144.88888888888908 602.5858585858585,135.35353535353545 602.5858585858585,125.81818181818198 602.5858585858585,116.28282828282846 602.5858585858585,106.747474747475 602.5858585858585,97.21212121212153 602.5858585858585,87.67676767676778 602.5858585858585,78.14141414141432 602.5858585858585,68.60606060606085 602.5858585858585,59.07070707070733 602.5858585858585,49.53535353535369 602.5858585858585,40.000000000000114" fill="none" stroke="rgba(0,0,255,0.75)" stroke-width="14.159999999999995"/></g><g><polyline data-points="-5.000000000000001,3.181818181818183 -4.898989898989899,3.080808080808082 -4.7979797979797985,2.9797979797979806 -4.696969696969697,2.87878787878788 -4.595959595959596,2.7777777777777786 -4.494949494949496,2.676767676767678 -4.393939393939394,2.575757575757577 -4.292929292929293,2.4747474747474754 -4.191919191919193,2.373737373737375 -4.090909090909091,2.2727272727272734 -3.98989898989899,2.1717171717171726 -3.8888888888888884,2.070707070707072 -3.7878787878787876,1.9696969696969702 -3.6868686868686864,1.8686868686868696 -3.5858585858585856,1.767676767676768 -3.484848484848485,1.6666666666666674 -3.383838383838383,1.5656565656565666 -3.2828282828282824,1.4646464646464652 -3.1818181818181817,1.3636363636363644 -3.0808080808080804,1.262626262626263 -2.9797979797979792,1.1616161616161622 -2.8787878787878785,1.0606060606060617 -2.7777777777777777,0.9595959595959602 -2.6767676767676765,0.8585858585858596 -2.5757575757575752,0.7575757575757579 -2.474747474747474,0.6565656565656574 -2.3737373737373733,0.6565656565656574 -2.2727272727272725,0.6565656565656574 -2.1717171717171713,0.6565656565656574 -2.07070707070707,0.6565656565656574 -1.9696969696969693,0.6565656565656574 -1.8686868686868683,0.6565656565656574 -1.7676767676767675,0.6565656565656574" data-type="line" data-label="" points="40.00000000000006,211.63636363636374 49.53535353535369,221.17171717171726 59.07070707070716,230.70707070707084 68.60606060606068,240.24242424242436 78.14141414141426,249.77777777777794 87.67676767676772,259.3131313131314 97.21212121212136,268.84848484848493 106.74747474747483,278.38383838383857 116.28282828282829,287.91919191919203 125.81818181818193,297.4545454545456 135.35353535353545,306.9898989898991 144.88888888888903,316.5252525252526 154.42424242424255,326.06060606060623 163.95959595959607,335.5959595959597 173.4949494949496,345.1313131313133 183.03030303030312,354.66666666666674 192.5656565656567,364.2020202020203 202.10101010101022,373.73737373737384 211.63636363636374,383.27272727272737 221.17171717171726,392.80808080808094 230.70707070707084,402.3434343434344 240.2424242424243,411.87878787878793 249.77777777777783,421.4141414141415 259.3131313131314,430.94949494949503 268.84848484848493,440.4848484848486 278.38383838383845,450.0202020202021 287.91919191919203,450.0202020202021 297.4545454545455,450.0202020202021 306.9898989898991,450.0202020202021 316.5252525252526,450.0202020202021 326.0606060606061,450.0202020202021 335.59595959595964,450.0202020202021 345.13131313131316,450.0202020202021" fill="none" stroke="rgba(0,0,255,0.75)" stroke-width="14.159999999999995"/></g><g><polyline data-points="-1.7676767676767675,0.6565656565656574 -1.6666666666666665,0.5555555555555567 -1.5656565656565653,0.4545454545454551 -1.4646464646464643,0.3535353535353544 -1.363636363636363,0.2525252525252529 -1.2626262626262625,0.1515151515151522 -1.1616161616161613,0.050505050505051545 -1.0606060606060603,-0.05050505050505001 -0.9595959595959596,-0.15151515151515066 -0.8585858585858579,-0.2525252525252522 -0.7575757575757572,-0.35353535353535287 -0.6565656565656557,-0.4545454545454544 -0.555555555555555,-0.555555555555555 -0.4545454545454544,-0.6565656565656557 -0.35353535353535287,-0.7575757575757572 -0.2525252525252522,-0.8585858585858579 -0.15151515151515066,-0.9595959595959596 -0.05050505050505001,-1.0606060606060603 0.050505050505051545,-1.1616161616161613 0.1515151515151522,-1.2626262626262625 0.2525252525252529,-1.363636363636363 0.3535353535353544,-1.4646464646464643 0.4545454545454551,-1.5656565656565653 0.5555555555555567,-1.6666666666666665 0.6565656565656574,-1.7676767676767675 0.7575757575757579,-1.8686868686868683 0.8585858585858596,-1.9696969696969693 0.9595959595959602,-2.07070707070707 1.0606060606060617,-2.1717171717171713 1.1616161616161622,-2.2727272727272725 1.262626262626263,-2.3737373737373733 1.3636363636363644,-2.474747474747474 1.4646464646464652,-2.5757575757575752 1.5656565656565666,-2.6767676767676765 1.6666666666666674,-2.7777777777777777 1.767676767676768,-2.8787878787878785 1.8686868686868696,-2.9797979797979792 1.9696969696969702,-3.0808080808080804 2.070707070707072,-3.1818181818181817 2.1717171717171726,-3.2828282828282824 2.2727272727272734,-3.383838383838383 2.373737373737375,-3.484848484848485 2.4747474747474754,-3.5858585858585856 2.575757575757577,-3.6868686868686864 2.676767676767678,-3.7878787878787876 2.7777777777777786,-3.8888888888888884 2.87878787878788,-3.98989898989899 2.9797979797979806,-4.090909090909091 3.080808080808082,-4.191919191919193 3.181818181818183,-4.292929292929293 3.2828282828282833,-4.393939393939394 3.383838383838384,-4.494949494949496 3.4848484848484866,-4.595959595959596 3.5858585858585874,-4.696969696969697 3.6868686868686877,-4.7979797979797985 3.7878787878787885,-4.898989898989899 3.8888888888888893,-5.000000000000001 3.989898989898992,-5.000000000000001 4.090909090909092,-5.000000000000001" data-type="line" data-label="" points="345.13131313131316,450.0202020202021 354.6666666666667,459.5555555555556 364.2020202020202,469.0909090909092 373.7373737373738,478.6262626262627 383.2727272727273,488.1616161616163 392.80808080808083,497.69696969696975 402.34343434343435,507.23232323232327 411.8787878787879,516.7676767676768 421.4141414141414,526.3030303030304 430.949494949495,535.838383838384 440.4848484848485,545.3737373737374 450.0202020202021,554.909090909091 459.55555555555554,564.4444444444445 469.09090909090907,573.979797979798 478.62626262626264,583.5151515151516 488.16161616161617,593.0505050505051 497.69696969696975,602.5858585858587 507.2323232323232,612.1212121212121 516.7676767676768,621.6565656565657 526.3030303030303,631.1919191919193 535.8383838383838,640.7272727272727 545.3737373737374,650.2626262626263 554.9090909090909,659.7979797979798 564.4444444444445,669.3333333333334 573.9797979797979,678.8686868686868 583.5151515151515,688.4040404040404 593.0505050505051,697.939393939394 602.5858585858585,707.4747474747475 612.1212121212121,717.010101010101 621.6565656565656,726.5454545454545 631.1919191919192,736.0808080808081 640.7272727272727,745.6161616161615 650.2626262626262,755.1515151515151 659.7979797979798,764.6868686868687 669.3333333333333,774.2222222222222 678.8686868686868,783.7575757575758 688.4040404040404,793.2929292929292 697.9393939393939,802.8282828282828 707.4747474747475,812.3636363636363 717.0101010101009,821.8989898989898 726.5454545454545,831.4343434343434 736.0808080808081,840.969696969697 745.6161616161615,850.5050505050505 755.1515151515151,860.0404040404039 764.6868686868686,869.5757575757575 774.2222222222222,879.1111111111111 783.7575757575758,888.6464646464647 793.2929292929292,898.1818181818181 802.8282828282828,907.7171717171718 812.3636363636363,917.2525252525252 821.8989898989898,926.7878787878788 831.4343434343433,936.3232323232323 840.969696969697,945.8585858585858 850.5050505050505,955.3939393939394 860.0404040404039,964.9292929292928 869.5757575757575,974.4646464646464 879.111111111111,984 888.6464646464647,984 898.181818181818,984" fill="none" stroke="rgba(255,0,0,0.75)" stroke-width="14.159999999999995"/></g><g><polyline data-points="5.000000000000002,-1.4646464646464643 4.898989898989901,-1.363636363636363 4.7979797979797985,-1.2626262626262625 4.696969696969697,-1.1616161616161613 4.595959595959597,-1.0606060606060603 4.494949494949497,-0.9595959595959596 4.393939393939394,-0.8585858585858579 4.292929292929293,-0.7575757575757572 4.191919191919193,-0.6565656565656557 4.090909090909092,-0.555555555555555 3.989898989898992,-0.4545454545454544 3.8888888888888893,-0.35353535353535287 3.7878787878787885,-0.2525252525252522 3.6868686868686877,-0.15151515151515066 3.5858585858585874,-0.05050505050505001 3.4848484848484866,0.050505050505051545 3.383838383838384,0.1515151515151522 3.2828282828282833,0.2525252525252529 3.181818181818183,0.3535353535353544 3.080808080808082,0.4545454545454551 2.9797979797979806,0.5555555555555567 2.87878787878788,0.6565656565656574 2.7777777777777786,0.7575757575757579 2.676767676767678,0.8585858585858596 2.575757575757577,0.9595959595959602 2.4747474747474754,1.0606060606060617 2.373737373737375,1.1616161616161622 2.2727272727272734,1.262626262626263 2.1717171717171726,1.3636363636363644 2.070707070707072,1.4646464646464652 1.9696969696969702,1.5656565656565666 1.8686868686868696,1.6666666666666674 1.767676767676768,1.767676767676768 1.6666666666666674,1.8686868686868696 1.5656565656565666,1.9696969696969702 1.4646464646464652,1.9696969696969702 1.3636363636363644,1.9696969696969702 1.262626262626263,1.9696969696969702 1.1616161616161622,1.9696969696969702 1.0606060606060617,1.9696969696969702 0.9595959595959602,1.9696969696969702 0.8585858585858596,1.9696969696969702 0.7575757575757579,1.9696969696969702 0.6565656565656574,1.9696969696969702 0.5555555555555567,1.9696969696969702 0.4545454545454551,1.9696969696969702 0.3535353535353544,1.9696969696969702 0.2525252525252529,1.9696969696969702 0.1515151515151522,1.9696969696969702 0.050505050505051545,1.9696969696969702 -0.05050505050505001,1.9696969696969702 -0.15151515151515066,1.9696969696969702 -0.2525252525252522,1.9696969696969702 -0.35353535353535287,1.9696969696969702 -0.4545454545454544,1.9696969696969702 -0.555555555555555,1.9696969696969702 -0.6565656565656557,1.9696969696969702 -0.7575757575757572,1.9696969696969702 -0.8585858585858579,1.9696969696969702 -0.9595959595959596,1.9696969696969702 -1.0606060606060603,1.9696969696969702 -1.1616161616161613,1.9696969696969702 -1.2626262626262625,1.9696969696969702 -1.363636363636363,1.9696969696969702 -1.4646464646464643,1.9696969696969702 -1.5656565656565653,1.9696969696969702 -1.6666666666666665,1.9696969696969702 -1.7676767676767675,1.9696969696969702" data-type="line" data-label="" points="984,650.2626262626263 974.4646464646464,640.7272727272727 964.9292929292927,631.1919191919193 955.3939393939393,621.6565656565657 945.8585858585857,612.1212121212121 936.3232323232323,602.5858585858587 926.7878787878785,593.0505050505051 917.2525252525251,583.5151515151516 907.7171717171716,573.979797979798 898.181818181818,564.4444444444445 888.6464646464647,554.909090909091 879.111111111111,545.3737373737374 869.5757575757575,535.838383838384 860.0404040404039,526.3030303030304 850.5050505050505,516.7676767676768 840.969696969697,507.23232323232327 831.4343434343433,497.69696969696975 821.8989898989898,488.1616161616163 812.3636363636363,478.6262626262627 802.8282828282828,469.0909090909092 793.2929292929292,459.5555555555556 783.7575757575758,450.0202020202021 774.2222222222222,440.4848484848486 764.6868686868686,430.94949494949503 755.1515151515151,421.4141414141415 745.6161616161615,411.87878787878793 736.0808080808081,402.3434343434344 726.5454545454545,392.80808080808094 717.0101010101009,383.27272727272737 707.4747474747475,373.73737373737384 697.9393939393939,364.2020202020203 688.4040404040404,354.66666666666674 678.8686868686868,345.1313131313133 669.3333333333333,335.5959595959597 659.7979797979798,326.06060606060623 650.2626262626262,326.06060606060623 640.7272727272727,326.06060606060623 631.1919191919192,326.06060606060623 621.6565656565656,326.06060606060623 612.1212121212121,326.06060606060623 602.5858585858585,326.06060606060623 593.0505050505051,326.06060606060623 583.5151515151515,326.06060606060623 573.9797979797979,326.06060606060623 564.4444444444445,326.06060606060623 554.9090909090909,326.06060606060623 545.3737373737374,326.06060606060623 535.8383838383838,326.06060606060623 526.3030303030303,326.06060606060623 516.7676767676768,326.06060606060623 507.2323232323232,326.06060606060623 497.69696969696975,326.06060606060623 488.16161616161617,326.06060606060623 478.62626262626264,326.06060606060623 469.09090909090907,326.06060606060623 459.55555555555554,326.06060606060623 450.0202020202021,326.06060606060623 440.4848484848485,326.06060606060623 430.949494949495,326.06060606060623 421.4141414141414,326.06060606060623 411.8787878787879,326.06060606060623 402.34343434343435,326.06060606060623 392.80808080808083,326.06060606060623 383.2727272727273,326.06060606060623 373.7373737373738,326.06060606060623 364.2020202020202,326.06060606060623 354.6666666666667,326.06060606060623 345.13131313131316,326.06060606060623" fill="none" stroke="rgba(255,0,0,0.75)" stroke-width="14.159999999999995"/></g><g><polyline data-points="-1.7676767676767675,1.9696969696969702 -1.8686868686868683,1.9696969696969702 -1.9696969696969693,1.9696969696969702 -2.07070707070707,1.9696969696969702 -2.1717171717171713,1.9696969696969702 -2.2727272727272725,1.9696969696969702 -2.3737373737373733,1.9696969696969702 -2.474747474747474,1.9696969696969702 -2.5757575757575752,1.9696969696969702 -2.6767676767676765,1.9696969696969702 -2.7777777777777777,1.9696969696969702 -2.8787878787878785,1.9696969696969702 -2.9797979797979792,1.9696969696969702" data-type="line" data-label="" points="345.13131313131316,326.06060606060623 335.59595959595964,326.06060606060623 326.0606060606061,326.06060606060623 316.5252525252526,326.06060606060623 306.9898989898991,326.06060606060623 297.4545454545455,326.06060606060623 287.91919191919203,326.06060606060623 278.38383838383845,326.06060606060623 268.84848484848493,326.06060606060623 259.3131313131314,326.06060606060623 249.77777777777783,326.06060606060623 240.2424242424243,326.06060606060623 230.70707070707084,326.06060606060623" fill="none" stroke="rgba(0,0,255,0.75)" stroke-width="14.159999999999995"/></g><g><polyline data-points="-2.9797979797979792,1.9696969696969702 -3.0808080808080804,1.9696969696969702 -3.1818181818181817,1.9696969696969702 -3.2828282828282824,1.9696969696969702 -3.383838383838383,1.9696969696969702 -3.484848484848485,1.8686868686868696 -3.5858585858585856,1.767676767676768 -3.6868686868686864,1.6666666666666674 -3.7878787878787876,1.5656565656565666 -3.8888888888888884,1.4646464646464652 -3.98989898989899,1.3636363636363644" data-type="line" data-label="" points="230.70707070707084,326.06060606060623 221.17171717171726,326.06060606060623 211.63636363636374,326.06060606060623 202.10101010101022,326.06060606060623 192.5656565656567,326.06060606060623 183.03030303030312,335.5959595959597 173.4949494949496,345.1313131313133 163.95959595959607,354.66666666666674 154.42424242424255,364.2020202020203 144.88888888888903,373.73737373737384 135.35353535353545,383.27272727272737" fill="none" stroke="rgba(255,0,0,0.75)" stroke-width="14.159999999999995"/></g><g><polyline data-points="-3.98989898989899,1.3636363636363644 -4.090909090909091,1.4646464646464652 -4.191919191919193,1.5656565656565666 -4.292929292929293,1.6666666666666674 -4.393939393939394,1.767676767676768 -4.494949494949496,1.8686868686868696 -4.595959595959596,1.9696969696969702 -4.696969696969697,2.070707070707072 -4.7979797979797985,2.1717171717171726 -4.898989898989899,2.2727272727272734 -5.000000000000001,2.373737373737375 -5.000000000000001,2.4747474747474754 -5.000000000000001,2.575757575757577" data-type="line" data-label="" points="135.35353535353545,383.27272727272737 125.81818181818193,373.73737373737384 116.28282828282829,364.2020202020203 106.74747474747483,354.66666666666674 97.21212121212136,345.1313131313133 87.67676767676772,335.5959595959597 78.14141414141426,326.06060606060623 68.60606060606068,316.5252525252526 59.07070707070716,306.9898989898991 49.53535353535369,297.4545454545456 40.00000000000006,287.91919191919203 40.00000000000006,278.38383838383857 40.00000000000006,268.84848484848493" fill="none" stroke="rgba(0,0,255,0.75)" stroke-width="14.159999999999995"/></g><g><rect data-type="rect" data-label="" data-x="0" data-y="0" x="40.000000000000114" y="40.000000000000284" width="943.9999999999997" height="943.9999999999998" fill="none" stroke="gray" stroke-width="0.010593220338983056"/></g><g><rect data-type="rect" data-label="" data-x="0" data-y="0" x="40.000000000000114" y="40.000000000000284" width="943.9999999999997" height="943.9999999999998" fill="none" stroke="rgba(15, 23, 42, 0.8)" stroke-width="0.010593220338983056"/></g><circle data-type="circle" data-label="" data-x="-2.9797979797979792" data-y="-2.7777777777777777" cx="230.70707070707084" cy="774.2222222222222" r="28.791999999999987" fill="rgba(0,0,0,0.3)" stroke="black" stroke-width="0.010593220338983056"/><circle data-type="circle" data-label="" data-x="3.989898989898992" data-y="-2.7777777777777777" cx="888.6464646464647" cy="774.2222222222222" r="28.791999999999987" fill="rgba(0,0,0,0.3)" stroke="black" stroke-width="0.010593220338983056"/><circle data-type="circle" data-label="" data-x="-1.7676767676767675" data-y="0.6565656565656574" cx="345.13131313131316" cy="450.0202020202021" r="28.791999999999987" fill="rgba(0,0,0,0.3)" stroke="black" stroke-width="0.010593220338983056"/><circle data-type="circle" data-label="" data-x="-1.7676767676767675" data-y="1.9696969696969702" cx="345.13131313131316" cy="326.06060606060623" r="28.791999999999987" fill="rgba(0,0,0,0.3)" stroke="black" stroke-width="0.010593220338983056"/><circle data-type="circle" data-label="" data-x="-2.9797979797979792" data-y="1.9696969696969702" cx="230.70707070707084" cy="326.06060606060623" r="28.791999999999987" fill="rgba(0,0,0,0.3)" stroke="black" stroke-width="0.010593220338983056"/><circle data-type="circle" data-label="" data-x="-3.98989898989899" data-y="1.3636363636363644" cx="135.35353535353545" cy="383.27272727272737" r="28.791999999999987" fill="rgba(0,0,0,0.3)" stroke="black" stroke-width="0.010593220338983056"/><g id="crosshair" style="display: none"><line id="crosshair-h" y1="0" y2="1024" stroke="#666" stroke-width="0.5"/><line id="crosshair-v" x1="0" x2="1024" stroke="#666" stroke-width="0.5"/><text id="coordinates" font-family="monospace" font-size="12" fill="#666"></text></g><script><![CDATA[
              document.currentScript.parentElement.addEventListener('mousemove', (e) => {
                const svg = e.currentTarget;
                const rect = svg.getBoundingClientRect();
                const x = e.clientX - rect.left;
                const y = e.clientY - rect.top;
                const crosshair = svg.getElementById('crosshair');
                const h = svg.getElementById('crosshair-h');
                const v = svg.getElementById('crosshair-v');
                const coords = svg.getElementById('coordinates');
                
                crosshair.style.display = 'block';
                h.setAttribute('x1', '0');
                h.setAttribute('x2', '1024');
                h.setAttribute('y1', y);
                h.setAttribute('y2', y);
                v.setAttribute('x1', x);
                v.setAttribute('x2', x);
                v.setAttribute('y1', '0');
                v.setAttribute('y2', '1024');

                // Calculate real coordinates using inverse transformation
                const matrix = {"a":94.39999999999996,"c":0,"e":511.99999999999994,"b":0,"d":-94.39999999999996,"f":512.0000000000001};
                // Manually invert and apply the affine transform
                // Since we only use translate and scale, we can directly compute:
                // x' = (x - tx) / sx
                // y' = (y - ty) / sy
                const sx = matrix.a;
                const sy = matrix.d;
                const tx = matrix.e; 
                const ty = matrix.f;
                const realPoint = {
                  x: (x - tx) / sx,
                  y: (y - ty) / sy // Flip y back since we used negative scale
                }
                
                coords.textContent = `(${realPoint.x.toFixed(2)}, ${realPoint.y.toFixed(2)})`;
                coords.setAttribute('x', (x + 5).toString());
                coords.setAttribute('y', (y - 5).toString());
              });
              document.currentScript.parentElement.addEventListener('mouseleave', () => {
                document.currentScript.parentElement.getElementById('crosshair').style.display = 'none';
              });
            ]]></script></svg>