<svg width="1024" height="1024" viewBox="0 0 1024 1024" xmlns="http://www.w3.org/2000/svg"><rect width="100%" height="100%" fill="white"/><g><circle data-type="point" data-label="conn_000" data-x="-4.54" data-y="5" cx="83.42400000000009" cy="40.000000000000284" r="28.792" fill="red" stroke="#170fbd" stroke-width="28.792"/></g><g><circle data-type="point" data-label="conn_000" data-x="-4.88" data-y="-5" cx="51.328000000000145" cy="984" r="28.792" fill="red" stroke="#170fbd" stroke-width="28.792"/></g><g><circle data-type="point" data-label="conn_001" data-x="5" data-y="0.2" cx="983.9999999999998" cy="493.1200000000001" r="28.792" fill="blue" stroke="#bd490f" stroke-width="28.792"/></g><g><circle data-type="point" data-label="conn_001" data-x="-5" data-y="-0.14" cx="40.000000000000114" cy="525.2160000000001" r="28.792" fill="red" stroke="#bd490f" stroke-width="28.792"/></g><g><circle data-type="point" data-label="conn_002" data-x="-3.7600000000000002" data-y="-5" cx="157.05600000000004" cy="984" r="28.792" fill="red" stroke="#0fbd7c" stroke-width="28.792"/></g><g><circle data-type="point" data-label="conn_002" data-x="5" data-y="3" cx="983.9999999999998" cy="228.80000000000024" r="28.792" fill="blue" stroke="#0fbd7c" stroke-width="28.792"/></g><g><circle data-type="point" data-label="conn_003" data-x="-2.8000000000000003" data-y="-5" cx="247.68" cy="984" r="28.792" fill="blue" stroke="#ae0fbd" stroke-width="28.792"/></g><g><circle data-type="point" data-label="conn_003" data-x="4.82" data-y="5" cx="967.0079999999998" cy="40.000000000000284" r="28.792" fill="red" stroke="#ae0fbd" stroke-width="28.792"/></g><g><circle data-type="point" data-label="conn_004" data-x="-0.92" data-y="5" cx="425.152" cy="40.000000000000284" r="28.792" fill="red" stroke="#98bd0f" stroke-width="28.792"/></g><g><circle data-type="point" data-label="conn_004" data-x="0.74" data-y="-5" cx="581.8559999999999" cy="984" r="28.792" fill="red" stroke="#98bd0f" stroke-width="28.792"/></g><g><circle data-type="point" data-label="conn_005" data-x="2.06" data-y="5" cx="706.4639999999999" cy="40.000000000000284" r="28.792" fill="red" stroke="#0f66bd" stroke-width="28.792"/></g><g><circle data-type="point" data-label="conn_005" data-x="-1.62" data-y="-5" cx="359.072" cy="984" r="28.792" fill="blue" stroke="#0f66bd" stroke-width="28.792"/></g><g><circle data-type="point" data-label="conn_006" data-x="0.42" data-y="5" cx="551.6479999999999" cy="40.000000000000284" r="28.792" fill="red" stroke="#bd0f33" stroke-width="28.792"/></g><g><circle data-type="point" data-label="conn_006" data-x="-3.54" data-y="5" cx="177.82400000000007" cy="40.000000000000284" r="28.792" fill="blue" stroke="#bd0f33" stroke-width="28.792"/></g><g><circle data-type="point" data-label="conn_007" data-x="-2.58" data-y="5" cx="268.44800000000004" cy="40.000000000000284" r="28.792" fill="blue" stroke="#0fbd1e" stroke-width="28.792"/></g><g><circle data-type="point" data-label="conn_007" data-x="-5" data-y="1.32" cx="40.000000000000114" cy="387.39200000000017" r="28.792" fill="blue" stroke="#0fbd1e" stroke-width="28.792"/></g><g><circle data-type="point" data-label="conn_008" data-x="-1.72" data-y="5" cx="349.632" cy="40.000000000000284" r="28.792" fill="red" stroke="#510fbd" stroke-width="28.792"/></g><g><circle data-type="point" data-label="conn_008" data-x="5" data-y="-2.7" cx="983.9999999999998" cy="766.88" r="28.792" fill="red" stroke="#510fbd" stroke-width="28.792"/></g><g><circle data-type="point" data-label="conn_009" data-x="-5" data-y="-1.46" cx="40.000000000000114" cy="649.8240000000001" r="28.792" fill="red" stroke="#bd830f" stroke-width="28.792"/></g><g><circle data-type="point" data-label="conn_009" data-x="-5" data-y="-4.18" cx="40.000000000000114" cy="906.5919999999999" r="28.792" fill="blue" stroke="#bd830f" stroke-width="28.792"/></g><g><polyline data-points="5.000000000000002,0.2525252525252529 4.898989898989901,0.1515151515151522 4.7979797979797985,0.050505050505051545 4.696969696969697,-0.05050505050505001 4.595959595959597,-0.15151515151515066 4.494949494949497,-0.15151515151515066 4.393939393939394,-0.15151515151515066 4.292929292929293,-0.15151515151515066 4.191919191919193,-0.15151515151515066 4.090909090909092,-0.15151515151515066 3.989898989898992,-0.15151515151515066 3.8888888888888893,-0.15151515151515066 3.7878787878787885,-0.15151515151515066 3.6868686868686877,-0.15151515151515066 3.5858585858585874,-0.15151515151515066 3.4848484848484866,-0.15151515151515066 3.383838383838384,-0.15151515151515066 3.2828282828282833,-0.15151515151515066 3.181818181818183,-0.15151515151515066 3.080808080808082,-0.15151515151515066 2.9797979797979806,-0.15151515151515066 2.87878787878788,-0.15151515151515066 2.7777777777777786,-0.15151515151515066 2.676767676767678,-0.15151515151515066 2.575757575757577,-0.15151515151515066 2.4747474747474754,-0.15151515151515066 2.373737373737375,-0.15151515151515066 2.2727272727272734,-0.15151515151515066 2.1717171717171726,-0.15151515151515066 2.070707070707072,-0.15151515151515066 1.9696969696969702,-0.15151515151515066 1.8686868686868696,-0.15151515151515066 1.767676767676768,-0.15151515151515066 1.6666666666666674,-0.15151515151515066 1.5656565656565666,-0.15151515151515066 1.4646464646464652,-0.15151515151515066 1.3636363636363644,-0.15151515151515066 1.262626262626263,-0.15151515151515066 1.1616161616161622,-0.15151515151515066 1.0606060606060617,-0.15151515151515066 0.9595959595959602,-0.15151515151515066 0.8585858585858596,-0.15151515151515066 0.7575757575757579,-0.15151515151515066 0.6565656565656574,-0.15151515151515066 0.5555555555555567,-0.15151515151515066 0.4545454545454551,-0.15151515151515066 0.3535353535353544,-0.15151515151515066 0.2525252525252529,-0.15151515151515066 0.1515151515151522,-0.15151515151515066 0.050505050505051545,-0.15151515151515066 -0.05050505050505001,-0.15151515151515066 -0.15151515151515066,-0.15151515151515066 -0.2525252525252522,-0.15151515151515066 -0.35353535353535287,-0.15151515151515066 -0.4545454545454544,-0.15151515151515066 -0.555555555555555,-0.15151515151515066 -0.6565656565656557,-0.15151515151515066 -0.7575757575757572,-0.15151515151515066 -0.8585858585858579,-0.15151515151515066 -0.9595959595959596,-0.15151515151515066 -1.0606060606060603,-0.15151515151515066 -1.1616161616161613,-0.15151515151515066 -1.2626262626262625,-0.15151515151515066 -1.363636363636363,-0.15151515151515066 -1.4646464646464643,-0.15151515151515066 -1.5656565656565653,-0.15151515151515066 -1.6666666666666665,-0.15151515151515066 -1.7676767676767675,-0.15151515151515066 -1.8686868686868683,-0.15151515151515066 -1.9696969696969693,-0.15151515151515066 -2.07070707070707,-0.15151515151515066 -2.1717171717171713,-0.15151515151515066 -2.2727272727272725,-0.15151515151515066 -2.3737373737373733,-0.15151515151515066 -2.474747474747474,-0.15151515151515066 -2.5757575757575752,-0.15151515151515066 -2.6767676767676765,-0.15151515151515066 -2.7777777777777777,-0.15151515151515066 -2.8787878787878785,-0.15151515151515066 -2.9797979797979792,-0.15151515151515066 -3.0808080808080804,-0.15151515151515066 -3.1818181818181817,-0.15151515151515066 -3.2828282828282824,-0.15151515151515066 -3.383838383838383,-0.15151515151515066 -3.484848484848485,-0.15151515151515066 -3.5858585858585856,-0.15151515151515066 -3.6868686868686864,-0.15151515151515066 -3.7878787878787876,-0.15151515151515066 -3.8888888888888884,-0.15151515151515066 -3.98989898989899,-0.15151515151515066" data-type="line" data-label="" points="984,488.1616161616163 974.4646464646464,497.69696969696975 964.9292929292927,507.23232323232327 955.3939393939393,516.7676767676768 945.8585858585857,526.3030303030304 936.3232323232323,526.3030303030304 926.7878787878785,526.3030303030304 917.2525252525251,526.3030303030304 907.7171717171716,526.3030303030304 898.181818181818,526.3030303030304 888.6464646464647,526.3030303030304 879.111111111111,526.3030303030304 869.5757575757575,526.3030303030304 860.0404040404039,526.3030303030304 850.5050505050505,526.3030303030304 840.969696969697,526.3030303030304 831.4343434343433,526.3030303030304 821.8989898989898,526.3030303030304 812.3636363636363,526.3030303030304 802.8282828282828,526.3030303030304 793.2929292929292,526.3030303030304 783.7575757575758,526.3030303030304 774.2222222222222,526.3030303030304 764.6868686868686,526.3030303030304 755.1515151515151,526.3030303030304 745.6161616161615,526.3030303030304 736.0808080808081,526.3030303030304 726.5454545454545,526.3030303030304 717.0101010101009,526.3030303030304 707.4747474747475,526.3030303030304 697.9393939393939,526.3030303030304 688.4040404040404,526.3030303030304 678.8686868686868,526.3030303030304 669.3333333333333,526.3030303030304 659.7979797979798,526.3030303030304 650.2626262626262,526.3030303030304 640.7272727272727,526.3030303030304 631.1919191919192,526.3030303030304 621.6565656565656,526.3030303030304 612.1212121212121,526.3030303030304 602.5858585858585,526.3030303030304 593.0505050505051,526.3030303030304 583.5151515151515,526.3030303030304 573.9797979797979,526.3030303030304 564.4444444444445,526.3030303030304 554.9090909090909,526.3030303030304 545.3737373737374,526.3030303030304 535.8383838383838,526.3030303030304 526.3030303030303,526.3030303030304 516.7676767676768,526.3030303030304 507.2323232323232,526.3030303030304 497.69696969696975,526.3030303030304 488.16161616161617,526.3030303030304 478.62626262626264,526.3030303030304 469.09090909090907,526.3030303030304 459.55555555555554,526.3030303030304 450.0202020202021,526.3030303030304 440.4848484848485,526.3030303030304 430.949494949495,526.3030303030304 421.4141414141414,526.3030303030304 411.8787878787879,526.3030303030304 402.34343434343435,526.3030303030304 392.80808080808083,526.3030303030304 383.2727272727273,526.3030303030304 373.7373737373738,526.3030303030304 364.2020202020202,526.3030303030304 354.6666666666667,526.3030303030304 345.13131313131316,526.3030303030304 335.59595959595964,526.3030303030304 326.0606060606061,526.3030303030304 316.5252525252526,526.3030303030304 306.9898989898991,526.3030303030304 297.4545454545455,526.3030303030304 287.91919191919203,526.3030303030304 278.38383838383845,526.3030303030304 268.84848484848493,526.3030303030304 259.3131313131314,526.3030303030304 249.77777777777783,526.3030303030304 240.2424242424243,526.3030303030304 230.70707070707084,526.3030303030304 221.17171717171726,526.3030303030304 211.63636363636374,526.3030303030304 202.10101010101022,526.3030303030304 192.5656565656567,526.3030303030304 183.03030303030312,526.3030303030304 173.4949494949496,526.3030303030304 163.95959595959607,526.3030303030304 154.42424242424255,526.3030303030304 144.88888888888903,526.3030303030304 135.35353535353545,526.3030303030304" fill="none" stroke="rgba(0,0,255,0.75)" stroke-width="14.159999999999995"/></g><g><polyline data-points="-3.98989898989899,-0.15151515151515066 -4.090909090909091,-0.15151515151515066 -4.191919191919193,-0.15151515151515066 -4.292929292929293,-0.15151515151515066 -4.393939393939394,-0.15151515151515066 -4.494949494949496,-0.15151515151515066 -4.595959595959596,-0.15151515151515066 -4.696969696969697,-0.15151515151515066 -4.7979797979797985,-0.15151515151515066 -4.898989898989899,-0.15151515151515066 -5.000000000000001,-0.15151515151515066" data-type="line" data-label="" points="135.35353535353545,526.3030303030304 125.81818181818193,526.3030303030304 116.28282828282829,526.3030303030304 106.74747474747483,526.3030303030304 97.21212121212136,526.3030303030304 87.67676767676772,526.3030303030304 78.14141414141426,526.3030303030304 68.60606060606068,526.3030303030304 59.07070707070716,526.3030303030304 49.53535353535369,526.3030303030304 40.00000000000006,526.3030303030304" fill="none" stroke="rgba(255,0,0,0.75)" stroke-width="14.159999999999995"/></g><g><polyline data-points="-2.8787878787878785,-5.000000000000001 -2.7777777777777777,-4.898989898989899 -2.6767676767676765,-4.7979797979797985 -2.5757575757575752,-4.696969696969697 -2.474747474747474,-4.595959595959596 -2.3737373737373733,-4.494949494949496 -2.2727272727272725,-4.393939393939394 -2.1717171717171713,-4.292929292929293 -2.07070707070707,-4.191919191919193 -1.9696969696969693,-4.090909090909091 -1.8686868686868683,-3.98989898989899 -1.7676767676767675,-3.8888888888888884 -1.6666666666666665,-3.7878787878787876 -1.5656565656565653,-3.6868686868686864 -1.4646464646464643,-3.5858585858585856 -1.363636363636363,-3.484848484848485 -1.2626262626262625,-3.383838383838383 -1.1616161616161613,-3.2828282828282824 -1.0606060606060603,-3.1818181818181817 -0.9595959595959596,-3.0808080808080804 -0.8585858585858579,-2.9797979797979792 -0.7575757575757572,-2.8787878787878785 -0.6565656565656557,-2.7777777777777777 -0.555555555555555,-2.6767676767676765 -0.4545454545454544,-2.5757575757575752 -0.35353535353535287,-2.474747474747474 -0.2525252525252522,-2.3737373737373733 -0.15151515151515066,-2.2727272727272725 -0.05050505050505001,-2.1717171717171713 0.050505050505051545,-2.07070707070707 0.1515151515151522,-1.9696969696969693 0.2525252525252529,-1.8686868686868683 0.3535353535353544,-1.7676767676767675 0.4545454545454551,-1.6666666666666665 0.5555555555555567,-1.5656565656565653 0.6565656565656574,-1.4646464646464643 0.7575757575757579,-1.363636363636363 0.8585858585858596,-1.2626262626262625 0.9595959595959602,-1.1616161616161613 1.0606060606060617,-1.0606060606060603 1.1616161616161622,-0.9595959595959596 1.262626262626263,-0.8585858585858579 1.3636363636363644,-0.7575757575757572 1.4646464646464652,-0.7575757575757572 1.5656565656565666,-0.7575757575757572 1.6666666666666674,-0.7575757575757572 1.767676767676768,-0.7575757575757572 1.8686868686868696,-0.7575757575757572 1.9696969696969702,-0.7575757575757572 2.070707070707072,-0.7575757575757572 2.1717171717171726,-0.7575757575757572 2.2727272727272734,-0.7575757575757572 2.373737373737375,-0.7575757575757572 2.4747474747474754,-0.7575757575757572 2.575757575757577,-0.7575757575757572 2.676767676767678,-0.7575757575757572 2.7777777777777786,-0.7575757575757572 2.87878787878788,-0.7575757575757572 2.9797979797979806,-0.7575757575757572 3.080808080808082,-0.7575757575757572 3.181818181818183,-0.7575757575757572 3.2828282828282833,-0.7575757575757572 3.383838383838384,-0.7575757575757572 3.4848484848484866,-0.7575757575757572 3.5858585858585874,-0.7575757575757572 3.6868686868686877,-0.7575757575757572 3.7878787878787885,-0.7575757575757572 3.8888888888888893,-0.7575757575757572" data-type="line" data-label="" points="240.2424242424243,984 249.77777777777783,974.4646464646464 259.3131313131314,964.9292929292928 268.84848484848493,955.3939393939394 278.38383838383845,945.8585858585858 287.91919191919203,936.3232323232323 297.4545454545455,926.7878787878788 306.9898989898991,917.2525252525252 316.5252525252526,907.7171717171718 326.0606060606061,898.1818181818181 335.59595959595964,888.6464646464647 345.13131313131316,879.1111111111111 354.6666666666667,869.5757575757575 364.2020202020202,860.0404040404039 373.7373737373738,850.5050505050505 383.2727272727273,840.969696969697 392.80808080808083,831.4343434343434 402.34343434343435,821.8989898989898 411.8787878787879,812.3636363636363 421.4141414141414,802.8282828282828 430.949494949495,793.2929292929292 440.4848484848485,783.7575757575758 450.0202020202021,774.2222222222222 459.55555555555554,764.6868686868687 469.09090909090907,755.1515151515151 478.62626262626264,745.6161616161615 488.16161616161617,736.0808080808081 497.69696969696975,726.5454545454545 507.2323232323232,717.010101010101 516.7676767676768,707.4747474747475 526.3030303030303,697.939393939394 535.8383838383838,688.4040404040404 545.3737373737374,678.8686868686868 554.9090909090909,669.3333333333334 564.4444444444445,659.7979797979798 573.9797979797979,650.2626262626263 583.5151515151515,640.7272727272727 593.0505050505051,631.1919191919193 602.5858585858585,621.6565656565657 612.1212121212121,612.1212121212121 621.6565656565656,602.5858585858587 631.1919191919192,593.0505050505051 640.7272727272727,583.5151515151516 650.2626262626262,583.5151515151516 659.7979797979798,583.5151515151516 669.3333333333333,583.5151515151516 678.8686868686868,583.5151515151516 688.4040404040404,583.5151515151516 697.9393939393939,583.5151515151516 707.4747474747475,583.5151515151516 717.0101010101009,583.5151515151516 726.5454545454545,583.5151515151516 736.0808080808081,583.5151515151516 745.6161616161615,583.5151515151516 755.1515151515151,583.5151515151516 764.6868686868686,583.5151515151516 774.2222222222222,583.5151515151516 783.7575757575758,583.5151515151516 793.2929292929292,583.5151515151516 802.8282828282828,583.5151515151516 812.3636363636363,583.5151515151516 821.8989898989898,583.5151515151516 831.4343434343433,583.5151515151516 840.969696969697,583.5151515151516 850.5050505050505,583.5151515151516 860.0404040404039,583.5151515151516 869.5757575757575,583.5151515151516 879.111111111111,583.5151515151516" fill="none" stroke="rgba(0,0,255,0.75)" stroke-width="14.159999999999995"/></g><g><polyline data-points="3.8888888888888893,-0.7575757575757572 3.989898989898992,-0.6565656565656557 4.090909090909092,-0.555555555555555 4.191919191919193,-0.4545454545454544 4.292929292929293,-0.35353535353535287 4.393939393939394,-0.2525252525252522 4.494949494949497,-0.15151515151515066 4.595959595959597,-0.05050505050505001 4.696969696969697,0.050505050505051545 4.7979797979797985,0.1515151515151522 4.898989898989901,0.2525252525252529 4.898989898989901,0.3535353535353544 4.898989898989901,0.4545454545454551 4.898989898989901,0.5555555555555567 4.898989898989901,0.6565656565656574 4.898989898989901,0.7575757575757579 4.898989898989901,0.8585858585858596 4.898989898989901,0.9595959595959602 4.898989898989901,1.0606060606060617 4.898989898989901,1.1616161616161622 4.898989898989901,1.262626262626263 4.898989898989901,1.3636363636363644 4.898989898989901,1.4646464646464652 4.898989898989901,1.5656565656565666 4.898989898989901,1.6666666666666674 4.898989898989901,1.767676767676768 4.898989898989901,1.8686868686868696 4.898989898989901,1.9696969696969702 4.898989898989901,2.070707070707072 4.898989898989901,2.1717171717171726 4.898989898989901,2.2727272727272734 4.898989898989901,2.373737373737375 4.898989898989901,2.4747474747474754 4.898989898989901,2.575757575757577 4.898989898989901,2.676767676767678 4.898989898989901,2.7777777777777786 4.898989898989901,2.87878787878788 4.898989898989901,2.9797979797979806 4.898989898989901,3.080808080808082 4.898989898989901,3.181818181818183 4.898989898989901,3.2828282828282833 4.898989898989901,3.383838383838384 4.898989898989901,3.4848484848484866 4.898989898989901,3.5858585858585874 4.898989898989901,3.6868686868686877 4.898989898989901,3.7878787878787885 4.898989898989901,3.8888888888888893 4.898989898989901,3.989898989898992 4.898989898989901,4.090909090909092 4.898989898989901,4.191919191919193 4.898989898989901,4.292929292929293 4.898989898989901,4.393939393939394 4.898989898989901,4.494949494949497 4.898989898989901,4.595959595959597 4.898989898989901,4.696969696969697 4.898989898989901,4.7979797979797985 4.898989898989901,4.898989898989901 4.898989898989901,5.000000000000002" data-type="line" data-label="" points="879.111111111111,583.5151515151516 888.6464646464647,573.979797979798 898.181818181818,564.4444444444445 907.7171717171716,554.909090909091 917.2525252525251,545.3737373737374 926.7878787878785,535.838383838384 936.3232323232323,526.3030303030304 945.8585858585857,516.7676767676768 955.3939393939393,507.23232323232327 964.9292929292927,497.69696969696975 974.4646464646464,488.1616161616163 974.4646464646464,478.6262626262627 974.4646464646464,469.0909090909092 974.4646464646464,459.5555555555556 974.4646464646464,450.0202020202021 974.4646464646464,440.4848484848486 974.4646464646464,430.94949494949503 974.4646464646464,421.4141414141415 974.4646464646464,411.87878787878793 974.4646464646464,402.3434343434344 974.4646464646464,392.80808080808094 974.4646464646464,383.27272727272737 974.4646464646464,373.73737373737384 974.4646464646464,364.2020202020203 974.4646464646464,354.66666666666674 974.4646464646464,345.1313131313133 974.4646464646464,335.5959595959597 974.4646464646464,326.06060606060623 974.4646464646464,316.5252525252526 974.4646464646464,306.9898989898991 974.4646464646464,297.4545454545456 974.4646464646464,287.91919191919203 974.4646464646464,278.38383838383857 974.4646464646464,268.84848484848493 974.4646464646464,259.3131313131314 974.4646464646464,249.77777777777794 974.4646464646464,240.24242424242436 974.4646464646464,230.70707070707084 974.4646464646464,221.17171717171726 974.4646464646464,211.63636363636374 974.4646464646464,202.10101010101027 974.4646464646464,192.56565656565675 974.4646464646464,183.03030303030312 974.4646464646464,173.4949494949496 974.4646464646464,163.95959595959613 974.4646464646464,154.4242424242426 974.4646464646464,144.88888888888908 974.4646464646464,135.35353535353545 974.4646464646464,125.81818181818198 974.4646464646464,116.28282828282846 974.4646464646464,106.747474747475 974.4646464646464,97.21212121212153 974.4646464646464,87.67676767676778 974.4646464646464,78.14141414141432 974.4646464646464,68.60606060606085 974.4646464646464,59.07070707070733 974.4646464646464,49.53535353535369 974.4646464646464,40.000000000000114" fill="none" stroke="rgba(255,0,0,0.75)" stroke-width="14.159999999999995"/></g><g><polyline data-points="-4.595959595959596,5.000000000000002 -4.595959595959596,4.898989898989901 -4.595959595959596,4.7979797979797985 -4.595959595959596,4.696969696969697 -4.595959595959596,4.595959595959597 -4.595959595959596,4.494949494949497 -4.595959595959596,4.393939393939394 -4.595959595959596,4.292929292929293 -4.595959595959596,4.191919191919193 -4.595959595959596,4.090909090909092 -4.595959595959596,3.989898989898992 -4.595959595959596,3.8888888888888893 -4.494949494949496,3.7878787878787885 -4.393939393939394,3.6868686868686877 -4.292929292929293,3.5858585858585874 -4.191919191919193,3.4848484848484866 -4.090909090909091,3.383838383838384 -3.98989898989899,3.2828282828282833" data-type="line" data-label="" points="78.14141414141426,40.000000000000114 78.14141414141426,49.53535353535369 78.14141414141426,59.07070707070733 78.14141414141426,68.60606060606085 78.14141414141426,78.14141414141432 78.14141414141426,87.67676767676778 78.14141414141426,97.21212121212153 78.14141414141426,106.747474747475 78.14141414141426,116.28282828282846 78.14141414141426,125.81818181818198 78.14141414141426,135.35353535353545 78.14141414141426,144.88888888888908 87.67676767676772,154.4242424242426 97.21212121212136,163.95959595959613 106.74747474747483,173.4949494949496 116.28282828282829,183.03030303030312 125.81818181818193,192.56565656565675 135.35353535353545,202.10101010101027" fill="none" stroke="rgba(255,0,0,0.75)" stroke-width="14.159999999999995"/></g><g><polyline data-points="-3.98989898989899,3.2828282828282833 -4.090909090909091,3.181818181818183 -4.191919191919193,3.080808080808082 -4.292929292929293,2.9797979797979806 -4.393939393939394,2.87878787878788 -4.494949494949496,2.7777777777777786 -4.494949494949496,2.676767676767678 -4.494949494949496,2.575757575757577 -4.494949494949496,2.4747474747474754 -4.494949494949496,2.373737373737375 -4.494949494949496,2.2727272727272734 -4.494949494949496,2.1717171717171726 -4.494949494949496,2.070707070707072 -4.494949494949496,1.9696969696969702 -4.494949494949496,1.8686868686868696 -4.494949494949496,1.767676767676768 -4.494949494949496,1.6666666666666674 -4.494949494949496,1.5656565656565666 -4.494949494949496,1.4646464646464652 -4.494949494949496,1.3636363636363644 -4.494949494949496,1.262626262626263 -4.494949494949496,1.1616161616161622 -4.494949494949496,1.0606060606060617 -4.494949494949496,0.9595959595959602 -4.494949494949496,0.8585858585858596 -4.494949494949496,0.7575757575757579 -4.494949494949496,0.6565656565656574 -4.494949494949496,0.5555555555555567 -4.494949494949496,0.4545454545454551 -4.494949494949496,0.3535353535353544 -4.494949494949496,0.2525252525252529 -4.494949494949496,0.1515151515151522 -4.494949494949496,0.050505050505051545 -4.494949494949496,-0.05050505050505001 -4.494949494949496,-0.15151515151515066 -4.494949494949496,-0.2525252525252522 -4.494949494949496,-0.35353535353535287 -4.494949494949496,-0.4545454545454544 -4.494949494949496,-0.555555555555555 -4.494949494949496,-0.6565656565656557 -4.494949494949496,-0.7575757575757572 -4.494949494949496,-0.8585858585858579 -4.494949494949496,-0.9595959595959596 -4.494949494949496,-1.0606060606060603 -4.494949494949496,-1.1616161616161613 -4.494949494949496,-1.2626262626262625 -4.494949494949496,-1.363636363636363 -4.494949494949496,-1.4646464646464643 -4.494949494949496,-1.5656565656565653 -4.494949494949496,-1.6666666666666665 -4.494949494949496,-1.7676767676767675 -4.494949494949496,-1.8686868686868683 -4.494949494949496,-1.9696969696969693 -4.494949494949496,-2.07070707070707 -4.494949494949496,-2.1717171717171713 -4.494949494949496,-2.2727272727272725 -4.494949494949496,-2.3737373737373733 -4.494949494949496,-2.474747474747474 -4.494949494949496,-2.5757575757575752 -4.494949494949496,-2.6767676767676765 -4.494949494949496,-2.7777777777777777 -4.494949494949496,-2.8787878787878785 -4.494949494949496,-2.9797979797979792 -4.494949494949496,-3.0808080808080804 -4.494949494949496,-3.1818181818181817 -4.494949494949496,-3.2828282828282824 -4.393939393939394,-3.383838383838383 -4.292929292929293,-3.484848484848485 -4.191919191919193,-3.5858585858585856 -4.090909090909091,-3.6868686868686864 -3.98989898989899,-3.7878787878787876" data-type="line" data-label="" points="135.35353535353545,202.10101010101027 125.81818181818193,211.63636363636374 116.28282828282829,221.17171717171726 106.74747474747483,230.70707070707084 97.21212121212136,240.24242424242436 87.67676767676772,249.77777777777794 87.67676767676772,259.3131313131314 87.67676767676772,268.84848484848493 87.67676767676772,278.38383838383857 87.67676767676772,287.91919191919203 87.67676767676772,297.4545454545456 87.67676767676772,306.9898989898991 87.67676767676772,316.5252525252526 87.67676767676772,326.06060606060623 87.67676767676772,335.5959595959597 87.67676767676772,345.1313131313133 87.67676767676772,354.66666666666674 87.67676767676772,364.2020202020203 87.67676767676772,373.73737373737384 87.67676767676772,383.27272727272737 87.67676767676772,392.80808080808094 87.67676767676772,402.3434343434344 87.67676767676772,411.87878787878793 87.67676767676772,421.4141414141415 87.67676767676772,430.94949494949503 87.67676767676772,440.4848484848486 87.67676767676772,450.0202020202021 87.67676767676772,459.5555555555556 87.67676767676772,469.0909090909092 87.67676767676772,478.6262626262627 87.67676767676772,488.1616161616163 87.67676767676772,497.69696969696975 87.67676767676772,507.23232323232327 87.67676767676772,516.7676767676768 87.67676767676772,526.3030303030304 87.67676767676772,535.838383838384 87.67676767676772,545.3737373737374 87.67676767676772,554.909090909091 87.67676767676772,564.4444444444445 87.67676767676772,573.979797979798 87.67676767676772,583.5151515151516 87.67676767676772,593.0505050505051 87.67676767676772,602.5858585858587 87.67676767676772,612.1212121212121 87.67676767676772,621.6565656565657 87.67676767676772,631.1919191919193 87.67676767676772,640.7272727272727 87.67676767676772,650.2626262626263 87.67676767676772,659.7979797979798 87.67676767676772,669.3333333333334 87.67676767676772,678.8686868686868 87.67676767676772,688.4040404040404 87.67676767676772,697.939393939394 87.67676767676772,707.4747474747475 87.67676767676772,717.010101010101 87.67676767676772,726.5454545454545 87.67676767676772,736.0808080808081 87.67676767676772,745.6161616161615 87.67676767676772,755.1515151515151 87.67676767676772,764.6868686868687 87.67676767676772,774.2222222222222 87.67676767676772,783.7575757575758 87.67676767676772,793.2929292929292 87.67676767676772,802.8282828282828 87.67676767676772,812.3636363636363 87.67676767676772,821.8989898989898 97.21212121212136,831.4343434343434 106.74747474747483,840.969696969697 116.28282828282829,850.5050505050505 125.81818181818193,860.0404040404039 135.35353535353545,869.5757575757575" fill="none" stroke="rgba(0,0,255,0.75)" stroke-width="14.159999999999995"/></g><g><polyline data-points="-3.98989898989899,-3.7878787878787876 -4.090909090909091,-3.8888888888888884 -4.191919191919193,-3.98989898989899 -4.292929292929293,-4.090909090909091 -4.393939393939394,-4.191919191919193 -4.494949494949496,-4.292929292929293 -4.595959595959596,-4.393939393939394 -4.696969696969697,-4.494949494949496 -4.7979797979797985,-4.595959595959596 -4.898989898989899,-4.696969696969697 -4.898989898989899,-4.7979797979797985 -4.898989898989899,-4.898989898989899 -4.898989898989899,-5.000000000000001" data-type="line" data-label="" points="135.35353535353545,869.5757575757575 125.81818181818193,879.1111111111111 116.28282828282829,888.6464646464647 106.74747474747483,898.1818181818181 97.21212121212136,907.7171717171718 87.67676767676772,917.2525252525252 78.14141414141426,926.7878787878788 68.60606060606068,936.3232323232323 59.07070707070716,945.8585858585858 49.53535353535369,955.3939393939394 49.53535353535369,964.9292929292928 49.53535353535369,974.4646464646464 49.53535353535369,984" fill="none" stroke="rgba(255,0,0,0.75)" stroke-width="14.159999999999995"/></g><g><polyline data-points="-5.000000000000001,-1.4646464646464643 -5.000000000000001,-1.5656565656565653 -5.000000000000001,-1.6666666666666665 -4.898989898989899,-1.7676767676767675 -4.7979797979797985,-1.8686868686868683 -4.696969696969697,-1.9696969696969693 -4.696969696969697,-2.07070707070707 -4.595959595959596,-2.1717171717171713 -4.494949494949496,-2.2727272727272725 -4.393939393939394,-2.3737373737373733 -4.292929292929293,-2.474747474747474 -4.191919191919193,-2.5757575757575752 -4.090909090909091,-2.6767676767676765 -3.98989898989899,-2.7777777777777777 -3.8888888888888884,-2.8787878787878785 -3.7878787878787876,-2.9797979797979792" data-type="line" data-label="" points="40.00000000000006,650.2626262626263 40.00000000000006,659.7979797979798 40.00000000000006,669.3333333333334 49.53535353535369,678.8686868686868 59.07070707070716,688.4040404040404 68.60606060606068,697.939393939394 68.60606060606068,707.4747474747475 78.14141414141426,717.010101010101 87.67676767676772,726.5454545454545 97.21212121212136,736.0808080808081 106.74747474747483,745.6161616161615 116.28282828282829,755.1515151515151 125.81818181818193,764.6868686868687 135.35353535353545,774.2222222222222 144.88888888888903,783.7575757575758 154.42424242424255,793.2929292929292" fill="none" stroke="rgba(255,0,0,0.75)" stroke-width="14.159999999999995"/></g><g><polyline data-points="-3.7878787878787876,-2.9797979797979792 -3.7878787878787876,-3.0808080808080804 -3.7878787878787876,-3.1818181818181817 -3.7878787878787876,-3.2828282828282824 -3.7878787878787876,-3.383838383838383 -3.6868686868686864,-3.484848484848485 -3.5858585858585856,-3.5858585858585856 -3.5858585858585856,-3.6868686868686864 -3.484848484848485,-3.7878787878787876 -3.5858585858585856,-3.8888888888888884 -3.5858585858585856,-3.98989898989899 -3.6868686868686864,-4.090909090909091 -3.7878787878787876,-4.191919191919193 -3.8888888888888884,-4.191919191919193 -3.98989898989899,-4.292929292929293 -4.090909090909091,-4.191919191919193 -4.191919191919193,-4.191919191919193 -4.292929292929293,-4.191919191919193 -4.393939393939394,-4.191919191919193 -4.494949494949496,-4.191919191919193 -4.595959595959596,-4.191919191919193 -4.696969696969697,-4.191919191919193 -4.7979797979797985,-4.191919191919193 -4.898989898989899,-4.191919191919193 -5.000000000000001,-4.191919191919193" data-type="line" data-label="" points="154.42424242424255,793.2929292929292 154.42424242424255,802.8282828282828 154.42424242424255,812.3636363636363 154.42424242424255,821.8989898989898 154.42424242424255,831.4343434343434 163.95959595959607,840.969696969697 173.4949494949496,850.5050505050505 173.4949494949496,860.0404040404039 183.03030303030312,869.5757575757575 173.4949494949496,879.1111111111111 173.4949494949496,888.6464646464647 163.95959595959607,898.1818181818181 154.42424242424255,907.7171717171718 144.88888888888903,907.7171717171718 135.35353535353545,917.2525252525252 125.81818181818193,907.7171717171718 116.28282828282829,907.7171717171718 106.74747474747483,907.7171717171718 97.21212121212136,907.7171717171718 87.67676767676772,907.7171717171718 78.14141414141426,907.7171717171718 68.60606060606068,907.7171717171718 59.07070707070716,907.7171717171718 49.53535353535369,907.7171717171718 40.00000000000006,907.7171717171718" fill="none" stroke="rgba(0,0,255,0.75)" stroke-width="14.159999999999995"/></g><g><polyline data-points="2.070707070707072,5.000000000000002 1.9696969696969702,4.898989898989901 1.8686868686868696,4.7979797979797985 1.767676767676768,4.696969696969697 1.6666666666666674,4.595959595959597 1.5656565656565666,4.494949494949497 1.4646464646464652,4.393939393939394 1.3636363636363644,4.292929292929293 1.262626262626263,4.191919191919193 1.1616161616161622,4.090909090909092 1.0606060606060617,3.989898989898992 0.9595959595959602,3.8888888888888893 0.8585858585858596,3.7878787878787885 0.7575757575757579,3.6868686868686877 0.6565656565656574,3.5858585858585874 0.5555555555555567,3.4848484848484866" data-type="line" data-label="" points="707.4747474747475,40.000000000000114 697.9393939393939,49.53535353535369 688.4040404040404,59.07070707070733 678.8686868686868,68.60606060606085 669.3333333333333,78.14141414141432 659.7979797979798,87.67676767676778 650.2626262626262,97.21212121212153 640.7272727272727,106.747474747475 631.1919191919192,116.28282828282846 621.6565656565656,125.81818181818198 612.1212121212121,135.35353535353545 602.5858585858585,144.88888888888908 593.0505050505051,154.4242424242426 583.5151515151515,163.95959595959613 573.9797979797979,173.4949494949496 564.4444444444445,183.03030303030312" fill="none" stroke="rgba(255,0,0,0.75)" stroke-width="14.159999999999995"/></g><g><polyline data-points="0.5555555555555567,3.4848484848484866 0.4545454545454551,3.383838383838384 0.3535353535353544,3.2828282828282833 0.2525252525252529,3.181818181818183 0.1515151515151522,3.080808080808082 0.050505050505051545,2.9797979797979806 -0.05050505050505001,2.87878787878788 -0.15151515151515066,2.7777777777777786 -0.2525252525252522,2.676767676767678 -0.35353535353535287,2.575757575757577 -0.4545454545454544,2.4747474747474754 -0.555555555555555,2.373737373737375 -0.6565656565656557,2.2727272727272734 -0.7575757575757572,2.1717171717171726 -0.8585858585858579,2.070707070707072 -0.9595959595959596,1.9696969696969702 -1.0606060606060603,1.8686868686868696 -1.0606060606060603,1.767676767676768 -1.0606060606060603,1.6666666666666674 -1.0606060606060603,1.5656565656565666 -1.0606060606060603,1.4646464646464652 -1.0606060606060603,1.3636363636363644 -1.0606060606060603,1.262626262626263 -1.0606060606060603,1.1616161616161622 -1.0606060606060603,1.0606060606060617 -1.0606060606060603,0.9595959595959602 -1.0606060606060603,0.8585858585858596 -1.0606060606060603,0.7575757575757579 -1.0606060606060603,0.6565656565656574 -1.0606060606060603,0.5555555555555567 -1.0606060606060603,0.4545454545454551" data-type="line" data-label="" points="564.4444444444445,183.03030303030312 554.9090909090909,192.56565656565675 545.3737373737374,202.10101010101027 535.8383838383838,211.63636363636374 526.3030303030303,221.17171717171726 516.7676767676768,230.70707070707084 507.2323232323232,240.24242424242436 497.69696969696975,249.77777777777794 488.16161616161617,259.3131313131314 478.62626262626264,268.84848484848493 469.09090909090907,278.38383838383857 459.55555555555554,287.91919191919203 450.0202020202021,297.4545454545456 440.4848484848485,306.9898989898991 430.949494949495,316.5252525252526 421.4141414141414,326.06060606060623 411.8787878787879,335.5959595959597 411.8787878787879,345.1313131313133 411.8787878787879,354.66666666666674 411.8787878787879,364.2020202020203 411.8787878787879,373.73737373737384 411.8787878787879,383.27272727272737 411.8787878787879,392.80808080808094 411.8787878787879,402.3434343434344 411.8787878787879,411.87878787878793 411.8787878787879,421.4141414141415 411.8787878787879,430.94949494949503 411.8787878787879,440.4848484848486 411.8787878787879,450.0202020202021 411.8787878787879,459.5555555555556 411.8787878787879,469.0909090909092" fill="none" stroke="rgba(0,0,255,0.75)" stroke-width="14.159999999999995"/></g><g><polyline data-points="-1.0606060606060603,0.4545454545454551 -1.0606060606060603,0.3535353535353544 -1.0606060606060603,0.2525252525252529 -1.0606060606060603,0.1515151515151522 -1.0606060606060603,0.050505050505051545 -1.0606060606060603,-0.05050505050505001 -1.0606060606060603,-0.15151515151515066 -1.0606060606060603,-0.2525252525252522 -1.0606060606060603,-0.35353535353535287 -1.0606060606060603,-0.4545454545454544 -1.0606060606060603,-0.555555555555555 -1.0606060606060603,-0.6565656565656557 -1.0606060606060603,-0.7575757575757572 -1.0606060606060603,-0.8585858585858579 -1.0606060606060603,-0.9595959595959596 -1.0606060606060603,-1.0606060606060603 -1.0606060606060603,-1.1616161616161613 -1.0606060606060603,-1.2626262626262625 -1.0606060606060603,-1.363636363636363 -1.0606060606060603,-1.4646464646464643 -1.0606060606060603,-1.5656565656565653 -1.0606060606060603,-1.6666666666666665 -1.0606060606060603,-1.7676767676767675 -1.0606060606060603,-1.8686868686868683 -1.0606060606060603,-1.9696969696969693 -1.0606060606060603,-2.07070707070707 -1.0606060606060603,-2.1717171717171713 -1.0606060606060603,-2.2727272727272725 -1.0606060606060603,-2.3737373737373733 -1.0606060606060603,-2.474747474747474 -1.0606060606060603,-2.5757575757575752 -1.0606060606060603,-2.6767676767676765 -1.0606060606060603,-2.7777777777777777 -1.0606060606060603,-2.8787878787878785 -1.0606060606060603,-2.9797979797979792 -1.0606060606060603,-3.0808080808080804 -1.0606060606060603,-3.1818181818181817 -1.0606060606060603,-3.2828282828282824 -1.0606060606060603,-3.383838383838383 -1.0606060606060603,-3.484848484848485 -1.0606060606060603,-3.5858585858585856 -1.0606060606060603,-3.6868686868686864 -1.0606060606060603,-3.7878787878787876 -1.0606060606060603,-3.8888888888888884 -1.0606060606060603,-3.98989898989899" data-type="line" data-label="" points="411.8787878787879,469.0909090909092 411.8787878787879,478.6262626262627 411.8787878787879,488.1616161616163 411.8787878787879,497.69696969696975 411.8787878787879,507.23232323232327 411.8787878787879,516.7676767676768 411.8787878787879,526.3030303030304 411.8787878787879,535.838383838384 411.8787878787879,545.3737373737374 411.8787878787879,554.909090909091 411.8787878787879,564.4444444444445 411.8787878787879,573.979797979798 411.8787878787879,583.5151515151516 411.8787878787879,593.0505050505051 411.8787878787879,602.5858585858587 411.8787878787879,612.1212121212121 411.8787878787879,621.6565656565657 411.8787878787879,631.1919191919193 411.8787878787879,640.7272727272727 411.8787878787879,650.2626262626263 411.8787878787879,659.7979797979798 411.8787878787879,669.3333333333334 411.8787878787879,678.8686868686868 411.8787878787879,688.4040404040404 411.8787878787879,697.939393939394 411.8787878787879,707.4747474747475 411.8787878787879,717.010101010101 411.8787878787879,726.5454545454545 411.8787878787879,736.0808080808081 411.8787878787879,745.6161616161615 411.8787878787879,755.1515151515151 411.8787878787879,764.6868686868687 411.8787878787879,774.2222222222222 411.8787878787879,783.7575757575758 411.8787878787879,793.2929292929292 411.8787878787879,802.8282828282828 411.8787878787879,812.3636363636363 411.8787878787879,821.8989898989898 411.8787878787879,831.4343434343434 411.8787878787879,840.969696969697 411.8787878787879,850.5050505050505 411.8787878787879,860.0404040404039 411.8787878787879,869.5757575757575 411.8787878787879,879.1111111111111 411.8787878787879,888.6464646464647" fill="none" stroke="rgba(255,0,0,0.75)" stroke-width="14.159999999999995"/></g><g><polyline data-points="-1.0606060606060603,-3.98989898989899 -1.1616161616161613,-4.090909090909091 -1.2626262626262625,-4.191919191919193 -1.363636363636363,-4.292929292929293 -1.4646464646464643,-4.393939393939394 -1.5656565656565653,-4.494949494949496 -1.6666666666666665,-4.595959595959596 -1.6666666666666665,-4.696969696969697 -1.6666666666666665,-4.7979797979797985 -1.6666666666666665,-4.898989898989899 -1.6666666666666665,-5.000000000000001" data-type="line" data-label="" points="411.8787878787879,888.6464646464647 402.34343434343435,898.1818181818181 392.80808080808083,907.7171717171718 383.2727272727273,917.2525252525252 373.7373737373738,926.7878787878788 364.2020202020202,936.3232323232323 354.6666666666667,945.8585858585858 354.6666666666667,955.3939393939394 354.6666666666667,964.9292929292928 354.6666666666667,974.4646464646464 354.6666666666667,984" fill="none" stroke="rgba(0,0,255,0.75)" stroke-width="14.159999999999995"/></g><g><polyline data-points="-0.9595959595959596,5.000000000000002 -0.8585858585858579,4.898989898989901 -0.8585858585858579,4.7979797979797985 -0.8585858585858579,4.696969696969697 -0.8585858585858579,4.595959595959597 -0.8585858585858579,4.494949494949497 -0.8585858585858579,4.393939393939394 -0.8585858585858579,4.292929292929293 -0.8585858585858579,4.191919191919193 -0.9595959595959596,4.090909090909092 -0.9595959595959596,3.989898989898992 -0.8585858585858579,3.8888888888888893 -0.8585858585858579,3.7878787878787885 -0.7575757575757572,3.6868686868686877 -0.6565656565656557,3.5858585858585874 -0.555555555555555,3.4848484848484866 -0.4545454545454544,3.383838383838384 -0.35353535353535287,3.2828282828282833 -0.2525252525252522,3.181818181818183 -0.15151515151515066,3.080808080808082 -0.05050505050505001,2.9797979797979806 0.050505050505051545,2.87878787878788 0.1515151515151522,2.7777777777777786 0.2525252525252529,2.676767676767678 0.3535353535353544,2.575757575757577 0.4545454545454551,2.4747474747474754 0.5555555555555567,2.373737373737375 0.6565656565656574,2.2727272727272734 0.7575757575757579,2.1717171717171726 0.7575757575757579,2.070707070707072 0.7575757575757579,1.9696969696969702 0.7575757575757579,1.8686868686868696 0.7575757575757579,1.767676767676768 0.7575757575757579,1.6666666666666674 0.7575757575757579,1.5656565656565666 0.7575757575757579,1.4646464646464652 0.7575757575757579,1.3636363636363644 0.7575757575757579,1.262626262626263 0.7575757575757579,1.1616161616161622 0.7575757575757579,1.0606060606060617 0.7575757575757579,0.9595959595959602 0.7575757575757579,0.8585858585858596 0.7575757575757579,0.7575757575757579 0.7575757575757579,0.6565656565656574 0.7575757575757579,0.5555555555555567 0.7575757575757579,0.4545454545454551 0.7575757575757579,0.3535353535353544 0.7575757575757579,0.2525252525252529 0.7575757575757579,0.1515151515151522 0.7575757575757579,0.050505050505051545 0.7575757575757579,-0.05050505050505001 0.7575757575757579,-0.15151515151515066 0.7575757575757579,-0.2525252525252522 0.7575757575757579,-0.35353535353535287 0.7575757575757579,-0.4545454545454544 0.7575757575757579,-0.555555555555555 0.7575757575757579,-0.6565656565656557 0.7575757575757579,-0.7575757575757572 0.7575757575757579,-0.8585858585858579 0.7575757575757579,-0.9595959595959596 0.7575757575757579,-1.0606060606060603 0.7575757575757579,-1.1616161616161613 0.7575757575757579,-1.2626262626262625 0.7575757575757579,-1.363636363636363 0.7575757575757579,-1.4646464646464643 0.7575757575757579,-1.5656565656565653 0.7575757575757579,-1.6666666666666665 0.7575757575757579,-1.7676767676767675 0.7575757575757579,-1.8686868686868683 0.7575757575757579,-1.9696969696969693 0.7575757575757579,-2.07070707070707 0.7575757575757579,-2.1717171717171713 0.7575757575757579,-2.2727272727272725 0.7575757575757579,-2.3737373737373733 0.7575757575757579,-2.474747474747474 0.7575757575757579,-2.5757575757575752 0.7575757575757579,-2.6767676767676765 0.7575757575757579,-2.7777777777777777 0.7575757575757579,-2.8787878787878785 0.7575757575757579,-2.9797979797979792 0.7575757575757579,-3.0808080808080804 0.7575757575757579,-3.1818181818181817 0.7575757575757579,-3.2828282828282824 0.7575757575757579,-3.383838383838383 0.7575757575757579,-3.484848484848485 0.7575757575757579,-3.5858585858585856 0.7575757575757579,-3.6868686868686864 0.7575757575757579,-3.7878787878787876 0.7575757575757579,-3.8888888888888884 0.7575757575757579,-3.98989898989899 0.7575757575757579,-4.090909090909091 0.7575757575757579,-4.191919191919193 0.7575757575757579,-4.292929292929293 0.7575757575757579,-4.393939393939394 0.7575757575757579,-4.494949494949496 0.7575757575757579,-4.595959595959596 0.7575757575757579,-4.696969696969697 0.7575757575757579,-4.7979797979797985 0.7575757575757579,-4.898989898989899 0.7575757575757579,-5.000000000000001" data-type="line" data-label="" points="421.4141414141414,40.000000000000114 430.949494949495,49.53535353535369 430.949494949495,59.07070707070733 430.949494949495,68.60606060606085 430.949494949495,78.14141414141432 430.949494949495,87.67676767676778 430.949494949495,97.21212121212153 430.949494949495,106.747474747475 430.949494949495,116.28282828282846 421.4141414141414,125.81818181818198 421.4141414141414,135.35353535353545 430.949494949495,144.88888888888908 430.949494949495,154.4242424242426 440.4848484848485,163.95959595959613 450.0202020202021,173.4949494949496 459.55555555555554,183.03030303030312 469.09090909090907,192.56565656565675 478.62626262626264,202.10101010101027 488.16161616161617,211.63636363636374 497.69696969696975,221.17171717171726 507.2323232323232,230.70707070707084 516.7676767676768,240.24242424242436 526.3030303030303,249.77777777777794 535.8383838383838,259.3131313131314 545.3737373737374,268.84848484848493 554.9090909090909,278.38383838383857 564.4444444444445,287.91919191919203 573.9797979797979,297.4545454545456 583.5151515151515,306.9898989898991 583.5151515151515,316.5252525252526 583.5151515151515,326.06060606060623 583.5151515151515,335.5959595959597 583.5151515151515,345.1313131313133 583.5151515151515,354.66666666666674 583.5151515151515,364.2020202020203 583.5151515151515,373.73737373737384 583.5151515151515,383.27272727272737 583.5151515151515,392.80808080808094 583.5151515151515,402.3434343434344 583.5151515151515,411.87878787878793 583.5151515151515,421.4141414141415 583.5151515151515,430.94949494949503 583.5151515151515,440.4848484848486 583.5151515151515,450.0202020202021 583.5151515151515,459.5555555555556 583.5151515151515,469.0909090909092 583.5151515151515,478.6262626262627 583.5151515151515,488.1616161616163 583.5151515151515,497.69696969696975 583.5151515151515,507.23232323232327 583.5151515151515,516.7676767676768 583.5151515151515,526.3030303030304 583.5151515151515,535.838383838384 583.5151515151515,545.3737373737374 583.5151515151515,554.909090909091 583.5151515151515,564.4444444444445 583.5151515151515,573.979797979798 583.5151515151515,583.5151515151516 583.5151515151515,593.0505050505051 583.5151515151515,602.5858585858587 583.5151515151515,612.1212121212121 583.5151515151515,621.6565656565657 583.5151515151515,631.1919191919193 583.5151515151515,640.7272727272727 583.5151515151515,650.2626262626263 583.5151515151515,659.7979797979798 583.5151515151515,669.3333333333334 583.5151515151515,678.8686868686868 583.5151515151515,688.4040404040404 583.5151515151515,697.939393939394 583.5151515151515,707.4747474747475 583.5151515151515,717.010101010101 583.5151515151515,726.5454545454545 583.5151515151515,736.0808080808081 583.5151515151515,745.6161616161615 583.5151515151515,755.1515151515151 583.5151515151515,764.6868686868687 583.5151515151515,774.2222222222222 583.5151515151515,783.7575757575758 583.5151515151515,793.2929292929292 583.5151515151515,802.8282828282828 583.5151515151515,812.3636363636363 583.5151515151515,821.8989898989898 583.5151515151515,831.4343434343434 583.5151515151515,840.969696969697 583.5151515151515,850.5050505050505 583.5151515151515,860.0404040404039 583.5151515151515,869.5757575757575 583.5151515151515,879.1111111111111 583.5151515151515,888.6464646464647 583.5151515151515,898.1818181818181 583.5151515151515,907.7171717171718 583.5151515151515,917.2525252525252 583.5151515151515,926.7878787878788 583.5151515151515,936.3232323232323 583.5151515151515,945.8585858585858 583.5151515151515,955.3939393939394 583.5151515151515,964.9292929292928 583.5151515151515,974.4646464646464 583.5151515151515,984" fill="none" stroke="rgba(255,0,0,0.75)" stroke-width="14.159999999999995"/></g><g><polyline data-points="-3.7878787878787876,-5.000000000000001 -3.6868686868686864,-4.898989898989899 -3.5858585858585856,-4.7979797979797985 -3.484848484848485,-4.696969696969697 -3.383838383838383,-4.595959595959596 -3.2828282828282824,-4.494949494949496 -3.1818181818181817,-4.393939393939394 -3.0808080808080804,-4.292929292929293 -2.9797979797979792,-4.191919191919193 -2.8787878787878785,-4.090909090909091 -2.7777777777777777,-3.98989898989899 -2.6767676767676765,-3.8888888888888884 -2.5757575757575752,-3.7878787878787876 -2.474747474747474,-3.6868686868686864 -2.3737373737373733,-3.5858585858585856 -2.2727272727272725,-3.484848484848485 -2.1717171717171713,-3.383838383838383 -2.07070707070707,-3.2828282828282824 -1.9696969696969693,-3.1818181818181817 -1.8686868686868683,-3.0808080808080804 -1.7676767676767675,-2.9797979797979792 -1.6666666666666665,-2.8787878787878785 -1.5656565656565653,-2.7777777777777777 -1.5656565656565653,-2.6767676767676765 -1.5656565656565653,-2.5757575757575752 -1.5656565656565653,-2.474747474747474 -1.5656565656565653,-2.3737373737373733 -1.5656565656565653,-2.2727272727272725 -1.5656565656565653,-2.1717171717171713 -1.5656565656565653,-2.07070707070707 -1.5656565656565653,-1.9696969696969693 -1.5656565656565653,-1.8686868686868683 -1.5656565656565653,-1.7676767676767675 -1.5656565656565653,-1.6666666666666665 -1.5656565656565653,-1.5656565656565653 -1.5656565656565653,-1.4646464646464643 -1.5656565656565653,-1.363636363636363 -1.5656565656565653,-1.2626262626262625 -1.5656565656565653,-1.1616161616161613 -1.5656565656565653,-1.0606060606060603 -1.5656565656565653,-0.9595959595959596 -1.5656565656565653,-0.8585858585858579 -1.5656565656565653,-0.7575757575757572 -1.5656565656565653,-0.6565656565656557 -1.5656565656565653,-0.555555555555555 -1.5656565656565653,-0.4545454545454544 -1.5656565656565653,-0.35353535353535287 -1.5656565656565653,-0.2525252525252522 -1.5656565656565653,-0.15151515151515066 -1.5656565656565653,-0.05050505050505001 -1.5656565656565653,0.050505050505051545 -1.5656565656565653,0.1515151515151522 -1.5656565656565653,0.2525252525252529 -1.5656565656565653,0.3535353535353544 -1.5656565656565653,0.4545454545454551 -1.4646464646464643,0.5555555555555567 -1.4646464646464643,0.6565656565656574 -1.363636363636363,0.7575757575757579 -1.2626262626262625,0.8585858585858596 -1.1616161616161613,0.9595959595959602 -1.0606060606060603,1.0606060606060617 -0.9595959595959596,1.1616161616161622 -0.8585858585858579,1.262626262626263 -0.7575757575757572,1.3636363636363644 -0.6565656565656557,1.4646464646464652 -0.555555555555555,1.5656565656565666 -0.4545454545454544,1.6666666666666674 -0.35353535353535287,1.767676767676768 -0.2525252525252522,1.8686868686868696 -0.15151515151515066,1.9696969696969702 -0.05050505050505001,2.070707070707072" data-type="line" data-label="" points="154.42424242424255,984 163.95959595959607,974.4646464646464 173.4949494949496,964.9292929292928 183.03030303030312,955.3939393939394 192.5656565656567,945.8585858585858 202.10101010101022,936.3232323232323 211.63636363636374,926.7878787878788 221.17171717171726,917.2525252525252 230.70707070707084,907.7171717171718 240.2424242424243,898.1818181818181 249.77777777777783,888.6464646464647 259.3131313131314,879.1111111111111 268.84848484848493,869.5757575757575 278.38383838383845,860.0404040404039 287.91919191919203,850.5050505050505 297.4545454545455,840.969696969697 306.9898989898991,831.4343434343434 316.5252525252526,821.8989898989898 326.0606060606061,812.3636363636363 335.59595959595964,802.8282828282828 345.13131313131316,793.2929292929292 354.6666666666667,783.7575757575758 364.2020202020202,774.2222222222222 364.2020202020202,764.6868686868687 364.2020202020202,755.1515151515151 364.2020202020202,745.6161616161615 364.2020202020202,736.0808080808081 364.2020202020202,726.5454545454545 364.2020202020202,717.010101010101 364.2020202020202,707.4747474747475 364.2020202020202,697.939393939394 364.2020202020202,688.4040404040404 364.2020202020202,678.8686868686868 364.2020202020202,669.3333333333334 364.2020202020202,659.7979797979798 364.2020202020202,650.2626262626263 364.2020202020202,640.7272727272727 364.2020202020202,631.1919191919193 364.2020202020202,621.6565656565657 364.2020202020202,612.1212121212121 364.2020202020202,602.5858585858587 364.2020202020202,593.0505050505051 364.2020202020202,583.5151515151516 364.2020202020202,573.979797979798 364.2020202020202,564.4444444444445 364.2020202020202,554.909090909091 364.2020202020202,545.3737373737374 364.2020202020202,535.838383838384 364.2020202020202,526.3030303030304 364.2020202020202,516.7676767676768 364.2020202020202,507.23232323232327 364.2020202020202,497.69696969696975 364.2020202020202,488.1616161616163 364.2020202020202,478.6262626262627 364.2020202020202,469.0909090909092 373.7373737373738,459.5555555555556 373.7373737373738,450.0202020202021 383.2727272727273,440.4848484848486 392.80808080808083,430.94949494949503 402.34343434343435,421.4141414141415 411.8787878787879,411.87878787878793 421.4141414141414,402.3434343434344 430.949494949495,392.80808080808094 440.4848484848485,383.27272727272737 450.0202020202021,373.73737373737384 459.55555555555554,364.2020202020203 469.09090909090907,354.66666666666674 478.62626262626264,345.1313131313133 488.16161616161617,335.5959595959597 497.69696969696975,326.06060606060623 507.2323232323232,316.5252525252526" fill="none" stroke="rgba(255,0,0,0.75)" stroke-width="14.159999999999995"/></g><g><polyline data-points="-0.05050505050505001,2.070707070707072 0.050505050505051545,2.1717171717171726 0.1515151515151522,2.2727272727272734 0.2525252525252529,2.373737373737375 0.3535353535353544,2.4747474747474754 0.4545454545454551,2.575757575757577 0.5555555555555567,2.575757575757577 0.6565656565656574,2.676767676767678 0.7575757575757579,2.7777777777777786 0.8585858585858596,2.87878787878788 0.9595959595959602,2.9797979797979806 1.0606060606060617,3.080808080808082 1.1616161616161622,3.080808080808082 1.262626262626263,3.080808080808082 1.3636363636363644,3.080808080808082 1.4646464646464652,3.080808080808082 1.5656565656565666,3.080808080808082 1.6666666666666674,3.080808080808082 1.767676767676768,3.080808080808082 1.8686868686868696,3.080808080808082 1.9696969696969702,3.080808080808082 2.070707070707072,3.080808080808082 2.1717171717171726,3.080808080808082 2.2727272727272734,3.080808080808082 2.373737373737375,3.080808080808082 2.4747474747474754,3.080808080808082 2.575757575757577,3.080808080808082 2.676767676767678,3.080808080808082 2.7777777777777786,3.080808080808082 2.87878787878788,3.080808080808082 2.9797979797979806,3.080808080808082 3.080808080808082,3.080808080808082 3.181818181818183,3.080808080808082 3.2828282828282833,3.080808080808082 3.383838383838384,3.080808080808082 3.4848484848484866,3.080808080808082 3.5858585858585874,3.080808080808082 3.6868686868686877,3.080808080808082 3.7878787878787885,3.080808080808082 3.8888888888888893,3.080808080808082 3.989898989898992,3.080808080808082 4.090909090909092,3.080808080808082 4.191919191919193,3.080808080808082 4.292929292929293,3.080808080808082 4.393939393939394,3.080808080808082 4.494949494949497,3.080808080808082 4.595959595959597,3.080808080808082 4.696969696969697,3.080808080808082 4.7979797979797985,3.080808080808082 4.898989898989901,3.080808080808082 5.000000000000002,3.080808080808082" data-type="line" data-label="" points="507.2323232323232,316.5252525252526 516.7676767676768,306.9898989898991 526.3030303030303,297.4545454545456 535.8383838383838,287.91919191919203 545.3737373737374,278.38383838383857 554.9090909090909,268.84848484848493 564.4444444444445,268.84848484848493 573.9797979797979,259.3131313131314 583.5151515151515,249.77777777777794 593.0505050505051,240.24242424242436 602.5858585858585,230.70707070707084 612.1212121212121,221.17171717171726 621.6565656565656,221.17171717171726 631.1919191919192,221.17171717171726 640.7272727272727,221.17171717171726 650.2626262626262,221.17171717171726 659.7979797979798,221.17171717171726 669.3333333333333,221.17171717171726 678.8686868686868,221.17171717171726 688.4040404040404,221.17171717171726 697.9393939393939,221.17171717171726 707.4747474747475,221.17171717171726 717.0101010101009,221.17171717171726 726.5454545454545,221.17171717171726 736.0808080808081,221.17171717171726 745.6161616161615,221.17171717171726 755.1515151515151,221.17171717171726 764.6868686868686,221.17171717171726 774.2222222222222,221.17171717171726 783.7575757575758,221.17171717171726 793.2929292929292,221.17171717171726 802.8282828282828,221.17171717171726 812.3636363636363,221.17171717171726 821.8989898989898,221.17171717171726 831.4343434343433,221.17171717171726 840.969696969697,221.17171717171726 850.5050505050505,221.17171717171726 860.0404040404039,221.17171717171726 869.5757575757575,221.17171717171726 879.111111111111,221.17171717171726 888.6464646464647,221.17171717171726 898.181818181818,221.17171717171726 907.7171717171716,221.17171717171726 917.2525252525251,221.17171717171726 926.7878787878785,221.17171717171726 936.3232323232323,221.17171717171726 945.8585858585857,221.17171717171726 955.3939393939393,221.17171717171726 964.9292929292927,221.17171717171726 974.4646464646464,221.17171717171726 984,221.17171717171726" fill="none" stroke="rgba(0,0,255,0.75)" stroke-width="14.159999999999995"/></g><g><polyline data-points="-1.7676767676767675,5.000000000000002 -1.7676767676767675,4.898989898989901 -1.6666666666666665,4.7979797979797985 -1.5656565656565653,4.696969696969697 -1.4646464646464643,4.595959595959597 -1.363636363636363,4.494949494949497 -1.2626262626262625,4.393939393939394 -1.1616161616161613,4.292929292929293 -1.1616161616161613,4.191919191919193 -1.1616161616161613,4.090909090909092 -1.1616161616161613,3.989898989898992 -1.1616161616161613,3.8888888888888893 -1.0606060606060603,3.7878787878787885 -1.0606060606060603,3.6868686868686877 -0.9595959595959596,3.5858585858585874 -0.8585858585858579,3.4848484848484866 -0.7575757575757572,3.383838383838384 -0.6565656565656557,3.2828282828282833 -0.555555555555555,3.181818181818183 -0.4545454545454544,3.080808080808082 -0.35353535353535287,2.9797979797979806 -0.2525252525252522,2.87878787878788 -0.15151515151515066,2.7777777777777786 -0.05050505050505001,2.676767676767678 0.050505050505051545,2.575757575757577 0.1515151515151522,2.4747474747474754 0.2525252525252529,2.373737373737375 0.3535353535353544,2.2727272727272734 0.4545454545454551,2.1717171717171726 0.4545454545454551,2.070707070707072 0.4545454545454551,1.9696969696969702 0.4545454545454551,1.8686868686868696 0.4545454545454551,1.767676767676768 0.4545454545454551,1.6666666666666674 0.4545454545454551,1.5656565656565666 0.4545454545454551,1.4646464646464652 0.4545454545454551,1.3636363636363644 0.3535353535353544,1.262626262626263 0.2525252525252529,1.1616161616161622 0.1515151515151522,1.0606060606060617" data-type="line" data-label="" points="345.13131313131316,40.000000000000114 345.13131313131316,49.53535353535369 354.6666666666667,59.07070707070733 364.2020202020202,68.60606060606085 373.7373737373738,78.14141414141432 383.2727272727273,87.67676767676778 392.80808080808083,97.21212121212153 402.34343434343435,106.747474747475 402.34343434343435,116.28282828282846 402.34343434343435,125.81818181818198 402.34343434343435,135.35353535353545 402.34343434343435,144.88888888888908 411.8787878787879,154.4242424242426 411.8787878787879,163.95959595959613 421.4141414141414,173.4949494949496 430.949494949495,183.03030303030312 440.4848484848485,192.56565656565675 450.0202020202021,202.10101010101027 459.55555555555554,211.63636363636374 469.09090909090907,221.17171717171726 478.62626262626264,230.70707070707084 488.16161616161617,240.24242424242436 497.69696969696975,249.77777777777794 507.2323232323232,259.3131313131314 516.7676767676768,268.84848484848493 526.3030303030303,278.38383838383857 535.8383838383838,287.91919191919203 545.3737373737374,297.4545454545456 554.9090909090909,306.9898989898991 554.9090909090909,316.5252525252526 554.9090909090909,326.06060606060623 554.9090909090909,335.5959595959597 554.9090909090909,345.1313131313133 554.9090909090909,354.66666666666674 554.9090909090909,364.2020202020203 554.9090909090909,373.73737373737384 554.9090909090909,383.27272727272737 545.3737373737374,392.80808080808094 535.8383838383838,402.3434343434344 526.3030303030303,411.87878787878793" fill="none" stroke="rgba(255,0,0,0.75)" stroke-width="14.159999999999995"/></g><g><polyline data-points="0.1515151515151522,1.0606060606060617 0.2525252525252529,0.9595959595959602 0.3535353535353544,0.8585858585858596 0.4545454545454551,0.7575757575757579 0.5555555555555567,0.6565656565656574 0.6565656565656574,0.5555555555555567 0.7575757575757579,0.5555555555555567 0.8585858585858596,0.5555555555555567 0.9595959595959602,0.5555555555555567 1.0606060606060617,0.5555555555555567 1.1616161616161622,0.5555555555555567 1.262626262626263,0.5555555555555567 1.3636363636363644,0.5555555555555567 1.4646464646464652,0.5555555555555567 1.5656565656565666,0.5555555555555567 1.6666666666666674,0.5555555555555567 1.767676767676768,0.5555555555555567 1.8686868686868696,0.5555555555555567 1.9696969696969702,0.5555555555555567 2.070707070707072,0.5555555555555567 2.1717171717171726,0.5555555555555567 2.2727272727272734,0.5555555555555567" data-type="line" data-label="" points="526.3030303030303,411.87878787878793 535.8383838383838,421.4141414141415 545.3737373737374,430.94949494949503 554.9090909090909,440.4848484848486 564.4444444444445,450.0202020202021 573.9797979797979,459.5555555555556 583.5151515151515,459.5555555555556 593.0505050505051,459.5555555555556 602.5858585858585,459.5555555555556 612.1212121212121,459.5555555555556 621.6565656565656,459.5555555555556 631.1919191919192,459.5555555555556 640.7272727272727,459.5555555555556 650.2626262626262,459.5555555555556 659.7979797979798,459.5555555555556 669.3333333333333,459.5555555555556 678.8686868686868,459.5555555555556 688.4040404040404,459.5555555555556 697.9393939393939,459.5555555555556 707.4747474747475,459.5555555555556 717.0101010101009,459.5555555555556 726.5454545454545,459.5555555555556" fill="none" stroke="rgba(0,0,255,0.75)" stroke-width="14.159999999999995"/></g><g><polyline data-points="2.2727272727272734,0.5555555555555567 2.373737373737375,0.4545454545454551 2.4747474747474754,0.3535353535353544 2.575757575757577,0.2525252525252529 2.676767676767678,0.1515151515151522 2.7777777777777786,0.050505050505051545 2.87878787878788,-0.05050505050505001 2.9797979797979806,-0.15151515151515066 3.080808080808082,-0.2525252525252522 3.181818181818183,-0.35353535353535287 3.2828282828282833,-0.4545454545454544 3.2828282828282833,-0.555555555555555 3.2828282828282833,-0.6565656565656557 3.2828282828282833,-0.7575757575757572 3.383838383838384,-0.8585858585858579 3.383838383838384,-0.9595959595959596 3.4848484848484866,-1.0606060606060603 3.5858585858585874,-1.1616161616161613 3.6868686868686877,-1.2626262626262625 3.7878787878787885,-1.363636363636363 3.8888888888888893,-1.4646464646464643 3.989898989898992,-1.5656565656565653 4.090909090909092,-1.6666666666666665 4.191919191919193,-1.7676767676767675 4.292929292929293,-1.8686868686868683 4.393939393939394,-1.9696969696969693 4.494949494949497,-2.07070707070707 4.595959595959597,-2.1717171717171713 4.696969696969697,-2.2727272727272725 4.7979797979797985,-2.3737373737373733 4.898989898989901,-2.474747474747474 4.898989898989901,-2.5757575757575752 4.898989898989901,-2.6767676767676765 5.000000000000002,-2.7777777777777777" data-type="line" data-label="" points="726.5454545454545,459.5555555555556 736.0808080808081,469.0909090909092 745.6161616161615,478.6262626262627 755.1515151515151,488.1616161616163 764.6868686868686,497.69696969696975 774.2222222222222,507.23232323232327 783.7575757575758,516.7676767676768 793.2929292929292,526.3030303030304 802.8282828282828,535.838383838384 812.3636363636363,545.3737373737374 821.8989898989898,554.909090909091 821.8989898989898,564.4444444444445 821.8989898989898,573.979797979798 821.8989898989898,583.5151515151516 831.4343434343433,593.0505050505051 831.4343434343433,602.5858585858587 840.969696969697,612.1212121212121 850.5050505050505,621.6565656565657 860.0404040404039,631.1919191919193 869.5757575757575,640.7272727272727 879.111111111111,650.2626262626263 888.6464646464647,659.7979797979798 898.181818181818,669.3333333333334 907.7171717171716,678.8686868686868 917.2525252525251,688.4040404040404 926.7878787878785,697.939393939394 936.3232323232323,707.4747474747475 945.8585858585857,717.010101010101 955.3939393939393,726.5454545454545 964.9292929292927,736.0808080808081 974.4646464646464,745.6161616161615 974.4646464646464,755.1515151515151 974.4646464646464,764.6868686868687 984,774.2222222222222" fill="none" stroke="rgba(255,0,0,0.75)" stroke-width="14.159999999999995"/></g><g><polyline data-points="0.4545454545454551,5.000000000000002 0.4545454545454551,4.898989898989901 0.3535353535353544,4.7979797979797985 0.2525252525252529,4.696969696969697 0.1515151515151522,4.595959595959597 0.050505050505051545,4.494949494949497 -0.05050505050505001,4.393939393939394 -0.15151515151515066,4.292929292929293 -0.2525252525252522,4.191919191919193 -0.35353535353535287,4.090909090909092 -0.35353535353535287,3.989898989898992" data-type="line" data-label="" points="554.9090909090909,40.000000000000114 554.9090909090909,49.53535353535369 545.3737373737374,59.07070707070733 535.8383838383838,68.60606060606085 526.3030303030303,78.14141414141432 516.7676767676768,87.67676767676778 507.2323232323232,97.21212121212153 497.69696969696975,106.747474747475 488.16161616161617,116.28282828282846 478.62626262626264,125.81818181818198 478.62626262626264,135.35353535353545" fill="none" stroke="rgba(255,0,0,0.75)" stroke-width="14.159999999999995"/></g><g><polyline data-points="-0.35353535353535287,3.989898989898992 -0.35353535353535287,4.090909090909092 -0.4545454545454544,4.191919191919193 -0.555555555555555,4.292929292929293 -0.6565656565656557,4.393939393939394 -0.7575757575757572,4.494949494949497 -0.8585858585858579,4.595959595959597 -0.9595959595959596,4.696969696969697 -1.0606060606060603,4.7979797979797985 -1.1616161616161613,4.7979797979797985 -1.2626262626262625,4.696969696969697 -1.363636363636363,4.696969696969697 -1.4646464646464643,4.595959595959597 -1.5656565656565653,4.595959595959597 -1.6666666666666665,4.595959595959597 -1.7676767676767675,4.595959595959597 -1.8686868686868683,4.595959595959597 -1.9696969696969693,4.595959595959597 -2.07070707070707,4.595959595959597 -2.1717171717171713,4.595959595959597 -2.2727272727272725,4.595959595959597 -2.3737373737373733,4.595959595959597 -2.474747474747474,4.595959595959597 -2.5757575757575752,4.595959595959597 -2.6767676767676765,4.595959595959597 -2.7777777777777777,4.696969696969697 -2.8787878787878785,4.7979797979797985 -2.9797979797979792,4.898989898989901 -3.0808080808080804,4.898989898989901 -3.1818181818181817,4.898989898989901 -3.2828282828282824,4.898989898989901 -3.383838383838383,4.898989898989901 -3.484848484848485,4.898989898989901 -3.5858585858585856,5.000000000000002" data-type="line" data-label="" points="478.62626262626264,135.35353535353545 478.62626262626264,125.81818181818198 469.09090909090907,116.28282828282846 459.55555555555554,106.747474747475 450.0202020202021,97.21212121212153 440.4848484848485,87.67676767676778 430.949494949495,78.14141414141432 421.4141414141414,68.60606060606085 411.8787878787879,59.07070707070733 402.34343434343435,59.07070707070733 392.80808080808083,68.60606060606085 383.2727272727273,68.60606060606085 373.7373737373738,78.14141414141432 364.2020202020202,78.14141414141432 354.6666666666667,78.14141414141432 345.13131313131316,78.14141414141432 335.59595959595964,78.14141414141432 326.0606060606061,78.14141414141432 316.5252525252526,78.14141414141432 306.9898989898991,78.14141414141432 297.4545454545455,78.14141414141432 287.91919191919203,78.14141414141432 278.38383838383845,78.14141414141432 268.84848484848493,78.14141414141432 259.3131313131314,78.14141414141432 249.77777777777783,68.60606060606085 240.2424242424243,59.07070707070733 230.70707070707084,49.53535353535369 221.17171717171726,49.53535353535369 211.63636363636374,49.53535353535369 202.10101010101022,49.53535353535369 192.5656565656567,49.53535353535369 183.03030303030312,49.53535353535369 173.4949494949496,40.000000000000114" fill="none" stroke="rgba(0,0,255,0.75)" stroke-width="14.159999999999995"/></g><g><polyline data-points="-2.5757575757575752,5.000000000000002 -2.474747474747474,4.898989898989901 -2.3737373737373733,4.7979797979797985 -2.2727272727272725,4.7979797979797985 -2.1717171717171713,4.7979797979797985 -2.07070707070707,4.7979797979797985 -1.9696969696969693,4.7979797979797985 -1.8686868686868683,4.7979797979797985 -1.7676767676767675,4.7979797979797985 -1.6666666666666665,4.7979797979797985 -1.5656565656565653,4.898989898989901 -1.4646464646464643,4.898989898989901 -1.363636363636363,5.000000000000002 -1.2626262626262625,5.000000000000002 -1.1616161616161613,5.000000000000002 -1.0606060606060603,5.000000000000002 -0.9595959595959596,5.000000000000002 -0.8585858585858579,4.898989898989901 -0.7575757575757572,4.7979797979797985 -0.6565656565656557,4.696969696969697 -0.555555555555555,4.595959595959597 -0.4545454545454544,4.494949494949497 -0.35353535353535287,4.494949494949497 -0.2525252525252522,4.494949494949497 -0.15151515151515066,4.494949494949497 -0.05050505050505001,4.393939393939394 -0.05050505050505001,4.292929292929293 0.050505050505051545,4.191919191919193 0.050505050505051545,4.090909090909092 0.1515151515151522,3.989898989898992 0.050505050505051545,3.8888888888888893 0.050505050505051545,3.7878787878787885 -0.05050505050505001,3.6868686868686877 -0.15151515151515066,3.5858585858585874 -0.2525252525252522,3.5858585858585874 -0.35353535353535287,3.4848484848484866 -0.4545454545454544,3.4848484848484866 -0.555555555555555,3.4848484848484866 -0.6565656565656557,3.4848484848484866 -0.7575757575757572,3.4848484848484866 -0.8585858585858579,3.4848484848484866 -0.9595959595959596,3.4848484848484866 -1.0606060606060603,3.4848484848484866 -1.1616161616161613,3.4848484848484866 -1.2626262626262625,3.4848484848484866 -1.363636363636363,3.4848484848484866 -1.4646464646464643,3.4848484848484866 -1.5656565656565653,3.4848484848484866 -1.6666666666666665,3.4848484848484866 -1.7676767676767675,3.4848484848484866 -1.8686868686868683,3.4848484848484866 -1.9696969696969693,3.4848484848484866 -2.07070707070707,3.4848484848484866 -2.1717171717171713,3.4848484848484866 -2.2727272727272725,3.4848484848484866 -2.3737373737373733,3.4848484848484866 -2.474747474747474,3.4848484848484866 -2.5757575757575752,3.4848484848484866 -2.6767676767676765,3.4848484848484866 -2.7777777777777777,3.4848484848484866 -2.8787878787878785,3.4848484848484866 -2.9797979797979792,3.4848484848484866 -3.0808080808080804,3.4848484848484866 -3.1818181818181817,3.4848484848484866 -3.2828282828282824,3.4848484848484866 -3.383838383838383,3.4848484848484866 -3.484848484848485,3.5858585858585874 -3.5858585858585856,3.6868686868686877 -3.6868686868686864,3.7878787878787885 -3.7878787878787876,3.8888888888888893 -3.8888888888888884,3.8888888888888893 -3.98989898989899,3.8888888888888893 -4.090909090909091,3.7878787878787885 -4.191919191919193,3.7878787878787885 -4.292929292929293,3.6868686868686877 -4.393939393939394,3.5858585858585874 -4.494949494949496,3.4848484848484866 -4.595959595959596,3.383838383838384 -4.696969696969697,3.2828282828282833 -4.7979797979797985,3.181818181818183 -4.898989898989899,3.080808080808082 -5.000000000000001,2.9797979797979806 -4.898989898989899,2.87878787878788 -4.898989898989899,2.7777777777777786 -4.898989898989899,2.676767676767678 -4.898989898989899,2.575757575757577 -4.898989898989899,2.4747474747474754 -4.898989898989899,2.373737373737375 -4.898989898989899,2.2727272727272734 -4.898989898989899,2.1717171717171726 -4.898989898989899,2.070707070707072 -4.898989898989899,1.9696969696969702 -4.898989898989899,1.8686868686868696 -4.898989898989899,1.767676767676768 -4.898989898989899,1.6666666666666674 -4.898989898989899,1.5656565656565666 -4.898989898989899,1.4646464646464652 -5.000000000000001,1.3636363636363644" data-type="line" data-label="" points="268.84848484848493,40.000000000000114 278.38383838383845,49.53535353535369 287.91919191919203,59.07070707070733 297.4545454545455,59.07070707070733 306.9898989898991,59.07070707070733 316.5252525252526,59.07070707070733 326.0606060606061,59.07070707070733 335.59595959595964,59.07070707070733 345.13131313131316,59.07070707070733 354.6666666666667,59.07070707070733 364.2020202020202,49.53535353535369 373.7373737373738,49.53535353535369 383.2727272727273,40.000000000000114 392.80808080808083,40.000000000000114 402.34343434343435,40.000000000000114 411.8787878787879,40.000000000000114 421.4141414141414,40.000000000000114 430.949494949495,49.53535353535369 440.4848484848485,59.07070707070733 450.0202020202021,68.60606060606085 459.55555555555554,78.14141414141432 469.09090909090907,87.67676767676778 478.62626262626264,87.67676767676778 488.16161616161617,87.67676767676778 497.69696969696975,87.67676767676778 507.2323232323232,97.21212121212153 507.2323232323232,106.747474747475 516.7676767676768,116.28282828282846 516.7676767676768,125.81818181818198 526.3030303030303,135.35353535353545 516.7676767676768,144.88888888888908 516.7676767676768,154.4242424242426 507.2323232323232,163.95959595959613 497.69696969696975,173.4949494949496 488.16161616161617,173.4949494949496 478.62626262626264,183.03030303030312 469.09090909090907,183.03030303030312 459.55555555555554,183.03030303030312 450.0202020202021,183.03030303030312 440.4848484848485,183.03030303030312 430.949494949495,183.03030303030312 421.4141414141414,183.03030303030312 411.8787878787879,183.03030303030312 402.34343434343435,183.03030303030312 392.80808080808083,183.03030303030312 383.2727272727273,183.03030303030312 373.7373737373738,183.03030303030312 364.2020202020202,183.03030303030312 354.6666666666667,183.03030303030312 345.13131313131316,183.03030303030312 335.59595959595964,183.03030303030312 326.0606060606061,183.03030303030312 316.5252525252526,183.03030303030312 306.9898989898991,183.03030303030312 297.4545454545455,183.03030303030312 287.91919191919203,183.03030303030312 278.38383838383845,183.03030303030312 268.84848484848493,183.03030303030312 259.3131313131314,183.03030303030312 249.77777777777783,183.03030303030312 240.2424242424243,183.03030303030312 230.70707070707084,183.03030303030312 221.17171717171726,183.03030303030312 211.63636363636374,183.03030303030312 202.10101010101022,183.03030303030312 192.5656565656567,183.03030303030312 183.03030303030312,173.4949494949496 173.4949494949496,163.95959595959613 163.95959595959607,154.4242424242426 154.42424242424255,144.88888888888908 144.88888888888903,144.88888888888908 135.35353535353545,144.88888888888908 125.81818181818193,154.4242424242426 116.28282828282829,154.4242424242426 106.74747474747483,163.95959595959613 97.21212121212136,173.4949494949496 87.67676767676772,183.03030303030312 78.14141414141426,192.56565656565675 68.60606060606068,202.10101010101027 59.07070707070716,211.63636363636374 49.53535353535369,221.17171717171726 40.00000000000006,230.70707070707084 49.53535353535369,240.24242424242436 49.53535353535369,249.77777777777794 49.53535353535369,259.3131313131314 49.53535353535369,268.84848484848493 49.53535353535369,278.38383838383857 49.53535353535369,287.91919191919203 49.53535353535369,297.4545454545456 49.53535353535369,306.9898989898991 49.53535353535369,316.5252525252526 49.53535353535369,326.06060606060623 49.53535353535369,335.5959595959597 49.53535353535369,345.1313131313133 49.53535353535369,354.66666666666674 49.53535353535369,364.2020202020203 49.53535353535369,373.73737373737384 40.00000000000006,383.27272727272737" fill="none" stroke="rgba(0,0,255,0.75)" stroke-width="14.159999999999995"/></g><g><rect data-type="rect" data-label="" data-x="0" data-y="0" x="40.000000000000114" y="40.000000000000284" width="943.9999999999997" height="943.9999999999998" fill="none" stroke="gray" stroke-width="0.010593220338983056"/></g><g><rect data-type="rect" data-label="" data-x="0" data-y="0" x="40.000000000000114" y="40.000000000000284" width="943.9999999999997" height="943.9999999999998" fill="none" stroke="rgba(15, 23, 42, 0.8)" stroke-width="0.010593220338983056"/></g><circle data-type="circle" data-label="" data-x="-3.98989898989899" data-y="-0.15151515151515066" cx="135.35353535353545" cy="526.3030303030304" r="28.791999999999987" fill="rgba(0,0,0,0.3)" stroke="black" stroke-width="0.010593220338983056"/><circle data-type="circle" data-label="" data-x="3.8888888888888893" data-y="-0.7575757575757572" cx="879.111111111111" cy="583.5151515151516" r="28.791999999999987" fill="rgba(0,0,0,0.3)" stroke="black" stroke-width="0.010593220338983056"/><circle data-type="circle" data-label="" data-x="-3.98989898989899" data-y="3.2828282828282833" cx="135.35353535353545" cy="202.10101010101027" r="28.791999999999987" fill="rgba(0,0,0,0.3)" stroke="black" stroke-width="0.010593220338983056"/><circle data-type="circle" data-label="" data-x="-3.98989898989899" data-y="-3.7878787878787876" cx="135.35353535353545" cy="869.5757575757575" r="28.791999999999987" fill="rgba(0,0,0,0.3)" stroke="black" stroke-width="0.010593220338983056"/><circle data-type="circle" data-label="" data-x="-3.7878787878787876" data-y="-2.9797979797979792" cx="154.42424242424255" cy="793.2929292929292" r="28.791999999999987" fill="rgba(0,0,0,0.3)" stroke="black" stroke-width="0.010593220338983056"/><circle data-type="circle" data-label="" data-x="0.5555555555555567" data-y="3.4848484848484866" cx="564.4444444444445" cy="183.03030303030312" r="28.791999999999987" fill="rgba(0,0,0,0.3)" stroke="black" stroke-width="0.010593220338983056"/><circle data-type="circle" data-label="" data-x="-1.0606060606060603" data-y="0.4545454545454551" cx="411.8787878787879" cy="469.0909090909092" r="28.791999999999987" fill="rgba(0,0,0,0.3)" stroke="black" stroke-width="0.010593220338983056"/><circle data-type="circle" data-label="" data-x="-1.0606060606060603" data-y="-3.98989898989899" cx="411.8787878787879" cy="888.6464646464647" r="28.791999999999987" fill="rgba(0,0,0,0.3)" stroke="black" stroke-width="0.010593220338983056"/><circle data-type="circle" data-label="" data-x="-0.05050505050505001" data-y="2.070707070707072" cx="507.2323232323232" cy="316.5252525252526" r="28.791999999999987" fill="rgba(0,0,0,0.3)" stroke="black" stroke-width="0.010593220338983056"/><circle data-type="circle" data-label="" data-x="0.1515151515151522" data-y="1.0606060606060617" cx="526.3030303030303" cy="411.87878787878793" r="28.791999999999987" fill="rgba(0,0,0,0.3)" stroke="black" stroke-width="0.010593220338983056"/><circle data-type="circle" data-label="" data-x="2.2727272727272734" data-y="0.5555555555555567" cx="726.5454545454545" cy="459.5555555555556" r="28.791999999999987" fill="rgba(0,0,0,0.3)" stroke="black" stroke-width="0.010593220338983056"/><circle data-type="circle" data-label="" data-x="-0.35353535353535287" data-y="3.989898989898992" cx="478.62626262626264" cy="135.35353535353545" r="28.791999999999987" fill="rgba(0,0,0,0.3)" stroke="black" stroke-width="0.010593220338983056"/><g id="crosshair" style="display: none"><line id="crosshair-h" y1="0" y2="1024" stroke="#666" stroke-width="0.5"/><line id="crosshair-v" x1="0" x2="1024" stroke="#666" stroke-width="0.5"/><text id="coordinates" font-family="monospace" font-size="12" fill="#666"></text></g><script><![CDATA[
              document.currentScript.parentElement.addEventListener('mousemove', (e) => {
                const svg = e.currentTarget;
                const rect = svg.getBoundingClientRect();
                const x = e.clientX - rect.left;
                const y = e.clientY - rect.top;
                const crosshair = svg.getElementById('crosshair');
                const h = svg.getElementById('crosshair-h');
                const v = svg.getElementById('crosshair-v');
                const coords = svg.getElementById('coordinates');
                
                crosshair.style.display = 'block';
                h.setAttribute('x1', '0');
                h.setAttribute('x2', '1024');
                h.setAttribute('y1', y);
                h.setAttribute('y2', y);
                v.setAttribute('x1', x);
                v.setAttribute('x2', x);
                v.setAttribute('y1', '0');
                v.setAttribute('y2', '1024');

                // Calculate real coordinates using inverse transformation
                const matrix = {"a":94.39999999999996,"c":0,"e":511.99999999999994,"b":0,"d":-94.39999999999996,"f":512.0000000000001};
                // Manually invert and apply the affine transform
                // Since we only use translate and scale, we can directly compute:
                // x' = (x - tx) / sx
                // y' = (y - ty) / sy
                const sx = matrix.a;
                const sy = matrix.d;
                const tx = matrix.e; 
                const ty = matrix.f;
                const realPoint = {
                  x: (x - tx) / sx,
                  y: (y - ty) / sy // Flip y back since we used negative scale
                }
                
                coords.textContent = `(${realPoint.x.toFixed(2)}, ${realPoint.y.toFixed(2)})`;
                coords.setAttribute('x', (x + 5).toString());
                coords.setAttribute('y', (y - 5).toString());
              });
              document.currentScript.parentElement.addEventListener('mouseleave', () => {
                document.currentScript.parentElement.getElementById('crosshair').style.display = 'none';
              });
            ]]></script></svg>