<svg width="1024" height="1024" viewBox="0 0 1024 1024" xmlns="http://www.w3.org/2000/svg"><rect width="100%" height="100%" fill="white"/><g><circle data-type="point" data-label="conn_000" data-x="-1.04" data-y="-5" cx="413.82399999999996" cy="984" r="28.792" fill="blue" stroke="#0fa0bd" stroke-width="28.792"/></g><g><circle data-type="point" data-label="conn_000" data-x="-2.2600000000000002" data-y="5" cx="298.656" cy="40.000000000000284" r="28.792" fill="red" stroke="#0fa0bd" stroke-width="28.792"/></g><g><circle data-type="point" data-label="conn_001" data-x="5" data-y="1.74" cx="983.9999999999998" cy="347.74400000000014" r="28.792" fill="blue" stroke="#bd0f6d" stroke-width="28.792"/></g><g><circle data-type="point" data-label="conn_001" data-x="-5" data-y="1.58" cx="40.000000000000114" cy="362.8480000000002" r="28.792" fill="red" stroke="#bd0f6d" stroke-width="28.792"/></g><g><circle data-type="point" data-label="conn_002" data-x="5" data-y="-0.1" cx="983.9999999999998" cy="521.44" r="28.792" fill="red" stroke="#3bbd0f" stroke-width="28.792"/></g><g><circle data-type="point" data-label="conn_002" data-x="-5" data-y="4.74" cx="40.000000000000114" cy="64.54400000000027" r="28.792" fill="blue" stroke="#3bbd0f" stroke-width="28.792"/></g><g><circle data-type="point" data-label="conn_003" data-x="-5" data-y="0.2" cx="40.000000000000114" cy="493.1200000000001" r="28.792" fill="blue" stroke="#170fbd" stroke-width="28.792"/></g><g><circle data-type="point" data-label="conn_003" data-x="5" data-y="3.54" cx="983.9999999999998" cy="177.82400000000024" r="28.792" fill="blue" stroke="#170fbd" stroke-width="28.792"/></g><g><circle data-type="point" data-label="conn_004" data-x="-4.34" data-y="-5" cx="102.30400000000014" cy="984" r="28.792" fill="red" stroke="#bd490f" stroke-width="28.792"/></g><g><circle data-type="point" data-label="conn_004" data-x="3.24" data-y="-5" cx="817.8559999999998" cy="984" r="28.792" fill="blue" stroke="#bd490f" stroke-width="28.792"/></g><g><polyline data-points="-5.000000000000001,0.2525252525252529 -4.898989898989899,0.3535353535353544 -4.7979797979797985,0.4545454545454551 -4.696969696969697,0.5555555555555567 -4.595959595959596,0.6565656565656574 -4.494949494949496,0.7575757575757579 -4.393939393939394,0.8585858585858596 -4.292929292929293,0.9595959595959602 -4.191919191919193,1.0606060606060617 -4.090909090909091,1.1616161616161622 -3.98989898989899,1.262626262626263 -3.8888888888888884,1.3636363636363644 -3.7878787878787876,1.4646464646464652 -3.6868686868686864,1.5656565656565666 -3.5858585858585856,1.6666666666666674 -3.484848484848485,1.767676767676768 -3.383838383838383,1.8686868686868696 -3.2828282828282824,1.9696969696969702 -3.1818181818181817,2.070707070707072 -3.0808080808080804,2.1717171717171726 -2.9797979797979792,2.2727272727272734 -2.8787878787878785,2.373737373737375 -2.7777777777777777,2.4747474747474754 -2.6767676767676765,2.575757575757577 -2.5757575757575752,2.676767676767678 -2.474747474747474,2.7777777777777786 -2.3737373737373733,2.87878787878788 -2.2727272727272725,2.9797979797979806 -2.1717171717171713,3.080808080808082 -2.07070707070707,3.181818181818183 -1.9696969696969693,3.2828282828282833 -1.8686868686868683,3.383838383838384 -1.7676767676767675,3.4848484848484866 -1.6666666666666665,3.5858585858585874 -1.5656565656565653,3.5858585858585874 -1.4646464646464643,3.5858585858585874 -1.363636363636363,3.5858585858585874 -1.2626262626262625,3.5858585858585874 -1.1616161616161613,3.5858585858585874 -1.0606060606060603,3.5858585858585874 -0.9595959595959596,3.5858585858585874 -0.8585858585858579,3.5858585858585874 -0.7575757575757572,3.5858585858585874 -0.6565656565656557,3.5858585858585874 -0.555555555555555,3.5858585858585874 -0.4545454545454544,3.5858585858585874 -0.35353535353535287,3.5858585858585874 -0.2525252525252522,3.5858585858585874 -0.15151515151515066,3.5858585858585874 -0.05050505050505001,3.5858585858585874 0.050505050505051545,3.5858585858585874 0.1515151515151522,3.5858585858585874 0.2525252525252529,3.5858585858585874 0.3535353535353544,3.5858585858585874 0.4545454545454551,3.5858585858585874 0.5555555555555567,3.5858585858585874 0.6565656565656574,3.5858585858585874 0.7575757575757579,3.5858585858585874 0.8585858585858596,3.5858585858585874 0.9595959595959602,3.5858585858585874 1.0606060606060617,3.5858585858585874 1.1616161616161622,3.5858585858585874 1.262626262626263,3.5858585858585874 1.3636363636363644,3.5858585858585874 1.4646464646464652,3.5858585858585874 1.5656565656565666,3.5858585858585874 1.6666666666666674,3.5858585858585874 1.767676767676768,3.5858585858585874 1.8686868686868696,3.5858585858585874 1.9696969696969702,3.5858585858585874 2.070707070707072,3.5858585858585874 2.1717171717171726,3.5858585858585874 2.2727272727272734,3.5858585858585874 2.373737373737375,3.5858585858585874 2.4747474747474754,3.5858585858585874 2.575757575757577,3.5858585858585874 2.676767676767678,3.5858585858585874 2.7777777777777786,3.5858585858585874 2.87878787878788,3.5858585858585874 2.9797979797979806,3.5858585858585874 3.080808080808082,3.5858585858585874 3.181818181818183,3.5858585858585874 3.2828282828282833,3.5858585858585874 3.383838383838384,3.5858585858585874 3.4848484848484866,3.5858585858585874 3.5858585858585874,3.5858585858585874 3.6868686868686877,3.5858585858585874 3.7878787878787885,3.5858585858585874 3.8888888888888893,3.5858585858585874 3.989898989898992,3.5858585858585874 4.090909090909092,3.5858585858585874 4.191919191919193,3.5858585858585874 4.292929292929293,3.5858585858585874 4.393939393939394,3.5858585858585874 4.494949494949497,3.5858585858585874 4.595959595959597,3.5858585858585874 4.696969696969697,3.5858585858585874 4.7979797979797985,3.5858585858585874 4.898989898989901,3.5858585858585874 5.000000000000002,3.5858585858585874" data-type="line" data-label="" points="40.00000000000006,488.1616161616163 49.53535353535369,478.6262626262627 59.07070707070716,469.0909090909092 68.60606060606068,459.5555555555556 78.14141414141426,450.0202020202021 87.67676767676772,440.4848484848486 97.21212121212136,430.94949494949503 106.74747474747483,421.4141414141415 116.28282828282829,411.87878787878793 125.81818181818193,402.3434343434344 135.35353535353545,392.80808080808094 144.88888888888903,383.27272727272737 154.42424242424255,373.73737373737384 163.95959595959607,364.2020202020203 173.4949494949496,354.66666666666674 183.03030303030312,345.1313131313133 192.5656565656567,335.5959595959597 202.10101010101022,326.06060606060623 211.63636363636374,316.5252525252526 221.17171717171726,306.9898989898991 230.70707070707084,297.4545454545456 240.2424242424243,287.91919191919203 249.77777777777783,278.38383838383857 259.3131313131314,268.84848484848493 268.84848484848493,259.3131313131314 278.38383838383845,249.77777777777794 287.91919191919203,240.24242424242436 297.4545454545455,230.70707070707084 306.9898989898991,221.17171717171726 316.5252525252526,211.63636363636374 326.0606060606061,202.10101010101027 335.59595959595964,192.56565656565675 345.13131313131316,183.03030303030312 354.6666666666667,173.4949494949496 364.2020202020202,173.4949494949496 373.7373737373738,173.4949494949496 383.2727272727273,173.4949494949496 392.80808080808083,173.4949494949496 402.34343434343435,173.4949494949496 411.8787878787879,173.4949494949496 421.4141414141414,173.4949494949496 430.949494949495,173.4949494949496 440.4848484848485,173.4949494949496 450.0202020202021,173.4949494949496 459.55555555555554,173.4949494949496 469.09090909090907,173.4949494949496 478.62626262626264,173.4949494949496 488.16161616161617,173.4949494949496 497.69696969696975,173.4949494949496 507.2323232323232,173.4949494949496 516.7676767676768,173.4949494949496 526.3030303030303,173.4949494949496 535.8383838383838,173.4949494949496 545.3737373737374,173.4949494949496 554.9090909090909,173.4949494949496 564.4444444444445,173.4949494949496 573.9797979797979,173.4949494949496 583.5151515151515,173.4949494949496 593.0505050505051,173.4949494949496 602.5858585858585,173.4949494949496 612.1212121212121,173.4949494949496 621.6565656565656,173.4949494949496 631.1919191919192,173.4949494949496 640.7272727272727,173.4949494949496 650.2626262626262,173.4949494949496 659.7979797979798,173.4949494949496 669.3333333333333,173.4949494949496 678.8686868686868,173.4949494949496 688.4040404040404,173.4949494949496 697.9393939393939,173.4949494949496 707.4747474747475,173.4949494949496 717.0101010101009,173.4949494949496 726.5454545454545,173.4949494949496 736.0808080808081,173.4949494949496 745.6161616161615,173.4949494949496 755.1515151515151,173.4949494949496 764.6868686868686,173.4949494949496 774.2222222222222,173.4949494949496 783.7575757575758,173.4949494949496 793.2929292929292,173.4949494949496 802.8282828282828,173.4949494949496 812.3636363636363,173.4949494949496 821.8989898989898,173.4949494949496 831.4343434343433,173.4949494949496 840.969696969697,173.4949494949496 850.5050505050505,173.4949494949496 860.0404040404039,173.4949494949496 869.5757575757575,173.4949494949496 879.111111111111,173.4949494949496 888.6464646464647,173.4949494949496 898.181818181818,173.4949494949496 907.7171717171716,173.4949494949496 917.2525252525251,173.4949494949496 926.7878787878785,173.4949494949496 936.3232323232323,173.4949494949496 945.8585858585857,173.4949494949496 955.3939393939393,173.4949494949496 964.9292929292927,173.4949494949496 974.4646464646464,173.4949494949496 984,173.4949494949496" fill="none" stroke="rgba(0,0,255,0.75)" stroke-width="14.159999999999995"/></g><g><polyline data-points="5.000000000000002,-0.05050505050505001 4.898989898989901,0.050505050505051545 4.7979797979797985,0.1515151515151522 4.696969696969697,0.2525252525252529 4.595959595959597,0.3535353535353544 4.494949494949497,0.4545454545454551 4.393939393939394,0.5555555555555567 4.292929292929293,0.6565656565656574 4.191919191919193,0.7575757575757579 4.090909090909092,0.8585858585858596 3.989898989898992,0.9595959595959602 3.8888888888888893,1.0606060606060617 3.7878787878787885,1.1616161616161622 3.6868686868686877,1.262626262626263 3.5858585858585874,1.3636363636363644 3.4848484848484866,1.4646464646464652 3.383838383838384,1.5656565656565666 3.2828282828282833,1.6666666666666674 3.181818181818183,1.767676767676768 3.080808080808082,1.8686868686868696 2.9797979797979806,1.9696969696969702 2.87878787878788,2.070707070707072 2.7777777777777786,2.1717171717171726 2.676767676767678,2.2727272727272734 2.575757575757577,2.373737373737375 2.4747474747474754,2.4747474747474754 2.373737373737375,2.575757575757577 2.2727272727272734,2.676767676767678 2.1717171717171726,2.7777777777777786 2.070707070707072,2.87878787878788 1.9696969696969702,2.9797979797979806 1.8686868686868696,3.080808080808082 1.767676767676768,3.181818181818183 1.6666666666666674,3.2828282828282833 1.5656565656565666,3.383838383838384 1.4646464646464652,3.4848484848484866 1.3636363636363644,3.5858585858585874 1.262626262626263,3.6868686868686877 1.1616161616161622,3.7878787878787885 1.0606060606060617,3.8888888888888893 0.9595959595959602,3.989898989898992 0.8585858585858596,3.989898989898992 0.7575757575757579,3.989898989898992 0.6565656565656574,3.989898989898992 0.5555555555555567,3.989898989898992 0.4545454545454551,3.989898989898992 0.3535353535353544,3.989898989898992 0.2525252525252529,3.989898989898992 0.1515151515151522,3.989898989898992 0.050505050505051545,3.989898989898992 -0.05050505050505001,3.989898989898992 -0.15151515151515066,3.989898989898992 -0.2525252525252522,3.989898989898992 -0.35353535353535287,3.989898989898992 -0.4545454545454544,3.989898989898992 -0.555555555555555,3.989898989898992 -0.6565656565656557,3.989898989898992 -0.7575757575757572,3.989898989898992 -0.8585858585858579,3.989898989898992 -0.9595959595959596,3.989898989898992 -1.0606060606060603,3.989898989898992 -1.1616161616161613,3.989898989898992 -1.2626262626262625,3.989898989898992 -1.363636363636363,3.989898989898992 -1.4646464646464643,3.989898989898992 -1.5656565656565653,3.989898989898992 -1.6666666666666665,3.989898989898992 -1.7676767676767675,3.989898989898992 -1.8686868686868683,3.989898989898992 -1.9696969696969693,3.989898989898992 -2.07070707070707,3.989898989898992 -2.1717171717171713,3.989898989898992 -2.2727272727272725,3.989898989898992 -2.3737373737373733,3.989898989898992 -2.474747474747474,3.989898989898992 -2.5757575757575752,3.989898989898992 -2.6767676767676765,3.989898989898992 -2.7777777777777777,3.989898989898992 -2.8787878787878785,3.989898989898992 -2.9797979797979792,3.989898989898992 -3.0808080808080804,3.989898989898992 -3.1818181818181817,3.989898989898992 -3.2828282828282824,3.989898989898992 -3.383838383838383,3.989898989898992 -3.484848484848485,3.989898989898992 -3.5858585858585856,3.989898989898992" data-type="line" data-label="" points="984,516.7676767676768 974.4646464646464,507.23232323232327 964.9292929292927,497.69696969696975 955.3939393939393,488.1616161616163 945.8585858585857,478.6262626262627 936.3232323232323,469.0909090909092 926.7878787878785,459.5555555555556 917.2525252525251,450.0202020202021 907.7171717171716,440.4848484848486 898.181818181818,430.94949494949503 888.6464646464647,421.4141414141415 879.111111111111,411.87878787878793 869.5757575757575,402.3434343434344 860.0404040404039,392.80808080808094 850.5050505050505,383.27272727272737 840.969696969697,373.73737373737384 831.4343434343433,364.2020202020203 821.8989898989898,354.66666666666674 812.3636363636363,345.1313131313133 802.8282828282828,335.5959595959597 793.2929292929292,326.06060606060623 783.7575757575758,316.5252525252526 774.2222222222222,306.9898989898991 764.6868686868686,297.4545454545456 755.1515151515151,287.91919191919203 745.6161616161615,278.38383838383857 736.0808080808081,268.84848484848493 726.5454545454545,259.3131313131314 717.0101010101009,249.77777777777794 707.4747474747475,240.24242424242436 697.9393939393939,230.70707070707084 688.4040404040404,221.17171717171726 678.8686868686868,211.63636363636374 669.3333333333333,202.10101010101027 659.7979797979798,192.56565656565675 650.2626262626262,183.03030303030312 640.7272727272727,173.4949494949496 631.1919191919192,163.95959595959613 621.6565656565656,154.4242424242426 612.1212121212121,144.88888888888908 602.5858585858585,135.35353535353545 593.0505050505051,135.35353535353545 583.5151515151515,135.35353535353545 573.9797979797979,135.35353535353545 564.4444444444445,135.35353535353545 554.9090909090909,135.35353535353545 545.3737373737374,135.35353535353545 535.8383838383838,135.35353535353545 526.3030303030303,135.35353535353545 516.7676767676768,135.35353535353545 507.2323232323232,135.35353535353545 497.69696969696975,135.35353535353545 488.16161616161617,135.35353535353545 478.62626262626264,135.35353535353545 469.09090909090907,135.35353535353545 459.55555555555554,135.35353535353545 450.0202020202021,135.35353535353545 440.4848484848485,135.35353535353545 430.949494949495,135.35353535353545 421.4141414141414,135.35353535353545 411.8787878787879,135.35353535353545 402.34343434343435,135.35353535353545 392.80808080808083,135.35353535353545 383.2727272727273,135.35353535353545 373.7373737373738,135.35353535353545 364.2020202020202,135.35353535353545 354.6666666666667,135.35353535353545 345.13131313131316,135.35353535353545 335.59595959595964,135.35353535353545 326.0606060606061,135.35353535353545 316.5252525252526,135.35353535353545 306.9898989898991,135.35353535353545 297.4545454545455,135.35353535353545 287.91919191919203,135.35353535353545 278.38383838383845,135.35353535353545 268.84848484848493,135.35353535353545 259.3131313131314,135.35353535353545 249.77777777777783,135.35353535353545 240.2424242424243,135.35353535353545 230.70707070707084,135.35353535353545 221.17171717171726,135.35353535353545 211.63636363636374,135.35353535353545 202.10101010101022,135.35353535353545 192.5656565656567,135.35353535353545 183.03030303030312,135.35353535353545 173.4949494949496,135.35353535353545" fill="none" stroke="rgba(255,0,0,0.75)" stroke-width="14.159999999999995"/></g><g><polyline data-points="-3.5858585858585856,3.989898989898992 -3.6868686868686864,4.090909090909092 -3.7878787878787876,4.191919191919193 -3.8888888888888884,4.292929292929293 -3.98989898989899,4.393939393939394 -4.090909090909091,4.494949494949497 -4.191919191919193,4.595959595959597 -4.292929292929293,4.696969696969697 -4.393939393939394,4.7979797979797985 -4.494949494949496,4.7979797979797985 -4.595959595959596,4.7979797979797985 -4.696969696969697,4.7979797979797985 -4.7979797979797985,4.7979797979797985 -4.898989898989899,4.7979797979797985 -5.000000000000001,4.7979797979797985" data-type="line" data-label="" points="173.4949494949496,135.35353535353545 163.95959595959607,125.81818181818198 154.42424242424255,116.28282828282846 144.88888888888903,106.747474747475 135.35353535353545,97.21212121212153 125.81818181818193,87.67676767676778 116.28282828282829,78.14141414141432 106.74747474747483,68.60606060606085 97.21212121212136,59.07070707070733 87.67676767676772,59.07070707070733 78.14141414141426,59.07070707070733 68.60606060606068,59.07070707070733 59.07070707070716,59.07070707070733 49.53535353535369,59.07070707070733 40.00000000000006,59.07070707070733" fill="none" stroke="rgba(0,0,255,0.75)" stroke-width="14.159999999999995"/></g><g><polyline data-points="-4.393939393939394,-5.000000000000001 -4.292929292929293,-5.000000000000001 -4.191919191919193,-5.000000000000001 -4.090909090909091,-5.000000000000001 -3.98989898989899,-5.000000000000001 -3.8888888888888884,-5.000000000000001 -3.7878787878787876,-5.000000000000001 -3.6868686868686864,-5.000000000000001 -3.5858585858585856,-5.000000000000001 -3.484848484848485,-5.000000000000001 -3.383838383838383,-5.000000000000001 -3.2828282828282824,-5.000000000000001 -3.1818181818181817,-5.000000000000001 -3.0808080808080804,-5.000000000000001 -2.9797979797979792,-5.000000000000001 -2.8787878787878785,-5.000000000000001 -2.7777777777777777,-5.000000000000001 -2.6767676767676765,-5.000000000000001 -2.5757575757575752,-5.000000000000001 -2.474747474747474,-5.000000000000001 -2.3737373737373733,-5.000000000000001 -2.2727272727272725,-5.000000000000001 -2.1717171717171713,-5.000000000000001 -2.07070707070707,-5.000000000000001 -1.9696969696969693,-5.000000000000001 -1.8686868686868683,-5.000000000000001 -1.7676767676767675,-5.000000000000001 -1.6666666666666665,-5.000000000000001 -1.5656565656565653,-5.000000000000001 -1.4646464646464643,-5.000000000000001 -1.363636363636363,-5.000000000000001 -1.2626262626262625,-5.000000000000001 -1.1616161616161613,-5.000000000000001 -1.0606060606060603,-5.000000000000001 -0.9595959595959596,-5.000000000000001 -0.8585858585858579,-5.000000000000001 -0.7575757575757572,-5.000000000000001 -0.6565656565656557,-5.000000000000001 -0.555555555555555,-5.000000000000001 -0.4545454545454544,-5.000000000000001 -0.35353535353535287,-5.000000000000001 -0.2525252525252522,-5.000000000000001 -0.15151515151515066,-5.000000000000001 -0.05050505050505001,-5.000000000000001 0.050505050505051545,-5.000000000000001 0.1515151515151522,-5.000000000000001 0.2525252525252529,-5.000000000000001 0.3535353535353544,-5.000000000000001 0.4545454545454551,-5.000000000000001 0.5555555555555567,-5.000000000000001 0.6565656565656574,-5.000000000000001 0.7575757575757579,-5.000000000000001 0.8585858585858596,-5.000000000000001 0.9595959595959602,-5.000000000000001 1.0606060606060617,-5.000000000000001 1.1616161616161622,-5.000000000000001 1.262626262626263,-5.000000000000001 1.3636363636363644,-5.000000000000001 1.4646464646464652,-5.000000000000001 1.5656565656565666,-5.000000000000001 1.6666666666666674,-5.000000000000001 1.767676767676768,-5.000000000000001 1.8686868686868696,-5.000000000000001 1.9696969696969702,-5.000000000000001 2.070707070707072,-5.000000000000001 2.1717171717171726,-5.000000000000001 2.2727272727272734,-4.898989898989899 2.373737373737375,-4.7979797979797985 2.4747474747474754,-4.696969696969697 2.575757575757577,-4.595959595959596 2.676767676767678,-4.494949494949496 2.7777777777777786,-4.393939393939394 2.87878787878788,-4.292929292929293 2.9797979797979806,-4.191919191919193 3.080808080808082,-4.090909090909091 3.181818181818183,-3.98989898989899" data-type="line" data-label="" points="97.21212121212136,984 106.74747474747483,984 116.28282828282829,984 125.81818181818193,984 135.35353535353545,984 144.88888888888903,984 154.42424242424255,984 163.95959595959607,984 173.4949494949496,984 183.03030303030312,984 192.5656565656567,984 202.10101010101022,984 211.63636363636374,984 221.17171717171726,984 230.70707070707084,984 240.2424242424243,984 249.77777777777783,984 259.3131313131314,984 268.84848484848493,984 278.38383838383845,984 287.91919191919203,984 297.4545454545455,984 306.9898989898991,984 316.5252525252526,984 326.0606060606061,984 335.59595959595964,984 345.13131313131316,984 354.6666666666667,984 364.2020202020202,984 373.7373737373738,984 383.2727272727273,984 392.80808080808083,984 402.34343434343435,984 411.8787878787879,984 421.4141414141414,984 430.949494949495,984 440.4848484848485,984 450.0202020202021,984 459.55555555555554,984 469.09090909090907,984 478.62626262626264,984 488.16161616161617,984 497.69696969696975,984 507.2323232323232,984 516.7676767676768,984 526.3030303030303,984 535.8383838383838,984 545.3737373737374,984 554.9090909090909,984 564.4444444444445,984 573.9797979797979,984 583.5151515151515,984 593.0505050505051,984 602.5858585858585,984 612.1212121212121,984 621.6565656565656,984 631.1919191919192,984 640.7272727272727,984 650.2626262626262,984 659.7979797979798,984 669.3333333333333,984 678.8686868686868,984 688.4040404040404,984 697.9393939393939,984 707.4747474747475,984 717.0101010101009,984 726.5454545454545,974.4646464646464 736.0808080808081,964.9292929292928 745.6161616161615,955.3939393939394 755.1515151515151,945.8585858585858 764.6868686868686,936.3232323232323 774.2222222222222,926.7878787878788 783.7575757575758,917.2525252525252 793.2929292929292,907.7171717171718 802.8282828282828,898.1818181818181 812.3636363636363,888.6464646464647" fill="none" stroke="rgba(255,0,0,0.75)" stroke-width="14.159999999999995"/></g><g><polyline data-points="3.181818181818183,-3.98989898989899 3.2828282828282833,-4.090909090909091 3.2828282828282833,-4.191919191919193 3.2828282828282833,-4.292929292929293 3.2828282828282833,-4.393939393939394 3.2828282828282833,-4.494949494949496 3.2828282828282833,-4.595959595959596 3.2828282828282833,-4.696969696969697 3.2828282828282833,-4.7979797979797985 3.2828282828282833,-4.898989898989899 3.2828282828282833,-5.000000000000001" data-type="line" data-label="" points="812.3636363636363,888.6464646464647 821.8989898989898,898.1818181818181 821.8989898989898,907.7171717171718 821.8989898989898,917.2525252525252 821.8989898989898,926.7878787878788 821.8989898989898,936.3232323232323 821.8989898989898,945.8585858585858 821.8989898989898,955.3939393939394 821.8989898989898,964.9292929292928 821.8989898989898,974.4646464646464 821.8989898989898,984" fill="none" stroke="rgba(0,0,255,0.75)" stroke-width="14.159999999999995"/></g><g><polyline data-points="-1.0606060606060603,-5.000000000000001 -1.1616161616161613,-4.898989898989899 -1.2626262626262625,-4.7979797979797985 -1.363636363636363,-4.696969696969697 -1.4646464646464643,-4.595959595959596 -1.5656565656565653,-4.494949494949496 -1.6666666666666665,-4.393939393939394 -1.7676767676767675,-4.292929292929293 -1.8686868686868683,-4.191919191919193 -1.9696969696969693,-4.090909090909091 -2.07070707070707,-3.98989898989899 -2.1717171717171713,-3.8888888888888884 -2.2727272727272725,-3.7878787878787876 -2.2727272727272725,-3.6868686868686864 -2.2727272727272725,-3.5858585858585856 -2.2727272727272725,-3.484848484848485 -2.2727272727272725,-3.383838383838383 -2.2727272727272725,-3.2828282828282824 -2.2727272727272725,-3.1818181818181817 -2.2727272727272725,-3.0808080808080804 -2.2727272727272725,-2.9797979797979792 -2.2727272727272725,-2.8787878787878785 -2.2727272727272725,-2.7777777777777777 -2.2727272727272725,-2.6767676767676765 -2.2727272727272725,-2.5757575757575752 -2.2727272727272725,-2.474747474747474 -2.2727272727272725,-2.3737373737373733 -2.2727272727272725,-2.2727272727272725 -2.2727272727272725,-2.1717171717171713 -2.2727272727272725,-2.07070707070707 -2.2727272727272725,-1.9696969696969693 -2.2727272727272725,-1.8686868686868683 -2.2727272727272725,-1.7676767676767675 -2.2727272727272725,-1.6666666666666665 -2.2727272727272725,-1.5656565656565653 -2.2727272727272725,-1.4646464646464643 -2.2727272727272725,-1.363636363636363 -2.2727272727272725,-1.2626262626262625 -2.2727272727272725,-1.1616161616161613 -2.2727272727272725,-1.0606060606060603 -2.2727272727272725,-0.9595959595959596 -2.2727272727272725,-0.8585858585858579 -2.2727272727272725,-0.7575757575757572 -2.2727272727272725,-0.6565656565656557 -2.2727272727272725,-0.555555555555555 -2.2727272727272725,-0.4545454545454544 -2.2727272727272725,-0.35353535353535287 -2.2727272727272725,-0.2525252525252522 -2.2727272727272725,-0.15151515151515066 -2.2727272727272725,-0.05050505050505001 -2.2727272727272725,0.050505050505051545 -2.2727272727272725,0.1515151515151522 -2.2727272727272725,0.2525252525252529 -2.2727272727272725,0.3535353535353544 -2.2727272727272725,0.4545454545454551 -2.2727272727272725,0.5555555555555567 -2.2727272727272725,0.6565656565656574 -2.2727272727272725,0.7575757575757579 -2.2727272727272725,0.8585858585858596 -2.2727272727272725,0.9595959595959602 -2.2727272727272725,1.0606060606060617 -2.2727272727272725,1.1616161616161622 -2.2727272727272725,1.262626262626263 -2.2727272727272725,1.3636363636363644 -2.2727272727272725,1.4646464646464652 -2.2727272727272725,1.5656565656565666 -2.2727272727272725,1.6666666666666674 -2.2727272727272725,1.767676767676768 -2.2727272727272725,1.8686868686868696 -2.2727272727272725,1.9696969696969702 -2.2727272727272725,2.070707070707072" data-type="line" data-label="" points="411.8787878787879,984 402.34343434343435,974.4646464646464 392.80808080808083,964.9292929292928 383.2727272727273,955.3939393939394 373.7373737373738,945.8585858585858 364.2020202020202,936.3232323232323 354.6666666666667,926.7878787878788 345.13131313131316,917.2525252525252 335.59595959595964,907.7171717171718 326.0606060606061,898.1818181818181 316.5252525252526,888.6464646464647 306.9898989898991,879.1111111111111 297.4545454545455,869.5757575757575 297.4545454545455,860.0404040404039 297.4545454545455,850.5050505050505 297.4545454545455,840.969696969697 297.4545454545455,831.4343434343434 297.4545454545455,821.8989898989898 297.4545454545455,812.3636363636363 297.4545454545455,802.8282828282828 297.4545454545455,793.2929292929292 297.4545454545455,783.7575757575758 297.4545454545455,774.2222222222222 297.4545454545455,764.6868686868687 297.4545454545455,755.1515151515151 297.4545454545455,745.6161616161615 297.4545454545455,736.0808080808081 297.4545454545455,726.5454545454545 297.4545454545455,717.010101010101 297.4545454545455,707.4747474747475 297.4545454545455,697.939393939394 297.4545454545455,688.4040404040404 297.4545454545455,678.8686868686868 297.4545454545455,669.3333333333334 297.4545454545455,659.7979797979798 297.4545454545455,650.2626262626263 297.4545454545455,640.7272727272727 297.4545454545455,631.1919191919193 297.4545454545455,621.6565656565657 297.4545454545455,612.1212121212121 297.4545454545455,602.5858585858587 297.4545454545455,593.0505050505051 297.4545454545455,583.5151515151516 297.4545454545455,573.979797979798 297.4545454545455,564.4444444444445 297.4545454545455,554.909090909091 297.4545454545455,545.3737373737374 297.4545454545455,535.838383838384 297.4545454545455,526.3030303030304 297.4545454545455,516.7676767676768 297.4545454545455,507.23232323232327 297.4545454545455,497.69696969696975 297.4545454545455,488.1616161616163 297.4545454545455,478.6262626262627 297.4545454545455,469.0909090909092 297.4545454545455,459.5555555555556 297.4545454545455,450.0202020202021 297.4545454545455,440.4848484848486 297.4545454545455,430.94949494949503 297.4545454545455,421.4141414141415 297.4545454545455,411.87878787878793 297.4545454545455,402.3434343434344 297.4545454545455,392.80808080808094 297.4545454545455,383.27272727272737 297.4545454545455,373.73737373737384 297.4545454545455,364.2020202020203 297.4545454545455,354.66666666666674 297.4545454545455,345.1313131313133 297.4545454545455,335.5959595959597 297.4545454545455,326.06060606060623 297.4545454545455,316.5252525252526" fill="none" stroke="rgba(0,0,255,0.75)" stroke-width="14.159999999999995"/></g><g><polyline data-points="-2.2727272727272725,2.070707070707072 -2.3737373737373733,2.1717171717171726 -2.474747474747474,2.2727272727272734 -2.5757575757575752,2.373737373737375 -2.6767676767676765,2.4747474747474754 -2.7777777777777777,2.575757575757577 -2.8787878787878785,2.676767676767678 -2.9797979797979792,2.7777777777777786 -3.0808080808080804,2.87878787878788 -3.1818181818181817,2.9797979797979806 -3.2828282828282824,3.080808080808082 -3.383838383838383,3.181818181818183 -3.484848484848485,3.2828282828282833 -3.5858585858585856,3.383838383838384 -3.6868686868686864,3.4848484848484866 -3.7878787878787876,3.5858585858585874 -3.8888888888888884,3.6868686868686877 -3.98989898989899,3.7878787878787885 -3.98989898989899,3.8888888888888893 -4.090909090909091,3.989898989898992 -3.98989898989899,4.090909090909092 -3.98989898989899,4.191919191919193 -3.8888888888888884,4.292929292929293 -3.7878787878787876,4.393939393939394 -3.6868686868686864,4.494949494949497 -3.5858585858585856,4.595959595959597 -3.484848484848485,4.696969696969697 -3.383838383838383,4.7979797979797985 -3.2828282828282824,4.898989898989901 -3.1818181818181817,5.000000000000002 -3.0808080808080804,5.000000000000002 -2.9797979797979792,5.000000000000002 -2.8787878787878785,5.000000000000002 -2.7777777777777777,5.000000000000002 -2.6767676767676765,5.000000000000002 -2.5757575757575752,5.000000000000002 -2.474747474747474,5.000000000000002 -2.3737373737373733,5.000000000000002 -2.2727272727272725,5.000000000000002" data-type="line" data-label="" points="297.4545454545455,316.5252525252526 287.91919191919203,306.9898989898991 278.38383838383845,297.4545454545456 268.84848484848493,287.91919191919203 259.3131313131314,278.38383838383857 249.77777777777783,268.84848484848493 240.2424242424243,259.3131313131314 230.70707070707084,249.77777777777794 221.17171717171726,240.24242424242436 211.63636363636374,230.70707070707084 202.10101010101022,221.17171717171726 192.5656565656567,211.63636363636374 183.03030303030312,202.10101010101027 173.4949494949496,192.56565656565675 163.95959595959607,183.03030303030312 154.42424242424255,173.4949494949496 144.88888888888903,163.95959595959613 135.35353535353545,154.4242424242426 135.35353535353545,144.88888888888908 125.81818181818193,135.35353535353545 135.35353535353545,125.81818181818198 135.35353535353545,116.28282828282846 144.88888888888903,106.747474747475 154.42424242424255,97.21212121212153 163.95959595959607,87.67676767676778 173.4949494949496,78.14141414141432 183.03030303030312,68.60606060606085 192.5656565656567,59.07070707070733 202.10101010101022,49.53535353535369 211.63636363636374,40.000000000000114 221.17171717171726,40.000000000000114 230.70707070707084,40.000000000000114 240.2424242424243,40.000000000000114 249.77777777777783,40.000000000000114 259.3131313131314,40.000000000000114 268.84848484848493,40.000000000000114 278.38383838383845,40.000000000000114 287.91919191919203,40.000000000000114 297.4545454545455,40.000000000000114" fill="none" stroke="rgba(255,0,0,0.75)" stroke-width="14.159999999999995"/></g><g><polyline data-points="5.000000000000002,1.767676767676768 4.898989898989901,1.6666666666666674 4.7979797979797985,1.5656565656565666 4.696969696969697,1.5656565656565666 4.595959595959597,1.5656565656565666 4.494949494949497,1.5656565656565666 4.393939393939394,1.5656565656565666 4.292929292929293,1.5656565656565666 4.191919191919193,1.5656565656565666 4.090909090909092,1.5656565656565666 3.989898989898992,1.5656565656565666 3.8888888888888893,1.5656565656565666 3.7878787878787885,1.5656565656565666 3.6868686868686877,1.5656565656565666 3.5858585858585874,1.5656565656565666 3.4848484848484866,1.5656565656565666 3.383838383838384,1.5656565656565666 3.2828282828282833,1.5656565656565666 3.181818181818183,1.5656565656565666 3.080808080808082,1.5656565656565666 2.9797979797979806,1.5656565656565666 2.87878787878788,1.5656565656565666 2.7777777777777786,1.5656565656565666 2.676767676767678,1.5656565656565666 2.575757575757577,1.5656565656565666 2.4747474747474754,1.5656565656565666 2.373737373737375,1.5656565656565666 2.2727272727272734,1.5656565656565666 2.1717171717171726,1.5656565656565666 2.070707070707072,1.5656565656565666 1.9696969696969702,1.5656565656565666 1.8686868686868696,1.5656565656565666 1.767676767676768,1.5656565656565666 1.6666666666666674,1.5656565656565666 1.5656565656565666,1.5656565656565666 1.4646464646464652,1.5656565656565666 1.3636363636363644,1.5656565656565666 1.262626262626263,1.5656565656565666 1.1616161616161622,1.5656565656565666 1.0606060606060617,1.5656565656565666 0.9595959595959602,1.5656565656565666 0.8585858585858596,1.5656565656565666 0.7575757575757579,1.5656565656565666 0.6565656565656574,1.5656565656565666 0.5555555555555567,1.5656565656565666 0.4545454545454551,1.5656565656565666 0.3535353535353544,1.5656565656565666 0.2525252525252529,1.5656565656565666 0.1515151515151522,1.5656565656565666 0.050505050505051545,1.5656565656565666 -0.05050505050505001,1.5656565656565666 -0.15151515151515066,1.5656565656565666 -0.2525252525252522,1.5656565656565666 -0.35353535353535287,1.5656565656565666 -0.4545454545454544,1.5656565656565666 -0.555555555555555,1.5656565656565666 -0.6565656565656557,1.5656565656565666 -0.7575757575757572,1.5656565656565666 -0.8585858585858579,1.5656565656565666 -0.9595959595959596,1.5656565656565666 -1.0606060606060603,1.5656565656565666 -1.1616161616161613,1.5656565656565666 -1.2626262626262625,1.5656565656565666 -1.363636363636363,1.5656565656565666 -1.4646464646464643,1.5656565656565666 -1.5656565656565653,1.5656565656565666 -1.6666666666666665,1.5656565656565666" data-type="line" data-label="" points="984,345.1313131313133 974.4646464646464,354.66666666666674 964.9292929292927,364.2020202020203 955.3939393939393,364.2020202020203 945.8585858585857,364.2020202020203 936.3232323232323,364.2020202020203 926.7878787878785,364.2020202020203 917.2525252525251,364.2020202020203 907.7171717171716,364.2020202020203 898.181818181818,364.2020202020203 888.6464646464647,364.2020202020203 879.111111111111,364.2020202020203 869.5757575757575,364.2020202020203 860.0404040404039,364.2020202020203 850.5050505050505,364.2020202020203 840.969696969697,364.2020202020203 831.4343434343433,364.2020202020203 821.8989898989898,364.2020202020203 812.3636363636363,364.2020202020203 802.8282828282828,364.2020202020203 793.2929292929292,364.2020202020203 783.7575757575758,364.2020202020203 774.2222222222222,364.2020202020203 764.6868686868686,364.2020202020203 755.1515151515151,364.2020202020203 745.6161616161615,364.2020202020203 736.0808080808081,364.2020202020203 726.5454545454545,364.2020202020203 717.0101010101009,364.2020202020203 707.4747474747475,364.2020202020203 697.9393939393939,364.2020202020203 688.4040404040404,364.2020202020203 678.8686868686868,364.2020202020203 669.3333333333333,364.2020202020203 659.7979797979798,364.2020202020203 650.2626262626262,364.2020202020203 640.7272727272727,364.2020202020203 631.1919191919192,364.2020202020203 621.6565656565656,364.2020202020203 612.1212121212121,364.2020202020203 602.5858585858585,364.2020202020203 593.0505050505051,364.2020202020203 583.5151515151515,364.2020202020203 573.9797979797979,364.2020202020203 564.4444444444445,364.2020202020203 554.9090909090909,364.2020202020203 545.3737373737374,364.2020202020203 535.8383838383838,364.2020202020203 526.3030303030303,364.2020202020203 516.7676767676768,364.2020202020203 507.2323232323232,364.2020202020203 497.69696969696975,364.2020202020203 488.16161616161617,364.2020202020203 478.62626262626264,364.2020202020203 469.09090909090907,364.2020202020203 459.55555555555554,364.2020202020203 450.0202020202021,364.2020202020203 440.4848484848485,364.2020202020203 430.949494949495,364.2020202020203 421.4141414141414,364.2020202020203 411.8787878787879,364.2020202020203 402.34343434343435,364.2020202020203 392.80808080808083,364.2020202020203 383.2727272727273,364.2020202020203 373.7373737373738,364.2020202020203 364.2020202020202,364.2020202020203 354.6666666666667,364.2020202020203" fill="none" stroke="rgba(0,0,255,0.75)" stroke-width="14.159999999999995"/></g><g><polyline data-points="-1.6666666666666665,1.5656565656565666 -1.7676767676767675,1.5656565656565666 -1.8686868686868683,1.5656565656565666 -1.9696969696969693,1.5656565656565666 -2.07070707070707,1.5656565656565666 -2.1717171717171713,1.5656565656565666 -2.2727272727272725,1.5656565656565666 -2.3737373737373733,1.5656565656565666 -2.474747474747474,1.5656565656565666 -2.5757575757575752,1.5656565656565666 -2.6767676767676765,1.5656565656565666 -2.7777777777777777,1.5656565656565666 -2.8787878787878785,1.5656565656565666 -2.9797979797979792,1.5656565656565666 -3.0808080808080804,1.5656565656565666 -3.1818181818181817,1.5656565656565666 -3.2828282828282824,1.5656565656565666 -3.383838383838383,1.5656565656565666 -3.484848484848485,1.5656565656565666 -3.5858585858585856,1.5656565656565666 -3.6868686868686864,1.5656565656565666 -3.7878787878787876,1.5656565656565666 -3.8888888888888884,1.5656565656565666 -3.98989898989899,1.5656565656565666 -4.090909090909091,1.5656565656565666 -4.191919191919193,1.5656565656565666 -4.292929292929293,1.5656565656565666 -4.393939393939394,1.5656565656565666 -4.494949494949496,1.5656565656565666 -4.595959595959596,1.5656565656565666 -4.696969696969697,1.5656565656565666 -4.7979797979797985,1.5656565656565666 -4.898989898989899,1.5656565656565666 -5.000000000000001,1.5656565656565666" data-type="line" data-label="" points="354.6666666666667,364.2020202020203 345.13131313131316,364.2020202020203 335.59595959595964,364.2020202020203 326.0606060606061,364.2020202020203 316.5252525252526,364.2020202020203 306.9898989898991,364.2020202020203 297.4545454545455,364.2020202020203 287.91919191919203,364.2020202020203 278.38383838383845,364.2020202020203 268.84848484848493,364.2020202020203 259.3131313131314,364.2020202020203 249.77777777777783,364.2020202020203 240.2424242424243,364.2020202020203 230.70707070707084,364.2020202020203 221.17171717171726,364.2020202020203 211.63636363636374,364.2020202020203 202.10101010101022,364.2020202020203 192.5656565656567,364.2020202020203 183.03030303030312,364.2020202020203 173.4949494949496,364.2020202020203 163.95959595959607,364.2020202020203 154.42424242424255,364.2020202020203 144.88888888888903,364.2020202020203 135.35353535353545,364.2020202020203 125.81818181818193,364.2020202020203 116.28282828282829,364.2020202020203 106.74747474747483,364.2020202020203 97.21212121212136,364.2020202020203 87.67676767676772,364.2020202020203 78.14141414141426,364.2020202020203 68.60606060606068,364.2020202020203 59.07070707070716,364.2020202020203 49.53535353535369,364.2020202020203 40.00000000000006,364.2020202020203" fill="none" stroke="rgba(255,0,0,0.75)" stroke-width="14.159999999999995"/></g><g><rect data-type="rect" data-label="" data-x="0" data-y="0" x="40.000000000000114" y="40.000000000000284" width="943.9999999999997" height="943.9999999999998" fill="none" stroke="gray" stroke-width="0.010593220338983056"/></g><g><rect data-type="rect" data-label="" data-x="0" data-y="0" x="40.000000000000114" y="40.000000000000284" width="943.9999999999997" height="943.9999999999998" fill="none" stroke="rgba(15, 23, 42, 0.8)" stroke-width="0.010593220338983056"/></g><circle data-type="circle" data-label="" data-x="-3.5858585858585856" data-y="3.989898989898992" cx="173.4949494949496" cy="135.35353535353545" r="28.791999999999987" fill="rgba(0,0,0,0.3)" stroke="black" stroke-width="0.010593220338983056"/><circle data-type="circle" data-label="" data-x="3.181818181818183" data-y="-3.98989898989899" cx="812.3636363636363" cy="888.6464646464647" r="28.791999999999987" fill="rgba(0,0,0,0.3)" stroke="black" stroke-width="0.010593220338983056"/><circle data-type="circle" data-label="" data-x="-2.2727272727272725" data-y="2.070707070707072" cx="297.4545454545455" cy="316.5252525252526" r="28.791999999999987" fill="rgba(0,0,0,0.3)" stroke="black" stroke-width="0.010593220338983056"/><circle data-type="circle" data-label="" data-x="-1.6666666666666665" data-y="1.5656565656565666" cx="354.6666666666667" cy="364.2020202020203" r="28.791999999999987" fill="rgba(0,0,0,0.3)" stroke="black" stroke-width="0.010593220338983056"/><g id="crosshair" style="display: none"><line id="crosshair-h" y1="0" y2="1024" stroke="#666" stroke-width="0.5"/><line id="crosshair-v" x1="0" x2="1024" stroke="#666" stroke-width="0.5"/><text id="coordinates" font-family="monospace" font-size="12" fill="#666"></text></g><script><![CDATA[
              document.currentScript.parentElement.addEventListener('mousemove', (e) => {
                const svg = e.currentTarget;
                const rect = svg.getBoundingClientRect();
                const x = e.clientX - rect.left;
                const y = e.clientY - rect.top;
                const crosshair = svg.getElementById('crosshair');
                const h = svg.getElementById('crosshair-h');
                const v = svg.getElementById('crosshair-v');
                const coords = svg.getElementById('coordinates');
                
                crosshair.style.display = 'block';
                h.setAttribute('x1', '0');
                h.setAttribute('x2', '1024');
                h.setAttribute('y1', y);
                h.setAttribute('y2', y);
                v.setAttribute('x1', x);
                v.setAttribute('x2', x);
                v.setAttribute('y1', '0');
                v.setAttribute('y2', '1024');

                // Calculate real coordinates using inverse transformation
                const matrix = {"a":94.39999999999996,"c":0,"e":511.99999999999994,"b":0,"d":-94.39999999999996,"f":512.0000000000001};
                // Manually invert and apply the affine transform
                // Since we only use translate and scale, we can directly compute:
                // x' = (x - tx) / sx
                // y' = (y - ty) / sy
                const sx = matrix.a;
                const sy = matrix.d;
                const tx = matrix.e; 
                const ty = matrix.f;
                const realPoint = {
                  x: (x - tx) / sx,
                  y: (y - ty) / sy // Flip y back since we used negative scale
                }
                
                coords.textContent = `(${realPoint.x.toFixed(2)}, ${realPoint.y.toFixed(2)})`;
                coords.setAttribute('x', (x + 5).toString());
                coords.setAttribute('y', (y - 5).toString());
              });
              document.currentScript.parentElement.addEventListener('mouseleave', () => {
                document.currentScript.parentElement.getElementById('crosshair').style.display = 'none';
              });
            ]]></script></svg>