<svg width="1024" height="1024" viewBox="0 0 1024 1024" xmlns="http://www.w3.org/2000/svg"><rect width="100%" height="100%" fill="white"/><g><circle data-type="point" data-label="conn_000" data-x="2.32" data-y="-5" cx="731.0079999999998" cy="984" r="28.792" fill="red" stroke="#bd0f6d" stroke-width="28.792"/></g><g><circle data-type="point" data-label="conn_000" data-x="1.08" data-y="5" cx="613.9519999999999" cy="40.000000000000284" r="28.792" fill="red" stroke="#bd0f6d" stroke-width="28.792"/></g><g><circle data-type="point" data-label="conn_001" data-x="-4.48" data-y="5" cx="89.08800000000008" cy="40.000000000000284" r="28.792" fill="blue" stroke="#3bbd0f" stroke-width="28.792"/></g><g><circle data-type="point" data-label="conn_001" data-x="5" data-y="-3.88" cx="983.9999999999998" cy="878.2719999999999" r="28.792" fill="red" stroke="#3bbd0f" stroke-width="28.792"/></g><g><circle data-type="point" data-label="conn_002" data-x="1.04" data-y="-5" cx="610.1759999999999" cy="984" r="28.792" fill="blue" stroke="#170fbd" stroke-width="28.792"/></g><g><circle data-type="point" data-label="conn_002" data-x="4.5600000000000005" data-y="5" cx="942.4639999999998" cy="40.000000000000284" r="28.792" fill="red" stroke="#170fbd" stroke-width="28.792"/></g><g><circle data-type="point" data-label="conn_003" data-x="-5" data-y="2.02" cx="40.000000000000114" cy="321.3120000000002" r="28.792" fill="blue" stroke="#bd490f" stroke-width="28.792"/></g><g><circle data-type="point" data-label="conn_003" data-x="2.92" data-y="5" cx="787.6479999999999" cy="40.000000000000284" r="28.792" fill="blue" stroke="#bd490f" stroke-width="28.792"/></g><g><circle data-type="point" data-label="conn_004" data-x="5" data-y="-3.2600000000000002" cx="983.9999999999998" cy="819.744" r="28.792" fill="red" stroke="#0fbd7c" stroke-width="28.792"/></g><g><circle data-type="point" data-label="conn_004" data-x="-5" data-y="-4.46" cx="40.000000000000114" cy="933.0239999999999" r="28.792" fill="red" stroke="#0fbd7c" stroke-width="28.792"/></g><g><circle data-type="point" data-label="conn_005" data-x="5" data-y="-0.84" cx="983.9999999999998" cy="591.296" r="28.792" fill="red" stroke="#ae0fbd" stroke-width="28.792"/></g><g><circle data-type="point" data-label="conn_005" data-x="-4.36" data-y="-5" cx="100.41600000000005" cy="984" r="28.792" fill="blue" stroke="#ae0fbd" stroke-width="28.792"/></g><g><circle data-type="point" data-label="conn_006" data-x="-5" data-y="-1.4000000000000001" cx="40.000000000000114" cy="644.1600000000001" r="28.792" fill="blue" stroke="#98bd0f" stroke-width="28.792"/></g><g><circle data-type="point" data-label="conn_006" data-x="5" data-y="0.9400000000000001" cx="983.9999999999998" cy="423.2640000000001" r="28.792" fill="blue" stroke="#98bd0f" stroke-width="28.792"/></g><g><circle data-type="point" data-label="conn_007" data-x="-5" data-y="-2.08" cx="40.000000000000114" cy="708.3520000000001" r="28.792" fill="blue" stroke="#0f66bd" stroke-width="28.792"/></g><g><circle data-type="point" data-label="conn_007" data-x="-5" data-y="1.2" cx="40.000000000000114" cy="398.72000000000014" r="28.792" fill="blue" stroke="#0f66bd" stroke-width="28.792"/></g><g><circle data-type="point" data-label="conn_008" data-x="3.72" data-y="-5" cx="863.1679999999999" cy="984" r="28.792" fill="red" stroke="#bd0f33" stroke-width="28.792"/></g><g><circle data-type="point" data-label="conn_008" data-x="5" data-y="0" cx="983.9999999999998" cy="512.0000000000001" r="28.792" fill="red" stroke="#bd0f33" stroke-width="28.792"/></g><g><polyline data-points="-5.000000000000001,2.070707070707072 -4.898989898989899,2.1717171717171726 -4.7979797979797985,2.2727272727272734 -4.696969696969697,2.373737373737375 -4.595959595959596,2.4747474747474754 -4.494949494949496,2.575757575757577 -4.393939393939394,2.676767676767678 -4.292929292929293,2.7777777777777786 -4.191919191919193,2.87878787878788 -4.090909090909091,2.9797979797979806 -3.98989898989899,3.080808080808082 -3.8888888888888884,3.181818181818183 -3.7878787878787876,3.2828282828282833 -3.6868686868686864,3.383838383838384 -3.5858585858585856,3.4848484848484866 -3.484848484848485,3.5858585858585874 -3.383838383838383,3.6868686868686877 -3.2828282828282824,3.7878787878787885 -3.1818181818181817,3.8888888888888893 -3.0808080808080804,3.989898989898992 -2.9797979797979792,4.090909090909092 -2.8787878787878785,4.191919191919193 -2.7777777777777777,4.292929292929293 -2.6767676767676765,4.393939393939394 -2.5757575757575752,4.494949494949497 -2.474747474747474,4.595959595959597 -2.3737373737373733,4.696969696969697 -2.2727272727272725,4.7979797979797985 -2.1717171717171713,4.898989898989901 -2.07070707070707,5.000000000000002 -1.9696969696969693,5.000000000000002 -1.8686868686868683,5.000000000000002 -1.7676767676767675,5.000000000000002 -1.6666666666666665,5.000000000000002 -1.5656565656565653,5.000000000000002 -1.4646464646464643,5.000000000000002 -1.363636363636363,5.000000000000002 -1.2626262626262625,5.000000000000002 -1.1616161616161613,5.000000000000002 -1.0606060606060603,5.000000000000002 -0.9595959595959596,5.000000000000002 -0.8585858585858579,5.000000000000002 -0.7575757575757572,5.000000000000002 -0.6565656565656557,5.000000000000002 -0.555555555555555,5.000000000000002 -0.4545454545454544,5.000000000000002 -0.35353535353535287,5.000000000000002 -0.2525252525252522,5.000000000000002 -0.15151515151515066,5.000000000000002 -0.05050505050505001,5.000000000000002 0.050505050505051545,5.000000000000002 0.1515151515151522,5.000000000000002 0.2525252525252529,5.000000000000002 0.3535353535353544,5.000000000000002 0.4545454545454551,5.000000000000002 0.5555555555555567,5.000000000000002 0.6565656565656574,5.000000000000002 0.7575757575757579,5.000000000000002 0.8585858585858596,5.000000000000002 0.9595959595959602,5.000000000000002 1.0606060606060617,5.000000000000002 1.1616161616161622,5.000000000000002 1.262626262626263,5.000000000000002 1.3636363636363644,5.000000000000002 1.4646464646464652,5.000000000000002 1.5656565656565666,5.000000000000002 1.6666666666666674,5.000000000000002 1.767676767676768,5.000000000000002 1.8686868686868696,5.000000000000002 1.9696969696969702,5.000000000000002 2.070707070707072,5.000000000000002 2.1717171717171726,5.000000000000002 2.2727272727272734,5.000000000000002 2.373737373737375,5.000000000000002 2.4747474747474754,5.000000000000002 2.575757575757577,5.000000000000002 2.676767676767678,5.000000000000002 2.7777777777777786,5.000000000000002 2.87878787878788,5.000000000000002 2.9797979797979806,5.000000000000002" data-type="line" data-label="" points="40.00000000000006,316.5252525252526 49.53535353535369,306.9898989898991 59.07070707070716,297.4545454545456 68.60606060606068,287.91919191919203 78.14141414141426,278.38383838383857 87.67676767676772,268.84848484848493 97.21212121212136,259.3131313131314 106.74747474747483,249.77777777777794 116.28282828282829,240.24242424242436 125.81818181818193,230.70707070707084 135.35353535353545,221.17171717171726 144.88888888888903,211.63636363636374 154.42424242424255,202.10101010101027 163.95959595959607,192.56565656565675 173.4949494949496,183.03030303030312 183.03030303030312,173.4949494949496 192.5656565656567,163.95959595959613 202.10101010101022,154.4242424242426 211.63636363636374,144.88888888888908 221.17171717171726,135.35353535353545 230.70707070707084,125.81818181818198 240.2424242424243,116.28282828282846 249.77777777777783,106.747474747475 259.3131313131314,97.21212121212153 268.84848484848493,87.67676767676778 278.38383838383845,78.14141414141432 287.91919191919203,68.60606060606085 297.4545454545455,59.07070707070733 306.9898989898991,49.53535353535369 316.5252525252526,40.000000000000114 326.0606060606061,40.000000000000114 335.59595959595964,40.000000000000114 345.13131313131316,40.000000000000114 354.6666666666667,40.000000000000114 364.2020202020202,40.000000000000114 373.7373737373738,40.000000000000114 383.2727272727273,40.000000000000114 392.80808080808083,40.000000000000114 402.34343434343435,40.000000000000114 411.8787878787879,40.000000000000114 421.4141414141414,40.000000000000114 430.949494949495,40.000000000000114 440.4848484848485,40.000000000000114 450.0202020202021,40.000000000000114 459.55555555555554,40.000000000000114 469.09090909090907,40.000000000000114 478.62626262626264,40.000000000000114 488.16161616161617,40.000000000000114 497.69696969696975,40.000000000000114 507.2323232323232,40.000000000000114 516.7676767676768,40.000000000000114 526.3030303030303,40.000000000000114 535.8383838383838,40.000000000000114 545.3737373737374,40.000000000000114 554.9090909090909,40.000000000000114 564.4444444444445,40.000000000000114 573.9797979797979,40.000000000000114 583.5151515151515,40.000000000000114 593.0505050505051,40.000000000000114 602.5858585858585,40.000000000000114 612.1212121212121,40.000000000000114 621.6565656565656,40.000000000000114 631.1919191919192,40.000000000000114 640.7272727272727,40.000000000000114 650.2626262626262,40.000000000000114 659.7979797979798,40.000000000000114 669.3333333333333,40.000000000000114 678.8686868686868,40.000000000000114 688.4040404040404,40.000000000000114 697.9393939393939,40.000000000000114 707.4747474747475,40.000000000000114 717.0101010101009,40.000000000000114 726.5454545454545,40.000000000000114 736.0808080808081,40.000000000000114 745.6161616161615,40.000000000000114 755.1515151515151,40.000000000000114 764.6868686868686,40.000000000000114 774.2222222222222,40.000000000000114 783.7575757575758,40.000000000000114 793.2929292929292,40.000000000000114" fill="none" stroke="rgba(0,0,255,0.75)" stroke-width="14.159999999999995"/></g><g><polyline data-points="1.0606060606060617,-5.000000000000001 1.1616161616161622,-4.898989898989899 1.262626262626263,-4.7979797979797985 1.3636363636363644,-4.696969696969697 1.4646464646464652,-4.595959595959596 1.5656565656565666,-4.494949494949496 1.6666666666666674,-4.494949494949496 1.767676767676768,-4.494949494949496 1.8686868686868696,-4.494949494949496 1.9696969696969702,-4.494949494949496 2.070707070707072,-4.494949494949496 2.1717171717171726,-4.494949494949496 2.2727272727272734,-4.393939393939394 2.373737373737375,-4.393939393939394 2.4747474747474754,-4.292929292929293 2.575757575757577,-4.191919191919193 2.676767676767678,-4.090909090909091 2.7777777777777786,-3.98989898989899 2.87878787878788,-3.8888888888888884 2.9797979797979806,-3.7878787878787876 3.080808080808082,-3.6868686868686864 3.181818181818183,-3.5858585858585856 3.2828282828282833,-3.484848484848485 3.383838383838384,-3.383838383838383 3.4848484848484866,-3.2828282828282824 3.5858585858585874,-3.1818181818181817 3.6868686868686877,-3.0808080808080804 3.7878787878787885,-2.9797979797979792 3.8888888888888893,-2.8787878787878785 3.989898989898992,-2.7777777777777777 3.989898989898992,-2.6767676767676765 3.989898989898992,-2.5757575757575752 3.989898989898992,-2.474747474747474 3.989898989898992,-2.3737373737373733 3.989898989898992,-2.2727272727272725 3.989898989898992,-2.1717171717171713 3.989898989898992,-2.07070707070707 3.989898989898992,-1.9696969696969693 3.989898989898992,-1.8686868686868683 3.989898989898992,-1.7676767676767675 3.989898989898992,-1.6666666666666665 3.989898989898992,-1.5656565656565653 3.989898989898992,-1.4646464646464643 3.989898989898992,-1.363636363636363 3.989898989898992,-1.2626262626262625 3.989898989898992,-1.1616161616161613 3.989898989898992,-1.0606060606060603 3.989898989898992,-0.9595959595959596 3.989898989898992,-0.8585858585858579 3.989898989898992,-0.7575757575757572 3.989898989898992,-0.6565656565656557 3.989898989898992,-0.555555555555555 3.989898989898992,-0.4545454545454544 3.989898989898992,-0.35353535353535287 3.989898989898992,-0.2525252525252522 3.989898989898992,-0.15151515151515066 3.989898989898992,-0.05050505050505001 3.989898989898992,0.050505050505051545 3.989898989898992,0.1515151515151522 3.989898989898992,0.2525252525252529 3.989898989898992,0.3535353535353544 3.989898989898992,0.4545454545454551 3.989898989898992,0.5555555555555567 3.989898989898992,0.6565656565656574 3.989898989898992,0.7575757575757579 3.989898989898992,0.8585858585858596 3.989898989898992,0.9595959595959602 3.989898989898992,1.0606060606060617 3.989898989898992,1.1616161616161622 3.989898989898992,1.262626262626263 3.989898989898992,1.3636363636363644 3.989898989898992,1.4646464646464652 3.989898989898992,1.5656565656565666 3.989898989898992,1.6666666666666674 3.989898989898992,1.767676767676768 3.989898989898992,1.8686868686868696 3.989898989898992,1.9696969696969702 3.989898989898992,2.070707070707072 3.989898989898992,2.1717171717171726 3.989898989898992,2.2727272727272734 3.989898989898992,2.373737373737375 3.989898989898992,2.4747474747474754 3.989898989898992,2.575757575757577 3.989898989898992,2.676767676767678 3.989898989898992,2.7777777777777786 3.989898989898992,2.87878787878788 3.989898989898992,2.9797979797979806 3.989898989898992,3.080808080808082 3.989898989898992,3.181818181818183 3.989898989898992,3.2828282828282833 3.989898989898992,3.383838383838384 3.989898989898992,3.4848484848484866 3.989898989898992,3.5858585858585874 3.989898989898992,3.6868686868686877 3.989898989898992,3.7878787878787885 3.989898989898992,3.8888888888888893 3.989898989898992,3.989898989898992" data-type="line" data-label="" points="612.1212121212121,984 621.6565656565656,974.4646464646464 631.1919191919192,964.9292929292928 640.7272727272727,955.3939393939394 650.2626262626262,945.8585858585858 659.7979797979798,936.3232323232323 669.3333333333333,936.3232323232323 678.8686868686868,936.3232323232323 688.4040404040404,936.3232323232323 697.9393939393939,936.3232323232323 707.4747474747475,936.3232323232323 717.0101010101009,936.3232323232323 726.5454545454545,926.7878787878788 736.0808080808081,926.7878787878788 745.6161616161615,917.2525252525252 755.1515151515151,907.7171717171718 764.6868686868686,898.1818181818181 774.2222222222222,888.6464646464647 783.7575757575758,879.1111111111111 793.2929292929292,869.5757575757575 802.8282828282828,860.0404040404039 812.3636363636363,850.5050505050505 821.8989898989898,840.969696969697 831.4343434343433,831.4343434343434 840.969696969697,821.8989898989898 850.5050505050505,812.3636363636363 860.0404040404039,802.8282828282828 869.5757575757575,793.2929292929292 879.111111111111,783.7575757575758 888.6464646464647,774.2222222222222 888.6464646464647,764.6868686868687 888.6464646464647,755.1515151515151 888.6464646464647,745.6161616161615 888.6464646464647,736.0808080808081 888.6464646464647,726.5454545454545 888.6464646464647,717.010101010101 888.6464646464647,707.4747474747475 888.6464646464647,697.939393939394 888.6464646464647,688.4040404040404 888.6464646464647,678.8686868686868 888.6464646464647,669.3333333333334 888.6464646464647,659.7979797979798 888.6464646464647,650.2626262626263 888.6464646464647,640.7272727272727 888.6464646464647,631.1919191919193 888.6464646464647,621.6565656565657 888.6464646464647,612.1212121212121 888.6464646464647,602.5858585858587 888.6464646464647,593.0505050505051 888.6464646464647,583.5151515151516 888.6464646464647,573.979797979798 888.6464646464647,564.4444444444445 888.6464646464647,554.909090909091 888.6464646464647,545.3737373737374 888.6464646464647,535.838383838384 888.6464646464647,526.3030303030304 888.6464646464647,516.7676767676768 888.6464646464647,507.23232323232327 888.6464646464647,497.69696969696975 888.6464646464647,488.1616161616163 888.6464646464647,478.6262626262627 888.6464646464647,469.0909090909092 888.6464646464647,459.5555555555556 888.6464646464647,450.0202020202021 888.6464646464647,440.4848484848486 888.6464646464647,430.94949494949503 888.6464646464647,421.4141414141415 888.6464646464647,411.87878787878793 888.6464646464647,402.3434343434344 888.6464646464647,392.80808080808094 888.6464646464647,383.27272727272737 888.6464646464647,373.73737373737384 888.6464646464647,364.2020202020203 888.6464646464647,354.66666666666674 888.6464646464647,345.1313131313133 888.6464646464647,335.5959595959597 888.6464646464647,326.06060606060623 888.6464646464647,316.5252525252526 888.6464646464647,306.9898989898991 888.6464646464647,297.4545454545456 888.6464646464647,287.91919191919203 888.6464646464647,278.38383838383857 888.6464646464647,268.84848484848493 888.6464646464647,259.3131313131314 888.6464646464647,249.77777777777794 888.6464646464647,240.24242424242436 888.6464646464647,230.70707070707084 888.6464646464647,221.17171717171726 888.6464646464647,211.63636363636374 888.6464646464647,202.10101010101027 888.6464646464647,192.56565656565675 888.6464646464647,183.03030303030312 888.6464646464647,173.4949494949496 888.6464646464647,163.95959595959613 888.6464646464647,154.4242424242426 888.6464646464647,144.88888888888908 888.6464646464647,135.35353535353545" fill="none" stroke="rgba(0,0,255,0.75)" stroke-width="14.159999999999995"/></g><g><polyline data-points="3.989898989898992,3.989898989898992 4.090909090909092,4.090909090909092 4.191919191919193,4.191919191919193 4.292929292929293,4.292929292929293 4.393939393939394,4.393939393939394 4.494949494949497,4.494949494949497 4.595959595959597,4.595959595959597 4.595959595959597,4.696969696969697 4.595959595959597,4.7979797979797985 4.595959595959597,4.898989898989901 4.595959595959597,5.000000000000002" data-type="line" data-label="" points="888.6464646464647,135.35353535353545 898.181818181818,125.81818181818198 907.7171717171716,116.28282828282846 917.2525252525251,106.747474747475 926.7878787878785,97.21212121212153 936.3232323232323,87.67676767676778 945.8585858585857,78.14141414141432 945.8585858585857,68.60606060606085 945.8585858585857,59.07070707070733 945.8585858585857,49.53535353535369 945.8585858585857,40.000000000000114" fill="none" stroke="rgba(255,0,0,0.75)" stroke-width="14.159999999999995"/></g><g><polyline data-points="-5.000000000000001,-1.4646464646464643 -4.898989898989899,-1.363636363636363 -4.7979797979797985,-1.2626262626262625 -4.696969696969697,-1.1616161616161613 -4.595959595959596,-1.0606060606060603 -4.494949494949496,-0.9595959595959596 -4.393939393939394,-0.8585858585858579 -4.292929292929293,-0.7575757575757572 -4.191919191919193,-0.6565656565656557 -4.090909090909091,-0.555555555555555 -3.98989898989899,-0.4545454545454544 -3.8888888888888884,-0.35353535353535287 -3.7878787878787876,-0.2525252525252522 -3.6868686868686864,-0.15151515151515066 -3.5858585858585856,-0.05050505050505001 -3.484848484848485,0.050505050505051545 -3.383838383838383,0.1515151515151522 -3.2828282828282824,0.2525252525252529 -3.1818181818181817,0.3535353535353544 -3.0808080808080804,0.4545454545454551 -2.9797979797979792,0.5555555555555567 -2.8787878787878785,0.6565656565656574 -2.7777777777777777,0.7575757575757579 -2.6767676767676765,0.8585858585858596 -2.5757575757575752,0.9595959595959602 -2.474747474747474,0.9595959595959602 -2.3737373737373733,0.9595959595959602 -2.2727272727272725,0.9595959595959602 -2.1717171717171713,0.9595959595959602 -2.07070707070707,0.9595959595959602 -1.9696969696969693,0.9595959595959602 -1.8686868686868683,0.9595959595959602 -1.7676767676767675,0.9595959595959602 -1.6666666666666665,0.9595959595959602 -1.5656565656565653,0.9595959595959602 -1.4646464646464643,0.9595959595959602 -1.363636363636363,0.9595959595959602 -1.2626262626262625,0.9595959595959602 -1.1616161616161613,0.9595959595959602 -1.0606060606060603,0.9595959595959602 -0.9595959595959596,0.9595959595959602 -0.8585858585858579,0.9595959595959602 -0.7575757575757572,0.9595959595959602 -0.6565656565656557,0.9595959595959602 -0.555555555555555,0.9595959595959602 -0.4545454545454544,0.9595959595959602 -0.35353535353535287,0.9595959595959602 -0.2525252525252522,0.9595959595959602 -0.15151515151515066,0.9595959595959602 -0.05050505050505001,0.9595959595959602 0.050505050505051545,0.9595959595959602 0.1515151515151522,0.9595959595959602 0.2525252525252529,0.9595959595959602 0.3535353535353544,0.9595959595959602 0.4545454545454551,1.0606060606060617 0.5555555555555567,1.1616161616161622 0.6565656565656574,1.262626262626263 0.7575757575757579,1.3636363636363644 0.8585858585858596,1.4646464646464652 0.9595959595959602,1.5656565656565666 1.0606060606060617,1.6666666666666674 1.1616161616161622,1.767676767676768 1.262626262626263,1.8686868686868696 1.3636363636363644,1.9696969696969702 1.4646464646464652,2.070707070707072 1.5656565656565666,2.1717171717171726 1.6666666666666674,2.2727272727272734 1.767676767676768,2.373737373737375 1.8686868686868696,2.4747474747474754 1.9696969696969702,2.575757575757577 2.070707070707072,2.676767676767678 2.1717171717171726,2.7777777777777786 2.2727272727272734,2.87878787878788 2.373737373737375,2.9797979797979806 2.4747474747474754,3.080808080808082 2.575757575757577,3.181818181818183 2.676767676767678,3.2828282828282833 2.7777777777777786,3.383838383838384 2.87878787878788,3.4848484848484866 2.9797979797979806,3.5858585858585874 3.080808080808082,3.6868686868686877 3.181818181818183,3.7878787878787885 3.2828282828282833,3.8888888888888893 3.383838383838384,3.989898989898992 3.4848484848484866,4.090909090909092 3.5858585858585874,4.191919191919193 3.6868686868686877,4.292929292929293 3.7878787878787885,4.393939393939394 3.8888888888888893,4.393939393939394 3.989898989898992,4.494949494949497 4.090909090909092,4.393939393939394 4.191919191919193,4.393939393939394 4.292929292929293,4.292929292929293 4.393939393939394,4.191919191919193 4.494949494949497,4.090909090909092 4.595959595959597,3.989898989898992 4.696969696969697,3.8888888888888893 4.7979797979797985,3.7878787878787885 4.898989898989901,3.6868686868686877 5.000000000000002,3.5858585858585874 5.000000000000002,3.4848484848484866 5.000000000000002,3.383838383838384 5.000000000000002,3.2828282828282833 5.000000000000002,3.181818181818183 5.000000000000002,3.080808080808082 5.000000000000002,2.9797979797979806 5.000000000000002,2.87878787878788 5.000000000000002,2.7777777777777786 5.000000000000002,2.676767676767678 5.000000000000002,2.575757575757577 5.000000000000002,2.4747474747474754 5.000000000000002,2.373737373737375 5.000000000000002,2.2727272727272734 5.000000000000002,2.1717171717171726 5.000000000000002,2.070707070707072 5.000000000000002,1.9696969696969702 5.000000000000002,1.8686868686868696 5.000000000000002,1.767676767676768 5.000000000000002,1.6666666666666674 5.000000000000002,1.5656565656565666 5.000000000000002,1.4646464646464652 5.000000000000002,1.3636363636363644 5.000000000000002,1.262626262626263 5.000000000000002,1.1616161616161622 5.000000000000002,1.0606060606060617 5.000000000000002,0.9595959595959602" data-type="line" data-label="" points="40.00000000000006,650.2626262626263 49.53535353535369,640.7272727272727 59.07070707070716,631.1919191919193 68.60606060606068,621.6565656565657 78.14141414141426,612.1212121212121 87.67676767676772,602.5858585858587 97.21212121212136,593.0505050505051 106.74747474747483,583.5151515151516 116.28282828282829,573.979797979798 125.81818181818193,564.4444444444445 135.35353535353545,554.909090909091 144.88888888888903,545.3737373737374 154.42424242424255,535.838383838384 163.95959595959607,526.3030303030304 173.4949494949496,516.7676767676768 183.03030303030312,507.23232323232327 192.5656565656567,497.69696969696975 202.10101010101022,488.1616161616163 211.63636363636374,478.6262626262627 221.17171717171726,469.0909090909092 230.70707070707084,459.5555555555556 240.2424242424243,450.0202020202021 249.77777777777783,440.4848484848486 259.3131313131314,430.94949494949503 268.84848484848493,421.4141414141415 278.38383838383845,421.4141414141415 287.91919191919203,421.4141414141415 297.4545454545455,421.4141414141415 306.9898989898991,421.4141414141415 316.5252525252526,421.4141414141415 326.0606060606061,421.4141414141415 335.59595959595964,421.4141414141415 345.13131313131316,421.4141414141415 354.6666666666667,421.4141414141415 364.2020202020202,421.4141414141415 373.7373737373738,421.4141414141415 383.2727272727273,421.4141414141415 392.80808080808083,421.4141414141415 402.34343434343435,421.4141414141415 411.8787878787879,421.4141414141415 421.4141414141414,421.4141414141415 430.949494949495,421.4141414141415 440.4848484848485,421.4141414141415 450.0202020202021,421.4141414141415 459.55555555555554,421.4141414141415 469.09090909090907,421.4141414141415 478.62626262626264,421.4141414141415 488.16161616161617,421.4141414141415 497.69696969696975,421.4141414141415 507.2323232323232,421.4141414141415 516.7676767676768,421.4141414141415 526.3030303030303,421.4141414141415 535.8383838383838,421.4141414141415 545.3737373737374,421.4141414141415 554.9090909090909,411.87878787878793 564.4444444444445,402.3434343434344 573.9797979797979,392.80808080808094 583.5151515151515,383.27272727272737 593.0505050505051,373.73737373737384 602.5858585858585,364.2020202020203 612.1212121212121,354.66666666666674 621.6565656565656,345.1313131313133 631.1919191919192,335.5959595959597 640.7272727272727,326.06060606060623 650.2626262626262,316.5252525252526 659.7979797979798,306.9898989898991 669.3333333333333,297.4545454545456 678.8686868686868,287.91919191919203 688.4040404040404,278.38383838383857 697.9393939393939,268.84848484848493 707.4747474747475,259.3131313131314 717.0101010101009,249.77777777777794 726.5454545454545,240.24242424242436 736.0808080808081,230.70707070707084 745.6161616161615,221.17171717171726 755.1515151515151,211.63636363636374 764.6868686868686,202.10101010101027 774.2222222222222,192.56565656565675 783.7575757575758,183.03030303030312 793.2929292929292,173.4949494949496 802.8282828282828,163.95959595959613 812.3636363636363,154.4242424242426 821.8989898989898,144.88888888888908 831.4343434343433,135.35353535353545 840.969696969697,125.81818181818198 850.5050505050505,116.28282828282846 860.0404040404039,106.747474747475 869.5757575757575,97.21212121212153 879.111111111111,97.21212121212153 888.6464646464647,87.67676767676778 898.181818181818,97.21212121212153 907.7171717171716,97.21212121212153 917.2525252525251,106.747474747475 926.7878787878785,116.28282828282846 936.3232323232323,125.81818181818198 945.8585858585857,135.35353535353545 955.3939393939393,144.88888888888908 964.9292929292927,154.4242424242426 974.4646464646464,163.95959595959613 984,173.4949494949496 984,183.03030303030312 984,192.56565656565675 984,202.10101010101027 984,211.63636363636374 984,221.17171717171726 984,230.70707070707084 984,240.24242424242436 984,249.77777777777794 984,259.3131313131314 984,268.84848484848493 984,278.38383838383857 984,287.91919191919203 984,297.4545454545456 984,306.9898989898991 984,316.5252525252526 984,326.06060606060623 984,335.5959595959597 984,345.1313131313133 984,354.66666666666674 984,364.2020202020203 984,373.73737373737384 984,383.27272727272737 984,392.80808080808094 984,402.3434343434344 984,411.87878787878793 984,421.4141414141415" fill="none" stroke="rgba(0,0,255,0.75)" stroke-width="14.159999999999995"/></g><g><polyline data-points="3.7878787878787885,-5.000000000000001 3.6868686868686877,-4.898989898989899 3.5858585858585874,-4.7979797979797985 3.4848484848484866,-4.696969696969697 3.383838383838384,-4.696969696969697 3.2828282828282833,-4.696969696969697 3.181818181818183,-4.696969696969697 3.080808080808082,-4.696969696969697 2.9797979797979806,-4.696969696969697 2.87878787878788,-4.696969696969697 2.7777777777777786,-4.696969696969697 2.676767676767678,-4.696969696969697 2.575757575757577,-4.696969696969697 2.4747474747474754,-4.696969696969697 2.373737373737375,-4.696969696969697 2.2727272727272734,-4.696969696969697 2.1717171717171726,-4.595959595959596 2.070707070707072,-4.494949494949496 1.9696969696969702,-4.393939393939394 1.8686868686868696,-4.292929292929293 1.767676767676768,-4.191919191919193 1.767676767676768,-4.090909090909091 1.6666666666666674,-3.98989898989899 1.5656565656565666,-3.8888888888888884 1.4646464646464652,-3.7878787878787876 1.3636363636363644,-3.6868686868686864 1.262626262626263,-3.5858585858585856 1.262626262626263,-3.484848484848485 1.1616161616161622,-3.383838383838383 1.262626262626263,-3.2828282828282824 1.262626262626263,-3.1818181818181817 1.3636363636363644,-3.0808080808080804 1.4646464646464652,-2.9797979797979792 1.5656565656565666,-2.8787878787878785 1.6666666666666674,-2.7777777777777777 1.767676767676768,-2.6767676767676765 1.8686868686868696,-2.5757575757575752 1.9696969696969702,-2.474747474747474 2.070707070707072,-2.3737373737373733 2.1717171717171726,-2.2727272727272725 2.2727272727272734,-2.1717171717171713 2.373737373737375,-2.07070707070707 2.4747474747474754,-1.9696969696969693 2.575757575757577,-1.8686868686868683 2.676767676767678,-1.7676767676767675 2.7777777777777786,-1.6666666666666665 2.87878787878788,-1.5656565656565653 2.9797979797979806,-1.4646464646464643 3.080808080808082,-1.363636363636363 3.181818181818183,-1.2626262626262625 3.2828282828282833,-1.1616161616161613 3.383838383838384,-1.0606060606060603 3.4848484848484866,-0.9595959595959596 3.5858585858585874,-0.8585858585858579 3.6868686868686877,-0.7575757575757572 3.7878787878787885,-0.6565656565656557 3.8888888888888893,-0.555555555555555 3.989898989898992,-0.4545454545454544 4.090909090909092,-0.35353535353535287 4.191919191919193,-0.2525252525252522 4.292929292929293,-0.15151515151515066 4.393939393939394,-0.05050505050505001 4.494949494949497,0.050505050505051545 4.595959595959597,0.050505050505051545 4.696969696969697,0.050505050505051545 4.7979797979797985,0.050505050505051545 4.898989898989901,0.050505050505051545 5.000000000000002,0.050505050505051545" data-type="line" data-label="" points="869.5757575757575,984 860.0404040404039,974.4646464646464 850.5050505050505,964.9292929292928 840.969696969697,955.3939393939394 831.4343434343433,955.3939393939394 821.8989898989898,955.3939393939394 812.3636363636363,955.3939393939394 802.8282828282828,955.3939393939394 793.2929292929292,955.3939393939394 783.7575757575758,955.3939393939394 774.2222222222222,955.3939393939394 764.6868686868686,955.3939393939394 755.1515151515151,955.3939393939394 745.6161616161615,955.3939393939394 736.0808080808081,955.3939393939394 726.5454545454545,955.3939393939394 717.0101010101009,945.8585858585858 707.4747474747475,936.3232323232323 697.9393939393939,926.7878787878788 688.4040404040404,917.2525252525252 678.8686868686868,907.7171717171718 678.8686868686868,898.1818181818181 669.3333333333333,888.6464646464647 659.7979797979798,879.1111111111111 650.2626262626262,869.5757575757575 640.7272727272727,860.0404040404039 631.1919191919192,850.5050505050505 631.1919191919192,840.969696969697 621.6565656565656,831.4343434343434 631.1919191919192,821.8989898989898 631.1919191919192,812.3636363636363 640.7272727272727,802.8282828282828 650.2626262626262,793.2929292929292 659.7979797979798,783.7575757575758 669.3333333333333,774.2222222222222 678.8686868686868,764.6868686868687 688.4040404040404,755.1515151515151 697.9393939393939,745.6161616161615 707.4747474747475,736.0808080808081 717.0101010101009,726.5454545454545 726.5454545454545,717.010101010101 736.0808080808081,707.4747474747475 745.6161616161615,697.939393939394 755.1515151515151,688.4040404040404 764.6868686868686,678.8686868686868 774.2222222222222,669.3333333333334 783.7575757575758,659.7979797979798 793.2929292929292,650.2626262626263 802.8282828282828,640.7272727272727 812.3636363636363,631.1919191919193 821.8989898989898,621.6565656565657 831.4343434343433,612.1212121212121 840.969696969697,602.5858585858587 850.5050505050505,593.0505050505051 860.0404040404039,583.5151515151516 869.5757575757575,573.979797979798 879.111111111111,564.4444444444445 888.6464646464647,554.909090909091 898.181818181818,545.3737373737374 907.7171717171716,535.838383838384 917.2525252525251,526.3030303030304 926.7878787878785,516.7676767676768 936.3232323232323,507.23232323232327 945.8585858585857,507.23232323232327 955.3939393939393,507.23232323232327 964.9292929292927,507.23232323232327 974.4646464646464,507.23232323232327 984,507.23232323232327" fill="none" stroke="rgba(255,0,0,0.75)" stroke-width="14.159999999999995"/></g><g><polyline data-points="-5.000000000000001,-2.07070707070707 -4.898989898989899,-1.9696969696969693 -4.7979797979797985,-1.8686868686868683 -4.696969696969697,-1.7676767676767675 -4.595959595959596,-1.6666666666666665 -4.494949494949496,-1.5656565656565653 -4.393939393939394,-1.4646464646464643 -4.292929292929293,-1.363636363636363 -4.191919191919193,-1.2626262626262625 -4.090909090909091,-1.2626262626262625 -3.98989898989899,-1.2626262626262625" data-type="line" data-label="" points="40.00000000000006,707.4747474747475 49.53535353535369,697.939393939394 59.07070707070716,688.4040404040404 68.60606060606068,678.8686868686868 78.14141414141426,669.3333333333334 87.67676767676772,659.7979797979798 97.21212121212136,650.2626262626263 106.74747474747483,640.7272727272727 116.28282828282829,631.1919191919193 125.81818181818193,631.1919191919193 135.35353535353545,631.1919191919193" fill="none" stroke="rgba(0,0,255,0.75)" stroke-width="14.159999999999995"/></g><g><polyline data-points="-3.98989898989899,-1.2626262626262625 -3.98989898989899,-1.1616161616161613 -3.98989898989899,-1.0606060606060603 -3.98989898989899,-0.9595959595959596 -3.98989898989899,-0.8585858585858579 -3.98989898989899,-0.7575757575757572 -3.98989898989899,-0.6565656565656557 -3.98989898989899,-0.555555555555555 -3.98989898989899,-0.4545454545454544 -3.98989898989899,-0.35353535353535287 -3.98989898989899,-0.2525252525252522 -3.98989898989899,-0.15151515151515066 -3.98989898989899,-0.05050505050505001 -3.98989898989899,0.050505050505051545 -3.98989898989899,0.1515151515151522 -3.98989898989899,0.2525252525252529 -3.98989898989899,0.3535353535353544" data-type="line" data-label="" points="135.35353535353545,631.1919191919193 135.35353535353545,621.6565656565657 135.35353535353545,612.1212121212121 135.35353535353545,602.5858585858587 135.35353535353545,593.0505050505051 135.35353535353545,583.5151515151516 135.35353535353545,573.979797979798 135.35353535353545,564.4444444444445 135.35353535353545,554.909090909091 135.35353535353545,545.3737373737374 135.35353535353545,535.838383838384 135.35353535353545,526.3030303030304 135.35353535353545,516.7676767676768 135.35353535353545,507.23232323232327 135.35353535353545,497.69696969696975 135.35353535353545,488.1616161616163 135.35353535353545,478.6262626262627" fill="none" stroke="rgba(255,0,0,0.75)" stroke-width="14.159999999999995"/></g><g><polyline data-points="-3.98989898989899,0.3535353535353544 -4.090909090909091,0.4545454545454551 -4.191919191919193,0.5555555555555567 -4.292929292929293,0.6565656565656574 -4.393939393939394,0.7575757575757579 -4.494949494949496,0.8585858585858596 -4.595959595959596,0.9595959595959602 -4.696969696969697,1.0606060606060617 -4.7979797979797985,1.1616161616161622 -4.898989898989899,1.262626262626263 -5.000000000000001,1.262626262626263" data-type="line" data-label="" points="135.35353535353545,478.6262626262627 125.81818181818193,469.0909090909092 116.28282828282829,459.5555555555556 106.74747474747483,450.0202020202021 97.21212121212136,440.4848484848486 87.67676767676772,430.94949494949503 78.14141414141426,421.4141414141415 68.60606060606068,411.87878787878793 59.07070707070716,402.3434343434344 49.53535353535369,392.80808080808094 40.00000000000006,392.80808080808094" fill="none" stroke="rgba(0,0,255,0.75)" stroke-width="14.159999999999995"/></g><g><polyline data-points="2.373737373737375,-5.000000000000001 2.2727272727272734,-5.000000000000001 2.1717171717171726,-4.898989898989899 2.070707070707072,-4.7979797979797985 1.9696969696969702,-4.696969696969697 1.8686868686868696,-4.696969696969697 1.767676767676768,-4.595959595959596 1.6666666666666674,-4.494949494949496 1.5656565656565666,-4.393939393939394 1.4646464646464652,-4.292929292929293 1.3636363636363644,-4.191919191919193 1.262626262626263,-4.090909090909091 1.1616161616161622,-3.98989898989899 1.0606060606060617,-3.8888888888888884 1.0606060606060617,-3.7878787878787876 0.9595959595959602,-3.6868686868686864 0.9595959595959602,-3.5858585858585856 0.9595959595959602,-3.484848484848485 0.9595959595959602,-3.383838383838383 0.9595959595959602,-3.2828282828282824 0.9595959595959602,-3.1818181818181817 0.9595959595959602,-3.0808080808080804 0.9595959595959602,-2.9797979797979792 0.9595959595959602,-2.8787878787878785 0.9595959595959602,-2.7777777777777777 0.9595959595959602,-2.6767676767676765 0.9595959595959602,-2.5757575757575752 0.9595959595959602,-2.474747474747474 0.9595959595959602,-2.3737373737373733 0.9595959595959602,-2.2727272727272725 0.9595959595959602,-2.1717171717171713 0.9595959595959602,-2.07070707070707 0.9595959595959602,-1.9696969696969693 0.9595959595959602,-1.8686868686868683 0.9595959595959602,-1.7676767676767675 0.9595959595959602,-1.6666666666666665 0.9595959595959602,-1.5656565656565653 0.9595959595959602,-1.4646464646464643 0.9595959595959602,-1.363636363636363 0.9595959595959602,-1.2626262626262625 0.9595959595959602,-1.1616161616161613 0.9595959595959602,-1.0606060606060603 0.9595959595959602,-0.9595959595959596 0.9595959595959602,-0.8585858585858579 0.9595959595959602,-0.7575757575757572 0.9595959595959602,-0.6565656565656557 0.9595959595959602,-0.555555555555555 0.9595959595959602,-0.4545454545454544 0.9595959595959602,-0.35353535353535287 0.9595959595959602,-0.2525252525252522 0.9595959595959602,-0.15151515151515066 0.9595959595959602,-0.05050505050505001 0.9595959595959602,0.050505050505051545 0.9595959595959602,0.1515151515151522 0.9595959595959602,0.2525252525252529 0.9595959595959602,0.3535353535353544 0.9595959595959602,0.4545454545454551 0.9595959595959602,0.5555555555555567 0.9595959595959602,0.6565656565656574 0.9595959595959602,0.7575757575757579 0.9595959595959602,0.8585858585858596 0.9595959595959602,0.9595959595959602 0.9595959595959602,1.0606060606060617 0.9595959595959602,1.1616161616161622 0.9595959595959602,1.262626262626263 0.9595959595959602,1.3636363636363644 0.9595959595959602,1.4646464646464652 0.9595959595959602,1.5656565656565666 0.9595959595959602,1.6666666666666674 0.9595959595959602,1.767676767676768 0.9595959595959602,1.8686868686868696 0.9595959595959602,1.9696969696969702 0.9595959595959602,2.070707070707072 0.9595959595959602,2.1717171717171726 0.9595959595959602,2.2727272727272734 0.9595959595959602,2.373737373737375 0.9595959595959602,2.4747474747474754 0.9595959595959602,2.575757575757577 0.9595959595959602,2.676767676767678 0.9595959595959602,2.7777777777777786 0.9595959595959602,2.87878787878788 0.9595959595959602,2.9797979797979806 0.9595959595959602,3.080808080808082 0.9595959595959602,3.181818181818183 0.9595959595959602,3.2828282828282833 0.9595959595959602,3.383838383838384 0.9595959595959602,3.4848484848484866 0.9595959595959602,3.5858585858585874 0.9595959595959602,3.6868686868686877 0.9595959595959602,3.7878787878787885 0.9595959595959602,3.8888888888888893 0.9595959595959602,3.989898989898992 0.9595959595959602,4.090909090909092 0.9595959595959602,4.191919191919193 0.9595959595959602,4.292929292929293 0.9595959595959602,4.393939393939394 0.9595959595959602,4.494949494949497 0.9595959595959602,4.595959595959597 0.9595959595959602,4.696969696969697 0.9595959595959602,4.7979797979797985 0.9595959595959602,4.898989898989901 1.0606060606060617,5.000000000000002" data-type="line" data-label="" points="736.0808080808081,984 726.5454545454545,984 717.0101010101009,974.4646464646464 707.4747474747475,964.9292929292928 697.9393939393939,955.3939393939394 688.4040404040404,955.3939393939394 678.8686868686868,945.8585858585858 669.3333333333333,936.3232323232323 659.7979797979798,926.7878787878788 650.2626262626262,917.2525252525252 640.7272727272727,907.7171717171718 631.1919191919192,898.1818181818181 621.6565656565656,888.6464646464647 612.1212121212121,879.1111111111111 612.1212121212121,869.5757575757575 602.5858585858585,860.0404040404039 602.5858585858585,850.5050505050505 602.5858585858585,840.969696969697 602.5858585858585,831.4343434343434 602.5858585858585,821.8989898989898 602.5858585858585,812.3636363636363 602.5858585858585,802.8282828282828 602.5858585858585,793.2929292929292 602.5858585858585,783.7575757575758 602.5858585858585,774.2222222222222 602.5858585858585,764.6868686868687 602.5858585858585,755.1515151515151 602.5858585858585,745.6161616161615 602.5858585858585,736.0808080808081 602.5858585858585,726.5454545454545 602.5858585858585,717.010101010101 602.5858585858585,707.4747474747475 602.5858585858585,697.939393939394 602.5858585858585,688.4040404040404 602.5858585858585,678.8686868686868 602.5858585858585,669.3333333333334 602.5858585858585,659.7979797979798 602.5858585858585,650.2626262626263 602.5858585858585,640.7272727272727 602.5858585858585,631.1919191919193 602.5858585858585,621.6565656565657 602.5858585858585,612.1212121212121 602.5858585858585,602.5858585858587 602.5858585858585,593.0505050505051 602.5858585858585,583.5151515151516 602.5858585858585,573.979797979798 602.5858585858585,564.4444444444445 602.5858585858585,554.909090909091 602.5858585858585,545.3737373737374 602.5858585858585,535.838383838384 602.5858585858585,526.3030303030304 602.5858585858585,516.7676767676768 602.5858585858585,507.23232323232327 602.5858585858585,497.69696969696975 602.5858585858585,488.1616161616163 602.5858585858585,478.6262626262627 602.5858585858585,469.0909090909092 602.5858585858585,459.5555555555556 602.5858585858585,450.0202020202021 602.5858585858585,440.4848484848486 602.5858585858585,430.94949494949503 602.5858585858585,421.4141414141415 602.5858585858585,411.87878787878793 602.5858585858585,402.3434343434344 602.5858585858585,392.80808080808094 602.5858585858585,383.27272727272737 602.5858585858585,373.73737373737384 602.5858585858585,364.2020202020203 602.5858585858585,354.66666666666674 602.5858585858585,345.1313131313133 602.5858585858585,335.5959595959597 602.5858585858585,326.06060606060623 602.5858585858585,316.5252525252526 602.5858585858585,306.9898989898991 602.5858585858585,297.4545454545456 602.5858585858585,287.91919191919203 602.5858585858585,278.38383838383857 602.5858585858585,268.84848484848493 602.5858585858585,259.3131313131314 602.5858585858585,249.77777777777794 602.5858585858585,240.24242424242436 602.5858585858585,230.70707070707084 602.5858585858585,221.17171717171726 602.5858585858585,211.63636363636374 602.5858585858585,202.10101010101027 602.5858585858585,192.56565656565675 602.5858585858585,183.03030303030312 602.5858585858585,173.4949494949496 602.5858585858585,163.95959595959613 602.5858585858585,154.4242424242426 602.5858585858585,144.88888888888908 602.5858585858585,135.35353535353545 602.5858585858585,125.81818181818198 602.5858585858585,116.28282828282846 602.5858585858585,106.747474747475 602.5858585858585,97.21212121212153 602.5858585858585,87.67676767676778 602.5858585858585,78.14141414141432 602.5858585858585,68.60606060606085 602.5858585858585,59.07070707070733 602.5858585858585,49.53535353535369 612.1212121212121,40.000000000000114" fill="none" stroke="rgba(255,0,0,0.75)" stroke-width="14.159999999999995"/></g><g><polyline data-points="-4.494949494949496,5.000000000000002 -4.494949494949496,4.898989898989901 -4.393939393939394,4.7979797979797985 -4.292929292929293,4.696969696969697 -4.191919191919193,4.595959595959597 -4.090909090909091,4.494949494949497 -3.98989898989899,4.393939393939394 -3.98989898989899,4.292929292929293 -3.98989898989899,4.191919191919193 -3.98989898989899,4.090909090909092 -3.98989898989899,3.989898989898992" data-type="line" data-label="" points="87.67676767676772,40.000000000000114 87.67676767676772,49.53535353535369 97.21212121212136,59.07070707070733 106.74747474747483,68.60606060606085 116.28282828282829,78.14141414141432 125.81818181818193,87.67676767676778 135.35353535353545,97.21212121212153 135.35353535353545,106.747474747475 135.35353535353545,116.28282828282846 135.35353535353545,125.81818181818198 135.35353535353545,135.35353535353545" fill="none" stroke="rgba(0,0,255,0.75)" stroke-width="14.159999999999995"/></g><g><polyline data-points="-3.98989898989899,3.989898989898992 -3.8888888888888884,3.8888888888888893 -3.7878787878787876,3.7878787878787885 -3.6868686868686864,3.6868686868686877 -3.5858585858585856,3.5858585858585874 -3.484848484848485,3.4848484848484866 -3.383838383838383,3.383838383838384 -3.2828282828282824,3.2828282828282833 -3.1818181818181817,3.181818181818183 -3.0808080808080804,3.080808080808082 -2.9797979797979792,2.9797979797979806 -2.8787878787878785,2.87878787878788 -2.7777777777777777,2.7777777777777786 -2.6767676767676765,2.676767676767678 -2.5757575757575752,2.575757575757577 -2.474747474747474,2.4747474747474754 -2.3737373737373733,2.373737373737375 -2.2727272727272725,2.2727272727272734 -2.1717171717171713,2.1717171717171726 -2.07070707070707,2.070707070707072 -1.9696969696969693,1.9696969696969702 -1.8686868686868683,1.8686868686868696 -1.7676767676767675,1.767676767676768 -1.6666666666666665,1.6666666666666674 -1.5656565656565653,1.5656565656565666 -1.4646464646464643,1.4646464646464652 -1.363636363636363,1.3636363636363644 -1.2626262626262625,1.262626262626263 -1.1616161616161613,1.1616161616161622 -1.0606060606060603,1.0606060606060617 -0.9595959595959596,0.9595959595959602 -0.8585858585858579,0.8585858585858596 -0.7575757575757572,0.7575757575757579 -0.6565656565656557,0.6565656565656574 -0.555555555555555,0.5555555555555567 -0.4545454545454544,0.4545454545454551 -0.35353535353535287,0.3535353535353544 -0.2525252525252522,0.2525252525252529 -0.15151515151515066,0.1515151515151522 -0.05050505050505001,0.050505050505051545 0.050505050505051545,-0.05050505050505001 0.1515151515151522,-0.15151515151515066 0.2525252525252529,-0.2525252525252522 0.3535353535353544,-0.35353535353535287" data-type="line" data-label="" points="135.35353535353545,135.35353535353545 144.88888888888903,144.88888888888908 154.42424242424255,154.4242424242426 163.95959595959607,163.95959595959613 173.4949494949496,173.4949494949496 183.03030303030312,183.03030303030312 192.5656565656567,192.56565656565675 202.10101010101022,202.10101010101027 211.63636363636374,211.63636363636374 221.17171717171726,221.17171717171726 230.70707070707084,230.70707070707084 240.2424242424243,240.24242424242436 249.77777777777783,249.77777777777794 259.3131313131314,259.3131313131314 268.84848484848493,268.84848484848493 278.38383838383845,278.38383838383857 287.91919191919203,287.91919191919203 297.4545454545455,297.4545454545456 306.9898989898991,306.9898989898991 316.5252525252526,316.5252525252526 326.0606060606061,326.06060606060623 335.59595959595964,335.5959595959597 345.13131313131316,345.1313131313133 354.6666666666667,354.66666666666674 364.2020202020202,364.2020202020203 373.7373737373738,373.73737373737384 383.2727272727273,383.27272727272737 392.80808080808083,392.80808080808094 402.34343434343435,402.3434343434344 411.8787878787879,411.87878787878793 421.4141414141414,421.4141414141415 430.949494949495,430.94949494949503 440.4848484848485,440.4848484848486 450.0202020202021,450.0202020202021 459.55555555555554,459.5555555555556 469.09090909090907,469.0909090909092 478.62626262626264,478.6262626262627 488.16161616161617,488.1616161616163 497.69696969696975,497.69696969696975 507.2323232323232,507.23232323232327 516.7676767676768,516.7676767676768 526.3030303030303,526.3030303030304 535.8383838383838,535.838383838384 545.3737373737374,545.3737373737374" fill="none" stroke="rgba(255,0,0,0.75)" stroke-width="14.159999999999995"/></g><g><polyline data-points="0.3535353535353544,-0.35353535353535287 0.4545454545454551,-0.4545454545454544 0.5555555555555567,-0.555555555555555 0.6565656565656574,-0.6565656565656557 0.7575757575757579,-0.7575757575757572 0.8585858585858596,-0.6565656565656557 0.9595959595959602,-0.7575757575757572 0.9595959595959602,-0.8585858585858579 0.9595959595959602,-0.9595959595959596 0.9595959595959602,-1.0606060606060603 0.9595959595959602,-1.1616161616161613 0.9595959595959602,-1.2626262626262625 0.9595959595959602,-1.363636363636363 0.9595959595959602,-1.4646464646464643 0.9595959595959602,-1.5656565656565653 0.9595959595959602,-1.6666666666666665 0.9595959595959602,-1.7676767676767675 0.9595959595959602,-1.8686868686868683 0.9595959595959602,-1.9696969696969693 0.9595959595959602,-2.07070707070707 0.9595959595959602,-2.1717171717171713 0.9595959595959602,-2.2727272727272725 0.9595959595959602,-2.3737373737373733 0.9595959595959602,-2.474747474747474 0.9595959595959602,-2.5757575757575752 0.9595959595959602,-2.6767676767676765 1.0606060606060617,-2.7777777777777777 1.1616161616161622,-2.8787878787878785 1.262626262626263,-2.8787878787878785 1.3636363636363644,-2.8787878787878785 1.4646464646464652,-2.8787878787878785 1.5656565656565666,-2.8787878787878785 1.6666666666666674,-2.8787878787878785 1.767676767676768,-2.9797979797979792 1.8686868686868696,-2.9797979797979792 1.9696969696969702,-3.0808080808080804 2.070707070707072,-3.1818181818181817 2.1717171717171726,-3.2828282828282824 2.2727272727272734,-3.383838383838383 2.373737373737375,-3.484848484848485 2.4747474747474754,-3.5858585858585856 2.4747474747474754,-3.6868686868686864 2.373737373737375,-3.7878787878787876 2.2727272727272734,-3.8888888888888884 2.1717171717171726,-3.98989898989899" data-type="line" data-label="" points="545.3737373737374,545.3737373737374 554.9090909090909,554.909090909091 564.4444444444445,564.4444444444445 573.9797979797979,573.979797979798 583.5151515151515,583.5151515151516 593.0505050505051,573.979797979798 602.5858585858585,583.5151515151516 602.5858585858585,593.0505050505051 602.5858585858585,602.5858585858587 602.5858585858585,612.1212121212121 602.5858585858585,621.6565656565657 602.5858585858585,631.1919191919193 602.5858585858585,640.7272727272727 602.5858585858585,650.2626262626263 602.5858585858585,659.7979797979798 602.5858585858585,669.3333333333334 602.5858585858585,678.8686868686868 602.5858585858585,688.4040404040404 602.5858585858585,697.939393939394 602.5858585858585,707.4747474747475 602.5858585858585,717.010101010101 602.5858585858585,726.5454545454545 602.5858585858585,736.0808080808081 602.5858585858585,745.6161616161615 602.5858585858585,755.1515151515151 602.5858585858585,764.6868686868687 612.1212121212121,774.2222222222222 621.6565656565656,783.7575757575758 631.1919191919192,783.7575757575758 640.7272727272727,783.7575757575758 650.2626262626262,783.7575757575758 659.7979797979798,783.7575757575758 669.3333333333333,783.7575757575758 678.8686868686868,793.2929292929292 688.4040404040404,793.2929292929292 697.9393939393939,802.8282828282828 707.4747474747475,812.3636363636363 717.0101010101009,821.8989898989898 726.5454545454545,831.4343434343434 736.0808080808081,840.969696969697 745.6161616161615,850.5050505050505 745.6161616161615,860.0404040404039 736.0808080808081,869.5757575757575 726.5454545454545,879.1111111111111 717.0101010101009,888.6464646464647" fill="none" stroke="rgba(0,0,255,0.75)" stroke-width="14.159999999999995"/></g><g><polyline data-points="2.1717171717171726,-3.98989898989899 2.2727272727272734,-3.98989898989899 2.373737373737375,-4.090909090909091 2.4747474747474754,-4.191919191919193 2.575757575757577,-4.292929292929293 2.676767676767678,-4.292929292929293 2.7777777777777786,-4.292929292929293 2.87878787878788,-4.292929292929293 2.9797979797979806,-4.292929292929293 3.080808080808082,-4.292929292929293 3.181818181818183,-4.292929292929293 3.2828282828282833,-4.292929292929293 3.383838383838384,-4.292929292929293 3.4848484848484866,-4.292929292929293 3.5858585858585874,-4.292929292929293 3.6868686868686877,-4.292929292929293 3.7878787878787885,-4.292929292929293 3.8888888888888893,-4.292929292929293 3.989898989898992,-4.292929292929293 4.090909090909092,-4.292929292929293 4.191919191919193,-4.292929292929293 4.292929292929293,-4.292929292929293 4.393939393939394,-4.292929292929293 4.494949494949497,-4.191919191919193 4.595959595959597,-4.090909090909091 4.696969696969697,-3.98989898989899 4.7979797979797985,-4.090909090909091 4.898989898989901,-4.090909090909091 5.000000000000002,-3.98989898989899 5.000000000000002,-3.8888888888888884" data-type="line" data-label="" points="717.0101010101009,888.6464646464647 726.5454545454545,888.6464646464647 736.0808080808081,898.1818181818181 745.6161616161615,907.7171717171718 755.1515151515151,917.2525252525252 764.6868686868686,917.2525252525252 774.2222222222222,917.2525252525252 783.7575757575758,917.2525252525252 793.2929292929292,917.2525252525252 802.8282828282828,917.2525252525252 812.3636363636363,917.2525252525252 821.8989898989898,917.2525252525252 831.4343434343433,917.2525252525252 840.969696969697,917.2525252525252 850.5050505050505,917.2525252525252 860.0404040404039,917.2525252525252 869.5757575757575,917.2525252525252 879.111111111111,917.2525252525252 888.6464646464647,917.2525252525252 898.181818181818,917.2525252525252 907.7171717171716,917.2525252525252 917.2525252525251,917.2525252525252 926.7878787878785,917.2525252525252 936.3232323232323,907.7171717171718 945.8585858585857,898.1818181818181 955.3939393939393,888.6464646464647 964.9292929292927,898.1818181818181 974.4646464646464,898.1818181818181 984,888.6464646464647 984,879.1111111111111" fill="none" stroke="rgba(255,0,0,0.75)" stroke-width="14.159999999999995"/></g><g><polyline data-points="5.000000000000002,-3.2828282828282824 4.898989898989901,-3.2828282828282824 4.7979797979797985,-3.383838383838383 4.696969696969697,-3.383838383838383 4.595959595959597,-3.383838383838383 4.494949494949497,-3.383838383838383 4.393939393939394,-3.383838383838383 4.292929292929293,-3.383838383838383 4.191919191919193,-3.383838383838383 4.090909090909092,-3.383838383838383 3.989898989898992,-3.383838383838383 3.8888888888888893,-3.383838383838383 3.7878787878787885,-3.383838383838383 3.6868686868686877,-3.383838383838383 3.5858585858585874,-3.383838383838383 3.4848484848484866,-3.383838383838383 3.383838383838384,-3.383838383838383 3.2828282828282833,-3.383838383838383 3.181818181818183,-3.383838383838383 3.080808080808082,-3.383838383838383 2.9797979797979806,-3.383838383838383 2.87878787878788,-3.383838383838383 2.7777777777777786,-3.383838383838383 2.676767676767678,-3.2828282828282824 2.575757575757577,-3.1818181818181817 2.4747474747474754,-3.0808080808080804 2.373737373737375,-3.0808080808080804 2.2727272727272734,-3.0808080808080804 2.1717171717171726,-3.0808080808080804 2.070707070707072,-3.0808080808080804 1.9696969696969702,-3.0808080808080804 1.8686868686868696,-3.1818181818181817 1.767676767676768,-3.2828282828282824 1.6666666666666674,-3.383838383838383" data-type="line" data-label="" points="984,821.8989898989898 974.4646464646464,821.8989898989898 964.9292929292927,831.4343434343434 955.3939393939393,831.4343434343434 945.8585858585857,831.4343434343434 936.3232323232323,831.4343434343434 926.7878787878785,831.4343434343434 917.2525252525251,831.4343434343434 907.7171717171716,831.4343434343434 898.181818181818,831.4343434343434 888.6464646464647,831.4343434343434 879.111111111111,831.4343434343434 869.5757575757575,831.4343434343434 860.0404040404039,831.4343434343434 850.5050505050505,831.4343434343434 840.969696969697,831.4343434343434 831.4343434343433,831.4343434343434 821.8989898989898,831.4343434343434 812.3636363636363,831.4343434343434 802.8282828282828,831.4343434343434 793.2929292929292,831.4343434343434 783.7575757575758,831.4343434343434 774.2222222222222,831.4343434343434 764.6868686868686,821.8989898989898 755.1515151515151,812.3636363636363 745.6161616161615,802.8282828282828 736.0808080808081,802.8282828282828 726.5454545454545,802.8282828282828 717.0101010101009,802.8282828282828 707.4747474747475,802.8282828282828 697.9393939393939,802.8282828282828 688.4040404040404,812.3636363636363 678.8686868686868,821.8989898989898 669.3333333333333,831.4343434343434" fill="none" stroke="rgba(255,0,0,0.75)" stroke-width="14.159999999999995"/></g><g><polyline data-points="1.6666666666666674,-3.383838383838383 1.5656565656565666,-3.2828282828282824 1.4646464646464652,-3.1818181818181817 1.3636363636363644,-3.0808080808080804 1.262626262626263,-3.1818181818181817 1.1616161616161622,-3.2828282828282824 1.0606060606060617,-3.2828282828282824 0.9595959595959602,-3.2828282828282824 0.8585858585858596,-3.2828282828282824 0.7575757575757579,-3.2828282828282824 0.6565656565656574,-3.2828282828282824 0.5555555555555567,-3.2828282828282824 0.4545454545454551,-3.2828282828282824 0.3535353535353544,-3.383838383838383 0.2525252525252529,-3.383838383838383 0.1515151515151522,-3.484848484848485 0.050505050505051545,-3.5858585858585856 -0.05050505050505001,-3.6868686868686864 -0.15151515151515066,-3.7878787878787876 -0.2525252525252522,-3.8888888888888884 -0.35353535353535287,-3.98989898989899 -0.4545454545454544,-3.98989898989899 -0.555555555555555,-3.98989898989899 -0.6565656565656557,-3.98989898989899 -0.7575757575757572,-3.98989898989899 -0.8585858585858579,-3.98989898989899" data-type="line" data-label="" points="669.3333333333333,831.4343434343434 659.7979797979798,821.8989898989898 650.2626262626262,812.3636363636363 640.7272727272727,802.8282828282828 631.1919191919192,812.3636363636363 621.6565656565656,821.8989898989898 612.1212121212121,821.8989898989898 602.5858585858585,821.8989898989898 593.0505050505051,821.8989898989898 583.5151515151515,821.8989898989898 573.9797979797979,821.8989898989898 564.4444444444445,821.8989898989898 554.9090909090909,821.8989898989898 545.3737373737374,831.4343434343434 535.8383838383838,831.4343434343434 526.3030303030303,840.969696969697 516.7676767676768,850.5050505050505 507.2323232323232,860.0404040404039 497.69696969696975,869.5757575757575 488.16161616161617,879.1111111111111 478.62626262626264,888.6464646464647 469.09090909090907,888.6464646464647 459.55555555555554,888.6464646464647 450.0202020202021,888.6464646464647 440.4848484848485,888.6464646464647 430.949494949495,888.6464646464647" fill="none" stroke="rgba(0,0,255,0.75)" stroke-width="14.159999999999995"/></g><g><polyline data-points="-0.8585858585858579,-3.98989898989899 -0.9595959595959596,-4.090909090909091 -1.0606060606060603,-4.191919191919193 -1.1616161616161613,-4.292929292929293 -1.2626262626262625,-4.393939393939394 -1.363636363636363,-4.393939393939394 -1.4646464646464643,-4.393939393939394 -1.5656565656565653,-4.393939393939394 -1.6666666666666665,-4.393939393939394 -1.7676767676767675,-4.393939393939394 -1.8686868686868683,-4.393939393939394 -1.9696969696969693,-4.393939393939394 -2.07070707070707,-4.393939393939394 -2.1717171717171713,-4.393939393939394 -2.2727272727272725,-4.393939393939394 -2.3737373737373733,-4.393939393939394 -2.474747474747474,-4.393939393939394 -2.5757575757575752,-4.393939393939394 -2.6767676767676765,-4.393939393939394 -2.7777777777777777,-4.393939393939394 -2.8787878787878785,-4.393939393939394 -2.9797979797979792,-4.393939393939394 -3.0808080808080804,-4.393939393939394 -3.1818181818181817,-4.393939393939394 -3.2828282828282824,-4.393939393939394 -3.383838383838383,-4.393939393939394 -3.484848484848485,-4.393939393939394 -3.5858585858585856,-4.393939393939394 -3.6868686868686864,-4.393939393939394 -3.7878787878787876,-4.393939393939394 -3.8888888888888884,-4.393939393939394 -3.98989898989899,-4.393939393939394 -4.090909090909091,-4.393939393939394 -4.191919191919193,-4.393939393939394 -4.292929292929293,-4.393939393939394 -4.393939393939394,-4.393939393939394 -4.494949494949496,-4.393939393939394 -4.595959595959596,-4.393939393939394 -4.696969696969697,-4.393939393939394 -4.7979797979797985,-4.393939393939394 -4.898989898989899,-4.393939393939394 -5.000000000000001,-4.494949494949496" data-type="line" data-label="" points="430.949494949495,888.6464646464647 421.4141414141414,898.1818181818181 411.8787878787879,907.7171717171718 402.34343434343435,917.2525252525252 392.80808080808083,926.7878787878788 383.2727272727273,926.7878787878788 373.7373737373738,926.7878787878788 364.2020202020202,926.7878787878788 354.6666666666667,926.7878787878788 345.13131313131316,926.7878787878788 335.59595959595964,926.7878787878788 326.0606060606061,926.7878787878788 316.5252525252526,926.7878787878788 306.9898989898991,926.7878787878788 297.4545454545455,926.7878787878788 287.91919191919203,926.7878787878788 278.38383838383845,926.7878787878788 268.84848484848493,926.7878787878788 259.3131313131314,926.7878787878788 249.77777777777783,926.7878787878788 240.2424242424243,926.7878787878788 230.70707070707084,926.7878787878788 221.17171717171726,926.7878787878788 211.63636363636374,926.7878787878788 202.10101010101022,926.7878787878788 192.5656565656567,926.7878787878788 183.03030303030312,926.7878787878788 173.4949494949496,926.7878787878788 163.95959595959607,926.7878787878788 154.42424242424255,926.7878787878788 144.88888888888903,926.7878787878788 135.35353535353545,926.7878787878788 125.81818181818193,926.7878787878788 116.28282828282829,926.7878787878788 106.74747474747483,926.7878787878788 97.21212121212136,926.7878787878788 87.67676767676772,926.7878787878788 78.14141414141426,926.7878787878788 68.60606060606068,926.7878787878788 59.07070707070716,926.7878787878788 49.53535353535369,926.7878787878788 40.00000000000006,936.3232323232323" fill="none" stroke="rgba(255,0,0,0.75)" stroke-width="14.159999999999995"/></g><g><polyline data-points="5.000000000000002,-0.8585858585858579 4.898989898989901,-0.8585858585858579 4.7979797979797985,-0.9595959595959596 4.696969696969697,-1.0606060606060603 4.595959595959597,-1.1616161616161613 4.494949494949497,-1.2626262626262625 4.393939393939394,-1.363636363636363 4.292929292929293,-1.4646464646464643 4.191919191919193,-1.5656565656565653 4.090909090909092,-1.6666666666666665 3.989898989898992,-1.7676767676767675 3.8888888888888893,-1.8686868686868683 3.7878787878787885,-1.8686868686868683 3.6868686868686877,-1.8686868686868683 3.5858585858585874,-1.8686868686868683 3.4848484848484866,-1.8686868686868683 3.383838383838384,-1.8686868686868683" data-type="line" data-label="" points="984,593.0505050505051 974.4646464646464,593.0505050505051 964.9292929292927,602.5858585858587 955.3939393939393,612.1212121212121 945.8585858585857,621.6565656565657 936.3232323232323,631.1919191919193 926.7878787878785,640.7272727272727 917.2525252525251,650.2626262626263 907.7171717171716,659.7979797979798 898.181818181818,669.3333333333334 888.6464646464647,678.8686868686868 879.111111111111,688.4040404040404 869.5757575757575,688.4040404040404 860.0404040404039,688.4040404040404 850.5050505050505,688.4040404040404 840.969696969697,688.4040404040404 831.4343434343433,688.4040404040404" fill="none" stroke="rgba(255,0,0,0.75)" stroke-width="14.159999999999995"/></g><g><polyline data-points="3.383838383838384,-1.8686868686868683 3.2828282828282833,-1.8686868686868683 3.181818181818183,-1.8686868686868683 3.080808080808082,-1.8686868686868683 2.9797979797979806,-1.8686868686868683 2.87878787878788,-1.8686868686868683 2.7777777777777786,-1.8686868686868683 2.676767676767678,-1.8686868686868683 2.575757575757577,-1.8686868686868683 2.4747474747474754,-1.8686868686868683 2.373737373737375,-1.7676767676767675 2.2727272727272734,-1.6666666666666665 2.1717171717171726,-1.5656565656565653 2.070707070707072,-1.4646464646464643 1.9696969696969702,-1.363636363636363 1.8686868686868696,-1.2626262626262625 1.767676767676768,-1.1616161616161613 1.6666666666666674,-1.0606060606060603 1.5656565656565666,-0.9595959595959596 1.4646464646464652,-0.8585858585858579 1.3636363636363644,-0.7575757575757572 1.262626262626263,-0.6565656565656557 1.1616161616161622,-0.555555555555555 1.0606060606060617,-0.4545454545454544 0.9595959595959602,-0.35353535353535287 0.8585858585858596,-0.2525252525252522 0.7575757575757579,-0.15151515151515066 0.6565656565656574,-0.05050505050505001 0.5555555555555567,0.050505050505051545 0.4545454545454551,0.050505050505051545 0.3535353535353544,0.1515151515151522 0.2525252525252529,0.050505050505051545 0.1515151515151522,0.050505050505051545 0.050505050505051545,-0.05050505050505001 -0.05050505050505001,-0.15151515151515066 -0.15151515151515066,-0.2525252525252522 -0.2525252525252522,-0.35353535353535287 -0.35353535353535287,-0.4545454545454544 -0.4545454545454544,-0.555555555555555 -0.555555555555555,-0.6565656565656557 -0.6565656565656557,-0.7575757575757572 -0.7575757575757572,-0.8585858585858579 -0.8585858585858579,-0.9595959595959596 -0.9595959595959596,-1.0606060606060603 -1.0606060606060603,-1.1616161616161613 -1.1616161616161613,-1.2626262626262625 -1.2626262626262625,-1.363636363636363 -1.363636363636363,-1.4646464646464643 -1.4646464646464643,-1.5656565656565653 -1.5656565656565653,-1.6666666666666665 -1.6666666666666665,-1.7676767676767675 -1.7676767676767675,-1.8686868686868683 -1.8686868686868683,-1.9696969696969693 -1.9696969696969693,-2.07070707070707 -2.07070707070707,-2.1717171717171713 -2.1717171717171713,-2.2727272727272725 -2.2727272727272725,-2.3737373737373733 -2.3737373737373733,-2.474747474747474 -2.474747474747474,-2.5757575757575752 -2.5757575757575752,-2.6767676767676765 -2.6767676767676765,-2.7777777777777777 -2.7777777777777777,-2.8787878787878785 -2.8787878787878785,-2.9797979797979792 -2.9797979797979792,-3.0808080808080804 -3.0808080808080804,-3.1818181818181817 -3.1818181818181817,-3.2828282828282824 -3.2828282828282824,-3.383838383838383 -3.383838383838383,-3.484848484848485 -3.484848484848485,-3.5858585858585856 -3.5858585858585856,-3.6868686868686864 -3.6868686868686864,-3.7878787878787876 -3.7878787878787876,-3.8888888888888884 -3.8888888888888884,-3.98989898989899 -3.98989898989899,-4.090909090909091 -4.090909090909091,-4.191919191919193 -4.191919191919193,-4.292929292929293 -4.292929292929293,-4.393939393939394 -4.393939393939394,-4.494949494949496 -4.393939393939394,-4.595959595959596 -4.393939393939394,-4.696969696969697 -4.393939393939394,-4.7979797979797985 -4.393939393939394,-4.898989898989899 -4.393939393939394,-5.000000000000001" data-type="line" data-label="" points="831.4343434343433,688.4040404040404 821.8989898989898,688.4040404040404 812.3636363636363,688.4040404040404 802.8282828282828,688.4040404040404 793.2929292929292,688.4040404040404 783.7575757575758,688.4040404040404 774.2222222222222,688.4040404040404 764.6868686868686,688.4040404040404 755.1515151515151,688.4040404040404 745.6161616161615,688.4040404040404 736.0808080808081,678.8686868686868 726.5454545454545,669.3333333333334 717.0101010101009,659.7979797979798 707.4747474747475,650.2626262626263 697.9393939393939,640.7272727272727 688.4040404040404,631.1919191919193 678.8686868686868,621.6565656565657 669.3333333333333,612.1212121212121 659.7979797979798,602.5858585858587 650.2626262626262,593.0505050505051 640.7272727272727,583.5151515151516 631.1919191919192,573.979797979798 621.6565656565656,564.4444444444445 612.1212121212121,554.909090909091 602.5858585858585,545.3737373737374 593.0505050505051,535.838383838384 583.5151515151515,526.3030303030304 573.9797979797979,516.7676767676768 564.4444444444445,507.23232323232327 554.9090909090909,507.23232323232327 545.3737373737374,497.69696969696975 535.8383838383838,507.23232323232327 526.3030303030303,507.23232323232327 516.7676767676768,516.7676767676768 507.2323232323232,526.3030303030304 497.69696969696975,535.838383838384 488.16161616161617,545.3737373737374 478.62626262626264,554.909090909091 469.09090909090907,564.4444444444445 459.55555555555554,573.979797979798 450.0202020202021,583.5151515151516 440.4848484848485,593.0505050505051 430.949494949495,602.5858585858587 421.4141414141414,612.1212121212121 411.8787878787879,621.6565656565657 402.34343434343435,631.1919191919193 392.80808080808083,640.7272727272727 383.2727272727273,650.2626262626263 373.7373737373738,659.7979797979798 364.2020202020202,669.3333333333334 354.6666666666667,678.8686868686868 345.13131313131316,688.4040404040404 335.59595959595964,697.939393939394 326.0606060606061,707.4747474747475 316.5252525252526,717.010101010101 306.9898989898991,726.5454545454545 297.4545454545455,736.0808080808081 287.91919191919203,745.6161616161615 278.38383838383845,755.1515151515151 268.84848484848493,764.6868686868687 259.3131313131314,774.2222222222222 249.77777777777783,783.7575757575758 240.2424242424243,793.2929292929292 230.70707070707084,802.8282828282828 221.17171717171726,812.3636363636363 211.63636363636374,821.8989898989898 202.10101010101022,831.4343434343434 192.5656565656567,840.969696969697 183.03030303030312,850.5050505050505 173.4949494949496,860.0404040404039 163.95959595959607,869.5757575757575 154.42424242424255,879.1111111111111 144.88888888888903,888.6464646464647 135.35353535353545,898.1818181818181 125.81818181818193,907.7171717171718 116.28282828282829,917.2525252525252 106.74747474747483,926.7878787878788 97.21212121212136,936.3232323232323 97.21212121212136,945.8585858585858 97.21212121212136,955.3939393939394 97.21212121212136,964.9292929292928 97.21212121212136,974.4646464646464 97.21212121212136,984" fill="none" stroke="rgba(0,0,255,0.75)" stroke-width="14.159999999999995"/></g><g><rect data-type="rect" data-label="" data-x="0" data-y="0" x="40.000000000000114" y="40.000000000000284" width="943.9999999999997" height="943.9999999999998" fill="none" stroke="gray" stroke-width="0.010593220338983056"/></g><g><rect data-type="rect" data-label="" data-x="0" data-y="0" x="40.000000000000114" y="40.000000000000284" width="943.9999999999997" height="943.9999999999998" fill="none" stroke="rgba(15, 23, 42, 0.8)" stroke-width="0.010593220338983056"/></g><circle data-type="circle" data-label="" data-x="3.989898989898992" data-y="3.989898989898992" cx="888.6464646464647" cy="135.35353535353545" r="28.791999999999987" fill="rgba(0,0,0,0.3)" stroke="black" stroke-width="0.010593220338983056"/><circle data-type="circle" data-label="" data-x="-3.98989898989899" data-y="-1.2626262626262625" cx="135.35353535353545" cy="631.1919191919193" r="28.791999999999987" fill="rgba(0,0,0,0.3)" stroke="black" stroke-width="0.010593220338983056"/><circle data-type="circle" data-label="" data-x="-3.98989898989899" data-y="0.3535353535353544" cx="135.35353535353545" cy="478.6262626262627" r="28.791999999999987" fill="rgba(0,0,0,0.3)" stroke="black" stroke-width="0.010593220338983056"/><circle data-type="circle" data-label="" data-x="-3.98989898989899" data-y="3.989898989898992" cx="135.35353535353545" cy="135.35353535353545" r="28.791999999999987" fill="rgba(0,0,0,0.3)" stroke="black" stroke-width="0.010593220338983056"/><circle data-type="circle" data-label="" data-x="0.3535353535353544" data-y="-0.35353535353535287" cx="545.3737373737374" cy="545.3737373737374" r="28.791999999999987" fill="rgba(0,0,0,0.3)" stroke="black" stroke-width="0.010593220338983056"/><circle data-type="circle" data-label="" data-x="2.1717171717171726" data-y="-3.98989898989899" cx="717.0101010101009" cy="888.6464646464647" r="28.791999999999987" fill="rgba(0,0,0,0.3)" stroke="black" stroke-width="0.010593220338983056"/><circle data-type="circle" data-label="" data-x="1.6666666666666674" data-y="-3.383838383838383" cx="669.3333333333333" cy="831.4343434343434" r="28.791999999999987" fill="rgba(0,0,0,0.3)" stroke="black" stroke-width="0.010593220338983056"/><circle data-type="circle" data-label="" data-x="-0.8585858585858579" data-y="-3.98989898989899" cx="430.949494949495" cy="888.6464646464647" r="28.791999999999987" fill="rgba(0,0,0,0.3)" stroke="black" stroke-width="0.010593220338983056"/><circle data-type="circle" data-label="" data-x="3.383838383838384" data-y="-1.8686868686868683" cx="831.4343434343433" cy="688.4040404040404" r="28.791999999999987" fill="rgba(0,0,0,0.3)" stroke="black" stroke-width="0.010593220338983056"/><g id="crosshair" style="display: none"><line id="crosshair-h" y1="0" y2="1024" stroke="#666" stroke-width="0.5"/><line id="crosshair-v" x1="0" x2="1024" stroke="#666" stroke-width="0.5"/><text id="coordinates" font-family="monospace" font-size="12" fill="#666"></text></g><script><![CDATA[
              document.currentScript.parentElement.addEventListener('mousemove', (e) => {
                const svg = e.currentTarget;
                const rect = svg.getBoundingClientRect();
                const x = e.clientX - rect.left;
                const y = e.clientY - rect.top;
                const crosshair = svg.getElementById('crosshair');
                const h = svg.getElementById('crosshair-h');
                const v = svg.getElementById('crosshair-v');
                const coords = svg.getElementById('coordinates');
                
                crosshair.style.display = 'block';
                h.setAttribute('x1', '0');
                h.setAttribute('x2', '1024');
                h.setAttribute('y1', y);
                h.setAttribute('y2', y);
                v.setAttribute('x1', x);
                v.setAttribute('x2', x);
                v.setAttribute('y1', '0');
                v.setAttribute('y2', '1024');

                // Calculate real coordinates using inverse transformation
                const matrix = {"a":94.39999999999996,"c":0,"e":511.99999999999994,"b":0,"d":-94.39999999999996,"f":512.0000000000001};
                // Manually invert and apply the affine transform
                // Since we only use translate and scale, we can directly compute:
                // x' = (x - tx) / sx
                // y' = (y - ty) / sy
                const sx = matrix.a;
                const sy = matrix.d;
                const tx = matrix.e; 
                const ty = matrix.f;
                const realPoint = {
                  x: (x - tx) / sx,
                  y: (y - ty) / sy // Flip y back since we used negative scale
                }
                
                coords.textContent = `(${realPoint.x.toFixed(2)}, ${realPoint.y.toFixed(2)})`;
                coords.setAttribute('x', (x + 5).toString());
                coords.setAttribute('y', (y - 5).toString());
              });
              document.currentScript.parentElement.addEventListener('mouseleave', () => {
                document.currentScript.parentElement.getElementById('crosshair').style.display = 'none';
              });
            ]]></script></svg>