<svg width="1024" height="1024" viewBox="0 0 1024 1024" xmlns="http://www.w3.org/2000/svg"><rect width="100%" height="100%" fill="white"/><g><circle data-type="point" data-label="conn_000" data-x="2.44" data-y="5" cx="742.3359999999998" cy="40.000000000000284" r="28.792" fill="red" stroke="#3bbd0f" stroke-width="28.792"/></g><g><circle data-type="point" data-label="conn_000" data-x="-2.68" data-y="-5" cx="259.00800000000004" cy="984" r="28.792" fill="blue" stroke="#3bbd0f" stroke-width="28.792"/></g><g><circle data-type="point" data-label="conn_001" data-x="-1.92" data-y="5" cx="330.752" cy="40.000000000000284" r="28.792" fill="red" stroke="#170fbd" stroke-width="28.792"/></g><g><circle data-type="point" data-label="conn_001" data-x="-1.92" data-y="-5" cx="330.752" cy="984" r="28.792" fill="blue" stroke="#170fbd" stroke-width="28.792"/></g><g><circle data-type="point" data-label="conn_002" data-x="5" data-y="0.24" cx="983.9999999999998" cy="489.3440000000001" r="28.792" fill="blue" stroke="#bd490f" stroke-width="28.792"/></g><g><circle data-type="point" data-label="conn_002" data-x="5" data-y="-4.5200000000000005" cx="983.9999999999998" cy="938.688" r="28.792" fill="red" stroke="#bd490f" stroke-width="28.792"/></g><g><circle data-type="point" data-label="conn_003" data-x="-0.16" data-y="5" cx="496.89599999999996" cy="40.000000000000284" r="28.792" fill="blue" stroke="#0fbd7c" stroke-width="28.792"/></g><g><circle data-type="point" data-label="conn_003" data-x="5" data-y="4.16" cx="983.9999999999998" cy="119.29600000000028" r="28.792" fill="red" stroke="#0fbd7c" stroke-width="28.792"/></g><g><circle data-type="point" data-label="conn_004" data-x="-5" data-y="4.18" cx="40.000000000000114" cy="117.4080000000003" r="28.792" fill="blue" stroke="#ae0fbd" stroke-width="28.792"/></g><g><circle data-type="point" data-label="conn_004" data-x="5" data-y="1.6400000000000001" cx="983.9999999999998" cy="357.1840000000002" r="28.792" fill="red" stroke="#ae0fbd" stroke-width="28.792"/></g><g><circle data-type="point" data-label="conn_005" data-x="-5" data-y="-2.2" cx="40.000000000000114" cy="719.6800000000001" r="28.792" fill="red" stroke="#98bd0f" stroke-width="28.792"/></g><g><circle data-type="point" data-label="conn_005" data-x="-0.84" data-y="-5" cx="432.70399999999995" cy="984" r="28.792" fill="red" stroke="#98bd0f" stroke-width="28.792"/></g><g><circle data-type="point" data-label="conn_006" data-x="5" data-y="-2.9" cx="983.9999999999998" cy="785.76" r="28.792" fill="blue" stroke="#0f66bd" stroke-width="28.792"/></g><g><circle data-type="point" data-label="conn_006" data-x="-4.76" data-y="5" cx="62.65600000000012" cy="40.000000000000284" r="28.792" fill="blue" stroke="#0f66bd" stroke-width="28.792"/></g><g><polyline data-points="-0.15151515151515066,5.000000000000002 -0.05050505050505001,4.898989898989901 0.050505050505051545,4.7979797979797985 0.1515151515151522,4.696969696969697 0.2525252525252529,4.595959595959597 0.3535353535353544,4.494949494949497 0.4545454545454551,4.393939393939394 0.5555555555555567,4.292929292929293 0.6565656565656574,4.191919191919193 0.7575757575757579,4.090909090909092 0.8585858585858596,3.989898989898992" data-type="line" data-label="" points="497.69696969696975,40.000000000000114 507.2323232323232,49.53535353535369 516.7676767676768,59.07070707070733 526.3030303030303,68.60606060606085 535.8383838383838,78.14141414141432 545.3737373737374,87.67676767676778 554.9090909090909,97.21212121212153 564.4444444444445,106.747474747475 573.9797979797979,116.28282828282846 583.5151515151515,125.81818181818198 593.0505050505051,135.35353535353545" fill="none" stroke="rgba(0,0,255,0.75)" stroke-width="14.159999999999995"/></g><g><polyline data-points="0.8585858585858596,3.989898989898992 0.9595959595959602,4.090909090909092 1.0606060606060617,4.191919191919193 1.1616161616161622,4.191919191919193 1.262626262626263,4.191919191919193 1.3636363636363644,4.191919191919193 1.4646464646464652,4.191919191919193 1.5656565656565666,4.191919191919193 1.6666666666666674,4.191919191919193 1.767676767676768,4.191919191919193 1.8686868686868696,4.191919191919193 1.9696969696969702,4.191919191919193 2.070707070707072,4.191919191919193 2.1717171717171726,4.191919191919193 2.2727272727272734,4.191919191919193 2.373737373737375,4.191919191919193 2.4747474747474754,4.191919191919193 2.575757575757577,4.191919191919193 2.676767676767678,4.191919191919193 2.7777777777777786,4.191919191919193 2.87878787878788,4.191919191919193 2.9797979797979806,4.191919191919193 3.080808080808082,4.191919191919193 3.181818181818183,4.191919191919193 3.2828282828282833,4.191919191919193 3.383838383838384,4.191919191919193 3.4848484848484866,4.191919191919193 3.5858585858585874,4.191919191919193 3.6868686868686877,4.191919191919193 3.7878787878787885,4.191919191919193 3.8888888888888893,4.191919191919193 3.989898989898992,4.191919191919193 4.090909090909092,4.191919191919193 4.191919191919193,4.191919191919193 4.292929292929293,4.191919191919193 4.393939393939394,4.191919191919193 4.494949494949497,4.191919191919193 4.595959595959597,4.191919191919193 4.696969696969697,4.191919191919193 4.7979797979797985,4.191919191919193 4.898989898989901,4.191919191919193 5.000000000000002,4.191919191919193" data-type="line" data-label="" points="593.0505050505051,135.35353535353545 602.5858585858585,125.81818181818198 612.1212121212121,116.28282828282846 621.6565656565656,116.28282828282846 631.1919191919192,116.28282828282846 640.7272727272727,116.28282828282846 650.2626262626262,116.28282828282846 659.7979797979798,116.28282828282846 669.3333333333333,116.28282828282846 678.8686868686868,116.28282828282846 688.4040404040404,116.28282828282846 697.9393939393939,116.28282828282846 707.4747474747475,116.28282828282846 717.0101010101009,116.28282828282846 726.5454545454545,116.28282828282846 736.0808080808081,116.28282828282846 745.6161616161615,116.28282828282846 755.1515151515151,116.28282828282846 764.6868686868686,116.28282828282846 774.2222222222222,116.28282828282846 783.7575757575758,116.28282828282846 793.2929292929292,116.28282828282846 802.8282828282828,116.28282828282846 812.3636363636363,116.28282828282846 821.8989898989898,116.28282828282846 831.4343434343433,116.28282828282846 840.969696969697,116.28282828282846 850.5050505050505,116.28282828282846 860.0404040404039,116.28282828282846 869.5757575757575,116.28282828282846 879.111111111111,116.28282828282846 888.6464646464647,116.28282828282846 898.181818181818,116.28282828282846 907.7171717171716,116.28282828282846 917.2525252525251,116.28282828282846 926.7878787878785,116.28282828282846 936.3232323232323,116.28282828282846 945.8585858585857,116.28282828282846 955.3939393939393,116.28282828282846 964.9292929292927,116.28282828282846 974.4646464646464,116.28282828282846 984,116.28282828282846" fill="none" stroke="rgba(255,0,0,0.75)" stroke-width="14.159999999999995"/></g><g><polyline data-points="5.000000000000002,-2.8787878787878785 4.898989898989901,-2.7777777777777777 4.7979797979797985,-2.6767676767676765 4.696969696969697,-2.5757575757575752 4.595959595959597,-2.474747474747474 4.494949494949497,-2.3737373737373733 4.393939393939394,-2.2727272727272725 4.292929292929293,-2.1717171717171713 4.191919191919193,-2.07070707070707 4.090909090909092,-1.9696969696969693 3.989898989898992,-1.8686868686868683 3.8888888888888893,-1.7676767676767675 3.7878787878787885,-1.6666666666666665 3.6868686868686877,-1.5656565656565653 3.5858585858585874,-1.4646464646464643 3.4848484848484866,-1.363636363636363 3.383838383838384,-1.2626262626262625 3.2828282828282833,-1.1616161616161613 3.181818181818183,-1.0606060606060603 3.080808080808082,-0.9595959595959596 2.9797979797979806,-0.8585858585858579 2.87878787878788,-0.7575757575757572 2.7777777777777786,-0.6565656565656557 2.676767676767678,-0.555555555555555 2.575757575757577,-0.4545454545454544 2.4747474747474754,-0.35353535353535287 2.373737373737375,-0.2525252525252522 2.2727272727272734,-0.15151515151515066 2.1717171717171726,-0.05050505050505001 2.070707070707072,0.050505050505051545 1.9696969696969702,0.1515151515151522 1.8686868686868696,0.2525252525252529 1.767676767676768,0.3535353535353544 1.6666666666666674,0.4545454545454551 1.5656565656565666,0.5555555555555567 1.4646464646464652,0.6565656565656574 1.3636363636363644,0.7575757575757579 1.262626262626263,0.8585858585858596 1.1616161616161622,0.9595959595959602 1.0606060606060617,1.0606060606060617 0.9595959595959602,1.1616161616161622 0.8585858585858596,1.262626262626263 0.7575757575757579,1.3636363636363644 0.6565656565656574,1.4646464646464652 0.5555555555555567,1.5656565656565666 0.4545454545454551,1.6666666666666674 0.3535353535353544,1.767676767676768 0.2525252525252529,1.8686868686868696 0.1515151515151522,1.9696969696969702 0.050505050505051545,2.070707070707072 -0.05050505050505001,2.1717171717171726 -0.15151515151515066,2.2727272727272734 -0.2525252525252522,2.373737373737375 -0.35353535353535287,2.4747474747474754 -0.4545454545454544,2.575757575757577 -0.555555555555555,2.676767676767678 -0.6565656565656557,2.7777777777777786 -0.7575757575757572,2.87878787878788 -0.8585858585858579,2.9797979797979806 -0.9595959595959596,3.080808080808082 -1.0606060606060603,3.181818181818183 -1.1616161616161613,3.2828282828282833 -1.2626262626262625,3.383838383838384 -1.363636363636363,3.4848484848484866 -1.4646464646464643,3.5858585858585874 -1.5656565656565653,3.6868686868686877 -1.6666666666666665,3.7878787878787885 -1.7676767676767675,3.8888888888888893 -1.8686868686868683,3.989898989898992 -1.9696969696969693,4.090909090909092 -2.07070707070707,4.191919191919193 -2.1717171717171713,4.292929292929293 -2.2727272727272725,4.393939393939394 -2.3737373737373733,4.494949494949497 -2.474747474747474,4.595959595959597 -2.5757575757575752,4.696969696969697 -2.6767676767676765,4.7979797979797985 -2.7777777777777777,4.898989898989901 -2.8787878787878785,5.000000000000002 -2.9797979797979792,5.000000000000002 -3.0808080808080804,5.000000000000002 -3.1818181818181817,5.000000000000002 -3.2828282828282824,5.000000000000002 -3.383838383838383,5.000000000000002 -3.484848484848485,5.000000000000002 -3.5858585858585856,5.000000000000002 -3.6868686868686864,5.000000000000002 -3.7878787878787876,5.000000000000002 -3.8888888888888884,5.000000000000002 -3.98989898989899,5.000000000000002 -4.090909090909091,5.000000000000002 -4.191919191919193,5.000000000000002 -4.292929292929293,5.000000000000002 -4.393939393939394,5.000000000000002 -4.494949494949496,5.000000000000002 -4.595959595959596,5.000000000000002 -4.696969696969697,5.000000000000002 -4.7979797979797985,5.000000000000002" data-type="line" data-label="" points="984,783.7575757575758 974.4646464646464,774.2222222222222 964.9292929292927,764.6868686868687 955.3939393939393,755.1515151515151 945.8585858585857,745.6161616161615 936.3232323232323,736.0808080808081 926.7878787878785,726.5454545454545 917.2525252525251,717.010101010101 907.7171717171716,707.4747474747475 898.181818181818,697.939393939394 888.6464646464647,688.4040404040404 879.111111111111,678.8686868686868 869.5757575757575,669.3333333333334 860.0404040404039,659.7979797979798 850.5050505050505,650.2626262626263 840.969696969697,640.7272727272727 831.4343434343433,631.1919191919193 821.8989898989898,621.6565656565657 812.3636363636363,612.1212121212121 802.8282828282828,602.5858585858587 793.2929292929292,593.0505050505051 783.7575757575758,583.5151515151516 774.2222222222222,573.979797979798 764.6868686868686,564.4444444444445 755.1515151515151,554.909090909091 745.6161616161615,545.3737373737374 736.0808080808081,535.838383838384 726.5454545454545,526.3030303030304 717.0101010101009,516.7676767676768 707.4747474747475,507.23232323232327 697.9393939393939,497.69696969696975 688.4040404040404,488.1616161616163 678.8686868686868,478.6262626262627 669.3333333333333,469.0909090909092 659.7979797979798,459.5555555555556 650.2626262626262,450.0202020202021 640.7272727272727,440.4848484848486 631.1919191919192,430.94949494949503 621.6565656565656,421.4141414141415 612.1212121212121,411.87878787878793 602.5858585858585,402.3434343434344 593.0505050505051,392.80808080808094 583.5151515151515,383.27272727272737 573.9797979797979,373.73737373737384 564.4444444444445,364.2020202020203 554.9090909090909,354.66666666666674 545.3737373737374,345.1313131313133 535.8383838383838,335.5959595959597 526.3030303030303,326.06060606060623 516.7676767676768,316.5252525252526 507.2323232323232,306.9898989898991 497.69696969696975,297.4545454545456 488.16161616161617,287.91919191919203 478.62626262626264,278.38383838383857 469.09090909090907,268.84848484848493 459.55555555555554,259.3131313131314 450.0202020202021,249.77777777777794 440.4848484848485,240.24242424242436 430.949494949495,230.70707070707084 421.4141414141414,221.17171717171726 411.8787878787879,211.63636363636374 402.34343434343435,202.10101010101027 392.80808080808083,192.56565656565675 383.2727272727273,183.03030303030312 373.7373737373738,173.4949494949496 364.2020202020202,163.95959595959613 354.6666666666667,154.4242424242426 345.13131313131316,144.88888888888908 335.59595959595964,135.35353535353545 326.0606060606061,125.81818181818198 316.5252525252526,116.28282828282846 306.9898989898991,106.747474747475 297.4545454545455,97.21212121212153 287.91919191919203,87.67676767676778 278.38383838383845,78.14141414141432 268.84848484848493,68.60606060606085 259.3131313131314,59.07070707070733 249.77777777777783,49.53535353535369 240.2424242424243,40.000000000000114 230.70707070707084,40.000000000000114 221.17171717171726,40.000000000000114 211.63636363636374,40.000000000000114 202.10101010101022,40.000000000000114 192.5656565656567,40.000000000000114 183.03030303030312,40.000000000000114 173.4949494949496,40.000000000000114 163.95959595959607,40.000000000000114 154.42424242424255,40.000000000000114 144.88888888888903,40.000000000000114 135.35353535353545,40.000000000000114 125.81818181818193,40.000000000000114 116.28282828282829,40.000000000000114 106.74747474747483,40.000000000000114 97.21212121212136,40.000000000000114 87.67676767676772,40.000000000000114 78.14141414141426,40.000000000000114 68.60606060606068,40.000000000000114 59.07070707070716,40.000000000000114" fill="none" stroke="rgba(0,0,255,0.75)" stroke-width="14.159999999999995"/></g><g><polyline data-points="2.4747474747474754,5.000000000000002 2.373737373737375,4.898989898989901 2.2727272727272734,4.7979797979797985 2.1717171717171726,4.696969696969697 2.070707070707072,4.595959595959597 1.9696969696969702,4.494949494949497 1.8686868686868696,4.494949494949497 1.767676767676768,4.494949494949497 1.6666666666666674,4.494949494949497 1.5656565656565666,4.494949494949497 1.4646464646464652,4.494949494949497 1.3636363636363644,4.494949494949497 1.262626262626263,4.494949494949497 1.1616161616161622,4.494949494949497 1.0606060606060617,4.494949494949497 0.9595959595959602,4.494949494949497 0.8585858585858596,4.494949494949497 0.7575757575757579,4.393939393939394 0.6565656565656574,4.393939393939394 0.5555555555555567,4.292929292929293 0.4545454545454551,4.191919191919193 0.3535353535353544,4.090909090909092 0.2525252525252529,3.989898989898992 0.1515151515151522,3.8888888888888893 0.050505050505051545,3.7878787878787885 -0.05050505050505001,3.6868686868686877 -0.15151515151515066,3.5858585858585874 -0.2525252525252522,3.4848484848484866 -0.35353535353535287,3.383838383838384 -0.4545454545454544,3.2828282828282833 -0.555555555555555,3.181818181818183 -0.6565656565656557,3.080808080808082 -0.7575757575757572,2.9797979797979806 -0.8585858585858579,2.87878787878788 -0.9595959595959596,2.7777777777777786 -1.0606060606060603,2.676767676767678 -1.1616161616161613,2.575757575757577 -1.2626262626262625,2.4747474747474754 -1.363636363636363,2.373737373737375 -1.4646464646464643,2.2727272727272734 -1.5656565656565653,2.1717171717171726 -1.6666666666666665,2.070707070707072 -1.7676767676767675,1.9696969696969702 -1.8686868686868683,1.8686868686868696 -1.9696969696969693,1.767676767676768 -2.07070707070707,1.6666666666666674 -2.1717171717171713,1.5656565656565666 -2.2727272727272725,1.4646464646464652 -2.3737373737373733,1.3636363636363644 -2.474747474747474,1.262626262626263 -2.5757575757575752,1.1616161616161622 -2.6767676767676765,1.0606060606060617 -2.6767676767676765,0.9595959595959602 -2.6767676767676765,0.8585858585858596 -2.6767676767676765,0.7575757575757579 -2.6767676767676765,0.6565656565656574 -2.6767676767676765,0.5555555555555567 -2.6767676767676765,0.4545454545454551 -2.6767676767676765,0.3535353535353544 -2.6767676767676765,0.2525252525252529 -2.6767676767676765,0.1515151515151522 -2.6767676767676765,0.050505050505051545 -2.6767676767676765,-0.05050505050505001 -2.6767676767676765,-0.15151515151515066 -2.6767676767676765,-0.2525252525252522 -2.6767676767676765,-0.35353535353535287 -2.6767676767676765,-0.4545454545454544 -2.6767676767676765,-0.555555555555555 -2.6767676767676765,-0.6565656565656557 -2.6767676767676765,-0.7575757575757572 -2.6767676767676765,-0.8585858585858579 -2.6767676767676765,-0.9595959595959596 -2.6767676767676765,-1.0606060606060603 -2.6767676767676765,-1.1616161616161613 -2.6767676767676765,-1.2626262626262625 -2.6767676767676765,-1.363636363636363 -2.6767676767676765,-1.4646464646464643 -2.6767676767676765,-1.5656565656565653 -2.6767676767676765,-1.6666666666666665 -2.6767676767676765,-1.7676767676767675 -2.6767676767676765,-1.8686868686868683 -2.6767676767676765,-1.9696969696969693 -2.6767676767676765,-2.07070707070707 -2.6767676767676765,-2.1717171717171713 -2.6767676767676765,-2.2727272727272725 -2.6767676767676765,-2.3737373737373733 -2.6767676767676765,-2.474747474747474 -2.6767676767676765,-2.5757575757575752 -2.6767676767676765,-2.6767676767676765 -2.6767676767676765,-2.7777777777777777 -2.6767676767676765,-2.8787878787878785 -2.6767676767676765,-2.9797979797979792 -2.6767676767676765,-3.0808080808080804 -2.6767676767676765,-3.1818181818181817 -2.6767676767676765,-3.2828282828282824 -2.6767676767676765,-3.383838383838383 -2.6767676767676765,-3.484848484848485 -2.6767676767676765,-3.5858585858585856 -2.6767676767676765,-3.6868686868686864 -2.6767676767676765,-3.7878787878787876 -2.6767676767676765,-3.8888888888888884 -2.6767676767676765,-3.98989898989899" data-type="line" data-label="" points="745.6161616161615,40.000000000000114 736.0808080808081,49.53535353535369 726.5454545454545,59.07070707070733 717.0101010101009,68.60606060606085 707.4747474747475,78.14141414141432 697.9393939393939,87.67676767676778 688.4040404040404,87.67676767676778 678.8686868686868,87.67676767676778 669.3333333333333,87.67676767676778 659.7979797979798,87.67676767676778 650.2626262626262,87.67676767676778 640.7272727272727,87.67676767676778 631.1919191919192,87.67676767676778 621.6565656565656,87.67676767676778 612.1212121212121,87.67676767676778 602.5858585858585,87.67676767676778 593.0505050505051,87.67676767676778 583.5151515151515,97.21212121212153 573.9797979797979,97.21212121212153 564.4444444444445,106.747474747475 554.9090909090909,116.28282828282846 545.3737373737374,125.81818181818198 535.8383838383838,135.35353535353545 526.3030303030303,144.88888888888908 516.7676767676768,154.4242424242426 507.2323232323232,163.95959595959613 497.69696969696975,173.4949494949496 488.16161616161617,183.03030303030312 478.62626262626264,192.56565656565675 469.09090909090907,202.10101010101027 459.55555555555554,211.63636363636374 450.0202020202021,221.17171717171726 440.4848484848485,230.70707070707084 430.949494949495,240.24242424242436 421.4141414141414,249.77777777777794 411.8787878787879,259.3131313131314 402.34343434343435,268.84848484848493 392.80808080808083,278.38383838383857 383.2727272727273,287.91919191919203 373.7373737373738,297.4545454545456 364.2020202020202,306.9898989898991 354.6666666666667,316.5252525252526 345.13131313131316,326.06060606060623 335.59595959595964,335.5959595959597 326.0606060606061,345.1313131313133 316.5252525252526,354.66666666666674 306.9898989898991,364.2020202020203 297.4545454545455,373.73737373737384 287.91919191919203,383.27272727272737 278.38383838383845,392.80808080808094 268.84848484848493,402.3434343434344 259.3131313131314,411.87878787878793 259.3131313131314,421.4141414141415 259.3131313131314,430.94949494949503 259.3131313131314,440.4848484848486 259.3131313131314,450.0202020202021 259.3131313131314,459.5555555555556 259.3131313131314,469.0909090909092 259.3131313131314,478.6262626262627 259.3131313131314,488.1616161616163 259.3131313131314,497.69696969696975 259.3131313131314,507.23232323232327 259.3131313131314,516.7676767676768 259.3131313131314,526.3030303030304 259.3131313131314,535.838383838384 259.3131313131314,545.3737373737374 259.3131313131314,554.909090909091 259.3131313131314,564.4444444444445 259.3131313131314,573.979797979798 259.3131313131314,583.5151515151516 259.3131313131314,593.0505050505051 259.3131313131314,602.5858585858587 259.3131313131314,612.1212121212121 259.3131313131314,621.6565656565657 259.3131313131314,631.1919191919193 259.3131313131314,640.7272727272727 259.3131313131314,650.2626262626263 259.3131313131314,659.7979797979798 259.3131313131314,669.3333333333334 259.3131313131314,678.8686868686868 259.3131313131314,688.4040404040404 259.3131313131314,697.939393939394 259.3131313131314,707.4747474747475 259.3131313131314,717.010101010101 259.3131313131314,726.5454545454545 259.3131313131314,736.0808080808081 259.3131313131314,745.6161616161615 259.3131313131314,755.1515151515151 259.3131313131314,764.6868686868687 259.3131313131314,774.2222222222222 259.3131313131314,783.7575757575758 259.3131313131314,793.2929292929292 259.3131313131314,802.8282828282828 259.3131313131314,812.3636363636363 259.3131313131314,821.8989898989898 259.3131313131314,831.4343434343434 259.3131313131314,840.969696969697 259.3131313131314,850.5050505050505 259.3131313131314,860.0404040404039 259.3131313131314,869.5757575757575 259.3131313131314,879.1111111111111 259.3131313131314,888.6464646464647" fill="none" stroke="rgba(255,0,0,0.75)" stroke-width="14.159999999999995"/></g><g><polyline data-points="-2.6767676767676765,-3.98989898989899 -2.6767676767676765,-4.090909090909091 -2.6767676767676765,-4.191919191919193 -2.6767676767676765,-4.292929292929293 -2.6767676767676765,-4.393939393939394 -2.6767676767676765,-4.494949494949496 -2.6767676767676765,-4.595959595959596 -2.6767676767676765,-4.696969696969697 -2.6767676767676765,-4.7979797979797985 -2.6767676767676765,-4.898989898989899 -2.6767676767676765,-5.000000000000001" data-type="line" data-label="" points="259.3131313131314,888.6464646464647 259.3131313131314,898.1818181818181 259.3131313131314,907.7171717171718 259.3131313131314,917.2525252525252 259.3131313131314,926.7878787878788 259.3131313131314,936.3232323232323 259.3131313131314,945.8585858585858 259.3131313131314,955.3939393939394 259.3131313131314,964.9292929292928 259.3131313131314,974.4646464646464 259.3131313131314,984" fill="none" stroke="rgba(0,0,255,0.75)" stroke-width="14.159999999999995"/></g><g><polyline data-points="-5.000000000000001,-2.2727272727272725 -4.898989898989899,-2.3737373737373733 -4.7979797979797985,-2.474747474747474 -4.696969696969697,-2.5757575757575752 -4.595959595959596,-2.6767676767676765 -4.494949494949496,-2.7777777777777777 -4.393939393939394,-2.8787878787878785 -4.292929292929293,-2.9797979797979792 -4.191919191919193,-3.0808080808080804 -4.090909090909091,-3.1818181818181817 -3.98989898989899,-3.2828282828282824 -3.8888888888888884,-3.383838383838383 -3.7878787878787876,-3.484848484848485 -3.6868686868686864,-3.5858585858585856 -3.5858585858585856,-3.6868686868686864 -3.484848484848485,-3.7878787878787876 -3.383838383838383,-3.8888888888888884 -3.2828282828282824,-3.98989898989899 -3.1818181818181817,-4.090909090909091 -3.0808080808080804,-4.191919191919193 -2.9797979797979792,-4.292929292929293 -2.8787878787878785,-4.393939393939394 -2.7777777777777777,-4.494949494949496 -2.6767676767676765,-4.595959595959596 -2.5757575757575752,-4.696969696969697 -2.474747474747474,-4.7979797979797985 -2.3737373737373733,-4.898989898989899 -2.2727272727272725,-5.000000000000001 -2.1717171717171713,-5.000000000000001 -2.07070707070707,-5.000000000000001 -1.9696969696969693,-5.000000000000001 -1.8686868686868683,-5.000000000000001 -1.7676767676767675,-5.000000000000001 -1.6666666666666665,-5.000000000000001 -1.5656565656565653,-5.000000000000001 -1.4646464646464643,-5.000000000000001 -1.363636363636363,-5.000000000000001 -1.2626262626262625,-5.000000000000001 -1.1616161616161613,-5.000000000000001 -1.0606060606060603,-5.000000000000001 -0.9595959595959596,-5.000000000000001 -0.8585858585858579,-5.000000000000001" data-type="line" data-label="" points="40.00000000000006,726.5454545454545 49.53535353535369,736.0808080808081 59.07070707070716,745.6161616161615 68.60606060606068,755.1515151515151 78.14141414141426,764.6868686868687 87.67676767676772,774.2222222222222 97.21212121212136,783.7575757575758 106.74747474747483,793.2929292929292 116.28282828282829,802.8282828282828 125.81818181818193,812.3636363636363 135.35353535353545,821.8989898989898 144.88888888888903,831.4343434343434 154.42424242424255,840.969696969697 163.95959595959607,850.5050505050505 173.4949494949496,860.0404040404039 183.03030303030312,869.5757575757575 192.5656565656567,879.1111111111111 202.10101010101022,888.6464646464647 211.63636363636374,898.1818181818181 221.17171717171726,907.7171717171718 230.70707070707084,917.2525252525252 240.2424242424243,926.7878787878788 249.77777777777783,936.3232323232323 259.3131313131314,945.8585858585858 268.84848484848493,955.3939393939394 278.38383838383845,964.9292929292928 287.91919191919203,974.4646464646464 297.4545454545455,984 306.9898989898991,984 316.5252525252526,984 326.0606060606061,984 335.59595959595964,984 345.13131313131316,984 354.6666666666667,984 364.2020202020202,984 373.7373737373738,984 383.2727272727273,984 392.80808080808083,984 402.34343434343435,984 411.8787878787879,984 421.4141414141414,984 430.949494949495,984" fill="none" stroke="rgba(255,0,0,0.75)" stroke-width="14.159999999999995"/></g><g><polyline data-points="5.000000000000002,0.2525252525252529 5.000000000000002,0.1515151515151522 5.000000000000002,0.050505050505051545 5.000000000000002,-0.05050505050505001 4.898989898989901,-0.15151515151515066 4.7979797979797985,-0.2525252525252522 4.696969696969697,-0.35353535353535287 4.595959595959597,-0.4545454545454544 4.494949494949497,-0.555555555555555 4.393939393939394,-0.6565656565656557 4.292929292929293,-0.7575757575757572 4.191919191919193,-0.8585858585858579 4.090909090909092,-0.9595959595959596 3.989898989898992,-1.0606060606060603" data-type="line" data-label="" points="984,488.1616161616163 984,497.69696969696975 984,507.23232323232327 984,516.7676767676768 974.4646464646464,526.3030303030304 964.9292929292927,535.838383838384 955.3939393939393,545.3737373737374 945.8585858585857,554.909090909091 936.3232323232323,564.4444444444445 926.7878787878785,573.979797979798 917.2525252525251,583.5151515151516 907.7171717171716,593.0505050505051 898.181818181818,602.5858585858587 888.6464646464647,612.1212121212121" fill="none" stroke="rgba(0,0,255,0.75)" stroke-width="14.159999999999995"/></g><g><polyline data-points="3.989898989898992,-1.0606060606060603 4.090909090909092,-1.1616161616161613 4.191919191919193,-1.2626262626262625 4.292929292929293,-1.363636363636363 4.393939393939394,-1.4646464646464643 4.494949494949497,-1.5656565656565653 4.595959595959597,-1.6666666666666665 4.696969696969697,-1.7676767676767675 4.7979797979797985,-1.8686868686868683 4.898989898989901,-1.9696969696969693 5.000000000000002,-2.07070707070707 5.000000000000002,-2.1717171717171713 5.000000000000002,-2.2727272727272725 5.000000000000002,-2.3737373737373733 5.000000000000002,-2.474747474747474 5.000000000000002,-2.5757575757575752 5.000000000000002,-2.6767676767676765 5.000000000000002,-2.7777777777777777 5.000000000000002,-2.8787878787878785 5.000000000000002,-2.9797979797979792 5.000000000000002,-3.0808080808080804 5.000000000000002,-3.1818181818181817 5.000000000000002,-3.2828282828282824 5.000000000000002,-3.383838383838383 5.000000000000002,-3.484848484848485 5.000000000000002,-3.5858585858585856 5.000000000000002,-3.6868686868686864 5.000000000000002,-3.7878787878787876 5.000000000000002,-3.8888888888888884 5.000000000000002,-3.98989898989899 5.000000000000002,-4.090909090909091 5.000000000000002,-4.191919191919193 5.000000000000002,-4.292929292929293 5.000000000000002,-4.393939393939394 5.000000000000002,-4.494949494949496 5.000000000000002,-4.595959595959596" data-type="line" data-label="" points="888.6464646464647,612.1212121212121 898.181818181818,621.6565656565657 907.7171717171716,631.1919191919193 917.2525252525251,640.7272727272727 926.7878787878785,650.2626262626263 936.3232323232323,659.7979797979798 945.8585858585857,669.3333333333334 955.3939393939393,678.8686868686868 964.9292929292927,688.4040404040404 974.4646464646464,697.939393939394 984,707.4747474747475 984,717.010101010101 984,726.5454545454545 984,736.0808080808081 984,745.6161616161615 984,755.1515151515151 984,764.6868686868687 984,774.2222222222222 984,783.7575757575758 984,793.2929292929292 984,802.8282828282828 984,812.3636363636363 984,821.8989898989898 984,831.4343434343434 984,840.969696969697 984,850.5050505050505 984,860.0404040404039 984,869.5757575757575 984,879.1111111111111 984,888.6464646464647 984,898.1818181818181 984,907.7171717171718 984,917.2525252525252 984,926.7878787878788 984,936.3232323232323 984,945.8585858585858" fill="none" stroke="rgba(255,0,0,0.75)" stroke-width="14.159999999999995"/></g><g><polyline data-points="-5.000000000000001,4.191919191919193 -4.898989898989899,4.090909090909092 -4.7979797979797985,3.989898989898992 -4.696969696969697,3.8888888888888893 -4.595959595959596,3.7878787878787885 -4.494949494949496,3.6868686868686877 -4.393939393939394,3.5858585858585874 -4.292929292929293,3.4848484848484866 -4.191919191919193,3.383838383838384 -4.090909090909091,3.2828282828282833 -3.98989898989899,3.181818181818183 -3.8888888888888884,3.080808080808082 -3.7878787878787876,2.9797979797979806 -3.6868686868686864,2.87878787878788 -3.5858585858585856,2.7777777777777786 -3.484848484848485,2.676767676767678 -3.383838383838383,2.575757575757577 -3.2828282828282824,2.4747474747474754 -3.1818181818181817,2.373737373737375 -3.0808080808080804,2.2727272727272734 -2.9797979797979792,2.1717171717171726 -2.8787878787878785,2.070707070707072 -2.7777777777777777,1.9696969696969702 -2.6767676767676765,1.8686868686868696 -2.5757575757575752,1.767676767676768 -2.474747474747474,1.6666666666666674 -2.3737373737373733,1.6666666666666674 -2.2727272727272725,1.6666666666666674 -2.1717171717171713,1.6666666666666674 -2.07070707070707,1.6666666666666674 -1.9696969696969693,1.6666666666666674 -1.8686868686868683,1.6666666666666674 -1.7676767676767675,1.6666666666666674 -1.6666666666666665,1.6666666666666674 -1.5656565656565653,1.6666666666666674 -1.4646464646464643,1.6666666666666674 -1.363636363636363,1.6666666666666674 -1.2626262626262625,1.6666666666666674 -1.1616161616161613,1.6666666666666674 -1.0606060606060603,1.6666666666666674 -0.9595959595959596,1.6666666666666674 -0.8585858585858579,1.6666666666666674 -0.7575757575757572,1.6666666666666674 -0.6565656565656557,1.6666666666666674 -0.555555555555555,1.6666666666666674 -0.4545454545454544,1.6666666666666674 -0.35353535353535287,1.6666666666666674" data-type="line" data-label="" points="40.00000000000006,116.28282828282846 49.53535353535369,125.81818181818198 59.07070707070716,135.35353535353545 68.60606060606068,144.88888888888908 78.14141414141426,154.4242424242426 87.67676767676772,163.95959595959613 97.21212121212136,173.4949494949496 106.74747474747483,183.03030303030312 116.28282828282829,192.56565656565675 125.81818181818193,202.10101010101027 135.35353535353545,211.63636363636374 144.88888888888903,221.17171717171726 154.42424242424255,230.70707070707084 163.95959595959607,240.24242424242436 173.4949494949496,249.77777777777794 183.03030303030312,259.3131313131314 192.5656565656567,268.84848484848493 202.10101010101022,278.38383838383857 211.63636363636374,287.91919191919203 221.17171717171726,297.4545454545456 230.70707070707084,306.9898989898991 240.2424242424243,316.5252525252526 249.77777777777783,326.06060606060623 259.3131313131314,335.5959595959597 268.84848484848493,345.1313131313133 278.38383838383845,354.66666666666674 287.91919191919203,354.66666666666674 297.4545454545455,354.66666666666674 306.9898989898991,354.66666666666674 316.5252525252526,354.66666666666674 326.0606060606061,354.66666666666674 335.59595959595964,354.66666666666674 345.13131313131316,354.66666666666674 354.6666666666667,354.66666666666674 364.2020202020202,354.66666666666674 373.7373737373738,354.66666666666674 383.2727272727273,354.66666666666674 392.80808080808083,354.66666666666674 402.34343434343435,354.66666666666674 411.8787878787879,354.66666666666674 421.4141414141414,354.66666666666674 430.949494949495,354.66666666666674 440.4848484848485,354.66666666666674 450.0202020202021,354.66666666666674 459.55555555555554,354.66666666666674 469.09090909090907,354.66666666666674 478.62626262626264,354.66666666666674" fill="none" stroke="rgba(0,0,255,0.75)" stroke-width="14.159999999999995"/></g><g><polyline data-points="-0.35353535353535287,1.6666666666666674 -0.2525252525252522,1.6666666666666674 -0.15151515151515066,1.6666666666666674 -0.05050505050505001,1.6666666666666674 0.050505050505051545,1.6666666666666674 0.1515151515151522,1.6666666666666674 0.2525252525252529,1.6666666666666674 0.3535353535353544,1.6666666666666674 0.4545454545454551,1.6666666666666674 0.5555555555555567,1.6666666666666674 0.6565656565656574,1.6666666666666674 0.7575757575757579,1.6666666666666674 0.8585858585858596,1.6666666666666674 0.9595959595959602,1.6666666666666674 1.0606060606060617,1.6666666666666674 1.1616161616161622,1.6666666666666674 1.262626262626263,1.6666666666666674 1.3636363636363644,1.6666666666666674 1.4646464646464652,1.6666666666666674 1.5656565656565666,1.6666666666666674 1.6666666666666674,1.6666666666666674 1.767676767676768,1.6666666666666674 1.8686868686868696,1.6666666666666674 1.9696969696969702,1.6666666666666674 2.070707070707072,1.6666666666666674 2.1717171717171726,1.6666666666666674 2.2727272727272734,1.6666666666666674 2.373737373737375,1.6666666666666674 2.4747474747474754,1.6666666666666674 2.575757575757577,1.6666666666666674 2.676767676767678,1.6666666666666674 2.7777777777777786,1.6666666666666674 2.87878787878788,1.6666666666666674 2.9797979797979806,1.6666666666666674 3.080808080808082,1.6666666666666674 3.181818181818183,1.6666666666666674 3.2828282828282833,1.6666666666666674 3.383838383838384,1.6666666666666674 3.4848484848484866,1.6666666666666674 3.5858585858585874,1.6666666666666674 3.6868686868686877,1.6666666666666674 3.7878787878787885,1.6666666666666674 3.8888888888888893,1.6666666666666674 3.989898989898992,1.6666666666666674 4.090909090909092,1.6666666666666674 4.191919191919193,1.6666666666666674 4.292929292929293,1.6666666666666674 4.393939393939394,1.6666666666666674 4.494949494949497,1.6666666666666674 4.595959595959597,1.6666666666666674 4.696969696969697,1.6666666666666674 4.7979797979797985,1.6666666666666674 4.898989898989901,1.6666666666666674 5.000000000000002,1.6666666666666674" data-type="line" data-label="" points="478.62626262626264,354.66666666666674 488.16161616161617,354.66666666666674 497.69696969696975,354.66666666666674 507.2323232323232,354.66666666666674 516.7676767676768,354.66666666666674 526.3030303030303,354.66666666666674 535.8383838383838,354.66666666666674 545.3737373737374,354.66666666666674 554.9090909090909,354.66666666666674 564.4444444444445,354.66666666666674 573.9797979797979,354.66666666666674 583.5151515151515,354.66666666666674 593.0505050505051,354.66666666666674 602.5858585858585,354.66666666666674 612.1212121212121,354.66666666666674 621.6565656565656,354.66666666666674 631.1919191919192,354.66666666666674 640.7272727272727,354.66666666666674 650.2626262626262,354.66666666666674 659.7979797979798,354.66666666666674 669.3333333333333,354.66666666666674 678.8686868686868,354.66666666666674 688.4040404040404,354.66666666666674 697.9393939393939,354.66666666666674 707.4747474747475,354.66666666666674 717.0101010101009,354.66666666666674 726.5454545454545,354.66666666666674 736.0808080808081,354.66666666666674 745.6161616161615,354.66666666666674 755.1515151515151,354.66666666666674 764.6868686868686,354.66666666666674 774.2222222222222,354.66666666666674 783.7575757575758,354.66666666666674 793.2929292929292,354.66666666666674 802.8282828282828,354.66666666666674 812.3636363636363,354.66666666666674 821.8989898989898,354.66666666666674 831.4343434343433,354.66666666666674 840.969696969697,354.66666666666674 850.5050505050505,354.66666666666674 860.0404040404039,354.66666666666674 869.5757575757575,354.66666666666674 879.111111111111,354.66666666666674 888.6464646464647,354.66666666666674 898.181818181818,354.66666666666674 907.7171717171716,354.66666666666674 917.2525252525251,354.66666666666674 926.7878787878785,354.66666666666674 936.3232323232323,354.66666666666674 945.8585858585857,354.66666666666674 955.3939393939393,354.66666666666674 964.9292929292927,354.66666666666674 974.4646464646464,354.66666666666674 984,354.66666666666674" fill="none" stroke="rgba(255,0,0,0.75)" stroke-width="14.159999999999995"/></g><g><polyline data-points="-1.9696969696969693,5.000000000000002 -1.9696969696969693,4.898989898989901 -1.9696969696969693,4.7979797979797985 -1.9696969696969693,4.696969696969697 -1.9696969696969693,4.595959595959597 -1.9696969696969693,4.494949494949497 -1.9696969696969693,4.393939393939394 -1.9696969696969693,4.292929292929293 -1.9696969696969693,4.191919191919193 -1.9696969696969693,4.090909090909092 -1.9696969696969693,3.989898989898992 -1.9696969696969693,3.8888888888888893 -1.9696969696969693,3.7878787878787885 -1.9696969696969693,3.6868686868686877 -1.9696969696969693,3.5858585858585874 -1.9696969696969693,3.4848484848484866 -1.9696969696969693,3.383838383838384 -1.9696969696969693,3.2828282828282833 -1.9696969696969693,3.181818181818183 -1.9696969696969693,3.080808080808082 -1.9696969696969693,2.9797979797979806 -1.9696969696969693,2.87878787878788 -1.9696969696969693,2.7777777777777786 -1.9696969696969693,2.676767676767678 -1.9696969696969693,2.575757575757577 -2.07070707070707,2.4747474747474754 -2.1717171717171713,2.373737373737375 -2.2727272727272725,2.2727272727272734 -2.3737373737373733,2.1717171717171726 -2.474747474747474,2.070707070707072 -2.5757575757575752,1.9696969696969702 -2.6767676767676765,1.8686868686868696 -2.7777777777777777,1.767676767676768 -2.8787878787878785,1.6666666666666674 -2.9797979797979792,1.5656565656565666 -3.0808080808080804,1.4646464646464652" data-type="line" data-label="" points="326.0606060606061,40.000000000000114 326.0606060606061,49.53535353535369 326.0606060606061,59.07070707070733 326.0606060606061,68.60606060606085 326.0606060606061,78.14141414141432 326.0606060606061,87.67676767676778 326.0606060606061,97.21212121212153 326.0606060606061,106.747474747475 326.0606060606061,116.28282828282846 326.0606060606061,125.81818181818198 326.0606060606061,135.35353535353545 326.0606060606061,144.88888888888908 326.0606060606061,154.4242424242426 326.0606060606061,163.95959595959613 326.0606060606061,173.4949494949496 326.0606060606061,183.03030303030312 326.0606060606061,192.56565656565675 326.0606060606061,202.10101010101027 326.0606060606061,211.63636363636374 326.0606060606061,221.17171717171726 326.0606060606061,230.70707070707084 326.0606060606061,240.24242424242436 326.0606060606061,249.77777777777794 326.0606060606061,259.3131313131314 326.0606060606061,268.84848484848493 316.5252525252526,278.38383838383857 306.9898989898991,287.91919191919203 297.4545454545455,297.4545454545456 287.91919191919203,306.9898989898991 278.38383838383845,316.5252525252526 268.84848484848493,326.06060606060623 259.3131313131314,335.5959595959597 249.77777777777783,345.1313131313133 240.2424242424243,354.66666666666674 230.70707070707084,364.2020202020203 221.17171717171726,373.73737373737384" fill="none" stroke="rgba(255,0,0,0.75)" stroke-width="14.159999999999995"/></g><g><polyline data-points="-3.0808080808080804,1.4646464646464652 -2.9797979797979792,1.3636363636363644 -2.8787878787878785,1.262626262626263 -2.7777777777777777,1.1616161616161622 -2.6767676767676765,1.0606060606060617 -2.5757575757575752,0.9595959595959602 -2.474747474747474,0.8585858585858596 -2.3737373737373733,0.7575757575757579 -2.2727272727272725,0.6565656565656574 -2.1717171717171713,0.5555555555555567 -2.07070707070707,0.4545454545454551 -1.9696969696969693,0.3535353535353544 -1.9696969696969693,0.2525252525252529 -1.9696969696969693,0.1515151515151522 -1.9696969696969693,0.050505050505051545 -1.9696969696969693,-0.05050505050505001 -1.9696969696969693,-0.15151515151515066 -1.9696969696969693,-0.2525252525252522 -1.9696969696969693,-0.35353535353535287 -1.9696969696969693,-0.4545454545454544 -1.9696969696969693,-0.555555555555555 -1.9696969696969693,-0.6565656565656557 -1.9696969696969693,-0.7575757575757572 -1.9696969696969693,-0.8585858585858579 -1.9696969696969693,-0.9595959595959596 -1.9696969696969693,-1.0606060606060603 -1.9696969696969693,-1.1616161616161613 -1.9696969696969693,-1.2626262626262625 -1.9696969696969693,-1.363636363636363 -1.9696969696969693,-1.4646464646464643 -1.9696969696969693,-1.5656565656565653 -1.9696969696969693,-1.6666666666666665 -1.9696969696969693,-1.7676767676767675 -1.9696969696969693,-1.8686868686868683 -1.9696969696969693,-1.9696969696969693 -1.9696969696969693,-2.07070707070707 -1.9696969696969693,-2.1717171717171713 -1.9696969696969693,-2.2727272727272725 -1.9696969696969693,-2.3737373737373733 -1.9696969696969693,-2.474747474747474 -1.9696969696969693,-2.5757575757575752 -1.9696969696969693,-2.6767676767676765 -1.9696969696969693,-2.7777777777777777 -1.9696969696969693,-2.8787878787878785 -1.9696969696969693,-2.9797979797979792 -1.9696969696969693,-3.0808080808080804 -1.9696969696969693,-3.1818181818181817 -1.9696969696969693,-3.2828282828282824 -1.9696969696969693,-3.383838383838383 -1.9696969696969693,-3.484848484848485 -1.9696969696969693,-3.5858585858585856 -1.9696969696969693,-3.6868686868686864 -1.9696969696969693,-3.7878787878787876 -1.9696969696969693,-3.8888888888888884 -1.9696969696969693,-3.98989898989899 -1.9696969696969693,-4.090909090909091 -1.9696969696969693,-4.191919191919193 -1.9696969696969693,-4.292929292929293 -1.9696969696969693,-4.393939393939394 -1.9696969696969693,-4.494949494949496 -1.9696969696969693,-4.595959595959596 -1.9696969696969693,-4.696969696969697 -1.9696969696969693,-4.7979797979797985 -1.9696969696969693,-4.898989898989899 -1.9696969696969693,-5.000000000000001" data-type="line" data-label="" points="221.17171717171726,373.73737373737384 230.70707070707084,383.27272727272737 240.2424242424243,392.80808080808094 249.77777777777783,402.3434343434344 259.3131313131314,411.87878787878793 268.84848484848493,421.4141414141415 278.38383838383845,430.94949494949503 287.91919191919203,440.4848484848486 297.4545454545455,450.0202020202021 306.9898989898991,459.5555555555556 316.5252525252526,469.0909090909092 326.0606060606061,478.6262626262627 326.0606060606061,488.1616161616163 326.0606060606061,497.69696969696975 326.0606060606061,507.23232323232327 326.0606060606061,516.7676767676768 326.0606060606061,526.3030303030304 326.0606060606061,535.838383838384 326.0606060606061,545.3737373737374 326.0606060606061,554.909090909091 326.0606060606061,564.4444444444445 326.0606060606061,573.979797979798 326.0606060606061,583.5151515151516 326.0606060606061,593.0505050505051 326.0606060606061,602.5858585858587 326.0606060606061,612.1212121212121 326.0606060606061,621.6565656565657 326.0606060606061,631.1919191919193 326.0606060606061,640.7272727272727 326.0606060606061,650.2626262626263 326.0606060606061,659.7979797979798 326.0606060606061,669.3333333333334 326.0606060606061,678.8686868686868 326.0606060606061,688.4040404040404 326.0606060606061,697.939393939394 326.0606060606061,707.4747474747475 326.0606060606061,717.010101010101 326.0606060606061,726.5454545454545 326.0606060606061,736.0808080808081 326.0606060606061,745.6161616161615 326.0606060606061,755.1515151515151 326.0606060606061,764.6868686868687 326.0606060606061,774.2222222222222 326.0606060606061,783.7575757575758 326.0606060606061,793.2929292929292 326.0606060606061,802.8282828282828 326.0606060606061,812.3636363636363 326.0606060606061,821.8989898989898 326.0606060606061,831.4343434343434 326.0606060606061,840.969696969697 326.0606060606061,850.5050505050505 326.0606060606061,860.0404040404039 326.0606060606061,869.5757575757575 326.0606060606061,879.1111111111111 326.0606060606061,888.6464646464647 326.0606060606061,898.1818181818181 326.0606060606061,907.7171717171718 326.0606060606061,917.2525252525252 326.0606060606061,926.7878787878788 326.0606060606061,936.3232323232323 326.0606060606061,945.8585858585858 326.0606060606061,955.3939393939394 326.0606060606061,964.9292929292928 326.0606060606061,974.4646464646464 326.0606060606061,984" fill="none" stroke="rgba(0,0,255,0.75)" stroke-width="14.159999999999995"/></g><g><rect data-type="rect" data-label="" data-x="0" data-y="0" x="40.000000000000114" y="40.000000000000284" width="943.9999999999997" height="943.9999999999998" fill="none" stroke="gray" stroke-width="0.010593220338983056"/></g><g><rect data-type="rect" data-label="" data-x="0" data-y="0" x="40.000000000000114" y="40.000000000000284" width="943.9999999999997" height="943.9999999999998" fill="none" stroke="rgba(15, 23, 42, 0.8)" stroke-width="0.010593220338983056"/></g><circle data-type="circle" data-label="" data-x="0.8585858585858596" data-y="3.989898989898992" cx="593.0505050505051" cy="135.35353535353545" r="28.791999999999987" fill="rgba(0,0,0,0.3)" stroke="black" stroke-width="0.010593220338983056"/><circle data-type="circle" data-label="" data-x="-2.6767676767676765" data-y="-3.98989898989899" cx="259.3131313131314" cy="888.6464646464647" r="28.791999999999987" fill="rgba(0,0,0,0.3)" stroke="black" stroke-width="0.010593220338983056"/><circle data-type="circle" data-label="" data-x="3.989898989898992" data-y="-1.0606060606060603" cx="888.6464646464647" cy="612.1212121212121" r="28.791999999999987" fill="rgba(0,0,0,0.3)" stroke="black" stroke-width="0.010593220338983056"/><circle data-type="circle" data-label="" data-x="-0.35353535353535287" data-y="1.6666666666666674" cx="478.62626262626264" cy="354.66666666666674" r="28.791999999999987" fill="rgba(0,0,0,0.3)" stroke="black" stroke-width="0.010593220338983056"/><circle data-type="circle" data-label="" data-x="-3.0808080808080804" data-y="1.4646464646464652" cx="221.17171717171726" cy="373.73737373737384" r="28.791999999999987" fill="rgba(0,0,0,0.3)" stroke="black" stroke-width="0.010593220338983056"/><g id="crosshair" style="display: none"><line id="crosshair-h" y1="0" y2="1024" stroke="#666" stroke-width="0.5"/><line id="crosshair-v" x1="0" x2="1024" stroke="#666" stroke-width="0.5"/><text id="coordinates" font-family="monospace" font-size="12" fill="#666"></text></g><script><![CDATA[
              document.currentScript.parentElement.addEventListener('mousemove', (e) => {
                const svg = e.currentTarget;
                const rect = svg.getBoundingClientRect();
                const x = e.clientX - rect.left;
                const y = e.clientY - rect.top;
                const crosshair = svg.getElementById('crosshair');
                const h = svg.getElementById('crosshair-h');
                const v = svg.getElementById('crosshair-v');
                const coords = svg.getElementById('coordinates');
                
                crosshair.style.display = 'block';
                h.setAttribute('x1', '0');
                h.setAttribute('x2', '1024');
                h.setAttribute('y1', y);
                h.setAttribute('y2', y);
                v.setAttribute('x1', x);
                v.setAttribute('x2', x);
                v.setAttribute('y1', '0');
                v.setAttribute('y2', '1024');

                // Calculate real coordinates using inverse transformation
                const matrix = {"a":94.39999999999996,"c":0,"e":511.99999999999994,"b":0,"d":-94.39999999999996,"f":512.0000000000001};
                // Manually invert and apply the affine transform
                // Since we only use translate and scale, we can directly compute:
                // x' = (x - tx) / sx
                // y' = (y - ty) / sy
                const sx = matrix.a;
                const sy = matrix.d;
                const tx = matrix.e; 
                const ty = matrix.f;
                const realPoint = {
                  x: (x - tx) / sx,
                  y: (y - ty) / sy // Flip y back since we used negative scale
                }
                
                coords.textContent = `(${realPoint.x.toFixed(2)}, ${realPoint.y.toFixed(2)})`;
                coords.setAttribute('x', (x + 5).toString());
                coords.setAttribute('y', (y - 5).toString());
              });
              document.currentScript.parentElement.addEventListener('mouseleave', () => {
                document.currentScript.parentElement.getElementById('crosshair').style.display = 'none';
              });
            ]]></script></svg>