<svg width="1024" height="1024" viewBox="0 0 1024 1024" xmlns="http://www.w3.org/2000/svg"><rect width="100%" height="100%" fill="white"/><g><circle data-type="point" data-label="conn_000" data-x="-5" data-y="-4.68" cx="40.000000000000114" cy="953.7919999999999" r="28.792" fill="blue" stroke="#0fbd42" stroke-width="28.792"/></g><g><circle data-type="point" data-label="conn_000" data-x="5" data-y="-5" cx="983.9999999999998" cy="984" r="28.792" fill="blue" stroke="#0fbd42" stroke-width="28.792"/></g><g><circle data-type="point" data-label="conn_001" data-x="-0.88" data-y="-5" cx="428.928" cy="984" r="28.792" fill="blue" stroke="#740fbd" stroke-width="28.792"/></g><g><circle data-type="point" data-label="conn_001" data-x="-1.86" data-y="5" cx="336.416" cy="40.000000000000284" r="28.792" fill="blue" stroke="#740fbd" stroke-width="28.792"/></g><g><circle data-type="point" data-label="conn_002" data-x="2.64" data-y="-5" cx="761.2159999999999" cy="984" r="28.792" fill="red" stroke="#bda70f" stroke-width="28.792"/></g><g><circle data-type="point" data-label="conn_002" data-x="0.86" data-y="-5" cx="593.184" cy="984" r="28.792" fill="blue" stroke="#bda70f" stroke-width="28.792"/></g><g><circle data-type="point" data-label="conn_003" data-x="4.3" data-y="5" cx="917.9199999999998" cy="40.000000000000284" r="28.792" fill="red" stroke="#0fa0bd" stroke-width="28.792"/></g><g><circle data-type="point" data-label="conn_003" data-x="-0.4" data-y="5" cx="474.23999999999995" cy="40.000000000000284" r="28.792" fill="blue" stroke="#0fa0bd" stroke-width="28.792"/></g><g><circle data-type="point" data-label="conn_004" data-x="2.6" data-y="5" cx="757.4399999999998" cy="40.000000000000284" r="28.792" fill="red" stroke="#bd0f6d" stroke-width="28.792"/></g><g><circle data-type="point" data-label="conn_004" data-x="-5" data-y="-3.12" cx="40.000000000000114" cy="806.528" r="28.792" fill="blue" stroke="#bd0f6d" stroke-width="28.792"/></g><g><circle data-type="point" data-label="conn_005" data-x="-5" data-y="0.5" cx="40.000000000000114" cy="464.8000000000001" r="28.792" fill="blue" stroke="#3bbd0f" stroke-width="28.792"/></g><g><circle data-type="point" data-label="conn_005" data-x="5" data-y="0.34" cx="983.9999999999998" cy="479.9040000000001" r="28.792" fill="blue" stroke="#3bbd0f" stroke-width="28.792"/></g><g><circle data-type="point" data-label="conn_006" data-x="-2.94" data-y="5" cx="234.46400000000006" cy="40.000000000000284" r="28.792" fill="red" stroke="#170fbd" stroke-width="28.792"/></g><g><circle data-type="point" data-label="conn_006" data-x="0.7000000000000001" data-y="5" cx="578.0799999999999" cy="40.000000000000284" r="28.792" fill="blue" stroke="#170fbd" stroke-width="28.792"/></g><g><circle data-type="point" data-label="conn_007" data-x="1.92" data-y="-5" cx="693.2479999999998" cy="984" r="28.792" fill="blue" stroke="#bd490f" stroke-width="28.792"/></g><g><circle data-type="point" data-label="conn_007" data-x="5" data-y="4.96" cx="983.9999999999998" cy="43.776000000000295" r="28.792" fill="red" stroke="#bd490f" stroke-width="28.792"/></g><g><circle data-type="point" data-label="conn_008" data-x="-3.72" data-y="-5" cx="160.83200000000005" cy="984" r="28.792" fill="blue" stroke="#0fbd7c" stroke-width="28.792"/></g><g><circle data-type="point" data-label="conn_008" data-x="5" data-y="-2.52" cx="983.9999999999998" cy="749.888" r="28.792" fill="red" stroke="#0fbd7c" stroke-width="28.792"/></g><g><circle data-type="point" data-label="conn_009" data-x="5" data-y="1.52" cx="983.9999999999998" cy="368.51200000000017" r="28.792" fill="blue" stroke="#ae0fbd" stroke-width="28.792"/></g><g><circle data-type="point" data-label="conn_009" data-x="3.24" data-y="5" cx="817.8559999999998" cy="40.000000000000284" r="28.792" fill="blue" stroke="#ae0fbd" stroke-width="28.792"/></g><g><polyline data-points="5.000000000000002,1.5656565656565666 4.898989898989901,1.6666666666666674 4.7979797979797985,1.767676767676768 4.696969696969697,1.8686868686868696 4.595959595959597,1.9696969696969702 4.494949494949497,2.070707070707072 4.393939393939394,2.1717171717171726 4.292929292929293,2.2727272727272734 4.191919191919193,2.373737373737375 4.090909090909092,2.4747474747474754 3.989898989898992,2.575757575757577 3.8888888888888893,2.676767676767678 3.7878787878787885,2.7777777777777786 3.6868686868686877,2.87878787878788 3.5858585858585874,2.9797979797979806 3.4848484848484866,3.080808080808082 3.383838383838384,3.181818181818183 3.2828282828282833,3.2828282828282833 3.2828282828282833,3.383838383838384 3.2828282828282833,3.4848484848484866 3.2828282828282833,3.5858585858585874 3.2828282828282833,3.6868686868686877 3.2828282828282833,3.7878787878787885 3.2828282828282833,3.8888888888888893 3.2828282828282833,3.989898989898992 3.2828282828282833,4.090909090909092 3.2828282828282833,4.191919191919193 3.2828282828282833,4.292929292929293 3.2828282828282833,4.393939393939394 3.2828282828282833,4.494949494949497 3.2828282828282833,4.595959595959597 3.2828282828282833,4.696969696969697 3.2828282828282833,4.7979797979797985 3.2828282828282833,4.898989898989901 3.2828282828282833,5.000000000000002" data-type="line" data-label="" points="984,364.2020202020203 974.4646464646464,354.66666666666674 964.9292929292927,345.1313131313133 955.3939393939393,335.5959595959597 945.8585858585857,326.06060606060623 936.3232323232323,316.5252525252526 926.7878787878785,306.9898989898991 917.2525252525251,297.4545454545456 907.7171717171716,287.91919191919203 898.181818181818,278.38383838383857 888.6464646464647,268.84848484848493 879.111111111111,259.3131313131314 869.5757575757575,249.77777777777794 860.0404040404039,240.24242424242436 850.5050505050505,230.70707070707084 840.969696969697,221.17171717171726 831.4343434343433,211.63636363636374 821.8989898989898,202.10101010101027 821.8989898989898,192.56565656565675 821.8989898989898,183.03030303030312 821.8989898989898,173.4949494949496 821.8989898989898,163.95959595959613 821.8989898989898,154.4242424242426 821.8989898989898,144.88888888888908 821.8989898989898,135.35353535353545 821.8989898989898,125.81818181818198 821.8989898989898,116.28282828282846 821.8989898989898,106.747474747475 821.8989898989898,97.21212121212153 821.8989898989898,87.67676767676778 821.8989898989898,78.14141414141432 821.8989898989898,68.60606060606085 821.8989898989898,59.07070707070733 821.8989898989898,49.53535353535369 821.8989898989898,40.000000000000114" fill="none" stroke="rgba(0,0,255,0.75)" stroke-width="14.159999999999995"/></g><g><polyline data-points="2.676767676767678,-5.000000000000001 2.575757575757577,-5.000000000000001 2.4747474747474754,-5.000000000000001 2.373737373737375,-4.898989898989899 2.2727272727272734,-4.7979797979797985 2.1717171717171726,-4.696969696969697 2.070707070707072,-4.696969696969697 1.9696969696969702,-4.595959595959596 1.8686868686868696,-4.494949494949496 1.767676767676768,-4.393939393939394 1.6666666666666674,-4.292929292929293 1.5656565656565666,-4.191919191919193 1.4646464646464652,-4.090909090909091 1.3636363636363644,-3.98989898989899" data-type="line" data-label="" points="764.6868686868686,984 755.1515151515151,984 745.6161616161615,984 736.0808080808081,974.4646464646464 726.5454545454545,964.9292929292928 717.0101010101009,955.3939393939394 707.4747474747475,955.3939393939394 697.9393939393939,945.8585858585858 688.4040404040404,936.3232323232323 678.8686868686868,926.7878787878788 669.3333333333333,917.2525252525252 659.7979797979798,907.7171717171718 650.2626262626262,898.1818181818181 640.7272727272727,888.6464646464647" fill="none" stroke="rgba(255,0,0,0.75)" stroke-width="14.159999999999995"/></g><g><polyline data-points="1.3636363636363644,-3.98989898989899 1.262626262626263,-4.090909090909091 1.1616161616161622,-4.191919191919193 1.0606060606060617,-4.292929292929293 0.9595959595959602,-4.393939393939394 0.9595959595959602,-4.494949494949496 0.9595959595959602,-4.595959595959596 0.9595959595959602,-4.696969696969697 0.9595959595959602,-4.7979797979797985 0.8585858585858596,-4.898989898989899 0.8585858585858596,-5.000000000000001" data-type="line" data-label="" points="640.7272727272727,888.6464646464647 631.1919191919192,898.1818181818181 621.6565656565656,907.7171717171718 612.1212121212121,917.2525252525252 602.5858585858585,926.7878787878788 602.5858585858585,936.3232323232323 602.5858585858585,945.8585858585858 602.5858585858585,955.3939393939394 602.5858585858585,964.9292929292928 593.0505050505051,974.4646464646464 593.0505050505051,984" fill="none" stroke="rgba(0,0,255,0.75)" stroke-width="14.159999999999995"/></g><g><polyline data-points="-3.7878787878787876,-5.000000000000001 -3.6868686868686864,-4.898989898989899 -3.5858585858585856,-4.7979797979797985 -3.484848484848485,-4.696969696969697 -3.383838383838383,-4.595959595959596 -3.2828282828282824,-4.494949494949496 -3.1818181818181817,-4.393939393939394 -3.0808080808080804,-4.292929292929293 -2.9797979797979792,-4.191919191919193 -2.8787878787878785,-4.090909090909091 -2.7777777777777777,-3.98989898989899 -2.6767676767676765,-3.8888888888888884 -2.5757575757575752,-3.7878787878787876 -2.474747474747474,-3.6868686868686864 -2.3737373737373733,-3.5858585858585856 -2.2727272727272725,-3.484848484848485 -2.1717171717171713,-3.383838383838383 -2.07070707070707,-3.2828282828282824 -1.9696969696969693,-3.1818181818181817 -1.8686868686868683,-3.0808080808080804 -1.7676767676767675,-2.9797979797979792 -1.6666666666666665,-2.8787878787878785 -1.5656565656565653,-2.7777777777777777 -1.4646464646464643,-2.6767676767676765 -1.363636363636363,-2.5757575757575752 -1.2626262626262625,-2.5757575757575752 -1.1616161616161613,-2.5757575757575752 -1.0606060606060603,-2.5757575757575752 -0.9595959595959596,-2.5757575757575752 -0.8585858585858579,-2.5757575757575752 -0.7575757575757572,-2.5757575757575752 -0.6565656565656557,-2.5757575757575752 -0.555555555555555,-2.5757575757575752 -0.4545454545454544,-2.5757575757575752 -0.35353535353535287,-2.5757575757575752 -0.2525252525252522,-2.5757575757575752 -0.15151515151515066,-2.5757575757575752 -0.05050505050505001,-2.5757575757575752 0.050505050505051545,-2.5757575757575752 0.1515151515151522,-2.5757575757575752 0.2525252525252529,-2.5757575757575752 0.3535353535353544,-2.5757575757575752 0.4545454545454551,-2.5757575757575752 0.5555555555555567,-2.5757575757575752 0.6565656565656574,-2.5757575757575752 0.7575757575757579,-2.5757575757575752 0.8585858585858596,-2.5757575757575752 0.9595959595959602,-2.5757575757575752 1.0606060606060617,-2.5757575757575752 1.1616161616161622,-2.5757575757575752 1.262626262626263,-2.5757575757575752 1.3636363636363644,-2.5757575757575752 1.4646464646464652,-2.5757575757575752 1.5656565656565666,-2.5757575757575752 1.6666666666666674,-2.5757575757575752 1.767676767676768,-2.5757575757575752 1.8686868686868696,-2.5757575757575752 1.9696969696969702,-2.5757575757575752 2.070707070707072,-2.5757575757575752 2.1717171717171726,-2.5757575757575752 2.2727272727272734,-2.5757575757575752 2.373737373737375,-2.5757575757575752 2.4747474747474754,-2.5757575757575752 2.575757575757577,-2.5757575757575752 2.676767676767678,-2.5757575757575752 2.7777777777777786,-2.5757575757575752 2.87878787878788,-2.5757575757575752 2.9797979797979806,-2.5757575757575752 3.080808080808082,-2.5757575757575752 3.181818181818183,-2.5757575757575752 3.2828282828282833,-2.5757575757575752 3.383838383838384,-2.5757575757575752 3.4848484848484866,-2.5757575757575752 3.5858585858585874,-2.5757575757575752 3.6868686868686877,-2.5757575757575752 3.7878787878787885,-2.5757575757575752 3.8888888888888893,-2.5757575757575752 3.989898989898992,-2.5757575757575752" data-type="line" data-label="" points="154.42424242424255,984 163.95959595959607,974.4646464646464 173.4949494949496,964.9292929292928 183.03030303030312,955.3939393939394 192.5656565656567,945.8585858585858 202.10101010101022,936.3232323232323 211.63636363636374,926.7878787878788 221.17171717171726,917.2525252525252 230.70707070707084,907.7171717171718 240.2424242424243,898.1818181818181 249.77777777777783,888.6464646464647 259.3131313131314,879.1111111111111 268.84848484848493,869.5757575757575 278.38383838383845,860.0404040404039 287.91919191919203,850.5050505050505 297.4545454545455,840.969696969697 306.9898989898991,831.4343434343434 316.5252525252526,821.8989898989898 326.0606060606061,812.3636363636363 335.59595959595964,802.8282828282828 345.13131313131316,793.2929292929292 354.6666666666667,783.7575757575758 364.2020202020202,774.2222222222222 373.7373737373738,764.6868686868687 383.2727272727273,755.1515151515151 392.80808080808083,755.1515151515151 402.34343434343435,755.1515151515151 411.8787878787879,755.1515151515151 421.4141414141414,755.1515151515151 430.949494949495,755.1515151515151 440.4848484848485,755.1515151515151 450.0202020202021,755.1515151515151 459.55555555555554,755.1515151515151 469.09090909090907,755.1515151515151 478.62626262626264,755.1515151515151 488.16161616161617,755.1515151515151 497.69696969696975,755.1515151515151 507.2323232323232,755.1515151515151 516.7676767676768,755.1515151515151 526.3030303030303,755.1515151515151 535.8383838383838,755.1515151515151 545.3737373737374,755.1515151515151 554.9090909090909,755.1515151515151 564.4444444444445,755.1515151515151 573.9797979797979,755.1515151515151 583.5151515151515,755.1515151515151 593.0505050505051,755.1515151515151 602.5858585858585,755.1515151515151 612.1212121212121,755.1515151515151 621.6565656565656,755.1515151515151 631.1919191919192,755.1515151515151 640.7272727272727,755.1515151515151 650.2626262626262,755.1515151515151 659.7979797979798,755.1515151515151 669.3333333333333,755.1515151515151 678.8686868686868,755.1515151515151 688.4040404040404,755.1515151515151 697.9393939393939,755.1515151515151 707.4747474747475,755.1515151515151 717.0101010101009,755.1515151515151 726.5454545454545,755.1515151515151 736.0808080808081,755.1515151515151 745.6161616161615,755.1515151515151 755.1515151515151,755.1515151515151 764.6868686868686,755.1515151515151 774.2222222222222,755.1515151515151 783.7575757575758,755.1515151515151 793.2929292929292,755.1515151515151 802.8282828282828,755.1515151515151 812.3636363636363,755.1515151515151 821.8989898989898,755.1515151515151 831.4343434343433,755.1515151515151 840.969696969697,755.1515151515151 850.5050505050505,755.1515151515151 860.0404040404039,755.1515151515151 869.5757575757575,755.1515151515151 879.111111111111,755.1515151515151 888.6464646464647,755.1515151515151" fill="none" stroke="rgba(0,0,255,0.75)" stroke-width="14.159999999999995"/></g><g><polyline data-points="3.989898989898992,-2.5757575757575752 4.090909090909092,-2.5757575757575752 4.191919191919193,-2.5757575757575752 4.292929292929293,-2.5757575757575752 4.393939393939394,-2.5757575757575752 4.494949494949497,-2.5757575757575752 4.595959595959597,-2.5757575757575752 4.696969696969697,-2.5757575757575752 4.7979797979797985,-2.5757575757575752 4.898989898989901,-2.5757575757575752 5.000000000000002,-2.5757575757575752" data-type="line" data-label="" points="888.6464646464647,755.1515151515151 898.181818181818,755.1515151515151 907.7171717171716,755.1515151515151 917.2525252525251,755.1515151515151 926.7878787878785,755.1515151515151 936.3232323232323,755.1515151515151 945.8585858585857,755.1515151515151 955.3939393939393,755.1515151515151 964.9292929292927,755.1515151515151 974.4646464646464,755.1515151515151 984,755.1515151515151" fill="none" stroke="rgba(255,0,0,0.75)" stroke-width="14.159999999999995"/></g><g><polyline data-points="1.9696969696969702,-5.000000000000001 2.070707070707072,-4.898989898989899 2.1717171717171726,-4.7979797979797985 2.2727272727272734,-4.696969696969697 2.373737373737375,-4.595959595959596 2.4747474747474754,-4.494949494949496 2.575757575757577,-4.393939393939394 2.676767676767678,-4.292929292929293 2.7777777777777786,-4.191919191919193 2.87878787878788,-4.090909090909091 2.9797979797979806,-3.98989898989899 3.080808080808082,-3.8888888888888884 3.181818181818183,-3.7878787878787876 3.2828282828282833,-3.6868686868686864 3.383838383838384,-3.5858585858585856 3.4848484848484866,-3.484848484848485 3.4848484848484866,-3.383838383838383 3.4848484848484866,-3.2828282828282824 3.4848484848484866,-3.1818181818181817" data-type="line" data-label="" points="697.9393939393939,984 707.4747474747475,974.4646464646464 717.0101010101009,964.9292929292928 726.5454545454545,955.3939393939394 736.0808080808081,945.8585858585858 745.6161616161615,936.3232323232323 755.1515151515151,926.7878787878788 764.6868686868686,917.2525252525252 774.2222222222222,907.7171717171718 783.7575757575758,898.1818181818181 793.2929292929292,888.6464646464647 802.8282828282828,879.1111111111111 812.3636363636363,869.5757575757575 821.8989898989898,860.0404040404039 831.4343434343433,850.5050505050505 840.969696969697,840.969696969697 840.969696969697,831.4343434343434 840.969696969697,821.8989898989898 840.969696969697,812.3636363636363" fill="none" stroke="rgba(0,0,255,0.75)" stroke-width="14.159999999999995"/></g><g><polyline data-points="3.4848484848484866,-3.1818181818181817 3.4848484848484866,-3.0808080808080804 3.4848484848484866,-2.9797979797979792 3.4848484848484866,-2.8787878787878785 3.4848484848484866,-2.7777777777777777 3.4848484848484866,-2.6767676767676765 3.4848484848484866,-2.5757575757575752 3.5858585858585874,-2.474747474747474 3.5858585858585874,-2.3737373737373733 3.6868686868686877,-2.2727272727272725 3.7878787878787885,-2.1717171717171713 3.8888888888888893,-2.07070707070707 3.989898989898992,-1.9696969696969693 4.090909090909092,-1.8686868686868683 4.191919191919193,-1.7676767676767675 4.292929292929293,-1.6666666666666665 4.393939393939394,-1.5656565656565653 4.494949494949497,-1.4646464646464643 4.595959595959597,-1.363636363636363 4.696969696969697,-1.2626262626262625 4.7979797979797985,-1.1616161616161613 4.898989898989901,-1.0606060606060603 5.000000000000002,-0.9595959595959596 5.000000000000002,-0.8585858585858579 5.000000000000002,-0.7575757575757572 5.000000000000002,-0.6565656565656557 5.000000000000002,-0.555555555555555 5.000000000000002,-0.4545454545454544 5.000000000000002,-0.35353535353535287 5.000000000000002,-0.2525252525252522 5.000000000000002,-0.15151515151515066 5.000000000000002,-0.05050505050505001 5.000000000000002,0.050505050505051545 5.000000000000002,0.1515151515151522 5.000000000000002,0.2525252525252529 5.000000000000002,0.3535353535353544 5.000000000000002,0.4545454545454551 5.000000000000002,0.5555555555555567 5.000000000000002,0.6565656565656574 5.000000000000002,0.7575757575757579 5.000000000000002,0.8585858585858596 5.000000000000002,0.9595959595959602 5.000000000000002,1.0606060606060617 5.000000000000002,1.1616161616161622 5.000000000000002,1.262626262626263 5.000000000000002,1.3636363636363644 5.000000000000002,1.4646464646464652 5.000000000000002,1.5656565656565666 5.000000000000002,1.6666666666666674 5.000000000000002,1.767676767676768 5.000000000000002,1.8686868686868696 5.000000000000002,1.9696969696969702 5.000000000000002,2.070707070707072 5.000000000000002,2.1717171717171726 5.000000000000002,2.2727272727272734 5.000000000000002,2.373737373737375 5.000000000000002,2.4747474747474754 5.000000000000002,2.575757575757577 5.000000000000002,2.676767676767678 5.000000000000002,2.7777777777777786 5.000000000000002,2.87878787878788 5.000000000000002,2.9797979797979806 5.000000000000002,3.080808080808082 5.000000000000002,3.181818181818183 5.000000000000002,3.2828282828282833 5.000000000000002,3.383838383838384 5.000000000000002,3.4848484848484866 5.000000000000002,3.5858585858585874 5.000000000000002,3.6868686868686877 5.000000000000002,3.7878787878787885 5.000000000000002,3.8888888888888893 5.000000000000002,3.989898989898992 5.000000000000002,4.090909090909092 5.000000000000002,4.191919191919193 5.000000000000002,4.292929292929293 5.000000000000002,4.393939393939394 5.000000000000002,4.494949494949497 5.000000000000002,4.595959595959597 5.000000000000002,4.696969696969697 5.000000000000002,4.7979797979797985 5.000000000000002,4.898989898989901 5.000000000000002,5.000000000000002" data-type="line" data-label="" points="840.969696969697,812.3636363636363 840.969696969697,802.8282828282828 840.969696969697,793.2929292929292 840.969696969697,783.7575757575758 840.969696969697,774.2222222222222 840.969696969697,764.6868686868687 840.969696969697,755.1515151515151 850.5050505050505,745.6161616161615 850.5050505050505,736.0808080808081 860.0404040404039,726.5454545454545 869.5757575757575,717.010101010101 879.111111111111,707.4747474747475 888.6464646464647,697.939393939394 898.181818181818,688.4040404040404 907.7171717171716,678.8686868686868 917.2525252525251,669.3333333333334 926.7878787878785,659.7979797979798 936.3232323232323,650.2626262626263 945.8585858585857,640.7272727272727 955.3939393939393,631.1919191919193 964.9292929292927,621.6565656565657 974.4646464646464,612.1212121212121 984,602.5858585858587 984,593.0505050505051 984,583.5151515151516 984,573.979797979798 984,564.4444444444445 984,554.909090909091 984,545.3737373737374 984,535.838383838384 984,526.3030303030304 984,516.7676767676768 984,507.23232323232327 984,497.69696969696975 984,488.1616161616163 984,478.6262626262627 984,469.0909090909092 984,459.5555555555556 984,450.0202020202021 984,440.4848484848486 984,430.94949494949503 984,421.4141414141415 984,411.87878787878793 984,402.3434343434344 984,392.80808080808094 984,383.27272727272737 984,373.73737373737384 984,364.2020202020203 984,354.66666666666674 984,345.1313131313133 984,335.5959595959597 984,326.06060606060623 984,316.5252525252526 984,306.9898989898991 984,297.4545454545456 984,287.91919191919203 984,278.38383838383857 984,268.84848484848493 984,259.3131313131314 984,249.77777777777794 984,240.24242424242436 984,230.70707070707084 984,221.17171717171726 984,211.63636363636374 984,202.10101010101027 984,192.56565656565675 984,183.03030303030312 984,173.4949494949496 984,163.95959595959613 984,154.4242424242426 984,144.88888888888908 984,135.35353535353545 984,125.81818181818198 984,116.28282828282846 984,106.747474747475 984,97.21212121212153 984,87.67676767676778 984,78.14141414141432 984,68.60606060606085 984,59.07070707070733 984,49.53535353535369 984,40.000000000000114" fill="none" stroke="rgba(255,0,0,0.75)" stroke-width="14.159999999999995"/></g><g><polyline data-points="2.575757575757577,5.000000000000002 2.4747474747474754,4.898989898989901 2.373737373737375,4.7979797979797985 2.2727272727272734,4.696969696969697 2.1717171717171726,4.595959595959597 2.070707070707072,4.494949494949497 1.9696969696969702,4.393939393939394 1.8686868686868696,4.292929292929293 1.767676767676768,4.191919191919193 1.6666666666666674,4.090909090909092 1.5656565656565666,3.989898989898992 1.4646464646464652,3.8888888888888893 1.3636363636363644,3.7878787878787885 1.262626262626263,3.6868686868686877 1.1616161616161622,3.5858585858585874 1.0606060606060617,3.4848484848484866 0.9595959595959602,3.383838383838384 0.8585858585858596,3.2828282828282833 0.7575757575757579,3.181818181818183 0.6565656565656574,3.080808080808082 0.5555555555555567,2.9797979797979806 0.4545454545454551,2.87878787878788 0.3535353535353544,2.7777777777777786 0.2525252525252529,2.676767676767678 0.1515151515151522,2.575757575757577 0.050505050505051545,2.4747474747474754 -0.05050505050505001,2.373737373737375 -0.15151515151515066,2.2727272727272734 -0.2525252525252522,2.1717171717171726 -0.35353535353535287,2.070707070707072 -0.4545454545454544,1.9696969696969702 -0.555555555555555,1.8686868686868696 -0.6565656565656557,1.767676767676768 -0.7575757575757572,1.6666666666666674 -0.8585858585858579,1.5656565656565666 -0.9595959595959596,1.4646464646464652 -1.0606060606060603,1.3636363636363644 -1.1616161616161613,1.262626262626263 -1.2626262626262625,1.1616161616161622 -1.363636363636363,1.0606060606060617 -1.4646464646464643,0.9595959595959602 -1.5656565656565653,0.8585858585858596 -1.6666666666666665,0.7575757575757579 -1.7676767676767675,0.6565656565656574 -1.8686868686868683,0.5555555555555567 -1.9696969696969693,0.4545454545454551 -2.07070707070707,0.3535353535353544 -2.1717171717171713,0.2525252525252529 -2.2727272727272725,0.1515151515151522 -2.3737373737373733,0.050505050505051545 -2.474747474747474,-0.05050505050505001 -2.5757575757575752,-0.15151515151515066 -2.6767676767676765,-0.2525252525252522 -2.7777777777777777,-0.35353535353535287 -2.8787878787878785,-0.4545454545454544 -2.9797979797979792,-0.555555555555555 -3.0808080808080804,-0.6565656565656557 -3.1818181818181817,-0.7575757575757572 -3.2828282828282824,-0.8585858585858579 -3.383838383838383,-0.9595959595959596 -3.484848484848485,-1.0606060606060603 -3.5858585858585856,-1.1616161616161613 -3.6868686868686864,-1.2626262626262625 -3.7878787878787876,-1.363636363636363 -3.8888888888888884,-1.4646464646464643 -3.98989898989899,-1.5656565656565653 -3.98989898989899,-1.6666666666666665 -3.98989898989899,-1.7676767676767675 -3.98989898989899,-1.8686868686868683 -3.98989898989899,-1.9696969696969693 -3.98989898989899,-2.07070707070707 -3.98989898989899,-2.1717171717171713 -3.98989898989899,-2.2727272727272725 -3.98989898989899,-2.3737373737373733 -3.98989898989899,-2.474747474747474 -3.98989898989899,-2.5757575757575752 -3.98989898989899,-2.6767676767676765 -3.98989898989899,-2.7777777777777777 -3.98989898989899,-2.8787878787878785 -3.98989898989899,-2.9797979797979792 -3.98989898989899,-3.0808080808080804" data-type="line" data-label="" points="755.1515151515151,40.000000000000114 745.6161616161615,49.53535353535369 736.0808080808081,59.07070707070733 726.5454545454545,68.60606060606085 717.0101010101009,78.14141414141432 707.4747474747475,87.67676767676778 697.9393939393939,97.21212121212153 688.4040404040404,106.747474747475 678.8686868686868,116.28282828282846 669.3333333333333,125.81818181818198 659.7979797979798,135.35353535353545 650.2626262626262,144.88888888888908 640.7272727272727,154.4242424242426 631.1919191919192,163.95959595959613 621.6565656565656,173.4949494949496 612.1212121212121,183.03030303030312 602.5858585858585,192.56565656565675 593.0505050505051,202.10101010101027 583.5151515151515,211.63636363636374 573.9797979797979,221.17171717171726 564.4444444444445,230.70707070707084 554.9090909090909,240.24242424242436 545.3737373737374,249.77777777777794 535.8383838383838,259.3131313131314 526.3030303030303,268.84848484848493 516.7676767676768,278.38383838383857 507.2323232323232,287.91919191919203 497.69696969696975,297.4545454545456 488.16161616161617,306.9898989898991 478.62626262626264,316.5252525252526 469.09090909090907,326.06060606060623 459.55555555555554,335.5959595959597 450.0202020202021,345.1313131313133 440.4848484848485,354.66666666666674 430.949494949495,364.2020202020203 421.4141414141414,373.73737373737384 411.8787878787879,383.27272727272737 402.34343434343435,392.80808080808094 392.80808080808083,402.3434343434344 383.2727272727273,411.87878787878793 373.7373737373738,421.4141414141415 364.2020202020202,430.94949494949503 354.6666666666667,440.4848484848486 345.13131313131316,450.0202020202021 335.59595959595964,459.5555555555556 326.0606060606061,469.0909090909092 316.5252525252526,478.6262626262627 306.9898989898991,488.1616161616163 297.4545454545455,497.69696969696975 287.91919191919203,507.23232323232327 278.38383838383845,516.7676767676768 268.84848484848493,526.3030303030304 259.3131313131314,535.838383838384 249.77777777777783,545.3737373737374 240.2424242424243,554.909090909091 230.70707070707084,564.4444444444445 221.17171717171726,573.979797979798 211.63636363636374,583.5151515151516 202.10101010101022,593.0505050505051 192.5656565656567,602.5858585858587 183.03030303030312,612.1212121212121 173.4949494949496,621.6565656565657 163.95959595959607,631.1919191919193 154.42424242424255,640.7272727272727 144.88888888888903,650.2626262626263 135.35353535353545,659.7979797979798 135.35353535353545,669.3333333333334 135.35353535353545,678.8686868686868 135.35353535353545,688.4040404040404 135.35353535353545,697.939393939394 135.35353535353545,707.4747474747475 135.35353535353545,717.010101010101 135.35353535353545,726.5454545454545 135.35353535353545,736.0808080808081 135.35353535353545,745.6161616161615 135.35353535353545,755.1515151515151 135.35353535353545,764.6868686868687 135.35353535353545,774.2222222222222 135.35353535353545,783.7575757575758 135.35353535353545,793.2929292929292 135.35353535353545,802.8282828282828" fill="none" stroke="rgba(255,0,0,0.75)" stroke-width="14.159999999999995"/></g><g><polyline data-points="-3.98989898989899,-3.0808080808080804 -4.090909090909091,-3.1818181818181817 -4.191919191919193,-3.1818181818181817 -4.292929292929293,-3.1818181818181817 -4.393939393939394,-3.1818181818181817 -4.494949494949496,-3.1818181818181817 -4.595959595959596,-3.1818181818181817 -4.696969696969697,-3.1818181818181817 -4.7979797979797985,-3.1818181818181817 -4.898989898989899,-3.1818181818181817 -5.000000000000001,-3.1818181818181817" data-type="line" data-label="" points="135.35353535353545,802.8282828282828 125.81818181818193,812.3636363636363 116.28282828282829,812.3636363636363 106.74747474747483,812.3636363636363 97.21212121212136,812.3636363636363 87.67676767676772,812.3636363636363 78.14141414141426,812.3636363636363 68.60606060606068,812.3636363636363 59.07070707070716,812.3636363636363 49.53535353535369,812.3636363636363 40.00000000000006,812.3636363636363" fill="none" stroke="rgba(0,0,255,0.75)" stroke-width="14.159999999999995"/></g><g><polyline data-points="4.393939393939394,5.000000000000002 4.292929292929293,5.000000000000002 4.191919191919193,5.000000000000002 4.090909090909092,5.000000000000002 3.989898989898992,5.000000000000002 3.8888888888888893,5.000000000000002 3.7878787878787885,5.000000000000002 3.6868686868686877,5.000000000000002 3.5858585858585874,5.000000000000002 3.4848484848484866,4.898989898989901 3.383838383838384,4.7979797979797985 3.2828282828282833,4.696969696969697 3.181818181818183,4.595959595959597 3.080808080808082,4.494949494949497 2.9797979797979806,4.393939393939394 2.87878787878788,4.292929292929293 2.7777777777777786,4.191919191919193 2.676767676767678,4.090909090909092 2.575757575757577,3.989898989898992" data-type="line" data-label="" points="926.7878787878785,40.000000000000114 917.2525252525251,40.000000000000114 907.7171717171716,40.000000000000114 898.181818181818,40.000000000000114 888.6464646464647,40.000000000000114 879.111111111111,40.000000000000114 869.5757575757575,40.000000000000114 860.0404040404039,40.000000000000114 850.5050505050505,40.000000000000114 840.969696969697,49.53535353535369 831.4343434343433,59.07070707070733 821.8989898989898,68.60606060606085 812.3636363636363,78.14141414141432 802.8282828282828,87.67676767676778 793.2929292929292,97.21212121212153 783.7575757575758,106.747474747475 774.2222222222222,116.28282828282846 764.6868686868686,125.81818181818198 755.1515151515151,135.35353535353545" fill="none" stroke="rgba(255,0,0,0.75)" stroke-width="14.159999999999995"/></g><g><polyline data-points="2.575757575757577,3.989898989898992 2.4747474747474754,4.090909090909092 2.373737373737375,4.191919191919193 2.2727272727272734,4.292929292929293 2.1717171717171726,4.393939393939394 2.070707070707072,4.494949494949497 1.9696969696969702,4.595959595959597 1.8686868686868696,4.696969696969697 1.767676767676768,4.7979797979797985 1.6666666666666674,4.7979797979797985 1.5656565656565666,4.7979797979797985 1.4646464646464652,4.7979797979797985 1.3636363636363644,4.7979797979797985 1.262626262626263,4.7979797979797985 1.1616161616161622,4.7979797979797985 1.0606060606060617,4.7979797979797985 0.9595959595959602,4.7979797979797985 0.8585858585858596,4.7979797979797985 0.7575757575757579,4.7979797979797985 0.6565656565656574,4.7979797979797985 0.5555555555555567,4.7979797979797985 0.4545454545454551,4.7979797979797985 0.3535353535353544,4.7979797979797985 0.2525252525252529,4.7979797979797985 0.1515151515151522,4.7979797979797985 0.050505050505051545,4.7979797979797985 -0.05050505050505001,4.7979797979797985 -0.15151515151515066,4.7979797979797985 -0.2525252525252522,4.898989898989901 -0.35353535353535287,5.000000000000002 -0.4545454545454544,5.000000000000002" data-type="line" data-label="" points="755.1515151515151,135.35353535353545 745.6161616161615,125.81818181818198 736.0808080808081,116.28282828282846 726.5454545454545,106.747474747475 717.0101010101009,97.21212121212153 707.4747474747475,87.67676767676778 697.9393939393939,78.14141414141432 688.4040404040404,68.60606060606085 678.8686868686868,59.07070707070733 669.3333333333333,59.07070707070733 659.7979797979798,59.07070707070733 650.2626262626262,59.07070707070733 640.7272727272727,59.07070707070733 631.1919191919192,59.07070707070733 621.6565656565656,59.07070707070733 612.1212121212121,59.07070707070733 602.5858585858585,59.07070707070733 593.0505050505051,59.07070707070733 583.5151515151515,59.07070707070733 573.9797979797979,59.07070707070733 564.4444444444445,59.07070707070733 554.9090909090909,59.07070707070733 545.3737373737374,59.07070707070733 535.8383838383838,59.07070707070733 526.3030303030303,59.07070707070733 516.7676767676768,59.07070707070733 507.2323232323232,59.07070707070733 497.69696969696975,59.07070707070733 488.16161616161617,49.53535353535369 478.62626262626264,40.000000000000114 469.09090909090907,40.000000000000114" fill="none" stroke="rgba(0,0,255,0.75)" stroke-width="14.159999999999995"/></g><g><polyline data-points="-0.8585858585858579,-5.000000000000001 -0.9595959595959596,-4.898989898989899 -1.0606060606060603,-4.7979797979797985 -1.1616161616161613,-4.696969696969697 -1.2626262626262625,-4.595959595959596 -1.363636363636363,-4.494949494949496 -1.4646464646464643,-4.393939393939394 -1.5656565656565653,-4.292929292929293 -1.6666666666666665,-4.191919191919193 -1.7676767676767675,-4.090909090909091 -1.8686868686868683,-3.98989898989899 -1.8686868686868683,-3.8888888888888884" data-type="line" data-label="" points="430.949494949495,984 421.4141414141414,974.4646464646464 411.8787878787879,964.9292929292928 402.34343434343435,955.3939393939394 392.80808080808083,945.8585858585858 383.2727272727273,936.3232323232323 373.7373737373738,926.7878787878788 364.2020202020202,917.2525252525252 354.6666666666667,907.7171717171718 345.13131313131316,898.1818181818181 335.59595959595964,888.6464646464647 335.59595959595964,879.1111111111111" fill="none" stroke="rgba(0,0,255,0.75)" stroke-width="14.159999999999995"/></g><g><polyline data-points="-1.8686868686868683,-3.8888888888888884 -1.8686868686868683,-3.7878787878787876 -1.8686868686868683,-3.6868686868686864 -1.8686868686868683,-3.5858585858585856 -1.8686868686868683,-3.484848484848485 -1.8686868686868683,-3.383838383838383 -1.8686868686868683,-3.2828282828282824 -1.8686868686868683,-3.1818181818181817 -1.8686868686868683,-3.0808080808080804 -1.8686868686868683,-2.9797979797979792 -1.8686868686868683,-2.8787878787878785 -1.8686868686868683,-2.7777777777777777 -1.8686868686868683,-2.6767676767676765 -1.8686868686868683,-2.5757575757575752 -1.8686868686868683,-2.474747474747474 -1.8686868686868683,-2.3737373737373733 -1.8686868686868683,-2.2727272727272725 -1.8686868686868683,-2.1717171717171713 -1.8686868686868683,-2.07070707070707 -1.8686868686868683,-1.9696969696969693 -1.8686868686868683,-1.8686868686868683 -1.8686868686868683,-1.7676767676767675 -1.8686868686868683,-1.6666666666666665 -1.8686868686868683,-1.5656565656565653 -1.8686868686868683,-1.4646464646464643 -1.8686868686868683,-1.363636363636363 -1.8686868686868683,-1.2626262626262625 -1.8686868686868683,-1.1616161616161613 -1.8686868686868683,-1.0606060606060603 -1.8686868686868683,-0.9595959595959596 -1.8686868686868683,-0.8585858585858579 -1.8686868686868683,-0.7575757575757572 -1.8686868686868683,-0.6565656565656557 -1.8686868686868683,-0.555555555555555 -1.8686868686868683,-0.4545454545454544 -1.8686868686868683,-0.35353535353535287 -1.8686868686868683,-0.2525252525252522" data-type="line" data-label="" points="335.59595959595964,879.1111111111111 335.59595959595964,869.5757575757575 335.59595959595964,860.0404040404039 335.59595959595964,850.5050505050505 335.59595959595964,840.969696969697 335.59595959595964,831.4343434343434 335.59595959595964,821.8989898989898 335.59595959595964,812.3636363636363 335.59595959595964,802.8282828282828 335.59595959595964,793.2929292929292 335.59595959595964,783.7575757575758 335.59595959595964,774.2222222222222 335.59595959595964,764.6868686868687 335.59595959595964,755.1515151515151 335.59595959595964,745.6161616161615 335.59595959595964,736.0808080808081 335.59595959595964,726.5454545454545 335.59595959595964,717.010101010101 335.59595959595964,707.4747474747475 335.59595959595964,697.939393939394 335.59595959595964,688.4040404040404 335.59595959595964,678.8686868686868 335.59595959595964,669.3333333333334 335.59595959595964,659.7979797979798 335.59595959595964,650.2626262626263 335.59595959595964,640.7272727272727 335.59595959595964,631.1919191919193 335.59595959595964,621.6565656565657 335.59595959595964,612.1212121212121 335.59595959595964,602.5858585858587 335.59595959595964,593.0505050505051 335.59595959595964,583.5151515151516 335.59595959595964,573.979797979798 335.59595959595964,564.4444444444445 335.59595959595964,554.909090909091 335.59595959595964,545.3737373737374 335.59595959595964,535.838383838384" fill="none" stroke="rgba(255,0,0,0.75)" stroke-width="14.159999999999995"/></g><g><polyline data-points="-1.8686868686868683,-0.2525252525252522 -1.8686868686868683,-0.15151515151515066 -1.8686868686868683,-0.05050505050505001 -1.8686868686868683,0.050505050505051545 -1.8686868686868683,0.1515151515151522 -1.8686868686868683,0.2525252525252529 -1.8686868686868683,0.3535353535353544 -1.8686868686868683,0.4545454545454551 -1.8686868686868683,0.5555555555555567 -1.8686868686868683,0.6565656565656574 -1.8686868686868683,0.7575757575757579 -1.8686868686868683,0.8585858585858596 -1.8686868686868683,0.9595959595959602 -1.8686868686868683,1.0606060606060617 -1.8686868686868683,1.1616161616161622 -1.8686868686868683,1.262626262626263 -1.8686868686868683,1.3636363636363644 -1.8686868686868683,1.4646464646464652 -1.8686868686868683,1.5656565656565666 -1.8686868686868683,1.6666666666666674 -1.8686868686868683,1.767676767676768 -1.8686868686868683,1.8686868686868696 -1.8686868686868683,1.9696969696969702 -1.8686868686868683,2.070707070707072 -1.8686868686868683,2.1717171717171726 -1.8686868686868683,2.2727272727272734 -1.8686868686868683,2.373737373737375 -1.8686868686868683,2.4747474747474754 -1.8686868686868683,2.575757575757577 -1.8686868686868683,2.676767676767678 -1.8686868686868683,2.7777777777777786 -1.8686868686868683,2.87878787878788 -1.8686868686868683,2.9797979797979806 -1.8686868686868683,3.080808080808082 -1.8686868686868683,3.181818181818183 -1.8686868686868683,3.2828282828282833 -1.8686868686868683,3.383838383838384 -1.8686868686868683,3.4848484848484866 -1.8686868686868683,3.5858585858585874 -1.8686868686868683,3.6868686868686877 -1.8686868686868683,3.7878787878787885 -1.8686868686868683,3.8888888888888893 -1.8686868686868683,3.989898989898992 -1.8686868686868683,4.090909090909092 -1.8686868686868683,4.191919191919193 -1.8686868686868683,4.292929292929293 -1.8686868686868683,4.393939393939394 -1.8686868686868683,4.494949494949497 -1.9696969696969693,4.595959595959597 -1.8686868686868683,4.696969696969697 -1.8686868686868683,4.7979797979797985 -1.8686868686868683,4.898989898989901 -1.8686868686868683,5.000000000000002" data-type="line" data-label="" points="335.59595959595964,535.838383838384 335.59595959595964,526.3030303030304 335.59595959595964,516.7676767676768 335.59595959595964,507.23232323232327 335.59595959595964,497.69696969696975 335.59595959595964,488.1616161616163 335.59595959595964,478.6262626262627 335.59595959595964,469.0909090909092 335.59595959595964,459.5555555555556 335.59595959595964,450.0202020202021 335.59595959595964,440.4848484848486 335.59595959595964,430.94949494949503 335.59595959595964,421.4141414141415 335.59595959595964,411.87878787878793 335.59595959595964,402.3434343434344 335.59595959595964,392.80808080808094 335.59595959595964,383.27272727272737 335.59595959595964,373.73737373737384 335.59595959595964,364.2020202020203 335.59595959595964,354.66666666666674 335.59595959595964,345.1313131313133 335.59595959595964,335.5959595959597 335.59595959595964,326.06060606060623 335.59595959595964,316.5252525252526 335.59595959595964,306.9898989898991 335.59595959595964,297.4545454545456 335.59595959595964,287.91919191919203 335.59595959595964,278.38383838383857 335.59595959595964,268.84848484848493 335.59595959595964,259.3131313131314 335.59595959595964,249.77777777777794 335.59595959595964,240.24242424242436 335.59595959595964,230.70707070707084 335.59595959595964,221.17171717171726 335.59595959595964,211.63636363636374 335.59595959595964,202.10101010101027 335.59595959595964,192.56565656565675 335.59595959595964,183.03030303030312 335.59595959595964,173.4949494949496 335.59595959595964,163.95959595959613 335.59595959595964,154.4242424242426 335.59595959595964,144.88888888888908 335.59595959595964,135.35353535353545 335.59595959595964,125.81818181818198 335.59595959595964,116.28282828282846 335.59595959595964,106.747474747475 335.59595959595964,97.21212121212153 335.59595959595964,87.67676767676778 326.0606060606061,78.14141414141432 335.59595959595964,68.60606060606085 335.59595959595964,59.07070707070733 335.59595959595964,49.53535353535369 335.59595959595964,40.000000000000114" fill="none" stroke="rgba(0,0,255,0.75)" stroke-width="14.159999999999995"/></g><g><polyline data-points="-5.000000000000001,0.5555555555555567 -4.898989898989899,0.4545454545454551 -4.7979797979797985,0.3535353535353544 -4.696969696969697,0.3535353535353544 -4.595959595959596,0.3535353535353544 -4.494949494949496,0.3535353535353544 -4.393939393939394,0.3535353535353544 -4.292929292929293,0.3535353535353544 -4.191919191919193,0.3535353535353544 -4.090909090909091,0.3535353535353544 -3.98989898989899,0.3535353535353544 -3.8888888888888884,0.3535353535353544 -3.7878787878787876,0.3535353535353544 -3.6868686868686864,0.3535353535353544 -3.5858585858585856,0.3535353535353544 -3.484848484848485,0.3535353535353544 -3.383838383838383,0.3535353535353544 -3.2828282828282824,0.3535353535353544 -3.1818181818181817,0.3535353535353544 -3.0808080808080804,0.3535353535353544 -2.9797979797979792,0.2525252525252529 -2.8787878787878785,0.1515151515151522 -2.7777777777777777,0.050505050505051545 -2.6767676767676765,-0.05050505050505001 -2.5757575757575752,-0.15151515151515066 -2.474747474747474,-0.2525252525252522 -2.3737373737373733,-0.35353535353535287 -2.2727272727272725,-0.4545454545454544 -2.1717171717171713,-0.555555555555555 -2.07070707070707,-0.6565656565656557 -1.9696969696969693,-0.6565656565656557 -1.8686868686868683,-0.7575757575757572 -1.7676767676767675,-0.6565656565656557 -1.6666666666666665,-0.6565656565656557 -1.5656565656565653,-0.555555555555555 -1.4646464646464643,-0.4545454545454544 -1.363636363636363,-0.35353535353535287 -1.2626262626262625,-0.2525252525252522 -1.1616161616161613,-0.15151515151515066 -1.0606060606060603,-0.05050505050505001 -0.9595959595959596,0.050505050505051545 -0.8585858585858579,0.1515151515151522 -0.7575757575757572,0.2525252525252529 -0.6565656565656557,0.3535353535353544 -0.555555555555555,0.3535353535353544 -0.4545454545454544,0.3535353535353544 -0.35353535353535287,0.3535353535353544 -0.2525252525252522,0.3535353535353544 -0.15151515151515066,0.3535353535353544 -0.05050505050505001,0.3535353535353544 0.050505050505051545,0.3535353535353544 0.1515151515151522,0.3535353535353544 0.2525252525252529,0.3535353535353544 0.3535353535353544,0.3535353535353544 0.4545454545454551,0.3535353535353544 0.5555555555555567,0.3535353535353544 0.6565656565656574,0.3535353535353544 0.7575757575757579,0.3535353535353544 0.8585858585858596,0.3535353535353544 0.9595959595959602,0.3535353535353544 1.0606060606060617,0.3535353535353544 1.1616161616161622,0.3535353535353544 1.262626262626263,0.3535353535353544 1.3636363636363644,0.3535353535353544 1.4646464646464652,0.3535353535353544 1.5656565656565666,0.3535353535353544 1.6666666666666674,0.3535353535353544 1.767676767676768,0.3535353535353544 1.8686868686868696,0.3535353535353544 1.9696969696969702,0.3535353535353544 2.070707070707072,0.3535353535353544 2.1717171717171726,0.3535353535353544 2.2727272727272734,0.3535353535353544 2.373737373737375,0.3535353535353544 2.4747474747474754,0.3535353535353544 2.575757575757577,0.3535353535353544 2.676767676767678,0.3535353535353544 2.7777777777777786,0.3535353535353544 2.87878787878788,0.3535353535353544 2.9797979797979806,0.3535353535353544 3.080808080808082,0.3535353535353544 3.181818181818183,0.3535353535353544 3.2828282828282833,0.3535353535353544 3.383838383838384,0.3535353535353544 3.4848484848484866,0.3535353535353544 3.5858585858585874,0.3535353535353544 3.6868686868686877,0.3535353535353544 3.7878787878787885,0.3535353535353544 3.8888888888888893,0.3535353535353544 3.989898989898992,0.3535353535353544 4.090909090909092,0.3535353535353544 4.191919191919193,0.3535353535353544 4.292929292929293,0.3535353535353544 4.393939393939394,0.3535353535353544 4.494949494949497,0.3535353535353544 4.595959595959597,0.3535353535353544 4.696969696969697,0.3535353535353544 4.7979797979797985,0.3535353535353544 4.898989898989901,0.3535353535353544 5.000000000000002,0.3535353535353544" data-type="line" data-label="" points="40.00000000000006,459.5555555555556 49.53535353535369,469.0909090909092 59.07070707070716,478.6262626262627 68.60606060606068,478.6262626262627 78.14141414141426,478.6262626262627 87.67676767676772,478.6262626262627 97.21212121212136,478.6262626262627 106.74747474747483,478.6262626262627 116.28282828282829,478.6262626262627 125.81818181818193,478.6262626262627 135.35353535353545,478.6262626262627 144.88888888888903,478.6262626262627 154.42424242424255,478.6262626262627 163.95959595959607,478.6262626262627 173.4949494949496,478.6262626262627 183.03030303030312,478.6262626262627 192.5656565656567,478.6262626262627 202.10101010101022,478.6262626262627 211.63636363636374,478.6262626262627 221.17171717171726,478.6262626262627 230.70707070707084,488.1616161616163 240.2424242424243,497.69696969696975 249.77777777777783,507.23232323232327 259.3131313131314,516.7676767676768 268.84848484848493,526.3030303030304 278.38383838383845,535.838383838384 287.91919191919203,545.3737373737374 297.4545454545455,554.909090909091 306.9898989898991,564.4444444444445 316.5252525252526,573.979797979798 326.0606060606061,573.979797979798 335.59595959595964,583.5151515151516 345.13131313131316,573.979797979798 354.6666666666667,573.979797979798 364.2020202020202,564.4444444444445 373.7373737373738,554.909090909091 383.2727272727273,545.3737373737374 392.80808080808083,535.838383838384 402.34343434343435,526.3030303030304 411.8787878787879,516.7676767676768 421.4141414141414,507.23232323232327 430.949494949495,497.69696969696975 440.4848484848485,488.1616161616163 450.0202020202021,478.6262626262627 459.55555555555554,478.6262626262627 469.09090909090907,478.6262626262627 478.62626262626264,478.6262626262627 488.16161616161617,478.6262626262627 497.69696969696975,478.6262626262627 507.2323232323232,478.6262626262627 516.7676767676768,478.6262626262627 526.3030303030303,478.6262626262627 535.8383838383838,478.6262626262627 545.3737373737374,478.6262626262627 554.9090909090909,478.6262626262627 564.4444444444445,478.6262626262627 573.9797979797979,478.6262626262627 583.5151515151515,478.6262626262627 593.0505050505051,478.6262626262627 602.5858585858585,478.6262626262627 612.1212121212121,478.6262626262627 621.6565656565656,478.6262626262627 631.1919191919192,478.6262626262627 640.7272727272727,478.6262626262627 650.2626262626262,478.6262626262627 659.7979797979798,478.6262626262627 669.3333333333333,478.6262626262627 678.8686868686868,478.6262626262627 688.4040404040404,478.6262626262627 697.9393939393939,478.6262626262627 707.4747474747475,478.6262626262627 717.0101010101009,478.6262626262627 726.5454545454545,478.6262626262627 736.0808080808081,478.6262626262627 745.6161616161615,478.6262626262627 755.1515151515151,478.6262626262627 764.6868686868686,478.6262626262627 774.2222222222222,478.6262626262627 783.7575757575758,478.6262626262627 793.2929292929292,478.6262626262627 802.8282828282828,478.6262626262627 812.3636363636363,478.6262626262627 821.8989898989898,478.6262626262627 831.4343434343433,478.6262626262627 840.969696969697,478.6262626262627 850.5050505050505,478.6262626262627 860.0404040404039,478.6262626262627 869.5757575757575,478.6262626262627 879.111111111111,478.6262626262627 888.6464646464647,478.6262626262627 898.181818181818,478.6262626262627 907.7171717171716,478.6262626262627 917.2525252525251,478.6262626262627 926.7878787878785,478.6262626262627 936.3232323232323,478.6262626262627 945.8585858585857,478.6262626262627 955.3939393939393,478.6262626262627 964.9292929292927,478.6262626262627 974.4646464646464,478.6262626262627 984,478.6262626262627" fill="none" stroke="rgba(0,0,255,0.75)" stroke-width="14.159999999999995"/></g><g><polyline data-points="-5.000000000000001,-4.696969696969697 -4.898989898989899,-4.696969696969697 -4.7979797979797985,-4.696969696969697 -4.696969696969697,-4.696969696969697 -4.595959595959596,-4.696969696969697 -4.494949494949496,-4.696969696969697 -4.393939393939394,-4.696969696969697 -4.292929292929293,-4.696969696969697 -4.191919191919193,-4.595959595959596 -4.090909090909091,-4.494949494949496 -3.98989898989899,-4.393939393939394 -3.8888888888888884,-4.292929292929293 -3.7878787878787876,-4.191919191919193 -3.6868686868686864,-4.090909090909091 -3.5858585858585856,-3.98989898989899" data-type="line" data-label="" points="40.00000000000006,955.3939393939394 49.53535353535369,955.3939393939394 59.07070707070716,955.3939393939394 68.60606060606068,955.3939393939394 78.14141414141426,955.3939393939394 87.67676767676772,955.3939393939394 97.21212121212136,955.3939393939394 106.74747474747483,955.3939393939394 116.28282828282829,945.8585858585858 125.81818181818193,936.3232323232323 135.35353535353545,926.7878787878788 144.88888888888903,917.2525252525252 154.42424242424255,907.7171717171718 163.95959595959607,898.1818181818181 173.4949494949496,888.6464646464647" fill="none" stroke="rgba(0,0,255,0.75)" stroke-width="14.159999999999995"/></g><g><polyline data-points="-3.5858585858585856,-3.98989898989899 -3.484848484848485,-4.090909090909091 -3.383838383838383,-4.191919191919193 -3.2828282828282824,-4.292929292929293 -3.1818181818181817,-4.393939393939394 -3.0808080808080804,-4.393939393939394 -2.9797979797979792,-4.393939393939394 -2.8787878787878785,-4.393939393939394 -2.7777777777777777,-4.393939393939394 -2.6767676767676765,-4.393939393939394 -2.5757575757575752,-4.393939393939394 -2.474747474747474,-4.393939393939394 -2.3737373737373733,-4.393939393939394 -2.2727272727272725,-4.393939393939394 -2.1717171717171713,-4.393939393939394 -2.07070707070707,-4.393939393939394 -1.9696969696969693,-4.393939393939394 -1.8686868686868683,-4.393939393939394 -1.7676767676767675,-4.393939393939394 -1.6666666666666665,-4.393939393939394 -1.5656565656565653,-4.393939393939394 -1.4646464646464643,-4.393939393939394 -1.363636363636363,-4.393939393939394 -1.2626262626262625,-4.393939393939394 -1.1616161616161613,-4.393939393939394 -1.0606060606060603,-4.393939393939394 -0.9595959595959596,-4.393939393939394 -0.8585858585858579,-4.393939393939394 -0.7575757575757572,-4.393939393939394 -0.6565656565656557,-4.393939393939394 -0.555555555555555,-4.393939393939394 -0.4545454545454544,-4.393939393939394 -0.35353535353535287,-4.393939393939394 -0.2525252525252522,-4.393939393939394 -0.15151515151515066,-4.393939393939394 -0.05050505050505001,-4.393939393939394 0.050505050505051545,-4.393939393939394 0.1515151515151522,-4.393939393939394 0.2525252525252529,-4.393939393939394 0.3535353535353544,-4.393939393939394 0.4545454545454551,-4.292929292929293 0.5555555555555567,-4.191919191919193 0.6565656565656574,-4.090909090909091 0.7575757575757579,-3.98989898989899 0.8585858585858596,-3.8888888888888884 0.9595959595959602,-3.7878787878787876 1.0606060606060617,-3.6868686868686864 1.1616161616161622,-3.5858585858585856 1.262626262626263,-3.5858585858585856 1.3636363636363644,-3.484848484848485 1.4646464646464652,-3.5858585858585856 1.5656565656565666,-3.5858585858585856 1.6666666666666674,-3.6868686868686864 1.767676767676768,-3.7878787878787876 1.8686868686868696,-3.8888888888888884 1.9696969696969702,-3.98989898989899 2.070707070707072,-3.98989898989899 2.1717171717171726,-3.98989898989899 2.2727272727272734,-3.98989898989899 2.373737373737375,-3.98989898989899 2.4747474747474754,-3.98989898989899 2.575757575757577,-3.98989898989899 2.676767676767678,-3.98989898989899 2.7777777777777786,-3.98989898989899 2.87878787878788,-3.98989898989899 2.9797979797979806,-3.98989898989899 3.080808080808082,-3.98989898989899 3.181818181818183,-3.98989898989899 3.2828282828282833,-3.98989898989899 3.383838383838384,-3.98989898989899 3.4848484848484866,-3.98989898989899 3.5858585858585874,-3.98989898989899 3.6868686868686877,-3.98989898989899 3.7878787878787885,-3.98989898989899" data-type="line" data-label="" points="173.4949494949496,888.6464646464647 183.03030303030312,898.1818181818181 192.5656565656567,907.7171717171718 202.10101010101022,917.2525252525252 211.63636363636374,926.7878787878788 221.17171717171726,926.7878787878788 230.70707070707084,926.7878787878788 240.2424242424243,926.7878787878788 249.77777777777783,926.7878787878788 259.3131313131314,926.7878787878788 268.84848484848493,926.7878787878788 278.38383838383845,926.7878787878788 287.91919191919203,926.7878787878788 297.4545454545455,926.7878787878788 306.9898989898991,926.7878787878788 316.5252525252526,926.7878787878788 326.0606060606061,926.7878787878788 335.59595959595964,926.7878787878788 345.13131313131316,926.7878787878788 354.6666666666667,926.7878787878788 364.2020202020202,926.7878787878788 373.7373737373738,926.7878787878788 383.2727272727273,926.7878787878788 392.80808080808083,926.7878787878788 402.34343434343435,926.7878787878788 411.8787878787879,926.7878787878788 421.4141414141414,926.7878787878788 430.949494949495,926.7878787878788 440.4848484848485,926.7878787878788 450.0202020202021,926.7878787878788 459.55555555555554,926.7878787878788 469.09090909090907,926.7878787878788 478.62626262626264,926.7878787878788 488.16161616161617,926.7878787878788 497.69696969696975,926.7878787878788 507.2323232323232,926.7878787878788 516.7676767676768,926.7878787878788 526.3030303030303,926.7878787878788 535.8383838383838,926.7878787878788 545.3737373737374,926.7878787878788 554.9090909090909,917.2525252525252 564.4444444444445,907.7171717171718 573.9797979797979,898.1818181818181 583.5151515151515,888.6464646464647 593.0505050505051,879.1111111111111 602.5858585858585,869.5757575757575 612.1212121212121,860.0404040404039 621.6565656565656,850.5050505050505 631.1919191919192,850.5050505050505 640.7272727272727,840.969696969697 650.2626262626262,850.5050505050505 659.7979797979798,850.5050505050505 669.3333333333333,860.0404040404039 678.8686868686868,869.5757575757575 688.4040404040404,879.1111111111111 697.9393939393939,888.6464646464647 707.4747474747475,888.6464646464647 717.0101010101009,888.6464646464647 726.5454545454545,888.6464646464647 736.0808080808081,888.6464646464647 745.6161616161615,888.6464646464647 755.1515151515151,888.6464646464647 764.6868686868686,888.6464646464647 774.2222222222222,888.6464646464647 783.7575757575758,888.6464646464647 793.2929292929292,888.6464646464647 802.8282828282828,888.6464646464647 812.3636363636363,888.6464646464647 821.8989898989898,888.6464646464647 831.4343434343433,888.6464646464647 840.969696969697,888.6464646464647 850.5050505050505,888.6464646464647 860.0404040404039,888.6464646464647 869.5757575757575,888.6464646464647" fill="none" stroke="rgba(255,0,0,0.75)" stroke-width="14.159999999999995"/></g><g><polyline data-points="3.7878787878787885,-3.98989898989899 3.8888888888888893,-4.090909090909091 3.989898989898992,-4.191919191919193 4.090909090909092,-4.292929292929293 4.191919191919193,-4.393939393939394 4.292929292929293,-4.494949494949496 4.393939393939394,-4.595959595959596 4.494949494949497,-4.696969696969697 4.595959595959597,-4.7979797979797985 4.696969696969697,-4.898989898989899 4.7979797979797985,-4.898989898989899 4.898989898989901,-4.898989898989899 5.000000000000002,-5.000000000000001" data-type="line" data-label="" points="869.5757575757575,888.6464646464647 879.111111111111,898.1818181818181 888.6464646464647,907.7171717171718 898.181818181818,917.2525252525252 907.7171717171716,926.7878787878788 917.2525252525251,936.3232323232323 926.7878787878785,945.8585858585858 936.3232323232323,955.3939393939394 945.8585858585857,964.9292929292928 955.3939393939393,974.4646464646464 964.9292929292927,974.4646464646464 974.4646464646464,974.4646464646464 984,984" fill="none" stroke="rgba(0,0,255,0.75)" stroke-width="14.159999999999995"/></g><g><polyline data-points="-2.9797979797979792,5.000000000000002 -2.8787878787878785,4.898989898989901 -2.7777777777777777,4.898989898989901 -2.6767676767676765,4.898989898989901 -2.5757575757575752,4.898989898989901 -2.474747474747474,4.898989898989901 -2.3737373737373733,4.898989898989901 -2.2727272727272725,4.898989898989901 -2.1717171717171713,4.7979797979797985 -2.07070707070707,4.696969696969697 -1.9696969696969693,4.595959595959597 -1.8686868686868683,4.494949494949497 -1.7676767676767675,4.393939393939394 -1.6666666666666665,4.292929292929293 -1.5656565656565653,4.191919191919193 -1.4646464646464643,4.090909090909092 -1.363636363636363,3.989898989898992 -1.2626262626262625,3.8888888888888893 -1.1616161616161613,3.8888888888888893 -1.0606060606060603,3.8888888888888893 -0.9595959595959596,3.8888888888888893 -0.8585858585858579,3.8888888888888893 -0.7575757575757572,3.8888888888888893 -0.6565656565656557,3.8888888888888893 -0.555555555555555,3.8888888888888893 -0.4545454545454544,3.8888888888888893 -0.35353535353535287,3.8888888888888893 -0.2525252525252522,3.8888888888888893 -0.15151515151515066,3.8888888888888893 -0.05050505050505001,3.8888888888888893 0.050505050505051545,3.8888888888888893 0.1515151515151522,3.8888888888888893 0.2525252525252529,3.8888888888888893 0.3535353535353544,3.8888888888888893 0.4545454545454551,3.8888888888888893 0.5555555555555567,3.8888888888888893 0.6565656565656574,3.8888888888888893" data-type="line" data-label="" points="230.70707070707084,40.000000000000114 240.2424242424243,49.53535353535369 249.77777777777783,49.53535353535369 259.3131313131314,49.53535353535369 268.84848484848493,49.53535353535369 278.38383838383845,49.53535353535369 287.91919191919203,49.53535353535369 297.4545454545455,49.53535353535369 306.9898989898991,59.07070707070733 316.5252525252526,68.60606060606085 326.0606060606061,78.14141414141432 335.59595959595964,87.67676767676778 345.13131313131316,97.21212121212153 354.6666666666667,106.747474747475 364.2020202020202,116.28282828282846 373.7373737373738,125.81818181818198 383.2727272727273,135.35353535353545 392.80808080808083,144.88888888888908 402.34343434343435,144.88888888888908 411.8787878787879,144.88888888888908 421.4141414141414,144.88888888888908 430.949494949495,144.88888888888908 440.4848484848485,144.88888888888908 450.0202020202021,144.88888888888908 459.55555555555554,144.88888888888908 469.09090909090907,144.88888888888908 478.62626262626264,144.88888888888908 488.16161616161617,144.88888888888908 497.69696969696975,144.88888888888908 507.2323232323232,144.88888888888908 516.7676767676768,144.88888888888908 526.3030303030303,144.88888888888908 535.8383838383838,144.88888888888908 545.3737373737374,144.88888888888908 554.9090909090909,144.88888888888908 564.4444444444445,144.88888888888908 573.9797979797979,144.88888888888908" fill="none" stroke="rgba(255,0,0,0.75)" stroke-width="14.159999999999995"/></g><g><polyline data-points="0.6565656565656574,3.8888888888888893 0.7575757575757579,3.8888888888888893 0.8585858585858596,3.8888888888888893 0.9595959595959602,3.8888888888888893 1.0606060606060617,3.8888888888888893 1.1616161616161622,3.8888888888888893 1.262626262626263,3.8888888888888893 1.3636363636363644,3.8888888888888893 1.4646464646464652,3.8888888888888893 1.5656565656565666,3.8888888888888893 1.6666666666666674,3.8888888888888893 1.767676767676768,3.8888888888888893 1.8686868686868696,3.8888888888888893 1.9696969696969702,3.8888888888888893 2.070707070707072,3.8888888888888893 2.1717171717171726,3.7878787878787885 2.2727272727272734,3.6868686868686877 2.373737373737375,3.5858585858585874 2.4747474747474754,3.5858585858585874 2.575757575757577,3.4848484848484866 2.676767676767678,3.5858585858585874 2.7777777777777786,3.5858585858585874 2.87878787878788,3.6868686868686877 2.9797979797979806,3.7878787878787885 2.9797979797979806,3.8888888888888893 3.080808080808082,3.989898989898992 2.9797979797979806,4.090909090909092 2.9797979797979806,4.191919191919193 2.87878787878788,4.292929292929293 2.7777777777777786,4.393939393939394 2.676767676767678,4.494949494949497 2.575757575757577,4.595959595959597 2.4747474747474754,4.696969696969697 2.373737373737375,4.7979797979797985 2.2727272727272734,4.898989898989901 2.1717171717171726,5.000000000000002 2.070707070707072,5.000000000000002 1.9696969696969702,5.000000000000002 1.8686868686868696,5.000000000000002 1.767676767676768,5.000000000000002 1.6666666666666674,5.000000000000002 1.5656565656565666,5.000000000000002 1.4646464646464652,5.000000000000002 1.3636363636363644,5.000000000000002 1.262626262626263,5.000000000000002 1.1616161616161622,5.000000000000002 1.0606060606060617,5.000000000000002 0.9595959595959602,5.000000000000002 0.8585858585858596,5.000000000000002 0.7575757575757579,5.000000000000002" data-type="line" data-label="" points="573.9797979797979,144.88888888888908 583.5151515151515,144.88888888888908 593.0505050505051,144.88888888888908 602.5858585858585,144.88888888888908 612.1212121212121,144.88888888888908 621.6565656565656,144.88888888888908 631.1919191919192,144.88888888888908 640.7272727272727,144.88888888888908 650.2626262626262,144.88888888888908 659.7979797979798,144.88888888888908 669.3333333333333,144.88888888888908 678.8686868686868,144.88888888888908 688.4040404040404,144.88888888888908 697.9393939393939,144.88888888888908 707.4747474747475,144.88888888888908 717.0101010101009,154.4242424242426 726.5454545454545,163.95959595959613 736.0808080808081,173.4949494949496 745.6161616161615,173.4949494949496 755.1515151515151,183.03030303030312 764.6868686868686,173.4949494949496 774.2222222222222,173.4949494949496 783.7575757575758,163.95959595959613 793.2929292929292,154.4242424242426 793.2929292929292,144.88888888888908 802.8282828282828,135.35353535353545 793.2929292929292,125.81818181818198 793.2929292929292,116.28282828282846 783.7575757575758,106.747474747475 774.2222222222222,97.21212121212153 764.6868686868686,87.67676767676778 755.1515151515151,78.14141414141432 745.6161616161615,68.60606060606085 736.0808080808081,59.07070707070733 726.5454545454545,49.53535353535369 717.0101010101009,40.000000000000114 707.4747474747475,40.000000000000114 697.9393939393939,40.000000000000114 688.4040404040404,40.000000000000114 678.8686868686868,40.000000000000114 669.3333333333333,40.000000000000114 659.7979797979798,40.000000000000114 650.2626262626262,40.000000000000114 640.7272727272727,40.000000000000114 631.1919191919192,40.000000000000114 621.6565656565656,40.000000000000114 612.1212121212121,40.000000000000114 602.5858585858585,40.000000000000114 593.0505050505051,40.000000000000114 583.5151515151515,40.000000000000114" fill="none" stroke="rgba(0,0,255,0.75)" stroke-width="14.159999999999995"/></g><g><rect data-type="rect" data-label="" data-x="0" data-y="0" x="40.000000000000114" y="40.000000000000284" width="943.9999999999997" height="943.9999999999998" fill="none" stroke="gray" stroke-width="0.010593220338983056"/></g><g><rect data-type="rect" data-label="" data-x="0" data-y="0" x="40.000000000000114" y="40.000000000000284" width="943.9999999999997" height="943.9999999999998" fill="none" stroke="rgba(15, 23, 42, 0.8)" stroke-width="0.010593220338983056"/></g><circle data-type="circle" data-label="" data-x="1.3636363636363644" data-y="-3.98989898989899" cx="640.7272727272727" cy="888.6464646464647" r="28.791999999999987" fill="rgba(0,0,0,0.3)" stroke="black" stroke-width="0.010593220338983056"/><circle data-type="circle" data-label="" data-x="3.989898989898992" data-y="-2.5757575757575752" cx="888.6464646464647" cy="755.1515151515151" r="28.791999999999987" fill="rgba(0,0,0,0.3)" stroke="black" stroke-width="0.010593220338983056"/><circle data-type="circle" data-label="" data-x="3.4848484848484866" data-y="-3.1818181818181817" cx="840.969696969697" cy="812.3636363636363" r="28.791999999999987" fill="rgba(0,0,0,0.3)" stroke="black" stroke-width="0.010593220338983056"/><circle data-type="circle" data-label="" data-x="-3.98989898989899" data-y="-3.0808080808080804" cx="135.35353535353545" cy="802.8282828282828" r="28.791999999999987" fill="rgba(0,0,0,0.3)" stroke="black" stroke-width="0.010593220338983056"/><circle data-type="circle" data-label="" data-x="2.575757575757577" data-y="3.989898989898992" cx="755.1515151515151" cy="135.35353535353545" r="28.791999999999987" fill="rgba(0,0,0,0.3)" stroke="black" stroke-width="0.010593220338983056"/><circle data-type="circle" data-label="" data-x="-1.8686868686868683" data-y="-3.8888888888888884" cx="335.59595959595964" cy="879.1111111111111" r="28.791999999999987" fill="rgba(0,0,0,0.3)" stroke="black" stroke-width="0.010593220338983056"/><circle data-type="circle" data-label="" data-x="-1.8686868686868683" data-y="-0.2525252525252522" cx="335.59595959595964" cy="535.838383838384" r="28.791999999999987" fill="rgba(0,0,0,0.3)" stroke="black" stroke-width="0.010593220338983056"/><circle data-type="circle" data-label="" data-x="-3.5858585858585856" data-y="-3.98989898989899" cx="173.4949494949496" cy="888.6464646464647" r="28.791999999999987" fill="rgba(0,0,0,0.3)" stroke="black" stroke-width="0.010593220338983056"/><circle data-type="circle" data-label="" data-x="3.7878787878787885" data-y="-3.98989898989899" cx="869.5757575757575" cy="888.6464646464647" r="28.791999999999987" fill="rgba(0,0,0,0.3)" stroke="black" stroke-width="0.010593220338983056"/><circle data-type="circle" data-label="" data-x="0.6565656565656574" data-y="3.8888888888888893" cx="573.9797979797979" cy="144.88888888888908" r="28.791999999999987" fill="rgba(0,0,0,0.3)" stroke="black" stroke-width="0.010593220338983056"/><g id="crosshair" style="display: none"><line id="crosshair-h" y1="0" y2="1024" stroke="#666" stroke-width="0.5"/><line id="crosshair-v" x1="0" x2="1024" stroke="#666" stroke-width="0.5"/><text id="coordinates" font-family="monospace" font-size="12" fill="#666"></text></g><script><![CDATA[
              document.currentScript.parentElement.addEventListener('mousemove', (e) => {
                const svg = e.currentTarget;
                const rect = svg.getBoundingClientRect();
                const x = e.clientX - rect.left;
                const y = e.clientY - rect.top;
                const crosshair = svg.getElementById('crosshair');
                const h = svg.getElementById('crosshair-h');
                const v = svg.getElementById('crosshair-v');
                const coords = svg.getElementById('coordinates');
                
                crosshair.style.display = 'block';
                h.setAttribute('x1', '0');
                h.setAttribute('x2', '1024');
                h.setAttribute('y1', y);
                h.setAttribute('y2', y);
                v.setAttribute('x1', x);
                v.setAttribute('x2', x);
                v.setAttribute('y1', '0');
                v.setAttribute('y2', '1024');

                // Calculate real coordinates using inverse transformation
                const matrix = {"a":94.39999999999996,"c":0,"e":511.99999999999994,"b":0,"d":-94.39999999999996,"f":512.0000000000001};
                // Manually invert and apply the affine transform
                // Since we only use translate and scale, we can directly compute:
                // x' = (x - tx) / sx
                // y' = (y - ty) / sy
                const sx = matrix.a;
                const sy = matrix.d;
                const tx = matrix.e; 
                const ty = matrix.f;
                const realPoint = {
                  x: (x - tx) / sx,
                  y: (y - ty) / sy // Flip y back since we used negative scale
                }
                
                coords.textContent = `(${realPoint.x.toFixed(2)}, ${realPoint.y.toFixed(2)})`;
                coords.setAttribute('x', (x + 5).toString());
                coords.setAttribute('y', (y - 5).toString());
              });
              document.currentScript.parentElement.addEventListener('mouseleave', () => {
                document.currentScript.parentElement.getElementById('crosshair').style.display = 'none';
              });
            ]]></script></svg>