<svg width="1024" height="1024" viewBox="0 0 1024 1024" xmlns="http://www.w3.org/2000/svg"><rect width="100%" height="100%" fill="white"/><g><circle data-type="point" data-label="conn_000" data-x="5" data-y="-4.9" cx="983.9999999999998" cy="974.56" r="28.792" fill="red" stroke="#bda70f" stroke-width="28.792"/></g><g><circle data-type="point" data-label="conn_000" data-x="-5" data-y="2.44" cx="40.000000000000114" cy="281.6640000000002" r="28.792" fill="red" stroke="#bda70f" stroke-width="28.792"/></g><g><circle data-type="point" data-label="conn_001" data-x="5" data-y="-2" cx="983.9999999999998" cy="700.8000000000001" r="28.792" fill="blue" stroke="#0fa0bd" stroke-width="28.792"/></g><g><circle data-type="point" data-label="conn_001" data-x="-5" data-y="-0.44" cx="40.000000000000114" cy="553.5360000000001" r="28.792" fill="blue" stroke="#0fa0bd" stroke-width="28.792"/></g><g><circle data-type="point" data-label="conn_002" data-x="-5" data-y="1.8" cx="40.000000000000114" cy="342.08000000000015" r="28.792" fill="blue" stroke="#bd0f6d" stroke-width="28.792"/></g><g><circle data-type="point" data-label="conn_002" data-x="-5" data-y="-4.0600000000000005" cx="40.000000000000114" cy="895.264" r="28.792" fill="blue" stroke="#bd0f6d" stroke-width="28.792"/></g><g><circle data-type="point" data-label="conn_003" data-x="-2.86" data-y="-5" cx="242.01600000000008" cy="984" r="28.792" fill="red" stroke="#3bbd0f" stroke-width="28.792"/></g><g><circle data-type="point" data-label="conn_003" data-x="-0.12" data-y="5" cx="500.67199999999997" cy="40.000000000000284" r="28.792" fill="red" stroke="#3bbd0f" stroke-width="28.792"/></g><g><polyline data-points="5.000000000000002,-5.000000000000001 4.898989898989901,-4.898989898989899 4.7979797979797985,-4.7979797979797985 4.696969696969697,-4.696969696969697 4.595959595959597,-4.595959595959596 4.494949494949497,-4.494949494949496 4.393939393939394,-4.393939393939394 4.292929292929293,-4.292929292929293 4.191919191919193,-4.191919191919193 4.090909090909092,-4.090909090909091 3.989898989898992,-3.98989898989899 3.8888888888888893,-3.8888888888888884 3.7878787878787885,-3.7878787878787876 3.6868686868686877,-3.6868686868686864 3.5858585858585874,-3.5858585858585856 3.4848484848484866,-3.484848484848485 3.383838383838384,-3.383838383838383 3.2828282828282833,-3.2828282828282824 3.181818181818183,-3.1818181818181817 3.080808080808082,-3.0808080808080804 2.9797979797979806,-2.9797979797979792 2.87878787878788,-2.8787878787878785 2.7777777777777786,-2.7777777777777777 2.676767676767678,-2.6767676767676765 2.575757575757577,-2.5757575757575752 2.4747474747474754,-2.474747474747474 2.373737373737375,-2.3737373737373733 2.2727272727272734,-2.2727272727272725 2.1717171717171726,-2.1717171717171713 2.070707070707072,-2.07070707070707 1.9696969696969702,-1.9696969696969693 1.8686868686868696,-1.8686868686868683 1.767676767676768,-1.7676767676767675 1.6666666666666674,-1.6666666666666665 1.5656565656565666,-1.5656565656565653 1.4646464646464652,-1.4646464646464643 1.3636363636363644,-1.363636363636363 1.262626262626263,-1.2626262626262625 1.1616161616161622,-1.1616161616161613 1.0606060606060617,-1.0606060606060603 0.9595959595959602,-0.9595959595959596 0.8585858585858596,-0.8585858585858579 0.7575757575757579,-0.7575757575757572 0.6565656565656574,-0.6565656565656557 0.5555555555555567,-0.555555555555555 0.4545454545454551,-0.4545454545454544 0.3535353535353544,-0.35353535353535287 0.2525252525252529,-0.2525252525252522 0.1515151515151522,-0.15151515151515066 0.050505050505051545,-0.05050505050505001 -0.05050505050505001,0.050505050505051545 -0.15151515151515066,0.1515151515151522 -0.2525252525252522,0.2525252525252529 -0.35353535353535287,0.3535353535353544 -0.4545454545454544,0.4545454545454551 -0.555555555555555,0.5555555555555567 -0.6565656565656557,0.6565656565656574 -0.7575757575757572,0.7575757575757579 -0.8585858585858579,0.8585858585858596 -0.9595959595959596,0.9595959595959602 -1.0606060606060603,1.0606060606060617 -1.1616161616161613,1.1616161616161622 -1.2626262626262625,1.262626262626263 -1.363636363636363,1.3636363636363644 -1.4646464646464643,1.4646464646464652 -1.5656565656565653,1.5656565656565666 -1.6666666666666665,1.6666666666666674 -1.7676767676767675,1.767676767676768 -1.8686868686868683,1.8686868686868696 -1.9696969696969693,1.9696969696969702 -2.07070707070707,2.070707070707072 -2.1717171717171713,2.1717171717171726 -2.2727272727272725,2.2727272727272734 -2.3737373737373733,2.373737373737375 -2.474747474747474,2.4747474747474754 -2.5757575757575752,2.4747474747474754 -2.6767676767676765,2.4747474747474754 -2.7777777777777777,2.4747474747474754 -2.8787878787878785,2.4747474747474754 -2.9797979797979792,2.4747474747474754 -3.0808080808080804,2.4747474747474754 -3.1818181818181817,2.4747474747474754 -3.2828282828282824,2.4747474747474754 -3.383838383838383,2.4747474747474754 -3.484848484848485,2.4747474747474754 -3.5858585858585856,2.4747474747474754 -3.6868686868686864,2.4747474747474754 -3.7878787878787876,2.4747474747474754 -3.8888888888888884,2.4747474747474754 -3.98989898989899,2.4747474747474754 -4.090909090909091,2.4747474747474754 -4.191919191919193,2.4747474747474754 -4.292929292929293,2.4747474747474754 -4.393939393939394,2.4747474747474754 -4.494949494949496,2.4747474747474754 -4.595959595959596,2.4747474747474754 -4.696969696969697,2.4747474747474754 -4.7979797979797985,2.4747474747474754 -4.898989898989899,2.4747474747474754 -5.000000000000001,2.4747474747474754" data-type="line" data-label="" points="984,984 974.4646464646464,974.4646464646464 964.9292929292927,964.9292929292928 955.3939393939393,955.3939393939394 945.8585858585857,945.8585858585858 936.3232323232323,936.3232323232323 926.7878787878785,926.7878787878788 917.2525252525251,917.2525252525252 907.7171717171716,907.7171717171718 898.181818181818,898.1818181818181 888.6464646464647,888.6464646464647 879.111111111111,879.1111111111111 869.5757575757575,869.5757575757575 860.0404040404039,860.0404040404039 850.5050505050505,850.5050505050505 840.969696969697,840.969696969697 831.4343434343433,831.4343434343434 821.8989898989898,821.8989898989898 812.3636363636363,812.3636363636363 802.8282828282828,802.8282828282828 793.2929292929292,793.2929292929292 783.7575757575758,783.7575757575758 774.2222222222222,774.2222222222222 764.6868686868686,764.6868686868687 755.1515151515151,755.1515151515151 745.6161616161615,745.6161616161615 736.0808080808081,736.0808080808081 726.5454545454545,726.5454545454545 717.0101010101009,717.010101010101 707.4747474747475,707.4747474747475 697.9393939393939,697.939393939394 688.4040404040404,688.4040404040404 678.8686868686868,678.8686868686868 669.3333333333333,669.3333333333334 659.7979797979798,659.7979797979798 650.2626262626262,650.2626262626263 640.7272727272727,640.7272727272727 631.1919191919192,631.1919191919193 621.6565656565656,621.6565656565657 612.1212121212121,612.1212121212121 602.5858585858585,602.5858585858587 593.0505050505051,593.0505050505051 583.5151515151515,583.5151515151516 573.9797979797979,573.979797979798 564.4444444444445,564.4444444444445 554.9090909090909,554.909090909091 545.3737373737374,545.3737373737374 535.8383838383838,535.838383838384 526.3030303030303,526.3030303030304 516.7676767676768,516.7676767676768 507.2323232323232,507.23232323232327 497.69696969696975,497.69696969696975 488.16161616161617,488.1616161616163 478.62626262626264,478.6262626262627 469.09090909090907,469.0909090909092 459.55555555555554,459.5555555555556 450.0202020202021,450.0202020202021 440.4848484848485,440.4848484848486 430.949494949495,430.94949494949503 421.4141414141414,421.4141414141415 411.8787878787879,411.87878787878793 402.34343434343435,402.3434343434344 392.80808080808083,392.80808080808094 383.2727272727273,383.27272727272737 373.7373737373738,373.73737373737384 364.2020202020202,364.2020202020203 354.6666666666667,354.66666666666674 345.13131313131316,345.1313131313133 335.59595959595964,335.5959595959597 326.0606060606061,326.06060606060623 316.5252525252526,316.5252525252526 306.9898989898991,306.9898989898991 297.4545454545455,297.4545454545456 287.91919191919203,287.91919191919203 278.38383838383845,278.38383838383857 268.84848484848493,278.38383838383857 259.3131313131314,278.38383838383857 249.77777777777783,278.38383838383857 240.2424242424243,278.38383838383857 230.70707070707084,278.38383838383857 221.17171717171726,278.38383838383857 211.63636363636374,278.38383838383857 202.10101010101022,278.38383838383857 192.5656565656567,278.38383838383857 183.03030303030312,278.38383838383857 173.4949494949496,278.38383838383857 163.95959595959607,278.38383838383857 154.42424242424255,278.38383838383857 144.88888888888903,278.38383838383857 135.35353535353545,278.38383838383857 125.81818181818193,278.38383838383857 116.28282828282829,278.38383838383857 106.74747474747483,278.38383838383857 97.21212121212136,278.38383838383857 87.67676767676772,278.38383838383857 78.14141414141426,278.38383838383857 68.60606060606068,278.38383838383857 59.07070707070716,278.38383838383857 49.53535353535369,278.38383838383857 40.00000000000006,278.38383838383857" fill="none" stroke="rgba(255,0,0,0.75)" stroke-width="14.159999999999995"/></g><g><polyline data-points="5.000000000000002,-1.9696969696969693 4.898989898989901,-1.8686868686868683 4.7979797979797985,-1.7676767676767675 4.696969696969697,-1.6666666666666665 4.595959595959597,-1.5656565656565653 4.494949494949497,-1.4646464646464643 4.393939393939394,-1.363636363636363 4.292929292929293,-1.2626262626262625 4.191919191919193,-1.1616161616161613 4.090909090909092,-1.0606060606060603 3.989898989898992,-0.9595959595959596 3.8888888888888893,-0.8585858585858579 3.7878787878787885,-0.7575757575757572 3.6868686868686877,-0.6565656565656557 3.5858585858585874,-0.555555555555555 3.4848484848484866,-0.4545454545454544 3.383838383838384,-0.4545454545454544 3.2828282828282833,-0.4545454545454544 3.181818181818183,-0.4545454545454544 3.080808080808082,-0.4545454545454544 2.9797979797979806,-0.4545454545454544 2.87878787878788,-0.4545454545454544 2.7777777777777786,-0.4545454545454544 2.676767676767678,-0.4545454545454544 2.575757575757577,-0.4545454545454544 2.4747474747474754,-0.4545454545454544 2.373737373737375,-0.4545454545454544 2.2727272727272734,-0.4545454545454544 2.1717171717171726,-0.4545454545454544 2.070707070707072,-0.4545454545454544 1.9696969696969702,-0.4545454545454544 1.8686868686868696,-0.4545454545454544 1.767676767676768,-0.4545454545454544 1.6666666666666674,-0.4545454545454544 1.5656565656565666,-0.4545454545454544 1.4646464646464652,-0.4545454545454544 1.3636363636363644,-0.4545454545454544 1.262626262626263,-0.4545454545454544 1.1616161616161622,-0.4545454545454544 1.0606060606060617,-0.4545454545454544 0.9595959595959602,-0.4545454545454544 0.8585858585858596,-0.4545454545454544 0.7575757575757579,-0.4545454545454544 0.6565656565656574,-0.4545454545454544 0.5555555555555567,-0.4545454545454544 0.4545454545454551,-0.4545454545454544 0.3535353535353544,-0.4545454545454544 0.2525252525252529,-0.4545454545454544 0.1515151515151522,-0.4545454545454544 0.050505050505051545,-0.4545454545454544 -0.05050505050505001,-0.4545454545454544 -0.15151515151515066,-0.4545454545454544 -0.2525252525252522,-0.4545454545454544 -0.35353535353535287,-0.4545454545454544 -0.4545454545454544,-0.4545454545454544 -0.555555555555555,-0.4545454545454544 -0.6565656565656557,-0.4545454545454544 -0.7575757575757572,-0.4545454545454544 -0.8585858585858579,-0.4545454545454544 -0.9595959595959596,-0.4545454545454544 -1.0606060606060603,-0.4545454545454544 -1.1616161616161613,-0.4545454545454544 -1.2626262626262625,-0.4545454545454544 -1.363636363636363,-0.4545454545454544 -1.4646464646464643,-0.4545454545454544 -1.5656565656565653,-0.4545454545454544 -1.6666666666666665,-0.4545454545454544 -1.7676767676767675,-0.4545454545454544 -1.8686868686868683,-0.4545454545454544 -1.9696969696969693,-0.4545454545454544 -2.07070707070707,-0.4545454545454544 -2.1717171717171713,-0.4545454545454544 -2.2727272727272725,-0.4545454545454544 -2.3737373737373733,-0.4545454545454544 -2.474747474747474,-0.4545454545454544 -2.5757575757575752,-0.4545454545454544 -2.6767676767676765,-0.4545454545454544 -2.7777777777777777,-0.4545454545454544 -2.8787878787878785,-0.4545454545454544 -2.9797979797979792,-0.4545454545454544 -3.0808080808080804,-0.4545454545454544 -3.1818181818181817,-0.4545454545454544 -3.2828282828282824,-0.4545454545454544 -3.383838383838383,-0.4545454545454544 -3.484848484848485,-0.4545454545454544 -3.5858585858585856,-0.4545454545454544 -3.6868686868686864,-0.4545454545454544 -3.7878787878787876,-0.4545454545454544 -3.8888888888888884,-0.4545454545454544 -3.98989898989899,-0.4545454545454544 -4.090909090909091,-0.4545454545454544 -4.191919191919193,-0.4545454545454544 -4.292929292929293,-0.4545454545454544 -4.393939393939394,-0.4545454545454544 -4.494949494949496,-0.4545454545454544 -4.595959595959596,-0.4545454545454544 -4.696969696969697,-0.4545454545454544 -4.7979797979797985,-0.4545454545454544 -4.898989898989899,-0.4545454545454544 -5.000000000000001,-0.4545454545454544" data-type="line" data-label="" points="984,697.939393939394 974.4646464646464,688.4040404040404 964.9292929292927,678.8686868686868 955.3939393939393,669.3333333333334 945.8585858585857,659.7979797979798 936.3232323232323,650.2626262626263 926.7878787878785,640.7272727272727 917.2525252525251,631.1919191919193 907.7171717171716,621.6565656565657 898.181818181818,612.1212121212121 888.6464646464647,602.5858585858587 879.111111111111,593.0505050505051 869.5757575757575,583.5151515151516 860.0404040404039,573.979797979798 850.5050505050505,564.4444444444445 840.969696969697,554.909090909091 831.4343434343433,554.909090909091 821.8989898989898,554.909090909091 812.3636363636363,554.909090909091 802.8282828282828,554.909090909091 793.2929292929292,554.909090909091 783.7575757575758,554.909090909091 774.2222222222222,554.909090909091 764.6868686868686,554.909090909091 755.1515151515151,554.909090909091 745.6161616161615,554.909090909091 736.0808080808081,554.909090909091 726.5454545454545,554.909090909091 717.0101010101009,554.909090909091 707.4747474747475,554.909090909091 697.9393939393939,554.909090909091 688.4040404040404,554.909090909091 678.8686868686868,554.909090909091 669.3333333333333,554.909090909091 659.7979797979798,554.909090909091 650.2626262626262,554.909090909091 640.7272727272727,554.909090909091 631.1919191919192,554.909090909091 621.6565656565656,554.909090909091 612.1212121212121,554.909090909091 602.5858585858585,554.909090909091 593.0505050505051,554.909090909091 583.5151515151515,554.909090909091 573.9797979797979,554.909090909091 564.4444444444445,554.909090909091 554.9090909090909,554.909090909091 545.3737373737374,554.909090909091 535.8383838383838,554.909090909091 526.3030303030303,554.909090909091 516.7676767676768,554.909090909091 507.2323232323232,554.909090909091 497.69696969696975,554.909090909091 488.16161616161617,554.909090909091 478.62626262626264,554.909090909091 469.09090909090907,554.909090909091 459.55555555555554,554.909090909091 450.0202020202021,554.909090909091 440.4848484848485,554.909090909091 430.949494949495,554.909090909091 421.4141414141414,554.909090909091 411.8787878787879,554.909090909091 402.34343434343435,554.909090909091 392.80808080808083,554.909090909091 383.2727272727273,554.909090909091 373.7373737373738,554.909090909091 364.2020202020202,554.909090909091 354.6666666666667,554.909090909091 345.13131313131316,554.909090909091 335.59595959595964,554.909090909091 326.0606060606061,554.909090909091 316.5252525252526,554.909090909091 306.9898989898991,554.909090909091 297.4545454545455,554.909090909091 287.91919191919203,554.909090909091 278.38383838383845,554.909090909091 268.84848484848493,554.909090909091 259.3131313131314,554.909090909091 249.77777777777783,554.909090909091 240.2424242424243,554.909090909091 230.70707070707084,554.909090909091 221.17171717171726,554.909090909091 211.63636363636374,554.909090909091 202.10101010101022,554.909090909091 192.5656565656567,554.909090909091 183.03030303030312,554.909090909091 173.4949494949496,554.909090909091 163.95959595959607,554.909090909091 154.42424242424255,554.909090909091 144.88888888888903,554.909090909091 135.35353535353545,554.909090909091 125.81818181818193,554.909090909091 116.28282828282829,554.909090909091 106.74747474747483,554.909090909091 97.21212121212136,554.909090909091 87.67676767676772,554.909090909091 78.14141414141426,554.909090909091 68.60606060606068,554.909090909091 59.07070707070716,554.909090909091 49.53535353535369,554.909090909091 40.00000000000006,554.909090909091" fill="none" stroke="rgba(0,0,255,0.75)" stroke-width="14.159999999999995"/></g><g><polyline data-points="-2.8787878787878785,-5.000000000000001 -2.7777777777777777,-4.898989898989899 -2.6767676767676765,-4.7979797979797985 -2.5757575757575752,-4.696969696969697 -2.474747474747474,-4.595959595959596 -2.3737373737373733,-4.494949494949496 -2.2727272727272725,-4.393939393939394 -2.1717171717171713,-4.292929292929293 -2.07070707070707,-4.191919191919193 -1.9696969696969693,-4.090909090909091 -1.8686868686868683,-3.98989898989899 -1.7676767676767675,-3.8888888888888884 -1.6666666666666665,-3.7878787878787876 -1.5656565656565653,-3.6868686868686864 -1.4646464646464643,-3.5858585858585856 -1.363636363636363,-3.484848484848485 -1.2626262626262625,-3.383838383838383 -1.1616161616161613,-3.2828282828282824 -1.0606060606060603,-3.1818181818181817 -0.9595959595959596,-3.0808080808080804 -0.9595959595959596,-2.9797979797979792 -0.9595959595959596,-2.8787878787878785 -0.9595959595959596,-2.7777777777777777 -0.9595959595959596,-2.6767676767676765 -0.9595959595959596,-2.5757575757575752 -0.9595959595959596,-2.474747474747474 -0.9595959595959596,-2.3737373737373733 -0.9595959595959596,-2.2727272727272725 -0.9595959595959596,-2.1717171717171713 -0.9595959595959596,-2.07070707070707 -0.9595959595959596,-1.9696969696969693 -0.9595959595959596,-1.8686868686868683 -0.9595959595959596,-1.7676767676767675 -0.9595959595959596,-1.6666666666666665 -0.9595959595959596,-1.5656565656565653 -0.9595959595959596,-1.4646464646464643 -0.9595959595959596,-1.363636363636363 -0.9595959595959596,-1.2626262626262625 -0.9595959595959596,-1.1616161616161613 -0.9595959595959596,-1.0606060606060603 -0.9595959595959596,-0.9595959595959596 -0.9595959595959596,-0.8585858585858579 -0.9595959595959596,-0.7575757575757572 -0.9595959595959596,-0.6565656565656557 -0.9595959595959596,-0.555555555555555 -0.9595959595959596,-0.4545454545454544 -0.9595959595959596,-0.35353535353535287 -0.9595959595959596,-0.2525252525252522 -0.9595959595959596,-0.15151515151515066 -0.9595959595959596,-0.05050505050505001 -0.9595959595959596,0.050505050505051545 -0.9595959595959596,0.1515151515151522" data-type="line" data-label="" points="240.2424242424243,984 249.77777777777783,974.4646464646464 259.3131313131314,964.9292929292928 268.84848484848493,955.3939393939394 278.38383838383845,945.8585858585858 287.91919191919203,936.3232323232323 297.4545454545455,926.7878787878788 306.9898989898991,917.2525252525252 316.5252525252526,907.7171717171718 326.0606060606061,898.1818181818181 335.59595959595964,888.6464646464647 345.13131313131316,879.1111111111111 354.6666666666667,869.5757575757575 364.2020202020202,860.0404040404039 373.7373737373738,850.5050505050505 383.2727272727273,840.969696969697 392.80808080808083,831.4343434343434 402.34343434343435,821.8989898989898 411.8787878787879,812.3636363636363 421.4141414141414,802.8282828282828 421.4141414141414,793.2929292929292 421.4141414141414,783.7575757575758 421.4141414141414,774.2222222222222 421.4141414141414,764.6868686868687 421.4141414141414,755.1515151515151 421.4141414141414,745.6161616161615 421.4141414141414,736.0808080808081 421.4141414141414,726.5454545454545 421.4141414141414,717.010101010101 421.4141414141414,707.4747474747475 421.4141414141414,697.939393939394 421.4141414141414,688.4040404040404 421.4141414141414,678.8686868686868 421.4141414141414,669.3333333333334 421.4141414141414,659.7979797979798 421.4141414141414,650.2626262626263 421.4141414141414,640.7272727272727 421.4141414141414,631.1919191919193 421.4141414141414,621.6565656565657 421.4141414141414,612.1212121212121 421.4141414141414,602.5858585858587 421.4141414141414,593.0505050505051 421.4141414141414,583.5151515151516 421.4141414141414,573.979797979798 421.4141414141414,564.4444444444445 421.4141414141414,554.909090909091 421.4141414141414,545.3737373737374 421.4141414141414,535.838383838384 421.4141414141414,526.3030303030304 421.4141414141414,516.7676767676768 421.4141414141414,507.23232323232327 421.4141414141414,497.69696969696975" fill="none" stroke="rgba(255,0,0,0.75)" stroke-width="14.159999999999995"/></g><g><polyline data-points="-0.9595959595959596,0.1515151515151522 -0.8585858585858579,0.2525252525252529 -0.7575757575757572,0.3535353535353544 -0.6565656565656557,0.4545454545454551 -0.555555555555555,0.5555555555555567 -0.4545454545454544,0.6565656565656574 -0.35353535353535287,0.7575757575757579 -0.2525252525252522,0.8585858585858596 -0.15151515151515066,0.9595959595959602 -0.15151515151515066,1.0606060606060617 -0.15151515151515066,1.1616161616161622 -0.15151515151515066,1.262626262626263 -0.15151515151515066,1.3636363636363644 -0.15151515151515066,1.4646464646464652 -0.15151515151515066,1.5656565656565666 -0.15151515151515066,1.6666666666666674 -0.15151515151515066,1.767676767676768 -0.15151515151515066,1.8686868686868696 -0.15151515151515066,1.9696969696969702 -0.15151515151515066,2.070707070707072 -0.15151515151515066,2.1717171717171726 -0.15151515151515066,2.2727272727272734 -0.15151515151515066,2.373737373737375 -0.15151515151515066,2.4747474747474754 -0.15151515151515066,2.575757575757577 -0.15151515151515066,2.676767676767678 -0.15151515151515066,2.7777777777777786 -0.15151515151515066,2.87878787878788 -0.15151515151515066,2.9797979797979806 -0.15151515151515066,3.080808080808082 -0.15151515151515066,3.181818181818183 -0.15151515151515066,3.2828282828282833 -0.15151515151515066,3.383838383838384 -0.15151515151515066,3.4848484848484866 -0.15151515151515066,3.5858585858585874 -0.15151515151515066,3.6868686868686877 -0.15151515151515066,3.7878787878787885 -0.15151515151515066,3.8888888888888893 -0.15151515151515066,3.989898989898992" data-type="line" data-label="" points="421.4141414141414,497.69696969696975 430.949494949495,488.1616161616163 440.4848484848485,478.6262626262627 450.0202020202021,469.0909090909092 459.55555555555554,459.5555555555556 469.09090909090907,450.0202020202021 478.62626262626264,440.4848484848486 488.16161616161617,430.94949494949503 497.69696969696975,421.4141414141415 497.69696969696975,411.87878787878793 497.69696969696975,402.3434343434344 497.69696969696975,392.80808080808094 497.69696969696975,383.27272727272737 497.69696969696975,373.73737373737384 497.69696969696975,364.2020202020203 497.69696969696975,354.66666666666674 497.69696969696975,345.1313131313133 497.69696969696975,335.5959595959597 497.69696969696975,326.06060606060623 497.69696969696975,316.5252525252526 497.69696969696975,306.9898989898991 497.69696969696975,297.4545454545456 497.69696969696975,287.91919191919203 497.69696969696975,278.38383838383857 497.69696969696975,268.84848484848493 497.69696969696975,259.3131313131314 497.69696969696975,249.77777777777794 497.69696969696975,240.24242424242436 497.69696969696975,230.70707070707084 497.69696969696975,221.17171717171726 497.69696969696975,211.63636363636374 497.69696969696975,202.10101010101027 497.69696969696975,192.56565656565675 497.69696969696975,183.03030303030312 497.69696969696975,173.4949494949496 497.69696969696975,163.95959595959613 497.69696969696975,154.4242424242426 497.69696969696975,144.88888888888908 497.69696969696975,135.35353535353545" fill="none" stroke="rgba(0,0,255,0.75)" stroke-width="14.159999999999995"/></g><g><polyline data-points="-0.15151515151515066,3.989898989898992 -0.15151515151515066,4.090909090909092 -0.15151515151515066,4.191919191919193 -0.15151515151515066,4.292929292929293 -0.15151515151515066,4.393939393939394 -0.15151515151515066,4.494949494949497 -0.15151515151515066,4.595959595959597 -0.15151515151515066,4.696969696969697 -0.15151515151515066,4.7979797979797985 -0.15151515151515066,4.898989898989901 -0.15151515151515066,5.000000000000002" data-type="line" data-label="" points="497.69696969696975,135.35353535353545 497.69696969696975,125.81818181818198 497.69696969696975,116.28282828282846 497.69696969696975,106.747474747475 497.69696969696975,97.21212121212153 497.69696969696975,87.67676767676778 497.69696969696975,78.14141414141432 497.69696969696975,68.60606060606085 497.69696969696975,59.07070707070733 497.69696969696975,49.53535353535369 497.69696969696975,40.000000000000114" fill="none" stroke="rgba(255,0,0,0.75)" stroke-width="14.159999999999995"/></g><g><polyline data-points="-5.000000000000001,1.8686868686868696 -4.898989898989899,1.767676767676768 -4.898989898989899,1.6666666666666674 -4.898989898989899,1.5656565656565666 -4.898989898989899,1.4646464646464652 -4.898989898989899,1.3636363636363644 -4.898989898989899,1.262626262626263 -4.898989898989899,1.1616161616161622 -4.898989898989899,1.0606060606060617 -4.7979797979797985,0.9595959595959602 -4.696969696969697,0.8585858585858596 -4.595959595959596,0.7575757575757579 -4.494949494949496,0.6565656565656574 -4.393939393939394,0.5555555555555567 -4.292929292929293,0.4545454545454551 -4.191919191919193,0.3535353535353544 -4.090909090909091,0.2525252525252529 -3.98989898989899,0.1515151515151522" data-type="line" data-label="" points="40.00000000000006,335.5959595959597 49.53535353535369,345.1313131313133 49.53535353535369,354.66666666666674 49.53535353535369,364.2020202020203 49.53535353535369,373.73737373737384 49.53535353535369,383.27272727272737 49.53535353535369,392.80808080808094 49.53535353535369,402.3434343434344 49.53535353535369,411.87878787878793 59.07070707070716,421.4141414141415 68.60606060606068,430.94949494949503 78.14141414141426,440.4848484848486 87.67676767676772,450.0202020202021 97.21212121212136,459.5555555555556 106.74747474747483,469.0909090909092 116.28282828282829,478.6262626262627 125.81818181818193,488.1616161616163 135.35353535353545,497.69696969696975" fill="none" stroke="rgba(0,0,255,0.75)" stroke-width="14.159999999999995"/></g><g><polyline data-points="-3.98989898989899,0.1515151515151522 -3.98989898989899,0.050505050505051545 -3.98989898989899,-0.05050505050505001 -3.98989898989899,-0.15151515151515066 -3.98989898989899,-0.2525252525252522 -3.98989898989899,-0.35353535353535287 -3.98989898989899,-0.4545454545454544 -3.98989898989899,-0.555555555555555 -3.98989898989899,-0.6565656565656557 -3.98989898989899,-0.7575757575757572 -3.98989898989899,-0.8585858585858579 -3.98989898989899,-0.9595959595959596 -3.98989898989899,-1.0606060606060603 -3.98989898989899,-1.1616161616161613 -3.98989898989899,-1.2626262626262625 -3.98989898989899,-1.363636363636363 -3.98989898989899,-1.4646464646464643 -3.98989898989899,-1.5656565656565653 -3.98989898989899,-1.6666666666666665 -3.98989898989899,-1.7676767676767675 -3.98989898989899,-1.8686868686868683 -3.98989898989899,-1.9696969696969693 -3.98989898989899,-2.07070707070707 -3.98989898989899,-2.1717171717171713 -3.98989898989899,-2.2727272727272725 -3.98989898989899,-2.3737373737373733 -3.98989898989899,-2.474747474747474 -3.98989898989899,-2.5757575757575752 -3.98989898989899,-2.6767676767676765 -3.98989898989899,-2.7777777777777777 -3.98989898989899,-2.8787878787878785 -3.98989898989899,-2.9797979797979792 -3.98989898989899,-3.0808080808080804 -3.98989898989899,-3.1818181818181817 -3.98989898989899,-3.2828282828282824 -3.98989898989899,-3.383838383838383 -3.98989898989899,-3.484848484848485 -3.98989898989899,-3.5858585858585856 -3.98989898989899,-3.6868686868686864 -3.98989898989899,-3.7878787878787876" data-type="line" data-label="" points="135.35353535353545,497.69696969696975 135.35353535353545,507.23232323232327 135.35353535353545,516.7676767676768 135.35353535353545,526.3030303030304 135.35353535353545,535.838383838384 135.35353535353545,545.3737373737374 135.35353535353545,554.909090909091 135.35353535353545,564.4444444444445 135.35353535353545,573.979797979798 135.35353535353545,583.5151515151516 135.35353535353545,593.0505050505051 135.35353535353545,602.5858585858587 135.35353535353545,612.1212121212121 135.35353535353545,621.6565656565657 135.35353535353545,631.1919191919193 135.35353535353545,640.7272727272727 135.35353535353545,650.2626262626263 135.35353535353545,659.7979797979798 135.35353535353545,669.3333333333334 135.35353535353545,678.8686868686868 135.35353535353545,688.4040404040404 135.35353535353545,697.939393939394 135.35353535353545,707.4747474747475 135.35353535353545,717.010101010101 135.35353535353545,726.5454545454545 135.35353535353545,736.0808080808081 135.35353535353545,745.6161616161615 135.35353535353545,755.1515151515151 135.35353535353545,764.6868686868687 135.35353535353545,774.2222222222222 135.35353535353545,783.7575757575758 135.35353535353545,793.2929292929292 135.35353535353545,802.8282828282828 135.35353535353545,812.3636363636363 135.35353535353545,821.8989898989898 135.35353535353545,831.4343434343434 135.35353535353545,840.969696969697 135.35353535353545,850.5050505050505 135.35353535353545,860.0404040404039 135.35353535353545,869.5757575757575" fill="none" stroke="rgba(255,0,0,0.75)" stroke-width="14.159999999999995"/></g><g><polyline data-points="-3.98989898989899,-3.7878787878787876 -4.090909090909091,-3.8888888888888884 -4.191919191919193,-3.98989898989899 -4.292929292929293,-4.090909090909091 -4.393939393939394,-4.090909090909091 -4.494949494949496,-4.090909090909091 -4.595959595959596,-4.090909090909091 -4.696969696969697,-4.090909090909091 -4.7979797979797985,-4.090909090909091 -4.898989898989899,-4.090909090909091 -5.000000000000001,-4.090909090909091" data-type="line" data-label="" points="135.35353535353545,869.5757575757575 125.81818181818193,879.1111111111111 116.28282828282829,888.6464646464647 106.74747474747483,898.1818181818181 97.21212121212136,898.1818181818181 87.67676767676772,898.1818181818181 78.14141414141426,898.1818181818181 68.60606060606068,898.1818181818181 59.07070707070716,898.1818181818181 49.53535353535369,898.1818181818181 40.00000000000006,898.1818181818181" fill="none" stroke="rgba(0,0,255,0.75)" stroke-width="14.159999999999995"/></g><g><rect data-type="rect" data-label="" data-x="0" data-y="0" x="40.000000000000114" y="40.000000000000284" width="943.9999999999997" height="943.9999999999998" fill="none" stroke="gray" stroke-width="0.010593220338983056"/></g><g><rect data-type="rect" data-label="" data-x="0" data-y="0" x="40.000000000000114" y="40.000000000000284" width="943.9999999999997" height="943.9999999999998" fill="none" stroke="rgba(15, 23, 42, 0.8)" stroke-width="0.010593220338983056"/></g><circle data-type="circle" data-label="" data-x="-0.9595959595959596" data-y="0.1515151515151522" cx="421.4141414141414" cy="497.69696969696975" r="28.791999999999987" fill="rgba(0,0,0,0.3)" stroke="black" stroke-width="0.010593220338983056"/><circle data-type="circle" data-label="" data-x="-0.15151515151515066" data-y="3.989898989898992" cx="497.69696969696975" cy="135.35353535353545" r="28.791999999999987" fill="rgba(0,0,0,0.3)" stroke="black" stroke-width="0.010593220338983056"/><circle data-type="circle" data-label="" data-x="-3.98989898989899" data-y="0.1515151515151522" cx="135.35353535353545" cy="497.69696969696975" r="28.791999999999987" fill="rgba(0,0,0,0.3)" stroke="black" stroke-width="0.010593220338983056"/><circle data-type="circle" data-label="" data-x="-3.98989898989899" data-y="-3.7878787878787876" cx="135.35353535353545" cy="869.5757575757575" r="28.791999999999987" fill="rgba(0,0,0,0.3)" stroke="black" stroke-width="0.010593220338983056"/><g id="crosshair" style="display: none"><line id="crosshair-h" y1="0" y2="1024" stroke="#666" stroke-width="0.5"/><line id="crosshair-v" x1="0" x2="1024" stroke="#666" stroke-width="0.5"/><text id="coordinates" font-family="monospace" font-size="12" fill="#666"></text></g><script><![CDATA[
              document.currentScript.parentElement.addEventListener('mousemove', (e) => {
                const svg = e.currentTarget;
                const rect = svg.getBoundingClientRect();
                const x = e.clientX - rect.left;
                const y = e.clientY - rect.top;
                const crosshair = svg.getElementById('crosshair');
                const h = svg.getElementById('crosshair-h');
                const v = svg.getElementById('crosshair-v');
                const coords = svg.getElementById('coordinates');
                
                crosshair.style.display = 'block';
                h.setAttribute('x1', '0');
                h.setAttribute('x2', '1024');
                h.setAttribute('y1', y);
                h.setAttribute('y2', y);
                v.setAttribute('x1', x);
                v.setAttribute('x2', x);
                v.setAttribute('y1', '0');
                v.setAttribute('y2', '1024');

                // Calculate real coordinates using inverse transformation
                const matrix = {"a":94.39999999999996,"c":0,"e":511.99999999999994,"b":0,"d":-94.39999999999996,"f":512.0000000000001};
                // Manually invert and apply the affine transform
                // Since we only use translate and scale, we can directly compute:
                // x' = (x - tx) / sx
                // y' = (y - ty) / sy
                const sx = matrix.a;
                const sy = matrix.d;
                const tx = matrix.e; 
                const ty = matrix.f;
                const realPoint = {
                  x: (x - tx) / sx,
                  y: (y - ty) / sy // Flip y back since we used negative scale
                }
                
                coords.textContent = `(${realPoint.x.toFixed(2)}, ${realPoint.y.toFixed(2)})`;
                coords.setAttribute('x', (x + 5).toString());
                coords.setAttribute('y', (y - 5).toString());
              });
              document.currentScript.parentElement.addEventListener('mouseleave', () => {
                document.currentScript.parentElement.getElementById('crosshair').style.display = 'none';
              });
            ]]></script></svg>