<svg width="1024" height="1024" viewBox="0 0 1024 1024" xmlns="http://www.w3.org/2000/svg"><rect width="100%" height="100%" fill="white"/><g><circle data-type="point" data-label="conn_000" data-x="-5" data-y="1.24" cx="40.000000000000114" cy="394.9440000000002" r="28.792" fill="blue" stroke="#bda70f" stroke-width="28.792"/></g><g><circle data-type="point" data-label="conn_000" data-x="5" data-y="-3.62" cx="983.9999999999998" cy="853.7280000000001" r="28.792" fill="red" stroke="#bda70f" stroke-width="28.792"/></g><g><circle data-type="point" data-label="conn_001" data-x="-5" data-y="2.2600000000000002" cx="40.000000000000114" cy="298.6560000000002" r="28.792" fill="blue" stroke="#0fa0bd" stroke-width="28.792"/></g><g><circle data-type="point" data-label="conn_001" data-x="5" data-y="3.58" cx="983.9999999999998" cy="174.04800000000023" r="28.792" fill="red" stroke="#0fa0bd" stroke-width="28.792"/></g><g><circle data-type="point" data-label="conn_002" data-x="-0.14" data-y="5" cx="498.78399999999993" cy="40.000000000000284" r="28.792" fill="blue" stroke="#bd0f6d" stroke-width="28.792"/></g><g><circle data-type="point" data-label="conn_002" data-x="-5" data-y="-4.1" cx="40.000000000000114" cy="899.04" r="28.792" fill="blue" stroke="#bd0f6d" stroke-width="28.792"/></g><g><circle data-type="point" data-label="conn_003" data-x="5" data-y="0.48" cx="983.9999999999998" cy="466.6880000000001" r="28.792" fill="red" stroke="#3bbd0f" stroke-width="28.792"/></g><g><circle data-type="point" data-label="conn_003" data-x="3.9" data-y="-5" cx="880.1599999999999" cy="984" r="28.792" fill="blue" stroke="#3bbd0f" stroke-width="28.792"/></g><g><circle data-type="point" data-label="conn_004" data-x="-4.2" data-y="5" cx="115.5200000000001" cy="40.000000000000284" r="28.792" fill="blue" stroke="#170fbd" stroke-width="28.792"/></g><g><circle data-type="point" data-label="conn_004" data-x="-1.6600000000000001" data-y="5" cx="355.296" cy="40.000000000000284" r="28.792" fill="red" stroke="#170fbd" stroke-width="28.792"/></g><g><polyline data-points="-4.292929292929293,5.000000000000002 -4.191919191919193,5.000000000000002 -4.090909090909091,5.000000000000002 -3.98989898989899,5.000000000000002 -3.8888888888888884,5.000000000000002 -3.7878787878787876,5.000000000000002 -3.6868686868686864,5.000000000000002 -3.5858585858585856,5.000000000000002 -3.484848484848485,5.000000000000002 -3.383838383838383,4.898989898989901 -3.2828282828282824,4.7979797979797985 -3.1818181818181817,4.696969696969697 -3.0808080808080804,4.595959595959597 -2.9797979797979792,4.494949494949497 -2.8787878787878785,4.393939393939394 -2.7777777777777777,4.292929292929293 -2.6767676767676765,4.191919191919193 -2.5757575757575752,4.090909090909092 -2.474747474747474,3.989898989898992" data-type="line" data-label="" points="106.74747474747483,40.000000000000114 116.28282828282829,40.000000000000114 125.81818181818193,40.000000000000114 135.35353535353545,40.000000000000114 144.88888888888903,40.000000000000114 154.42424242424255,40.000000000000114 163.95959595959607,40.000000000000114 173.4949494949496,40.000000000000114 183.03030303030312,40.000000000000114 192.5656565656567,49.53535353535369 202.10101010101022,59.07070707070733 211.63636363636374,68.60606060606085 221.17171717171726,78.14141414141432 230.70707070707084,87.67676767676778 240.2424242424243,97.21212121212153 249.77777777777783,106.747474747475 259.3131313131314,116.28282828282846 268.84848484848493,125.81818181818198 278.38383838383845,135.35353535353545" fill="none" stroke="rgba(0,0,255,0.75)" stroke-width="14.159999999999995"/></g><g><polyline data-points="-2.474747474747474,3.989898989898992 -2.3737373737373733,4.090909090909092 -2.2727272727272725,4.191919191919193 -2.1717171717171713,4.292929292929293 -2.07070707070707,4.393939393939394 -1.9696969696969693,4.494949494949497 -1.8686868686868683,4.595959595959597 -1.7676767676767675,4.696969696969697 -1.6666666666666665,4.7979797979797985 -1.6666666666666665,4.898989898989901 -1.6666666666666665,5.000000000000002" data-type="line" data-label="" points="278.38383838383845,135.35353535353545 287.91919191919203,125.81818181818198 297.4545454545455,116.28282828282846 306.9898989898991,106.747474747475 316.5252525252526,97.21212121212153 326.0606060606061,87.67676767676778 335.59595959595964,78.14141414141432 345.13131313131316,68.60606060606085 354.6666666666667,59.07070707070733 354.6666666666667,49.53535353535369 354.6666666666667,40.000000000000114" fill="none" stroke="rgba(255,0,0,0.75)" stroke-width="14.159999999999995"/></g><g><polyline data-points="-0.15151515151515066,5.000000000000002 -0.2525252525252522,4.898989898989901 -0.35353535353535287,4.7979797979797985 -0.4545454545454544,4.696969696969697 -0.555555555555555,4.595959595959597 -0.6565656565656557,4.494949494949497 -0.7575757575757572,4.393939393939394 -0.8585858585858579,4.292929292929293 -0.9595959595959596,4.191919191919193 -1.0606060606060603,4.090909090909092 -1.1616161616161613,3.989898989898992 -1.2626262626262625,3.8888888888888893 -1.363636363636363,3.7878787878787885 -1.4646464646464643,3.6868686868686877 -1.5656565656565653,3.5858585858585874 -1.6666666666666665,3.4848484848484866 -1.7676767676767675,3.383838383838384 -1.8686868686868683,3.2828282828282833 -1.9696969696969693,3.181818181818183 -2.07070707070707,3.080808080808082 -2.1717171717171713,2.9797979797979806 -2.2727272727272725,2.87878787878788 -2.3737373737373733,2.7777777777777786 -2.474747474747474,2.676767676767678 -2.5757575757575752,2.575757575757577 -2.6767676767676765,2.4747474747474754 -2.7777777777777777,2.373737373737375 -2.8787878787878785,2.2727272727272734 -2.9797979797979792,2.1717171717171726 -3.0808080808080804,2.070707070707072 -3.1818181818181817,1.9696969696969702 -3.2828282828282824,1.8686868686868696 -3.383838383838383,1.767676767676768 -3.484848484848485,1.6666666666666674 -3.5858585858585856,1.5656565656565666 -3.6868686868686864,1.4646464646464652 -3.7878787878787876,1.3636363636363644 -3.8888888888888884,1.262626262626263 -3.98989898989899,1.1616161616161622 -4.090909090909091,1.0606060606060617 -4.191919191919193,0.9595959595959602 -4.292929292929293,0.8585858585858596 -4.393939393939394,0.7575757575757579 -4.494949494949496,0.6565656565656574 -4.595959595959596,0.5555555555555567 -4.696969696969697,0.4545454545454551 -4.7979797979797985,0.3535353535353544 -4.898989898989899,0.2525252525252529 -5.000000000000001,0.1515151515151522 -5.000000000000001,0.050505050505051545 -5.000000000000001,-0.05050505050505001 -5.000000000000001,-0.15151515151515066 -5.000000000000001,-0.2525252525252522 -5.000000000000001,-0.35353535353535287 -5.000000000000001,-0.4545454545454544 -5.000000000000001,-0.555555555555555 -5.000000000000001,-0.6565656565656557 -5.000000000000001,-0.7575757575757572 -5.000000000000001,-0.8585858585858579 -5.000000000000001,-0.9595959595959596 -5.000000000000001,-1.0606060606060603 -5.000000000000001,-1.1616161616161613 -5.000000000000001,-1.2626262626262625 -5.000000000000001,-1.363636363636363 -5.000000000000001,-1.4646464646464643 -5.000000000000001,-1.5656565656565653 -5.000000000000001,-1.6666666666666665 -5.000000000000001,-1.7676767676767675 -5.000000000000001,-1.8686868686868683 -5.000000000000001,-1.9696969696969693 -5.000000000000001,-2.07070707070707 -5.000000000000001,-2.1717171717171713 -5.000000000000001,-2.2727272727272725 -5.000000000000001,-2.3737373737373733 -5.000000000000001,-2.474747474747474 -5.000000000000001,-2.5757575757575752 -5.000000000000001,-2.6767676767676765 -5.000000000000001,-2.7777777777777777 -5.000000000000001,-2.8787878787878785 -5.000000000000001,-2.9797979797979792 -5.000000000000001,-3.0808080808080804 -5.000000000000001,-3.1818181818181817 -5.000000000000001,-3.2828282828282824 -5.000000000000001,-3.383838383838383 -5.000000000000001,-3.484848484848485 -5.000000000000001,-3.5858585858585856 -5.000000000000001,-3.6868686868686864 -5.000000000000001,-3.7878787878787876 -5.000000000000001,-3.8888888888888884 -5.000000000000001,-3.98989898989899 -5.000000000000001,-4.090909090909091" data-type="line" data-label="" points="497.69696969696975,40.000000000000114 488.16161616161617,49.53535353535369 478.62626262626264,59.07070707070733 469.09090909090907,68.60606060606085 459.55555555555554,78.14141414141432 450.0202020202021,87.67676767676778 440.4848484848485,97.21212121212153 430.949494949495,106.747474747475 421.4141414141414,116.28282828282846 411.8787878787879,125.81818181818198 402.34343434343435,135.35353535353545 392.80808080808083,144.88888888888908 383.2727272727273,154.4242424242426 373.7373737373738,163.95959595959613 364.2020202020202,173.4949494949496 354.6666666666667,183.03030303030312 345.13131313131316,192.56565656565675 335.59595959595964,202.10101010101027 326.0606060606061,211.63636363636374 316.5252525252526,221.17171717171726 306.9898989898991,230.70707070707084 297.4545454545455,240.24242424242436 287.91919191919203,249.77777777777794 278.38383838383845,259.3131313131314 268.84848484848493,268.84848484848493 259.3131313131314,278.38383838383857 249.77777777777783,287.91919191919203 240.2424242424243,297.4545454545456 230.70707070707084,306.9898989898991 221.17171717171726,316.5252525252526 211.63636363636374,326.06060606060623 202.10101010101022,335.5959595959597 192.5656565656567,345.1313131313133 183.03030303030312,354.66666666666674 173.4949494949496,364.2020202020203 163.95959595959607,373.73737373737384 154.42424242424255,383.27272727272737 144.88888888888903,392.80808080808094 135.35353535353545,402.3434343434344 125.81818181818193,411.87878787878793 116.28282828282829,421.4141414141415 106.74747474747483,430.94949494949503 97.21212121212136,440.4848484848486 87.67676767676772,450.0202020202021 78.14141414141426,459.5555555555556 68.60606060606068,469.0909090909092 59.07070707070716,478.6262626262627 49.53535353535369,488.1616161616163 40.00000000000006,497.69696969696975 40.00000000000006,507.23232323232327 40.00000000000006,516.7676767676768 40.00000000000006,526.3030303030304 40.00000000000006,535.838383838384 40.00000000000006,545.3737373737374 40.00000000000006,554.909090909091 40.00000000000006,564.4444444444445 40.00000000000006,573.979797979798 40.00000000000006,583.5151515151516 40.00000000000006,593.0505050505051 40.00000000000006,602.5858585858587 40.00000000000006,612.1212121212121 40.00000000000006,621.6565656565657 40.00000000000006,631.1919191919193 40.00000000000006,640.7272727272727 40.00000000000006,650.2626262626263 40.00000000000006,659.7979797979798 40.00000000000006,669.3333333333334 40.00000000000006,678.8686868686868 40.00000000000006,688.4040404040404 40.00000000000006,697.939393939394 40.00000000000006,707.4747474747475 40.00000000000006,717.010101010101 40.00000000000006,726.5454545454545 40.00000000000006,736.0808080808081 40.00000000000006,745.6161616161615 40.00000000000006,755.1515151515151 40.00000000000006,764.6868686868687 40.00000000000006,774.2222222222222 40.00000000000006,783.7575757575758 40.00000000000006,793.2929292929292 40.00000000000006,802.8282828282828 40.00000000000006,812.3636363636363 40.00000000000006,821.8989898989898 40.00000000000006,831.4343434343434 40.00000000000006,840.969696969697 40.00000000000006,850.5050505050505 40.00000000000006,860.0404040404039 40.00000000000006,869.5757575757575 40.00000000000006,879.1111111111111 40.00000000000006,888.6464646464647 40.00000000000006,898.1818181818181" fill="none" stroke="rgba(0,0,255,0.75)" stroke-width="14.159999999999995"/></g><g><polyline data-points="-5.000000000000001,1.262626262626263 -4.898989898989899,1.262626262626263 -4.7979797979797985,1.262626262626263 -4.696969696969697,1.262626262626263 -4.595959595959596,1.3636363636363644 -4.494949494949496,1.4646464646464652 -4.393939393939394,1.5656565656565666 -4.292929292929293,1.6666666666666674 -4.191919191919193,1.767676767676768 -4.090909090909091,1.8686868686868696 -3.98989898989899,1.9696969696969702" data-type="line" data-label="" points="40.00000000000006,392.80808080808094 49.53535353535369,392.80808080808094 59.07070707070716,392.80808080808094 68.60606060606068,392.80808080808094 78.14141414141426,383.27272727272737 87.67676767676772,373.73737373737384 97.21212121212136,364.2020202020203 106.74747474747483,354.66666666666674 116.28282828282829,345.1313131313133 125.81818181818193,335.5959595959597 135.35353535353545,326.06060606060623" fill="none" stroke="rgba(0,0,255,0.75)" stroke-width="14.159999999999995"/></g><g><polyline data-points="-3.98989898989899,1.9696969696969702 -3.8888888888888884,1.8686868686868696 -3.7878787878787876,1.767676767676768 -3.6868686868686864,1.6666666666666674 -3.5858585858585856,1.5656565656565666 -3.484848484848485,1.4646464646464652 -3.383838383838383,1.3636363636363644 -3.2828282828282824,1.262626262626263 -3.1818181818181817,1.1616161616161622 -3.0808080808080804,1.0606060606060617 -2.9797979797979792,0.9595959595959602 -2.8787878787878785,0.8585858585858596 -2.7777777777777777,0.7575757575757579 -2.6767676767676765,0.6565656565656574 -2.5757575757575752,0.5555555555555567 -2.474747474747474,0.4545454545454551 -2.3737373737373733,0.3535353535353544 -2.2727272727272725,0.2525252525252529 -2.1717171717171713,0.1515151515151522 -2.07070707070707,0.050505050505051545 -1.9696969696969693,-0.05050505050505001 -1.8686868686868683,-0.15151515151515066 -1.7676767676767675,-0.2525252525252522 -1.6666666666666665,-0.35353535353535287 -1.5656565656565653,-0.4545454545454544 -1.4646464646464643,-0.555555555555555 -1.363636363636363,-0.6565656565656557 -1.2626262626262625,-0.7575757575757572 -1.1616161616161613,-0.8585858585858579 -1.0606060606060603,-0.9595959595959596 -0.9595959595959596,-1.0606060606060603 -0.8585858585858579,-1.1616161616161613 -0.7575757575757572,-1.2626262626262625 -0.6565656565656557,-1.363636363636363 -0.555555555555555,-1.4646464646464643 -0.4545454545454544,-1.5656565656565653 -0.35353535353535287,-1.6666666666666665 -0.2525252525252522,-1.7676767676767675 -0.15151515151515066,-1.8686868686868683 -0.05050505050505001,-1.9696969696969693 0.050505050505051545,-2.07070707070707 0.1515151515151522,-2.1717171717171713 0.2525252525252529,-2.2727272727272725 0.3535353535353544,-2.3737373737373733 0.4545454545454551,-2.474747474747474 0.5555555555555567,-2.5757575757575752 0.6565656565656574,-2.6767676767676765 0.7575757575757579,-2.7777777777777777 0.8585858585858596,-2.8787878787878785 0.9595959595959602,-2.9797979797979792 1.0606060606060617,-3.0808080808080804 1.1616161616161622,-3.1818181818181817 1.262626262626263,-3.2828282828282824 1.3636363636363644,-3.383838383838383 1.4646464646464652,-3.484848484848485 1.5656565656565666,-3.5858585858585856 1.6666666666666674,-3.6868686868686864 1.767676767676768,-3.6868686868686864 1.8686868686868696,-3.6868686868686864 1.9696969696969702,-3.6868686868686864 2.070707070707072,-3.6868686868686864 2.1717171717171726,-3.6868686868686864 2.2727272727272734,-3.6868686868686864 2.373737373737375,-3.6868686868686864 2.4747474747474754,-3.6868686868686864 2.575757575757577,-3.6868686868686864 2.676767676767678,-3.6868686868686864 2.7777777777777786,-3.6868686868686864 2.87878787878788,-3.6868686868686864 2.9797979797979806,-3.6868686868686864 3.080808080808082,-3.6868686868686864 3.181818181818183,-3.6868686868686864 3.2828282828282833,-3.6868686868686864 3.383838383838384,-3.6868686868686864 3.4848484848484866,-3.6868686868686864 3.5858585858585874,-3.6868686868686864 3.6868686868686877,-3.6868686868686864 3.7878787878787885,-3.6868686868686864 3.8888888888888893,-3.6868686868686864 3.989898989898992,-3.6868686868686864 4.090909090909092,-3.6868686868686864 4.191919191919193,-3.6868686868686864 4.292929292929293,-3.6868686868686864 4.393939393939394,-3.6868686868686864 4.494949494949497,-3.6868686868686864 4.595959595959597,-3.6868686868686864 4.696969696969697,-3.6868686868686864 4.7979797979797985,-3.6868686868686864 4.898989898989901,-3.6868686868686864 5.000000000000002,-3.6868686868686864" data-type="line" data-label="" points="135.35353535353545,326.06060606060623 144.88888888888903,335.5959595959597 154.42424242424255,345.1313131313133 163.95959595959607,354.66666666666674 173.4949494949496,364.2020202020203 183.03030303030312,373.73737373737384 192.5656565656567,383.27272727272737 202.10101010101022,392.80808080808094 211.63636363636374,402.3434343434344 221.17171717171726,411.87878787878793 230.70707070707084,421.4141414141415 240.2424242424243,430.94949494949503 249.77777777777783,440.4848484848486 259.3131313131314,450.0202020202021 268.84848484848493,459.5555555555556 278.38383838383845,469.0909090909092 287.91919191919203,478.6262626262627 297.4545454545455,488.1616161616163 306.9898989898991,497.69696969696975 316.5252525252526,507.23232323232327 326.0606060606061,516.7676767676768 335.59595959595964,526.3030303030304 345.13131313131316,535.838383838384 354.6666666666667,545.3737373737374 364.2020202020202,554.909090909091 373.7373737373738,564.4444444444445 383.2727272727273,573.979797979798 392.80808080808083,583.5151515151516 402.34343434343435,593.0505050505051 411.8787878787879,602.5858585858587 421.4141414141414,612.1212121212121 430.949494949495,621.6565656565657 440.4848484848485,631.1919191919193 450.0202020202021,640.7272727272727 459.55555555555554,650.2626262626263 469.09090909090907,659.7979797979798 478.62626262626264,669.3333333333334 488.16161616161617,678.8686868686868 497.69696969696975,688.4040404040404 507.2323232323232,697.939393939394 516.7676767676768,707.4747474747475 526.3030303030303,717.010101010101 535.8383838383838,726.5454545454545 545.3737373737374,736.0808080808081 554.9090909090909,745.6161616161615 564.4444444444445,755.1515151515151 573.9797979797979,764.6868686868687 583.5151515151515,774.2222222222222 593.0505050505051,783.7575757575758 602.5858585858585,793.2929292929292 612.1212121212121,802.8282828282828 621.6565656565656,812.3636363636363 631.1919191919192,821.8989898989898 640.7272727272727,831.4343434343434 650.2626262626262,840.969696969697 659.7979797979798,850.5050505050505 669.3333333333333,860.0404040404039 678.8686868686868,860.0404040404039 688.4040404040404,860.0404040404039 697.9393939393939,860.0404040404039 707.4747474747475,860.0404040404039 717.0101010101009,860.0404040404039 726.5454545454545,860.0404040404039 736.0808080808081,860.0404040404039 745.6161616161615,860.0404040404039 755.1515151515151,860.0404040404039 764.6868686868686,860.0404040404039 774.2222222222222,860.0404040404039 783.7575757575758,860.0404040404039 793.2929292929292,860.0404040404039 802.8282828282828,860.0404040404039 812.3636363636363,860.0404040404039 821.8989898989898,860.0404040404039 831.4343434343433,860.0404040404039 840.969696969697,860.0404040404039 850.5050505050505,860.0404040404039 860.0404040404039,860.0404040404039 869.5757575757575,860.0404040404039 879.111111111111,860.0404040404039 888.6464646464647,860.0404040404039 898.181818181818,860.0404040404039 907.7171717171716,860.0404040404039 917.2525252525251,860.0404040404039 926.7878787878785,860.0404040404039 936.3232323232323,860.0404040404039 945.8585858585857,860.0404040404039 955.3939393939393,860.0404040404039 964.9292929292927,860.0404040404039 974.4646464646464,860.0404040404039 984,860.0404040404039" fill="none" stroke="rgba(255,0,0,0.75)" stroke-width="14.159999999999995"/></g><g><polyline data-points="5.000000000000002,0.4545454545454551 4.898989898989901,0.3535353535353544 4.7979797979797985,0.2525252525252529 4.696969696969697,0.1515151515151522 4.595959595959597,0.050505050505051545 4.494949494949497,-0.05050505050505001 4.393939393939394,-0.15151515151515066 4.292929292929293,-0.2525252525252522 4.191919191919193,-0.35353535353535287 4.090909090909092,-0.4545454545454544 3.989898989898992,-0.555555555555555 3.989898989898992,-0.6565656565656557 3.989898989898992,-0.7575757575757572 3.989898989898992,-0.8585858585858579 3.989898989898992,-0.9595959595959596 3.989898989898992,-1.0606060606060603 3.989898989898992,-1.1616161616161613 3.989898989898992,-1.2626262626262625 3.989898989898992,-1.363636363636363 3.989898989898992,-1.4646464646464643 3.989898989898992,-1.5656565656565653 3.989898989898992,-1.6666666666666665 3.989898989898992,-1.7676767676767675 3.989898989898992,-1.8686868686868683 3.989898989898992,-1.9696969696969693 3.989898989898992,-2.07070707070707 3.989898989898992,-2.1717171717171713 3.989898989898992,-2.2727272727272725 3.989898989898992,-2.3737373737373733 3.989898989898992,-2.474747474747474 3.989898989898992,-2.5757575757575752 3.989898989898992,-2.6767676767676765 3.989898989898992,-2.7777777777777777 3.989898989898992,-2.8787878787878785 3.989898989898992,-2.9797979797979792 3.989898989898992,-3.0808080808080804" data-type="line" data-label="" points="984,469.0909090909092 974.4646464646464,478.6262626262627 964.9292929292927,488.1616161616163 955.3939393939393,497.69696969696975 945.8585858585857,507.23232323232327 936.3232323232323,516.7676767676768 926.7878787878785,526.3030303030304 917.2525252525251,535.838383838384 907.7171717171716,545.3737373737374 898.181818181818,554.909090909091 888.6464646464647,564.4444444444445 888.6464646464647,573.979797979798 888.6464646464647,583.5151515151516 888.6464646464647,593.0505050505051 888.6464646464647,602.5858585858587 888.6464646464647,612.1212121212121 888.6464646464647,621.6565656565657 888.6464646464647,631.1919191919193 888.6464646464647,640.7272727272727 888.6464646464647,650.2626262626263 888.6464646464647,659.7979797979798 888.6464646464647,669.3333333333334 888.6464646464647,678.8686868686868 888.6464646464647,688.4040404040404 888.6464646464647,697.939393939394 888.6464646464647,707.4747474747475 888.6464646464647,717.010101010101 888.6464646464647,726.5454545454545 888.6464646464647,736.0808080808081 888.6464646464647,745.6161616161615 888.6464646464647,755.1515151515151 888.6464646464647,764.6868686868687 888.6464646464647,774.2222222222222 888.6464646464647,783.7575757575758 888.6464646464647,793.2929292929292 888.6464646464647,802.8282828282828" fill="none" stroke="rgba(255,0,0,0.75)" stroke-width="14.159999999999995"/></g><g><polyline data-points="3.989898989898992,-3.0808080808080804 3.989898989898992,-3.1818181818181817 3.989898989898992,-3.2828282828282824 3.989898989898992,-3.383838383838383 3.989898989898992,-3.484848484848485 3.989898989898992,-3.5858585858585856 3.989898989898992,-3.6868686868686864 3.989898989898992,-3.7878787878787876 3.989898989898992,-3.8888888888888884 3.989898989898992,-3.98989898989899 3.989898989898992,-4.090909090909091 3.989898989898992,-4.191919191919193 3.989898989898992,-4.292929292929293 3.989898989898992,-4.393939393939394 3.989898989898992,-4.494949494949496 3.989898989898992,-4.595959595959596 3.989898989898992,-4.696969696969697 3.989898989898992,-4.7979797979797985 3.989898989898992,-4.898989898989899 3.989898989898992,-5.000000000000001" data-type="line" data-label="" points="888.6464646464647,802.8282828282828 888.6464646464647,812.3636363636363 888.6464646464647,821.8989898989898 888.6464646464647,831.4343434343434 888.6464646464647,840.969696969697 888.6464646464647,850.5050505050505 888.6464646464647,860.0404040404039 888.6464646464647,869.5757575757575 888.6464646464647,879.1111111111111 888.6464646464647,888.6464646464647 888.6464646464647,898.1818181818181 888.6464646464647,907.7171717171718 888.6464646464647,917.2525252525252 888.6464646464647,926.7878787878788 888.6464646464647,936.3232323232323 888.6464646464647,945.8585858585858 888.6464646464647,955.3939393939394 888.6464646464647,964.9292929292928 888.6464646464647,974.4646464646464 888.6464646464647,984" fill="none" stroke="rgba(0,0,255,0.75)" stroke-width="14.159999999999995"/></g><g><polyline data-points="-5.000000000000001,2.2727272727272734 -4.898989898989899,2.373737373737375 -4.7979797979797985,2.4747474747474754 -4.696969696969697,2.575757575757577 -4.595959595959596,2.676767676767678 -4.494949494949496,2.7777777777777786 -4.393939393939394,2.87878787878788 -4.292929292929293,2.9797979797979806 -4.191919191919193,3.080808080808082 -4.090909090909091,3.181818181818183 -3.98989898989899,3.2828282828282833 -3.8888888888888884,3.383838383838384 -3.7878787878787876,3.4848484848484866 -3.6868686868686864,3.4848484848484866 -3.5858585858585856,3.4848484848484866 -3.484848484848485,3.4848484848484866 -3.383838383838383,3.4848484848484866 -3.2828282828282824,3.4848484848484866 -3.1818181818181817,3.4848484848484866 -3.0808080808080804,3.4848484848484866" data-type="line" data-label="" points="40.00000000000006,297.4545454545456 49.53535353535369,287.91919191919203 59.07070707070716,278.38383838383857 68.60606060606068,268.84848484848493 78.14141414141426,259.3131313131314 87.67676767676772,249.77777777777794 97.21212121212136,240.24242424242436 106.74747474747483,230.70707070707084 116.28282828282829,221.17171717171726 125.81818181818193,211.63636363636374 135.35353535353545,202.10101010101027 144.88888888888903,192.56565656565675 154.42424242424255,183.03030303030312 163.95959595959607,183.03030303030312 173.4949494949496,183.03030303030312 183.03030303030312,183.03030303030312 192.5656565656567,183.03030303030312 202.10101010101022,183.03030303030312 211.63636363636374,183.03030303030312 221.17171717171726,183.03030303030312" fill="none" stroke="rgba(0,0,255,0.75)" stroke-width="14.159999999999995"/></g><g><polyline data-points="-3.0808080808080804,3.4848484848484866 -2.9797979797979792,3.4848484848484866 -2.8787878787878785,3.4848484848484866 -2.7777777777777777,3.4848484848484866 -2.6767676767676765,3.4848484848484866 -2.5757575757575752,3.4848484848484866 -2.474747474747474,3.4848484848484866 -2.3737373737373733,3.5858585858585874 -2.2727272727272725,3.5858585858585874 -2.1717171717171713,3.5858585858585874 -2.07070707070707,3.5858585858585874 -1.9696969696969693,3.5858585858585874 -1.8686868686868683,3.5858585858585874 -1.7676767676767675,3.5858585858585874 -1.6666666666666665,3.5858585858585874 -1.5656565656565653,3.5858585858585874 -1.4646464646464643,3.5858585858585874 -1.363636363636363,3.5858585858585874 -1.2626262626262625,3.5858585858585874 -1.1616161616161613,3.5858585858585874 -1.0606060606060603,3.5858585858585874 -0.9595959595959596,3.5858585858585874 -0.8585858585858579,3.5858585858585874 -0.7575757575757572,3.5858585858585874 -0.6565656565656557,3.5858585858585874 -0.555555555555555,3.5858585858585874 -0.4545454545454544,3.5858585858585874 -0.35353535353535287,3.5858585858585874 -0.2525252525252522,3.5858585858585874 -0.15151515151515066,3.5858585858585874 -0.05050505050505001,3.5858585858585874 0.050505050505051545,3.5858585858585874 0.1515151515151522,3.5858585858585874 0.2525252525252529,3.5858585858585874 0.3535353535353544,3.5858585858585874 0.4545454545454551,3.5858585858585874 0.5555555555555567,3.5858585858585874 0.6565656565656574,3.5858585858585874 0.7575757575757579,3.5858585858585874 0.8585858585858596,3.5858585858585874 0.9595959595959602,3.5858585858585874 1.0606060606060617,3.5858585858585874 1.1616161616161622,3.5858585858585874 1.262626262626263,3.5858585858585874 1.3636363636363644,3.5858585858585874 1.4646464646464652,3.5858585858585874 1.5656565656565666,3.5858585858585874 1.6666666666666674,3.5858585858585874 1.767676767676768,3.5858585858585874 1.8686868686868696,3.5858585858585874 1.9696969696969702,3.5858585858585874 2.070707070707072,3.5858585858585874 2.1717171717171726,3.5858585858585874 2.2727272727272734,3.5858585858585874 2.373737373737375,3.5858585858585874 2.4747474747474754,3.5858585858585874 2.575757575757577,3.5858585858585874 2.676767676767678,3.5858585858585874 2.7777777777777786,3.5858585858585874 2.87878787878788,3.5858585858585874 2.9797979797979806,3.5858585858585874 3.080808080808082,3.5858585858585874 3.181818181818183,3.5858585858585874 3.2828282828282833,3.5858585858585874 3.383838383838384,3.5858585858585874 3.4848484848484866,3.5858585858585874 3.5858585858585874,3.5858585858585874 3.6868686868686877,3.5858585858585874 3.7878787878787885,3.5858585858585874 3.8888888888888893,3.5858585858585874 3.989898989898992,3.5858585858585874 4.090909090909092,3.5858585858585874 4.191919191919193,3.5858585858585874 4.292929292929293,3.5858585858585874 4.393939393939394,3.5858585858585874 4.494949494949497,3.5858585858585874 4.595959595959597,3.5858585858585874 4.696969696969697,3.5858585858585874 4.7979797979797985,3.5858585858585874 4.898989898989901,3.5858585858585874 5.000000000000002,3.5858585858585874" data-type="line" data-label="" points="221.17171717171726,183.03030303030312 230.70707070707084,183.03030303030312 240.2424242424243,183.03030303030312 249.77777777777783,183.03030303030312 259.3131313131314,183.03030303030312 268.84848484848493,183.03030303030312 278.38383838383845,183.03030303030312 287.91919191919203,173.4949494949496 297.4545454545455,173.4949494949496 306.9898989898991,173.4949494949496 316.5252525252526,173.4949494949496 326.0606060606061,173.4949494949496 335.59595959595964,173.4949494949496 345.13131313131316,173.4949494949496 354.6666666666667,173.4949494949496 364.2020202020202,173.4949494949496 373.7373737373738,173.4949494949496 383.2727272727273,173.4949494949496 392.80808080808083,173.4949494949496 402.34343434343435,173.4949494949496 411.8787878787879,173.4949494949496 421.4141414141414,173.4949494949496 430.949494949495,173.4949494949496 440.4848484848485,173.4949494949496 450.0202020202021,173.4949494949496 459.55555555555554,173.4949494949496 469.09090909090907,173.4949494949496 478.62626262626264,173.4949494949496 488.16161616161617,173.4949494949496 497.69696969696975,173.4949494949496 507.2323232323232,173.4949494949496 516.7676767676768,173.4949494949496 526.3030303030303,173.4949494949496 535.8383838383838,173.4949494949496 545.3737373737374,173.4949494949496 554.9090909090909,173.4949494949496 564.4444444444445,173.4949494949496 573.9797979797979,173.4949494949496 583.5151515151515,173.4949494949496 593.0505050505051,173.4949494949496 602.5858585858585,173.4949494949496 612.1212121212121,173.4949494949496 621.6565656565656,173.4949494949496 631.1919191919192,173.4949494949496 640.7272727272727,173.4949494949496 650.2626262626262,173.4949494949496 659.7979797979798,173.4949494949496 669.3333333333333,173.4949494949496 678.8686868686868,173.4949494949496 688.4040404040404,173.4949494949496 697.9393939393939,173.4949494949496 707.4747474747475,173.4949494949496 717.0101010101009,173.4949494949496 726.5454545454545,173.4949494949496 736.0808080808081,173.4949494949496 745.6161616161615,173.4949494949496 755.1515151515151,173.4949494949496 764.6868686868686,173.4949494949496 774.2222222222222,173.4949494949496 783.7575757575758,173.4949494949496 793.2929292929292,173.4949494949496 802.8282828282828,173.4949494949496 812.3636363636363,173.4949494949496 821.8989898989898,173.4949494949496 831.4343434343433,173.4949494949496 840.969696969697,173.4949494949496 850.5050505050505,173.4949494949496 860.0404040404039,173.4949494949496 869.5757575757575,173.4949494949496 879.111111111111,173.4949494949496 888.6464646464647,173.4949494949496 898.181818181818,173.4949494949496 907.7171717171716,173.4949494949496 917.2525252525251,173.4949494949496 926.7878787878785,173.4949494949496 936.3232323232323,173.4949494949496 945.8585858585857,173.4949494949496 955.3939393939393,173.4949494949496 964.9292929292927,173.4949494949496 974.4646464646464,173.4949494949496 984,173.4949494949496" fill="none" stroke="rgba(255,0,0,0.75)" stroke-width="14.159999999999995"/></g><g><rect data-type="rect" data-label="" data-x="0" data-y="0" x="40.000000000000114" y="40.000000000000284" width="943.9999999999997" height="943.9999999999998" fill="none" stroke="gray" stroke-width="0.010593220338983056"/></g><g><rect data-type="rect" data-label="" data-x="0" data-y="0" x="40.000000000000114" y="40.000000000000284" width="943.9999999999997" height="943.9999999999998" fill="none" stroke="rgba(15, 23, 42, 0.8)" stroke-width="0.010593220338983056"/></g><circle data-type="circle" data-label="" data-x="-2.474747474747474" data-y="3.989898989898992" cx="278.38383838383845" cy="135.35353535353545" r="28.791999999999987" fill="rgba(0,0,0,0.3)" stroke="black" stroke-width="0.010593220338983056"/><circle data-type="circle" data-label="" data-x="-3.98989898989899" data-y="1.9696969696969702" cx="135.35353535353545" cy="326.06060606060623" r="28.791999999999987" fill="rgba(0,0,0,0.3)" stroke="black" stroke-width="0.010593220338983056"/><circle data-type="circle" data-label="" data-x="3.989898989898992" data-y="-3.0808080808080804" cx="888.6464646464647" cy="802.8282828282828" r="28.791999999999987" fill="rgba(0,0,0,0.3)" stroke="black" stroke-width="0.010593220338983056"/><circle data-type="circle" data-label="" data-x="-3.0808080808080804" data-y="3.4848484848484866" cx="221.17171717171726" cy="183.03030303030312" r="28.791999999999987" fill="rgba(0,0,0,0.3)" stroke="black" stroke-width="0.010593220338983056"/><g id="crosshair" style="display: none"><line id="crosshair-h" y1="0" y2="1024" stroke="#666" stroke-width="0.5"/><line id="crosshair-v" x1="0" x2="1024" stroke="#666" stroke-width="0.5"/><text id="coordinates" font-family="monospace" font-size="12" fill="#666"></text></g><script><![CDATA[
              document.currentScript.parentElement.addEventListener('mousemove', (e) => {
                const svg = e.currentTarget;
                const rect = svg.getBoundingClientRect();
                const x = e.clientX - rect.left;
                const y = e.clientY - rect.top;
                const crosshair = svg.getElementById('crosshair');
                const h = svg.getElementById('crosshair-h');
                const v = svg.getElementById('crosshair-v');
                const coords = svg.getElementById('coordinates');
                
                crosshair.style.display = 'block';
                h.setAttribute('x1', '0');
                h.setAttribute('x2', '1024');
                h.setAttribute('y1', y);
                h.setAttribute('y2', y);
                v.setAttribute('x1', x);
                v.setAttribute('x2', x);
                v.setAttribute('y1', '0');
                v.setAttribute('y2', '1024');

                // Calculate real coordinates using inverse transformation
                const matrix = {"a":94.39999999999996,"c":0,"e":511.99999999999994,"b":0,"d":-94.39999999999996,"f":512.0000000000001};
                // Manually invert and apply the affine transform
                // Since we only use translate and scale, we can directly compute:
                // x' = (x - tx) / sx
                // y' = (y - ty) / sy
                const sx = matrix.a;
                const sy = matrix.d;
                const tx = matrix.e; 
                const ty = matrix.f;
                const realPoint = {
                  x: (x - tx) / sx,
                  y: (y - ty) / sy // Flip y back since we used negative scale
                }
                
                coords.textContent = `(${realPoint.x.toFixed(2)}, ${realPoint.y.toFixed(2)})`;
                coords.setAttribute('x', (x + 5).toString());
                coords.setAttribute('y', (y - 5).toString());
              });
              document.currentScript.parentElement.addEventListener('mouseleave', () => {
                document.currentScript.parentElement.getElementById('crosshair').style.display = 'none';
              });
            ]]></script></svg>