<svg width="1024" height="1024" viewBox="0 0 1024 1024" xmlns="http://www.w3.org/2000/svg"><rect width="100%" height="100%" fill="white"/><g><circle data-type="point" data-label="conn_000" data-x="2.46" data-y="-5" cx="744.2239999999998" cy="984" r="28.792" fill="blue" stroke="#0fbd42" stroke-width="28.792"/></g><g><circle data-type="point" data-label="conn_000" data-x="4.04" data-y="5" cx="893.3759999999997" cy="40.000000000000284" r="28.792" fill="red" stroke="#0fbd42" stroke-width="28.792"/></g><g><circle data-type="point" data-label="conn_001" data-x="1.6600000000000001" data-y="-5" cx="668.704" cy="984" r="28.792" fill="blue" stroke="#740fbd" stroke-width="28.792"/></g><g><circle data-type="point" data-label="conn_001" data-x="0.12" data-y="5" cx="523.328" cy="40.000000000000284" r="28.792" fill="blue" stroke="#740fbd" stroke-width="28.792"/></g><g><circle data-type="point" data-label="conn_002" data-x="4.48" data-y="-5" cx="934.9119999999998" cy="984" r="28.792" fill="blue" stroke="#bda70f" stroke-width="28.792"/></g><g><circle data-type="point" data-label="conn_002" data-x="-3.44" data-y="-5" cx="187.26400000000007" cy="984" r="28.792" fill="red" stroke="#bda70f" stroke-width="28.792"/></g><g><circle data-type="point" data-label="conn_003" data-x="-1.2" data-y="-5" cx="398.71999999999997" cy="984" r="28.792" fill="blue" stroke="#0fa0bd" stroke-width="28.792"/></g><g><circle data-type="point" data-label="conn_003" data-x="2.1" data-y="5" cx="710.2399999999999" cy="40.000000000000284" r="28.792" fill="blue" stroke="#0fa0bd" stroke-width="28.792"/></g><g><circle data-type="point" data-label="conn_004" data-x="-5" data-y="-3.86" cx="40.000000000000114" cy="876.384" r="28.792" fill="blue" stroke="#bd0f6d" stroke-width="28.792"/></g><g><circle data-type="point" data-label="conn_004" data-x="5" data-y="0.68" cx="983.9999999999998" cy="447.8080000000001" r="28.792" fill="blue" stroke="#bd0f6d" stroke-width="28.792"/></g><g><circle data-type="point" data-label="conn_005" data-x="5" data-y="-2.94" cx="983.9999999999998" cy="789.5360000000001" r="28.792" fill="red" stroke="#3bbd0f" stroke-width="28.792"/></g><g><circle data-type="point" data-label="conn_005" data-x="-5" data-y="1.6" cx="40.000000000000114" cy="360.96000000000015" r="28.792" fill="red" stroke="#3bbd0f" stroke-width="28.792"/></g><g><circle data-type="point" data-label="conn_006" data-x="5" data-y="-2.32" cx="983.9999999999998" cy="731.008" r="28.792" fill="red" stroke="#170fbd" stroke-width="28.792"/></g><g><circle data-type="point" data-label="conn_006" data-x="5" data-y="3.92" cx="983.9999999999998" cy="141.95200000000028" r="28.792" fill="red" stroke="#170fbd" stroke-width="28.792"/></g><g><circle data-type="point" data-label="conn_007" data-x="-5" data-y="-3.04" cx="40.000000000000114" cy="798.976" r="28.792" fill="blue" stroke="#bd490f" stroke-width="28.792"/></g><g><circle data-type="point" data-label="conn_007" data-x="-2.2800000000000002" data-y="5" cx="296.76800000000003" cy="40.000000000000284" r="28.792" fill="blue" stroke="#bd490f" stroke-width="28.792"/></g><g><polyline data-points="-1.2626262626262625,-5.000000000000001 -1.1616161616161613,-4.898989898989899 -1.0606060606060603,-4.7979797979797985 -0.9595959595959596,-4.696969696969697 -0.8585858585858579,-4.595959595959596 -0.7575757575757572,-4.494949494949496 -0.6565656565656557,-4.393939393939394 -0.555555555555555,-4.292929292929293 -0.4545454545454544,-4.191919191919193 -0.35353535353535287,-4.090909090909091 -0.2525252525252522,-3.98989898989899 -0.15151515151515066,-3.8888888888888884 -0.05050505050505001,-3.7878787878787876 0.050505050505051545,-3.6868686868686864 0.1515151515151522,-3.5858585858585856 0.2525252525252529,-3.484848484848485 0.3535353535353544,-3.383838383838383 0.4545454545454551,-3.2828282828282824 0.5555555555555567,-3.1818181818181817 0.6565656565656574,-3.0808080808080804 0.7575757575757579,-2.9797979797979792 0.8585858585858596,-2.8787878787878785 0.9595959595959602,-2.7777777777777777 1.0606060606060617,-2.6767676767676765 1.1616161616161622,-2.5757575757575752 1.262626262626263,-2.474747474747474 1.3636363636363644,-2.3737373737373733 1.4646464646464652,-2.2727272727272725 1.5656565656565666,-2.1717171717171713 1.6666666666666674,-2.07070707070707 1.767676767676768,-1.9696969696969693 1.8686868686868696,-1.8686868686868683 1.9696969696969702,-1.7676767676767675 2.070707070707072,-1.6666666666666665 2.070707070707072,-1.5656565656565653 2.070707070707072,-1.4646464646464643 2.070707070707072,-1.363636363636363 2.070707070707072,-1.2626262626262625 2.070707070707072,-1.1616161616161613 2.070707070707072,-1.0606060606060603 2.070707070707072,-0.9595959595959596 2.070707070707072,-0.8585858585858579 2.070707070707072,-0.7575757575757572 2.070707070707072,-0.6565656565656557 2.070707070707072,-0.555555555555555 2.070707070707072,-0.4545454545454544 2.070707070707072,-0.35353535353535287 2.070707070707072,-0.2525252525252522 2.070707070707072,-0.15151515151515066 2.070707070707072,-0.05050505050505001 2.070707070707072,0.050505050505051545 2.070707070707072,0.1515151515151522 2.070707070707072,0.2525252525252529 2.070707070707072,0.3535353535353544 2.070707070707072,0.4545454545454551 2.070707070707072,0.5555555555555567 2.070707070707072,0.6565656565656574 2.070707070707072,0.7575757575757579 2.070707070707072,0.8585858585858596 2.070707070707072,0.9595959595959602 2.070707070707072,1.0606060606060617 2.070707070707072,1.1616161616161622 2.070707070707072,1.262626262626263 2.070707070707072,1.3636363636363644 2.070707070707072,1.4646464646464652 2.070707070707072,1.5656565656565666 2.070707070707072,1.6666666666666674 2.070707070707072,1.767676767676768 2.070707070707072,1.8686868686868696 2.070707070707072,1.9696969696969702 2.070707070707072,2.070707070707072 2.070707070707072,2.1717171717171726 2.070707070707072,2.2727272727272734 2.070707070707072,2.373737373737375 2.070707070707072,2.4747474747474754 2.070707070707072,2.575757575757577 2.070707070707072,2.676767676767678 2.070707070707072,2.7777777777777786 2.070707070707072,2.87878787878788 2.070707070707072,2.9797979797979806 2.070707070707072,3.080808080808082 2.070707070707072,3.181818181818183 2.070707070707072,3.2828282828282833 2.070707070707072,3.383838383838384 2.070707070707072,3.4848484848484866 2.070707070707072,3.5858585858585874 2.070707070707072,3.6868686868686877 2.070707070707072,3.7878787878787885 2.070707070707072,3.8888888888888893 2.070707070707072,3.989898989898992 2.070707070707072,4.090909090909092 2.070707070707072,4.191919191919193 2.070707070707072,4.292929292929293 2.070707070707072,4.393939393939394 2.070707070707072,4.494949494949497 2.070707070707072,4.595959595959597 2.070707070707072,4.696969696969697 2.070707070707072,4.7979797979797985 2.070707070707072,4.898989898989901 2.070707070707072,5.000000000000002" data-type="line" data-label="" points="392.80808080808083,984 402.34343434343435,974.4646464646464 411.8787878787879,964.9292929292928 421.4141414141414,955.3939393939394 430.949494949495,945.8585858585858 440.4848484848485,936.3232323232323 450.0202020202021,926.7878787878788 459.55555555555554,917.2525252525252 469.09090909090907,907.7171717171718 478.62626262626264,898.1818181818181 488.16161616161617,888.6464646464647 497.69696969696975,879.1111111111111 507.2323232323232,869.5757575757575 516.7676767676768,860.0404040404039 526.3030303030303,850.5050505050505 535.8383838383838,840.969696969697 545.3737373737374,831.4343434343434 554.9090909090909,821.8989898989898 564.4444444444445,812.3636363636363 573.9797979797979,802.8282828282828 583.5151515151515,793.2929292929292 593.0505050505051,783.7575757575758 602.5858585858585,774.2222222222222 612.1212121212121,764.6868686868687 621.6565656565656,755.1515151515151 631.1919191919192,745.6161616161615 640.7272727272727,736.0808080808081 650.2626262626262,726.5454545454545 659.7979797979798,717.010101010101 669.3333333333333,707.4747474747475 678.8686868686868,697.939393939394 688.4040404040404,688.4040404040404 697.9393939393939,678.8686868686868 707.4747474747475,669.3333333333334 707.4747474747475,659.7979797979798 707.4747474747475,650.2626262626263 707.4747474747475,640.7272727272727 707.4747474747475,631.1919191919193 707.4747474747475,621.6565656565657 707.4747474747475,612.1212121212121 707.4747474747475,602.5858585858587 707.4747474747475,593.0505050505051 707.4747474747475,583.5151515151516 707.4747474747475,573.979797979798 707.4747474747475,564.4444444444445 707.4747474747475,554.909090909091 707.4747474747475,545.3737373737374 707.4747474747475,535.838383838384 707.4747474747475,526.3030303030304 707.4747474747475,516.7676767676768 707.4747474747475,507.23232323232327 707.4747474747475,497.69696969696975 707.4747474747475,488.1616161616163 707.4747474747475,478.6262626262627 707.4747474747475,469.0909090909092 707.4747474747475,459.5555555555556 707.4747474747475,450.0202020202021 707.4747474747475,440.4848484848486 707.4747474747475,430.94949494949503 707.4747474747475,421.4141414141415 707.4747474747475,411.87878787878793 707.4747474747475,402.3434343434344 707.4747474747475,392.80808080808094 707.4747474747475,383.27272727272737 707.4747474747475,373.73737373737384 707.4747474747475,364.2020202020203 707.4747474747475,354.66666666666674 707.4747474747475,345.1313131313133 707.4747474747475,335.5959595959597 707.4747474747475,326.06060606060623 707.4747474747475,316.5252525252526 707.4747474747475,306.9898989898991 707.4747474747475,297.4545454545456 707.4747474747475,287.91919191919203 707.4747474747475,278.38383838383857 707.4747474747475,268.84848484848493 707.4747474747475,259.3131313131314 707.4747474747475,249.77777777777794 707.4747474747475,240.24242424242436 707.4747474747475,230.70707070707084 707.4747474747475,221.17171717171726 707.4747474747475,211.63636363636374 707.4747474747475,202.10101010101027 707.4747474747475,192.56565656565675 707.4747474747475,183.03030303030312 707.4747474747475,173.4949494949496 707.4747474747475,163.95959595959613 707.4747474747475,154.4242424242426 707.4747474747475,144.88888888888908 707.4747474747475,135.35353535353545 707.4747474747475,125.81818181818198 707.4747474747475,116.28282828282846 707.4747474747475,106.747474747475 707.4747474747475,97.21212121212153 707.4747474747475,87.67676767676778 707.4747474747475,78.14141414141432 707.4747474747475,68.60606060606085 707.4747474747475,59.07070707070733 707.4747474747475,49.53535353535369 707.4747474747475,40.000000000000114" fill="none" stroke="rgba(0,0,255,0.75)" stroke-width="14.159999999999995"/></g><g><polyline data-points="5.000000000000002,-2.9797979797979792 4.898989898989901,-2.8787878787878785 4.7979797979797985,-2.7777777777777777 4.696969696969697,-2.6767676767676765 4.595959595959597,-2.5757575757575752 4.494949494949497,-2.474747474747474 4.393939393939394,-2.3737373737373733 4.292929292929293,-2.2727272727272725 4.191919191919193,-2.1717171717171713 4.090909090909092,-2.07070707070707 3.989898989898992,-1.9696969696969693 3.8888888888888893,-1.8686868686868683 3.7878787878787885,-1.7676767676767675 3.6868686868686877,-1.6666666666666665 3.5858585858585874,-1.5656565656565653 3.4848484848484866,-1.4646464646464643 3.383838383838384,-1.363636363636363 3.2828282828282833,-1.2626262626262625 3.181818181818183,-1.1616161616161613 3.080808080808082,-1.0606060606060603 2.9797979797979806,-0.9595959595959596 2.87878787878788,-0.8585858585858579 2.7777777777777786,-0.7575757575757572 2.676767676767678,-0.6565656565656557 2.575757575757577,-0.555555555555555 2.4747474747474754,-0.4545454545454544 2.373737373737375,-0.35353535353535287 2.2727272727272734,-0.2525252525252522 2.1717171717171726,-0.15151515151515066 2.070707070707072,-0.05050505050505001 1.9696969696969702,0.050505050505051545 1.8686868686868696,0.1515151515151522 1.767676767676768,0.2525252525252529 1.6666666666666674,0.3535353535353544 1.5656565656565666,0.4545454545454551 1.4646464646464652,0.5555555555555567 1.3636363636363644,0.6565656565656574 1.262626262626263,0.7575757575757579 1.1616161616161622,0.8585858585858596 1.0606060606060617,0.9595959595959602 0.9595959595959602,1.0606060606060617 0.8585858585858596,1.1616161616161622 0.7575757575757579,1.262626262626263 0.6565656565656574,1.3636363636363644 0.5555555555555567,1.4646464646464652 0.4545454545454551,1.5656565656565666 0.3535353535353544,1.5656565656565666 0.2525252525252529,1.5656565656565666 0.1515151515151522,1.5656565656565666 0.050505050505051545,1.5656565656565666 -0.05050505050505001,1.5656565656565666 -0.15151515151515066,1.5656565656565666 -0.2525252525252522,1.5656565656565666 -0.35353535353535287,1.5656565656565666 -0.4545454545454544,1.5656565656565666 -0.555555555555555,1.5656565656565666 -0.6565656565656557,1.5656565656565666 -0.7575757575757572,1.5656565656565666 -0.8585858585858579,1.5656565656565666 -0.9595959595959596,1.5656565656565666 -1.0606060606060603,1.5656565656565666 -1.1616161616161613,1.5656565656565666 -1.2626262626262625,1.5656565656565666 -1.363636363636363,1.5656565656565666 -1.4646464646464643,1.5656565656565666 -1.5656565656565653,1.5656565656565666 -1.6666666666666665,1.5656565656565666 -1.7676767676767675,1.5656565656565666 -1.8686868686868683,1.5656565656565666 -1.9696969696969693,1.5656565656565666 -2.07070707070707,1.5656565656565666 -2.1717171717171713,1.5656565656565666 -2.2727272727272725,1.5656565656565666 -2.3737373737373733,1.5656565656565666 -2.474747474747474,1.5656565656565666 -2.5757575757575752,1.5656565656565666 -2.6767676767676765,1.5656565656565666 -2.7777777777777777,1.5656565656565666 -2.8787878787878785,1.5656565656565666 -2.9797979797979792,1.5656565656565666 -3.0808080808080804,1.5656565656565666 -3.1818181818181817,1.5656565656565666 -3.2828282828282824,1.5656565656565666 -3.383838383838383,1.5656565656565666 -3.484848484848485,1.5656565656565666 -3.5858585858585856,1.5656565656565666 -3.6868686868686864,1.5656565656565666 -3.7878787878787876,1.5656565656565666 -3.8888888888888884,1.5656565656565666 -3.98989898989899,1.5656565656565666 -4.090909090909091,1.5656565656565666 -4.191919191919193,1.5656565656565666 -4.292929292929293,1.5656565656565666 -4.393939393939394,1.5656565656565666 -4.494949494949496,1.5656565656565666 -4.595959595959596,1.5656565656565666 -4.696969696969697,1.5656565656565666 -4.7979797979797985,1.5656565656565666 -4.898989898989899,1.5656565656565666 -5.000000000000001,1.5656565656565666" data-type="line" data-label="" points="984,793.2929292929292 974.4646464646464,783.7575757575758 964.9292929292927,774.2222222222222 955.3939393939393,764.6868686868687 945.8585858585857,755.1515151515151 936.3232323232323,745.6161616161615 926.7878787878785,736.0808080808081 917.2525252525251,726.5454545454545 907.7171717171716,717.010101010101 898.181818181818,707.4747474747475 888.6464646464647,697.939393939394 879.111111111111,688.4040404040404 869.5757575757575,678.8686868686868 860.0404040404039,669.3333333333334 850.5050505050505,659.7979797979798 840.969696969697,650.2626262626263 831.4343434343433,640.7272727272727 821.8989898989898,631.1919191919193 812.3636363636363,621.6565656565657 802.8282828282828,612.1212121212121 793.2929292929292,602.5858585858587 783.7575757575758,593.0505050505051 774.2222222222222,583.5151515151516 764.6868686868686,573.979797979798 755.1515151515151,564.4444444444445 745.6161616161615,554.909090909091 736.0808080808081,545.3737373737374 726.5454545454545,535.838383838384 717.0101010101009,526.3030303030304 707.4747474747475,516.7676767676768 697.9393939393939,507.23232323232327 688.4040404040404,497.69696969696975 678.8686868686868,488.1616161616163 669.3333333333333,478.6262626262627 659.7979797979798,469.0909090909092 650.2626262626262,459.5555555555556 640.7272727272727,450.0202020202021 631.1919191919192,440.4848484848486 621.6565656565656,430.94949494949503 612.1212121212121,421.4141414141415 602.5858585858585,411.87878787878793 593.0505050505051,402.3434343434344 583.5151515151515,392.80808080808094 573.9797979797979,383.27272727272737 564.4444444444445,373.73737373737384 554.9090909090909,364.2020202020203 545.3737373737374,364.2020202020203 535.8383838383838,364.2020202020203 526.3030303030303,364.2020202020203 516.7676767676768,364.2020202020203 507.2323232323232,364.2020202020203 497.69696969696975,364.2020202020203 488.16161616161617,364.2020202020203 478.62626262626264,364.2020202020203 469.09090909090907,364.2020202020203 459.55555555555554,364.2020202020203 450.0202020202021,364.2020202020203 440.4848484848485,364.2020202020203 430.949494949495,364.2020202020203 421.4141414141414,364.2020202020203 411.8787878787879,364.2020202020203 402.34343434343435,364.2020202020203 392.80808080808083,364.2020202020203 383.2727272727273,364.2020202020203 373.7373737373738,364.2020202020203 364.2020202020202,364.2020202020203 354.6666666666667,364.2020202020203 345.13131313131316,364.2020202020203 335.59595959595964,364.2020202020203 326.0606060606061,364.2020202020203 316.5252525252526,364.2020202020203 306.9898989898991,364.2020202020203 297.4545454545455,364.2020202020203 287.91919191919203,364.2020202020203 278.38383838383845,364.2020202020203 268.84848484848493,364.2020202020203 259.3131313131314,364.2020202020203 249.77777777777783,364.2020202020203 240.2424242424243,364.2020202020203 230.70707070707084,364.2020202020203 221.17171717171726,364.2020202020203 211.63636363636374,364.2020202020203 202.10101010101022,364.2020202020203 192.5656565656567,364.2020202020203 183.03030303030312,364.2020202020203 173.4949494949496,364.2020202020203 163.95959595959607,364.2020202020203 154.42424242424255,364.2020202020203 144.88888888888903,364.2020202020203 135.35353535353545,364.2020202020203 125.81818181818193,364.2020202020203 116.28282828282829,364.2020202020203 106.74747474747483,364.2020202020203 97.21212121212136,364.2020202020203 87.67676767676772,364.2020202020203 78.14141414141426,364.2020202020203 68.60606060606068,364.2020202020203 59.07070707070716,364.2020202020203 49.53535353535369,364.2020202020203 40.00000000000006,364.2020202020203" fill="none" stroke="rgba(255,0,0,0.75)" stroke-width="14.159999999999995"/></g><g><polyline data-points="1.6666666666666674,-5.000000000000001 1.5656565656565666,-4.898989898989899 1.4646464646464652,-4.7979797979797985 1.3636363636363644,-4.696969696969697 1.262626262626263,-4.595959595959596 1.1616161616161622,-4.494949494949496 1.0606060606060617,-4.393939393939394 0.9595959595959602,-4.292929292929293 0.8585858585858596,-4.191919191919193 0.7575757575757579,-4.090909090909091 0.6565656565656574,-3.98989898989899" data-type="line" data-label="" points="669.3333333333333,984 659.7979797979798,974.4646464646464 650.2626262626262,964.9292929292928 640.7272727272727,955.3939393939394 631.1919191919192,945.8585858585858 621.6565656565656,936.3232323232323 612.1212121212121,926.7878787878788 602.5858585858585,917.2525252525252 593.0505050505051,907.7171717171718 583.5151515151515,898.1818181818181 573.9797979797979,888.6464646464647" fill="none" stroke="rgba(0,0,255,0.75)" stroke-width="14.159999999999995"/></g><g><polyline data-points="0.6565656565656574,-3.98989898989899 0.5555555555555567,-3.8888888888888884 0.4545454545454551,-3.7878787878787876 0.3535353535353544,-3.6868686868686864 0.2525252525252529,-3.5858585858585856 0.1515151515151522,-3.484848484848485 0.1515151515151522,-3.383838383838383 0.1515151515151522,-3.2828282828282824 0.1515151515151522,-3.1818181818181817 0.1515151515151522,-3.0808080808080804 0.1515151515151522,-2.9797979797979792 0.1515151515151522,-2.8787878787878785 0.1515151515151522,-2.7777777777777777 0.1515151515151522,-2.6767676767676765 0.1515151515151522,-2.5757575757575752 0.1515151515151522,-2.474747474747474 0.1515151515151522,-2.3737373737373733 0.1515151515151522,-2.2727272727272725 0.1515151515151522,-2.1717171717171713 0.1515151515151522,-2.07070707070707 0.1515151515151522,-1.9696969696969693 0.1515151515151522,-1.8686868686868683 0.1515151515151522,-1.7676767676767675 0.1515151515151522,-1.6666666666666665 0.1515151515151522,-1.5656565656565653 0.1515151515151522,-1.4646464646464643 0.1515151515151522,-1.363636363636363 0.1515151515151522,-1.2626262626262625 0.1515151515151522,-1.1616161616161613 0.1515151515151522,-1.0606060606060603 0.1515151515151522,-0.9595959595959596 0.1515151515151522,-0.8585858585858579 0.1515151515151522,-0.7575757575757572 0.1515151515151522,-0.6565656565656557 0.1515151515151522,-0.555555555555555 0.1515151515151522,-0.4545454545454544 0.1515151515151522,-0.35353535353535287 0.1515151515151522,-0.2525252525252522 0.1515151515151522,-0.15151515151515066 0.1515151515151522,-0.05050505050505001 0.1515151515151522,0.050505050505051545 0.1515151515151522,0.1515151515151522 0.1515151515151522,0.2525252525252529 0.1515151515151522,0.3535353535353544 0.1515151515151522,0.4545454545454551 0.1515151515151522,0.5555555555555567 0.1515151515151522,0.6565656565656574 0.1515151515151522,0.7575757575757579 0.1515151515151522,0.8585858585858596 0.1515151515151522,0.9595959595959602" data-type="line" data-label="" points="573.9797979797979,888.6464646464647 564.4444444444445,879.1111111111111 554.9090909090909,869.5757575757575 545.3737373737374,860.0404040404039 535.8383838383838,850.5050505050505 526.3030303030303,840.969696969697 526.3030303030303,831.4343434343434 526.3030303030303,821.8989898989898 526.3030303030303,812.3636363636363 526.3030303030303,802.8282828282828 526.3030303030303,793.2929292929292 526.3030303030303,783.7575757575758 526.3030303030303,774.2222222222222 526.3030303030303,764.6868686868687 526.3030303030303,755.1515151515151 526.3030303030303,745.6161616161615 526.3030303030303,736.0808080808081 526.3030303030303,726.5454545454545 526.3030303030303,717.010101010101 526.3030303030303,707.4747474747475 526.3030303030303,697.939393939394 526.3030303030303,688.4040404040404 526.3030303030303,678.8686868686868 526.3030303030303,669.3333333333334 526.3030303030303,659.7979797979798 526.3030303030303,650.2626262626263 526.3030303030303,640.7272727272727 526.3030303030303,631.1919191919193 526.3030303030303,621.6565656565657 526.3030303030303,612.1212121212121 526.3030303030303,602.5858585858587 526.3030303030303,593.0505050505051 526.3030303030303,583.5151515151516 526.3030303030303,573.979797979798 526.3030303030303,564.4444444444445 526.3030303030303,554.909090909091 526.3030303030303,545.3737373737374 526.3030303030303,535.838383838384 526.3030303030303,526.3030303030304 526.3030303030303,516.7676767676768 526.3030303030303,507.23232323232327 526.3030303030303,497.69696969696975 526.3030303030303,488.1616161616163 526.3030303030303,478.6262626262627 526.3030303030303,469.0909090909092 526.3030303030303,459.5555555555556 526.3030303030303,450.0202020202021 526.3030303030303,440.4848484848486 526.3030303030303,430.94949494949503 526.3030303030303,421.4141414141415" fill="none" stroke="rgba(255,0,0,0.75)" stroke-width="14.159999999999995"/></g><g><polyline data-points="0.1515151515151522,0.9595959595959602 0.1515151515151522,1.0606060606060617 0.1515151515151522,1.1616161616161622 0.1515151515151522,1.262626262626263 0.1515151515151522,1.3636363636363644 0.1515151515151522,1.4646464646464652 0.1515151515151522,1.5656565656565666 0.1515151515151522,1.6666666666666674 0.1515151515151522,1.767676767676768 0.1515151515151522,1.8686868686868696 0.1515151515151522,1.9696969696969702 0.1515151515151522,2.070707070707072 0.1515151515151522,2.1717171717171726 0.1515151515151522,2.2727272727272734 0.1515151515151522,2.373737373737375 0.1515151515151522,2.4747474747474754 0.1515151515151522,2.575757575757577 0.1515151515151522,2.676767676767678 0.1515151515151522,2.7777777777777786 0.1515151515151522,2.87878787878788 0.1515151515151522,2.9797979797979806 0.1515151515151522,3.080808080808082 0.1515151515151522,3.181818181818183 0.1515151515151522,3.2828282828282833 0.1515151515151522,3.383838383838384 0.1515151515151522,3.4848484848484866 0.1515151515151522,3.5858585858585874 0.1515151515151522,3.6868686868686877 0.1515151515151522,3.7878787878787885 0.1515151515151522,3.8888888888888893 0.1515151515151522,3.989898989898992 0.1515151515151522,4.090909090909092 0.1515151515151522,4.191919191919193 0.1515151515151522,4.292929292929293 0.1515151515151522,4.393939393939394 0.1515151515151522,4.494949494949497 0.1515151515151522,4.595959595959597 0.1515151515151522,4.696969696969697 0.1515151515151522,4.7979797979797985 0.1515151515151522,4.898989898989901 0.1515151515151522,5.000000000000002" data-type="line" data-label="" points="526.3030303030303,421.4141414141415 526.3030303030303,411.87878787878793 526.3030303030303,402.3434343434344 526.3030303030303,392.80808080808094 526.3030303030303,383.27272727272737 526.3030303030303,373.73737373737384 526.3030303030303,364.2020202020203 526.3030303030303,354.66666666666674 526.3030303030303,345.1313131313133 526.3030303030303,335.5959595959597 526.3030303030303,326.06060606060623 526.3030303030303,316.5252525252526 526.3030303030303,306.9898989898991 526.3030303030303,297.4545454545456 526.3030303030303,287.91919191919203 526.3030303030303,278.38383838383857 526.3030303030303,268.84848484848493 526.3030303030303,259.3131313131314 526.3030303030303,249.77777777777794 526.3030303030303,240.24242424242436 526.3030303030303,230.70707070707084 526.3030303030303,221.17171717171726 526.3030303030303,211.63636363636374 526.3030303030303,202.10101010101027 526.3030303030303,192.56565656565675 526.3030303030303,183.03030303030312 526.3030303030303,173.4949494949496 526.3030303030303,163.95959595959613 526.3030303030303,154.4242424242426 526.3030303030303,144.88888888888908 526.3030303030303,135.35353535353545 526.3030303030303,125.81818181818198 526.3030303030303,116.28282828282846 526.3030303030303,106.747474747475 526.3030303030303,97.21212121212153 526.3030303030303,87.67676767676778 526.3030303030303,78.14141414141432 526.3030303030303,68.60606060606085 526.3030303030303,59.07070707070733 526.3030303030303,49.53535353535369 526.3030303030303,40.000000000000114" fill="none" stroke="rgba(0,0,255,0.75)" stroke-width="14.159999999999995"/></g><g><polyline data-points="-5.000000000000001,-3.0808080808080804 -4.898989898989899,-2.9797979797979792 -4.7979797979797985,-2.8787878787878785 -4.696969696969697,-2.7777777777777777 -4.595959595959596,-2.6767676767676765 -4.494949494949496,-2.5757575757575752 -4.393939393939394,-2.474747474747474 -4.292929292929293,-2.3737373737373733 -4.191919191919193,-2.2727272727272725 -4.090909090909091,-2.1717171717171713 -3.98989898989899,-2.07070707070707 -3.8888888888888884,-1.9696969696969693 -3.7878787878787876,-1.8686868686868683 -3.6868686868686864,-1.7676767676767675 -3.5858585858585856,-1.6666666666666665 -3.484848484848485,-1.5656565656565653 -3.383838383838383,-1.4646464646464643 -3.2828282828282824,-1.363636363636363 -3.1818181818181817,-1.2626262626262625 -3.0808080808080804,-1.1616161616161613 -2.9797979797979792,-1.0606060606060603 -2.8787878787878785,-0.9595959595959596 -2.7777777777777777,-0.8585858585858579 -2.6767676767676765,-0.7575757575757572 -2.5757575757575752,-0.6565656565656557 -2.474747474747474,-0.555555555555555 -2.3737373737373733,-0.4545454545454544 -2.2727272727272725,-0.35353535353535287 -2.2727272727272725,-0.2525252525252522 -2.2727272727272725,-0.15151515151515066 -2.2727272727272725,-0.05050505050505001 -2.2727272727272725,0.050505050505051545 -2.2727272727272725,0.1515151515151522 -2.2727272727272725,0.2525252525252529 -2.2727272727272725,0.3535353535353544 -2.2727272727272725,0.4545454545454551 -2.2727272727272725,0.5555555555555567 -2.2727272727272725,0.6565656565656574 -2.2727272727272725,0.7575757575757579 -2.2727272727272725,0.8585858585858596 -2.2727272727272725,0.9595959595959602 -2.2727272727272725,1.0606060606060617 -2.2727272727272725,1.1616161616161622 -2.2727272727272725,1.262626262626263 -2.2727272727272725,1.3636363636363644 -2.2727272727272725,1.4646464646464652 -2.2727272727272725,1.5656565656565666 -2.2727272727272725,1.6666666666666674 -2.2727272727272725,1.767676767676768 -2.2727272727272725,1.8686868686868696 -2.2727272727272725,1.9696969696969702 -2.2727272727272725,2.070707070707072 -2.2727272727272725,2.1717171717171726 -2.2727272727272725,2.2727272727272734 -2.2727272727272725,2.373737373737375 -2.2727272727272725,2.4747474747474754 -2.2727272727272725,2.575757575757577 -2.2727272727272725,2.676767676767678 -2.2727272727272725,2.7777777777777786 -2.2727272727272725,2.87878787878788 -2.2727272727272725,2.9797979797979806 -2.2727272727272725,3.080808080808082 -2.2727272727272725,3.181818181818183 -2.2727272727272725,3.2828282828282833 -2.2727272727272725,3.383838383838384 -2.2727272727272725,3.4848484848484866 -2.2727272727272725,3.5858585858585874 -2.2727272727272725,3.6868686868686877 -2.2727272727272725,3.7878787878787885 -2.2727272727272725,3.8888888888888893 -2.2727272727272725,3.989898989898992 -2.2727272727272725,4.090909090909092 -2.2727272727272725,4.191919191919193 -2.2727272727272725,4.292929292929293 -2.2727272727272725,4.393939393939394 -2.2727272727272725,4.494949494949497 -2.2727272727272725,4.595959595959597 -2.2727272727272725,4.696969696969697 -2.2727272727272725,4.7979797979797985 -2.2727272727272725,4.898989898989901 -2.2727272727272725,5.000000000000002" data-type="line" data-label="" points="40.00000000000006,802.8282828282828 49.53535353535369,793.2929292929292 59.07070707070716,783.7575757575758 68.60606060606068,774.2222222222222 78.14141414141426,764.6868686868687 87.67676767676772,755.1515151515151 97.21212121212136,745.6161616161615 106.74747474747483,736.0808080808081 116.28282828282829,726.5454545454545 125.81818181818193,717.010101010101 135.35353535353545,707.4747474747475 144.88888888888903,697.939393939394 154.42424242424255,688.4040404040404 163.95959595959607,678.8686868686868 173.4949494949496,669.3333333333334 183.03030303030312,659.7979797979798 192.5656565656567,650.2626262626263 202.10101010101022,640.7272727272727 211.63636363636374,631.1919191919193 221.17171717171726,621.6565656565657 230.70707070707084,612.1212121212121 240.2424242424243,602.5858585858587 249.77777777777783,593.0505050505051 259.3131313131314,583.5151515151516 268.84848484848493,573.979797979798 278.38383838383845,564.4444444444445 287.91919191919203,554.909090909091 297.4545454545455,545.3737373737374 297.4545454545455,535.838383838384 297.4545454545455,526.3030303030304 297.4545454545455,516.7676767676768 297.4545454545455,507.23232323232327 297.4545454545455,497.69696969696975 297.4545454545455,488.1616161616163 297.4545454545455,478.6262626262627 297.4545454545455,469.0909090909092 297.4545454545455,459.5555555555556 297.4545454545455,450.0202020202021 297.4545454545455,440.4848484848486 297.4545454545455,430.94949494949503 297.4545454545455,421.4141414141415 297.4545454545455,411.87878787878793 297.4545454545455,402.3434343434344 297.4545454545455,392.80808080808094 297.4545454545455,383.27272727272737 297.4545454545455,373.73737373737384 297.4545454545455,364.2020202020203 297.4545454545455,354.66666666666674 297.4545454545455,345.1313131313133 297.4545454545455,335.5959595959597 297.4545454545455,326.06060606060623 297.4545454545455,316.5252525252526 297.4545454545455,306.9898989898991 297.4545454545455,297.4545454545456 297.4545454545455,287.91919191919203 297.4545454545455,278.38383838383857 297.4545454545455,268.84848484848493 297.4545454545455,259.3131313131314 297.4545454545455,249.77777777777794 297.4545454545455,240.24242424242436 297.4545454545455,230.70707070707084 297.4545454545455,221.17171717171726 297.4545454545455,211.63636363636374 297.4545454545455,202.10101010101027 297.4545454545455,192.56565656565675 297.4545454545455,183.03030303030312 297.4545454545455,173.4949494949496 297.4545454545455,163.95959595959613 297.4545454545455,154.4242424242426 297.4545454545455,144.88888888888908 297.4545454545455,135.35353535353545 297.4545454545455,125.81818181818198 297.4545454545455,116.28282828282846 297.4545454545455,106.747474747475 297.4545454545455,97.21212121212153 297.4545454545455,87.67676767676778 297.4545454545455,78.14141414141432 297.4545454545455,68.60606060606085 297.4545454545455,59.07070707070733 297.4545454545455,49.53535353535369 297.4545454545455,40.000000000000114" fill="none" stroke="rgba(0,0,255,0.75)" stroke-width="14.159999999999995"/></g><g><polyline data-points="4.494949494949497,-5.000000000000001 4.393939393939394,-5.000000000000001 4.292929292929293,-5.000000000000001 4.191919191919193,-5.000000000000001 4.090909090909092,-5.000000000000001 3.989898989898992,-5.000000000000001 3.8888888888888893,-5.000000000000001 3.7878787878787885,-5.000000000000001 3.6868686868686877,-5.000000000000001 3.5858585858585874,-5.000000000000001 3.4848484848484866,-4.898989898989899 3.383838383838384,-4.7979797979797985 3.2828282828282833,-4.696969696969697 3.181818181818183,-4.595959595959596 3.080808080808082,-4.494949494949496 2.9797979797979806,-4.393939393939394 2.87878787878788,-4.292929292929293 2.7777777777777786,-4.191919191919193 2.676767676767678,-4.090909090909091 2.575757575757577,-3.98989898989899" data-type="line" data-label="" points="936.3232323232323,984 926.7878787878785,984 917.2525252525251,984 907.7171717171716,984 898.181818181818,984 888.6464646464647,984 879.111111111111,984 869.5757575757575,984 860.0404040404039,984 850.5050505050505,984 840.969696969697,974.4646464646464 831.4343434343433,964.9292929292928 821.8989898989898,955.3939393939394 812.3636363636363,945.8585858585858 802.8282828282828,936.3232323232323 793.2929292929292,926.7878787878788 783.7575757575758,917.2525252525252 774.2222222222222,907.7171717171718 764.6868686868686,898.1818181818181 755.1515151515151,888.6464646464647" fill="none" stroke="rgba(0,0,255,0.75)" stroke-width="14.159999999999995"/></g><g><polyline data-points="2.575757575757577,-3.98989898989899 2.4747474747474754,-4.090909090909091 2.373737373737375,-4.191919191919193 2.2727272727272734,-4.292929292929293 2.1717171717171726,-4.393939393939394 2.070707070707072,-4.494949494949496 1.9696969696969702,-4.595959595959596 1.8686868686868696,-4.696969696969697 1.767676767676768,-4.7979797979797985 1.6666666666666674,-4.898989898989899 1.5656565656565666,-5.000000000000001 1.4646464646464652,-5.000000000000001 1.3636363636363644,-5.000000000000001 1.262626262626263,-5.000000000000001 1.1616161616161622,-5.000000000000001 1.0606060606060617,-5.000000000000001 0.9595959595959602,-5.000000000000001 0.8585858585858596,-5.000000000000001 0.7575757575757579,-5.000000000000001 0.6565656565656574,-5.000000000000001 0.5555555555555567,-5.000000000000001 0.4545454545454551,-5.000000000000001 0.3535353535353544,-5.000000000000001 0.2525252525252529,-5.000000000000001 0.1515151515151522,-5.000000000000001 0.050505050505051545,-5.000000000000001 -0.05050505050505001,-5.000000000000001 -0.15151515151515066,-5.000000000000001 -0.2525252525252522,-5.000000000000001 -0.35353535353535287,-5.000000000000001 -0.4545454545454544,-5.000000000000001 -0.555555555555555,-5.000000000000001 -0.6565656565656557,-5.000000000000001 -0.7575757575757572,-5.000000000000001 -0.8585858585858579,-5.000000000000001 -0.9595959595959596,-5.000000000000001 -1.0606060606060603,-5.000000000000001 -1.1616161616161613,-5.000000000000001 -1.2626262626262625,-5.000000000000001 -1.363636363636363,-5.000000000000001 -1.4646464646464643,-5.000000000000001 -1.5656565656565653,-5.000000000000001 -1.6666666666666665,-5.000000000000001 -1.7676767676767675,-5.000000000000001 -1.8686868686868683,-5.000000000000001 -1.9696969696969693,-5.000000000000001 -2.07070707070707,-5.000000000000001 -2.1717171717171713,-5.000000000000001 -2.2727272727272725,-5.000000000000001 -2.3737373737373733,-5.000000000000001 -2.474747474747474,-5.000000000000001 -2.5757575757575752,-5.000000000000001 -2.6767676767676765,-5.000000000000001 -2.7777777777777777,-5.000000000000001 -2.8787878787878785,-5.000000000000001 -2.9797979797979792,-5.000000000000001 -3.0808080808080804,-5.000000000000001 -3.1818181818181817,-5.000000000000001 -3.2828282828282824,-5.000000000000001 -3.383838383838383,-5.000000000000001 -3.484848484848485,-5.000000000000001" data-type="line" data-label="" points="755.1515151515151,888.6464646464647 745.6161616161615,898.1818181818181 736.0808080808081,907.7171717171718 726.5454545454545,917.2525252525252 717.0101010101009,926.7878787878788 707.4747474747475,936.3232323232323 697.9393939393939,945.8585858585858 688.4040404040404,955.3939393939394 678.8686868686868,964.9292929292928 669.3333333333333,974.4646464646464 659.7979797979798,984 650.2626262626262,984 640.7272727272727,984 631.1919191919192,984 621.6565656565656,984 612.1212121212121,984 602.5858585858585,984 593.0505050505051,984 583.5151515151515,984 573.9797979797979,984 564.4444444444445,984 554.9090909090909,984 545.3737373737374,984 535.8383838383838,984 526.3030303030303,984 516.7676767676768,984 507.2323232323232,984 497.69696969696975,984 488.16161616161617,984 478.62626262626264,984 469.09090909090907,984 459.55555555555554,984 450.0202020202021,984 440.4848484848485,984 430.949494949495,984 421.4141414141414,984 411.8787878787879,984 402.34343434343435,984 392.80808080808083,984 383.2727272727273,984 373.7373737373738,984 364.2020202020202,984 354.6666666666667,984 345.13131313131316,984 335.59595959595964,984 326.0606060606061,984 316.5252525252526,984 306.9898989898991,984 297.4545454545455,984 287.91919191919203,984 278.38383838383845,984 268.84848484848493,984 259.3131313131314,984 249.77777777777783,984 240.2424242424243,984 230.70707070707084,984 221.17171717171726,984 211.63636363636374,984 202.10101010101022,984 192.5656565656567,984 183.03030303030312,984" fill="none" stroke="rgba(255,0,0,0.75)" stroke-width="14.159999999999995"/></g><g><polyline data-points="2.4747474747474754,-5.000000000000001 2.4747474747474754,-4.898989898989899 2.4747474747474754,-4.7979797979797985 2.4747474747474754,-4.696969696969697 2.4747474747474754,-4.595959595959596 2.4747474747474754,-4.494949494949496 2.373737373737375,-4.393939393939394 2.2727272727272734,-4.292929292929293 2.1717171717171726,-4.191919191919193 2.1717171717171726,-4.090909090909091 2.070707070707072,-3.98989898989899 2.1717171717171726,-3.8888888888888884 2.1717171717171726,-3.7878787878787876 2.2727272727272734,-3.6868686868686864 2.373737373737375,-3.5858585858585856 2.4747474747474754,-3.484848484848485 2.575757575757577,-3.383838383838383 2.676767676767678,-3.2828282828282824 2.7777777777777786,-3.1818181818181817 2.87878787878788,-3.0808080808080804 2.9797979797979806,-2.9797979797979792 3.080808080808082,-2.8787878787878785 3.181818181818183,-2.7777777777777777 3.2828282828282833,-2.6767676767676765 3.383838383838384,-2.5757575757575752 3.4848484848484866,-2.474747474747474 3.5858585858585874,-2.3737373737373733 3.6868686868686877,-2.2727272727272725 3.7878787878787885,-2.1717171717171713 3.8888888888888893,-2.07070707070707 3.989898989898992,-1.9696969696969693 3.989898989898992,-1.8686868686868683 3.989898989898992,-1.7676767676767675 3.989898989898992,-1.6666666666666665 3.989898989898992,-1.5656565656565653 3.989898989898992,-1.4646464646464643 3.989898989898992,-1.363636363636363 3.989898989898992,-1.2626262626262625 3.989898989898992,-1.1616161616161613 3.989898989898992,-1.0606060606060603 3.989898989898992,-0.9595959595959596 3.989898989898992,-0.8585858585858579 3.989898989898992,-0.7575757575757572 3.989898989898992,-0.6565656565656557 3.989898989898992,-0.555555555555555 3.989898989898992,-0.4545454545454544 3.989898989898992,-0.35353535353535287 3.989898989898992,-0.2525252525252522 3.989898989898992,-0.15151515151515066 3.989898989898992,-0.05050505050505001 3.989898989898992,0.050505050505051545 3.989898989898992,0.1515151515151522 3.989898989898992,0.2525252525252529 3.989898989898992,0.3535353535353544 3.989898989898992,0.4545454545454551 3.989898989898992,0.5555555555555567 3.989898989898992,0.6565656565656574 3.989898989898992,0.7575757575757579 3.989898989898992,0.8585858585858596 3.989898989898992,0.9595959595959602 3.989898989898992,1.0606060606060617 3.989898989898992,1.1616161616161622 3.989898989898992,1.262626262626263 3.989898989898992,1.3636363636363644 3.989898989898992,1.4646464646464652 3.989898989898992,1.5656565656565666 3.989898989898992,1.6666666666666674 3.989898989898992,1.767676767676768 3.989898989898992,1.8686868686868696 3.989898989898992,1.9696969696969702 3.989898989898992,2.070707070707072 3.989898989898992,2.1717171717171726 3.989898989898992,2.2727272727272734 3.989898989898992,2.373737373737375 3.989898989898992,2.4747474747474754 3.989898989898992,2.575757575757577 3.989898989898992,2.676767676767678 3.989898989898992,2.7777777777777786 3.989898989898992,2.87878787878788 3.989898989898992,2.9797979797979806 3.989898989898992,3.080808080808082 3.989898989898992,3.181818181818183 3.989898989898992,3.2828282828282833 3.989898989898992,3.383838383838384 3.989898989898992,3.4848484848484866 3.989898989898992,3.5858585858585874 3.989898989898992,3.6868686868686877 3.989898989898992,3.7878787878787885 3.989898989898992,3.8888888888888893 3.989898989898992,3.989898989898992" data-type="line" data-label="" points="745.6161616161615,984 745.6161616161615,974.4646464646464 745.6161616161615,964.9292929292928 745.6161616161615,955.3939393939394 745.6161616161615,945.8585858585858 745.6161616161615,936.3232323232323 736.0808080808081,926.7878787878788 726.5454545454545,917.2525252525252 717.0101010101009,907.7171717171718 717.0101010101009,898.1818181818181 707.4747474747475,888.6464646464647 717.0101010101009,879.1111111111111 717.0101010101009,869.5757575757575 726.5454545454545,860.0404040404039 736.0808080808081,850.5050505050505 745.6161616161615,840.969696969697 755.1515151515151,831.4343434343434 764.6868686868686,821.8989898989898 774.2222222222222,812.3636363636363 783.7575757575758,802.8282828282828 793.2929292929292,793.2929292929292 802.8282828282828,783.7575757575758 812.3636363636363,774.2222222222222 821.8989898989898,764.6868686868687 831.4343434343433,755.1515151515151 840.969696969697,745.6161616161615 850.5050505050505,736.0808080808081 860.0404040404039,726.5454545454545 869.5757575757575,717.010101010101 879.111111111111,707.4747474747475 888.6464646464647,697.939393939394 888.6464646464647,688.4040404040404 888.6464646464647,678.8686868686868 888.6464646464647,669.3333333333334 888.6464646464647,659.7979797979798 888.6464646464647,650.2626262626263 888.6464646464647,640.7272727272727 888.6464646464647,631.1919191919193 888.6464646464647,621.6565656565657 888.6464646464647,612.1212121212121 888.6464646464647,602.5858585858587 888.6464646464647,593.0505050505051 888.6464646464647,583.5151515151516 888.6464646464647,573.979797979798 888.6464646464647,564.4444444444445 888.6464646464647,554.909090909091 888.6464646464647,545.3737373737374 888.6464646464647,535.838383838384 888.6464646464647,526.3030303030304 888.6464646464647,516.7676767676768 888.6464646464647,507.23232323232327 888.6464646464647,497.69696969696975 888.6464646464647,488.1616161616163 888.6464646464647,478.6262626262627 888.6464646464647,469.0909090909092 888.6464646464647,459.5555555555556 888.6464646464647,450.0202020202021 888.6464646464647,440.4848484848486 888.6464646464647,430.94949494949503 888.6464646464647,421.4141414141415 888.6464646464647,411.87878787878793 888.6464646464647,402.3434343434344 888.6464646464647,392.80808080808094 888.6464646464647,383.27272727272737 888.6464646464647,373.73737373737384 888.6464646464647,364.2020202020203 888.6464646464647,354.66666666666674 888.6464646464647,345.1313131313133 888.6464646464647,335.5959595959597 888.6464646464647,326.06060606060623 888.6464646464647,316.5252525252526 888.6464646464647,306.9898989898991 888.6464646464647,297.4545454545456 888.6464646464647,287.91919191919203 888.6464646464647,278.38383838383857 888.6464646464647,268.84848484848493 888.6464646464647,259.3131313131314 888.6464646464647,249.77777777777794 888.6464646464647,240.24242424242436 888.6464646464647,230.70707070707084 888.6464646464647,221.17171717171726 888.6464646464647,211.63636363636374 888.6464646464647,202.10101010101027 888.6464646464647,192.56565656565675 888.6464646464647,183.03030303030312 888.6464646464647,173.4949494949496 888.6464646464647,163.95959595959613 888.6464646464647,154.4242424242426 888.6464646464647,144.88888888888908 888.6464646464647,135.35353535353545" fill="none" stroke="rgba(0,0,255,0.75)" stroke-width="14.159999999999995"/></g><g><polyline data-points="3.989898989898992,3.989898989898992 4.090909090909092,4.090909090909092 4.090909090909092,4.191919191919193 4.090909090909092,4.292929292929293 4.090909090909092,4.393939393939394 4.090909090909092,4.494949494949497 4.090909090909092,4.595959595959597 4.090909090909092,4.696969696969697 4.090909090909092,4.7979797979797985 4.090909090909092,4.898989898989901 4.090909090909092,5.000000000000002" data-type="line" data-label="" points="888.6464646464647,135.35353535353545 898.181818181818,125.81818181818198 898.181818181818,116.28282828282846 898.181818181818,106.747474747475 898.181818181818,97.21212121212153 898.181818181818,87.67676767676778 898.181818181818,78.14141414141432 898.181818181818,68.60606060606085 898.181818181818,59.07070707070733 898.181818181818,49.53535353535369 898.181818181818,40.000000000000114" fill="none" stroke="rgba(255,0,0,0.75)" stroke-width="14.159999999999995"/></g><g><polyline data-points="-5.000000000000001,-3.8888888888888884 -4.898989898989899,-3.7878787878787876 -4.7979797979797985,-3.6868686868686864 -4.696969696969697,-3.5858585858585856 -4.595959595959596,-3.484848484848485 -4.494949494949496,-3.383838383838383 -4.393939393939394,-3.2828282828282824 -4.292929292929293,-3.1818181818181817 -4.191919191919193,-3.0808080808080804 -4.090909090909091,-2.9797979797979792 -3.98989898989899,-2.8787878787878785 -3.8888888888888884,-2.7777777777777777 -3.7878787878787876,-2.6767676767676765 -3.6868686868686864,-2.5757575757575752 -3.5858585858585856,-2.474747474747474 -3.484848484848485,-2.3737373737373733 -3.383838383838383,-2.2727272727272725 -3.2828282828282824,-2.1717171717171713 -3.1818181818181817,-2.1717171717171713 -3.0808080808080804,-2.1717171717171713 -2.9797979797979792,-2.1717171717171713 -2.8787878787878785,-2.1717171717171713 -2.7777777777777777,-2.1717171717171713 -2.6767676767676765,-2.1717171717171713 -2.5757575757575752,-2.1717171717171713 -2.474747474747474,-2.1717171717171713 -2.3737373737373733,-2.1717171717171713 -2.2727272727272725,-2.1717171717171713 -2.1717171717171713,-2.1717171717171713 -2.07070707070707,-2.1717171717171713 -1.9696969696969693,-2.1717171717171713 -1.8686868686868683,-2.1717171717171713 -1.7676767676767675,-2.1717171717171713 -1.6666666666666665,-2.1717171717171713 -1.5656565656565653,-2.1717171717171713 -1.4646464646464643,-2.1717171717171713 -1.363636363636363,-2.1717171717171713 -1.2626262626262625,-2.1717171717171713 -1.1616161616161613,-2.1717171717171713 -1.0606060606060603,-2.1717171717171713 -0.9595959595959596,-2.1717171717171713 -0.8585858585858579,-2.1717171717171713 -0.7575757575757572,-2.1717171717171713 -0.6565656565656557,-2.1717171717171713 -0.555555555555555,-2.1717171717171713 -0.4545454545454544,-2.1717171717171713 -0.35353535353535287,-2.1717171717171713 -0.2525252525252522,-2.1717171717171713 -0.15151515151515066,-2.1717171717171713 -0.05050505050505001,-2.1717171717171713 0.050505050505051545,-2.1717171717171713 0.1515151515151522,-2.1717171717171713 0.2525252525252529,-2.1717171717171713 0.3535353535353544,-2.1717171717171713 0.4545454545454551,-2.1717171717171713 0.5555555555555567,-2.1717171717171713 0.6565656565656574,-2.1717171717171713 0.7575757575757579,-2.1717171717171713" data-type="line" data-label="" points="40.00000000000006,879.1111111111111 49.53535353535369,869.5757575757575 59.07070707070716,860.0404040404039 68.60606060606068,850.5050505050505 78.14141414141426,840.969696969697 87.67676767676772,831.4343434343434 97.21212121212136,821.8989898989898 106.74747474747483,812.3636363636363 116.28282828282829,802.8282828282828 125.81818181818193,793.2929292929292 135.35353535353545,783.7575757575758 144.88888888888903,774.2222222222222 154.42424242424255,764.6868686868687 163.95959595959607,755.1515151515151 173.4949494949496,745.6161616161615 183.03030303030312,736.0808080808081 192.5656565656567,726.5454545454545 202.10101010101022,717.010101010101 211.63636363636374,717.010101010101 221.17171717171726,717.010101010101 230.70707070707084,717.010101010101 240.2424242424243,717.010101010101 249.77777777777783,717.010101010101 259.3131313131314,717.010101010101 268.84848484848493,717.010101010101 278.38383838383845,717.010101010101 287.91919191919203,717.010101010101 297.4545454545455,717.010101010101 306.9898989898991,717.010101010101 316.5252525252526,717.010101010101 326.0606060606061,717.010101010101 335.59595959595964,717.010101010101 345.13131313131316,717.010101010101 354.6666666666667,717.010101010101 364.2020202020202,717.010101010101 373.7373737373738,717.010101010101 383.2727272727273,717.010101010101 392.80808080808083,717.010101010101 402.34343434343435,717.010101010101 411.8787878787879,717.010101010101 421.4141414141414,717.010101010101 430.949494949495,717.010101010101 440.4848484848485,717.010101010101 450.0202020202021,717.010101010101 459.55555555555554,717.010101010101 469.09090909090907,717.010101010101 478.62626262626264,717.010101010101 488.16161616161617,717.010101010101 497.69696969696975,717.010101010101 507.2323232323232,717.010101010101 516.7676767676768,717.010101010101 526.3030303030303,717.010101010101 535.8383838383838,717.010101010101 545.3737373737374,717.010101010101 554.9090909090909,717.010101010101 564.4444444444445,717.010101010101 573.9797979797979,717.010101010101 583.5151515151515,717.010101010101" fill="none" stroke="rgba(0,0,255,0.75)" stroke-width="14.159999999999995"/></g><g><polyline data-points="0.7575757575757579,-2.1717171717171713 0.8585858585858596,-2.1717171717171713 0.9595959595959602,-2.1717171717171713 1.0606060606060617,-2.1717171717171713 1.1616161616161622,-2.1717171717171713 1.262626262626263,-2.1717171717171713 1.3636363636363644,-2.1717171717171713 1.4646464646464652,-2.1717171717171713 1.5656565656565666,-2.1717171717171713 1.6666666666666674,-2.1717171717171713 1.767676767676768,-2.1717171717171713 1.8686868686868696,-2.1717171717171713 1.9696969696969702,-2.1717171717171713 2.070707070707072,-2.1717171717171713 2.1717171717171726,-2.1717171717171713 2.2727272727272734,-2.1717171717171713 2.373737373737375,-2.1717171717171713 2.4747474747474754,-2.1717171717171713 2.575757575757577,-2.1717171717171713 2.676767676767678,-2.1717171717171713 2.7777777777777786,-2.1717171717171713 2.87878787878788,-2.1717171717171713 2.9797979797979806,-2.1717171717171713 3.080808080808082,-2.1717171717171713 3.181818181818183,-2.1717171717171713 3.2828282828282833,-2.1717171717171713 3.383838383838384,-2.1717171717171713 3.4848484848484866,-2.2727272727272725 3.5858585858585874,-2.3737373737373733 3.6868686868686877,-2.474747474747474 3.7878787878787885,-2.5757575757575752 3.8888888888888893,-2.6767676767676765 3.989898989898992,-2.7777777777777777" data-type="line" data-label="" points="583.5151515151515,717.010101010101 593.0505050505051,717.010101010101 602.5858585858585,717.010101010101 612.1212121212121,717.010101010101 621.6565656565656,717.010101010101 631.1919191919192,717.010101010101 640.7272727272727,717.010101010101 650.2626262626262,717.010101010101 659.7979797979798,717.010101010101 669.3333333333333,717.010101010101 678.8686868686868,717.010101010101 688.4040404040404,717.010101010101 697.9393939393939,717.010101010101 707.4747474747475,717.010101010101 717.0101010101009,717.010101010101 726.5454545454545,717.010101010101 736.0808080808081,717.010101010101 745.6161616161615,717.010101010101 755.1515151515151,717.010101010101 764.6868686868686,717.010101010101 774.2222222222222,717.010101010101 783.7575757575758,717.010101010101 793.2929292929292,717.010101010101 802.8282828282828,717.010101010101 812.3636363636363,717.010101010101 821.8989898989898,717.010101010101 831.4343434343433,717.010101010101 840.969696969697,726.5454545454545 850.5050505050505,736.0808080808081 860.0404040404039,745.6161616161615 869.5757575757575,755.1515151515151 879.111111111111,764.6868686868687 888.6464646464647,774.2222222222222" fill="none" stroke="rgba(255,0,0,0.75)" stroke-width="14.159999999999995"/></g><g><polyline data-points="3.989898989898992,-2.7777777777777777 4.090909090909092,-2.6767676767676765 4.191919191919193,-2.5757575757575752 4.292929292929293,-2.474747474747474 4.393939393939394,-2.3737373737373733 4.494949494949497,-2.2727272727272725 4.595959595959597,-2.1717171717171713 4.696969696969697,-2.07070707070707 4.7979797979797985,-1.9696969696969693 4.898989898989901,-1.8686868686868683 5.000000000000002,-1.7676767676767675 5.000000000000002,-1.6666666666666665 5.000000000000002,-1.5656565656565653 5.000000000000002,-1.4646464646464643 5.000000000000002,-1.363636363636363 5.000000000000002,-1.2626262626262625 5.000000000000002,-1.1616161616161613 5.000000000000002,-1.0606060606060603 5.000000000000002,-0.9595959595959596 5.000000000000002,-0.8585858585858579 5.000000000000002,-0.7575757575757572 5.000000000000002,-0.6565656565656557 5.000000000000002,-0.555555555555555 5.000000000000002,-0.4545454545454544 5.000000000000002,-0.35353535353535287 5.000000000000002,-0.2525252525252522 5.000000000000002,-0.15151515151515066 5.000000000000002,-0.05050505050505001 5.000000000000002,0.050505050505051545 5.000000000000002,0.1515151515151522 5.000000000000002,0.2525252525252529 5.000000000000002,0.3535353535353544 5.000000000000002,0.4545454545454551 5.000000000000002,0.5555555555555567 5.000000000000002,0.6565656565656574" data-type="line" data-label="" points="888.6464646464647,774.2222222222222 898.181818181818,764.6868686868687 907.7171717171716,755.1515151515151 917.2525252525251,745.6161616161615 926.7878787878785,736.0808080808081 936.3232323232323,726.5454545454545 945.8585858585857,717.010101010101 955.3939393939393,707.4747474747475 964.9292929292927,697.939393939394 974.4646464646464,688.4040404040404 984,678.8686868686868 984,669.3333333333334 984,659.7979797979798 984,650.2626262626263 984,640.7272727272727 984,631.1919191919193 984,621.6565656565657 984,612.1212121212121 984,602.5858585858587 984,593.0505050505051 984,583.5151515151516 984,573.979797979798 984,564.4444444444445 984,554.909090909091 984,545.3737373737374 984,535.838383838384 984,526.3030303030304 984,516.7676767676768 984,507.23232323232327 984,497.69696969696975 984,488.1616161616163 984,478.6262626262627 984,469.0909090909092 984,459.5555555555556 984,450.0202020202021" fill="none" stroke="rgba(0,0,255,0.75)" stroke-width="14.159999999999995"/></g><g><polyline data-points="5.000000000000002,-2.3737373737373733 5.000000000000002,-2.2727272727272725 5.000000000000002,-2.1717171717171713 5.000000000000002,-2.07070707070707 5.000000000000002,-1.9696969696969693 5.000000000000002,-1.8686868686868683 5.000000000000002,-1.7676767676767675 5.000000000000002,-1.6666666666666665 5.000000000000002,-1.5656565656565653 5.000000000000002,-1.4646464646464643 5.000000000000002,-1.363636363636363 5.000000000000002,-1.2626262626262625 5.000000000000002,-1.1616161616161613 5.000000000000002,-1.0606060606060603 5.000000000000002,-0.9595959595959596 5.000000000000002,-0.8585858585858579 5.000000000000002,-0.7575757575757572 5.000000000000002,-0.6565656565656557 5.000000000000002,-0.555555555555555 5.000000000000002,-0.4545454545454544 5.000000000000002,-0.35353535353535287 5.000000000000002,-0.2525252525252522 5.000000000000002,-0.15151515151515066 5.000000000000002,-0.05050505050505001 5.000000000000002,0.050505050505051545 5.000000000000002,0.1515151515151522 5.000000000000002,0.2525252525252529 5.000000000000002,0.3535353535353544 5.000000000000002,0.4545454545454551 5.000000000000002,0.5555555555555567 5.000000000000002,0.6565656565656574 5.000000000000002,0.7575757575757579 5.000000000000002,0.8585858585858596 5.000000000000002,0.9595959595959602 5.000000000000002,1.0606060606060617 5.000000000000002,1.1616161616161622 5.000000000000002,1.262626262626263 5.000000000000002,1.3636363636363644 5.000000000000002,1.4646464646464652 5.000000000000002,1.5656565656565666 5.000000000000002,1.6666666666666674 5.000000000000002,1.767676767676768 5.000000000000002,1.8686868686868696 5.000000000000002,1.9696969696969702 5.000000000000002,2.070707070707072 5.000000000000002,2.1717171717171726 5.000000000000002,2.2727272727272734 5.000000000000002,2.373737373737375 5.000000000000002,2.4747474747474754 5.000000000000002,2.575757575757577 5.000000000000002,2.676767676767678 5.000000000000002,2.7777777777777786 5.000000000000002,2.87878787878788 5.000000000000002,2.9797979797979806 5.000000000000002,3.080808080808082 5.000000000000002,3.181818181818183 5.000000000000002,3.2828282828282833 5.000000000000002,3.383838383838384 5.000000000000002,3.4848484848484866 5.000000000000002,3.5858585858585874 5.000000000000002,3.6868686868686877 5.000000000000002,3.7878787878787885 5.000000000000002,3.8888888888888893 5.000000000000002,3.989898989898992" data-type="line" data-label="" points="984,736.0808080808081 984,726.5454545454545 984,717.010101010101 984,707.4747474747475 984,697.939393939394 984,688.4040404040404 984,678.8686868686868 984,669.3333333333334 984,659.7979797979798 984,650.2626262626263 984,640.7272727272727 984,631.1919191919193 984,621.6565656565657 984,612.1212121212121 984,602.5858585858587 984,593.0505050505051 984,583.5151515151516 984,573.979797979798 984,564.4444444444445 984,554.909090909091 984,545.3737373737374 984,535.838383838384 984,526.3030303030304 984,516.7676767676768 984,507.23232323232327 984,497.69696969696975 984,488.1616161616163 984,478.6262626262627 984,469.0909090909092 984,459.5555555555556 984,450.0202020202021 984,440.4848484848486 984,430.94949494949503 984,421.4141414141415 984,411.87878787878793 984,402.3434343434344 984,392.80808080808094 984,383.27272727272737 984,373.73737373737384 984,364.2020202020203 984,354.66666666666674 984,345.1313131313133 984,335.5959595959597 984,326.06060606060623 984,316.5252525252526 984,306.9898989898991 984,297.4545454545456 984,287.91919191919203 984,278.38383838383857 984,268.84848484848493 984,259.3131313131314 984,249.77777777777794 984,240.24242424242436 984,230.70707070707084 984,221.17171717171726 984,211.63636363636374 984,202.10101010101027 984,192.56565656565675 984,183.03030303030312 984,173.4949494949496 984,163.95959595959613 984,154.4242424242426 984,144.88888888888908 984,135.35353535353545" fill="none" stroke="rgba(255,0,0,0.75)" stroke-width="14.159999999999995"/></g><g><rect data-type="rect" data-label="" data-x="0" data-y="0" x="40.000000000000114" y="40.000000000000284" width="943.9999999999997" height="943.9999999999998" fill="none" stroke="gray" stroke-width="0.010593220338983056"/></g><g><rect data-type="rect" data-label="" data-x="0" data-y="0" x="40.000000000000114" y="40.000000000000284" width="943.9999999999997" height="943.9999999999998" fill="none" stroke="rgba(15, 23, 42, 0.8)" stroke-width="0.010593220338983056"/></g><circle data-type="circle" data-label="" data-x="0.6565656565656574" data-y="-3.98989898989899" cx="573.9797979797979" cy="888.6464646464647" r="28.791999999999987" fill="rgba(0,0,0,0.3)" stroke="black" stroke-width="0.010593220338983056"/><circle data-type="circle" data-label="" data-x="0.1515151515151522" data-y="0.9595959595959602" cx="526.3030303030303" cy="421.4141414141415" r="28.791999999999987" fill="rgba(0,0,0,0.3)" stroke="black" stroke-width="0.010593220338983056"/><circle data-type="circle" data-label="" data-x="2.575757575757577" data-y="-3.98989898989899" cx="755.1515151515151" cy="888.6464646464647" r="28.791999999999987" fill="rgba(0,0,0,0.3)" stroke="black" stroke-width="0.010593220338983056"/><circle data-type="circle" data-label="" data-x="3.989898989898992" data-y="3.989898989898992" cx="888.6464646464647" cy="135.35353535353545" r="28.791999999999987" fill="rgba(0,0,0,0.3)" stroke="black" stroke-width="0.010593220338983056"/><circle data-type="circle" data-label="" data-x="0.7575757575757579" data-y="-2.1717171717171713" cx="583.5151515151515" cy="717.010101010101" r="28.791999999999987" fill="rgba(0,0,0,0.3)" stroke="black" stroke-width="0.010593220338983056"/><circle data-type="circle" data-label="" data-x="3.989898989898992" data-y="-2.7777777777777777" cx="888.6464646464647" cy="774.2222222222222" r="28.791999999999987" fill="rgba(0,0,0,0.3)" stroke="black" stroke-width="0.010593220338983056"/><g id="crosshair" style="display: none"><line id="crosshair-h" y1="0" y2="1024" stroke="#666" stroke-width="0.5"/><line id="crosshair-v" x1="0" x2="1024" stroke="#666" stroke-width="0.5"/><text id="coordinates" font-family="monospace" font-size="12" fill="#666"></text></g><script><![CDATA[
              document.currentScript.parentElement.addEventListener('mousemove', (e) => {
                const svg = e.currentTarget;
                const rect = svg.getBoundingClientRect();
                const x = e.clientX - rect.left;
                const y = e.clientY - rect.top;
                const crosshair = svg.getElementById('crosshair');
                const h = svg.getElementById('crosshair-h');
                const v = svg.getElementById('crosshair-v');
                const coords = svg.getElementById('coordinates');
                
                crosshair.style.display = 'block';
                h.setAttribute('x1', '0');
                h.setAttribute('x2', '1024');
                h.setAttribute('y1', y);
                h.setAttribute('y2', y);
                v.setAttribute('x1', x);
                v.setAttribute('x2', x);
                v.setAttribute('y1', '0');
                v.setAttribute('y2', '1024');

                // Calculate real coordinates using inverse transformation
                const matrix = {"a":94.39999999999996,"c":0,"e":511.99999999999994,"b":0,"d":-94.39999999999996,"f":512.0000000000001};
                // Manually invert and apply the affine transform
                // Since we only use translate and scale, we can directly compute:
                // x' = (x - tx) / sx
                // y' = (y - ty) / sy
                const sx = matrix.a;
                const sy = matrix.d;
                const tx = matrix.e; 
                const ty = matrix.f;
                const realPoint = {
                  x: (x - tx) / sx,
                  y: (y - ty) / sy // Flip y back since we used negative scale
                }
                
                coords.textContent = `(${realPoint.x.toFixed(2)}, ${realPoint.y.toFixed(2)})`;
                coords.setAttribute('x', (x + 5).toString());
                coords.setAttribute('y', (y - 5).toString());
              });
              document.currentScript.parentElement.addEventListener('mouseleave', () => {
                document.currentScript.parentElement.getElementById('crosshair').style.display = 'none';
              });
            ]]></script></svg>