<svg width="1024" height="1024" viewBox="0 0 1024 1024" xmlns="http://www.w3.org/2000/svg"><rect width="100%" height="100%" fill="white"/><g><circle data-type="point" data-label="conn_000" data-x="-5" data-y="1.12" cx="40.000000000000114" cy="406.27200000000016" r="28.792" fill="red" stroke="#bd490f" stroke-width="28.792"/></g><g><circle data-type="point" data-label="conn_000" data-x="5" data-y="-1.62" cx="983.9999999999998" cy="664.9280000000001" r="28.792" fill="blue" stroke="#bd490f" stroke-width="28.792"/></g><g><circle data-type="point" data-label="conn_001" data-x="1.72" data-y="5" cx="674.3679999999999" cy="40.000000000000284" r="28.792" fill="red" stroke="#0fbd7c" stroke-width="28.792"/></g><g><circle data-type="point" data-label="conn_001" data-x="0.6" data-y="5" cx="568.6399999999999" cy="40.000000000000284" r="28.792" fill="blue" stroke="#0fbd7c" stroke-width="28.792"/></g><g><circle data-type="point" data-label="conn_002" data-x="-5" data-y="-2.82" cx="40.000000000000114" cy="778.208" r="28.792" fill="red" stroke="#ae0fbd" stroke-width="28.792"/></g><g><circle data-type="point" data-label="conn_002" data-x="5" data-y="2.12" cx="983.9999999999998" cy="311.8720000000002" r="28.792" fill="red" stroke="#ae0fbd" stroke-width="28.792"/></g><g><circle data-type="point" data-label="conn_003" data-x="-5" data-y="4.04" cx="40.000000000000114" cy="130.62400000000025" r="28.792" fill="blue" stroke="#98bd0f" stroke-width="28.792"/></g><g><circle data-type="point" data-label="conn_003" data-x="-5" data-y="-3.88" cx="40.000000000000114" cy="878.2719999999999" r="28.792" fill="red" stroke="#98bd0f" stroke-width="28.792"/></g><g><circle data-type="point" data-label="conn_004" data-x="1.96" data-y="-5" cx="697.0239999999999" cy="984" r="28.792" fill="red" stroke="#0f66bd" stroke-width="28.792"/></g><g><circle data-type="point" data-label="conn_004" data-x="5" data-y="-0.64" cx="983.9999999999998" cy="572.416" r="28.792" fill="red" stroke="#0f66bd" stroke-width="28.792"/></g><g><circle data-type="point" data-label="conn_005" data-x="-3.12" data-y="5" cx="217.47200000000004" cy="40.000000000000284" r="28.792" fill="blue" stroke="#bd0f33" stroke-width="28.792"/></g><g><circle data-type="point" data-label="conn_005" data-x="5" data-y="-4.58" cx="983.9999999999998" cy="944.352" r="28.792" fill="blue" stroke="#bd0f33" stroke-width="28.792"/></g><g><circle data-type="point" data-label="conn_006" data-x="-2.1" data-y="5" cx="313.76" cy="40.000000000000284" r="28.792" fill="blue" stroke="#0fbd1e" stroke-width="28.792"/></g><g><circle data-type="point" data-label="conn_006" data-x="0.54" data-y="-5" cx="562.9759999999999" cy="984" r="28.792" fill="red" stroke="#0fbd1e" stroke-width="28.792"/></g><g><circle data-type="point" data-label="conn_007" data-x="-1.08" data-y="-5" cx="410.048" cy="984" r="28.792" fill="blue" stroke="#510fbd" stroke-width="28.792"/></g><g><circle data-type="point" data-label="conn_007" data-x="-1.4000000000000001" data-y="5" cx="379.84" cy="40.000000000000284" r="28.792" fill="blue" stroke="#510fbd" stroke-width="28.792"/></g><g><circle data-type="point" data-label="conn_008" data-x="-5" data-y="-1.12" cx="40.000000000000114" cy="617.7280000000001" r="28.792" fill="red" stroke="#bd830f" stroke-width="28.792"/></g><g><circle data-type="point" data-label="conn_008" data-x="5" data-y="-3.96" cx="983.9999999999998" cy="885.824" r="28.792" fill="blue" stroke="#bd830f" stroke-width="28.792"/></g><g><polyline data-points="-2.1717171717171713,5.000000000000002 -2.07070707070707,4.898989898989901 -1.9696969696969693,4.7979797979797985 -1.8686868686868683,4.696969696969697 -1.7676767676767675,4.595959595959597 -1.6666666666666665,4.494949494949497 -1.5656565656565653,4.393939393939394 -1.4646464646464643,4.292929292929293 -1.363636363636363,4.191919191919193 -1.2626262626262625,4.090909090909092 -1.1616161616161613,3.989898989898992 -1.0606060606060603,3.8888888888888893 -0.9595959595959596,3.7878787878787885 -0.8585858585858579,3.6868686868686877 -0.7575757575757572,3.5858585858585874 -0.6565656565656557,3.4848484848484866 -0.555555555555555,3.383838383838384 -0.4545454545454544,3.2828282828282833 -0.35353535353535287,3.181818181818183 -0.2525252525252522,3.080808080808082 -0.15151515151515066,2.9797979797979806 -0.05050505050505001,2.87878787878788 0.050505050505051545,2.7777777777777786 0.1515151515151522,2.676767676767678 0.2525252525252529,2.575757575757577 0.3535353535353544,2.4747474747474754 0.4545454545454551,2.373737373737375 0.5555555555555567,2.2727272727272734 0.5555555555555567,2.1717171717171726 0.5555555555555567,2.070707070707072 0.5555555555555567,1.9696969696969702 0.5555555555555567,1.8686868686868696 0.5555555555555567,1.767676767676768 0.5555555555555567,1.6666666666666674 0.5555555555555567,1.5656565656565666 0.5555555555555567,1.4646464646464652 0.5555555555555567,1.3636363636363644 0.5555555555555567,1.262626262626263 0.5555555555555567,1.1616161616161622 0.5555555555555567,1.0606060606060617 0.5555555555555567,0.9595959595959602 0.5555555555555567,0.8585858585858596 0.5555555555555567,0.7575757575757579 0.5555555555555567,0.6565656565656574 0.5555555555555567,0.5555555555555567 0.5555555555555567,0.4545454545454551 0.5555555555555567,0.3535353535353544 0.5555555555555567,0.2525252525252529 0.5555555555555567,0.1515151515151522 0.5555555555555567,0.050505050505051545 0.5555555555555567,-0.05050505050505001 0.5555555555555567,-0.15151515151515066 0.5555555555555567,-0.2525252525252522 0.5555555555555567,-0.35353535353535287 0.5555555555555567,-0.4545454545454544 0.5555555555555567,-0.555555555555555 0.5555555555555567,-0.6565656565656557 0.5555555555555567,-0.7575757575757572 0.5555555555555567,-0.8585858585858579 0.5555555555555567,-0.9595959595959596 0.5555555555555567,-1.0606060606060603 0.5555555555555567,-1.1616161616161613 0.5555555555555567,-1.2626262626262625 0.5555555555555567,-1.363636363636363 0.5555555555555567,-1.4646464646464643 0.5555555555555567,-1.5656565656565653 0.5555555555555567,-1.6666666666666665 0.5555555555555567,-1.7676767676767675 0.5555555555555567,-1.8686868686868683 0.5555555555555567,-1.9696969696969693 0.5555555555555567,-2.07070707070707 0.5555555555555567,-2.1717171717171713 0.5555555555555567,-2.2727272727272725 0.5555555555555567,-2.3737373737373733 0.5555555555555567,-2.474747474747474 0.5555555555555567,-2.5757575757575752 0.5555555555555567,-2.6767676767676765 0.5555555555555567,-2.7777777777777777 0.5555555555555567,-2.8787878787878785 0.5555555555555567,-2.9797979797979792 0.5555555555555567,-3.0808080808080804 0.5555555555555567,-3.1818181818181817 0.5555555555555567,-3.2828282828282824 0.5555555555555567,-3.383838383838383 0.5555555555555567,-3.484848484848485 0.5555555555555567,-3.5858585858585856 0.5555555555555567,-3.6868686868686864 0.5555555555555567,-3.7878787878787876 0.5555555555555567,-3.8888888888888884 0.5555555555555567,-3.98989898989899" data-type="line" data-label="" points="306.9898989898991,40.000000000000114 316.5252525252526,49.53535353535369 326.0606060606061,59.07070707070733 335.59595959595964,68.60606060606085 345.13131313131316,78.14141414141432 354.6666666666667,87.67676767676778 364.2020202020202,97.21212121212153 373.7373737373738,106.747474747475 383.2727272727273,116.28282828282846 392.80808080808083,125.81818181818198 402.34343434343435,135.35353535353545 411.8787878787879,144.88888888888908 421.4141414141414,154.4242424242426 430.949494949495,163.95959595959613 440.4848484848485,173.4949494949496 450.0202020202021,183.03030303030312 459.55555555555554,192.56565656565675 469.09090909090907,202.10101010101027 478.62626262626264,211.63636363636374 488.16161616161617,221.17171717171726 497.69696969696975,230.70707070707084 507.2323232323232,240.24242424242436 516.7676767676768,249.77777777777794 526.3030303030303,259.3131313131314 535.8383838383838,268.84848484848493 545.3737373737374,278.38383838383857 554.9090909090909,287.91919191919203 564.4444444444445,297.4545454545456 564.4444444444445,306.9898989898991 564.4444444444445,316.5252525252526 564.4444444444445,326.06060606060623 564.4444444444445,335.5959595959597 564.4444444444445,345.1313131313133 564.4444444444445,354.66666666666674 564.4444444444445,364.2020202020203 564.4444444444445,373.73737373737384 564.4444444444445,383.27272727272737 564.4444444444445,392.80808080808094 564.4444444444445,402.3434343434344 564.4444444444445,411.87878787878793 564.4444444444445,421.4141414141415 564.4444444444445,430.94949494949503 564.4444444444445,440.4848484848486 564.4444444444445,450.0202020202021 564.4444444444445,459.5555555555556 564.4444444444445,469.0909090909092 564.4444444444445,478.6262626262627 564.4444444444445,488.1616161616163 564.4444444444445,497.69696969696975 564.4444444444445,507.23232323232327 564.4444444444445,516.7676767676768 564.4444444444445,526.3030303030304 564.4444444444445,535.838383838384 564.4444444444445,545.3737373737374 564.4444444444445,554.909090909091 564.4444444444445,564.4444444444445 564.4444444444445,573.979797979798 564.4444444444445,583.5151515151516 564.4444444444445,593.0505050505051 564.4444444444445,602.5858585858587 564.4444444444445,612.1212121212121 564.4444444444445,621.6565656565657 564.4444444444445,631.1919191919193 564.4444444444445,640.7272727272727 564.4444444444445,650.2626262626263 564.4444444444445,659.7979797979798 564.4444444444445,669.3333333333334 564.4444444444445,678.8686868686868 564.4444444444445,688.4040404040404 564.4444444444445,697.939393939394 564.4444444444445,707.4747474747475 564.4444444444445,717.010101010101 564.4444444444445,726.5454545454545 564.4444444444445,736.0808080808081 564.4444444444445,745.6161616161615 564.4444444444445,755.1515151515151 564.4444444444445,764.6868686868687 564.4444444444445,774.2222222222222 564.4444444444445,783.7575757575758 564.4444444444445,793.2929292929292 564.4444444444445,802.8282828282828 564.4444444444445,812.3636363636363 564.4444444444445,821.8989898989898 564.4444444444445,831.4343434343434 564.4444444444445,840.969696969697 564.4444444444445,850.5050505050505 564.4444444444445,860.0404040404039 564.4444444444445,869.5757575757575 564.4444444444445,879.1111111111111 564.4444444444445,888.6464646464647" fill="none" stroke="rgba(0,0,255,0.75)" stroke-width="14.159999999999995"/></g><g><polyline data-points="0.5555555555555567,-3.98989898989899 0.5555555555555567,-4.090909090909091 0.5555555555555567,-4.191919191919193 0.5555555555555567,-4.292929292929293 0.5555555555555567,-4.393939393939394 0.5555555555555567,-4.494949494949496 0.5555555555555567,-4.595959595959596 0.5555555555555567,-4.696969696969697 0.5555555555555567,-4.7979797979797985 0.5555555555555567,-4.898989898989899 0.5555555555555567,-5.000000000000001" data-type="line" data-label="" points="564.4444444444445,888.6464646464647 564.4444444444445,898.1818181818181 564.4444444444445,907.7171717171718 564.4444444444445,917.2525252525252 564.4444444444445,926.7878787878788 564.4444444444445,936.3232323232323 564.4444444444445,945.8585858585858 564.4444444444445,955.3939393939394 564.4444444444445,964.9292929292928 564.4444444444445,974.4646464646464 564.4444444444445,984" fill="none" stroke="rgba(255,0,0,0.75)" stroke-width="14.159999999999995"/></g><g><polyline data-points="-5.000000000000001,1.1616161616161622 -4.898989898989899,1.0606060606060617 -4.7979797979797985,0.9595959595959602 -4.696969696969697,0.8585858585858596 -4.595959595959596,0.7575757575757579 -4.494949494949496,0.6565656565656574 -4.393939393939394,0.5555555555555567 -4.292929292929293,0.4545454545454551 -4.191919191919193,0.3535353535353544 -4.090909090909091,0.2525252525252529 -3.98989898989899,0.1515151515151522 -3.8888888888888884,0.050505050505051545 -3.7878787878787876,-0.05050505050505001 -3.6868686868686864,-0.15151515151515066 -3.5858585858585856,-0.2525252525252522 -3.484848484848485,-0.35353535353535287 -3.383838383838383,-0.4545454545454544 -3.2828282828282824,-0.555555555555555 -3.1818181818181817,-0.6565656565656557 -3.0808080808080804,-0.7575757575757572 -2.9797979797979792,-0.8585858585858579 -2.8787878787878785,-0.9595959595959596 -2.7777777777777777,-1.0606060606060603 -2.6767676767676765,-1.1616161616161613 -2.5757575757575752,-1.2626262626262625 -2.474747474747474,-1.363636363636363 -2.3737373737373733,-1.4646464646464643 -2.2727272727272725,-1.5656565656565653 -2.1717171717171713,-1.6666666666666665 -2.07070707070707,-1.6666666666666665 -1.9696969696969693,-1.6666666666666665 -1.8686868686868683,-1.6666666666666665 -1.7676767676767675,-1.6666666666666665 -1.6666666666666665,-1.6666666666666665 -1.5656565656565653,-1.6666666666666665 -1.4646464646464643,-1.6666666666666665 -1.363636363636363,-1.6666666666666665 -1.2626262626262625,-1.6666666666666665 -1.1616161616161613,-1.6666666666666665 -1.0606060606060603,-1.6666666666666665 -0.9595959595959596,-1.6666666666666665 -0.8585858585858579,-1.6666666666666665 -0.7575757575757572,-1.6666666666666665 -0.6565656565656557,-1.6666666666666665 -0.555555555555555,-1.6666666666666665 -0.4545454545454544,-1.6666666666666665 -0.35353535353535287,-1.6666666666666665 -0.2525252525252522,-1.6666666666666665 -0.15151515151515066,-1.6666666666666665 -0.05050505050505001,-1.6666666666666665 0.050505050505051545,-1.6666666666666665 0.1515151515151522,-1.6666666666666665 0.2525252525252529,-1.6666666666666665 0.3535353535353544,-1.6666666666666665 0.4545454545454551,-1.6666666666666665 0.5555555555555567,-1.6666666666666665 0.6565656565656574,-1.6666666666666665 0.7575757575757579,-1.6666666666666665 0.8585858585858596,-1.6666666666666665 0.9595959595959602,-1.6666666666666665 1.0606060606060617,-1.6666666666666665 1.1616161616161622,-1.6666666666666665 1.262626262626263,-1.6666666666666665 1.3636363636363644,-1.6666666666666665 1.4646464646464652,-1.6666666666666665 1.5656565656565666,-1.6666666666666665 1.6666666666666674,-1.6666666666666665 1.767676767676768,-1.6666666666666665 1.8686868686868696,-1.6666666666666665 1.9696969696969702,-1.6666666666666665 2.070707070707072,-1.6666666666666665 2.1717171717171726,-1.6666666666666665 2.2727272727272734,-1.6666666666666665 2.373737373737375,-1.6666666666666665 2.4747474747474754,-1.6666666666666665 2.575757575757577,-1.6666666666666665 2.676767676767678,-1.6666666666666665 2.7777777777777786,-1.6666666666666665 2.87878787878788,-1.6666666666666665 2.9797979797979806,-1.6666666666666665 3.080808080808082,-1.6666666666666665 3.181818181818183,-1.6666666666666665 3.2828282828282833,-1.6666666666666665 3.383838383838384,-1.6666666666666665 3.4848484848484866,-1.6666666666666665 3.5858585858585874,-1.6666666666666665 3.6868686868686877,-1.6666666666666665 3.7878787878787885,-1.6666666666666665 3.8888888888888893,-1.6666666666666665 3.989898989898992,-1.6666666666666665" data-type="line" data-label="" points="40.00000000000006,402.3434343434344 49.53535353535369,411.87878787878793 59.07070707070716,421.4141414141415 68.60606060606068,430.94949494949503 78.14141414141426,440.4848484848486 87.67676767676772,450.0202020202021 97.21212121212136,459.5555555555556 106.74747474747483,469.0909090909092 116.28282828282829,478.6262626262627 125.81818181818193,488.1616161616163 135.35353535353545,497.69696969696975 144.88888888888903,507.23232323232327 154.42424242424255,516.7676767676768 163.95959595959607,526.3030303030304 173.4949494949496,535.838383838384 183.03030303030312,545.3737373737374 192.5656565656567,554.909090909091 202.10101010101022,564.4444444444445 211.63636363636374,573.979797979798 221.17171717171726,583.5151515151516 230.70707070707084,593.0505050505051 240.2424242424243,602.5858585858587 249.77777777777783,612.1212121212121 259.3131313131314,621.6565656565657 268.84848484848493,631.1919191919193 278.38383838383845,640.7272727272727 287.91919191919203,650.2626262626263 297.4545454545455,659.7979797979798 306.9898989898991,669.3333333333334 316.5252525252526,669.3333333333334 326.0606060606061,669.3333333333334 335.59595959595964,669.3333333333334 345.13131313131316,669.3333333333334 354.6666666666667,669.3333333333334 364.2020202020202,669.3333333333334 373.7373737373738,669.3333333333334 383.2727272727273,669.3333333333334 392.80808080808083,669.3333333333334 402.34343434343435,669.3333333333334 411.8787878787879,669.3333333333334 421.4141414141414,669.3333333333334 430.949494949495,669.3333333333334 440.4848484848485,669.3333333333334 450.0202020202021,669.3333333333334 459.55555555555554,669.3333333333334 469.09090909090907,669.3333333333334 478.62626262626264,669.3333333333334 488.16161616161617,669.3333333333334 497.69696969696975,669.3333333333334 507.2323232323232,669.3333333333334 516.7676767676768,669.3333333333334 526.3030303030303,669.3333333333334 535.8383838383838,669.3333333333334 545.3737373737374,669.3333333333334 554.9090909090909,669.3333333333334 564.4444444444445,669.3333333333334 573.9797979797979,669.3333333333334 583.5151515151515,669.3333333333334 593.0505050505051,669.3333333333334 602.5858585858585,669.3333333333334 612.1212121212121,669.3333333333334 621.6565656565656,669.3333333333334 631.1919191919192,669.3333333333334 640.7272727272727,669.3333333333334 650.2626262626262,669.3333333333334 659.7979797979798,669.3333333333334 669.3333333333333,669.3333333333334 678.8686868686868,669.3333333333334 688.4040404040404,669.3333333333334 697.9393939393939,669.3333333333334 707.4747474747475,669.3333333333334 717.0101010101009,669.3333333333334 726.5454545454545,669.3333333333334 736.0808080808081,669.3333333333334 745.6161616161615,669.3333333333334 755.1515151515151,669.3333333333334 764.6868686868686,669.3333333333334 774.2222222222222,669.3333333333334 783.7575757575758,669.3333333333334 793.2929292929292,669.3333333333334 802.8282828282828,669.3333333333334 812.3636363636363,669.3333333333334 821.8989898989898,669.3333333333334 831.4343434343433,669.3333333333334 840.969696969697,669.3333333333334 850.5050505050505,669.3333333333334 860.0404040404039,669.3333333333334 869.5757575757575,669.3333333333334 879.111111111111,669.3333333333334 888.6464646464647,669.3333333333334" fill="none" stroke="rgba(255,0,0,0.75)" stroke-width="14.159999999999995"/></g><g><polyline data-points="3.989898989898992,-1.6666666666666665 4.090909090909092,-1.6666666666666665 4.191919191919193,-1.6666666666666665 4.292929292929293,-1.6666666666666665 4.393939393939394,-1.6666666666666665 4.494949494949497,-1.6666666666666665 4.595959595959597,-1.6666666666666665 4.696969696969697,-1.6666666666666665 4.7979797979797985,-1.6666666666666665 4.898989898989901,-1.6666666666666665 5.000000000000002,-1.6666666666666665" data-type="line" data-label="" points="888.6464646464647,669.3333333333334 898.181818181818,669.3333333333334 907.7171717171716,669.3333333333334 917.2525252525251,669.3333333333334 926.7878787878785,669.3333333333334 936.3232323232323,669.3333333333334 945.8585858585857,669.3333333333334 955.3939393939393,669.3333333333334 964.9292929292927,669.3333333333334 974.4646464646464,669.3333333333334 984,669.3333333333334" fill="none" stroke="rgba(0,0,255,0.75)" stroke-width="14.159999999999995"/></g><g><polyline data-points="-5.000000000000001,4.090909090909092 -5.000000000000001,3.989898989898992 -5.000000000000001,3.8888888888888893 -5.000000000000001,3.7878787878787885 -5.000000000000001,3.6868686868686877 -5.000000000000001,3.5858585858585874 -5.000000000000001,3.4848484848484866 -5.000000000000001,3.383838383838384 -5.000000000000001,3.2828282828282833 -5.000000000000001,3.181818181818183 -5.000000000000001,3.080808080808082 -5.000000000000001,2.9797979797979806 -5.000000000000001,2.87878787878788 -5.000000000000001,2.7777777777777786 -5.000000000000001,2.676767676767678 -5.000000000000001,2.575757575757577 -5.000000000000001,2.4747474747474754 -5.000000000000001,2.373737373737375 -5.000000000000001,2.2727272727272734 -5.000000000000001,2.1717171717171726 -5.000000000000001,2.070707070707072 -5.000000000000001,1.9696969696969702 -5.000000000000001,1.8686868686868696 -5.000000000000001,1.767676767676768 -5.000000000000001,1.6666666666666674 -5.000000000000001,1.5656565656565666 -5.000000000000001,1.4646464646464652 -5.000000000000001,1.3636363636363644 -5.000000000000001,1.262626262626263 -5.000000000000001,1.1616161616161622 -5.000000000000001,1.0606060606060617 -5.000000000000001,0.9595959595959602 -5.000000000000001,0.8585858585858596 -5.000000000000001,0.7575757575757579 -5.000000000000001,0.6565656565656574 -5.000000000000001,0.5555555555555567 -5.000000000000001,0.4545454545454551 -5.000000000000001,0.3535353535353544 -5.000000000000001,0.2525252525252529 -5.000000000000001,0.1515151515151522 -5.000000000000001,0.050505050505051545 -5.000000000000001,-0.05050505050505001 -5.000000000000001,-0.15151515151515066 -5.000000000000001,-0.2525252525252522 -5.000000000000001,-0.35353535353535287 -5.000000000000001,-0.4545454545454544 -5.000000000000001,-0.555555555555555 -5.000000000000001,-0.6565656565656557 -5.000000000000001,-0.7575757575757572 -5.000000000000001,-0.8585858585858579 -5.000000000000001,-0.9595959595959596 -5.000000000000001,-1.0606060606060603 -5.000000000000001,-1.1616161616161613 -5.000000000000001,-1.2626262626262625 -5.000000000000001,-1.363636363636363 -5.000000000000001,-1.4646464646464643 -5.000000000000001,-1.5656565656565653 -5.000000000000001,-1.6666666666666665 -5.000000000000001,-1.7676767676767675 -5.000000000000001,-1.8686868686868683 -5.000000000000001,-1.9696969696969693 -5.000000000000001,-2.07070707070707 -5.000000000000001,-2.1717171717171713 -5.000000000000001,-2.2727272727272725 -5.000000000000001,-2.3737373737373733 -5.000000000000001,-2.474747474747474 -5.000000000000001,-2.5757575757575752 -5.000000000000001,-2.6767676767676765 -5.000000000000001,-2.7777777777777777 -4.898989898989899,-2.8787878787878785 -4.7979797979797985,-2.9797979797979792 -4.696969696969697,-3.0808080808080804 -4.595959595959596,-3.1818181818181817 -4.494949494949496,-3.2828282828282824 -4.393939393939394,-3.383838383838383 -4.292929292929293,-3.484848484848485 -4.191919191919193,-3.5858585858585856 -4.090909090909091,-3.6868686868686864 -3.98989898989899,-3.7878787878787876" data-type="line" data-label="" points="40.00000000000006,125.81818181818198 40.00000000000006,135.35353535353545 40.00000000000006,144.88888888888908 40.00000000000006,154.4242424242426 40.00000000000006,163.95959595959613 40.00000000000006,173.4949494949496 40.00000000000006,183.03030303030312 40.00000000000006,192.56565656565675 40.00000000000006,202.10101010101027 40.00000000000006,211.63636363636374 40.00000000000006,221.17171717171726 40.00000000000006,230.70707070707084 40.00000000000006,240.24242424242436 40.00000000000006,249.77777777777794 40.00000000000006,259.3131313131314 40.00000000000006,268.84848484848493 40.00000000000006,278.38383838383857 40.00000000000006,287.91919191919203 40.00000000000006,297.4545454545456 40.00000000000006,306.9898989898991 40.00000000000006,316.5252525252526 40.00000000000006,326.06060606060623 40.00000000000006,335.5959595959597 40.00000000000006,345.1313131313133 40.00000000000006,354.66666666666674 40.00000000000006,364.2020202020203 40.00000000000006,373.73737373737384 40.00000000000006,383.27272727272737 40.00000000000006,392.80808080808094 40.00000000000006,402.3434343434344 40.00000000000006,411.87878787878793 40.00000000000006,421.4141414141415 40.00000000000006,430.94949494949503 40.00000000000006,440.4848484848486 40.00000000000006,450.0202020202021 40.00000000000006,459.5555555555556 40.00000000000006,469.0909090909092 40.00000000000006,478.6262626262627 40.00000000000006,488.1616161616163 40.00000000000006,497.69696969696975 40.00000000000006,507.23232323232327 40.00000000000006,516.7676767676768 40.00000000000006,526.3030303030304 40.00000000000006,535.838383838384 40.00000000000006,545.3737373737374 40.00000000000006,554.909090909091 40.00000000000006,564.4444444444445 40.00000000000006,573.979797979798 40.00000000000006,583.5151515151516 40.00000000000006,593.0505050505051 40.00000000000006,602.5858585858587 40.00000000000006,612.1212121212121 40.00000000000006,621.6565656565657 40.00000000000006,631.1919191919193 40.00000000000006,640.7272727272727 40.00000000000006,650.2626262626263 40.00000000000006,659.7979797979798 40.00000000000006,669.3333333333334 40.00000000000006,678.8686868686868 40.00000000000006,688.4040404040404 40.00000000000006,697.939393939394 40.00000000000006,707.4747474747475 40.00000000000006,717.010101010101 40.00000000000006,726.5454545454545 40.00000000000006,736.0808080808081 40.00000000000006,745.6161616161615 40.00000000000006,755.1515151515151 40.00000000000006,764.6868686868687 40.00000000000006,774.2222222222222 49.53535353535369,783.7575757575758 59.07070707070716,793.2929292929292 68.60606060606068,802.8282828282828 78.14141414141426,812.3636363636363 87.67676767676772,821.8989898989898 97.21212121212136,831.4343434343434 106.74747474747483,840.969696969697 116.28282828282829,850.5050505050505 125.81818181818193,860.0404040404039 135.35353535353545,869.5757575757575" fill="none" stroke="rgba(0,0,255,0.75)" stroke-width="14.159999999999995"/></g><g><polyline data-points="-3.98989898989899,-3.7878787878787876 -4.090909090909091,-3.8888888888888884 -4.191919191919193,-3.8888888888888884 -4.292929292929293,-3.8888888888888884 -4.393939393939394,-3.8888888888888884 -4.494949494949496,-3.8888888888888884 -4.595959595959596,-3.8888888888888884 -4.696969696969697,-3.8888888888888884 -4.7979797979797985,-3.8888888888888884 -4.898989898989899,-3.8888888888888884 -5.000000000000001,-3.8888888888888884" data-type="line" data-label="" points="135.35353535353545,869.5757575757575 125.81818181818193,879.1111111111111 116.28282828282829,879.1111111111111 106.74747474747483,879.1111111111111 97.21212121212136,879.1111111111111 87.67676767676772,879.1111111111111 78.14141414141426,879.1111111111111 68.60606060606068,879.1111111111111 59.07070707070716,879.1111111111111 49.53535353535369,879.1111111111111 40.00000000000006,879.1111111111111" fill="none" stroke="rgba(255,0,0,0.75)" stroke-width="14.159999999999995"/></g><g><polyline data-points="-5.000000000000001,-2.8787878787878785 -4.898989898989899,-2.7777777777777777 -4.7979797979797985,-2.6767676767676765 -4.696969696969697,-2.5757575757575752 -4.595959595959596,-2.474747474747474 -4.494949494949496,-2.3737373737373733 -4.393939393939394,-2.2727272727272725 -4.292929292929293,-2.1717171717171713 -4.191919191919193,-2.07070707070707 -4.090909090909091,-1.9696969696969693 -3.98989898989899,-1.8686868686868683 -3.8888888888888884,-1.7676767676767675 -3.7878787878787876,-1.6666666666666665 -3.6868686868686864,-1.5656565656565653 -3.5858585858585856,-1.4646464646464643 -3.484848484848485,-1.363636363636363 -3.383838383838383,-1.2626262626262625" data-type="line" data-label="" points="40.00000000000006,783.7575757575758 49.53535353535369,774.2222222222222 59.07070707070716,764.6868686868687 68.60606060606068,755.1515151515151 78.14141414141426,745.6161616161615 87.67676767676772,736.0808080808081 97.21212121212136,726.5454545454545 106.74747474747483,717.010101010101 116.28282828282829,707.4747474747475 125.81818181818193,697.939393939394 135.35353535353545,688.4040404040404 144.88888888888903,678.8686868686868 154.42424242424255,669.3333333333334 163.95959595959607,659.7979797979798 173.4949494949496,650.2626262626263 183.03030303030312,640.7272727272727 192.5656565656567,631.1919191919193" fill="none" stroke="rgba(255,0,0,0.75)" stroke-width="14.159999999999995"/></g><g><polyline data-points="-3.383838383838383,-1.2626262626262625 -3.2828282828282824,-1.1616161616161613 -3.1818181818181817,-1.0606060606060603 -3.0808080808080804,-0.9595959595959596 -2.9797979797979792,-0.8585858585858579 -2.8787878787878785,-0.7575757575757572 -2.7777777777777777,-0.6565656565656557 -2.6767676767676765,-0.555555555555555 -2.5757575757575752,-0.4545454545454544 -2.474747474747474,-0.35353535353535287 -2.3737373737373733,-0.2525252525252522 -2.2727272727272725,-0.15151515151515066 -2.1717171717171713,-0.05050505050505001 -2.07070707070707,0.050505050505051545 -1.9696969696969693,0.1515151515151522 -1.8686868686868683,0.2525252525252529 -1.7676767676767675,0.3535353535353544 -1.6666666666666665,0.4545454545454551 -1.5656565656565653,0.5555555555555567 -1.4646464646464643,0.6565656565656574 -1.363636363636363,0.7575757575757579 -1.2626262626262625,0.8585858585858596 -1.1616161616161613,0.9595959595959602 -1.0606060606060603,1.0606060606060617 -0.9595959595959596,1.1616161616161622 -0.8585858585858579,1.262626262626263 -0.7575757575757572,1.3636363636363644 -0.6565656565656557,1.4646464646464652 -0.555555555555555,1.5656565656565666 -0.4545454545454544,1.6666666666666674 -0.35353535353535287,1.767676767676768 -0.2525252525252522,1.8686868686868696 -0.15151515151515066,1.9696969696969702 -0.05050505050505001,2.070707070707072" data-type="line" data-label="" points="192.5656565656567,631.1919191919193 202.10101010101022,621.6565656565657 211.63636363636374,612.1212121212121 221.17171717171726,602.5858585858587 230.70707070707084,593.0505050505051 240.2424242424243,583.5151515151516 249.77777777777783,573.979797979798 259.3131313131314,564.4444444444445 268.84848484848493,554.909090909091 278.38383838383845,545.3737373737374 287.91919191919203,535.838383838384 297.4545454545455,526.3030303030304 306.9898989898991,516.7676767676768 316.5252525252526,507.23232323232327 326.0606060606061,497.69696969696975 335.59595959595964,488.1616161616163 345.13131313131316,478.6262626262627 354.6666666666667,469.0909090909092 364.2020202020202,459.5555555555556 373.7373737373738,450.0202020202021 383.2727272727273,440.4848484848486 392.80808080808083,430.94949494949503 402.34343434343435,421.4141414141415 411.8787878787879,411.87878787878793 421.4141414141414,402.3434343434344 430.949494949495,392.80808080808094 440.4848484848485,383.27272727272737 450.0202020202021,373.73737373737384 459.55555555555554,364.2020202020203 469.09090909090907,354.66666666666674 478.62626262626264,345.1313131313133 488.16161616161617,335.5959595959597 497.69696969696975,326.06060606060623 507.2323232323232,316.5252525252526" fill="none" stroke="rgba(0,0,255,0.75)" stroke-width="14.159999999999995"/></g><g><polyline data-points="-0.05050505050505001,2.070707070707072 0.050505050505051545,2.1717171717171726 0.1515151515151522,2.1717171717171726 0.2525252525252529,2.1717171717171726 0.3535353535353544,2.1717171717171726 0.4545454545454551,2.1717171717171726 0.5555555555555567,2.1717171717171726 0.6565656565656574,2.1717171717171726 0.7575757575757579,2.1717171717171726 0.8585858585858596,2.1717171717171726 0.9595959595959602,2.1717171717171726 1.0606060606060617,2.1717171717171726 1.1616161616161622,2.1717171717171726 1.262626262626263,2.1717171717171726 1.3636363636363644,2.1717171717171726 1.4646464646464652,2.1717171717171726 1.5656565656565666,2.1717171717171726 1.6666666666666674,2.1717171717171726 1.767676767676768,2.1717171717171726 1.8686868686868696,2.1717171717171726 1.9696969696969702,2.1717171717171726 2.070707070707072,2.1717171717171726 2.1717171717171726,2.1717171717171726 2.2727272727272734,2.1717171717171726 2.373737373737375,2.1717171717171726 2.4747474747474754,2.1717171717171726 2.575757575757577,2.1717171717171726 2.676767676767678,2.1717171717171726 2.7777777777777786,2.1717171717171726 2.87878787878788,2.1717171717171726 2.9797979797979806,2.1717171717171726 3.080808080808082,2.1717171717171726 3.181818181818183,2.1717171717171726 3.2828282828282833,2.1717171717171726 3.383838383838384,2.1717171717171726 3.4848484848484866,2.1717171717171726 3.5858585858585874,2.1717171717171726 3.6868686868686877,2.1717171717171726 3.7878787878787885,2.1717171717171726 3.8888888888888893,2.1717171717171726 3.989898989898992,2.1717171717171726 4.090909090909092,2.1717171717171726 4.191919191919193,2.1717171717171726 4.292929292929293,2.1717171717171726 4.393939393939394,2.1717171717171726 4.494949494949497,2.1717171717171726 4.595959595959597,2.1717171717171726 4.696969696969697,2.1717171717171726 4.7979797979797985,2.1717171717171726 4.898989898989901,2.1717171717171726 5.000000000000002,2.1717171717171726" data-type="line" data-label="" points="507.2323232323232,316.5252525252526 516.7676767676768,306.9898989898991 526.3030303030303,306.9898989898991 535.8383838383838,306.9898989898991 545.3737373737374,306.9898989898991 554.9090909090909,306.9898989898991 564.4444444444445,306.9898989898991 573.9797979797979,306.9898989898991 583.5151515151515,306.9898989898991 593.0505050505051,306.9898989898991 602.5858585858585,306.9898989898991 612.1212121212121,306.9898989898991 621.6565656565656,306.9898989898991 631.1919191919192,306.9898989898991 640.7272727272727,306.9898989898991 650.2626262626262,306.9898989898991 659.7979797979798,306.9898989898991 669.3333333333333,306.9898989898991 678.8686868686868,306.9898989898991 688.4040404040404,306.9898989898991 697.9393939393939,306.9898989898991 707.4747474747475,306.9898989898991 717.0101010101009,306.9898989898991 726.5454545454545,306.9898989898991 736.0808080808081,306.9898989898991 745.6161616161615,306.9898989898991 755.1515151515151,306.9898989898991 764.6868686868686,306.9898989898991 774.2222222222222,306.9898989898991 783.7575757575758,306.9898989898991 793.2929292929292,306.9898989898991 802.8282828282828,306.9898989898991 812.3636363636363,306.9898989898991 821.8989898989898,306.9898989898991 831.4343434343433,306.9898989898991 840.969696969697,306.9898989898991 850.5050505050505,306.9898989898991 860.0404040404039,306.9898989898991 869.5757575757575,306.9898989898991 879.111111111111,306.9898989898991 888.6464646464647,306.9898989898991 898.181818181818,306.9898989898991 907.7171717171716,306.9898989898991 917.2525252525251,306.9898989898991 926.7878787878785,306.9898989898991 936.3232323232323,306.9898989898991 945.8585858585857,306.9898989898991 955.3939393939393,306.9898989898991 964.9292929292927,306.9898989898991 974.4646464646464,306.9898989898991 984,306.9898989898991" fill="none" stroke="rgba(255,0,0,0.75)" stroke-width="14.159999999999995"/></g><g><polyline data-points="1.767676767676768,5.000000000000002 1.6666666666666674,4.898989898989901 1.5656565656565666,4.7979797979797985 1.4646464646464652,4.696969696969697 1.3636363636363644,4.595959595959597 1.262626262626263,4.494949494949497 1.1616161616161622,4.393939393939394 1.0606060606060617,4.292929292929293 0.9595959595959602,4.191919191919193 0.8585858585858596,4.090909090909092 0.7575757575757579,3.989898989898992" data-type="line" data-label="" points="678.8686868686868,40.000000000000114 669.3333333333333,49.53535353535369 659.7979797979798,59.07070707070733 650.2626262626262,68.60606060606085 640.7272727272727,78.14141414141432 631.1919191919192,87.67676767676778 621.6565656565656,97.21212121212153 612.1212121212121,106.747474747475 602.5858585858585,116.28282828282846 593.0505050505051,125.81818181818198 583.5151515151515,135.35353535353545" fill="none" stroke="rgba(255,0,0,0.75)" stroke-width="14.159999999999995"/></g><g><polyline data-points="0.7575757575757579,3.989898989898992 0.6565656565656574,4.090909090909092 0.5555555555555567,4.191919191919193 0.5555555555555567,4.292929292929293 0.5555555555555567,4.393939393939394 0.5555555555555567,4.494949494949497 0.5555555555555567,4.595959595959597 0.5555555555555567,4.696969696969697 0.5555555555555567,4.7979797979797985 0.5555555555555567,4.898989898989901 0.5555555555555567,5.000000000000002" data-type="line" data-label="" points="583.5151515151515,135.35353535353545 573.9797979797979,125.81818181818198 564.4444444444445,116.28282828282846 564.4444444444445,106.747474747475 564.4444444444445,97.21212121212153 564.4444444444445,87.67676767676778 564.4444444444445,78.14141414141432 564.4444444444445,68.60606060606085 564.4444444444445,59.07070707070733 564.4444444444445,49.53535353535369 564.4444444444445,40.000000000000114" fill="none" stroke="rgba(0,0,255,0.75)" stroke-width="14.159999999999995"/></g><g><polyline data-points="-5.000000000000001,-1.1616161616161613 -4.898989898989899,-1.1616161616161613 -4.7979797979797985,-1.1616161616161613 -4.696969696969697,-1.1616161616161613 -4.595959595959596,-1.1616161616161613 -4.494949494949496,-1.1616161616161613 -4.393939393939394,-1.1616161616161613 -4.292929292929293,-1.0606060606060603 -4.191919191919193,-0.9595959595959596 -4.090909090909091,-0.8585858585858579 -3.98989898989899,-0.7575757575757572" data-type="line" data-label="" points="40.00000000000006,621.6565656565657 49.53535353535369,621.6565656565657 59.07070707070716,621.6565656565657 68.60606060606068,621.6565656565657 78.14141414141426,621.6565656565657 87.67676767676772,621.6565656565657 97.21212121212136,621.6565656565657 106.74747474747483,612.1212121212121 116.28282828282829,602.5858585858587 125.81818181818193,593.0505050505051 135.35353535353545,583.5151515151516" fill="none" stroke="rgba(255,0,0,0.75)" stroke-width="14.159999999999995"/></g><g><polyline data-points="-3.98989898989899,-0.7575757575757572 -3.8888888888888884,-0.8585858585858579 -3.8888888888888884,-0.9595959595959596 -3.8888888888888884,-1.0606060606060603 -3.8888888888888884,-1.1616161616161613 -3.8888888888888884,-1.2626262626262625 -3.7878787878787876,-1.363636363636363 -3.7878787878787876,-1.4646464646464643 -3.6868686868686864,-1.5656565656565653 -3.5858585858585856,-1.6666666666666665 -3.484848484848485,-1.7676767676767675 -3.383838383838383,-1.8686868686868683 -3.2828282828282824,-1.9696969696969693 -3.1818181818181817,-2.07070707070707 -3.0808080808080804,-2.1717171717171713 -2.9797979797979792,-2.2727272727272725 -2.8787878787878785,-2.3737373737373733 -2.7777777777777777,-2.474747474747474 -2.6767676767676765,-2.5757575757575752 -2.5757575757575752,-2.6767676767676765 -2.474747474747474,-2.7777777777777777 -2.3737373737373733,-2.8787878787878785 -2.2727272727272725,-2.9797979797979792 -2.1717171717171713,-3.0808080808080804 -2.07070707070707,-3.1818181818181817 -1.9696969696969693,-3.2828282828282824 -1.8686868686868683,-3.383838383838383 -1.7676767676767675,-3.484848484848485 -1.6666666666666665,-3.484848484848485 -1.5656565656565653,-3.484848484848485 -1.4646464646464643,-3.484848484848485 -1.363636363636363,-3.484848484848485 -1.2626262626262625,-3.484848484848485 -1.1616161616161613,-3.484848484848485 -1.0606060606060603,-3.484848484848485 -0.9595959595959596,-3.484848484848485 -0.8585858585858579,-3.484848484848485 -0.7575757575757572,-3.484848484848485 -0.6565656565656557,-3.484848484848485 -0.555555555555555,-3.484848484848485 -0.4545454545454544,-3.484848484848485 -0.35353535353535287,-3.484848484848485 -0.2525252525252522,-3.484848484848485 -0.15151515151515066,-3.484848484848485 -0.05050505050505001,-3.484848484848485" data-type="line" data-label="" points="135.35353535353545,583.5151515151516 144.88888888888903,593.0505050505051 144.88888888888903,602.5858585858587 144.88888888888903,612.1212121212121 144.88888888888903,621.6565656565657 144.88888888888903,631.1919191919193 154.42424242424255,640.7272727272727 154.42424242424255,650.2626262626263 163.95959595959607,659.7979797979798 173.4949494949496,669.3333333333334 183.03030303030312,678.8686868686868 192.5656565656567,688.4040404040404 202.10101010101022,697.939393939394 211.63636363636374,707.4747474747475 221.17171717171726,717.010101010101 230.70707070707084,726.5454545454545 240.2424242424243,736.0808080808081 249.77777777777783,745.6161616161615 259.3131313131314,755.1515151515151 268.84848484848493,764.6868686868687 278.38383838383845,774.2222222222222 287.91919191919203,783.7575757575758 297.4545454545455,793.2929292929292 306.9898989898991,802.8282828282828 316.5252525252526,812.3636363636363 326.0606060606061,821.8989898989898 335.59595959595964,831.4343434343434 345.13131313131316,840.969696969697 354.6666666666667,840.969696969697 364.2020202020202,840.969696969697 373.7373737373738,840.969696969697 383.2727272727273,840.969696969697 392.80808080808083,840.969696969697 402.34343434343435,840.969696969697 411.8787878787879,840.969696969697 421.4141414141414,840.969696969697 430.949494949495,840.969696969697 440.4848484848485,840.969696969697 450.0202020202021,840.969696969697 459.55555555555554,840.969696969697 469.09090909090907,840.969696969697 478.62626262626264,840.969696969697 488.16161616161617,840.969696969697 497.69696969696975,840.969696969697 507.2323232323232,840.969696969697" fill="none" stroke="rgba(0,0,255,0.75)" stroke-width="14.159999999999995"/></g><g><polyline data-points="-0.05050505050505001,-3.484848484848485 0.050505050505051545,-3.484848484848485 0.1515151515151522,-3.484848484848485 0.2525252525252529,-3.484848484848485 0.3535353535353544,-3.484848484848485 0.4545454545454551,-3.484848484848485 0.5555555555555567,-3.484848484848485 0.6565656565656574,-3.5858585858585856 0.7575757575757579,-3.5858585858585856 0.8585858585858596,-3.6868686868686864 0.9595959595959602,-3.7878787878787876 1.0606060606060617,-3.8888888888888884 1.1616161616161622,-3.98989898989899 1.262626262626263,-3.98989898989899 1.3636363636363644,-3.98989898989899 1.4646464646464652,-3.98989898989899 1.5656565656565666,-3.98989898989899 1.6666666666666674,-3.98989898989899 1.767676767676768,-3.98989898989899 1.8686868686868696,-3.98989898989899 1.9696969696969702,-3.98989898989899 2.070707070707072,-3.98989898989899 2.1717171717171726,-3.98989898989899 2.2727272727272734,-3.98989898989899 2.373737373737375,-3.98989898989899 2.4747474747474754,-3.98989898989899 2.575757575757577,-3.98989898989899 2.676767676767678,-3.98989898989899 2.7777777777777786,-3.98989898989899 2.87878787878788,-3.98989898989899 2.9797979797979806,-3.98989898989899 3.080808080808082,-3.98989898989899 3.181818181818183,-3.98989898989899 3.2828282828282833,-3.98989898989899 3.383838383838384,-3.98989898989899 3.4848484848484866,-3.98989898989899 3.5858585858585874,-3.98989898989899 3.6868686868686877,-3.98989898989899 3.7878787878787885,-3.98989898989899 3.8888888888888893,-3.98989898989899 3.989898989898992,-3.98989898989899" data-type="line" data-label="" points="507.2323232323232,840.969696969697 516.7676767676768,840.969696969697 526.3030303030303,840.969696969697 535.8383838383838,840.969696969697 545.3737373737374,840.969696969697 554.9090909090909,840.969696969697 564.4444444444445,840.969696969697 573.9797979797979,850.5050505050505 583.5151515151515,850.5050505050505 593.0505050505051,860.0404040404039 602.5858585858585,869.5757575757575 612.1212121212121,879.1111111111111 621.6565656565656,888.6464646464647 631.1919191919192,888.6464646464647 640.7272727272727,888.6464646464647 650.2626262626262,888.6464646464647 659.7979797979798,888.6464646464647 669.3333333333333,888.6464646464647 678.8686868686868,888.6464646464647 688.4040404040404,888.6464646464647 697.9393939393939,888.6464646464647 707.4747474747475,888.6464646464647 717.0101010101009,888.6464646464647 726.5454545454545,888.6464646464647 736.0808080808081,888.6464646464647 745.6161616161615,888.6464646464647 755.1515151515151,888.6464646464647 764.6868686868686,888.6464646464647 774.2222222222222,888.6464646464647 783.7575757575758,888.6464646464647 793.2929292929292,888.6464646464647 802.8282828282828,888.6464646464647 812.3636363636363,888.6464646464647 821.8989898989898,888.6464646464647 831.4343434343433,888.6464646464647 840.969696969697,888.6464646464647 850.5050505050505,888.6464646464647 860.0404040404039,888.6464646464647 869.5757575757575,888.6464646464647 879.111111111111,888.6464646464647 888.6464646464647,888.6464646464647" fill="none" stroke="rgba(255,0,0,0.75)" stroke-width="14.159999999999995"/></g><g><polyline data-points="3.989898989898992,-3.98989898989899 4.090909090909092,-3.98989898989899 4.191919191919193,-3.98989898989899 4.292929292929293,-3.98989898989899 4.393939393939394,-3.98989898989899 4.494949494949497,-3.98989898989899 4.595959595959597,-3.98989898989899 4.696969696969697,-3.98989898989899 4.7979797979797985,-3.98989898989899 4.898989898989901,-3.98989898989899 5.000000000000002,-3.98989898989899" data-type="line" data-label="" points="888.6464646464647,888.6464646464647 898.181818181818,888.6464646464647 907.7171717171716,888.6464646464647 917.2525252525251,888.6464646464647 926.7878787878785,888.6464646464647 936.3232323232323,888.6464646464647 945.8585858585857,888.6464646464647 955.3939393939393,888.6464646464647 964.9292929292927,888.6464646464647 974.4646464646464,888.6464646464647 984,888.6464646464647" fill="none" stroke="rgba(0,0,255,0.75)" stroke-width="14.159999999999995"/></g><g><polyline data-points="1.9696969696969702,-5.000000000000001 2.070707070707072,-4.898989898989899 2.1717171717171726,-4.7979797979797985 2.2727272727272734,-4.696969696969697 2.373737373737375,-4.595959595959596 2.4747474747474754,-4.494949494949496 2.575757575757577,-4.494949494949496 2.676767676767678,-4.494949494949496 2.7777777777777786,-4.494949494949496 2.87878787878788,-4.494949494949496 2.9797979797979806,-4.494949494949496 3.080808080808082,-4.494949494949496 3.181818181818183,-4.494949494949496 3.2828282828282833,-4.494949494949496 3.383838383838384,-4.494949494949496 3.4848484848484866,-4.494949494949496 3.5858585858585874,-4.494949494949496 3.6868686868686877,-4.494949494949496 3.7878787878787885,-4.494949494949496 3.8888888888888893,-4.494949494949496 3.989898989898992,-4.494949494949496 4.090909090909092,-4.393939393939394 4.191919191919193,-4.393939393939394 4.292929292929293,-4.292929292929293 4.393939393939394,-4.191919191919193 4.494949494949497,-4.090909090909091 4.595959595959597,-3.98989898989899 4.696969696969697,-3.8888888888888884 4.7979797979797985,-3.7878787878787876 4.898989898989901,-3.6868686868686864 5.000000000000002,-3.5858585858585856 5.000000000000002,-3.484848484848485 5.000000000000002,-3.383838383838383 5.000000000000002,-3.2828282828282824 5.000000000000002,-3.1818181818181817 5.000000000000002,-3.0808080808080804 5.000000000000002,-2.9797979797979792 5.000000000000002,-2.8787878787878785 5.000000000000002,-2.7777777777777777 5.000000000000002,-2.6767676767676765 5.000000000000002,-2.5757575757575752 5.000000000000002,-2.474747474747474 5.000000000000002,-2.3737373737373733 5.000000000000002,-2.2727272727272725 5.000000000000002,-2.1717171717171713 5.000000000000002,-2.07070707070707 5.000000000000002,-1.9696969696969693 5.000000000000002,-1.8686868686868683 5.000000000000002,-1.7676767676767675 5.000000000000002,-1.6666666666666665 5.000000000000002,-1.5656565656565653 5.000000000000002,-1.4646464646464643 5.000000000000002,-1.363636363636363 5.000000000000002,-1.2626262626262625 5.000000000000002,-1.1616161616161613 5.000000000000002,-1.0606060606060603 5.000000000000002,-0.9595959595959596 5.000000000000002,-0.8585858585858579 5.000000000000002,-0.7575757575757572 5.000000000000002,-0.6565656565656557" data-type="line" data-label="" points="697.9393939393939,984 707.4747474747475,974.4646464646464 717.0101010101009,964.9292929292928 726.5454545454545,955.3939393939394 736.0808080808081,945.8585858585858 745.6161616161615,936.3232323232323 755.1515151515151,936.3232323232323 764.6868686868686,936.3232323232323 774.2222222222222,936.3232323232323 783.7575757575758,936.3232323232323 793.2929292929292,936.3232323232323 802.8282828282828,936.3232323232323 812.3636363636363,936.3232323232323 821.8989898989898,936.3232323232323 831.4343434343433,936.3232323232323 840.969696969697,936.3232323232323 850.5050505050505,936.3232323232323 860.0404040404039,936.3232323232323 869.5757575757575,936.3232323232323 879.111111111111,936.3232323232323 888.6464646464647,936.3232323232323 898.181818181818,926.7878787878788 907.7171717171716,926.7878787878788 917.2525252525251,917.2525252525252 926.7878787878785,907.7171717171718 936.3232323232323,898.1818181818181 945.8585858585857,888.6464646464647 955.3939393939393,879.1111111111111 964.9292929292927,869.5757575757575 974.4646464646464,860.0404040404039 984,850.5050505050505 984,840.969696969697 984,831.4343434343434 984,821.8989898989898 984,812.3636363636363 984,802.8282828282828 984,793.2929292929292 984,783.7575757575758 984,774.2222222222222 984,764.6868686868687 984,755.1515151515151 984,745.6161616161615 984,736.0808080808081 984,726.5454545454545 984,717.010101010101 984,707.4747474747475 984,697.939393939394 984,688.4040404040404 984,678.8686868686868 984,669.3333333333334 984,659.7979797979798 984,650.2626262626263 984,640.7272727272727 984,631.1919191919193 984,621.6565656565657 984,612.1212121212121 984,602.5858585858587 984,593.0505050505051 984,583.5151515151516 984,573.979797979798" fill="none" stroke="rgba(255,0,0,0.75)" stroke-width="14.159999999999995"/></g><g><polyline data-points="-3.1818181818181817,5.000000000000002 -3.0808080808080804,4.898989898989901 -2.9797979797979792,4.7979797979797985 -2.8787878787878785,4.696969696969697 -2.7777777777777777,4.595959595959597 -2.6767676767676765,4.494949494949497 -2.5757575757575752,4.393939393939394 -2.474747474747474,4.292929292929293 -2.3737373737373733,4.191919191919193 -2.2727272727272725,4.090909090909092 -2.1717171717171713,3.989898989898992 -2.07070707070707,3.8888888888888893 -1.9696969696969693,3.7878787878787885 -1.8686868686868683,3.6868686868686877 -1.7676767676767675,3.5858585858585874 -1.6666666666666665,3.4848484848484866 -1.5656565656565653,3.383838383838384 -1.4646464646464643,3.2828282828282833 -1.363636363636363,3.181818181818183 -1.2626262626262625,3.080808080808082 -1.1616161616161613,2.9797979797979806 -1.0606060606060603,2.87878787878788 -0.9595959595959596,2.7777777777777786 -0.8585858585858579,2.676767676767678 -0.7575757575757572,2.575757575757577" data-type="line" data-label="" points="211.63636363636374,40.000000000000114 221.17171717171726,49.53535353535369 230.70707070707084,59.07070707070733 240.2424242424243,68.60606060606085 249.77777777777783,78.14141414141432 259.3131313131314,87.67676767676778 268.84848484848493,97.21212121212153 278.38383838383845,106.747474747475 287.91919191919203,116.28282828282846 297.4545454545455,125.81818181818198 306.9898989898991,135.35353535353545 316.5252525252526,144.88888888888908 326.0606060606061,154.4242424242426 335.59595959595964,163.95959595959613 345.13131313131316,173.4949494949496 354.6666666666667,183.03030303030312 364.2020202020202,192.56565656565675 373.7373737373738,202.10101010101027 383.2727272727273,211.63636363636374 392.80808080808083,221.17171717171726 402.34343434343435,230.70707070707084 411.8787878787879,240.24242424242436 421.4141414141414,249.77777777777794 430.949494949495,259.3131313131314 440.4848484848485,268.84848484848493" fill="none" stroke="rgba(0,0,255,0.75)" stroke-width="14.159999999999995"/></g><g><polyline data-points="-0.7575757575757572,2.575757575757577 -0.6565656565656557,2.4747474747474754 -0.555555555555555,2.373737373737375 -0.555555555555555,2.2727272727272734 -0.555555555555555,2.1717171717171726 -0.555555555555555,2.070707070707072 -0.4545454545454544,1.9696969696969702 -0.4545454545454544,1.8686868686868696 -0.35353535353535287,1.767676767676768 -0.2525252525252522,1.6666666666666674 -0.15151515151515066,1.5656565656565666 -0.05050505050505001,1.4646464646464652 0.050505050505051545,1.3636363636363644 0.1515151515151522,1.262626262626263 0.2525252525252529,1.1616161616161622 0.3535353535353544,1.0606060606060617 0.4545454545454551,0.9595959595959602 0.5555555555555567,0.8585858585858596 0.6565656565656574,0.7575757575757579 0.7575757575757579,0.6565656565656574 0.8585858585858596,0.5555555555555567 0.9595959595959602,0.4545454545454551 1.0606060606060617,0.3535353535353544 1.1616161616161622,0.2525252525252529 1.262626262626263,0.1515151515151522 1.3636363636363644,0.050505050505051545 1.4646464646464652,-0.05050505050505001 1.5656565656565666,-0.15151515151515066 1.6666666666666674,-0.2525252525252522 1.767676767676768,-0.35353535353535287 1.8686868686868696,-0.4545454545454544 1.9696969696969702,-0.555555555555555 2.070707070707072,-0.6565656565656557 2.1717171717171726,-0.7575757575757572 2.2727272727272734,-0.8585858585858579 2.373737373737375,-0.9595959595959596 2.4747474747474754,-1.0606060606060603 2.575757575757577,-1.0606060606060603 2.676767676767678,-1.0606060606060603 2.7777777777777786,-1.0606060606060603 2.87878787878788,-1.0606060606060603 2.9797979797979806,-1.0606060606060603 3.080808080808082,-1.0606060606060603 3.181818181818183,-1.0606060606060603 3.2828282828282833,-1.0606060606060603" data-type="line" data-label="" points="440.4848484848485,268.84848484848493 450.0202020202021,278.38383838383857 459.55555555555554,287.91919191919203 459.55555555555554,297.4545454545456 459.55555555555554,306.9898989898991 459.55555555555554,316.5252525252526 469.09090909090907,326.06060606060623 469.09090909090907,335.5959595959597 478.62626262626264,345.1313131313133 488.16161616161617,354.66666666666674 497.69696969696975,364.2020202020203 507.2323232323232,373.73737373737384 516.7676767676768,383.27272727272737 526.3030303030303,392.80808080808094 535.8383838383838,402.3434343434344 545.3737373737374,411.87878787878793 554.9090909090909,421.4141414141415 564.4444444444445,430.94949494949503 573.9797979797979,440.4848484848486 583.5151515151515,450.0202020202021 593.0505050505051,459.5555555555556 602.5858585858585,469.0909090909092 612.1212121212121,478.6262626262627 621.6565656565656,488.1616161616163 631.1919191919192,497.69696969696975 640.7272727272727,507.23232323232327 650.2626262626262,516.7676767676768 659.7979797979798,526.3030303030304 669.3333333333333,535.838383838384 678.8686868686868,545.3737373737374 688.4040404040404,554.909090909091 697.9393939393939,564.4444444444445 707.4747474747475,573.979797979798 717.0101010101009,583.5151515151516 726.5454545454545,593.0505050505051 736.0808080808081,602.5858585858587 745.6161616161615,612.1212121212121 755.1515151515151,612.1212121212121 764.6868686868686,612.1212121212121 774.2222222222222,612.1212121212121 783.7575757575758,612.1212121212121 793.2929292929292,612.1212121212121 802.8282828282828,612.1212121212121 812.3636363636363,612.1212121212121 821.8989898989898,612.1212121212121" fill="none" stroke="rgba(255,0,0,0.75)" stroke-width="14.159999999999995"/></g><g><polyline data-points="3.2828282828282833,-1.0606060606060603 3.383838383838384,-1.1616161616161613 3.4848484848484866,-1.2626262626262625 3.4848484848484866,-1.363636363636363 3.4848484848484866,-1.4646464646464643 3.4848484848484866,-1.5656565656565653 3.4848484848484866,-1.6666666666666665 3.4848484848484866,-1.7676767676767675 3.4848484848484866,-1.8686868686868683 3.4848484848484866,-1.9696969696969693 3.4848484848484866,-2.07070707070707 3.4848484848484866,-2.1717171717171713 3.4848484848484866,-2.2727272727272725 3.4848484848484866,-2.3737373737373733 3.4848484848484866,-2.474747474747474 3.4848484848484866,-2.5757575757575752 3.4848484848484866,-2.6767676767676765 3.4848484848484866,-2.7777777777777777 3.4848484848484866,-2.8787878787878785 3.4848484848484866,-2.9797979797979792 3.4848484848484866,-3.0808080808080804 3.4848484848484866,-3.1818181818181817 3.4848484848484866,-3.2828282828282824 3.4848484848484866,-3.383838383838383 3.4848484848484866,-3.484848484848485 3.4848484848484866,-3.5858585858585856 3.4848484848484866,-3.6868686868686864 3.4848484848484866,-3.7878787878787876 3.4848484848484866,-3.8888888888888884 3.4848484848484866,-3.98989898989899 3.5858585858585874,-4.090909090909091 3.5858585858585874,-4.191919191919193 3.6868686868686877,-4.292929292929293 3.7878787878787885,-4.393939393939394 3.8888888888888893,-4.494949494949496 3.989898989898992,-4.595959595959596 4.090909090909092,-4.595959595959596 4.191919191919193,-4.595959595959596 4.292929292929293,-4.595959595959596 4.393939393939394,-4.595959595959596 4.494949494949497,-4.595959595959596 4.595959595959597,-4.595959595959596 4.696969696969697,-4.595959595959596 4.7979797979797985,-4.595959595959596 4.898989898989901,-4.595959595959596 5.000000000000002,-4.595959595959596" data-type="line" data-label="" points="821.8989898989898,612.1212121212121 831.4343434343433,621.6565656565657 840.969696969697,631.1919191919193 840.969696969697,640.7272727272727 840.969696969697,650.2626262626263 840.969696969697,659.7979797979798 840.969696969697,669.3333333333334 840.969696969697,678.8686868686868 840.969696969697,688.4040404040404 840.969696969697,697.939393939394 840.969696969697,707.4747474747475 840.969696969697,717.010101010101 840.969696969697,726.5454545454545 840.969696969697,736.0808080808081 840.969696969697,745.6161616161615 840.969696969697,755.1515151515151 840.969696969697,764.6868686868687 840.969696969697,774.2222222222222 840.969696969697,783.7575757575758 840.969696969697,793.2929292929292 840.969696969697,802.8282828282828 840.969696969697,812.3636363636363 840.969696969697,821.8989898989898 840.969696969697,831.4343434343434 840.969696969697,840.969696969697 840.969696969697,850.5050505050505 840.969696969697,860.0404040404039 840.969696969697,869.5757575757575 840.969696969697,879.1111111111111 840.969696969697,888.6464646464647 850.5050505050505,898.1818181818181 850.5050505050505,907.7171717171718 860.0404040404039,917.2525252525252 869.5757575757575,926.7878787878788 879.111111111111,936.3232323232323 888.6464646464647,945.8585858585858 898.181818181818,945.8585858585858 907.7171717171716,945.8585858585858 917.2525252525251,945.8585858585858 926.7878787878785,945.8585858585858 936.3232323232323,945.8585858585858 945.8585858585857,945.8585858585858 955.3939393939393,945.8585858585858 964.9292929292927,945.8585858585858 974.4646464646464,945.8585858585858 984,945.8585858585858" fill="none" stroke="rgba(0,0,255,0.75)" stroke-width="14.159999999999995"/></g><g><polyline data-points="-1.0606060606060603,-5.000000000000001 -1.1616161616161613,-4.898989898989899 -1.2626262626262625,-4.7979797979797985 -1.363636363636363,-4.696969696969697 -1.4646464646464643,-4.595959595959596 -1.4646464646464643,-4.494949494949496 -1.5656565656565653,-4.393939393939394 -1.6666666666666665,-4.292929292929293 -1.7676767676767675,-4.191919191919193 -1.8686868686868683,-4.090909090909091 -1.9696969696969693,-3.98989898989899" data-type="line" data-label="" points="411.8787878787879,984 402.34343434343435,974.4646464646464 392.80808080808083,964.9292929292928 383.2727272727273,955.3939393939394 373.7373737373738,945.8585858585858 373.7373737373738,936.3232323232323 364.2020202020202,926.7878787878788 354.6666666666667,917.2525252525252 345.13131313131316,907.7171717171718 335.59595959595964,898.1818181818181 326.0606060606061,888.6464646464647" fill="none" stroke="rgba(0,0,255,0.75)" stroke-width="14.159999999999995"/></g><g><polyline data-points="-1.9696969696969693,-3.98989898989899 -1.8686868686868683,-3.8888888888888884 -1.7676767676767675,-3.7878787878787876 -1.6666666666666665,-3.6868686868686864 -1.5656565656565653,-3.5858585858585856 -1.4646464646464643,-3.484848484848485 -1.4646464646464643,-3.383838383838383 -1.4646464646464643,-3.2828282828282824 -1.4646464646464643,-3.1818181818181817 -1.4646464646464643,-3.0808080808080804 -1.4646464646464643,-2.9797979797979792 -1.4646464646464643,-2.8787878787878785 -1.4646464646464643,-2.7777777777777777 -1.4646464646464643,-2.6767676767676765 -1.4646464646464643,-2.5757575757575752 -1.4646464646464643,-2.474747474747474 -1.4646464646464643,-2.3737373737373733 -1.4646464646464643,-2.2727272727272725" data-type="line" data-label="" points="326.0606060606061,888.6464646464647 335.59595959595964,879.1111111111111 345.13131313131316,869.5757575757575 354.6666666666667,860.0404040404039 364.2020202020202,850.5050505050505 373.7373737373738,840.969696969697 373.7373737373738,831.4343434343434 373.7373737373738,821.8989898989898 373.7373737373738,812.3636363636363 373.7373737373738,802.8282828282828 373.7373737373738,793.2929292929292 373.7373737373738,783.7575757575758 373.7373737373738,774.2222222222222 373.7373737373738,764.6868686868687 373.7373737373738,755.1515151515151 373.7373737373738,745.6161616161615 373.7373737373738,736.0808080808081 373.7373737373738,726.5454545454545" fill="none" stroke="rgba(255,0,0,0.75)" stroke-width="14.159999999999995"/></g><g><polyline data-points="-1.4646464646464643,-2.2727272727272725 -1.4646464646464643,-2.1717171717171713 -1.4646464646464643,-2.07070707070707 -1.4646464646464643,-1.9696969696969693 -1.4646464646464643,-1.8686868686868683 -1.4646464646464643,-1.7676767676767675 -1.4646464646464643,-1.6666666666666665 -1.4646464646464643,-1.5656565656565653 -1.4646464646464643,-1.4646464646464643 -1.4646464646464643,-1.363636363636363 -1.4646464646464643,-1.2626262626262625 -1.4646464646464643,-1.1616161616161613 -1.4646464646464643,-1.0606060606060603 -1.4646464646464643,-0.9595959595959596 -1.4646464646464643,-0.8585858585858579 -1.4646464646464643,-0.7575757575757572 -1.4646464646464643,-0.6565656565656557 -1.4646464646464643,-0.555555555555555 -1.4646464646464643,-0.4545454545454544 -1.4646464646464643,-0.35353535353535287 -1.4646464646464643,-0.2525252525252522 -1.4646464646464643,-0.15151515151515066" data-type="line" data-label="" points="373.7373737373738,726.5454545454545 373.7373737373738,717.010101010101 373.7373737373738,707.4747474747475 373.7373737373738,697.939393939394 373.7373737373738,688.4040404040404 373.7373737373738,678.8686868686868 373.7373737373738,669.3333333333334 373.7373737373738,659.7979797979798 373.7373737373738,650.2626262626263 373.7373737373738,640.7272727272727 373.7373737373738,631.1919191919193 373.7373737373738,621.6565656565657 373.7373737373738,612.1212121212121 373.7373737373738,602.5858585858587 373.7373737373738,593.0505050505051 373.7373737373738,583.5151515151516 373.7373737373738,573.979797979798 373.7373737373738,564.4444444444445 373.7373737373738,554.909090909091 373.7373737373738,545.3737373737374 373.7373737373738,535.838383838384 373.7373737373738,526.3030303030304" fill="none" stroke="rgba(0,0,255,0.75)" stroke-width="14.159999999999995"/></g><g><polyline data-points="-1.4646464646464643,-0.15151515151515066 -1.4646464646464643,-0.05050505050505001 -1.4646464646464643,0.050505050505051545 -1.4646464646464643,0.1515151515151522 -1.4646464646464643,0.2525252525252529 -1.4646464646464643,0.3535353535353544 -1.4646464646464643,0.4545454545454551 -1.4646464646464643,0.5555555555555567 -1.4646464646464643,0.6565656565656574 -1.4646464646464643,0.7575757575757579 -1.4646464646464643,0.8585858585858596 -1.4646464646464643,0.9595959595959602 -1.4646464646464643,1.0606060606060617 -1.4646464646464643,1.1616161616161622 -1.4646464646464643,1.262626262626263 -1.4646464646464643,1.3636363636363644 -1.4646464646464643,1.4646464646464652 -1.4646464646464643,1.5656565656565666 -1.4646464646464643,1.6666666666666674 -1.4646464646464643,1.767676767676768 -1.4646464646464643,1.8686868686868696 -1.4646464646464643,1.9696969696969702 -1.4646464646464643,2.070707070707072 -1.4646464646464643,2.1717171717171726 -1.4646464646464643,2.2727272727272734 -1.4646464646464643,2.373737373737375 -1.4646464646464643,2.4747474747474754 -1.4646464646464643,2.575757575757577 -1.4646464646464643,2.676767676767678 -1.4646464646464643,2.7777777777777786 -1.4646464646464643,2.87878787878788 -1.363636363636363,2.9797979797979806 -1.2626262626262625,3.080808080808082 -1.1616161616161613,3.181818181818183 -1.0606060606060603,3.2828282828282833 -0.9595959595959596,3.383838383838384 -0.8585858585858579,3.4848484848484866 -0.7575757575757572,3.5858585858585874 -0.6565656565656557,3.6868686868686877 -0.555555555555555,3.7878787878787885 -0.4545454545454544,3.8888888888888893 -0.35353535353535287,3.989898989898992" data-type="line" data-label="" points="373.7373737373738,526.3030303030304 373.7373737373738,516.7676767676768 373.7373737373738,507.23232323232327 373.7373737373738,497.69696969696975 373.7373737373738,488.1616161616163 373.7373737373738,478.6262626262627 373.7373737373738,469.0909090909092 373.7373737373738,459.5555555555556 373.7373737373738,450.0202020202021 373.7373737373738,440.4848484848486 373.7373737373738,430.94949494949503 373.7373737373738,421.4141414141415 373.7373737373738,411.87878787878793 373.7373737373738,402.3434343434344 373.7373737373738,392.80808080808094 373.7373737373738,383.27272727272737 373.7373737373738,373.73737373737384 373.7373737373738,364.2020202020203 373.7373737373738,354.66666666666674 373.7373737373738,345.1313131313133 373.7373737373738,335.5959595959597 373.7373737373738,326.06060606060623 373.7373737373738,316.5252525252526 373.7373737373738,306.9898989898991 373.7373737373738,297.4545454545456 373.7373737373738,287.91919191919203 373.7373737373738,278.38383838383857 373.7373737373738,268.84848484848493 373.7373737373738,259.3131313131314 373.7373737373738,249.77777777777794 373.7373737373738,240.24242424242436 383.2727272727273,230.70707070707084 392.80808080808083,221.17171717171726 402.34343434343435,211.63636363636374 411.8787878787879,202.10101010101027 421.4141414141414,192.56565656565675 430.949494949495,183.03030303030312 440.4848484848485,173.4949494949496 450.0202020202021,163.95959595959613 459.55555555555554,154.4242424242426 469.09090909090907,144.88888888888908 478.62626262626264,135.35353535353545" fill="none" stroke="rgba(255,0,0,0.75)" stroke-width="14.159999999999995"/></g><g><polyline data-points="-0.35353535353535287,3.989898989898992 -0.4545454545454544,4.090909090909092 -0.555555555555555,4.191919191919193 -0.6565656565656557,4.292929292929293 -0.7575757575757572,4.393939393939394 -0.8585858585858579,4.494949494949497 -0.9595959595959596,4.595959595959597 -1.0606060606060603,4.696969696969697 -1.1616161616161613,4.7979797979797985 -1.2626262626262625,4.898989898989901 -1.363636363636363,5.000000000000002 -1.4646464646464643,5.000000000000002" data-type="line" data-label="" points="478.62626262626264,135.35353535353545 469.09090909090907,125.81818181818198 459.55555555555554,116.28282828282846 450.0202020202021,106.747474747475 440.4848484848485,97.21212121212153 430.949494949495,87.67676767676778 421.4141414141414,78.14141414141432 411.8787878787879,68.60606060606085 402.34343434343435,59.07070707070733 392.80808080808083,49.53535353535369 383.2727272727273,40.000000000000114 373.7373737373738,40.000000000000114" fill="none" stroke="rgba(0,0,255,0.75)" stroke-width="14.159999999999995"/></g><g><rect data-type="rect" data-label="" data-x="0" data-y="0" x="40.000000000000114" y="40.000000000000284" width="943.9999999999997" height="943.9999999999998" fill="none" stroke="gray" stroke-width="0.010593220338983056"/></g><g><rect data-type="rect" data-label="" data-x="0" data-y="0" x="40.000000000000114" y="40.000000000000284" width="943.9999999999997" height="943.9999999999998" fill="none" stroke="rgba(15, 23, 42, 0.8)" stroke-width="0.010593220338983056"/></g><circle data-type="circle" data-label="" data-x="0.5555555555555567" data-y="-3.98989898989899" cx="564.4444444444445" cy="888.6464646464647" r="28.791999999999987" fill="rgba(0,0,0,0.3)" stroke="black" stroke-width="0.010593220338983056"/><circle data-type="circle" data-label="" data-x="3.989898989898992" data-y="-1.6666666666666665" cx="888.6464646464647" cy="669.3333333333334" r="28.791999999999987" fill="rgba(0,0,0,0.3)" stroke="black" stroke-width="0.010593220338983056"/><circle data-type="circle" data-label="" data-x="-3.98989898989899" data-y="-3.7878787878787876" cx="135.35353535353545" cy="869.5757575757575" r="28.791999999999987" fill="rgba(0,0,0,0.3)" stroke="black" stroke-width="0.010593220338983056"/><circle data-type="circle" data-label="" data-x="-3.383838383838383" data-y="-1.2626262626262625" cx="192.5656565656567" cy="631.1919191919193" r="28.791999999999987" fill="rgba(0,0,0,0.3)" stroke="black" stroke-width="0.010593220338983056"/><circle data-type="circle" data-label="" data-x="-0.05050505050505001" data-y="2.070707070707072" cx="507.2323232323232" cy="316.5252525252526" r="28.791999999999987" fill="rgba(0,0,0,0.3)" stroke="black" stroke-width="0.010593220338983056"/><circle data-type="circle" data-label="" data-x="0.7575757575757579" data-y="3.989898989898992" cx="583.5151515151515" cy="135.35353535353545" r="28.791999999999987" fill="rgba(0,0,0,0.3)" stroke="black" stroke-width="0.010593220338983056"/><circle data-type="circle" data-label="" data-x="-3.98989898989899" data-y="-0.7575757575757572" cx="135.35353535353545" cy="583.5151515151516" r="28.791999999999987" fill="rgba(0,0,0,0.3)" stroke="black" stroke-width="0.010593220338983056"/><circle data-type="circle" data-label="" data-x="-0.05050505050505001" data-y="-3.484848484848485" cx="507.2323232323232" cy="840.969696969697" r="28.791999999999987" fill="rgba(0,0,0,0.3)" stroke="black" stroke-width="0.010593220338983056"/><circle data-type="circle" data-label="" data-x="3.989898989898992" data-y="-3.98989898989899" cx="888.6464646464647" cy="888.6464646464647" r="28.791999999999987" fill="rgba(0,0,0,0.3)" stroke="black" stroke-width="0.010593220338983056"/><circle data-type="circle" data-label="" data-x="-0.7575757575757572" data-y="2.575757575757577" cx="440.4848484848485" cy="268.84848484848493" r="28.791999999999987" fill="rgba(0,0,0,0.3)" stroke="black" stroke-width="0.010593220338983056"/><circle data-type="circle" data-label="" data-x="3.2828282828282833" data-y="-1.0606060606060603" cx="821.8989898989898" cy="612.1212121212121" r="28.791999999999987" fill="rgba(0,0,0,0.3)" stroke="black" stroke-width="0.010593220338983056"/><circle data-type="circle" data-label="" data-x="-1.9696969696969693" data-y="-3.98989898989899" cx="326.0606060606061" cy="888.6464646464647" r="28.791999999999987" fill="rgba(0,0,0,0.3)" stroke="black" stroke-width="0.010593220338983056"/><circle data-type="circle" data-label="" data-x="-1.4646464646464643" data-y="-2.2727272727272725" cx="373.7373737373738" cy="726.5454545454545" r="28.791999999999987" fill="rgba(0,0,0,0.3)" stroke="black" stroke-width="0.010593220338983056"/><circle data-type="circle" data-label="" data-x="-1.4646464646464643" data-y="-0.15151515151515066" cx="373.7373737373738" cy="526.3030303030304" r="28.791999999999987" fill="rgba(0,0,0,0.3)" stroke="black" stroke-width="0.010593220338983056"/><circle data-type="circle" data-label="" data-x="-0.35353535353535287" data-y="3.989898989898992" cx="478.62626262626264" cy="135.35353535353545" r="28.791999999999987" fill="rgba(0,0,0,0.3)" stroke="black" stroke-width="0.010593220338983056"/><g id="crosshair" style="display: none"><line id="crosshair-h" y1="0" y2="1024" stroke="#666" stroke-width="0.5"/><line id="crosshair-v" x1="0" x2="1024" stroke="#666" stroke-width="0.5"/><text id="coordinates" font-family="monospace" font-size="12" fill="#666"></text></g><script><![CDATA[
              document.currentScript.parentElement.addEventListener('mousemove', (e) => {
                const svg = e.currentTarget;
                const rect = svg.getBoundingClientRect();
                const x = e.clientX - rect.left;
                const y = e.clientY - rect.top;
                const crosshair = svg.getElementById('crosshair');
                const h = svg.getElementById('crosshair-h');
                const v = svg.getElementById('crosshair-v');
                const coords = svg.getElementById('coordinates');
                
                crosshair.style.display = 'block';
                h.setAttribute('x1', '0');
                h.setAttribute('x2', '1024');
                h.setAttribute('y1', y);
                h.setAttribute('y2', y);
                v.setAttribute('x1', x);
                v.setAttribute('x2', x);
                v.setAttribute('y1', '0');
                v.setAttribute('y2', '1024');

                // Calculate real coordinates using inverse transformation
                const matrix = {"a":94.39999999999996,"c":0,"e":511.99999999999994,"b":0,"d":-94.39999999999996,"f":512.0000000000001};
                // Manually invert and apply the affine transform
                // Since we only use translate and scale, we can directly compute:
                // x' = (x - tx) / sx
                // y' = (y - ty) / sy
                const sx = matrix.a;
                const sy = matrix.d;
                const tx = matrix.e; 
                const ty = matrix.f;
                const realPoint = {
                  x: (x - tx) / sx,
                  y: (y - ty) / sy // Flip y back since we used negative scale
                }
                
                coords.textContent = `(${realPoint.x.toFixed(2)}, ${realPoint.y.toFixed(2)})`;
                coords.setAttribute('x', (x + 5).toString());
                coords.setAttribute('y', (y - 5).toString());
              });
              document.currentScript.parentElement.addEventListener('mouseleave', () => {
                document.currentScript.parentElement.getElementById('crosshair').style.display = 'none';
              });
            ]]></script></svg>