<svg width="1024" height="1024" viewBox="0 0 1024 1024" xmlns="http://www.w3.org/2000/svg"><rect width="100%" height="100%" fill="white"/><g><circle data-type="point" data-label="conn_000" data-x="2.6" data-y="-5" cx="757.4399999999998" cy="984" r="28.792" fill="red" stroke="#bd0f6d" stroke-width="28.792"/></g><g><circle data-type="point" data-label="conn_000" data-x="1.48" data-y="5" cx="651.7119999999999" cy="40.000000000000284" r="28.792" fill="red" stroke="#bd0f6d" stroke-width="28.792"/></g><g><circle data-type="point" data-label="conn_001" data-x="1.94" data-y="-5" cx="695.1359999999999" cy="984" r="28.792" fill="red" stroke="#3bbd0f" stroke-width="28.792"/></g><g><circle data-type="point" data-label="conn_001" data-x="5" data-y="2.7" cx="983.9999999999998" cy="257.12000000000023" r="28.792" fill="blue" stroke="#3bbd0f" stroke-width="28.792"/></g><g><circle data-type="point" data-label="conn_002" data-x="-2.16" data-y="5" cx="308.096" cy="40.000000000000284" r="28.792" fill="blue" stroke="#170fbd" stroke-width="28.792"/></g><g><circle data-type="point" data-label="conn_002" data-x="-0.36" data-y="5" cx="478.01599999999996" cy="40.000000000000284" r="28.792" fill="red" stroke="#170fbd" stroke-width="28.792"/></g><g><circle data-type="point" data-label="conn_003" data-x="-5" data-y="1.76" cx="40.000000000000114" cy="345.85600000000017" r="28.792" fill="blue" stroke="#bd490f" stroke-width="28.792"/></g><g><circle data-type="point" data-label="conn_003" data-x="5" data-y="-0.2" cx="983.9999999999998" cy="530.8800000000001" r="28.792" fill="red" stroke="#bd490f" stroke-width="28.792"/></g><g><circle data-type="point" data-label="conn_004" data-x="-3.04" data-y="5" cx="225.02400000000006" cy="40.000000000000284" r="28.792" fill="blue" stroke="#0fbd7c" stroke-width="28.792"/></g><g><circle data-type="point" data-label="conn_004" data-x="-1" data-y="5" cx="417.59999999999997" cy="40.000000000000284" r="28.792" fill="red" stroke="#0fbd7c" stroke-width="28.792"/></g><g><circle data-type="point" data-label="conn_005" data-x="4.5" data-y="-5" cx="936.7999999999997" cy="984" r="28.792" fill="blue" stroke="#ae0fbd" stroke-width="28.792"/></g><g><circle data-type="point" data-label="conn_005" data-x="5" data-y="1.58" cx="983.9999999999998" cy="362.8480000000002" r="28.792" fill="blue" stroke="#ae0fbd" stroke-width="28.792"/></g><g><circle data-type="point" data-label="conn_006" data-x="-5" data-y="-4.62" cx="40.000000000000114" cy="948.1279999999999" r="28.792" fill="red" stroke="#98bd0f" stroke-width="28.792"/></g><g><circle data-type="point" data-label="conn_006" data-x="-5" data-y="-0.3" cx="40.000000000000114" cy="540.32" r="28.792" fill="red" stroke="#98bd0f" stroke-width="28.792"/></g><g><circle data-type="point" data-label="conn_007" data-x="-2.24" data-y="-5" cx="300.544" cy="984" r="28.792" fill="blue" stroke="#0f66bd" stroke-width="28.792"/></g><g><circle data-type="point" data-label="conn_007" data-x="5" data-y="-3.86" cx="983.9999999999998" cy="876.384" r="28.792" fill="blue" stroke="#0f66bd" stroke-width="28.792"/></g><g><circle data-type="point" data-label="conn_008" data-x="3.72" data-y="-5" cx="863.1679999999999" cy="984" r="28.792" fill="blue" stroke="#bd0f33" stroke-width="28.792"/></g><g><circle data-type="point" data-label="conn_008" data-x="-4.48" data-y="5" cx="89.08800000000008" cy="40.000000000000284" r="28.792" fill="red" stroke="#bd0f33" stroke-width="28.792"/></g><g><circle data-type="point" data-label="conn_009" data-x="5" data-y="4.04" cx="983.9999999999998" cy="130.62400000000025" r="28.792" fill="red" stroke="#0fbd1e" stroke-width="28.792"/></g><g><circle data-type="point" data-label="conn_009" data-x="-5" data-y="-1.46" cx="40.000000000000114" cy="649.8240000000001" r="28.792" fill="blue" stroke="#0fbd1e" stroke-width="28.792"/></g><g><polyline data-points="2.575757575757577,-5.000000000000001 2.4747474747474754,-4.898989898989899 2.373737373737375,-4.7979797979797985 2.2727272727272734,-4.696969696969697 2.1717171717171726,-4.595959595959596 2.070707070707072,-4.494949494949496 1.9696969696969702,-4.393939393939394 1.8686868686868696,-4.292929292929293 1.767676767676768,-4.191919191919193 1.6666666666666674,-4.090909090909091 1.5656565656565666,-3.98989898989899 1.4646464646464652,-3.8888888888888884 1.4646464646464652,-3.7878787878787876 1.4646464646464652,-3.6868686868686864 1.4646464646464652,-3.5858585858585856 1.4646464646464652,-3.484848484848485 1.4646464646464652,-3.383838383838383 1.4646464646464652,-3.2828282828282824 1.4646464646464652,-3.1818181818181817 1.4646464646464652,-3.0808080808080804 1.4646464646464652,-2.9797979797979792 1.4646464646464652,-2.8787878787878785 1.4646464646464652,-2.7777777777777777 1.4646464646464652,-2.6767676767676765 1.4646464646464652,-2.5757575757575752 1.4646464646464652,-2.474747474747474 1.4646464646464652,-2.3737373737373733 1.4646464646464652,-2.2727272727272725 1.4646464646464652,-2.1717171717171713 1.4646464646464652,-2.07070707070707 1.4646464646464652,-1.9696969696969693 1.4646464646464652,-1.8686868686868683 1.4646464646464652,-1.7676767676767675 1.4646464646464652,-1.6666666666666665 1.4646464646464652,-1.5656565656565653 1.4646464646464652,-1.4646464646464643 1.4646464646464652,-1.363636363636363 1.4646464646464652,-1.2626262626262625 1.4646464646464652,-1.1616161616161613 1.4646464646464652,-1.0606060606060603 1.4646464646464652,-0.9595959595959596 1.4646464646464652,-0.8585858585858579 1.4646464646464652,-0.7575757575757572 1.4646464646464652,-0.6565656565656557 1.4646464646464652,-0.555555555555555 1.4646464646464652,-0.4545454545454544 1.4646464646464652,-0.35353535353535287 1.4646464646464652,-0.2525252525252522 1.4646464646464652,-0.15151515151515066 1.4646464646464652,-0.05050505050505001 1.4646464646464652,0.050505050505051545 1.4646464646464652,0.1515151515151522 1.4646464646464652,0.2525252525252529 1.4646464646464652,0.3535353535353544 1.4646464646464652,0.4545454545454551 1.4646464646464652,0.5555555555555567 1.4646464646464652,0.6565656565656574 1.4646464646464652,0.7575757575757579 1.4646464646464652,0.8585858585858596 1.4646464646464652,0.9595959595959602 1.4646464646464652,1.0606060606060617 1.4646464646464652,1.1616161616161622 1.4646464646464652,1.262626262626263 1.4646464646464652,1.3636363636363644 1.4646464646464652,1.4646464646464652 1.4646464646464652,1.5656565656565666 1.4646464646464652,1.6666666666666674 1.4646464646464652,1.767676767676768 1.4646464646464652,1.8686868686868696 1.4646464646464652,1.9696969696969702 1.4646464646464652,2.070707070707072 1.4646464646464652,2.1717171717171726 1.4646464646464652,2.2727272727272734 1.4646464646464652,2.373737373737375 1.4646464646464652,2.4747474747474754 1.4646464646464652,2.575757575757577 1.4646464646464652,2.676767676767678 1.4646464646464652,2.7777777777777786 1.4646464646464652,2.87878787878788 1.4646464646464652,2.9797979797979806 1.4646464646464652,3.080808080808082 1.4646464646464652,3.181818181818183 1.4646464646464652,3.2828282828282833 1.4646464646464652,3.383838383838384 1.4646464646464652,3.4848484848484866 1.4646464646464652,3.5858585858585874 1.4646464646464652,3.6868686868686877 1.4646464646464652,3.7878787878787885 1.4646464646464652,3.8888888888888893 1.4646464646464652,3.989898989898992 1.4646464646464652,4.090909090909092 1.4646464646464652,4.191919191919193 1.4646464646464652,4.292929292929293 1.4646464646464652,4.393939393939394 1.4646464646464652,4.494949494949497 1.4646464646464652,4.595959595959597 1.4646464646464652,4.696969696969697 1.4646464646464652,4.7979797979797985 1.4646464646464652,4.898989898989901 1.4646464646464652,5.000000000000002" data-type="line" data-label="" points="755.1515151515151,984 745.6161616161615,974.4646464646464 736.0808080808081,964.9292929292928 726.5454545454545,955.3939393939394 717.0101010101009,945.8585858585858 707.4747474747475,936.3232323232323 697.9393939393939,926.7878787878788 688.4040404040404,917.2525252525252 678.8686868686868,907.7171717171718 669.3333333333333,898.1818181818181 659.7979797979798,888.6464646464647 650.2626262626262,879.1111111111111 650.2626262626262,869.5757575757575 650.2626262626262,860.0404040404039 650.2626262626262,850.5050505050505 650.2626262626262,840.969696969697 650.2626262626262,831.4343434343434 650.2626262626262,821.8989898989898 650.2626262626262,812.3636363636363 650.2626262626262,802.8282828282828 650.2626262626262,793.2929292929292 650.2626262626262,783.7575757575758 650.2626262626262,774.2222222222222 650.2626262626262,764.6868686868687 650.2626262626262,755.1515151515151 650.2626262626262,745.6161616161615 650.2626262626262,736.0808080808081 650.2626262626262,726.5454545454545 650.2626262626262,717.010101010101 650.2626262626262,707.4747474747475 650.2626262626262,697.939393939394 650.2626262626262,688.4040404040404 650.2626262626262,678.8686868686868 650.2626262626262,669.3333333333334 650.2626262626262,659.7979797979798 650.2626262626262,650.2626262626263 650.2626262626262,640.7272727272727 650.2626262626262,631.1919191919193 650.2626262626262,621.6565656565657 650.2626262626262,612.1212121212121 650.2626262626262,602.5858585858587 650.2626262626262,593.0505050505051 650.2626262626262,583.5151515151516 650.2626262626262,573.979797979798 650.2626262626262,564.4444444444445 650.2626262626262,554.909090909091 650.2626262626262,545.3737373737374 650.2626262626262,535.838383838384 650.2626262626262,526.3030303030304 650.2626262626262,516.7676767676768 650.2626262626262,507.23232323232327 650.2626262626262,497.69696969696975 650.2626262626262,488.1616161616163 650.2626262626262,478.6262626262627 650.2626262626262,469.0909090909092 650.2626262626262,459.5555555555556 650.2626262626262,450.0202020202021 650.2626262626262,440.4848484848486 650.2626262626262,430.94949494949503 650.2626262626262,421.4141414141415 650.2626262626262,411.87878787878793 650.2626262626262,402.3434343434344 650.2626262626262,392.80808080808094 650.2626262626262,383.27272727272737 650.2626262626262,373.73737373737384 650.2626262626262,364.2020202020203 650.2626262626262,354.66666666666674 650.2626262626262,345.1313131313133 650.2626262626262,335.5959595959597 650.2626262626262,326.06060606060623 650.2626262626262,316.5252525252526 650.2626262626262,306.9898989898991 650.2626262626262,297.4545454545456 650.2626262626262,287.91919191919203 650.2626262626262,278.38383838383857 650.2626262626262,268.84848484848493 650.2626262626262,259.3131313131314 650.2626262626262,249.77777777777794 650.2626262626262,240.24242424242436 650.2626262626262,230.70707070707084 650.2626262626262,221.17171717171726 650.2626262626262,211.63636363636374 650.2626262626262,202.10101010101027 650.2626262626262,192.56565656565675 650.2626262626262,183.03030303030312 650.2626262626262,173.4949494949496 650.2626262626262,163.95959595959613 650.2626262626262,154.4242424242426 650.2626262626262,144.88888888888908 650.2626262626262,135.35353535353545 650.2626262626262,125.81818181818198 650.2626262626262,116.28282828282846 650.2626262626262,106.747474747475 650.2626262626262,97.21212121212153 650.2626262626262,87.67676767676778 650.2626262626262,78.14141414141432 650.2626262626262,68.60606060606085 650.2626262626262,59.07070707070733 650.2626262626262,49.53535353535369 650.2626262626262,40.000000000000114" fill="none" stroke="rgba(255,0,0,0.75)" stroke-width="14.159999999999995"/></g><g><polyline data-points="5.000000000000002,4.090909090909092 4.898989898989901,3.989898989898992 4.7979797979797985,3.8888888888888893 4.696969696969697,3.7878787878787885 4.595959595959597,3.6868686868686877 4.494949494949497,3.5858585858585874 4.393939393939394,3.4848484848484866 4.292929292929293,3.383838383838384 4.191919191919193,3.2828282828282833 4.090909090909092,3.181818181818183 3.989898989898992,3.080808080808082 3.8888888888888893,2.9797979797979806 3.7878787878787885,2.87878787878788 3.6868686868686877,2.7777777777777786 3.5858585858585874,2.676767676767678 3.4848484848484866,2.575757575757577 3.383838383838384,2.4747474747474754 3.2828282828282833,2.373737373737375 3.181818181818183,2.2727272727272734 3.080808080808082,2.1717171717171726 2.9797979797979806,2.070707070707072 2.87878787878788,1.9696969696969702 2.7777777777777786,1.8686868686868696 2.676767676767678,1.767676767676768 2.575757575757577,1.6666666666666674 2.4747474747474754,1.5656565656565666 2.373737373737375,1.4646464646464652 2.2727272727272734,1.3636363636363644 2.1717171717171726,1.262626262626263 2.070707070707072,1.1616161616161622 2.070707070707072,1.0606060606060617 2.070707070707072,0.9595959595959602 2.070707070707072,0.8585858585858596 2.070707070707072,0.7575757575757579 2.070707070707072,0.6565656565656574 2.070707070707072,0.5555555555555567 2.070707070707072,0.4545454545454551 2.070707070707072,0.3535353535353544 2.070707070707072,0.2525252525252529 2.070707070707072,0.1515151515151522 2.070707070707072,0.050505050505051545 2.070707070707072,-0.05050505050505001 2.070707070707072,-0.15151515151515066 2.070707070707072,-0.2525252525252522 2.070707070707072,-0.35353535353535287 2.070707070707072,-0.4545454545454544 2.070707070707072,-0.555555555555555 2.070707070707072,-0.6565656565656557 2.070707070707072,-0.7575757575757572 2.070707070707072,-0.8585858585858579 2.070707070707072,-0.9595959595959596 2.070707070707072,-1.0606060606060603 2.070707070707072,-1.1616161616161613 2.070707070707072,-1.2626262626262625 2.070707070707072,-1.363636363636363 2.070707070707072,-1.4646464646464643" data-type="line" data-label="" points="984,125.81818181818198 974.4646464646464,135.35353535353545 964.9292929292927,144.88888888888908 955.3939393939393,154.4242424242426 945.8585858585857,163.95959595959613 936.3232323232323,173.4949494949496 926.7878787878785,183.03030303030312 917.2525252525251,192.56565656565675 907.7171717171716,202.10101010101027 898.181818181818,211.63636363636374 888.6464646464647,221.17171717171726 879.111111111111,230.70707070707084 869.5757575757575,240.24242424242436 860.0404040404039,249.77777777777794 850.5050505050505,259.3131313131314 840.969696969697,268.84848484848493 831.4343434343433,278.38383838383857 821.8989898989898,287.91919191919203 812.3636363636363,297.4545454545456 802.8282828282828,306.9898989898991 793.2929292929292,316.5252525252526 783.7575757575758,326.06060606060623 774.2222222222222,335.5959595959597 764.6868686868686,345.1313131313133 755.1515151515151,354.66666666666674 745.6161616161615,364.2020202020203 736.0808080808081,373.73737373737384 726.5454545454545,383.27272727272737 717.0101010101009,392.80808080808094 707.4747474747475,402.3434343434344 707.4747474747475,411.87878787878793 707.4747474747475,421.4141414141415 707.4747474747475,430.94949494949503 707.4747474747475,440.4848484848486 707.4747474747475,450.0202020202021 707.4747474747475,459.5555555555556 707.4747474747475,469.0909090909092 707.4747474747475,478.6262626262627 707.4747474747475,488.1616161616163 707.4747474747475,497.69696969696975 707.4747474747475,507.23232323232327 707.4747474747475,516.7676767676768 707.4747474747475,526.3030303030304 707.4747474747475,535.838383838384 707.4747474747475,545.3737373737374 707.4747474747475,554.909090909091 707.4747474747475,564.4444444444445 707.4747474747475,573.979797979798 707.4747474747475,583.5151515151516 707.4747474747475,593.0505050505051 707.4747474747475,602.5858585858587 707.4747474747475,612.1212121212121 707.4747474747475,621.6565656565657 707.4747474747475,631.1919191919193 707.4747474747475,640.7272727272727 707.4747474747475,650.2626262626263" fill="none" stroke="rgba(255,0,0,0.75)" stroke-width="14.159999999999995"/></g><g><polyline data-points="2.070707070707072,-1.4646464646464643 1.9696969696969702,-1.4646464646464643 1.8686868686868696,-1.4646464646464643 1.767676767676768,-1.4646464646464643 1.6666666666666674,-1.4646464646464643 1.5656565656565666,-1.4646464646464643 1.4646464646464652,-1.4646464646464643 1.3636363636363644,-1.4646464646464643 1.262626262626263,-1.4646464646464643 1.1616161616161622,-1.4646464646464643 1.0606060606060617,-1.4646464646464643 0.9595959595959602,-1.4646464646464643 0.8585858585858596,-1.4646464646464643 0.7575757575757579,-1.4646464646464643 0.6565656565656574,-1.4646464646464643 0.5555555555555567,-1.4646464646464643 0.4545454545454551,-1.4646464646464643 0.3535353535353544,-1.4646464646464643 0.2525252525252529,-1.4646464646464643 0.1515151515151522,-1.4646464646464643 0.050505050505051545,-1.4646464646464643 -0.05050505050505001,-1.4646464646464643 -0.15151515151515066,-1.4646464646464643 -0.2525252525252522,-1.4646464646464643 -0.35353535353535287,-1.4646464646464643 -0.4545454545454544,-1.4646464646464643 -0.555555555555555,-1.4646464646464643 -0.6565656565656557,-1.4646464646464643 -0.7575757575757572,-1.4646464646464643 -0.8585858585858579,-1.4646464646464643 -0.9595959595959596,-1.4646464646464643 -1.0606060606060603,-1.4646464646464643 -1.1616161616161613,-1.4646464646464643 -1.2626262626262625,-1.4646464646464643 -1.363636363636363,-1.4646464646464643 -1.4646464646464643,-1.4646464646464643 -1.5656565656565653,-1.4646464646464643 -1.6666666666666665,-1.4646464646464643 -1.7676767676767675,-1.4646464646464643 -1.8686868686868683,-1.4646464646464643 -1.9696969696969693,-1.4646464646464643 -2.07070707070707,-1.4646464646464643 -2.1717171717171713,-1.4646464646464643 -2.2727272727272725,-1.4646464646464643 -2.3737373737373733,-1.4646464646464643 -2.474747474747474,-1.4646464646464643 -2.5757575757575752,-1.4646464646464643 -2.6767676767676765,-1.4646464646464643 -2.7777777777777777,-1.4646464646464643 -2.8787878787878785,-1.4646464646464643 -2.9797979797979792,-1.4646464646464643 -3.0808080808080804,-1.4646464646464643 -3.1818181818181817,-1.4646464646464643 -3.2828282828282824,-1.4646464646464643 -3.383838383838383,-1.4646464646464643 -3.484848484848485,-1.4646464646464643 -3.5858585858585856,-1.4646464646464643 -3.6868686868686864,-1.4646464646464643 -3.7878787878787876,-1.4646464646464643 -3.8888888888888884,-1.4646464646464643 -3.98989898989899,-1.4646464646464643 -4.090909090909091,-1.4646464646464643 -4.191919191919193,-1.4646464646464643 -4.292929292929293,-1.4646464646464643 -4.393939393939394,-1.4646464646464643 -4.494949494949496,-1.4646464646464643 -4.595959595959596,-1.4646464646464643 -4.696969696969697,-1.4646464646464643 -4.7979797979797985,-1.4646464646464643 -4.898989898989899,-1.4646464646464643 -5.000000000000001,-1.4646464646464643" data-type="line" data-label="" points="707.4747474747475,650.2626262626263 697.9393939393939,650.2626262626263 688.4040404040404,650.2626262626263 678.8686868686868,650.2626262626263 669.3333333333333,650.2626262626263 659.7979797979798,650.2626262626263 650.2626262626262,650.2626262626263 640.7272727272727,650.2626262626263 631.1919191919192,650.2626262626263 621.6565656565656,650.2626262626263 612.1212121212121,650.2626262626263 602.5858585858585,650.2626262626263 593.0505050505051,650.2626262626263 583.5151515151515,650.2626262626263 573.9797979797979,650.2626262626263 564.4444444444445,650.2626262626263 554.9090909090909,650.2626262626263 545.3737373737374,650.2626262626263 535.8383838383838,650.2626262626263 526.3030303030303,650.2626262626263 516.7676767676768,650.2626262626263 507.2323232323232,650.2626262626263 497.69696969696975,650.2626262626263 488.16161616161617,650.2626262626263 478.62626262626264,650.2626262626263 469.09090909090907,650.2626262626263 459.55555555555554,650.2626262626263 450.0202020202021,650.2626262626263 440.4848484848485,650.2626262626263 430.949494949495,650.2626262626263 421.4141414141414,650.2626262626263 411.8787878787879,650.2626262626263 402.34343434343435,650.2626262626263 392.80808080808083,650.2626262626263 383.2727272727273,650.2626262626263 373.7373737373738,650.2626262626263 364.2020202020202,650.2626262626263 354.6666666666667,650.2626262626263 345.13131313131316,650.2626262626263 335.59595959595964,650.2626262626263 326.0606060606061,650.2626262626263 316.5252525252526,650.2626262626263 306.9898989898991,650.2626262626263 297.4545454545455,650.2626262626263 287.91919191919203,650.2626262626263 278.38383838383845,650.2626262626263 268.84848484848493,650.2626262626263 259.3131313131314,650.2626262626263 249.77777777777783,650.2626262626263 240.2424242424243,650.2626262626263 230.70707070707084,650.2626262626263 221.17171717171726,650.2626262626263 211.63636363636374,650.2626262626263 202.10101010101022,650.2626262626263 192.5656565656567,650.2626262626263 183.03030303030312,650.2626262626263 173.4949494949496,650.2626262626263 163.95959595959607,650.2626262626263 154.42424242424255,650.2626262626263 144.88888888888903,650.2626262626263 135.35353535353545,650.2626262626263 125.81818181818193,650.2626262626263 116.28282828282829,650.2626262626263 106.74747474747483,650.2626262626263 97.21212121212136,650.2626262626263 87.67676767676772,650.2626262626263 78.14141414141426,650.2626262626263 68.60606060606068,650.2626262626263 59.07070707070716,650.2626262626263 49.53535353535369,650.2626262626263 40.00000000000006,650.2626262626263" fill="none" stroke="rgba(0,0,255,0.75)" stroke-width="14.159999999999995"/></g><g><polyline data-points="1.9696969696969702,-5.000000000000001 1.9696969696969702,-4.898989898989899 1.9696969696969702,-4.7979797979797985 1.9696969696969702,-4.696969696969697 1.8686868686868696,-4.595959595959596 1.767676767676768,-4.494949494949496 1.6666666666666674,-4.393939393939394 1.5656565656565666,-4.292929292929293 1.4646464646464652,-4.191919191919193 1.3636363636363644,-4.090909090909091 1.262626262626263,-3.98989898989899 1.262626262626263,-3.8888888888888884 1.262626262626263,-3.7878787878787876 1.262626262626263,-3.6868686868686864 1.262626262626263,-3.5858585858585856 1.262626262626263,-3.484848484848485 1.262626262626263,-3.383838383838383 1.262626262626263,-3.2828282828282824 1.262626262626263,-3.1818181818181817 1.262626262626263,-3.0808080808080804 1.262626262626263,-2.9797979797979792 1.262626262626263,-2.8787878787878785 1.262626262626263,-2.7777777777777777 1.262626262626263,-2.6767676767676765 1.262626262626263,-2.5757575757575752 1.262626262626263,-2.474747474747474 1.262626262626263,-2.3737373737373733 1.262626262626263,-2.2727272727272725 1.262626262626263,-2.1717171717171713 1.262626262626263,-2.07070707070707 1.262626262626263,-1.9696969696969693 1.262626262626263,-1.8686868686868683 1.262626262626263,-1.7676767676767675 1.262626262626263,-1.6666666666666665 1.262626262626263,-1.5656565656565653 1.262626262626263,-1.4646464646464643 1.262626262626263,-1.363636363636363 1.262626262626263,-1.2626262626262625 1.262626262626263,-1.1616161616161613 1.262626262626263,-1.0606060606060603 1.262626262626263,-0.9595959595959596 1.262626262626263,-0.8585858585858579 1.262626262626263,-0.7575757575757572 1.262626262626263,-0.6565656565656557 1.262626262626263,-0.555555555555555 1.262626262626263,-0.4545454545454544 1.262626262626263,-0.35353535353535287 1.262626262626263,-0.2525252525252522 1.262626262626263,-0.15151515151515066 1.262626262626263,-0.05050505050505001 1.262626262626263,0.050505050505051545 1.262626262626263,0.1515151515151522 1.262626262626263,0.2525252525252529 1.262626262626263,0.3535353535353544 1.262626262626263,0.4545454545454551 1.262626262626263,0.5555555555555567 1.262626262626263,0.6565656565656574 1.262626262626263,0.7575757575757579 1.262626262626263,0.8585858585858596 1.262626262626263,0.9595959595959602 1.262626262626263,1.0606060606060617 1.262626262626263,1.1616161616161622 1.262626262626263,1.262626262626263 1.262626262626263,1.3636363636363644 1.262626262626263,1.4646464646464652 1.262626262626263,1.5656565656565666 1.262626262626263,1.6666666666666674 1.262626262626263,1.767676767676768 1.262626262626263,1.8686868686868696 1.262626262626263,1.9696969696969702 1.1616161616161622,2.070707070707072 1.0606060606060617,2.1717171717171726 0.9595959595959602,2.2727272727272734 0.8585858585858596,2.373737373737375" data-type="line" data-label="" points="697.9393939393939,984 697.9393939393939,974.4646464646464 697.9393939393939,964.9292929292928 697.9393939393939,955.3939393939394 688.4040404040404,945.8585858585858 678.8686868686868,936.3232323232323 669.3333333333333,926.7878787878788 659.7979797979798,917.2525252525252 650.2626262626262,907.7171717171718 640.7272727272727,898.1818181818181 631.1919191919192,888.6464646464647 631.1919191919192,879.1111111111111 631.1919191919192,869.5757575757575 631.1919191919192,860.0404040404039 631.1919191919192,850.5050505050505 631.1919191919192,840.969696969697 631.1919191919192,831.4343434343434 631.1919191919192,821.8989898989898 631.1919191919192,812.3636363636363 631.1919191919192,802.8282828282828 631.1919191919192,793.2929292929292 631.1919191919192,783.7575757575758 631.1919191919192,774.2222222222222 631.1919191919192,764.6868686868687 631.1919191919192,755.1515151515151 631.1919191919192,745.6161616161615 631.1919191919192,736.0808080808081 631.1919191919192,726.5454545454545 631.1919191919192,717.010101010101 631.1919191919192,707.4747474747475 631.1919191919192,697.939393939394 631.1919191919192,688.4040404040404 631.1919191919192,678.8686868686868 631.1919191919192,669.3333333333334 631.1919191919192,659.7979797979798 631.1919191919192,650.2626262626263 631.1919191919192,640.7272727272727 631.1919191919192,631.1919191919193 631.1919191919192,621.6565656565657 631.1919191919192,612.1212121212121 631.1919191919192,602.5858585858587 631.1919191919192,593.0505050505051 631.1919191919192,583.5151515151516 631.1919191919192,573.979797979798 631.1919191919192,564.4444444444445 631.1919191919192,554.909090909091 631.1919191919192,545.3737373737374 631.1919191919192,535.838383838384 631.1919191919192,526.3030303030304 631.1919191919192,516.7676767676768 631.1919191919192,507.23232323232327 631.1919191919192,497.69696969696975 631.1919191919192,488.1616161616163 631.1919191919192,478.6262626262627 631.1919191919192,469.0909090909092 631.1919191919192,459.5555555555556 631.1919191919192,450.0202020202021 631.1919191919192,440.4848484848486 631.1919191919192,430.94949494949503 631.1919191919192,421.4141414141415 631.1919191919192,411.87878787878793 631.1919191919192,402.3434343434344 631.1919191919192,392.80808080808094 631.1919191919192,383.27272727272737 631.1919191919192,373.73737373737384 631.1919191919192,364.2020202020203 631.1919191919192,354.66666666666674 631.1919191919192,345.1313131313133 631.1919191919192,335.5959595959597 631.1919191919192,326.06060606060623 621.6565656565656,316.5252525252526 612.1212121212121,306.9898989898991 602.5858585858585,297.4545454545456 593.0505050505051,287.91919191919203" fill="none" stroke="rgba(255,0,0,0.75)" stroke-width="14.159999999999995"/></g><g><polyline data-points="0.8585858585858596,2.373737373737375 0.9595959595959602,2.4747474747474754 1.0606060606060617,2.575757575757577 1.1616161616161622,2.676767676767678 1.262626262626263,2.7777777777777786 1.3636363636363644,2.7777777777777786 1.4646464646464652,2.7777777777777786 1.5656565656565666,2.7777777777777786 1.6666666666666674,2.7777777777777786 1.767676767676768,2.7777777777777786 1.8686868686868696,2.7777777777777786 1.9696969696969702,2.7777777777777786 2.070707070707072,2.7777777777777786 2.1717171717171726,2.7777777777777786 2.2727272727272734,2.7777777777777786 2.373737373737375,2.7777777777777786 2.4747474747474754,2.7777777777777786 2.575757575757577,2.7777777777777786 2.676767676767678,2.7777777777777786 2.7777777777777786,2.7777777777777786 2.87878787878788,2.7777777777777786 2.9797979797979806,2.7777777777777786 3.080808080808082,2.7777777777777786 3.181818181818183,2.7777777777777786 3.2828282828282833,2.7777777777777786 3.383838383838384,2.7777777777777786 3.4848484848484866,2.7777777777777786 3.5858585858585874,2.7777777777777786 3.6868686868686877,2.7777777777777786 3.7878787878787885,2.7777777777777786 3.8888888888888893,2.7777777777777786 3.989898989898992,2.7777777777777786 4.090909090909092,2.7777777777777786 4.191919191919193,2.7777777777777786 4.292929292929293,2.7777777777777786 4.393939393939394,2.7777777777777786 4.494949494949497,2.7777777777777786 4.595959595959597,2.7777777777777786 4.696969696969697,2.7777777777777786 4.7979797979797985,2.7777777777777786 4.898989898989901,2.7777777777777786 5.000000000000002,2.7777777777777786" data-type="line" data-label="" points="593.0505050505051,287.91919191919203 602.5858585858585,278.38383838383857 612.1212121212121,268.84848484848493 621.6565656565656,259.3131313131314 631.1919191919192,249.77777777777794 640.7272727272727,249.77777777777794 650.2626262626262,249.77777777777794 659.7979797979798,249.77777777777794 669.3333333333333,249.77777777777794 678.8686868686868,249.77777777777794 688.4040404040404,249.77777777777794 697.9393939393939,249.77777777777794 707.4747474747475,249.77777777777794 717.0101010101009,249.77777777777794 726.5454545454545,249.77777777777794 736.0808080808081,249.77777777777794 745.6161616161615,249.77777777777794 755.1515151515151,249.77777777777794 764.6868686868686,249.77777777777794 774.2222222222222,249.77777777777794 783.7575757575758,249.77777777777794 793.2929292929292,249.77777777777794 802.8282828282828,249.77777777777794 812.3636363636363,249.77777777777794 821.8989898989898,249.77777777777794 831.4343434343433,249.77777777777794 840.969696969697,249.77777777777794 850.5050505050505,249.77777777777794 860.0404040404039,249.77777777777794 869.5757575757575,249.77777777777794 879.111111111111,249.77777777777794 888.6464646464647,249.77777777777794 898.181818181818,249.77777777777794 907.7171717171716,249.77777777777794 917.2525252525251,249.77777777777794 926.7878787878785,249.77777777777794 936.3232323232323,249.77777777777794 945.8585858585857,249.77777777777794 955.3939393939393,249.77777777777794 964.9292929292927,249.77777777777794 974.4646464646464,249.77777777777794 984,249.77777777777794" fill="none" stroke="rgba(0,0,255,0.75)" stroke-width="14.159999999999995"/></g><g><polyline data-points="-5.000000000000001,-4.696969696969697 -5.000000000000001,-4.595959595959596 -5.000000000000001,-4.494949494949496 -5.000000000000001,-4.393939393939394 -5.000000000000001,-4.292929292929293 -5.000000000000001,-4.191919191919193 -5.000000000000001,-4.090909090909091 -5.000000000000001,-3.98989898989899 -5.000000000000001,-3.8888888888888884 -5.000000000000001,-3.7878787878787876 -5.000000000000001,-3.6868686868686864 -5.000000000000001,-3.5858585858585856 -5.000000000000001,-3.484848484848485 -5.000000000000001,-3.383838383838383 -5.000000000000001,-3.2828282828282824 -5.000000000000001,-3.1818181818181817 -5.000000000000001,-3.0808080808080804 -5.000000000000001,-2.9797979797979792 -5.000000000000001,-2.8787878787878785 -5.000000000000001,-2.7777777777777777 -5.000000000000001,-2.6767676767676765 -5.000000000000001,-2.5757575757575752 -5.000000000000001,-2.474747474747474 -5.000000000000001,-2.3737373737373733 -5.000000000000001,-2.2727272727272725 -5.000000000000001,-2.1717171717171713 -5.000000000000001,-2.07070707070707 -5.000000000000001,-1.9696969696969693 -5.000000000000001,-1.8686868686868683 -5.000000000000001,-1.7676767676767675 -5.000000000000001,-1.6666666666666665 -5.000000000000001,-1.5656565656565653 -5.000000000000001,-1.4646464646464643 -5.000000000000001,-1.363636363636363 -5.000000000000001,-1.2626262626262625 -5.000000000000001,-1.1616161616161613 -5.000000000000001,-1.0606060606060603 -5.000000000000001,-0.9595959595959596 -5.000000000000001,-0.8585858585858579 -5.000000000000001,-0.7575757575757572 -5.000000000000001,-0.6565656565656557 -5.000000000000001,-0.555555555555555 -5.000000000000001,-0.4545454545454544 -5.000000000000001,-0.35353535353535287 -5.000000000000001,-0.2525252525252522" data-type="line" data-label="" points="40.00000000000006,955.3939393939394 40.00000000000006,945.8585858585858 40.00000000000006,936.3232323232323 40.00000000000006,926.7878787878788 40.00000000000006,917.2525252525252 40.00000000000006,907.7171717171718 40.00000000000006,898.1818181818181 40.00000000000006,888.6464646464647 40.00000000000006,879.1111111111111 40.00000000000006,869.5757575757575 40.00000000000006,860.0404040404039 40.00000000000006,850.5050505050505 40.00000000000006,840.969696969697 40.00000000000006,831.4343434343434 40.00000000000006,821.8989898989898 40.00000000000006,812.3636363636363 40.00000000000006,802.8282828282828 40.00000000000006,793.2929292929292 40.00000000000006,783.7575757575758 40.00000000000006,774.2222222222222 40.00000000000006,764.6868686868687 40.00000000000006,755.1515151515151 40.00000000000006,745.6161616161615 40.00000000000006,736.0808080808081 40.00000000000006,726.5454545454545 40.00000000000006,717.010101010101 40.00000000000006,707.4747474747475 40.00000000000006,697.939393939394 40.00000000000006,688.4040404040404 40.00000000000006,678.8686868686868 40.00000000000006,669.3333333333334 40.00000000000006,659.7979797979798 40.00000000000006,650.2626262626263 40.00000000000006,640.7272727272727 40.00000000000006,631.1919191919193 40.00000000000006,621.6565656565657 40.00000000000006,612.1212121212121 40.00000000000006,602.5858585858587 40.00000000000006,593.0505050505051 40.00000000000006,583.5151515151516 40.00000000000006,573.979797979798 40.00000000000006,564.4444444444445 40.00000000000006,554.909090909091 40.00000000000006,545.3737373737374 40.00000000000006,535.838383838384" fill="none" stroke="rgba(255,0,0,0.75)" stroke-width="14.159999999999995"/></g><g><polyline data-points="-2.1717171717171713,5.000000000000002 -2.07070707070707,5.000000000000002 -1.9696969696969693,5.000000000000002 -1.8686868686868683,5.000000000000002 -1.7676767676767675,5.000000000000002 -1.6666666666666665,5.000000000000002 -1.5656565656565653,5.000000000000002 -1.4646464646464643,5.000000000000002 -1.363636363636363,5.000000000000002 -1.2626262626262625,4.898989898989901 -1.1616161616161613,4.7979797979797985 -1.0606060606060603,4.696969696969697 -0.9595959595959596,4.595959595959597 -0.8585858585858579,4.494949494949497 -0.7575757575757572,4.393939393939394 -0.6565656565656557,4.292929292929293 -0.555555555555555,4.191919191919193 -0.4545454545454544,4.090909090909092 -0.35353535353535287,3.989898989898992" data-type="line" data-label="" points="306.9898989898991,40.000000000000114 316.5252525252526,40.000000000000114 326.0606060606061,40.000000000000114 335.59595959595964,40.000000000000114 345.13131313131316,40.000000000000114 354.6666666666667,40.000000000000114 364.2020202020202,40.000000000000114 373.7373737373738,40.000000000000114 383.2727272727273,40.000000000000114 392.80808080808083,49.53535353535369 402.34343434343435,59.07070707070733 411.8787878787879,68.60606060606085 421.4141414141414,78.14141414141432 430.949494949495,87.67676767676778 440.4848484848485,97.21212121212153 450.0202020202021,106.747474747475 459.55555555555554,116.28282828282846 469.09090909090907,125.81818181818198 478.62626262626264,135.35353535353545" fill="none" stroke="rgba(0,0,255,0.75)" stroke-width="14.159999999999995"/></g><g><polyline data-points="-0.35353535353535287,3.989898989898992 -0.35353535353535287,4.090909090909092 -0.35353535353535287,4.191919191919193 -0.35353535353535287,4.292929292929293 -0.35353535353535287,4.393939393939394 -0.35353535353535287,4.494949494949497 -0.35353535353535287,4.595959595959597 -0.35353535353535287,4.696969696969697 -0.35353535353535287,4.7979797979797985 -0.35353535353535287,4.898989898989901 -0.35353535353535287,5.000000000000002" data-type="line" data-label="" points="478.62626262626264,135.35353535353545 478.62626262626264,125.81818181818198 478.62626262626264,116.28282828282846 478.62626262626264,106.747474747475 478.62626262626264,97.21212121212153 478.62626262626264,87.67676767676778 478.62626262626264,78.14141414141432 478.62626262626264,68.60606060606085 478.62626262626264,59.07070707070733 478.62626262626264,49.53535353535369 478.62626262626264,40.000000000000114" fill="none" stroke="rgba(255,0,0,0.75)" stroke-width="14.159999999999995"/></g><g><polyline data-points="3.7878787878787885,-5.000000000000001 3.6868686868686877,-4.898989898989899 3.5858585858585874,-4.7979797979797985 3.4848484848484866,-4.696969696969697 3.383838383838384,-4.595959595959596 3.2828282828282833,-4.494949494949496 3.181818181818183,-4.393939393939394 3.080808080808082,-4.292929292929293 2.9797979797979806,-4.191919191919193 2.87878787878788,-4.090909090909091 2.7777777777777786,-4.090909090909091 2.676767676767678,-4.090909090909091 2.575757575757577,-4.090909090909091 2.4747474747474754,-4.090909090909091 2.373737373737375,-4.090909090909091 2.2727272727272734,-4.090909090909091 2.1717171717171726,-4.090909090909091 2.070707070707072,-4.090909090909091 1.9696969696969702,-4.090909090909091 1.8686868686868696,-4.090909090909091 1.767676767676768,-4.090909090909091 1.6666666666666674,-4.090909090909091 1.5656565656565666,-4.090909090909091 1.4646464646464652,-4.090909090909091 1.3636363636363644,-4.090909090909091 1.262626262626263,-4.090909090909091 1.1616161616161622,-4.090909090909091 1.0606060606060617,-4.090909090909091 0.9595959595959602,-4.090909090909091 0.8585858585858596,-4.090909090909091 0.7575757575757579,-4.090909090909091 0.6565656565656574,-4.090909090909091 0.5555555555555567,-4.090909090909091 0.4545454545454551,-4.090909090909091 0.3535353535353544,-4.090909090909091 0.2525252525252529,-4.090909090909091 0.1515151515151522,-4.090909090909091 0.050505050505051545,-4.090909090909091 -0.05050505050505001,-4.090909090909091 -0.15151515151515066,-4.090909090909091 -0.2525252525252522,-4.090909090909091 -0.35353535353535287,-4.090909090909091 -0.4545454545454544,-4.090909090909091 -0.555555555555555,-4.090909090909091 -0.6565656565656557,-4.090909090909091 -0.7575757575757572,-4.090909090909091 -0.8585858585858579,-4.090909090909091 -0.9595959595959596,-4.090909090909091 -1.0606060606060603,-4.090909090909091 -1.1616161616161613,-3.98989898989899 -1.2626262626262625,-3.8888888888888884 -1.363636363636363,-3.7878787878787876 -1.4646464646464643,-3.6868686868686864 -1.5656565656565653,-3.5858585858585856 -1.6666666666666665,-3.484848484848485 -1.7676767676767675,-3.383838383838383 -1.8686868686868683,-3.2828282828282824 -1.9696969696969693,-3.1818181818181817 -2.07070707070707,-3.0808080808080804 -2.1717171717171713,-2.9797979797979792 -2.2727272727272725,-2.8787878787878785 -2.3737373737373733,-2.7777777777777777 -2.474747474747474,-2.6767676767676765 -2.5757575757575752,-2.5757575757575752 -2.6767676767676765,-2.474747474747474 -2.7777777777777777,-2.3737373737373733 -2.8787878787878785,-2.2727272727272725 -2.9797979797979792,-2.1717171717171713 -3.0808080808080804,-2.07070707070707" data-type="line" data-label="" points="869.5757575757575,984 860.0404040404039,974.4646464646464 850.5050505050505,964.9292929292928 840.969696969697,955.3939393939394 831.4343434343433,945.8585858585858 821.8989898989898,936.3232323232323 812.3636363636363,926.7878787878788 802.8282828282828,917.2525252525252 793.2929292929292,907.7171717171718 783.7575757575758,898.1818181818181 774.2222222222222,898.1818181818181 764.6868686868686,898.1818181818181 755.1515151515151,898.1818181818181 745.6161616161615,898.1818181818181 736.0808080808081,898.1818181818181 726.5454545454545,898.1818181818181 717.0101010101009,898.1818181818181 707.4747474747475,898.1818181818181 697.9393939393939,898.1818181818181 688.4040404040404,898.1818181818181 678.8686868686868,898.1818181818181 669.3333333333333,898.1818181818181 659.7979797979798,898.1818181818181 650.2626262626262,898.1818181818181 640.7272727272727,898.1818181818181 631.1919191919192,898.1818181818181 621.6565656565656,898.1818181818181 612.1212121212121,898.1818181818181 602.5858585858585,898.1818181818181 593.0505050505051,898.1818181818181 583.5151515151515,898.1818181818181 573.9797979797979,898.1818181818181 564.4444444444445,898.1818181818181 554.9090909090909,898.1818181818181 545.3737373737374,898.1818181818181 535.8383838383838,898.1818181818181 526.3030303030303,898.1818181818181 516.7676767676768,898.1818181818181 507.2323232323232,898.1818181818181 497.69696969696975,898.1818181818181 488.16161616161617,898.1818181818181 478.62626262626264,898.1818181818181 469.09090909090907,898.1818181818181 459.55555555555554,898.1818181818181 450.0202020202021,898.1818181818181 440.4848484848485,898.1818181818181 430.949494949495,898.1818181818181 421.4141414141414,898.1818181818181 411.8787878787879,898.1818181818181 402.34343434343435,888.6464646464647 392.80808080808083,879.1111111111111 383.2727272727273,869.5757575757575 373.7373737373738,860.0404040404039 364.2020202020202,850.5050505050505 354.6666666666667,840.969696969697 345.13131313131316,831.4343434343434 335.59595959595964,821.8989898989898 326.0606060606061,812.3636363636363 316.5252525252526,802.8282828282828 306.9898989898991,793.2929292929292 297.4545454545455,783.7575757575758 287.91919191919203,774.2222222222222 278.38383838383845,764.6868686868687 268.84848484848493,755.1515151515151 259.3131313131314,745.6161616161615 249.77777777777783,736.0808080808081 240.2424242424243,726.5454545454545 230.70707070707084,717.010101010101 221.17171717171726,707.4747474747475" fill="none" stroke="rgba(0,0,255,0.75)" stroke-width="14.159999999999995"/></g><g><polyline data-points="-3.0808080808080804,-2.07070707070707 -3.1818181818181817,-1.9696969696969693 -3.2828282828282824,-1.8686868686868683 -3.383838383838383,-1.7676767676767675 -3.484848484848485,-1.6666666666666665 -3.5858585858585856,-1.5656565656565653 -3.6868686868686864,-1.4646464646464643 -3.7878787878787876,-1.363636363636363 -3.8888888888888884,-1.2626262626262625 -3.98989898989899,-1.1616161616161613 -4.090909090909091,-1.0606060606060603 -4.191919191919193,-0.9595959595959596 -4.292929292929293,-0.8585858585858579 -4.393939393939394,-0.7575757575757572 -4.494949494949496,-0.6565656565656557 -4.494949494949496,-0.555555555555555 -4.494949494949496,-0.4545454545454544 -4.494949494949496,-0.35353535353535287 -4.494949494949496,-0.2525252525252522 -4.494949494949496,-0.15151515151515066 -4.494949494949496,-0.05050505050505001 -4.494949494949496,0.050505050505051545 -4.494949494949496,0.1515151515151522 -4.494949494949496,0.2525252525252529 -4.494949494949496,0.3535353535353544 -4.494949494949496,0.4545454545454551 -4.494949494949496,0.5555555555555567 -4.494949494949496,0.6565656565656574 -4.494949494949496,0.7575757575757579 -4.494949494949496,0.8585858585858596 -4.494949494949496,0.9595959595959602 -4.494949494949496,1.0606060606060617 -4.494949494949496,1.1616161616161622 -4.494949494949496,1.262626262626263 -4.494949494949496,1.3636363636363644 -4.494949494949496,1.4646464646464652 -4.494949494949496,1.5656565656565666 -4.494949494949496,1.6666666666666674 -4.494949494949496,1.767676767676768 -4.494949494949496,1.8686868686868696 -4.494949494949496,1.9696969696969702 -4.494949494949496,2.070707070707072 -4.494949494949496,2.1717171717171726 -4.494949494949496,2.2727272727272734 -4.494949494949496,2.373737373737375 -4.494949494949496,2.4747474747474754 -4.494949494949496,2.575757575757577 -4.494949494949496,2.676767676767678 -4.494949494949496,2.7777777777777786 -4.494949494949496,2.87878787878788 -4.494949494949496,2.9797979797979806 -4.494949494949496,3.080808080808082 -4.494949494949496,3.181818181818183 -4.494949494949496,3.2828282828282833 -4.494949494949496,3.383838383838384 -4.494949494949496,3.4848484848484866 -4.494949494949496,3.5858585858585874 -4.494949494949496,3.6868686868686877 -4.494949494949496,3.7878787878787885 -4.494949494949496,3.8888888888888893 -4.494949494949496,3.989898989898992 -4.494949494949496,4.090909090909092 -4.494949494949496,4.191919191919193 -4.494949494949496,4.292929292929293 -4.494949494949496,4.393939393939394 -4.494949494949496,4.494949494949497 -4.494949494949496,4.595959595959597 -4.494949494949496,4.696969696969697 -4.494949494949496,4.7979797979797985 -4.494949494949496,4.898989898989901 -4.494949494949496,5.000000000000002" data-type="line" data-label="" points="221.17171717171726,707.4747474747475 211.63636363636374,697.939393939394 202.10101010101022,688.4040404040404 192.5656565656567,678.8686868686868 183.03030303030312,669.3333333333334 173.4949494949496,659.7979797979798 163.95959595959607,650.2626262626263 154.42424242424255,640.7272727272727 144.88888888888903,631.1919191919193 135.35353535353545,621.6565656565657 125.81818181818193,612.1212121212121 116.28282828282829,602.5858585858587 106.74747474747483,593.0505050505051 97.21212121212136,583.5151515151516 87.67676767676772,573.979797979798 87.67676767676772,564.4444444444445 87.67676767676772,554.909090909091 87.67676767676772,545.3737373737374 87.67676767676772,535.838383838384 87.67676767676772,526.3030303030304 87.67676767676772,516.7676767676768 87.67676767676772,507.23232323232327 87.67676767676772,497.69696969696975 87.67676767676772,488.1616161616163 87.67676767676772,478.6262626262627 87.67676767676772,469.0909090909092 87.67676767676772,459.5555555555556 87.67676767676772,450.0202020202021 87.67676767676772,440.4848484848486 87.67676767676772,430.94949494949503 87.67676767676772,421.4141414141415 87.67676767676772,411.87878787878793 87.67676767676772,402.3434343434344 87.67676767676772,392.80808080808094 87.67676767676772,383.27272727272737 87.67676767676772,373.73737373737384 87.67676767676772,364.2020202020203 87.67676767676772,354.66666666666674 87.67676767676772,345.1313131313133 87.67676767676772,335.5959595959597 87.67676767676772,326.06060606060623 87.67676767676772,316.5252525252526 87.67676767676772,306.9898989898991 87.67676767676772,297.4545454545456 87.67676767676772,287.91919191919203 87.67676767676772,278.38383838383857 87.67676767676772,268.84848484848493 87.67676767676772,259.3131313131314 87.67676767676772,249.77777777777794 87.67676767676772,240.24242424242436 87.67676767676772,230.70707070707084 87.67676767676772,221.17171717171726 87.67676767676772,211.63636363636374 87.67676767676772,202.10101010101027 87.67676767676772,192.56565656565675 87.67676767676772,183.03030303030312 87.67676767676772,173.4949494949496 87.67676767676772,163.95959595959613 87.67676767676772,154.4242424242426 87.67676767676772,144.88888888888908 87.67676767676772,135.35353535353545 87.67676767676772,125.81818181818198 87.67676767676772,116.28282828282846 87.67676767676772,106.747474747475 87.67676767676772,97.21212121212153 87.67676767676772,87.67676767676778 87.67676767676772,78.14141414141432 87.67676767676772,68.60606060606085 87.67676767676772,59.07070707070733 87.67676767676772,49.53535353535369 87.67676767676772,40.000000000000114" fill="none" stroke="rgba(255,0,0,0.75)" stroke-width="14.159999999999995"/></g><g><polyline data-points="-5.000000000000001,1.767676767676768 -4.898989898989899,1.6666666666666674 -4.7979797979797985,1.5656565656565666 -4.696969696969697,1.4646464646464652 -4.595959595959596,1.3636363636363644 -4.494949494949496,1.262626262626263 -4.393939393939394,1.1616161616161622 -4.292929292929293,1.0606060606060617 -4.191919191919193,0.9595959595959602 -4.090909090909091,0.8585858585858596 -3.98989898989899,0.7575757575757579 -3.8888888888888884,0.6565656565656574 -3.7878787878787876,0.5555555555555567 -3.6868686868686864,0.4545454545454551 -3.5858585858585856,0.3535353535353544 -3.484848484848485,0.2525252525252529 -3.383838383838383,0.1515151515151522 -3.2828282828282824,0.050505050505051545 -3.1818181818181817,-0.05050505050505001 -3.0808080808080804,-0.15151515151515066 -2.9797979797979792,-0.2525252525252522 -2.8787878787878785,-0.2525252525252522 -2.7777777777777777,-0.2525252525252522 -2.6767676767676765,-0.2525252525252522 -2.5757575757575752,-0.2525252525252522 -2.474747474747474,-0.2525252525252522 -2.3737373737373733,-0.2525252525252522 -2.2727272727272725,-0.2525252525252522 -2.1717171717171713,-0.2525252525252522 -2.07070707070707,-0.2525252525252522 -1.9696969696969693,-0.2525252525252522 -1.8686868686868683,-0.2525252525252522 -1.7676767676767675,-0.2525252525252522 -1.6666666666666665,-0.2525252525252522 -1.5656565656565653,-0.2525252525252522 -1.4646464646464643,-0.2525252525252522 -1.363636363636363,-0.2525252525252522 -1.2626262626262625,-0.2525252525252522 -1.1616161616161613,-0.2525252525252522 -1.0606060606060603,-0.2525252525252522 -0.9595959595959596,-0.2525252525252522 -0.8585858585858579,-0.2525252525252522 -0.7575757575757572,-0.2525252525252522 -0.6565656565656557,-0.2525252525252522 -0.555555555555555,-0.2525252525252522 -0.4545454545454544,-0.2525252525252522 -0.35353535353535287,-0.2525252525252522 -0.2525252525252522,-0.2525252525252522 -0.15151515151515066,-0.2525252525252522 -0.05050505050505001,-0.2525252525252522 0.050505050505051545,-0.2525252525252522 0.1515151515151522,-0.2525252525252522 0.2525252525252529,-0.2525252525252522 0.3535353535353544,-0.2525252525252522 0.4545454545454551,-0.2525252525252522 0.5555555555555567,-0.2525252525252522 0.6565656565656574,-0.2525252525252522 0.7575757575757579,-0.2525252525252522 0.8585858585858596,-0.2525252525252522 0.9595959595959602,-0.2525252525252522 1.0606060606060617,-0.2525252525252522 1.1616161616161622,-0.2525252525252522 1.262626262626263,-0.2525252525252522 1.3636363636363644,-0.2525252525252522 1.4646464646464652,-0.2525252525252522 1.5656565656565666,-0.2525252525252522 1.6666666666666674,-0.2525252525252522 1.767676767676768,-0.2525252525252522 1.8686868686868696,-0.2525252525252522 1.9696969696969702,-0.2525252525252522 2.070707070707072,-0.2525252525252522 2.1717171717171726,-0.2525252525252522 2.2727272727272734,-0.2525252525252522 2.373737373737375,-0.2525252525252522 2.4747474747474754,-0.2525252525252522 2.575757575757577,-0.2525252525252522 2.676767676767678,-0.2525252525252522 2.7777777777777786,-0.2525252525252522 2.87878787878788,-0.2525252525252522 2.9797979797979806,-0.2525252525252522 3.080808080808082,-0.2525252525252522 3.181818181818183,-0.2525252525252522 3.2828282828282833,-0.2525252525252522 3.383838383838384,-0.2525252525252522 3.4848484848484866,-0.2525252525252522 3.5858585858585874,-0.2525252525252522 3.6868686868686877,-0.2525252525252522 3.7878787878787885,-0.2525252525252522 3.8888888888888893,-0.2525252525252522 3.989898989898992,-0.2525252525252522" data-type="line" data-label="" points="40.00000000000006,345.1313131313133 49.53535353535369,354.66666666666674 59.07070707070716,364.2020202020203 68.60606060606068,373.73737373737384 78.14141414141426,383.27272727272737 87.67676767676772,392.80808080808094 97.21212121212136,402.3434343434344 106.74747474747483,411.87878787878793 116.28282828282829,421.4141414141415 125.81818181818193,430.94949494949503 135.35353535353545,440.4848484848486 144.88888888888903,450.0202020202021 154.42424242424255,459.5555555555556 163.95959595959607,469.0909090909092 173.4949494949496,478.6262626262627 183.03030303030312,488.1616161616163 192.5656565656567,497.69696969696975 202.10101010101022,507.23232323232327 211.63636363636374,516.7676767676768 221.17171717171726,526.3030303030304 230.70707070707084,535.838383838384 240.2424242424243,535.838383838384 249.77777777777783,535.838383838384 259.3131313131314,535.838383838384 268.84848484848493,535.838383838384 278.38383838383845,535.838383838384 287.91919191919203,535.838383838384 297.4545454545455,535.838383838384 306.9898989898991,535.838383838384 316.5252525252526,535.838383838384 326.0606060606061,535.838383838384 335.59595959595964,535.838383838384 345.13131313131316,535.838383838384 354.6666666666667,535.838383838384 364.2020202020202,535.838383838384 373.7373737373738,535.838383838384 383.2727272727273,535.838383838384 392.80808080808083,535.838383838384 402.34343434343435,535.838383838384 411.8787878787879,535.838383838384 421.4141414141414,535.838383838384 430.949494949495,535.838383838384 440.4848484848485,535.838383838384 450.0202020202021,535.838383838384 459.55555555555554,535.838383838384 469.09090909090907,535.838383838384 478.62626262626264,535.838383838384 488.16161616161617,535.838383838384 497.69696969696975,535.838383838384 507.2323232323232,535.838383838384 516.7676767676768,535.838383838384 526.3030303030303,535.838383838384 535.8383838383838,535.838383838384 545.3737373737374,535.838383838384 554.9090909090909,535.838383838384 564.4444444444445,535.838383838384 573.9797979797979,535.838383838384 583.5151515151515,535.838383838384 593.0505050505051,535.838383838384 602.5858585858585,535.838383838384 612.1212121212121,535.838383838384 621.6565656565656,535.838383838384 631.1919191919192,535.838383838384 640.7272727272727,535.838383838384 650.2626262626262,535.838383838384 659.7979797979798,535.838383838384 669.3333333333333,535.838383838384 678.8686868686868,535.838383838384 688.4040404040404,535.838383838384 697.9393939393939,535.838383838384 707.4747474747475,535.838383838384 717.0101010101009,535.838383838384 726.5454545454545,535.838383838384 736.0808080808081,535.838383838384 745.6161616161615,535.838383838384 755.1515151515151,535.838383838384 764.6868686868686,535.838383838384 774.2222222222222,535.838383838384 783.7575757575758,535.838383838384 793.2929292929292,535.838383838384 802.8282828282828,535.838383838384 812.3636363636363,535.838383838384 821.8989898989898,535.838383838384 831.4343434343433,535.838383838384 840.969696969697,535.838383838384 850.5050505050505,535.838383838384 860.0404040404039,535.838383838384 869.5757575757575,535.838383838384 879.111111111111,535.838383838384 888.6464646464647,535.838383838384" fill="none" stroke="rgba(0,0,255,0.75)" stroke-width="14.159999999999995"/></g><g><polyline data-points="3.989898989898992,-0.2525252525252522 4.090909090909092,-0.2525252525252522 4.191919191919193,-0.2525252525252522 4.292929292929293,-0.2525252525252522 4.393939393939394,-0.2525252525252522 4.494949494949497,-0.2525252525252522 4.595959595959597,-0.2525252525252522 4.696969696969697,-0.2525252525252522 4.7979797979797985,-0.2525252525252522 4.898989898989901,-0.2525252525252522 5.000000000000002,-0.2525252525252522" data-type="line" data-label="" points="888.6464646464647,535.838383838384 898.181818181818,535.838383838384 907.7171717171716,535.838383838384 917.2525252525251,535.838383838384 926.7878787878785,535.838383838384 936.3232323232323,535.838383838384 945.8585858585857,535.838383838384 955.3939393939393,535.838383838384 964.9292929292927,535.838383838384 974.4646464646464,535.838383838384 984,535.838383838384" fill="none" stroke="rgba(255,0,0,0.75)" stroke-width="14.159999999999995"/></g><g><polyline data-points="-3.0808080808080804,5.000000000000002 -2.9797979797979792,4.898989898989901 -2.8787878787878785,4.898989898989901 -2.7777777777777777,4.898989898989901 -2.6767676767676765,4.898989898989901 -2.5757575757575752,4.898989898989901 -2.474747474747474,4.898989898989901 -2.3737373737373733,4.7979797979797985 -2.2727272727272725,4.696969696969697 -2.1717171717171713,4.595959595959597 -2.07070707070707,4.494949494949497 -1.9696969696969693,4.393939393939394 -1.8686868686868683,4.292929292929293 -1.7676767676767675,4.191919191919193 -1.6666666666666665,4.090909090909092 -1.5656565656565653,3.989898989898992" data-type="line" data-label="" points="221.17171717171726,40.000000000000114 230.70707070707084,49.53535353535369 240.2424242424243,49.53535353535369 249.77777777777783,49.53535353535369 259.3131313131314,49.53535353535369 268.84848484848493,49.53535353535369 278.38383838383845,49.53535353535369 287.91919191919203,59.07070707070733 297.4545454545455,68.60606060606085 306.9898989898991,78.14141414141432 316.5252525252526,87.67676767676778 326.0606060606061,97.21212121212153 335.59595959595964,106.747474747475 345.13131313131316,116.28282828282846 354.6666666666667,125.81818181818198 364.2020202020202,135.35353535353545" fill="none" stroke="rgba(0,0,255,0.75)" stroke-width="14.159999999999995"/></g><g><polyline data-points="-1.5656565656565653,3.989898989898992 -1.4646464646464643,4.090909090909092 -1.363636363636363,4.191919191919193 -1.2626262626262625,4.292929292929293 -1.1616161616161613,4.393939393939394 -1.0606060606060603,4.494949494949497 -1.0606060606060603,4.595959595959597 -1.0606060606060603,4.696969696969697 -1.0606060606060603,4.7979797979797985 -1.0606060606060603,4.898989898989901 -0.9595959595959596,5.000000000000002" data-type="line" data-label="" points="364.2020202020202,135.35353535353545 373.7373737373738,125.81818181818198 383.2727272727273,116.28282828282846 392.80808080808083,106.747474747475 402.34343434343435,97.21212121212153 411.8787878787879,87.67676767676778 411.8787878787879,78.14141414141432 411.8787878787879,68.60606060606085 411.8787878787879,59.07070707070733 411.8787878787879,49.53535353535369 421.4141414141414,40.000000000000114" fill="none" stroke="rgba(255,0,0,0.75)" stroke-width="14.159999999999995"/></g><g><polyline data-points="4.595959595959597,-5.000000000000001 4.494949494949497,-5.000000000000001 4.393939393939394,-5.000000000000001 4.292929292929293,-4.898989898989899 4.292929292929293,-4.7979797979797985 4.292929292929293,-4.696969696969697 4.292929292929293,-4.595959595959596 4.292929292929293,-4.494949494949496 4.292929292929293,-4.393939393939394 4.292929292929293,-4.292929292929293 4.191919191919193,-4.191919191919193 4.090909090909092,-4.090909090909091 3.989898989898992,-3.98989898989899" data-type="line" data-label="" points="945.8585858585857,984 936.3232323232323,984 926.7878787878785,984 917.2525252525251,974.4646464646464 917.2525252525251,964.9292929292928 917.2525252525251,955.3939393939394 917.2525252525251,945.8585858585858 917.2525252525251,936.3232323232323 917.2525252525251,926.7878787878788 917.2525252525251,917.2525252525252 907.7171717171716,907.7171717171718 898.181818181818,898.1818181818181 888.6464646464647,888.6464646464647" fill="none" stroke="rgba(0,0,255,0.75)" stroke-width="14.159999999999995"/></g><g><polyline data-points="3.989898989898992,-3.98989898989899 3.989898989898992,-3.8888888888888884 3.989898989898992,-3.7878787878787876 3.989898989898992,-3.6868686868686864 3.989898989898992,-3.5858585858585856 3.989898989898992,-3.484848484848485 3.989898989898992,-3.383838383838383 3.989898989898992,-3.2828282828282824 3.989898989898992,-3.1818181818181817 3.989898989898992,-3.0808080808080804 3.989898989898992,-2.9797979797979792" data-type="line" data-label="" points="888.6464646464647,888.6464646464647 888.6464646464647,879.1111111111111 888.6464646464647,869.5757575757575 888.6464646464647,860.0404040404039 888.6464646464647,850.5050505050505 888.6464646464647,840.969696969697 888.6464646464647,831.4343434343434 888.6464646464647,821.8989898989898 888.6464646464647,812.3636363636363 888.6464646464647,802.8282828282828 888.6464646464647,793.2929292929292" fill="none" stroke="rgba(255,0,0,0.75)" stroke-width="14.159999999999995"/></g><g><polyline data-points="3.989898989898992,-2.9797979797979792 4.090909090909092,-2.8787878787878785 4.191919191919193,-2.7777777777777777 4.292929292929293,-2.6767676767676765 4.393939393939394,-2.5757575757575752 4.494949494949497,-2.474747474747474 4.494949494949497,-2.3737373737373733 4.494949494949497,-2.2727272727272725 4.494949494949497,-2.1717171717171713 4.494949494949497,-2.07070707070707 4.494949494949497,-1.9696969696969693 4.494949494949497,-1.8686868686868683 4.494949494949497,-1.7676767676767675 4.494949494949497,-1.6666666666666665 4.494949494949497,-1.5656565656565653 4.494949494949497,-1.4646464646464643 4.494949494949497,-1.363636363636363 4.494949494949497,-1.2626262626262625 4.494949494949497,-1.1616161616161613 4.494949494949497,-1.0606060606060603 4.494949494949497,-0.9595959595959596 4.494949494949497,-0.8585858585858579 4.494949494949497,-0.7575757575757572 4.494949494949497,-0.6565656565656557 4.494949494949497,-0.555555555555555 4.494949494949497,-0.4545454545454544 4.494949494949497,-0.35353535353535287 4.494949494949497,-0.2525252525252522 4.494949494949497,-0.15151515151515066 4.494949494949497,-0.05050505050505001 4.494949494949497,0.050505050505051545 4.494949494949497,0.1515151515151522 4.494949494949497,0.2525252525252529 4.494949494949497,0.3535353535353544 4.494949494949497,0.4545454545454551 4.494949494949497,0.5555555555555567 4.494949494949497,0.6565656565656574 4.494949494949497,0.7575757575757579 4.494949494949497,0.8585858585858596 4.494949494949497,0.9595959595959602 4.494949494949497,1.0606060606060617 4.494949494949497,1.1616161616161622 4.494949494949497,1.262626262626263 4.494949494949497,1.3636363636363644 4.494949494949497,1.4646464646464652 4.595959595959597,1.5656565656565666 4.696969696969697,1.6666666666666674 4.7979797979797985,1.767676767676768 4.898989898989901,1.6666666666666674 5.000000000000002,1.5656565656565666" data-type="line" data-label="" points="888.6464646464647,793.2929292929292 898.181818181818,783.7575757575758 907.7171717171716,774.2222222222222 917.2525252525251,764.6868686868687 926.7878787878785,755.1515151515151 936.3232323232323,745.6161616161615 936.3232323232323,736.0808080808081 936.3232323232323,726.5454545454545 936.3232323232323,717.010101010101 936.3232323232323,707.4747474747475 936.3232323232323,697.939393939394 936.3232323232323,688.4040404040404 936.3232323232323,678.8686868686868 936.3232323232323,669.3333333333334 936.3232323232323,659.7979797979798 936.3232323232323,650.2626262626263 936.3232323232323,640.7272727272727 936.3232323232323,631.1919191919193 936.3232323232323,621.6565656565657 936.3232323232323,612.1212121212121 936.3232323232323,602.5858585858587 936.3232323232323,593.0505050505051 936.3232323232323,583.5151515151516 936.3232323232323,573.979797979798 936.3232323232323,564.4444444444445 936.3232323232323,554.909090909091 936.3232323232323,545.3737373737374 936.3232323232323,535.838383838384 936.3232323232323,526.3030303030304 936.3232323232323,516.7676767676768 936.3232323232323,507.23232323232327 936.3232323232323,497.69696969696975 936.3232323232323,488.1616161616163 936.3232323232323,478.6262626262627 936.3232323232323,469.0909090909092 936.3232323232323,459.5555555555556 936.3232323232323,450.0202020202021 936.3232323232323,440.4848484848486 936.3232323232323,430.94949494949503 936.3232323232323,421.4141414141415 936.3232323232323,411.87878787878793 936.3232323232323,402.3434343434344 936.3232323232323,392.80808080808094 936.3232323232323,383.27272727272737 936.3232323232323,373.73737373737384 945.8585858585857,364.2020202020203 955.3939393939393,354.66666666666674 964.9292929292927,345.1313131313133 974.4646464646464,354.66666666666674 984,364.2020202020203" fill="none" stroke="rgba(0,0,255,0.75)" stroke-width="14.159999999999995"/></g><g><polyline data-points="-2.2727272727272725,-5.000000000000001 -2.3737373737373733,-4.898989898989899 -2.474747474747474,-4.7979797979797985 -2.3737373737373733,-4.696969696969697 -2.3737373737373733,-4.595959595959596 -2.3737373737373733,-4.494949494949496 -2.3737373737373733,-4.393939393939394 -2.3737373737373733,-4.292929292929293 -2.3737373737373733,-4.191919191919193 -2.3737373737373733,-4.090909090909091 -2.3737373737373733,-3.98989898989899 -2.2727272727272725,-3.8888888888888884" data-type="line" data-label="" points="297.4545454545455,984 287.91919191919203,974.4646464646464 278.38383838383845,964.9292929292928 287.91919191919203,955.3939393939394 287.91919191919203,945.8585858585858 287.91919191919203,936.3232323232323 287.91919191919203,926.7878787878788 287.91919191919203,917.2525252525252 287.91919191919203,907.7171717171718 287.91919191919203,898.1818181818181 287.91919191919203,888.6464646464647 297.4545454545455,879.1111111111111" fill="none" stroke="rgba(0,0,255,0.75)" stroke-width="14.159999999999995"/></g><g><polyline data-points="-2.2727272727272725,-3.8888888888888884 -2.1717171717171713,-3.7878787878787876 -2.07070707070707,-3.6868686868686864 -1.9696969696969693,-3.5858585858585856 -1.8686868686868683,-3.5858585858585856 -1.7676767676767675,-3.5858585858585856 -1.6666666666666665,-3.5858585858585856 -1.5656565656565653,-3.5858585858585856 -1.4646464646464643,-3.5858585858585856 -1.363636363636363,-3.5858585858585856 -1.2626262626262625,-3.5858585858585856 -1.1616161616161613,-3.484848484848485 -1.0606060606060603,-3.484848484848485 -0.9595959595959596,-3.383838383838383 -0.8585858585858579,-3.2828282828282824 -0.7575757575757572,-3.2828282828282824 -0.6565656565656557,-3.2828282828282824 -0.555555555555555,-3.2828282828282824 -0.4545454545454544,-3.2828282828282824 -0.35353535353535287,-3.2828282828282824 -0.2525252525252522,-3.2828282828282824 -0.15151515151515066,-3.2828282828282824 -0.05050505050505001,-3.2828282828282824 0.050505050505051545,-3.2828282828282824 0.1515151515151522,-3.2828282828282824 0.2525252525252529,-3.2828282828282824 0.3535353535353544,-3.2828282828282824 0.4545454545454551,-3.2828282828282824 0.5555555555555567,-3.2828282828282824 0.6565656565656574,-3.2828282828282824" data-type="line" data-label="" points="297.4545454545455,879.1111111111111 306.9898989898991,869.5757575757575 316.5252525252526,860.0404040404039 326.0606060606061,850.5050505050505 335.59595959595964,850.5050505050505 345.13131313131316,850.5050505050505 354.6666666666667,850.5050505050505 364.2020202020202,850.5050505050505 373.7373737373738,850.5050505050505 383.2727272727273,850.5050505050505 392.80808080808083,850.5050505050505 402.34343434343435,840.969696969697 411.8787878787879,840.969696969697 421.4141414141414,831.4343434343434 430.949494949495,821.8989898989898 440.4848484848485,821.8989898989898 450.0202020202021,821.8989898989898 459.55555555555554,821.8989898989898 469.09090909090907,821.8989898989898 478.62626262626264,821.8989898989898 488.16161616161617,821.8989898989898 497.69696969696975,821.8989898989898 507.2323232323232,821.8989898989898 516.7676767676768,821.8989898989898 526.3030303030303,821.8989898989898 535.8383838383838,821.8989898989898 545.3737373737374,821.8989898989898 554.9090909090909,821.8989898989898 564.4444444444445,821.8989898989898 573.9797979797979,821.8989898989898" fill="none" stroke="rgba(255,0,0,0.75)" stroke-width="14.159999999999995"/></g><g><polyline data-points="0.6565656565656574,-3.2828282828282824 0.7575757575757579,-3.383838383838383 0.8585858585858596,-3.383838383838383 0.9595959595959602,-3.383838383838383 1.0606060606060617,-3.383838383838383 1.1616161616161622,-3.383838383838383 1.262626262626263,-3.383838383838383 1.3636363636363644,-3.383838383838383 1.4646464646464652,-3.383838383838383 1.5656565656565666,-3.383838383838383 1.6666666666666674,-3.383838383838383 1.767676767676768,-3.383838383838383 1.8686868686868696,-3.383838383838383 1.9696969696969702,-3.383838383838383 2.070707070707072,-3.383838383838383 2.1717171717171726,-3.383838383838383 2.2727272727272734,-3.383838383838383 2.373737373737375,-3.383838383838383 2.4747474747474754,-3.383838383838383 2.575757575757577,-3.383838383838383 2.676767676767678,-3.383838383838383 2.7777777777777786,-3.383838383838383 2.87878787878788,-3.383838383838383 2.9797979797979806,-3.383838383838383 3.080808080808082,-3.383838383838383 3.181818181818183,-3.383838383838383 3.2828282828282833,-3.383838383838383 3.383838383838384,-3.383838383838383 3.4848484848484866,-3.383838383838383 3.5858585858585874,-3.383838383838383 3.6868686868686877,-3.383838383838383 3.7878787878787885,-3.383838383838383 3.8888888888888893,-3.383838383838383 3.989898989898992,-3.484848484848485 4.090909090909092,-3.383838383838383 4.191919191919193,-3.383838383838383 4.292929292929293,-3.383838383838383 4.393939393939394,-3.484848484848485 4.494949494949497,-3.5858585858585856 4.595959595959597,-3.6868686868686864 4.696969696969697,-3.7878787878787876 4.7979797979797985,-3.8888888888888884 4.898989898989901,-3.98989898989899 5.000000000000002,-3.8888888888888884" data-type="line" data-label="" points="573.9797979797979,821.8989898989898 583.5151515151515,831.4343434343434 593.0505050505051,831.4343434343434 602.5858585858585,831.4343434343434 612.1212121212121,831.4343434343434 621.6565656565656,831.4343434343434 631.1919191919192,831.4343434343434 640.7272727272727,831.4343434343434 650.2626262626262,831.4343434343434 659.7979797979798,831.4343434343434 669.3333333333333,831.4343434343434 678.8686868686868,831.4343434343434 688.4040404040404,831.4343434343434 697.9393939393939,831.4343434343434 707.4747474747475,831.4343434343434 717.0101010101009,831.4343434343434 726.5454545454545,831.4343434343434 736.0808080808081,831.4343434343434 745.6161616161615,831.4343434343434 755.1515151515151,831.4343434343434 764.6868686868686,831.4343434343434 774.2222222222222,831.4343434343434 783.7575757575758,831.4343434343434 793.2929292929292,831.4343434343434 802.8282828282828,831.4343434343434 812.3636363636363,831.4343434343434 821.8989898989898,831.4343434343434 831.4343434343433,831.4343434343434 840.969696969697,831.4343434343434 850.5050505050505,831.4343434343434 860.0404040404039,831.4343434343434 869.5757575757575,831.4343434343434 879.111111111111,831.4343434343434 888.6464646464647,840.969696969697 898.181818181818,831.4343434343434 907.7171717171716,831.4343434343434 917.2525252525251,831.4343434343434 926.7878787878785,840.969696969697 936.3232323232323,850.5050505050505 945.8585858585857,860.0404040404039 955.3939393939393,869.5757575757575 964.9292929292927,879.1111111111111 974.4646464646464,888.6464646464647 984,879.1111111111111" fill="none" stroke="rgba(0,0,255,0.75)" stroke-width="14.159999999999995"/></g><g><rect data-type="rect" data-label="" data-x="0" data-y="0" x="40.000000000000114" y="40.000000000000284" width="943.9999999999997" height="943.9999999999998" fill="none" stroke="gray" stroke-width="0.010593220338983056"/></g><g><rect data-type="rect" data-label="" data-x="0" data-y="0" x="40.000000000000114" y="40.000000000000284" width="943.9999999999997" height="943.9999999999998" fill="none" stroke="rgba(15, 23, 42, 0.8)" stroke-width="0.010593220338983056"/></g><circle data-type="circle" data-label="" data-x="2.070707070707072" data-y="-1.4646464646464643" cx="707.4747474747475" cy="650.2626262626263" r="28.791999999999987" fill="rgba(0,0,0,0.3)" stroke="black" stroke-width="0.010593220338983056"/><circle data-type="circle" data-label="" data-x="0.8585858585858596" data-y="2.373737373737375" cx="593.0505050505051" cy="287.91919191919203" r="28.791999999999987" fill="rgba(0,0,0,0.3)" stroke="black" stroke-width="0.010593220338983056"/><circle data-type="circle" data-label="" data-x="-0.35353535353535287" data-y="3.989898989898992" cx="478.62626262626264" cy="135.35353535353545" r="28.791999999999987" fill="rgba(0,0,0,0.3)" stroke="black" stroke-width="0.010593220338983056"/><circle data-type="circle" data-label="" data-x="-3.0808080808080804" data-y="-2.07070707070707" cx="221.17171717171726" cy="707.4747474747475" r="28.791999999999987" fill="rgba(0,0,0,0.3)" stroke="black" stroke-width="0.010593220338983056"/><circle data-type="circle" data-label="" data-x="3.989898989898992" data-y="-0.2525252525252522" cx="888.6464646464647" cy="535.838383838384" r="28.791999999999987" fill="rgba(0,0,0,0.3)" stroke="black" stroke-width="0.010593220338983056"/><circle data-type="circle" data-label="" data-x="-1.5656565656565653" data-y="3.989898989898992" cx="364.2020202020202" cy="135.35353535353545" r="28.791999999999987" fill="rgba(0,0,0,0.3)" stroke="black" stroke-width="0.010593220338983056"/><circle data-type="circle" data-label="" data-x="3.989898989898992" data-y="-3.98989898989899" cx="888.6464646464647" cy="888.6464646464647" r="28.791999999999987" fill="rgba(0,0,0,0.3)" stroke="black" stroke-width="0.010593220338983056"/><circle data-type="circle" data-label="" data-x="3.989898989898992" data-y="-2.9797979797979792" cx="888.6464646464647" cy="793.2929292929292" r="28.791999999999987" fill="rgba(0,0,0,0.3)" stroke="black" stroke-width="0.010593220338983056"/><circle data-type="circle" data-label="" data-x="-2.2727272727272725" data-y="-3.8888888888888884" cx="297.4545454545455" cy="879.1111111111111" r="28.791999999999987" fill="rgba(0,0,0,0.3)" stroke="black" stroke-width="0.010593220338983056"/><circle data-type="circle" data-label="" data-x="0.6565656565656574" data-y="-3.2828282828282824" cx="573.9797979797979" cy="821.8989898989898" r="28.791999999999987" fill="rgba(0,0,0,0.3)" stroke="black" stroke-width="0.010593220338983056"/><g id="crosshair" style="display: none"><line id="crosshair-h" y1="0" y2="1024" stroke="#666" stroke-width="0.5"/><line id="crosshair-v" x1="0" x2="1024" stroke="#666" stroke-width="0.5"/><text id="coordinates" font-family="monospace" font-size="12" fill="#666"></text></g><script><![CDATA[
              document.currentScript.parentElement.addEventListener('mousemove', (e) => {
                const svg = e.currentTarget;
                const rect = svg.getBoundingClientRect();
                const x = e.clientX - rect.left;
                const y = e.clientY - rect.top;
                const crosshair = svg.getElementById('crosshair');
                const h = svg.getElementById('crosshair-h');
                const v = svg.getElementById('crosshair-v');
                const coords = svg.getElementById('coordinates');
                
                crosshair.style.display = 'block';
                h.setAttribute('x1', '0');
                h.setAttribute('x2', '1024');
                h.setAttribute('y1', y);
                h.setAttribute('y2', y);
                v.setAttribute('x1', x);
                v.setAttribute('x2', x);
                v.setAttribute('y1', '0');
                v.setAttribute('y2', '1024');

                // Calculate real coordinates using inverse transformation
                const matrix = {"a":94.39999999999996,"c":0,"e":511.99999999999994,"b":0,"d":-94.39999999999996,"f":512.0000000000001};
                // Manually invert and apply the affine transform
                // Since we only use translate and scale, we can directly compute:
                // x' = (x - tx) / sx
                // y' = (y - ty) / sy
                const sx = matrix.a;
                const sy = matrix.d;
                const tx = matrix.e; 
                const ty = matrix.f;
                const realPoint = {
                  x: (x - tx) / sx,
                  y: (y - ty) / sy // Flip y back since we used negative scale
                }
                
                coords.textContent = `(${realPoint.x.toFixed(2)}, ${realPoint.y.toFixed(2)})`;
                coords.setAttribute('x', (x + 5).toString());
                coords.setAttribute('y', (y - 5).toString());
              });
              document.currentScript.parentElement.addEventListener('mouseleave', () => {
                document.currentScript.parentElement.getElementById('crosshair').style.display = 'none';
              });
            ]]></script></svg>