<svg width="1024" height="1024" viewBox="0 0 1024 1024" xmlns="http://www.w3.org/2000/svg"><rect width="100%" height="100%" fill="white"/><g><circle data-type="point" data-label="conn_000" data-x="5" data-y="0.76" cx="983.9999999999998" cy="440.25600000000014" r="28.792" fill="blue" stroke="#3bbd0f" stroke-width="28.792"/></g><g><circle data-type="point" data-label="conn_000" data-x="-5" data-y="-4.84" cx="40.000000000000114" cy="968.896" r="28.792" fill="red" stroke="#3bbd0f" stroke-width="28.792"/></g><g><circle data-type="point" data-label="conn_001" data-x="0.14" data-y="-5" cx="525.2159999999999" cy="984" r="28.792" fill="blue" stroke="#170fbd" stroke-width="28.792"/></g><g><circle data-type="point" data-label="conn_001" data-x="1.1400000000000001" data-y="5" cx="619.6159999999999" cy="40.000000000000284" r="28.792" fill="blue" stroke="#170fbd" stroke-width="28.792"/></g><g><circle data-type="point" data-label="conn_002" data-x="2.2" data-y="-5" cx="719.6799999999998" cy="984" r="28.792" fill="blue" stroke="#bd490f" stroke-width="28.792"/></g><g><circle data-type="point" data-label="conn_002" data-x="4.14" data-y="5" cx="902.8159999999998" cy="40.000000000000284" r="28.792" fill="red" stroke="#bd490f" stroke-width="28.792"/></g><g><circle data-type="point" data-label="conn_003" data-x="0.12" data-y="5" cx="523.328" cy="40.000000000000284" r="28.792" fill="blue" stroke="#0fbd7c" stroke-width="28.792"/></g><g><circle data-type="point" data-label="conn_003" data-x="-5" data-y="0.58" cx="40.000000000000114" cy="457.24800000000016" r="28.792" fill="blue" stroke="#0fbd7c" stroke-width="28.792"/></g><g><circle data-type="point" data-label="conn_004" data-x="-5" data-y="-1.48" cx="40.000000000000114" cy="651.712" r="28.792" fill="red" stroke="#ae0fbd" stroke-width="28.792"/></g><g><circle data-type="point" data-label="conn_004" data-x="3.48" data-y="-5" cx="840.5119999999998" cy="984" r="28.792" fill="blue" stroke="#ae0fbd" stroke-width="28.792"/></g><g><circle data-type="point" data-label="conn_005" data-x="-5" data-y="3.62" cx="40.000000000000114" cy="170.27200000000022" r="28.792" fill="red" stroke="#98bd0f" stroke-width="28.792"/></g><g><circle data-type="point" data-label="conn_005" data-x="-5" data-y="-2.7800000000000002" cx="40.000000000000114" cy="774.432" r="28.792" fill="red" stroke="#98bd0f" stroke-width="28.792"/></g><g><circle data-type="point" data-label="conn_006" data-x="-4.0600000000000005" data-y="5" cx="128.73600000000005" cy="40.000000000000284" r="28.792" fill="blue" stroke="#0f66bd" stroke-width="28.792"/></g><g><circle data-type="point" data-label="conn_006" data-x="5" data-y="-4.78" cx="983.9999999999998" cy="963.232" r="28.792" fill="red" stroke="#0f66bd" stroke-width="28.792"/></g><g><circle data-type="point" data-label="conn_007" data-x="5" data-y="-2.44" cx="983.9999999999998" cy="742.336" r="28.792" fill="blue" stroke="#bd0f33" stroke-width="28.792"/></g><g><circle data-type="point" data-label="conn_007" data-x="-0.7000000000000001" data-y="5" cx="445.91999999999996" cy="40.000000000000284" r="28.792" fill="red" stroke="#bd0f33" stroke-width="28.792"/></g><g><circle data-type="point" data-label="conn_008" data-x="-1.96" data-y="-5" cx="326.976" cy="984" r="28.792" fill="red" stroke="#0fbd1e" stroke-width="28.792"/></g><g><circle data-type="point" data-label="conn_008" data-x="5" data-y="1.4000000000000001" cx="983.9999999999998" cy="379.84000000000015" r="28.792" fill="blue" stroke="#0fbd1e" stroke-width="28.792"/></g><g><polyline data-points="-4.090909090909091,5.000000000000002 -3.98989898989899,4.898989898989901 -3.8888888888888884,4.7979797979797985 -3.7878787878787876,4.696969696969697 -3.6868686868686864,4.595959595959597 -3.5858585858585856,4.494949494949497 -3.484848484848485,4.393939393939394 -3.383838383838383,4.292929292929293 -3.2828282828282824,4.191919191919193 -3.1818181818181817,4.090909090909092 -3.0808080808080804,3.989898989898992 -2.9797979797979792,3.8888888888888893 -2.8787878787878785,3.7878787878787885 -2.7777777777777777,3.6868686868686877 -2.6767676767676765,3.5858585858585874 -2.5757575757575752,3.4848484848484866 -2.474747474747474,3.383838383838384 -2.3737373737373733,3.2828282828282833 -2.2727272727272725,3.181818181818183 -2.1717171717171713,3.080808080808082 -2.07070707070707,2.9797979797979806 -1.9696969696969693,2.87878787878788 -1.8686868686868683,2.7777777777777786 -1.7676767676767675,2.676767676767678 -1.6666666666666665,2.575757575757577 -1.5656565656565653,2.4747474747474754 -1.4646464646464643,2.373737373737375 -1.363636363636363,2.2727272727272734 -1.2626262626262625,2.1717171717171726 -1.1616161616161613,2.070707070707072 -1.0606060606060603,1.9696969696969702 -0.9595959595959596,1.8686868686868696 -0.8585858585858579,1.767676767676768 -0.7575757575757572,1.6666666666666674 -0.6565656565656557,1.5656565656565666 -0.555555555555555,1.4646464646464652 -0.4545454545454544,1.3636363636363644 -0.35353535353535287,1.262626262626263 -0.2525252525252522,1.1616161616161622 -0.15151515151515066,1.0606060606060617 -0.05050505050505001,0.9595959595959602 0.050505050505051545,0.8585858585858596 0.1515151515151522,0.7575757575757579 0.2525252525252529,0.6565656565656574 0.3535353535353544,0.5555555555555567 0.4545454545454551,0.4545454545454551 0.5555555555555567,0.3535353535353544 0.6565656565656574,0.2525252525252529 0.7575757575757579,0.1515151515151522 0.8585858585858596,0.050505050505051545 0.9595959595959602,-0.05050505050505001 1.0606060606060617,-0.15151515151515066 1.1616161616161622,-0.2525252525252522 1.262626262626263,-0.35353535353535287 1.3636363636363644,-0.4545454545454544 1.4646464646464652,-0.555555555555555 1.5656565656565666,-0.6565656565656557 1.6666666666666674,-0.7575757575757572 1.767676767676768,-0.8585858585858579 1.8686868686868696,-0.9595959595959596 1.9696969696969702,-1.0606060606060603 2.070707070707072,-1.1616161616161613 2.1717171717171726,-1.2626262626262625 2.2727272727272734,-1.363636363636363 2.373737373737375,-1.4646464646464643 2.4747474747474754,-1.5656565656565653 2.575757575757577,-1.6666666666666665 2.676767676767678,-1.7676767676767675 2.7777777777777786,-1.8686868686868683 2.87878787878788,-1.9696969696969693 2.9797979797979806,-2.07070707070707 3.080808080808082,-2.1717171717171713 3.181818181818183,-2.2727272727272725 3.2828282828282833,-2.3737373737373733 3.383838383838384,-2.474747474747474 3.4848484848484866,-2.5757575757575752 3.5858585858585874,-2.6767676767676765 3.6868686868686877,-2.7777777777777777 3.7878787878787885,-2.8787878787878785 3.8888888888888893,-2.9797979797979792 3.989898989898992,-3.0808080808080804 3.989898989898992,-3.1818181818181817 3.989898989898992,-3.2828282828282824 3.989898989898992,-3.383838383838383 3.989898989898992,-3.484848484848485 3.989898989898992,-3.5858585858585856" data-type="line" data-label="" points="125.81818181818193,40.000000000000114 135.35353535353545,49.53535353535369 144.88888888888903,59.07070707070733 154.42424242424255,68.60606060606085 163.95959595959607,78.14141414141432 173.4949494949496,87.67676767676778 183.03030303030312,97.21212121212153 192.5656565656567,106.747474747475 202.10101010101022,116.28282828282846 211.63636363636374,125.81818181818198 221.17171717171726,135.35353535353545 230.70707070707084,144.88888888888908 240.2424242424243,154.4242424242426 249.77777777777783,163.95959595959613 259.3131313131314,173.4949494949496 268.84848484848493,183.03030303030312 278.38383838383845,192.56565656565675 287.91919191919203,202.10101010101027 297.4545454545455,211.63636363636374 306.9898989898991,221.17171717171726 316.5252525252526,230.70707070707084 326.0606060606061,240.24242424242436 335.59595959595964,249.77777777777794 345.13131313131316,259.3131313131314 354.6666666666667,268.84848484848493 364.2020202020202,278.38383838383857 373.7373737373738,287.91919191919203 383.2727272727273,297.4545454545456 392.80808080808083,306.9898989898991 402.34343434343435,316.5252525252526 411.8787878787879,326.06060606060623 421.4141414141414,335.5959595959597 430.949494949495,345.1313131313133 440.4848484848485,354.66666666666674 450.0202020202021,364.2020202020203 459.55555555555554,373.73737373737384 469.09090909090907,383.27272727272737 478.62626262626264,392.80808080808094 488.16161616161617,402.3434343434344 497.69696969696975,411.87878787878793 507.2323232323232,421.4141414141415 516.7676767676768,430.94949494949503 526.3030303030303,440.4848484848486 535.8383838383838,450.0202020202021 545.3737373737374,459.5555555555556 554.9090909090909,469.0909090909092 564.4444444444445,478.6262626262627 573.9797979797979,488.1616161616163 583.5151515151515,497.69696969696975 593.0505050505051,507.23232323232327 602.5858585858585,516.7676767676768 612.1212121212121,526.3030303030304 621.6565656565656,535.838383838384 631.1919191919192,545.3737373737374 640.7272727272727,554.909090909091 650.2626262626262,564.4444444444445 659.7979797979798,573.979797979798 669.3333333333333,583.5151515151516 678.8686868686868,593.0505050505051 688.4040404040404,602.5858585858587 697.9393939393939,612.1212121212121 707.4747474747475,621.6565656565657 717.0101010101009,631.1919191919193 726.5454545454545,640.7272727272727 736.0808080808081,650.2626262626263 745.6161616161615,659.7979797979798 755.1515151515151,669.3333333333334 764.6868686868686,678.8686868686868 774.2222222222222,688.4040404040404 783.7575757575758,697.939393939394 793.2929292929292,707.4747474747475 802.8282828282828,717.010101010101 812.3636363636363,726.5454545454545 821.8989898989898,736.0808080808081 831.4343434343433,745.6161616161615 840.969696969697,755.1515151515151 850.5050505050505,764.6868686868687 860.0404040404039,774.2222222222222 869.5757575757575,783.7575757575758 879.111111111111,793.2929292929292 888.6464646464647,802.8282828282828 888.6464646464647,812.3636363636363 888.6464646464647,821.8989898989898 888.6464646464647,831.4343434343434 888.6464646464647,840.969696969697 888.6464646464647,850.5050505050505" fill="none" stroke="rgba(0,0,255,0.75)" stroke-width="14.159999999999995"/></g><g><polyline data-points="3.989898989898992,-3.5858585858585856 4.090909090909092,-3.6868686868686864 4.191919191919193,-3.7878787878787876 4.292929292929293,-3.8888888888888884 4.393939393939394,-3.98989898989899 4.494949494949497,-4.090909090909091 4.595959595959597,-4.191919191919193 4.696969696969697,-4.292929292929293 4.7979797979797985,-4.393939393939394 4.898989898989901,-4.494949494949496 5.000000000000002,-4.595959595959596 5.000000000000002,-4.696969696969697 5.000000000000002,-4.7979797979797985" data-type="line" data-label="" points="888.6464646464647,850.5050505050505 898.181818181818,860.0404040404039 907.7171717171716,869.5757575757575 917.2525252525251,879.1111111111111 926.7878787878785,888.6464646464647 936.3232323232323,898.1818181818181 945.8585858585857,907.7171717171718 955.3939393939393,917.2525252525252 964.9292929292927,926.7878787878788 974.4646464646464,936.3232323232323 984,945.8585858585858 984,955.3939393939394 984,964.9292929292928" fill="none" stroke="rgba(255,0,0,0.75)" stroke-width="14.159999999999995"/></g><g><polyline data-points="0.1515151515151522,5.000000000000002 0.050505050505051545,4.898989898989901 -0.05050505050505001,4.7979797979797985 -0.15151515151515066,4.696969696969697 -0.2525252525252522,4.595959595959597 -0.35353535353535287,4.494949494949497 -0.4545454545454544,4.393939393939394 -0.555555555555555,4.292929292929293 -0.6565656565656557,4.191919191919193 -0.7575757575757572,4.090909090909092 -0.8585858585858579,3.989898989898992 -0.9595959595959596,3.8888888888888893 -1.0606060606060603,3.7878787878787885 -1.1616161616161613,3.6868686868686877 -1.2626262626262625,3.5858585858585874 -1.363636363636363,3.4848484848484866 -1.4646464646464643,3.383838383838384 -1.5656565656565653,3.2828282828282833" data-type="line" data-label="" points="526.3030303030303,40.000000000000114 516.7676767676768,49.53535353535369 507.2323232323232,59.07070707070733 497.69696969696975,68.60606060606085 488.16161616161617,78.14141414141432 478.62626262626264,87.67676767676778 469.09090909090907,97.21212121212153 459.55555555555554,106.747474747475 450.0202020202021,116.28282828282846 440.4848484848485,125.81818181818198 430.949494949495,135.35353535353545 421.4141414141414,144.88888888888908 411.8787878787879,154.4242424242426 402.34343434343435,163.95959595959613 392.80808080808083,173.4949494949496 383.2727272727273,183.03030303030312 373.7373737373738,192.56565656565675 364.2020202020202,202.10101010101027" fill="none" stroke="rgba(0,0,255,0.75)" stroke-width="14.159999999999995"/></g><g><polyline data-points="-1.5656565656565653,3.2828282828282833 -1.6666666666666665,3.181818181818183 -1.7676767676767675,3.080808080808082 -1.8686868686868683,2.9797979797979806 -1.9696969696969693,2.87878787878788 -2.07070707070707,2.7777777777777786 -2.1717171717171713,2.676767676767678 -2.2727272727272725,2.575757575757577 -2.3737373737373733,2.4747474747474754 -2.474747474747474,2.373737373737375 -2.5757575757575752,2.2727272727272734 -2.6767676767676765,2.1717171717171726 -2.7777777777777777,2.070707070707072 -2.8787878787878785,1.9696969696969702 -2.9797979797979792,1.8686868686868696 -3.0808080808080804,1.767676767676768 -3.1818181818181817,1.6666666666666674 -3.2828282828282824,1.5656565656565666 -3.383838383838383,1.4646464646464652 -3.484848484848485,1.3636363636363644 -3.5858585858585856,1.262626262626263 -3.6868686868686864,1.1616161616161622 -3.7878787878787876,1.0606060606060617 -3.8888888888888884,0.9595959595959602 -3.98989898989899,0.8585858585858596 -3.98989898989899,0.7575757575757579 -3.98989898989899,0.6565656565656574 -3.98989898989899,0.5555555555555567" data-type="line" data-label="" points="364.2020202020202,202.10101010101027 354.6666666666667,211.63636363636374 345.13131313131316,221.17171717171726 335.59595959595964,230.70707070707084 326.0606060606061,240.24242424242436 316.5252525252526,249.77777777777794 306.9898989898991,259.3131313131314 297.4545454545455,268.84848484848493 287.91919191919203,278.38383838383857 278.38383838383845,287.91919191919203 268.84848484848493,297.4545454545456 259.3131313131314,306.9898989898991 249.77777777777783,316.5252525252526 240.2424242424243,326.06060606060623 230.70707070707084,335.5959595959597 221.17171717171726,345.1313131313133 211.63636363636374,354.66666666666674 202.10101010101022,364.2020202020203 192.5656565656567,373.73737373737384 183.03030303030312,383.27272727272737 173.4949494949496,392.80808080808094 163.95959595959607,402.3434343434344 154.42424242424255,411.87878787878793 144.88888888888903,421.4141414141415 135.35353535353545,430.94949494949503 135.35353535353545,440.4848484848486 135.35353535353545,450.0202020202021 135.35353535353545,459.5555555555556" fill="none" stroke="rgba(255,0,0,0.75)" stroke-width="14.159999999999995"/></g><g><polyline data-points="-3.98989898989899,0.5555555555555567 -4.090909090909091,0.5555555555555567 -4.191919191919193,0.5555555555555567 -4.292929292929293,0.5555555555555567 -4.393939393939394,0.5555555555555567 -4.494949494949496,0.5555555555555567 -4.595959595959596,0.5555555555555567 -4.696969696969697,0.5555555555555567 -4.7979797979797985,0.5555555555555567 -4.898989898989899,0.5555555555555567 -5.000000000000001,0.5555555555555567" data-type="line" data-label="" points="135.35353535353545,459.5555555555556 125.81818181818193,459.5555555555556 116.28282828282829,459.5555555555556 106.74747474747483,459.5555555555556 97.21212121212136,459.5555555555556 87.67676767676772,459.5555555555556 78.14141414141426,459.5555555555556 68.60606060606068,459.5555555555556 59.07070707070716,459.5555555555556 49.53535353535369,459.5555555555556 40.00000000000006,459.5555555555556" fill="none" stroke="rgba(0,0,255,0.75)" stroke-width="14.159999999999995"/></g><g><polyline data-points="-1.9696969696969693,-5.000000000000001 -1.8686868686868683,-4.898989898989899 -1.7676767676767675,-4.7979797979797985 -1.6666666666666665,-4.696969696969697 -1.5656565656565653,-4.595959595959596 -1.4646464646464643,-4.494949494949496 -1.363636363636363,-4.393939393939394 -1.2626262626262625,-4.292929292929293 -1.1616161616161613,-4.191919191919193 -1.0606060606060603,-4.090909090909091 -0.9595959595959596,-3.98989898989899 -0.8585858585858579,-3.8888888888888884 -0.7575757575757572,-3.7878787878787876 -0.6565656565656557,-3.6868686868686864 -0.555555555555555,-3.5858585858585856 -0.4545454545454544,-3.484848484848485 -0.35353535353535287,-3.383838383838383 -0.2525252525252522,-3.2828282828282824 -0.15151515151515066,-3.1818181818181817 -0.05050505050505001,-3.0808080808080804 0.050505050505051545,-2.9797979797979792 0.1515151515151522,-2.8787878787878785 0.2525252525252529,-2.7777777777777777 0.3535353535353544,-2.6767676767676765 0.4545454545454551,-2.5757575757575752 0.5555555555555567,-2.474747474747474 0.6565656565656574,-2.3737373737373733 0.7575757575757579,-2.2727272727272725 0.8585858585858596,-2.1717171717171713 0.9595959595959602,-2.07070707070707 1.0606060606060617,-1.9696969696969693 1.1616161616161622,-1.8686868686868683 1.262626262626263,-1.7676767676767675 1.3636363636363644,-1.6666666666666665 1.4646464646464652,-1.5656565656565653 1.5656565656565666,-1.4646464646464643 1.6666666666666674,-1.363636363636363 1.767676767676768,-1.2626262626262625 1.8686868686868696,-1.1616161616161613 1.9696969696969702,-1.0606060606060603 2.070707070707072,-0.9595959595959596 2.1717171717171726,-0.8585858585858579 2.2727272727272734,-0.7575757575757572 2.373737373737375,-0.6565656565656557 2.4747474747474754,-0.555555555555555 2.575757575757577,-0.4545454545454544 2.676767676767678,-0.35353535353535287 2.7777777777777786,-0.2525252525252522 2.87878787878788,-0.15151515151515066 2.9797979797979806,-0.05050505050505001 3.080808080808082,0.050505050505051545 3.181818181818183,0.1515151515151522 3.2828282828282833,0.2525252525252529 3.383838383838384,0.3535353535353544 3.4848484848484866,0.4545454545454551 3.5858585858585874,0.5555555555555567 3.6868686868686877,0.6565656565656574 3.7878787878787885,0.7575757575757579 3.8888888888888893,0.8585858585858596 3.989898989898992,0.9595959595959602 3.989898989898992,1.0606060606060617 3.989898989898992,1.1616161616161622 3.989898989898992,1.262626262626263" data-type="line" data-label="" points="326.0606060606061,984 335.59595959595964,974.4646464646464 345.13131313131316,964.9292929292928 354.6666666666667,955.3939393939394 364.2020202020202,945.8585858585858 373.7373737373738,936.3232323232323 383.2727272727273,926.7878787878788 392.80808080808083,917.2525252525252 402.34343434343435,907.7171717171718 411.8787878787879,898.1818181818181 421.4141414141414,888.6464646464647 430.949494949495,879.1111111111111 440.4848484848485,869.5757575757575 450.0202020202021,860.0404040404039 459.55555555555554,850.5050505050505 469.09090909090907,840.969696969697 478.62626262626264,831.4343434343434 488.16161616161617,821.8989898989898 497.69696969696975,812.3636363636363 507.2323232323232,802.8282828282828 516.7676767676768,793.2929292929292 526.3030303030303,783.7575757575758 535.8383838383838,774.2222222222222 545.3737373737374,764.6868686868687 554.9090909090909,755.1515151515151 564.4444444444445,745.6161616161615 573.9797979797979,736.0808080808081 583.5151515151515,726.5454545454545 593.0505050505051,717.010101010101 602.5858585858585,707.4747474747475 612.1212121212121,697.939393939394 621.6565656565656,688.4040404040404 631.1919191919192,678.8686868686868 640.7272727272727,669.3333333333334 650.2626262626262,659.7979797979798 659.7979797979798,650.2626262626263 669.3333333333333,640.7272727272727 678.8686868686868,631.1919191919193 688.4040404040404,621.6565656565657 697.9393939393939,612.1212121212121 707.4747474747475,602.5858585858587 717.0101010101009,593.0505050505051 726.5454545454545,583.5151515151516 736.0808080808081,573.979797979798 745.6161616161615,564.4444444444445 755.1515151515151,554.909090909091 764.6868686868686,545.3737373737374 774.2222222222222,535.838383838384 783.7575757575758,526.3030303030304 793.2929292929292,516.7676767676768 802.8282828282828,507.23232323232327 812.3636363636363,497.69696969696975 821.8989898989898,488.1616161616163 831.4343434343433,478.6262626262627 840.969696969697,469.0909090909092 850.5050505050505,459.5555555555556 860.0404040404039,450.0202020202021 869.5757575757575,440.4848484848486 879.111111111111,430.94949494949503 888.6464646464647,421.4141414141415 888.6464646464647,411.87878787878793 888.6464646464647,402.3434343434344 888.6464646464647,392.80808080808094" fill="none" stroke="rgba(255,0,0,0.75)" stroke-width="14.159999999999995"/></g><g><polyline data-points="3.989898989898992,1.262626262626263 4.090909090909092,1.3636363636363644 4.191919191919193,1.4646464646464652 4.292929292929293,1.4646464646464652 4.393939393939394,1.4646464646464652 4.494949494949497,1.4646464646464652 4.595959595959597,1.4646464646464652 4.696969696969697,1.4646464646464652 4.7979797979797985,1.4646464646464652 4.898989898989901,1.4646464646464652 5.000000000000002,1.4646464646464652" data-type="line" data-label="" points="888.6464646464647,392.80808080808094 898.181818181818,383.27272727272737 907.7171717171716,373.73737373737384 917.2525252525251,373.73737373737384 926.7878787878785,373.73737373737384 936.3232323232323,373.73737373737384 945.8585858585857,373.73737373737384 955.3939393939393,373.73737373737384 964.9292929292927,373.73737373737384 974.4646464646464,373.73737373737384 984,373.73737373737384" fill="none" stroke="rgba(0,0,255,0.75)" stroke-width="14.159999999999995"/></g><g><polyline data-points="0.1515151515151522,-5.000000000000001 0.2525252525252529,-4.898989898989899 0.3535353535353544,-4.7979797979797985 0.4545454545454551,-4.696969696969697 0.5555555555555567,-4.595959595959596 0.6565656565656574,-4.494949494949496 0.7575757575757579,-4.393939393939394 0.8585858585858596,-4.292929292929293 0.9595959595959602,-4.191919191919193 1.0606060606060617,-4.090909090909091 1.1616161616161622,-3.98989898989899 1.1616161616161622,-3.8888888888888884 1.1616161616161622,-3.7878787878787876 1.1616161616161622,-3.6868686868686864 1.1616161616161622,-3.5858585858585856 1.1616161616161622,-3.484848484848485 1.1616161616161622,-3.383838383838383 1.1616161616161622,-3.2828282828282824 1.1616161616161622,-3.1818181818181817 1.1616161616161622,-3.0808080808080804 1.1616161616161622,-2.9797979797979792 1.1616161616161622,-2.8787878787878785 1.1616161616161622,-2.7777777777777777 1.1616161616161622,-2.6767676767676765 1.1616161616161622,-2.5757575757575752 1.1616161616161622,-2.474747474747474 1.1616161616161622,-2.3737373737373733 1.1616161616161622,-2.2727272727272725 1.1616161616161622,-2.1717171717171713 1.1616161616161622,-2.07070707070707 1.1616161616161622,-1.9696969696969693 1.1616161616161622,-1.8686868686868683 1.1616161616161622,-1.7676767676767675 1.1616161616161622,-1.6666666666666665 1.1616161616161622,-1.5656565656565653 1.1616161616161622,-1.4646464646464643 1.1616161616161622,-1.363636363636363 1.1616161616161622,-1.2626262626262625 1.1616161616161622,-1.1616161616161613 1.1616161616161622,-1.0606060606060603" data-type="line" data-label="" points="526.3030303030303,984 535.8383838383838,974.4646464646464 545.3737373737374,964.9292929292928 554.9090909090909,955.3939393939394 564.4444444444445,945.8585858585858 573.9797979797979,936.3232323232323 583.5151515151515,926.7878787878788 593.0505050505051,917.2525252525252 602.5858585858585,907.7171717171718 612.1212121212121,898.1818181818181 621.6565656565656,888.6464646464647 621.6565656565656,879.1111111111111 621.6565656565656,869.5757575757575 621.6565656565656,860.0404040404039 621.6565656565656,850.5050505050505 621.6565656565656,840.969696969697 621.6565656565656,831.4343434343434 621.6565656565656,821.8989898989898 621.6565656565656,812.3636363636363 621.6565656565656,802.8282828282828 621.6565656565656,793.2929292929292 621.6565656565656,783.7575757575758 621.6565656565656,774.2222222222222 621.6565656565656,764.6868686868687 621.6565656565656,755.1515151515151 621.6565656565656,745.6161616161615 621.6565656565656,736.0808080808081 621.6565656565656,726.5454545454545 621.6565656565656,717.010101010101 621.6565656565656,707.4747474747475 621.6565656565656,697.939393939394 621.6565656565656,688.4040404040404 621.6565656565656,678.8686868686868 621.6565656565656,669.3333333333334 621.6565656565656,659.7979797979798 621.6565656565656,650.2626262626263 621.6565656565656,640.7272727272727 621.6565656565656,631.1919191919193 621.6565656565656,621.6565656565657 621.6565656565656,612.1212121212121" fill="none" stroke="rgba(0,0,255,0.75)" stroke-width="14.159999999999995"/></g><g><polyline data-points="1.1616161616161622,-1.0606060606060603 1.1616161616161622,-0.9595959595959596 1.1616161616161622,-0.8585858585858579 1.1616161616161622,-0.7575757575757572 1.1616161616161622,-0.6565656565656557 1.1616161616161622,-0.555555555555555 1.1616161616161622,-0.4545454545454544 1.1616161616161622,-0.35353535353535287 1.1616161616161622,-0.2525252525252522 1.1616161616161622,-0.15151515151515066 1.1616161616161622,-0.05050505050505001 1.1616161616161622,0.050505050505051545 1.1616161616161622,0.1515151515151522 1.1616161616161622,0.2525252525252529 1.1616161616161622,0.3535353535353544 1.1616161616161622,0.4545454545454551 1.1616161616161622,0.5555555555555567 1.1616161616161622,0.6565656565656574 1.1616161616161622,0.7575757575757579 1.1616161616161622,0.8585858585858596 1.1616161616161622,0.9595959595959602 1.1616161616161622,1.0606060606060617 1.1616161616161622,1.1616161616161622 1.1616161616161622,1.262626262626263 1.1616161616161622,1.3636363636363644 1.1616161616161622,1.4646464646464652 1.1616161616161622,1.5656565656565666 1.1616161616161622,1.6666666666666674 1.1616161616161622,1.767676767676768 1.1616161616161622,1.8686868686868696 1.1616161616161622,1.9696969696969702 1.1616161616161622,2.070707070707072 1.1616161616161622,2.1717171717171726 1.1616161616161622,2.2727272727272734 1.1616161616161622,2.373737373737375 1.1616161616161622,2.4747474747474754 1.1616161616161622,2.575757575757577 1.1616161616161622,2.676767676767678 1.1616161616161622,2.7777777777777786 1.1616161616161622,2.87878787878788 1.1616161616161622,2.9797979797979806 1.1616161616161622,3.080808080808082 1.1616161616161622,3.181818181818183 1.1616161616161622,3.2828282828282833 1.1616161616161622,3.383838383838384 1.1616161616161622,3.4848484848484866 1.1616161616161622,3.5858585858585874 1.1616161616161622,3.6868686868686877 1.1616161616161622,3.7878787878787885 1.1616161616161622,3.8888888888888893 1.1616161616161622,3.989898989898992" data-type="line" data-label="" points="621.6565656565656,612.1212121212121 621.6565656565656,602.5858585858587 621.6565656565656,593.0505050505051 621.6565656565656,583.5151515151516 621.6565656565656,573.979797979798 621.6565656565656,564.4444444444445 621.6565656565656,554.909090909091 621.6565656565656,545.3737373737374 621.6565656565656,535.838383838384 621.6565656565656,526.3030303030304 621.6565656565656,516.7676767676768 621.6565656565656,507.23232323232327 621.6565656565656,497.69696969696975 621.6565656565656,488.1616161616163 621.6565656565656,478.6262626262627 621.6565656565656,469.0909090909092 621.6565656565656,459.5555555555556 621.6565656565656,450.0202020202021 621.6565656565656,440.4848484848486 621.6565656565656,430.94949494949503 621.6565656565656,421.4141414141415 621.6565656565656,411.87878787878793 621.6565656565656,402.3434343434344 621.6565656565656,392.80808080808094 621.6565656565656,383.27272727272737 621.6565656565656,373.73737373737384 621.6565656565656,364.2020202020203 621.6565656565656,354.66666666666674 621.6565656565656,345.1313131313133 621.6565656565656,335.5959595959597 621.6565656565656,326.06060606060623 621.6565656565656,316.5252525252526 621.6565656565656,306.9898989898991 621.6565656565656,297.4545454545456 621.6565656565656,287.91919191919203 621.6565656565656,278.38383838383857 621.6565656565656,268.84848484848493 621.6565656565656,259.3131313131314 621.6565656565656,249.77777777777794 621.6565656565656,240.24242424242436 621.6565656565656,230.70707070707084 621.6565656565656,221.17171717171726 621.6565656565656,211.63636363636374 621.6565656565656,202.10101010101027 621.6565656565656,192.56565656565675 621.6565656565656,183.03030303030312 621.6565656565656,173.4949494949496 621.6565656565656,163.95959595959613 621.6565656565656,154.4242424242426 621.6565656565656,144.88888888888908 621.6565656565656,135.35353535353545" fill="none" stroke="rgba(255,0,0,0.75)" stroke-width="14.159999999999995"/></g><g><polyline data-points="1.1616161616161622,3.989898989898992 1.1616161616161622,4.090909090909092 1.1616161616161622,4.191919191919193 1.1616161616161622,4.292929292929293 1.1616161616161622,4.393939393939394 1.1616161616161622,4.494949494949497 1.1616161616161622,4.595959595959597 1.1616161616161622,4.696969696969697 1.1616161616161622,4.7979797979797985 1.1616161616161622,4.898989898989901 1.1616161616161622,5.000000000000002" data-type="line" data-label="" points="621.6565656565656,135.35353535353545 621.6565656565656,125.81818181818198 621.6565656565656,116.28282828282846 621.6565656565656,106.747474747475 621.6565656565656,97.21212121212153 621.6565656565656,87.67676767676778 621.6565656565656,78.14141414141432 621.6565656565656,68.60606060606085 621.6565656565656,59.07070707070733 621.6565656565656,49.53535353535369 621.6565656565656,40.000000000000114" fill="none" stroke="rgba(0,0,255,0.75)" stroke-width="14.159999999999995"/></g><g><polyline data-points="5.000000000000002,-2.474747474747474 4.898989898989901,-2.3737373737373733 4.7979797979797985,-2.2727272727272725 4.696969696969697,-2.1717171717171713 4.595959595959597,-2.07070707070707 4.494949494949497,-1.9696969696969693 4.393939393939394,-1.8686868686868683 4.292929292929293,-1.7676767676767675 4.191919191919193,-1.6666666666666665 4.090909090909092,-1.5656565656565653 3.989898989898992,-1.4646464646464643 3.8888888888888893,-1.363636363636363 3.7878787878787885,-1.2626262626262625 3.6868686868686877,-1.1616161616161613 3.5858585858585874,-1.0606060606060603 3.4848484848484866,-0.9595959595959596 3.383838383838384,-0.8585858585858579 3.2828282828282833,-0.7575757575757572 3.181818181818183,-0.6565656565656557 3.080808080808082,-0.555555555555555 2.9797979797979806,-0.4545454545454544 2.87878787878788,-0.35353535353535287 2.7777777777777786,-0.2525252525252522 2.676767676767678,-0.15151515151515066 2.575757575757577,-0.05050505050505001 2.4747474747474754,0.050505050505051545 2.373737373737375,0.1515151515151522 2.2727272727272734,0.2525252525252529 2.1717171717171726,0.3535353535353544 2.070707070707072,0.4545454545454551 1.9696969696969702,0.5555555555555567 1.8686868686868696,0.6565656565656574 1.767676767676768,0.7575757575757579 1.6666666666666674,0.8585858585858596 1.5656565656565666,0.9595959595959602 1.4646464646464652,1.0606060606060617 1.3636363636363644,1.1616161616161622 1.262626262626263,1.262626262626263 1.1616161616161622,1.3636363636363644 1.0606060606060617,1.4646464646464652 0.9595959595959602,1.5656565656565666 0.8585858585858596,1.6666666666666674 0.7575757575757579,1.767676767676768 0.6565656565656574,1.8686868686868696 0.5555555555555567,1.9696969696969702 0.4545454545454551,2.070707070707072 0.3535353535353544,2.1717171717171726 0.2525252525252529,2.2727272727272734 0.1515151515151522,2.373737373737375 0.050505050505051545,2.4747474747474754 -0.05050505050505001,2.575757575757577 -0.15151515151515066,2.676767676767678 -0.2525252525252522,2.7777777777777786 -0.35353535353535287,2.87878787878788 -0.4545454545454544,2.9797979797979806 -0.555555555555555,3.080808080808082 -0.6565656565656557,3.181818181818183" data-type="line" data-label="" points="984,745.6161616161615 974.4646464646464,736.0808080808081 964.9292929292927,726.5454545454545 955.3939393939393,717.010101010101 945.8585858585857,707.4747474747475 936.3232323232323,697.939393939394 926.7878787878785,688.4040404040404 917.2525252525251,678.8686868686868 907.7171717171716,669.3333333333334 898.181818181818,659.7979797979798 888.6464646464647,650.2626262626263 879.111111111111,640.7272727272727 869.5757575757575,631.1919191919193 860.0404040404039,621.6565656565657 850.5050505050505,612.1212121212121 840.969696969697,602.5858585858587 831.4343434343433,593.0505050505051 821.8989898989898,583.5151515151516 812.3636363636363,573.979797979798 802.8282828282828,564.4444444444445 793.2929292929292,554.909090909091 783.7575757575758,545.3737373737374 774.2222222222222,535.838383838384 764.6868686868686,526.3030303030304 755.1515151515151,516.7676767676768 745.6161616161615,507.23232323232327 736.0808080808081,497.69696969696975 726.5454545454545,488.1616161616163 717.0101010101009,478.6262626262627 707.4747474747475,469.0909090909092 697.9393939393939,459.5555555555556 688.4040404040404,450.0202020202021 678.8686868686868,440.4848484848486 669.3333333333333,430.94949494949503 659.7979797979798,421.4141414141415 650.2626262626262,411.87878787878793 640.7272727272727,402.3434343434344 631.1919191919192,392.80808080808094 621.6565656565656,383.27272727272737 612.1212121212121,373.73737373737384 602.5858585858585,364.2020202020203 593.0505050505051,354.66666666666674 583.5151515151515,345.1313131313133 573.9797979797979,335.5959595959597 564.4444444444445,326.06060606060623 554.9090909090909,316.5252525252526 545.3737373737374,306.9898989898991 535.8383838383838,297.4545454545456 526.3030303030303,287.91919191919203 516.7676767676768,278.38383838383857 507.2323232323232,268.84848484848493 497.69696969696975,259.3131313131314 488.16161616161617,249.77777777777794 478.62626262626264,240.24242424242436 469.09090909090907,230.70707070707084 459.55555555555554,221.17171717171726 450.0202020202021,211.63636363636374" fill="none" stroke="rgba(0,0,255,0.75)" stroke-width="14.159999999999995"/></g><g><polyline data-points="-0.6565656565656557,3.181818181818183 -0.7575757575757572,3.2828282828282833 -0.7575757575757572,3.383838383838384 -0.7575757575757572,3.4848484848484866 -0.7575757575757572,3.5858585858585874 -0.7575757575757572,3.6868686868686877 -0.7575757575757572,3.7878787878787885 -0.7575757575757572,3.8888888888888893 -0.7575757575757572,3.989898989898992 -0.7575757575757572,4.090909090909092 -0.7575757575757572,4.191919191919193 -0.7575757575757572,4.292929292929293 -0.7575757575757572,4.393939393939394 -0.7575757575757572,4.494949494949497 -0.7575757575757572,4.595959595959597 -0.7575757575757572,4.696969696969697 -0.7575757575757572,4.7979797979797985 -0.7575757575757572,4.898989898989901 -0.7575757575757572,5.000000000000002" data-type="line" data-label="" points="450.0202020202021,211.63636363636374 440.4848484848485,202.10101010101027 440.4848484848485,192.56565656565675 440.4848484848485,183.03030303030312 440.4848484848485,173.4949494949496 440.4848484848485,163.95959595959613 440.4848484848485,154.4242424242426 440.4848484848485,144.88888888888908 440.4848484848485,135.35353535353545 440.4848484848485,125.81818181818198 440.4848484848485,116.28282828282846 440.4848484848485,106.747474747475 440.4848484848485,97.21212121212153 440.4848484848485,87.67676767676778 440.4848484848485,78.14141414141432 440.4848484848485,68.60606060606085 440.4848484848485,59.07070707070733 440.4848484848485,49.53535353535369 440.4848484848485,40.000000000000114" fill="none" stroke="rgba(255,0,0,0.75)" stroke-width="14.159999999999995"/></g><g><polyline data-points="5.000000000000002,0.7575757575757579 4.898989898989901,0.6565656565656574 4.7979797979797985,0.5555555555555567 4.696969696969697,0.4545454545454551 4.595959595959597,0.3535353535353544 4.494949494949497,0.2525252525252529 4.393939393939394,0.1515151515151522 4.292929292929293,0.050505050505051545 4.191919191919193,-0.05050505050505001 4.090909090909092,-0.15151515151515066 3.989898989898992,-0.2525252525252522 3.8888888888888893,-0.35353535353535287 3.7878787878787885,-0.4545454545454544" data-type="line" data-label="" points="984,440.4848484848486 974.4646464646464,450.0202020202021 964.9292929292927,459.5555555555556 955.3939393939393,469.0909090909092 945.8585858585857,478.6262626262627 936.3232323232323,488.1616161616163 926.7878787878785,497.69696969696975 917.2525252525251,507.23232323232327 907.7171717171716,516.7676767676768 898.181818181818,526.3030303030304 888.6464646464647,535.838383838384 879.111111111111,545.3737373737374 869.5757575757575,554.909090909091" fill="none" stroke="rgba(0,0,255,0.75)" stroke-width="14.159999999999995"/></g><g><polyline data-points="3.7878787878787885,-0.4545454545454544 3.6868686868686877,-0.555555555555555 3.5858585858585874,-0.6565656565656557 3.4848484848484866,-0.7575757575757572 3.383838383838384,-0.8585858585858579 3.2828282828282833,-0.9595959595959596 3.181818181818183,-1.0606060606060603 3.080808080808082,-1.1616161616161613 2.9797979797979806,-1.2626262626262625 2.87878787878788,-1.363636363636363 2.7777777777777786,-1.4646464646464643 2.676767676767678,-1.5656565656565653 2.575757575757577,-1.6666666666666665 2.4747474747474754,-1.7676767676767675 2.373737373737375,-1.8686868686868683 2.2727272727272734,-1.9696969696969693 2.1717171717171726,-2.07070707070707 2.070707070707072,-2.1717171717171713 1.9696969696969702,-2.2727272727272725 1.8686868686868696,-2.3737373737373733 1.767676767676768,-2.474747474747474 1.6666666666666674,-2.5757575757575752 1.5656565656565666,-2.6767676767676765 1.4646464646464652,-2.7777777777777777 1.3636363636363644,-2.8787878787878785 1.262626262626263,-2.9797979797979792 1.1616161616161622,-3.0808080808080804 1.0606060606060617,-3.1818181818181817 0.9595959595959602,-3.2828282828282824 0.8585858585858596,-3.383838383838383 0.7575757575757579,-3.484848484848485 0.6565656565656574,-3.5858585858585856 0.5555555555555567,-3.6868686868686864 0.4545454545454551,-3.7878787878787876 0.3535353535353544,-3.8888888888888884 0.2525252525252529,-3.98989898989899 0.1515151515151522,-3.98989898989899 0.050505050505051545,-3.98989898989899 -0.05050505050505001,-3.98989898989899 -0.15151515151515066,-3.98989898989899" data-type="line" data-label="" points="869.5757575757575,554.909090909091 860.0404040404039,564.4444444444445 850.5050505050505,573.979797979798 840.969696969697,583.5151515151516 831.4343434343433,593.0505050505051 821.8989898989898,602.5858585858587 812.3636363636363,612.1212121212121 802.8282828282828,621.6565656565657 793.2929292929292,631.1919191919193 783.7575757575758,640.7272727272727 774.2222222222222,650.2626262626263 764.6868686868686,659.7979797979798 755.1515151515151,669.3333333333334 745.6161616161615,678.8686868686868 736.0808080808081,688.4040404040404 726.5454545454545,697.939393939394 717.0101010101009,707.4747474747475 707.4747474747475,717.010101010101 697.9393939393939,726.5454545454545 688.4040404040404,736.0808080808081 678.8686868686868,745.6161616161615 669.3333333333333,755.1515151515151 659.7979797979798,764.6868686868687 650.2626262626262,774.2222222222222 640.7272727272727,783.7575757575758 631.1919191919192,793.2929292929292 621.6565656565656,802.8282828282828 612.1212121212121,812.3636363636363 602.5858585858585,821.8989898989898 593.0505050505051,831.4343434343434 583.5151515151515,840.969696969697 573.9797979797979,850.5050505050505 564.4444444444445,860.0404040404039 554.9090909090909,869.5757575757575 545.3737373737374,879.1111111111111 535.8383838383838,888.6464646464647 526.3030303030303,888.6464646464647 516.7676767676768,888.6464646464647 507.2323232323232,888.6464646464647 497.69696969696975,888.6464646464647" fill="none" stroke="rgba(255,0,0,0.75)" stroke-width="14.159999999999995"/></g><g><polyline data-points="-0.15151515151515066,-3.98989898989899 -0.2525252525252522,-3.98989898989899 -0.35353535353535287,-3.98989898989899 -0.4545454545454544,-3.98989898989899 -0.555555555555555,-3.98989898989899 -0.6565656565656557,-3.98989898989899 -0.7575757575757572,-3.98989898989899 -0.8585858585858579,-3.98989898989899 -0.9595959595959596,-3.98989898989899 -1.0606060606060603,-3.98989898989899 -1.1616161616161613,-3.98989898989899 -1.2626262626262625,-3.98989898989899 -1.363636363636363,-3.98989898989899 -1.4646464646464643,-3.98989898989899 -1.5656565656565653,-3.98989898989899 -1.6666666666666665,-3.98989898989899 -1.7676767676767675,-3.98989898989899 -1.8686868686868683,-3.98989898989899 -1.9696969696969693,-3.98989898989899 -2.07070707070707,-3.98989898989899 -2.1717171717171713,-3.98989898989899 -2.2727272727272725,-3.98989898989899 -2.3737373737373733,-3.98989898989899 -2.474747474747474,-3.98989898989899 -2.5757575757575752,-3.98989898989899 -2.6767676767676765,-3.98989898989899 -2.7777777777777777,-3.98989898989899 -2.8787878787878785,-3.98989898989899 -2.9797979797979792,-3.98989898989899 -3.0808080808080804,-3.98989898989899 -3.1818181818181817,-3.98989898989899 -3.2828282828282824,-3.98989898989899 -3.383838383838383,-3.98989898989899 -3.484848484848485,-3.98989898989899 -3.5858585858585856,-3.98989898989899 -3.6868686868686864,-3.98989898989899" data-type="line" data-label="" points="497.69696969696975,888.6464646464647 488.16161616161617,888.6464646464647 478.62626262626264,888.6464646464647 469.09090909090907,888.6464646464647 459.55555555555554,888.6464646464647 450.0202020202021,888.6464646464647 440.4848484848485,888.6464646464647 430.949494949495,888.6464646464647 421.4141414141414,888.6464646464647 411.8787878787879,888.6464646464647 402.34343434343435,888.6464646464647 392.80808080808083,888.6464646464647 383.2727272727273,888.6464646464647 373.7373737373738,888.6464646464647 364.2020202020202,888.6464646464647 354.6666666666667,888.6464646464647 345.13131313131316,888.6464646464647 335.59595959595964,888.6464646464647 326.0606060606061,888.6464646464647 316.5252525252526,888.6464646464647 306.9898989898991,888.6464646464647 297.4545454545455,888.6464646464647 287.91919191919203,888.6464646464647 278.38383838383845,888.6464646464647 268.84848484848493,888.6464646464647 259.3131313131314,888.6464646464647 249.77777777777783,888.6464646464647 240.2424242424243,888.6464646464647 230.70707070707084,888.6464646464647 221.17171717171726,888.6464646464647 211.63636363636374,888.6464646464647 202.10101010101022,888.6464646464647 192.5656565656567,888.6464646464647 183.03030303030312,888.6464646464647 173.4949494949496,888.6464646464647 163.95959595959607,888.6464646464647" fill="none" stroke="rgba(0,0,255,0.75)" stroke-width="14.159999999999995"/></g><g><polyline data-points="-3.6868686868686864,-3.98989898989899 -3.7878787878787876,-4.090909090909091 -3.8888888888888884,-4.191919191919193 -3.98989898989899,-4.292929292929293 -4.090909090909091,-4.393939393939394 -4.191919191919193,-4.494949494949496 -4.292929292929293,-4.595959595959596 -4.393939393939394,-4.696969696969697 -4.494949494949496,-4.7979797979797985 -4.595959595959596,-4.898989898989899 -4.696969696969697,-4.898989898989899 -4.7979797979797985,-4.898989898989899 -4.898989898989899,-4.898989898989899 -5.000000000000001,-4.898989898989899" data-type="line" data-label="" points="163.95959595959607,888.6464646464647 154.42424242424255,898.1818181818181 144.88888888888903,907.7171717171718 135.35353535353545,917.2525252525252 125.81818181818193,926.7878787878788 116.28282828282829,936.3232323232323 106.74747474747483,945.8585858585858 97.21212121212136,955.3939393939394 87.67676767676772,964.9292929292928 78.14141414141426,974.4646464646464 68.60606060606068,974.4646464646464 59.07070707070716,974.4646464646464 49.53535353535369,974.4646464646464 40.00000000000006,974.4646464646464" fill="none" stroke="rgba(255,0,0,0.75)" stroke-width="14.159999999999995"/></g><g><polyline data-points="2.2727272727272734,-5.000000000000001 2.373737373737375,-4.898989898989899 2.4747474747474754,-4.7979797979797985 2.575757575757577,-4.696969696969697 2.676767676767678,-4.595959595959596 2.7777777777777786,-4.494949494949496 2.87878787878788,-4.393939393939394 2.9797979797979806,-4.292929292929293 3.080808080808082,-4.191919191919193 3.181818181818183,-4.090909090909091 3.2828282828282833,-3.98989898989899 3.2828282828282833,-3.8888888888888884 3.2828282828282833,-3.7878787878787876 3.2828282828282833,-3.6868686868686864 3.2828282828282833,-3.5858585858585856 3.2828282828282833,-3.484848484848485 3.2828282828282833,-3.383838383838383 3.2828282828282833,-3.2828282828282824" data-type="line" data-label="" points="726.5454545454545,984 736.0808080808081,974.4646464646464 745.6161616161615,964.9292929292928 755.1515151515151,955.3939393939394 764.6868686868686,945.8585858585858 774.2222222222222,936.3232323232323 783.7575757575758,926.7878787878788 793.2929292929292,917.2525252525252 802.8282828282828,907.7171717171718 812.3636363636363,898.1818181818181 821.8989898989898,888.6464646464647 821.8989898989898,879.1111111111111 821.8989898989898,869.5757575757575 821.8989898989898,860.0404040404039 821.8989898989898,850.5050505050505 821.8989898989898,840.969696969697 821.8989898989898,831.4343434343434 821.8989898989898,821.8989898989898" fill="none" stroke="rgba(0,0,255,0.75)" stroke-width="14.159999999999995"/></g><g><polyline data-points="3.2828282828282833,-3.2828282828282824 3.383838383838384,-3.1818181818181817 3.4848484848484866,-3.0808080808080804 3.5858585858585874,-2.9797979797979792 3.6868686868686877,-2.8787878787878785 3.7878787878787885,-2.7777777777777777 3.8888888888888893,-2.6767676767676765 3.989898989898992,-2.5757575757575752 4.090909090909092,-2.474747474747474 4.191919191919193,-2.3737373737373733 4.191919191919193,-2.2727272727272725 4.191919191919193,-2.1717171717171713 4.191919191919193,-2.07070707070707 4.191919191919193,-1.9696969696969693 4.191919191919193,-1.8686868686868683 4.191919191919193,-1.7676767676767675 4.191919191919193,-1.6666666666666665 4.191919191919193,-1.5656565656565653 4.191919191919193,-1.4646464646464643 4.191919191919193,-1.363636363636363 4.191919191919193,-1.2626262626262625 4.191919191919193,-1.1616161616161613 4.191919191919193,-1.0606060606060603 4.191919191919193,-0.9595959595959596 4.191919191919193,-0.8585858585858579 4.191919191919193,-0.7575757575757572 4.191919191919193,-0.6565656565656557 4.191919191919193,-0.555555555555555 4.292929292929293,-0.4545454545454544 4.292929292929293,-0.35353535353535287 4.292929292929293,-0.2525252525252522 4.292929292929293,-0.15151515151515066 4.292929292929293,-0.05050505050505001 4.292929292929293,0.050505050505051545 4.292929292929293,0.1515151515151522 4.292929292929293,0.2525252525252529 4.292929292929293,0.3535353535353544 4.292929292929293,0.4545454545454551 4.292929292929293,0.5555555555555567 4.292929292929293,0.6565656565656574 4.292929292929293,0.7575757575757579 4.292929292929293,0.8585858585858596 4.292929292929293,0.9595959595959602 4.393939393939394,1.0606060606060617 4.393939393939394,1.1616161616161622 4.494949494949497,1.262626262626263 4.393939393939394,1.3636363636363644 4.393939393939394,1.4646464646464652 4.292929292929293,1.5656565656565666 4.191919191919193,1.6666666666666674 4.191919191919193,1.767676767676768 4.191919191919193,1.8686868686868696 4.191919191919193,1.9696969696969702 4.191919191919193,2.070707070707072 4.191919191919193,2.1717171717171726 4.191919191919193,2.2727272727272734 4.191919191919193,2.373737373737375 4.191919191919193,2.4747474747474754 4.191919191919193,2.575757575757577 4.191919191919193,2.676767676767678 4.191919191919193,2.7777777777777786 4.191919191919193,2.87878787878788 4.191919191919193,2.9797979797979806 4.191919191919193,3.080808080808082 4.191919191919193,3.181818181818183 4.191919191919193,3.2828282828282833 4.191919191919193,3.383838383838384 4.191919191919193,3.4848484848484866 4.191919191919193,3.5858585858585874 4.191919191919193,3.6868686868686877 4.191919191919193,3.7878787878787885 4.191919191919193,3.8888888888888893 4.191919191919193,3.989898989898992 4.191919191919193,4.090909090909092 4.191919191919193,4.191919191919193 4.191919191919193,4.292929292929293 4.191919191919193,4.393939393939394 4.191919191919193,4.494949494949497 4.191919191919193,4.595959595959597 4.191919191919193,4.696969696969697 4.191919191919193,4.7979797979797985 4.191919191919193,4.898989898989901 4.191919191919193,5.000000000000002" data-type="line" data-label="" points="821.8989898989898,821.8989898989898 831.4343434343433,812.3636363636363 840.969696969697,802.8282828282828 850.5050505050505,793.2929292929292 860.0404040404039,783.7575757575758 869.5757575757575,774.2222222222222 879.111111111111,764.6868686868687 888.6464646464647,755.1515151515151 898.181818181818,745.6161616161615 907.7171717171716,736.0808080808081 907.7171717171716,726.5454545454545 907.7171717171716,717.010101010101 907.7171717171716,707.4747474747475 907.7171717171716,697.939393939394 907.7171717171716,688.4040404040404 907.7171717171716,678.8686868686868 907.7171717171716,669.3333333333334 907.7171717171716,659.7979797979798 907.7171717171716,650.2626262626263 907.7171717171716,640.7272727272727 907.7171717171716,631.1919191919193 907.7171717171716,621.6565656565657 907.7171717171716,612.1212121212121 907.7171717171716,602.5858585858587 907.7171717171716,593.0505050505051 907.7171717171716,583.5151515151516 907.7171717171716,573.979797979798 907.7171717171716,564.4444444444445 917.2525252525251,554.909090909091 917.2525252525251,545.3737373737374 917.2525252525251,535.838383838384 917.2525252525251,526.3030303030304 917.2525252525251,516.7676767676768 917.2525252525251,507.23232323232327 917.2525252525251,497.69696969696975 917.2525252525251,488.1616161616163 917.2525252525251,478.6262626262627 917.2525252525251,469.0909090909092 917.2525252525251,459.5555555555556 917.2525252525251,450.0202020202021 917.2525252525251,440.4848484848486 917.2525252525251,430.94949494949503 917.2525252525251,421.4141414141415 926.7878787878785,411.87878787878793 926.7878787878785,402.3434343434344 936.3232323232323,392.80808080808094 926.7878787878785,383.27272727272737 926.7878787878785,373.73737373737384 917.2525252525251,364.2020202020203 907.7171717171716,354.66666666666674 907.7171717171716,345.1313131313133 907.7171717171716,335.5959595959597 907.7171717171716,326.06060606060623 907.7171717171716,316.5252525252526 907.7171717171716,306.9898989898991 907.7171717171716,297.4545454545456 907.7171717171716,287.91919191919203 907.7171717171716,278.38383838383857 907.7171717171716,268.84848484848493 907.7171717171716,259.3131313131314 907.7171717171716,249.77777777777794 907.7171717171716,240.24242424242436 907.7171717171716,230.70707070707084 907.7171717171716,221.17171717171726 907.7171717171716,211.63636363636374 907.7171717171716,202.10101010101027 907.7171717171716,192.56565656565675 907.7171717171716,183.03030303030312 907.7171717171716,173.4949494949496 907.7171717171716,163.95959595959613 907.7171717171716,154.4242424242426 907.7171717171716,144.88888888888908 907.7171717171716,135.35353535353545 907.7171717171716,125.81818181818198 907.7171717171716,116.28282828282846 907.7171717171716,106.747474747475 907.7171717171716,97.21212121212153 907.7171717171716,87.67676767676778 907.7171717171716,78.14141414141432 907.7171717171716,68.60606060606085 907.7171717171716,59.07070707070733 907.7171717171716,49.53535353535369 907.7171717171716,40.000000000000114" fill="none" stroke="rgba(255,0,0,0.75)" stroke-width="14.159999999999995"/></g><g><polyline data-points="-5.000000000000001,-1.4646464646464643 -4.898989898989899,-1.4646464646464643 -4.7979797979797985,-1.4646464646464643 -4.696969696969697,-1.4646464646464643 -4.595959595959596,-1.4646464646464643 -4.494949494949496,-1.4646464646464643 -4.393939393939394,-1.4646464646464643 -4.292929292929293,-1.4646464646464643 -4.191919191919193,-1.4646464646464643 -4.090909090909091,-1.4646464646464643 -3.98989898989899,-1.4646464646464643 -3.8888888888888884,-1.4646464646464643 -3.7878787878787876,-1.4646464646464643 -3.6868686868686864,-1.4646464646464643 -3.5858585858585856,-1.4646464646464643 -3.484848484848485,-1.4646464646464643 -3.383838383838383,-1.4646464646464643 -3.2828282828282824,-1.4646464646464643 -3.1818181818181817,-1.4646464646464643 -3.0808080808080804,-1.4646464646464643 -2.9797979797979792,-1.4646464646464643 -2.8787878787878785,-1.4646464646464643 -2.7777777777777777,-1.4646464646464643 -2.6767676767676765,-1.4646464646464643 -2.5757575757575752,-1.4646464646464643 -2.474747474747474,-1.4646464646464643 -2.3737373737373733,-1.4646464646464643 -2.2727272727272725,-1.4646464646464643 -2.1717171717171713,-1.4646464646464643 -2.07070707070707,-1.4646464646464643 -1.9696969696969693,-1.363636363636363 -1.8686868686868683,-1.2626262626262625 -1.7676767676767675,-1.1616161616161613 -1.6666666666666665,-1.0606060606060603 -1.5656565656565653,-0.9595959595959596 -1.4646464646464643,-0.8585858585858579 -1.363636363636363,-0.7575757575757572 -1.2626262626262625,-0.6565656565656557 -1.1616161616161613,-0.555555555555555 -1.0606060606060603,-0.4545454545454544 -0.9595959595959596,-0.35353535353535287 -0.8585858585858579,-0.2525252525252522 -0.7575757575757572,-0.15151515151515066 -0.6565656565656557,-0.05050505050505001 -0.555555555555555,0.050505050505051545 -0.4545454545454544,0.1515151515151522 -0.35353535353535287,0.2525252525252529 -0.2525252525252522,0.3535353535353544 -0.15151515151515066,0.4545454545454551 -0.05050505050505001,0.5555555555555567 0.050505050505051545,0.6565656565656574 0.1515151515151522,0.7575757575757579 0.2525252525252529,0.8585858585858596 0.3535353535353544,0.9595959595959602 0.4545454545454551,1.0606060606060617 0.5555555555555567,1.1616161616161622" data-type="line" data-label="" points="40.00000000000006,650.2626262626263 49.53535353535369,650.2626262626263 59.07070707070716,650.2626262626263 68.60606060606068,650.2626262626263 78.14141414141426,650.2626262626263 87.67676767676772,650.2626262626263 97.21212121212136,650.2626262626263 106.74747474747483,650.2626262626263 116.28282828282829,650.2626262626263 125.81818181818193,650.2626262626263 135.35353535353545,650.2626262626263 144.88888888888903,650.2626262626263 154.42424242424255,650.2626262626263 163.95959595959607,650.2626262626263 173.4949494949496,650.2626262626263 183.03030303030312,650.2626262626263 192.5656565656567,650.2626262626263 202.10101010101022,650.2626262626263 211.63636363636374,650.2626262626263 221.17171717171726,650.2626262626263 230.70707070707084,650.2626262626263 240.2424242424243,650.2626262626263 249.77777777777783,650.2626262626263 259.3131313131314,650.2626262626263 268.84848484848493,650.2626262626263 278.38383838383845,650.2626262626263 287.91919191919203,650.2626262626263 297.4545454545455,650.2626262626263 306.9898989898991,650.2626262626263 316.5252525252526,650.2626262626263 326.0606060606061,640.7272727272727 335.59595959595964,631.1919191919193 345.13131313131316,621.6565656565657 354.6666666666667,612.1212121212121 364.2020202020202,602.5858585858587 373.7373737373738,593.0505050505051 383.2727272727273,583.5151515151516 392.80808080808083,573.979797979798 402.34343434343435,564.4444444444445 411.8787878787879,554.909090909091 421.4141414141414,545.3737373737374 430.949494949495,535.838383838384 440.4848484848485,526.3030303030304 450.0202020202021,516.7676767676768 459.55555555555554,507.23232323232327 469.09090909090907,497.69696969696975 478.62626262626264,488.1616161616163 488.16161616161617,478.6262626262627 497.69696969696975,469.0909090909092 507.2323232323232,459.5555555555556 516.7676767676768,450.0202020202021 526.3030303030303,440.4848484848486 535.8383838383838,430.94949494949503 545.3737373737374,421.4141414141415 554.9090909090909,411.87878787878793 564.4444444444445,402.3434343434344" fill="none" stroke="rgba(255,0,0,0.75)" stroke-width="14.159999999999995"/></g><g><polyline data-points="0.5555555555555567,1.1616161616161622 0.6565656565656574,1.0606060606060617 0.7575757575757579,0.9595959595959602 0.8585858585858596,0.8585858585858596 0.9595959595959602,0.7575757575757579 1.0606060606060617,0.6565656565656574 1.1616161616161622,0.5555555555555567 1.262626262626263,0.4545454545454551 1.3636363636363644,0.3535353535353544 1.4646464646464652,0.2525252525252529 1.5656565656565666,0.1515151515151522 1.6666666666666674,0.050505050505051545 1.767676767676768,-0.05050505050505001 1.8686868686868696,-0.15151515151515066 1.9696969696969702,-0.2525252525252522 2.070707070707072,-0.35353535353535287 2.1717171717171726,-0.4545454545454544 2.2727272727272734,-0.555555555555555 2.373737373737375,-0.6565656565656557 2.4747474747474754,-0.7575757575757572 2.575757575757577,-0.8585858585858579 2.676767676767678,-0.9595959595959596 2.7777777777777786,-1.0606060606060603 2.87878787878788,-1.1616161616161613 2.9797979797979806,-1.2626262626262625 3.080808080808082,-1.363636363636363 3.181818181818183,-1.4646464646464643 3.2828282828282833,-1.5656565656565653 3.383838383838384,-1.6666666666666665 3.4848484848484866,-1.7676767676767675 3.4848484848484866,-1.8686868686868683 3.4848484848484866,-1.9696969696969693 3.4848484848484866,-2.07070707070707 3.4848484848484866,-2.1717171717171713 3.4848484848484866,-2.2727272727272725 3.5858585858585874,-2.3737373737373733 3.6868686868686877,-2.474747474747474 3.7878787878787885,-2.5757575757575752 3.8888888888888893,-2.6767676767676765 3.989898989898992,-2.7777777777777777 4.090909090909092,-2.8787878787878785 4.191919191919193,-2.9797979797979792 4.191919191919193,-3.0808080808080804 4.191919191919193,-3.1818181818181817 4.292929292929293,-3.2828282828282824 4.393939393939394,-3.383838383838383 4.393939393939394,-3.484848484848485 4.494949494949497,-3.5858585858585856 4.393939393939394,-3.6868686868686864 4.393939393939394,-3.7878787878787876 4.292929292929293,-3.8888888888888884 4.191919191919193,-3.98989898989899 4.090909090909092,-4.090909090909091 3.989898989898992,-4.191919191919193 3.8888888888888893,-4.292929292929293 3.7878787878787885,-4.393939393939394 3.6868686868686877,-4.494949494949496 3.5858585858585874,-4.595959595959596 3.4848484848484866,-4.696969696969697 3.4848484848484866,-4.7979797979797985 3.4848484848484866,-4.898989898989899 3.4848484848484866,-5.000000000000001" data-type="line" data-label="" points="564.4444444444445,402.3434343434344 573.9797979797979,411.87878787878793 583.5151515151515,421.4141414141415 593.0505050505051,430.94949494949503 602.5858585858585,440.4848484848486 612.1212121212121,450.0202020202021 621.6565656565656,459.5555555555556 631.1919191919192,469.0909090909092 640.7272727272727,478.6262626262627 650.2626262626262,488.1616161616163 659.7979797979798,497.69696969696975 669.3333333333333,507.23232323232327 678.8686868686868,516.7676767676768 688.4040404040404,526.3030303030304 697.9393939393939,535.838383838384 707.4747474747475,545.3737373737374 717.0101010101009,554.909090909091 726.5454545454545,564.4444444444445 736.0808080808081,573.979797979798 745.6161616161615,583.5151515151516 755.1515151515151,593.0505050505051 764.6868686868686,602.5858585858587 774.2222222222222,612.1212121212121 783.7575757575758,621.6565656565657 793.2929292929292,631.1919191919193 802.8282828282828,640.7272727272727 812.3636363636363,650.2626262626263 821.8989898989898,659.7979797979798 831.4343434343433,669.3333333333334 840.969696969697,678.8686868686868 840.969696969697,688.4040404040404 840.969696969697,697.939393939394 840.969696969697,707.4747474747475 840.969696969697,717.010101010101 840.969696969697,726.5454545454545 850.5050505050505,736.0808080808081 860.0404040404039,745.6161616161615 869.5757575757575,755.1515151515151 879.111111111111,764.6868686868687 888.6464646464647,774.2222222222222 898.181818181818,783.7575757575758 907.7171717171716,793.2929292929292 907.7171717171716,802.8282828282828 907.7171717171716,812.3636363636363 917.2525252525251,821.8989898989898 926.7878787878785,831.4343434343434 926.7878787878785,840.969696969697 936.3232323232323,850.5050505050505 926.7878787878785,860.0404040404039 926.7878787878785,869.5757575757575 917.2525252525251,879.1111111111111 907.7171717171716,888.6464646464647 898.181818181818,898.1818181818181 888.6464646464647,907.7171717171718 879.111111111111,917.2525252525252 869.5757575757575,926.7878787878788 860.0404040404039,936.3232323232323 850.5050505050505,945.8585858585858 840.969696969697,955.3939393939394 840.969696969697,964.9292929292928 840.969696969697,974.4646464646464 840.969696969697,984" fill="none" stroke="rgba(0,0,255,0.75)" stroke-width="14.159999999999995"/></g><g><polyline data-points="-5.000000000000001,3.6868686868686877 -4.898989898989899,3.5858585858585874 -4.898989898989899,3.4848484848484866 -4.898989898989899,3.383838383838384 -4.898989898989899,3.2828282828282833 -4.898989898989899,3.181818181818183 -4.898989898989899,3.080808080808082 -4.898989898989899,2.9797979797979806 -4.898989898989899,2.87878787878788 -4.898989898989899,2.7777777777777786 -4.898989898989899,2.676767676767678 -4.898989898989899,2.575757575757577 -4.898989898989899,2.4747474747474754 -4.898989898989899,2.373737373737375 -4.898989898989899,2.2727272727272734 -4.898989898989899,2.1717171717171726 -4.898989898989899,2.070707070707072 -4.898989898989899,1.9696969696969702 -4.898989898989899,1.8686868686868696 -4.898989898989899,1.767676767676768 -4.898989898989899,1.6666666666666674 -4.898989898989899,1.5656565656565666 -4.898989898989899,1.4646464646464652 -4.898989898989899,1.3636363636363644 -4.898989898989899,1.262626262626263 -4.898989898989899,1.1616161616161622 -4.898989898989899,1.0606060606060617 -4.898989898989899,0.9595959595959602 -4.898989898989899,0.8585858585858596 -4.898989898989899,0.7575757575757579 -4.898989898989899,0.6565656565656574 -4.898989898989899,0.5555555555555567 -4.898989898989899,0.4545454545454551 -4.898989898989899,0.3535353535353544 -4.898989898989899,0.2525252525252529 -4.7979797979797985,0.1515151515151522 -4.696969696969697,0.050505050505051545 -4.595959595959596,-0.05050505050505001 -4.494949494949496,-0.15151515151515066 -4.494949494949496,-0.2525252525252522 -4.494949494949496,-0.35353535353535287 -4.393939393939394,-0.4545454545454544 -4.292929292929293,-0.555555555555555 -4.191919191919193,-0.6565656565656557 -4.090909090909091,-0.7575757575757572 -3.98989898989899,-0.8585858585858579" data-type="line" data-label="" points="40.00000000000006,163.95959595959613 49.53535353535369,173.4949494949496 49.53535353535369,183.03030303030312 49.53535353535369,192.56565656565675 49.53535353535369,202.10101010101027 49.53535353535369,211.63636363636374 49.53535353535369,221.17171717171726 49.53535353535369,230.70707070707084 49.53535353535369,240.24242424242436 49.53535353535369,249.77777777777794 49.53535353535369,259.3131313131314 49.53535353535369,268.84848484848493 49.53535353535369,278.38383838383857 49.53535353535369,287.91919191919203 49.53535353535369,297.4545454545456 49.53535353535369,306.9898989898991 49.53535353535369,316.5252525252526 49.53535353535369,326.06060606060623 49.53535353535369,335.5959595959597 49.53535353535369,345.1313131313133 49.53535353535369,354.66666666666674 49.53535353535369,364.2020202020203 49.53535353535369,373.73737373737384 49.53535353535369,383.27272727272737 49.53535353535369,392.80808080808094 49.53535353535369,402.3434343434344 49.53535353535369,411.87878787878793 49.53535353535369,421.4141414141415 49.53535353535369,430.94949494949503 49.53535353535369,440.4848484848486 49.53535353535369,450.0202020202021 49.53535353535369,459.5555555555556 49.53535353535369,469.0909090909092 49.53535353535369,478.6262626262627 49.53535353535369,488.1616161616163 59.07070707070716,497.69696969696975 68.60606060606068,507.23232323232327 78.14141414141426,516.7676767676768 87.67676767676772,526.3030303030304 87.67676767676772,535.838383838384 87.67676767676772,545.3737373737374 97.21212121212136,554.909090909091 106.74747474747483,564.4444444444445 116.28282828282829,573.979797979798 125.81818181818193,583.5151515151516 135.35353535353545,593.0505050505051" fill="none" stroke="rgba(255,0,0,0.75)" stroke-width="14.159999999999995"/></g><g><polyline data-points="-3.98989898989899,-0.8585858585858579 -3.98989898989899,-0.9595959595959596 -3.98989898989899,-1.0606060606060603 -3.98989898989899,-1.1616161616161613 -3.98989898989899,-1.2626262626262625 -3.98989898989899,-1.363636363636363 -3.98989898989899,-1.4646464646464643 -3.98989898989899,-1.5656565656565653 -3.98989898989899,-1.6666666666666665 -3.98989898989899,-1.7676767676767675 -3.98989898989899,-1.8686868686868683 -3.98989898989899,-1.9696969696969693 -3.98989898989899,-2.07070707070707 -3.98989898989899,-2.1717171717171713 -3.98989898989899,-2.2727272727272725 -3.98989898989899,-2.3737373737373733" data-type="line" data-label="" points="135.35353535353545,593.0505050505051 135.35353535353545,602.5858585858587 135.35353535353545,612.1212121212121 135.35353535353545,621.6565656565657 135.35353535353545,631.1919191919193 135.35353535353545,640.7272727272727 135.35353535353545,650.2626262626263 135.35353535353545,659.7979797979798 135.35353535353545,669.3333333333334 135.35353535353545,678.8686868686868 135.35353535353545,688.4040404040404 135.35353535353545,697.939393939394 135.35353535353545,707.4747474747475 135.35353535353545,717.010101010101 135.35353535353545,726.5454545454545 135.35353535353545,736.0808080808081" fill="none" stroke="rgba(0,0,255,0.75)" stroke-width="14.159999999999995"/></g><g><polyline data-points="-3.98989898989899,-2.3737373737373733 -4.090909090909091,-2.474747474747474 -4.191919191919193,-2.5757575757575752 -4.292929292929293,-2.6767676767676765 -4.393939393939394,-2.6767676767676765 -4.494949494949496,-2.6767676767676765 -4.595959595959596,-2.6767676767676765 -4.696969696969697,-2.6767676767676765 -4.7979797979797985,-2.6767676767676765 -4.898989898989899,-2.6767676767676765 -5.000000000000001,-2.7777777777777777" data-type="line" data-label="" points="135.35353535353545,736.0808080808081 125.81818181818193,745.6161616161615 116.28282828282829,755.1515151515151 106.74747474747483,764.6868686868687 97.21212121212136,764.6868686868687 87.67676767676772,764.6868686868687 78.14141414141426,764.6868686868687 68.60606060606068,764.6868686868687 59.07070707070716,764.6868686868687 49.53535353535369,764.6868686868687 40.00000000000006,774.2222222222222" fill="none" stroke="rgba(255,0,0,0.75)" stroke-width="14.159999999999995"/></g><g><rect data-type="rect" data-label="" data-x="0" data-y="0" x="40.000000000000114" y="40.000000000000284" width="943.9999999999997" height="943.9999999999998" fill="none" stroke="gray" stroke-width="0.010593220338983056"/></g><g><rect data-type="rect" data-label="" data-x="0" data-y="0" x="40.000000000000114" y="40.000000000000284" width="943.9999999999997" height="943.9999999999998" fill="none" stroke="rgba(15, 23, 42, 0.8)" stroke-width="0.010593220338983056"/></g><circle data-type="circle" data-label="" data-x="3.989898989898992" data-y="-3.5858585858585856" cx="888.6464646464647" cy="850.5050505050505" r="28.791999999999987" fill="rgba(0,0,0,0.3)" stroke="black" stroke-width="0.010593220338983056"/><circle data-type="circle" data-label="" data-x="-1.5656565656565653" data-y="3.2828282828282833" cx="364.2020202020202" cy="202.10101010101027" r="28.791999999999987" fill="rgba(0,0,0,0.3)" stroke="black" stroke-width="0.010593220338983056"/><circle data-type="circle" data-label="" data-x="-3.98989898989899" data-y="0.5555555555555567" cx="135.35353535353545" cy="459.5555555555556" r="28.791999999999987" fill="rgba(0,0,0,0.3)" stroke="black" stroke-width="0.010593220338983056"/><circle data-type="circle" data-label="" data-x="3.989898989898992" data-y="1.262626262626263" cx="888.6464646464647" cy="392.80808080808094" r="28.791999999999987" fill="rgba(0,0,0,0.3)" stroke="black" stroke-width="0.010593220338983056"/><circle data-type="circle" data-label="" data-x="1.1616161616161622" data-y="-1.0606060606060603" cx="621.6565656565656" cy="612.1212121212121" r="28.791999999999987" fill="rgba(0,0,0,0.3)" stroke="black" stroke-width="0.010593220338983056"/><circle data-type="circle" data-label="" data-x="1.1616161616161622" data-y="3.989898989898992" cx="621.6565656565656" cy="135.35353535353545" r="28.791999999999987" fill="rgba(0,0,0,0.3)" stroke="black" stroke-width="0.010593220338983056"/><circle data-type="circle" data-label="" data-x="-0.6565656565656557" data-y="3.181818181818183" cx="450.0202020202021" cy="211.63636363636374" r="28.791999999999987" fill="rgba(0,0,0,0.3)" stroke="black" stroke-width="0.010593220338983056"/><circle data-type="circle" data-label="" data-x="3.7878787878787885" data-y="-0.4545454545454544" cx="869.5757575757575" cy="554.909090909091" r="28.791999999999987" fill="rgba(0,0,0,0.3)" stroke="black" stroke-width="0.010593220338983056"/><circle data-type="circle" data-label="" data-x="-0.15151515151515066" data-y="-3.98989898989899" cx="497.69696969696975" cy="888.6464646464647" r="28.791999999999987" fill="rgba(0,0,0,0.3)" stroke="black" stroke-width="0.010593220338983056"/><circle data-type="circle" data-label="" data-x="-3.6868686868686864" data-y="-3.98989898989899" cx="163.95959595959607" cy="888.6464646464647" r="28.791999999999987" fill="rgba(0,0,0,0.3)" stroke="black" stroke-width="0.010593220338983056"/><circle data-type="circle" data-label="" data-x="3.2828282828282833" data-y="-3.2828282828282824" cx="821.8989898989898" cy="821.8989898989898" r="28.791999999999987" fill="rgba(0,0,0,0.3)" stroke="black" stroke-width="0.010593220338983056"/><circle data-type="circle" data-label="" data-x="0.5555555555555567" data-y="1.1616161616161622" cx="564.4444444444445" cy="402.3434343434344" r="28.791999999999987" fill="rgba(0,0,0,0.3)" stroke="black" stroke-width="0.010593220338983056"/><circle data-type="circle" data-label="" data-x="-3.98989898989899" data-y="-0.8585858585858579" cx="135.35353535353545" cy="593.0505050505051" r="28.791999999999987" fill="rgba(0,0,0,0.3)" stroke="black" stroke-width="0.010593220338983056"/><circle data-type="circle" data-label="" data-x="-3.98989898989899" data-y="-2.3737373737373733" cx="135.35353535353545" cy="736.0808080808081" r="28.791999999999987" fill="rgba(0,0,0,0.3)" stroke="black" stroke-width="0.010593220338983056"/><g id="crosshair" style="display: none"><line id="crosshair-h" y1="0" y2="1024" stroke="#666" stroke-width="0.5"/><line id="crosshair-v" x1="0" x2="1024" stroke="#666" stroke-width="0.5"/><text id="coordinates" font-family="monospace" font-size="12" fill="#666"></text></g><script><![CDATA[
              document.currentScript.parentElement.addEventListener('mousemove', (e) => {
                const svg = e.currentTarget;
                const rect = svg.getBoundingClientRect();
                const x = e.clientX - rect.left;
                const y = e.clientY - rect.top;
                const crosshair = svg.getElementById('crosshair');
                const h = svg.getElementById('crosshair-h');
                const v = svg.getElementById('crosshair-v');
                const coords = svg.getElementById('coordinates');
                
                crosshair.style.display = 'block';
                h.setAttribute('x1', '0');
                h.setAttribute('x2', '1024');
                h.setAttribute('y1', y);
                h.setAttribute('y2', y);
                v.setAttribute('x1', x);
                v.setAttribute('x2', x);
                v.setAttribute('y1', '0');
                v.setAttribute('y2', '1024');

                // Calculate real coordinates using inverse transformation
                const matrix = {"a":94.39999999999996,"c":0,"e":511.99999999999994,"b":0,"d":-94.39999999999996,"f":512.0000000000001};
                // Manually invert and apply the affine transform
                // Since we only use translate and scale, we can directly compute:
                // x' = (x - tx) / sx
                // y' = (y - ty) / sy
                const sx = matrix.a;
                const sy = matrix.d;
                const tx = matrix.e; 
                const ty = matrix.f;
                const realPoint = {
                  x: (x - tx) / sx,
                  y: (y - ty) / sy // Flip y back since we used negative scale
                }
                
                coords.textContent = `(${realPoint.x.toFixed(2)}, ${realPoint.y.toFixed(2)})`;
                coords.setAttribute('x', (x + 5).toString());
                coords.setAttribute('y', (y - 5).toString());
              });
              document.currentScript.parentElement.addEventListener('mouseleave', () => {
                document.currentScript.parentElement.getElementById('crosshair').style.display = 'none';
              });
            ]]></script></svg>