<svg width="1024" height="1024" viewBox="0 0 1024 1024" xmlns="http://www.w3.org/2000/svg"><rect width="100%" height="100%" fill="white"/><g><circle data-type="point" data-label="conn_000" data-x="1.08" data-y="-5" cx="613.9519999999999" cy="984" r="28.792" fill="blue" stroke="#bd0f0f" stroke-width="28.792"/></g><g><circle data-type="point" data-label="conn_000" data-x="-4.36" data-y="5" cx="100.41600000000005" cy="40.000000000000284" r="28.792" fill="blue" stroke="#bd0f0f" stroke-width="28.792"/></g><g><circle data-type="point" data-label="conn_001" data-x="3.64" data-y="-5" cx="855.6159999999998" cy="984" r="28.792" fill="red" stroke="#0fbd42" stroke-width="28.792"/></g><g><circle data-type="point" data-label="conn_001" data-x="-2.36" data-y="5" cx="289.216" cy="40.000000000000284" r="28.792" fill="red" stroke="#0fbd42" stroke-width="28.792"/></g><g><circle data-type="point" data-label="conn_002" data-x="-5" data-y="-1.2" cx="40.000000000000114" cy="625.2800000000001" r="28.792" fill="blue" stroke="#740fbd" stroke-width="28.792"/></g><g><circle data-type="point" data-label="conn_002" data-x="5" data-y="-1.46" cx="983.9999999999998" cy="649.8240000000001" r="28.792" fill="blue" stroke="#740fbd" stroke-width="28.792"/></g><g><polyline data-points="3.6868686868686877,-5.000000000000001 3.5858585858585874,-4.898989898989899 3.4848484848484866,-4.7979797979797985 3.383838383838384,-4.696969696969697 3.2828282828282833,-4.595959595959596 3.181818181818183,-4.494949494949496 3.080808080808082,-4.393939393939394 2.9797979797979806,-4.292929292929293 2.87878787878788,-4.191919191919193 2.7777777777777786,-4.090909090909091 2.676767676767678,-3.98989898989899 2.575757575757577,-3.8888888888888884 2.4747474747474754,-3.7878787878787876 2.373737373737375,-3.6868686868686864 2.2727272727272734,-3.5858585858585856 2.1717171717171726,-3.484848484848485 2.070707070707072,-3.383838383838383 1.9696969696969702,-3.2828282828282824 1.8686868686868696,-3.1818181818181817 1.767676767676768,-3.0808080808080804 1.6666666666666674,-2.9797979797979792 1.5656565656565666,-2.8787878787878785 1.4646464646464652,-2.7777777777777777 1.3636363636363644,-2.6767676767676765 1.262626262626263,-2.5757575757575752 1.1616161616161622,-2.474747474747474 1.0606060606060617,-2.3737373737373733 0.9595959595959602,-2.2727272727272725 0.8585858585858596,-2.1717171717171713 0.7575757575757579,-2.07070707070707 0.6565656565656574,-1.9696969696969693 0.5555555555555567,-1.8686868686868683 0.4545454545454551,-1.7676767676767675 0.3535353535353544,-1.6666666666666665 0.2525252525252529,-1.5656565656565653 0.1515151515151522,-1.4646464646464643 0.050505050505051545,-1.363636363636363 -0.05050505050505001,-1.2626262626262625 -0.15151515151515066,-1.1616161616161613 -0.2525252525252522,-1.0606060606060603 -0.35353535353535287,-0.9595959595959596 -0.4545454545454544,-0.8585858585858579 -0.555555555555555,-0.7575757575757572 -0.6565656565656557,-0.6565656565656557 -0.7575757575757572,-0.555555555555555 -0.8585858585858579,-0.4545454545454544 -0.9595959595959596,-0.35353535353535287 -1.0606060606060603,-0.2525252525252522 -1.1616161616161613,-0.15151515151515066 -1.2626262626262625,-0.05050505050505001 -1.363636363636363,0.050505050505051545 -1.4646464646464643,0.1515151515151522 -1.5656565656565653,0.2525252525252529 -1.6666666666666665,0.3535353535353544 -1.7676767676767675,0.4545454545454551 -1.8686868686868683,0.5555555555555567 -1.9696969696969693,0.6565656565656574 -2.07070707070707,0.7575757575757579 -2.1717171717171713,0.8585858585858596 -2.2727272727272725,0.9595959595959602 -2.3737373737373733,1.0606060606060617 -2.3737373737373733,1.1616161616161622 -2.3737373737373733,1.262626262626263 -2.3737373737373733,1.3636363636363644 -2.3737373737373733,1.4646464646464652 -2.3737373737373733,1.5656565656565666 -2.3737373737373733,1.6666666666666674 -2.3737373737373733,1.767676767676768 -2.3737373737373733,1.8686868686868696 -2.3737373737373733,1.9696969696969702 -2.3737373737373733,2.070707070707072 -2.3737373737373733,2.1717171717171726 -2.3737373737373733,2.2727272727272734 -2.3737373737373733,2.373737373737375 -2.3737373737373733,2.4747474747474754 -2.3737373737373733,2.575757575757577 -2.3737373737373733,2.676767676767678 -2.3737373737373733,2.7777777777777786 -2.3737373737373733,2.87878787878788 -2.3737373737373733,2.9797979797979806 -2.3737373737373733,3.080808080808082 -2.3737373737373733,3.181818181818183 -2.3737373737373733,3.2828282828282833 -2.3737373737373733,3.383838383838384 -2.3737373737373733,3.4848484848484866 -2.3737373737373733,3.5858585858585874 -2.3737373737373733,3.6868686868686877 -2.3737373737373733,3.7878787878787885 -2.3737373737373733,3.8888888888888893 -2.3737373737373733,3.989898989898992 -2.3737373737373733,4.090909090909092 -2.3737373737373733,4.191919191919193 -2.3737373737373733,4.292929292929293 -2.3737373737373733,4.393939393939394 -2.3737373737373733,4.494949494949497 -2.3737373737373733,4.595959595959597 -2.3737373737373733,4.696969696969697 -2.3737373737373733,4.7979797979797985 -2.3737373737373733,4.898989898989901 -2.3737373737373733,5.000000000000002" data-type="line" data-label="" points="860.0404040404039,984 850.5050505050505,974.4646464646464 840.969696969697,964.9292929292928 831.4343434343433,955.3939393939394 821.8989898989898,945.8585858585858 812.3636363636363,936.3232323232323 802.8282828282828,926.7878787878788 793.2929292929292,917.2525252525252 783.7575757575758,907.7171717171718 774.2222222222222,898.1818181818181 764.6868686868686,888.6464646464647 755.1515151515151,879.1111111111111 745.6161616161615,869.5757575757575 736.0808080808081,860.0404040404039 726.5454545454545,850.5050505050505 717.0101010101009,840.969696969697 707.4747474747475,831.4343434343434 697.9393939393939,821.8989898989898 688.4040404040404,812.3636363636363 678.8686868686868,802.8282828282828 669.3333333333333,793.2929292929292 659.7979797979798,783.7575757575758 650.2626262626262,774.2222222222222 640.7272727272727,764.6868686868687 631.1919191919192,755.1515151515151 621.6565656565656,745.6161616161615 612.1212121212121,736.0808080808081 602.5858585858585,726.5454545454545 593.0505050505051,717.010101010101 583.5151515151515,707.4747474747475 573.9797979797979,697.939393939394 564.4444444444445,688.4040404040404 554.9090909090909,678.8686868686868 545.3737373737374,669.3333333333334 535.8383838383838,659.7979797979798 526.3030303030303,650.2626262626263 516.7676767676768,640.7272727272727 507.2323232323232,631.1919191919193 497.69696969696975,621.6565656565657 488.16161616161617,612.1212121212121 478.62626262626264,602.5858585858587 469.09090909090907,593.0505050505051 459.55555555555554,583.5151515151516 450.0202020202021,573.979797979798 440.4848484848485,564.4444444444445 430.949494949495,554.909090909091 421.4141414141414,545.3737373737374 411.8787878787879,535.838383838384 402.34343434343435,526.3030303030304 392.80808080808083,516.7676767676768 383.2727272727273,507.23232323232327 373.7373737373738,497.69696969696975 364.2020202020202,488.1616161616163 354.6666666666667,478.6262626262627 345.13131313131316,469.0909090909092 335.59595959595964,459.5555555555556 326.0606060606061,450.0202020202021 316.5252525252526,440.4848484848486 306.9898989898991,430.94949494949503 297.4545454545455,421.4141414141415 287.91919191919203,411.87878787878793 287.91919191919203,402.3434343434344 287.91919191919203,392.80808080808094 287.91919191919203,383.27272727272737 287.91919191919203,373.73737373737384 287.91919191919203,364.2020202020203 287.91919191919203,354.66666666666674 287.91919191919203,345.1313131313133 287.91919191919203,335.5959595959597 287.91919191919203,326.06060606060623 287.91919191919203,316.5252525252526 287.91919191919203,306.9898989898991 287.91919191919203,297.4545454545456 287.91919191919203,287.91919191919203 287.91919191919203,278.38383838383857 287.91919191919203,268.84848484848493 287.91919191919203,259.3131313131314 287.91919191919203,249.77777777777794 287.91919191919203,240.24242424242436 287.91919191919203,230.70707070707084 287.91919191919203,221.17171717171726 287.91919191919203,211.63636363636374 287.91919191919203,202.10101010101027 287.91919191919203,192.56565656565675 287.91919191919203,183.03030303030312 287.91919191919203,173.4949494949496 287.91919191919203,163.95959595959613 287.91919191919203,154.4242424242426 287.91919191919203,144.88888888888908 287.91919191919203,135.35353535353545 287.91919191919203,125.81818181818198 287.91919191919203,116.28282828282846 287.91919191919203,106.747474747475 287.91919191919203,97.21212121212153 287.91919191919203,87.67676767676778 287.91919191919203,78.14141414141432 287.91919191919203,68.60606060606085 287.91919191919203,59.07070707070733 287.91919191919203,49.53535353535369 287.91919191919203,40.000000000000114" fill="none" stroke="rgba(255,0,0,0.75)" stroke-width="14.159999999999995"/></g><g><polyline data-points="1.0606060606060617,-5.000000000000001 0.9595959595959602,-4.898989898989899 0.8585858585858596,-4.7979797979797985 0.7575757575757579,-4.696969696969697 0.6565656565656574,-4.595959595959596 0.5555555555555567,-4.494949494949496 0.4545454545454551,-4.393939393939394 0.3535353535353544,-4.292929292929293 0.2525252525252529,-4.191919191919193 0.1515151515151522,-4.090909090909091 0.050505050505051545,-3.98989898989899 -0.05050505050505001,-3.8888888888888884 -0.15151515151515066,-3.7878787878787876 -0.2525252525252522,-3.6868686868686864 -0.35353535353535287,-3.5858585858585856 -0.4545454545454544,-3.484848484848485 -0.555555555555555,-3.383838383838383 -0.6565656565656557,-3.2828282828282824 -0.7575757575757572,-3.1818181818181817 -0.8585858585858579,-3.0808080808080804 -0.9595959595959596,-2.9797979797979792 -1.0606060606060603,-2.8787878787878785 -1.1616161616161613,-2.7777777777777777 -1.2626262626262625,-2.6767676767676765 -1.363636363636363,-2.5757575757575752 -1.4646464646464643,-2.474747474747474 -1.5656565656565653,-2.3737373737373733 -1.6666666666666665,-2.2727272727272725 -1.7676767676767675,-2.1717171717171713 -1.8686868686868683,-2.07070707070707 -1.9696969696969693,-1.9696969696969693 -2.07070707070707,-1.8686868686868683 -2.1717171717171713,-1.7676767676767675 -2.2727272727272725,-1.6666666666666665 -2.3737373737373733,-1.5656565656565653 -2.474747474747474,-1.4646464646464643 -2.5757575757575752,-1.363636363636363 -2.6767676767676765,-1.2626262626262625 -2.7777777777777777,-1.1616161616161613 -2.8787878787878785,-1.0606060606060603 -2.9797979797979792,-0.9595959595959596 -3.0808080808080804,-0.8585858585858579 -3.1818181818181817,-0.7575757575757572 -3.2828282828282824,-0.6565656565656557 -3.383838383838383,-0.555555555555555 -3.484848484848485,-0.4545454545454544 -3.5858585858585856,-0.35353535353535287 -3.6868686868686864,-0.2525252525252522 -3.7878787878787876,-0.15151515151515066 -3.8888888888888884,-0.05050505050505001 -3.98989898989899,0.050505050505051545 -4.090909090909091,0.1515151515151522 -4.191919191919193,0.2525252525252529 -4.292929292929293,0.3535353535353544 -4.393939393939394,0.4545454545454551 -4.393939393939394,0.5555555555555567 -4.393939393939394,0.6565656565656574 -4.393939393939394,0.7575757575757579 -4.393939393939394,0.8585858585858596 -4.393939393939394,0.9595959595959602 -4.393939393939394,1.0606060606060617 -4.393939393939394,1.1616161616161622 -4.393939393939394,1.262626262626263 -4.393939393939394,1.3636363636363644 -4.393939393939394,1.4646464646464652 -4.393939393939394,1.5656565656565666 -4.393939393939394,1.6666666666666674 -4.393939393939394,1.767676767676768 -4.393939393939394,1.8686868686868696 -4.393939393939394,1.9696969696969702 -4.393939393939394,2.070707070707072 -4.393939393939394,2.1717171717171726 -4.393939393939394,2.2727272727272734 -4.393939393939394,2.373737373737375 -4.393939393939394,2.4747474747474754 -4.393939393939394,2.575757575757577 -4.393939393939394,2.676767676767678 -4.393939393939394,2.7777777777777786 -4.393939393939394,2.87878787878788 -4.393939393939394,2.9797979797979806 -4.393939393939394,3.080808080808082 -4.393939393939394,3.181818181818183 -4.393939393939394,3.2828282828282833 -4.393939393939394,3.383838383838384 -4.393939393939394,3.4848484848484866 -4.393939393939394,3.5858585858585874 -4.393939393939394,3.6868686868686877 -4.393939393939394,3.7878787878787885 -4.393939393939394,3.8888888888888893 -4.393939393939394,3.989898989898992 -4.393939393939394,4.090909090909092 -4.393939393939394,4.191919191919193 -4.393939393939394,4.292929292929293 -4.393939393939394,4.393939393939394 -4.393939393939394,4.494949494949497 -4.393939393939394,4.595959595959597 -4.393939393939394,4.696969696969697 -4.393939393939394,4.7979797979797985 -4.393939393939394,4.898989898989901 -4.393939393939394,5.000000000000002" data-type="line" data-label="" points="612.1212121212121,984 602.5858585858585,974.4646464646464 593.0505050505051,964.9292929292928 583.5151515151515,955.3939393939394 573.9797979797979,945.8585858585858 564.4444444444445,936.3232323232323 554.9090909090909,926.7878787878788 545.3737373737374,917.2525252525252 535.8383838383838,907.7171717171718 526.3030303030303,898.1818181818181 516.7676767676768,888.6464646464647 507.2323232323232,879.1111111111111 497.69696969696975,869.5757575757575 488.16161616161617,860.0404040404039 478.62626262626264,850.5050505050505 469.09090909090907,840.969696969697 459.55555555555554,831.4343434343434 450.0202020202021,821.8989898989898 440.4848484848485,812.3636363636363 430.949494949495,802.8282828282828 421.4141414141414,793.2929292929292 411.8787878787879,783.7575757575758 402.34343434343435,774.2222222222222 392.80808080808083,764.6868686868687 383.2727272727273,755.1515151515151 373.7373737373738,745.6161616161615 364.2020202020202,736.0808080808081 354.6666666666667,726.5454545454545 345.13131313131316,717.010101010101 335.59595959595964,707.4747474747475 326.0606060606061,697.939393939394 316.5252525252526,688.4040404040404 306.9898989898991,678.8686868686868 297.4545454545455,669.3333333333334 287.91919191919203,659.7979797979798 278.38383838383845,650.2626262626263 268.84848484848493,640.7272727272727 259.3131313131314,631.1919191919193 249.77777777777783,621.6565656565657 240.2424242424243,612.1212121212121 230.70707070707084,602.5858585858587 221.17171717171726,593.0505050505051 211.63636363636374,583.5151515151516 202.10101010101022,573.979797979798 192.5656565656567,564.4444444444445 183.03030303030312,554.909090909091 173.4949494949496,545.3737373737374 163.95959595959607,535.838383838384 154.42424242424255,526.3030303030304 144.88888888888903,516.7676767676768 135.35353535353545,507.23232323232327 125.81818181818193,497.69696969696975 116.28282828282829,488.1616161616163 106.74747474747483,478.6262626262627 97.21212121212136,469.0909090909092 97.21212121212136,459.5555555555556 97.21212121212136,450.0202020202021 97.21212121212136,440.4848484848486 97.21212121212136,430.94949494949503 97.21212121212136,421.4141414141415 97.21212121212136,411.87878787878793 97.21212121212136,402.3434343434344 97.21212121212136,392.80808080808094 97.21212121212136,383.27272727272737 97.21212121212136,373.73737373737384 97.21212121212136,364.2020202020203 97.21212121212136,354.66666666666674 97.21212121212136,345.1313131313133 97.21212121212136,335.5959595959597 97.21212121212136,326.06060606060623 97.21212121212136,316.5252525252526 97.21212121212136,306.9898989898991 97.21212121212136,297.4545454545456 97.21212121212136,287.91919191919203 97.21212121212136,278.38383838383857 97.21212121212136,268.84848484848493 97.21212121212136,259.3131313131314 97.21212121212136,249.77777777777794 97.21212121212136,240.24242424242436 97.21212121212136,230.70707070707084 97.21212121212136,221.17171717171726 97.21212121212136,211.63636363636374 97.21212121212136,202.10101010101027 97.21212121212136,192.56565656565675 97.21212121212136,183.03030303030312 97.21212121212136,173.4949494949496 97.21212121212136,163.95959595959613 97.21212121212136,154.4242424242426 97.21212121212136,144.88888888888908 97.21212121212136,135.35353535353545 97.21212121212136,125.81818181818198 97.21212121212136,116.28282828282846 97.21212121212136,106.747474747475 97.21212121212136,97.21212121212153 97.21212121212136,87.67676767676778 97.21212121212136,78.14141414141432 97.21212121212136,68.60606060606085 97.21212121212136,59.07070707070733 97.21212121212136,49.53535353535369 97.21212121212136,40.000000000000114" fill="none" stroke="rgba(0,0,255,0.75)" stroke-width="14.159999999999995"/></g><g><polyline data-points="-5.000000000000001,-1.2626262626262625 -4.898989898989899,-1.363636363636363 -4.7979797979797985,-1.4646464646464643 -4.696969696969697,-1.4646464646464643 -4.595959595959596,-1.4646464646464643 -4.494949494949496,-1.4646464646464643 -4.393939393939394,-1.4646464646464643 -4.292929292929293,-1.4646464646464643 -4.191919191919193,-1.4646464646464643 -4.090909090909091,-1.4646464646464643 -3.98989898989899,-1.4646464646464643 -3.8888888888888884,-1.4646464646464643 -3.7878787878787876,-1.4646464646464643 -3.6868686868686864,-1.4646464646464643 -3.5858585858585856,-1.4646464646464643 -3.484848484848485,-1.4646464646464643 -3.383838383838383,-1.4646464646464643 -3.2828282828282824,-1.4646464646464643" data-type="line" data-label="" points="40.00000000000006,631.1919191919193 49.53535353535369,640.7272727272727 59.07070707070716,650.2626262626263 68.60606060606068,650.2626262626263 78.14141414141426,650.2626262626263 87.67676767676772,650.2626262626263 97.21212121212136,650.2626262626263 106.74747474747483,650.2626262626263 116.28282828282829,650.2626262626263 125.81818181818193,650.2626262626263 135.35353535353545,650.2626262626263 144.88888888888903,650.2626262626263 154.42424242424255,650.2626262626263 163.95959595959607,650.2626262626263 173.4949494949496,650.2626262626263 183.03030303030312,650.2626262626263 192.5656565656567,650.2626262626263 202.10101010101022,650.2626262626263" fill="none" stroke="rgba(0,0,255,0.75)" stroke-width="14.159999999999995"/></g><g><polyline data-points="-3.2828282828282824,-1.4646464646464643 -3.1818181818181817,-1.4646464646464643 -3.0808080808080804,-1.4646464646464643 -2.9797979797979792,-1.4646464646464643 -2.8787878787878785,-1.4646464646464643 -2.7777777777777777,-1.4646464646464643 -2.6767676767676765,-1.4646464646464643 -2.5757575757575752,-1.4646464646464643 -2.474747474747474,-1.4646464646464643 -2.3737373737373733,-1.4646464646464643 -2.2727272727272725,-1.4646464646464643 -2.1717171717171713,-1.4646464646464643 -2.07070707070707,-1.4646464646464643 -1.9696969696969693,-1.4646464646464643 -1.8686868686868683,-1.4646464646464643 -1.7676767676767675,-1.4646464646464643 -1.6666666666666665,-1.4646464646464643 -1.5656565656565653,-1.4646464646464643 -1.4646464646464643,-1.4646464646464643 -1.363636363636363,-1.4646464646464643 -1.2626262626262625,-1.4646464646464643 -1.1616161616161613,-1.4646464646464643 -1.0606060606060603,-1.4646464646464643 -0.9595959595959596,-1.4646464646464643 -0.8585858585858579,-1.4646464646464643 -0.7575757575757572,-1.4646464646464643 -0.6565656565656557,-1.4646464646464643" data-type="line" data-label="" points="202.10101010101022,650.2626262626263 211.63636363636374,650.2626262626263 221.17171717171726,650.2626262626263 230.70707070707084,650.2626262626263 240.2424242424243,650.2626262626263 249.77777777777783,650.2626262626263 259.3131313131314,650.2626262626263 268.84848484848493,650.2626262626263 278.38383838383845,650.2626262626263 287.91919191919203,650.2626262626263 297.4545454545455,650.2626262626263 306.9898989898991,650.2626262626263 316.5252525252526,650.2626262626263 326.0606060606061,650.2626262626263 335.59595959595964,650.2626262626263 345.13131313131316,650.2626262626263 354.6666666666667,650.2626262626263 364.2020202020202,650.2626262626263 373.7373737373738,650.2626262626263 383.2727272727273,650.2626262626263 392.80808080808083,650.2626262626263 402.34343434343435,650.2626262626263 411.8787878787879,650.2626262626263 421.4141414141414,650.2626262626263 430.949494949495,650.2626262626263 440.4848484848485,650.2626262626263 450.0202020202021,650.2626262626263" fill="none" stroke="rgba(255,0,0,0.75)" stroke-width="14.159999999999995"/></g><g><polyline data-points="-0.6565656565656557,-1.4646464646464643 -0.555555555555555,-1.4646464646464643 -0.4545454545454544,-1.4646464646464643 -0.35353535353535287,-1.4646464646464643 -0.2525252525252522,-1.4646464646464643 -0.15151515151515066,-1.4646464646464643 -0.05050505050505001,-1.4646464646464643 0.050505050505051545,-1.4646464646464643 0.1515151515151522,-1.4646464646464643 0.2525252525252529,-1.4646464646464643 0.3535353535353544,-1.4646464646464643 0.4545454545454551,-1.4646464646464643 0.5555555555555567,-1.4646464646464643 0.6565656565656574,-1.4646464646464643 0.7575757575757579,-1.4646464646464643 0.8585858585858596,-1.4646464646464643 0.9595959595959602,-1.4646464646464643 1.0606060606060617,-1.4646464646464643 1.1616161616161622,-1.4646464646464643 1.262626262626263,-1.4646464646464643 1.3636363636363644,-1.4646464646464643 1.4646464646464652,-1.4646464646464643 1.5656565656565666,-1.4646464646464643 1.6666666666666674,-1.4646464646464643 1.767676767676768,-1.4646464646464643 1.8686868686868696,-1.4646464646464643 1.9696969696969702,-1.4646464646464643 2.070707070707072,-1.4646464646464643 2.1717171717171726,-1.4646464646464643 2.2727272727272734,-1.4646464646464643 2.373737373737375,-1.4646464646464643 2.4747474747474754,-1.4646464646464643 2.575757575757577,-1.4646464646464643 2.676767676767678,-1.4646464646464643 2.7777777777777786,-1.4646464646464643 2.87878787878788,-1.4646464646464643 2.9797979797979806,-1.4646464646464643 3.080808080808082,-1.4646464646464643 3.181818181818183,-1.4646464646464643 3.2828282828282833,-1.4646464646464643 3.383838383838384,-1.4646464646464643 3.4848484848484866,-1.4646464646464643 3.5858585858585874,-1.4646464646464643 3.6868686868686877,-1.4646464646464643 3.7878787878787885,-1.4646464646464643 3.8888888888888893,-1.4646464646464643 3.989898989898992,-1.4646464646464643 4.090909090909092,-1.4646464646464643 4.191919191919193,-1.4646464646464643 4.292929292929293,-1.4646464646464643 4.393939393939394,-1.4646464646464643 4.494949494949497,-1.4646464646464643 4.595959595959597,-1.4646464646464643 4.696969696969697,-1.4646464646464643 4.7979797979797985,-1.4646464646464643 4.898989898989901,-1.4646464646464643 5.000000000000002,-1.4646464646464643" data-type="line" data-label="" points="450.0202020202021,650.2626262626263 459.55555555555554,650.2626262626263 469.09090909090907,650.2626262626263 478.62626262626264,650.2626262626263 488.16161616161617,650.2626262626263 497.69696969696975,650.2626262626263 507.2323232323232,650.2626262626263 516.7676767676768,650.2626262626263 526.3030303030303,650.2626262626263 535.8383838383838,650.2626262626263 545.3737373737374,650.2626262626263 554.9090909090909,650.2626262626263 564.4444444444445,650.2626262626263 573.9797979797979,650.2626262626263 583.5151515151515,650.2626262626263 593.0505050505051,650.2626262626263 602.5858585858585,650.2626262626263 612.1212121212121,650.2626262626263 621.6565656565656,650.2626262626263 631.1919191919192,650.2626262626263 640.7272727272727,650.2626262626263 650.2626262626262,650.2626262626263 659.7979797979798,650.2626262626263 669.3333333333333,650.2626262626263 678.8686868686868,650.2626262626263 688.4040404040404,650.2626262626263 697.9393939393939,650.2626262626263 707.4747474747475,650.2626262626263 717.0101010101009,650.2626262626263 726.5454545454545,650.2626262626263 736.0808080808081,650.2626262626263 745.6161616161615,650.2626262626263 755.1515151515151,650.2626262626263 764.6868686868686,650.2626262626263 774.2222222222222,650.2626262626263 783.7575757575758,650.2626262626263 793.2929292929292,650.2626262626263 802.8282828282828,650.2626262626263 812.3636363636363,650.2626262626263 821.8989898989898,650.2626262626263 831.4343434343433,650.2626262626263 840.969696969697,650.2626262626263 850.5050505050505,650.2626262626263 860.0404040404039,650.2626262626263 869.5757575757575,650.2626262626263 879.111111111111,650.2626262626263 888.6464646464647,650.2626262626263 898.181818181818,650.2626262626263 907.7171717171716,650.2626262626263 917.2525252525251,650.2626262626263 926.7878787878785,650.2626262626263 936.3232323232323,650.2626262626263 945.8585858585857,650.2626262626263 955.3939393939393,650.2626262626263 964.9292929292927,650.2626262626263 974.4646464646464,650.2626262626263 984,650.2626262626263" fill="none" stroke="rgba(0,0,255,0.75)" stroke-width="14.159999999999995"/></g><g><rect data-type="rect" data-label="" data-x="0" data-y="0" x="40.000000000000114" y="40.000000000000284" width="943.9999999999997" height="943.9999999999998" fill="none" stroke="gray" stroke-width="0.010593220338983056"/></g><g><rect data-type="rect" data-label="" data-x="0" data-y="0" x="40.000000000000114" y="40.000000000000284" width="943.9999999999997" height="943.9999999999998" fill="none" stroke="rgba(15, 23, 42, 0.8)" stroke-width="0.010593220338983056"/></g><circle data-type="circle" data-label="" data-x="-3.2828282828282824" data-y="-1.4646464646464643" cx="202.10101010101022" cy="650.2626262626263" r="28.791999999999987" fill="rgba(0,0,0,0.3)" stroke="black" stroke-width="0.010593220338983056"/><circle data-type="circle" data-label="" data-x="-0.6565656565656557" data-y="-1.4646464646464643" cx="450.0202020202021" cy="650.2626262626263" r="28.791999999999987" fill="rgba(0,0,0,0.3)" stroke="black" stroke-width="0.010593220338983056"/><g id="crosshair" style="display: none"><line id="crosshair-h" y1="0" y2="1024" stroke="#666" stroke-width="0.5"/><line id="crosshair-v" x1="0" x2="1024" stroke="#666" stroke-width="0.5"/><text id="coordinates" font-family="monospace" font-size="12" fill="#666"></text></g><script><![CDATA[
              document.currentScript.parentElement.addEventListener('mousemove', (e) => {
                const svg = e.currentTarget;
                const rect = svg.getBoundingClientRect();
                const x = e.clientX - rect.left;
                const y = e.clientY - rect.top;
                const crosshair = svg.getElementById('crosshair');
                const h = svg.getElementById('crosshair-h');
                const v = svg.getElementById('crosshair-v');
                const coords = svg.getElementById('coordinates');
                
                crosshair.style.display = 'block';
                h.setAttribute('x1', '0');
                h.setAttribute('x2', '1024');
                h.setAttribute('y1', y);
                h.setAttribute('y2', y);
                v.setAttribute('x1', x);
                v.setAttribute('x2', x);
                v.setAttribute('y1', '0');
                v.setAttribute('y2', '1024');

                // Calculate real coordinates using inverse transformation
                const matrix = {"a":94.39999999999996,"c":0,"e":511.99999999999994,"b":0,"d":-94.39999999999996,"f":512.0000000000001};
                // Manually invert and apply the affine transform
                // Since we only use translate and scale, we can directly compute:
                // x' = (x - tx) / sx
                // y' = (y - ty) / sy
                const sx = matrix.a;
                const sy = matrix.d;
                const tx = matrix.e; 
                const ty = matrix.f;
                const realPoint = {
                  x: (x - tx) / sx,
                  y: (y - ty) / sy // Flip y back since we used negative scale
                }
                
                coords.textContent = `(${realPoint.x.toFixed(2)}, ${realPoint.y.toFixed(2)})`;
                coords.setAttribute('x', (x + 5).toString());
                coords.setAttribute('y', (y - 5).toString());
              });
              document.currentScript.parentElement.addEventListener('mouseleave', () => {
                document.currentScript.parentElement.getElementById('crosshair').style.display = 'none';
              });
            ]]></script></svg>