<svg width="1024" height="1024" viewBox="0 0 1024 1024" xmlns="http://www.w3.org/2000/svg"><rect width="100%" height="100%" fill="white"/><g><circle data-type="point" data-label="conn_000" data-x="-5" data-y="-2.04" cx="40.000000000000114" cy="704.576" r="28.792" fill="red" stroke="#bd0f6d" stroke-width="28.792"/></g><g><circle data-type="point" data-label="conn_000" data-x="-5" data-y="0.4" cx="40.000000000000114" cy="474.2400000000001" r="28.792" fill="red" stroke="#bd0f6d" stroke-width="28.792"/></g><g><circle data-type="point" data-label="conn_001" data-x="-3.68" data-y="5" cx="164.60800000000006" cy="40.000000000000284" r="28.792" fill="red" stroke="#3bbd0f" stroke-width="28.792"/></g><g><circle data-type="point" data-label="conn_001" data-x="-2.02" data-y="-5" cx="321.312" cy="984" r="28.792" fill="blue" stroke="#3bbd0f" stroke-width="28.792"/></g><g><circle data-type="point" data-label="conn_002" data-x="5" data-y="0.74" cx="983.9999999999998" cy="442.1440000000001" r="28.792" fill="red" stroke="#170fbd" stroke-width="28.792"/></g><g><circle data-type="point" data-label="conn_002" data-x="5" data-y="2.52" cx="983.9999999999998" cy="274.1120000000002" r="28.792" fill="blue" stroke="#170fbd" stroke-width="28.792"/></g><g><circle data-type="point" data-label="conn_003" data-x="1.94" data-y="5" cx="695.1359999999999" cy="40.000000000000284" r="28.792" fill="blue" stroke="#bd490f" stroke-width="28.792"/></g><g><circle data-type="point" data-label="conn_003" data-x="4.18" data-y="-5" cx="906.5919999999998" cy="984" r="28.792" fill="blue" stroke="#bd490f" stroke-width="28.792"/></g><g><circle data-type="point" data-label="conn_004" data-x="-5" data-y="3.52" cx="40.000000000000114" cy="179.71200000000022" r="28.792" fill="red" stroke="#0fbd7c" stroke-width="28.792"/></g><g><circle data-type="point" data-label="conn_004" data-x="5" data-y="-1.58" cx="983.9999999999998" cy="661.152" r="28.792" fill="red" stroke="#0fbd7c" stroke-width="28.792"/></g><g><circle data-type="point" data-label="conn_005" data-x="5" data-y="3.2600000000000002" cx="983.9999999999998" cy="204.2560000000002" r="28.792" fill="blue" stroke="#ae0fbd" stroke-width="28.792"/></g><g><circle data-type="point" data-label="conn_005" data-x="-5" data-y="2.86" cx="40.000000000000114" cy="242.01600000000025" r="28.792" fill="blue" stroke="#ae0fbd" stroke-width="28.792"/></g><g><circle data-type="point" data-label="conn_006" data-x="-1.3" data-y="-5" cx="389.28" cy="984" r="28.792" fill="blue" stroke="#98bd0f" stroke-width="28.792"/></g><g><circle data-type="point" data-label="conn_006" data-x="-5" data-y="1.78" cx="40.000000000000114" cy="343.9680000000002" r="28.792" fill="blue" stroke="#98bd0f" stroke-width="28.792"/></g><g><polyline data-points="-1.2626262626262625,-5.000000000000001 -1.363636363636363,-4.898989898989899 -1.4646464646464643,-4.7979797979797985 -1.5656565656565653,-4.696969696969697 -1.6666666666666665,-4.595959595959596 -1.7676767676767675,-4.494949494949496 -1.8686868686868683,-4.393939393939394 -1.9696969696969693,-4.292929292929293 -2.07070707070707,-4.191919191919193 -2.1717171717171713,-4.090909090909091 -2.2727272727272725,-3.98989898989899 -2.3737373737373733,-3.8888888888888884 -2.474747474747474,-3.7878787878787876 -2.5757575757575752,-3.6868686868686864 -2.6767676767676765,-3.5858585858585856 -2.7777777777777777,-3.484848484848485 -2.8787878787878785,-3.383838383838383 -2.9797979797979792,-3.2828282828282824 -3.0808080808080804,-3.1818181818181817 -3.1818181818181817,-3.0808080808080804 -3.2828282828282824,-2.9797979797979792 -3.383838383838383,-2.8787878787878785 -3.484848484848485,-2.7777777777777777 -3.5858585858585856,-2.6767676767676765 -3.6868686868686864,-2.5757575757575752 -3.7878787878787876,-2.474747474747474 -3.8888888888888884,-2.3737373737373733 -3.98989898989899,-2.2727272727272725 -4.090909090909091,-2.1717171717171713 -4.191919191919193,-2.07070707070707 -4.292929292929293,-1.9696969696969693 -4.393939393939394,-1.8686868686868683 -4.494949494949496,-1.7676767676767675 -4.595959595959596,-1.6666666666666665 -4.696969696969697,-1.5656565656565653 -4.7979797979797985,-1.4646464646464643 -4.898989898989899,-1.363636363636363 -5.000000000000001,-1.2626262626262625 -5.000000000000001,-1.1616161616161613 -5.000000000000001,-1.0606060606060603 -5.000000000000001,-0.9595959595959596 -5.000000000000001,-0.8585858585858579 -5.000000000000001,-0.7575757575757572 -5.000000000000001,-0.6565656565656557 -5.000000000000001,-0.555555555555555 -5.000000000000001,-0.4545454545454544 -5.000000000000001,-0.35353535353535287 -5.000000000000001,-0.2525252525252522 -5.000000000000001,-0.15151515151515066 -5.000000000000001,-0.05050505050505001 -5.000000000000001,0.050505050505051545 -5.000000000000001,0.1515151515151522 -5.000000000000001,0.2525252525252529 -5.000000000000001,0.3535353535353544 -5.000000000000001,0.4545454545454551 -5.000000000000001,0.5555555555555567 -5.000000000000001,0.6565656565656574 -5.000000000000001,0.7575757575757579 -5.000000000000001,0.8585858585858596 -5.000000000000001,0.9595959595959602 -5.000000000000001,1.0606060606060617 -5.000000000000001,1.1616161616161622 -5.000000000000001,1.262626262626263 -5.000000000000001,1.3636363636363644 -5.000000000000001,1.4646464646464652 -5.000000000000001,1.5656565656565666 -5.000000000000001,1.6666666666666674 -5.000000000000001,1.767676767676768" data-type="line" data-label="" points="392.80808080808083,984 383.2727272727273,974.4646464646464 373.7373737373738,964.9292929292928 364.2020202020202,955.3939393939394 354.6666666666667,945.8585858585858 345.13131313131316,936.3232323232323 335.59595959595964,926.7878787878788 326.0606060606061,917.2525252525252 316.5252525252526,907.7171717171718 306.9898989898991,898.1818181818181 297.4545454545455,888.6464646464647 287.91919191919203,879.1111111111111 278.38383838383845,869.5757575757575 268.84848484848493,860.0404040404039 259.3131313131314,850.5050505050505 249.77777777777783,840.969696969697 240.2424242424243,831.4343434343434 230.70707070707084,821.8989898989898 221.17171717171726,812.3636363636363 211.63636363636374,802.8282828282828 202.10101010101022,793.2929292929292 192.5656565656567,783.7575757575758 183.03030303030312,774.2222222222222 173.4949494949496,764.6868686868687 163.95959595959607,755.1515151515151 154.42424242424255,745.6161616161615 144.88888888888903,736.0808080808081 135.35353535353545,726.5454545454545 125.81818181818193,717.010101010101 116.28282828282829,707.4747474747475 106.74747474747483,697.939393939394 97.21212121212136,688.4040404040404 87.67676767676772,678.8686868686868 78.14141414141426,669.3333333333334 68.60606060606068,659.7979797979798 59.07070707070716,650.2626262626263 49.53535353535369,640.7272727272727 40.00000000000006,631.1919191919193 40.00000000000006,621.6565656565657 40.00000000000006,612.1212121212121 40.00000000000006,602.5858585858587 40.00000000000006,593.0505050505051 40.00000000000006,583.5151515151516 40.00000000000006,573.979797979798 40.00000000000006,564.4444444444445 40.00000000000006,554.909090909091 40.00000000000006,545.3737373737374 40.00000000000006,535.838383838384 40.00000000000006,526.3030303030304 40.00000000000006,516.7676767676768 40.00000000000006,507.23232323232327 40.00000000000006,497.69696969696975 40.00000000000006,488.1616161616163 40.00000000000006,478.6262626262627 40.00000000000006,469.0909090909092 40.00000000000006,459.5555555555556 40.00000000000006,450.0202020202021 40.00000000000006,440.4848484848486 40.00000000000006,430.94949494949503 40.00000000000006,421.4141414141415 40.00000000000006,411.87878787878793 40.00000000000006,402.3434343434344 40.00000000000006,392.80808080808094 40.00000000000006,383.27272727272737 40.00000000000006,373.73737373737384 40.00000000000006,364.2020202020203 40.00000000000006,354.66666666666674 40.00000000000006,345.1313131313133" fill="none" stroke="rgba(0,0,255,0.75)" stroke-width="14.159999999999995"/></g><g><polyline data-points="5.000000000000002,0.7575757575757579 5.000000000000002,0.8585858585858596 5.000000000000002,0.9595959595959602 5.000000000000002,1.0606060606060617 5.000000000000002,1.1616161616161622 5.000000000000002,1.262626262626263 5.000000000000002,1.3636363636363644 5.000000000000002,1.4646464646464652 4.898989898989901,1.5656565656565666 4.7979797979797985,1.6666666666666674 4.696969696969697,1.767676767676768 4.595959595959597,1.8686868686868696 4.494949494949497,1.9696969696969702 4.393939393939394,2.070707070707072 4.292929292929293,2.1717171717171726 4.191919191919193,2.2727272727272734 4.090909090909092,2.373737373737375 3.989898989898992,2.4747474747474754" data-type="line" data-label="" points="984,440.4848484848486 984,430.94949494949503 984,421.4141414141415 984,411.87878787878793 984,402.3434343434344 984,392.80808080808094 984,383.27272727272737 984,373.73737373737384 974.4646464646464,364.2020202020203 964.9292929292927,354.66666666666674 955.3939393939393,345.1313131313133 945.8585858585857,335.5959595959597 936.3232323232323,326.06060606060623 926.7878787878785,316.5252525252526 917.2525252525251,306.9898989898991 907.7171717171716,297.4545454545456 898.181818181818,287.91919191919203 888.6464646464647,278.38383838383857" fill="none" stroke="rgba(255,0,0,0.75)" stroke-width="14.159999999999995"/></g><g><polyline data-points="3.989898989898992,2.4747474747474754 4.090909090909092,2.575757575757577 4.191919191919193,2.575757575757577 4.292929292929293,2.575757575757577 4.393939393939394,2.575757575757577 4.494949494949497,2.575757575757577 4.595959595959597,2.575757575757577 4.696969696969697,2.575757575757577 4.7979797979797985,2.575757575757577 4.898989898989901,2.575757575757577 5.000000000000002,2.575757575757577" data-type="line" data-label="" points="888.6464646464647,278.38383838383857 898.181818181818,268.84848484848493 907.7171717171716,268.84848484848493 917.2525252525251,268.84848484848493 926.7878787878785,268.84848484848493 936.3232323232323,268.84848484848493 945.8585858585857,268.84848484848493 955.3939393939393,268.84848484848493 964.9292929292927,268.84848484848493 974.4646464646464,268.84848484848493 984,268.84848484848493" fill="none" stroke="rgba(0,0,255,0.75)" stroke-width="14.159999999999995"/></g><g><polyline data-points="1.9696969696969702,5.000000000000002 2.070707070707072,4.898989898989901 2.1717171717171726,4.7979797979797985 2.2727272727272734,4.696969696969697 2.373737373737375,4.595959595959597 2.4747474747474754,4.494949494949497 2.575757575757577,4.393939393939394 2.676767676767678,4.292929292929293 2.7777777777777786,4.191919191919193 2.87878787878788,4.090909090909092 2.9797979797979806,3.989898989898992 3.080808080808082,3.8888888888888893 3.181818181818183,3.7878787878787885 3.2828282828282833,3.6868686868686877 3.383838383838384,3.5858585858585874 3.4848484848484866,3.4848484848484866 3.4848484848484866,3.383838383838384 3.4848484848484866,3.2828282828282833 3.4848484848484866,3.181818181818183 3.4848484848484866,3.080808080808082 3.4848484848484866,2.9797979797979806 3.4848484848484866,2.87878787878788 3.4848484848484866,2.7777777777777786 3.4848484848484866,2.676767676767678 3.4848484848484866,2.575757575757577 3.4848484848484866,2.4747474747474754 3.5858585858585874,2.373737373737375 3.5858585858585874,2.2727272727272734 3.6868686868686877,2.1717171717171726 3.7878787878787885,2.070707070707072 3.8888888888888893,1.9696969696969702 3.989898989898992,1.8686868686868696 4.090909090909092,1.767676767676768 4.191919191919193,1.6666666666666674 4.191919191919193,1.5656565656565666 4.191919191919193,1.4646464646464652 4.191919191919193,1.3636363636363644 4.191919191919193,1.262626262626263 4.191919191919193,1.1616161616161622 4.191919191919193,1.0606060606060617 4.191919191919193,0.9595959595959602 4.191919191919193,0.8585858585858596 4.191919191919193,0.7575757575757579 4.191919191919193,0.6565656565656574 4.191919191919193,0.5555555555555567 4.191919191919193,0.4545454545454551 4.191919191919193,0.3535353535353544 4.191919191919193,0.2525252525252529 4.191919191919193,0.1515151515151522 4.191919191919193,0.050505050505051545 4.191919191919193,-0.05050505050505001 4.191919191919193,-0.15151515151515066 4.191919191919193,-0.2525252525252522 4.191919191919193,-0.35353535353535287 4.191919191919193,-0.4545454545454544 4.191919191919193,-0.555555555555555 4.191919191919193,-0.6565656565656557 4.191919191919193,-0.7575757575757572 4.191919191919193,-0.8585858585858579 4.191919191919193,-0.9595959595959596 4.191919191919193,-1.0606060606060603 4.191919191919193,-1.1616161616161613 4.191919191919193,-1.2626262626262625 4.191919191919193,-1.363636363636363 4.191919191919193,-1.4646464646464643 4.191919191919193,-1.5656565656565653 4.191919191919193,-1.6666666666666665 4.191919191919193,-1.7676767676767675 4.191919191919193,-1.8686868686868683 4.191919191919193,-1.9696969696969693 4.191919191919193,-2.07070707070707 4.191919191919193,-2.1717171717171713 4.191919191919193,-2.2727272727272725 4.191919191919193,-2.3737373737373733 4.191919191919193,-2.474747474747474 4.191919191919193,-2.5757575757575752 4.191919191919193,-2.6767676767676765 4.191919191919193,-2.7777777777777777 4.191919191919193,-2.8787878787878785 4.191919191919193,-2.9797979797979792 4.191919191919193,-3.0808080808080804 4.191919191919193,-3.1818181818181817 4.191919191919193,-3.2828282828282824 4.191919191919193,-3.383838383838383 4.191919191919193,-3.484848484848485 4.191919191919193,-3.5858585858585856 4.191919191919193,-3.6868686868686864 4.191919191919193,-3.7878787878787876 4.191919191919193,-3.8888888888888884 4.191919191919193,-3.98989898989899 4.191919191919193,-4.090909090909091 4.191919191919193,-4.191919191919193 4.191919191919193,-4.292929292929293 4.191919191919193,-4.393939393939394 4.191919191919193,-4.494949494949496 4.191919191919193,-4.595959595959596 4.191919191919193,-4.696969696969697 4.191919191919193,-4.7979797979797985 4.191919191919193,-4.898989898989899 4.191919191919193,-5.000000000000001" data-type="line" data-label="" points="697.9393939393939,40.000000000000114 707.4747474747475,49.53535353535369 717.0101010101009,59.07070707070733 726.5454545454545,68.60606060606085 736.0808080808081,78.14141414141432 745.6161616161615,87.67676767676778 755.1515151515151,97.21212121212153 764.6868686868686,106.747474747475 774.2222222222222,116.28282828282846 783.7575757575758,125.81818181818198 793.2929292929292,135.35353535353545 802.8282828282828,144.88888888888908 812.3636363636363,154.4242424242426 821.8989898989898,163.95959595959613 831.4343434343433,173.4949494949496 840.969696969697,183.03030303030312 840.969696969697,192.56565656565675 840.969696969697,202.10101010101027 840.969696969697,211.63636363636374 840.969696969697,221.17171717171726 840.969696969697,230.70707070707084 840.969696969697,240.24242424242436 840.969696969697,249.77777777777794 840.969696969697,259.3131313131314 840.969696969697,268.84848484848493 840.969696969697,278.38383838383857 850.5050505050505,287.91919191919203 850.5050505050505,297.4545454545456 860.0404040404039,306.9898989898991 869.5757575757575,316.5252525252526 879.111111111111,326.06060606060623 888.6464646464647,335.5959595959597 898.181818181818,345.1313131313133 907.7171717171716,354.66666666666674 907.7171717171716,364.2020202020203 907.7171717171716,373.73737373737384 907.7171717171716,383.27272727272737 907.7171717171716,392.80808080808094 907.7171717171716,402.3434343434344 907.7171717171716,411.87878787878793 907.7171717171716,421.4141414141415 907.7171717171716,430.94949494949503 907.7171717171716,440.4848484848486 907.7171717171716,450.0202020202021 907.7171717171716,459.5555555555556 907.7171717171716,469.0909090909092 907.7171717171716,478.6262626262627 907.7171717171716,488.1616161616163 907.7171717171716,497.69696969696975 907.7171717171716,507.23232323232327 907.7171717171716,516.7676767676768 907.7171717171716,526.3030303030304 907.7171717171716,535.838383838384 907.7171717171716,545.3737373737374 907.7171717171716,554.909090909091 907.7171717171716,564.4444444444445 907.7171717171716,573.979797979798 907.7171717171716,583.5151515151516 907.7171717171716,593.0505050505051 907.7171717171716,602.5858585858587 907.7171717171716,612.1212121212121 907.7171717171716,621.6565656565657 907.7171717171716,631.1919191919193 907.7171717171716,640.7272727272727 907.7171717171716,650.2626262626263 907.7171717171716,659.7979797979798 907.7171717171716,669.3333333333334 907.7171717171716,678.8686868686868 907.7171717171716,688.4040404040404 907.7171717171716,697.939393939394 907.7171717171716,707.4747474747475 907.7171717171716,717.010101010101 907.7171717171716,726.5454545454545 907.7171717171716,736.0808080808081 907.7171717171716,745.6161616161615 907.7171717171716,755.1515151515151 907.7171717171716,764.6868686868687 907.7171717171716,774.2222222222222 907.7171717171716,783.7575757575758 907.7171717171716,793.2929292929292 907.7171717171716,802.8282828282828 907.7171717171716,812.3636363636363 907.7171717171716,821.8989898989898 907.7171717171716,831.4343434343434 907.7171717171716,840.969696969697 907.7171717171716,850.5050505050505 907.7171717171716,860.0404040404039 907.7171717171716,869.5757575757575 907.7171717171716,879.1111111111111 907.7171717171716,888.6464646464647 907.7171717171716,898.1818181818181 907.7171717171716,907.7171717171718 907.7171717171716,917.2525252525252 907.7171717171716,926.7878787878788 907.7171717171716,936.3232323232323 907.7171717171716,945.8585858585858 907.7171717171716,955.3939393939394 907.7171717171716,964.9292929292928 907.7171717171716,974.4646464646464 907.7171717171716,984" fill="none" stroke="rgba(0,0,255,0.75)" stroke-width="14.159999999999995"/></g><g><polyline data-points="-5.000000000000001,3.5858585858585874 -4.898989898989899,3.4848484848484866 -4.7979797979797985,3.383838383838384 -4.696969696969697,3.2828282828282833 -4.595959595959596,3.181818181818183 -4.494949494949496,3.080808080808082 -4.393939393939394,2.9797979797979806 -4.292929292929293,2.87878787878788 -4.191919191919193,2.7777777777777786 -4.090909090909091,2.676767676767678 -3.98989898989899,2.575757575757577 -3.8888888888888884,2.4747474747474754 -3.7878787878787876,2.373737373737375 -3.6868686868686864,2.2727272727272734 -3.5858585858585856,2.1717171717171726 -3.484848484848485,2.070707070707072 -3.383838383838383,1.9696969696969702 -3.2828282828282824,1.8686868686868696 -3.1818181818181817,1.767676767676768 -3.0808080808080804,1.6666666666666674 -2.9797979797979792,1.5656565656565666 -2.8787878787878785,1.4646464646464652 -2.7777777777777777,1.3636363636363644 -2.6767676767676765,1.262626262626263 -2.5757575757575752,1.1616161616161622 -2.474747474747474,1.0606060606060617 -2.3737373737373733,0.9595959595959602 -2.2727272727272725,0.8585858585858596 -2.1717171717171713,0.7575757575757579 -2.07070707070707,0.6565656565656574 -1.9696969696969693,0.5555555555555567 -1.8686868686868683,0.4545454545454551 -1.7676767676767675,0.3535353535353544 -1.6666666666666665,0.2525252525252529 -1.5656565656565653,0.1515151515151522 -1.4646464646464643,0.050505050505051545 -1.363636363636363,-0.05050505050505001 -1.2626262626262625,-0.15151515151515066 -1.1616161616161613,-0.2525252525252522 -1.0606060606060603,-0.35353535353535287 -0.9595959595959596,-0.4545454545454544 -0.8585858585858579,-0.555555555555555 -0.7575757575757572,-0.6565656565656557 -0.6565656565656557,-0.7575757575757572 -0.555555555555555,-0.8585858585858579 -0.4545454545454544,-0.9595959595959596 -0.35353535353535287,-1.0606060606060603 -0.2525252525252522,-1.1616161616161613 -0.15151515151515066,-1.2626262626262625 -0.05050505050505001,-1.363636363636363 0.050505050505051545,-1.4646464646464643 0.1515151515151522,-1.5656565656565653 0.2525252525252529,-1.5656565656565653 0.3535353535353544,-1.5656565656565653 0.4545454545454551,-1.5656565656565653 0.5555555555555567,-1.5656565656565653 0.6565656565656574,-1.5656565656565653 0.7575757575757579,-1.5656565656565653 0.8585858585858596,-1.5656565656565653 0.9595959595959602,-1.5656565656565653 1.0606060606060617,-1.5656565656565653 1.1616161616161622,-1.5656565656565653 1.262626262626263,-1.5656565656565653 1.3636363636363644,-1.5656565656565653 1.4646464646464652,-1.5656565656565653 1.5656565656565666,-1.5656565656565653 1.6666666666666674,-1.5656565656565653 1.767676767676768,-1.5656565656565653 1.8686868686868696,-1.5656565656565653 1.9696969696969702,-1.5656565656565653 2.070707070707072,-1.5656565656565653 2.1717171717171726,-1.5656565656565653 2.2727272727272734,-1.5656565656565653 2.373737373737375,-1.5656565656565653 2.4747474747474754,-1.5656565656565653 2.575757575757577,-1.5656565656565653 2.676767676767678,-1.5656565656565653 2.7777777777777786,-1.5656565656565653 2.87878787878788,-1.5656565656565653 2.9797979797979806,-1.5656565656565653 3.080808080808082,-1.5656565656565653 3.181818181818183,-1.5656565656565653 3.2828282828282833,-1.5656565656565653 3.383838383838384,-1.5656565656565653 3.4848484848484866,-1.5656565656565653 3.5858585858585874,-1.5656565656565653 3.6868686868686877,-1.5656565656565653 3.7878787878787885,-1.5656565656565653 3.8888888888888893,-1.5656565656565653 3.989898989898992,-1.5656565656565653 4.090909090909092,-1.5656565656565653 4.191919191919193,-1.5656565656565653 4.292929292929293,-1.5656565656565653 4.393939393939394,-1.5656565656565653 4.494949494949497,-1.5656565656565653 4.595959595959597,-1.5656565656565653 4.696969696969697,-1.5656565656565653 4.7979797979797985,-1.5656565656565653 4.898989898989901,-1.5656565656565653 5.000000000000002,-1.5656565656565653" data-type="line" data-label="" points="40.00000000000006,173.4949494949496 49.53535353535369,183.03030303030312 59.07070707070716,192.56565656565675 68.60606060606068,202.10101010101027 78.14141414141426,211.63636363636374 87.67676767676772,221.17171717171726 97.21212121212136,230.70707070707084 106.74747474747483,240.24242424242436 116.28282828282829,249.77777777777794 125.81818181818193,259.3131313131314 135.35353535353545,268.84848484848493 144.88888888888903,278.38383838383857 154.42424242424255,287.91919191919203 163.95959595959607,297.4545454545456 173.4949494949496,306.9898989898991 183.03030303030312,316.5252525252526 192.5656565656567,326.06060606060623 202.10101010101022,335.5959595959597 211.63636363636374,345.1313131313133 221.17171717171726,354.66666666666674 230.70707070707084,364.2020202020203 240.2424242424243,373.73737373737384 249.77777777777783,383.27272727272737 259.3131313131314,392.80808080808094 268.84848484848493,402.3434343434344 278.38383838383845,411.87878787878793 287.91919191919203,421.4141414141415 297.4545454545455,430.94949494949503 306.9898989898991,440.4848484848486 316.5252525252526,450.0202020202021 326.0606060606061,459.5555555555556 335.59595959595964,469.0909090909092 345.13131313131316,478.6262626262627 354.6666666666667,488.1616161616163 364.2020202020202,497.69696969696975 373.7373737373738,507.23232323232327 383.2727272727273,516.7676767676768 392.80808080808083,526.3030303030304 402.34343434343435,535.838383838384 411.8787878787879,545.3737373737374 421.4141414141414,554.909090909091 430.949494949495,564.4444444444445 440.4848484848485,573.979797979798 450.0202020202021,583.5151515151516 459.55555555555554,593.0505050505051 469.09090909090907,602.5858585858587 478.62626262626264,612.1212121212121 488.16161616161617,621.6565656565657 497.69696969696975,631.1919191919193 507.2323232323232,640.7272727272727 516.7676767676768,650.2626262626263 526.3030303030303,659.7979797979798 535.8383838383838,659.7979797979798 545.3737373737374,659.7979797979798 554.9090909090909,659.7979797979798 564.4444444444445,659.7979797979798 573.9797979797979,659.7979797979798 583.5151515151515,659.7979797979798 593.0505050505051,659.7979797979798 602.5858585858585,659.7979797979798 612.1212121212121,659.7979797979798 621.6565656565656,659.7979797979798 631.1919191919192,659.7979797979798 640.7272727272727,659.7979797979798 650.2626262626262,659.7979797979798 659.7979797979798,659.7979797979798 669.3333333333333,659.7979797979798 678.8686868686868,659.7979797979798 688.4040404040404,659.7979797979798 697.9393939393939,659.7979797979798 707.4747474747475,659.7979797979798 717.0101010101009,659.7979797979798 726.5454545454545,659.7979797979798 736.0808080808081,659.7979797979798 745.6161616161615,659.7979797979798 755.1515151515151,659.7979797979798 764.6868686868686,659.7979797979798 774.2222222222222,659.7979797979798 783.7575757575758,659.7979797979798 793.2929292929292,659.7979797979798 802.8282828282828,659.7979797979798 812.3636363636363,659.7979797979798 821.8989898989898,659.7979797979798 831.4343434343433,659.7979797979798 840.969696969697,659.7979797979798 850.5050505050505,659.7979797979798 860.0404040404039,659.7979797979798 869.5757575757575,659.7979797979798 879.111111111111,659.7979797979798 888.6464646464647,659.7979797979798 898.181818181818,659.7979797979798 907.7171717171716,659.7979797979798 917.2525252525251,659.7979797979798 926.7878787878785,659.7979797979798 936.3232323232323,659.7979797979798 945.8585858585857,659.7979797979798 955.3939393939393,659.7979797979798 964.9292929292927,659.7979797979798 974.4646464646464,659.7979797979798 984,659.7979797979798" fill="none" stroke="rgba(255,0,0,0.75)" stroke-width="14.159999999999995"/></g><g><polyline data-points="-5.000000000000001,-2.07070707070707 -5.000000000000001,-1.9696969696969693 -5.000000000000001,-1.8686868686868683 -5.000000000000001,-1.7676767676767675 -5.000000000000001,-1.6666666666666665 -5.000000000000001,-1.5656565656565653 -5.000000000000001,-1.4646464646464643 -5.000000000000001,-1.363636363636363 -5.000000000000001,-1.2626262626262625 -5.000000000000001,-1.1616161616161613 -5.000000000000001,-1.0606060606060603 -5.000000000000001,-0.9595959595959596 -5.000000000000001,-0.8585858585858579 -5.000000000000001,-0.7575757575757572 -5.000000000000001,-0.6565656565656557 -5.000000000000001,-0.555555555555555 -5.000000000000001,-0.4545454545454544 -5.000000000000001,-0.35353535353535287 -5.000000000000001,-0.2525252525252522 -5.000000000000001,-0.15151515151515066 -5.000000000000001,-0.05050505050505001 -5.000000000000001,0.050505050505051545 -5.000000000000001,0.1515151515151522 -5.000000000000001,0.2525252525252529 -5.000000000000001,0.3535353535353544 -5.000000000000001,0.4545454545454551" data-type="line" data-label="" points="40.00000000000006,707.4747474747475 40.00000000000006,697.939393939394 40.00000000000006,688.4040404040404 40.00000000000006,678.8686868686868 40.00000000000006,669.3333333333334 40.00000000000006,659.7979797979798 40.00000000000006,650.2626262626263 40.00000000000006,640.7272727272727 40.00000000000006,631.1919191919193 40.00000000000006,621.6565656565657 40.00000000000006,612.1212121212121 40.00000000000006,602.5858585858587 40.00000000000006,593.0505050505051 40.00000000000006,583.5151515151516 40.00000000000006,573.979797979798 40.00000000000006,564.4444444444445 40.00000000000006,554.909090909091 40.00000000000006,545.3737373737374 40.00000000000006,535.838383838384 40.00000000000006,526.3030303030304 40.00000000000006,516.7676767676768 40.00000000000006,507.23232323232327 40.00000000000006,497.69696969696975 40.00000000000006,488.1616161616163 40.00000000000006,478.6262626262627 40.00000000000006,469.0909090909092" fill="none" stroke="rgba(255,0,0,0.75)" stroke-width="14.159999999999995"/></g><g><polyline data-points="5.000000000000002,3.2828282828282833 4.898989898989901,3.2828282828282833 4.7979797979797985,3.2828282828282833 4.696969696969697,3.2828282828282833 4.595959595959597,3.2828282828282833 4.494949494949497,3.2828282828282833 4.393939393939394,3.2828282828282833 4.292929292929293,3.383838383838384 4.191919191919193,3.4848484848484866 4.090909090909092,3.5858585858585874 3.989898989898992,3.6868686868686877" data-type="line" data-label="" points="984,202.10101010101027 974.4646464646464,202.10101010101027 964.9292929292927,202.10101010101027 955.3939393939393,202.10101010101027 945.8585858585857,202.10101010101027 936.3232323232323,202.10101010101027 926.7878787878785,202.10101010101027 917.2525252525251,192.56565656565675 907.7171717171716,183.03030303030312 898.181818181818,173.4949494949496 888.6464646464647,163.95959595959613" fill="none" stroke="rgba(0,0,255,0.75)" stroke-width="14.159999999999995"/></g><g><polyline data-points="3.989898989898992,3.6868686868686877 3.8888888888888893,3.5858585858585874 3.7878787878787885,3.4848484848484866 3.6868686868686877,3.383838383838384 3.5858585858585874,3.2828282828282833 3.4848484848484866,3.181818181818183 3.383838383838384,3.080808080808082 3.2828282828282833,2.9797979797979806 3.181818181818183,2.87878787878788 3.080808080808082,2.87878787878788 2.9797979797979806,2.87878787878788 2.87878787878788,2.87878787878788 2.7777777777777786,2.87878787878788 2.676767676767678,2.87878787878788 2.575757575757577,2.87878787878788 2.4747474747474754,2.87878787878788 2.373737373737375,2.87878787878788 2.2727272727272734,2.87878787878788 2.1717171717171726,2.87878787878788 2.070707070707072,2.87878787878788 1.9696969696969702,2.87878787878788 1.8686868686868696,2.87878787878788 1.767676767676768,2.87878787878788 1.6666666666666674,2.87878787878788 1.5656565656565666,2.87878787878788 1.4646464646464652,2.87878787878788 1.3636363636363644,2.87878787878788 1.262626262626263,2.87878787878788 1.1616161616161622,2.87878787878788 1.0606060606060617,2.87878787878788 0.9595959595959602,2.87878787878788 0.8585858585858596,2.87878787878788 0.7575757575757579,2.87878787878788 0.6565656565656574,2.87878787878788 0.5555555555555567,2.87878787878788 0.4545454545454551,2.87878787878788 0.3535353535353544,2.87878787878788 0.2525252525252529,2.87878787878788 0.1515151515151522,2.87878787878788 0.050505050505051545,2.87878787878788 -0.05050505050505001,2.87878787878788 -0.15151515151515066,2.87878787878788 -0.2525252525252522,2.87878787878788 -0.35353535353535287,2.87878787878788 -0.4545454545454544,2.87878787878788 -0.555555555555555,2.87878787878788 -0.6565656565656557,2.87878787878788 -0.7575757575757572,2.87878787878788 -0.8585858585858579,2.87878787878788 -0.9595959595959596,2.87878787878788 -1.0606060606060603,2.87878787878788 -1.1616161616161613,2.87878787878788 -1.2626262626262625,2.87878787878788 -1.363636363636363,2.87878787878788 -1.4646464646464643,2.87878787878788 -1.5656565656565653,2.87878787878788 -1.6666666666666665,2.87878787878788 -1.7676767676767675,2.87878787878788 -1.8686868686868683,2.87878787878788 -1.9696969696969693,2.87878787878788 -2.07070707070707,2.87878787878788 -2.1717171717171713,2.87878787878788 -2.2727272727272725,2.87878787878788 -2.3737373737373733,2.87878787878788 -2.474747474747474,2.87878787878788 -2.5757575757575752,2.87878787878788 -2.6767676767676765,2.87878787878788 -2.7777777777777777,2.87878787878788 -2.8787878787878785,2.87878787878788 -2.9797979797979792,2.87878787878788 -3.0808080808080804,2.87878787878788 -3.1818181818181817,2.87878787878788 -3.2828282828282824,2.87878787878788 -3.383838383838383,2.87878787878788 -3.484848484848485,2.87878787878788" data-type="line" data-label="" points="888.6464646464647,163.95959595959613 879.111111111111,173.4949494949496 869.5757575757575,183.03030303030312 860.0404040404039,192.56565656565675 850.5050505050505,202.10101010101027 840.969696969697,211.63636363636374 831.4343434343433,221.17171717171726 821.8989898989898,230.70707070707084 812.3636363636363,240.24242424242436 802.8282828282828,240.24242424242436 793.2929292929292,240.24242424242436 783.7575757575758,240.24242424242436 774.2222222222222,240.24242424242436 764.6868686868686,240.24242424242436 755.1515151515151,240.24242424242436 745.6161616161615,240.24242424242436 736.0808080808081,240.24242424242436 726.5454545454545,240.24242424242436 717.0101010101009,240.24242424242436 707.4747474747475,240.24242424242436 697.9393939393939,240.24242424242436 688.4040404040404,240.24242424242436 678.8686868686868,240.24242424242436 669.3333333333333,240.24242424242436 659.7979797979798,240.24242424242436 650.2626262626262,240.24242424242436 640.7272727272727,240.24242424242436 631.1919191919192,240.24242424242436 621.6565656565656,240.24242424242436 612.1212121212121,240.24242424242436 602.5858585858585,240.24242424242436 593.0505050505051,240.24242424242436 583.5151515151515,240.24242424242436 573.9797979797979,240.24242424242436 564.4444444444445,240.24242424242436 554.9090909090909,240.24242424242436 545.3737373737374,240.24242424242436 535.8383838383838,240.24242424242436 526.3030303030303,240.24242424242436 516.7676767676768,240.24242424242436 507.2323232323232,240.24242424242436 497.69696969696975,240.24242424242436 488.16161616161617,240.24242424242436 478.62626262626264,240.24242424242436 469.09090909090907,240.24242424242436 459.55555555555554,240.24242424242436 450.0202020202021,240.24242424242436 440.4848484848485,240.24242424242436 430.949494949495,240.24242424242436 421.4141414141414,240.24242424242436 411.8787878787879,240.24242424242436 402.34343434343435,240.24242424242436 392.80808080808083,240.24242424242436 383.2727272727273,240.24242424242436 373.7373737373738,240.24242424242436 364.2020202020202,240.24242424242436 354.6666666666667,240.24242424242436 345.13131313131316,240.24242424242436 335.59595959595964,240.24242424242436 326.0606060606061,240.24242424242436 316.5252525252526,240.24242424242436 306.9898989898991,240.24242424242436 297.4545454545455,240.24242424242436 287.91919191919203,240.24242424242436 278.38383838383845,240.24242424242436 268.84848484848493,240.24242424242436 259.3131313131314,240.24242424242436 249.77777777777783,240.24242424242436 240.2424242424243,240.24242424242436 230.70707070707084,240.24242424242436 221.17171717171726,240.24242424242436 211.63636363636374,240.24242424242436 202.10101010101022,240.24242424242436 192.5656565656567,240.24242424242436 183.03030303030312,240.24242424242436" fill="none" stroke="rgba(255,0,0,0.75)" stroke-width="14.159999999999995"/></g><g><polyline data-points="-3.484848484848485,2.87878787878788 -3.5858585858585856,2.87878787878788 -3.6868686868686864,2.87878787878788 -3.7878787878787876,2.87878787878788 -3.8888888888888884,2.87878787878788 -3.98989898989899,2.87878787878788 -4.090909090909091,2.87878787878788 -4.191919191919193,2.87878787878788 -4.292929292929293,2.87878787878788 -4.393939393939394,2.87878787878788 -4.494949494949496,2.87878787878788 -4.595959595959596,2.87878787878788 -4.696969696969697,2.87878787878788 -4.7979797979797985,2.87878787878788 -4.898989898989899,2.87878787878788 -5.000000000000001,2.87878787878788" data-type="line" data-label="" points="183.03030303030312,240.24242424242436 173.4949494949496,240.24242424242436 163.95959595959607,240.24242424242436 154.42424242424255,240.24242424242436 144.88888888888903,240.24242424242436 135.35353535353545,240.24242424242436 125.81818181818193,240.24242424242436 116.28282828282829,240.24242424242436 106.74747474747483,240.24242424242436 97.21212121212136,240.24242424242436 87.67676767676772,240.24242424242436 78.14141414141426,240.24242424242436 68.60606060606068,240.24242424242436 59.07070707070716,240.24242424242436 49.53535353535369,240.24242424242436 40.00000000000006,240.24242424242436" fill="none" stroke="rgba(0,0,255,0.75)" stroke-width="14.159999999999995"/></g><g><polyline data-points="-3.6868686868686864,5.000000000000002 -3.5858585858585856,4.898989898989901 -3.484848484848485,4.7979797979797985 -3.383838383838383,4.696969696969697 -3.2828282828282824,4.595959595959597 -3.1818181818181817,4.494949494949497 -3.0808080808080804,4.393939393939394 -2.9797979797979792,4.292929292929293 -2.9797979797979792,4.191919191919193 -2.9797979797979792,4.090909090909092 -2.9797979797979792,3.989898989898992 -2.9797979797979792,3.8888888888888893 -2.9797979797979792,3.7878787878787885 -2.9797979797979792,3.6868686868686877 -2.9797979797979792,3.5858585858585874 -2.9797979797979792,3.4848484848484866" data-type="line" data-label="" points="163.95959595959607,40.000000000000114 173.4949494949496,49.53535353535369 183.03030303030312,59.07070707070733 192.5656565656567,68.60606060606085 202.10101010101022,78.14141414141432 211.63636363636374,87.67676767676778 221.17171717171726,97.21212121212153 230.70707070707084,106.747474747475 230.70707070707084,116.28282828282846 230.70707070707084,125.81818181818198 230.70707070707084,135.35353535353545 230.70707070707084,144.88888888888908 230.70707070707084,154.4242424242426 230.70707070707084,163.95959595959613 230.70707070707084,173.4949494949496 230.70707070707084,183.03030303030312" fill="none" stroke="rgba(255,0,0,0.75)" stroke-width="14.159999999999995"/></g><g><polyline data-points="-2.9797979797979792,3.4848484848484866 -2.9797979797979792,3.383838383838384 -2.9797979797979792,3.2828282828282833 -2.9797979797979792,3.181818181818183 -2.9797979797979792,3.080808080808082 -2.9797979797979792,2.9797979797979806 -2.9797979797979792,2.87878787878788 -2.9797979797979792,2.7777777777777786 -2.9797979797979792,2.676767676767678 -2.9797979797979792,2.575757575757577 -2.9797979797979792,2.4747474747474754 -2.9797979797979792,2.373737373737375 -2.9797979797979792,2.2727272727272734 -2.9797979797979792,2.1717171717171726 -2.9797979797979792,2.070707070707072 -2.9797979797979792,1.9696969696969702 -2.9797979797979792,1.8686868686868696 -2.9797979797979792,1.767676767676768 -2.9797979797979792,1.6666666666666674 -2.9797979797979792,1.5656565656565666 -2.9797979797979792,1.4646464646464652 -2.9797979797979792,1.3636363636363644 -2.9797979797979792,1.262626262626263 -2.9797979797979792,1.1616161616161622 -2.9797979797979792,1.0606060606060617 -2.9797979797979792,0.9595959595959602 -2.9797979797979792,0.8585858585858596 -2.9797979797979792,0.7575757575757579 -2.9797979797979792,0.6565656565656574 -2.9797979797979792,0.5555555555555567 -2.9797979797979792,0.4545454545454551 -2.9797979797979792,0.3535353535353544 -2.9797979797979792,0.2525252525252529 -2.9797979797979792,0.1515151515151522 -2.9797979797979792,0.050505050505051545 -2.9797979797979792,-0.05050505050505001 -2.9797979797979792,-0.15151515151515066 -2.9797979797979792,-0.2525252525252522 -2.9797979797979792,-0.35353535353535287 -2.9797979797979792,-0.4545454545454544 -2.9797979797979792,-0.555555555555555 -2.9797979797979792,-0.6565656565656557 -2.9797979797979792,-0.7575757575757572 -2.9797979797979792,-0.8585858585858579 -2.9797979797979792,-0.9595959595959596 -2.9797979797979792,-1.0606060606060603 -2.9797979797979792,-1.1616161616161613 -2.9797979797979792,-1.2626262626262625 -2.9797979797979792,-1.363636363636363 -2.9797979797979792,-1.4646464646464643 -2.9797979797979792,-1.5656565656565653 -2.9797979797979792,-1.6666666666666665 -2.9797979797979792,-1.7676767676767675 -2.9797979797979792,-1.8686868686868683 -2.9797979797979792,-1.9696969696969693 -2.9797979797979792,-2.07070707070707 -2.9797979797979792,-2.1717171717171713 -2.9797979797979792,-2.2727272727272725 -2.9797979797979792,-2.3737373737373733 -2.9797979797979792,-2.474747474747474" data-type="line" data-label="" points="230.70707070707084,183.03030303030312 230.70707070707084,192.56565656565675 230.70707070707084,202.10101010101027 230.70707070707084,211.63636363636374 230.70707070707084,221.17171717171726 230.70707070707084,230.70707070707084 230.70707070707084,240.24242424242436 230.70707070707084,249.77777777777794 230.70707070707084,259.3131313131314 230.70707070707084,268.84848484848493 230.70707070707084,278.38383838383857 230.70707070707084,287.91919191919203 230.70707070707084,297.4545454545456 230.70707070707084,306.9898989898991 230.70707070707084,316.5252525252526 230.70707070707084,326.06060606060623 230.70707070707084,335.5959595959597 230.70707070707084,345.1313131313133 230.70707070707084,354.66666666666674 230.70707070707084,364.2020202020203 230.70707070707084,373.73737373737384 230.70707070707084,383.27272727272737 230.70707070707084,392.80808080808094 230.70707070707084,402.3434343434344 230.70707070707084,411.87878787878793 230.70707070707084,421.4141414141415 230.70707070707084,430.94949494949503 230.70707070707084,440.4848484848486 230.70707070707084,450.0202020202021 230.70707070707084,459.5555555555556 230.70707070707084,469.0909090909092 230.70707070707084,478.6262626262627 230.70707070707084,488.1616161616163 230.70707070707084,497.69696969696975 230.70707070707084,507.23232323232327 230.70707070707084,516.7676767676768 230.70707070707084,526.3030303030304 230.70707070707084,535.838383838384 230.70707070707084,545.3737373737374 230.70707070707084,554.909090909091 230.70707070707084,564.4444444444445 230.70707070707084,573.979797979798 230.70707070707084,583.5151515151516 230.70707070707084,593.0505050505051 230.70707070707084,602.5858585858587 230.70707070707084,612.1212121212121 230.70707070707084,621.6565656565657 230.70707070707084,631.1919191919193 230.70707070707084,640.7272727272727 230.70707070707084,650.2626262626263 230.70707070707084,659.7979797979798 230.70707070707084,669.3333333333334 230.70707070707084,678.8686868686868 230.70707070707084,688.4040404040404 230.70707070707084,697.939393939394 230.70707070707084,707.4747474747475 230.70707070707084,717.010101010101 230.70707070707084,726.5454545454545 230.70707070707084,736.0808080808081 230.70707070707084,745.6161616161615" fill="none" stroke="rgba(0,0,255,0.75)" stroke-width="14.159999999999995"/></g><g><polyline data-points="-2.9797979797979792,-2.474747474747474 -2.9797979797979792,-2.5757575757575752 -2.9797979797979792,-2.6767676767676765 -2.9797979797979792,-2.7777777777777777 -2.9797979797979792,-2.8787878787878785 -2.9797979797979792,-2.9797979797979792 -2.9797979797979792,-3.0808080808080804 -2.9797979797979792,-3.1818181818181817 -2.9797979797979792,-3.2828282828282824 -2.9797979797979792,-3.383838383838383 -2.9797979797979792,-3.484848484848485 -2.9797979797979792,-3.5858585858585856 -2.9797979797979792,-3.6868686868686864 -2.9797979797979792,-3.7878787878787876 -2.9797979797979792,-3.8888888888888884 -3.0808080808080804,-3.98989898989899" data-type="line" data-label="" points="230.70707070707084,745.6161616161615 230.70707070707084,755.1515151515151 230.70707070707084,764.6868686868687 230.70707070707084,774.2222222222222 230.70707070707084,783.7575757575758 230.70707070707084,793.2929292929292 230.70707070707084,802.8282828282828 230.70707070707084,812.3636363636363 230.70707070707084,821.8989898989898 230.70707070707084,831.4343434343434 230.70707070707084,840.969696969697 230.70707070707084,850.5050505050505 230.70707070707084,860.0404040404039 230.70707070707084,869.5757575757575 230.70707070707084,879.1111111111111 221.17171717171726,888.6464646464647" fill="none" stroke="rgba(255,0,0,0.75)" stroke-width="14.159999999999995"/></g><g><polyline data-points="-3.0808080808080804,-3.98989898989899 -2.9797979797979792,-4.090909090909091 -2.8787878787878785,-4.191919191919193 -2.7777777777777777,-4.292929292929293 -2.6767676767676765,-4.393939393939394 -2.5757575757575752,-4.494949494949496 -2.474747474747474,-4.595959595959596 -2.3737373737373733,-4.696969696969697 -2.2727272727272725,-4.7979797979797985 -2.1717171717171713,-4.898989898989899 -2.07070707070707,-5.000000000000001" data-type="line" data-label="" points="221.17171717171726,888.6464646464647 230.70707070707084,898.1818181818181 240.2424242424243,907.7171717171718 249.77777777777783,917.2525252525252 259.3131313131314,926.7878787878788 268.84848484848493,936.3232323232323 278.38383838383845,945.8585858585858 287.91919191919203,955.3939393939394 297.4545454545455,964.9292929292928 306.9898989898991,974.4646464646464 316.5252525252526,984" fill="none" stroke="rgba(0,0,255,0.75)" stroke-width="14.159999999999995"/></g><g><rect data-type="rect" data-label="" data-x="0" data-y="0" x="40.000000000000114" y="40.000000000000284" width="943.9999999999997" height="943.9999999999998" fill="none" stroke="gray" stroke-width="0.010593220338983056"/></g><g><rect data-type="rect" data-label="" data-x="0" data-y="0" x="40.000000000000114" y="40.000000000000284" width="943.9999999999997" height="943.9999999999998" fill="none" stroke="rgba(15, 23, 42, 0.8)" stroke-width="0.010593220338983056"/></g><circle data-type="circle" data-label="" data-x="3.989898989898992" data-y="2.4747474747474754" cx="888.6464646464647" cy="278.38383838383857" r="28.791999999999987" fill="rgba(0,0,0,0.3)" stroke="black" stroke-width="0.010593220338983056"/><circle data-type="circle" data-label="" data-x="3.989898989898992" data-y="3.6868686868686877" cx="888.6464646464647" cy="163.95959595959613" r="28.791999999999987" fill="rgba(0,0,0,0.3)" stroke="black" stroke-width="0.010593220338983056"/><circle data-type="circle" data-label="" data-x="-3.484848484848485" data-y="2.87878787878788" cx="183.03030303030312" cy="240.24242424242436" r="28.791999999999987" fill="rgba(0,0,0,0.3)" stroke="black" stroke-width="0.010593220338983056"/><circle data-type="circle" data-label="" data-x="-2.9797979797979792" data-y="3.4848484848484866" cx="230.70707070707084" cy="183.03030303030312" r="28.791999999999987" fill="rgba(0,0,0,0.3)" stroke="black" stroke-width="0.010593220338983056"/><circle data-type="circle" data-label="" data-x="-2.9797979797979792" data-y="-2.474747474747474" cx="230.70707070707084" cy="745.6161616161615" r="28.791999999999987" fill="rgba(0,0,0,0.3)" stroke="black" stroke-width="0.010593220338983056"/><circle data-type="circle" data-label="" data-x="-3.0808080808080804" data-y="-3.98989898989899" cx="221.17171717171726" cy="888.6464646464647" r="28.791999999999987" fill="rgba(0,0,0,0.3)" stroke="black" stroke-width="0.010593220338983056"/><g id="crosshair" style="display: none"><line id="crosshair-h" y1="0" y2="1024" stroke="#666" stroke-width="0.5"/><line id="crosshair-v" x1="0" x2="1024" stroke="#666" stroke-width="0.5"/><text id="coordinates" font-family="monospace" font-size="12" fill="#666"></text></g><script><![CDATA[
              document.currentScript.parentElement.addEventListener('mousemove', (e) => {
                const svg = e.currentTarget;
                const rect = svg.getBoundingClientRect();
                const x = e.clientX - rect.left;
                const y = e.clientY - rect.top;
                const crosshair = svg.getElementById('crosshair');
                const h = svg.getElementById('crosshair-h');
                const v = svg.getElementById('crosshair-v');
                const coords = svg.getElementById('coordinates');
                
                crosshair.style.display = 'block';
                h.setAttribute('x1', '0');
                h.setAttribute('x2', '1024');
                h.setAttribute('y1', y);
                h.setAttribute('y2', y);
                v.setAttribute('x1', x);
                v.setAttribute('x2', x);
                v.setAttribute('y1', '0');
                v.setAttribute('y2', '1024');

                // Calculate real coordinates using inverse transformation
                const matrix = {"a":94.39999999999996,"c":0,"e":511.99999999999994,"b":0,"d":-94.39999999999996,"f":512.0000000000001};
                // Manually invert and apply the affine transform
                // Since we only use translate and scale, we can directly compute:
                // x' = (x - tx) / sx
                // y' = (y - ty) / sy
                const sx = matrix.a;
                const sy = matrix.d;
                const tx = matrix.e; 
                const ty = matrix.f;
                const realPoint = {
                  x: (x - tx) / sx,
                  y: (y - ty) / sy // Flip y back since we used negative scale
                }
                
                coords.textContent = `(${realPoint.x.toFixed(2)}, ${realPoint.y.toFixed(2)})`;
                coords.setAttribute('x', (x + 5).toString());
                coords.setAttribute('y', (y - 5).toString());
              });
              document.currentScript.parentElement.addEventListener('mouseleave', () => {
                document.currentScript.parentElement.getElementById('crosshair').style.display = 'none';
              });
            ]]></script></svg>