<svg width="1024" height="1024" viewBox="0 0 1024 1024" xmlns="http://www.w3.org/2000/svg"><rect width="100%" height="100%" fill="white"/><g><circle data-type="point" data-label="conn_000" data-x="4.4" data-y="-5" cx="927.3599999999998" cy="984" r="28.792" fill="red" stroke="#740fbd" stroke-width="28.792"/></g><g><circle data-type="point" data-label="conn_000" data-x="-0.88" data-y="5" cx="428.928" cy="40.000000000000284" r="28.792" fill="red" stroke="#740fbd" stroke-width="28.792"/></g><g><circle data-type="point" data-label="conn_001" data-x="-3.7800000000000002" data-y="5" cx="155.16800000000006" cy="40.000000000000284" r="28.792" fill="blue" stroke="#bda70f" stroke-width="28.792"/></g><g><circle data-type="point" data-label="conn_001" data-x="3.8000000000000003" data-y="5" cx="870.7199999999998" cy="40.000000000000284" r="28.792" fill="blue" stroke="#bda70f" stroke-width="28.792"/></g><g><circle data-type="point" data-label="conn_002" data-x="-2.04" data-y="5" cx="319.424" cy="40.000000000000284" r="28.792" fill="red" stroke="#0fa0bd" stroke-width="28.792"/></g><g><circle data-type="point" data-label="conn_002" data-x="2.36" data-y="5" cx="734.7839999999999" cy="40.000000000000284" r="28.792" fill="red" stroke="#0fa0bd" stroke-width="28.792"/></g><g><circle data-type="point" data-label="conn_003" data-x="-4.46" data-y="5" cx="90.97600000000011" cy="40.000000000000284" r="28.792" fill="blue" stroke="#bd0f6d" stroke-width="28.792"/></g><g><circle data-type="point" data-label="conn_003" data-x="1.32" data-y="5" cx="636.608" cy="40.000000000000284" r="28.792" fill="red" stroke="#bd0f6d" stroke-width="28.792"/></g><g><circle data-type="point" data-label="conn_004" data-x="-5" data-y="-3.7" cx="40.000000000000114" cy="861.28" r="28.792" fill="blue" stroke="#3bbd0f" stroke-width="28.792"/></g><g><circle data-type="point" data-label="conn_004" data-x="5" data-y="-2.48" cx="983.9999999999998" cy="746.1120000000001" r="28.792" fill="blue" stroke="#3bbd0f" stroke-width="28.792"/></g><g><polyline data-points="-5.000000000000001,-3.7878787878787876 -4.898989898989899,-3.6868686868686864 -4.7979797979797985,-3.5858585858585856 -4.696969696969697,-3.484848484848485 -4.595959595959596,-3.383838383838383 -4.494949494949496,-3.2828282828282824 -4.393939393939394,-3.1818181818181817 -4.292929292929293,-3.0808080808080804 -4.191919191919193,-2.9797979797979792 -4.090909090909091,-2.8787878787878785 -3.98989898989899,-2.7777777777777777 -3.8888888888888884,-2.6767676767676765 -3.7878787878787876,-2.5757575757575752 -3.6868686868686864,-2.474747474747474 -3.5858585858585856,-2.474747474747474 -3.484848484848485,-2.474747474747474 -3.383838383838383,-2.474747474747474 -3.2828282828282824,-2.474747474747474 -3.1818181818181817,-2.474747474747474 -3.0808080808080804,-2.474747474747474 -2.9797979797979792,-2.474747474747474 -2.8787878787878785,-2.474747474747474 -2.7777777777777777,-2.474747474747474 -2.6767676767676765,-2.474747474747474 -2.5757575757575752,-2.474747474747474 -2.474747474747474,-2.474747474747474 -2.3737373737373733,-2.474747474747474 -2.2727272727272725,-2.474747474747474 -2.1717171717171713,-2.474747474747474 -2.07070707070707,-2.474747474747474 -1.9696969696969693,-2.474747474747474 -1.8686868686868683,-2.474747474747474 -1.7676767676767675,-2.474747474747474 -1.6666666666666665,-2.474747474747474 -1.5656565656565653,-2.474747474747474 -1.4646464646464643,-2.474747474747474 -1.363636363636363,-2.474747474747474 -1.2626262626262625,-2.474747474747474 -1.1616161616161613,-2.474747474747474 -1.0606060606060603,-2.474747474747474 -0.9595959595959596,-2.474747474747474 -0.8585858585858579,-2.474747474747474 -0.7575757575757572,-2.474747474747474 -0.6565656565656557,-2.474747474747474 -0.555555555555555,-2.474747474747474 -0.4545454545454544,-2.474747474747474 -0.35353535353535287,-2.474747474747474 -0.2525252525252522,-2.474747474747474 -0.15151515151515066,-2.474747474747474 -0.05050505050505001,-2.474747474747474 0.050505050505051545,-2.474747474747474 0.1515151515151522,-2.474747474747474 0.2525252525252529,-2.474747474747474 0.3535353535353544,-2.474747474747474 0.4545454545454551,-2.474747474747474 0.5555555555555567,-2.474747474747474 0.6565656565656574,-2.474747474747474 0.7575757575757579,-2.474747474747474 0.8585858585858596,-2.474747474747474 0.9595959595959602,-2.474747474747474 1.0606060606060617,-2.474747474747474 1.1616161616161622,-2.474747474747474 1.262626262626263,-2.474747474747474 1.3636363636363644,-2.474747474747474 1.4646464646464652,-2.474747474747474 1.5656565656565666,-2.474747474747474 1.6666666666666674,-2.474747474747474 1.767676767676768,-2.474747474747474 1.8686868686868696,-2.474747474747474 1.9696969696969702,-2.474747474747474 2.070707070707072,-2.474747474747474 2.1717171717171726,-2.474747474747474 2.2727272727272734,-2.474747474747474 2.373737373737375,-2.474747474747474 2.4747474747474754,-2.474747474747474 2.575757575757577,-2.474747474747474 2.676767676767678,-2.474747474747474 2.7777777777777786,-2.474747474747474 2.87878787878788,-2.474747474747474 2.9797979797979806,-2.474747474747474 3.080808080808082,-2.474747474747474 3.181818181818183,-2.474747474747474 3.2828282828282833,-2.474747474747474 3.383838383838384,-2.474747474747474 3.4848484848484866,-2.474747474747474 3.5858585858585874,-2.474747474747474 3.6868686868686877,-2.474747474747474 3.7878787878787885,-2.474747474747474 3.8888888888888893,-2.474747474747474 3.989898989898992,-2.474747474747474 4.090909090909092,-2.474747474747474 4.191919191919193,-2.474747474747474 4.292929292929293,-2.474747474747474 4.393939393939394,-2.474747474747474 4.494949494949497,-2.474747474747474 4.595959595959597,-2.474747474747474 4.696969696969697,-2.474747474747474 4.7979797979797985,-2.474747474747474 4.898989898989901,-2.474747474747474 5.000000000000002,-2.474747474747474" data-type="line" data-label="" points="40.00000000000006,869.5757575757575 49.53535353535369,860.0404040404039 59.07070707070716,850.5050505050505 68.60606060606068,840.969696969697 78.14141414141426,831.4343434343434 87.67676767676772,821.8989898989898 97.21212121212136,812.3636363636363 106.74747474747483,802.8282828282828 116.28282828282829,793.2929292929292 125.81818181818193,783.7575757575758 135.35353535353545,774.2222222222222 144.88888888888903,764.6868686868687 154.42424242424255,755.1515151515151 163.95959595959607,745.6161616161615 173.4949494949496,745.6161616161615 183.03030303030312,745.6161616161615 192.5656565656567,745.6161616161615 202.10101010101022,745.6161616161615 211.63636363636374,745.6161616161615 221.17171717171726,745.6161616161615 230.70707070707084,745.6161616161615 240.2424242424243,745.6161616161615 249.77777777777783,745.6161616161615 259.3131313131314,745.6161616161615 268.84848484848493,745.6161616161615 278.38383838383845,745.6161616161615 287.91919191919203,745.6161616161615 297.4545454545455,745.6161616161615 306.9898989898991,745.6161616161615 316.5252525252526,745.6161616161615 326.0606060606061,745.6161616161615 335.59595959595964,745.6161616161615 345.13131313131316,745.6161616161615 354.6666666666667,745.6161616161615 364.2020202020202,745.6161616161615 373.7373737373738,745.6161616161615 383.2727272727273,745.6161616161615 392.80808080808083,745.6161616161615 402.34343434343435,745.6161616161615 411.8787878787879,745.6161616161615 421.4141414141414,745.6161616161615 430.949494949495,745.6161616161615 440.4848484848485,745.6161616161615 450.0202020202021,745.6161616161615 459.55555555555554,745.6161616161615 469.09090909090907,745.6161616161615 478.62626262626264,745.6161616161615 488.16161616161617,745.6161616161615 497.69696969696975,745.6161616161615 507.2323232323232,745.6161616161615 516.7676767676768,745.6161616161615 526.3030303030303,745.6161616161615 535.8383838383838,745.6161616161615 545.3737373737374,745.6161616161615 554.9090909090909,745.6161616161615 564.4444444444445,745.6161616161615 573.9797979797979,745.6161616161615 583.5151515151515,745.6161616161615 593.0505050505051,745.6161616161615 602.5858585858585,745.6161616161615 612.1212121212121,745.6161616161615 621.6565656565656,745.6161616161615 631.1919191919192,745.6161616161615 640.7272727272727,745.6161616161615 650.2626262626262,745.6161616161615 659.7979797979798,745.6161616161615 669.3333333333333,745.6161616161615 678.8686868686868,745.6161616161615 688.4040404040404,745.6161616161615 697.9393939393939,745.6161616161615 707.4747474747475,745.6161616161615 717.0101010101009,745.6161616161615 726.5454545454545,745.6161616161615 736.0808080808081,745.6161616161615 745.6161616161615,745.6161616161615 755.1515151515151,745.6161616161615 764.6868686868686,745.6161616161615 774.2222222222222,745.6161616161615 783.7575757575758,745.6161616161615 793.2929292929292,745.6161616161615 802.8282828282828,745.6161616161615 812.3636363636363,745.6161616161615 821.8989898989898,745.6161616161615 831.4343434343433,745.6161616161615 840.969696969697,745.6161616161615 850.5050505050505,745.6161616161615 860.0404040404039,745.6161616161615 869.5757575757575,745.6161616161615 879.111111111111,745.6161616161615 888.6464646464647,745.6161616161615 898.181818181818,745.6161616161615 907.7171717171716,745.6161616161615 917.2525252525251,745.6161616161615 926.7878787878785,745.6161616161615 936.3232323232323,745.6161616161615 945.8585858585857,745.6161616161615 955.3939393939393,745.6161616161615 964.9292929292927,745.6161616161615 974.4646464646464,745.6161616161615 984,745.6161616161615" fill="none" stroke="rgba(0,0,255,0.75)" stroke-width="14.159999999999995"/></g><g><polyline data-points="4.494949494949497,-5.000000000000001 4.393939393939394,-4.898989898989899 4.292929292929293,-4.7979797979797985 4.191919191919193,-4.696969696969697 4.090909090909092,-4.595959595959596 3.989898989898992,-4.494949494949496 3.8888888888888893,-4.393939393939394 3.7878787878787885,-4.292929292929293 3.6868686868686877,-4.191919191919193 3.5858585858585874,-4.090909090909091 3.4848484848484866,-3.98989898989899 3.383838383838384,-3.8888888888888884 3.2828282828282833,-3.7878787878787876 3.181818181818183,-3.6868686868686864 3.080808080808082,-3.5858585858585856 2.9797979797979806,-3.484848484848485 2.87878787878788,-3.383838383838383 2.7777777777777786,-3.2828282828282824 2.676767676767678,-3.1818181818181817 2.575757575757577,-3.0808080808080804 2.4747474747474754,-2.9797979797979792 2.373737373737375,-2.8787878787878785 2.2727272727272734,-2.7777777777777777 2.1717171717171726,-2.6767676767676765 2.070707070707072,-2.5757575757575752 1.9696969696969702,-2.474747474747474 1.8686868686868696,-2.3737373737373733 1.767676767676768,-2.2727272727272725 1.6666666666666674,-2.1717171717171713 1.5656565656565666,-2.07070707070707 1.4646464646464652,-1.9696969696969693 1.3636363636363644,-1.8686868686868683 1.262626262626263,-1.7676767676767675 1.1616161616161622,-1.6666666666666665 1.0606060606060617,-1.5656565656565653 0.9595959595959602,-1.4646464646464643 0.8585858585858596,-1.363636363636363 0.7575757575757579,-1.2626262626262625 0.6565656565656574,-1.1616161616161613 0.5555555555555567,-1.0606060606060603 0.4545454545454551,-0.9595959595959596 0.3535353535353544,-0.8585858585858579 0.2525252525252529,-0.7575757575757572 0.1515151515151522,-0.6565656565656557 0.050505050505051545,-0.555555555555555 -0.05050505050505001,-0.4545454545454544 -0.15151515151515066,-0.35353535353535287 -0.2525252525252522,-0.2525252525252522 -0.35353535353535287,-0.15151515151515066 -0.4545454545454544,-0.05050505050505001 -0.555555555555555,0.050505050505051545 -0.6565656565656557,0.1515151515151522 -0.7575757575757572,0.2525252525252529 -0.8585858585858579,0.3535353535353544 -0.8585858585858579,0.4545454545454551 -0.8585858585858579,0.5555555555555567 -0.8585858585858579,0.6565656565656574 -0.8585858585858579,0.7575757575757579 -0.8585858585858579,0.8585858585858596 -0.8585858585858579,0.9595959595959602 -0.8585858585858579,1.0606060606060617 -0.8585858585858579,1.1616161616161622 -0.8585858585858579,1.262626262626263 -0.8585858585858579,1.3636363636363644 -0.8585858585858579,1.4646464646464652 -0.8585858585858579,1.5656565656565666 -0.8585858585858579,1.6666666666666674 -0.8585858585858579,1.767676767676768 -0.8585858585858579,1.8686868686868696 -0.8585858585858579,1.9696969696969702 -0.8585858585858579,2.070707070707072 -0.8585858585858579,2.1717171717171726 -0.8585858585858579,2.2727272727272734 -0.8585858585858579,2.373737373737375 -0.8585858585858579,2.4747474747474754 -0.8585858585858579,2.575757575757577 -0.8585858585858579,2.676767676767678 -0.8585858585858579,2.7777777777777786 -0.8585858585858579,2.87878787878788 -0.8585858585858579,2.9797979797979806 -0.8585858585858579,3.080808080808082 -0.8585858585858579,3.181818181818183 -0.8585858585858579,3.2828282828282833 -0.8585858585858579,3.383838383838384 -0.8585858585858579,3.4848484848484866 -0.8585858585858579,3.5858585858585874 -0.8585858585858579,3.6868686868686877 -0.8585858585858579,3.7878787878787885 -0.8585858585858579,3.8888888888888893 -0.8585858585858579,3.989898989898992 -0.8585858585858579,4.090909090909092 -0.8585858585858579,4.191919191919193 -0.8585858585858579,4.292929292929293 -0.8585858585858579,4.393939393939394 -0.8585858585858579,4.494949494949497 -0.8585858585858579,4.595959595959597 -0.8585858585858579,4.696969696969697 -0.8585858585858579,4.7979797979797985 -0.8585858585858579,4.898989898989901 -0.8585858585858579,5.000000000000002" data-type="line" data-label="" points="936.3232323232323,984 926.7878787878785,974.4646464646464 917.2525252525251,964.9292929292928 907.7171717171716,955.3939393939394 898.181818181818,945.8585858585858 888.6464646464647,936.3232323232323 879.111111111111,926.7878787878788 869.5757575757575,917.2525252525252 860.0404040404039,907.7171717171718 850.5050505050505,898.1818181818181 840.969696969697,888.6464646464647 831.4343434343433,879.1111111111111 821.8989898989898,869.5757575757575 812.3636363636363,860.0404040404039 802.8282828282828,850.5050505050505 793.2929292929292,840.969696969697 783.7575757575758,831.4343434343434 774.2222222222222,821.8989898989898 764.6868686868686,812.3636363636363 755.1515151515151,802.8282828282828 745.6161616161615,793.2929292929292 736.0808080808081,783.7575757575758 726.5454545454545,774.2222222222222 717.0101010101009,764.6868686868687 707.4747474747475,755.1515151515151 697.9393939393939,745.6161616161615 688.4040404040404,736.0808080808081 678.8686868686868,726.5454545454545 669.3333333333333,717.010101010101 659.7979797979798,707.4747474747475 650.2626262626262,697.939393939394 640.7272727272727,688.4040404040404 631.1919191919192,678.8686868686868 621.6565656565656,669.3333333333334 612.1212121212121,659.7979797979798 602.5858585858585,650.2626262626263 593.0505050505051,640.7272727272727 583.5151515151515,631.1919191919193 573.9797979797979,621.6565656565657 564.4444444444445,612.1212121212121 554.9090909090909,602.5858585858587 545.3737373737374,593.0505050505051 535.8383838383838,583.5151515151516 526.3030303030303,573.979797979798 516.7676767676768,564.4444444444445 507.2323232323232,554.909090909091 497.69696969696975,545.3737373737374 488.16161616161617,535.838383838384 478.62626262626264,526.3030303030304 469.09090909090907,516.7676767676768 459.55555555555554,507.23232323232327 450.0202020202021,497.69696969696975 440.4848484848485,488.1616161616163 430.949494949495,478.6262626262627 430.949494949495,469.0909090909092 430.949494949495,459.5555555555556 430.949494949495,450.0202020202021 430.949494949495,440.4848484848486 430.949494949495,430.94949494949503 430.949494949495,421.4141414141415 430.949494949495,411.87878787878793 430.949494949495,402.3434343434344 430.949494949495,392.80808080808094 430.949494949495,383.27272727272737 430.949494949495,373.73737373737384 430.949494949495,364.2020202020203 430.949494949495,354.66666666666674 430.949494949495,345.1313131313133 430.949494949495,335.5959595959597 430.949494949495,326.06060606060623 430.949494949495,316.5252525252526 430.949494949495,306.9898989898991 430.949494949495,297.4545454545456 430.949494949495,287.91919191919203 430.949494949495,278.38383838383857 430.949494949495,268.84848484848493 430.949494949495,259.3131313131314 430.949494949495,249.77777777777794 430.949494949495,240.24242424242436 430.949494949495,230.70707070707084 430.949494949495,221.17171717171726 430.949494949495,211.63636363636374 430.949494949495,202.10101010101027 430.949494949495,192.56565656565675 430.949494949495,183.03030303030312 430.949494949495,173.4949494949496 430.949494949495,163.95959595959613 430.949494949495,154.4242424242426 430.949494949495,144.88888888888908 430.949494949495,135.35353535353545 430.949494949495,125.81818181818198 430.949494949495,116.28282828282846 430.949494949495,106.747474747475 430.949494949495,97.21212121212153 430.949494949495,87.67676767676778 430.949494949495,78.14141414141432 430.949494949495,68.60606060606085 430.949494949495,59.07070707070733 430.949494949495,49.53535353535369 430.949494949495,40.000000000000114" fill="none" stroke="rgba(255,0,0,0.75)" stroke-width="14.159999999999995"/></g><g><polyline data-points="-3.7878787878787876,5.000000000000002 -3.6868686868686864,4.898989898989901 -3.5858585858585856,4.7979797979797985 -3.484848484848485,4.7979797979797985 -3.383838383838383,4.7979797979797985 -3.2828282828282824,4.7979797979797985 -3.1818181818181817,4.7979797979797985 -3.0808080808080804,4.7979797979797985 -2.9797979797979792,4.7979797979797985 -2.8787878787878785,4.7979797979797985 -2.7777777777777777,4.7979797979797985 -2.6767676767676765,4.7979797979797985 -2.5757575757575752,4.7979797979797985 -2.474747474747474,4.7979797979797985 -2.3737373737373733,4.7979797979797985 -2.2727272727272725,4.7979797979797985 -2.1717171717171713,4.7979797979797985 -2.07070707070707,4.7979797979797985 -1.9696969696969693,4.7979797979797985 -1.8686868686868683,4.7979797979797985 -1.7676767676767675,4.7979797979797985 -1.6666666666666665,4.7979797979797985 -1.5656565656565653,4.7979797979797985 -1.4646464646464643,4.7979797979797985 -1.363636363636363,4.7979797979797985 -1.2626262626262625,4.7979797979797985 -1.1616161616161613,4.7979797979797985 -1.0606060606060603,4.7979797979797985 -0.9595959595959596,4.7979797979797985 -0.8585858585858579,4.7979797979797985 -0.7575757575757572,4.7979797979797985 -0.6565656565656557,4.7979797979797985 -0.555555555555555,4.7979797979797985 -0.4545454545454544,4.7979797979797985 -0.35353535353535287,4.7979797979797985 -0.2525252525252522,4.7979797979797985 -0.15151515151515066,4.7979797979797985 -0.05050505050505001,4.7979797979797985 0.050505050505051545,4.7979797979797985 0.1515151515151522,4.7979797979797985 0.2525252525252529,4.696969696969697 0.3535353535353544,4.7979797979797985 0.4545454545454551,4.898989898989901 0.5555555555555567,5.000000000000002 0.6565656565656574,5.000000000000002 0.7575757575757579,5.000000000000002 0.8585858585858596,5.000000000000002 0.9595959595959602,5.000000000000002 1.0606060606060617,5.000000000000002 1.1616161616161622,5.000000000000002 1.262626262626263,5.000000000000002 1.3636363636363644,5.000000000000002 1.4646464646464652,5.000000000000002 1.5656565656565666,5.000000000000002 1.6666666666666674,5.000000000000002 1.767676767676768,5.000000000000002 1.8686868686868696,5.000000000000002 1.9696969696969702,5.000000000000002 2.070707070707072,5.000000000000002 2.1717171717171726,5.000000000000002 2.2727272727272734,5.000000000000002 2.373737373737375,5.000000000000002 2.4747474747474754,5.000000000000002 2.575757575757577,5.000000000000002 2.676767676767678,5.000000000000002 2.7777777777777786,5.000000000000002 2.87878787878788,5.000000000000002 2.9797979797979806,5.000000000000002 3.080808080808082,5.000000000000002 3.181818181818183,5.000000000000002 3.2828282828282833,5.000000000000002 3.383838383838384,5.000000000000002 3.4848484848484866,5.000000000000002 3.5858585858585874,5.000000000000002 3.6868686868686877,5.000000000000002 3.7878787878787885,5.000000000000002 3.8888888888888893,5.000000000000002" data-type="line" data-label="" points="154.42424242424255,40.000000000000114 163.95959595959607,49.53535353535369 173.4949494949496,59.07070707070733 183.03030303030312,59.07070707070733 192.5656565656567,59.07070707070733 202.10101010101022,59.07070707070733 211.63636363636374,59.07070707070733 221.17171717171726,59.07070707070733 230.70707070707084,59.07070707070733 240.2424242424243,59.07070707070733 249.77777777777783,59.07070707070733 259.3131313131314,59.07070707070733 268.84848484848493,59.07070707070733 278.38383838383845,59.07070707070733 287.91919191919203,59.07070707070733 297.4545454545455,59.07070707070733 306.9898989898991,59.07070707070733 316.5252525252526,59.07070707070733 326.0606060606061,59.07070707070733 335.59595959595964,59.07070707070733 345.13131313131316,59.07070707070733 354.6666666666667,59.07070707070733 364.2020202020202,59.07070707070733 373.7373737373738,59.07070707070733 383.2727272727273,59.07070707070733 392.80808080808083,59.07070707070733 402.34343434343435,59.07070707070733 411.8787878787879,59.07070707070733 421.4141414141414,59.07070707070733 430.949494949495,59.07070707070733 440.4848484848485,59.07070707070733 450.0202020202021,59.07070707070733 459.55555555555554,59.07070707070733 469.09090909090907,59.07070707070733 478.62626262626264,59.07070707070733 488.16161616161617,59.07070707070733 497.69696969696975,59.07070707070733 507.2323232323232,59.07070707070733 516.7676767676768,59.07070707070733 526.3030303030303,59.07070707070733 535.8383838383838,68.60606060606085 545.3737373737374,59.07070707070733 554.9090909090909,49.53535353535369 564.4444444444445,40.000000000000114 573.9797979797979,40.000000000000114 583.5151515151515,40.000000000000114 593.0505050505051,40.000000000000114 602.5858585858585,40.000000000000114 612.1212121212121,40.000000000000114 621.6565656565656,40.000000000000114 631.1919191919192,40.000000000000114 640.7272727272727,40.000000000000114 650.2626262626262,40.000000000000114 659.7979797979798,40.000000000000114 669.3333333333333,40.000000000000114 678.8686868686868,40.000000000000114 688.4040404040404,40.000000000000114 697.9393939393939,40.000000000000114 707.4747474747475,40.000000000000114 717.0101010101009,40.000000000000114 726.5454545454545,40.000000000000114 736.0808080808081,40.000000000000114 745.6161616161615,40.000000000000114 755.1515151515151,40.000000000000114 764.6868686868686,40.000000000000114 774.2222222222222,40.000000000000114 783.7575757575758,40.000000000000114 793.2929292929292,40.000000000000114 802.8282828282828,40.000000000000114 812.3636363636363,40.000000000000114 821.8989898989898,40.000000000000114 831.4343434343433,40.000000000000114 840.969696969697,40.000000000000114 850.5050505050505,40.000000000000114 860.0404040404039,40.000000000000114 869.5757575757575,40.000000000000114 879.111111111111,40.000000000000114" fill="none" stroke="rgba(0,0,255,0.75)" stroke-width="14.159999999999995"/></g><g><polyline data-points="-4.494949494949496,5.000000000000002 -4.393939393939394,4.898989898989901 -4.292929292929293,4.898989898989901 -4.191919191919193,4.898989898989901 -4.090909090909091,4.898989898989901 -3.98989898989899,4.898989898989901 -3.8888888888888884,4.7979797979797985 -3.7878787878787876,4.696969696969697 -3.6868686868686864,4.595959595959597 -3.5858585858585856,4.595959595959597 -3.484848484848485,4.595959595959597 -3.383838383838383,4.595959595959597 -3.2828282828282824,4.595959595959597 -3.1818181818181817,4.595959595959597 -3.0808080808080804,4.595959595959597 -2.9797979797979792,4.595959595959597 -2.8787878787878785,4.595959595959597 -2.7777777777777777,4.595959595959597 -2.6767676767676765,4.595959595959597 -2.5757575757575752,4.595959595959597 -2.474747474747474,4.595959595959597 -2.3737373737373733,4.595959595959597 -2.2727272727272725,4.595959595959597 -2.1717171717171713,4.595959595959597 -2.07070707070707,4.595959595959597 -1.9696969696969693,4.595959595959597 -1.8686868686868683,4.595959595959597 -1.7676767676767675,4.595959595959597 -1.6666666666666665,4.595959595959597 -1.5656565656565653,4.595959595959597 -1.4646464646464643,4.595959595959597 -1.363636363636363,4.595959595959597 -1.2626262626262625,4.595959595959597 -1.1616161616161613,4.595959595959597 -1.0606060606060603,4.595959595959597 -0.9595959595959596,4.595959595959597 -0.8585858585858579,4.595959595959597 -0.7575757575757572,4.595959595959597 -0.6565656565656557,4.595959595959597 -0.555555555555555,4.595959595959597 -0.4545454545454544,4.595959595959597 -0.35353535353535287,4.595959595959597 -0.2525252525252522,4.595959595959597 -0.15151515151515066,4.595959595959597 -0.05050505050505001,4.595959595959597 0.050505050505051545,4.595959595959597 0.1515151515151522,4.494949494949497 0.2525252525252529,4.494949494949497 0.3535353535353544,4.494949494949497 0.4545454545454551,4.494949494949497 0.5555555555555567,4.494949494949497 0.6565656565656574,4.393939393939394 0.7575757575757579,4.292929292929293 0.8585858585858596,4.191919191919193 0.9595959595959602,4.090909090909092 1.0606060606060617,3.989898989898992" data-type="line" data-label="" points="87.67676767676772,40.000000000000114 97.21212121212136,49.53535353535369 106.74747474747483,49.53535353535369 116.28282828282829,49.53535353535369 125.81818181818193,49.53535353535369 135.35353535353545,49.53535353535369 144.88888888888903,59.07070707070733 154.42424242424255,68.60606060606085 163.95959595959607,78.14141414141432 173.4949494949496,78.14141414141432 183.03030303030312,78.14141414141432 192.5656565656567,78.14141414141432 202.10101010101022,78.14141414141432 211.63636363636374,78.14141414141432 221.17171717171726,78.14141414141432 230.70707070707084,78.14141414141432 240.2424242424243,78.14141414141432 249.77777777777783,78.14141414141432 259.3131313131314,78.14141414141432 268.84848484848493,78.14141414141432 278.38383838383845,78.14141414141432 287.91919191919203,78.14141414141432 297.4545454545455,78.14141414141432 306.9898989898991,78.14141414141432 316.5252525252526,78.14141414141432 326.0606060606061,78.14141414141432 335.59595959595964,78.14141414141432 345.13131313131316,78.14141414141432 354.6666666666667,78.14141414141432 364.2020202020202,78.14141414141432 373.7373737373738,78.14141414141432 383.2727272727273,78.14141414141432 392.80808080808083,78.14141414141432 402.34343434343435,78.14141414141432 411.8787878787879,78.14141414141432 421.4141414141414,78.14141414141432 430.949494949495,78.14141414141432 440.4848484848485,78.14141414141432 450.0202020202021,78.14141414141432 459.55555555555554,78.14141414141432 469.09090909090907,78.14141414141432 478.62626262626264,78.14141414141432 488.16161616161617,78.14141414141432 497.69696969696975,78.14141414141432 507.2323232323232,78.14141414141432 516.7676767676768,78.14141414141432 526.3030303030303,87.67676767676778 535.8383838383838,87.67676767676778 545.3737373737374,87.67676767676778 554.9090909090909,87.67676767676778 564.4444444444445,87.67676767676778 573.9797979797979,97.21212121212153 583.5151515151515,106.747474747475 593.0505050505051,116.28282828282846 602.5858585858585,125.81818181818198 612.1212121212121,135.35353535353545" fill="none" stroke="rgba(0,0,255,0.75)" stroke-width="14.159999999999995"/></g><g><polyline data-points="1.0606060606060617,3.989898989898992 1.0606060606060617,4.090909090909092 1.1616161616161622,4.191919191919193 1.1616161616161622,4.292929292929293 1.1616161616161622,4.393939393939394 1.1616161616161622,4.494949494949497 1.1616161616161622,4.595959595959597 1.1616161616161622,4.696969696969697 1.1616161616161622,4.7979797979797985 1.262626262626263,4.898989898989901 1.3636363636363644,5.000000000000002" data-type="line" data-label="" points="612.1212121212121,135.35353535353545 612.1212121212121,125.81818181818198 621.6565656565656,116.28282828282846 621.6565656565656,106.747474747475 621.6565656565656,97.21212121212153 621.6565656565656,87.67676767676778 621.6565656565656,78.14141414141432 621.6565656565656,68.60606060606085 621.6565656565656,59.07070707070733 631.1919191919192,49.53535353535369 640.7272727272727,40.000000000000114" fill="none" stroke="rgba(255,0,0,0.75)" stroke-width="14.159999999999995"/></g><g><polyline data-points="-2.07070707070707,5.000000000000002 -2.07070707070707,4.898989898989901 -1.9696969696969693,4.7979797979797985 -1.8686868686868683,4.696969696969697 -1.7676767676767675,4.595959595959597 -1.6666666666666665,4.494949494949497 -1.6666666666666665,4.393939393939394 -1.6666666666666665,4.292929292929293 -1.6666666666666665,4.191919191919193 -1.5656565656565653,4.090909090909092 -1.5656565656565653,3.989898989898992" data-type="line" data-label="" points="316.5252525252526,40.000000000000114 316.5252525252526,49.53535353535369 326.0606060606061,59.07070707070733 335.59595959595964,68.60606060606085 345.13131313131316,78.14141414141432 354.6666666666667,87.67676767676778 354.6666666666667,97.21212121212153 354.6666666666667,106.747474747475 354.6666666666667,116.28282828282846 364.2020202020202,125.81818181818198 364.2020202020202,135.35353535353545" fill="none" stroke="rgba(255,0,0,0.75)" stroke-width="14.159999999999995"/></g><g><polyline data-points="-1.5656565656565653,3.989898989898992 -1.4646464646464643,3.8888888888888893 -1.363636363636363,3.8888888888888893 -1.2626262626262625,3.8888888888888893 -1.1616161616161613,3.8888888888888893 -1.0606060606060603,3.8888888888888893 -0.9595959595959596,3.8888888888888893 -0.8585858585858579,3.8888888888888893 -0.7575757575757572,3.8888888888888893 -0.6565656565656557,3.8888888888888893 -0.555555555555555,3.8888888888888893 -0.4545454545454544,3.8888888888888893 -0.35353535353535287,3.8888888888888893 -0.2525252525252522,3.8888888888888893 -0.15151515151515066,3.8888888888888893 -0.05050505050505001,3.8888888888888893 0.050505050505051545,3.8888888888888893 0.1515151515151522,3.8888888888888893 0.2525252525252529,3.8888888888888893 0.3535353535353544,3.8888888888888893 0.4545454545454551,3.8888888888888893 0.5555555555555567,3.8888888888888893 0.6565656565656574,3.7878787878787885 0.7575757575757579,3.6868686868686877 0.8585858585858596,3.5858585858585874 0.9595959595959602,3.5858585858585874 1.0606060606060617,3.4848484848484866 1.1616161616161622,3.5858585858585874 1.262626262626263,3.5858585858585874 1.3636363636363644,3.6868686868686877 1.4646464646464652,3.7878787878787885 1.5656565656565666,3.8888888888888893 1.6666666666666674,3.989898989898992 1.767676767676768,3.989898989898992 1.8686868686868696,3.989898989898992 1.9696969696969702,3.989898989898992 2.070707070707072,3.989898989898992" data-type="line" data-label="" points="364.2020202020202,135.35353535353545 373.7373737373738,144.88888888888908 383.2727272727273,144.88888888888908 392.80808080808083,144.88888888888908 402.34343434343435,144.88888888888908 411.8787878787879,144.88888888888908 421.4141414141414,144.88888888888908 430.949494949495,144.88888888888908 440.4848484848485,144.88888888888908 450.0202020202021,144.88888888888908 459.55555555555554,144.88888888888908 469.09090909090907,144.88888888888908 478.62626262626264,144.88888888888908 488.16161616161617,144.88888888888908 497.69696969696975,144.88888888888908 507.2323232323232,144.88888888888908 516.7676767676768,144.88888888888908 526.3030303030303,144.88888888888908 535.8383838383838,144.88888888888908 545.3737373737374,144.88888888888908 554.9090909090909,144.88888888888908 564.4444444444445,144.88888888888908 573.9797979797979,154.4242424242426 583.5151515151515,163.95959595959613 593.0505050505051,173.4949494949496 602.5858585858585,173.4949494949496 612.1212121212121,183.03030303030312 621.6565656565656,173.4949494949496 631.1919191919192,173.4949494949496 640.7272727272727,163.95959595959613 650.2626262626262,154.4242424242426 659.7979797979798,144.88888888888908 669.3333333333333,135.35353535353545 678.8686868686868,135.35353535353545 688.4040404040404,135.35353535353545 697.9393939393939,135.35353535353545 707.4747474747475,135.35353535353545" fill="none" stroke="rgba(0,0,255,0.75)" stroke-width="14.159999999999995"/></g><g><polyline data-points="2.070707070707072,3.989898989898992 2.1717171717171726,4.090909090909092 2.2727272727272734,4.191919191919193 2.2727272727272734,4.292929292929293 2.2727272727272734,4.393939393939394 2.2727272727272734,4.494949494949497 2.2727272727272734,4.595959595959597 2.2727272727272734,4.696969696969697 2.2727272727272734,4.7979797979797985 2.2727272727272734,4.898989898989901 2.373737373737375,5.000000000000002" data-type="line" data-label="" points="707.4747474747475,135.35353535353545 717.0101010101009,125.81818181818198 726.5454545454545,116.28282828282846 726.5454545454545,106.747474747475 726.5454545454545,97.21212121212153 726.5454545454545,87.67676767676778 726.5454545454545,78.14141414141432 726.5454545454545,68.60606060606085 726.5454545454545,59.07070707070733 726.5454545454545,49.53535353535369 736.0808080808081,40.000000000000114" fill="none" stroke="rgba(255,0,0,0.75)" stroke-width="14.159999999999995"/></g><g><rect data-type="rect" data-label="" data-x="0" data-y="0" x="40.000000000000114" y="40.000000000000284" width="943.9999999999997" height="943.9999999999998" fill="none" stroke="gray" stroke-width="0.010593220338983056"/></g><g><rect data-type="rect" data-label="" data-x="0" data-y="0" x="40.000000000000114" y="40.000000000000284" width="943.9999999999997" height="943.9999999999998" fill="none" stroke="rgba(15, 23, 42, 0.8)" stroke-width="0.010593220338983056"/></g><circle data-type="circle" data-label="" data-x="1.0606060606060617" data-y="3.989898989898992" cx="612.1212121212121" cy="135.35353535353545" r="28.791999999999987" fill="rgba(0,0,0,0.3)" stroke="black" stroke-width="0.010593220338983056"/><circle data-type="circle" data-label="" data-x="-1.5656565656565653" data-y="3.989898989898992" cx="364.2020202020202" cy="135.35353535353545" r="28.791999999999987" fill="rgba(0,0,0,0.3)" stroke="black" stroke-width="0.010593220338983056"/><circle data-type="circle" data-label="" data-x="2.070707070707072" data-y="3.989898989898992" cx="707.4747474747475" cy="135.35353535353545" r="28.791999999999987" fill="rgba(0,0,0,0.3)" stroke="black" stroke-width="0.010593220338983056"/><g id="crosshair" style="display: none"><line id="crosshair-h" y1="0" y2="1024" stroke="#666" stroke-width="0.5"/><line id="crosshair-v" x1="0" x2="1024" stroke="#666" stroke-width="0.5"/><text id="coordinates" font-family="monospace" font-size="12" fill="#666"></text></g><script><![CDATA[
              document.currentScript.parentElement.addEventListener('mousemove', (e) => {
                const svg = e.currentTarget;
                const rect = svg.getBoundingClientRect();
                const x = e.clientX - rect.left;
                const y = e.clientY - rect.top;
                const crosshair = svg.getElementById('crosshair');
                const h = svg.getElementById('crosshair-h');
                const v = svg.getElementById('crosshair-v');
                const coords = svg.getElementById('coordinates');
                
                crosshair.style.display = 'block';
                h.setAttribute('x1', '0');
                h.setAttribute('x2', '1024');
                h.setAttribute('y1', y);
                h.setAttribute('y2', y);
                v.setAttribute('x1', x);
                v.setAttribute('x2', x);
                v.setAttribute('y1', '0');
                v.setAttribute('y2', '1024');

                // Calculate real coordinates using inverse transformation
                const matrix = {"a":94.39999999999996,"c":0,"e":511.99999999999994,"b":0,"d":-94.39999999999996,"f":512.0000000000001};
                // Manually invert and apply the affine transform
                // Since we only use translate and scale, we can directly compute:
                // x' = (x - tx) / sx
                // y' = (y - ty) / sy
                const sx = matrix.a;
                const sy = matrix.d;
                const tx = matrix.e; 
                const ty = matrix.f;
                const realPoint = {
                  x: (x - tx) / sx,
                  y: (y - ty) / sy // Flip y back since we used negative scale
                }
                
                coords.textContent = `(${realPoint.x.toFixed(2)}, ${realPoint.y.toFixed(2)})`;
                coords.setAttribute('x', (x + 5).toString());
                coords.setAttribute('y', (y - 5).toString());
              });
              document.currentScript.parentElement.addEventListener('mouseleave', () => {
                document.currentScript.parentElement.getElementById('crosshair').style.display = 'none';
              });
            ]]></script></svg>