<svg width="1024" height="1024" viewBox="0 0 1024 1024" xmlns="http://www.w3.org/2000/svg"><rect width="100%" height="100%" fill="white"/><g><circle data-type="point" data-label="conn_000" data-x="-5" data-y="-4.84" cx="40.000000000000114" cy="968.896" r="28.792" fill="red" stroke="#0fbd42" stroke-width="28.792"/></g><g><circle data-type="point" data-label="conn_000" data-x="5" data-y="4.04" cx="983.9999999999998" cy="130.62400000000025" r="28.792" fill="red" stroke="#0fbd42" stroke-width="28.792"/></g><g><circle data-type="point" data-label="conn_001" data-x="5" data-y="-0.1" cx="983.9999999999998" cy="521.44" r="28.792" fill="blue" stroke="#740fbd" stroke-width="28.792"/></g><g><circle data-type="point" data-label="conn_001" data-x="-5" data-y="2.06" cx="40.000000000000114" cy="317.5360000000002" r="28.792" fill="blue" stroke="#740fbd" stroke-width="28.792"/></g><g><circle data-type="point" data-label="conn_002" data-x="5" data-y="-2.32" cx="983.9999999999998" cy="731.008" r="28.792" fill="red" stroke="#bda70f" stroke-width="28.792"/></g><g><circle data-type="point" data-label="conn_002" data-x="1.28" data-y="5" cx="632.8319999999999" cy="40.000000000000284" r="28.792" fill="red" stroke="#bda70f" stroke-width="28.792"/></g><g><circle data-type="point" data-label="conn_003" data-x="4.88" data-y="5" cx="972.6719999999998" cy="40.000000000000284" r="28.792" fill="blue" stroke="#0fa0bd" stroke-width="28.792"/></g><g><circle data-type="point" data-label="conn_003" data-x="-1.34" data-y="-5" cx="385.504" cy="984" r="28.792" fill="red" stroke="#0fa0bd" stroke-width="28.792"/></g><g><circle data-type="point" data-label="conn_004" data-x="-3.46" data-y="5" cx="185.3760000000001" cy="40.000000000000284" r="28.792" fill="blue" stroke="#bd0f6d" stroke-width="28.792"/></g><g><circle data-type="point" data-label="conn_004" data-x="-1.18" data-y="5" cx="400.608" cy="40.000000000000284" r="28.792" fill="blue" stroke="#bd0f6d" stroke-width="28.792"/></g><g><polyline data-points="4.898989898989901,5.000000000000002 4.7979797979797985,4.898989898989901 4.696969696969697,4.7979797979797985 4.595959595959597,4.696969696969697 4.494949494949497,4.595959595959597 4.393939393939394,4.494949494949497 4.292929292929293,4.393939393939394 4.191919191919193,4.292929292929293 4.090909090909092,4.191919191919193 3.989898989898992,4.090909090909092 3.8888888888888893,3.989898989898992 3.7878787878787885,3.8888888888888893 3.6868686868686877,3.7878787878787885 3.5858585858585874,3.6868686868686877 3.4848484848484866,3.5858585858585874 3.383838383838384,3.4848484848484866 3.2828282828282833,3.383838383838384 3.181818181818183,3.2828282828282833 3.080808080808082,3.181818181818183 2.9797979797979806,3.080808080808082 2.87878787878788,2.9797979797979806 2.7777777777777786,2.87878787878788 2.676767676767678,2.7777777777777786 2.575757575757577,2.676767676767678 2.4747474747474754,2.575757575757577 2.373737373737375,2.4747474747474754 2.2727272727272734,2.373737373737375 2.1717171717171726,2.2727272727272734 2.070707070707072,2.1717171717171726 1.9696969696969702,2.070707070707072 1.8686868686868696,1.9696969696969702 1.767676767676768,1.8686868686868696 1.6666666666666674,1.767676767676768 1.5656565656565666,1.6666666666666674 1.4646464646464652,1.5656565656565666 1.3636363636363644,1.4646464646464652 1.262626262626263,1.3636363636363644 1.1616161616161622,1.262626262626263 1.0606060606060617,1.1616161616161622 0.9595959595959602,1.0606060606060617 0.8585858585858596,0.9595959595959602 0.7575757575757579,0.8585858585858596 0.6565656565656574,0.7575757575757579 0.5555555555555567,0.6565656565656574 0.4545454545454551,0.5555555555555567 0.3535353535353544,0.4545454545454551 0.2525252525252529,0.3535353535353544 0.1515151515151522,0.2525252525252529 0.050505050505051545,0.1515151515151522 -0.05050505050505001,0.050505050505051545 -0.15151515151515066,-0.05050505050505001 -0.2525252525252522,-0.15151515151515066 -0.35353535353535287,-0.2525252525252522 -0.4545454545454544,-0.35353535353535287 -0.555555555555555,-0.4545454545454544 -0.6565656565656557,-0.555555555555555 -0.7575757575757572,-0.6565656565656557 -0.8585858585858579,-0.7575757575757572 -0.9595959595959596,-0.8585858585858579 -1.0606060606060603,-0.9595959595959596 -1.1616161616161613,-1.0606060606060603 -1.2626262626262625,-1.1616161616161613 -1.363636363636363,-1.2626262626262625 -1.363636363636363,-1.363636363636363 -1.363636363636363,-1.4646464646464643 -1.363636363636363,-1.5656565656565653 -1.363636363636363,-1.6666666666666665 -1.363636363636363,-1.7676767676767675 -1.363636363636363,-1.8686868686868683 -1.363636363636363,-1.9696969696969693 -1.363636363636363,-2.07070707070707 -1.363636363636363,-2.1717171717171713 -1.363636363636363,-2.2727272727272725 -1.363636363636363,-2.3737373737373733 -1.363636363636363,-2.474747474747474 -1.363636363636363,-2.5757575757575752 -1.363636363636363,-2.6767676767676765 -1.363636363636363,-2.7777777777777777 -1.363636363636363,-2.8787878787878785 -1.363636363636363,-2.9797979797979792 -1.363636363636363,-3.0808080808080804 -1.363636363636363,-3.1818181818181817 -1.363636363636363,-3.2828282828282824 -1.363636363636363,-3.383838383838383 -1.363636363636363,-3.484848484848485 -1.363636363636363,-3.5858585858585856 -1.363636363636363,-3.6868686868686864 -1.363636363636363,-3.7878787878787876 -1.363636363636363,-3.8888888888888884 -1.363636363636363,-3.98989898989899" data-type="line" data-label="" points="974.4646464646464,40.000000000000114 964.9292929292927,49.53535353535369 955.3939393939393,59.07070707070733 945.8585858585857,68.60606060606085 936.3232323232323,78.14141414141432 926.7878787878785,87.67676767676778 917.2525252525251,97.21212121212153 907.7171717171716,106.747474747475 898.181818181818,116.28282828282846 888.6464646464647,125.81818181818198 879.111111111111,135.35353535353545 869.5757575757575,144.88888888888908 860.0404040404039,154.4242424242426 850.5050505050505,163.95959595959613 840.969696969697,173.4949494949496 831.4343434343433,183.03030303030312 821.8989898989898,192.56565656565675 812.3636363636363,202.10101010101027 802.8282828282828,211.63636363636374 793.2929292929292,221.17171717171726 783.7575757575758,230.70707070707084 774.2222222222222,240.24242424242436 764.6868686868686,249.77777777777794 755.1515151515151,259.3131313131314 745.6161616161615,268.84848484848493 736.0808080808081,278.38383838383857 726.5454545454545,287.91919191919203 717.0101010101009,297.4545454545456 707.4747474747475,306.9898989898991 697.9393939393939,316.5252525252526 688.4040404040404,326.06060606060623 678.8686868686868,335.5959595959597 669.3333333333333,345.1313131313133 659.7979797979798,354.66666666666674 650.2626262626262,364.2020202020203 640.7272727272727,373.73737373737384 631.1919191919192,383.27272727272737 621.6565656565656,392.80808080808094 612.1212121212121,402.3434343434344 602.5858585858585,411.87878787878793 593.0505050505051,421.4141414141415 583.5151515151515,430.94949494949503 573.9797979797979,440.4848484848486 564.4444444444445,450.0202020202021 554.9090909090909,459.5555555555556 545.3737373737374,469.0909090909092 535.8383838383838,478.6262626262627 526.3030303030303,488.1616161616163 516.7676767676768,497.69696969696975 507.2323232323232,507.23232323232327 497.69696969696975,516.7676767676768 488.16161616161617,526.3030303030304 478.62626262626264,535.838383838384 469.09090909090907,545.3737373737374 459.55555555555554,554.909090909091 450.0202020202021,564.4444444444445 440.4848484848485,573.979797979798 430.949494949495,583.5151515151516 421.4141414141414,593.0505050505051 411.8787878787879,602.5858585858587 402.34343434343435,612.1212121212121 392.80808080808083,621.6565656565657 383.2727272727273,631.1919191919193 383.2727272727273,640.7272727272727 383.2727272727273,650.2626262626263 383.2727272727273,659.7979797979798 383.2727272727273,669.3333333333334 383.2727272727273,678.8686868686868 383.2727272727273,688.4040404040404 383.2727272727273,697.939393939394 383.2727272727273,707.4747474747475 383.2727272727273,717.010101010101 383.2727272727273,726.5454545454545 383.2727272727273,736.0808080808081 383.2727272727273,745.6161616161615 383.2727272727273,755.1515151515151 383.2727272727273,764.6868686868687 383.2727272727273,774.2222222222222 383.2727272727273,783.7575757575758 383.2727272727273,793.2929292929292 383.2727272727273,802.8282828282828 383.2727272727273,812.3636363636363 383.2727272727273,821.8989898989898 383.2727272727273,831.4343434343434 383.2727272727273,840.969696969697 383.2727272727273,850.5050505050505 383.2727272727273,860.0404040404039 383.2727272727273,869.5757575757575 383.2727272727273,879.1111111111111 383.2727272727273,888.6464646464647" fill="none" stroke="rgba(0,0,255,0.75)" stroke-width="14.159999999999995"/></g><g><polyline data-points="-1.363636363636363,-3.98989898989899 -1.363636363636363,-4.090909090909091 -1.363636363636363,-4.191919191919193 -1.363636363636363,-4.292929292929293 -1.363636363636363,-4.393939393939394 -1.363636363636363,-4.494949494949496 -1.363636363636363,-4.595959595959596 -1.363636363636363,-4.696969696969697 -1.363636363636363,-4.7979797979797985 -1.363636363636363,-4.898989898989899 -1.363636363636363,-5.000000000000001" data-type="line" data-label="" points="383.2727272727273,888.6464646464647 383.2727272727273,898.1818181818181 383.2727272727273,907.7171717171718 383.2727272727273,917.2525252525252 383.2727272727273,926.7878787878788 383.2727272727273,936.3232323232323 383.2727272727273,945.8585858585858 383.2727272727273,955.3939393939394 383.2727272727273,964.9292929292928 383.2727272727273,974.4646464646464 383.2727272727273,984" fill="none" stroke="rgba(255,0,0,0.75)" stroke-width="14.159999999999995"/></g><g><polyline data-points="-3.484848484848485,5.000000000000002 -3.383838383838383,5.000000000000002 -3.2828282828282824,5.000000000000002 -3.1818181818181817,5.000000000000002 -3.0808080808080804,5.000000000000002 -2.9797979797979792,5.000000000000002 -2.8787878787878785,5.000000000000002 -2.7777777777777777,5.000000000000002 -2.6767676767676765,5.000000000000002 -2.5757575757575752,5.000000000000002 -2.474747474747474,5.000000000000002 -2.3737373737373733,5.000000000000002 -2.2727272727272725,5.000000000000002 -2.1717171717171713,5.000000000000002 -2.07070707070707,5.000000000000002 -1.9696969696969693,5.000000000000002 -1.8686868686868683,5.000000000000002 -1.7676767676767675,5.000000000000002 -1.6666666666666665,5.000000000000002 -1.5656565656565653,5.000000000000002 -1.4646464646464643,5.000000000000002 -1.363636363636363,5.000000000000002 -1.2626262626262625,5.000000000000002 -1.1616161616161613,5.000000000000002" data-type="line" data-label="" points="183.03030303030312,40.000000000000114 192.5656565656567,40.000000000000114 202.10101010101022,40.000000000000114 211.63636363636374,40.000000000000114 221.17171717171726,40.000000000000114 230.70707070707084,40.000000000000114 240.2424242424243,40.000000000000114 249.77777777777783,40.000000000000114 259.3131313131314,40.000000000000114 268.84848484848493,40.000000000000114 278.38383838383845,40.000000000000114 287.91919191919203,40.000000000000114 297.4545454545455,40.000000000000114 306.9898989898991,40.000000000000114 316.5252525252526,40.000000000000114 326.0606060606061,40.000000000000114 335.59595959595964,40.000000000000114 345.13131313131316,40.000000000000114 354.6666666666667,40.000000000000114 364.2020202020202,40.000000000000114 373.7373737373738,40.000000000000114 383.2727272727273,40.000000000000114 392.80808080808083,40.000000000000114 402.34343434343435,40.000000000000114" fill="none" stroke="rgba(0,0,255,0.75)" stroke-width="14.159999999999995"/></g><g><polyline data-points="5.000000000000002,-0.05050505050505001 4.898989898989901,0.050505050505051545 4.7979797979797985,0.1515151515151522 4.696969696969697,0.2525252525252529 4.595959595959597,0.3535353535353544 4.494949494949497,0.4545454545454551 4.393939393939394,0.5555555555555567 4.292929292929293,0.6565656565656574 4.191919191919193,0.7575757575757579 4.090909090909092,0.8585858585858596 3.989898989898992,0.9595959595959602 3.8888888888888893,1.0606060606060617 3.7878787878787885,1.1616161616161622 3.6868686868686877,1.262626262626263 3.5858585858585874,1.3636363636363644 3.4848484848484866,1.4646464646464652 3.383838383838384,1.5656565656565666 3.2828282828282833,1.6666666666666674 3.181818181818183,1.767676767676768 3.080808080808082,1.8686868686868696 2.9797979797979806,1.9696969696969702 2.87878787878788,2.070707070707072 2.7777777777777786,2.070707070707072" data-type="line" data-label="" points="984,516.7676767676768 974.4646464646464,507.23232323232327 964.9292929292927,497.69696969696975 955.3939393939393,488.1616161616163 945.8585858585857,478.6262626262627 936.3232323232323,469.0909090909092 926.7878787878785,459.5555555555556 917.2525252525251,450.0202020202021 907.7171717171716,440.4848484848486 898.181818181818,430.94949494949503 888.6464646464647,421.4141414141415 879.111111111111,411.87878787878793 869.5757575757575,402.3434343434344 860.0404040404039,392.80808080808094 850.5050505050505,383.27272727272737 840.969696969697,373.73737373737384 831.4343434343433,364.2020202020203 821.8989898989898,354.66666666666674 812.3636363636363,345.1313131313133 802.8282828282828,335.5959595959597 793.2929292929292,326.06060606060623 783.7575757575758,316.5252525252526 774.2222222222222,316.5252525252526" fill="none" stroke="rgba(0,0,255,0.75)" stroke-width="14.159999999999995"/></g><g><polyline data-points="2.7777777777777786,2.070707070707072 2.676767676767678,2.070707070707072 2.575757575757577,2.070707070707072 2.4747474747474754,2.070707070707072 2.373737373737375,2.070707070707072 2.2727272727272734,2.070707070707072 2.1717171717171726,2.070707070707072 2.070707070707072,2.070707070707072 1.9696969696969702,2.070707070707072 1.8686868686868696,2.070707070707072 1.767676767676768,2.070707070707072 1.6666666666666674,2.070707070707072 1.5656565656565666,2.070707070707072 1.4646464646464652,2.070707070707072 1.3636363636363644,2.070707070707072 1.262626262626263,2.070707070707072 1.1616161616161622,2.070707070707072 1.0606060606060617,2.070707070707072 0.9595959595959602,2.070707070707072 0.8585858585858596,2.070707070707072 0.7575757575757579,2.070707070707072 0.6565656565656574,2.070707070707072 0.5555555555555567,2.070707070707072 0.4545454545454551,2.070707070707072 0.3535353535353544,2.070707070707072 0.2525252525252529,2.070707070707072 0.1515151515151522,2.070707070707072 0.050505050505051545,2.070707070707072 -0.05050505050505001,2.070707070707072 -0.15151515151515066,2.070707070707072 -0.2525252525252522,2.070707070707072 -0.35353535353535287,2.070707070707072 -0.4545454545454544,2.070707070707072 -0.555555555555555,2.070707070707072 -0.6565656565656557,2.070707070707072 -0.7575757575757572,2.070707070707072 -0.8585858585858579,2.070707070707072 -0.9595959595959596,2.070707070707072 -1.0606060606060603,2.070707070707072 -1.1616161616161613,2.070707070707072 -1.2626262626262625,2.070707070707072 -1.363636363636363,2.070707070707072 -1.4646464646464643,2.070707070707072 -1.5656565656565653,2.070707070707072 -1.6666666666666665,2.070707070707072 -1.7676767676767675,2.070707070707072 -1.8686868686868683,2.070707070707072 -1.9696969696969693,2.070707070707072 -2.07070707070707,2.070707070707072 -2.1717171717171713,2.070707070707072 -2.2727272727272725,2.070707070707072 -2.3737373737373733,2.070707070707072 -2.474747474747474,2.070707070707072 -2.5757575757575752,2.070707070707072 -2.6767676767676765,2.070707070707072 -2.7777777777777777,2.070707070707072 -2.8787878787878785,2.070707070707072 -2.9797979797979792,2.070707070707072 -3.0808080808080804,2.070707070707072 -3.1818181818181817,2.070707070707072 -3.2828282828282824,2.070707070707072 -3.383838383838383,2.070707070707072 -3.484848484848485,2.070707070707072 -3.5858585858585856,2.070707070707072 -3.6868686868686864,2.070707070707072 -3.7878787878787876,2.070707070707072 -3.8888888888888884,2.070707070707072 -3.98989898989899,2.070707070707072" data-type="line" data-label="" points="774.2222222222222,316.5252525252526 764.6868686868686,316.5252525252526 755.1515151515151,316.5252525252526 745.6161616161615,316.5252525252526 736.0808080808081,316.5252525252526 726.5454545454545,316.5252525252526 717.0101010101009,316.5252525252526 707.4747474747475,316.5252525252526 697.9393939393939,316.5252525252526 688.4040404040404,316.5252525252526 678.8686868686868,316.5252525252526 669.3333333333333,316.5252525252526 659.7979797979798,316.5252525252526 650.2626262626262,316.5252525252526 640.7272727272727,316.5252525252526 631.1919191919192,316.5252525252526 621.6565656565656,316.5252525252526 612.1212121212121,316.5252525252526 602.5858585858585,316.5252525252526 593.0505050505051,316.5252525252526 583.5151515151515,316.5252525252526 573.9797979797979,316.5252525252526 564.4444444444445,316.5252525252526 554.9090909090909,316.5252525252526 545.3737373737374,316.5252525252526 535.8383838383838,316.5252525252526 526.3030303030303,316.5252525252526 516.7676767676768,316.5252525252526 507.2323232323232,316.5252525252526 497.69696969696975,316.5252525252526 488.16161616161617,316.5252525252526 478.62626262626264,316.5252525252526 469.09090909090907,316.5252525252526 459.55555555555554,316.5252525252526 450.0202020202021,316.5252525252526 440.4848484848485,316.5252525252526 430.949494949495,316.5252525252526 421.4141414141414,316.5252525252526 411.8787878787879,316.5252525252526 402.34343434343435,316.5252525252526 392.80808080808083,316.5252525252526 383.2727272727273,316.5252525252526 373.7373737373738,316.5252525252526 364.2020202020202,316.5252525252526 354.6666666666667,316.5252525252526 345.13131313131316,316.5252525252526 335.59595959595964,316.5252525252526 326.0606060606061,316.5252525252526 316.5252525252526,316.5252525252526 306.9898989898991,316.5252525252526 297.4545454545455,316.5252525252526 287.91919191919203,316.5252525252526 278.38383838383845,316.5252525252526 268.84848484848493,316.5252525252526 259.3131313131314,316.5252525252526 249.77777777777783,316.5252525252526 240.2424242424243,316.5252525252526 230.70707070707084,316.5252525252526 221.17171717171726,316.5252525252526 211.63636363636374,316.5252525252526 202.10101010101022,316.5252525252526 192.5656565656567,316.5252525252526 183.03030303030312,316.5252525252526 173.4949494949496,316.5252525252526 163.95959595959607,316.5252525252526 154.42424242424255,316.5252525252526 144.88888888888903,316.5252525252526 135.35353535353545,316.5252525252526" fill="none" stroke="rgba(255,0,0,0.75)" stroke-width="14.159999999999995"/></g><g><polyline data-points="-3.98989898989899,2.070707070707072 -4.090909090909091,2.070707070707072 -4.191919191919193,2.070707070707072 -4.292929292929293,2.070707070707072 -4.393939393939394,2.070707070707072 -4.494949494949496,2.070707070707072 -4.595959595959596,2.070707070707072 -4.696969696969697,2.070707070707072 -4.7979797979797985,2.070707070707072 -4.898989898989899,2.070707070707072 -5.000000000000001,2.070707070707072" data-type="line" data-label="" points="135.35353535353545,316.5252525252526 125.81818181818193,316.5252525252526 116.28282828282829,316.5252525252526 106.74747474747483,316.5252525252526 97.21212121212136,316.5252525252526 87.67676767676772,316.5252525252526 78.14141414141426,316.5252525252526 68.60606060606068,316.5252525252526 59.07070707070716,316.5252525252526 49.53535353535369,316.5252525252526 40.00000000000006,316.5252525252526" fill="none" stroke="rgba(0,0,255,0.75)" stroke-width="14.159999999999995"/></g><g><polyline data-points="5.000000000000002,-2.3737373737373733 4.898989898989901,-2.2727272727272725 4.7979797979797985,-2.1717171717171713 4.696969696969697,-2.07070707070707 4.595959595959597,-1.9696969696969693 4.494949494949497,-1.8686868686868683 4.393939393939394,-1.7676767676767675 4.292929292929293,-1.6666666666666665 4.191919191919193,-1.5656565656565653 4.090909090909092,-1.4646464646464643 3.989898989898992,-1.363636363636363 3.8888888888888893,-1.2626262626262625 3.7878787878787885,-1.1616161616161613 3.6868686868686877,-1.0606060606060603 3.5858585858585874,-0.9595959595959596 3.4848484848484866,-0.8585858585858579 3.383838383838384,-0.7575757575757572 3.2828282828282833,-0.6565656565656557 3.2828282828282833,-0.555555555555555 3.2828282828282833,-0.4545454545454544 3.2828282828282833,-0.35353535353535287 3.2828282828282833,-0.2525252525252522 3.2828282828282833,-0.15151515151515066 3.2828282828282833,-0.05050505050505001 3.2828282828282833,0.050505050505051545 3.2828282828282833,0.1515151515151522 3.2828282828282833,0.2525252525252529 3.2828282828282833,0.3535353535353544 3.2828282828282833,0.4545454545454551 3.2828282828282833,0.5555555555555567 3.2828282828282833,0.6565656565656574 3.2828282828282833,0.7575757575757579 3.2828282828282833,0.8585858585858596 3.2828282828282833,0.9595959595959602 3.2828282828282833,1.0606060606060617 3.2828282828282833,1.1616161616161622 3.2828282828282833,1.262626262626263 3.2828282828282833,1.3636363636363644 3.2828282828282833,1.4646464646464652 3.2828282828282833,1.5656565656565666 3.2828282828282833,1.6666666666666674 3.2828282828282833,1.767676767676768 3.2828282828282833,1.8686868686868696 3.2828282828282833,1.9696969696969702 3.2828282828282833,2.070707070707072 3.181818181818183,2.1717171717171726 3.181818181818183,2.2727272727272734 3.080808080808082,2.373737373737375 2.9797979797979806,2.4747474747474754 2.87878787878788,2.575757575757577 2.7777777777777786,2.676767676767678 2.676767676767678,2.7777777777777786 2.575757575757577,2.87878787878788 2.4747474747474754,2.9797979797979806 2.373737373737375,3.080808080808082 2.2727272727272734,3.181818181818183 2.1717171717171726,3.2828282828282833 2.070707070707072,3.383838383838384 1.9696969696969702,3.4848484848484866 1.8686868686868696,3.5858585858585874 1.767676767676768,3.6868686868686877 1.6666666666666674,3.7878787878787885 1.5656565656565666,3.8888888888888893 1.4646464646464652,3.989898989898992 1.3636363636363644,4.090909090909092 1.262626262626263,4.191919191919193 1.262626262626263,4.292929292929293 1.262626262626263,4.393939393939394 1.262626262626263,4.494949494949497 1.262626262626263,4.595959595959597 1.262626262626263,4.696969696969697 1.262626262626263,4.7979797979797985 1.262626262626263,4.898989898989901 1.262626262626263,5.000000000000002" data-type="line" data-label="" points="984,736.0808080808081 974.4646464646464,726.5454545454545 964.9292929292927,717.010101010101 955.3939393939393,707.4747474747475 945.8585858585857,697.939393939394 936.3232323232323,688.4040404040404 926.7878787878785,678.8686868686868 917.2525252525251,669.3333333333334 907.7171717171716,659.7979797979798 898.181818181818,650.2626262626263 888.6464646464647,640.7272727272727 879.111111111111,631.1919191919193 869.5757575757575,621.6565656565657 860.0404040404039,612.1212121212121 850.5050505050505,602.5858585858587 840.969696969697,593.0505050505051 831.4343434343433,583.5151515151516 821.8989898989898,573.979797979798 821.8989898989898,564.4444444444445 821.8989898989898,554.909090909091 821.8989898989898,545.3737373737374 821.8989898989898,535.838383838384 821.8989898989898,526.3030303030304 821.8989898989898,516.7676767676768 821.8989898989898,507.23232323232327 821.8989898989898,497.69696969696975 821.8989898989898,488.1616161616163 821.8989898989898,478.6262626262627 821.8989898989898,469.0909090909092 821.8989898989898,459.5555555555556 821.8989898989898,450.0202020202021 821.8989898989898,440.4848484848486 821.8989898989898,430.94949494949503 821.8989898989898,421.4141414141415 821.8989898989898,411.87878787878793 821.8989898989898,402.3434343434344 821.8989898989898,392.80808080808094 821.8989898989898,383.27272727272737 821.8989898989898,373.73737373737384 821.8989898989898,364.2020202020203 821.8989898989898,354.66666666666674 821.8989898989898,345.1313131313133 821.8989898989898,335.5959595959597 821.8989898989898,326.06060606060623 821.8989898989898,316.5252525252526 812.3636363636363,306.9898989898991 812.3636363636363,297.4545454545456 802.8282828282828,287.91919191919203 793.2929292929292,278.38383838383857 783.7575757575758,268.84848484848493 774.2222222222222,259.3131313131314 764.6868686868686,249.77777777777794 755.1515151515151,240.24242424242436 745.6161616161615,230.70707070707084 736.0808080808081,221.17171717171726 726.5454545454545,211.63636363636374 717.0101010101009,202.10101010101027 707.4747474747475,192.56565656565675 697.9393939393939,183.03030303030312 688.4040404040404,173.4949494949496 678.8686868686868,163.95959595959613 669.3333333333333,154.4242424242426 659.7979797979798,144.88888888888908 650.2626262626262,135.35353535353545 640.7272727272727,125.81818181818198 631.1919191919192,116.28282828282846 631.1919191919192,106.747474747475 631.1919191919192,97.21212121212153 631.1919191919192,87.67676767676778 631.1919191919192,78.14141414141432 631.1919191919192,68.60606060606085 631.1919191919192,59.07070707070733 631.1919191919192,49.53535353535369 631.1919191919192,40.000000000000114" fill="none" stroke="rgba(255,0,0,0.75)" stroke-width="14.159999999999995"/></g><g><polyline data-points="-5.000000000000001,-4.898989898989899 -4.898989898989899,-4.7979797979797985 -4.7979797979797985,-4.696969696969697 -4.696969696969697,-4.595959595959596 -4.595959595959596,-4.494949494949496 -4.494949494949496,-4.393939393939394 -4.393939393939394,-4.292929292929293 -4.292929292929293,-4.191919191919193 -4.191919191919193,-4.090909090909091 -4.090909090909091,-3.98989898989899 -3.98989898989899,-3.8888888888888884 -3.8888888888888884,-3.7878787878787876 -3.7878787878787876,-3.6868686868686864 -3.6868686868686864,-3.5858585858585856 -3.5858585858585856,-3.484848484848485 -3.484848484848485,-3.383838383838383 -3.383838383838383,-3.2828282828282824 -3.2828282828282824,-3.1818181818181817 -3.1818181818181817,-3.0808080808080804 -3.0808080808080804,-2.9797979797979792 -2.9797979797979792,-2.8787878787878785 -2.8787878787878785,-2.7777777777777777 -2.7777777777777777,-2.6767676767676765 -2.6767676767676765,-2.5757575757575752 -2.5757575757575752,-2.474747474747474 -2.474747474747474,-2.3737373737373733 -2.3737373737373733,-2.2727272727272725 -2.2727272727272725,-2.1717171717171713 -2.1717171717171713,-2.07070707070707 -2.07070707070707,-1.9696969696969693 -1.9696969696969693,-1.8686868686868683 -1.8686868686868683,-1.7676767676767675 -1.7676767676767675,-1.6666666666666665 -1.6666666666666665,-1.5656565656565653 -1.5656565656565653,-1.4646464646464643 -1.4646464646464643,-1.363636363636363 -1.363636363636363,-1.2626262626262625 -1.2626262626262625,-1.1616161616161613 -1.1616161616161613,-1.0606060606060603 -1.0606060606060603,-0.9595959595959596 -0.9595959595959596,-0.8585858585858579 -0.8585858585858579,-0.7575757575757572 -0.7575757575757572,-0.6565656565656557 -0.6565656565656557,-0.555555555555555 -0.555555555555555,-0.4545454545454544 -0.4545454545454544,-0.35353535353535287 -0.35353535353535287,-0.2525252525252522 -0.2525252525252522,-0.15151515151515066 -0.15151515151515066,-0.05050505050505001 -0.05050505050505001,0.050505050505051545 0.050505050505051545,0.1515151515151522 0.1515151515151522,0.2525252525252529 0.2525252525252529,0.3535353535353544 0.3535353535353544,0.4545454545454551 0.4545454545454551,0.5555555555555567 0.5555555555555567,0.6565656565656574 0.5555555555555567,0.7575757575757579 0.5555555555555567,0.8585858585858596 0.5555555555555567,0.9595959595959602 0.5555555555555567,1.0606060606060617 0.5555555555555567,1.1616161616161622 0.5555555555555567,1.262626262626263 0.5555555555555567,1.3636363636363644 0.5555555555555567,1.4646464646464652" data-type="line" data-label="" points="40.00000000000006,974.4646464646464 49.53535353535369,964.9292929292928 59.07070707070716,955.3939393939394 68.60606060606068,945.8585858585858 78.14141414141426,936.3232323232323 87.67676767676772,926.7878787878788 97.21212121212136,917.2525252525252 106.74747474747483,907.7171717171718 116.28282828282829,898.1818181818181 125.81818181818193,888.6464646464647 135.35353535353545,879.1111111111111 144.88888888888903,869.5757575757575 154.42424242424255,860.0404040404039 163.95959595959607,850.5050505050505 173.4949494949496,840.969696969697 183.03030303030312,831.4343434343434 192.5656565656567,821.8989898989898 202.10101010101022,812.3636363636363 211.63636363636374,802.8282828282828 221.17171717171726,793.2929292929292 230.70707070707084,783.7575757575758 240.2424242424243,774.2222222222222 249.77777777777783,764.6868686868687 259.3131313131314,755.1515151515151 268.84848484848493,745.6161616161615 278.38383838383845,736.0808080808081 287.91919191919203,726.5454545454545 297.4545454545455,717.010101010101 306.9898989898991,707.4747474747475 316.5252525252526,697.939393939394 326.0606060606061,688.4040404040404 335.59595959595964,678.8686868686868 345.13131313131316,669.3333333333334 354.6666666666667,659.7979797979798 364.2020202020202,650.2626262626263 373.7373737373738,640.7272727272727 383.2727272727273,631.1919191919193 392.80808080808083,621.6565656565657 402.34343434343435,612.1212121212121 411.8787878787879,602.5858585858587 421.4141414141414,593.0505050505051 430.949494949495,583.5151515151516 440.4848484848485,573.979797979798 450.0202020202021,564.4444444444445 459.55555555555554,554.909090909091 469.09090909090907,545.3737373737374 478.62626262626264,535.838383838384 488.16161616161617,526.3030303030304 497.69696969696975,516.7676767676768 507.2323232323232,507.23232323232327 516.7676767676768,497.69696969696975 526.3030303030303,488.1616161616163 535.8383838383838,478.6262626262627 545.3737373737374,469.0909090909092 554.9090909090909,459.5555555555556 564.4444444444445,450.0202020202021 564.4444444444445,440.4848484848486 564.4444444444445,430.94949494949503 564.4444444444445,421.4141414141415 564.4444444444445,411.87878787878793 564.4444444444445,402.3434343434344 564.4444444444445,392.80808080808094 564.4444444444445,383.27272727272737 564.4444444444445,373.73737373737384" fill="none" stroke="rgba(255,0,0,0.75)" stroke-width="14.159999999999995"/></g><g><polyline data-points="0.5555555555555567,1.4646464646464652 0.6565656565656574,1.5656565656565666 0.7575757575757579,1.6666666666666674 0.8585858585858596,1.767676767676768 0.9595959595959602,1.8686868686868696 1.0606060606060617,1.9696969696969702 1.1616161616161622,2.070707070707072 1.262626262626263,2.1717171717171726 1.3636363636363644,2.2727272727272734 1.4646464646464652,2.373737373737375 1.5656565656565666,2.4747474747474754 1.6666666666666674,2.575757575757577 1.767676767676768,2.676767676767678 1.8686868686868696,2.7777777777777786 1.9696969696969702,2.87878787878788 2.070707070707072,2.9797979797979806 2.1717171717171726,3.080808080808082 2.2727272727272734,3.181818181818183 2.373737373737375,3.2828282828282833 2.4747474747474754,3.383838383838384 2.575757575757577,3.4848484848484866 2.676767676767678,3.5858585858585874 2.7777777777777786,3.6868686868686877 2.87878787878788,3.7878787878787885 2.9797979797979806,3.8888888888888893 3.080808080808082,3.989898989898992" data-type="line" data-label="" points="564.4444444444445,373.73737373737384 573.9797979797979,364.2020202020203 583.5151515151515,354.66666666666674 593.0505050505051,345.1313131313133 602.5858585858585,335.5959595959597 612.1212121212121,326.06060606060623 621.6565656565656,316.5252525252526 631.1919191919192,306.9898989898991 640.7272727272727,297.4545454545456 650.2626262626262,287.91919191919203 659.7979797979798,278.38383838383857 669.3333333333333,268.84848484848493 678.8686868686868,259.3131313131314 688.4040404040404,249.77777777777794 697.9393939393939,240.24242424242436 707.4747474747475,230.70707070707084 717.0101010101009,221.17171717171726 726.5454545454545,211.63636363636374 736.0808080808081,202.10101010101027 745.6161616161615,192.56565656565675 755.1515151515151,183.03030303030312 764.6868686868686,173.4949494949496 774.2222222222222,163.95959595959613 783.7575757575758,154.4242424242426 793.2929292929292,144.88888888888908 802.8282828282828,135.35353535353545" fill="none" stroke="rgba(0,0,255,0.75)" stroke-width="14.159999999999995"/></g><g><polyline data-points="3.080808080808082,3.989898989898992 3.181818181818183,4.090909090909092 3.2828282828282833,4.090909090909092 3.383838383838384,4.090909090909092 3.4848484848484866,4.090909090909092 3.5858585858585874,4.090909090909092 3.6868686868686877,4.090909090909092 3.7878787878787885,4.090909090909092 3.8888888888888893,4.090909090909092 3.989898989898992,4.090909090909092 4.090909090909092,4.090909090909092 4.191919191919193,4.090909090909092 4.292929292929293,4.090909090909092 4.393939393939394,4.090909090909092 4.494949494949497,4.090909090909092 4.595959595959597,4.090909090909092 4.696969696969697,4.090909090909092 4.7979797979797985,4.090909090909092 4.898989898989901,4.090909090909092 5.000000000000002,4.090909090909092" data-type="line" data-label="" points="802.8282828282828,135.35353535353545 812.3636363636363,125.81818181818198 821.8989898989898,125.81818181818198 831.4343434343433,125.81818181818198 840.969696969697,125.81818181818198 850.5050505050505,125.81818181818198 860.0404040404039,125.81818181818198 869.5757575757575,125.81818181818198 879.111111111111,125.81818181818198 888.6464646464647,125.81818181818198 898.181818181818,125.81818181818198 907.7171717171716,125.81818181818198 917.2525252525251,125.81818181818198 926.7878787878785,125.81818181818198 936.3232323232323,125.81818181818198 945.8585858585857,125.81818181818198 955.3939393939393,125.81818181818198 964.9292929292927,125.81818181818198 974.4646464646464,125.81818181818198 984,125.81818181818198" fill="none" stroke="rgba(255,0,0,0.75)" stroke-width="14.159999999999995"/></g><g><rect data-type="rect" data-label="" data-x="0" data-y="0" x="40.000000000000114" y="40.000000000000284" width="943.9999999999997" height="943.9999999999998" fill="none" stroke="gray" stroke-width="0.010593220338983056"/></g><g><rect data-type="rect" data-label="" data-x="0" data-y="0" x="40.000000000000114" y="40.000000000000284" width="943.9999999999997" height="943.9999999999998" fill="none" stroke="rgba(15, 23, 42, 0.8)" stroke-width="0.010593220338983056"/></g><circle data-type="circle" data-label="" data-x="-1.363636363636363" data-y="-3.98989898989899" cx="383.2727272727273" cy="888.6464646464647" r="28.791999999999987" fill="rgba(0,0,0,0.3)" stroke="black" stroke-width="0.010593220338983056"/><circle data-type="circle" data-label="" data-x="2.7777777777777786" data-y="2.070707070707072" cx="774.2222222222222" cy="316.5252525252526" r="28.791999999999987" fill="rgba(0,0,0,0.3)" stroke="black" stroke-width="0.010593220338983056"/><circle data-type="circle" data-label="" data-x="-3.98989898989899" data-y="2.070707070707072" cx="135.35353535353545" cy="316.5252525252526" r="28.791999999999987" fill="rgba(0,0,0,0.3)" stroke="black" stroke-width="0.010593220338983056"/><circle data-type="circle" data-label="" data-x="0.5555555555555567" data-y="1.4646464646464652" cx="564.4444444444445" cy="373.73737373737384" r="28.791999999999987" fill="rgba(0,0,0,0.3)" stroke="black" stroke-width="0.010593220338983056"/><circle data-type="circle" data-label="" data-x="3.080808080808082" data-y="3.989898989898992" cx="802.8282828282828" cy="135.35353535353545" r="28.791999999999987" fill="rgba(0,0,0,0.3)" stroke="black" stroke-width="0.010593220338983056"/><g id="crosshair" style="display: none"><line id="crosshair-h" y1="0" y2="1024" stroke="#666" stroke-width="0.5"/><line id="crosshair-v" x1="0" x2="1024" stroke="#666" stroke-width="0.5"/><text id="coordinates" font-family="monospace" font-size="12" fill="#666"></text></g><script><![CDATA[
              document.currentScript.parentElement.addEventListener('mousemove', (e) => {
                const svg = e.currentTarget;
                const rect = svg.getBoundingClientRect();
                const x = e.clientX - rect.left;
                const y = e.clientY - rect.top;
                const crosshair = svg.getElementById('crosshair');
                const h = svg.getElementById('crosshair-h');
                const v = svg.getElementById('crosshair-v');
                const coords = svg.getElementById('coordinates');
                
                crosshair.style.display = 'block';
                h.setAttribute('x1', '0');
                h.setAttribute('x2', '1024');
                h.setAttribute('y1', y);
                h.setAttribute('y2', y);
                v.setAttribute('x1', x);
                v.setAttribute('x2', x);
                v.setAttribute('y1', '0');
                v.setAttribute('y2', '1024');

                // Calculate real coordinates using inverse transformation
                const matrix = {"a":94.39999999999996,"c":0,"e":511.99999999999994,"b":0,"d":-94.39999999999996,"f":512.0000000000001};
                // Manually invert and apply the affine transform
                // Since we only use translate and scale, we can directly compute:
                // x' = (x - tx) / sx
                // y' = (y - ty) / sy
                const sx = matrix.a;
                const sy = matrix.d;
                const tx = matrix.e; 
                const ty = matrix.f;
                const realPoint = {
                  x: (x - tx) / sx,
                  y: (y - ty) / sy // Flip y back since we used negative scale
                }
                
                coords.textContent = `(${realPoint.x.toFixed(2)}, ${realPoint.y.toFixed(2)})`;
                coords.setAttribute('x', (x + 5).toString());
                coords.setAttribute('y', (y - 5).toString());
              });
              document.currentScript.parentElement.addEventListener('mouseleave', () => {
                document.currentScript.parentElement.getElementById('crosshair').style.display = 'none';
              });
            ]]></script></svg>