<svg width="1024" height="1024" viewBox="0 0 1024 1024" xmlns="http://www.w3.org/2000/svg"><rect width="100%" height="100%" fill="white"/><g><circle data-type="point" data-label="conn_000" data-x="-5" data-y="0.24" cx="40.000000000000114" cy="489.3440000000001" r="28.792" fill="blue" stroke="#740fbd" stroke-width="28.792"/></g><g><circle data-type="point" data-label="conn_000" data-x="5" data-y="-2.7" cx="983.9999999999998" cy="766.88" r="28.792" fill="blue" stroke="#740fbd" stroke-width="28.792"/></g><g><circle data-type="point" data-label="conn_001" data-x="-4.2" data-y="-5" cx="115.5200000000001" cy="984" r="28.792" fill="red" stroke="#bda70f" stroke-width="28.792"/></g><g><circle data-type="point" data-label="conn_001" data-x="-1.34" data-y="-5" cx="385.504" cy="984" r="28.792" fill="blue" stroke="#bda70f" stroke-width="28.792"/></g><g><circle data-type="point" data-label="conn_002" data-x="-4.72" data-y="5" cx="66.43200000000013" cy="40.000000000000284" r="28.792" fill="blue" stroke="#0fa0bd" stroke-width="28.792"/></g><g><circle data-type="point" data-label="conn_002" data-x="2.36" data-y="5" cx="734.7839999999999" cy="40.000000000000284" r="28.792" fill="blue" stroke="#0fa0bd" stroke-width="28.792"/></g><g><circle data-type="point" data-label="conn_003" data-x="-5" data-y="2" cx="40.000000000000114" cy="323.20000000000016" r="28.792" fill="red" stroke="#bd0f6d" stroke-width="28.792"/></g><g><circle data-type="point" data-label="conn_003" data-x="0.98" data-y="-5" cx="604.512" cy="984" r="28.792" fill="blue" stroke="#bd0f6d" stroke-width="28.792"/></g><g><circle data-type="point" data-label="conn_004" data-x="5" data-y="3.7800000000000002" cx="983.9999999999998" cy="155.16800000000023" r="28.792" fill="blue" stroke="#3bbd0f" stroke-width="28.792"/></g><g><circle data-type="point" data-label="conn_004" data-x="-5" data-y="2.64" cx="40.000000000000114" cy="262.7840000000002" r="28.792" fill="red" stroke="#3bbd0f" stroke-width="28.792"/></g><g><circle data-type="point" data-label="conn_005" data-x="-0.72" data-y="-5" cx="444.032" cy="984" r="28.792" fill="blue" stroke="#170fbd" stroke-width="28.792"/></g><g><circle data-type="point" data-label="conn_005" data-x="-2.68" data-y="5" cx="259.00800000000004" cy="40.000000000000284" r="28.792" fill="red" stroke="#170fbd" stroke-width="28.792"/></g><g><circle data-type="point" data-label="conn_006" data-x="-3.52" data-y="5" cx="179.71200000000005" cy="40.000000000000284" r="28.792" fill="red" stroke="#bd490f" stroke-width="28.792"/></g><g><circle data-type="point" data-label="conn_006" data-x="-1.52" data-y="5" cx="368.512" cy="40.000000000000284" r="28.792" fill="blue" stroke="#bd490f" stroke-width="28.792"/></g><g><circle data-type="point" data-label="conn_007" data-x="1.6" data-y="-5" cx="663.0399999999998" cy="984" r="28.792" fill="red" stroke="#0fbd7c" stroke-width="28.792"/></g><g><circle data-type="point" data-label="conn_007" data-x="1.16" data-y="5" cx="621.5039999999999" cy="40.000000000000284" r="28.792" fill="blue" stroke="#0fbd7c" stroke-width="28.792"/></g><g><circle data-type="point" data-label="conn_008" data-x="-2.14" data-y="-5" cx="309.98400000000004" cy="984" r="28.792" fill="red" stroke="#ae0fbd" stroke-width="28.792"/></g><g><circle data-type="point" data-label="conn_008" data-x="3.68" data-y="5" cx="859.3919999999998" cy="40.000000000000284" r="28.792" fill="blue" stroke="#ae0fbd" stroke-width="28.792"/></g><g><circle data-type="point" data-label="conn_009" data-x="-5" data-y="-4.14" cx="40.000000000000114" cy="902.8159999999999" r="28.792" fill="blue" stroke="#98bd0f" stroke-width="28.792"/></g><g><circle data-type="point" data-label="conn_009" data-x="-5" data-y="4.36" cx="40.000000000000114" cy="100.41600000000022" r="28.792" fill="red" stroke="#98bd0f" stroke-width="28.792"/></g><g><polyline data-points="-2.1717171717171713,-5.000000000000001 -2.07070707070707,-4.898989898989899 -1.9696969696969693,-4.7979797979797985 -1.8686868686868683,-4.696969696969697 -1.7676767676767675,-4.595959595959596 -1.6666666666666665,-4.494949494949496 -1.5656565656565653,-4.393939393939394 -1.4646464646464643,-4.292929292929293 -1.363636363636363,-4.191919191919193 -1.2626262626262625,-4.090909090909091 -1.1616161616161613,-3.98989898989899 -1.0606060606060603,-3.8888888888888884 -0.9595959595959596,-3.7878787878787876 -0.8585858585858579,-3.6868686868686864 -0.7575757575757572,-3.5858585858585856 -0.6565656565656557,-3.484848484848485 -0.555555555555555,-3.383838383838383 -0.4545454545454544,-3.2828282828282824 -0.35353535353535287,-3.1818181818181817 -0.2525252525252522,-3.0808080808080804 -0.15151515151515066,-2.9797979797979792 -0.05050505050505001,-2.8787878787878785 0.050505050505051545,-2.7777777777777777 0.1515151515151522,-2.6767676767676765 0.2525252525252529,-2.5757575757575752 0.3535353535353544,-2.474747474747474 0.4545454545454551,-2.3737373737373733 0.5555555555555567,-2.2727272727272725 0.6565656565656574,-2.1717171717171713 0.7575757575757579,-2.07070707070707 0.8585858585858596,-1.9696969696969693 0.9595959595959602,-1.8686868686868683 1.0606060606060617,-1.7676767676767675 1.1616161616161622,-1.6666666666666665 1.262626262626263,-1.5656565656565653 1.3636363636363644,-1.4646464646464643 1.4646464646464652,-1.363636363636363 1.5656565656565666,-1.2626262626262625 1.6666666666666674,-1.1616161616161613 1.767676767676768,-1.0606060606060603 1.8686868686868696,-0.9595959595959596 1.9696969696969702,-0.8585858585858579 2.070707070707072,-0.7575757575757572 2.1717171717171726,-0.6565656565656557 2.2727272727272734,-0.555555555555555 2.373737373737375,-0.4545454545454544 2.4747474747474754,-0.35353535353535287 2.575757575757577,-0.2525252525252522 2.676767676767678,-0.15151515151515066 2.7777777777777786,-0.05050505050505001 2.87878787878788,0.050505050505051545 2.9797979797979806,0.1515151515151522 3.080808080808082,0.2525252525252529 3.181818181818183,0.3535353535353544 3.2828282828282833,0.4545454545454551 3.383838383838384,0.5555555555555567 3.4848484848484866,0.6565656565656574 3.5858585858585874,0.7575757575757579 3.6868686868686877,0.8585858585858596 3.6868686868686877,0.9595959595959602 3.6868686868686877,1.0606060606060617 3.6868686868686877,1.1616161616161622 3.6868686868686877,1.262626262626263 3.6868686868686877,1.3636363636363644 3.6868686868686877,1.4646464646464652 3.6868686868686877,1.5656565656565666 3.6868686868686877,1.6666666666666674 3.6868686868686877,1.767676767676768 3.6868686868686877,1.8686868686868696 3.6868686868686877,1.9696969696969702 3.6868686868686877,2.070707070707072 3.6868686868686877,2.1717171717171726 3.6868686868686877,2.2727272727272734 3.6868686868686877,2.373737373737375 3.6868686868686877,2.4747474747474754 3.6868686868686877,2.575757575757577 3.6868686868686877,2.676767676767678 3.6868686868686877,2.7777777777777786 3.6868686868686877,2.87878787878788 3.6868686868686877,2.9797979797979806 3.6868686868686877,3.080808080808082 3.6868686868686877,3.181818181818183 3.6868686868686877,3.2828282828282833 3.6868686868686877,3.383838383838384 3.6868686868686877,3.4848484848484866 3.6868686868686877,3.5858585858585874 3.6868686868686877,3.6868686868686877 3.6868686868686877,3.7878787878787885 3.6868686868686877,3.8888888888888893 3.6868686868686877,3.989898989898992" data-type="line" data-label="" points="306.9898989898991,984 316.5252525252526,974.4646464646464 326.0606060606061,964.9292929292928 335.59595959595964,955.3939393939394 345.13131313131316,945.8585858585858 354.6666666666667,936.3232323232323 364.2020202020202,926.7878787878788 373.7373737373738,917.2525252525252 383.2727272727273,907.7171717171718 392.80808080808083,898.1818181818181 402.34343434343435,888.6464646464647 411.8787878787879,879.1111111111111 421.4141414141414,869.5757575757575 430.949494949495,860.0404040404039 440.4848484848485,850.5050505050505 450.0202020202021,840.969696969697 459.55555555555554,831.4343434343434 469.09090909090907,821.8989898989898 478.62626262626264,812.3636363636363 488.16161616161617,802.8282828282828 497.69696969696975,793.2929292929292 507.2323232323232,783.7575757575758 516.7676767676768,774.2222222222222 526.3030303030303,764.6868686868687 535.8383838383838,755.1515151515151 545.3737373737374,745.6161616161615 554.9090909090909,736.0808080808081 564.4444444444445,726.5454545454545 573.9797979797979,717.010101010101 583.5151515151515,707.4747474747475 593.0505050505051,697.939393939394 602.5858585858585,688.4040404040404 612.1212121212121,678.8686868686868 621.6565656565656,669.3333333333334 631.1919191919192,659.7979797979798 640.7272727272727,650.2626262626263 650.2626262626262,640.7272727272727 659.7979797979798,631.1919191919193 669.3333333333333,621.6565656565657 678.8686868686868,612.1212121212121 688.4040404040404,602.5858585858587 697.9393939393939,593.0505050505051 707.4747474747475,583.5151515151516 717.0101010101009,573.979797979798 726.5454545454545,564.4444444444445 736.0808080808081,554.909090909091 745.6161616161615,545.3737373737374 755.1515151515151,535.838383838384 764.6868686868686,526.3030303030304 774.2222222222222,516.7676767676768 783.7575757575758,507.23232323232327 793.2929292929292,497.69696969696975 802.8282828282828,488.1616161616163 812.3636363636363,478.6262626262627 821.8989898989898,469.0909090909092 831.4343434343433,459.5555555555556 840.969696969697,450.0202020202021 850.5050505050505,440.4848484848486 860.0404040404039,430.94949494949503 860.0404040404039,421.4141414141415 860.0404040404039,411.87878787878793 860.0404040404039,402.3434343434344 860.0404040404039,392.80808080808094 860.0404040404039,383.27272727272737 860.0404040404039,373.73737373737384 860.0404040404039,364.2020202020203 860.0404040404039,354.66666666666674 860.0404040404039,345.1313131313133 860.0404040404039,335.5959595959597 860.0404040404039,326.06060606060623 860.0404040404039,316.5252525252526 860.0404040404039,306.9898989898991 860.0404040404039,297.4545454545456 860.0404040404039,287.91919191919203 860.0404040404039,278.38383838383857 860.0404040404039,268.84848484848493 860.0404040404039,259.3131313131314 860.0404040404039,249.77777777777794 860.0404040404039,240.24242424242436 860.0404040404039,230.70707070707084 860.0404040404039,221.17171717171726 860.0404040404039,211.63636363636374 860.0404040404039,202.10101010101027 860.0404040404039,192.56565656565675 860.0404040404039,183.03030303030312 860.0404040404039,173.4949494949496 860.0404040404039,163.95959595959613 860.0404040404039,154.4242424242426 860.0404040404039,144.88888888888908 860.0404040404039,135.35353535353545" fill="none" stroke="rgba(255,0,0,0.75)" stroke-width="14.159999999999995"/></g><g><polyline data-points="3.6868686868686877,3.989898989898992 3.6868686868686877,4.090909090909092 3.6868686868686877,4.191919191919193 3.6868686868686877,4.292929292929293 3.6868686868686877,4.393939393939394 3.6868686868686877,4.494949494949497 3.6868686868686877,4.595959595959597 3.6868686868686877,4.696969696969697 3.6868686868686877,4.7979797979797985 3.6868686868686877,4.898989898989901 3.6868686868686877,5.000000000000002" data-type="line" data-label="" points="860.0404040404039,135.35353535353545 860.0404040404039,125.81818181818198 860.0404040404039,116.28282828282846 860.0404040404039,106.747474747475 860.0404040404039,97.21212121212153 860.0404040404039,87.67676767676778 860.0404040404039,78.14141414141432 860.0404040404039,68.60606060606085 860.0404040404039,59.07070707070733 860.0404040404039,49.53535353535369 860.0404040404039,40.000000000000114" fill="none" stroke="rgba(0,0,255,0.75)" stroke-width="14.159999999999995"/></g><g><polyline data-points="-5.000000000000001,2.070707070707072 -4.898989898989899,1.9696969696969702 -4.7979797979797985,1.8686868686868696 -4.696969696969697,1.767676767676768 -4.595959595959596,1.6666666666666674 -4.494949494949496,1.5656565656565666 -4.393939393939394,1.4646464646464652 -4.292929292929293,1.3636363636363644 -4.191919191919193,1.262626262626263 -4.090909090909091,1.1616161616161622 -3.98989898989899,1.0606060606060617 -3.8888888888888884,0.9595959595959602 -3.7878787878787876,0.8585858585858596 -3.6868686868686864,0.7575757575757579 -3.5858585858585856,0.6565656565656574 -3.484848484848485,0.5555555555555567 -3.383838383838383,0.4545454545454551 -3.2828282828282824,0.3535353535353544 -3.1818181818181817,0.2525252525252529 -3.0808080808080804,0.1515151515151522 -2.9797979797979792,0.050505050505051545 -2.8787878787878785,-0.05050505050505001 -2.7777777777777777,-0.15151515151515066 -2.6767676767676765,-0.2525252525252522 -2.5757575757575752,-0.35353535353535287 -2.474747474747474,-0.4545454545454544 -2.3737373737373733,-0.555555555555555 -2.2727272727272725,-0.6565656565656557 -2.1717171717171713,-0.7575757575757572 -2.07070707070707,-0.8585858585858579 -1.9696969696969693,-0.9595959595959596 -1.8686868686868683,-1.0606060606060603 -1.7676767676767675,-1.1616161616161613 -1.6666666666666665,-1.2626262626262625 -1.5656565656565653,-1.363636363636363 -1.4646464646464643,-1.4646464646464643 -1.363636363636363,-1.5656565656565653 -1.2626262626262625,-1.6666666666666665 -1.1616161616161613,-1.7676767676767675 -1.0606060606060603,-1.8686868686868683 -0.9595959595959596,-1.9696969696969693 -0.8585858585858579,-2.07070707070707 -0.7575757575757572,-2.1717171717171713 -0.6565656565656557,-2.2727272727272725 -0.555555555555555,-2.3737373737373733 -0.4545454545454544,-2.474747474747474" data-type="line" data-label="" points="40.00000000000006,316.5252525252526 49.53535353535369,326.06060606060623 59.07070707070716,335.5959595959597 68.60606060606068,345.1313131313133 78.14141414141426,354.66666666666674 87.67676767676772,364.2020202020203 97.21212121212136,373.73737373737384 106.74747474747483,383.27272727272737 116.28282828282829,392.80808080808094 125.81818181818193,402.3434343434344 135.35353535353545,411.87878787878793 144.88888888888903,421.4141414141415 154.42424242424255,430.94949494949503 163.95959595959607,440.4848484848486 173.4949494949496,450.0202020202021 183.03030303030312,459.5555555555556 192.5656565656567,469.0909090909092 202.10101010101022,478.6262626262627 211.63636363636374,488.1616161616163 221.17171717171726,497.69696969696975 230.70707070707084,507.23232323232327 240.2424242424243,516.7676767676768 249.77777777777783,526.3030303030304 259.3131313131314,535.838383838384 268.84848484848493,545.3737373737374 278.38383838383845,554.909090909091 287.91919191919203,564.4444444444445 297.4545454545455,573.979797979798 306.9898989898991,583.5151515151516 316.5252525252526,593.0505050505051 326.0606060606061,602.5858585858587 335.59595959595964,612.1212121212121 345.13131313131316,621.6565656565657 354.6666666666667,631.1919191919193 364.2020202020202,640.7272727272727 373.7373737373738,650.2626262626263 383.2727272727273,659.7979797979798 392.80808080808083,669.3333333333334 402.34343434343435,678.8686868686868 411.8787878787879,688.4040404040404 421.4141414141414,697.939393939394 430.949494949495,707.4747474747475 440.4848484848485,717.010101010101 450.0202020202021,726.5454545454545 459.55555555555554,736.0808080808081 469.09090909090907,745.6161616161615" fill="none" stroke="rgba(255,0,0,0.75)" stroke-width="14.159999999999995"/></g><g><polyline data-points="-0.4545454545454544,-2.474747474747474 -0.35353535353535287,-2.5757575757575752 -0.2525252525252522,-2.6767676767676765 -0.15151515151515066,-2.7777777777777777 -0.05050505050505001,-2.8787878787878785 0.050505050505051545,-2.9797979797979792 0.1515151515151522,-3.0808080808080804 0.2525252525252529,-3.1818181818181817 0.3535353535353544,-3.2828282828282824 0.4545454545454551,-3.383838383838383 0.5555555555555567,-3.484848484848485 0.6565656565656574,-3.5858585858585856 0.7575757575757579,-3.6868686868686864 0.8585858585858596,-3.7878787878787876 0.9595959595959602,-3.8888888888888884 0.9595959595959602,-3.98989898989899 0.9595959595959602,-4.090909090909091 0.9595959595959602,-4.191919191919193 0.9595959595959602,-4.292929292929293 0.9595959595959602,-4.393939393939394 0.9595959595959602,-4.494949494949496 0.9595959595959602,-4.595959595959596 0.9595959595959602,-4.696969696969697 0.9595959595959602,-4.7979797979797985 0.9595959595959602,-4.898989898989899 0.9595959595959602,-5.000000000000001" data-type="line" data-label="" points="469.09090909090907,745.6161616161615 478.62626262626264,755.1515151515151 488.16161616161617,764.6868686868687 497.69696969696975,774.2222222222222 507.2323232323232,783.7575757575758 516.7676767676768,793.2929292929292 526.3030303030303,802.8282828282828 535.8383838383838,812.3636363636363 545.3737373737374,821.8989898989898 554.9090909090909,831.4343434343434 564.4444444444445,840.969696969697 573.9797979797979,850.5050505050505 583.5151515151515,860.0404040404039 593.0505050505051,869.5757575757575 602.5858585858585,879.1111111111111 602.5858585858585,888.6464646464647 602.5858585858585,898.1818181818181 602.5858585858585,907.7171717171718 602.5858585858585,917.2525252525252 602.5858585858585,926.7878787878788 602.5858585858585,936.3232323232323 602.5858585858585,945.8585858585858 602.5858585858585,955.3939393939394 602.5858585858585,964.9292929292928 602.5858585858585,974.4646464646464 602.5858585858585,984" fill="none" stroke="rgba(0,0,255,0.75)" stroke-width="14.159999999999995"/></g><g><polyline data-points="5.000000000000002,3.7878787878787885 4.898989898989901,3.6868686868686877 4.7979797979797985,3.5858585858585874 4.696969696969697,3.4848484848484866 4.595959595959597,3.383838383838384 4.494949494949497,3.2828282828282833 4.393939393939394,3.181818181818183 4.292929292929293,3.080808080808082 4.191919191919193,2.9797979797979806 4.090909090909092,2.87878787878788 3.989898989898992,2.7777777777777786 3.8888888888888893,2.676767676767678 3.7878787878787885,2.676767676767678 3.6868686868686877,2.676767676767678 3.5858585858585874,2.676767676767678 3.4848484848484866,2.676767676767678 3.383838383838384,2.676767676767678 3.2828282828282833,2.676767676767678 3.181818181818183,2.676767676767678 3.080808080808082,2.676767676767678 2.9797979797979806,2.676767676767678 2.87878787878788,2.676767676767678 2.7777777777777786,2.676767676767678 2.676767676767678,2.676767676767678 2.575757575757577,2.676767676767678 2.4747474747474754,2.676767676767678 2.373737373737375,2.676767676767678 2.2727272727272734,2.676767676767678 2.1717171717171726,2.676767676767678 2.070707070707072,2.676767676767678 1.9696969696969702,2.676767676767678 1.8686868686868696,2.676767676767678 1.767676767676768,2.676767676767678 1.6666666666666674,2.676767676767678 1.5656565656565666,2.676767676767678 1.4646464646464652,2.676767676767678 1.3636363636363644,2.676767676767678 1.262626262626263,2.676767676767678 1.1616161616161622,2.676767676767678 1.0606060606060617,2.676767676767678 0.9595959595959602,2.676767676767678 0.8585858585858596,2.676767676767678 0.7575757575757579,2.676767676767678 0.6565656565656574,2.676767676767678 0.5555555555555567,2.676767676767678 0.4545454545454551,2.676767676767678 0.3535353535353544,2.676767676767678 0.2525252525252529,2.676767676767678 0.1515151515151522,2.676767676767678 0.050505050505051545,2.676767676767678 -0.05050505050505001,2.676767676767678 -0.15151515151515066,2.676767676767678 -0.2525252525252522,2.676767676767678 -0.35353535353535287,2.676767676767678 -0.4545454545454544,2.676767676767678 -0.555555555555555,2.676767676767678 -0.6565656565656557,2.676767676767678 -0.7575757575757572,2.676767676767678 -0.8585858585858579,2.676767676767678 -0.9595959595959596,2.676767676767678 -1.0606060606060603,2.676767676767678 -1.1616161616161613,2.676767676767678 -1.2626262626262625,2.676767676767678 -1.363636363636363,2.676767676767678 -1.4646464646464643,2.676767676767678 -1.5656565656565653,2.676767676767678 -1.6666666666666665,2.676767676767678 -1.7676767676767675,2.676767676767678 -1.8686868686868683,2.676767676767678 -1.9696969696969693,2.676767676767678 -2.07070707070707,2.676767676767678 -2.1717171717171713,2.676767676767678 -2.2727272727272725,2.676767676767678 -2.3737373737373733,2.676767676767678 -2.474747474747474,2.676767676767678 -2.5757575757575752,2.676767676767678 -2.6767676767676765,2.676767676767678 -2.7777777777777777,2.676767676767678 -2.8787878787878785,2.676767676767678 -2.9797979797979792,2.676767676767678 -3.0808080808080804,2.676767676767678 -3.1818181818181817,2.676767676767678 -3.2828282828282824,2.676767676767678 -3.383838383838383,2.676767676767678 -3.484848484848485,2.676767676767678 -3.5858585858585856,2.676767676767678 -3.6868686868686864,2.676767676767678 -3.7878787878787876,2.676767676767678 -3.8888888888888884,2.676767676767678 -3.98989898989899,2.676767676767678" data-type="line" data-label="" points="984,154.4242424242426 974.4646464646464,163.95959595959613 964.9292929292927,173.4949494949496 955.3939393939393,183.03030303030312 945.8585858585857,192.56565656565675 936.3232323232323,202.10101010101027 926.7878787878785,211.63636363636374 917.2525252525251,221.17171717171726 907.7171717171716,230.70707070707084 898.181818181818,240.24242424242436 888.6464646464647,249.77777777777794 879.111111111111,259.3131313131314 869.5757575757575,259.3131313131314 860.0404040404039,259.3131313131314 850.5050505050505,259.3131313131314 840.969696969697,259.3131313131314 831.4343434343433,259.3131313131314 821.8989898989898,259.3131313131314 812.3636363636363,259.3131313131314 802.8282828282828,259.3131313131314 793.2929292929292,259.3131313131314 783.7575757575758,259.3131313131314 774.2222222222222,259.3131313131314 764.6868686868686,259.3131313131314 755.1515151515151,259.3131313131314 745.6161616161615,259.3131313131314 736.0808080808081,259.3131313131314 726.5454545454545,259.3131313131314 717.0101010101009,259.3131313131314 707.4747474747475,259.3131313131314 697.9393939393939,259.3131313131314 688.4040404040404,259.3131313131314 678.8686868686868,259.3131313131314 669.3333333333333,259.3131313131314 659.7979797979798,259.3131313131314 650.2626262626262,259.3131313131314 640.7272727272727,259.3131313131314 631.1919191919192,259.3131313131314 621.6565656565656,259.3131313131314 612.1212121212121,259.3131313131314 602.5858585858585,259.3131313131314 593.0505050505051,259.3131313131314 583.5151515151515,259.3131313131314 573.9797979797979,259.3131313131314 564.4444444444445,259.3131313131314 554.9090909090909,259.3131313131314 545.3737373737374,259.3131313131314 535.8383838383838,259.3131313131314 526.3030303030303,259.3131313131314 516.7676767676768,259.3131313131314 507.2323232323232,259.3131313131314 497.69696969696975,259.3131313131314 488.16161616161617,259.3131313131314 478.62626262626264,259.3131313131314 469.09090909090907,259.3131313131314 459.55555555555554,259.3131313131314 450.0202020202021,259.3131313131314 440.4848484848485,259.3131313131314 430.949494949495,259.3131313131314 421.4141414141414,259.3131313131314 411.8787878787879,259.3131313131314 402.34343434343435,259.3131313131314 392.80808080808083,259.3131313131314 383.2727272727273,259.3131313131314 373.7373737373738,259.3131313131314 364.2020202020202,259.3131313131314 354.6666666666667,259.3131313131314 345.13131313131316,259.3131313131314 335.59595959595964,259.3131313131314 326.0606060606061,259.3131313131314 316.5252525252526,259.3131313131314 306.9898989898991,259.3131313131314 297.4545454545455,259.3131313131314 287.91919191919203,259.3131313131314 278.38383838383845,259.3131313131314 268.84848484848493,259.3131313131314 259.3131313131314,259.3131313131314 249.77777777777783,259.3131313131314 240.2424242424243,259.3131313131314 230.70707070707084,259.3131313131314 221.17171717171726,259.3131313131314 211.63636363636374,259.3131313131314 202.10101010101022,259.3131313131314 192.5656565656567,259.3131313131314 183.03030303030312,259.3131313131314 173.4949494949496,259.3131313131314 163.95959595959607,259.3131313131314 154.42424242424255,259.3131313131314 144.88888888888903,259.3131313131314 135.35353535353545,259.3131313131314" fill="none" stroke="rgba(0,0,255,0.75)" stroke-width="14.159999999999995"/></g><g><polyline data-points="-3.98989898989899,2.676767676767678 -4.090909090909091,2.676767676767678 -4.191919191919193,2.676767676767678 -4.292929292929293,2.676767676767678 -4.393939393939394,2.676767676767678 -4.494949494949496,2.676767676767678 -4.595959595959596,2.676767676767678 -4.696969696969697,2.676767676767678 -4.7979797979797985,2.676767676767678 -4.898989898989899,2.676767676767678 -5.000000000000001,2.676767676767678" data-type="line" data-label="" points="135.35353535353545,259.3131313131314 125.81818181818193,259.3131313131314 116.28282828282829,259.3131313131314 106.74747474747483,259.3131313131314 97.21212121212136,259.3131313131314 87.67676767676772,259.3131313131314 78.14141414141426,259.3131313131314 68.60606060606068,259.3131313131314 59.07070707070716,259.3131313131314 49.53535353535369,259.3131313131314 40.00000000000006,259.3131313131314" fill="none" stroke="rgba(255,0,0,0.75)" stroke-width="14.159999999999995"/></g><g><polyline data-points="-5.000000000000001,0.2525252525252529 -4.898989898989899,0.1515151515151522 -4.7979797979797985,0.050505050505051545 -4.696969696969697,-0.05050505050505001 -4.595959595959596,-0.15151515151515066 -4.494949494949496,-0.2525252525252522 -4.393939393939394,-0.35353535353535287 -4.292929292929293,-0.4545454545454544 -4.191919191919193,-0.555555555555555 -4.090909090909091,-0.6565656565656557 -3.98989898989899,-0.7575757575757572 -3.8888888888888884,-0.8585858585858579 -3.7878787878787876,-0.9595959595959596 -3.6868686868686864,-1.0606060606060603 -3.5858585858585856,-1.1616161616161613 -3.484848484848485,-1.2626262626262625 -3.383838383838383,-1.363636363636363 -3.2828282828282824,-1.4646464646464643 -3.1818181818181817,-1.5656565656565653 -3.0808080808080804,-1.6666666666666665 -2.9797979797979792,-1.7676767676767675 -2.8787878787878785,-1.8686868686868683 -2.7777777777777777,-1.9696969696969693 -2.6767676767676765,-1.9696969696969693 -2.5757575757575752,-1.9696969696969693 -2.474747474747474,-1.9696969696969693 -2.3737373737373733,-1.9696969696969693 -2.2727272727272725,-1.9696969696969693 -2.1717171717171713,-1.9696969696969693 -2.07070707070707,-1.9696969696969693 -1.9696969696969693,-1.9696969696969693 -1.8686868686868683,-1.9696969696969693 -1.7676767676767675,-1.9696969696969693 -1.6666666666666665,-1.9696969696969693 -1.5656565656565653,-1.9696969696969693 -1.4646464646464643,-1.9696969696969693 -1.363636363636363,-1.9696969696969693 -1.2626262626262625,-1.9696969696969693 -1.1616161616161613,-1.9696969696969693 -1.0606060606060603,-1.9696969696969693 -0.9595959595959596,-1.9696969696969693 -0.8585858585858579,-1.9696969696969693 -0.7575757575757572,-1.9696969696969693 -0.6565656565656557,-1.9696969696969693 -0.555555555555555,-1.9696969696969693 -0.4545454545454544,-1.9696969696969693 -0.35353535353535287,-2.07070707070707 -0.2525252525252522,-2.07070707070707 -0.15151515151515066,-2.1717171717171713 -0.05050505050505001,-2.2727272727272725 0.050505050505051545,-2.3737373737373733 0.1515151515151522,-2.474747474747474 0.2525252525252529,-2.5757575757575752 0.3535353535353544,-2.6767676767676765 0.4545454545454551,-2.7777777777777777 0.5555555555555567,-2.7777777777777777 0.6565656565656574,-2.7777777777777777 0.7575757575757579,-2.7777777777777777 0.8585858585858596,-2.7777777777777777 0.9595959595959602,-2.7777777777777777 1.0606060606060617,-2.7777777777777777 1.1616161616161622,-2.7777777777777777 1.262626262626263,-2.7777777777777777 1.3636363636363644,-2.7777777777777777 1.4646464646464652,-2.7777777777777777 1.5656565656565666,-2.7777777777777777 1.6666666666666674,-2.7777777777777777 1.767676767676768,-2.7777777777777777 1.8686868686868696,-2.7777777777777777 1.9696969696969702,-2.7777777777777777 2.070707070707072,-2.7777777777777777 2.1717171717171726,-2.7777777777777777 2.2727272727272734,-2.7777777777777777 2.373737373737375,-2.7777777777777777 2.4747474747474754,-2.7777777777777777 2.575757575757577,-2.7777777777777777 2.676767676767678,-2.7777777777777777 2.7777777777777786,-2.7777777777777777 2.87878787878788,-2.7777777777777777 2.9797979797979806,-2.7777777777777777 3.080808080808082,-2.7777777777777777 3.181818181818183,-2.7777777777777777 3.2828282828282833,-2.7777777777777777 3.383838383838384,-2.7777777777777777 3.4848484848484866,-2.7777777777777777 3.5858585858585874,-2.7777777777777777 3.6868686868686877,-2.7777777777777777 3.7878787878787885,-2.7777777777777777 3.8888888888888893,-2.7777777777777777 3.989898989898992,-2.7777777777777777 4.090909090909092,-2.7777777777777777 4.191919191919193,-2.7777777777777777 4.292929292929293,-2.7777777777777777 4.393939393939394,-2.7777777777777777 4.494949494949497,-2.7777777777777777 4.595959595959597,-2.7777777777777777 4.696969696969697,-2.7777777777777777 4.7979797979797985,-2.7777777777777777 4.898989898989901,-2.7777777777777777 5.000000000000002,-2.7777777777777777" data-type="line" data-label="" points="40.00000000000006,488.1616161616163 49.53535353535369,497.69696969696975 59.07070707070716,507.23232323232327 68.60606060606068,516.7676767676768 78.14141414141426,526.3030303030304 87.67676767676772,535.838383838384 97.21212121212136,545.3737373737374 106.74747474747483,554.909090909091 116.28282828282829,564.4444444444445 125.81818181818193,573.979797979798 135.35353535353545,583.5151515151516 144.88888888888903,593.0505050505051 154.42424242424255,602.5858585858587 163.95959595959607,612.1212121212121 173.4949494949496,621.6565656565657 183.03030303030312,631.1919191919193 192.5656565656567,640.7272727272727 202.10101010101022,650.2626262626263 211.63636363636374,659.7979797979798 221.17171717171726,669.3333333333334 230.70707070707084,678.8686868686868 240.2424242424243,688.4040404040404 249.77777777777783,697.939393939394 259.3131313131314,697.939393939394 268.84848484848493,697.939393939394 278.38383838383845,697.939393939394 287.91919191919203,697.939393939394 297.4545454545455,697.939393939394 306.9898989898991,697.939393939394 316.5252525252526,697.939393939394 326.0606060606061,697.939393939394 335.59595959595964,697.939393939394 345.13131313131316,697.939393939394 354.6666666666667,697.939393939394 364.2020202020202,697.939393939394 373.7373737373738,697.939393939394 383.2727272727273,697.939393939394 392.80808080808083,697.939393939394 402.34343434343435,697.939393939394 411.8787878787879,697.939393939394 421.4141414141414,697.939393939394 430.949494949495,697.939393939394 440.4848484848485,697.939393939394 450.0202020202021,697.939393939394 459.55555555555554,697.939393939394 469.09090909090907,697.939393939394 478.62626262626264,707.4747474747475 488.16161616161617,707.4747474747475 497.69696969696975,717.010101010101 507.2323232323232,726.5454545454545 516.7676767676768,736.0808080808081 526.3030303030303,745.6161616161615 535.8383838383838,755.1515151515151 545.3737373737374,764.6868686868687 554.9090909090909,774.2222222222222 564.4444444444445,774.2222222222222 573.9797979797979,774.2222222222222 583.5151515151515,774.2222222222222 593.0505050505051,774.2222222222222 602.5858585858585,774.2222222222222 612.1212121212121,774.2222222222222 621.6565656565656,774.2222222222222 631.1919191919192,774.2222222222222 640.7272727272727,774.2222222222222 650.2626262626262,774.2222222222222 659.7979797979798,774.2222222222222 669.3333333333333,774.2222222222222 678.8686868686868,774.2222222222222 688.4040404040404,774.2222222222222 697.9393939393939,774.2222222222222 707.4747474747475,774.2222222222222 717.0101010101009,774.2222222222222 726.5454545454545,774.2222222222222 736.0808080808081,774.2222222222222 745.6161616161615,774.2222222222222 755.1515151515151,774.2222222222222 764.6868686868686,774.2222222222222 774.2222222222222,774.2222222222222 783.7575757575758,774.2222222222222 793.2929292929292,774.2222222222222 802.8282828282828,774.2222222222222 812.3636363636363,774.2222222222222 821.8989898989898,774.2222222222222 831.4343434343433,774.2222222222222 840.969696969697,774.2222222222222 850.5050505050505,774.2222222222222 860.0404040404039,774.2222222222222 869.5757575757575,774.2222222222222 879.111111111111,774.2222222222222 888.6464646464647,774.2222222222222 898.181818181818,774.2222222222222 907.7171717171716,774.2222222222222 917.2525252525251,774.2222222222222 926.7878787878785,774.2222222222222 936.3232323232323,774.2222222222222 945.8585858585857,774.2222222222222 955.3939393939393,774.2222222222222 964.9292929292927,774.2222222222222 974.4646464646464,774.2222222222222 984,774.2222222222222" fill="none" stroke="rgba(0,0,255,0.75)" stroke-width="14.159999999999995"/></g><g><polyline data-points="-0.7575757575757572,-5.000000000000001 -0.8585858585858579,-4.898989898989899 -0.9595959595959596,-4.7979797979797985 -1.0606060606060603,-4.696969696969697 -1.1616161616161613,-4.595959595959596 -1.2626262626262625,-4.494949494949496 -1.363636363636363,-4.393939393939394 -1.4646464646464643,-4.292929292929293 -1.5656565656565653,-4.191919191919193 -1.6666666666666665,-4.090909090909091 -1.7676767676767675,-3.98989898989899 -1.8686868686868683,-3.8888888888888884 -1.9696969696969693,-3.7878787878787876 -2.07070707070707,-3.6868686868686864 -2.1717171717171713,-3.5858585858585856 -2.2727272727272725,-3.484848484848485 -2.3737373737373733,-3.383838383838383 -2.3737373737373733,-3.2828282828282824 -2.3737373737373733,-3.1818181818181817 -2.3737373737373733,-3.0808080808080804 -2.3737373737373733,-2.9797979797979792 -2.3737373737373733,-2.8787878787878785 -2.3737373737373733,-2.7777777777777777 -2.3737373737373733,-2.6767676767676765 -2.3737373737373733,-2.5757575757575752" data-type="line" data-label="" points="440.4848484848485,984 430.949494949495,974.4646464646464 421.4141414141414,964.9292929292928 411.8787878787879,955.3939393939394 402.34343434343435,945.8585858585858 392.80808080808083,936.3232323232323 383.2727272727273,926.7878787878788 373.7373737373738,917.2525252525252 364.2020202020202,907.7171717171718 354.6666666666667,898.1818181818181 345.13131313131316,888.6464646464647 335.59595959595964,879.1111111111111 326.0606060606061,869.5757575757575 316.5252525252526,860.0404040404039 306.9898989898991,850.5050505050505 297.4545454545455,840.969696969697 287.91919191919203,831.4343434343434 287.91919191919203,821.8989898989898 287.91919191919203,812.3636363636363 287.91919191919203,802.8282828282828 287.91919191919203,793.2929292929292 287.91919191919203,783.7575757575758 287.91919191919203,774.2222222222222 287.91919191919203,764.6868686868687 287.91919191919203,755.1515151515151" fill="none" stroke="rgba(0,0,255,0.75)" stroke-width="14.159999999999995"/></g><g><polyline data-points="-2.3737373737373733,-2.5757575757575752 -2.3737373737373733,-2.474747474747474 -2.3737373737373733,-2.3737373737373733 -2.3737373737373733,-2.2727272727272725 -2.3737373737373733,-2.1717171717171713 -2.3737373737373733,-2.07070707070707 -2.3737373737373733,-1.9696969696969693 -2.3737373737373733,-1.8686868686868683 -2.3737373737373733,-1.7676767676767675 -2.3737373737373733,-1.6666666666666665 -2.3737373737373733,-1.5656565656565653 -2.3737373737373733,-1.4646464646464643 -2.3737373737373733,-1.363636363636363" data-type="line" data-label="" points="287.91919191919203,755.1515151515151 287.91919191919203,745.6161616161615 287.91919191919203,736.0808080808081 287.91919191919203,726.5454545454545 287.91919191919203,717.010101010101 287.91919191919203,707.4747474747475 287.91919191919203,697.939393939394 287.91919191919203,688.4040404040404 287.91919191919203,678.8686868686868 287.91919191919203,669.3333333333334 287.91919191919203,659.7979797979798 287.91919191919203,650.2626262626263 287.91919191919203,640.7272727272727" fill="none" stroke="rgba(255,0,0,0.75)" stroke-width="14.159999999999995"/></g><g><polyline data-points="-2.3737373737373733,-1.363636363636363 -2.3737373737373733,-1.2626262626262625 -2.3737373737373733,-1.1616161616161613 -2.3737373737373733,-1.0606060606060603 -2.3737373737373733,-0.9595959595959596 -2.3737373737373733,-0.8585858585858579 -2.3737373737373733,-0.7575757575757572 -2.3737373737373733,-0.6565656565656557 -2.3737373737373733,-0.555555555555555 -2.3737373737373733,-0.4545454545454544 -2.3737373737373733,-0.35353535353535287 -2.3737373737373733,-0.2525252525252522 -2.3737373737373733,-0.15151515151515066 -2.3737373737373733,-0.05050505050505001 -2.3737373737373733,0.050505050505051545 -2.3737373737373733,0.1515151515151522 -2.3737373737373733,0.2525252525252529 -2.3737373737373733,0.3535353535353544 -2.3737373737373733,0.4545454545454551 -2.3737373737373733,0.5555555555555567 -2.3737373737373733,0.6565656565656574 -2.3737373737373733,0.7575757575757579 -2.3737373737373733,0.8585858585858596 -2.3737373737373733,0.9595959595959602 -2.3737373737373733,1.0606060606060617 -2.3737373737373733,1.1616161616161622 -2.3737373737373733,1.262626262626263 -2.3737373737373733,1.3636363636363644 -2.3737373737373733,1.4646464646464652 -2.3737373737373733,1.5656565656565666 -2.3737373737373733,1.6666666666666674 -2.3737373737373733,1.767676767676768 -2.3737373737373733,1.8686868686868696 -2.3737373737373733,1.9696969696969702 -2.3737373737373733,2.070707070707072" data-type="line" data-label="" points="287.91919191919203,640.7272727272727 287.91919191919203,631.1919191919193 287.91919191919203,621.6565656565657 287.91919191919203,612.1212121212121 287.91919191919203,602.5858585858587 287.91919191919203,593.0505050505051 287.91919191919203,583.5151515151516 287.91919191919203,573.979797979798 287.91919191919203,564.4444444444445 287.91919191919203,554.909090909091 287.91919191919203,545.3737373737374 287.91919191919203,535.838383838384 287.91919191919203,526.3030303030304 287.91919191919203,516.7676767676768 287.91919191919203,507.23232323232327 287.91919191919203,497.69696969696975 287.91919191919203,488.1616161616163 287.91919191919203,478.6262626262627 287.91919191919203,469.0909090909092 287.91919191919203,459.5555555555556 287.91919191919203,450.0202020202021 287.91919191919203,440.4848484848486 287.91919191919203,430.94949494949503 287.91919191919203,421.4141414141415 287.91919191919203,411.87878787878793 287.91919191919203,402.3434343434344 287.91919191919203,392.80808080808094 287.91919191919203,383.27272727272737 287.91919191919203,373.73737373737384 287.91919191919203,364.2020202020203 287.91919191919203,354.66666666666674 287.91919191919203,345.1313131313133 287.91919191919203,335.5959595959597 287.91919191919203,326.06060606060623 287.91919191919203,316.5252525252526" fill="none" stroke="rgba(0,0,255,0.75)" stroke-width="14.159999999999995"/></g><g><polyline data-points="-2.3737373737373733,2.070707070707072 -2.3737373737373733,2.1717171717171726 -2.3737373737373733,2.2727272727272734 -2.3737373737373733,2.373737373737375 -2.3737373737373733,2.4747474747474754 -2.3737373737373733,2.575757575757577 -2.3737373737373733,2.676767676767678 -2.3737373737373733,2.7777777777777786 -2.3737373737373733,2.87878787878788 -2.2727272727272725,2.9797979797979806 -2.1717171717171713,3.080808080808082 -2.07070707070707,3.181818181818183 -1.9696969696969693,3.2828282828282833 -1.8686868686868683,3.383838383838384 -1.7676767676767675,3.4848484848484866 -1.6666666666666665,3.5858585858585874 -1.5656565656565653,3.6868686868686877 -1.4646464646464643,3.7878787878787885 -1.4646464646464643,3.8888888888888893 -1.363636363636363,3.989898989898992 -1.4646464646464643,4.090909090909092 -1.4646464646464643,4.191919191919193 -1.5656565656565653,4.292929292929293 -1.6666666666666665,4.393939393939394 -1.7676767676767675,4.494949494949497 -1.8686868686868683,4.595959595959597 -1.9696969696969693,4.696969696969697 -2.07070707070707,4.7979797979797985 -2.1717171717171713,4.898989898989901 -2.2727272727272725,5.000000000000002 -2.3737373737373733,5.000000000000002 -2.474747474747474,5.000000000000002 -2.5757575757575752,5.000000000000002 -2.6767676767676765,5.000000000000002" data-type="line" data-label="" points="287.91919191919203,316.5252525252526 287.91919191919203,306.9898989898991 287.91919191919203,297.4545454545456 287.91919191919203,287.91919191919203 287.91919191919203,278.38383838383857 287.91919191919203,268.84848484848493 287.91919191919203,259.3131313131314 287.91919191919203,249.77777777777794 287.91919191919203,240.24242424242436 297.4545454545455,230.70707070707084 306.9898989898991,221.17171717171726 316.5252525252526,211.63636363636374 326.0606060606061,202.10101010101027 335.59595959595964,192.56565656565675 345.13131313131316,183.03030303030312 354.6666666666667,173.4949494949496 364.2020202020202,163.95959595959613 373.7373737373738,154.4242424242426 373.7373737373738,144.88888888888908 383.2727272727273,135.35353535353545 373.7373737373738,125.81818181818198 373.7373737373738,116.28282828282846 364.2020202020202,106.747474747475 354.6666666666667,97.21212121212153 345.13131313131316,87.67676767676778 335.59595959595964,78.14141414141432 326.0606060606061,68.60606060606085 316.5252525252526,59.07070707070733 306.9898989898991,49.53535353535369 297.4545454545455,40.000000000000114 287.91919191919203,40.000000000000114 278.38383838383845,40.000000000000114 268.84848484848493,40.000000000000114 259.3131313131314,40.000000000000114" fill="none" stroke="rgba(255,0,0,0.75)" stroke-width="14.159999999999995"/></g><g><polyline data-points="-4.292929292929293,-5.000000000000001 -4.191919191919193,-5.000000000000001 -4.090909090909091,-5.000000000000001 -3.98989898989899,-5.000000000000001 -3.8888888888888884,-5.000000000000001 -3.7878787878787876,-5.000000000000001 -3.6868686868686864,-5.000000000000001 -3.5858585858585856,-5.000000000000001 -3.484848484848485,-4.898989898989899 -3.383838383838383,-4.7979797979797985 -3.2828282828282824,-4.696969696969697 -3.1818181818181817,-4.595959595959596 -3.0808080808080804,-4.494949494949496 -2.9797979797979792,-4.393939393939394 -2.8787878787878785,-4.292929292929293 -2.7777777777777777,-4.191919191919193 -2.6767676767676765,-4.090909090909091 -2.5757575757575752,-3.98989898989899" data-type="line" data-label="" points="106.74747474747483,984 116.28282828282829,984 125.81818181818193,984 135.35353535353545,984 144.88888888888903,984 154.42424242424255,984 163.95959595959607,984 173.4949494949496,984 183.03030303030312,974.4646464646464 192.5656565656567,964.9292929292928 202.10101010101022,955.3939393939394 211.63636363636374,945.8585858585858 221.17171717171726,936.3232323232323 230.70707070707084,926.7878787878788 240.2424242424243,917.2525252525252 249.77777777777783,907.7171717171718 259.3131313131314,898.1818181818181 268.84848484848493,888.6464646464647" fill="none" stroke="rgba(255,0,0,0.75)" stroke-width="14.159999999999995"/></g><g><polyline data-points="-2.5757575757575752,-3.98989898989899 -2.474747474747474,-4.090909090909091 -2.3737373737373733,-4.191919191919193 -2.2727272727272725,-4.292929292929293 -2.1717171717171713,-4.393939393939394 -2.07070707070707,-4.494949494949496 -1.9696969696969693,-4.595959595959596 -1.8686868686868683,-4.696969696969697 -1.7676767676767675,-4.7979797979797985 -1.6666666666666665,-4.898989898989899 -1.5656565656565653,-5.000000000000001 -1.4646464646464643,-5.000000000000001 -1.363636363636363,-5.000000000000001" data-type="line" data-label="" points="268.84848484848493,888.6464646464647 278.38383838383845,898.1818181818181 287.91919191919203,907.7171717171718 297.4545454545455,917.2525252525252 306.9898989898991,926.7878787878788 316.5252525252526,936.3232323232323 326.0606060606061,945.8585858585858 335.59595959595964,955.3939393939394 345.13131313131316,964.9292929292928 354.6666666666667,974.4646464646464 364.2020202020202,984 373.7373737373738,984 383.2727272727273,984" fill="none" stroke="rgba(0,0,255,0.75)" stroke-width="14.159999999999995"/></g><g><polyline data-points="1.5656565656565666,-5.000000000000001 1.4646464646464652,-4.898989898989899 1.4646464646464652,-4.7979797979797985 1.4646464646464652,-4.696969696969697 1.4646464646464652,-4.595959595959596 1.4646464646464652,-4.494949494949496 1.4646464646464652,-4.393939393939394 1.4646464646464652,-4.292929292929293 1.4646464646464652,-4.191919191919193 1.4646464646464652,-4.090909090909091 1.4646464646464652,-3.98989898989899 1.4646464646464652,-3.8888888888888884 1.4646464646464652,-3.7878787878787876 1.4646464646464652,-3.6868686868686864 1.4646464646464652,-3.5858585858585856 1.4646464646464652,-3.484848484848485 1.4646464646464652,-3.383838383838383 1.4646464646464652,-3.2828282828282824 1.4646464646464652,-3.1818181818181817 1.4646464646464652,-3.0808080808080804 1.4646464646464652,-2.9797979797979792 1.4646464646464652,-2.8787878787878785 1.4646464646464652,-2.7777777777777777 1.4646464646464652,-2.6767676767676765 1.4646464646464652,-2.5757575757575752 1.4646464646464652,-2.474747474747474 1.4646464646464652,-2.3737373737373733 1.4646464646464652,-2.2727272727272725 1.4646464646464652,-2.1717171717171713" data-type="line" data-label="" points="659.7979797979798,984 650.2626262626262,974.4646464646464 650.2626262626262,964.9292929292928 650.2626262626262,955.3939393939394 650.2626262626262,945.8585858585858 650.2626262626262,936.3232323232323 650.2626262626262,926.7878787878788 650.2626262626262,917.2525252525252 650.2626262626262,907.7171717171718 650.2626262626262,898.1818181818181 650.2626262626262,888.6464646464647 650.2626262626262,879.1111111111111 650.2626262626262,869.5757575757575 650.2626262626262,860.0404040404039 650.2626262626262,850.5050505050505 650.2626262626262,840.969696969697 650.2626262626262,831.4343434343434 650.2626262626262,821.8989898989898 650.2626262626262,812.3636363636363 650.2626262626262,802.8282828282828 650.2626262626262,793.2929292929292 650.2626262626262,783.7575757575758 650.2626262626262,774.2222222222222 650.2626262626262,764.6868686868687 650.2626262626262,755.1515151515151 650.2626262626262,745.6161616161615 650.2626262626262,736.0808080808081 650.2626262626262,726.5454545454545 650.2626262626262,717.010101010101" fill="none" stroke="rgba(255,0,0,0.75)" stroke-width="14.159999999999995"/></g><g><polyline data-points="1.4646464646464652,-2.1717171717171713 1.3636363636363644,-2.07070707070707 1.262626262626263,-1.9696969696969693 1.1616161616161622,-1.8686868686868683 1.1616161616161622,-1.7676767676767675 1.1616161616161622,-1.6666666666666665 1.1616161616161622,-1.5656565656565653 1.1616161616161622,-1.4646464646464643 1.1616161616161622,-1.363636363636363 1.1616161616161622,-1.2626262626262625 1.1616161616161622,-1.1616161616161613 1.1616161616161622,-1.0606060606060603 1.1616161616161622,-0.9595959595959596 1.1616161616161622,-0.8585858585858579 1.1616161616161622,-0.7575757575757572 1.1616161616161622,-0.6565656565656557 1.1616161616161622,-0.555555555555555 1.1616161616161622,-0.4545454545454544 1.1616161616161622,-0.35353535353535287 1.1616161616161622,-0.2525252525252522 1.1616161616161622,-0.15151515151515066 1.1616161616161622,-0.05050505050505001 1.1616161616161622,0.050505050505051545 1.1616161616161622,0.1515151515151522 1.1616161616161622,0.2525252525252529 1.1616161616161622,0.3535353535353544 1.1616161616161622,0.4545454545454551 1.1616161616161622,0.5555555555555567 1.1616161616161622,0.6565656565656574 1.1616161616161622,0.7575757575757579 1.1616161616161622,0.8585858585858596 1.1616161616161622,0.9595959595959602 1.1616161616161622,1.0606060606060617 1.1616161616161622,1.1616161616161622 1.1616161616161622,1.262626262626263 1.1616161616161622,1.3636363636363644 1.1616161616161622,1.4646464646464652 1.1616161616161622,1.5656565656565666 1.1616161616161622,1.6666666666666674 1.1616161616161622,1.767676767676768 1.1616161616161622,1.8686868686868696 1.1616161616161622,1.9696969696969702 1.1616161616161622,2.070707070707072" data-type="line" data-label="" points="650.2626262626262,717.010101010101 640.7272727272727,707.4747474747475 631.1919191919192,697.939393939394 621.6565656565656,688.4040404040404 621.6565656565656,678.8686868686868 621.6565656565656,669.3333333333334 621.6565656565656,659.7979797979798 621.6565656565656,650.2626262626263 621.6565656565656,640.7272727272727 621.6565656565656,631.1919191919193 621.6565656565656,621.6565656565657 621.6565656565656,612.1212121212121 621.6565656565656,602.5858585858587 621.6565656565656,593.0505050505051 621.6565656565656,583.5151515151516 621.6565656565656,573.979797979798 621.6565656565656,564.4444444444445 621.6565656565656,554.909090909091 621.6565656565656,545.3737373737374 621.6565656565656,535.838383838384 621.6565656565656,526.3030303030304 621.6565656565656,516.7676767676768 621.6565656565656,507.23232323232327 621.6565656565656,497.69696969696975 621.6565656565656,488.1616161616163 621.6565656565656,478.6262626262627 621.6565656565656,469.0909090909092 621.6565656565656,459.5555555555556 621.6565656565656,450.0202020202021 621.6565656565656,440.4848484848486 621.6565656565656,430.94949494949503 621.6565656565656,421.4141414141415 621.6565656565656,411.87878787878793 621.6565656565656,402.3434343434344 621.6565656565656,392.80808080808094 621.6565656565656,383.27272727272737 621.6565656565656,373.73737373737384 621.6565656565656,364.2020202020203 621.6565656565656,354.66666666666674 621.6565656565656,345.1313131313133 621.6565656565656,335.5959595959597 621.6565656565656,326.06060606060623 621.6565656565656,316.5252525252526" fill="none" stroke="rgba(0,0,255,0.75)" stroke-width="14.159999999999995"/></g><g><polyline data-points="1.1616161616161622,2.070707070707072 1.1616161616161622,2.1717171717171726 1.1616161616161622,2.2727272727272734 1.1616161616161622,2.373737373737375 1.1616161616161622,2.4747474747474754 1.1616161616161622,2.575757575757577 1.1616161616161622,2.676767676767678 1.1616161616161622,2.7777777777777786 1.1616161616161622,2.87878787878788 1.1616161616161622,2.9797979797979806 1.1616161616161622,3.080808080808082 1.1616161616161622,3.181818181818183 1.1616161616161622,3.2828282828282833 1.1616161616161622,3.383838383838384 1.1616161616161622,3.4848484848484866 1.1616161616161622,3.5858585858585874 1.1616161616161622,3.6868686868686877 1.1616161616161622,3.7878787878787885 1.1616161616161622,3.8888888888888893 1.1616161616161622,3.989898989898992" data-type="line" data-label="" points="621.6565656565656,316.5252525252526 621.6565656565656,306.9898989898991 621.6565656565656,297.4545454545456 621.6565656565656,287.91919191919203 621.6565656565656,278.38383838383857 621.6565656565656,268.84848484848493 621.6565656565656,259.3131313131314 621.6565656565656,249.77777777777794 621.6565656565656,240.24242424242436 621.6565656565656,230.70707070707084 621.6565656565656,221.17171717171726 621.6565656565656,211.63636363636374 621.6565656565656,202.10101010101027 621.6565656565656,192.56565656565675 621.6565656565656,183.03030303030312 621.6565656565656,173.4949494949496 621.6565656565656,163.95959595959613 621.6565656565656,154.4242424242426 621.6565656565656,144.88888888888908 621.6565656565656,135.35353535353545" fill="none" stroke="rgba(255,0,0,0.75)" stroke-width="14.159999999999995"/></g><g><polyline data-points="1.1616161616161622,3.989898989898992 1.1616161616161622,4.090909090909092 1.1616161616161622,4.191919191919193 1.1616161616161622,4.292929292929293 1.1616161616161622,4.393939393939394 1.1616161616161622,4.494949494949497 1.1616161616161622,4.595959595959597 1.1616161616161622,4.696969696969697 1.1616161616161622,4.7979797979797985 1.1616161616161622,4.898989898989901 1.1616161616161622,5.000000000000002" data-type="line" data-label="" points="621.6565656565656,135.35353535353545 621.6565656565656,125.81818181818198 621.6565656565656,116.28282828282846 621.6565656565656,106.747474747475 621.6565656565656,97.21212121212153 621.6565656565656,87.67676767676778 621.6565656565656,78.14141414141432 621.6565656565656,68.60606060606085 621.6565656565656,59.07070707070733 621.6565656565656,49.53535353535369 621.6565656565656,40.000000000000114" fill="none" stroke="rgba(0,0,255,0.75)" stroke-width="14.159999999999995"/></g><g><polyline data-points="-5.000000000000001,-4.191919191919193 -4.898989898989899,-4.090909090909091 -4.898989898989899,-3.98989898989899 -4.898989898989899,-3.8888888888888884 -4.898989898989899,-3.7878787878787876 -4.898989898989899,-3.6868686868686864 -4.898989898989899,-3.5858585858585856 -4.898989898989899,-3.484848484848485 -4.898989898989899,-3.383838383838383 -4.898989898989899,-3.2828282828282824 -4.898989898989899,-3.1818181818181817 -4.898989898989899,-3.0808080808080804 -4.7979797979797985,-2.9797979797979792 -4.696969696969697,-2.8787878787878785 -4.595959595959596,-2.7777777777777777 -4.494949494949496,-2.6767676767676765 -4.393939393939394,-2.5757575757575752 -4.292929292929293,-2.474747474747474 -4.191919191919193,-2.3737373737373733 -4.191919191919193,-2.2727272727272725 -4.090909090909091,-2.1717171717171713 -3.98989898989899,-2.07070707070707" data-type="line" data-label="" points="40.00000000000006,907.7171717171718 49.53535353535369,898.1818181818181 49.53535353535369,888.6464646464647 49.53535353535369,879.1111111111111 49.53535353535369,869.5757575757575 49.53535353535369,860.0404040404039 49.53535353535369,850.5050505050505 49.53535353535369,840.969696969697 49.53535353535369,831.4343434343434 49.53535353535369,821.8989898989898 49.53535353535369,812.3636363636363 49.53535353535369,802.8282828282828 59.07070707070716,793.2929292929292 68.60606060606068,783.7575757575758 78.14141414141426,774.2222222222222 87.67676767676772,764.6868686868687 97.21212121212136,755.1515151515151 106.74747474747483,745.6161616161615 116.28282828282829,736.0808080808081 116.28282828282829,726.5454545454545 125.81818181818193,717.010101010101 135.35353535353545,707.4747474747475" fill="none" stroke="rgba(0,0,255,0.75)" stroke-width="14.159999999999995"/></g><g><polyline data-points="-3.98989898989899,-2.07070707070707 -3.98989898989899,-1.9696969696969693 -3.98989898989899,-1.8686868686868683 -3.98989898989899,-1.7676767676767675 -3.98989898989899,-1.6666666666666665 -3.98989898989899,-1.5656565656565653 -3.98989898989899,-1.4646464646464643 -3.98989898989899,-1.363636363636363 -3.98989898989899,-1.2626262626262625 -3.98989898989899,-1.1616161616161613 -3.98989898989899,-1.0606060606060603 -3.98989898989899,-0.9595959595959596 -3.98989898989899,-0.8585858585858579 -3.98989898989899,-0.7575757575757572 -3.98989898989899,-0.6565656565656557 -3.98989898989899,-0.555555555555555 -3.98989898989899,-0.4545454545454544 -3.98989898989899,-0.35353535353535287 -3.98989898989899,-0.2525252525252522 -3.98989898989899,-0.15151515151515066 -3.98989898989899,-0.05050505050505001 -3.98989898989899,0.050505050505051545 -3.98989898989899,0.1515151515151522" data-type="line" data-label="" points="135.35353535353545,707.4747474747475 135.35353535353545,697.939393939394 135.35353535353545,688.4040404040404 135.35353535353545,678.8686868686868 135.35353535353545,669.3333333333334 135.35353535353545,659.7979797979798 135.35353535353545,650.2626262626263 135.35353535353545,640.7272727272727 135.35353535353545,631.1919191919193 135.35353535353545,621.6565656565657 135.35353535353545,612.1212121212121 135.35353535353545,602.5858585858587 135.35353535353545,593.0505050505051 135.35353535353545,583.5151515151516 135.35353535353545,573.979797979798 135.35353535353545,564.4444444444445 135.35353535353545,554.909090909091 135.35353535353545,545.3737373737374 135.35353535353545,535.838383838384 135.35353535353545,526.3030303030304 135.35353535353545,516.7676767676768 135.35353535353545,507.23232323232327 135.35353535353545,497.69696969696975" fill="none" stroke="rgba(255,0,0,0.75)" stroke-width="14.159999999999995"/></g><g><polyline data-points="-3.98989898989899,0.1515151515151522 -4.090909090909091,0.2525252525252529 -4.191919191919193,0.3535353535353544 -4.292929292929293,0.4545454545454551 -4.393939393939394,0.5555555555555567 -4.494949494949496,0.6565656565656574 -4.494949494949496,0.7575757575757579 -4.494949494949496,0.8585858585858596 -4.494949494949496,0.9595959595959602 -4.494949494949496,1.0606060606060617 -4.494949494949496,1.1616161616161622 -4.494949494949496,1.262626262626263 -4.494949494949496,1.3636363636363644 -4.494949494949496,1.4646464646464652 -4.494949494949496,1.5656565656565666 -4.494949494949496,1.6666666666666674 -4.494949494949496,1.767676767676768 -4.494949494949496,1.8686868686868696 -4.494949494949496,1.9696969696969702 -4.494949494949496,2.070707070707072 -4.494949494949496,2.1717171717171726 -4.494949494949496,2.2727272727272734 -4.494949494949496,2.373737373737375 -4.494949494949496,2.4747474747474754 -4.494949494949496,2.575757575757577 -4.494949494949496,2.676767676767678 -4.494949494949496,2.7777777777777786 -4.494949494949496,2.87878787878788 -4.494949494949496,2.9797979797979806 -4.494949494949496,3.080808080808082 -4.494949494949496,3.181818181818183 -4.393939393939394,3.2828282828282833 -4.292929292929293,3.383838383838384 -4.191919191919193,3.4848484848484866 -4.090909090909091,3.5858585858585874 -3.98989898989899,3.6868686868686877" data-type="line" data-label="" points="135.35353535353545,497.69696969696975 125.81818181818193,488.1616161616163 116.28282828282829,478.6262626262627 106.74747474747483,469.0909090909092 97.21212121212136,459.5555555555556 87.67676767676772,450.0202020202021 87.67676767676772,440.4848484848486 87.67676767676772,430.94949494949503 87.67676767676772,421.4141414141415 87.67676767676772,411.87878787878793 87.67676767676772,402.3434343434344 87.67676767676772,392.80808080808094 87.67676767676772,383.27272727272737 87.67676767676772,373.73737373737384 87.67676767676772,364.2020202020203 87.67676767676772,354.66666666666674 87.67676767676772,345.1313131313133 87.67676767676772,335.5959595959597 87.67676767676772,326.06060606060623 87.67676767676772,316.5252525252526 87.67676767676772,306.9898989898991 87.67676767676772,297.4545454545456 87.67676767676772,287.91919191919203 87.67676767676772,278.38383838383857 87.67676767676772,268.84848484848493 87.67676767676772,259.3131313131314 87.67676767676772,249.77777777777794 87.67676767676772,240.24242424242436 87.67676767676772,230.70707070707084 87.67676767676772,221.17171717171726 87.67676767676772,211.63636363636374 97.21212121212136,202.10101010101027 106.74747474747483,192.56565656565675 116.28282828282829,183.03030303030312 125.81818181818193,173.4949494949496 135.35353535353545,163.95959595959613" fill="none" stroke="rgba(0,0,255,0.75)" stroke-width="14.159999999999995"/></g><g><polyline data-points="-3.98989898989899,3.6868686868686877 -4.090909090909091,3.7878787878787885 -4.191919191919193,3.8888888888888893 -4.292929292929293,3.989898989898992 -4.393939393939394,4.090909090909092 -4.494949494949496,4.191919191919193 -4.595959595959596,4.292929292929293 -4.696969696969697,4.292929292929293 -4.7979797979797985,4.292929292929293 -4.898989898989899,4.292929292929293 -5.000000000000001,4.393939393939394" data-type="line" data-label="" points="135.35353535353545,163.95959595959613 125.81818181818193,154.4242424242426 116.28282828282829,144.88888888888908 106.74747474747483,135.35353535353545 97.21212121212136,125.81818181818198 87.67676767676772,116.28282828282846 78.14141414141426,106.747474747475 68.60606060606068,106.747474747475 59.07070707070716,106.747474747475 49.53535353535369,106.747474747475 40.00000000000006,97.21212121212153" fill="none" stroke="rgba(255,0,0,0.75)" stroke-width="14.159999999999995"/></g><g><polyline data-points="-3.5858585858585856,5.000000000000002 -3.6868686868686864,4.898989898989901 -3.5858585858585856,4.7979797979797985 -3.484848484848485,4.7979797979797985 -3.383838383838383,4.7979797979797985 -3.2828282828282824,4.7979797979797985 -3.1818181818181817,4.7979797979797985 -3.0808080808080804,4.7979797979797985 -2.9797979797979792,4.7979797979797985 -2.8787878787878785,4.696969696969697 -2.7777777777777777,4.595959595959597 -2.6767676767676765,4.494949494949497 -2.5757575757575752,4.393939393939394 -2.474747474747474,4.292929292929293 -2.3737373737373733,4.191919191919193 -2.2727272727272725,4.090909090909092 -2.1717171717171713,3.989898989898992" data-type="line" data-label="" points="173.4949494949496,40.000000000000114 163.95959595959607,49.53535353535369 173.4949494949496,59.07070707070733 183.03030303030312,59.07070707070733 192.5656565656567,59.07070707070733 202.10101010101022,59.07070707070733 211.63636363636374,59.07070707070733 221.17171717171726,59.07070707070733 230.70707070707084,59.07070707070733 240.2424242424243,68.60606060606085 249.77777777777783,78.14141414141432 259.3131313131314,87.67676767676778 268.84848484848493,97.21212121212153 278.38383838383845,106.747474747475 287.91919191919203,116.28282828282846 297.4545454545455,125.81818181818198 306.9898989898991,135.35353535353545" fill="none" stroke="rgba(255,0,0,0.75)" stroke-width="14.159999999999995"/></g><g><polyline data-points="-2.1717171717171713,3.989898989898992 -2.07070707070707,4.090909090909092 -1.9696969696969693,4.191919191919193 -1.8686868686868683,4.292929292929293 -1.7676767676767675,4.393939393939394 -1.6666666666666665,4.494949494949497 -1.6666666666666665,4.595959595959597 -1.6666666666666665,4.696969696969697 -1.6666666666666665,4.7979797979797985 -1.6666666666666665,4.898989898989901 -1.5656565656565653,5.000000000000002" data-type="line" data-label="" points="306.9898989898991,135.35353535353545 316.5252525252526,125.81818181818198 326.0606060606061,116.28282828282846 335.59595959595964,106.747474747475 345.13131313131316,97.21212121212153 354.6666666666667,87.67676767676778 354.6666666666667,78.14141414141432 354.6666666666667,68.60606060606085 354.6666666666667,59.07070707070733 354.6666666666667,49.53535353535369 364.2020202020202,40.000000000000114" fill="none" stroke="rgba(0,0,255,0.75)" stroke-width="14.159999999999995"/></g><g><polyline data-points="-4.7979797979797985,5.000000000000002 -4.696969696969697,4.898989898989901 -4.595959595959596,4.898989898989901 -4.494949494949496,4.898989898989901 -4.393939393939394,4.898989898989901 -4.292929292929293,4.898989898989901 -4.191919191919193,4.898989898989901 -4.090909090909091,4.898989898989901 -3.98989898989899,4.898989898989901 -3.8888888888888884,4.898989898989901 -3.7878787878787876,4.898989898989901 -3.6868686868686864,4.898989898989901 -3.5858585858585856,4.7979797979797985 -3.484848484848485,4.696969696969697 -3.383838383838383,4.595959595959597 -3.2828282828282824,4.494949494949497 -3.1818181818181817,4.393939393939394 -3.0808080808080804,4.292929292929293 -2.9797979797979792,4.191919191919193 -2.8787878787878785,4.090909090909092 -2.7777777777777777,3.989898989898992 -2.6767676767676765,3.8888888888888893 -2.5757575757575752,3.7878787878787885 -2.474747474747474,3.6868686868686877 -2.3737373737373733,3.5858585858585874 -2.2727272727272725,3.5858585858585874 -2.1717171717171713,3.4848484848484866 -2.07070707070707,3.4848484848484866 -1.9696969696969693,3.4848484848484866 -1.8686868686868683,3.4848484848484866 -1.7676767676767675,3.4848484848484866 -1.6666666666666665,3.4848484848484866 -1.5656565656565653,3.4848484848484866 -1.4646464646464643,3.4848484848484866 -1.363636363636363,3.4848484848484866 -1.2626262626262625,3.4848484848484866 -1.1616161616161613,3.4848484848484866 -1.0606060606060603,3.4848484848484866 -0.9595959595959596,3.4848484848484866 -0.8585858585858579,3.4848484848484866 -0.7575757575757572,3.4848484848484866 -0.6565656565656557,3.4848484848484866 -0.555555555555555,3.4848484848484866 -0.4545454545454544,3.4848484848484866 -0.35353535353535287,3.4848484848484866 -0.2525252525252522,3.4848484848484866 -0.15151515151515066,3.4848484848484866 -0.05050505050505001,3.4848484848484866 0.050505050505051545,3.4848484848484866 0.1515151515151522,3.4848484848484866 0.2525252525252529,3.4848484848484866 0.3535353535353544,3.4848484848484866 0.4545454545454551,3.4848484848484866 0.5555555555555567,3.4848484848484866 0.6565656565656574,3.4848484848484866 0.7575757575757579,3.4848484848484866 0.8585858585858596,3.4848484848484866 0.9595959595959602,3.4848484848484866 1.0606060606060617,3.4848484848484866 1.1616161616161622,3.4848484848484866 1.262626262626263,3.5858585858585874 1.3636363636363644,3.5858585858585874 1.4646464646464652,3.6868686868686877 1.5656565656565666,3.7878787878787885 1.6666666666666674,3.8888888888888893 1.767676767676768,3.989898989898992 1.8686868686868696,4.090909090909092 1.9696969696969702,4.191919191919193 2.070707070707072,4.292929292929293 2.1717171717171726,4.393939393939394 2.2727272727272734,4.494949494949497 2.373737373737375,4.595959595959597 2.373737373737375,4.696969696969697 2.373737373737375,4.7979797979797985 2.373737373737375,4.898989898989901 2.373737373737375,5.000000000000002" data-type="line" data-label="" points="59.07070707070716,40.000000000000114 68.60606060606068,49.53535353535369 78.14141414141426,49.53535353535369 87.67676767676772,49.53535353535369 97.21212121212136,49.53535353535369 106.74747474747483,49.53535353535369 116.28282828282829,49.53535353535369 125.81818181818193,49.53535353535369 135.35353535353545,49.53535353535369 144.88888888888903,49.53535353535369 154.42424242424255,49.53535353535369 163.95959595959607,49.53535353535369 173.4949494949496,59.07070707070733 183.03030303030312,68.60606060606085 192.5656565656567,78.14141414141432 202.10101010101022,87.67676767676778 211.63636363636374,97.21212121212153 221.17171717171726,106.747474747475 230.70707070707084,116.28282828282846 240.2424242424243,125.81818181818198 249.77777777777783,135.35353535353545 259.3131313131314,144.88888888888908 268.84848484848493,154.4242424242426 278.38383838383845,163.95959595959613 287.91919191919203,173.4949494949496 297.4545454545455,173.4949494949496 306.9898989898991,183.03030303030312 316.5252525252526,183.03030303030312 326.0606060606061,183.03030303030312 335.59595959595964,183.03030303030312 345.13131313131316,183.03030303030312 354.6666666666667,183.03030303030312 364.2020202020202,183.03030303030312 373.7373737373738,183.03030303030312 383.2727272727273,183.03030303030312 392.80808080808083,183.03030303030312 402.34343434343435,183.03030303030312 411.8787878787879,183.03030303030312 421.4141414141414,183.03030303030312 430.949494949495,183.03030303030312 440.4848484848485,183.03030303030312 450.0202020202021,183.03030303030312 459.55555555555554,183.03030303030312 469.09090909090907,183.03030303030312 478.62626262626264,183.03030303030312 488.16161616161617,183.03030303030312 497.69696969696975,183.03030303030312 507.2323232323232,183.03030303030312 516.7676767676768,183.03030303030312 526.3030303030303,183.03030303030312 535.8383838383838,183.03030303030312 545.3737373737374,183.03030303030312 554.9090909090909,183.03030303030312 564.4444444444445,183.03030303030312 573.9797979797979,183.03030303030312 583.5151515151515,183.03030303030312 593.0505050505051,183.03030303030312 602.5858585858585,183.03030303030312 612.1212121212121,183.03030303030312 621.6565656565656,183.03030303030312 631.1919191919192,173.4949494949496 640.7272727272727,173.4949494949496 650.2626262626262,163.95959595959613 659.7979797979798,154.4242424242426 669.3333333333333,144.88888888888908 678.8686868686868,135.35353535353545 688.4040404040404,125.81818181818198 697.9393939393939,116.28282828282846 707.4747474747475,106.747474747475 717.0101010101009,97.21212121212153 726.5454545454545,87.67676767676778 736.0808080808081,78.14141414141432 736.0808080808081,68.60606060606085 736.0808080808081,59.07070707070733 736.0808080808081,49.53535353535369 736.0808080808081,40.000000000000114" fill="none" stroke="rgba(0,0,255,0.75)" stroke-width="14.159999999999995"/></g><g><rect data-type="rect" data-label="" data-x="0" data-y="0" x="40.000000000000114" y="40.000000000000284" width="943.9999999999997" height="943.9999999999998" fill="none" stroke="gray" stroke-width="0.010593220338983056"/></g><g><rect data-type="rect" data-label="" data-x="0" data-y="0" x="40.000000000000114" y="40.000000000000284" width="943.9999999999997" height="943.9999999999998" fill="none" stroke="rgba(15, 23, 42, 0.8)" stroke-width="0.010593220338983056"/></g><circle data-type="circle" data-label="" data-x="3.6868686868686877" data-y="3.989898989898992" cx="860.0404040404039" cy="135.35353535353545" r="28.791999999999987" fill="rgba(0,0,0,0.3)" stroke="black" stroke-width="0.010593220338983056"/><circle data-type="circle" data-label="" data-x="-0.4545454545454544" data-y="-2.474747474747474" cx="469.09090909090907" cy="745.6161616161615" r="28.791999999999987" fill="rgba(0,0,0,0.3)" stroke="black" stroke-width="0.010593220338983056"/><circle data-type="circle" data-label="" data-x="-3.98989898989899" data-y="2.676767676767678" cx="135.35353535353545" cy="259.3131313131314" r="28.791999999999987" fill="rgba(0,0,0,0.3)" stroke="black" stroke-width="0.010593220338983056"/><circle data-type="circle" data-label="" data-x="-2.3737373737373733" data-y="-2.5757575757575752" cx="287.91919191919203" cy="755.1515151515151" r="28.791999999999987" fill="rgba(0,0,0,0.3)" stroke="black" stroke-width="0.010593220338983056"/><circle data-type="circle" data-label="" data-x="-2.3737373737373733" data-y="-1.363636363636363" cx="287.91919191919203" cy="640.7272727272727" r="28.791999999999987" fill="rgba(0,0,0,0.3)" stroke="black" stroke-width="0.010593220338983056"/><circle data-type="circle" data-label="" data-x="-2.3737373737373733" data-y="2.070707070707072" cx="287.91919191919203" cy="316.5252525252526" r="28.791999999999987" fill="rgba(0,0,0,0.3)" stroke="black" stroke-width="0.010593220338983056"/><circle data-type="circle" data-label="" data-x="-2.5757575757575752" data-y="-3.98989898989899" cx="268.84848484848493" cy="888.6464646464647" r="28.791999999999987" fill="rgba(0,0,0,0.3)" stroke="black" stroke-width="0.010593220338983056"/><circle data-type="circle" data-label="" data-x="1.4646464646464652" data-y="-2.1717171717171713" cx="650.2626262626262" cy="717.010101010101" r="28.791999999999987" fill="rgba(0,0,0,0.3)" stroke="black" stroke-width="0.010593220338983056"/><circle data-type="circle" data-label="" data-x="1.1616161616161622" data-y="2.070707070707072" cx="621.6565656565656" cy="316.5252525252526" r="28.791999999999987" fill="rgba(0,0,0,0.3)" stroke="black" stroke-width="0.010593220338983056"/><circle data-type="circle" data-label="" data-x="1.1616161616161622" data-y="3.989898989898992" cx="621.6565656565656" cy="135.35353535353545" r="28.791999999999987" fill="rgba(0,0,0,0.3)" stroke="black" stroke-width="0.010593220338983056"/><circle data-type="circle" data-label="" data-x="-3.98989898989899" data-y="-2.07070707070707" cx="135.35353535353545" cy="707.4747474747475" r="28.791999999999987" fill="rgba(0,0,0,0.3)" stroke="black" stroke-width="0.010593220338983056"/><circle data-type="circle" data-label="" data-x="-3.98989898989899" data-y="0.1515151515151522" cx="135.35353535353545" cy="497.69696969696975" r="28.791999999999987" fill="rgba(0,0,0,0.3)" stroke="black" stroke-width="0.010593220338983056"/><circle data-type="circle" data-label="" data-x="-3.98989898989899" data-y="3.6868686868686877" cx="135.35353535353545" cy="163.95959595959613" r="28.791999999999987" fill="rgba(0,0,0,0.3)" stroke="black" stroke-width="0.010593220338983056"/><circle data-type="circle" data-label="" data-x="-2.1717171717171713" data-y="3.989898989898992" cx="306.9898989898991" cy="135.35353535353545" r="28.791999999999987" fill="rgba(0,0,0,0.3)" stroke="black" stroke-width="0.010593220338983056"/><g id="crosshair" style="display: none"><line id="crosshair-h" y1="0" y2="1024" stroke="#666" stroke-width="0.5"/><line id="crosshair-v" x1="0" x2="1024" stroke="#666" stroke-width="0.5"/><text id="coordinates" font-family="monospace" font-size="12" fill="#666"></text></g><script><![CDATA[
              document.currentScript.parentElement.addEventListener('mousemove', (e) => {
                const svg = e.currentTarget;
                const rect = svg.getBoundingClientRect();
                const x = e.clientX - rect.left;
                const y = e.clientY - rect.top;
                const crosshair = svg.getElementById('crosshair');
                const h = svg.getElementById('crosshair-h');
                const v = svg.getElementById('crosshair-v');
                const coords = svg.getElementById('coordinates');
                
                crosshair.style.display = 'block';
                h.setAttribute('x1', '0');
                h.setAttribute('x2', '1024');
                h.setAttribute('y1', y);
                h.setAttribute('y2', y);
                v.setAttribute('x1', x);
                v.setAttribute('x2', x);
                v.setAttribute('y1', '0');
                v.setAttribute('y2', '1024');

                // Calculate real coordinates using inverse transformation
                const matrix = {"a":94.39999999999996,"c":0,"e":511.99999999999994,"b":0,"d":-94.39999999999996,"f":512.0000000000001};
                // Manually invert and apply the affine transform
                // Since we only use translate and scale, we can directly compute:
                // x' = (x - tx) / sx
                // y' = (y - ty) / sy
                const sx = matrix.a;
                const sy = matrix.d;
                const tx = matrix.e; 
                const ty = matrix.f;
                const realPoint = {
                  x: (x - tx) / sx,
                  y: (y - ty) / sy // Flip y back since we used negative scale
                }
                
                coords.textContent = `(${realPoint.x.toFixed(2)}, ${realPoint.y.toFixed(2)})`;
                coords.setAttribute('x', (x + 5).toString());
                coords.setAttribute('y', (y - 5).toString());
              });
              document.currentScript.parentElement.addEventListener('mouseleave', () => {
                document.currentScript.parentElement.getElementById('crosshair').style.display = 'none';
              });
            ]]></script></svg>