<svg width="1024" height="1024" viewBox="0 0 1024 1024" xmlns="http://www.w3.org/2000/svg"><rect width="100%" height="100%" fill="white"/><g><circle data-type="point" data-label="conn_000" data-x="5" data-y="-0.92" cx="983.9999999999998" cy="598.8480000000001" r="28.792" fill="red" stroke="#0fa0bd" stroke-width="28.792"/></g><g><circle data-type="point" data-label="conn_000" data-x="-5" data-y="-0.54" cx="40.000000000000114" cy="562.9760000000001" r="28.792" fill="blue" stroke="#0fa0bd" stroke-width="28.792"/></g><g><circle data-type="point" data-label="conn_001" data-x="-5" data-y="1.72" cx="40.000000000000114" cy="349.6320000000002" r="28.792" fill="red" stroke="#bd0f6d" stroke-width="28.792"/></g><g><circle data-type="point" data-label="conn_001" data-x="1.4000000000000001" data-y="-5" cx="644.1599999999999" cy="984" r="28.792" fill="blue" stroke="#bd0f6d" stroke-width="28.792"/></g><g><circle data-type="point" data-label="conn_002" data-x="5" data-y="-0.1" cx="983.9999999999998" cy="521.44" r="28.792" fill="blue" stroke="#3bbd0f" stroke-width="28.792"/></g><g><circle data-type="point" data-label="conn_002" data-x="3.72" data-y="5" cx="863.1679999999999" cy="40.000000000000284" r="28.792" fill="blue" stroke="#3bbd0f" stroke-width="28.792"/></g><g><circle data-type="point" data-label="conn_003" data-x="-2.7800000000000002" data-y="5" cx="249.56800000000004" cy="40.000000000000284" r="28.792" fill="red" stroke="#170fbd" stroke-width="28.792"/></g><g><circle data-type="point" data-label="conn_003" data-x="-0.22" data-y="5" cx="491.23199999999997" cy="40.000000000000284" r="28.792" fill="red" stroke="#170fbd" stroke-width="28.792"/></g><g><circle data-type="point" data-label="conn_004" data-x="5" data-y="4.5200000000000005" cx="983.9999999999998" cy="85.31200000000024" r="28.792" fill="blue" stroke="#bd490f" stroke-width="28.792"/></g><g><circle data-type="point" data-label="conn_004" data-x="-0.44" data-y="-5" cx="470.46399999999994" cy="984" r="28.792" fill="blue" stroke="#bd490f" stroke-width="28.792"/></g><g><polyline data-points="5.000000000000002,-0.9595959595959596 4.898989898989901,-0.8585858585858579 4.7979797979797985,-0.7575757575757572 4.696969696969697,-0.6565656565656557 4.595959595959597,-0.555555555555555 4.494949494949497,-0.555555555555555 4.393939393939394,-0.555555555555555 4.292929292929293,-0.555555555555555 4.191919191919193,-0.555555555555555 4.090909090909092,-0.555555555555555 3.989898989898992,-0.555555555555555 3.8888888888888893,-0.555555555555555 3.7878787878787885,-0.555555555555555 3.6868686868686877,-0.555555555555555 3.5858585858585874,-0.555555555555555 3.4848484848484866,-0.555555555555555 3.383838383838384,-0.555555555555555 3.2828282828282833,-0.555555555555555 3.181818181818183,-0.555555555555555 3.080808080808082,-0.555555555555555 2.9797979797979806,-0.555555555555555 2.87878787878788,-0.555555555555555 2.7777777777777786,-0.555555555555555 2.676767676767678,-0.555555555555555 2.575757575757577,-0.555555555555555 2.4747474747474754,-0.555555555555555 2.373737373737375,-0.555555555555555 2.2727272727272734,-0.555555555555555 2.1717171717171726,-0.555555555555555 2.070707070707072,-0.555555555555555 1.9696969696969702,-0.555555555555555 1.8686868686868696,-0.555555555555555 1.767676767676768,-0.555555555555555 1.6666666666666674,-0.555555555555555 1.5656565656565666,-0.555555555555555 1.4646464646464652,-0.555555555555555 1.3636363636363644,-0.555555555555555 1.262626262626263,-0.555555555555555 1.1616161616161622,-0.555555555555555 1.0606060606060617,-0.555555555555555 0.9595959595959602,-0.555555555555555 0.8585858585858596,-0.555555555555555 0.7575757575757579,-0.555555555555555 0.6565656565656574,-0.555555555555555 0.5555555555555567,-0.555555555555555 0.4545454545454551,-0.555555555555555 0.3535353535353544,-0.555555555555555 0.2525252525252529,-0.555555555555555 0.1515151515151522,-0.555555555555555 0.050505050505051545,-0.555555555555555 -0.05050505050505001,-0.555555555555555 -0.15151515151515066,-0.555555555555555 -0.2525252525252522,-0.555555555555555 -0.35353535353535287,-0.555555555555555 -0.4545454545454544,-0.555555555555555 -0.555555555555555,-0.555555555555555 -0.6565656565656557,-0.555555555555555 -0.7575757575757572,-0.555555555555555 -0.8585858585858579,-0.555555555555555 -0.9595959595959596,-0.555555555555555 -1.0606060606060603,-0.555555555555555 -1.1616161616161613,-0.555555555555555 -1.2626262626262625,-0.555555555555555 -1.363636363636363,-0.555555555555555 -1.4646464646464643,-0.555555555555555 -1.5656565656565653,-0.555555555555555 -1.6666666666666665,-0.555555555555555 -1.7676767676767675,-0.555555555555555 -1.8686868686868683,-0.555555555555555 -1.9696969696969693,-0.555555555555555 -2.07070707070707,-0.555555555555555 -2.1717171717171713,-0.555555555555555 -2.2727272727272725,-0.555555555555555 -2.3737373737373733,-0.555555555555555 -2.474747474747474,-0.555555555555555 -2.5757575757575752,-0.555555555555555 -2.6767676767676765,-0.555555555555555 -2.7777777777777777,-0.555555555555555 -2.8787878787878785,-0.555555555555555 -2.9797979797979792,-0.555555555555555 -3.0808080808080804,-0.555555555555555 -3.1818181818181817,-0.555555555555555 -3.2828282828282824,-0.555555555555555 -3.383838383838383,-0.555555555555555 -3.484848484848485,-0.555555555555555 -3.5858585858585856,-0.555555555555555 -3.6868686868686864,-0.555555555555555 -3.7878787878787876,-0.555555555555555 -3.8888888888888884,-0.555555555555555 -3.98989898989899,-0.555555555555555" data-type="line" data-label="" points="984,602.5858585858587 974.4646464646464,593.0505050505051 964.9292929292927,583.5151515151516 955.3939393939393,573.979797979798 945.8585858585857,564.4444444444445 936.3232323232323,564.4444444444445 926.7878787878785,564.4444444444445 917.2525252525251,564.4444444444445 907.7171717171716,564.4444444444445 898.181818181818,564.4444444444445 888.6464646464647,564.4444444444445 879.111111111111,564.4444444444445 869.5757575757575,564.4444444444445 860.0404040404039,564.4444444444445 850.5050505050505,564.4444444444445 840.969696969697,564.4444444444445 831.4343434343433,564.4444444444445 821.8989898989898,564.4444444444445 812.3636363636363,564.4444444444445 802.8282828282828,564.4444444444445 793.2929292929292,564.4444444444445 783.7575757575758,564.4444444444445 774.2222222222222,564.4444444444445 764.6868686868686,564.4444444444445 755.1515151515151,564.4444444444445 745.6161616161615,564.4444444444445 736.0808080808081,564.4444444444445 726.5454545454545,564.4444444444445 717.0101010101009,564.4444444444445 707.4747474747475,564.4444444444445 697.9393939393939,564.4444444444445 688.4040404040404,564.4444444444445 678.8686868686868,564.4444444444445 669.3333333333333,564.4444444444445 659.7979797979798,564.4444444444445 650.2626262626262,564.4444444444445 640.7272727272727,564.4444444444445 631.1919191919192,564.4444444444445 621.6565656565656,564.4444444444445 612.1212121212121,564.4444444444445 602.5858585858585,564.4444444444445 593.0505050505051,564.4444444444445 583.5151515151515,564.4444444444445 573.9797979797979,564.4444444444445 564.4444444444445,564.4444444444445 554.9090909090909,564.4444444444445 545.3737373737374,564.4444444444445 535.8383838383838,564.4444444444445 526.3030303030303,564.4444444444445 516.7676767676768,564.4444444444445 507.2323232323232,564.4444444444445 497.69696969696975,564.4444444444445 488.16161616161617,564.4444444444445 478.62626262626264,564.4444444444445 469.09090909090907,564.4444444444445 459.55555555555554,564.4444444444445 450.0202020202021,564.4444444444445 440.4848484848485,564.4444444444445 430.949494949495,564.4444444444445 421.4141414141414,564.4444444444445 411.8787878787879,564.4444444444445 402.34343434343435,564.4444444444445 392.80808080808083,564.4444444444445 383.2727272727273,564.4444444444445 373.7373737373738,564.4444444444445 364.2020202020202,564.4444444444445 354.6666666666667,564.4444444444445 345.13131313131316,564.4444444444445 335.59595959595964,564.4444444444445 326.0606060606061,564.4444444444445 316.5252525252526,564.4444444444445 306.9898989898991,564.4444444444445 297.4545454545455,564.4444444444445 287.91919191919203,564.4444444444445 278.38383838383845,564.4444444444445 268.84848484848493,564.4444444444445 259.3131313131314,564.4444444444445 249.77777777777783,564.4444444444445 240.2424242424243,564.4444444444445 230.70707070707084,564.4444444444445 221.17171717171726,564.4444444444445 211.63636363636374,564.4444444444445 202.10101010101022,564.4444444444445 192.5656565656567,564.4444444444445 183.03030303030312,564.4444444444445 173.4949494949496,564.4444444444445 163.95959595959607,564.4444444444445 154.42424242424255,564.4444444444445 144.88888888888903,564.4444444444445 135.35353535353545,564.4444444444445" fill="none" stroke="rgba(255,0,0,0.75)" stroke-width="14.159999999999995"/></g><g><polyline data-points="-3.98989898989899,-0.555555555555555 -4.090909090909091,-0.555555555555555 -4.191919191919193,-0.555555555555555 -4.292929292929293,-0.555555555555555 -4.393939393939394,-0.555555555555555 -4.494949494949496,-0.555555555555555 -4.595959595959596,-0.555555555555555 -4.696969696969697,-0.555555555555555 -4.7979797979797985,-0.555555555555555 -4.898989898989899,-0.555555555555555 -5.000000000000001,-0.555555555555555" data-type="line" data-label="" points="135.35353535353545,564.4444444444445 125.81818181818193,564.4444444444445 116.28282828282829,564.4444444444445 106.74747474747483,564.4444444444445 97.21212121212136,564.4444444444445 87.67676767676772,564.4444444444445 78.14141414141426,564.4444444444445 68.60606060606068,564.4444444444445 59.07070707070716,564.4444444444445 49.53535353535369,564.4444444444445 40.00000000000006,564.4444444444445" fill="none" stroke="rgba(0,0,255,0.75)" stroke-width="14.159999999999995"/></g><g><polyline data-points="5.000000000000002,4.595959595959597 4.898989898989901,4.494949494949497 4.7979797979797985,4.393939393939394 4.696969696969697,4.292929292929293 4.595959595959597,4.191919191919193 4.494949494949497,4.090909090909092 4.393939393939394,3.989898989898992 4.292929292929293,3.8888888888888893 4.191919191919193,3.7878787878787885 4.090909090909092,3.6868686868686877 3.989898989898992,3.5858585858585874" data-type="line" data-label="" points="984,78.14141414141432 974.4646464646464,87.67676767676778 964.9292929292927,97.21212121212153 955.3939393939393,106.747474747475 945.8585858585857,116.28282828282846 936.3232323232323,125.81818181818198 926.7878787878785,135.35353535353545 917.2525252525251,144.88888888888908 907.7171717171716,154.4242424242426 898.181818181818,163.95959595959613 888.6464646464647,173.4949494949496" fill="none" stroke="rgba(0,0,255,0.75)" stroke-width="14.159999999999995"/></g><g><polyline data-points="3.989898989898992,3.5858585858585874 3.8888888888888893,3.4848484848484866 3.7878787878787885,3.383838383838384 3.6868686868686877,3.2828282828282833 3.5858585858585874,3.181818181818183 3.4848484848484866,3.080808080808082 3.383838383838384,2.9797979797979806 3.2828282828282833,2.87878787878788 3.181818181818183,2.7777777777777786 3.080808080808082,2.676767676767678 2.9797979797979806,2.575757575757577 2.87878787878788,2.4747474747474754 2.7777777777777786,2.373737373737375 2.676767676767678,2.2727272727272734 2.575757575757577,2.1717171717171726 2.4747474747474754,2.070707070707072 2.373737373737375,1.9696969696969702 2.2727272727272734,1.8686868686868696 2.1717171717171726,1.767676767676768 2.070707070707072,1.6666666666666674 1.9696969696969702,1.5656565656565666 1.8686868686868696,1.4646464646464652 1.767676767676768,1.3636363636363644 1.6666666666666674,1.262626262626263 1.5656565656565666,1.1616161616161622 1.4646464646464652,1.0606060606060617 1.3636363636363644,0.9595959595959602 1.262626262626263,0.8585858585858596 1.1616161616161622,0.7575757575757579 1.0606060606060617,0.6565656565656574 0.9595959595959602,0.5555555555555567 0.8585858585858596,0.4545454545454551 0.7575757575757579,0.3535353535353544 0.6565656565656574,0.2525252525252529 0.5555555555555567,0.1515151515151522 0.4545454545454551,0.050505050505051545" data-type="line" data-label="" points="888.6464646464647,173.4949494949496 879.111111111111,183.03030303030312 869.5757575757575,192.56565656565675 860.0404040404039,202.10101010101027 850.5050505050505,211.63636363636374 840.969696969697,221.17171717171726 831.4343434343433,230.70707070707084 821.8989898989898,240.24242424242436 812.3636363636363,249.77777777777794 802.8282828282828,259.3131313131314 793.2929292929292,268.84848484848493 783.7575757575758,278.38383838383857 774.2222222222222,287.91919191919203 764.6868686868686,297.4545454545456 755.1515151515151,306.9898989898991 745.6161616161615,316.5252525252526 736.0808080808081,326.06060606060623 726.5454545454545,335.5959595959597 717.0101010101009,345.1313131313133 707.4747474747475,354.66666666666674 697.9393939393939,364.2020202020203 688.4040404040404,373.73737373737384 678.8686868686868,383.27272727272737 669.3333333333333,392.80808080808094 659.7979797979798,402.3434343434344 650.2626262626262,411.87878787878793 640.7272727272727,421.4141414141415 631.1919191919192,430.94949494949503 621.6565656565656,440.4848484848486 612.1212121212121,450.0202020202021 602.5858585858585,459.5555555555556 593.0505050505051,469.0909090909092 583.5151515151515,478.6262626262627 573.9797979797979,488.1616161616163 564.4444444444445,497.69696969696975 554.9090909090909,507.23232323232327" fill="none" stroke="rgba(255,0,0,0.75)" stroke-width="14.159999999999995"/></g><g><polyline data-points="0.4545454545454551,0.050505050505051545 0.3535353535353544,-0.05050505050505001 0.2525252525252529,-0.15151515151515066 0.1515151515151522,-0.2525252525252522 0.050505050505051545,-0.35353535353535287 -0.05050505050505001,-0.4545454545454544 -0.15151515151515066,-0.555555555555555 -0.2525252525252522,-0.6565656565656557 -0.35353535353535287,-0.7575757575757572 -0.4545454545454544,-0.8585858585858579 -0.4545454545454544,-0.9595959595959596 -0.4545454545454544,-1.0606060606060603 -0.4545454545454544,-1.1616161616161613 -0.4545454545454544,-1.2626262626262625 -0.4545454545454544,-1.363636363636363 -0.4545454545454544,-1.4646464646464643 -0.4545454545454544,-1.5656565656565653 -0.4545454545454544,-1.6666666666666665 -0.4545454545454544,-1.7676767676767675 -0.4545454545454544,-1.8686868686868683 -0.4545454545454544,-1.9696969696969693 -0.4545454545454544,-2.07070707070707 -0.4545454545454544,-2.1717171717171713 -0.4545454545454544,-2.2727272727272725 -0.4545454545454544,-2.3737373737373733 -0.4545454545454544,-2.474747474747474 -0.4545454545454544,-2.5757575757575752 -0.4545454545454544,-2.6767676767676765 -0.4545454545454544,-2.7777777777777777 -0.4545454545454544,-2.8787878787878785 -0.4545454545454544,-2.9797979797979792 -0.4545454545454544,-3.0808080808080804 -0.4545454545454544,-3.1818181818181817 -0.4545454545454544,-3.2828282828282824 -0.4545454545454544,-3.383838383838383 -0.4545454545454544,-3.484848484848485 -0.4545454545454544,-3.5858585858585856 -0.4545454545454544,-3.6868686868686864 -0.4545454545454544,-3.7878787878787876 -0.4545454545454544,-3.8888888888888884 -0.4545454545454544,-3.98989898989899 -0.4545454545454544,-4.090909090909091 -0.4545454545454544,-4.191919191919193 -0.4545454545454544,-4.292929292929293 -0.4545454545454544,-4.393939393939394 -0.4545454545454544,-4.494949494949496 -0.4545454545454544,-4.595959595959596 -0.4545454545454544,-4.696969696969697 -0.4545454545454544,-4.7979797979797985 -0.4545454545454544,-4.898989898989899 -0.4545454545454544,-5.000000000000001" data-type="line" data-label="" points="554.9090909090909,507.23232323232327 545.3737373737374,516.7676767676768 535.8383838383838,526.3030303030304 526.3030303030303,535.838383838384 516.7676767676768,545.3737373737374 507.2323232323232,554.909090909091 497.69696969696975,564.4444444444445 488.16161616161617,573.979797979798 478.62626262626264,583.5151515151516 469.09090909090907,593.0505050505051 469.09090909090907,602.5858585858587 469.09090909090907,612.1212121212121 469.09090909090907,621.6565656565657 469.09090909090907,631.1919191919193 469.09090909090907,640.7272727272727 469.09090909090907,650.2626262626263 469.09090909090907,659.7979797979798 469.09090909090907,669.3333333333334 469.09090909090907,678.8686868686868 469.09090909090907,688.4040404040404 469.09090909090907,697.939393939394 469.09090909090907,707.4747474747475 469.09090909090907,717.010101010101 469.09090909090907,726.5454545454545 469.09090909090907,736.0808080808081 469.09090909090907,745.6161616161615 469.09090909090907,755.1515151515151 469.09090909090907,764.6868686868687 469.09090909090907,774.2222222222222 469.09090909090907,783.7575757575758 469.09090909090907,793.2929292929292 469.09090909090907,802.8282828282828 469.09090909090907,812.3636363636363 469.09090909090907,821.8989898989898 469.09090909090907,831.4343434343434 469.09090909090907,840.969696969697 469.09090909090907,850.5050505050505 469.09090909090907,860.0404040404039 469.09090909090907,869.5757575757575 469.09090909090907,879.1111111111111 469.09090909090907,888.6464646464647 469.09090909090907,898.1818181818181 469.09090909090907,907.7171717171718 469.09090909090907,917.2525252525252 469.09090909090907,926.7878787878788 469.09090909090907,936.3232323232323 469.09090909090907,945.8585858585858 469.09090909090907,955.3939393939394 469.09090909090907,964.9292929292928 469.09090909090907,974.4646464646464 469.09090909090907,984" fill="none" stroke="rgba(0,0,255,0.75)" stroke-width="14.159999999999995"/></g><g><polyline data-points="-5.000000000000001,1.767676767676768 -4.898989898989899,1.6666666666666674 -4.7979797979797985,1.5656565656565666 -4.696969696969697,1.4646464646464652 -4.595959595959596,1.3636363636363644 -4.494949494949496,1.262626262626263 -4.393939393939394,1.1616161616161622 -4.292929292929293,1.0606060606060617 -4.191919191919193,0.9595959595959602 -4.090909090909091,0.8585858585858596 -3.98989898989899,0.7575757575757579 -3.8888888888888884,0.6565656565656574 -3.7878787878787876,0.5555555555555567 -3.6868686868686864,0.4545454545454551 -3.5858585858585856,0.3535353535353544 -3.484848484848485,0.2525252525252529 -3.383838383838383,0.1515151515151522 -3.2828282828282824,0.050505050505051545 -3.1818181818181817,0.050505050505051545 -3.0808080808080804,0.050505050505051545" data-type="line" data-label="" points="40.00000000000006,345.1313131313133 49.53535353535369,354.66666666666674 59.07070707070716,364.2020202020203 68.60606060606068,373.73737373737384 78.14141414141426,383.27272727272737 87.67676767676772,392.80808080808094 97.21212121212136,402.3434343434344 106.74747474747483,411.87878787878793 116.28282828282829,421.4141414141415 125.81818181818193,430.94949494949503 135.35353535353545,440.4848484848486 144.88888888888903,450.0202020202021 154.42424242424255,459.5555555555556 163.95959595959607,469.0909090909092 173.4949494949496,478.6262626262627 183.03030303030312,488.1616161616163 192.5656565656567,497.69696969696975 202.10101010101022,507.23232323232327 211.63636363636374,507.23232323232327 221.17171717171726,507.23232323232327" fill="none" stroke="rgba(255,0,0,0.75)" stroke-width="14.159999999999995"/></g><g><polyline data-points="-3.0808080808080804,0.050505050505051545 -2.9797979797979792,-0.05050505050505001 -2.8787878787878785,-0.15151515151515066 -2.7777777777777777,-0.2525252525252522 -2.6767676767676765,-0.35353535353535287 -2.5757575757575752,-0.4545454545454544 -2.474747474747474,-0.555555555555555 -2.3737373737373733,-0.6565656565656557 -2.2727272727272725,-0.7575757575757572 -2.1717171717171713,-0.8585858585858579 -2.07070707070707,-0.9595959595959596 -1.9696969696969693,-1.0606060606060603 -1.8686868686868683,-1.1616161616161613 -1.7676767676767675,-1.2626262626262625 -1.6666666666666665,-1.363636363636363 -1.5656565656565653,-1.4646464646464643 -1.4646464646464643,-1.5656565656565653 -1.363636363636363,-1.6666666666666665 -1.2626262626262625,-1.7676767676767675 -1.1616161616161613,-1.8686868686868683 -1.0606060606060603,-1.9696969696969693 -1.0606060606060603,-2.07070707070707 -1.0606060606060603,-2.1717171717171713 -1.0606060606060603,-2.2727272727272725 -1.0606060606060603,-2.3737373737373733 -1.0606060606060603,-2.474747474747474 -1.0606060606060603,-2.5757575757575752 -1.0606060606060603,-2.6767676767676765 -1.0606060606060603,-2.7777777777777777 -1.0606060606060603,-2.8787878787878785 -1.0606060606060603,-2.9797979797979792 -1.0606060606060603,-3.0808080808080804 -1.0606060606060603,-3.1818181818181817 -1.0606060606060603,-3.2828282828282824 -1.0606060606060603,-3.383838383838383 -1.0606060606060603,-3.484848484848485 -1.0606060606060603,-3.5858585858585856 -1.0606060606060603,-3.6868686868686864 -1.0606060606060603,-3.7878787878787876" data-type="line" data-label="" points="221.17171717171726,507.23232323232327 230.70707070707084,516.7676767676768 240.2424242424243,526.3030303030304 249.77777777777783,535.838383838384 259.3131313131314,545.3737373737374 268.84848484848493,554.909090909091 278.38383838383845,564.4444444444445 287.91919191919203,573.979797979798 297.4545454545455,583.5151515151516 306.9898989898991,593.0505050505051 316.5252525252526,602.5858585858587 326.0606060606061,612.1212121212121 335.59595959595964,621.6565656565657 345.13131313131316,631.1919191919193 354.6666666666667,640.7272727272727 364.2020202020202,650.2626262626263 373.7373737373738,659.7979797979798 383.2727272727273,669.3333333333334 392.80808080808083,678.8686868686868 402.34343434343435,688.4040404040404 411.8787878787879,697.939393939394 411.8787878787879,707.4747474747475 411.8787878787879,717.010101010101 411.8787878787879,726.5454545454545 411.8787878787879,736.0808080808081 411.8787878787879,745.6161616161615 411.8787878787879,755.1515151515151 411.8787878787879,764.6868686868687 411.8787878787879,774.2222222222222 411.8787878787879,783.7575757575758 411.8787878787879,793.2929292929292 411.8787878787879,802.8282828282828 411.8787878787879,812.3636363636363 411.8787878787879,821.8989898989898 411.8787878787879,831.4343434343434 411.8787878787879,840.969696969697 411.8787878787879,850.5050505050505 411.8787878787879,860.0404040404039 411.8787878787879,869.5757575757575" fill="none" stroke="rgba(0,0,255,0.75)" stroke-width="14.159999999999995"/></g><g><polyline data-points="-1.0606060606060603,-3.7878787878787876 -0.9595959595959596,-3.8888888888888884 -0.8585858585858579,-3.98989898989899 -0.7575757575757572,-3.98989898989899 -0.6565656565656557,-3.98989898989899 -0.555555555555555,-3.98989898989899 -0.4545454545454544,-3.98989898989899 -0.35353535353535287,-3.98989898989899 -0.2525252525252522,-3.98989898989899 -0.15151515151515066,-3.98989898989899 -0.05050505050505001,-3.98989898989899 0.050505050505051545,-3.98989898989899 0.1515151515151522,-3.98989898989899 0.2525252525252529,-3.98989898989899 0.3535353535353544,-3.98989898989899 0.4545454545454551,-3.98989898989899 0.5555555555555567,-3.98989898989899 0.6565656565656574,-3.98989898989899 0.7575757575757579,-3.98989898989899 0.8585858585858596,-3.98989898989899 0.9595959595959602,-3.98989898989899 1.0606060606060617,-3.98989898989899 1.1616161616161622,-3.98989898989899 1.262626262626263,-3.98989898989899" data-type="line" data-label="" points="411.8787878787879,869.5757575757575 421.4141414141414,879.1111111111111 430.949494949495,888.6464646464647 440.4848484848485,888.6464646464647 450.0202020202021,888.6464646464647 459.55555555555554,888.6464646464647 469.09090909090907,888.6464646464647 478.62626262626264,888.6464646464647 488.16161616161617,888.6464646464647 497.69696969696975,888.6464646464647 507.2323232323232,888.6464646464647 516.7676767676768,888.6464646464647 526.3030303030303,888.6464646464647 535.8383838383838,888.6464646464647 545.3737373737374,888.6464646464647 554.9090909090909,888.6464646464647 564.4444444444445,888.6464646464647 573.9797979797979,888.6464646464647 583.5151515151515,888.6464646464647 593.0505050505051,888.6464646464647 602.5858585858585,888.6464646464647 612.1212121212121,888.6464646464647 621.6565656565656,888.6464646464647 631.1919191919192,888.6464646464647" fill="none" stroke="rgba(255,0,0,0.75)" stroke-width="14.159999999999995"/></g><g><polyline data-points="1.262626262626263,-3.98989898989899 1.3636363636363644,-4.090909090909091 1.4646464646464652,-4.191919191919193 1.4646464646464652,-4.292929292929293 1.4646464646464652,-4.393939393939394 1.4646464646464652,-4.494949494949496 1.4646464646464652,-4.595959595959596 1.4646464646464652,-4.696969696969697 1.4646464646464652,-4.7979797979797985 1.4646464646464652,-4.898989898989899 1.4646464646464652,-5.000000000000001" data-type="line" data-label="" points="631.1919191919192,888.6464646464647 640.7272727272727,898.1818181818181 650.2626262626262,907.7171717171718 650.2626262626262,917.2525252525252 650.2626262626262,926.7878787878788 650.2626262626262,936.3232323232323 650.2626262626262,945.8585858585858 650.2626262626262,955.3939393939394 650.2626262626262,964.9292929292928 650.2626262626262,974.4646464646464 650.2626262626262,984" fill="none" stroke="rgba(0,0,255,0.75)" stroke-width="14.159999999999995"/></g><g><polyline data-points="-2.7777777777777777,5.000000000000002 -2.6767676767676765,5.000000000000002 -2.5757575757575752,5.000000000000002 -2.474747474747474,5.000000000000002 -2.3737373737373733,5.000000000000002 -2.2727272727272725,5.000000000000002 -2.1717171717171713,5.000000000000002 -2.07070707070707,5.000000000000002 -1.9696969696969693,5.000000000000002 -1.8686868686868683,5.000000000000002 -1.7676767676767675,5.000000000000002 -1.6666666666666665,5.000000000000002 -1.5656565656565653,5.000000000000002 -1.4646464646464643,5.000000000000002 -1.363636363636363,5.000000000000002 -1.2626262626262625,5.000000000000002 -1.1616161616161613,5.000000000000002 -1.0606060606060603,5.000000000000002 -0.9595959595959596,5.000000000000002 -0.8585858585858579,5.000000000000002 -0.7575757575757572,5.000000000000002 -0.6565656565656557,5.000000000000002 -0.555555555555555,5.000000000000002 -0.4545454545454544,5.000000000000002 -0.35353535353535287,5.000000000000002 -0.2525252525252522,5.000000000000002" data-type="line" data-label="" points="249.77777777777783,40.000000000000114 259.3131313131314,40.000000000000114 268.84848484848493,40.000000000000114 278.38383838383845,40.000000000000114 287.91919191919203,40.000000000000114 297.4545454545455,40.000000000000114 306.9898989898991,40.000000000000114 316.5252525252526,40.000000000000114 326.0606060606061,40.000000000000114 335.59595959595964,40.000000000000114 345.13131313131316,40.000000000000114 354.6666666666667,40.000000000000114 364.2020202020202,40.000000000000114 373.7373737373738,40.000000000000114 383.2727272727273,40.000000000000114 392.80808080808083,40.000000000000114 402.34343434343435,40.000000000000114 411.8787878787879,40.000000000000114 421.4141414141414,40.000000000000114 430.949494949495,40.000000000000114 440.4848484848485,40.000000000000114 450.0202020202021,40.000000000000114 459.55555555555554,40.000000000000114 469.09090909090907,40.000000000000114 478.62626262626264,40.000000000000114 488.16161616161617,40.000000000000114" fill="none" stroke="rgba(255,0,0,0.75)" stroke-width="14.159999999999995"/></g><g><polyline data-points="5.000000000000002,-0.05050505050505001 4.898989898989901,-0.05050505050505001 4.7979797979797985,0.050505050505051545 4.696969696969697,0.1515151515151522 4.595959595959597,0.2525252525252529 4.494949494949497,0.3535353535353544 4.393939393939394,0.4545454545454551 4.292929292929293,0.5555555555555567 4.191919191919193,0.6565656565656574 4.090909090909092,0.7575757575757579 3.989898989898992,0.8585858585858596 3.8888888888888893,0.9595959595959602 3.7878787878787885,1.0606060606060617 3.6868686868686877,1.1616161616161622 3.6868686868686877,1.262626262626263 3.6868686868686877,1.3636363636363644 3.6868686868686877,1.4646464646464652 3.6868686868686877,1.5656565656565666 3.6868686868686877,1.6666666666666674 3.6868686868686877,1.767676767676768 3.6868686868686877,1.8686868686868696 3.6868686868686877,1.9696969696969702 3.6868686868686877,2.070707070707072 3.6868686868686877,2.1717171717171726 3.6868686868686877,2.2727272727272734 3.6868686868686877,2.373737373737375 3.6868686868686877,2.4747474747474754 3.6868686868686877,2.575757575757577 3.6868686868686877,2.676767676767678 3.6868686868686877,2.7777777777777786 3.6868686868686877,2.87878787878788 3.6868686868686877,2.9797979797979806 3.6868686868686877,3.080808080808082 3.6868686868686877,3.181818181818183 3.6868686868686877,3.2828282828282833 3.5858585858585874,3.383838383838384 3.5858585858585874,3.4848484848484866 3.4848484848484866,3.5858585858585874 3.5858585858585874,3.6868686868686877 3.5858585858585874,3.7878787878787885 3.6868686868686877,3.8888888888888893 3.6868686868686877,3.989898989898992 3.6868686868686877,4.090909090909092 3.6868686868686877,4.191919191919193 3.6868686868686877,4.292929292929293 3.6868686868686877,4.393939393939394 3.6868686868686877,4.494949494949497 3.6868686868686877,4.595959595959597 3.6868686868686877,4.696969696969697 3.6868686868686877,4.7979797979797985 3.6868686868686877,4.898989898989901 3.7878787878787885,5.000000000000002" data-type="line" data-label="" points="984,516.7676767676768 974.4646464646464,516.7676767676768 964.9292929292927,507.23232323232327 955.3939393939393,497.69696969696975 945.8585858585857,488.1616161616163 936.3232323232323,478.6262626262627 926.7878787878785,469.0909090909092 917.2525252525251,459.5555555555556 907.7171717171716,450.0202020202021 898.181818181818,440.4848484848486 888.6464646464647,430.94949494949503 879.111111111111,421.4141414141415 869.5757575757575,411.87878787878793 860.0404040404039,402.3434343434344 860.0404040404039,392.80808080808094 860.0404040404039,383.27272727272737 860.0404040404039,373.73737373737384 860.0404040404039,364.2020202020203 860.0404040404039,354.66666666666674 860.0404040404039,345.1313131313133 860.0404040404039,335.5959595959597 860.0404040404039,326.06060606060623 860.0404040404039,316.5252525252526 860.0404040404039,306.9898989898991 860.0404040404039,297.4545454545456 860.0404040404039,287.91919191919203 860.0404040404039,278.38383838383857 860.0404040404039,268.84848484848493 860.0404040404039,259.3131313131314 860.0404040404039,249.77777777777794 860.0404040404039,240.24242424242436 860.0404040404039,230.70707070707084 860.0404040404039,221.17171717171726 860.0404040404039,211.63636363636374 860.0404040404039,202.10101010101027 850.5050505050505,192.56565656565675 850.5050505050505,183.03030303030312 840.969696969697,173.4949494949496 850.5050505050505,163.95959595959613 850.5050505050505,154.4242424242426 860.0404040404039,144.88888888888908 860.0404040404039,135.35353535353545 860.0404040404039,125.81818181818198 860.0404040404039,116.28282828282846 860.0404040404039,106.747474747475 860.0404040404039,97.21212121212153 860.0404040404039,87.67676767676778 860.0404040404039,78.14141414141432 860.0404040404039,68.60606060606085 860.0404040404039,59.07070707070733 860.0404040404039,49.53535353535369 869.5757575757575,40.000000000000114" fill="none" stroke="rgba(0,0,255,0.75)" stroke-width="14.159999999999995"/></g><g><rect data-type="rect" data-label="" data-x="0" data-y="0" x="40.000000000000114" y="40.000000000000284" width="943.9999999999997" height="943.9999999999998" fill="none" stroke="gray" stroke-width="0.010593220338983056"/></g><g><rect data-type="rect" data-label="" data-x="0" data-y="0" x="40.000000000000114" y="40.000000000000284" width="943.9999999999997" height="943.9999999999998" fill="none" stroke="rgba(15, 23, 42, 0.8)" stroke-width="0.010593220338983056"/></g><circle data-type="circle" data-label="" data-x="-3.98989898989899" data-y="-0.555555555555555" cx="135.35353535353545" cy="564.4444444444445" r="28.791999999999987" fill="rgba(0,0,0,0.3)" stroke="black" stroke-width="0.010593220338983056"/><circle data-type="circle" data-label="" data-x="3.989898989898992" data-y="3.5858585858585874" cx="888.6464646464647" cy="173.4949494949496" r="28.791999999999987" fill="rgba(0,0,0,0.3)" stroke="black" stroke-width="0.010593220338983056"/><circle data-type="circle" data-label="" data-x="0.4545454545454551" data-y="0.050505050505051545" cx="554.9090909090909" cy="507.23232323232327" r="28.791999999999987" fill="rgba(0,0,0,0.3)" stroke="black" stroke-width="0.010593220338983056"/><circle data-type="circle" data-label="" data-x="-3.0808080808080804" data-y="0.050505050505051545" cx="221.17171717171726" cy="507.23232323232327" r="28.791999999999987" fill="rgba(0,0,0,0.3)" stroke="black" stroke-width="0.010593220338983056"/><circle data-type="circle" data-label="" data-x="-1.0606060606060603" data-y="-3.7878787878787876" cx="411.8787878787879" cy="869.5757575757575" r="28.791999999999987" fill="rgba(0,0,0,0.3)" stroke="black" stroke-width="0.010593220338983056"/><circle data-type="circle" data-label="" data-x="1.262626262626263" data-y="-3.98989898989899" cx="631.1919191919192" cy="888.6464646464647" r="28.791999999999987" fill="rgba(0,0,0,0.3)" stroke="black" stroke-width="0.010593220338983056"/><g id="crosshair" style="display: none"><line id="crosshair-h" y1="0" y2="1024" stroke="#666" stroke-width="0.5"/><line id="crosshair-v" x1="0" x2="1024" stroke="#666" stroke-width="0.5"/><text id="coordinates" font-family="monospace" font-size="12" fill="#666"></text></g><script><![CDATA[
              document.currentScript.parentElement.addEventListener('mousemove', (e) => {
                const svg = e.currentTarget;
                const rect = svg.getBoundingClientRect();
                const x = e.clientX - rect.left;
                const y = e.clientY - rect.top;
                const crosshair = svg.getElementById('crosshair');
                const h = svg.getElementById('crosshair-h');
                const v = svg.getElementById('crosshair-v');
                const coords = svg.getElementById('coordinates');
                
                crosshair.style.display = 'block';
                h.setAttribute('x1', '0');
                h.setAttribute('x2', '1024');
                h.setAttribute('y1', y);
                h.setAttribute('y2', y);
                v.setAttribute('x1', x);
                v.setAttribute('x2', x);
                v.setAttribute('y1', '0');
                v.setAttribute('y2', '1024');

                // Calculate real coordinates using inverse transformation
                const matrix = {"a":94.39999999999996,"c":0,"e":511.99999999999994,"b":0,"d":-94.39999999999996,"f":512.0000000000001};
                // Manually invert and apply the affine transform
                // Since we only use translate and scale, we can directly compute:
                // x' = (x - tx) / sx
                // y' = (y - ty) / sy
                const sx = matrix.a;
                const sy = matrix.d;
                const tx = matrix.e; 
                const ty = matrix.f;
                const realPoint = {
                  x: (x - tx) / sx,
                  y: (y - ty) / sy // Flip y back since we used negative scale
                }
                
                coords.textContent = `(${realPoint.x.toFixed(2)}, ${realPoint.y.toFixed(2)})`;
                coords.setAttribute('x', (x + 5).toString());
                coords.setAttribute('y', (y - 5).toString());
              });
              document.currentScript.parentElement.addEventListener('mouseleave', () => {
                document.currentScript.parentElement.getElementById('crosshair').style.display = 'none';
              });
            ]]></script></svg>