<svg width="1024" height="1024" viewBox="0 0 1024 1024" xmlns="http://www.w3.org/2000/svg"><rect width="100%" height="100%" fill="white"/><g><circle data-type="point" data-label="conn_000" data-x="-4.62" data-y="-5" cx="75.87200000000018" cy="984" r="28.792" fill="blue" stroke="#0fbd42" stroke-width="28.792"/></g><g><circle data-type="point" data-label="conn_000" data-x="2.4" data-y="5" cx="738.56" cy="40.000000000000284" r="28.792" fill="red" stroke="#0fbd42" stroke-width="28.792"/></g><g><circle data-type="point" data-label="conn_001" data-x="4.5600000000000005" data-y="5" cx="942.4639999999999" cy="40.000000000000284" r="28.792" fill="blue" stroke="#740fbd" stroke-width="28.792"/></g><g><circle data-type="point" data-label="conn_001" data-x="4.28" data-y="-5" cx="916.0319999999999" cy="984" r="28.792" fill="blue" stroke="#740fbd" stroke-width="28.792"/></g><g><circle data-type="point" data-label="conn_002" data-x="-1.58" data-y="5" cx="362.84800000000007" cy="40.000000000000284" r="28.792" fill="blue" stroke="#bda70f" stroke-width="28.792"/></g><g><circle data-type="point" data-label="conn_002" data-x="1" data-y="-5" cx="606.4" cy="984" r="28.792" fill="red" stroke="#bda70f" stroke-width="28.792"/></g><g><polyline data-points="-1.5656565656565653,5.000000000000002 -1.4646464646464643,4.898989898989901 -1.363636363636363,4.7979797979797985 -1.2626262626262625,4.696969696969697 -1.1616161616161613,4.595959595959597 -1.0606060606060603,4.494949494949497 -0.9595959595959596,4.393939393939394 -0.8585858585858579,4.292929292929293 -0.7575757575757572,4.191919191919193 -0.6565656565656557,4.090909090909092 -0.555555555555555,3.989898989898992 -0.4545454545454544,3.8888888888888893 -0.35353535353535287,3.7878787878787885 -0.2525252525252522,3.6868686868686877 -0.15151515151515066,3.5858585858585874 -0.05050505050505001,3.4848484848484866 0.050505050505051545,3.383838383838384 0.1515151515151522,3.2828282828282833 0.2525252525252529,3.181818181818183 0.3535353535353544,3.080808080808082 0.4545454545454551,2.9797979797979806 0.5555555555555567,2.87878787878788 0.6565656565656574,2.7777777777777786 0.7575757575757579,2.676767676767678 0.8585858585858596,2.575757575757577 0.9595959595959602,2.4747474747474754 1.0606060606060617,2.373737373737375 1.0606060606060617,2.2727272727272734 1.0606060606060617,2.1717171717171726 1.0606060606060617,2.070707070707072 1.0606060606060617,1.9696969696969702 1.0606060606060617,1.8686868686868696 1.0606060606060617,1.767676767676768 1.0606060606060617,1.6666666666666674 1.0606060606060617,1.5656565656565666 1.0606060606060617,1.4646464646464652 1.0606060606060617,1.3636363636363644 1.0606060606060617,1.262626262626263 1.0606060606060617,1.1616161616161622 1.0606060606060617,1.0606060606060617 1.0606060606060617,0.9595959595959602 1.0606060606060617,0.8585858585858596 1.0606060606060617,0.7575757575757579 1.0606060606060617,0.6565656565656574 1.0606060606060617,0.5555555555555567 1.0606060606060617,0.4545454545454551 1.0606060606060617,0.3535353535353544 1.0606060606060617,0.2525252525252529 1.0606060606060617,0.1515151515151522 1.0606060606060617,0.050505050505051545 1.0606060606060617,-0.05050505050505001 1.0606060606060617,-0.15151515151515066 1.0606060606060617,-0.2525252525252522 1.0606060606060617,-0.35353535353535287 1.0606060606060617,-0.4545454545454544 1.0606060606060617,-0.555555555555555 1.0606060606060617,-0.6565656565656557 1.0606060606060617,-0.7575757575757572 1.0606060606060617,-0.8585858585858579 1.0606060606060617,-0.9595959595959596 1.0606060606060617,-1.0606060606060603 1.0606060606060617,-1.1616161616161613 1.0606060606060617,-1.2626262626262625 1.0606060606060617,-1.363636363636363 1.0606060606060617,-1.4646464646464643 1.0606060606060617,-1.5656565656565653 1.0606060606060617,-1.6666666666666665 1.0606060606060617,-1.7676767676767675 1.0606060606060617,-1.8686868686868683 1.0606060606060617,-1.9696969696969693 1.0606060606060617,-2.07070707070707 1.0606060606060617,-2.1717171717171713 1.0606060606060617,-2.2727272727272725 1.0606060606060617,-2.3737373737373733 1.0606060606060617,-2.474747474747474 1.0606060606060617,-2.5757575757575752 1.0606060606060617,-2.6767676767676765 1.0606060606060617,-2.7777777777777777 1.0606060606060617,-2.8787878787878785 1.0606060606060617,-2.9797979797979792 1.0606060606060617,-3.0808080808080804 1.0606060606060617,-3.1818181818181817 1.0606060606060617,-3.2828282828282824 1.0606060606060617,-3.383838383838383 1.0606060606060617,-3.484848484848485 1.0606060606060617,-3.5858585858585856 1.0606060606060617,-3.6868686868686864 1.0606060606060617,-3.7878787878787876 1.0606060606060617,-3.8888888888888884 1.0606060606060617,-3.98989898989899" data-type="line" data-label="" points="364.2020202020203,40.000000000000114 373.7373737373738,49.53535353535369 383.27272727272737,59.07070707070733 392.80808080808083,68.60606060606085 402.3434343434344,78.14141414141432 411.87878787878793,87.67676767676778 421.41414141414145,97.21212121212153 430.94949494949503,106.747474747475 440.48484848484856,116.28282828282846 450.02020202020213,125.81818181818198 459.55555555555566,135.35353535353545 469.0909090909091,144.88888888888908 478.6262626262627,154.4242424242426 488.1616161616162,163.95959595959613 497.6969696969698,173.4949494949496 507.23232323232327,183.03030303030312 516.7676767676769,192.56565656565675 526.3030303030304,202.10101010101027 535.8383838383838,211.63636363636374 545.3737373737374,221.17171717171726 554.909090909091,230.70707070707084 564.4444444444446,240.24242424242436 573.979797979798,249.77777777777794 583.5151515151515,259.3131313131314 593.0505050505051,268.84848484848493 602.5858585858587,278.38383838383857 612.1212121212122,287.91919191919203 612.1212121212122,297.4545454545456 612.1212121212122,306.9898989898991 612.1212121212122,316.5252525252526 612.1212121212122,326.06060606060623 612.1212121212122,335.5959595959597 612.1212121212122,345.1313131313133 612.1212121212122,354.66666666666674 612.1212121212122,364.2020202020203 612.1212121212122,373.73737373737384 612.1212121212122,383.27272727272737 612.1212121212122,392.80808080808094 612.1212121212122,402.3434343434344 612.1212121212122,411.87878787878793 612.1212121212122,421.4141414141415 612.1212121212122,430.94949494949503 612.1212121212122,440.4848484848486 612.1212121212122,450.0202020202021 612.1212121212122,459.5555555555556 612.1212121212122,469.0909090909092 612.1212121212122,478.6262626262627 612.1212121212122,488.1616161616163 612.1212121212122,497.69696969696975 612.1212121212122,507.23232323232327 612.1212121212122,516.7676767676768 612.1212121212122,526.3030303030304 612.1212121212122,535.838383838384 612.1212121212122,545.3737373737374 612.1212121212122,554.909090909091 612.1212121212122,564.4444444444445 612.1212121212122,573.979797979798 612.1212121212122,583.5151515151516 612.1212121212122,593.0505050505051 612.1212121212122,602.5858585858587 612.1212121212122,612.1212121212121 612.1212121212122,621.6565656565657 612.1212121212122,631.1919191919193 612.1212121212122,640.7272727272727 612.1212121212122,650.2626262626263 612.1212121212122,659.7979797979798 612.1212121212122,669.3333333333334 612.1212121212122,678.8686868686868 612.1212121212122,688.4040404040404 612.1212121212122,697.939393939394 612.1212121212122,707.4747474747475 612.1212121212122,717.010101010101 612.1212121212122,726.5454545454545 612.1212121212122,736.0808080808081 612.1212121212122,745.6161616161615 612.1212121212122,755.1515151515151 612.1212121212122,764.6868686868687 612.1212121212122,774.2222222222222 612.1212121212122,783.7575757575758 612.1212121212122,793.2929292929292 612.1212121212122,802.8282828282828 612.1212121212122,812.3636363636363 612.1212121212122,821.8989898989898 612.1212121212122,831.4343434343434 612.1212121212122,840.969696969697 612.1212121212122,850.5050505050505 612.1212121212122,860.0404040404039 612.1212121212122,869.5757575757575 612.1212121212122,879.1111111111111 612.1212121212122,888.6464646464647" fill="none" stroke="rgba(0,0,255,0.75)" stroke-width="14.159999999999995"/></g><g><polyline data-points="1.0606060606060617,-3.98989898989899 1.0606060606060617,-4.090909090909091 1.0606060606060617,-4.191919191919193 1.0606060606060617,-4.292929292929293 1.0606060606060617,-4.393939393939394 1.0606060606060617,-4.494949494949496 1.0606060606060617,-4.595959595959596 1.0606060606060617,-4.696969696969697 1.0606060606060617,-4.7979797979797985 1.0606060606060617,-4.898989898989899 1.0606060606060617,-5.000000000000001" data-type="line" data-label="" points="612.1212121212122,888.6464646464647 612.1212121212122,898.1818181818181 612.1212121212122,907.7171717171718 612.1212121212122,917.2525252525252 612.1212121212122,926.7878787878788 612.1212121212122,936.3232323232323 612.1212121212122,945.8585858585858 612.1212121212122,955.3939393939394 612.1212121212122,964.9292929292928 612.1212121212122,974.4646464646464 612.1212121212122,984" fill="none" stroke="rgba(255,0,0,0.75)" stroke-width="14.159999999999995"/></g><g><polyline data-points="-4.696969696969697,-5.000000000000001 -4.595959595959596,-4.898989898989899 -4.494949494949496,-4.7979797979797985 -4.393939393939394,-4.696969696969697 -4.292929292929293,-4.595959595959596 -4.191919191919193,-4.494949494949496 -4.090909090909091,-4.393939393939394 -3.98989898989899,-4.292929292929293 -3.8888888888888884,-4.191919191919193 -3.7878787878787876,-4.090909090909091 -3.6868686868686864,-3.98989898989899 -3.5858585858585856,-3.8888888888888884 -3.484848484848485,-3.7878787878787876 -3.383838383838383,-3.6868686868686864 -3.2828282828282824,-3.5858585858585856 -3.1818181818181817,-3.484848484848485 -3.0808080808080804,-3.383838383838383 -2.9797979797979792,-3.2828282828282824 -2.8787878787878785,-3.1818181818181817 -2.7777777777777777,-3.0808080808080804 -2.6767676767676765,-2.9797979797979792 -2.5757575757575752,-2.8787878787878785 -2.474747474747474,-2.7777777777777777 -2.3737373737373733,-2.6767676767676765 -2.2727272727272725,-2.5757575757575752 -2.1717171717171713,-2.474747474747474 -2.07070707070707,-2.3737373737373733 -1.9696969696969693,-2.2727272727272725 -1.8686868686868683,-2.1717171717171713 -1.7676767676767675,-2.07070707070707 -1.6666666666666665,-1.9696969696969693 -1.5656565656565653,-1.8686868686868683 -1.4646464646464643,-1.7676767676767675 -1.363636363636363,-1.6666666666666665 -1.2626262626262625,-1.5656565656565653 -1.1616161616161613,-1.4646464646464643 -1.0606060606060603,-1.363636363636363 -0.9595959595959596,-1.2626262626262625 -0.8585858585858579,-1.1616161616161613 -0.7575757575757572,-1.0606060606060603 -0.6565656565656557,-0.9595959595959596 -0.555555555555555,-0.8585858585858579 -0.4545454545454544,-0.7575757575757572 -0.35353535353535287,-0.6565656565656557 -0.2525252525252522,-0.555555555555555 -0.15151515151515066,-0.4545454545454544 -0.05050505050505001,-0.35353535353535287 0.050505050505051545,-0.2525252525252522 0.1515151515151522,-0.15151515151515066 0.2525252525252529,-0.05050505050505001 0.3535353535353544,0.050505050505051545 0.4545454545454551,0.1515151515151522 0.4545454545454551,0.2525252525252529 0.4545454545454551,0.3535353535353544 0.4545454545454551,0.4545454545454551 0.4545454545454551,0.5555555555555567 0.4545454545454551,0.6565656565656574 0.4545454545454551,0.7575757575757579 0.4545454545454551,0.8585858585858596 0.4545454545454551,0.9595959595959602 0.4545454545454551,1.0606060606060617 0.4545454545454551,1.1616161616161622 0.4545454545454551,1.262626262626263 0.4545454545454551,1.3636363636363644 0.4545454545454551,1.4646464646464652 0.4545454545454551,1.5656565656565666 0.4545454545454551,1.6666666666666674 0.4545454545454551,1.767676767676768 0.4545454545454551,1.8686868686868696 0.4545454545454551,1.9696969696969702" data-type="line" data-label="" points="68.60606060606074,984 78.14141414141432,974.4646464646464 87.67676767676778,964.9292929292928 97.21212121212142,955.3939393939394 106.74747474747488,945.8585858585858 116.28282828282835,936.3232323232323 125.81818181818198,926.7878787878788 135.3535353535355,917.2525252525252 144.88888888888908,907.7171717171718 154.4242424242426,898.1818181818181 163.95959595959613,888.6464646464647 173.49494949494965,879.1111111111111 183.03030303030317,869.5757575757575 192.56565656565675,860.0404040404039 202.10101010101027,850.5050505050505 211.6363636363638,840.969696969697 221.17171717171732,831.4343434343434 230.7070707070709,821.8989898989898 240.24242424242436,812.3636363636363 249.77777777777789,802.8282828282828 259.3131313131314,793.2929292929292 268.848484848485,783.7575757575758 278.38383838383857,774.2222222222222 287.91919191919203,764.6868686868687 297.45454545454555,755.1515151515151 306.9898989898991,745.6161616161615 316.52525252525265,736.0808080808081 326.0606060606062,726.5454545454545 335.5959595959597,717.010101010101 345.1313131313132,707.4747474747475 354.66666666666674,697.939393939394 364.2020202020203,688.4040404040404 373.7373737373738,678.8686868686868 383.27272727272737,669.3333333333334 392.80808080808083,659.7979797979798 402.3434343434344,650.2626262626263 411.87878787878793,640.7272727272727 421.41414141414145,631.1919191919193 430.94949494949503,621.6565656565657 440.48484848484856,612.1212121212121 450.02020202020213,602.5858585858587 459.55555555555566,593.0505050505051 469.0909090909091,583.5151515151516 478.6262626262627,573.979797979798 488.1616161616162,564.4444444444445 497.6969696969698,554.909090909091 507.23232323232327,545.3737373737374 516.7676767676769,535.838383838384 526.3030303030304,526.3030303030304 535.8383838383838,516.7676767676768 545.3737373737374,507.23232323232327 554.909090909091,497.69696969696975 554.909090909091,488.1616161616163 554.909090909091,478.6262626262627 554.909090909091,469.0909090909092 554.909090909091,459.5555555555556 554.909090909091,450.0202020202021 554.909090909091,440.4848484848486 554.909090909091,430.94949494949503 554.909090909091,421.4141414141415 554.909090909091,411.87878787878793 554.909090909091,402.3434343434344 554.909090909091,392.80808080808094 554.909090909091,383.27272727272737 554.909090909091,373.73737373737384 554.909090909091,364.2020202020203 554.909090909091,354.66666666666674 554.909090909091,345.1313131313133 554.909090909091,335.5959595959597 554.909090909091,326.06060606060623" fill="none" stroke="rgba(0,0,255,0.75)" stroke-width="14.159999999999995"/></g><g><polyline data-points="0.4545454545454551,1.9696969696969702 0.5555555555555567,2.070707070707072 0.6565656565656574,2.1717171717171726 0.7575757575757579,2.2727272727272734 0.8585858585858596,2.373737373737375 0.9595959595959602,2.4747474747474754 1.0606060606060617,2.575757575757577 1.1616161616161622,2.676767676767678 1.262626262626263,2.7777777777777786 1.3636363636363644,2.87878787878788 1.4646464646464652,2.9797979797979806 1.5656565656565666,3.080808080808082 1.6666666666666674,3.181818181818183 1.767676767676768,3.2828282828282833 1.8686868686868696,3.383838383838384 1.9696969696969702,3.4848484848484866 2.070707070707072,3.5858585858585874 2.1717171717171726,3.6868686868686877 2.2727272727272734,3.7878787878787885 2.373737373737375,3.8888888888888893 2.4747474747474754,3.989898989898992 2.4747474747474754,4.090909090909092 2.4747474747474754,4.191919191919193 2.4747474747474754,4.292929292929293 2.4747474747474754,4.393939393939394 2.4747474747474754,4.494949494949497 2.4747474747474754,4.595959595959597 2.4747474747474754,4.696969696969697 2.4747474747474754,4.7979797979797985 2.4747474747474754,4.898989898989901 2.4747474747474754,5.000000000000002" data-type="line" data-label="" points="554.909090909091,326.06060606060623 564.4444444444446,316.5252525252526 573.979797979798,306.9898989898991 583.5151515151515,297.4545454545456 593.0505050505051,287.91919191919203 602.5858585858587,278.38383838383857 612.1212121212122,268.84848484848493 621.6565656565657,259.3131313131314 631.1919191919192,249.77777777777794 640.7272727272727,240.24242424242436 650.2626262626263,230.70707070707084 659.7979797979798,221.17171717171726 669.3333333333334,211.63636363636374 678.8686868686868,202.10101010101027 688.4040404040404,192.56565656565675 697.9393939393939,183.03030303030312 707.4747474747476,173.4949494949496 717.010101010101,163.95959595959613 726.5454545454545,154.4242424242426 736.0808080808081,144.88888888888908 745.6161616161615,135.35353535353545 745.6161616161615,125.81818181818198 745.6161616161615,116.28282828282846 745.6161616161615,106.747474747475 745.6161616161615,97.21212121212153 745.6161616161615,87.67676767676778 745.6161616161615,78.14141414141432 745.6161616161615,68.60606060606085 745.6161616161615,59.07070707070733 745.6161616161615,49.53535353535369 745.6161616161615,40.000000000000114" fill="none" stroke="rgba(255,0,0,0.75)" stroke-width="14.159999999999995"/></g><g><polyline data-points="4.595959595959597,5.000000000000002 4.494949494949497,4.898989898989901 4.393939393939394,4.7979797979797985 4.292929292929293,4.696969696969697 4.292929292929293,4.595959595959597 4.292929292929293,4.494949494949497 4.292929292929293,4.393939393939394 4.292929292929293,4.292929292929293 4.292929292929293,4.191919191919193 4.292929292929293,4.090909090909092 4.292929292929293,3.989898989898992 4.292929292929293,3.8888888888888893 4.292929292929293,3.7878787878787885 4.292929292929293,3.6868686868686877 4.292929292929293,3.5858585858585874 4.292929292929293,3.4848484848484866 4.292929292929293,3.383838383838384 4.292929292929293,3.2828282828282833 4.292929292929293,3.181818181818183 4.292929292929293,3.080808080808082 4.292929292929293,2.9797979797979806 4.292929292929293,2.87878787878788 4.292929292929293,2.7777777777777786 4.292929292929293,2.676767676767678 4.292929292929293,2.575757575757577 4.292929292929293,2.4747474747474754 4.292929292929293,2.373737373737375 4.292929292929293,2.2727272727272734 4.292929292929293,2.1717171717171726 4.292929292929293,2.070707070707072 4.292929292929293,1.9696969696969702 4.292929292929293,1.8686868686868696 4.292929292929293,1.767676767676768 4.292929292929293,1.6666666666666674 4.292929292929293,1.5656565656565666 4.292929292929293,1.4646464646464652 4.292929292929293,1.3636363636363644 4.292929292929293,1.262626262626263 4.292929292929293,1.1616161616161622 4.292929292929293,1.0606060606060617 4.292929292929293,0.9595959595959602 4.292929292929293,0.8585858585858596 4.292929292929293,0.7575757575757579 4.292929292929293,0.6565656565656574 4.292929292929293,0.5555555555555567 4.292929292929293,0.4545454545454551 4.292929292929293,0.3535353535353544 4.292929292929293,0.2525252525252529 4.292929292929293,0.1515151515151522 4.292929292929293,0.050505050505051545 4.292929292929293,-0.05050505050505001 4.292929292929293,-0.15151515151515066 4.292929292929293,-0.2525252525252522 4.292929292929293,-0.35353535353535287 4.292929292929293,-0.4545454545454544 4.292929292929293,-0.555555555555555 4.292929292929293,-0.6565656565656557 4.292929292929293,-0.7575757575757572 4.292929292929293,-0.8585858585858579 4.292929292929293,-0.9595959595959596 4.292929292929293,-1.0606060606060603 4.292929292929293,-1.1616161616161613 4.292929292929293,-1.2626262626262625 4.292929292929293,-1.363636363636363 4.292929292929293,-1.4646464646464643 4.292929292929293,-1.5656565656565653 4.292929292929293,-1.6666666666666665 4.292929292929293,-1.7676767676767675 4.292929292929293,-1.8686868686868683 4.292929292929293,-1.9696969696969693 4.292929292929293,-2.07070707070707 4.292929292929293,-2.1717171717171713 4.292929292929293,-2.2727272727272725 4.292929292929293,-2.3737373737373733 4.292929292929293,-2.474747474747474 4.292929292929293,-2.5757575757575752 4.292929292929293,-2.6767676767676765 4.292929292929293,-2.7777777777777777 4.292929292929293,-2.8787878787878785 4.292929292929293,-2.9797979797979792 4.292929292929293,-3.0808080808080804 4.292929292929293,-3.1818181818181817 4.292929292929293,-3.2828282828282824 4.292929292929293,-3.383838383838383 4.292929292929293,-3.484848484848485 4.292929292929293,-3.5858585858585856 4.292929292929293,-3.6868686868686864 4.292929292929293,-3.7878787878787876 4.292929292929293,-3.8888888888888884 4.292929292929293,-3.98989898989899 4.292929292929293,-4.090909090909091 4.292929292929293,-4.191919191919193 4.292929292929293,-4.292929292929293 4.292929292929293,-4.393939393939394 4.292929292929293,-4.494949494949496 4.292929292929293,-4.595959595959596 4.292929292929293,-4.696969696969697 4.292929292929293,-4.7979797979797985 4.292929292929293,-4.898989898989899 4.292929292929293,-5.000000000000001" data-type="line" data-label="" points="945.8585858585858,40.000000000000114 936.3232323232323,49.53535353535369 926.7878787878785,59.07070707070733 917.2525252525252,68.60606060606085 917.2525252525252,78.14141414141432 917.2525252525252,87.67676767676778 917.2525252525252,97.21212121212153 917.2525252525252,106.747474747475 917.2525252525252,116.28282828282846 917.2525252525252,125.81818181818198 917.2525252525252,135.35353535353545 917.2525252525252,144.88888888888908 917.2525252525252,154.4242424242426 917.2525252525252,163.95959595959613 917.2525252525252,173.4949494949496 917.2525252525252,183.03030303030312 917.2525252525252,192.56565656565675 917.2525252525252,202.10101010101027 917.2525252525252,211.63636363636374 917.2525252525252,221.17171717171726 917.2525252525252,230.70707070707084 917.2525252525252,240.24242424242436 917.2525252525252,249.77777777777794 917.2525252525252,259.3131313131314 917.2525252525252,268.84848484848493 917.2525252525252,278.38383838383857 917.2525252525252,287.91919191919203 917.2525252525252,297.4545454545456 917.2525252525252,306.9898989898991 917.2525252525252,316.5252525252526 917.2525252525252,326.06060606060623 917.2525252525252,335.5959595959597 917.2525252525252,345.1313131313133 917.2525252525252,354.66666666666674 917.2525252525252,364.2020202020203 917.2525252525252,373.73737373737384 917.2525252525252,383.27272727272737 917.2525252525252,392.80808080808094 917.2525252525252,402.3434343434344 917.2525252525252,411.87878787878793 917.2525252525252,421.4141414141415 917.2525252525252,430.94949494949503 917.2525252525252,440.4848484848486 917.2525252525252,450.0202020202021 917.2525252525252,459.5555555555556 917.2525252525252,469.0909090909092 917.2525252525252,478.6262626262627 917.2525252525252,488.1616161616163 917.2525252525252,497.69696969696975 917.2525252525252,507.23232323232327 917.2525252525252,516.7676767676768 917.2525252525252,526.3030303030304 917.2525252525252,535.838383838384 917.2525252525252,545.3737373737374 917.2525252525252,554.909090909091 917.2525252525252,564.4444444444445 917.2525252525252,573.979797979798 917.2525252525252,583.5151515151516 917.2525252525252,593.0505050505051 917.2525252525252,602.5858585858587 917.2525252525252,612.1212121212121 917.2525252525252,621.6565656565657 917.2525252525252,631.1919191919193 917.2525252525252,640.7272727272727 917.2525252525252,650.2626262626263 917.2525252525252,659.7979797979798 917.2525252525252,669.3333333333334 917.2525252525252,678.8686868686868 917.2525252525252,688.4040404040404 917.2525252525252,697.939393939394 917.2525252525252,707.4747474747475 917.2525252525252,717.010101010101 917.2525252525252,726.5454545454545 917.2525252525252,736.0808080808081 917.2525252525252,745.6161616161615 917.2525252525252,755.1515151515151 917.2525252525252,764.6868686868687 917.2525252525252,774.2222222222222 917.2525252525252,783.7575757575758 917.2525252525252,793.2929292929292 917.2525252525252,802.8282828282828 917.2525252525252,812.3636363636363 917.2525252525252,821.8989898989898 917.2525252525252,831.4343434343434 917.2525252525252,840.969696969697 917.2525252525252,850.5050505050505 917.2525252525252,860.0404040404039 917.2525252525252,869.5757575757575 917.2525252525252,879.1111111111111 917.2525252525252,888.6464646464647 917.2525252525252,898.1818181818181 917.2525252525252,907.7171717171718 917.2525252525252,917.2525252525252 917.2525252525252,926.7878787878788 917.2525252525252,936.3232323232323 917.2525252525252,945.8585858585858 917.2525252525252,955.3939393939394 917.2525252525252,964.9292929292928 917.2525252525252,974.4646464646464 917.2525252525252,984" fill="none" stroke="rgba(0,0,255,0.75)" stroke-width="14.159999999999995"/></g><g><rect data-type="rect" data-label="" data-x="0" data-y="0" x="40.00000000000017" y="40.000000000000284" width="943.9999999999995" height="943.9999999999998" fill="none" stroke="gray" stroke-width="0.010593220338983056"/></g><g><rect data-type="rect" data-label="" data-x="0" data-y="0" x="40.00000000000017" y="40.000000000000284" width="943.9999999999995" height="943.9999999999998" fill="none" stroke="rgba(15, 23, 42, 0.8)" stroke-width="0.010593220338983056"/></g><circle data-type="circle" data-label="" data-x="1.0606060606060617" data-y="-3.98989898989899" cx="612.1212121212122" cy="888.6464646464647" r="28.791999999999987" fill="rgba(0,0,0,0.3)" stroke="black" stroke-width="0.010593220338983056"/><circle data-type="circle" data-label="" data-x="0.4545454545454551" data-y="1.9696969696969702" cx="554.909090909091" cy="326.06060606060623" r="28.791999999999987" fill="rgba(0,0,0,0.3)" stroke="black" stroke-width="0.010593220338983056"/><g id="crosshair" style="display: none"><line id="crosshair-h" y1="0" y2="1024" stroke="#666" stroke-width="0.5"/><line id="crosshair-v" x1="0" x2="1024" stroke="#666" stroke-width="0.5"/><text id="coordinates" font-family="monospace" font-size="12" fill="#666"></text></g><script><![CDATA[
              document.currentScript.parentElement.addEventListener('mousemove', (e) => {
                const svg = e.currentTarget;
                const rect = svg.getBoundingClientRect();
                const x = e.clientX - rect.left;
                const y = e.clientY - rect.top;
                const crosshair = svg.getElementById('crosshair');
                const h = svg.getElementById('crosshair-h');
                const v = svg.getElementById('crosshair-v');
                const coords = svg.getElementById('coordinates');
                
                crosshair.style.display = 'block';
                h.setAttribute('x1', '0');
                h.setAttribute('x2', '1024');
                h.setAttribute('y1', y);
                h.setAttribute('y2', y);
                v.setAttribute('x1', x);
                v.setAttribute('x2', x);
                v.setAttribute('y1', '0');
                v.setAttribute('y2', '1024');

                // Calculate real coordinates using inverse transformation
                const matrix = {"a":94.39999999999996,"c":0,"e":512,"b":0,"d":-94.39999999999996,"f":512.0000000000001};
                // Manually invert and apply the affine transform
                // Since we only use translate and scale, we can directly compute:
                // x' = (x - tx) / sx
                // y' = (y - ty) / sy
                const sx = matrix.a;
                const sy = matrix.d;
                const tx = matrix.e; 
                const ty = matrix.f;
                const realPoint = {
                  x: (x - tx) / sx,
                  y: (y - ty) / sy // Flip y back since we used negative scale
                }
                
                coords.textContent = `(${realPoint.x.toFixed(2)}, ${realPoint.y.toFixed(2)})`;
                coords.setAttribute('x', (x + 5).toString());
                coords.setAttribute('y', (y - 5).toString());
              });
              document.currentScript.parentElement.addEventListener('mouseleave', () => {
                document.currentScript.parentElement.getElementById('crosshair').style.display = 'none';
              });
            ]]></script></svg>