<svg width="1024" height="1024" viewBox="0 0 1024 1024" xmlns="http://www.w3.org/2000/svg"><rect width="100%" height="100%" fill="white"/><g><circle data-type="point" data-label="conn_000" data-x="5" data-y="-1.6400000000000001" cx="983.9999999999998" cy="666.816" r="28.792" fill="red" stroke="#bd490f" stroke-width="28.792"/></g><g><circle data-type="point" data-label="conn_000" data-x="1.62" data-y="5" cx="664.9279999999999" cy="40.000000000000284" r="28.792" fill="blue" stroke="#bd490f" stroke-width="28.792"/></g><g><circle data-type="point" data-label="conn_001" data-x="-5" data-y="-0.7000000000000001" cx="40.000000000000114" cy="578.0800000000002" r="28.792" fill="blue" stroke="#0fbd7c" stroke-width="28.792"/></g><g><circle data-type="point" data-label="conn_001" data-x="5" data-y="-2.44" cx="983.9999999999998" cy="742.336" r="28.792" fill="blue" stroke="#0fbd7c" stroke-width="28.792"/></g><g><circle data-type="point" data-label="conn_002" data-x="0.74" data-y="5" cx="581.8559999999999" cy="40.000000000000284" r="28.792" fill="red" stroke="#ae0fbd" stroke-width="28.792"/></g><g><circle data-type="point" data-label="conn_002" data-x="3.94" data-y="-5" cx="883.9359999999998" cy="984" r="28.792" fill="red" stroke="#ae0fbd" stroke-width="28.792"/></g><g><circle data-type="point" data-label="conn_003" data-x="-3.2" data-y="-5" cx="209.92000000000007" cy="984" r="28.792" fill="red" stroke="#98bd0f" stroke-width="28.792"/></g><g><circle data-type="point" data-label="conn_003" data-x="-0.24" data-y="5" cx="489.34399999999994" cy="40.000000000000284" r="28.792" fill="red" stroke="#98bd0f" stroke-width="28.792"/></g><g><circle data-type="point" data-label="conn_004" data-x="1.92" data-y="-5" cx="693.2479999999998" cy="984" r="28.792" fill="red" stroke="#0f66bd" stroke-width="28.792"/></g><g><circle data-type="point" data-label="conn_004" data-x="-4.92" data-y="5" cx="47.552000000000135" cy="40.000000000000284" r="28.792" fill="red" stroke="#0f66bd" stroke-width="28.792"/></g><g><circle data-type="point" data-label="conn_005" data-x="-1.78" data-y="5" cx="343.968" cy="40.000000000000284" r="28.792" fill="red" stroke="#bd0f33" stroke-width="28.792"/></g><g><circle data-type="point" data-label="conn_005" data-x="-5" data-y="4.22" cx="40.000000000000114" cy="113.63200000000029" r="28.792" fill="blue" stroke="#bd0f33" stroke-width="28.792"/></g><g><circle data-type="point" data-label="conn_006" data-x="-1.86" data-y="-5" cx="336.416" cy="984" r="28.792" fill="blue" stroke="#0fbd1e" stroke-width="28.792"/></g><g><circle data-type="point" data-label="conn_006" data-x="3.46" data-y="5" cx="838.6239999999998" cy="40.000000000000284" r="28.792" fill="blue" stroke="#0fbd1e" stroke-width="28.792"/></g><g><circle data-type="point" data-label="conn_007" data-x="5" data-y="-0.36" cx="983.9999999999998" cy="545.9840000000002" r="28.792" fill="blue" stroke="#510fbd" stroke-width="28.792"/></g><g><circle data-type="point" data-label="conn_007" data-x="-5" data-y="2.32" cx="40.000000000000114" cy="292.9920000000002" r="28.792" fill="blue" stroke="#510fbd" stroke-width="28.792"/></g><g><circle data-type="point" data-label="conn_008" data-x="-5" data-y="-4.4" cx="40.000000000000114" cy="927.3599999999999" r="28.792" fill="blue" stroke="#bd830f" stroke-width="28.792"/></g><g><circle data-type="point" data-label="conn_008" data-x="5" data-y="-3.88" cx="983.9999999999998" cy="878.2719999999999" r="28.792" fill="red" stroke="#bd830f" stroke-width="28.792"/></g><g><circle data-type="point" data-label="conn_009" data-x="-5" data-y="1.26" cx="40.000000000000114" cy="393.05600000000015" r="28.792" fill="red" stroke="#0fbdb6" stroke-width="28.792"/></g><g><circle data-type="point" data-label="conn_009" data-x="5" data-y="2.5" cx="983.9999999999998" cy="276.0000000000002" r="28.792" fill="red" stroke="#0fbdb6" stroke-width="28.792"/></g><g><polyline data-points="5.000000000000002,-1.6666666666666665 4.898989898989901,-1.5656565656565653 4.7979797979797985,-1.4646464646464643 4.696969696969697,-1.363636363636363 4.595959595959597,-1.2626262626262625 4.494949494949497,-1.1616161616161613 4.393939393939394,-1.0606060606060603 4.292929292929293,-0.9595959595959596 4.191919191919193,-0.8585858585858579 4.090909090909092,-0.7575757575757572 3.989898989898992,-0.6565656565656557 3.8888888888888893,-0.555555555555555 3.7878787878787885,-0.4545454545454544 3.6868686868686877,-0.35353535353535287 3.5858585858585874,-0.2525252525252522 3.4848484848484866,-0.15151515151515066 3.383838383838384,-0.05050505050505001 3.2828282828282833,0.050505050505051545 3.181818181818183,0.1515151515151522 3.080808080808082,0.2525252525252529 2.9797979797979806,0.3535353535353544 2.87878787878788,0.4545454545454551 2.7777777777777786,0.5555555555555567 2.676767676767678,0.6565656565656574 2.575757575757577,0.7575757575757579 2.4747474747474754,0.8585858585858596 2.373737373737375,0.9595959595959602 2.2727272727272734,1.0606060606060617 2.1717171717171726,1.1616161616161622 2.070707070707072,1.262626262626263 1.9696969696969702,1.3636363636363644 1.8686868686868696,1.4646464646464652 1.767676767676768,1.5656565656565666 1.6666666666666674,1.6666666666666674 1.6666666666666674,1.767676767676768 1.6666666666666674,1.8686868686868696 1.6666666666666674,1.9696969696969702 1.6666666666666674,2.070707070707072 1.6666666666666674,2.1717171717171726 1.6666666666666674,2.2727272727272734 1.6666666666666674,2.373737373737375 1.6666666666666674,2.4747474747474754 1.6666666666666674,2.575757575757577 1.6666666666666674,2.676767676767678 1.6666666666666674,2.7777777777777786 1.6666666666666674,2.87878787878788 1.6666666666666674,2.9797979797979806 1.6666666666666674,3.080808080808082 1.6666666666666674,3.181818181818183 1.6666666666666674,3.2828282828282833 1.6666666666666674,3.383838383838384 1.6666666666666674,3.4848484848484866 1.6666666666666674,3.5858585858585874 1.6666666666666674,3.6868686868686877 1.6666666666666674,3.7878787878787885 1.6666666666666674,3.8888888888888893 1.6666666666666674,3.989898989898992" data-type="line" data-label="" points="984,669.3333333333334 974.4646464646464,659.7979797979798 964.9292929292927,650.2626262626263 955.3939393939393,640.7272727272727 945.8585858585857,631.1919191919193 936.3232323232323,621.6565656565657 926.7878787878785,612.1212121212121 917.2525252525251,602.5858585858587 907.7171717171716,593.0505050505051 898.181818181818,583.5151515151516 888.6464646464647,573.979797979798 879.111111111111,564.4444444444445 869.5757575757575,554.909090909091 860.0404040404039,545.3737373737374 850.5050505050505,535.838383838384 840.969696969697,526.3030303030304 831.4343434343433,516.7676767676768 821.8989898989898,507.23232323232327 812.3636363636363,497.69696969696975 802.8282828282828,488.1616161616163 793.2929292929292,478.6262626262627 783.7575757575758,469.0909090909092 774.2222222222222,459.5555555555556 764.6868686868686,450.0202020202021 755.1515151515151,440.4848484848486 745.6161616161615,430.94949494949503 736.0808080808081,421.4141414141415 726.5454545454545,411.87878787878793 717.0101010101009,402.3434343434344 707.4747474747475,392.80808080808094 697.9393939393939,383.27272727272737 688.4040404040404,373.73737373737384 678.8686868686868,364.2020202020203 669.3333333333333,354.66666666666674 669.3333333333333,345.1313131313133 669.3333333333333,335.5959595959597 669.3333333333333,326.06060606060623 669.3333333333333,316.5252525252526 669.3333333333333,306.9898989898991 669.3333333333333,297.4545454545456 669.3333333333333,287.91919191919203 669.3333333333333,278.38383838383857 669.3333333333333,268.84848484848493 669.3333333333333,259.3131313131314 669.3333333333333,249.77777777777794 669.3333333333333,240.24242424242436 669.3333333333333,230.70707070707084 669.3333333333333,221.17171717171726 669.3333333333333,211.63636363636374 669.3333333333333,202.10101010101027 669.3333333333333,192.56565656565675 669.3333333333333,183.03030303030312 669.3333333333333,173.4949494949496 669.3333333333333,163.95959595959613 669.3333333333333,154.4242424242426 669.3333333333333,144.88888888888908 669.3333333333333,135.35353535353545" fill="none" stroke="rgba(255,0,0,0.75)" stroke-width="14.159999999999995"/></g><g><polyline data-points="1.6666666666666674,3.989898989898992 1.6666666666666674,4.090909090909092 1.6666666666666674,4.191919191919193 1.6666666666666674,4.292929292929293 1.6666666666666674,4.393939393939394 1.6666666666666674,4.494949494949497 1.6666666666666674,4.595959595959597 1.6666666666666674,4.696969696969697 1.6666666666666674,4.7979797979797985 1.6666666666666674,4.898989898989901 1.6666666666666674,5.000000000000002" data-type="line" data-label="" points="669.3333333333333,135.35353535353545 669.3333333333333,125.81818181818198 669.3333333333333,116.28282828282846 669.3333333333333,106.747474747475 669.3333333333333,97.21212121212153 669.3333333333333,87.67676767676778 669.3333333333333,78.14141414141432 669.3333333333333,68.60606060606085 669.3333333333333,59.07070707070733 669.3333333333333,49.53535353535369 669.3333333333333,40.000000000000114" fill="none" stroke="rgba(0,0,255,0.75)" stroke-width="14.159999999999995"/></g><g><polyline data-points="-5.000000000000001,-4.494949494949496 -4.898989898989899,-4.393939393939394 -4.7979797979797985,-4.292929292929293 -4.696969696969697,-4.191919191919193 -4.595959595959596,-4.090909090909091 -4.494949494949496,-3.98989898989899 -4.393939393939394,-3.8888888888888884 -4.292929292929293,-3.8888888888888884 -4.191919191919193,-3.8888888888888884 -4.090909090909091,-3.8888888888888884 -3.98989898989899,-3.8888888888888884 -3.8888888888888884,-3.8888888888888884 -3.7878787878787876,-3.8888888888888884 -3.6868686868686864,-3.8888888888888884 -3.5858585858585856,-3.8888888888888884 -3.484848484848485,-3.8888888888888884 -3.383838383838383,-3.8888888888888884 -3.2828282828282824,-3.8888888888888884 -3.1818181818181817,-3.8888888888888884 -3.0808080808080804,-3.8888888888888884 -2.9797979797979792,-3.8888888888888884 -2.8787878787878785,-3.8888888888888884 -2.7777777777777777,-3.8888888888888884 -2.6767676767676765,-3.8888888888888884 -2.5757575757575752,-3.8888888888888884 -2.474747474747474,-3.8888888888888884 -2.3737373737373733,-3.8888888888888884 -2.2727272727272725,-3.8888888888888884 -2.1717171717171713,-3.8888888888888884 -2.07070707070707,-3.8888888888888884 -1.9696969696969693,-3.8888888888888884 -1.8686868686868683,-3.8888888888888884 -1.7676767676767675,-3.8888888888888884 -1.6666666666666665,-3.8888888888888884 -1.5656565656565653,-3.8888888888888884 -1.4646464646464643,-3.8888888888888884 -1.363636363636363,-3.8888888888888884 -1.2626262626262625,-3.8888888888888884 -1.1616161616161613,-3.8888888888888884 -1.0606060606060603,-3.8888888888888884 -0.9595959595959596,-3.8888888888888884 -0.8585858585858579,-3.8888888888888884 -0.7575757575757572,-3.8888888888888884 -0.6565656565656557,-3.8888888888888884 -0.555555555555555,-3.8888888888888884 -0.4545454545454544,-3.8888888888888884 -0.35353535353535287,-3.8888888888888884 -0.2525252525252522,-3.8888888888888884 -0.15151515151515066,-3.8888888888888884 -0.05050505050505001,-3.8888888888888884 0.050505050505051545,-3.8888888888888884 0.1515151515151522,-3.8888888888888884 0.2525252525252529,-3.8888888888888884 0.3535353535353544,-3.8888888888888884 0.4545454545454551,-3.8888888888888884 0.5555555555555567,-3.8888888888888884 0.6565656565656574,-3.8888888888888884 0.7575757575757579,-3.8888888888888884 0.8585858585858596,-3.8888888888888884 0.9595959595959602,-3.8888888888888884 1.0606060606060617,-3.8888888888888884 1.1616161616161622,-3.8888888888888884 1.262626262626263,-3.8888888888888884 1.3636363636363644,-3.8888888888888884 1.4646464646464652,-3.8888888888888884 1.5656565656565666,-3.8888888888888884 1.6666666666666674,-3.8888888888888884 1.767676767676768,-3.8888888888888884 1.8686868686868696,-3.8888888888888884 1.9696969696969702,-3.8888888888888884 2.070707070707072,-3.8888888888888884 2.1717171717171726,-3.8888888888888884 2.2727272727272734,-3.8888888888888884 2.373737373737375,-3.8888888888888884 2.4747474747474754,-3.8888888888888884 2.575757575757577,-3.8888888888888884 2.676767676767678,-3.8888888888888884 2.7777777777777786,-3.8888888888888884 2.87878787878788,-3.8888888888888884 2.9797979797979806,-3.8888888888888884 3.080808080808082,-3.8888888888888884 3.181818181818183,-3.8888888888888884 3.2828282828282833,-3.8888888888888884 3.383838383838384,-3.8888888888888884 3.4848484848484866,-3.8888888888888884 3.5858585858585874,-3.8888888888888884 3.6868686868686877,-3.8888888888888884 3.7878787878787885,-3.8888888888888884 3.8888888888888893,-3.8888888888888884 3.989898989898992,-3.8888888888888884" data-type="line" data-label="" points="40.00000000000006,936.3232323232323 49.53535353535369,926.7878787878788 59.07070707070716,917.2525252525252 68.60606060606068,907.7171717171718 78.14141414141426,898.1818181818181 87.67676767676772,888.6464646464647 97.21212121212136,879.1111111111111 106.74747474747483,879.1111111111111 116.28282828282829,879.1111111111111 125.81818181818193,879.1111111111111 135.35353535353545,879.1111111111111 144.88888888888903,879.1111111111111 154.42424242424255,879.1111111111111 163.95959595959607,879.1111111111111 173.4949494949496,879.1111111111111 183.03030303030312,879.1111111111111 192.5656565656567,879.1111111111111 202.10101010101022,879.1111111111111 211.63636363636374,879.1111111111111 221.17171717171726,879.1111111111111 230.70707070707084,879.1111111111111 240.2424242424243,879.1111111111111 249.77777777777783,879.1111111111111 259.3131313131314,879.1111111111111 268.84848484848493,879.1111111111111 278.38383838383845,879.1111111111111 287.91919191919203,879.1111111111111 297.4545454545455,879.1111111111111 306.9898989898991,879.1111111111111 316.5252525252526,879.1111111111111 326.0606060606061,879.1111111111111 335.59595959595964,879.1111111111111 345.13131313131316,879.1111111111111 354.6666666666667,879.1111111111111 364.2020202020202,879.1111111111111 373.7373737373738,879.1111111111111 383.2727272727273,879.1111111111111 392.80808080808083,879.1111111111111 402.34343434343435,879.1111111111111 411.8787878787879,879.1111111111111 421.4141414141414,879.1111111111111 430.949494949495,879.1111111111111 440.4848484848485,879.1111111111111 450.0202020202021,879.1111111111111 459.55555555555554,879.1111111111111 469.09090909090907,879.1111111111111 478.62626262626264,879.1111111111111 488.16161616161617,879.1111111111111 497.69696969696975,879.1111111111111 507.2323232323232,879.1111111111111 516.7676767676768,879.1111111111111 526.3030303030303,879.1111111111111 535.8383838383838,879.1111111111111 545.3737373737374,879.1111111111111 554.9090909090909,879.1111111111111 564.4444444444445,879.1111111111111 573.9797979797979,879.1111111111111 583.5151515151515,879.1111111111111 593.0505050505051,879.1111111111111 602.5858585858585,879.1111111111111 612.1212121212121,879.1111111111111 621.6565656565656,879.1111111111111 631.1919191919192,879.1111111111111 640.7272727272727,879.1111111111111 650.2626262626262,879.1111111111111 659.7979797979798,879.1111111111111 669.3333333333333,879.1111111111111 678.8686868686868,879.1111111111111 688.4040404040404,879.1111111111111 697.9393939393939,879.1111111111111 707.4747474747475,879.1111111111111 717.0101010101009,879.1111111111111 726.5454545454545,879.1111111111111 736.0808080808081,879.1111111111111 745.6161616161615,879.1111111111111 755.1515151515151,879.1111111111111 764.6868686868686,879.1111111111111 774.2222222222222,879.1111111111111 783.7575757575758,879.1111111111111 793.2929292929292,879.1111111111111 802.8282828282828,879.1111111111111 812.3636363636363,879.1111111111111 821.8989898989898,879.1111111111111 831.4343434343433,879.1111111111111 840.969696969697,879.1111111111111 850.5050505050505,879.1111111111111 860.0404040404039,879.1111111111111 869.5757575757575,879.1111111111111 879.111111111111,879.1111111111111 888.6464646464647,879.1111111111111" fill="none" stroke="rgba(0,0,255,0.75)" stroke-width="14.159999999999995"/></g><g><polyline data-points="3.989898989898992,-3.8888888888888884 4.090909090909092,-3.8888888888888884 4.191919191919193,-3.8888888888888884 4.292929292929293,-3.8888888888888884 4.393939393939394,-3.8888888888888884 4.494949494949497,-3.8888888888888884 4.595959595959597,-3.8888888888888884 4.696969696969697,-3.8888888888888884 4.7979797979797985,-3.8888888888888884 4.898989898989901,-3.8888888888888884 5.000000000000002,-3.8888888888888884" data-type="line" data-label="" points="888.6464646464647,879.1111111111111 898.181818181818,879.1111111111111 907.7171717171716,879.1111111111111 917.2525252525251,879.1111111111111 926.7878787878785,879.1111111111111 936.3232323232323,879.1111111111111 945.8585858585857,879.1111111111111 955.3939393939393,879.1111111111111 964.9292929292927,879.1111111111111 974.4646464646464,879.1111111111111 984,879.1111111111111" fill="none" stroke="rgba(255,0,0,0.75)" stroke-width="14.159999999999995"/></g><g><polyline data-points="5.000000000000002,-0.35353535353535287 4.898989898989901,-0.2525252525252522 4.7979797979797985,-0.15151515151515066 4.696969696969697,-0.05050505050505001 4.595959595959597,0.050505050505051545 4.494949494949497,0.1515151515151522 4.393939393939394,0.2525252525252529 4.292929292929293,0.3535353535353544 4.191919191919193,0.4545454545454551 4.090909090909092,0.5555555555555567 3.989898989898992,0.6565656565656574 3.8888888888888893,0.7575757575757579 3.7878787878787885,0.8585858585858596 3.6868686868686877,0.9595959595959602 3.5858585858585874,1.0606060606060617 3.4848484848484866,1.1616161616161622 3.383838383838384,1.262626262626263 3.2828282828282833,1.3636363636363644 3.181818181818183,1.4646464646464652 3.080808080808082,1.5656565656565666 2.9797979797979806,1.6666666666666674 2.87878787878788,1.767676767676768 2.7777777777777786,1.8686868686868696 2.676767676767678,1.9696969696969702 2.575757575757577,2.070707070707072 2.4747474747474754,2.1717171717171726 2.373737373737375,2.2727272727272734 2.2727272727272734,2.373737373737375 2.1717171717171726,2.373737373737375 2.070707070707072,2.373737373737375 1.9696969696969702,2.373737373737375 1.8686868686868696,2.373737373737375 1.767676767676768,2.373737373737375 1.6666666666666674,2.373737373737375 1.5656565656565666,2.373737373737375 1.4646464646464652,2.373737373737375 1.3636363636363644,2.373737373737375 1.262626262626263,2.373737373737375 1.1616161616161622,2.373737373737375 1.0606060606060617,2.373737373737375 0.9595959595959602,2.373737373737375 0.8585858585858596,2.373737373737375 0.7575757575757579,2.373737373737375 0.6565656565656574,2.373737373737375 0.5555555555555567,2.373737373737375 0.4545454545454551,2.373737373737375 0.3535353535353544,2.373737373737375 0.2525252525252529,2.373737373737375 0.1515151515151522,2.373737373737375 0.050505050505051545,2.373737373737375 -0.05050505050505001,2.373737373737375 -0.15151515151515066,2.373737373737375 -0.2525252525252522,2.373737373737375 -0.35353535353535287,2.373737373737375 -0.4545454545454544,2.373737373737375 -0.555555555555555,2.373737373737375 -0.6565656565656557,2.373737373737375 -0.7575757575757572,2.373737373737375 -0.8585858585858579,2.373737373737375 -0.9595959595959596,2.373737373737375 -1.0606060606060603,2.373737373737375 -1.1616161616161613,2.373737373737375 -1.2626262626262625,2.373737373737375 -1.363636363636363,2.373737373737375 -1.4646464646464643,2.373737373737375 -1.5656565656565653,2.373737373737375 -1.6666666666666665,2.373737373737375 -1.7676767676767675,2.373737373737375 -1.8686868686868683,2.373737373737375 -1.9696969696969693,2.373737373737375 -2.07070707070707,2.373737373737375 -2.1717171717171713,2.373737373737375 -2.2727272727272725,2.373737373737375 -2.3737373737373733,2.373737373737375 -2.474747474747474,2.373737373737375 -2.5757575757575752,2.373737373737375 -2.6767676767676765,2.373737373737375 -2.7777777777777777,2.373737373737375 -2.8787878787878785,2.373737373737375 -2.9797979797979792,2.373737373737375 -3.0808080808080804,2.373737373737375 -3.1818181818181817,2.373737373737375 -3.2828282828282824,2.373737373737375 -3.383838383838383,2.373737373737375 -3.484848484848485,2.373737373737375 -3.5858585858585856,2.373737373737375 -3.6868686868686864,2.373737373737375 -3.7878787878787876,2.373737373737375 -3.8888888888888884,2.373737373737375 -3.98989898989899,2.373737373737375 -4.090909090909091,2.373737373737375 -4.191919191919193,2.373737373737375 -4.292929292929293,2.373737373737375 -4.393939393939394,2.373737373737375 -4.494949494949496,2.373737373737375 -4.595959595959596,2.373737373737375 -4.696969696969697,2.373737373737375 -4.7979797979797985,2.373737373737375 -4.898989898989899,2.373737373737375 -5.000000000000001,2.373737373737375" data-type="line" data-label="" points="984,545.3737373737374 974.4646464646464,535.838383838384 964.9292929292927,526.3030303030304 955.3939393939393,516.7676767676768 945.8585858585857,507.23232323232327 936.3232323232323,497.69696969696975 926.7878787878785,488.1616161616163 917.2525252525251,478.6262626262627 907.7171717171716,469.0909090909092 898.181818181818,459.5555555555556 888.6464646464647,450.0202020202021 879.111111111111,440.4848484848486 869.5757575757575,430.94949494949503 860.0404040404039,421.4141414141415 850.5050505050505,411.87878787878793 840.969696969697,402.3434343434344 831.4343434343433,392.80808080808094 821.8989898989898,383.27272727272737 812.3636363636363,373.73737373737384 802.8282828282828,364.2020202020203 793.2929292929292,354.66666666666674 783.7575757575758,345.1313131313133 774.2222222222222,335.5959595959597 764.6868686868686,326.06060606060623 755.1515151515151,316.5252525252526 745.6161616161615,306.9898989898991 736.0808080808081,297.4545454545456 726.5454545454545,287.91919191919203 717.0101010101009,287.91919191919203 707.4747474747475,287.91919191919203 697.9393939393939,287.91919191919203 688.4040404040404,287.91919191919203 678.8686868686868,287.91919191919203 669.3333333333333,287.91919191919203 659.7979797979798,287.91919191919203 650.2626262626262,287.91919191919203 640.7272727272727,287.91919191919203 631.1919191919192,287.91919191919203 621.6565656565656,287.91919191919203 612.1212121212121,287.91919191919203 602.5858585858585,287.91919191919203 593.0505050505051,287.91919191919203 583.5151515151515,287.91919191919203 573.9797979797979,287.91919191919203 564.4444444444445,287.91919191919203 554.9090909090909,287.91919191919203 545.3737373737374,287.91919191919203 535.8383838383838,287.91919191919203 526.3030303030303,287.91919191919203 516.7676767676768,287.91919191919203 507.2323232323232,287.91919191919203 497.69696969696975,287.91919191919203 488.16161616161617,287.91919191919203 478.62626262626264,287.91919191919203 469.09090909090907,287.91919191919203 459.55555555555554,287.91919191919203 450.0202020202021,287.91919191919203 440.4848484848485,287.91919191919203 430.949494949495,287.91919191919203 421.4141414141414,287.91919191919203 411.8787878787879,287.91919191919203 402.34343434343435,287.91919191919203 392.80808080808083,287.91919191919203 383.2727272727273,287.91919191919203 373.7373737373738,287.91919191919203 364.2020202020202,287.91919191919203 354.6666666666667,287.91919191919203 345.13131313131316,287.91919191919203 335.59595959595964,287.91919191919203 326.0606060606061,287.91919191919203 316.5252525252526,287.91919191919203 306.9898989898991,287.91919191919203 297.4545454545455,287.91919191919203 287.91919191919203,287.91919191919203 278.38383838383845,287.91919191919203 268.84848484848493,287.91919191919203 259.3131313131314,287.91919191919203 249.77777777777783,287.91919191919203 240.2424242424243,287.91919191919203 230.70707070707084,287.91919191919203 221.17171717171726,287.91919191919203 211.63636363636374,287.91919191919203 202.10101010101022,287.91919191919203 192.5656565656567,287.91919191919203 183.03030303030312,287.91919191919203 173.4949494949496,287.91919191919203 163.95959595959607,287.91919191919203 154.42424242424255,287.91919191919203 144.88888888888903,287.91919191919203 135.35353535353545,287.91919191919203 125.81818181818193,287.91919191919203 116.28282828282829,287.91919191919203 106.74747474747483,287.91919191919203 97.21212121212136,287.91919191919203 87.67676767676772,287.91919191919203 78.14141414141426,287.91919191919203 68.60606060606068,287.91919191919203 59.07070707070716,287.91919191919203 49.53535353535369,287.91919191919203 40.00000000000006,287.91919191919203" fill="none" stroke="rgba(0,0,255,0.75)" stroke-width="14.159999999999995"/></g><g><polyline data-points="1.9696969696969702,-5.000000000000001 1.8686868686868696,-4.898989898989899 1.767676767676768,-4.7979797979797985 1.6666666666666674,-4.696969696969697 1.5656565656565666,-4.595959595959596 1.4646464646464652,-4.494949494949496 1.3636363636363644,-4.393939393939394 1.262626262626263,-4.292929292929293 1.1616161616161622,-4.191919191919193 1.0606060606060617,-4.090909090909091 0.9595959595959602,-3.98989898989899 0.8585858585858596,-3.8888888888888884 0.7575757575757579,-3.7878787878787876 0.6565656565656574,-3.6868686868686864 0.5555555555555567,-3.5858585858585856 0.4545454545454551,-3.484848484848485 0.3535353535353544,-3.383838383838383 0.2525252525252529,-3.2828282828282824 0.1515151515151522,-3.1818181818181817 0.050505050505051545,-3.0808080808080804 -0.05050505050505001,-2.9797979797979792 -0.15151515151515066,-2.8787878787878785 -0.2525252525252522,-2.7777777777777777 -0.35353535353535287,-2.6767676767676765 -0.4545454545454544,-2.5757575757575752 -0.555555555555555,-2.474747474747474 -0.6565656565656557,-2.3737373737373733 -0.7575757575757572,-2.2727272727272725 -0.8585858585858579,-2.1717171717171713 -0.9595959595959596,-2.07070707070707 -1.0606060606060603,-1.9696969696969693 -1.1616161616161613,-1.8686868686868683 -1.2626262626262625,-1.7676767676767675 -1.363636363636363,-1.6666666666666665 -1.4646464646464643,-1.5656565656565653 -1.5656565656565653,-1.4646464646464643 -1.6666666666666665,-1.363636363636363 -1.7676767676767675,-1.2626262626262625 -1.8686868686868683,-1.1616161616161613 -1.9696969696969693,-1.0606060606060603 -2.07070707070707,-0.9595959595959596 -2.1717171717171713,-0.8585858585858579 -2.2727272727272725,-0.7575757575757572 -2.3737373737373733,-0.6565656565656557 -2.474747474747474,-0.555555555555555 -2.5757575757575752,-0.4545454545454544 -2.6767676767676765,-0.35353535353535287 -2.7777777777777777,-0.2525252525252522 -2.8787878787878785,-0.15151515151515066 -2.9797979797979792,-0.05050505050505001 -3.0808080808080804,0.050505050505051545 -3.1818181818181817,0.1515151515151522 -3.2828282828282824,0.2525252525252529 -3.383838383838383,0.3535353535353544 -3.484848484848485,0.4545454545454551 -3.5858585858585856,0.5555555555555567 -3.6868686868686864,0.6565656565656574 -3.7878787878787876,0.7575757575757579 -3.8888888888888884,0.8585858585858596 -3.98989898989899,0.9595959595959602 -4.090909090909091,1.0606060606060617 -4.191919191919193,1.1616161616161622 -4.292929292929293,1.262626262626263 -4.393939393939394,1.3636363636363644 -4.494949494949496,1.4646464646464652 -4.595959595959596,1.5656565656565666 -4.696969696969697,1.6666666666666674 -4.7979797979797985,1.767676767676768 -4.898989898989899,1.8686868686868696 -5.000000000000001,1.9696969696969702 -5.000000000000001,2.070707070707072 -5.000000000000001,2.1717171717171726 -5.000000000000001,2.2727272727272734 -5.000000000000001,2.373737373737375 -5.000000000000001,2.4747474747474754 -5.000000000000001,2.575757575757577 -5.000000000000001,2.676767676767678 -5.000000000000001,2.7777777777777786 -5.000000000000001,2.87878787878788 -5.000000000000001,2.9797979797979806 -5.000000000000001,3.080808080808082 -5.000000000000001,3.181818181818183 -5.000000000000001,3.2828282828282833 -5.000000000000001,3.383838383838384 -5.000000000000001,3.4848484848484866 -5.000000000000001,3.5858585858585874 -5.000000000000001,3.6868686868686877 -5.000000000000001,3.7878787878787885 -5.000000000000001,3.8888888888888893 -5.000000000000001,3.989898989898992 -5.000000000000001,4.090909090909092 -5.000000000000001,4.191919191919193 -5.000000000000001,4.292929292929293 -5.000000000000001,4.393939393939394 -5.000000000000001,4.494949494949497 -5.000000000000001,4.595959595959597 -5.000000000000001,4.696969696969697 -5.000000000000001,4.7979797979797985 -5.000000000000001,4.898989898989901 -5.000000000000001,5.000000000000002" data-type="line" data-label="" points="697.9393939393939,984 688.4040404040404,974.4646464646464 678.8686868686868,964.9292929292928 669.3333333333333,955.3939393939394 659.7979797979798,945.8585858585858 650.2626262626262,936.3232323232323 640.7272727272727,926.7878787878788 631.1919191919192,917.2525252525252 621.6565656565656,907.7171717171718 612.1212121212121,898.1818181818181 602.5858585858585,888.6464646464647 593.0505050505051,879.1111111111111 583.5151515151515,869.5757575757575 573.9797979797979,860.0404040404039 564.4444444444445,850.5050505050505 554.9090909090909,840.969696969697 545.3737373737374,831.4343434343434 535.8383838383838,821.8989898989898 526.3030303030303,812.3636363636363 516.7676767676768,802.8282828282828 507.2323232323232,793.2929292929292 497.69696969696975,783.7575757575758 488.16161616161617,774.2222222222222 478.62626262626264,764.6868686868687 469.09090909090907,755.1515151515151 459.55555555555554,745.6161616161615 450.0202020202021,736.0808080808081 440.4848484848485,726.5454545454545 430.949494949495,717.010101010101 421.4141414141414,707.4747474747475 411.8787878787879,697.939393939394 402.34343434343435,688.4040404040404 392.80808080808083,678.8686868686868 383.2727272727273,669.3333333333334 373.7373737373738,659.7979797979798 364.2020202020202,650.2626262626263 354.6666666666667,640.7272727272727 345.13131313131316,631.1919191919193 335.59595959595964,621.6565656565657 326.0606060606061,612.1212121212121 316.5252525252526,602.5858585858587 306.9898989898991,593.0505050505051 297.4545454545455,583.5151515151516 287.91919191919203,573.979797979798 278.38383838383845,564.4444444444445 268.84848484848493,554.909090909091 259.3131313131314,545.3737373737374 249.77777777777783,535.838383838384 240.2424242424243,526.3030303030304 230.70707070707084,516.7676767676768 221.17171717171726,507.23232323232327 211.63636363636374,497.69696969696975 202.10101010101022,488.1616161616163 192.5656565656567,478.6262626262627 183.03030303030312,469.0909090909092 173.4949494949496,459.5555555555556 163.95959595959607,450.0202020202021 154.42424242424255,440.4848484848486 144.88888888888903,430.94949494949503 135.35353535353545,421.4141414141415 125.81818181818193,411.87878787878793 116.28282828282829,402.3434343434344 106.74747474747483,392.80808080808094 97.21212121212136,383.27272727272737 87.67676767676772,373.73737373737384 78.14141414141426,364.2020202020203 68.60606060606068,354.66666666666674 59.07070707070716,345.1313131313133 49.53535353535369,335.5959595959597 40.00000000000006,326.06060606060623 40.00000000000006,316.5252525252526 40.00000000000006,306.9898989898991 40.00000000000006,297.4545454545456 40.00000000000006,287.91919191919203 40.00000000000006,278.38383838383857 40.00000000000006,268.84848484848493 40.00000000000006,259.3131313131314 40.00000000000006,249.77777777777794 40.00000000000006,240.24242424242436 40.00000000000006,230.70707070707084 40.00000000000006,221.17171717171726 40.00000000000006,211.63636363636374 40.00000000000006,202.10101010101027 40.00000000000006,192.56565656565675 40.00000000000006,183.03030303030312 40.00000000000006,173.4949494949496 40.00000000000006,163.95959595959613 40.00000000000006,154.4242424242426 40.00000000000006,144.88888888888908 40.00000000000006,135.35353535353545 40.00000000000006,125.81818181818198 40.00000000000006,116.28282828282846 40.00000000000006,106.747474747475 40.00000000000006,97.21212121212153 40.00000000000006,87.67676767676778 40.00000000000006,78.14141414141432 40.00000000000006,68.60606060606085 40.00000000000006,59.07070707070733 40.00000000000006,49.53535353535369 40.00000000000006,40.000000000000114" fill="none" stroke="rgba(255,0,0,0.75)" stroke-width="14.159999999999995"/></g><g><polyline data-points="-3.2828282828282824,-5.000000000000001 -3.1818181818181817,-4.898989898989899 -3.0808080808080804,-4.7979797979797985 -2.9797979797979792,-4.696969696969697 -2.8787878787878785,-4.595959595959596 -2.7777777777777777,-4.494949494949496 -2.6767676767676765,-4.393939393939394 -2.5757575757575752,-4.292929292929293 -2.474747474747474,-4.191919191919193 -2.3737373737373733,-4.090909090909091 -2.2727272727272725,-3.98989898989899 -2.1717171717171713,-3.8888888888888884 -2.07070707070707,-3.7878787878787876 -1.9696969696969693,-3.6868686868686864 -1.8686868686868683,-3.5858585858585856 -1.7676767676767675,-3.484848484848485 -1.6666666666666665,-3.383838383838383 -1.5656565656565653,-3.2828282828282824 -1.4646464646464643,-3.1818181818181817 -1.363636363636363,-3.0808080808080804 -1.2626262626262625,-2.9797979797979792 -1.1616161616161613,-2.8787878787878785 -1.0606060606060603,-2.7777777777777777" data-type="line" data-label="" points="202.10101010101022,984 211.63636363636374,974.4646464646464 221.17171717171726,964.9292929292928 230.70707070707084,955.3939393939394 240.2424242424243,945.8585858585858 249.77777777777783,936.3232323232323 259.3131313131314,926.7878787878788 268.84848484848493,917.2525252525252 278.38383838383845,907.7171717171718 287.91919191919203,898.1818181818181 297.4545454545455,888.6464646464647 306.9898989898991,879.1111111111111 316.5252525252526,869.5757575757575 326.0606060606061,860.0404040404039 335.59595959595964,850.5050505050505 345.13131313131316,840.969696969697 354.6666666666667,831.4343434343434 364.2020202020202,821.8989898989898 373.7373737373738,812.3636363636363 383.2727272727273,802.8282828282828 392.80808080808083,793.2929292929292 402.34343434343435,783.7575757575758 411.8787878787879,774.2222222222222" fill="none" stroke="rgba(255,0,0,0.75)" stroke-width="14.159999999999995"/></g><g><polyline data-points="-1.0606060606060603,-2.7777777777777777 -0.9595959595959596,-2.6767676767676765 -0.8585858585858579,-2.5757575757575752 -0.7575757575757572,-2.474747474747474 -0.6565656565656557,-2.3737373737373733 -0.555555555555555,-2.2727272727272725 -0.4545454545454544,-2.1717171717171713 -0.35353535353535287,-2.07070707070707 -0.2525252525252522,-1.9696969696969693 -0.2525252525252522,-1.8686868686868683 -0.2525252525252522,-1.7676767676767675 -0.2525252525252522,-1.6666666666666665 -0.2525252525252522,-1.5656565656565653 -0.2525252525252522,-1.4646464646464643 -0.2525252525252522,-1.363636363636363 -0.2525252525252522,-1.2626262626262625 -0.2525252525252522,-1.1616161616161613 -0.2525252525252522,-1.0606060606060603 -0.2525252525252522,-0.9595959595959596 -0.2525252525252522,-0.8585858585858579 -0.2525252525252522,-0.7575757575757572 -0.2525252525252522,-0.6565656565656557 -0.2525252525252522,-0.555555555555555 -0.2525252525252522,-0.4545454545454544 -0.2525252525252522,-0.35353535353535287 -0.2525252525252522,-0.2525252525252522 -0.2525252525252522,-0.15151515151515066 -0.2525252525252522,-0.05050505050505001 -0.2525252525252522,0.050505050505051545 -0.2525252525252522,0.1515151515151522 -0.2525252525252522,0.2525252525252529 -0.2525252525252522,0.3535353535353544 -0.2525252525252522,0.4545454545454551 -0.2525252525252522,0.5555555555555567 -0.2525252525252522,0.6565656565656574 -0.2525252525252522,0.7575757575757579 -0.2525252525252522,0.8585858585858596 -0.2525252525252522,0.9595959595959602 -0.2525252525252522,1.0606060606060617 -0.2525252525252522,1.1616161616161622 -0.2525252525252522,1.262626262626263 -0.2525252525252522,1.3636363636363644 -0.2525252525252522,1.4646464646464652 -0.2525252525252522,1.5656565656565666 -0.2525252525252522,1.6666666666666674 -0.2525252525252522,1.767676767676768" data-type="line" data-label="" points="411.8787878787879,774.2222222222222 421.4141414141414,764.6868686868687 430.949494949495,755.1515151515151 440.4848484848485,745.6161616161615 450.0202020202021,736.0808080808081 459.55555555555554,726.5454545454545 469.09090909090907,717.010101010101 478.62626262626264,707.4747474747475 488.16161616161617,697.939393939394 488.16161616161617,688.4040404040404 488.16161616161617,678.8686868686868 488.16161616161617,669.3333333333334 488.16161616161617,659.7979797979798 488.16161616161617,650.2626262626263 488.16161616161617,640.7272727272727 488.16161616161617,631.1919191919193 488.16161616161617,621.6565656565657 488.16161616161617,612.1212121212121 488.16161616161617,602.5858585858587 488.16161616161617,593.0505050505051 488.16161616161617,583.5151515151516 488.16161616161617,573.979797979798 488.16161616161617,564.4444444444445 488.16161616161617,554.909090909091 488.16161616161617,545.3737373737374 488.16161616161617,535.838383838384 488.16161616161617,526.3030303030304 488.16161616161617,516.7676767676768 488.16161616161617,507.23232323232327 488.16161616161617,497.69696969696975 488.16161616161617,488.1616161616163 488.16161616161617,478.6262626262627 488.16161616161617,469.0909090909092 488.16161616161617,459.5555555555556 488.16161616161617,450.0202020202021 488.16161616161617,440.4848484848486 488.16161616161617,430.94949494949503 488.16161616161617,421.4141414141415 488.16161616161617,411.87878787878793 488.16161616161617,402.3434343434344 488.16161616161617,392.80808080808094 488.16161616161617,383.27272727272737 488.16161616161617,373.73737373737384 488.16161616161617,364.2020202020203 488.16161616161617,354.66666666666674 488.16161616161617,345.1313131313133" fill="none" stroke="rgba(0,0,255,0.75)" stroke-width="14.159999999999995"/></g><g><polyline data-points="-0.2525252525252522,1.767676767676768 -0.2525252525252522,1.8686868686868696 -0.2525252525252522,1.9696969696969702 -0.2525252525252522,2.070707070707072 -0.2525252525252522,2.1717171717171726 -0.2525252525252522,2.2727272727272734 -0.2525252525252522,2.373737373737375 -0.2525252525252522,2.4747474747474754 -0.2525252525252522,2.575757575757577 -0.2525252525252522,2.676767676767678 -0.2525252525252522,2.7777777777777786 -0.2525252525252522,2.87878787878788 -0.2525252525252522,2.9797979797979806 -0.2525252525252522,3.080808080808082 -0.2525252525252522,3.181818181818183 -0.2525252525252522,3.2828282828282833 -0.2525252525252522,3.383838383838384 -0.2525252525252522,3.4848484848484866 -0.2525252525252522,3.5858585858585874 -0.2525252525252522,3.6868686868686877 -0.2525252525252522,3.7878787878787885 -0.2525252525252522,3.8888888888888893 -0.2525252525252522,3.989898989898992 -0.2525252525252522,4.090909090909092 -0.2525252525252522,4.191919191919193 -0.2525252525252522,4.292929292929293 -0.2525252525252522,4.393939393939394 -0.2525252525252522,4.494949494949497 -0.2525252525252522,4.595959595959597 -0.2525252525252522,4.696969696969697 -0.2525252525252522,4.7979797979797985 -0.2525252525252522,4.898989898989901 -0.2525252525252522,5.000000000000002" data-type="line" data-label="" points="488.16161616161617,345.1313131313133 488.16161616161617,335.5959595959597 488.16161616161617,326.06060606060623 488.16161616161617,316.5252525252526 488.16161616161617,306.9898989898991 488.16161616161617,297.4545454545456 488.16161616161617,287.91919191919203 488.16161616161617,278.38383838383857 488.16161616161617,268.84848484848493 488.16161616161617,259.3131313131314 488.16161616161617,249.77777777777794 488.16161616161617,240.24242424242436 488.16161616161617,230.70707070707084 488.16161616161617,221.17171717171726 488.16161616161617,211.63636363636374 488.16161616161617,202.10101010101027 488.16161616161617,192.56565656565675 488.16161616161617,183.03030303030312 488.16161616161617,173.4949494949496 488.16161616161617,163.95959595959613 488.16161616161617,154.4242424242426 488.16161616161617,144.88888888888908 488.16161616161617,135.35353535353545 488.16161616161617,125.81818181818198 488.16161616161617,116.28282828282846 488.16161616161617,106.747474747475 488.16161616161617,97.21212121212153 488.16161616161617,87.67676767676778 488.16161616161617,78.14141414141432 488.16161616161617,68.60606060606085 488.16161616161617,59.07070707070733 488.16161616161617,49.53535353535369 488.16161616161617,40.000000000000114" fill="none" stroke="rgba(255,0,0,0.75)" stroke-width="14.159999999999995"/></g><g><polyline data-points="0.7575757575757579,5.000000000000002 0.8585858585858596,4.898989898989901 0.9595959595959602,4.7979797979797985 1.0606060606060617,4.696969696969697 1.1616161616161622,4.595959595959597 1.1616161616161622,4.494949494949497 1.1616161616161622,4.393939393939394 1.1616161616161622,4.292929292929293 1.1616161616161622,4.191919191919193 1.1616161616161622,4.090909090909092 1.1616161616161622,3.989898989898992 1.262626262626263,3.8888888888888893 1.262626262626263,3.7878787878787885 1.3636363636363644,3.6868686868686877 1.4646464646464652,3.5858585858585874 1.4646464646464652,3.4848484848484866 1.4646464646464652,3.383838383838384 1.4646464646464652,3.2828282828282833 1.4646464646464652,3.181818181818183 1.4646464646464652,3.080808080808082 1.4646464646464652,2.9797979797979806 1.4646464646464652,2.87878787878788 1.4646464646464652,2.7777777777777786 1.4646464646464652,2.676767676767678 1.4646464646464652,2.575757575757577 1.4646464646464652,2.4747474747474754 1.4646464646464652,2.373737373737375 1.4646464646464652,2.2727272727272734 1.4646464646464652,2.1717171717171726 1.4646464646464652,2.070707070707072 1.4646464646464652,1.9696969696969702 1.4646464646464652,1.8686868686868696 1.4646464646464652,1.767676767676768 1.4646464646464652,1.6666666666666674 1.4646464646464652,1.5656565656565666 1.5656565656565666,1.4646464646464652 1.6666666666666674,1.3636363636363644 1.767676767676768,1.262626262626263 1.8686868686868696,1.1616161616161622 1.9696969696969702,1.0606060606060617 2.070707070707072,0.9595959595959602 2.1717171717171726,0.8585858585858596 2.2727272727272734,0.7575757575757579 2.373737373737375,0.6565656565656574 2.4747474747474754,0.5555555555555567 2.575757575757577,0.4545454545454551 2.676767676767678,0.3535353535353544 2.7777777777777786,0.2525252525252529 2.87878787878788,0.1515151515151522 2.9797979797979806,0.050505050505051545 3.080808080808082,-0.05050505050505001 3.181818181818183,-0.15151515151515066 3.2828282828282833,-0.2525252525252522 3.383838383838384,-0.35353535353535287 3.4848484848484866,-0.4545454545454544 3.4848484848484866,-0.555555555555555 3.4848484848484866,-0.6565656565656557 3.4848484848484866,-0.7575757575757572 3.4848484848484866,-0.8585858585858579 3.4848484848484866,-0.9595959595959596 3.4848484848484866,-1.0606060606060603 3.4848484848484866,-1.1616161616161613 3.4848484848484866,-1.2626262626262625 3.4848484848484866,-1.363636363636363 3.4848484848484866,-1.4646464646464643 3.4848484848484866,-1.5656565656565653 3.4848484848484866,-1.6666666666666665 3.4848484848484866,-1.7676767676767675 3.4848484848484866,-1.8686868686868683 3.4848484848484866,-1.9696969696969693 3.4848484848484866,-2.07070707070707 3.4848484848484866,-2.1717171717171713 3.4848484848484866,-2.2727272727272725 3.4848484848484866,-2.3737373737373733 3.4848484848484866,-2.474747474747474 3.4848484848484866,-2.5757575757575752 3.4848484848484866,-2.6767676767676765 3.4848484848484866,-2.7777777777777777 3.4848484848484866,-2.8787878787878785 3.4848484848484866,-2.9797979797979792 3.4848484848484866,-3.0808080808080804 3.4848484848484866,-3.1818181818181817 3.4848484848484866,-3.2828282828282824 3.4848484848484866,-3.383838383838383 3.4848484848484866,-3.484848484848485 3.4848484848484866,-3.5858585858585856 3.4848484848484866,-3.6868686868686864 3.4848484848484866,-3.7878787878787876 3.4848484848484866,-3.8888888888888884 3.5858585858585874,-3.98989898989899 3.5858585858585874,-4.090909090909091 3.6868686868686877,-4.191919191919193 3.7878787878787885,-4.292929292929293 3.8888888888888893,-4.393939393939394 3.989898989898992,-4.494949494949496 3.989898989898992,-4.595959595959596 3.989898989898992,-4.696969696969697 3.989898989898992,-4.7979797979797985 3.989898989898992,-4.898989898989899 3.989898989898992,-5.000000000000001" data-type="line" data-label="" points="583.5151515151515,40.000000000000114 593.0505050505051,49.53535353535369 602.5858585858585,59.07070707070733 612.1212121212121,68.60606060606085 621.6565656565656,78.14141414141432 621.6565656565656,87.67676767676778 621.6565656565656,97.21212121212153 621.6565656565656,106.747474747475 621.6565656565656,116.28282828282846 621.6565656565656,125.81818181818198 621.6565656565656,135.35353535353545 631.1919191919192,144.88888888888908 631.1919191919192,154.4242424242426 640.7272727272727,163.95959595959613 650.2626262626262,173.4949494949496 650.2626262626262,183.03030303030312 650.2626262626262,192.56565656565675 650.2626262626262,202.10101010101027 650.2626262626262,211.63636363636374 650.2626262626262,221.17171717171726 650.2626262626262,230.70707070707084 650.2626262626262,240.24242424242436 650.2626262626262,249.77777777777794 650.2626262626262,259.3131313131314 650.2626262626262,268.84848484848493 650.2626262626262,278.38383838383857 650.2626262626262,287.91919191919203 650.2626262626262,297.4545454545456 650.2626262626262,306.9898989898991 650.2626262626262,316.5252525252526 650.2626262626262,326.06060606060623 650.2626262626262,335.5959595959597 650.2626262626262,345.1313131313133 650.2626262626262,354.66666666666674 650.2626262626262,364.2020202020203 659.7979797979798,373.73737373737384 669.3333333333333,383.27272727272737 678.8686868686868,392.80808080808094 688.4040404040404,402.3434343434344 697.9393939393939,411.87878787878793 707.4747474747475,421.4141414141415 717.0101010101009,430.94949494949503 726.5454545454545,440.4848484848486 736.0808080808081,450.0202020202021 745.6161616161615,459.5555555555556 755.1515151515151,469.0909090909092 764.6868686868686,478.6262626262627 774.2222222222222,488.1616161616163 783.7575757575758,497.69696969696975 793.2929292929292,507.23232323232327 802.8282828282828,516.7676767676768 812.3636363636363,526.3030303030304 821.8989898989898,535.838383838384 831.4343434343433,545.3737373737374 840.969696969697,554.909090909091 840.969696969697,564.4444444444445 840.969696969697,573.979797979798 840.969696969697,583.5151515151516 840.969696969697,593.0505050505051 840.969696969697,602.5858585858587 840.969696969697,612.1212121212121 840.969696969697,621.6565656565657 840.969696969697,631.1919191919193 840.969696969697,640.7272727272727 840.969696969697,650.2626262626263 840.969696969697,659.7979797979798 840.969696969697,669.3333333333334 840.969696969697,678.8686868686868 840.969696969697,688.4040404040404 840.969696969697,697.939393939394 840.969696969697,707.4747474747475 840.969696969697,717.010101010101 840.969696969697,726.5454545454545 840.969696969697,736.0808080808081 840.969696969697,745.6161616161615 840.969696969697,755.1515151515151 840.969696969697,764.6868686868687 840.969696969697,774.2222222222222 840.969696969697,783.7575757575758 840.969696969697,793.2929292929292 840.969696969697,802.8282828282828 840.969696969697,812.3636363636363 840.969696969697,821.8989898989898 840.969696969697,831.4343434343434 840.969696969697,840.969696969697 840.969696969697,850.5050505050505 840.969696969697,860.0404040404039 840.969696969697,869.5757575757575 840.969696969697,879.1111111111111 850.5050505050505,888.6464646464647 850.5050505050505,898.1818181818181 860.0404040404039,907.7171717171718 869.5757575757575,917.2525252525252 879.111111111111,926.7878787878788 888.6464646464647,936.3232323232323 888.6464646464647,945.8585858585858 888.6464646464647,955.3939393939394 888.6464646464647,964.9292929292928 888.6464646464647,974.4646464646464 888.6464646464647,984" fill="none" stroke="rgba(255,0,0,0.75)" stroke-width="14.159999999999995"/></g><g><polyline data-points="-5.000000000000001,1.262626262626263 -4.898989898989899,1.1616161616161622 -4.7979797979797985,1.0606060606060617 -4.696969696969697,0.9595959595959602 -4.595959595959596,0.8585858585858596 -4.494949494949496,0.7575757575757579 -4.393939393939394,0.6565656565656574 -4.292929292929293,0.5555555555555567 -4.191919191919193,0.4545454545454551 -4.090909090909091,0.3535353535353544 -3.98989898989899,0.2525252525252529 -3.98989898989899,0.1515151515151522" data-type="line" data-label="" points="40.00000000000006,392.80808080808094 49.53535353535369,402.3434343434344 59.07070707070716,411.87878787878793 68.60606060606068,421.4141414141415 78.14141414141426,430.94949494949503 87.67676767676772,440.4848484848486 97.21212121212136,450.0202020202021 106.74747474747483,459.5555555555556 116.28282828282829,469.0909090909092 125.81818181818193,478.6262626262627 135.35353535353545,488.1616161616163 135.35353535353545,497.69696969696975" fill="none" stroke="rgba(255,0,0,0.75)" stroke-width="14.159999999999995"/></g><g><polyline data-points="-3.98989898989899,0.1515151515151522 -3.8888888888888884,0.2525252525252529 -3.7878787878787876,0.3535353535353544 -3.6868686868686864,0.4545454545454551 -3.5858585858585856,0.5555555555555567 -3.484848484848485,0.6565656565656574 -3.383838383838383,0.7575757575757579 -3.2828282828282824,0.8585858585858596 -3.1818181818181817,0.9595959595959602 -3.0808080808080804,1.0606060606060617 -2.9797979797979792,1.1616161616161622 -2.8787878787878785,1.262626262626263 -2.7777777777777777,1.3636363636363644 -2.6767676767676765,1.4646464646464652 -2.5757575757575752,1.5656565656565666 -2.474747474747474,1.6666666666666674 -2.3737373737373733,1.767676767676768" data-type="line" data-label="" points="135.35353535353545,497.69696969696975 144.88888888888903,488.1616161616163 154.42424242424255,478.6262626262627 163.95959595959607,469.0909090909092 173.4949494949496,459.5555555555556 183.03030303030312,450.0202020202021 192.5656565656567,440.4848484848486 202.10101010101022,430.94949494949503 211.63636363636374,421.4141414141415 221.17171717171726,411.87878787878793 230.70707070707084,402.3434343434344 240.2424242424243,392.80808080808094 249.77777777777783,383.27272727272737 259.3131313131314,373.73737373737384 268.84848484848493,364.2020202020203 278.38383838383845,354.66666666666674 287.91919191919203,345.1313131313133" fill="none" stroke="rgba(0,0,255,0.75)" stroke-width="14.159999999999995"/></g><g><polyline data-points="-2.3737373737373733,1.767676767676768 -2.2727272727272725,1.8686868686868696 -2.1717171717171713,1.9696969696969702 -2.07070707070707,2.070707070707072 -1.9696969696969693,2.1717171717171726 -1.8686868686868683,2.2727272727272734 -1.8686868686868683,2.373737373737375 -1.8686868686868683,2.4747474747474754 -1.8686868686868683,2.575757575757577 -1.7676767676767675,2.676767676767678 -1.6666666666666665,2.676767676767678 -1.5656565656565653,2.676767676767678 -1.4646464646464643,2.676767676767678 -1.363636363636363,2.676767676767678 -1.2626262626262625,2.676767676767678 -1.1616161616161613,2.676767676767678 -1.0606060606060603,2.7777777777777786 -0.9595959595959596,2.87878787878788 -0.8585858585858579,2.9797979797979806" data-type="line" data-label="" points="287.91919191919203,345.1313131313133 297.4545454545455,335.5959595959597 306.9898989898991,326.06060606060623 316.5252525252526,316.5252525252526 326.0606060606061,306.9898989898991 335.59595959595964,297.4545454545456 335.59595959595964,287.91919191919203 335.59595959595964,278.38383838383857 335.59595959595964,268.84848484848493 345.13131313131316,259.3131313131314 354.6666666666667,259.3131313131314 364.2020202020202,259.3131313131314 373.7373737373738,259.3131313131314 383.2727272727273,259.3131313131314 392.80808080808083,259.3131313131314 402.34343434343435,259.3131313131314 411.8787878787879,249.77777777777794 421.4141414141414,240.24242424242436 430.949494949495,230.70707070707084" fill="none" stroke="rgba(255,0,0,0.75)" stroke-width="14.159999999999995"/></g><g><polyline data-points="-0.8585858585858579,2.9797979797979806 -0.7575757575757572,2.87878787878788 -0.6565656565656557,2.7777777777777786 -0.555555555555555,2.676767676767678 -0.4545454545454544,2.575757575757577 -0.35353535353535287,2.575757575757577 -0.2525252525252522,2.575757575757577 -0.15151515151515066,2.575757575757577 -0.05050505050505001,2.575757575757577 0.050505050505051545,2.575757575757577 0.1515151515151522,2.575757575757577 0.2525252525252529,2.575757575757577 0.3535353535353544,2.575757575757577 0.4545454545454551,2.575757575757577 0.5555555555555567,2.575757575757577 0.6565656565656574,2.575757575757577 0.7575757575757579,2.575757575757577 0.8585858585858596,2.575757575757577 0.9595959595959602,2.575757575757577 1.0606060606060617,2.575757575757577 1.1616161616161622,2.575757575757577 1.262626262626263,2.575757575757577 1.3636363636363644,2.575757575757577 1.4646464646464652,2.575757575757577 1.5656565656565666,2.575757575757577 1.6666666666666674,2.575757575757577 1.767676767676768,2.575757575757577 1.8686868686868696,2.575757575757577 1.9696969696969702,2.575757575757577 2.070707070707072,2.575757575757577 2.1717171717171726,2.575757575757577 2.2727272727272734,2.575757575757577 2.373737373737375,2.575757575757577 2.4747474747474754,2.575757575757577 2.575757575757577,2.575757575757577 2.676767676767678,2.575757575757577 2.7777777777777786,2.575757575757577 2.87878787878788,2.575757575757577 2.9797979797979806,2.575757575757577 3.080808080808082,2.575757575757577 3.181818181818183,2.575757575757577 3.2828282828282833,2.575757575757577 3.383838383838384,2.575757575757577 3.4848484848484866,2.575757575757577 3.5858585858585874,2.575757575757577 3.6868686868686877,2.575757575757577 3.7878787878787885,2.575757575757577 3.8888888888888893,2.575757575757577 3.989898989898992,2.575757575757577" data-type="line" data-label="" points="430.949494949495,230.70707070707084 440.4848484848485,240.24242424242436 450.0202020202021,249.77777777777794 459.55555555555554,259.3131313131314 469.09090909090907,268.84848484848493 478.62626262626264,268.84848484848493 488.16161616161617,268.84848484848493 497.69696969696975,268.84848484848493 507.2323232323232,268.84848484848493 516.7676767676768,268.84848484848493 526.3030303030303,268.84848484848493 535.8383838383838,268.84848484848493 545.3737373737374,268.84848484848493 554.9090909090909,268.84848484848493 564.4444444444445,268.84848484848493 573.9797979797979,268.84848484848493 583.5151515151515,268.84848484848493 593.0505050505051,268.84848484848493 602.5858585858585,268.84848484848493 612.1212121212121,268.84848484848493 621.6565656565656,268.84848484848493 631.1919191919192,268.84848484848493 640.7272727272727,268.84848484848493 650.2626262626262,268.84848484848493 659.7979797979798,268.84848484848493 669.3333333333333,268.84848484848493 678.8686868686868,268.84848484848493 688.4040404040404,268.84848484848493 697.9393939393939,268.84848484848493 707.4747474747475,268.84848484848493 717.0101010101009,268.84848484848493 726.5454545454545,268.84848484848493 736.0808080808081,268.84848484848493 745.6161616161615,268.84848484848493 755.1515151515151,268.84848484848493 764.6868686868686,268.84848484848493 774.2222222222222,268.84848484848493 783.7575757575758,268.84848484848493 793.2929292929292,268.84848484848493 802.8282828282828,268.84848484848493 812.3636363636363,268.84848484848493 821.8989898989898,268.84848484848493 831.4343434343433,268.84848484848493 840.969696969697,268.84848484848493 850.5050505050505,268.84848484848493 860.0404040404039,268.84848484848493 869.5757575757575,268.84848484848493 879.111111111111,268.84848484848493 888.6464646464647,268.84848484848493" fill="none" stroke="rgba(0,0,255,0.75)" stroke-width="14.159999999999995"/></g><g><polyline data-points="3.989898989898992,2.575757575757577 4.090909090909092,2.575757575757577 4.191919191919193,2.575757575757577 4.292929292929293,2.575757575757577 4.393939393939394,2.575757575757577 4.494949494949497,2.575757575757577 4.595959595959597,2.575757575757577 4.696969696969697,2.575757575757577 4.7979797979797985,2.575757575757577 4.898989898989901,2.575757575757577 5.000000000000002,2.575757575757577" data-type="line" data-label="" points="888.6464646464647,268.84848484848493 898.181818181818,268.84848484848493 907.7171717171716,268.84848484848493 917.2525252525251,268.84848484848493 926.7878787878785,268.84848484848493 936.3232323232323,268.84848484848493 945.8585858585857,268.84848484848493 955.3939393939393,268.84848484848493 964.9292929292927,268.84848484848493 974.4646464646464,268.84848484848493 984,268.84848484848493" fill="none" stroke="rgba(255,0,0,0.75)" stroke-width="14.159999999999995"/></g><g><polyline data-points="-1.8686868686868683,-5.000000000000001 -1.7676767676767675,-4.898989898989899 -1.6666666666666665,-4.7979797979797985 -1.5656565656565653,-4.696969696969697 -1.4646464646464643,-4.595959595959596 -1.363636363636363,-4.494949494949496 -1.2626262626262625,-4.393939393939394 -1.1616161616161613,-4.393939393939394 -1.0606060606060603,-4.393939393939394 -0.9595959595959596,-4.393939393939394 -0.8585858585858579,-4.393939393939394 -0.7575757575757572,-4.393939393939394 -0.6565656565656557,-4.393939393939394 -0.555555555555555,-4.393939393939394 -0.4545454545454544,-4.393939393939394 -0.35353535353535287,-4.393939393939394 -0.2525252525252522,-4.393939393939394 -0.15151515151515066,-4.393939393939394 -0.05050505050505001,-4.393939393939394 0.050505050505051545,-4.393939393939394 0.1515151515151522,-4.393939393939394 0.2525252525252529,-4.393939393939394 0.3535353535353544,-4.393939393939394 0.4545454545454551,-4.393939393939394 0.5555555555555567,-4.393939393939394 0.6565656565656574,-4.393939393939394 0.7575757575757579,-4.393939393939394 0.8585858585858596,-4.393939393939394 0.9595959595959602,-4.393939393939394 1.0606060606060617,-4.393939393939394 1.1616161616161622,-4.393939393939394 1.262626262626263,-4.393939393939394 1.3636363636363644,-4.393939393939394 1.4646464646464652,-4.393939393939394 1.5656565656565666,-4.393939393939394 1.6666666666666674,-4.393939393939394 1.767676767676768,-4.393939393939394 1.8686868686868696,-4.393939393939394 1.9696969696969702,-4.393939393939394 2.070707070707072,-4.393939393939394 2.1717171717171726,-4.393939393939394 2.2727272727272734,-4.393939393939394 2.373737373737375,-4.393939393939394 2.4747474747474754,-4.393939393939394 2.575757575757577,-4.393939393939394 2.676767676767678,-4.393939393939394 2.7777777777777786,-4.393939393939394 2.87878787878788,-4.393939393939394 2.9797979797979806,-4.393939393939394 3.080808080808082,-4.393939393939394 3.181818181818183,-4.393939393939394 3.2828282828282833,-4.393939393939394 3.383838383838384,-4.393939393939394 3.4848484848484866,-4.393939393939394 3.5858585858585874,-4.393939393939394 3.6868686868686877,-4.393939393939394 3.7878787878787885,-4.393939393939394 3.8888888888888893,-4.393939393939394 3.989898989898992,-4.393939393939394 4.090909090909092,-4.292929292929293 4.191919191919193,-4.292929292929293 4.292929292929293,-4.191919191919193 4.393939393939394,-4.090909090909091 4.393939393939394,-3.98989898989899 4.494949494949497,-3.8888888888888884 4.393939393939394,-3.7878787878787876 4.393939393939394,-3.6868686868686864 4.292929292929293,-3.5858585858585856 4.191919191919193,-3.484848484848485 4.090909090909092,-3.383838383838383 3.989898989898992,-3.2828282828282824 3.8888888888888893,-3.1818181818181817 3.7878787878787885,-3.0808080808080804 3.6868686868686877,-2.9797979797979792 3.5858585858585874,-2.8787878787878785 3.4848484848484866,-2.7777777777777777 3.4848484848484866,-2.6767676767676765 3.4848484848484866,-2.5757575757575752 3.4848484848484866,-2.474747474747474 3.4848484848484866,-2.3737373737373733 3.4848484848484866,-2.2727272727272725 3.4848484848484866,-2.1717171717171713 3.4848484848484866,-2.07070707070707 3.4848484848484866,-1.9696969696969693 3.4848484848484866,-1.8686868686868683 3.4848484848484866,-1.7676767676767675 3.4848484848484866,-1.6666666666666665 3.4848484848484866,-1.5656565656565653 3.4848484848484866,-1.4646464646464643 3.4848484848484866,-1.363636363636363 3.4848484848484866,-1.2626262626262625 3.383838383838384,-1.1616161616161613 3.2828282828282833,-1.0606060606060603 3.181818181818183,-0.9595959595959596 3.080808080808082,-0.8585858585858579 2.9797979797979806,-0.7575757575757572 2.87878787878788,-0.6565656565656557" data-type="line" data-label="" points="335.59595959595964,984 345.13131313131316,974.4646464646464 354.6666666666667,964.9292929292928 364.2020202020202,955.3939393939394 373.7373737373738,945.8585858585858 383.2727272727273,936.3232323232323 392.80808080808083,926.7878787878788 402.34343434343435,926.7878787878788 411.8787878787879,926.7878787878788 421.4141414141414,926.7878787878788 430.949494949495,926.7878787878788 440.4848484848485,926.7878787878788 450.0202020202021,926.7878787878788 459.55555555555554,926.7878787878788 469.09090909090907,926.7878787878788 478.62626262626264,926.7878787878788 488.16161616161617,926.7878787878788 497.69696969696975,926.7878787878788 507.2323232323232,926.7878787878788 516.7676767676768,926.7878787878788 526.3030303030303,926.7878787878788 535.8383838383838,926.7878787878788 545.3737373737374,926.7878787878788 554.9090909090909,926.7878787878788 564.4444444444445,926.7878787878788 573.9797979797979,926.7878787878788 583.5151515151515,926.7878787878788 593.0505050505051,926.7878787878788 602.5858585858585,926.7878787878788 612.1212121212121,926.7878787878788 621.6565656565656,926.7878787878788 631.1919191919192,926.7878787878788 640.7272727272727,926.7878787878788 650.2626262626262,926.7878787878788 659.7979797979798,926.7878787878788 669.3333333333333,926.7878787878788 678.8686868686868,926.7878787878788 688.4040404040404,926.7878787878788 697.9393939393939,926.7878787878788 707.4747474747475,926.7878787878788 717.0101010101009,926.7878787878788 726.5454545454545,926.7878787878788 736.0808080808081,926.7878787878788 745.6161616161615,926.7878787878788 755.1515151515151,926.7878787878788 764.6868686868686,926.7878787878788 774.2222222222222,926.7878787878788 783.7575757575758,926.7878787878788 793.2929292929292,926.7878787878788 802.8282828282828,926.7878787878788 812.3636363636363,926.7878787878788 821.8989898989898,926.7878787878788 831.4343434343433,926.7878787878788 840.969696969697,926.7878787878788 850.5050505050505,926.7878787878788 860.0404040404039,926.7878787878788 869.5757575757575,926.7878787878788 879.111111111111,926.7878787878788 888.6464646464647,926.7878787878788 898.181818181818,917.2525252525252 907.7171717171716,917.2525252525252 917.2525252525251,907.7171717171718 926.7878787878785,898.1818181818181 926.7878787878785,888.6464646464647 936.3232323232323,879.1111111111111 926.7878787878785,869.5757575757575 926.7878787878785,860.0404040404039 917.2525252525251,850.5050505050505 907.7171717171716,840.969696969697 898.181818181818,831.4343434343434 888.6464646464647,821.8989898989898 879.111111111111,812.3636363636363 869.5757575757575,802.8282828282828 860.0404040404039,793.2929292929292 850.5050505050505,783.7575757575758 840.969696969697,774.2222222222222 840.969696969697,764.6868686868687 840.969696969697,755.1515151515151 840.969696969697,745.6161616161615 840.969696969697,736.0808080808081 840.969696969697,726.5454545454545 840.969696969697,717.010101010101 840.969696969697,707.4747474747475 840.969696969697,697.939393939394 840.969696969697,688.4040404040404 840.969696969697,678.8686868686868 840.969696969697,669.3333333333334 840.969696969697,659.7979797979798 840.969696969697,650.2626262626263 840.969696969697,640.7272727272727 840.969696969697,631.1919191919193 831.4343434343433,621.6565656565657 821.8989898989898,612.1212121212121 812.3636363636363,602.5858585858587 802.8282828282828,593.0505050505051 793.2929292929292,583.5151515151516 783.7575757575758,573.979797979798" fill="none" stroke="rgba(0,0,255,0.75)" stroke-width="14.159999999999995"/></g><g><polyline data-points="2.87878787878788,-0.6565656565656557 2.87878787878788,-0.555555555555555 2.87878787878788,-0.4545454545454544 2.87878787878788,-0.35353535353535287 2.87878787878788,-0.2525252525252522 2.87878787878788,-0.15151515151515066 2.7777777777777786,-0.05050505050505001 2.676767676767678,0.050505050505051545 2.575757575757577,0.1515151515151522 2.4747474747474754,0.2525252525252529 2.373737373737375,0.3535353535353544 2.2727272727272734,0.4545454545454551 2.1717171717171726,0.5555555555555567 2.070707070707072,0.6565656565656574 1.9696969696969702,0.7575757575757579 1.8686868686868696,0.8585858585858596 1.767676767676768,0.9595959595959602 1.6666666666666674,1.0606060606060617 1.5656565656565666,1.1616161616161622 1.4646464646464652,1.262626262626263 1.3636363636363644,1.3636363636363644 1.262626262626263,1.4646464646464652 1.262626262626263,1.5656565656565666 1.262626262626263,1.6666666666666674 1.262626262626263,1.767676767676768 1.262626262626263,1.8686868686868696 1.262626262626263,1.9696969696969702 1.262626262626263,2.070707070707072 1.262626262626263,2.1717171717171726 1.262626262626263,2.2727272727272734 1.262626262626263,2.373737373737375 1.262626262626263,2.4747474747474754 1.262626262626263,2.575757575757577 1.262626262626263,2.676767676767678 1.262626262626263,2.7777777777777786 1.1616161616161622,2.87878787878788 1.0606060606060617,2.9797979797979806 0.9595959595959602,3.080808080808082 0.8585858585858596,3.181818181818183" data-type="line" data-label="" points="783.7575757575758,573.979797979798 783.7575757575758,564.4444444444445 783.7575757575758,554.909090909091 783.7575757575758,545.3737373737374 783.7575757575758,535.838383838384 783.7575757575758,526.3030303030304 774.2222222222222,516.7676767676768 764.6868686868686,507.23232323232327 755.1515151515151,497.69696969696975 745.6161616161615,488.1616161616163 736.0808080808081,478.6262626262627 726.5454545454545,469.0909090909092 717.0101010101009,459.5555555555556 707.4747474747475,450.0202020202021 697.9393939393939,440.4848484848486 688.4040404040404,430.94949494949503 678.8686868686868,421.4141414141415 669.3333333333333,411.87878787878793 659.7979797979798,402.3434343434344 650.2626262626262,392.80808080808094 640.7272727272727,383.27272727272737 631.1919191919192,373.73737373737384 631.1919191919192,364.2020202020203 631.1919191919192,354.66666666666674 631.1919191919192,345.1313131313133 631.1919191919192,335.5959595959597 631.1919191919192,326.06060606060623 631.1919191919192,316.5252525252526 631.1919191919192,306.9898989898991 631.1919191919192,297.4545454545456 631.1919191919192,287.91919191919203 631.1919191919192,278.38383838383857 631.1919191919192,268.84848484848493 631.1919191919192,259.3131313131314 631.1919191919192,249.77777777777794 621.6565656565656,240.24242424242436 612.1212121212121,230.70707070707084 602.5858585858585,221.17171717171726 593.0505050505051,211.63636363636374" fill="none" stroke="rgba(255,0,0,0.75)" stroke-width="14.159999999999995"/></g><g><polyline data-points="0.8585858585858596,3.181818181818183 0.9595959595959602,3.2828282828282833 1.0606060606060617,3.383838383838384 1.1616161616161622,3.4848484848484866 1.262626262626263,3.4848484848484866 1.3636363636363644,3.4848484848484866 1.4646464646464652,3.4848484848484866 1.5656565656565666,3.4848484848484866 1.6666666666666674,3.4848484848484866 1.767676767676768,3.5858585858585874 1.8686868686868696,3.5858585858585874 1.9696969696969702,3.6868686868686877 2.070707070707072,3.7878787878787885 2.1717171717171726,3.8888888888888893 2.2727272727272734,3.989898989898992 2.373737373737375,4.090909090909092 2.4747474747474754,4.191919191919193 2.575757575757577,4.292929292929293 2.676767676767678,4.393939393939394 2.7777777777777786,4.494949494949497 2.87878787878788,4.595959595959597 2.9797979797979806,4.696969696969697 3.080808080808082,4.7979797979797985 3.181818181818183,4.898989898989901 3.2828282828282833,5.000000000000002 3.383838383838384,5.000000000000002 3.4848484848484866,5.000000000000002" data-type="line" data-label="" points="593.0505050505051,211.63636363636374 602.5858585858585,202.10101010101027 612.1212121212121,192.56565656565675 621.6565656565656,183.03030303030312 631.1919191919192,183.03030303030312 640.7272727272727,183.03030303030312 650.2626262626262,183.03030303030312 659.7979797979798,183.03030303030312 669.3333333333333,183.03030303030312 678.8686868686868,173.4949494949496 688.4040404040404,173.4949494949496 697.9393939393939,163.95959595959613 707.4747474747475,154.4242424242426 717.0101010101009,144.88888888888908 726.5454545454545,135.35353535353545 736.0808080808081,125.81818181818198 745.6161616161615,116.28282828282846 755.1515151515151,106.747474747475 764.6868686868686,97.21212121212153 774.2222222222222,87.67676767676778 783.7575757575758,78.14141414141432 793.2929292929292,68.60606060606085 802.8282828282828,59.07070707070733 812.3636363636363,49.53535353535369 821.8989898989898,40.000000000000114 831.4343434343433,40.000000000000114 840.969696969697,40.000000000000114" fill="none" stroke="rgba(0,0,255,0.75)" stroke-width="14.159999999999995"/></g><g><polyline data-points="-5.000000000000001,-0.7575757575757572 -4.898989898989899,-0.7575757575757572 -4.7979797979797985,-0.7575757575757572 -4.696969696969697,-0.7575757575757572 -4.595959595959596,-0.7575757575757572 -4.494949494949496,-0.7575757575757572 -4.393939393939394,-0.7575757575757572 -4.292929292929293,-0.7575757575757572 -4.191919191919193,-0.7575757575757572 -4.090909090909091,-0.7575757575757572 -3.98989898989899,-0.7575757575757572 -3.8888888888888884,-0.7575757575757572 -3.7878787878787876,-0.7575757575757572 -3.6868686868686864,-0.7575757575757572 -3.5858585858585856,-0.7575757575757572 -3.484848484848485,-0.7575757575757572 -3.383838383838383,-0.7575757575757572 -3.2828282828282824,-0.7575757575757572 -3.1818181818181817,-0.7575757575757572 -3.0808080808080804,-0.7575757575757572 -2.9797979797979792,-0.7575757575757572 -2.8787878787878785,-0.7575757575757572 -2.7777777777777777,-0.7575757575757572 -2.6767676767676765,-0.7575757575757572 -2.5757575757575752,-0.7575757575757572 -2.474747474747474,-0.7575757575757572 -2.3737373737373733,-0.7575757575757572 -2.2727272727272725,-0.7575757575757572 -2.1717171717171713,-0.7575757575757572 -2.07070707070707,-0.7575757575757572 -1.9696969696969693,-0.7575757575757572 -1.8686868686868683,-0.7575757575757572 -1.7676767676767675,-0.7575757575757572 -1.6666666666666665,-0.7575757575757572 -1.5656565656565653,-0.7575757575757572 -1.4646464646464643,-0.7575757575757572 -1.363636363636363,-0.7575757575757572 -1.2626262626262625,-0.7575757575757572 -1.1616161616161613,-0.7575757575757572 -1.0606060606060603,-0.7575757575757572 -0.9595959595959596,-0.7575757575757572 -0.8585858585858579,-0.7575757575757572" data-type="line" data-label="" points="40.00000000000006,583.5151515151516 49.53535353535369,583.5151515151516 59.07070707070716,583.5151515151516 68.60606060606068,583.5151515151516 78.14141414141426,583.5151515151516 87.67676767676772,583.5151515151516 97.21212121212136,583.5151515151516 106.74747474747483,583.5151515151516 116.28282828282829,583.5151515151516 125.81818181818193,583.5151515151516 135.35353535353545,583.5151515151516 144.88888888888903,583.5151515151516 154.42424242424255,583.5151515151516 163.95959595959607,583.5151515151516 173.4949494949496,583.5151515151516 183.03030303030312,583.5151515151516 192.5656565656567,583.5151515151516 202.10101010101022,583.5151515151516 211.63636363636374,583.5151515151516 221.17171717171726,583.5151515151516 230.70707070707084,583.5151515151516 240.2424242424243,583.5151515151516 249.77777777777783,583.5151515151516 259.3131313131314,583.5151515151516 268.84848484848493,583.5151515151516 278.38383838383845,583.5151515151516 287.91919191919203,583.5151515151516 297.4545454545455,583.5151515151516 306.9898989898991,583.5151515151516 316.5252525252526,583.5151515151516 326.0606060606061,583.5151515151516 335.59595959595964,583.5151515151516 345.13131313131316,583.5151515151516 354.6666666666667,583.5151515151516 364.2020202020202,583.5151515151516 373.7373737373738,583.5151515151516 383.2727272727273,583.5151515151516 392.80808080808083,583.5151515151516 402.34343434343435,583.5151515151516 411.8787878787879,583.5151515151516 421.4141414141414,583.5151515151516 430.949494949495,583.5151515151516" fill="none" stroke="rgba(0,0,255,0.75)" stroke-width="14.159999999999995"/></g><g><polyline data-points="-0.8585858585858579,-0.7575757575757572 -0.7575757575757572,-0.7575757575757572 -0.6565656565656557,-0.7575757575757572 -0.555555555555555,-0.7575757575757572 -0.4545454545454544,-0.7575757575757572 -0.35353535353535287,-0.7575757575757572 -0.2525252525252522,-0.7575757575757572 -0.15151515151515066,-0.7575757575757572 -0.05050505050505001,-0.7575757575757572 0.050505050505051545,-0.7575757575757572 0.1515151515151522,-0.7575757575757572 0.2525252525252529,-0.7575757575757572 0.3535353535353544,-0.7575757575757572 0.4545454545454551,-0.7575757575757572 0.5555555555555567,-0.7575757575757572 0.6565656565656574,-0.7575757575757572 0.7575757575757579,-0.7575757575757572 0.8585858585858596,-0.7575757575757572 0.9595959595959602,-0.7575757575757572 1.0606060606060617,-0.7575757575757572 1.1616161616161622,-0.7575757575757572 1.262626262626263,-0.7575757575757572 1.3636363636363644,-0.7575757575757572 1.4646464646464652,-0.7575757575757572 1.5656565656565666,-0.7575757575757572 1.6666666666666674,-0.7575757575757572 1.767676767676768,-0.7575757575757572 1.8686868686868696,-0.7575757575757572 1.9696969696969702,-0.7575757575757572 2.070707070707072,-0.7575757575757572" data-type="line" data-label="" points="430.949494949495,583.5151515151516 440.4848484848485,583.5151515151516 450.0202020202021,583.5151515151516 459.55555555555554,583.5151515151516 469.09090909090907,583.5151515151516 478.62626262626264,583.5151515151516 488.16161616161617,583.5151515151516 497.69696969696975,583.5151515151516 507.2323232323232,583.5151515151516 516.7676767676768,583.5151515151516 526.3030303030303,583.5151515151516 535.8383838383838,583.5151515151516 545.3737373737374,583.5151515151516 554.9090909090909,583.5151515151516 564.4444444444445,583.5151515151516 573.9797979797979,583.5151515151516 583.5151515151515,583.5151515151516 593.0505050505051,583.5151515151516 602.5858585858585,583.5151515151516 612.1212121212121,583.5151515151516 621.6565656565656,583.5151515151516 631.1919191919192,583.5151515151516 640.7272727272727,583.5151515151516 650.2626262626262,583.5151515151516 659.7979797979798,583.5151515151516 669.3333333333333,583.5151515151516 678.8686868686868,583.5151515151516 688.4040404040404,583.5151515151516 697.9393939393939,583.5151515151516 707.4747474747475,583.5151515151516" fill="none" stroke="rgba(255,0,0,0.75)" stroke-width="14.159999999999995"/></g><g><polyline data-points="2.070707070707072,-0.7575757575757572 2.1717171717171726,-0.7575757575757572 2.2727272727272734,-0.6565656565656557 2.373737373737375,-0.555555555555555 2.4747474747474754,-0.4545454545454544 2.575757575757577,-0.35353535353535287 2.676767676767678,-0.2525252525252522 2.7777777777777786,-0.2525252525252522 2.87878787878788,-0.15151515151515066 2.9797979797979806,-0.2525252525252522 3.080808080808082,-0.2525252525252522 3.181818181818183,-0.35353535353535287 3.2828282828282833,-0.4545454545454544 3.383838383838384,-0.555555555555555 3.4848484848484866,-0.6565656565656557 3.5858585858585874,-0.7575757575757572 3.6868686868686877,-0.8585858585858579 3.7878787878787885,-0.9595959595959596 3.8888888888888893,-1.0606060606060603 3.989898989898992,-1.1616161616161613 4.090909090909092,-1.2626262626262625 4.191919191919193,-1.363636363636363 4.292929292929293,-1.4646464646464643 4.393939393939394,-1.5656565656565653 4.494949494949497,-1.6666666666666665 4.595959595959597,-1.7676767676767675 4.696969696969697,-1.8686868686868683 4.7979797979797985,-1.9696969696969693 4.898989898989901,-2.07070707070707 5.000000000000002,-2.1717171717171713 5.000000000000002,-2.2727272727272725 5.000000000000002,-2.3737373737373733 5.000000000000002,-2.474747474747474" data-type="line" data-label="" points="707.4747474747475,583.5151515151516 717.0101010101009,583.5151515151516 726.5454545454545,573.979797979798 736.0808080808081,564.4444444444445 745.6161616161615,554.909090909091 755.1515151515151,545.3737373737374 764.6868686868686,535.838383838384 774.2222222222222,535.838383838384 783.7575757575758,526.3030303030304 793.2929292929292,535.838383838384 802.8282828282828,535.838383838384 812.3636363636363,545.3737373737374 821.8989898989898,554.909090909091 831.4343434343433,564.4444444444445 840.969696969697,573.979797979798 850.5050505050505,583.5151515151516 860.0404040404039,593.0505050505051 869.5757575757575,602.5858585858587 879.111111111111,612.1212121212121 888.6464646464647,621.6565656565657 898.181818181818,631.1919191919193 907.7171717171716,640.7272727272727 917.2525252525251,650.2626262626263 926.7878787878785,659.7979797979798 936.3232323232323,669.3333333333334 945.8585858585857,678.8686868686868 955.3939393939393,688.4040404040404 964.9292929292927,697.939393939394 974.4646464646464,707.4747474747475 984,717.010101010101 984,726.5454545454545 984,736.0808080808081 984,745.6161616161615" fill="none" stroke="rgba(0,0,255,0.75)" stroke-width="14.159999999999995"/></g><g><polyline data-points="-1.7676767676767675,5.000000000000002 -1.8686868686868683,4.898989898989901 -1.9696969696969693,4.7979797979797985 -2.07070707070707,4.696969696969697 -2.1717171717171713,4.595959595959597 -2.2727272727272725,4.494949494949497 -2.3737373737373733,4.393939393939394 -2.474747474747474,4.292929292929293 -2.5757575757575752,4.191919191919193 -2.6767676767676765,4.090909090909092 -2.7777777777777777,3.989898989898992" data-type="line" data-label="" points="345.13131313131316,40.000000000000114 335.59595959595964,49.53535353535369 326.0606060606061,59.07070707070733 316.5252525252526,68.60606060606085 306.9898989898991,78.14141414141432 297.4545454545455,87.67676767676778 287.91919191919203,97.21212121212153 278.38383838383845,106.747474747475 268.84848484848493,116.28282828282846 259.3131313131314,125.81818181818198 249.77777777777783,135.35353535353545" fill="none" stroke="rgba(255,0,0,0.75)" stroke-width="14.159999999999995"/></g><g><polyline data-points="-2.7777777777777777,3.989898989898992 -2.8787878787878785,4.090909090909092 -2.9797979797979792,4.191919191919193 -3.0808080808080804,4.292929292929293 -3.1818181818181817,4.292929292929293 -3.2828282828282824,4.292929292929293 -3.383838383838383,4.292929292929293 -3.484848484848485,4.292929292929293 -3.5858585858585856,4.292929292929293 -3.6868686868686864,4.292929292929293 -3.7878787878787876,4.292929292929293 -3.8888888888888884,4.292929292929293 -3.98989898989899,4.292929292929293 -4.090909090909091,4.292929292929293 -4.191919191919193,4.292929292929293 -4.292929292929293,4.292929292929293 -4.393939393939394,4.292929292929293 -4.494949494949496,4.292929292929293 -4.595959595959596,4.292929292929293 -4.696969696969697,4.292929292929293 -4.7979797979797985,4.292929292929293 -4.898989898989899,4.292929292929293 -5.000000000000001,4.292929292929293" data-type="line" data-label="" points="249.77777777777783,135.35353535353545 240.2424242424243,125.81818181818198 230.70707070707084,116.28282828282846 221.17171717171726,106.747474747475 211.63636363636374,106.747474747475 202.10101010101022,106.747474747475 192.5656565656567,106.747474747475 183.03030303030312,106.747474747475 173.4949494949496,106.747474747475 163.95959595959607,106.747474747475 154.42424242424255,106.747474747475 144.88888888888903,106.747474747475 135.35353535353545,106.747474747475 125.81818181818193,106.747474747475 116.28282828282829,106.747474747475 106.74747474747483,106.747474747475 97.21212121212136,106.747474747475 87.67676767676772,106.747474747475 78.14141414141426,106.747474747475 68.60606060606068,106.747474747475 59.07070707070716,106.747474747475 49.53535353535369,106.747474747475 40.00000000000006,106.747474747475" fill="none" stroke="rgba(0,0,255,0.75)" stroke-width="14.159999999999995"/></g><g><rect data-type="rect" data-label="" data-x="0" data-y="0" x="40.000000000000114" y="40.000000000000284" width="943.9999999999997" height="943.9999999999998" fill="none" stroke="gray" stroke-width="0.010593220338983056"/></g><g><rect data-type="rect" data-label="" data-x="0" data-y="0" x="40.000000000000114" y="40.000000000000284" width="943.9999999999997" height="943.9999999999998" fill="none" stroke="rgba(15, 23, 42, 0.8)" stroke-width="0.010593220338983056"/></g><circle data-type="circle" data-label="" data-x="1.6666666666666674" data-y="3.989898989898992" cx="669.3333333333333" cy="135.35353535353545" r="28.791999999999987" fill="rgba(0,0,0,0.3)" stroke="black" stroke-width="0.010593220338983056"/><circle data-type="circle" data-label="" data-x="3.989898989898992" data-y="-3.8888888888888884" cx="888.6464646464647" cy="879.1111111111111" r="28.791999999999987" fill="rgba(0,0,0,0.3)" stroke="black" stroke-width="0.010593220338983056"/><circle data-type="circle" data-label="" data-x="-1.0606060606060603" data-y="-2.7777777777777777" cx="411.8787878787879" cy="774.2222222222222" r="28.791999999999987" fill="rgba(0,0,0,0.3)" stroke="black" stroke-width="0.010593220338983056"/><circle data-type="circle" data-label="" data-x="-0.2525252525252522" data-y="1.767676767676768" cx="488.16161616161617" cy="345.1313131313133" r="28.791999999999987" fill="rgba(0,0,0,0.3)" stroke="black" stroke-width="0.010593220338983056"/><circle data-type="circle" data-label="" data-x="-3.98989898989899" data-y="0.1515151515151522" cx="135.35353535353545" cy="497.69696969696975" r="28.791999999999987" fill="rgba(0,0,0,0.3)" stroke="black" stroke-width="0.010593220338983056"/><circle data-type="circle" data-label="" data-x="-2.3737373737373733" data-y="1.767676767676768" cx="287.91919191919203" cy="345.1313131313133" r="28.791999999999987" fill="rgba(0,0,0,0.3)" stroke="black" stroke-width="0.010593220338983056"/><circle data-type="circle" data-label="" data-x="-0.8585858585858579" data-y="2.9797979797979806" cx="430.949494949495" cy="230.70707070707084" r="28.791999999999987" fill="rgba(0,0,0,0.3)" stroke="black" stroke-width="0.010593220338983056"/><circle data-type="circle" data-label="" data-x="3.989898989898992" data-y="2.575757575757577" cx="888.6464646464647" cy="268.84848484848493" r="28.791999999999987" fill="rgba(0,0,0,0.3)" stroke="black" stroke-width="0.010593220338983056"/><circle data-type="circle" data-label="" data-x="2.87878787878788" data-y="-0.6565656565656557" cx="783.7575757575758" cy="573.979797979798" r="28.791999999999987" fill="rgba(0,0,0,0.3)" stroke="black" stroke-width="0.010593220338983056"/><circle data-type="circle" data-label="" data-x="0.8585858585858596" data-y="3.181818181818183" cx="593.0505050505051" cy="211.63636363636374" r="28.791999999999987" fill="rgba(0,0,0,0.3)" stroke="black" stroke-width="0.010593220338983056"/><circle data-type="circle" data-label="" data-x="-0.8585858585858579" data-y="-0.7575757575757572" cx="430.949494949495" cy="583.5151515151516" r="28.791999999999987" fill="rgba(0,0,0,0.3)" stroke="black" stroke-width="0.010593220338983056"/><circle data-type="circle" data-label="" data-x="2.070707070707072" data-y="-0.7575757575757572" cx="707.4747474747475" cy="583.5151515151516" r="28.791999999999987" fill="rgba(0,0,0,0.3)" stroke="black" stroke-width="0.010593220338983056"/><circle data-type="circle" data-label="" data-x="-2.7777777777777777" data-y="3.989898989898992" cx="249.77777777777783" cy="135.35353535353545" r="28.791999999999987" fill="rgba(0,0,0,0.3)" stroke="black" stroke-width="0.010593220338983056"/><g id="crosshair" style="display: none"><line id="crosshair-h" y1="0" y2="1024" stroke="#666" stroke-width="0.5"/><line id="crosshair-v" x1="0" x2="1024" stroke="#666" stroke-width="0.5"/><text id="coordinates" font-family="monospace" font-size="12" fill="#666"></text></g><script><![CDATA[
              document.currentScript.parentElement.addEventListener('mousemove', (e) => {
                const svg = e.currentTarget;
                const rect = svg.getBoundingClientRect();
                const x = e.clientX - rect.left;
                const y = e.clientY - rect.top;
                const crosshair = svg.getElementById('crosshair');
                const h = svg.getElementById('crosshair-h');
                const v = svg.getElementById('crosshair-v');
                const coords = svg.getElementById('coordinates');
                
                crosshair.style.display = 'block';
                h.setAttribute('x1', '0');
                h.setAttribute('x2', '1024');
                h.setAttribute('y1', y);
                h.setAttribute('y2', y);
                v.setAttribute('x1', x);
                v.setAttribute('x2', x);
                v.setAttribute('y1', '0');
                v.setAttribute('y2', '1024');

                // Calculate real coordinates using inverse transformation
                const matrix = {"a":94.39999999999996,"c":0,"e":511.99999999999994,"b":0,"d":-94.39999999999996,"f":512.0000000000001};
                // Manually invert and apply the affine transform
                // Since we only use translate and scale, we can directly compute:
                // x' = (x - tx) / sx
                // y' = (y - ty) / sy
                const sx = matrix.a;
                const sy = matrix.d;
                const tx = matrix.e; 
                const ty = matrix.f;
                const realPoint = {
                  x: (x - tx) / sx,
                  y: (y - ty) / sy // Flip y back since we used negative scale
                }
                
                coords.textContent = `(${realPoint.x.toFixed(2)}, ${realPoint.y.toFixed(2)})`;
                coords.setAttribute('x', (x + 5).toString());
                coords.setAttribute('y', (y - 5).toString());
              });
              document.currentScript.parentElement.addEventListener('mouseleave', () => {
                document.currentScript.parentElement.getElementById('crosshair').style.display = 'none';
              });
            ]]></script></svg>