<svg width="1024" height="1024" viewBox="0 0 1024 1024" xmlns="http://www.w3.org/2000/svg"><rect width="100%" height="100%" fill="white"/><g><circle data-type="point" data-label="conn_000" data-x="-2.94" data-y="-5" cx="234.46400000000006" cy="984" r="28.792" fill="blue" stroke="#bd0f6d" stroke-width="28.792"/></g><g><circle data-type="point" data-label="conn_000" data-x="-4" data-y="5" cx="134.4000000000001" cy="40.000000000000284" r="28.792" fill="blue" stroke="#bd0f6d" stroke-width="28.792"/></g><g><circle data-type="point" data-label="conn_001" data-x="2.06" data-y="-5" cx="706.4639999999999" cy="984" r="28.792" fill="red" stroke="#3bbd0f" stroke-width="28.792"/></g><g><circle data-type="point" data-label="conn_001" data-x="-1.42" data-y="5" cx="377.952" cy="40.000000000000284" r="28.792" fill="blue" stroke="#3bbd0f" stroke-width="28.792"/></g><g><circle data-type="point" data-label="conn_002" data-x="-2.46" data-y="5" cx="279.77600000000007" cy="40.000000000000284" r="28.792" fill="blue" stroke="#170fbd" stroke-width="28.792"/></g><g><circle data-type="point" data-label="conn_002" data-x="-1.4000000000000001" data-y="-5" cx="379.84" cy="984" r="28.792" fill="blue" stroke="#170fbd" stroke-width="28.792"/></g><g><circle data-type="point" data-label="conn_003" data-x="5" data-y="3.84" cx="983.9999999999998" cy="149.50400000000025" r="28.792" fill="red" stroke="#bd490f" stroke-width="28.792"/></g><g><circle data-type="point" data-label="conn_003" data-x="-5" data-y="-2.3000000000000003" cx="40.000000000000114" cy="729.1200000000001" r="28.792" fill="red" stroke="#bd490f" stroke-width="28.792"/></g><g><circle data-type="point" data-label="conn_004" data-x="0.24" data-y="5" cx="534.656" cy="40.000000000000284" r="28.792" fill="blue" stroke="#0fbd7c" stroke-width="28.792"/></g><g><circle data-type="point" data-label="conn_004" data-x="-4.32" data-y="-5" cx="104.19200000000006" cy="984" r="28.792" fill="red" stroke="#0fbd7c" stroke-width="28.792"/></g><g><circle data-type="point" data-label="conn_005" data-x="-4.74" data-y="5" cx="64.5440000000001" cy="40.000000000000284" r="28.792" fill="red" stroke="#ae0fbd" stroke-width="28.792"/></g><g><circle data-type="point" data-label="conn_005" data-x="1.26" data-y="-5" cx="630.944" cy="984" r="28.792" fill="blue" stroke="#ae0fbd" stroke-width="28.792"/></g><g><circle data-type="point" data-label="conn_006" data-x="4.88" data-y="5" cx="972.6719999999998" cy="40.000000000000284" r="28.792" fill="red" stroke="#98bd0f" stroke-width="28.792"/></g><g><circle data-type="point" data-label="conn_006" data-x="3.3200000000000003" data-y="5" cx="825.4079999999999" cy="40.000000000000284" r="28.792" fill="blue" stroke="#98bd0f" stroke-width="28.792"/></g><g><polyline data-points="-4.7979797979797985,5.000000000000002 -4.696969696969697,4.898989898989901 -4.595959595959596,4.7979797979797985 -4.494949494949496,4.696969696969697 -4.393939393939394,4.595959595959597 -4.292929292929293,4.494949494949497 -4.191919191919193,4.393939393939394 -4.090909090909091,4.292929292929293 -3.98989898989899,4.191919191919193 -3.8888888888888884,4.090909090909092 -3.7878787878787876,3.989898989898992 -3.6868686868686864,3.8888888888888893 -3.5858585858585856,3.7878787878787885 -3.484848484848485,3.6868686868686877 -3.383838383838383,3.5858585858585874 -3.2828282828282824,3.4848484848484866 -3.1818181818181817,3.383838383838384 -3.0808080808080804,3.2828282828282833 -2.9797979797979792,3.181818181818183 -2.8787878787878785,3.080808080808082 -2.7777777777777777,2.9797979797979806 -2.6767676767676765,2.87878787878788 -2.5757575757575752,2.7777777777777786 -2.474747474747474,2.676767676767678 -2.3737373737373733,2.575757575757577 -2.2727272727272725,2.4747474747474754 -2.1717171717171713,2.373737373737375 -2.07070707070707,2.2727272727272734 -1.9696969696969693,2.1717171717171726 -1.8686868686868683,2.070707070707072 -1.7676767676767675,1.9696969696969702 -1.6666666666666665,1.8686868686868696 -1.5656565656565653,1.767676767676768 -1.4646464646464643,1.6666666666666674 -1.363636363636363,1.5656565656565666 -1.2626262626262625,1.4646464646464652 -1.1616161616161613,1.3636363636363644 -1.0606060606060603,1.262626262626263 -0.9595959595959596,1.1616161616161622 -0.8585858585858579,1.0606060606060617 -0.7575757575757572,0.9595959595959602 -0.6565656565656557,0.8585858585858596 -0.555555555555555,0.7575757575757579 -0.4545454545454544,0.6565656565656574 -0.35353535353535287,0.5555555555555567 -0.2525252525252522,0.4545454545454551 -0.15151515151515066,0.3535353535353544 -0.05050505050505001,0.2525252525252529 0.050505050505051545,0.1515151515151522 0.1515151515151522,0.050505050505051545 0.2525252525252529,-0.05050505050505001 0.3535353535353544,-0.15151515151515066 0.4545454545454551,-0.2525252525252522 0.5555555555555567,-0.35353535353535287 0.6565656565656574,-0.4545454545454544 0.7575757575757579,-0.555555555555555 0.8585858585858596,-0.6565656565656557 0.9595959595959602,-0.7575757575757572 1.0606060606060617,-0.8585858585858579 1.1616161616161622,-0.9595959595959596 1.262626262626263,-1.0606060606060603 1.262626262626263,-1.1616161616161613 1.262626262626263,-1.2626262626262625 1.262626262626263,-1.363636363636363 1.262626262626263,-1.4646464646464643 1.262626262626263,-1.5656565656565653 1.262626262626263,-1.6666666666666665 1.262626262626263,-1.7676767676767675 1.262626262626263,-1.8686868686868683 1.262626262626263,-1.9696969696969693 1.262626262626263,-2.07070707070707 1.262626262626263,-2.1717171717171713 1.262626262626263,-2.2727272727272725 1.262626262626263,-2.3737373737373733 1.262626262626263,-2.474747474747474 1.262626262626263,-2.5757575757575752 1.262626262626263,-2.6767676767676765 1.262626262626263,-2.7777777777777777 1.262626262626263,-2.8787878787878785 1.262626262626263,-2.9797979797979792 1.262626262626263,-3.0808080808080804 1.262626262626263,-3.1818181818181817 1.262626262626263,-3.2828282828282824 1.262626262626263,-3.383838383838383 1.262626262626263,-3.484848484848485 1.262626262626263,-3.5858585858585856 1.262626262626263,-3.6868686868686864 1.262626262626263,-3.7878787878787876 1.262626262626263,-3.8888888888888884 1.262626262626263,-3.98989898989899" data-type="line" data-label="" points="59.07070707070716,40.000000000000114 68.60606060606068,49.53535353535369 78.14141414141426,59.07070707070733 87.67676767676772,68.60606060606085 97.21212121212136,78.14141414141432 106.74747474747483,87.67676767676778 116.28282828282829,97.21212121212153 125.81818181818193,106.747474747475 135.35353535353545,116.28282828282846 144.88888888888903,125.81818181818198 154.42424242424255,135.35353535353545 163.95959595959607,144.88888888888908 173.4949494949496,154.4242424242426 183.03030303030312,163.95959595959613 192.5656565656567,173.4949494949496 202.10101010101022,183.03030303030312 211.63636363636374,192.56565656565675 221.17171717171726,202.10101010101027 230.70707070707084,211.63636363636374 240.2424242424243,221.17171717171726 249.77777777777783,230.70707070707084 259.3131313131314,240.24242424242436 268.84848484848493,249.77777777777794 278.38383838383845,259.3131313131314 287.91919191919203,268.84848484848493 297.4545454545455,278.38383838383857 306.9898989898991,287.91919191919203 316.5252525252526,297.4545454545456 326.0606060606061,306.9898989898991 335.59595959595964,316.5252525252526 345.13131313131316,326.06060606060623 354.6666666666667,335.5959595959597 364.2020202020202,345.1313131313133 373.7373737373738,354.66666666666674 383.2727272727273,364.2020202020203 392.80808080808083,373.73737373737384 402.34343434343435,383.27272727272737 411.8787878787879,392.80808080808094 421.4141414141414,402.3434343434344 430.949494949495,411.87878787878793 440.4848484848485,421.4141414141415 450.0202020202021,430.94949494949503 459.55555555555554,440.4848484848486 469.09090909090907,450.0202020202021 478.62626262626264,459.5555555555556 488.16161616161617,469.0909090909092 497.69696969696975,478.6262626262627 507.2323232323232,488.1616161616163 516.7676767676768,497.69696969696975 526.3030303030303,507.23232323232327 535.8383838383838,516.7676767676768 545.3737373737374,526.3030303030304 554.9090909090909,535.838383838384 564.4444444444445,545.3737373737374 573.9797979797979,554.909090909091 583.5151515151515,564.4444444444445 593.0505050505051,573.979797979798 602.5858585858585,583.5151515151516 612.1212121212121,593.0505050505051 621.6565656565656,602.5858585858587 631.1919191919192,612.1212121212121 631.1919191919192,621.6565656565657 631.1919191919192,631.1919191919193 631.1919191919192,640.7272727272727 631.1919191919192,650.2626262626263 631.1919191919192,659.7979797979798 631.1919191919192,669.3333333333334 631.1919191919192,678.8686868686868 631.1919191919192,688.4040404040404 631.1919191919192,697.939393939394 631.1919191919192,707.4747474747475 631.1919191919192,717.010101010101 631.1919191919192,726.5454545454545 631.1919191919192,736.0808080808081 631.1919191919192,745.6161616161615 631.1919191919192,755.1515151515151 631.1919191919192,764.6868686868687 631.1919191919192,774.2222222222222 631.1919191919192,783.7575757575758 631.1919191919192,793.2929292929292 631.1919191919192,802.8282828282828 631.1919191919192,812.3636363636363 631.1919191919192,821.8989898989898 631.1919191919192,831.4343434343434 631.1919191919192,840.969696969697 631.1919191919192,850.5050505050505 631.1919191919192,860.0404040404039 631.1919191919192,869.5757575757575 631.1919191919192,879.1111111111111 631.1919191919192,888.6464646464647" fill="none" stroke="rgba(255,0,0,0.75)" stroke-width="14.159999999999995"/></g><g><polyline data-points="1.262626262626263,-3.98989898989899 1.262626262626263,-4.090909090909091 1.262626262626263,-4.191919191919193 1.262626262626263,-4.292929292929293 1.262626262626263,-4.393939393939394 1.262626262626263,-4.494949494949496 1.262626262626263,-4.595959595959596 1.262626262626263,-4.696969696969697 1.262626262626263,-4.7979797979797985 1.262626262626263,-4.898989898989899 1.262626262626263,-5.000000000000001" data-type="line" data-label="" points="631.1919191919192,888.6464646464647 631.1919191919192,898.1818181818181 631.1919191919192,907.7171717171718 631.1919191919192,917.2525252525252 631.1919191919192,926.7878787878788 631.1919191919192,936.3232323232323 631.1919191919192,945.8585858585858 631.1919191919192,955.3939393939394 631.1919191919192,964.9292929292928 631.1919191919192,974.4646464646464 631.1919191919192,984" fill="none" stroke="rgba(0,0,255,0.75)" stroke-width="14.159999999999995"/></g><g><polyline data-points="0.2525252525252529,5.000000000000002 0.1515151515151522,4.898989898989901 0.050505050505051545,4.7979797979797985 -0.05050505050505001,4.696969696969697 -0.15151515151515066,4.595959595959597 -0.2525252525252522,4.494949494949497 -0.35353535353535287,4.393939393939394 -0.4545454545454544,4.292929292929293 -0.555555555555555,4.191919191919193 -0.6565656565656557,4.090909090909092 -0.7575757575757572,3.989898989898992 -0.8585858585858579,3.8888888888888893 -0.9595959595959596,3.7878787878787885 -1.0606060606060603,3.6868686868686877 -1.1616161616161613,3.5858585858585874 -1.2626262626262625,3.4848484848484866 -1.363636363636363,3.383838383838384 -1.4646464646464643,3.2828282828282833 -1.5656565656565653,3.181818181818183 -1.6666666666666665,3.080808080808082 -1.7676767676767675,2.9797979797979806 -1.8686868686868683,2.87878787878788 -1.9696969696969693,2.7777777777777786 -2.07070707070707,2.676767676767678 -2.1717171717171713,2.575757575757577 -2.2727272727272725,2.4747474747474754 -2.3737373737373733,2.373737373737375 -2.474747474747474,2.2727272727272734 -2.5757575757575752,2.1717171717171726 -2.6767676767676765,2.070707070707072 -2.7777777777777777,1.9696969696969702 -2.8787878787878785,1.8686868686868696 -2.9797979797979792,1.767676767676768 -3.0808080808080804,1.6666666666666674 -3.1818181818181817,1.5656565656565666 -3.2828282828282824,1.4646464646464652 -3.383838383838383,1.3636363636363644 -3.484848484848485,1.262626262626263 -3.5858585858585856,1.1616161616161622 -3.6868686868686864,1.0606060606060617 -3.7878787878787876,0.9595959595959602 -3.8888888888888884,0.8585858585858596 -3.98989898989899,0.7575757575757579 -3.98989898989899,0.6565656565656574 -3.98989898989899,0.5555555555555567 -3.98989898989899,0.4545454545454551 -3.98989898989899,0.3535353535353544 -3.98989898989899,0.2525252525252529 -3.98989898989899,0.1515151515151522 -3.98989898989899,0.050505050505051545 -3.98989898989899,-0.05050505050505001 -3.98989898989899,-0.15151515151515066 -3.98989898989899,-0.2525252525252522 -3.98989898989899,-0.35353535353535287 -3.98989898989899,-0.4545454545454544 -3.98989898989899,-0.555555555555555 -3.98989898989899,-0.6565656565656557 -3.98989898989899,-0.7575757575757572 -3.98989898989899,-0.8585858585858579 -3.98989898989899,-0.9595959595959596 -3.98989898989899,-1.0606060606060603 -3.98989898989899,-1.1616161616161613 -3.98989898989899,-1.2626262626262625 -3.98989898989899,-1.363636363636363 -3.98989898989899,-1.4646464646464643 -3.98989898989899,-1.5656565656565653 -3.98989898989899,-1.6666666666666665 -3.98989898989899,-1.7676767676767675 -3.98989898989899,-1.8686868686868683 -3.98989898989899,-1.9696969696969693 -3.98989898989899,-2.07070707070707 -3.98989898989899,-2.1717171717171713 -3.98989898989899,-2.2727272727272725 -3.98989898989899,-2.3737373737373733 -3.98989898989899,-2.474747474747474 -3.98989898989899,-2.5757575757575752 -3.98989898989899,-2.6767676767676765 -3.98989898989899,-2.7777777777777777 -3.98989898989899,-2.8787878787878785 -3.98989898989899,-2.9797979797979792 -3.98989898989899,-3.0808080808080804 -3.98989898989899,-3.1818181818181817 -3.98989898989899,-3.2828282828282824 -3.98989898989899,-3.383838383838383 -3.98989898989899,-3.484848484848485 -3.98989898989899,-3.5858585858585856 -3.98989898989899,-3.6868686868686864 -3.98989898989899,-3.7878787878787876" data-type="line" data-label="" points="535.8383838383838,40.000000000000114 526.3030303030303,49.53535353535369 516.7676767676768,59.07070707070733 507.2323232323232,68.60606060606085 497.69696969696975,78.14141414141432 488.16161616161617,87.67676767676778 478.62626262626264,97.21212121212153 469.09090909090907,106.747474747475 459.55555555555554,116.28282828282846 450.0202020202021,125.81818181818198 440.4848484848485,135.35353535353545 430.949494949495,144.88888888888908 421.4141414141414,154.4242424242426 411.8787878787879,163.95959595959613 402.34343434343435,173.4949494949496 392.80808080808083,183.03030303030312 383.2727272727273,192.56565656565675 373.7373737373738,202.10101010101027 364.2020202020202,211.63636363636374 354.6666666666667,221.17171717171726 345.13131313131316,230.70707070707084 335.59595959595964,240.24242424242436 326.0606060606061,249.77777777777794 316.5252525252526,259.3131313131314 306.9898989898991,268.84848484848493 297.4545454545455,278.38383838383857 287.91919191919203,287.91919191919203 278.38383838383845,297.4545454545456 268.84848484848493,306.9898989898991 259.3131313131314,316.5252525252526 249.77777777777783,326.06060606060623 240.2424242424243,335.5959595959597 230.70707070707084,345.1313131313133 221.17171717171726,354.66666666666674 211.63636363636374,364.2020202020203 202.10101010101022,373.73737373737384 192.5656565656567,383.27272727272737 183.03030303030312,392.80808080808094 173.4949494949496,402.3434343434344 163.95959595959607,411.87878787878793 154.42424242424255,421.4141414141415 144.88888888888903,430.94949494949503 135.35353535353545,440.4848484848486 135.35353535353545,450.0202020202021 135.35353535353545,459.5555555555556 135.35353535353545,469.0909090909092 135.35353535353545,478.6262626262627 135.35353535353545,488.1616161616163 135.35353535353545,497.69696969696975 135.35353535353545,507.23232323232327 135.35353535353545,516.7676767676768 135.35353535353545,526.3030303030304 135.35353535353545,535.838383838384 135.35353535353545,545.3737373737374 135.35353535353545,554.909090909091 135.35353535353545,564.4444444444445 135.35353535353545,573.979797979798 135.35353535353545,583.5151515151516 135.35353535353545,593.0505050505051 135.35353535353545,602.5858585858587 135.35353535353545,612.1212121212121 135.35353535353545,621.6565656565657 135.35353535353545,631.1919191919193 135.35353535353545,640.7272727272727 135.35353535353545,650.2626262626263 135.35353535353545,659.7979797979798 135.35353535353545,669.3333333333334 135.35353535353545,678.8686868686868 135.35353535353545,688.4040404040404 135.35353535353545,697.939393939394 135.35353535353545,707.4747474747475 135.35353535353545,717.010101010101 135.35353535353545,726.5454545454545 135.35353535353545,736.0808080808081 135.35353535353545,745.6161616161615 135.35353535353545,755.1515151515151 135.35353535353545,764.6868686868687 135.35353535353545,774.2222222222222 135.35353535353545,783.7575757575758 135.35353535353545,793.2929292929292 135.35353535353545,802.8282828282828 135.35353535353545,812.3636363636363 135.35353535353545,821.8989898989898 135.35353535353545,831.4343434343434 135.35353535353545,840.969696969697 135.35353535353545,850.5050505050505 135.35353535353545,860.0404040404039 135.35353535353545,869.5757575757575" fill="none" stroke="rgba(0,0,255,0.75)" stroke-width="14.159999999999995"/></g><g><polyline data-points="-3.98989898989899,-3.7878787878787876 -4.090909090909091,-3.8888888888888884 -4.191919191919193,-3.98989898989899 -4.292929292929293,-4.090909090909091 -4.393939393939394,-4.191919191919193 -4.393939393939394,-4.292929292929293 -4.393939393939394,-4.393939393939394 -4.393939393939394,-4.494949494949496 -4.393939393939394,-4.595959595959596 -4.393939393939394,-4.696969696969697 -4.393939393939394,-4.7979797979797985 -4.393939393939394,-4.898989898989899 -4.393939393939394,-5.000000000000001" data-type="line" data-label="" points="135.35353535353545,869.5757575757575 125.81818181818193,879.1111111111111 116.28282828282829,888.6464646464647 106.74747474747483,898.1818181818181 97.21212121212136,907.7171717171718 97.21212121212136,917.2525252525252 97.21212121212136,926.7878787878788 97.21212121212136,936.3232323232323 97.21212121212136,945.8585858585858 97.21212121212136,955.3939393939394 97.21212121212136,964.9292929292928 97.21212121212136,974.4646464646464 97.21212121212136,984" fill="none" stroke="rgba(255,0,0,0.75)" stroke-width="14.159999999999995"/></g><g><polyline data-points="4.898989898989901,5.000000000000002 4.7979797979797985,4.898989898989901 4.696969696969697,4.7979797979797985 4.595959595959597,4.696969696969697 4.494949494949497,4.595959595959597 4.393939393939394,4.494949494949497 4.292929292929293,4.393939393939394 4.191919191919193,4.292929292929293 4.090909090909092,4.191919191919193 3.989898989898992,4.090909090909092 3.8888888888888893,3.989898989898992" data-type="line" data-label="" points="974.4646464646464,40.000000000000114 964.9292929292927,49.53535353535369 955.3939393939393,59.07070707070733 945.8585858585857,68.60606060606085 936.3232323232323,78.14141414141432 926.7878787878785,87.67676767676778 917.2525252525251,97.21212121212153 907.7171717171716,106.747474747475 898.181818181818,116.28282828282846 888.6464646464647,125.81818181818198 879.111111111111,135.35353535353545" fill="none" stroke="rgba(255,0,0,0.75)" stroke-width="14.159999999999995"/></g><g><polyline data-points="3.8888888888888893,3.989898989898992 3.7878787878787885,4.090909090909092 3.6868686868686877,4.191919191919193 3.5858585858585874,4.292929292929293 3.4848484848484866,4.393939393939394 3.383838383838384,4.494949494949497 3.383838383838384,4.595959595959597 3.383838383838384,4.696969696969697 3.383838383838384,4.7979797979797985 3.383838383838384,4.898989898989901 3.383838383838384,5.000000000000002" data-type="line" data-label="" points="879.111111111111,135.35353535353545 869.5757575757575,125.81818181818198 860.0404040404039,116.28282828282846 850.5050505050505,106.747474747475 840.969696969697,97.21212121212153 831.4343434343433,87.67676767676778 831.4343434343433,78.14141414141432 831.4343434343433,68.60606060606085 831.4343434343433,59.07070707070733 831.4343434343433,49.53535353535369 831.4343434343433,40.000000000000114" fill="none" stroke="rgba(0,0,255,0.75)" stroke-width="14.159999999999995"/></g><g><polyline data-points="2.070707070707072,-5.000000000000001 1.9696969696969702,-4.898989898989899 1.8686868686868696,-4.7979797979797985 1.767676767676768,-4.696969696969697 1.6666666666666674,-4.595959595959596 1.5656565656565666,-4.494949494949496 1.4646464646464652,-4.494949494949496 1.3636363636363644,-4.494949494949496 1.262626262626263,-4.494949494949496 1.1616161616161622,-4.393939393939394 1.0606060606060617,-4.393939393939394 0.9595959595959602,-4.292929292929293 0.8585858585858596,-4.191919191919193 0.7575757575757579,-4.090909090909091 0.6565656565656574,-3.98989898989899 0.5555555555555567,-3.8888888888888884 0.4545454545454551,-3.7878787878787876 0.3535353535353544,-3.6868686868686864 0.2525252525252529,-3.5858585858585856 0.1515151515151522,-3.484848484848485 0.050505050505051545,-3.383838383838383 -0.05050505050505001,-3.2828282828282824 -0.15151515151515066,-3.1818181818181817 -0.2525252525252522,-3.0808080808080804 -0.35353535353535287,-2.9797979797979792 -0.4545454545454544,-2.8787878787878785 -0.555555555555555,-2.7777777777777777 -0.6565656565656557,-2.6767676767676765 -0.7575757575757572,-2.5757575757575752 -0.8585858585858579,-2.474747474747474 -0.9595959595959596,-2.3737373737373733 -1.0606060606060603,-2.2727272727272725 -1.1616161616161613,-2.1717171717171713 -1.2626262626262625,-2.07070707070707 -1.363636363636363,-1.9696969696969693 -1.4646464646464643,-1.8686868686868683 -1.4646464646464643,-1.7676767676767675 -1.4646464646464643,-1.6666666666666665 -1.4646464646464643,-1.5656565656565653 -1.4646464646464643,-1.4646464646464643 -1.4646464646464643,-1.363636363636363 -1.4646464646464643,-1.2626262626262625 -1.4646464646464643,-1.1616161616161613 -1.4646464646464643,-1.0606060606060603 -1.4646464646464643,-0.9595959595959596 -1.4646464646464643,-0.8585858585858579 -1.4646464646464643,-0.7575757575757572 -1.4646464646464643,-0.6565656565656557 -1.4646464646464643,-0.555555555555555 -1.4646464646464643,-0.4545454545454544 -1.4646464646464643,-0.35353535353535287 -1.4646464646464643,-0.2525252525252522 -1.4646464646464643,-0.15151515151515066 -1.4646464646464643,-0.05050505050505001 -1.4646464646464643,0.050505050505051545 -1.4646464646464643,0.1515151515151522 -1.4646464646464643,0.2525252525252529 -1.4646464646464643,0.3535353535353544 -1.4646464646464643,0.4545454545454551 -1.4646464646464643,0.5555555555555567 -1.4646464646464643,0.6565656565656574 -1.4646464646464643,0.7575757575757579 -1.4646464646464643,0.8585858585858596" data-type="line" data-label="" points="707.4747474747475,984 697.9393939393939,974.4646464646464 688.4040404040404,964.9292929292928 678.8686868686868,955.3939393939394 669.3333333333333,945.8585858585858 659.7979797979798,936.3232323232323 650.2626262626262,936.3232323232323 640.7272727272727,936.3232323232323 631.1919191919192,936.3232323232323 621.6565656565656,926.7878787878788 612.1212121212121,926.7878787878788 602.5858585858585,917.2525252525252 593.0505050505051,907.7171717171718 583.5151515151515,898.1818181818181 573.9797979797979,888.6464646464647 564.4444444444445,879.1111111111111 554.9090909090909,869.5757575757575 545.3737373737374,860.0404040404039 535.8383838383838,850.5050505050505 526.3030303030303,840.969696969697 516.7676767676768,831.4343434343434 507.2323232323232,821.8989898989898 497.69696969696975,812.3636363636363 488.16161616161617,802.8282828282828 478.62626262626264,793.2929292929292 469.09090909090907,783.7575757575758 459.55555555555554,774.2222222222222 450.0202020202021,764.6868686868687 440.4848484848485,755.1515151515151 430.949494949495,745.6161616161615 421.4141414141414,736.0808080808081 411.8787878787879,726.5454545454545 402.34343434343435,717.010101010101 392.80808080808083,707.4747474747475 383.2727272727273,697.939393939394 373.7373737373738,688.4040404040404 373.7373737373738,678.8686868686868 373.7373737373738,669.3333333333334 373.7373737373738,659.7979797979798 373.7373737373738,650.2626262626263 373.7373737373738,640.7272727272727 373.7373737373738,631.1919191919193 373.7373737373738,621.6565656565657 373.7373737373738,612.1212121212121 373.7373737373738,602.5858585858587 373.7373737373738,593.0505050505051 373.7373737373738,583.5151515151516 373.7373737373738,573.979797979798 373.7373737373738,564.4444444444445 373.7373737373738,554.909090909091 373.7373737373738,545.3737373737374 373.7373737373738,535.838383838384 373.7373737373738,526.3030303030304 373.7373737373738,516.7676767676768 373.7373737373738,507.23232323232327 373.7373737373738,497.69696969696975 373.7373737373738,488.1616161616163 373.7373737373738,478.6262626262627 373.7373737373738,469.0909090909092 373.7373737373738,459.5555555555556 373.7373737373738,450.0202020202021 373.7373737373738,440.4848484848486 373.7373737373738,430.94949494949503" fill="none" stroke="rgba(255,0,0,0.75)" stroke-width="14.159999999999995"/></g><g><polyline data-points="-1.4646464646464643,0.8585858585858596 -1.4646464646464643,0.9595959595959602 -1.4646464646464643,1.0606060606060617 -1.4646464646464643,1.1616161616161622 -1.4646464646464643,1.262626262626263 -1.4646464646464643,1.3636363636363644 -1.4646464646464643,1.4646464646464652 -1.4646464646464643,1.5656565656565666 -1.4646464646464643,1.6666666666666674 -1.4646464646464643,1.767676767676768 -1.4646464646464643,1.8686868686868696 -1.4646464646464643,1.9696969696969702 -1.4646464646464643,2.070707070707072 -1.4646464646464643,2.1717171717171726 -1.4646464646464643,2.2727272727272734 -1.4646464646464643,2.373737373737375 -1.4646464646464643,2.4747474747474754" data-type="line" data-label="" points="373.7373737373738,430.94949494949503 373.7373737373738,421.4141414141415 373.7373737373738,411.87878787878793 373.7373737373738,402.3434343434344 373.7373737373738,392.80808080808094 373.7373737373738,383.27272727272737 373.7373737373738,373.73737373737384 373.7373737373738,364.2020202020203 373.7373737373738,354.66666666666674 373.7373737373738,345.1313131313133 373.7373737373738,335.5959595959597 373.7373737373738,326.06060606060623 373.7373737373738,316.5252525252526 373.7373737373738,306.9898989898991 373.7373737373738,297.4545454545456 373.7373737373738,287.91919191919203 373.7373737373738,278.38383838383857" fill="none" stroke="rgba(0,0,255,0.75)" stroke-width="14.159999999999995"/></g><g><polyline data-points="-1.4646464646464643,2.4747474747474754 -1.4646464646464643,2.575757575757577 -1.4646464646464643,2.676767676767678 -1.4646464646464643,2.7777777777777786 -1.4646464646464643,2.87878787878788 -1.4646464646464643,2.9797979797979806 -1.4646464646464643,3.080808080808082 -1.4646464646464643,3.181818181818183 -1.4646464646464643,3.2828282828282833 -1.4646464646464643,3.383838383838384 -1.4646464646464643,3.4848484848484866 -1.4646464646464643,3.5858585858585874 -1.4646464646464643,3.6868686868686877 -1.4646464646464643,3.7878787878787885 -1.4646464646464643,3.8888888888888893 -1.5656565656565653,3.989898989898992" data-type="line" data-label="" points="373.7373737373738,278.38383838383857 373.7373737373738,268.84848484848493 373.7373737373738,259.3131313131314 373.7373737373738,249.77777777777794 373.7373737373738,240.24242424242436 373.7373737373738,230.70707070707084 373.7373737373738,221.17171717171726 373.7373737373738,211.63636363636374 373.7373737373738,202.10101010101027 373.7373737373738,192.56565656565675 373.7373737373738,183.03030303030312 373.7373737373738,173.4949494949496 373.7373737373738,163.95959595959613 373.7373737373738,154.4242424242426 373.7373737373738,144.88888888888908 364.2020202020202,135.35353535353545" fill="none" stroke="rgba(255,0,0,0.75)" stroke-width="14.159999999999995"/></g><g><polyline data-points="-1.5656565656565653,3.989898989898992 -1.4646464646464643,4.090909090909092 -1.4646464646464643,4.191919191919193 -1.4646464646464643,4.292929292929293 -1.4646464646464643,4.393939393939394 -1.4646464646464643,4.494949494949497 -1.4646464646464643,4.595959595959597 -1.4646464646464643,4.696969696969697 -1.4646464646464643,4.7979797979797985 -1.4646464646464643,4.898989898989901 -1.4646464646464643,5.000000000000002" data-type="line" data-label="" points="364.2020202020202,135.35353535353545 373.7373737373738,125.81818181818198 373.7373737373738,116.28282828282846 373.7373737373738,106.747474747475 373.7373737373738,97.21212121212153 373.7373737373738,87.67676767676778 373.7373737373738,78.14141414141432 373.7373737373738,68.60606060606085 373.7373737373738,59.07070707070733 373.7373737373738,49.53535353535369 373.7373737373738,40.000000000000114" fill="none" stroke="rgba(0,0,255,0.75)" stroke-width="14.159999999999995"/></g><g><polyline data-points="-2.474747474747474,5.000000000000002 -2.474747474747474,4.898989898989901 -2.474747474747474,4.7979797979797985 -2.474747474747474,4.696969696969697 -2.474747474747474,4.595959595959597 -2.474747474747474,4.494949494949497 -2.474747474747474,4.393939393939394 -2.474747474747474,4.292929292929293 -2.474747474747474,4.191919191919193 -2.474747474747474,4.090909090909092 -2.474747474747474,3.989898989898992 -2.474747474747474,3.8888888888888893 -2.474747474747474,3.7878787878787885 -2.474747474747474,3.6868686868686877 -2.474747474747474,3.5858585858585874 -2.474747474747474,3.4848484848484866 -2.474747474747474,3.383838383838384 -2.474747474747474,3.2828282828282833 -2.474747474747474,3.181818181818183 -2.474747474747474,3.080808080808082 -2.5757575757575752,2.9797979797979806 -2.6767676767676765,2.87878787878788 -2.7777777777777777,2.7777777777777786 -2.8787878787878785,2.676767676767678 -2.9797979797979792,2.575757575757577 -3.0808080808080804,2.4747474747474754" data-type="line" data-label="" points="278.38383838383845,40.000000000000114 278.38383838383845,49.53535353535369 278.38383838383845,59.07070707070733 278.38383838383845,68.60606060606085 278.38383838383845,78.14141414141432 278.38383838383845,87.67676767676778 278.38383838383845,97.21212121212153 278.38383838383845,106.747474747475 278.38383838383845,116.28282828282846 278.38383838383845,125.81818181818198 278.38383838383845,135.35353535353545 278.38383838383845,144.88888888888908 278.38383838383845,154.4242424242426 278.38383838383845,163.95959595959613 278.38383838383845,173.4949494949496 278.38383838383845,183.03030303030312 278.38383838383845,192.56565656565675 278.38383838383845,202.10101010101027 278.38383838383845,211.63636363636374 278.38383838383845,221.17171717171726 268.84848484848493,230.70707070707084 259.3131313131314,240.24242424242436 249.77777777777783,249.77777777777794 240.2424242424243,259.3131313131314 230.70707070707084,268.84848484848493 221.17171717171726,278.38383838383857" fill="none" stroke="rgba(0,0,255,0.75)" stroke-width="14.159999999999995"/></g><g><polyline data-points="-3.0808080808080804,2.4747474747474754 -2.9797979797979792,2.373737373737375 -2.8787878787878785,2.2727272727272734 -2.7777777777777777,2.1717171717171726 -2.6767676767676765,2.070707070707072 -2.5757575757575752,1.9696969696969702 -2.474747474747474,1.8686868686868696 -2.3737373737373733,1.767676767676768 -2.2727272727272725,1.6666666666666674 -2.1717171717171713,1.5656565656565666 -2.07070707070707,1.4646464646464652 -1.9696969696969693,1.3636363636363644 -1.9696969696969693,1.262626262626263 -1.9696969696969693,1.1616161616161622 -1.9696969696969693,1.0606060606060617 -1.9696969696969693,0.9595959595959602 -1.9696969696969693,0.8585858585858596 -1.8686868686868683,0.7575757575757579 -1.8686868686868683,0.6565656565656574 -1.7676767676767675,0.5555555555555567 -1.6666666666666665,0.4545454545454551 -1.6666666666666665,0.3535353535353544 -1.6666666666666665,0.2525252525252529 -1.6666666666666665,0.1515151515151522 -1.6666666666666665,0.050505050505051545 -1.6666666666666665,-0.05050505050505001 -1.6666666666666665,-0.15151515151515066 -1.6666666666666665,-0.2525252525252522 -1.6666666666666665,-0.35353535353535287 -1.6666666666666665,-0.4545454545454544 -1.6666666666666665,-0.555555555555555 -1.6666666666666665,-0.6565656565656557 -1.6666666666666665,-0.7575757575757572 -1.6666666666666665,-0.8585858585858579 -1.6666666666666665,-0.9595959595959596 -1.6666666666666665,-1.0606060606060603 -1.6666666666666665,-1.1616161616161613 -1.6666666666666665,-1.2626262626262625 -1.6666666666666665,-1.363636363636363 -1.6666666666666665,-1.4646464646464643 -1.6666666666666665,-1.5656565656565653 -1.6666666666666665,-1.6666666666666665 -1.6666666666666665,-1.7676767676767675 -1.6666666666666665,-1.8686868686868683 -1.6666666666666665,-1.9696969696969693 -1.5656565656565653,-2.07070707070707 -1.4646464646464643,-2.1717171717171713 -1.4646464646464643,-2.2727272727272725 -1.4646464646464643,-2.3737373737373733 -1.4646464646464643,-2.474747474747474 -1.4646464646464643,-2.5757575757575752 -1.4646464646464643,-2.6767676767676765 -1.4646464646464643,-2.7777777777777777 -1.4646464646464643,-2.8787878787878785 -1.4646464646464643,-2.9797979797979792 -1.4646464646464643,-3.0808080808080804 -1.4646464646464643,-3.1818181818181817 -1.4646464646464643,-3.2828282828282824 -1.4646464646464643,-3.383838383838383 -1.4646464646464643,-3.484848484848485 -1.4646464646464643,-3.5858585858585856 -1.4646464646464643,-3.6868686868686864 -1.4646464646464643,-3.7878787878787876 -1.4646464646464643,-3.8888888888888884 -1.4646464646464643,-3.98989898989899" data-type="line" data-label="" points="221.17171717171726,278.38383838383857 230.70707070707084,287.91919191919203 240.2424242424243,297.4545454545456 249.77777777777783,306.9898989898991 259.3131313131314,316.5252525252526 268.84848484848493,326.06060606060623 278.38383838383845,335.5959595959597 287.91919191919203,345.1313131313133 297.4545454545455,354.66666666666674 306.9898989898991,364.2020202020203 316.5252525252526,373.73737373737384 326.0606060606061,383.27272727272737 326.0606060606061,392.80808080808094 326.0606060606061,402.3434343434344 326.0606060606061,411.87878787878793 326.0606060606061,421.4141414141415 326.0606060606061,430.94949494949503 335.59595959595964,440.4848484848486 335.59595959595964,450.0202020202021 345.13131313131316,459.5555555555556 354.6666666666667,469.0909090909092 354.6666666666667,478.6262626262627 354.6666666666667,488.1616161616163 354.6666666666667,497.69696969696975 354.6666666666667,507.23232323232327 354.6666666666667,516.7676767676768 354.6666666666667,526.3030303030304 354.6666666666667,535.838383838384 354.6666666666667,545.3737373737374 354.6666666666667,554.909090909091 354.6666666666667,564.4444444444445 354.6666666666667,573.979797979798 354.6666666666667,583.5151515151516 354.6666666666667,593.0505050505051 354.6666666666667,602.5858585858587 354.6666666666667,612.1212121212121 354.6666666666667,621.6565656565657 354.6666666666667,631.1919191919193 354.6666666666667,640.7272727272727 354.6666666666667,650.2626262626263 354.6666666666667,659.7979797979798 354.6666666666667,669.3333333333334 354.6666666666667,678.8686868686868 354.6666666666667,688.4040404040404 354.6666666666667,697.939393939394 364.2020202020202,707.4747474747475 373.7373737373738,717.010101010101 373.7373737373738,726.5454545454545 373.7373737373738,736.0808080808081 373.7373737373738,745.6161616161615 373.7373737373738,755.1515151515151 373.7373737373738,764.6868686868687 373.7373737373738,774.2222222222222 373.7373737373738,783.7575757575758 373.7373737373738,793.2929292929292 373.7373737373738,802.8282828282828 373.7373737373738,812.3636363636363 373.7373737373738,821.8989898989898 373.7373737373738,831.4343434343434 373.7373737373738,840.969696969697 373.7373737373738,850.5050505050505 373.7373737373738,860.0404040404039 373.7373737373738,869.5757575757575 373.7373737373738,879.1111111111111 373.7373737373738,888.6464646464647" fill="none" stroke="rgba(255,0,0,0.75)" stroke-width="14.159999999999995"/></g><g><polyline data-points="-1.4646464646464643,-3.98989898989899 -1.4646464646464643,-4.090909090909091 -1.4646464646464643,-4.191919191919193 -1.4646464646464643,-4.292929292929293 -1.4646464646464643,-4.393939393939394 -1.4646464646464643,-4.494949494949496 -1.4646464646464643,-4.595959595959596 -1.4646464646464643,-4.696969696969697 -1.4646464646464643,-4.7979797979797985 -1.4646464646464643,-4.898989898989899 -1.4646464646464643,-5.000000000000001" data-type="line" data-label="" points="373.7373737373738,888.6464646464647 373.7373737373738,898.1818181818181 373.7373737373738,907.7171717171718 373.7373737373738,917.2525252525252 373.7373737373738,926.7878787878788 373.7373737373738,936.3232323232323 373.7373737373738,945.8585858585858 373.7373737373738,955.3939393939394 373.7373737373738,964.9292929292928 373.7373737373738,974.4646464646464 373.7373737373738,984" fill="none" stroke="rgba(0,0,255,0.75)" stroke-width="14.159999999999995"/></g><g><polyline data-points="5.000000000000002,3.8888888888888893 4.898989898989901,3.7878787878787885 4.7979797979797985,3.6868686868686877 4.696969696969697,3.5858585858585874 4.595959595959597,3.4848484848484866 4.494949494949497,3.383838383838384 4.393939393939394,3.2828282828282833 4.292929292929293,3.181818181818183 4.191919191919193,3.080808080808082 4.090909090909092,2.9797979797979806 3.989898989898992,2.87878787878788 3.8888888888888893,2.7777777777777786 3.7878787878787885,2.676767676767678 3.6868686868686877,2.575757575757577 3.5858585858585874,2.4747474747474754 3.4848484848484866,2.373737373737375 3.383838383838384,2.2727272727272734 3.2828282828282833,2.1717171717171726 3.181818181818183,2.070707070707072 3.080808080808082,1.9696969696969702 2.9797979797979806,1.8686868686868696 2.87878787878788,1.767676767676768 2.7777777777777786,1.6666666666666674 2.676767676767678,1.5656565656565666 2.575757575757577,1.4646464646464652 2.4747474747474754,1.3636363636363644 2.373737373737375,1.262626262626263 2.2727272727272734,1.1616161616161622 2.1717171717171726,1.0606060606060617 2.070707070707072,0.9595959595959602 1.9696969696969702,0.8585858585858596 1.8686868686868696,0.7575757575757579 1.767676767676768,0.6565656565656574 1.6666666666666674,0.5555555555555567 1.5656565656565666,0.4545454545454551 1.4646464646464652,0.3535353535353544 1.3636363636363644,0.2525252525252529 1.262626262626263,0.1515151515151522 1.1616161616161622,0.050505050505051545 1.0606060606060617,-0.05050505050505001" data-type="line" data-label="" points="984,144.88888888888908 974.4646464646464,154.4242424242426 964.9292929292927,163.95959595959613 955.3939393939393,173.4949494949496 945.8585858585857,183.03030303030312 936.3232323232323,192.56565656565675 926.7878787878785,202.10101010101027 917.2525252525251,211.63636363636374 907.7171717171716,221.17171717171726 898.181818181818,230.70707070707084 888.6464646464647,240.24242424242436 879.111111111111,249.77777777777794 869.5757575757575,259.3131313131314 860.0404040404039,268.84848484848493 850.5050505050505,278.38383838383857 840.969696969697,287.91919191919203 831.4343434343433,297.4545454545456 821.8989898989898,306.9898989898991 812.3636363636363,316.5252525252526 802.8282828282828,326.06060606060623 793.2929292929292,335.5959595959597 783.7575757575758,345.1313131313133 774.2222222222222,354.66666666666674 764.6868686868686,364.2020202020203 755.1515151515151,373.73737373737384 745.6161616161615,383.27272727272737 736.0808080808081,392.80808080808094 726.5454545454545,402.3434343434344 717.0101010101009,411.87878787878793 707.4747474747475,421.4141414141415 697.9393939393939,430.94949494949503 688.4040404040404,440.4848484848486 678.8686868686868,450.0202020202021 669.3333333333333,459.5555555555556 659.7979797979798,469.0909090909092 650.2626262626262,478.6262626262627 640.7272727272727,488.1616161616163 631.1919191919192,497.69696969696975 621.6565656565656,507.23232323232327 612.1212121212121,516.7676767676768" fill="none" stroke="rgba(255,0,0,0.75)" stroke-width="14.159999999999995"/></g><g><polyline data-points="1.0606060606060617,-0.05050505050505001 0.9595959595959602,-0.15151515151515066 0.8585858585858596,-0.2525252525252522 0.7575757575757579,-0.35353535353535287 0.6565656565656574,-0.4545454545454544 0.5555555555555567,-0.555555555555555 0.4545454545454551,-0.6565656565656557 0.3535353535353544,-0.7575757575757572 0.2525252525252529,-0.8585858585858579 0.1515151515151522,-0.9595959595959596 0.050505050505051545,-1.0606060606060603 -0.05050505050505001,-1.1616161616161613 -0.15151515151515066,-1.2626262626262625 -0.2525252525252522,-1.363636363636363 -0.35353535353535287,-1.4646464646464643 -0.4545454545454544,-1.5656565656565653 -0.555555555555555,-1.6666666666666665 -0.6565656565656557,-1.7676767676767675 -0.7575757575757572,-1.8686868686868683 -0.8585858585858579,-1.9696969696969693 -0.9595959595959596,-2.07070707070707 -1.0606060606060603,-2.1717171717171713 -1.1616161616161613,-2.2727272727272725 -1.2626262626262625,-2.3737373737373733 -1.363636363636363,-2.3737373737373733 -1.4646464646464643,-2.3737373737373733 -1.5656565656565653,-2.3737373737373733 -1.6666666666666665,-2.3737373737373733 -1.7676767676767675,-2.3737373737373733 -1.8686868686868683,-2.3737373737373733 -1.9696969696969693,-2.3737373737373733 -2.07070707070707,-2.3737373737373733 -2.1717171717171713,-2.3737373737373733 -2.2727272727272725,-2.3737373737373733 -2.3737373737373733,-2.3737373737373733 -2.474747474747474,-2.3737373737373733 -2.5757575757575752,-2.3737373737373733 -2.6767676767676765,-2.3737373737373733 -2.7777777777777777,-2.3737373737373733 -2.8787878787878785,-2.3737373737373733 -2.9797979797979792,-2.3737373737373733 -3.0808080808080804,-2.3737373737373733 -3.1818181818181817,-2.3737373737373733 -3.2828282828282824,-2.3737373737373733 -3.383838383838383,-2.3737373737373733" data-type="line" data-label="" points="612.1212121212121,516.7676767676768 602.5858585858585,526.3030303030304 593.0505050505051,535.838383838384 583.5151515151515,545.3737373737374 573.9797979797979,554.909090909091 564.4444444444445,564.4444444444445 554.9090909090909,573.979797979798 545.3737373737374,583.5151515151516 535.8383838383838,593.0505050505051 526.3030303030303,602.5858585858587 516.7676767676768,612.1212121212121 507.2323232323232,621.6565656565657 497.69696969696975,631.1919191919193 488.16161616161617,640.7272727272727 478.62626262626264,650.2626262626263 469.09090909090907,659.7979797979798 459.55555555555554,669.3333333333334 450.0202020202021,678.8686868686868 440.4848484848485,688.4040404040404 430.949494949495,697.939393939394 421.4141414141414,707.4747474747475 411.8787878787879,717.010101010101 402.34343434343435,726.5454545454545 392.80808080808083,736.0808080808081 383.2727272727273,736.0808080808081 373.7373737373738,736.0808080808081 364.2020202020202,736.0808080808081 354.6666666666667,736.0808080808081 345.13131313131316,736.0808080808081 335.59595959595964,736.0808080808081 326.0606060606061,736.0808080808081 316.5252525252526,736.0808080808081 306.9898989898991,736.0808080808081 297.4545454545455,736.0808080808081 287.91919191919203,736.0808080808081 278.38383838383845,736.0808080808081 268.84848484848493,736.0808080808081 259.3131313131314,736.0808080808081 249.77777777777783,736.0808080808081 240.2424242424243,736.0808080808081 230.70707070707084,736.0808080808081 221.17171717171726,736.0808080808081 211.63636363636374,736.0808080808081 202.10101010101022,736.0808080808081 192.5656565656567,736.0808080808081" fill="none" stroke="rgba(0,0,255,0.75)" stroke-width="14.159999999999995"/></g><g><polyline data-points="-3.383838383838383,-2.3737373737373733 -3.484848484848485,-2.3737373737373733 -3.5858585858585856,-2.3737373737373733 -3.6868686868686864,-2.3737373737373733 -3.7878787878787876,-2.3737373737373733 -3.8888888888888884,-2.3737373737373733 -3.98989898989899,-2.3737373737373733 -4.090909090909091,-2.3737373737373733 -4.191919191919193,-2.3737373737373733 -4.292929292929293,-2.3737373737373733 -4.393939393939394,-2.3737373737373733 -4.494949494949496,-2.3737373737373733 -4.595959595959596,-2.3737373737373733 -4.696969696969697,-2.3737373737373733 -4.7979797979797985,-2.3737373737373733 -4.898989898989899,-2.3737373737373733 -5.000000000000001,-2.3737373737373733" data-type="line" data-label="" points="192.5656565656567,736.0808080808081 183.03030303030312,736.0808080808081 173.4949494949496,736.0808080808081 163.95959595959607,736.0808080808081 154.42424242424255,736.0808080808081 144.88888888888903,736.0808080808081 135.35353535353545,736.0808080808081 125.81818181818193,736.0808080808081 116.28282828282829,736.0808080808081 106.74747474747483,736.0808080808081 97.21212121212136,736.0808080808081 87.67676767676772,736.0808080808081 78.14141414141426,736.0808080808081 68.60606060606068,736.0808080808081 59.07070707070716,736.0808080808081 49.53535353535369,736.0808080808081 40.00000000000006,736.0808080808081" fill="none" stroke="rgba(255,0,0,0.75)" stroke-width="14.159999999999995"/></g><g><polyline data-points="-2.9797979797979792,-5.000000000000001 -2.9797979797979792,-4.898989898989899 -2.9797979797979792,-4.7979797979797985 -2.9797979797979792,-4.696969696969697 -2.9797979797979792,-4.595959595959596 -2.9797979797979792,-4.494949494949496 -2.9797979797979792,-4.393939393939394 -2.9797979797979792,-4.292929292929293 -2.9797979797979792,-4.191919191919193 -2.9797979797979792,-4.090909090909091 -2.9797979797979792,-3.98989898989899 -2.9797979797979792,-3.8888888888888884 -2.9797979797979792,-3.7878787878787876 -2.9797979797979792,-3.6868686868686864 -2.9797979797979792,-3.5858585858585856 -2.9797979797979792,-3.484848484848485 -2.9797979797979792,-3.383838383838383 -2.9797979797979792,-3.2828282828282824 -2.9797979797979792,-3.1818181818181817 -2.9797979797979792,-3.0808080808080804" data-type="line" data-label="" points="230.70707070707084,984 230.70707070707084,974.4646464646464 230.70707070707084,964.9292929292928 230.70707070707084,955.3939393939394 230.70707070707084,945.8585858585858 230.70707070707084,936.3232323232323 230.70707070707084,926.7878787878788 230.70707070707084,917.2525252525252 230.70707070707084,907.7171717171718 230.70707070707084,898.1818181818181 230.70707070707084,888.6464646464647 230.70707070707084,879.1111111111111 230.70707070707084,869.5757575757575 230.70707070707084,860.0404040404039 230.70707070707084,850.5050505050505 230.70707070707084,840.969696969697 230.70707070707084,831.4343434343434 230.70707070707084,821.8989898989898 230.70707070707084,812.3636363636363 230.70707070707084,802.8282828282828" fill="none" stroke="rgba(0,0,255,0.75)" stroke-width="14.159999999999995"/></g><g><polyline data-points="-2.9797979797979792,-3.0808080808080804 -2.9797979797979792,-2.9797979797979792 -2.9797979797979792,-2.8787878787878785 -2.9797979797979792,-2.7777777777777777 -2.9797979797979792,-2.6767676767676765 -2.9797979797979792,-2.5757575757575752 -2.9797979797979792,-2.474747474747474 -2.8787878787878785,-2.3737373737373733 -2.9797979797979792,-2.2727272727272725 -2.9797979797979792,-2.1717171717171713 -3.0808080808080804,-2.07070707070707 -3.1818181818181817,-1.9696969696969693 -3.2828282828282824,-1.8686868686868683 -3.383838383838383,-1.7676767676767675 -3.484848484848485,-1.6666666666666665 -3.5858585858585856,-1.5656565656565653 -3.6868686868686864,-1.4646464646464643 -3.7878787878787876,-1.363636363636363 -3.8888888888888884,-1.2626262626262625 -3.98989898989899,-1.1616161616161613 -3.98989898989899,-1.0606060606060603 -3.98989898989899,-0.9595959595959596 -3.98989898989899,-0.8585858585858579 -3.98989898989899,-0.7575757575757572 -3.98989898989899,-0.6565656565656557 -3.98989898989899,-0.555555555555555 -3.98989898989899,-0.4545454545454544 -3.98989898989899,-0.35353535353535287 -3.98989898989899,-0.2525252525252522 -3.98989898989899,-0.15151515151515066 -3.98989898989899,-0.05050505050505001 -3.98989898989899,0.050505050505051545 -3.98989898989899,0.1515151515151522 -3.98989898989899,0.2525252525252529 -3.98989898989899,0.3535353535353544 -3.98989898989899,0.4545454545454551 -3.98989898989899,0.5555555555555567 -3.98989898989899,0.6565656565656574 -3.98989898989899,0.7575757575757579 -3.98989898989899,0.8585858585858596 -3.98989898989899,0.9595959595959602 -3.98989898989899,1.0606060606060617 -3.98989898989899,1.1616161616161622 -3.98989898989899,1.262626262626263 -3.98989898989899,1.3636363636363644 -3.98989898989899,1.4646464646464652 -3.98989898989899,1.5656565656565666 -3.98989898989899,1.6666666666666674 -3.98989898989899,1.767676767676768 -3.98989898989899,1.8686868686868696 -3.98989898989899,1.9696969696969702 -3.98989898989899,2.070707070707072 -3.98989898989899,2.1717171717171726 -3.98989898989899,2.2727272727272734 -3.98989898989899,2.373737373737375 -3.98989898989899,2.4747474747474754 -3.98989898989899,2.575757575757577 -3.98989898989899,2.676767676767678 -3.98989898989899,2.7777777777777786 -3.98989898989899,2.87878787878788 -3.98989898989899,2.9797979797979806 -3.98989898989899,3.080808080808082 -3.98989898989899,3.181818181818183 -3.98989898989899,3.2828282828282833 -3.98989898989899,3.383838383838384" data-type="line" data-label="" points="230.70707070707084,802.8282828282828 230.70707070707084,793.2929292929292 230.70707070707084,783.7575757575758 230.70707070707084,774.2222222222222 230.70707070707084,764.6868686868687 230.70707070707084,755.1515151515151 230.70707070707084,745.6161616161615 240.2424242424243,736.0808080808081 230.70707070707084,726.5454545454545 230.70707070707084,717.010101010101 221.17171717171726,707.4747474747475 211.63636363636374,697.939393939394 202.10101010101022,688.4040404040404 192.5656565656567,678.8686868686868 183.03030303030312,669.3333333333334 173.4949494949496,659.7979797979798 163.95959595959607,650.2626262626263 154.42424242424255,640.7272727272727 144.88888888888903,631.1919191919193 135.35353535353545,621.6565656565657 135.35353535353545,612.1212121212121 135.35353535353545,602.5858585858587 135.35353535353545,593.0505050505051 135.35353535353545,583.5151515151516 135.35353535353545,573.979797979798 135.35353535353545,564.4444444444445 135.35353535353545,554.909090909091 135.35353535353545,545.3737373737374 135.35353535353545,535.838383838384 135.35353535353545,526.3030303030304 135.35353535353545,516.7676767676768 135.35353535353545,507.23232323232327 135.35353535353545,497.69696969696975 135.35353535353545,488.1616161616163 135.35353535353545,478.6262626262627 135.35353535353545,469.0909090909092 135.35353535353545,459.5555555555556 135.35353535353545,450.0202020202021 135.35353535353545,440.4848484848486 135.35353535353545,430.94949494949503 135.35353535353545,421.4141414141415 135.35353535353545,411.87878787878793 135.35353535353545,402.3434343434344 135.35353535353545,392.80808080808094 135.35353535353545,383.27272727272737 135.35353535353545,373.73737373737384 135.35353535353545,364.2020202020203 135.35353535353545,354.66666666666674 135.35353535353545,345.1313131313133 135.35353535353545,335.5959595959597 135.35353535353545,326.06060606060623 135.35353535353545,316.5252525252526 135.35353535353545,306.9898989898991 135.35353535353545,297.4545454545456 135.35353535353545,287.91919191919203 135.35353535353545,278.38383838383857 135.35353535353545,268.84848484848493 135.35353535353545,259.3131313131314 135.35353535353545,249.77777777777794 135.35353535353545,240.24242424242436 135.35353535353545,230.70707070707084 135.35353535353545,221.17171717171726 135.35353535353545,211.63636363636374 135.35353535353545,202.10101010101027 135.35353535353545,192.56565656565675" fill="none" stroke="rgba(255,0,0,0.75)" stroke-width="14.159999999999995"/></g><g><polyline data-points="-3.98989898989899,3.383838383838384 -3.98989898989899,3.4848484848484866 -3.98989898989899,3.5858585858585874 -3.98989898989899,3.6868686868686877 -3.98989898989899,3.7878787878787885 -3.98989898989899,3.8888888888888893 -3.98989898989899,3.989898989898992 -3.98989898989899,4.090909090909092 -3.98989898989899,4.191919191919193 -3.98989898989899,4.292929292929293 -3.98989898989899,4.393939393939394 -3.98989898989899,4.494949494949497 -3.98989898989899,4.595959595959597 -3.98989898989899,4.696969696969697 -3.98989898989899,4.7979797979797985 -3.98989898989899,4.898989898989901 -3.98989898989899,5.000000000000002" data-type="line" data-label="" points="135.35353535353545,192.56565656565675 135.35353535353545,183.03030303030312 135.35353535353545,173.4949494949496 135.35353535353545,163.95959595959613 135.35353535353545,154.4242424242426 135.35353535353545,144.88888888888908 135.35353535353545,135.35353535353545 135.35353535353545,125.81818181818198 135.35353535353545,116.28282828282846 135.35353535353545,106.747474747475 135.35353535353545,97.21212121212153 135.35353535353545,87.67676767676778 135.35353535353545,78.14141414141432 135.35353535353545,68.60606060606085 135.35353535353545,59.07070707070733 135.35353535353545,49.53535353535369 135.35353535353545,40.000000000000114" fill="none" stroke="rgba(0,0,255,0.75)" stroke-width="14.159999999999995"/></g><g><rect data-type="rect" data-label="" data-x="0" data-y="0" x="40.000000000000114" y="40.000000000000284" width="943.9999999999997" height="943.9999999999998" fill="none" stroke="gray" stroke-width="0.010593220338983056"/></g><g><rect data-type="rect" data-label="" data-x="0" data-y="0" x="40.000000000000114" y="40.000000000000284" width="943.9999999999997" height="943.9999999999998" fill="none" stroke="rgba(15, 23, 42, 0.8)" stroke-width="0.010593220338983056"/></g><circle data-type="circle" data-label="" data-x="1.262626262626263" data-y="-3.98989898989899" cx="631.1919191919192" cy="888.6464646464647" r="28.791999999999987" fill="rgba(0,0,0,0.3)" stroke="black" stroke-width="0.010593220338983056"/><circle data-type="circle" data-label="" data-x="-3.98989898989899" data-y="-3.7878787878787876" cx="135.35353535353545" cy="869.5757575757575" r="28.791999999999987" fill="rgba(0,0,0,0.3)" stroke="black" stroke-width="0.010593220338983056"/><circle data-type="circle" data-label="" data-x="3.8888888888888893" data-y="3.989898989898992" cx="879.111111111111" cy="135.35353535353545" r="28.791999999999987" fill="rgba(0,0,0,0.3)" stroke="black" stroke-width="0.010593220338983056"/><circle data-type="circle" data-label="" data-x="-1.4646464646464643" data-y="0.8585858585858596" cx="373.7373737373738" cy="430.94949494949503" r="28.791999999999987" fill="rgba(0,0,0,0.3)" stroke="black" stroke-width="0.010593220338983056"/><circle data-type="circle" data-label="" data-x="-1.4646464646464643" data-y="2.4747474747474754" cx="373.7373737373738" cy="278.38383838383857" r="28.791999999999987" fill="rgba(0,0,0,0.3)" stroke="black" stroke-width="0.010593220338983056"/><circle data-type="circle" data-label="" data-x="-1.5656565656565653" data-y="3.989898989898992" cx="364.2020202020202" cy="135.35353535353545" r="28.791999999999987" fill="rgba(0,0,0,0.3)" stroke="black" stroke-width="0.010593220338983056"/><circle data-type="circle" data-label="" data-x="-3.0808080808080804" data-y="2.4747474747474754" cx="221.17171717171726" cy="278.38383838383857" r="28.791999999999987" fill="rgba(0,0,0,0.3)" stroke="black" stroke-width="0.010593220338983056"/><circle data-type="circle" data-label="" data-x="-1.4646464646464643" data-y="-3.98989898989899" cx="373.7373737373738" cy="888.6464646464647" r="28.791999999999987" fill="rgba(0,0,0,0.3)" stroke="black" stroke-width="0.010593220338983056"/><circle data-type="circle" data-label="" data-x="1.0606060606060617" data-y="-0.05050505050505001" cx="612.1212121212121" cy="516.7676767676768" r="28.791999999999987" fill="rgba(0,0,0,0.3)" stroke="black" stroke-width="0.010593220338983056"/><circle data-type="circle" data-label="" data-x="-3.383838383838383" data-y="-2.3737373737373733" cx="192.5656565656567" cy="736.0808080808081" r="28.791999999999987" fill="rgba(0,0,0,0.3)" stroke="black" stroke-width="0.010593220338983056"/><circle data-type="circle" data-label="" data-x="-2.9797979797979792" data-y="-3.0808080808080804" cx="230.70707070707084" cy="802.8282828282828" r="28.791999999999987" fill="rgba(0,0,0,0.3)" stroke="black" stroke-width="0.010593220338983056"/><circle data-type="circle" data-label="" data-x="-3.98989898989899" data-y="3.383838383838384" cx="135.35353535353545" cy="192.56565656565675" r="28.791999999999987" fill="rgba(0,0,0,0.3)" stroke="black" stroke-width="0.010593220338983056"/><g id="crosshair" style="display: none"><line id="crosshair-h" y1="0" y2="1024" stroke="#666" stroke-width="0.5"/><line id="crosshair-v" x1="0" x2="1024" stroke="#666" stroke-width="0.5"/><text id="coordinates" font-family="monospace" font-size="12" fill="#666"></text></g><script><![CDATA[
              document.currentScript.parentElement.addEventListener('mousemove', (e) => {
                const svg = e.currentTarget;
                const rect = svg.getBoundingClientRect();
                const x = e.clientX - rect.left;
                const y = e.clientY - rect.top;
                const crosshair = svg.getElementById('crosshair');
                const h = svg.getElementById('crosshair-h');
                const v = svg.getElementById('crosshair-v');
                const coords = svg.getElementById('coordinates');
                
                crosshair.style.display = 'block';
                h.setAttribute('x1', '0');
                h.setAttribute('x2', '1024');
                h.setAttribute('y1', y);
                h.setAttribute('y2', y);
                v.setAttribute('x1', x);
                v.setAttribute('x2', x);
                v.setAttribute('y1', '0');
                v.setAttribute('y2', '1024');

                // Calculate real coordinates using inverse transformation
                const matrix = {"a":94.39999999999996,"c":0,"e":511.99999999999994,"b":0,"d":-94.39999999999996,"f":512.0000000000001};
                // Manually invert and apply the affine transform
                // Since we only use translate and scale, we can directly compute:
                // x' = (x - tx) / sx
                // y' = (y - ty) / sy
                const sx = matrix.a;
                const sy = matrix.d;
                const tx = matrix.e; 
                const ty = matrix.f;
                const realPoint = {
                  x: (x - tx) / sx,
                  y: (y - ty) / sy // Flip y back since we used negative scale
                }
                
                coords.textContent = `(${realPoint.x.toFixed(2)}, ${realPoint.y.toFixed(2)})`;
                coords.setAttribute('x', (x + 5).toString());
                coords.setAttribute('y', (y - 5).toString());
              });
              document.currentScript.parentElement.addEventListener('mouseleave', () => {
                document.currentScript.parentElement.getElementById('crosshair').style.display = 'none';
              });
            ]]></script></svg>