<svg width="1024" height="1024" viewBox="0 0 1024 1024" xmlns="http://www.w3.org/2000/svg"><rect width="100%" height="100%" fill="white"/><g><circle data-type="point" data-label="conn_000" data-x="5" data-y="0.6" cx="983.9999999999998" cy="455.3600000000001" r="28.792" fill="red" stroke="#3bbd0f" stroke-width="28.792"/></g><g><circle data-type="point" data-label="conn_000" data-x="1.6600000000000001" data-y="5" cx="668.704" cy="40.000000000000284" r="28.792" fill="blue" stroke="#3bbd0f" stroke-width="28.792"/></g><g><circle data-type="point" data-label="conn_001" data-x="-5" data-y="0" cx="40.000000000000114" cy="512.0000000000001" r="28.792" fill="red" stroke="#170fbd" stroke-width="28.792"/></g><g><circle data-type="point" data-label="conn_001" data-x="5" data-y="-1" cx="983.9999999999998" cy="606.4000000000001" r="28.792" fill="red" stroke="#170fbd" stroke-width="28.792"/></g><g><circle data-type="point" data-label="conn_002" data-x="3.12" data-y="-5" cx="806.5279999999998" cy="984" r="28.792" fill="red" stroke="#bd490f" stroke-width="28.792"/></g><g><circle data-type="point" data-label="conn_002" data-x="-1.7" data-y="5" cx="351.52" cy="40.000000000000284" r="28.792" fill="red" stroke="#bd490f" stroke-width="28.792"/></g><g><circle data-type="point" data-label="conn_003" data-x="-5" data-y="-4.34" cx="40.000000000000114" cy="921.6959999999999" r="28.792" fill="blue" stroke="#0fbd7c" stroke-width="28.792"/></g><g><circle data-type="point" data-label="conn_003" data-x="-3.84" data-y="5" cx="149.50400000000008" cy="40.000000000000284" r="28.792" fill="blue" stroke="#0fbd7c" stroke-width="28.792"/></g><g><circle data-type="point" data-label="conn_004" data-x="5" data-y="-1.86" cx="983.9999999999998" cy="687.5840000000001" r="28.792" fill="red" stroke="#ae0fbd" stroke-width="28.792"/></g><g><circle data-type="point" data-label="conn_004" data-x="-3.12" data-y="5" cx="217.47200000000004" cy="40.000000000000284" r="28.792" fill="blue" stroke="#ae0fbd" stroke-width="28.792"/></g><g><circle data-type="point" data-label="conn_005" data-x="-5" data-y="-1.36" cx="40.000000000000114" cy="640.384" r="28.792" fill="blue" stroke="#98bd0f" stroke-width="28.792"/></g><g><circle data-type="point" data-label="conn_005" data-x="2.7600000000000002" data-y="5" cx="772.5439999999999" cy="40.000000000000284" r="28.792" fill="blue" stroke="#98bd0f" stroke-width="28.792"/></g><g><circle data-type="point" data-label="conn_006" data-x="5" data-y="-3.7800000000000002" cx="983.9999999999998" cy="868.832" r="28.792" fill="red" stroke="#0f66bd" stroke-width="28.792"/></g><g><circle data-type="point" data-label="conn_006" data-x="-3.9" data-y="-5" cx="143.8400000000001" cy="984" r="28.792" fill="blue" stroke="#0f66bd" stroke-width="28.792"/></g><g><polyline data-points="5.000000000000002,-3.7878787878787876 4.898989898989901,-3.8888888888888884 4.7979797979797985,-3.98989898989899 4.696969696969697,-3.98989898989899 4.595959595959597,-3.98989898989899 4.494949494949497,-3.98989898989899 4.393939393939394,-3.98989898989899 4.292929292929293,-3.98989898989899 4.191919191919193,-3.98989898989899 4.090909090909092,-3.98989898989899 3.989898989898992,-3.98989898989899 3.8888888888888893,-3.98989898989899 3.7878787878787885,-3.98989898989899 3.6868686868686877,-3.98989898989899 3.5858585858585874,-3.98989898989899 3.4848484848484866,-3.98989898989899 3.383838383838384,-3.98989898989899 3.2828282828282833,-3.98989898989899 3.181818181818183,-3.98989898989899 3.080808080808082,-3.98989898989899 2.9797979797979806,-3.98989898989899 2.87878787878788,-3.98989898989899 2.7777777777777786,-3.98989898989899 2.676767676767678,-3.98989898989899 2.575757575757577,-3.98989898989899 2.4747474747474754,-3.98989898989899 2.373737373737375,-3.98989898989899 2.2727272727272734,-3.98989898989899 2.1717171717171726,-3.98989898989899 2.070707070707072,-3.98989898989899 1.9696969696969702,-3.98989898989899 1.8686868686868696,-3.98989898989899 1.767676767676768,-3.98989898989899 1.6666666666666674,-3.98989898989899 1.5656565656565666,-3.98989898989899 1.4646464646464652,-3.98989898989899 1.3636363636363644,-3.98989898989899 1.262626262626263,-3.98989898989899 1.1616161616161622,-3.98989898989899 1.0606060606060617,-3.98989898989899 0.9595959595959602,-3.98989898989899 0.8585858585858596,-3.98989898989899 0.7575757575757579,-3.98989898989899 0.6565656565656574,-3.98989898989899 0.5555555555555567,-3.98989898989899 0.4545454545454551,-3.98989898989899 0.3535353535353544,-3.98989898989899 0.2525252525252529,-3.98989898989899 0.1515151515151522,-3.98989898989899 0.050505050505051545,-3.98989898989899 -0.05050505050505001,-3.98989898989899 -0.15151515151515066,-3.98989898989899 -0.2525252525252522,-3.98989898989899 -0.35353535353535287,-3.98989898989899 -0.4545454545454544,-3.98989898989899 -0.555555555555555,-3.98989898989899 -0.6565656565656557,-3.98989898989899 -0.7575757575757572,-3.98989898989899 -0.8585858585858579,-3.98989898989899 -0.9595959595959596,-3.98989898989899 -1.0606060606060603,-3.98989898989899 -1.1616161616161613,-3.98989898989899 -1.2626262626262625,-3.98989898989899 -1.363636363636363,-3.98989898989899 -1.4646464646464643,-3.98989898989899 -1.5656565656565653,-3.98989898989899 -1.6666666666666665,-3.98989898989899 -1.7676767676767675,-3.98989898989899 -1.8686868686868683,-3.98989898989899 -1.9696969696969693,-3.98989898989899 -2.07070707070707,-3.98989898989899 -2.1717171717171713,-3.98989898989899 -2.2727272727272725,-3.98989898989899 -2.3737373737373733,-3.98989898989899 -2.474747474747474,-3.98989898989899 -2.5757575757575752,-3.98989898989899 -2.6767676767676765,-3.98989898989899 -2.7777777777777777,-3.98989898989899 -2.8787878787878785,-3.98989898989899 -2.9797979797979792,-3.98989898989899 -3.0808080808080804,-3.98989898989899 -3.1818181818181817,-3.98989898989899 -3.2828282828282824,-3.98989898989899 -3.383838383838383,-3.98989898989899 -3.484848484848485,-3.98989898989899 -3.5858585858585856,-3.98989898989899 -3.6868686868686864,-3.98989898989899" data-type="line" data-label="" points="984,869.5757575757575 974.4646464646464,879.1111111111111 964.9292929292927,888.6464646464647 955.3939393939393,888.6464646464647 945.8585858585857,888.6464646464647 936.3232323232323,888.6464646464647 926.7878787878785,888.6464646464647 917.2525252525251,888.6464646464647 907.7171717171716,888.6464646464647 898.181818181818,888.6464646464647 888.6464646464647,888.6464646464647 879.111111111111,888.6464646464647 869.5757575757575,888.6464646464647 860.0404040404039,888.6464646464647 850.5050505050505,888.6464646464647 840.969696969697,888.6464646464647 831.4343434343433,888.6464646464647 821.8989898989898,888.6464646464647 812.3636363636363,888.6464646464647 802.8282828282828,888.6464646464647 793.2929292929292,888.6464646464647 783.7575757575758,888.6464646464647 774.2222222222222,888.6464646464647 764.6868686868686,888.6464646464647 755.1515151515151,888.6464646464647 745.6161616161615,888.6464646464647 736.0808080808081,888.6464646464647 726.5454545454545,888.6464646464647 717.0101010101009,888.6464646464647 707.4747474747475,888.6464646464647 697.9393939393939,888.6464646464647 688.4040404040404,888.6464646464647 678.8686868686868,888.6464646464647 669.3333333333333,888.6464646464647 659.7979797979798,888.6464646464647 650.2626262626262,888.6464646464647 640.7272727272727,888.6464646464647 631.1919191919192,888.6464646464647 621.6565656565656,888.6464646464647 612.1212121212121,888.6464646464647 602.5858585858585,888.6464646464647 593.0505050505051,888.6464646464647 583.5151515151515,888.6464646464647 573.9797979797979,888.6464646464647 564.4444444444445,888.6464646464647 554.9090909090909,888.6464646464647 545.3737373737374,888.6464646464647 535.8383838383838,888.6464646464647 526.3030303030303,888.6464646464647 516.7676767676768,888.6464646464647 507.2323232323232,888.6464646464647 497.69696969696975,888.6464646464647 488.16161616161617,888.6464646464647 478.62626262626264,888.6464646464647 469.09090909090907,888.6464646464647 459.55555555555554,888.6464646464647 450.0202020202021,888.6464646464647 440.4848484848485,888.6464646464647 430.949494949495,888.6464646464647 421.4141414141414,888.6464646464647 411.8787878787879,888.6464646464647 402.34343434343435,888.6464646464647 392.80808080808083,888.6464646464647 383.2727272727273,888.6464646464647 373.7373737373738,888.6464646464647 364.2020202020202,888.6464646464647 354.6666666666667,888.6464646464647 345.13131313131316,888.6464646464647 335.59595959595964,888.6464646464647 326.0606060606061,888.6464646464647 316.5252525252526,888.6464646464647 306.9898989898991,888.6464646464647 297.4545454545455,888.6464646464647 287.91919191919203,888.6464646464647 278.38383838383845,888.6464646464647 268.84848484848493,888.6464646464647 259.3131313131314,888.6464646464647 249.77777777777783,888.6464646464647 240.2424242424243,888.6464646464647 230.70707070707084,888.6464646464647 221.17171717171726,888.6464646464647 211.63636363636374,888.6464646464647 202.10101010101022,888.6464646464647 192.5656565656567,888.6464646464647 183.03030303030312,888.6464646464647 173.4949494949496,888.6464646464647 163.95959595959607,888.6464646464647" fill="none" stroke="rgba(255,0,0,0.75)" stroke-width="14.159999999999995"/></g><g><polyline data-points="-3.6868686868686864,-3.98989898989899 -3.7878787878787876,-4.090909090909091 -3.8888888888888884,-4.191919191919193 -3.8888888888888884,-4.292929292929293 -3.8888888888888884,-4.393939393939394 -3.8888888888888884,-4.494949494949496 -3.8888888888888884,-4.595959595959596 -3.8888888888888884,-4.696969696969697 -3.8888888888888884,-4.7979797979797985 -3.8888888888888884,-4.898989898989899 -3.8888888888888884,-5.000000000000001" data-type="line" data-label="" points="163.95959595959607,888.6464646464647 154.42424242424255,898.1818181818181 144.88888888888903,907.7171717171718 144.88888888888903,917.2525252525252 144.88888888888903,926.7878787878788 144.88888888888903,936.3232323232323 144.88888888888903,945.8585858585858 144.88888888888903,955.3939393939394 144.88888888888903,964.9292929292928 144.88888888888903,974.4646464646464 144.88888888888903,984" fill="none" stroke="rgba(0,0,255,0.75)" stroke-width="14.159999999999995"/></g><g><polyline data-points="-5.000000000000001,0.050505050505051545 -4.898989898989899,-0.05050505050505001 -4.7979797979797985,-0.15151515151515066 -4.696969696969697,-0.2525252525252522 -4.595959595959596,-0.35353535353535287 -4.494949494949496,-0.4545454545454544 -4.393939393939394,-0.555555555555555 -4.292929292929293,-0.6565656565656557 -4.191919191919193,-0.7575757575757572 -4.090909090909091,-0.8585858585858579 -3.98989898989899,-0.9595959595959596 -3.8888888888888884,-0.9595959595959596 -3.7878787878787876,-0.9595959595959596 -3.6868686868686864,-0.9595959595959596 -3.5858585858585856,-0.9595959595959596 -3.484848484848485,-0.9595959595959596 -3.383838383838383,-0.9595959595959596 -3.2828282828282824,-0.9595959595959596 -3.1818181818181817,-0.9595959595959596 -3.0808080808080804,-0.9595959595959596 -2.9797979797979792,-0.9595959595959596 -2.8787878787878785,-0.9595959595959596 -2.7777777777777777,-0.9595959595959596 -2.6767676767676765,-0.9595959595959596 -2.5757575757575752,-0.9595959595959596 -2.474747474747474,-0.9595959595959596 -2.3737373737373733,-0.9595959595959596 -2.2727272727272725,-0.9595959595959596 -2.1717171717171713,-0.9595959595959596 -2.07070707070707,-0.9595959595959596 -1.9696969696969693,-0.9595959595959596 -1.8686868686868683,-0.9595959595959596 -1.7676767676767675,-0.9595959595959596 -1.6666666666666665,-0.9595959595959596 -1.5656565656565653,-0.9595959595959596 -1.4646464646464643,-0.9595959595959596 -1.363636363636363,-0.9595959595959596 -1.2626262626262625,-0.9595959595959596 -1.1616161616161613,-0.9595959595959596 -1.0606060606060603,-0.9595959595959596 -0.9595959595959596,-0.9595959595959596 -0.8585858585858579,-0.9595959595959596 -0.7575757575757572,-0.9595959595959596 -0.6565656565656557,-0.9595959595959596 -0.555555555555555,-0.9595959595959596 -0.4545454545454544,-0.9595959595959596 -0.35353535353535287,-0.9595959595959596 -0.2525252525252522,-0.9595959595959596 -0.15151515151515066,-0.9595959595959596 -0.05050505050505001,-0.9595959595959596 0.050505050505051545,-0.9595959595959596 0.1515151515151522,-0.9595959595959596 0.2525252525252529,-0.9595959595959596 0.3535353535353544,-0.9595959595959596 0.4545454545454551,-0.9595959595959596 0.5555555555555567,-0.9595959595959596 0.6565656565656574,-0.9595959595959596 0.7575757575757579,-0.9595959595959596 0.8585858585858596,-0.9595959595959596 0.9595959595959602,-0.9595959595959596 1.0606060606060617,-0.9595959595959596 1.1616161616161622,-0.9595959595959596 1.262626262626263,-0.9595959595959596 1.3636363636363644,-0.9595959595959596 1.4646464646464652,-0.9595959595959596 1.5656565656565666,-0.9595959595959596 1.6666666666666674,-0.9595959595959596 1.767676767676768,-0.9595959595959596 1.8686868686868696,-0.9595959595959596 1.9696969696969702,-0.9595959595959596 2.070707070707072,-0.9595959595959596 2.1717171717171726,-0.9595959595959596 2.2727272727272734,-0.9595959595959596 2.373737373737375,-0.9595959595959596 2.4747474747474754,-0.9595959595959596 2.575757575757577,-0.9595959595959596 2.676767676767678,-0.9595959595959596 2.7777777777777786,-0.9595959595959596 2.87878787878788,-0.9595959595959596 2.9797979797979806,-0.9595959595959596 3.080808080808082,-0.9595959595959596 3.181818181818183,-0.9595959595959596 3.2828282828282833,-0.9595959595959596 3.383838383838384,-0.9595959595959596 3.4848484848484866,-0.9595959595959596 3.5858585858585874,-0.9595959595959596 3.6868686868686877,-0.9595959595959596 3.7878787878787885,-0.9595959595959596 3.8888888888888893,-0.9595959595959596 3.989898989898992,-0.9595959595959596 4.090909090909092,-0.9595959595959596 4.191919191919193,-0.9595959595959596 4.292929292929293,-0.9595959595959596 4.393939393939394,-0.9595959595959596 4.494949494949497,-0.9595959595959596 4.595959595959597,-0.9595959595959596 4.696969696969697,-0.9595959595959596 4.7979797979797985,-0.9595959595959596 4.898989898989901,-0.9595959595959596 5.000000000000002,-0.9595959595959596" data-type="line" data-label="" points="40.00000000000006,507.23232323232327 49.53535353535369,516.7676767676768 59.07070707070716,526.3030303030304 68.60606060606068,535.838383838384 78.14141414141426,545.3737373737374 87.67676767676772,554.909090909091 97.21212121212136,564.4444444444445 106.74747474747483,573.979797979798 116.28282828282829,583.5151515151516 125.81818181818193,593.0505050505051 135.35353535353545,602.5858585858587 144.88888888888903,602.5858585858587 154.42424242424255,602.5858585858587 163.95959595959607,602.5858585858587 173.4949494949496,602.5858585858587 183.03030303030312,602.5858585858587 192.5656565656567,602.5858585858587 202.10101010101022,602.5858585858587 211.63636363636374,602.5858585858587 221.17171717171726,602.5858585858587 230.70707070707084,602.5858585858587 240.2424242424243,602.5858585858587 249.77777777777783,602.5858585858587 259.3131313131314,602.5858585858587 268.84848484848493,602.5858585858587 278.38383838383845,602.5858585858587 287.91919191919203,602.5858585858587 297.4545454545455,602.5858585858587 306.9898989898991,602.5858585858587 316.5252525252526,602.5858585858587 326.0606060606061,602.5858585858587 335.59595959595964,602.5858585858587 345.13131313131316,602.5858585858587 354.6666666666667,602.5858585858587 364.2020202020202,602.5858585858587 373.7373737373738,602.5858585858587 383.2727272727273,602.5858585858587 392.80808080808083,602.5858585858587 402.34343434343435,602.5858585858587 411.8787878787879,602.5858585858587 421.4141414141414,602.5858585858587 430.949494949495,602.5858585858587 440.4848484848485,602.5858585858587 450.0202020202021,602.5858585858587 459.55555555555554,602.5858585858587 469.09090909090907,602.5858585858587 478.62626262626264,602.5858585858587 488.16161616161617,602.5858585858587 497.69696969696975,602.5858585858587 507.2323232323232,602.5858585858587 516.7676767676768,602.5858585858587 526.3030303030303,602.5858585858587 535.8383838383838,602.5858585858587 545.3737373737374,602.5858585858587 554.9090909090909,602.5858585858587 564.4444444444445,602.5858585858587 573.9797979797979,602.5858585858587 583.5151515151515,602.5858585858587 593.0505050505051,602.5858585858587 602.5858585858585,602.5858585858587 612.1212121212121,602.5858585858587 621.6565656565656,602.5858585858587 631.1919191919192,602.5858585858587 640.7272727272727,602.5858585858587 650.2626262626262,602.5858585858587 659.7979797979798,602.5858585858587 669.3333333333333,602.5858585858587 678.8686868686868,602.5858585858587 688.4040404040404,602.5858585858587 697.9393939393939,602.5858585858587 707.4747474747475,602.5858585858587 717.0101010101009,602.5858585858587 726.5454545454545,602.5858585858587 736.0808080808081,602.5858585858587 745.6161616161615,602.5858585858587 755.1515151515151,602.5858585858587 764.6868686868686,602.5858585858587 774.2222222222222,602.5858585858587 783.7575757575758,602.5858585858587 793.2929292929292,602.5858585858587 802.8282828282828,602.5858585858587 812.3636363636363,602.5858585858587 821.8989898989898,602.5858585858587 831.4343434343433,602.5858585858587 840.969696969697,602.5858585858587 850.5050505050505,602.5858585858587 860.0404040404039,602.5858585858587 869.5757575757575,602.5858585858587 879.111111111111,602.5858585858587 888.6464646464647,602.5858585858587 898.181818181818,602.5858585858587 907.7171717171716,602.5858585858587 917.2525252525251,602.5858585858587 926.7878787878785,602.5858585858587 936.3232323232323,602.5858585858587 945.8585858585857,602.5858585858587 955.3939393939393,602.5858585858587 964.9292929292927,602.5858585858587 974.4646464646464,602.5858585858587 984,602.5858585858587" fill="none" stroke="rgba(255,0,0,0.75)" stroke-width="14.159999999999995"/></g><g><polyline data-points="-5.000000000000001,-4.393939393939394 -4.898989898989899,-4.292929292929293 -4.7979797979797985,-4.191919191919193 -4.696969696969697,-4.090909090909091 -4.595959595959596,-3.98989898989899 -4.494949494949496,-3.8888888888888884 -4.393939393939394,-3.7878787878787876 -4.292929292929293,-3.6868686868686864 -4.191919191919193,-3.5858585858585856 -4.090909090909091,-3.484848484848485 -3.98989898989899,-3.383838383838383 -3.8888888888888884,-3.2828282828282824 -3.8888888888888884,-3.1818181818181817 -3.8888888888888884,-3.0808080808080804 -3.8888888888888884,-2.9797979797979792 -3.8888888888888884,-2.8787878787878785 -3.8888888888888884,-2.7777777777777777 -3.8888888888888884,-2.6767676767676765 -3.8888888888888884,-2.5757575757575752 -3.8888888888888884,-2.474747474747474 -3.8888888888888884,-2.3737373737373733 -3.8888888888888884,-2.2727272727272725 -3.8888888888888884,-2.1717171717171713 -3.8888888888888884,-2.07070707070707 -3.8888888888888884,-1.9696969696969693 -3.8888888888888884,-1.8686868686868683 -3.8888888888888884,-1.7676767676767675 -3.8888888888888884,-1.6666666666666665 -3.8888888888888884,-1.5656565656565653 -3.8888888888888884,-1.4646464646464643 -3.8888888888888884,-1.363636363636363 -3.8888888888888884,-1.2626262626262625 -3.8888888888888884,-1.1616161616161613 -3.8888888888888884,-1.0606060606060603 -3.7878787878787876,-0.9595959595959596 -3.6868686868686864,-0.8585858585858579 -3.5858585858585856,-0.7575757575757572 -3.484848484848485,-0.6565656565656557 -3.383838383838383,-0.555555555555555 -3.2828282828282824,-0.4545454545454544 -3.1818181818181817,-0.35353535353535287" data-type="line" data-label="" points="40.00000000000006,926.7878787878788 49.53535353535369,917.2525252525252 59.07070707070716,907.7171717171718 68.60606060606068,898.1818181818181 78.14141414141426,888.6464646464647 87.67676767676772,879.1111111111111 97.21212121212136,869.5757575757575 106.74747474747483,860.0404040404039 116.28282828282829,850.5050505050505 125.81818181818193,840.969696969697 135.35353535353545,831.4343434343434 144.88888888888903,821.8989898989898 144.88888888888903,812.3636363636363 144.88888888888903,802.8282828282828 144.88888888888903,793.2929292929292 144.88888888888903,783.7575757575758 144.88888888888903,774.2222222222222 144.88888888888903,764.6868686868687 144.88888888888903,755.1515151515151 144.88888888888903,745.6161616161615 144.88888888888903,736.0808080808081 144.88888888888903,726.5454545454545 144.88888888888903,717.010101010101 144.88888888888903,707.4747474747475 144.88888888888903,697.939393939394 144.88888888888903,688.4040404040404 144.88888888888903,678.8686868686868 144.88888888888903,669.3333333333334 144.88888888888903,659.7979797979798 144.88888888888903,650.2626262626263 144.88888888888903,640.7272727272727 144.88888888888903,631.1919191919193 144.88888888888903,621.6565656565657 144.88888888888903,612.1212121212121 154.42424242424255,602.5858585858587 163.95959595959607,593.0505050505051 173.4949494949496,583.5151515151516 183.03030303030312,573.979797979798 192.5656565656567,564.4444444444445 202.10101010101022,554.909090909091 211.63636363636374,545.3737373737374" fill="none" stroke="rgba(0,0,255,0.75)" stroke-width="14.159999999999995"/></g><g><polyline data-points="-3.1818181818181817,-0.35353535353535287 -3.2828282828282824,-0.2525252525252522 -3.383838383838383,-0.15151515151515066 -3.484848484848485,-0.05050505050505001 -3.5858585858585856,0.050505050505051545 -3.6868686868686864,0.1515151515151522 -3.7878787878787876,0.2525252525252529 -3.8888888888888884,0.3535353535353544 -3.8888888888888884,0.4545454545454551 -3.8888888888888884,0.5555555555555567 -3.8888888888888884,0.6565656565656574 -3.8888888888888884,0.7575757575757579 -3.8888888888888884,0.8585858585858596 -3.8888888888888884,0.9595959595959602 -3.8888888888888884,1.0606060606060617 -3.8888888888888884,1.1616161616161622 -3.8888888888888884,1.262626262626263 -3.8888888888888884,1.3636363636363644 -3.8888888888888884,1.4646464646464652 -3.8888888888888884,1.5656565656565666 -3.8888888888888884,1.6666666666666674 -3.8888888888888884,1.767676767676768 -3.8888888888888884,1.8686868686868696 -3.8888888888888884,1.9696969696969702 -3.8888888888888884,2.070707070707072 -3.8888888888888884,2.1717171717171726 -3.8888888888888884,2.2727272727272734 -3.8888888888888884,2.373737373737375 -3.8888888888888884,2.4747474747474754 -3.8888888888888884,2.575757575757577 -3.8888888888888884,2.676767676767678 -3.8888888888888884,2.7777777777777786 -3.8888888888888884,2.87878787878788 -3.8888888888888884,2.9797979797979806 -3.8888888888888884,3.080808080808082 -3.8888888888888884,3.181818181818183 -3.8888888888888884,3.2828282828282833 -3.8888888888888884,3.383838383838384 -3.8888888888888884,3.4848484848484866 -3.8888888888888884,3.5858585858585874 -3.8888888888888884,3.6868686868686877 -3.8888888888888884,3.7878787878787885 -3.8888888888888884,3.8888888888888893 -3.8888888888888884,3.989898989898992" data-type="line" data-label="" points="211.63636363636374,545.3737373737374 202.10101010101022,535.838383838384 192.5656565656567,526.3030303030304 183.03030303030312,516.7676767676768 173.4949494949496,507.23232323232327 163.95959595959607,497.69696969696975 154.42424242424255,488.1616161616163 144.88888888888903,478.6262626262627 144.88888888888903,469.0909090909092 144.88888888888903,459.5555555555556 144.88888888888903,450.0202020202021 144.88888888888903,440.4848484848486 144.88888888888903,430.94949494949503 144.88888888888903,421.4141414141415 144.88888888888903,411.87878787878793 144.88888888888903,402.3434343434344 144.88888888888903,392.80808080808094 144.88888888888903,383.27272727272737 144.88888888888903,373.73737373737384 144.88888888888903,364.2020202020203 144.88888888888903,354.66666666666674 144.88888888888903,345.1313131313133 144.88888888888903,335.5959595959597 144.88888888888903,326.06060606060623 144.88888888888903,316.5252525252526 144.88888888888903,306.9898989898991 144.88888888888903,297.4545454545456 144.88888888888903,287.91919191919203 144.88888888888903,278.38383838383857 144.88888888888903,268.84848484848493 144.88888888888903,259.3131313131314 144.88888888888903,249.77777777777794 144.88888888888903,240.24242424242436 144.88888888888903,230.70707070707084 144.88888888888903,221.17171717171726 144.88888888888903,211.63636363636374 144.88888888888903,202.10101010101027 144.88888888888903,192.56565656565675 144.88888888888903,183.03030303030312 144.88888888888903,173.4949494949496 144.88888888888903,163.95959595959613 144.88888888888903,154.4242424242426 144.88888888888903,144.88888888888908 144.88888888888903,135.35353535353545" fill="none" stroke="rgba(255,0,0,0.75)" stroke-width="14.159999999999995"/></g><g><polyline data-points="-3.8888888888888884,3.989898989898992 -3.8888888888888884,4.090909090909092 -3.8888888888888884,4.191919191919193 -3.8888888888888884,4.292929292929293 -3.8888888888888884,4.393939393939394 -3.8888888888888884,4.494949494949497 -3.8888888888888884,4.595959595959597 -3.8888888888888884,4.696969696969697 -3.8888888888888884,4.7979797979797985 -3.8888888888888884,4.898989898989901 -3.8888888888888884,5.000000000000002" data-type="line" data-label="" points="144.88888888888903,135.35353535353545 144.88888888888903,125.81818181818198 144.88888888888903,116.28282828282846 144.88888888888903,106.747474747475 144.88888888888903,97.21212121212153 144.88888888888903,87.67676767676778 144.88888888888903,78.14141414141432 144.88888888888903,68.60606060606085 144.88888888888903,59.07070707070733 144.88888888888903,49.53535353535369 144.88888888888903,40.000000000000114" fill="none" stroke="rgba(0,0,255,0.75)" stroke-width="14.159999999999995"/></g><g><polyline data-points="5.000000000000002,-1.8686868686868683 4.898989898989901,-1.7676767676767675 4.7979797979797985,-1.6666666666666665 4.696969696969697,-1.5656565656565653 4.595959595959597,-1.5656565656565653 4.494949494949497,-1.5656565656565653 4.393939393939394,-1.5656565656565653 4.292929292929293,-1.5656565656565653 4.191919191919193,-1.5656565656565653 4.090909090909092,-1.5656565656565653 3.989898989898992,-1.5656565656565653 3.8888888888888893,-1.5656565656565653 3.7878787878787885,-1.5656565656565653 3.6868686868686877,-1.5656565656565653 3.5858585858585874,-1.5656565656565653 3.4848484848484866,-1.5656565656565653 3.383838383838384,-1.5656565656565653 3.2828282828282833,-1.5656565656565653 3.181818181818183,-1.5656565656565653 3.080808080808082,-1.5656565656565653 2.9797979797979806,-1.5656565656565653 2.87878787878788,-1.5656565656565653 2.7777777777777786,-1.5656565656565653 2.676767676767678,-1.5656565656565653 2.575757575757577,-1.5656565656565653 2.4747474747474754,-1.5656565656565653 2.373737373737375,-1.5656565656565653 2.2727272727272734,-1.5656565656565653 2.1717171717171726,-1.5656565656565653 2.070707070707072,-1.5656565656565653 1.9696969696969702,-1.5656565656565653 1.8686868686868696,-1.5656565656565653 1.767676767676768,-1.5656565656565653 1.6666666666666674,-1.5656565656565653 1.5656565656565666,-1.5656565656565653 1.4646464646464652,-1.5656565656565653 1.3636363636363644,-1.5656565656565653 1.262626262626263,-1.5656565656565653 1.1616161616161622,-1.5656565656565653 1.0606060606060617,-1.5656565656565653 0.9595959595959602,-1.5656565656565653 0.8585858585858596,-1.5656565656565653 0.7575757575757579,-1.5656565656565653 0.6565656565656574,-1.5656565656565653 0.5555555555555567,-1.5656565656565653 0.4545454545454551,-1.5656565656565653 0.3535353535353544,-1.5656565656565653 0.2525252525252529,-1.5656565656565653 0.1515151515151522,-1.5656565656565653 0.050505050505051545,-1.5656565656565653 -0.05050505050505001,-1.5656565656565653 -0.15151515151515066,-1.5656565656565653 -0.2525252525252522,-1.5656565656565653 -0.35353535353535287,-1.5656565656565653 -0.4545454545454544,-1.5656565656565653 -0.555555555555555,-1.5656565656565653 -0.6565656565656557,-1.5656565656565653 -0.7575757575757572,-1.5656565656565653 -0.8585858585858579,-1.5656565656565653 -0.9595959595959596,-1.5656565656565653 -1.0606060606060603,-1.5656565656565653 -1.1616161616161613,-1.5656565656565653 -1.2626262626262625,-1.5656565656565653 -1.363636363636363,-1.5656565656565653 -1.4646464646464643,-1.5656565656565653 -1.5656565656565653,-1.5656565656565653 -1.6666666666666665,-1.5656565656565653 -1.7676767676767675,-1.5656565656565653 -1.8686868686868683,-1.5656565656565653 -1.9696969696969693,-1.5656565656565653" data-type="line" data-label="" points="984,688.4040404040404 974.4646464646464,678.8686868686868 964.9292929292927,669.3333333333334 955.3939393939393,659.7979797979798 945.8585858585857,659.7979797979798 936.3232323232323,659.7979797979798 926.7878787878785,659.7979797979798 917.2525252525251,659.7979797979798 907.7171717171716,659.7979797979798 898.181818181818,659.7979797979798 888.6464646464647,659.7979797979798 879.111111111111,659.7979797979798 869.5757575757575,659.7979797979798 860.0404040404039,659.7979797979798 850.5050505050505,659.7979797979798 840.969696969697,659.7979797979798 831.4343434343433,659.7979797979798 821.8989898989898,659.7979797979798 812.3636363636363,659.7979797979798 802.8282828282828,659.7979797979798 793.2929292929292,659.7979797979798 783.7575757575758,659.7979797979798 774.2222222222222,659.7979797979798 764.6868686868686,659.7979797979798 755.1515151515151,659.7979797979798 745.6161616161615,659.7979797979798 736.0808080808081,659.7979797979798 726.5454545454545,659.7979797979798 717.0101010101009,659.7979797979798 707.4747474747475,659.7979797979798 697.9393939393939,659.7979797979798 688.4040404040404,659.7979797979798 678.8686868686868,659.7979797979798 669.3333333333333,659.7979797979798 659.7979797979798,659.7979797979798 650.2626262626262,659.7979797979798 640.7272727272727,659.7979797979798 631.1919191919192,659.7979797979798 621.6565656565656,659.7979797979798 612.1212121212121,659.7979797979798 602.5858585858585,659.7979797979798 593.0505050505051,659.7979797979798 583.5151515151515,659.7979797979798 573.9797979797979,659.7979797979798 564.4444444444445,659.7979797979798 554.9090909090909,659.7979797979798 545.3737373737374,659.7979797979798 535.8383838383838,659.7979797979798 526.3030303030303,659.7979797979798 516.7676767676768,659.7979797979798 507.2323232323232,659.7979797979798 497.69696969696975,659.7979797979798 488.16161616161617,659.7979797979798 478.62626262626264,659.7979797979798 469.09090909090907,659.7979797979798 459.55555555555554,659.7979797979798 450.0202020202021,659.7979797979798 440.4848484848485,659.7979797979798 430.949494949495,659.7979797979798 421.4141414141414,659.7979797979798 411.8787878787879,659.7979797979798 402.34343434343435,659.7979797979798 392.80808080808083,659.7979797979798 383.2727272727273,659.7979797979798 373.7373737373738,659.7979797979798 364.2020202020202,659.7979797979798 354.6666666666667,659.7979797979798 345.13131313131316,659.7979797979798 335.59595959595964,659.7979797979798 326.0606060606061,659.7979797979798" fill="none" stroke="rgba(255,0,0,0.75)" stroke-width="14.159999999999995"/></g><g><polyline data-points="-1.9696969696969693,-1.5656565656565653 -2.07070707070707,-1.4646464646464643 -2.1717171717171713,-1.363636363636363 -2.2727272727272725,-1.2626262626262625 -2.3737373737373733,-1.1616161616161613 -2.474747474747474,-1.0606060606060603 -2.5757575757575752,-0.9595959595959596 -2.5757575757575752,-0.8585858585858579 -2.5757575757575752,-0.7575757575757572 -2.5757575757575752,-0.6565656565656557 -2.5757575757575752,-0.555555555555555 -2.5757575757575752,-0.4545454545454544 -2.5757575757575752,-0.35353535353535287 -2.5757575757575752,-0.2525252525252522 -2.5757575757575752,-0.15151515151515066 -2.5757575757575752,-0.05050505050505001 -2.5757575757575752,0.050505050505051545 -2.5757575757575752,0.1515151515151522" data-type="line" data-label="" points="326.0606060606061,659.7979797979798 316.5252525252526,650.2626262626263 306.9898989898991,640.7272727272727 297.4545454545455,631.1919191919193 287.91919191919203,621.6565656565657 278.38383838383845,612.1212121212121 268.84848484848493,602.5858585858587 268.84848484848493,593.0505050505051 268.84848484848493,583.5151515151516 268.84848484848493,573.979797979798 268.84848484848493,564.4444444444445 268.84848484848493,554.909090909091 268.84848484848493,545.3737373737374 268.84848484848493,535.838383838384 268.84848484848493,526.3030303030304 268.84848484848493,516.7676767676768 268.84848484848493,507.23232323232327 268.84848484848493,497.69696969696975" fill="none" stroke="rgba(0,0,255,0.75)" stroke-width="14.159999999999995"/></g><g><polyline data-points="-2.5757575757575752,0.1515151515151522 -2.6767676767676765,0.2525252525252529 -2.7777777777777777,0.3535353535353544 -2.8787878787878785,0.4545454545454551 -2.9797979797979792,0.5555555555555567 -3.0808080808080804,0.6565656565656574 -3.1818181818181817,0.7575757575757579 -3.1818181818181817,0.8585858585858596 -3.1818181818181817,0.9595959595959602 -3.1818181818181817,1.0606060606060617 -3.1818181818181817,1.1616161616161622 -3.1818181818181817,1.262626262626263 -3.1818181818181817,1.3636363636363644 -3.1818181818181817,1.4646464646464652 -3.1818181818181817,1.5656565656565666 -3.1818181818181817,1.6666666666666674 -3.1818181818181817,1.767676767676768 -3.1818181818181817,1.8686868686868696 -3.1818181818181817,1.9696969696969702 -3.1818181818181817,2.070707070707072 -3.1818181818181817,2.1717171717171726 -3.1818181818181817,2.2727272727272734 -3.1818181818181817,2.373737373737375 -3.1818181818181817,2.4747474747474754 -3.1818181818181817,2.575757575757577 -3.1818181818181817,2.676767676767678 -3.1818181818181817,2.7777777777777786 -3.1818181818181817,2.87878787878788 -3.1818181818181817,2.9797979797979806 -3.1818181818181817,3.080808080808082 -3.1818181818181817,3.181818181818183 -3.1818181818181817,3.2828282828282833 -3.1818181818181817,3.383838383838384 -3.1818181818181817,3.4848484848484866 -3.1818181818181817,3.5858585858585874 -3.1818181818181817,3.6868686868686877" data-type="line" data-label="" points="268.84848484848493,497.69696969696975 259.3131313131314,488.1616161616163 249.77777777777783,478.6262626262627 240.2424242424243,469.0909090909092 230.70707070707084,459.5555555555556 221.17171717171726,450.0202020202021 211.63636363636374,440.4848484848486 211.63636363636374,430.94949494949503 211.63636363636374,421.4141414141415 211.63636363636374,411.87878787878793 211.63636363636374,402.3434343434344 211.63636363636374,392.80808080808094 211.63636363636374,383.27272727272737 211.63636363636374,373.73737373737384 211.63636363636374,364.2020202020203 211.63636363636374,354.66666666666674 211.63636363636374,345.1313131313133 211.63636363636374,335.5959595959597 211.63636363636374,326.06060606060623 211.63636363636374,316.5252525252526 211.63636363636374,306.9898989898991 211.63636363636374,297.4545454545456 211.63636363636374,287.91919191919203 211.63636363636374,278.38383838383857 211.63636363636374,268.84848484848493 211.63636363636374,259.3131313131314 211.63636363636374,249.77777777777794 211.63636363636374,240.24242424242436 211.63636363636374,230.70707070707084 211.63636363636374,221.17171717171726 211.63636363636374,211.63636363636374 211.63636363636374,202.10101010101027 211.63636363636374,192.56565656565675 211.63636363636374,183.03030303030312 211.63636363636374,173.4949494949496 211.63636363636374,163.95959595959613" fill="none" stroke="rgba(255,0,0,0.75)" stroke-width="14.159999999999995"/></g><g><polyline data-points="-3.1818181818181817,3.6868686868686877 -3.1818181818181817,3.7878787878787885 -3.1818181818181817,3.8888888888888893 -3.1818181818181817,3.989898989898992 -3.1818181818181817,4.090909090909092 -3.1818181818181817,4.191919191919193 -3.1818181818181817,4.292929292929293 -3.1818181818181817,4.393939393939394 -3.1818181818181817,4.494949494949497 -3.1818181818181817,4.595959595959597 -3.1818181818181817,4.696969696969697 -3.1818181818181817,4.7979797979797985 -3.1818181818181817,4.898989898989901 -3.1818181818181817,5.000000000000002" data-type="line" data-label="" points="211.63636363636374,163.95959595959613 211.63636363636374,154.4242424242426 211.63636363636374,144.88888888888908 211.63636363636374,135.35353535353545 211.63636363636374,125.81818181818198 211.63636363636374,116.28282828282846 211.63636363636374,106.747474747475 211.63636363636374,97.21212121212153 211.63636363636374,87.67676767676778 211.63636363636374,78.14141414141432 211.63636363636374,68.60606060606085 211.63636363636374,59.07070707070733 211.63636363636374,49.53535353535369 211.63636363636374,40.000000000000114" fill="none" stroke="rgba(0,0,255,0.75)" stroke-width="14.159999999999995"/></g><g><polyline data-points="3.181818181818183,-5.000000000000001 3.080808080808082,-4.898989898989899 2.9797979797979806,-4.7979797979797985 2.87878787878788,-4.696969696969697 2.7777777777777786,-4.595959595959596 2.676767676767678,-4.494949494949496 2.575757575757577,-4.494949494949496 2.4747474747474754,-4.494949494949496 2.373737373737375,-4.494949494949496 2.2727272727272734,-4.494949494949496 2.1717171717171726,-4.494949494949496 2.070707070707072,-4.494949494949496 1.9696969696969702,-4.494949494949496 1.8686868686868696,-4.494949494949496 1.767676767676768,-4.494949494949496 1.6666666666666674,-4.494949494949496 1.5656565656565666,-4.494949494949496 1.4646464646464652,-4.494949494949496 1.3636363636363644,-4.494949494949496 1.262626262626263,-4.494949494949496 1.1616161616161622,-4.494949494949496 1.0606060606060617,-4.494949494949496 0.9595959595959602,-4.494949494949496 0.8585858585858596,-4.494949494949496 0.7575757575757579,-4.494949494949496 0.6565656565656574,-4.494949494949496 0.5555555555555567,-4.494949494949496 0.4545454545454551,-4.494949494949496 0.3535353535353544,-4.494949494949496 0.2525252525252529,-4.494949494949496 0.1515151515151522,-4.494949494949496 0.050505050505051545,-4.494949494949496 -0.05050505050505001,-4.494949494949496 -0.15151515151515066,-4.494949494949496 -0.2525252525252522,-4.494949494949496 -0.35353535353535287,-4.494949494949496 -0.4545454545454544,-4.494949494949496 -0.555555555555555,-4.494949494949496 -0.6565656565656557,-4.494949494949496 -0.7575757575757572,-4.494949494949496 -0.8585858585858579,-4.494949494949496 -0.9595959595959596,-4.494949494949496 -1.0606060606060603,-4.494949494949496 -1.1616161616161613,-4.494949494949496 -1.2626262626262625,-4.494949494949496 -1.363636363636363,-4.494949494949496 -1.4646464646464643,-4.494949494949496 -1.5656565656565653,-4.494949494949496 -1.6666666666666665,-4.494949494949496 -1.7676767676767675,-4.494949494949496 -1.8686868686868683,-4.494949494949496 -1.9696969696969693,-4.494949494949496 -2.07070707070707,-4.494949494949496 -2.1717171717171713,-4.494949494949496 -2.2727272727272725,-4.494949494949496 -2.3737373737373733,-4.494949494949496 -2.474747474747474,-4.494949494949496 -2.5757575757575752,-4.494949494949496 -2.6767676767676765,-4.494949494949496 -2.7777777777777777,-4.494949494949496 -2.8787878787878785,-4.494949494949496 -2.9797979797979792,-4.494949494949496 -3.0808080808080804,-4.494949494949496 -3.1818181818181817,-4.494949494949496 -3.2828282828282824,-4.494949494949496 -3.383838383838383,-4.494949494949496 -3.484848484848485,-4.494949494949496 -3.5858585858585856,-4.494949494949496 -3.6868686868686864,-4.494949494949496 -3.7878787878787876,-4.393939393939394 -3.8888888888888884,-4.393939393939394 -3.98989898989899,-4.292929292929293 -4.090909090909091,-4.191919191919193 -4.090909090909091,-4.090909090909091 -4.191919191919193,-3.98989898989899 -4.090909090909091,-3.8888888888888884 -4.090909090909091,-3.7878787878787876 -3.98989898989899,-3.6868686868686864 -3.8888888888888884,-3.5858585858585856 -3.7878787878787876,-3.484848484848485 -3.6868686868686864,-3.383838383838383 -3.5858585858585856,-3.2828282828282824 -3.484848484848485,-3.1818181818181817 -3.383838383838383,-3.0808080808080804 -3.2828282828282824,-2.9797979797979792 -3.1818181818181817,-2.8787878787878785 -3.0808080808080804,-2.7777777777777777 -2.9797979797979792,-2.6767676767676765 -2.8787878787878785,-2.5757575757575752 -2.7777777777777777,-2.474747474747474 -2.6767676767676765,-2.3737373737373733 -2.5757575757575752,-2.2727272727272725 -2.474747474747474,-2.1717171717171713" data-type="line" data-label="" points="812.3636363636363,984 802.8282828282828,974.4646464646464 793.2929292929292,964.9292929292928 783.7575757575758,955.3939393939394 774.2222222222222,945.8585858585858 764.6868686868686,936.3232323232323 755.1515151515151,936.3232323232323 745.6161616161615,936.3232323232323 736.0808080808081,936.3232323232323 726.5454545454545,936.3232323232323 717.0101010101009,936.3232323232323 707.4747474747475,936.3232323232323 697.9393939393939,936.3232323232323 688.4040404040404,936.3232323232323 678.8686868686868,936.3232323232323 669.3333333333333,936.3232323232323 659.7979797979798,936.3232323232323 650.2626262626262,936.3232323232323 640.7272727272727,936.3232323232323 631.1919191919192,936.3232323232323 621.6565656565656,936.3232323232323 612.1212121212121,936.3232323232323 602.5858585858585,936.3232323232323 593.0505050505051,936.3232323232323 583.5151515151515,936.3232323232323 573.9797979797979,936.3232323232323 564.4444444444445,936.3232323232323 554.9090909090909,936.3232323232323 545.3737373737374,936.3232323232323 535.8383838383838,936.3232323232323 526.3030303030303,936.3232323232323 516.7676767676768,936.3232323232323 507.2323232323232,936.3232323232323 497.69696969696975,936.3232323232323 488.16161616161617,936.3232323232323 478.62626262626264,936.3232323232323 469.09090909090907,936.3232323232323 459.55555555555554,936.3232323232323 450.0202020202021,936.3232323232323 440.4848484848485,936.3232323232323 430.949494949495,936.3232323232323 421.4141414141414,936.3232323232323 411.8787878787879,936.3232323232323 402.34343434343435,936.3232323232323 392.80808080808083,936.3232323232323 383.2727272727273,936.3232323232323 373.7373737373738,936.3232323232323 364.2020202020202,936.3232323232323 354.6666666666667,936.3232323232323 345.13131313131316,936.3232323232323 335.59595959595964,936.3232323232323 326.0606060606061,936.3232323232323 316.5252525252526,936.3232323232323 306.9898989898991,936.3232323232323 297.4545454545455,936.3232323232323 287.91919191919203,936.3232323232323 278.38383838383845,936.3232323232323 268.84848484848493,936.3232323232323 259.3131313131314,936.3232323232323 249.77777777777783,936.3232323232323 240.2424242424243,936.3232323232323 230.70707070707084,936.3232323232323 221.17171717171726,936.3232323232323 211.63636363636374,936.3232323232323 202.10101010101022,936.3232323232323 192.5656565656567,936.3232323232323 183.03030303030312,936.3232323232323 173.4949494949496,936.3232323232323 163.95959595959607,936.3232323232323 154.42424242424255,926.7878787878788 144.88888888888903,926.7878787878788 135.35353535353545,917.2525252525252 125.81818181818193,907.7171717171718 125.81818181818193,898.1818181818181 116.28282828282829,888.6464646464647 125.81818181818193,879.1111111111111 125.81818181818193,869.5757575757575 135.35353535353545,860.0404040404039 144.88888888888903,850.5050505050505 154.42424242424255,840.969696969697 163.95959595959607,831.4343434343434 173.4949494949496,821.8989898989898 183.03030303030312,812.3636363636363 192.5656565656567,802.8282828282828 202.10101010101022,793.2929292929292 211.63636363636374,783.7575757575758 221.17171717171726,774.2222222222222 230.70707070707084,764.6868686868687 240.2424242424243,755.1515151515151 249.77777777777783,745.6161616161615 259.3131313131314,736.0808080808081 268.84848484848493,726.5454545454545 278.38383838383845,717.010101010101" fill="none" stroke="rgba(255,0,0,0.75)" stroke-width="14.159999999999995"/></g><g><polyline data-points="-2.474747474747474,-2.1717171717171713 -2.3737373737373733,-2.07070707070707 -2.2727272727272725,-2.07070707070707 -2.1717171717171713,-2.07070707070707 -2.07070707070707,-2.07070707070707 -1.9696969696969693,-2.07070707070707 -1.8686868686868683,-1.9696969696969693 -1.7676767676767675,-1.9696969696969693 -1.6666666666666665,-1.8686868686868683 -1.5656565656565653,-1.7676767676767675 -1.5656565656565653,-1.6666666666666665 -1.4646464646464643,-1.5656565656565653 -1.5656565656565653,-1.4646464646464643 -1.5656565656565653,-1.363636363636363 -1.6666666666666665,-1.2626262626262625 -1.7676767676767675,-1.1616161616161613 -1.7676767676767675,-1.0606060606060603 -1.7676767676767675,-0.9595959595959596 -1.7676767676767675,-0.8585858585858579 -1.7676767676767675,-0.7575757575757572 -1.7676767676767675,-0.6565656565656557 -1.7676767676767675,-0.555555555555555 -1.7676767676767675,-0.4545454545454544 -1.7676767676767675,-0.35353535353535287 -1.7676767676767675,-0.2525252525252522 -1.7676767676767675,-0.15151515151515066 -1.7676767676767675,-0.05050505050505001 -1.7676767676767675,0.050505050505051545 -1.7676767676767675,0.1515151515151522 -1.7676767676767675,0.2525252525252529 -1.7676767676767675,0.3535353535353544 -1.7676767676767675,0.4545454545454551 -1.7676767676767675,0.5555555555555567 -1.7676767676767675,0.6565656565656574 -1.7676767676767675,0.7575757575757579 -1.7676767676767675,0.8585858585858596 -1.7676767676767675,0.9595959595959602 -1.7676767676767675,1.0606060606060617" data-type="line" data-label="" points="278.38383838383845,717.010101010101 287.91919191919203,707.4747474747475 297.4545454545455,707.4747474747475 306.9898989898991,707.4747474747475 316.5252525252526,707.4747474747475 326.0606060606061,707.4747474747475 335.59595959595964,697.939393939394 345.13131313131316,697.939393939394 354.6666666666667,688.4040404040404 364.2020202020202,678.8686868686868 364.2020202020202,669.3333333333334 373.7373737373738,659.7979797979798 364.2020202020202,650.2626262626263 364.2020202020202,640.7272727272727 354.6666666666667,631.1919191919193 345.13131313131316,621.6565656565657 345.13131313131316,612.1212121212121 345.13131313131316,602.5858585858587 345.13131313131316,593.0505050505051 345.13131313131316,583.5151515151516 345.13131313131316,573.979797979798 345.13131313131316,564.4444444444445 345.13131313131316,554.909090909091 345.13131313131316,545.3737373737374 345.13131313131316,535.838383838384 345.13131313131316,526.3030303030304 345.13131313131316,516.7676767676768 345.13131313131316,507.23232323232327 345.13131313131316,497.69696969696975 345.13131313131316,488.1616161616163 345.13131313131316,478.6262626262627 345.13131313131316,469.0909090909092 345.13131313131316,459.5555555555556 345.13131313131316,450.0202020202021 345.13131313131316,440.4848484848486 345.13131313131316,430.94949494949503 345.13131313131316,421.4141414141415 345.13131313131316,411.87878787878793" fill="none" stroke="rgba(0,0,255,0.75)" stroke-width="14.159999999999995"/></g><g><polyline data-points="-1.7676767676767675,1.0606060606060617 -1.7676767676767675,1.1616161616161622 -1.7676767676767675,1.262626262626263 -1.7676767676767675,1.3636363636363644 -1.7676767676767675,1.4646464646464652 -1.7676767676767675,1.5656565656565666 -1.7676767676767675,1.6666666666666674 -1.7676767676767675,1.767676767676768 -1.7676767676767675,1.8686868686868696 -1.7676767676767675,1.9696969696969702 -1.7676767676767675,2.070707070707072 -1.7676767676767675,2.1717171717171726 -1.7676767676767675,2.2727272727272734 -1.7676767676767675,2.373737373737375 -1.7676767676767675,2.4747474747474754 -1.7676767676767675,2.575757575757577 -1.7676767676767675,2.676767676767678 -1.7676767676767675,2.7777777777777786 -1.7676767676767675,2.87878787878788 -1.7676767676767675,2.9797979797979806 -1.7676767676767675,3.080808080808082 -1.7676767676767675,3.181818181818183 -1.7676767676767675,3.2828282828282833 -1.7676767676767675,3.383838383838384 -1.7676767676767675,3.4848484848484866 -1.7676767676767675,3.5858585858585874 -1.7676767676767675,3.6868686868686877 -1.7676767676767675,3.7878787878787885 -1.7676767676767675,3.8888888888888893 -1.7676767676767675,3.989898989898992 -1.7676767676767675,4.090909090909092 -1.7676767676767675,4.191919191919193 -1.7676767676767675,4.292929292929293 -1.7676767676767675,4.393939393939394 -1.7676767676767675,4.494949494949497 -1.7676767676767675,4.595959595959597 -1.7676767676767675,4.696969696969697 -1.7676767676767675,4.7979797979797985 -1.7676767676767675,4.898989898989901 -1.7676767676767675,5.000000000000002" data-type="line" data-label="" points="345.13131313131316,411.87878787878793 345.13131313131316,402.3434343434344 345.13131313131316,392.80808080808094 345.13131313131316,383.27272727272737 345.13131313131316,373.73737373737384 345.13131313131316,364.2020202020203 345.13131313131316,354.66666666666674 345.13131313131316,345.1313131313133 345.13131313131316,335.5959595959597 345.13131313131316,326.06060606060623 345.13131313131316,316.5252525252526 345.13131313131316,306.9898989898991 345.13131313131316,297.4545454545456 345.13131313131316,287.91919191919203 345.13131313131316,278.38383838383857 345.13131313131316,268.84848484848493 345.13131313131316,259.3131313131314 345.13131313131316,249.77777777777794 345.13131313131316,240.24242424242436 345.13131313131316,230.70707070707084 345.13131313131316,221.17171717171726 345.13131313131316,211.63636363636374 345.13131313131316,202.10101010101027 345.13131313131316,192.56565656565675 345.13131313131316,183.03030303030312 345.13131313131316,173.4949494949496 345.13131313131316,163.95959595959613 345.13131313131316,154.4242424242426 345.13131313131316,144.88888888888908 345.13131313131316,135.35353535353545 345.13131313131316,125.81818181818198 345.13131313131316,116.28282828282846 345.13131313131316,106.747474747475 345.13131313131316,97.21212121212153 345.13131313131316,87.67676767676778 345.13131313131316,78.14141414141432 345.13131313131316,68.60606060606085 345.13131313131316,59.07070707070733 345.13131313131316,49.53535353535369 345.13131313131316,40.000000000000114" fill="none" stroke="rgba(255,0,0,0.75)" stroke-width="14.159999999999995"/></g><g><polyline data-points="5.000000000000002,0.5555555555555567 4.898989898989901,0.6565656565656574 4.7979797979797985,0.7575757575757579 4.696969696969697,0.8585858585858596 4.595959595959597,0.9595959595959602 4.494949494949497,1.0606060606060617 4.393939393939394,1.1616161616161622 4.292929292929293,1.262626262626263 4.191919191919193,1.3636363636363644 4.090909090909092,1.4646464646464652 3.989898989898992,1.5656565656565666 3.8888888888888893,1.6666666666666674 3.7878787878787885,1.767676767676768 3.6868686868686877,1.8686868686868696 3.5858585858585874,1.9696969696969702 3.4848484848484866,2.070707070707072 3.383838383838384,2.1717171717171726 3.2828282828282833,2.2727272727272734 3.181818181818183,2.373737373737375 3.080808080808082,2.4747474747474754 2.9797979797979806,2.575757575757577 2.87878787878788,2.676767676767678 2.7777777777777786,2.7777777777777786 2.676767676767678,2.87878787878788 2.575757575757577,2.9797979797979806 2.4747474747474754,3.080808080808082 2.373737373737375,3.181818181818183 2.2727272727272734,3.2828282828282833 2.1717171717171726,3.383838383838384 2.070707070707072,3.4848484848484866 1.9696969696969702,3.5858585858585874 1.8686868686868696,3.6868686868686877 1.767676767676768,3.7878787878787885 1.6666666666666674,3.8888888888888893 1.6666666666666674,3.989898989898992" data-type="line" data-label="" points="984,459.5555555555556 974.4646464646464,450.0202020202021 964.9292929292927,440.4848484848486 955.3939393939393,430.94949494949503 945.8585858585857,421.4141414141415 936.3232323232323,411.87878787878793 926.7878787878785,402.3434343434344 917.2525252525251,392.80808080808094 907.7171717171716,383.27272727272737 898.181818181818,373.73737373737384 888.6464646464647,364.2020202020203 879.111111111111,354.66666666666674 869.5757575757575,345.1313131313133 860.0404040404039,335.5959595959597 850.5050505050505,326.06060606060623 840.969696969697,316.5252525252526 831.4343434343433,306.9898989898991 821.8989898989898,297.4545454545456 812.3636363636363,287.91919191919203 802.8282828282828,278.38383838383857 793.2929292929292,268.84848484848493 783.7575757575758,259.3131313131314 774.2222222222222,249.77777777777794 764.6868686868686,240.24242424242436 755.1515151515151,230.70707070707084 745.6161616161615,221.17171717171726 736.0808080808081,211.63636363636374 726.5454545454545,202.10101010101027 717.0101010101009,192.56565656565675 707.4747474747475,183.03030303030312 697.9393939393939,173.4949494949496 688.4040404040404,163.95959595959613 678.8686868686868,154.4242424242426 669.3333333333333,144.88888888888908 669.3333333333333,135.35353535353545" fill="none" stroke="rgba(255,0,0,0.75)" stroke-width="14.159999999999995"/></g><g><polyline data-points="1.6666666666666674,3.989898989898992 1.6666666666666674,4.090909090909092 1.6666666666666674,4.191919191919193 1.6666666666666674,4.292929292929293 1.6666666666666674,4.393939393939394 1.6666666666666674,4.494949494949497 1.6666666666666674,4.595959595959597 1.6666666666666674,4.696969696969697 1.6666666666666674,4.7979797979797985 1.6666666666666674,4.898989898989901 1.6666666666666674,5.000000000000002" data-type="line" data-label="" points="669.3333333333333,135.35353535353545 669.3333333333333,125.81818181818198 669.3333333333333,116.28282828282846 669.3333333333333,106.747474747475 669.3333333333333,97.21212121212153 669.3333333333333,87.67676767676778 669.3333333333333,78.14141414141432 669.3333333333333,68.60606060606085 669.3333333333333,59.07070707070733 669.3333333333333,49.53535353535369 669.3333333333333,40.000000000000114" fill="none" stroke="rgba(0,0,255,0.75)" stroke-width="14.159999999999995"/></g><g><polyline data-points="-5.000000000000001,-1.363636363636363 -4.898989898989899,-1.363636363636363 -4.7979797979797985,-1.2626262626262625 -4.696969696969697,-1.1616161616161613 -4.595959595959596,-1.0606060606060603 -4.494949494949496,-0.9595959595959596 -4.393939393939394,-0.8585858585858579 -4.292929292929293,-0.7575757575757572 -4.191919191919193,-0.6565656565656557 -4.090909090909091,-0.555555555555555 -3.98989898989899,-0.4545454545454544 -3.8888888888888884,-0.35353535353535287 -3.7878787878787876,-0.2525252525252522 -3.6868686868686864,-0.15151515151515066 -3.5858585858585856,-0.05050505050505001 -3.484848484848485,0.050505050505051545 -3.383838383838383,0.1515151515151522 -3.2828282828282824,0.2525252525252529 -3.1818181818181817,0.3535353535353544 -3.0808080808080804,0.4545454545454551 -2.9797979797979792,0.5555555555555567 -2.8787878787878785,0.6565656565656574 -2.7777777777777777,0.7575757575757579 -2.6767676767676765,0.8585858585858596 -2.5757575757575752,0.9595959595959602 -2.474747474747474,1.0606060606060617 -2.3737373737373733,1.1616161616161622 -2.2727272727272725,1.262626262626263 -2.1717171717171713,1.3636363636363644 -2.07070707070707,1.4646464646464652 -1.9696969696969693,1.5656565656565666 -1.8686868686868683,1.6666666666666674 -1.7676767676767675,1.767676767676768 -1.6666666666666665,1.8686868686868696 -1.5656565656565653,1.9696969696969702 -1.4646464646464643,2.070707070707072 -1.363636363636363,2.1717171717171726 -1.2626262626262625,2.2727272727272734 -1.1616161616161613,2.373737373737375 -1.0606060606060603,2.4747474747474754 -0.9595959595959596,2.575757575757577 -0.8585858585858579,2.676767676767678 -0.7575757575757572,2.7777777777777786 -0.6565656565656557,2.87878787878788 -0.555555555555555,2.9797979797979806 -0.4545454545454544,3.080808080808082 -0.35353535353535287,3.181818181818183 -0.2525252525252522,3.2828282828282833 -0.15151515151515066,3.383838383838384 -0.05050505050505001,3.4848484848484866 0.050505050505051545,3.4848484848484866 0.1515151515151522,3.4848484848484866 0.2525252525252529,3.4848484848484866 0.3535353535353544,3.4848484848484866 0.4545454545454551,3.4848484848484866 0.5555555555555567,3.4848484848484866 0.6565656565656574,3.4848484848484866 0.7575757575757579,3.4848484848484866 0.8585858585858596,3.4848484848484866 0.9595959595959602,3.4848484848484866 1.0606060606060617,3.4848484848484866 1.1616161616161622,3.4848484848484866 1.262626262626263,3.4848484848484866 1.3636363636363644,3.4848484848484866 1.4646464646464652,3.4848484848484866 1.5656565656565666,3.4848484848484866 1.6666666666666674,3.4848484848484866 1.767676767676768,3.5858585858585874 1.8686868686868696,3.5858585858585874 1.9696969696969702,3.6868686868686877 2.070707070707072,3.7878787878787885 2.1717171717171726,3.8888888888888893 2.2727272727272734,3.989898989898992 2.373737373737375,4.090909090909092 2.4747474747474754,4.191919191919193 2.575757575757577,4.292929292929293 2.676767676767678,4.393939393939394 2.7777777777777786,4.494949494949497 2.7777777777777786,4.595959595959597 2.7777777777777786,4.696969696969697 2.7777777777777786,4.7979797979797985 2.7777777777777786,4.898989898989901 2.7777777777777786,5.000000000000002" data-type="line" data-label="" points="40.00000000000006,640.7272727272727 49.53535353535369,640.7272727272727 59.07070707070716,631.1919191919193 68.60606060606068,621.6565656565657 78.14141414141426,612.1212121212121 87.67676767676772,602.5858585858587 97.21212121212136,593.0505050505051 106.74747474747483,583.5151515151516 116.28282828282829,573.979797979798 125.81818181818193,564.4444444444445 135.35353535353545,554.909090909091 144.88888888888903,545.3737373737374 154.42424242424255,535.838383838384 163.95959595959607,526.3030303030304 173.4949494949496,516.7676767676768 183.03030303030312,507.23232323232327 192.5656565656567,497.69696969696975 202.10101010101022,488.1616161616163 211.63636363636374,478.6262626262627 221.17171717171726,469.0909090909092 230.70707070707084,459.5555555555556 240.2424242424243,450.0202020202021 249.77777777777783,440.4848484848486 259.3131313131314,430.94949494949503 268.84848484848493,421.4141414141415 278.38383838383845,411.87878787878793 287.91919191919203,402.3434343434344 297.4545454545455,392.80808080808094 306.9898989898991,383.27272727272737 316.5252525252526,373.73737373737384 326.0606060606061,364.2020202020203 335.59595959595964,354.66666666666674 345.13131313131316,345.1313131313133 354.6666666666667,335.5959595959597 364.2020202020202,326.06060606060623 373.7373737373738,316.5252525252526 383.2727272727273,306.9898989898991 392.80808080808083,297.4545454545456 402.34343434343435,287.91919191919203 411.8787878787879,278.38383838383857 421.4141414141414,268.84848484848493 430.949494949495,259.3131313131314 440.4848484848485,249.77777777777794 450.0202020202021,240.24242424242436 459.55555555555554,230.70707070707084 469.09090909090907,221.17171717171726 478.62626262626264,211.63636363636374 488.16161616161617,202.10101010101027 497.69696969696975,192.56565656565675 507.2323232323232,183.03030303030312 516.7676767676768,183.03030303030312 526.3030303030303,183.03030303030312 535.8383838383838,183.03030303030312 545.3737373737374,183.03030303030312 554.9090909090909,183.03030303030312 564.4444444444445,183.03030303030312 573.9797979797979,183.03030303030312 583.5151515151515,183.03030303030312 593.0505050505051,183.03030303030312 602.5858585858585,183.03030303030312 612.1212121212121,183.03030303030312 621.6565656565656,183.03030303030312 631.1919191919192,183.03030303030312 640.7272727272727,183.03030303030312 650.2626262626262,183.03030303030312 659.7979797979798,183.03030303030312 669.3333333333333,183.03030303030312 678.8686868686868,173.4949494949496 688.4040404040404,173.4949494949496 697.9393939393939,163.95959595959613 707.4747474747475,154.4242424242426 717.0101010101009,144.88888888888908 726.5454545454545,135.35353535353545 736.0808080808081,125.81818181818198 745.6161616161615,116.28282828282846 755.1515151515151,106.747474747475 764.6868686868686,97.21212121212153 774.2222222222222,87.67676767676778 774.2222222222222,78.14141414141432 774.2222222222222,68.60606060606085 774.2222222222222,59.07070707070733 774.2222222222222,49.53535353535369 774.2222222222222,40.000000000000114" fill="none" stroke="rgba(0,0,255,0.75)" stroke-width="14.159999999999995"/></g><g><rect data-type="rect" data-label="" data-x="0" data-y="0" x="40.000000000000114" y="40.000000000000284" width="943.9999999999997" height="943.9999999999998" fill="none" stroke="gray" stroke-width="0.010593220338983056"/></g><g><rect data-type="rect" data-label="" data-x="0" data-y="0" x="40.000000000000114" y="40.000000000000284" width="943.9999999999997" height="943.9999999999998" fill="none" stroke="rgba(15, 23, 42, 0.8)" stroke-width="0.010593220338983056"/></g><circle data-type="circle" data-label="" data-x="-3.6868686868686864" data-y="-3.98989898989899" cx="163.95959595959607" cy="888.6464646464647" r="28.791999999999987" fill="rgba(0,0,0,0.3)" stroke="black" stroke-width="0.010593220338983056"/><circle data-type="circle" data-label="" data-x="-3.1818181818181817" data-y="-0.35353535353535287" cx="211.63636363636374" cy="545.3737373737374" r="28.791999999999987" fill="rgba(0,0,0,0.3)" stroke="black" stroke-width="0.010593220338983056"/><circle data-type="circle" data-label="" data-x="-3.8888888888888884" data-y="3.989898989898992" cx="144.88888888888903" cy="135.35353535353545" r="28.791999999999987" fill="rgba(0,0,0,0.3)" stroke="black" stroke-width="0.010593220338983056"/><circle data-type="circle" data-label="" data-x="-1.9696969696969693" data-y="-1.5656565656565653" cx="326.0606060606061" cy="659.7979797979798" r="28.791999999999987" fill="rgba(0,0,0,0.3)" stroke="black" stroke-width="0.010593220338983056"/><circle data-type="circle" data-label="" data-x="-2.5757575757575752" data-y="0.1515151515151522" cx="268.84848484848493" cy="497.69696969696975" r="28.791999999999987" fill="rgba(0,0,0,0.3)" stroke="black" stroke-width="0.010593220338983056"/><circle data-type="circle" data-label="" data-x="-3.1818181818181817" data-y="3.6868686868686877" cx="211.63636363636374" cy="163.95959595959613" r="28.791999999999987" fill="rgba(0,0,0,0.3)" stroke="black" stroke-width="0.010593220338983056"/><circle data-type="circle" data-label="" data-x="-2.474747474747474" data-y="-2.1717171717171713" cx="278.38383838383845" cy="717.010101010101" r="28.791999999999987" fill="rgba(0,0,0,0.3)" stroke="black" stroke-width="0.010593220338983056"/><circle data-type="circle" data-label="" data-x="-1.7676767676767675" data-y="1.0606060606060617" cx="345.13131313131316" cy="411.87878787878793" r="28.791999999999987" fill="rgba(0,0,0,0.3)" stroke="black" stroke-width="0.010593220338983056"/><circle data-type="circle" data-label="" data-x="1.6666666666666674" data-y="3.989898989898992" cx="669.3333333333333" cy="135.35353535353545" r="28.791999999999987" fill="rgba(0,0,0,0.3)" stroke="black" stroke-width="0.010593220338983056"/><g id="crosshair" style="display: none"><line id="crosshair-h" y1="0" y2="1024" stroke="#666" stroke-width="0.5"/><line id="crosshair-v" x1="0" x2="1024" stroke="#666" stroke-width="0.5"/><text id="coordinates" font-family="monospace" font-size="12" fill="#666"></text></g><script><![CDATA[
              document.currentScript.parentElement.addEventListener('mousemove', (e) => {
                const svg = e.currentTarget;
                const rect = svg.getBoundingClientRect();
                const x = e.clientX - rect.left;
                const y = e.clientY - rect.top;
                const crosshair = svg.getElementById('crosshair');
                const h = svg.getElementById('crosshair-h');
                const v = svg.getElementById('crosshair-v');
                const coords = svg.getElementById('coordinates');
                
                crosshair.style.display = 'block';
                h.setAttribute('x1', '0');
                h.setAttribute('x2', '1024');
                h.setAttribute('y1', y);
                h.setAttribute('y2', y);
                v.setAttribute('x1', x);
                v.setAttribute('x2', x);
                v.setAttribute('y1', '0');
                v.setAttribute('y2', '1024');

                // Calculate real coordinates using inverse transformation
                const matrix = {"a":94.39999999999996,"c":0,"e":511.99999999999994,"b":0,"d":-94.39999999999996,"f":512.0000000000001};
                // Manually invert and apply the affine transform
                // Since we only use translate and scale, we can directly compute:
                // x' = (x - tx) / sx
                // y' = (y - ty) / sy
                const sx = matrix.a;
                const sy = matrix.d;
                const tx = matrix.e; 
                const ty = matrix.f;
                const realPoint = {
                  x: (x - tx) / sx,
                  y: (y - ty) / sy // Flip y back since we used negative scale
                }
                
                coords.textContent = `(${realPoint.x.toFixed(2)}, ${realPoint.y.toFixed(2)})`;
                coords.setAttribute('x', (x + 5).toString());
                coords.setAttribute('y', (y - 5).toString());
              });
              document.currentScript.parentElement.addEventListener('mouseleave', () => {
                document.currentScript.parentElement.getElementById('crosshair').style.display = 'none';
              });
            ]]></script></svg>