<svg width="1024" height="1024" viewBox="0 0 1024 1024" xmlns="http://www.w3.org/2000/svg"><rect width="100%" height="100%" fill="white"/><g><circle data-type="point" data-label="conn_000" data-x="4.64" data-y="5" cx="950.0159999999997" cy="40.000000000000284" r="28.792" fill="blue" stroke="#bda70f" stroke-width="28.792"/></g><g><circle data-type="point" data-label="conn_000" data-x="-1.04" data-y="-5" cx="413.82399999999996" cy="984" r="28.792" fill="blue" stroke="#bda70f" stroke-width="28.792"/></g><g><circle data-type="point" data-label="conn_001" data-x="5" data-y="0.6" cx="983.9999999999998" cy="455.3600000000001" r="28.792" fill="blue" stroke="#0fa0bd" stroke-width="28.792"/></g><g><circle data-type="point" data-label="conn_001" data-x="5" data-y="4.18" cx="983.9999999999998" cy="117.4080000000003" r="28.792" fill="red" stroke="#0fa0bd" stroke-width="28.792"/></g><g><circle data-type="point" data-label="conn_002" data-x="-4.5600000000000005" data-y="5" cx="81.53600000000006" cy="40.000000000000284" r="28.792" fill="red" stroke="#bd0f6d" stroke-width="28.792"/></g><g><circle data-type="point" data-label="conn_002" data-x="-3" data-y="-5" cx="228.80000000000007" cy="984" r="28.792" fill="red" stroke="#bd0f6d" stroke-width="28.792"/></g><g><circle data-type="point" data-label="conn_003" data-x="-2.22" data-y="5" cx="302.432" cy="40.000000000000284" r="28.792" fill="red" stroke="#3bbd0f" stroke-width="28.792"/></g><g><circle data-type="point" data-label="conn_003" data-x="-5" data-y="-0.8200000000000001" cx="40.000000000000114" cy="589.4080000000001" r="28.792" fill="blue" stroke="#3bbd0f" stroke-width="28.792"/></g><g><circle data-type="point" data-label="conn_004" data-x="1.62" data-y="-5" cx="664.9279999999999" cy="984" r="28.792" fill="red" stroke="#170fbd" stroke-width="28.792"/></g><g><circle data-type="point" data-label="conn_004" data-x="2.3000000000000003" data-y="-5" cx="729.1199999999999" cy="984" r="28.792" fill="blue" stroke="#170fbd" stroke-width="28.792"/></g><g><circle data-type="point" data-label="conn_005" data-x="-0.7000000000000001" data-y="5" cx="445.91999999999996" cy="40.000000000000284" r="28.792" fill="blue" stroke="#bd490f" stroke-width="28.792"/></g><g><circle data-type="point" data-label="conn_005" data-x="-5" data-y="1.22" cx="40.000000000000114" cy="396.83200000000016" r="28.792" fill="red" stroke="#bd490f" stroke-width="28.792"/></g><g><circle data-type="point" data-label="conn_006" data-x="-5" data-y="-4.42" cx="40.000000000000114" cy="929.2479999999999" r="28.792" fill="red" stroke="#0fbd7c" stroke-width="28.792"/></g><g><circle data-type="point" data-label="conn_006" data-x="-4.34" data-y="-5" cx="102.30400000000014" cy="984" r="28.792" fill="blue" stroke="#0fbd7c" stroke-width="28.792"/></g><g><circle data-type="point" data-label="conn_007" data-x="5" data-y="3.04" cx="983.9999999999998" cy="225.02400000000023" r="28.792" fill="red" stroke="#ae0fbd" stroke-width="28.792"/></g><g><circle data-type="point" data-label="conn_007" data-x="5" data-y="-2.66" cx="983.9999999999998" cy="763.104" r="28.792" fill="blue" stroke="#ae0fbd" stroke-width="28.792"/></g><g><circle data-type="point" data-label="conn_008" data-x="0.44" data-y="5" cx="553.536" cy="40.000000000000284" r="28.792" fill="blue" stroke="#98bd0f" stroke-width="28.792"/></g><g><circle data-type="point" data-label="conn_008" data-x="-1.6" data-y="5" cx="360.96000000000004" cy="40.000000000000284" r="28.792" fill="blue" stroke="#98bd0f" stroke-width="28.792"/></g><g><circle data-type="point" data-label="conn_009" data-x="5" data-y="-0.18" cx="983.9999999999998" cy="528.9920000000001" r="28.792" fill="red" stroke="#0f66bd" stroke-width="28.792"/></g><g><circle data-type="point" data-label="conn_009" data-x="-5" data-y="-1.6" cx="40.000000000000114" cy="663.0400000000001" r="28.792" fill="red" stroke="#0f66bd" stroke-width="28.792"/></g><g><polyline data-points="1.6666666666666674,-5.000000000000001 1.767676767676768,-4.898989898989899 1.8686868686868696,-4.7979797979797985 1.9696969696969702,-4.696969696969697 2.070707070707072,-4.595959595959596 2.1717171717171726,-4.494949494949496 2.1717171717171726,-4.393939393939394 2.1717171717171726,-4.292929292929293 2.1717171717171726,-4.191919191919193 2.2727272727272734,-4.090909090909091 2.373737373737375,-3.98989898989899" data-type="line" data-label="" points="669.3333333333333,984 678.8686868686868,974.4646464646464 688.4040404040404,964.9292929292928 697.9393939393939,955.3939393939394 707.4747474747475,945.8585858585858 717.0101010101009,936.3232323232323 717.0101010101009,926.7878787878788 717.0101010101009,917.2525252525252 717.0101010101009,907.7171717171718 726.5454545454545,898.1818181818181 736.0808080808081,888.6464646464647" fill="none" stroke="rgba(255,0,0,0.75)" stroke-width="14.159999999999995"/></g><g><polyline data-points="2.373737373737375,-3.98989898989899 2.373737373737375,-4.090909090909091 2.373737373737375,-4.191919191919193 2.373737373737375,-4.292929292929293 2.373737373737375,-4.393939393939394 2.373737373737375,-4.494949494949496 2.373737373737375,-4.595959595959596 2.373737373737375,-4.696969696969697 2.373737373737375,-4.7979797979797985 2.373737373737375,-4.898989898989899 2.373737373737375,-5.000000000000001" data-type="line" data-label="" points="736.0808080808081,888.6464646464647 736.0808080808081,898.1818181818181 736.0808080808081,907.7171717171718 736.0808080808081,917.2525252525252 736.0808080808081,926.7878787878788 736.0808080808081,936.3232323232323 736.0808080808081,945.8585858585858 736.0808080808081,955.3939393939394 736.0808080808081,964.9292929292928 736.0808080808081,974.4646464646464 736.0808080808081,984" fill="none" stroke="rgba(0,0,255,0.75)" stroke-width="14.159999999999995"/></g><g><polyline data-points="-2.2727272727272725,5.000000000000002 -2.3737373737373733,4.898989898989901 -2.474747474747474,4.7979797979797985 -2.5757575757575752,4.696969696969697 -2.6767676767676765,4.595959595959597 -2.7777777777777777,4.494949494949497 -2.8787878787878785,4.393939393939394 -2.9797979797979792,4.292929292929293 -3.0808080808080804,4.191919191919193 -3.1818181818181817,4.090909090909092 -3.2828282828282824,3.989898989898992 -3.383838383838383,3.8888888888888893 -3.484848484848485,3.7878787878787885 -3.5858585858585856,3.6868686868686877 -3.6868686868686864,3.5858585858585874 -3.7878787878787876,3.4848484848484866 -3.8888888888888884,3.383838383838384 -3.98989898989899,3.2828282828282833 -3.98989898989899,3.181818181818183 -3.98989898989899,3.080808080808082 -3.98989898989899,2.9797979797979806 -3.98989898989899,2.87878787878788 -3.98989898989899,2.7777777777777786 -3.98989898989899,2.676767676767678 -3.98989898989899,2.575757575757577 -3.98989898989899,2.4747474747474754 -3.98989898989899,2.373737373737375 -3.98989898989899,2.2727272727272734 -3.98989898989899,2.1717171717171726 -3.98989898989899,2.070707070707072 -3.98989898989899,1.9696969696969702 -3.98989898989899,1.8686868686868696 -3.98989898989899,1.767676767676768 -3.98989898989899,1.6666666666666674 -3.98989898989899,1.5656565656565666 -3.98989898989899,1.4646464646464652 -3.98989898989899,1.3636363636363644 -3.98989898989899,1.262626262626263 -3.98989898989899,1.1616161616161622 -3.98989898989899,1.0606060606060617 -3.98989898989899,0.9595959595959602 -3.98989898989899,0.8585858585858596 -3.98989898989899,0.7575757575757579 -3.98989898989899,0.6565656565656574 -3.98989898989899,0.5555555555555567 -3.98989898989899,0.4545454545454551 -3.98989898989899,0.3535353535353544 -3.98989898989899,0.2525252525252529 -3.98989898989899,0.1515151515151522 -3.98989898989899,0.050505050505051545 -3.98989898989899,-0.05050505050505001 -3.98989898989899,-0.15151515151515066 -3.98989898989899,-0.2525252525252522 -3.98989898989899,-0.35353535353535287 -3.98989898989899,-0.4545454545454544 -3.98989898989899,-0.555555555555555 -3.98989898989899,-0.6565656565656557 -3.98989898989899,-0.7575757575757572 -3.98989898989899,-0.8585858585858579" data-type="line" data-label="" points="297.4545454545455,40.000000000000114 287.91919191919203,49.53535353535369 278.38383838383845,59.07070707070733 268.84848484848493,68.60606060606085 259.3131313131314,78.14141414141432 249.77777777777783,87.67676767676778 240.2424242424243,97.21212121212153 230.70707070707084,106.747474747475 221.17171717171726,116.28282828282846 211.63636363636374,125.81818181818198 202.10101010101022,135.35353535353545 192.5656565656567,144.88888888888908 183.03030303030312,154.4242424242426 173.4949494949496,163.95959595959613 163.95959595959607,173.4949494949496 154.42424242424255,183.03030303030312 144.88888888888903,192.56565656565675 135.35353535353545,202.10101010101027 135.35353535353545,211.63636363636374 135.35353535353545,221.17171717171726 135.35353535353545,230.70707070707084 135.35353535353545,240.24242424242436 135.35353535353545,249.77777777777794 135.35353535353545,259.3131313131314 135.35353535353545,268.84848484848493 135.35353535353545,278.38383838383857 135.35353535353545,287.91919191919203 135.35353535353545,297.4545454545456 135.35353535353545,306.9898989898991 135.35353535353545,316.5252525252526 135.35353535353545,326.06060606060623 135.35353535353545,335.5959595959597 135.35353535353545,345.1313131313133 135.35353535353545,354.66666666666674 135.35353535353545,364.2020202020203 135.35353535353545,373.73737373737384 135.35353535353545,383.27272727272737 135.35353535353545,392.80808080808094 135.35353535353545,402.3434343434344 135.35353535353545,411.87878787878793 135.35353535353545,421.4141414141415 135.35353535353545,430.94949494949503 135.35353535353545,440.4848484848486 135.35353535353545,450.0202020202021 135.35353535353545,459.5555555555556 135.35353535353545,469.0909090909092 135.35353535353545,478.6262626262627 135.35353535353545,488.1616161616163 135.35353535353545,497.69696969696975 135.35353535353545,507.23232323232327 135.35353535353545,516.7676767676768 135.35353535353545,526.3030303030304 135.35353535353545,535.838383838384 135.35353535353545,545.3737373737374 135.35353535353545,554.909090909091 135.35353535353545,564.4444444444445 135.35353535353545,573.979797979798 135.35353535353545,583.5151515151516 135.35353535353545,593.0505050505051" fill="none" stroke="rgba(255,0,0,0.75)" stroke-width="14.159999999999995"/></g><g><polyline data-points="-3.98989898989899,-0.8585858585858579 -4.090909090909091,-0.8585858585858579 -4.191919191919193,-0.8585858585858579 -4.292929292929293,-0.8585858585858579 -4.393939393939394,-0.8585858585858579 -4.494949494949496,-0.8585858585858579 -4.595959595959596,-0.8585858585858579 -4.696969696969697,-0.8585858585858579 -4.7979797979797985,-0.8585858585858579 -4.898989898989899,-0.8585858585858579 -5.000000000000001,-0.8585858585858579" data-type="line" data-label="" points="135.35353535353545,593.0505050505051 125.81818181818193,593.0505050505051 116.28282828282829,593.0505050505051 106.74747474747483,593.0505050505051 97.21212121212136,593.0505050505051 87.67676767676772,593.0505050505051 78.14141414141426,593.0505050505051 68.60606060606068,593.0505050505051 59.07070707070716,593.0505050505051 49.53535353535369,593.0505050505051 40.00000000000006,593.0505050505051" fill="none" stroke="rgba(0,0,255,0.75)" stroke-width="14.159999999999995"/></g><g><polyline data-points="-4.595959595959596,5.000000000000002 -4.494949494949496,4.898989898989901 -4.494949494949496,4.7979797979797985 -4.494949494949496,4.696969696969697 -4.494949494949496,4.595959595959597 -4.494949494949496,4.494949494949497 -4.494949494949496,4.393939393939394 -4.494949494949496,4.292929292929293 -4.494949494949496,4.191919191919193 -4.494949494949496,4.090909090909092 -4.494949494949496,3.989898989898992 -4.494949494949496,3.8888888888888893 -4.494949494949496,3.7878787878787885 -4.494949494949496,3.6868686868686877 -4.494949494949496,3.5858585858585874 -4.494949494949496,3.4848484848484866 -4.494949494949496,3.383838383838384 -4.494949494949496,3.2828282828282833 -4.494949494949496,3.181818181818183 -4.494949494949496,3.080808080808082 -4.494949494949496,2.9797979797979806 -4.494949494949496,2.87878787878788 -4.494949494949496,2.7777777777777786 -4.494949494949496,2.676767676767678 -4.494949494949496,2.575757575757577 -4.494949494949496,2.4747474747474754 -4.494949494949496,2.373737373737375 -4.494949494949496,2.2727272727272734 -4.494949494949496,2.1717171717171726 -4.494949494949496,2.070707070707072 -4.494949494949496,1.9696969696969702 -4.494949494949496,1.8686868686868696 -4.494949494949496,1.767676767676768 -4.494949494949496,1.6666666666666674 -4.494949494949496,1.5656565656565666 -4.494949494949496,1.4646464646464652 -4.494949494949496,1.3636363636363644 -4.494949494949496,1.262626262626263 -4.494949494949496,1.1616161616161622 -4.494949494949496,1.0606060606060617 -4.494949494949496,0.9595959595959602 -4.494949494949496,0.8585858585858596 -4.494949494949496,0.7575757575757579 -4.494949494949496,0.6565656565656574 -4.494949494949496,0.5555555555555567 -4.494949494949496,0.4545454545454551 -4.494949494949496,0.3535353535353544 -4.494949494949496,0.2525252525252529 -4.494949494949496,0.1515151515151522 -4.494949494949496,0.050505050505051545 -4.494949494949496,-0.05050505050505001 -4.494949494949496,-0.15151515151515066 -4.494949494949496,-0.2525252525252522 -4.494949494949496,-0.35353535353535287 -4.494949494949496,-0.4545454545454544 -4.494949494949496,-0.555555555555555 -4.494949494949496,-0.6565656565656557 -4.494949494949496,-0.7575757575757572 -4.494949494949496,-0.8585858585858579 -4.393939393939394,-0.9595959595959596 -4.393939393939394,-1.0606060606060603 -4.292929292929293,-1.1616161616161613 -4.191919191919193,-1.2626262626262625 -4.090909090909091,-1.363636363636363 -3.98989898989899,-1.363636363636363 -3.8888888888888884,-1.363636363636363 -3.7878787878787876,-1.363636363636363 -3.6868686868686864,-1.363636363636363 -3.5858585858585856,-1.363636363636363 -3.484848484848485,-1.2626262626262625 -3.383838383838383,-1.1616161616161613 -3.2828282828282824,-1.0606060606060603 -3.1818181818181817,-0.9595959595959596" data-type="line" data-label="" points="78.14141414141426,40.000000000000114 87.67676767676772,49.53535353535369 87.67676767676772,59.07070707070733 87.67676767676772,68.60606060606085 87.67676767676772,78.14141414141432 87.67676767676772,87.67676767676778 87.67676767676772,97.21212121212153 87.67676767676772,106.747474747475 87.67676767676772,116.28282828282846 87.67676767676772,125.81818181818198 87.67676767676772,135.35353535353545 87.67676767676772,144.88888888888908 87.67676767676772,154.4242424242426 87.67676767676772,163.95959595959613 87.67676767676772,173.4949494949496 87.67676767676772,183.03030303030312 87.67676767676772,192.56565656565675 87.67676767676772,202.10101010101027 87.67676767676772,211.63636363636374 87.67676767676772,221.17171717171726 87.67676767676772,230.70707070707084 87.67676767676772,240.24242424242436 87.67676767676772,249.77777777777794 87.67676767676772,259.3131313131314 87.67676767676772,268.84848484848493 87.67676767676772,278.38383838383857 87.67676767676772,287.91919191919203 87.67676767676772,297.4545454545456 87.67676767676772,306.9898989898991 87.67676767676772,316.5252525252526 87.67676767676772,326.06060606060623 87.67676767676772,335.5959595959597 87.67676767676772,345.1313131313133 87.67676767676772,354.66666666666674 87.67676767676772,364.2020202020203 87.67676767676772,373.73737373737384 87.67676767676772,383.27272727272737 87.67676767676772,392.80808080808094 87.67676767676772,402.3434343434344 87.67676767676772,411.87878787878793 87.67676767676772,421.4141414141415 87.67676767676772,430.94949494949503 87.67676767676772,440.4848484848486 87.67676767676772,450.0202020202021 87.67676767676772,459.5555555555556 87.67676767676772,469.0909090909092 87.67676767676772,478.6262626262627 87.67676767676772,488.1616161616163 87.67676767676772,497.69696969696975 87.67676767676772,507.23232323232327 87.67676767676772,516.7676767676768 87.67676767676772,526.3030303030304 87.67676767676772,535.838383838384 87.67676767676772,545.3737373737374 87.67676767676772,554.909090909091 87.67676767676772,564.4444444444445 87.67676767676772,573.979797979798 87.67676767676772,583.5151515151516 87.67676767676772,593.0505050505051 97.21212121212136,602.5858585858587 97.21212121212136,612.1212121212121 106.74747474747483,621.6565656565657 116.28282828282829,631.1919191919193 125.81818181818193,640.7272727272727 135.35353535353545,640.7272727272727 144.88888888888903,640.7272727272727 154.42424242424255,640.7272727272727 163.95959595959607,640.7272727272727 173.4949494949496,640.7272727272727 183.03030303030312,631.1919191919193 192.5656565656567,621.6565656565657 202.10101010101022,612.1212121212121 211.63636363636374,602.5858585858587" fill="none" stroke="rgba(255,0,0,0.75)" stroke-width="14.159999999999995"/></g><g><polyline data-points="-3.1818181818181817,-0.9595959595959596 -3.0808080808080804,-1.0606060606060603 -3.0808080808080804,-1.1616161616161613 -3.0808080808080804,-1.2626262626262625 -3.0808080808080804,-1.363636363636363 -3.0808080808080804,-1.4646464646464643 -3.0808080808080804,-1.5656565656565653 -3.0808080808080804,-1.6666666666666665 -3.0808080808080804,-1.7676767676767675 -3.0808080808080804,-1.8686868686868683 -3.0808080808080804,-1.9696969696969693 -3.0808080808080804,-2.07070707070707 -3.0808080808080804,-2.1717171717171713 -3.0808080808080804,-2.2727272727272725 -3.0808080808080804,-2.3737373737373733 -3.0808080808080804,-2.474747474747474 -3.0808080808080804,-2.5757575757575752 -3.0808080808080804,-2.6767676767676765 -3.0808080808080804,-2.7777777777777777 -3.0808080808080804,-2.8787878787878785 -3.0808080808080804,-2.9797979797979792 -3.0808080808080804,-3.0808080808080804 -3.0808080808080804,-3.1818181818181817 -3.0808080808080804,-3.2828282828282824 -3.0808080808080804,-3.383838383838383 -3.0808080808080804,-3.484848484848485 -3.0808080808080804,-3.5858585858585856 -3.0808080808080804,-3.6868686868686864 -3.0808080808080804,-3.7878787878787876 -3.0808080808080804,-3.8888888888888884" data-type="line" data-label="" points="211.63636363636374,602.5858585858587 221.17171717171726,612.1212121212121 221.17171717171726,621.6565656565657 221.17171717171726,631.1919191919193 221.17171717171726,640.7272727272727 221.17171717171726,650.2626262626263 221.17171717171726,659.7979797979798 221.17171717171726,669.3333333333334 221.17171717171726,678.8686868686868 221.17171717171726,688.4040404040404 221.17171717171726,697.939393939394 221.17171717171726,707.4747474747475 221.17171717171726,717.010101010101 221.17171717171726,726.5454545454545 221.17171717171726,736.0808080808081 221.17171717171726,745.6161616161615 221.17171717171726,755.1515151515151 221.17171717171726,764.6868686868687 221.17171717171726,774.2222222222222 221.17171717171726,783.7575757575758 221.17171717171726,793.2929292929292 221.17171717171726,802.8282828282828 221.17171717171726,812.3636363636363 221.17171717171726,821.8989898989898 221.17171717171726,831.4343434343434 221.17171717171726,840.969696969697 221.17171717171726,850.5050505050505 221.17171717171726,860.0404040404039 221.17171717171726,869.5757575757575 221.17171717171726,879.1111111111111" fill="none" stroke="rgba(0,0,255,0.75)" stroke-width="14.159999999999995"/></g><g><polyline data-points="-3.0808080808080804,-3.8888888888888884 -2.9797979797979792,-3.98989898989899 -2.9797979797979792,-4.090909090909091 -2.9797979797979792,-4.191919191919193 -2.9797979797979792,-4.292929292929293 -2.9797979797979792,-4.393939393939394 -2.9797979797979792,-4.494949494949496 -2.9797979797979792,-4.595959595959596 -2.9797979797979792,-4.696969696969697 -2.9797979797979792,-4.7979797979797985 -2.9797979797979792,-4.898989898989899 -2.9797979797979792,-5.000000000000001" data-type="line" data-label="" points="221.17171717171726,879.1111111111111 230.70707070707084,888.6464646464647 230.70707070707084,898.1818181818181 230.70707070707084,907.7171717171718 230.70707070707084,917.2525252525252 230.70707070707084,926.7878787878788 230.70707070707084,936.3232323232323 230.70707070707084,945.8585858585858 230.70707070707084,955.3939393939394 230.70707070707084,964.9292929292928 230.70707070707084,974.4646464646464 230.70707070707084,984" fill="none" stroke="rgba(255,0,0,0.75)" stroke-width="14.159999999999995"/></g><g><polyline data-points="-5.000000000000001,-4.494949494949496 -4.898989898989899,-4.494949494949496 -4.7979797979797985,-4.494949494949496 -4.696969696969697,-4.393939393939394 -4.595959595959596,-4.393939393939394 -4.494949494949496,-4.393939393939394 -4.393939393939394,-4.393939393939394 -4.292929292929293,-4.292929292929293 -4.191919191919193,-4.191919191919193 -4.090909090909091,-4.090909090909091 -3.98989898989899,-3.98989898989899" data-type="line" data-label="" points="40.00000000000006,936.3232323232323 49.53535353535369,936.3232323232323 59.07070707070716,936.3232323232323 68.60606060606068,926.7878787878788 78.14141414141426,926.7878787878788 87.67676767676772,926.7878787878788 97.21212121212136,926.7878787878788 106.74747474747483,917.2525252525252 116.28282828282829,907.7171717171718 125.81818181818193,898.1818181818181 135.35353535353545,888.6464646464647" fill="none" stroke="rgba(255,0,0,0.75)" stroke-width="14.159999999999995"/></g><g><polyline data-points="-3.98989898989899,-3.98989898989899 -4.090909090909091,-4.090909090909091 -4.191919191919193,-4.191919191919193 -4.292929292929293,-4.292929292929293 -4.393939393939394,-4.393939393939394 -4.393939393939394,-4.494949494949496 -4.393939393939394,-4.595959595959596 -4.393939393939394,-4.696969696969697 -4.393939393939394,-4.7979797979797985 -4.393939393939394,-4.898989898989899 -4.393939393939394,-5.000000000000001" data-type="line" data-label="" points="135.35353535353545,888.6464646464647 125.81818181818193,898.1818181818181 116.28282828282829,907.7171717171718 106.74747474747483,917.2525252525252 97.21212121212136,926.7878787878788 97.21212121212136,936.3232323232323 97.21212121212136,945.8585858585858 97.21212121212136,955.3939393939394 97.21212121212136,964.9292929292928 97.21212121212136,974.4646464646464 97.21212121212136,984" fill="none" stroke="rgba(0,0,255,0.75)" stroke-width="14.159999999999995"/></g><g><polyline data-points="4.696969696969697,5.000000000000002 4.595959595959597,4.898989898989901 4.494949494949497,4.7979797979797985 4.393939393939394,4.696969696969697 4.292929292929293,4.595959595959597 4.191919191919193,4.494949494949497 4.090909090909092,4.393939393939394 3.989898989898992,4.292929292929293 3.8888888888888893,4.191919191919193 3.7878787878787885,4.090909090909092 3.6868686868686877,3.989898989898992 3.5858585858585874,3.8888888888888893 3.4848484848484866,3.7878787878787885 3.383838383838384,3.6868686868686877 3.2828282828282833,3.5858585858585874 3.181818181818183,3.4848484848484866 3.080808080808082,3.383838383838384 2.9797979797979806,3.2828282828282833 2.87878787878788,3.181818181818183 2.7777777777777786,3.080808080808082 2.676767676767678,2.9797979797979806 2.575757575757577,2.87878787878788 2.4747474747474754,2.7777777777777786 2.373737373737375,2.676767676767678 2.2727272727272734,2.575757575757577 2.1717171717171726,2.4747474747474754 2.070707070707072,2.373737373737375 1.9696969696969702,2.2727272727272734 1.8686868686868696,2.1717171717171726 1.767676767676768,2.070707070707072 1.6666666666666674,1.9696969696969702 1.5656565656565666,1.8686868686868696 1.4646464646464652,1.767676767676768 1.3636363636363644,1.6666666666666674 1.262626262626263,1.5656565656565666 1.1616161616161622,1.4646464646464652 1.0606060606060617,1.3636363636363644 0.9595959595959602,1.262626262626263 0.8585858585858596,1.1616161616161622 0.7575757575757579,1.0606060606060617 0.6565656565656574,0.9595959595959602 0.5555555555555567,0.8585858585858596 0.4545454545454551,0.7575757575757579 0.3535353535353544,0.6565656565656574 0.2525252525252529,0.5555555555555567 0.1515151515151522,0.4545454545454551 0.050505050505051545,0.3535353535353544 -0.05050505050505001,0.2525252525252529 -0.15151515151515066,0.1515151515151522 -0.2525252525252522,0.050505050505051545 -0.35353535353535287,-0.05050505050505001 -0.4545454545454544,-0.15151515151515066 -0.555555555555555,-0.2525252525252522 -0.6565656565656557,-0.35353535353535287 -0.7575757575757572,-0.4545454545454544 -0.8585858585858579,-0.555555555555555 -0.9595959595959596,-0.6565656565656557 -1.0606060606060603,-0.7575757575757572 -1.0606060606060603,-0.8585858585858579 -1.0606060606060603,-0.9595959595959596 -1.0606060606060603,-1.0606060606060603 -1.0606060606060603,-1.1616161616161613 -1.0606060606060603,-1.2626262626262625 -1.0606060606060603,-1.363636363636363 -1.0606060606060603,-1.4646464646464643 -1.0606060606060603,-1.5656565656565653 -1.0606060606060603,-1.6666666666666665 -1.0606060606060603,-1.7676767676767675 -1.0606060606060603,-1.8686868686868683 -1.0606060606060603,-1.9696969696969693 -1.0606060606060603,-2.07070707070707 -1.0606060606060603,-2.1717171717171713 -1.0606060606060603,-2.2727272727272725 -1.0606060606060603,-2.3737373737373733 -1.0606060606060603,-2.474747474747474 -1.0606060606060603,-2.5757575757575752 -1.0606060606060603,-2.6767676767676765 -1.0606060606060603,-2.7777777777777777 -1.0606060606060603,-2.8787878787878785 -1.0606060606060603,-2.9797979797979792 -1.0606060606060603,-3.0808080808080804 -1.0606060606060603,-3.1818181818181817 -1.0606060606060603,-3.2828282828282824 -1.0606060606060603,-3.383838383838383 -1.0606060606060603,-3.484848484848485 -1.0606060606060603,-3.5858585858585856 -1.0606060606060603,-3.6868686868686864 -1.0606060606060603,-3.7878787878787876 -1.0606060606060603,-3.8888888888888884 -1.0606060606060603,-3.98989898989899 -1.0606060606060603,-4.090909090909091 -1.0606060606060603,-4.191919191919193 -1.0606060606060603,-4.292929292929293 -1.0606060606060603,-4.393939393939394 -1.0606060606060603,-4.494949494949496 -1.0606060606060603,-4.595959595959596 -1.0606060606060603,-4.696969696969697 -1.0606060606060603,-4.7979797979797985 -1.0606060606060603,-4.898989898989899 -1.0606060606060603,-5.000000000000001" data-type="line" data-label="" points="955.3939393939393,40.000000000000114 945.8585858585857,49.53535353535369 936.3232323232323,59.07070707070733 926.7878787878785,68.60606060606085 917.2525252525251,78.14141414141432 907.7171717171716,87.67676767676778 898.181818181818,97.21212121212153 888.6464646464647,106.747474747475 879.111111111111,116.28282828282846 869.5757575757575,125.81818181818198 860.0404040404039,135.35353535353545 850.5050505050505,144.88888888888908 840.969696969697,154.4242424242426 831.4343434343433,163.95959595959613 821.8989898989898,173.4949494949496 812.3636363636363,183.03030303030312 802.8282828282828,192.56565656565675 793.2929292929292,202.10101010101027 783.7575757575758,211.63636363636374 774.2222222222222,221.17171717171726 764.6868686868686,230.70707070707084 755.1515151515151,240.24242424242436 745.6161616161615,249.77777777777794 736.0808080808081,259.3131313131314 726.5454545454545,268.84848484848493 717.0101010101009,278.38383838383857 707.4747474747475,287.91919191919203 697.9393939393939,297.4545454545456 688.4040404040404,306.9898989898991 678.8686868686868,316.5252525252526 669.3333333333333,326.06060606060623 659.7979797979798,335.5959595959597 650.2626262626262,345.1313131313133 640.7272727272727,354.66666666666674 631.1919191919192,364.2020202020203 621.6565656565656,373.73737373737384 612.1212121212121,383.27272727272737 602.5858585858585,392.80808080808094 593.0505050505051,402.3434343434344 583.5151515151515,411.87878787878793 573.9797979797979,421.4141414141415 564.4444444444445,430.94949494949503 554.9090909090909,440.4848484848486 545.3737373737374,450.0202020202021 535.8383838383838,459.5555555555556 526.3030303030303,469.0909090909092 516.7676767676768,478.6262626262627 507.2323232323232,488.1616161616163 497.69696969696975,497.69696969696975 488.16161616161617,507.23232323232327 478.62626262626264,516.7676767676768 469.09090909090907,526.3030303030304 459.55555555555554,535.838383838384 450.0202020202021,545.3737373737374 440.4848484848485,554.909090909091 430.949494949495,564.4444444444445 421.4141414141414,573.979797979798 411.8787878787879,583.5151515151516 411.8787878787879,593.0505050505051 411.8787878787879,602.5858585858587 411.8787878787879,612.1212121212121 411.8787878787879,621.6565656565657 411.8787878787879,631.1919191919193 411.8787878787879,640.7272727272727 411.8787878787879,650.2626262626263 411.8787878787879,659.7979797979798 411.8787878787879,669.3333333333334 411.8787878787879,678.8686868686868 411.8787878787879,688.4040404040404 411.8787878787879,697.939393939394 411.8787878787879,707.4747474747475 411.8787878787879,717.010101010101 411.8787878787879,726.5454545454545 411.8787878787879,736.0808080808081 411.8787878787879,745.6161616161615 411.8787878787879,755.1515151515151 411.8787878787879,764.6868686868687 411.8787878787879,774.2222222222222 411.8787878787879,783.7575757575758 411.8787878787879,793.2929292929292 411.8787878787879,802.8282828282828 411.8787878787879,812.3636363636363 411.8787878787879,821.8989898989898 411.8787878787879,831.4343434343434 411.8787878787879,840.969696969697 411.8787878787879,850.5050505050505 411.8787878787879,860.0404040404039 411.8787878787879,869.5757575757575 411.8787878787879,879.1111111111111 411.8787878787879,888.6464646464647 411.8787878787879,898.1818181818181 411.8787878787879,907.7171717171718 411.8787878787879,917.2525252525252 411.8787878787879,926.7878787878788 411.8787878787879,936.3232323232323 411.8787878787879,945.8585858585858 411.8787878787879,955.3939393939394 411.8787878787879,964.9292929292928 411.8787878787879,974.4646464646464 411.8787878787879,984" fill="none" stroke="rgba(0,0,255,0.75)" stroke-width="14.159999999999995"/></g><g><polyline data-points="-0.7575757575757572,5.000000000000002 -0.8585858585858579,4.898989898989901 -0.9595959595959596,4.7979797979797985 -1.0606060606060603,4.696969696969697 -1.1616161616161613,4.595959595959597 -1.1616161616161613,4.494949494949497 -1.1616161616161613,4.393939393939394 -1.1616161616161613,4.292929292929293 -1.1616161616161613,4.191919191919193 -1.1616161616161613,4.090909090909092 -1.1616161616161613,3.989898989898992 -1.1616161616161613,3.8888888888888893 -1.1616161616161613,3.7878787878787885 -1.1616161616161613,3.6868686868686877 -1.1616161616161613,3.5858585858585874 -1.1616161616161613,3.4848484848484866 -1.1616161616161613,3.383838383838384 -1.1616161616161613,3.2828282828282833 -1.1616161616161613,3.181818181818183 -1.1616161616161613,3.080808080808082 -1.1616161616161613,2.9797979797979806 -1.1616161616161613,2.87878787878788 -1.1616161616161613,2.7777777777777786 -1.1616161616161613,2.676767676767678 -1.1616161616161613,2.575757575757577 -1.1616161616161613,2.4747474747474754 -1.1616161616161613,2.373737373737375 -1.1616161616161613,2.2727272727272734 -1.1616161616161613,2.1717171717171726 -1.1616161616161613,2.070707070707072 -1.1616161616161613,1.9696969696969702 -1.1616161616161613,1.8686868686868696 -1.1616161616161613,1.767676767676768 -1.1616161616161613,1.6666666666666674 -1.1616161616161613,1.5656565656565666 -1.1616161616161613,1.4646464646464652 -1.1616161616161613,1.3636363636363644 -1.1616161616161613,1.262626262626263 -1.1616161616161613,1.1616161616161622 -1.1616161616161613,1.0606060606060617 -1.1616161616161613,0.9595959595959602 -1.1616161616161613,0.8585858585858596 -1.1616161616161613,0.7575757575757579 -1.1616161616161613,0.6565656565656574 -1.1616161616161613,0.5555555555555567 -1.1616161616161613,0.4545454545454551 -1.1616161616161613,0.3535353535353544 -1.1616161616161613,0.2525252525252529 -1.1616161616161613,0.1515151515151522 -1.1616161616161613,0.050505050505051545 -1.1616161616161613,-0.05050505050505001 -1.1616161616161613,-0.15151515151515066 -1.1616161616161613,-0.2525252525252522 -1.1616161616161613,-0.35353535353535287 -1.1616161616161613,-0.4545454545454544 -1.2626262626262625,-0.555555555555555 -1.363636363636363,-0.6565656565656557 -1.4646464646464643,-0.7575757575757572 -1.5656565656565653,-0.8585858585858579 -1.6666666666666665,-0.9595959595959596 -1.7676767676767675,-1.0606060606060603 -1.8686868686868683,-1.1616161616161613 -1.9696969696969693,-1.2626262626262625 -2.07070707070707,-1.363636363636363 -2.1717171717171713,-1.4646464646464643 -2.2727272727272725,-1.5656565656565653 -2.3737373737373733,-1.6666666666666665 -2.474747474747474,-1.7676767676767675 -2.474747474747474,-1.8686868686868683 -2.474747474747474,-1.9696969696969693 -2.474747474747474,-2.07070707070707 -2.474747474747474,-2.1717171717171713" data-type="line" data-label="" points="440.4848484848485,40.000000000000114 430.949494949495,49.53535353535369 421.4141414141414,59.07070707070733 411.8787878787879,68.60606060606085 402.34343434343435,78.14141414141432 402.34343434343435,87.67676767676778 402.34343434343435,97.21212121212153 402.34343434343435,106.747474747475 402.34343434343435,116.28282828282846 402.34343434343435,125.81818181818198 402.34343434343435,135.35353535353545 402.34343434343435,144.88888888888908 402.34343434343435,154.4242424242426 402.34343434343435,163.95959595959613 402.34343434343435,173.4949494949496 402.34343434343435,183.03030303030312 402.34343434343435,192.56565656565675 402.34343434343435,202.10101010101027 402.34343434343435,211.63636363636374 402.34343434343435,221.17171717171726 402.34343434343435,230.70707070707084 402.34343434343435,240.24242424242436 402.34343434343435,249.77777777777794 402.34343434343435,259.3131313131314 402.34343434343435,268.84848484848493 402.34343434343435,278.38383838383857 402.34343434343435,287.91919191919203 402.34343434343435,297.4545454545456 402.34343434343435,306.9898989898991 402.34343434343435,316.5252525252526 402.34343434343435,326.06060606060623 402.34343434343435,335.5959595959597 402.34343434343435,345.1313131313133 402.34343434343435,354.66666666666674 402.34343434343435,364.2020202020203 402.34343434343435,373.73737373737384 402.34343434343435,383.27272727272737 402.34343434343435,392.80808080808094 402.34343434343435,402.3434343434344 402.34343434343435,411.87878787878793 402.34343434343435,421.4141414141415 402.34343434343435,430.94949494949503 402.34343434343435,440.4848484848486 402.34343434343435,450.0202020202021 402.34343434343435,459.5555555555556 402.34343434343435,469.0909090909092 402.34343434343435,478.6262626262627 402.34343434343435,488.1616161616163 402.34343434343435,497.69696969696975 402.34343434343435,507.23232323232327 402.34343434343435,516.7676767676768 402.34343434343435,526.3030303030304 402.34343434343435,535.838383838384 402.34343434343435,545.3737373737374 402.34343434343435,554.909090909091 392.80808080808083,564.4444444444445 383.2727272727273,573.979797979798 373.7373737373738,583.5151515151516 364.2020202020202,593.0505050505051 354.6666666666667,602.5858585858587 345.13131313131316,612.1212121212121 335.59595959595964,621.6565656565657 326.0606060606061,631.1919191919193 316.5252525252526,640.7272727272727 306.9898989898991,650.2626262626263 297.4545454545455,659.7979797979798 287.91919191919203,669.3333333333334 278.38383838383845,678.8686868686868 278.38383838383845,688.4040404040404 278.38383838383845,697.939393939394 278.38383838383845,707.4747474747475 278.38383838383845,717.010101010101" fill="none" stroke="rgba(0,0,255,0.75)" stroke-width="14.159999999999995"/></g><g><polyline data-points="-2.474747474747474,-2.1717171717171713 -2.5757575757575752,-2.07070707070707 -2.6767676767676765,-1.9696969696969693 -2.7777777777777777,-1.8686868686868683 -2.8787878787878785,-1.7676767676767675 -2.9797979797979792,-1.7676767676767675 -3.0808080808080804,-1.7676767676767675 -3.1818181818181817,-1.7676767676767675 -3.2828282828282824,-1.7676767676767675 -3.383838383838383,-1.7676767676767675 -3.484848484848485,-1.7676767676767675 -3.5858585858585856,-1.7676767676767675 -3.6868686868686864,-1.7676767676767675 -3.7878787878787876,-1.7676767676767675 -3.8888888888888884,-1.7676767676767675 -3.98989898989899,-1.7676767676767675 -4.090909090909091,-1.6666666666666665 -4.191919191919193,-1.5656565656565653 -4.292929292929293,-1.4646464646464643 -4.393939393939394,-1.363636363636363 -4.494949494949496,-1.2626262626262625 -4.595959595959596,-1.1616161616161613 -4.696969696969697,-1.0606060606060603 -4.7979797979797985,-0.9595959595959596 -4.898989898989899,-0.8585858585858579 -5.000000000000001,-0.7575757575757572 -5.000000000000001,-0.6565656565656557 -5.000000000000001,-0.555555555555555 -5.000000000000001,-0.4545454545454544 -5.000000000000001,-0.35353535353535287 -5.000000000000001,-0.2525252525252522 -5.000000000000001,-0.15151515151515066 -5.000000000000001,-0.05050505050505001 -5.000000000000001,0.050505050505051545 -5.000000000000001,0.1515151515151522 -5.000000000000001,0.2525252525252529 -5.000000000000001,0.3535353535353544 -5.000000000000001,0.4545454545454551 -5.000000000000001,0.5555555555555567 -5.000000000000001,0.6565656565656574 -5.000000000000001,0.7575757575757579 -5.000000000000001,0.8585858585858596 -5.000000000000001,0.9595959595959602 -5.000000000000001,1.0606060606060617 -5.000000000000001,1.1616161616161622 -5.000000000000001,1.262626262626263" data-type="line" data-label="" points="278.38383838383845,717.010101010101 268.84848484848493,707.4747474747475 259.3131313131314,697.939393939394 249.77777777777783,688.4040404040404 240.2424242424243,678.8686868686868 230.70707070707084,678.8686868686868 221.17171717171726,678.8686868686868 211.63636363636374,678.8686868686868 202.10101010101022,678.8686868686868 192.5656565656567,678.8686868686868 183.03030303030312,678.8686868686868 173.4949494949496,678.8686868686868 163.95959595959607,678.8686868686868 154.42424242424255,678.8686868686868 144.88888888888903,678.8686868686868 135.35353535353545,678.8686868686868 125.81818181818193,669.3333333333334 116.28282828282829,659.7979797979798 106.74747474747483,650.2626262626263 97.21212121212136,640.7272727272727 87.67676767676772,631.1919191919193 78.14141414141426,621.6565656565657 68.60606060606068,612.1212121212121 59.07070707070716,602.5858585858587 49.53535353535369,593.0505050505051 40.00000000000006,583.5151515151516 40.00000000000006,573.979797979798 40.00000000000006,564.4444444444445 40.00000000000006,554.909090909091 40.00000000000006,545.3737373737374 40.00000000000006,535.838383838384 40.00000000000006,526.3030303030304 40.00000000000006,516.7676767676768 40.00000000000006,507.23232323232327 40.00000000000006,497.69696969696975 40.00000000000006,488.1616161616163 40.00000000000006,478.6262626262627 40.00000000000006,469.0909090909092 40.00000000000006,459.5555555555556 40.00000000000006,450.0202020202021 40.00000000000006,440.4848484848486 40.00000000000006,430.94949494949503 40.00000000000006,421.4141414141415 40.00000000000006,411.87878787878793 40.00000000000006,402.3434343434344 40.00000000000006,392.80808080808094" fill="none" stroke="rgba(255,0,0,0.75)" stroke-width="14.159999999999995"/></g><g><polyline data-points="5.000000000000002,3.080808080808082 4.898989898989901,2.9797979797979806 4.898989898989901,2.87878787878788 4.898989898989901,2.7777777777777786 4.898989898989901,2.676767676767678 4.898989898989901,2.575757575757577 4.898989898989901,2.4747474747474754 4.898989898989901,2.373737373737375 4.898989898989901,2.2727272727272734 4.898989898989901,2.1717171717171726 4.898989898989901,2.070707070707072 4.898989898989901,1.9696969696969702 4.898989898989901,1.8686868686868696 4.898989898989901,1.767676767676768 4.898989898989901,1.6666666666666674 4.898989898989901,1.5656565656565666 4.898989898989901,1.4646464646464652 4.898989898989901,1.3636363636363644 4.898989898989901,1.262626262626263 4.898989898989901,1.1616161616161622 4.898989898989901,1.0606060606060617 4.898989898989901,0.9595959595959602 4.898989898989901,0.8585858585858596 4.898989898989901,0.7575757575757579 4.898989898989901,0.6565656565656574 4.898989898989901,0.5555555555555567 4.898989898989901,0.4545454545454551 4.898989898989901,0.3535353535353544 4.898989898989901,0.2525252525252529 4.7979797979797985,0.1515151515151522 4.696969696969697,0.050505050505051545 4.595959595959597,-0.05050505050505001 4.494949494949497,-0.15151515151515066 4.393939393939394,-0.2525252525252522 4.292929292929293,-0.35353535353535287 4.191919191919193,-0.4545454545454544 4.090909090909092,-0.555555555555555 3.989898989898992,-0.6565656565656557" data-type="line" data-label="" points="984,221.17171717171726 974.4646464646464,230.70707070707084 974.4646464646464,240.24242424242436 974.4646464646464,249.77777777777794 974.4646464646464,259.3131313131314 974.4646464646464,268.84848484848493 974.4646464646464,278.38383838383857 974.4646464646464,287.91919191919203 974.4646464646464,297.4545454545456 974.4646464646464,306.9898989898991 974.4646464646464,316.5252525252526 974.4646464646464,326.06060606060623 974.4646464646464,335.5959595959597 974.4646464646464,345.1313131313133 974.4646464646464,354.66666666666674 974.4646464646464,364.2020202020203 974.4646464646464,373.73737373737384 974.4646464646464,383.27272727272737 974.4646464646464,392.80808080808094 974.4646464646464,402.3434343434344 974.4646464646464,411.87878787878793 974.4646464646464,421.4141414141415 974.4646464646464,430.94949494949503 974.4646464646464,440.4848484848486 974.4646464646464,450.0202020202021 974.4646464646464,459.5555555555556 974.4646464646464,469.0909090909092 974.4646464646464,478.6262626262627 974.4646464646464,488.1616161616163 964.9292929292927,497.69696969696975 955.3939393939393,507.23232323232327 945.8585858585857,516.7676767676768 936.3232323232323,526.3030303030304 926.7878787878785,535.838383838384 917.2525252525251,545.3737373737374 907.7171717171716,554.909090909091 898.181818181818,564.4444444444445 888.6464646464647,573.979797979798" fill="none" stroke="rgba(255,0,0,0.75)" stroke-width="14.159999999999995"/></g><g><polyline data-points="3.989898989898992,-0.6565656565656557 4.090909090909092,-0.7575757575757572 4.191919191919193,-0.8585858585858579 4.292929292929293,-0.9595959595959596 4.393939393939394,-1.0606060606060603 4.494949494949497,-1.1616161616161613 4.595959595959597,-1.2626262626262625 4.696969696969697,-1.363636363636363 4.7979797979797985,-1.4646464646464643 4.898989898989901,-1.5656565656565653 5.000000000000002,-1.6666666666666665 5.000000000000002,-1.7676767676767675 5.000000000000002,-1.8686868686868683 5.000000000000002,-1.9696969696969693 5.000000000000002,-2.07070707070707 5.000000000000002,-2.1717171717171713 5.000000000000002,-2.2727272727272725 5.000000000000002,-2.3737373737373733 5.000000000000002,-2.474747474747474 5.000000000000002,-2.5757575757575752 5.000000000000002,-2.6767676767676765" data-type="line" data-label="" points="888.6464646464647,573.979797979798 898.181818181818,583.5151515151516 907.7171717171716,593.0505050505051 917.2525252525251,602.5858585858587 926.7878787878785,612.1212121212121 936.3232323232323,621.6565656565657 945.8585858585857,631.1919191919193 955.3939393939393,640.7272727272727 964.9292929292927,650.2626262626263 974.4646464646464,659.7979797979798 984,669.3333333333334 984,678.8686868686868 984,688.4040404040404 984,697.939393939394 984,707.4747474747475 984,717.010101010101 984,726.5454545454545 984,736.0808080808081 984,745.6161616161615 984,755.1515151515151 984,764.6868686868687" fill="none" stroke="rgba(0,0,255,0.75)" stroke-width="14.159999999999995"/></g><g><polyline data-points="5.000000000000002,-0.15151515151515066 4.898989898989901,-0.15151515151515066 4.7979797979797985,-0.2525252525252522 4.696969696969697,-0.35353535353535287 4.595959595959597,-0.4545454545454544 4.494949494949497,-0.555555555555555 4.595959595959597,-0.6565656565656557 4.494949494949497,-0.7575757575757572 4.393939393939394,-0.8585858585858579 4.292929292929293,-0.9595959595959596 4.191919191919193,-1.0606060606060603 4.090909090909092,-1.1616161616161613 3.989898989898992,-1.2626262626262625 3.8888888888888893,-1.363636363636363 3.7878787878787885,-1.4646464646464643 3.6868686868686877,-1.5656565656565653 3.5858585858585874,-1.6666666666666665 3.4848484848484866,-1.6666666666666665 3.383838383838384,-1.6666666666666665 3.2828282828282833,-1.6666666666666665 3.181818181818183,-1.6666666666666665 3.080808080808082,-1.6666666666666665 2.9797979797979806,-1.6666666666666665 2.87878787878788,-1.6666666666666665 2.7777777777777786,-1.6666666666666665 2.676767676767678,-1.6666666666666665 2.575757575757577,-1.6666666666666665 2.4747474747474754,-1.6666666666666665 2.373737373737375,-1.6666666666666665 2.2727272727272734,-1.6666666666666665 2.1717171717171726,-1.6666666666666665 2.070707070707072,-1.6666666666666665 1.9696969696969702,-1.6666666666666665 1.8686868686868696,-1.6666666666666665 1.767676767676768,-1.6666666666666665 1.6666666666666674,-1.6666666666666665 1.5656565656565666,-1.6666666666666665 1.4646464646464652,-1.6666666666666665 1.3636363636363644,-1.6666666666666665 1.262626262626263,-1.6666666666666665 1.1616161616161622,-1.6666666666666665 1.0606060606060617,-1.6666666666666665 0.9595959595959602,-1.6666666666666665 0.8585858585858596,-1.6666666666666665 0.7575757575757579,-1.6666666666666665 0.6565656565656574,-1.6666666666666665 0.5555555555555567,-1.6666666666666665 0.4545454545454551,-1.6666666666666665 0.3535353535353544,-1.6666666666666665 0.2525252525252529,-1.6666666666666665 0.1515151515151522,-1.6666666666666665 0.050505050505051545,-1.6666666666666665 -0.05050505050505001,-1.6666666666666665 -0.15151515151515066,-1.6666666666666665 -0.2525252525252522,-1.6666666666666665 -0.35353535353535287,-1.6666666666666665 -0.4545454545454544,-1.6666666666666665 -0.555555555555555,-1.6666666666666665 -0.6565656565656557,-1.6666666666666665 -0.7575757575757572,-1.6666666666666665 -0.8585858585858579,-1.6666666666666665 -0.9595959595959596,-1.6666666666666665 -1.0606060606060603,-1.6666666666666665 -1.1616161616161613,-1.6666666666666665 -1.2626262626262625,-1.6666666666666665 -1.363636363636363,-1.6666666666666665 -1.4646464646464643,-1.7676767676767675 -1.5656565656565653,-1.8686868686868683 -1.6666666666666665,-1.9696969696969693 -1.7676767676767675,-2.07070707070707 -1.8686868686868683,-2.1717171717171713 -1.9696969696969693,-2.2727272727272725 -2.07070707070707,-2.3737373737373733 -2.1717171717171713,-2.474747474747474 -2.2727272727272725,-2.5757575757575752 -2.3737373737373733,-2.5757575757575752 -2.474747474747474,-2.6767676767676765 -2.5757575757575752,-2.5757575757575752 -2.6767676767676765,-2.5757575757575752 -2.7777777777777777,-2.474747474747474 -2.8787878787878785,-2.3737373737373733 -2.9797979797979792,-2.2727272727272725 -3.0808080808080804,-2.1717171717171713 -3.1818181818181817,-2.07070707070707 -3.2828282828282824,-1.9696969696969693 -3.383838383838383,-1.9696969696969693 -3.484848484848485,-1.9696969696969693 -3.5858585858585856,-1.9696969696969693 -3.6868686868686864,-1.9696969696969693 -3.7878787878787876,-1.9696969696969693 -3.8888888888888884,-1.9696969696969693 -3.98989898989899,-1.9696969696969693 -4.090909090909091,-1.9696969696969693 -4.191919191919193,-1.8686868686868683 -4.292929292929293,-1.7676767676767675 -4.393939393939394,-1.6666666666666665 -4.494949494949496,-1.6666666666666665 -4.595959595959596,-1.6666666666666665 -4.696969696969697,-1.6666666666666665 -4.7979797979797985,-1.6666666666666665 -4.898989898989899,-1.6666666666666665 -5.000000000000001,-1.5656565656565653" data-type="line" data-label="" points="984,526.3030303030304 974.4646464646464,526.3030303030304 964.9292929292927,535.838383838384 955.3939393939393,545.3737373737374 945.8585858585857,554.909090909091 936.3232323232323,564.4444444444445 945.8585858585857,573.979797979798 936.3232323232323,583.5151515151516 926.7878787878785,593.0505050505051 917.2525252525251,602.5858585858587 907.7171717171716,612.1212121212121 898.181818181818,621.6565656565657 888.6464646464647,631.1919191919193 879.111111111111,640.7272727272727 869.5757575757575,650.2626262626263 860.0404040404039,659.7979797979798 850.5050505050505,669.3333333333334 840.969696969697,669.3333333333334 831.4343434343433,669.3333333333334 821.8989898989898,669.3333333333334 812.3636363636363,669.3333333333334 802.8282828282828,669.3333333333334 793.2929292929292,669.3333333333334 783.7575757575758,669.3333333333334 774.2222222222222,669.3333333333334 764.6868686868686,669.3333333333334 755.1515151515151,669.3333333333334 745.6161616161615,669.3333333333334 736.0808080808081,669.3333333333334 726.5454545454545,669.3333333333334 717.0101010101009,669.3333333333334 707.4747474747475,669.3333333333334 697.9393939393939,669.3333333333334 688.4040404040404,669.3333333333334 678.8686868686868,669.3333333333334 669.3333333333333,669.3333333333334 659.7979797979798,669.3333333333334 650.2626262626262,669.3333333333334 640.7272727272727,669.3333333333334 631.1919191919192,669.3333333333334 621.6565656565656,669.3333333333334 612.1212121212121,669.3333333333334 602.5858585858585,669.3333333333334 593.0505050505051,669.3333333333334 583.5151515151515,669.3333333333334 573.9797979797979,669.3333333333334 564.4444444444445,669.3333333333334 554.9090909090909,669.3333333333334 545.3737373737374,669.3333333333334 535.8383838383838,669.3333333333334 526.3030303030303,669.3333333333334 516.7676767676768,669.3333333333334 507.2323232323232,669.3333333333334 497.69696969696975,669.3333333333334 488.16161616161617,669.3333333333334 478.62626262626264,669.3333333333334 469.09090909090907,669.3333333333334 459.55555555555554,669.3333333333334 450.0202020202021,669.3333333333334 440.4848484848485,669.3333333333334 430.949494949495,669.3333333333334 421.4141414141414,669.3333333333334 411.8787878787879,669.3333333333334 402.34343434343435,669.3333333333334 392.80808080808083,669.3333333333334 383.2727272727273,669.3333333333334 373.7373737373738,678.8686868686868 364.2020202020202,688.4040404040404 354.6666666666667,697.939393939394 345.13131313131316,707.4747474747475 335.59595959595964,717.010101010101 326.0606060606061,726.5454545454545 316.5252525252526,736.0808080808081 306.9898989898991,745.6161616161615 297.4545454545455,755.1515151515151 287.91919191919203,755.1515151515151 278.38383838383845,764.6868686868687 268.84848484848493,755.1515151515151 259.3131313131314,755.1515151515151 249.77777777777783,745.6161616161615 240.2424242424243,736.0808080808081 230.70707070707084,726.5454545454545 221.17171717171726,717.010101010101 211.63636363636374,707.4747474747475 202.10101010101022,697.939393939394 192.5656565656567,697.939393939394 183.03030303030312,697.939393939394 173.4949494949496,697.939393939394 163.95959595959607,697.939393939394 154.42424242424255,697.939393939394 144.88888888888903,697.939393939394 135.35353535353545,697.939393939394 125.81818181818193,697.939393939394 116.28282828282829,688.4040404040404 106.74747474747483,678.8686868686868 97.21212121212136,669.3333333333334 87.67676767676772,669.3333333333334 78.14141414141426,669.3333333333334 68.60606060606068,669.3333333333334 59.07070707070716,669.3333333333334 49.53535353535369,669.3333333333334 40.00000000000006,659.7979797979798" fill="none" stroke="rgba(255,0,0,0.75)" stroke-width="14.159999999999995"/></g><g><polyline data-points="0.4545454545454551,5.000000000000002 0.3535353535353544,4.898989898989901 0.2525252525252529,4.7979797979797985 0.1515151515151522,4.696969696969697 0.050505050505051545,4.595959595959597 -0.05050505050505001,4.494949494949497 -0.15151515151515066,4.393939393939394 -0.2525252525252522,4.292929292929293 -0.35353535353535287,4.191919191919193 -0.4545454545454544,4.090909090909092 -0.555555555555555,3.989898989898992" data-type="line" data-label="" points="554.9090909090909,40.000000000000114 545.3737373737374,49.53535353535369 535.8383838383838,59.07070707070733 526.3030303030303,68.60606060606085 516.7676767676768,78.14141414141432 507.2323232323232,87.67676767676778 497.69696969696975,97.21212121212153 488.16161616161617,106.747474747475 478.62626262626264,116.28282828282846 469.09090909090907,125.81818181818198 459.55555555555554,135.35353535353545" fill="none" stroke="rgba(0,0,255,0.75)" stroke-width="14.159999999999995"/></g><g><polyline data-points="-0.555555555555555,3.989898989898992 -0.6565656565656557,3.989898989898992 -0.7575757575757572,3.989898989898992 -0.8585858585858579,3.989898989898992 -0.9595959595959596,3.989898989898992 -1.0606060606060603,3.989898989898992 -1.1616161616161613,3.989898989898992 -1.2626262626262625,3.989898989898992 -1.363636363636363,3.989898989898992 -1.4646464646464643,3.989898989898992 -1.5656565656565653,3.989898989898992 -1.6666666666666665,3.989898989898992 -1.7676767676767675,3.989898989898992" data-type="line" data-label="" points="459.55555555555554,135.35353535353545 450.0202020202021,135.35353535353545 440.4848484848485,135.35353535353545 430.949494949495,135.35353535353545 421.4141414141414,135.35353535353545 411.8787878787879,135.35353535353545 402.34343434343435,135.35353535353545 392.80808080808083,135.35353535353545 383.2727272727273,135.35353535353545 373.7373737373738,135.35353535353545 364.2020202020202,135.35353535353545 354.6666666666667,135.35353535353545 345.13131313131316,135.35353535353545" fill="none" stroke="rgba(255,0,0,0.75)" stroke-width="14.159999999999995"/></g><g><polyline data-points="-1.7676767676767675,3.989898989898992 -1.6666666666666665,4.090909090909092 -1.5656565656565653,4.191919191919193 -1.5656565656565653,4.292929292929293 -1.5656565656565653,4.393939393939394 -1.5656565656565653,4.494949494949497 -1.5656565656565653,4.595959595959597 -1.5656565656565653,4.696969696969697 -1.5656565656565653,4.7979797979797985 -1.5656565656565653,4.898989898989901 -1.5656565656565653,5.000000000000002" data-type="line" data-label="" points="345.13131313131316,135.35353535353545 354.6666666666667,125.81818181818198 364.2020202020202,116.28282828282846 364.2020202020202,106.747474747475 364.2020202020202,97.21212121212153 364.2020202020202,87.67676767676778 364.2020202020202,78.14141414141432 364.2020202020202,68.60606060606085 364.2020202020202,59.07070707070733 364.2020202020202,49.53535353535369 364.2020202020202,40.000000000000114" fill="none" stroke="rgba(0,0,255,0.75)" stroke-width="14.159999999999995"/></g><g><polyline data-points="5.000000000000002,0.5555555555555567 4.898989898989901,0.5555555555555567 4.7979797979797985,0.6565656565656574 4.7979797979797985,0.7575757575757579 4.7979797979797985,0.8585858585858596 4.7979797979797985,0.9595959595959602 4.7979797979797985,1.0606060606060617 4.7979797979797985,1.1616161616161622 4.7979797979797985,1.262626262626263 4.696969696969697,1.3636363636363644 4.595959595959597,1.4646464646464652 4.494949494949497,1.5656565656565666 4.393939393939394,1.6666666666666674 4.292929292929293,1.767676767676768 4.191919191919193,1.8686868686868696 4.090909090909092,1.9696969696969702 3.989898989898992,2.070707070707072" data-type="line" data-label="" points="984,459.5555555555556 974.4646464646464,459.5555555555556 964.9292929292927,450.0202020202021 964.9292929292927,440.4848484848486 964.9292929292927,430.94949494949503 964.9292929292927,421.4141414141415 964.9292929292927,411.87878787878793 964.9292929292927,402.3434343434344 964.9292929292927,392.80808080808094 955.3939393939393,383.27272727272737 945.8585858585857,373.73737373737384 936.3232323232323,364.2020202020203 926.7878787878785,354.66666666666674 917.2525252525251,345.1313131313133 907.7171717171716,335.5959595959597 898.181818181818,326.06060606060623 888.6464646464647,316.5252525252526" fill="none" stroke="rgba(0,0,255,0.75)" stroke-width="14.159999999999995"/></g><g><polyline data-points="3.989898989898992,2.070707070707072 4.090909090909092,2.1717171717171726 4.191919191919193,2.2727272727272734 4.292929292929293,2.373737373737375 4.393939393939394,2.4747474747474754 4.494949494949497,2.575757575757577 4.595959595959597,2.676767676767678 4.696969696969697,2.7777777777777786 4.595959595959597,2.87878787878788 4.696969696969697,2.9797979797979806 4.696969696969697,3.080808080808082 4.7979797979797985,3.181818181818183 4.898989898989901,3.2828282828282833 4.898989898989901,3.383838383838384 4.898989898989901,3.4848484848484866 4.898989898989901,3.5858585858585874 4.898989898989901,3.6868686868686877 4.898989898989901,3.7878787878787885 4.898989898989901,3.8888888888888893 4.898989898989901,3.989898989898992 4.898989898989901,4.090909090909092 5.000000000000002,4.191919191919193" data-type="line" data-label="" points="888.6464646464647,316.5252525252526 898.181818181818,306.9898989898991 907.7171717171716,297.4545454545456 917.2525252525251,287.91919191919203 926.7878787878785,278.38383838383857 936.3232323232323,268.84848484848493 945.8585858585857,259.3131313131314 955.3939393939393,249.77777777777794 945.8585858585857,240.24242424242436 955.3939393939393,230.70707070707084 955.3939393939393,221.17171717171726 964.9292929292927,211.63636363636374 974.4646464646464,202.10101010101027 974.4646464646464,192.56565656565675 974.4646464646464,183.03030303030312 974.4646464646464,173.4949494949496 974.4646464646464,163.95959595959613 974.4646464646464,154.4242424242426 974.4646464646464,144.88888888888908 974.4646464646464,135.35353535353545 974.4646464646464,125.81818181818198 984,116.28282828282846" fill="none" stroke="rgba(255,0,0,0.75)" stroke-width="14.159999999999995"/></g><g><rect data-type="rect" data-label="" data-x="0" data-y="0" x="40.000000000000114" y="40.000000000000284" width="943.9999999999997" height="943.9999999999998" fill="none" stroke="gray" stroke-width="0.010593220338983056"/></g><g><rect data-type="rect" data-label="" data-x="0" data-y="0" x="40.000000000000114" y="40.000000000000284" width="943.9999999999997" height="943.9999999999998" fill="none" stroke="rgba(15, 23, 42, 0.8)" stroke-width="0.010593220338983056"/></g><circle data-type="circle" data-label="" data-x="2.373737373737375" data-y="-3.98989898989899" cx="736.0808080808081" cy="888.6464646464647" r="28.791999999999987" fill="rgba(0,0,0,0.3)" stroke="black" stroke-width="0.010593220338983056"/><circle data-type="circle" data-label="" data-x="-3.98989898989899" data-y="-0.8585858585858579" cx="135.35353535353545" cy="593.0505050505051" r="28.791999999999987" fill="rgba(0,0,0,0.3)" stroke="black" stroke-width="0.010593220338983056"/><circle data-type="circle" data-label="" data-x="-3.1818181818181817" data-y="-0.9595959595959596" cx="211.63636363636374" cy="602.5858585858587" r="28.791999999999987" fill="rgba(0,0,0,0.3)" stroke="black" stroke-width="0.010593220338983056"/><circle data-type="circle" data-label="" data-x="-3.0808080808080804" data-y="-3.8888888888888884" cx="221.17171717171726" cy="879.1111111111111" r="28.791999999999987" fill="rgba(0,0,0,0.3)" stroke="black" stroke-width="0.010593220338983056"/><circle data-type="circle" data-label="" data-x="-3.98989898989899" data-y="-3.98989898989899" cx="135.35353535353545" cy="888.6464646464647" r="28.791999999999987" fill="rgba(0,0,0,0.3)" stroke="black" stroke-width="0.010593220338983056"/><circle data-type="circle" data-label="" data-x="-2.474747474747474" data-y="-2.1717171717171713" cx="278.38383838383845" cy="717.010101010101" r="28.791999999999987" fill="rgba(0,0,0,0.3)" stroke="black" stroke-width="0.010593220338983056"/><circle data-type="circle" data-label="" data-x="3.989898989898992" data-y="-0.6565656565656557" cx="888.6464646464647" cy="573.979797979798" r="28.791999999999987" fill="rgba(0,0,0,0.3)" stroke="black" stroke-width="0.010593220338983056"/><circle data-type="circle" data-label="" data-x="-0.555555555555555" data-y="3.989898989898992" cx="459.55555555555554" cy="135.35353535353545" r="28.791999999999987" fill="rgba(0,0,0,0.3)" stroke="black" stroke-width="0.010593220338983056"/><circle data-type="circle" data-label="" data-x="-1.7676767676767675" data-y="3.989898989898992" cx="345.13131313131316" cy="135.35353535353545" r="28.791999999999987" fill="rgba(0,0,0,0.3)" stroke="black" stroke-width="0.010593220338983056"/><circle data-type="circle" data-label="" data-x="3.989898989898992" data-y="2.070707070707072" cx="888.6464646464647" cy="316.5252525252526" r="28.791999999999987" fill="rgba(0,0,0,0.3)" stroke="black" stroke-width="0.010593220338983056"/><g id="crosshair" style="display: none"><line id="crosshair-h" y1="0" y2="1024" stroke="#666" stroke-width="0.5"/><line id="crosshair-v" x1="0" x2="1024" stroke="#666" stroke-width="0.5"/><text id="coordinates" font-family="monospace" font-size="12" fill="#666"></text></g><script><![CDATA[
              document.currentScript.parentElement.addEventListener('mousemove', (e) => {
                const svg = e.currentTarget;
                const rect = svg.getBoundingClientRect();
                const x = e.clientX - rect.left;
                const y = e.clientY - rect.top;
                const crosshair = svg.getElementById('crosshair');
                const h = svg.getElementById('crosshair-h');
                const v = svg.getElementById('crosshair-v');
                const coords = svg.getElementById('coordinates');
                
                crosshair.style.display = 'block';
                h.setAttribute('x1', '0');
                h.setAttribute('x2', '1024');
                h.setAttribute('y1', y);
                h.setAttribute('y2', y);
                v.setAttribute('x1', x);
                v.setAttribute('x2', x);
                v.setAttribute('y1', '0');
                v.setAttribute('y2', '1024');

                // Calculate real coordinates using inverse transformation
                const matrix = {"a":94.39999999999996,"c":0,"e":511.99999999999994,"b":0,"d":-94.39999999999996,"f":512.0000000000001};
                // Manually invert and apply the affine transform
                // Since we only use translate and scale, we can directly compute:
                // x' = (x - tx) / sx
                // y' = (y - ty) / sy
                const sx = matrix.a;
                const sy = matrix.d;
                const tx = matrix.e; 
                const ty = matrix.f;
                const realPoint = {
                  x: (x - tx) / sx,
                  y: (y - ty) / sy // Flip y back since we used negative scale
                }
                
                coords.textContent = `(${realPoint.x.toFixed(2)}, ${realPoint.y.toFixed(2)})`;
                coords.setAttribute('x', (x + 5).toString());
                coords.setAttribute('y', (y - 5).toString());
              });
              document.currentScript.parentElement.addEventListener('mouseleave', () => {
                document.currentScript.parentElement.getElementById('crosshair').style.display = 'none';
              });
            ]]></script></svg>