<svg width="1024" height="1024" viewBox="0 0 1024 1024" xmlns="http://www.w3.org/2000/svg"><rect width="100%" height="100%" fill="white"/><g><circle data-type="point" data-label="conn_000" data-x="1.6400000000000001" data-y="-5" cx="666.8159999999999" cy="984" r="28.792" fill="blue" stroke="#3bbd0f" stroke-width="28.792"/></g><g><circle data-type="point" data-label="conn_000" data-x="2.84" data-y="5" cx="780.0959999999998" cy="40.000000000000284" r="28.792" fill="red" stroke="#3bbd0f" stroke-width="28.792"/></g><g><circle data-type="point" data-label="conn_001" data-x="5" data-y="3.3000000000000003" cx="983.9999999999998" cy="200.4800000000002" r="28.792" fill="red" stroke="#170fbd" stroke-width="28.792"/></g><g><circle data-type="point" data-label="conn_001" data-x="-5" data-y="4.26" cx="40.000000000000114" cy="109.85600000000028" r="28.792" fill="red" stroke="#170fbd" stroke-width="28.792"/></g><g><circle data-type="point" data-label="conn_002" data-x="5" data-y="-2.14" cx="983.9999999999998" cy="714.0160000000001" r="28.792" fill="red" stroke="#bd490f" stroke-width="28.792"/></g><g><circle data-type="point" data-label="conn_002" data-x="-5" data-y="-0.92" cx="40.000000000000114" cy="598.8480000000001" r="28.792" fill="red" stroke="#bd490f" stroke-width="28.792"/></g><g><circle data-type="point" data-label="conn_003" data-x="-5" data-y="2.24" cx="40.000000000000114" cy="300.5440000000002" r="28.792" fill="red" stroke="#0fbd7c" stroke-width="28.792"/></g><g><circle data-type="point" data-label="conn_003" data-x="5" data-y="-1.12" cx="983.9999999999998" cy="617.7280000000001" r="28.792" fill="red" stroke="#0fbd7c" stroke-width="28.792"/></g><g><circle data-type="point" data-label="conn_004" data-x="-5" data-y="-3.6" cx="40.000000000000114" cy="851.8399999999999" r="28.792" fill="red" stroke="#ae0fbd" stroke-width="28.792"/></g><g><circle data-type="point" data-label="conn_004" data-x="5" data-y="1.76" cx="983.9999999999998" cy="345.85600000000017" r="28.792" fill="blue" stroke="#ae0fbd" stroke-width="28.792"/></g><g><circle data-type="point" data-label="conn_005" data-x="5" data-y="-4.14" cx="983.9999999999998" cy="902.8159999999999" r="28.792" fill="blue" stroke="#98bd0f" stroke-width="28.792"/></g><g><circle data-type="point" data-label="conn_005" data-x="5" data-y="1.02" cx="983.9999999999998" cy="415.71200000000016" r="28.792" fill="red" stroke="#98bd0f" stroke-width="28.792"/></g><g><circle data-type="point" data-label="conn_006" data-x="-1.34" data-y="-5" cx="385.504" cy="984" r="28.792" fill="blue" stroke="#0f66bd" stroke-width="28.792"/></g><g><circle data-type="point" data-label="conn_006" data-x="-5" data-y="1.4000000000000001" cx="40.000000000000114" cy="379.84000000000015" r="28.792" fill="red" stroke="#0f66bd" stroke-width="28.792"/></g><g><circle data-type="point" data-label="conn_007" data-x="-1.96" data-y="5" cx="326.976" cy="40.000000000000284" r="28.792" fill="blue" stroke="#bd0f33" stroke-width="28.792"/></g><g><circle data-type="point" data-label="conn_007" data-x="-2.48" data-y="-5" cx="277.88800000000003" cy="984" r="28.792" fill="red" stroke="#bd0f33" stroke-width="28.792"/></g><g><polyline data-points="5.000000000000002,-2.1717171717171713 4.898989898989901,-2.07070707070707 4.7979797979797985,-1.9696969696969693 4.696969696969697,-1.8686868686868683 4.595959595959597,-1.7676767676767675 4.494949494949497,-1.6666666666666665 4.393939393939394,-1.5656565656565653 4.292929292929293,-1.4646464646464643 4.191919191919193,-1.363636363636363 4.090909090909092,-1.2626262626262625 3.989898989898992,-1.1616161616161613 3.8888888888888893,-1.0606060606060603 3.7878787878787885,-0.9595959595959596 3.6868686868686877,-0.9595959595959596 3.5858585858585874,-0.9595959595959596 3.4848484848484866,-0.9595959595959596 3.383838383838384,-0.9595959595959596 3.2828282828282833,-0.9595959595959596 3.181818181818183,-0.9595959595959596 3.080808080808082,-0.9595959595959596 2.9797979797979806,-0.9595959595959596 2.87878787878788,-0.9595959595959596 2.7777777777777786,-0.9595959595959596 2.676767676767678,-0.9595959595959596 2.575757575757577,-0.9595959595959596 2.4747474747474754,-0.9595959595959596 2.373737373737375,-0.9595959595959596 2.2727272727272734,-0.9595959595959596 2.1717171717171726,-0.9595959595959596 2.070707070707072,-0.9595959595959596 1.9696969696969702,-0.9595959595959596 1.8686868686868696,-0.9595959595959596 1.767676767676768,-0.9595959595959596 1.6666666666666674,-0.9595959595959596 1.5656565656565666,-0.9595959595959596 1.4646464646464652,-0.9595959595959596 1.3636363636363644,-0.9595959595959596 1.262626262626263,-0.9595959595959596 1.1616161616161622,-0.9595959595959596 1.0606060606060617,-0.9595959595959596 0.9595959595959602,-0.9595959595959596 0.8585858585858596,-0.9595959595959596 0.7575757575757579,-0.9595959595959596 0.6565656565656574,-0.9595959595959596 0.5555555555555567,-0.9595959595959596 0.4545454545454551,-0.9595959595959596 0.3535353535353544,-0.9595959595959596 0.2525252525252529,-0.9595959595959596 0.1515151515151522,-0.9595959595959596 0.050505050505051545,-0.9595959595959596 -0.05050505050505001,-0.9595959595959596 -0.15151515151515066,-0.9595959595959596 -0.2525252525252522,-0.9595959595959596 -0.35353535353535287,-0.9595959595959596 -0.4545454545454544,-0.9595959595959596 -0.555555555555555,-0.9595959595959596 -0.6565656565656557,-0.9595959595959596 -0.7575757575757572,-0.9595959595959596 -0.8585858585858579,-0.9595959595959596 -0.9595959595959596,-0.9595959595959596 -1.0606060606060603,-0.9595959595959596 -1.1616161616161613,-0.9595959595959596 -1.2626262626262625,-0.9595959595959596 -1.363636363636363,-0.9595959595959596 -1.4646464646464643,-0.9595959595959596 -1.5656565656565653,-0.9595959595959596 -1.6666666666666665,-0.9595959595959596 -1.7676767676767675,-0.9595959595959596 -1.8686868686868683,-0.9595959595959596 -1.9696969696969693,-0.9595959595959596 -2.07070707070707,-0.9595959595959596 -2.1717171717171713,-0.9595959595959596 -2.2727272727272725,-0.9595959595959596 -2.3737373737373733,-0.9595959595959596 -2.474747474747474,-0.9595959595959596 -2.5757575757575752,-0.9595959595959596 -2.6767676767676765,-0.9595959595959596 -2.7777777777777777,-0.9595959595959596 -2.8787878787878785,-0.9595959595959596 -2.9797979797979792,-0.9595959595959596 -3.0808080808080804,-0.9595959595959596 -3.1818181818181817,-0.9595959595959596 -3.2828282828282824,-0.9595959595959596 -3.383838383838383,-0.9595959595959596 -3.484848484848485,-0.9595959595959596 -3.5858585858585856,-0.9595959595959596 -3.6868686868686864,-0.9595959595959596 -3.7878787878787876,-0.9595959595959596 -3.8888888888888884,-0.9595959595959596 -3.98989898989899,-0.9595959595959596 -4.090909090909091,-0.9595959595959596 -4.191919191919193,-0.9595959595959596 -4.292929292929293,-0.9595959595959596 -4.393939393939394,-0.9595959595959596 -4.494949494949496,-0.9595959595959596 -4.595959595959596,-0.9595959595959596 -4.696969696969697,-0.9595959595959596 -4.7979797979797985,-0.9595959595959596 -4.898989898989899,-0.9595959595959596 -5.000000000000001,-0.9595959595959596" data-type="line" data-label="" points="984,717.010101010101 974.4646464646464,707.4747474747475 964.9292929292927,697.939393939394 955.3939393939393,688.4040404040404 945.8585858585857,678.8686868686868 936.3232323232323,669.3333333333334 926.7878787878785,659.7979797979798 917.2525252525251,650.2626262626263 907.7171717171716,640.7272727272727 898.181818181818,631.1919191919193 888.6464646464647,621.6565656565657 879.111111111111,612.1212121212121 869.5757575757575,602.5858585858587 860.0404040404039,602.5858585858587 850.5050505050505,602.5858585858587 840.969696969697,602.5858585858587 831.4343434343433,602.5858585858587 821.8989898989898,602.5858585858587 812.3636363636363,602.5858585858587 802.8282828282828,602.5858585858587 793.2929292929292,602.5858585858587 783.7575757575758,602.5858585858587 774.2222222222222,602.5858585858587 764.6868686868686,602.5858585858587 755.1515151515151,602.5858585858587 745.6161616161615,602.5858585858587 736.0808080808081,602.5858585858587 726.5454545454545,602.5858585858587 717.0101010101009,602.5858585858587 707.4747474747475,602.5858585858587 697.9393939393939,602.5858585858587 688.4040404040404,602.5858585858587 678.8686868686868,602.5858585858587 669.3333333333333,602.5858585858587 659.7979797979798,602.5858585858587 650.2626262626262,602.5858585858587 640.7272727272727,602.5858585858587 631.1919191919192,602.5858585858587 621.6565656565656,602.5858585858587 612.1212121212121,602.5858585858587 602.5858585858585,602.5858585858587 593.0505050505051,602.5858585858587 583.5151515151515,602.5858585858587 573.9797979797979,602.5858585858587 564.4444444444445,602.5858585858587 554.9090909090909,602.5858585858587 545.3737373737374,602.5858585858587 535.8383838383838,602.5858585858587 526.3030303030303,602.5858585858587 516.7676767676768,602.5858585858587 507.2323232323232,602.5858585858587 497.69696969696975,602.5858585858587 488.16161616161617,602.5858585858587 478.62626262626264,602.5858585858587 469.09090909090907,602.5858585858587 459.55555555555554,602.5858585858587 450.0202020202021,602.5858585858587 440.4848484848485,602.5858585858587 430.949494949495,602.5858585858587 421.4141414141414,602.5858585858587 411.8787878787879,602.5858585858587 402.34343434343435,602.5858585858587 392.80808080808083,602.5858585858587 383.2727272727273,602.5858585858587 373.7373737373738,602.5858585858587 364.2020202020202,602.5858585858587 354.6666666666667,602.5858585858587 345.13131313131316,602.5858585858587 335.59595959595964,602.5858585858587 326.0606060606061,602.5858585858587 316.5252525252526,602.5858585858587 306.9898989898991,602.5858585858587 297.4545454545455,602.5858585858587 287.91919191919203,602.5858585858587 278.38383838383845,602.5858585858587 268.84848484848493,602.5858585858587 259.3131313131314,602.5858585858587 249.77777777777783,602.5858585858587 240.2424242424243,602.5858585858587 230.70707070707084,602.5858585858587 221.17171717171726,602.5858585858587 211.63636363636374,602.5858585858587 202.10101010101022,602.5858585858587 192.5656565656567,602.5858585858587 183.03030303030312,602.5858585858587 173.4949494949496,602.5858585858587 163.95959595959607,602.5858585858587 154.42424242424255,602.5858585858587 144.88888888888903,602.5858585858587 135.35353535353545,602.5858585858587 125.81818181818193,602.5858585858587 116.28282828282829,602.5858585858587 106.74747474747483,602.5858585858587 97.21212121212136,602.5858585858587 87.67676767676772,602.5858585858587 78.14141414141426,602.5858585858587 68.60606060606068,602.5858585858587 59.07070707070716,602.5858585858587 49.53535353535369,602.5858585858587 40.00000000000006,602.5858585858587" fill="none" stroke="rgba(255,0,0,0.75)" stroke-width="14.159999999999995"/></g><g><polyline data-points="-5.000000000000001,2.2727272727272734 -4.898989898989899,2.1717171717171726 -4.7979797979797985,2.070707070707072 -4.696969696969697,1.9696969696969702 -4.595959595959596,1.8686868686868696 -4.494949494949496,1.767676767676768 -4.393939393939394,1.6666666666666674 -4.292929292929293,1.5656565656565666 -4.191919191919193,1.4646464646464652 -4.090909090909091,1.3636363636363644 -3.98989898989899,1.262626262626263 -3.8888888888888884,1.1616161616161622 -3.7878787878787876,1.0606060606060617 -3.6868686868686864,0.9595959595959602 -3.5858585858585856,0.8585858585858596 -3.484848484848485,0.7575757575757579 -3.383838383838383,0.6565656565656574 -3.2828282828282824,0.5555555555555567 -3.1818181818181817,0.4545454545454551 -3.0808080808080804,0.3535353535353544 -2.9797979797979792,0.2525252525252529 -2.8787878787878785,0.1515151515151522 -2.7777777777777777,0.050505050505051545 -2.6767676767676765,-0.05050505050505001 -2.5757575757575752,-0.15151515151515066 -2.474747474747474,-0.2525252525252522 -2.3737373737373733,-0.35353535353535287 -2.2727272727272725,-0.4545454545454544 -2.1717171717171713,-0.555555555555555 -2.07070707070707,-0.6565656565656557 -1.9696969696969693,-0.7575757575757572 -1.8686868686868683,-0.7575757575757572 -1.7676767676767675,-0.7575757575757572 -1.6666666666666665,-0.7575757575757572 -1.5656565656565653,-0.7575757575757572 -1.4646464646464643,-0.7575757575757572 -1.363636363636363,-0.7575757575757572 -1.2626262626262625,-0.7575757575757572 -1.1616161616161613,-0.7575757575757572 -1.0606060606060603,-0.7575757575757572 -0.9595959595959596,-0.7575757575757572 -0.8585858585858579,-0.7575757575757572 -0.7575757575757572,-0.7575757575757572 -0.6565656565656557,-0.7575757575757572 -0.555555555555555,-0.7575757575757572 -0.4545454545454544,-0.7575757575757572 -0.35353535353535287,-0.7575757575757572 -0.2525252525252522,-0.7575757575757572 -0.15151515151515066,-0.7575757575757572 -0.05050505050505001,-0.7575757575757572 0.050505050505051545,-0.7575757575757572 0.1515151515151522,-0.7575757575757572 0.2525252525252529,-0.7575757575757572 0.3535353535353544,-0.7575757575757572 0.4545454545454551,-0.7575757575757572 0.5555555555555567,-0.7575757575757572 0.6565656565656574,-0.7575757575757572 0.7575757575757579,-0.7575757575757572 0.8585858585858596,-0.7575757575757572 0.9595959595959602,-0.7575757575757572 1.0606060606060617,-0.7575757575757572 1.1616161616161622,-0.7575757575757572 1.262626262626263,-0.7575757575757572 1.3636363636363644,-0.7575757575757572 1.4646464646464652,-0.7575757575757572 1.5656565656565666,-0.7575757575757572 1.6666666666666674,-0.7575757575757572 1.767676767676768,-0.7575757575757572 1.8686868686868696,-0.7575757575757572 1.9696969696969702,-0.7575757575757572 2.070707070707072,-0.7575757575757572 2.1717171717171726,-0.7575757575757572 2.2727272727272734,-0.7575757575757572 2.373737373737375,-0.7575757575757572 2.4747474747474754,-0.7575757575757572 2.575757575757577,-0.7575757575757572 2.676767676767678,-0.7575757575757572 2.7777777777777786,-0.7575757575757572 2.87878787878788,-0.7575757575757572 2.9797979797979806,-0.7575757575757572 3.080808080808082,-0.7575757575757572 3.181818181818183,-0.7575757575757572 3.2828282828282833,-0.7575757575757572 3.383838383838384,-0.7575757575757572 3.4848484848484866,-0.7575757575757572 3.5858585858585874,-0.7575757575757572 3.6868686868686877,-0.7575757575757572 3.7878787878787885,-0.7575757575757572 3.8888888888888893,-0.7575757575757572 3.989898989898992,-0.8585858585858579 4.090909090909092,-0.9595959595959596 4.191919191919193,-1.0606060606060603 4.292929292929293,-1.1616161616161613 4.393939393939394,-1.1616161616161613 4.494949494949497,-1.1616161616161613 4.595959595959597,-1.1616161616161613 4.696969696969697,-1.1616161616161613 4.7979797979797985,-1.1616161616161613 4.898989898989901,-1.1616161616161613 5.000000000000002,-1.1616161616161613" data-type="line" data-label="" points="40.00000000000006,297.4545454545456 49.53535353535369,306.9898989898991 59.07070707070716,316.5252525252526 68.60606060606068,326.06060606060623 78.14141414141426,335.5959595959597 87.67676767676772,345.1313131313133 97.21212121212136,354.66666666666674 106.74747474747483,364.2020202020203 116.28282828282829,373.73737373737384 125.81818181818193,383.27272727272737 135.35353535353545,392.80808080808094 144.88888888888903,402.3434343434344 154.42424242424255,411.87878787878793 163.95959595959607,421.4141414141415 173.4949494949496,430.94949494949503 183.03030303030312,440.4848484848486 192.5656565656567,450.0202020202021 202.10101010101022,459.5555555555556 211.63636363636374,469.0909090909092 221.17171717171726,478.6262626262627 230.70707070707084,488.1616161616163 240.2424242424243,497.69696969696975 249.77777777777783,507.23232323232327 259.3131313131314,516.7676767676768 268.84848484848493,526.3030303030304 278.38383838383845,535.838383838384 287.91919191919203,545.3737373737374 297.4545454545455,554.909090909091 306.9898989898991,564.4444444444445 316.5252525252526,573.979797979798 326.0606060606061,583.5151515151516 335.59595959595964,583.5151515151516 345.13131313131316,583.5151515151516 354.6666666666667,583.5151515151516 364.2020202020202,583.5151515151516 373.7373737373738,583.5151515151516 383.2727272727273,583.5151515151516 392.80808080808083,583.5151515151516 402.34343434343435,583.5151515151516 411.8787878787879,583.5151515151516 421.4141414141414,583.5151515151516 430.949494949495,583.5151515151516 440.4848484848485,583.5151515151516 450.0202020202021,583.5151515151516 459.55555555555554,583.5151515151516 469.09090909090907,583.5151515151516 478.62626262626264,583.5151515151516 488.16161616161617,583.5151515151516 497.69696969696975,583.5151515151516 507.2323232323232,583.5151515151516 516.7676767676768,583.5151515151516 526.3030303030303,583.5151515151516 535.8383838383838,583.5151515151516 545.3737373737374,583.5151515151516 554.9090909090909,583.5151515151516 564.4444444444445,583.5151515151516 573.9797979797979,583.5151515151516 583.5151515151515,583.5151515151516 593.0505050505051,583.5151515151516 602.5858585858585,583.5151515151516 612.1212121212121,583.5151515151516 621.6565656565656,583.5151515151516 631.1919191919192,583.5151515151516 640.7272727272727,583.5151515151516 650.2626262626262,583.5151515151516 659.7979797979798,583.5151515151516 669.3333333333333,583.5151515151516 678.8686868686868,583.5151515151516 688.4040404040404,583.5151515151516 697.9393939393939,583.5151515151516 707.4747474747475,583.5151515151516 717.0101010101009,583.5151515151516 726.5454545454545,583.5151515151516 736.0808080808081,583.5151515151516 745.6161616161615,583.5151515151516 755.1515151515151,583.5151515151516 764.6868686868686,583.5151515151516 774.2222222222222,583.5151515151516 783.7575757575758,583.5151515151516 793.2929292929292,583.5151515151516 802.8282828282828,583.5151515151516 812.3636363636363,583.5151515151516 821.8989898989898,583.5151515151516 831.4343434343433,583.5151515151516 840.969696969697,583.5151515151516 850.5050505050505,583.5151515151516 860.0404040404039,583.5151515151516 869.5757575757575,583.5151515151516 879.111111111111,583.5151515151516 888.6464646464647,593.0505050505051 898.181818181818,602.5858585858587 907.7171717171716,612.1212121212121 917.2525252525251,621.6565656565657 926.7878787878785,621.6565656565657 936.3232323232323,621.6565656565657 945.8585858585857,621.6565656565657 955.3939393939393,621.6565656565657 964.9292929292927,621.6565656565657 974.4646464646464,621.6565656565657 984,621.6565656565657" fill="none" stroke="rgba(255,0,0,0.75)" stroke-width="14.159999999999995"/></g><g><polyline data-points="1.6666666666666674,-5.000000000000001 1.767676767676768,-4.898989898989899 1.8686868686868696,-4.7979797979797985 1.9696969696969702,-4.696969696969697 2.070707070707072,-4.595959595959596 2.1717171717171726,-4.494949494949496 2.2727272727272734,-4.393939393939394 2.373737373737375,-4.292929292929293 2.4747474747474754,-4.191919191919193 2.575757575757577,-4.090909090909091 2.676767676767678,-3.98989898989899 2.7777777777777786,-3.8888888888888884 2.87878787878788,-3.7878787878787876 2.87878787878788,-3.6868686868686864 2.87878787878788,-3.5858585858585856 2.87878787878788,-3.484848484848485 2.87878787878788,-3.383838383838383 2.87878787878788,-3.2828282828282824 2.87878787878788,-3.1818181818181817 2.87878787878788,-3.0808080808080804 2.87878787878788,-2.9797979797979792 2.87878787878788,-2.8787878787878785 2.87878787878788,-2.7777777777777777 2.87878787878788,-2.6767676767676765 2.87878787878788,-2.5757575757575752 2.87878787878788,-2.474747474747474 2.87878787878788,-2.3737373737373733 2.87878787878788,-2.2727272727272725 2.87878787878788,-2.1717171717171713 2.87878787878788,-2.07070707070707 2.87878787878788,-1.9696969696969693 2.87878787878788,-1.8686868686868683 2.87878787878788,-1.7676767676767675 2.87878787878788,-1.6666666666666665 2.87878787878788,-1.5656565656565653 2.87878787878788,-1.4646464646464643 2.87878787878788,-1.363636363636363 2.87878787878788,-1.2626262626262625 2.87878787878788,-1.1616161616161613 2.87878787878788,-1.0606060606060603 2.87878787878788,-0.9595959595959596 2.87878787878788,-0.8585858585858579 2.87878787878788,-0.7575757575757572 2.87878787878788,-0.6565656565656557 2.87878787878788,-0.555555555555555 2.87878787878788,-0.4545454545454544 2.87878787878788,-0.35353535353535287 2.87878787878788,-0.2525252525252522 2.87878787878788,-0.15151515151515066 2.87878787878788,-0.05050505050505001 2.87878787878788,0.050505050505051545 2.87878787878788,0.1515151515151522 2.87878787878788,0.2525252525252529 2.87878787878788,0.3535353535353544 2.87878787878788,0.4545454545454551 2.87878787878788,0.5555555555555567 2.87878787878788,0.6565656565656574 2.87878787878788,0.7575757575757579 2.87878787878788,0.8585858585858596 2.87878787878788,0.9595959595959602 2.87878787878788,1.0606060606060617 2.87878787878788,1.1616161616161622 2.87878787878788,1.262626262626263 2.87878787878788,1.3636363636363644 2.87878787878788,1.4646464646464652 2.87878787878788,1.5656565656565666 2.87878787878788,1.6666666666666674 2.87878787878788,1.767676767676768 2.87878787878788,1.8686868686868696 2.87878787878788,1.9696969696969702 2.87878787878788,2.070707070707072 2.87878787878788,2.1717171717171726 2.87878787878788,2.2727272727272734 2.87878787878788,2.373737373737375 2.87878787878788,2.4747474747474754 2.87878787878788,2.575757575757577 2.87878787878788,2.676767676767678 2.87878787878788,2.7777777777777786 2.87878787878788,2.87878787878788 2.87878787878788,2.9797979797979806 2.87878787878788,3.080808080808082 2.87878787878788,3.181818181818183 2.87878787878788,3.2828282828282833 2.87878787878788,3.383838383838384 2.87878787878788,3.4848484848484866 2.87878787878788,3.5858585858585874 2.87878787878788,3.6868686868686877 2.87878787878788,3.7878787878787885 2.87878787878788,3.8888888888888893 2.87878787878788,3.989898989898992" data-type="line" data-label="" points="669.3333333333333,984 678.8686868686868,974.4646464646464 688.4040404040404,964.9292929292928 697.9393939393939,955.3939393939394 707.4747474747475,945.8585858585858 717.0101010101009,936.3232323232323 726.5454545454545,926.7878787878788 736.0808080808081,917.2525252525252 745.6161616161615,907.7171717171718 755.1515151515151,898.1818181818181 764.6868686868686,888.6464646464647 774.2222222222222,879.1111111111111 783.7575757575758,869.5757575757575 783.7575757575758,860.0404040404039 783.7575757575758,850.5050505050505 783.7575757575758,840.969696969697 783.7575757575758,831.4343434343434 783.7575757575758,821.8989898989898 783.7575757575758,812.3636363636363 783.7575757575758,802.8282828282828 783.7575757575758,793.2929292929292 783.7575757575758,783.7575757575758 783.7575757575758,774.2222222222222 783.7575757575758,764.6868686868687 783.7575757575758,755.1515151515151 783.7575757575758,745.6161616161615 783.7575757575758,736.0808080808081 783.7575757575758,726.5454545454545 783.7575757575758,717.010101010101 783.7575757575758,707.4747474747475 783.7575757575758,697.939393939394 783.7575757575758,688.4040404040404 783.7575757575758,678.8686868686868 783.7575757575758,669.3333333333334 783.7575757575758,659.7979797979798 783.7575757575758,650.2626262626263 783.7575757575758,640.7272727272727 783.7575757575758,631.1919191919193 783.7575757575758,621.6565656565657 783.7575757575758,612.1212121212121 783.7575757575758,602.5858585858587 783.7575757575758,593.0505050505051 783.7575757575758,583.5151515151516 783.7575757575758,573.979797979798 783.7575757575758,564.4444444444445 783.7575757575758,554.909090909091 783.7575757575758,545.3737373737374 783.7575757575758,535.838383838384 783.7575757575758,526.3030303030304 783.7575757575758,516.7676767676768 783.7575757575758,507.23232323232327 783.7575757575758,497.69696969696975 783.7575757575758,488.1616161616163 783.7575757575758,478.6262626262627 783.7575757575758,469.0909090909092 783.7575757575758,459.5555555555556 783.7575757575758,450.0202020202021 783.7575757575758,440.4848484848486 783.7575757575758,430.94949494949503 783.7575757575758,421.4141414141415 783.7575757575758,411.87878787878793 783.7575757575758,402.3434343434344 783.7575757575758,392.80808080808094 783.7575757575758,383.27272727272737 783.7575757575758,373.73737373737384 783.7575757575758,364.2020202020203 783.7575757575758,354.66666666666674 783.7575757575758,345.1313131313133 783.7575757575758,335.5959595959597 783.7575757575758,326.06060606060623 783.7575757575758,316.5252525252526 783.7575757575758,306.9898989898991 783.7575757575758,297.4545454545456 783.7575757575758,287.91919191919203 783.7575757575758,278.38383838383857 783.7575757575758,268.84848484848493 783.7575757575758,259.3131313131314 783.7575757575758,249.77777777777794 783.7575757575758,240.24242424242436 783.7575757575758,230.70707070707084 783.7575757575758,221.17171717171726 783.7575757575758,211.63636363636374 783.7575757575758,202.10101010101027 783.7575757575758,192.56565656565675 783.7575757575758,183.03030303030312 783.7575757575758,173.4949494949496 783.7575757575758,163.95959595959613 783.7575757575758,154.4242424242426 783.7575757575758,144.88888888888908 783.7575757575758,135.35353535353545" fill="none" stroke="rgba(0,0,255,0.75)" stroke-width="14.159999999999995"/></g><g><polyline data-points="2.87878787878788,3.989898989898992 2.87878787878788,4.090909090909092 2.87878787878788,4.191919191919193 2.87878787878788,4.292929292929293 2.87878787878788,4.393939393939394 2.87878787878788,4.494949494949497 2.87878787878788,4.595959595959597 2.87878787878788,4.696969696969697 2.87878787878788,4.7979797979797985 2.87878787878788,4.898989898989901 2.87878787878788,5.000000000000002" data-type="line" data-label="" points="783.7575757575758,135.35353535353545 783.7575757575758,125.81818181818198 783.7575757575758,116.28282828282846 783.7575757575758,106.747474747475 783.7575757575758,97.21212121212153 783.7575757575758,87.67676767676778 783.7575757575758,78.14141414141432 783.7575757575758,68.60606060606085 783.7575757575758,59.07070707070733 783.7575757575758,49.53535353535369 783.7575757575758,40.000000000000114" fill="none" stroke="rgba(255,0,0,0.75)" stroke-width="14.159999999999995"/></g><g><polyline data-points="-5.000000000000001,-3.6868686868686864 -4.898989898989899,-3.5858585858585856 -4.7979797979797985,-3.484848484848485 -4.696969696969697,-3.383838383838383 -4.595959595959596,-3.2828282828282824 -4.494949494949496,-3.1818181818181817 -4.393939393939394,-3.0808080808080804 -4.292929292929293,-2.9797979797979792 -4.191919191919193,-2.8787878787878785 -4.090909090909091,-2.7777777777777777 -3.98989898989899,-2.6767676767676765 -3.8888888888888884,-2.5757575757575752 -3.7878787878787876,-2.474747474747474 -3.6868686868686864,-2.3737373737373733 -3.5858585858585856,-2.2727272727272725 -3.484848484848485,-2.1717171717171713 -3.383838383838383,-2.07070707070707 -3.2828282828282824,-1.9696969696969693 -3.1818181818181817,-1.8686868686868683 -3.0808080808080804,-1.7676767676767675 -2.9797979797979792,-1.6666666666666665 -2.8787878787878785,-1.5656565656565653 -2.7777777777777777,-1.5656565656565653 -2.6767676767676765,-1.5656565656565653 -2.5757575757575752,-1.5656565656565653 -2.474747474747474,-1.5656565656565653 -2.3737373737373733,-1.5656565656565653 -2.2727272727272725,-1.5656565656565653 -2.1717171717171713,-1.5656565656565653 -2.07070707070707,-1.5656565656565653 -1.9696969696969693,-1.5656565656565653 -1.8686868686868683,-1.5656565656565653 -1.7676767676767675,-1.5656565656565653 -1.6666666666666665,-1.5656565656565653 -1.5656565656565653,-1.5656565656565653 -1.4646464646464643,-1.5656565656565653 -1.363636363636363,-1.5656565656565653 -1.2626262626262625,-1.5656565656565653 -1.1616161616161613,-1.5656565656565653 -1.0606060606060603,-1.5656565656565653 -0.9595959595959596,-1.5656565656565653 -0.8585858585858579,-1.5656565656565653 -0.7575757575757572,-1.5656565656565653 -0.6565656565656557,-1.5656565656565653 -0.555555555555555,-1.5656565656565653 -0.4545454545454544,-1.5656565656565653 -0.35353535353535287,-1.5656565656565653 -0.2525252525252522,-1.5656565656565653 -0.15151515151515066,-1.5656565656565653 -0.05050505050505001,-1.5656565656565653 0.050505050505051545,-1.5656565656565653 0.1515151515151522,-1.5656565656565653 0.2525252525252529,-1.5656565656565653 0.3535353535353544,-1.5656565656565653 0.4545454545454551,-1.5656565656565653 0.5555555555555567,-1.5656565656565653 0.6565656565656574,-1.5656565656565653 0.7575757575757579,-1.5656565656565653 0.8585858585858596,-1.5656565656565653 0.9595959595959602,-1.5656565656565653 1.0606060606060617,-1.5656565656565653 1.1616161616161622,-1.5656565656565653 1.262626262626263,-1.5656565656565653 1.3636363636363644,-1.5656565656565653 1.4646464646464652,-1.5656565656565653 1.5656565656565666,-1.5656565656565653 1.6666666666666674,-1.5656565656565653 1.767676767676768,-1.5656565656565653 1.8686868686868696,-1.5656565656565653 1.9696969696969702,-1.5656565656565653 2.070707070707072,-1.5656565656565653 2.1717171717171726,-1.5656565656565653 2.2727272727272734,-1.5656565656565653 2.373737373737375,-1.5656565656565653 2.4747474747474754,-1.5656565656565653 2.575757575757577,-1.5656565656565653 2.676767676767678,-1.5656565656565653 2.7777777777777786,-1.5656565656565653 2.87878787878788,-1.5656565656565653 2.9797979797979806,-1.5656565656565653 3.080808080808082,-1.5656565656565653 3.181818181818183,-1.5656565656565653 3.2828282828282833,-1.5656565656565653 3.383838383838384,-1.5656565656565653 3.4848484848484866,-1.5656565656565653 3.5858585858585874,-1.5656565656565653" data-type="line" data-label="" points="40.00000000000006,860.0404040404039 49.53535353535369,850.5050505050505 59.07070707070716,840.969696969697 68.60606060606068,831.4343434343434 78.14141414141426,821.8989898989898 87.67676767676772,812.3636363636363 97.21212121212136,802.8282828282828 106.74747474747483,793.2929292929292 116.28282828282829,783.7575757575758 125.81818181818193,774.2222222222222 135.35353535353545,764.6868686868687 144.88888888888903,755.1515151515151 154.42424242424255,745.6161616161615 163.95959595959607,736.0808080808081 173.4949494949496,726.5454545454545 183.03030303030312,717.010101010101 192.5656565656567,707.4747474747475 202.10101010101022,697.939393939394 211.63636363636374,688.4040404040404 221.17171717171726,678.8686868686868 230.70707070707084,669.3333333333334 240.2424242424243,659.7979797979798 249.77777777777783,659.7979797979798 259.3131313131314,659.7979797979798 268.84848484848493,659.7979797979798 278.38383838383845,659.7979797979798 287.91919191919203,659.7979797979798 297.4545454545455,659.7979797979798 306.9898989898991,659.7979797979798 316.5252525252526,659.7979797979798 326.0606060606061,659.7979797979798 335.59595959595964,659.7979797979798 345.13131313131316,659.7979797979798 354.6666666666667,659.7979797979798 364.2020202020202,659.7979797979798 373.7373737373738,659.7979797979798 383.2727272727273,659.7979797979798 392.80808080808083,659.7979797979798 402.34343434343435,659.7979797979798 411.8787878787879,659.7979797979798 421.4141414141414,659.7979797979798 430.949494949495,659.7979797979798 440.4848484848485,659.7979797979798 450.0202020202021,659.7979797979798 459.55555555555554,659.7979797979798 469.09090909090907,659.7979797979798 478.62626262626264,659.7979797979798 488.16161616161617,659.7979797979798 497.69696969696975,659.7979797979798 507.2323232323232,659.7979797979798 516.7676767676768,659.7979797979798 526.3030303030303,659.7979797979798 535.8383838383838,659.7979797979798 545.3737373737374,659.7979797979798 554.9090909090909,659.7979797979798 564.4444444444445,659.7979797979798 573.9797979797979,659.7979797979798 583.5151515151515,659.7979797979798 593.0505050505051,659.7979797979798 602.5858585858585,659.7979797979798 612.1212121212121,659.7979797979798 621.6565656565656,659.7979797979798 631.1919191919192,659.7979797979798 640.7272727272727,659.7979797979798 650.2626262626262,659.7979797979798 659.7979797979798,659.7979797979798 669.3333333333333,659.7979797979798 678.8686868686868,659.7979797979798 688.4040404040404,659.7979797979798 697.9393939393939,659.7979797979798 707.4747474747475,659.7979797979798 717.0101010101009,659.7979797979798 726.5454545454545,659.7979797979798 736.0808080808081,659.7979797979798 745.6161616161615,659.7979797979798 755.1515151515151,659.7979797979798 764.6868686868686,659.7979797979798 774.2222222222222,659.7979797979798 783.7575757575758,659.7979797979798 793.2929292929292,659.7979797979798 802.8282828282828,659.7979797979798 812.3636363636363,659.7979797979798 821.8989898989898,659.7979797979798 831.4343434343433,659.7979797979798 840.969696969697,659.7979797979798 850.5050505050505,659.7979797979798" fill="none" stroke="rgba(255,0,0,0.75)" stroke-width="14.159999999999995"/></g><g><polyline data-points="3.5858585858585874,-1.5656565656565653 3.6868686868686877,-1.4646464646464643 3.7878787878787885,-1.363636363636363 3.8888888888888893,-1.2626262626262625 3.989898989898992,-1.1616161616161613 4.090909090909092,-1.0606060606060603 4.191919191919193,-0.9595959595959596 4.292929292929293,-0.8585858585858579 4.393939393939394,-0.7575757575757572 4.494949494949497,-0.6565656565656557 4.595959595959597,-0.555555555555555 4.696969696969697,-0.4545454545454544 4.7979797979797985,-0.35353535353535287 4.898989898989901,-0.2525252525252522 5.000000000000002,-0.15151515151515066 5.000000000000002,-0.05050505050505001 5.000000000000002,0.050505050505051545 5.000000000000002,0.1515151515151522 5.000000000000002,0.2525252525252529 5.000000000000002,0.3535353535353544 5.000000000000002,0.4545454545454551 5.000000000000002,0.5555555555555567 5.000000000000002,0.6565656565656574 5.000000000000002,0.7575757575757579 5.000000000000002,0.8585858585858596 5.000000000000002,0.9595959595959602 5.000000000000002,1.0606060606060617 5.000000000000002,1.1616161616161622 5.000000000000002,1.262626262626263 5.000000000000002,1.3636363636363644 5.000000000000002,1.4646464646464652 5.000000000000002,1.5656565656565666 5.000000000000002,1.6666666666666674 5.000000000000002,1.767676767676768" data-type="line" data-label="" points="850.5050505050505,659.7979797979798 860.0404040404039,650.2626262626263 869.5757575757575,640.7272727272727 879.111111111111,631.1919191919193 888.6464646464647,621.6565656565657 898.181818181818,612.1212121212121 907.7171717171716,602.5858585858587 917.2525252525251,593.0505050505051 926.7878787878785,583.5151515151516 936.3232323232323,573.979797979798 945.8585858585857,564.4444444444445 955.3939393939393,554.909090909091 964.9292929292927,545.3737373737374 974.4646464646464,535.838383838384 984,526.3030303030304 984,516.7676767676768 984,507.23232323232327 984,497.69696969696975 984,488.1616161616163 984,478.6262626262627 984,469.0909090909092 984,459.5555555555556 984,450.0202020202021 984,440.4848484848486 984,430.94949494949503 984,421.4141414141415 984,411.87878787878793 984,402.3434343434344 984,392.80808080808094 984,383.27272727272737 984,373.73737373737384 984,364.2020202020203 984,354.66666666666674 984,345.1313131313133" fill="none" stroke="rgba(0,0,255,0.75)" stroke-width="14.159999999999995"/></g><g><polyline data-points="-1.363636363636363,-5.000000000000001 -1.4646464646464643,-4.898989898989899 -1.5656565656565653,-4.7979797979797985 -1.6666666666666665,-4.696969696969697 -1.7676767676767675,-4.595959595959596 -1.8686868686868683,-4.494949494949496 -1.9696969696969693,-4.393939393939394 -2.07070707070707,-4.292929292929293 -2.1717171717171713,-4.191919191919193 -2.2727272727272725,-4.090909090909091 -2.3737373737373733,-3.98989898989899 -2.474747474747474,-3.8888888888888884 -2.5757575757575752,-3.7878787878787876 -2.6767676767676765,-3.6868686868686864 -2.7777777777777777,-3.5858585858585856 -2.8787878787878785,-3.484848484848485 -2.9797979797979792,-3.383838383838383 -3.0808080808080804,-3.2828282828282824 -3.1818181818181817,-3.1818181818181817 -3.2828282828282824,-3.0808080808080804 -3.383838383838383,-2.9797979797979792 -3.484848484848485,-2.8787878787878785 -3.5858585858585856,-2.7777777777777777 -3.6868686868686864,-2.6767676767676765 -3.7878787878787876,-2.5757575757575752 -3.8888888888888884,-2.474747474747474 -3.98989898989899,-2.3737373737373733 -3.98989898989899,-2.2727272727272725 -3.98989898989899,-2.1717171717171713 -3.98989898989899,-2.07070707070707 -3.98989898989899,-1.9696969696969693 -3.98989898989899,-1.8686868686868683 -3.98989898989899,-1.7676767676767675 -3.98989898989899,-1.6666666666666665 -3.98989898989899,-1.5656565656565653 -3.98989898989899,-1.4646464646464643 -3.98989898989899,-1.363636363636363 -3.98989898989899,-1.2626262626262625 -3.98989898989899,-1.1616161616161613 -3.98989898989899,-1.0606060606060603 -3.98989898989899,-0.9595959595959596 -3.98989898989899,-0.8585858585858579 -3.98989898989899,-0.7575757575757572 -3.98989898989899,-0.6565656565656557 -3.98989898989899,-0.555555555555555 -3.98989898989899,-0.4545454545454544 -3.98989898989899,-0.35353535353535287 -3.98989898989899,-0.2525252525252522 -3.98989898989899,-0.15151515151515066 -3.98989898989899,-0.05050505050505001 -3.98989898989899,0.050505050505051545 -3.98989898989899,0.1515151515151522 -3.98989898989899,0.2525252525252529 -3.98989898989899,0.3535353535353544" data-type="line" data-label="" points="383.2727272727273,984 373.7373737373738,974.4646464646464 364.2020202020202,964.9292929292928 354.6666666666667,955.3939393939394 345.13131313131316,945.8585858585858 335.59595959595964,936.3232323232323 326.0606060606061,926.7878787878788 316.5252525252526,917.2525252525252 306.9898989898991,907.7171717171718 297.4545454545455,898.1818181818181 287.91919191919203,888.6464646464647 278.38383838383845,879.1111111111111 268.84848484848493,869.5757575757575 259.3131313131314,860.0404040404039 249.77777777777783,850.5050505050505 240.2424242424243,840.969696969697 230.70707070707084,831.4343434343434 221.17171717171726,821.8989898989898 211.63636363636374,812.3636363636363 202.10101010101022,802.8282828282828 192.5656565656567,793.2929292929292 183.03030303030312,783.7575757575758 173.4949494949496,774.2222222222222 163.95959595959607,764.6868686868687 154.42424242424255,755.1515151515151 144.88888888888903,745.6161616161615 135.35353535353545,736.0808080808081 135.35353535353545,726.5454545454545 135.35353535353545,717.010101010101 135.35353535353545,707.4747474747475 135.35353535353545,697.939393939394 135.35353535353545,688.4040404040404 135.35353535353545,678.8686868686868 135.35353535353545,669.3333333333334 135.35353535353545,659.7979797979798 135.35353535353545,650.2626262626263 135.35353535353545,640.7272727272727 135.35353535353545,631.1919191919193 135.35353535353545,621.6565656565657 135.35353535353545,612.1212121212121 135.35353535353545,602.5858585858587 135.35353535353545,593.0505050505051 135.35353535353545,583.5151515151516 135.35353535353545,573.979797979798 135.35353535353545,564.4444444444445 135.35353535353545,554.909090909091 135.35353535353545,545.3737373737374 135.35353535353545,535.838383838384 135.35353535353545,526.3030303030304 135.35353535353545,516.7676767676768 135.35353535353545,507.23232323232327 135.35353535353545,497.69696969696975 135.35353535353545,488.1616161616163 135.35353535353545,478.6262626262627" fill="none" stroke="rgba(0,0,255,0.75)" stroke-width="14.159999999999995"/></g><g><polyline data-points="-3.98989898989899,0.3535353535353544 -4.090909090909091,0.4545454545454551 -4.191919191919193,0.5555555555555567 -4.292929292929293,0.6565656565656574 -4.393939393939394,0.7575757575757579 -4.494949494949496,0.8585858585858596 -4.595959595959596,0.9595959595959602 -4.696969696969697,1.0606060606060617 -4.7979797979797985,1.1616161616161622 -4.898989898989899,1.262626262626263 -5.000000000000001,1.3636363636363644 -5.000000000000001,1.4646464646464652" data-type="line" data-label="" points="135.35353535353545,478.6262626262627 125.81818181818193,469.0909090909092 116.28282828282829,459.5555555555556 106.74747474747483,450.0202020202021 97.21212121212136,440.4848484848486 87.67676767676772,430.94949494949503 78.14141414141426,421.4141414141415 68.60606060606068,411.87878787878793 59.07070707070716,402.3434343434344 49.53535353535369,392.80808080808094 40.00000000000006,383.27272727272737 40.00000000000006,373.73737373737384" fill="none" stroke="rgba(255,0,0,0.75)" stroke-width="14.159999999999995"/></g><g><polyline data-points="-1.9696969696969693,5.000000000000002 -2.07070707070707,4.898989898989901 -2.1717171717171713,4.7979797979797985 -2.2727272727272725,4.696969696969697 -2.3737373737373733,4.595959595959597 -2.474747474747474,4.494949494949497 -2.474747474747474,4.393939393939394 -2.474747474747474,4.292929292929293 -2.474747474747474,4.191919191919193 -2.474747474747474,4.090909090909092 -2.474747474747474,3.989898989898992 -2.474747474747474,3.8888888888888893 -2.474747474747474,3.7878787878787885 -2.474747474747474,3.6868686868686877 -2.474747474747474,3.5858585858585874 -2.474747474747474,3.4848484848484866 -2.474747474747474,3.383838383838384 -2.474747474747474,3.2828282828282833 -2.474747474747474,3.181818181818183 -2.474747474747474,3.080808080808082 -2.474747474747474,2.9797979797979806 -2.474747474747474,2.87878787878788 -2.474747474747474,2.7777777777777786 -2.474747474747474,2.676767676767678 -2.474747474747474,2.575757575757577 -2.474747474747474,2.4747474747474754 -2.474747474747474,2.373737373737375 -2.474747474747474,2.2727272727272734 -2.474747474747474,2.1717171717171726 -2.474747474747474,2.070707070707072 -2.474747474747474,1.9696969696969702 -2.474747474747474,1.8686868686868696 -2.474747474747474,1.767676767676768 -2.474747474747474,1.6666666666666674 -2.474747474747474,1.5656565656565666 -2.474747474747474,1.4646464646464652 -2.474747474747474,1.3636363636363644 -2.474747474747474,1.262626262626263 -2.474747474747474,1.1616161616161622 -2.474747474747474,1.0606060606060617 -2.474747474747474,0.9595959595959602 -2.474747474747474,0.8585858585858596 -2.474747474747474,0.7575757575757579 -2.474747474747474,0.6565656565656574 -2.474747474747474,0.5555555555555567 -2.474747474747474,0.4545454545454551 -2.474747474747474,0.3535353535353544 -2.474747474747474,0.2525252525252529 -2.474747474747474,0.1515151515151522 -2.474747474747474,0.050505050505051545 -2.474747474747474,-0.05050505050505001 -2.474747474747474,-0.15151515151515066 -2.474747474747474,-0.2525252525252522 -2.474747474747474,-0.35353535353535287 -2.474747474747474,-0.4545454545454544 -2.474747474747474,-0.555555555555555 -2.474747474747474,-0.6565656565656557 -2.474747474747474,-0.7575757575757572 -2.474747474747474,-0.8585858585858579 -2.474747474747474,-0.9595959595959596 -2.474747474747474,-1.0606060606060603 -2.474747474747474,-1.1616161616161613 -2.474747474747474,-1.2626262626262625 -2.474747474747474,-1.363636363636363 -2.474747474747474,-1.4646464646464643 -2.474747474747474,-1.5656565656565653 -2.474747474747474,-1.6666666666666665 -2.474747474747474,-1.7676767676767675 -2.474747474747474,-1.8686868686868683 -2.474747474747474,-1.9696969696969693 -2.474747474747474,-2.07070707070707 -2.474747474747474,-2.1717171717171713 -2.474747474747474,-2.2727272727272725 -2.474747474747474,-2.3737373737373733 -2.474747474747474,-2.474747474747474 -2.474747474747474,-2.5757575757575752 -2.474747474747474,-2.6767676767676765 -2.474747474747474,-2.7777777777777777 -2.474747474747474,-2.8787878787878785 -2.474747474747474,-2.9797979797979792 -2.474747474747474,-3.0808080808080804" data-type="line" data-label="" points="326.0606060606061,40.000000000000114 316.5252525252526,49.53535353535369 306.9898989898991,59.07070707070733 297.4545454545455,68.60606060606085 287.91919191919203,78.14141414141432 278.38383838383845,87.67676767676778 278.38383838383845,97.21212121212153 278.38383838383845,106.747474747475 278.38383838383845,116.28282828282846 278.38383838383845,125.81818181818198 278.38383838383845,135.35353535353545 278.38383838383845,144.88888888888908 278.38383838383845,154.4242424242426 278.38383838383845,163.95959595959613 278.38383838383845,173.4949494949496 278.38383838383845,183.03030303030312 278.38383838383845,192.56565656565675 278.38383838383845,202.10101010101027 278.38383838383845,211.63636363636374 278.38383838383845,221.17171717171726 278.38383838383845,230.70707070707084 278.38383838383845,240.24242424242436 278.38383838383845,249.77777777777794 278.38383838383845,259.3131313131314 278.38383838383845,268.84848484848493 278.38383838383845,278.38383838383857 278.38383838383845,287.91919191919203 278.38383838383845,297.4545454545456 278.38383838383845,306.9898989898991 278.38383838383845,316.5252525252526 278.38383838383845,326.06060606060623 278.38383838383845,335.5959595959597 278.38383838383845,345.1313131313133 278.38383838383845,354.66666666666674 278.38383838383845,364.2020202020203 278.38383838383845,373.73737373737384 278.38383838383845,383.27272727272737 278.38383838383845,392.80808080808094 278.38383838383845,402.3434343434344 278.38383838383845,411.87878787878793 278.38383838383845,421.4141414141415 278.38383838383845,430.94949494949503 278.38383838383845,440.4848484848486 278.38383838383845,450.0202020202021 278.38383838383845,459.5555555555556 278.38383838383845,469.0909090909092 278.38383838383845,478.6262626262627 278.38383838383845,488.1616161616163 278.38383838383845,497.69696969696975 278.38383838383845,507.23232323232327 278.38383838383845,516.7676767676768 278.38383838383845,526.3030303030304 278.38383838383845,535.838383838384 278.38383838383845,545.3737373737374 278.38383838383845,554.909090909091 278.38383838383845,564.4444444444445 278.38383838383845,573.979797979798 278.38383838383845,583.5151515151516 278.38383838383845,593.0505050505051 278.38383838383845,602.5858585858587 278.38383838383845,612.1212121212121 278.38383838383845,621.6565656565657 278.38383838383845,631.1919191919193 278.38383838383845,640.7272727272727 278.38383838383845,650.2626262626263 278.38383838383845,659.7979797979798 278.38383838383845,669.3333333333334 278.38383838383845,678.8686868686868 278.38383838383845,688.4040404040404 278.38383838383845,697.939393939394 278.38383838383845,707.4747474747475 278.38383838383845,717.010101010101 278.38383838383845,726.5454545454545 278.38383838383845,736.0808080808081 278.38383838383845,745.6161616161615 278.38383838383845,755.1515151515151 278.38383838383845,764.6868686868687 278.38383838383845,774.2222222222222 278.38383838383845,783.7575757575758 278.38383838383845,793.2929292929292 278.38383838383845,802.8282828282828" fill="none" stroke="rgba(0,0,255,0.75)" stroke-width="14.159999999999995"/></g><g><polyline data-points="-2.474747474747474,-3.0808080808080804 -2.474747474747474,-3.1818181818181817 -2.474747474747474,-3.2828282828282824 -2.474747474747474,-3.383838383838383 -2.474747474747474,-3.484848484848485 -2.474747474747474,-3.5858585858585856 -2.474747474747474,-3.6868686868686864 -2.474747474747474,-3.7878787878787876 -2.474747474747474,-3.8888888888888884 -2.474747474747474,-3.98989898989899 -2.474747474747474,-4.090909090909091 -2.474747474747474,-4.191919191919193 -2.474747474747474,-4.292929292929293 -2.474747474747474,-4.393939393939394 -2.474747474747474,-4.494949494949496 -2.474747474747474,-4.595959595959596 -2.474747474747474,-4.696969696969697 -2.474747474747474,-4.7979797979797985 -2.474747474747474,-4.898989898989899 -2.474747474747474,-5.000000000000001" data-type="line" data-label="" points="278.38383838383845,802.8282828282828 278.38383838383845,812.3636363636363 278.38383838383845,821.8989898989898 278.38383838383845,831.4343434343434 278.38383838383845,840.969696969697 278.38383838383845,850.5050505050505 278.38383838383845,860.0404040404039 278.38383838383845,869.5757575757575 278.38383838383845,879.1111111111111 278.38383838383845,888.6464646464647 278.38383838383845,898.1818181818181 278.38383838383845,907.7171717171718 278.38383838383845,917.2525252525252 278.38383838383845,926.7878787878788 278.38383838383845,936.3232323232323 278.38383838383845,945.8585858585858 278.38383838383845,955.3939393939394 278.38383838383845,964.9292929292928 278.38383838383845,974.4646464646464 278.38383838383845,984" fill="none" stroke="rgba(255,0,0,0.75)" stroke-width="14.159999999999995"/></g><g><polyline data-points="5.000000000000002,-4.191919191919193 5.000000000000002,-4.090909090909091 5.000000000000002,-3.98989898989899 5.000000000000002,-3.8888888888888884 5.000000000000002,-3.7878787878787876 5.000000000000002,-3.6868686868686864 5.000000000000002,-3.5858585858585856 4.898989898989901,-3.484848484848485 4.7979797979797985,-3.383838383838383 4.696969696969697,-3.2828282828282824 4.595959595959597,-3.1818181818181817 4.494949494949497,-3.0808080808080804 4.393939393939394,-2.9797979797979792 4.292929292929293,-2.8787878787878785 4.191919191919193,-2.7777777777777777 4.090909090909092,-2.6767676767676765 3.989898989898992,-2.5757575757575752 3.8888888888888893,-2.474747474747474 3.7878787878787885,-2.3737373737373733 3.6868686868686877,-2.2727272727272725 3.5858585858585874,-2.1717171717171713 3.4848484848484866,-2.07070707070707 3.383838383838384,-1.9696969696969693 3.2828282828282833,-1.8686868686868683 3.181818181818183,-1.7676767676767675 3.181818181818183,-1.6666666666666665 3.080808080808082,-1.5656565656565653 3.181818181818183,-1.4646464646464643 3.181818181818183,-1.363636363636363 3.2828282828282833,-1.2626262626262625 3.383838383838384,-1.1616161616161613 3.4848484848484866,-1.0606060606060603 3.5858585858585874,-0.9595959595959596 3.6868686868686877,-0.8585858585858579 3.7878787878787885,-0.7575757575757572 3.8888888888888893,-0.6565656565656557 3.989898989898992,-0.555555555555555 3.989898989898992,-0.4545454545454544 3.989898989898992,-0.35353535353535287 3.989898989898992,-0.2525252525252522 3.989898989898992,-0.15151515151515066 3.989898989898992,-0.05050505050505001 3.989898989898992,0.050505050505051545 3.989898989898992,0.1515151515151522 3.989898989898992,0.2525252525252529 3.989898989898992,0.3535353535353544 3.989898989898992,0.4545454545454551 3.989898989898992,0.5555555555555567 3.989898989898992,0.6565656565656574 3.989898989898992,0.7575757575757579 3.989898989898992,0.8585858585858596 3.989898989898992,0.9595959595959602 3.989898989898992,1.0606060606060617" data-type="line" data-label="" points="984,907.7171717171718 984,898.1818181818181 984,888.6464646464647 984,879.1111111111111 984,869.5757575757575 984,860.0404040404039 984,850.5050505050505 974.4646464646464,840.969696969697 964.9292929292927,831.4343434343434 955.3939393939393,821.8989898989898 945.8585858585857,812.3636363636363 936.3232323232323,802.8282828282828 926.7878787878785,793.2929292929292 917.2525252525251,783.7575757575758 907.7171717171716,774.2222222222222 898.181818181818,764.6868686868687 888.6464646464647,755.1515151515151 879.111111111111,745.6161616161615 869.5757575757575,736.0808080808081 860.0404040404039,726.5454545454545 850.5050505050505,717.010101010101 840.969696969697,707.4747474747475 831.4343434343433,697.939393939394 821.8989898989898,688.4040404040404 812.3636363636363,678.8686868686868 812.3636363636363,669.3333333333334 802.8282828282828,659.7979797979798 812.3636363636363,650.2626262626263 812.3636363636363,640.7272727272727 821.8989898989898,631.1919191919193 831.4343434343433,621.6565656565657 840.969696969697,612.1212121212121 850.5050505050505,602.5858585858587 860.0404040404039,593.0505050505051 869.5757575757575,583.5151515151516 879.111111111111,573.979797979798 888.6464646464647,564.4444444444445 888.6464646464647,554.909090909091 888.6464646464647,545.3737373737374 888.6464646464647,535.838383838384 888.6464646464647,526.3030303030304 888.6464646464647,516.7676767676768 888.6464646464647,507.23232323232327 888.6464646464647,497.69696969696975 888.6464646464647,488.1616161616163 888.6464646464647,478.6262626262627 888.6464646464647,469.0909090909092 888.6464646464647,459.5555555555556 888.6464646464647,450.0202020202021 888.6464646464647,440.4848484848486 888.6464646464647,430.94949494949503 888.6464646464647,421.4141414141415 888.6464646464647,411.87878787878793" fill="none" stroke="rgba(0,0,255,0.75)" stroke-width="14.159999999999995"/></g><g><polyline data-points="3.989898989898992,1.0606060606060617 4.090909090909092,1.0606060606060617 4.191919191919193,1.0606060606060617 4.292929292929293,1.0606060606060617 4.393939393939394,1.0606060606060617 4.494949494949497,1.0606060606060617 4.595959595959597,1.0606060606060617 4.696969696969697,1.0606060606060617 4.7979797979797985,1.0606060606060617 4.898989898989901,1.0606060606060617 5.000000000000002,1.0606060606060617" data-type="line" data-label="" points="888.6464646464647,411.87878787878793 898.181818181818,411.87878787878793 907.7171717171716,411.87878787878793 917.2525252525251,411.87878787878793 926.7878787878785,411.87878787878793 936.3232323232323,411.87878787878793 945.8585858585857,411.87878787878793 955.3939393939393,411.87878787878793 964.9292929292927,411.87878787878793 974.4646464646464,411.87878787878793 984,411.87878787878793" fill="none" stroke="rgba(255,0,0,0.75)" stroke-width="14.159999999999995"/></g><g><polyline data-points="5.000000000000002,3.383838383838384 4.898989898989901,3.4848484848484866 4.7979797979797985,3.4848484848484866 4.696969696969697,3.4848484848484866 4.595959595959597,3.4848484848484866 4.494949494949497,3.4848484848484866 4.393939393939394,3.4848484848484866 4.292929292929293,3.4848484848484866 4.191919191919193,3.4848484848484866 4.090909090909092,3.4848484848484866 3.989898989898992,3.4848484848484866 3.8888888888888893,3.4848484848484866 3.7878787878787885,3.4848484848484866 3.6868686868686877,3.4848484848484866 3.5858585858585874,3.4848484848484866 3.4848484848484866,3.4848484848484866 3.383838383838384,3.4848484848484866 3.2828282828282833,3.4848484848484866 3.181818181818183,3.4848484848484866 3.080808080808082,3.4848484848484866 2.9797979797979806,3.4848484848484866 2.87878787878788,3.4848484848484866 2.7777777777777786,3.5858585858585874 2.676767676767678,3.5858585858585874 2.575757575757577,3.6868686868686877 2.4747474747474754,3.7878787878787885 2.373737373737375,3.8888888888888893 2.2727272727272734,3.989898989898992 2.1717171717171726,4.090909090909092 2.070707070707072,4.191919191919193 1.9696969696969702,4.292929292929293 1.8686868686868696,4.292929292929293 1.767676767676768,4.292929292929293 1.6666666666666674,4.292929292929293 1.5656565656565666,4.292929292929293 1.4646464646464652,4.292929292929293 1.3636363636363644,4.292929292929293 1.262626262626263,4.292929292929293 1.1616161616161622,4.292929292929293 1.0606060606060617,4.292929292929293 0.9595959595959602,4.292929292929293 0.8585858585858596,4.292929292929293 0.7575757575757579,4.292929292929293 0.6565656565656574,4.292929292929293 0.5555555555555567,4.292929292929293 0.4545454545454551,4.292929292929293 0.3535353535353544,4.292929292929293 0.2525252525252529,4.292929292929293 0.1515151515151522,4.292929292929293 0.050505050505051545,4.292929292929293 -0.05050505050505001,4.292929292929293 -0.15151515151515066,4.292929292929293 -0.2525252525252522,4.292929292929293 -0.35353535353535287,4.292929292929293 -0.4545454545454544,4.292929292929293 -0.555555555555555,4.292929292929293 -0.6565656565656557,4.292929292929293 -0.7575757575757572,4.292929292929293 -0.8585858585858579,4.292929292929293 -0.9595959595959596,4.292929292929293 -1.0606060606060603,4.292929292929293 -1.1616161616161613,4.292929292929293 -1.2626262626262625,4.292929292929293 -1.363636363636363,4.292929292929293 -1.4646464646464643,4.292929292929293 -1.5656565656565653,4.292929292929293 -1.6666666666666665,4.292929292929293 -1.7676767676767675,4.292929292929293 -1.8686868686868683,4.292929292929293 -1.9696969696969693,4.292929292929293 -2.07070707070707,4.292929292929293 -2.1717171717171713,4.292929292929293 -2.2727272727272725,4.292929292929293 -2.3737373737373733,4.292929292929293 -2.474747474747474,4.292929292929293 -2.5757575757575752,4.292929292929293 -2.6767676767676765,4.292929292929293 -2.7777777777777777,4.292929292929293 -2.8787878787878785,4.292929292929293 -2.9797979797979792,4.292929292929293 -3.0808080808080804,4.292929292929293 -3.1818181818181817,4.292929292929293 -3.2828282828282824,4.292929292929293 -3.383838383838383,4.292929292929293 -3.484848484848485,4.292929292929293 -3.5858585858585856,4.292929292929293 -3.6868686868686864,4.292929292929293 -3.7878787878787876,4.292929292929293 -3.8888888888888884,4.292929292929293 -3.98989898989899,4.292929292929293 -4.090909090909091,4.292929292929293 -4.191919191919193,4.292929292929293 -4.292929292929293,4.292929292929293 -4.393939393939394,4.292929292929293 -4.494949494949496,4.292929292929293 -4.595959595959596,4.292929292929293 -4.696969696969697,4.292929292929293 -4.7979797979797985,4.292929292929293 -4.898989898989899,4.292929292929293 -5.000000000000001,4.292929292929293" data-type="line" data-label="" points="984,192.56565656565675 974.4646464646464,183.03030303030312 964.9292929292927,183.03030303030312 955.3939393939393,183.03030303030312 945.8585858585857,183.03030303030312 936.3232323232323,183.03030303030312 926.7878787878785,183.03030303030312 917.2525252525251,183.03030303030312 907.7171717171716,183.03030303030312 898.181818181818,183.03030303030312 888.6464646464647,183.03030303030312 879.111111111111,183.03030303030312 869.5757575757575,183.03030303030312 860.0404040404039,183.03030303030312 850.5050505050505,183.03030303030312 840.969696969697,183.03030303030312 831.4343434343433,183.03030303030312 821.8989898989898,183.03030303030312 812.3636363636363,183.03030303030312 802.8282828282828,183.03030303030312 793.2929292929292,183.03030303030312 783.7575757575758,183.03030303030312 774.2222222222222,173.4949494949496 764.6868686868686,173.4949494949496 755.1515151515151,163.95959595959613 745.6161616161615,154.4242424242426 736.0808080808081,144.88888888888908 726.5454545454545,135.35353535353545 717.0101010101009,125.81818181818198 707.4747474747475,116.28282828282846 697.9393939393939,106.747474747475 688.4040404040404,106.747474747475 678.8686868686868,106.747474747475 669.3333333333333,106.747474747475 659.7979797979798,106.747474747475 650.2626262626262,106.747474747475 640.7272727272727,106.747474747475 631.1919191919192,106.747474747475 621.6565656565656,106.747474747475 612.1212121212121,106.747474747475 602.5858585858585,106.747474747475 593.0505050505051,106.747474747475 583.5151515151515,106.747474747475 573.9797979797979,106.747474747475 564.4444444444445,106.747474747475 554.9090909090909,106.747474747475 545.3737373737374,106.747474747475 535.8383838383838,106.747474747475 526.3030303030303,106.747474747475 516.7676767676768,106.747474747475 507.2323232323232,106.747474747475 497.69696969696975,106.747474747475 488.16161616161617,106.747474747475 478.62626262626264,106.747474747475 469.09090909090907,106.747474747475 459.55555555555554,106.747474747475 450.0202020202021,106.747474747475 440.4848484848485,106.747474747475 430.949494949495,106.747474747475 421.4141414141414,106.747474747475 411.8787878787879,106.747474747475 402.34343434343435,106.747474747475 392.80808080808083,106.747474747475 383.2727272727273,106.747474747475 373.7373737373738,106.747474747475 364.2020202020202,106.747474747475 354.6666666666667,106.747474747475 345.13131313131316,106.747474747475 335.59595959595964,106.747474747475 326.0606060606061,106.747474747475 316.5252525252526,106.747474747475 306.9898989898991,106.747474747475 297.4545454545455,106.747474747475 287.91919191919203,106.747474747475 278.38383838383845,106.747474747475 268.84848484848493,106.747474747475 259.3131313131314,106.747474747475 249.77777777777783,106.747474747475 240.2424242424243,106.747474747475 230.70707070707084,106.747474747475 221.17171717171726,106.747474747475 211.63636363636374,106.747474747475 202.10101010101022,106.747474747475 192.5656565656567,106.747474747475 183.03030303030312,106.747474747475 173.4949494949496,106.747474747475 163.95959595959607,106.747474747475 154.42424242424255,106.747474747475 144.88888888888903,106.747474747475 135.35353535353545,106.747474747475 125.81818181818193,106.747474747475 116.28282828282829,106.747474747475 106.74747474747483,106.747474747475 97.21212121212136,106.747474747475 87.67676767676772,106.747474747475 78.14141414141426,106.747474747475 68.60606060606068,106.747474747475 59.07070707070716,106.747474747475 49.53535353535369,106.747474747475 40.00000000000006,106.747474747475" fill="none" stroke="rgba(255,0,0,0.75)" stroke-width="14.159999999999995"/></g><g><rect data-type="rect" data-label="" data-x="0" data-y="0" x="40.000000000000114" y="40.000000000000284" width="943.9999999999997" height="943.9999999999998" fill="none" stroke="gray" stroke-width="0.010593220338983056"/></g><g><rect data-type="rect" data-label="" data-x="0" data-y="0" x="40.000000000000114" y="40.000000000000284" width="943.9999999999997" height="943.9999999999998" fill="none" stroke="rgba(15, 23, 42, 0.8)" stroke-width="0.010593220338983056"/></g><circle data-type="circle" data-label="" data-x="2.87878787878788" data-y="3.989898989898992" cx="783.7575757575758" cy="135.35353535353545" r="28.791999999999987" fill="rgba(0,0,0,0.3)" stroke="black" stroke-width="0.010593220338983056"/><circle data-type="circle" data-label="" data-x="3.5858585858585874" data-y="-1.5656565656565653" cx="850.5050505050505" cy="659.7979797979798" r="28.791999999999987" fill="rgba(0,0,0,0.3)" stroke="black" stroke-width="0.010593220338983056"/><circle data-type="circle" data-label="" data-x="-3.98989898989899" data-y="0.3535353535353544" cx="135.35353535353545" cy="478.6262626262627" r="28.791999999999987" fill="rgba(0,0,0,0.3)" stroke="black" stroke-width="0.010593220338983056"/><circle data-type="circle" data-label="" data-x="-2.474747474747474" data-y="-3.0808080808080804" cx="278.38383838383845" cy="802.8282828282828" r="28.791999999999987" fill="rgba(0,0,0,0.3)" stroke="black" stroke-width="0.010593220338983056"/><circle data-type="circle" data-label="" data-x="3.989898989898992" data-y="1.0606060606060617" cx="888.6464646464647" cy="411.87878787878793" r="28.791999999999987" fill="rgba(0,0,0,0.3)" stroke="black" stroke-width="0.010593220338983056"/><g id="crosshair" style="display: none"><line id="crosshair-h" y1="0" y2="1024" stroke="#666" stroke-width="0.5"/><line id="crosshair-v" x1="0" x2="1024" stroke="#666" stroke-width="0.5"/><text id="coordinates" font-family="monospace" font-size="12" fill="#666"></text></g><script><![CDATA[
              document.currentScript.parentElement.addEventListener('mousemove', (e) => {
                const svg = e.currentTarget;
                const rect = svg.getBoundingClientRect();
                const x = e.clientX - rect.left;
                const y = e.clientY - rect.top;
                const crosshair = svg.getElementById('crosshair');
                const h = svg.getElementById('crosshair-h');
                const v = svg.getElementById('crosshair-v');
                const coords = svg.getElementById('coordinates');
                
                crosshair.style.display = 'block';
                h.setAttribute('x1', '0');
                h.setAttribute('x2', '1024');
                h.setAttribute('y1', y);
                h.setAttribute('y2', y);
                v.setAttribute('x1', x);
                v.setAttribute('x2', x);
                v.setAttribute('y1', '0');
                v.setAttribute('y2', '1024');

                // Calculate real coordinates using inverse transformation
                const matrix = {"a":94.39999999999996,"c":0,"e":511.99999999999994,"b":0,"d":-94.39999999999996,"f":512.0000000000001};
                // Manually invert and apply the affine transform
                // Since we only use translate and scale, we can directly compute:
                // x' = (x - tx) / sx
                // y' = (y - ty) / sy
                const sx = matrix.a;
                const sy = matrix.d;
                const tx = matrix.e; 
                const ty = matrix.f;
                const realPoint = {
                  x: (x - tx) / sx,
                  y: (y - ty) / sy // Flip y back since we used negative scale
                }
                
                coords.textContent = `(${realPoint.x.toFixed(2)}, ${realPoint.y.toFixed(2)})`;
                coords.setAttribute('x', (x + 5).toString());
                coords.setAttribute('y', (y - 5).toString());
              });
              document.currentScript.parentElement.addEventListener('mouseleave', () => {
                document.currentScript.parentElement.getElementById('crosshair').style.display = 'none';
              });
            ]]></script></svg>