<svg width="1024" height="1024" viewBox="0 0 1024 1024" xmlns="http://www.w3.org/2000/svg"><rect width="100%" height="100%" fill="white"/><g><circle data-type="point" data-label="conn_000" data-x="-5" data-y="-2.04" cx="40.000000000000114" cy="704.576" r="28.792" fill="red" stroke="#0fa0bd" stroke-width="28.792"/></g><g><circle data-type="point" data-label="conn_000" data-x="5" data-y="-2.36" cx="983.9999999999998" cy="734.784" r="28.792" fill="red" stroke="#0fa0bd" stroke-width="28.792"/></g><g><circle data-type="point" data-label="conn_001" data-x="-5" data-y="3.5" cx="40.000000000000114" cy="181.60000000000025" r="28.792" fill="red" stroke="#bd0f6d" stroke-width="28.792"/></g><g><circle data-type="point" data-label="conn_001" data-x="5" data-y="0.96" cx="983.9999999999998" cy="421.37600000000015" r="28.792" fill="red" stroke="#bd0f6d" stroke-width="28.792"/></g><g><circle data-type="point" data-label="conn_002" data-x="3.46" data-y="5" cx="838.6239999999998" cy="40.000000000000284" r="28.792" fill="red" stroke="#3bbd0f" stroke-width="28.792"/></g><g><circle data-type="point" data-label="conn_002" data-x="4.18" data-y="5" cx="906.5919999999998" cy="40.000000000000284" r="28.792" fill="red" stroke="#3bbd0f" stroke-width="28.792"/></g><g><circle data-type="point" data-label="conn_003" data-x="5" data-y="-4.36" cx="983.9999999999998" cy="923.5840000000001" r="28.792" fill="red" stroke="#170fbd" stroke-width="28.792"/></g><g><circle data-type="point" data-label="conn_003" data-x="5" data-y="3.7" cx="983.9999999999998" cy="162.72000000000025" r="28.792" fill="blue" stroke="#170fbd" stroke-width="28.792"/></g><g><circle data-type="point" data-label="conn_004" data-x="-0.58" data-y="-5" cx="457.248" cy="984" r="28.792" fill="red" stroke="#bd490f" stroke-width="28.792"/></g><g><circle data-type="point" data-label="conn_004" data-x="0.18" data-y="5" cx="528.992" cy="40.000000000000284" r="28.792" fill="red" stroke="#bd490f" stroke-width="28.792"/></g><g><circle data-type="point" data-label="conn_005" data-x="5" data-y="4.38" cx="983.9999999999998" cy="98.5280000000003" r="28.792" fill="blue" stroke="#0fbd7c" stroke-width="28.792"/></g><g><circle data-type="point" data-label="conn_005" data-x="-5" data-y="0.4" cx="40.000000000000114" cy="474.2400000000001" r="28.792" fill="blue" stroke="#0fbd7c" stroke-width="28.792"/></g><g><circle data-type="point" data-label="conn_006" data-x="2.32" data-y="-5" cx="731.0079999999998" cy="984" r="28.792" fill="red" stroke="#ae0fbd" stroke-width="28.792"/></g><g><circle data-type="point" data-label="conn_006" data-x="5" data-y="1.84" cx="983.9999999999998" cy="338.3040000000002" r="28.792" fill="red" stroke="#ae0fbd" stroke-width="28.792"/></g><g><circle data-type="point" data-label="conn_007" data-x="3.98" data-y="-5" cx="887.7119999999998" cy="984" r="28.792" fill="blue" stroke="#98bd0f" stroke-width="28.792"/></g><g><circle data-type="point" data-label="conn_007" data-x="-5" data-y="-3.72" cx="40.000000000000114" cy="863.168" r="28.792" fill="blue" stroke="#98bd0f" stroke-width="28.792"/></g><g><circle data-type="point" data-label="conn_008" data-x="0.08" data-y="-5" cx="519.5519999999999" cy="984" r="28.792" fill="red" stroke="#0f66bd" stroke-width="28.792"/></g><g><circle data-type="point" data-label="conn_008" data-x="-4.3" data-y="5" cx="106.0800000000001" cy="40.000000000000284" r="28.792" fill="red" stroke="#0f66bd" stroke-width="28.792"/></g><g><circle data-type="point" data-label="conn_009" data-x="-5" data-y="1.54" cx="40.000000000000114" cy="366.62400000000014" r="28.792" fill="red" stroke="#bd0f33" stroke-width="28.792"/></g><g><circle data-type="point" data-label="conn_009" data-x="-5" data-y="-1.32" cx="40.000000000000114" cy="636.6080000000001" r="28.792" fill="blue" stroke="#bd0f33" stroke-width="28.792"/></g><g><polyline data-points="3.989898989898992,-5.000000000000001 3.8888888888888893,-4.898989898989899 3.7878787878787885,-4.7979797979797985 3.6868686868686877,-4.696969696969697 3.5858585858585874,-4.595959595959596 3.4848484848484866,-4.494949494949496 3.383838383838384,-4.393939393939394 3.2828282828282833,-4.292929292929293 3.181818181818183,-4.191919191919193 3.080808080808082,-4.090909090909091 2.9797979797979806,-3.98989898989899 2.87878787878788,-3.8888888888888884 2.7777777777777786,-3.7878787878787876 2.676767676767678,-3.7878787878787876 2.575757575757577,-3.7878787878787876 2.4747474747474754,-3.7878787878787876 2.373737373737375,-3.7878787878787876 2.2727272727272734,-3.7878787878787876 2.1717171717171726,-3.7878787878787876 2.070707070707072,-3.7878787878787876 1.9696969696969702,-3.7878787878787876 1.8686868686868696,-3.7878787878787876 1.767676767676768,-3.7878787878787876 1.6666666666666674,-3.7878787878787876 1.5656565656565666,-3.7878787878787876 1.4646464646464652,-3.7878787878787876 1.3636363636363644,-3.7878787878787876 1.262626262626263,-3.7878787878787876 1.1616161616161622,-3.7878787878787876 1.0606060606060617,-3.7878787878787876 0.9595959595959602,-3.7878787878787876 0.8585858585858596,-3.7878787878787876 0.7575757575757579,-3.7878787878787876 0.6565656565656574,-3.7878787878787876 0.5555555555555567,-3.7878787878787876 0.4545454545454551,-3.7878787878787876 0.3535353535353544,-3.7878787878787876 0.2525252525252529,-3.7878787878787876 0.1515151515151522,-3.7878787878787876 0.050505050505051545,-3.7878787878787876 -0.05050505050505001,-3.7878787878787876 -0.15151515151515066,-3.7878787878787876 -0.2525252525252522,-3.7878787878787876 -0.35353535353535287,-3.7878787878787876 -0.4545454545454544,-3.7878787878787876 -0.555555555555555,-3.7878787878787876 -0.6565656565656557,-3.7878787878787876 -0.7575757575757572,-3.7878787878787876 -0.8585858585858579,-3.7878787878787876 -0.9595959595959596,-3.7878787878787876 -1.0606060606060603,-3.7878787878787876 -1.1616161616161613,-3.7878787878787876 -1.2626262626262625,-3.7878787878787876 -1.363636363636363,-3.7878787878787876 -1.4646464646464643,-3.7878787878787876 -1.5656565656565653,-3.7878787878787876 -1.6666666666666665,-3.7878787878787876 -1.7676767676767675,-3.7878787878787876 -1.8686868686868683,-3.7878787878787876 -1.9696969696969693,-3.7878787878787876 -2.07070707070707,-3.7878787878787876 -2.1717171717171713,-3.7878787878787876 -2.2727272727272725,-3.7878787878787876 -2.3737373737373733,-3.7878787878787876 -2.474747474747474,-3.7878787878787876 -2.5757575757575752,-3.7878787878787876 -2.6767676767676765,-3.7878787878787876 -2.7777777777777777,-3.7878787878787876 -2.8787878787878785,-3.7878787878787876 -2.9797979797979792,-3.7878787878787876 -3.0808080808080804,-3.7878787878787876 -3.1818181818181817,-3.7878787878787876 -3.2828282828282824,-3.7878787878787876 -3.383838383838383,-3.7878787878787876 -3.484848484848485,-3.7878787878787876 -3.5858585858585856,-3.7878787878787876 -3.6868686868686864,-3.7878787878787876 -3.7878787878787876,-3.7878787878787876 -3.8888888888888884,-3.7878787878787876 -3.98989898989899,-3.7878787878787876 -4.090909090909091,-3.7878787878787876 -4.191919191919193,-3.7878787878787876 -4.292929292929293,-3.7878787878787876 -4.393939393939394,-3.7878787878787876 -4.494949494949496,-3.7878787878787876 -4.595959595959596,-3.7878787878787876 -4.696969696969697,-3.7878787878787876 -4.7979797979797985,-3.7878787878787876 -4.898989898989899,-3.7878787878787876 -5.000000000000001,-3.7878787878787876" data-type="line" data-label="" points="888.6464646464647,984 879.111111111111,974.4646464646464 869.5757575757575,964.9292929292928 860.0404040404039,955.3939393939394 850.5050505050505,945.8585858585858 840.969696969697,936.3232323232323 831.4343434343433,926.7878787878788 821.8989898989898,917.2525252525252 812.3636363636363,907.7171717171718 802.8282828282828,898.1818181818181 793.2929292929292,888.6464646464647 783.7575757575758,879.1111111111111 774.2222222222222,869.5757575757575 764.6868686868686,869.5757575757575 755.1515151515151,869.5757575757575 745.6161616161615,869.5757575757575 736.0808080808081,869.5757575757575 726.5454545454545,869.5757575757575 717.0101010101009,869.5757575757575 707.4747474747475,869.5757575757575 697.9393939393939,869.5757575757575 688.4040404040404,869.5757575757575 678.8686868686868,869.5757575757575 669.3333333333333,869.5757575757575 659.7979797979798,869.5757575757575 650.2626262626262,869.5757575757575 640.7272727272727,869.5757575757575 631.1919191919192,869.5757575757575 621.6565656565656,869.5757575757575 612.1212121212121,869.5757575757575 602.5858585858585,869.5757575757575 593.0505050505051,869.5757575757575 583.5151515151515,869.5757575757575 573.9797979797979,869.5757575757575 564.4444444444445,869.5757575757575 554.9090909090909,869.5757575757575 545.3737373737374,869.5757575757575 535.8383838383838,869.5757575757575 526.3030303030303,869.5757575757575 516.7676767676768,869.5757575757575 507.2323232323232,869.5757575757575 497.69696969696975,869.5757575757575 488.16161616161617,869.5757575757575 478.62626262626264,869.5757575757575 469.09090909090907,869.5757575757575 459.55555555555554,869.5757575757575 450.0202020202021,869.5757575757575 440.4848484848485,869.5757575757575 430.949494949495,869.5757575757575 421.4141414141414,869.5757575757575 411.8787878787879,869.5757575757575 402.34343434343435,869.5757575757575 392.80808080808083,869.5757575757575 383.2727272727273,869.5757575757575 373.7373737373738,869.5757575757575 364.2020202020202,869.5757575757575 354.6666666666667,869.5757575757575 345.13131313131316,869.5757575757575 335.59595959595964,869.5757575757575 326.0606060606061,869.5757575757575 316.5252525252526,869.5757575757575 306.9898989898991,869.5757575757575 297.4545454545455,869.5757575757575 287.91919191919203,869.5757575757575 278.38383838383845,869.5757575757575 268.84848484848493,869.5757575757575 259.3131313131314,869.5757575757575 249.77777777777783,869.5757575757575 240.2424242424243,869.5757575757575 230.70707070707084,869.5757575757575 221.17171717171726,869.5757575757575 211.63636363636374,869.5757575757575 202.10101010101022,869.5757575757575 192.5656565656567,869.5757575757575 183.03030303030312,869.5757575757575 173.4949494949496,869.5757575757575 163.95959595959607,869.5757575757575 154.42424242424255,869.5757575757575 144.88888888888903,869.5757575757575 135.35353535353545,869.5757575757575 125.81818181818193,869.5757575757575 116.28282828282829,869.5757575757575 106.74747474747483,869.5757575757575 97.21212121212136,869.5757575757575 87.67676767676772,869.5757575757575 78.14141414141426,869.5757575757575 68.60606060606068,869.5757575757575 59.07070707070716,869.5757575757575 49.53535353535369,869.5757575757575 40.00000000000006,869.5757575757575" fill="none" stroke="rgba(0,0,255,0.75)" stroke-width="14.159999999999995"/></g><g><polyline data-points="5.000000000000002,4.393939393939394 4.898989898989901,4.292929292929293 4.7979797979797985,4.191919191919193 4.696969696969697,4.090909090909092 4.595959595959597,3.989898989898992 4.494949494949497,3.8888888888888893 4.393939393939394,3.7878787878787885 4.292929292929293,3.6868686868686877 4.191919191919193,3.5858585858585874 4.090909090909092,3.4848484848484866 3.989898989898992,3.383838383838384 3.8888888888888893,3.2828282828282833 3.7878787878787885,3.181818181818183 3.6868686868686877,3.080808080808082 3.5858585858585874,2.9797979797979806 3.4848484848484866,2.87878787878788 3.383838383838384,2.7777777777777786 3.2828282828282833,2.676767676767678 3.181818181818183,2.575757575757577 3.080808080808082,2.4747474747474754 2.9797979797979806,2.373737373737375 2.87878787878788,2.2727272727272734 2.7777777777777786,2.1717171717171726 2.676767676767678,2.070707070707072 2.575757575757577,1.9696969696969702 2.4747474747474754,1.8686868686868696 2.373737373737375,1.767676767676768 2.2727272727272734,1.6666666666666674 2.1717171717171726,1.5656565656565666 2.070707070707072,1.4646464646464652 1.9696969696969702,1.3636363636363644 1.8686868686868696,1.262626262626263 1.767676767676768,1.1616161616161622 1.6666666666666674,1.0606060606060617 1.5656565656565666,0.9595959595959602 1.4646464646464652,0.8585858585858596 1.3636363636363644,0.7575757575757579 1.262626262626263,0.6565656565656574 1.1616161616161622,0.5555555555555567 1.0606060606060617,0.4545454545454551 0.9595959595959602,0.4545454545454551 0.8585858585858596,0.4545454545454551 0.7575757575757579,0.4545454545454551 0.6565656565656574,0.4545454545454551 0.5555555555555567,0.4545454545454551 0.4545454545454551,0.4545454545454551 0.3535353535353544,0.4545454545454551 0.2525252525252529,0.4545454545454551 0.1515151515151522,0.4545454545454551 0.050505050505051545,0.4545454545454551 -0.05050505050505001,0.4545454545454551 -0.15151515151515066,0.4545454545454551 -0.2525252525252522,0.4545454545454551 -0.35353535353535287,0.4545454545454551 -0.4545454545454544,0.4545454545454551 -0.555555555555555,0.4545454545454551 -0.6565656565656557,0.4545454545454551 -0.7575757575757572,0.4545454545454551 -0.8585858585858579,0.4545454545454551 -0.9595959595959596,0.4545454545454551 -1.0606060606060603,0.4545454545454551 -1.1616161616161613,0.4545454545454551 -1.2626262626262625,0.4545454545454551 -1.363636363636363,0.4545454545454551 -1.4646464646464643,0.4545454545454551 -1.5656565656565653,0.4545454545454551 -1.6666666666666665,0.4545454545454551 -1.7676767676767675,0.4545454545454551 -1.8686868686868683,0.4545454545454551 -1.9696969696969693,0.4545454545454551 -2.07070707070707,0.4545454545454551 -2.1717171717171713,0.4545454545454551 -2.2727272727272725,0.4545454545454551 -2.3737373737373733,0.4545454545454551 -2.474747474747474,0.4545454545454551 -2.5757575757575752,0.4545454545454551 -2.6767676767676765,0.4545454545454551 -2.7777777777777777,0.4545454545454551 -2.8787878787878785,0.4545454545454551 -2.9797979797979792,0.4545454545454551 -3.0808080808080804,0.4545454545454551 -3.1818181818181817,0.4545454545454551 -3.2828282828282824,0.4545454545454551 -3.383838383838383,0.4545454545454551 -3.484848484848485,0.4545454545454551 -3.5858585858585856,0.4545454545454551 -3.6868686868686864,0.4545454545454551 -3.7878787878787876,0.4545454545454551 -3.8888888888888884,0.4545454545454551 -3.98989898989899,0.4545454545454551 -4.090909090909091,0.4545454545454551 -4.191919191919193,0.4545454545454551 -4.292929292929293,0.4545454545454551 -4.393939393939394,0.4545454545454551 -4.494949494949496,0.4545454545454551 -4.595959595959596,0.4545454545454551 -4.696969696969697,0.4545454545454551 -4.7979797979797985,0.4545454545454551 -4.898989898989899,0.4545454545454551 -5.000000000000001,0.4545454545454551" data-type="line" data-label="" points="984,97.21212121212153 974.4646464646464,106.747474747475 964.9292929292927,116.28282828282846 955.3939393939393,125.81818181818198 945.8585858585857,135.35353535353545 936.3232323232323,144.88888888888908 926.7878787878785,154.4242424242426 917.2525252525251,163.95959595959613 907.7171717171716,173.4949494949496 898.181818181818,183.03030303030312 888.6464646464647,192.56565656565675 879.111111111111,202.10101010101027 869.5757575757575,211.63636363636374 860.0404040404039,221.17171717171726 850.5050505050505,230.70707070707084 840.969696969697,240.24242424242436 831.4343434343433,249.77777777777794 821.8989898989898,259.3131313131314 812.3636363636363,268.84848484848493 802.8282828282828,278.38383838383857 793.2929292929292,287.91919191919203 783.7575757575758,297.4545454545456 774.2222222222222,306.9898989898991 764.6868686868686,316.5252525252526 755.1515151515151,326.06060606060623 745.6161616161615,335.5959595959597 736.0808080808081,345.1313131313133 726.5454545454545,354.66666666666674 717.0101010101009,364.2020202020203 707.4747474747475,373.73737373737384 697.9393939393939,383.27272727272737 688.4040404040404,392.80808080808094 678.8686868686868,402.3434343434344 669.3333333333333,411.87878787878793 659.7979797979798,421.4141414141415 650.2626262626262,430.94949494949503 640.7272727272727,440.4848484848486 631.1919191919192,450.0202020202021 621.6565656565656,459.5555555555556 612.1212121212121,469.0909090909092 602.5858585858585,469.0909090909092 593.0505050505051,469.0909090909092 583.5151515151515,469.0909090909092 573.9797979797979,469.0909090909092 564.4444444444445,469.0909090909092 554.9090909090909,469.0909090909092 545.3737373737374,469.0909090909092 535.8383838383838,469.0909090909092 526.3030303030303,469.0909090909092 516.7676767676768,469.0909090909092 507.2323232323232,469.0909090909092 497.69696969696975,469.0909090909092 488.16161616161617,469.0909090909092 478.62626262626264,469.0909090909092 469.09090909090907,469.0909090909092 459.55555555555554,469.0909090909092 450.0202020202021,469.0909090909092 440.4848484848485,469.0909090909092 430.949494949495,469.0909090909092 421.4141414141414,469.0909090909092 411.8787878787879,469.0909090909092 402.34343434343435,469.0909090909092 392.80808080808083,469.0909090909092 383.2727272727273,469.0909090909092 373.7373737373738,469.0909090909092 364.2020202020202,469.0909090909092 354.6666666666667,469.0909090909092 345.13131313131316,469.0909090909092 335.59595959595964,469.0909090909092 326.0606060606061,469.0909090909092 316.5252525252526,469.0909090909092 306.9898989898991,469.0909090909092 297.4545454545455,469.0909090909092 287.91919191919203,469.0909090909092 278.38383838383845,469.0909090909092 268.84848484848493,469.0909090909092 259.3131313131314,469.0909090909092 249.77777777777783,469.0909090909092 240.2424242424243,469.0909090909092 230.70707070707084,469.0909090909092 221.17171717171726,469.0909090909092 211.63636363636374,469.0909090909092 202.10101010101022,469.0909090909092 192.5656565656567,469.0909090909092 183.03030303030312,469.0909090909092 173.4949494949496,469.0909090909092 163.95959595959607,469.0909090909092 154.42424242424255,469.0909090909092 144.88888888888903,469.0909090909092 135.35353535353545,469.0909090909092 125.81818181818193,469.0909090909092 116.28282828282829,469.0909090909092 106.74747474747483,469.0909090909092 97.21212121212136,469.0909090909092 87.67676767676772,469.0909090909092 78.14141414141426,469.0909090909092 68.60606060606068,469.0909090909092 59.07070707070716,469.0909090909092 49.53535353535369,469.0909090909092 40.00000000000006,469.0909090909092" fill="none" stroke="rgba(0,0,255,0.75)" stroke-width="14.159999999999995"/></g><g><polyline data-points="-5.000000000000001,3.5858585858585874 -4.898989898989899,3.4848484848484866 -4.7979797979797985,3.383838383838384 -4.696969696969697,3.2828282828282833 -4.595959595959596,3.181818181818183 -4.494949494949496,3.080808080808082 -4.393939393939394,2.9797979797979806 -4.292929292929293,2.87878787878788 -4.191919191919193,2.7777777777777786 -4.090909090909091,2.676767676767678 -3.98989898989899,2.575757575757577 -3.8888888888888884,2.4747474747474754 -3.7878787878787876,2.373737373737375 -3.6868686868686864,2.2727272727272734 -3.5858585858585856,2.1717171717171726 -3.484848484848485,2.070707070707072 -3.383838383838383,1.9696969696969702 -3.2828282828282824,1.8686868686868696 -3.1818181818181817,1.767676767676768 -3.0808080808080804,1.6666666666666674 -2.9797979797979792,1.5656565656565666 -2.8787878787878785,1.4646464646464652 -2.7777777777777777,1.3636363636363644 -2.6767676767676765,1.262626262626263 -2.5757575757575752,1.1616161616161622 -2.474747474747474,1.0606060606060617 -2.3737373737373733,0.9595959595959602 -2.2727272727272725,0.9595959595959602 -2.1717171717171713,0.9595959595959602 -2.07070707070707,0.9595959595959602 -1.9696969696969693,0.9595959595959602 -1.8686868686868683,0.9595959595959602 -1.7676767676767675,0.9595959595959602 -1.6666666666666665,0.9595959595959602 -1.5656565656565653,0.9595959595959602 -1.4646464646464643,0.9595959595959602 -1.363636363636363,0.9595959595959602 -1.2626262626262625,0.9595959595959602 -1.1616161616161613,0.9595959595959602 -1.0606060606060603,0.9595959595959602 -0.9595959595959596,0.9595959595959602 -0.8585858585858579,0.9595959595959602 -0.7575757575757572,0.9595959595959602 -0.6565656565656557,0.9595959595959602 -0.555555555555555,0.9595959595959602 -0.4545454545454544,0.9595959595959602 -0.35353535353535287,0.9595959595959602 -0.2525252525252522,0.9595959595959602 -0.15151515151515066,0.9595959595959602 -0.05050505050505001,0.9595959595959602 0.050505050505051545,0.9595959595959602 0.1515151515151522,0.9595959595959602 0.2525252525252529,0.9595959595959602 0.3535353535353544,0.9595959595959602 0.4545454545454551,0.9595959595959602 0.5555555555555567,0.9595959595959602 0.6565656565656574,0.9595959595959602 0.7575757575757579,0.9595959595959602 0.8585858585858596,0.9595959595959602 0.9595959595959602,0.9595959595959602 1.0606060606060617,0.9595959595959602 1.1616161616161622,0.9595959595959602 1.262626262626263,0.9595959595959602 1.3636363636363644,0.9595959595959602 1.4646464646464652,0.9595959595959602 1.5656565656565666,0.9595959595959602 1.6666666666666674,0.9595959595959602 1.767676767676768,0.9595959595959602 1.8686868686868696,0.9595959595959602 1.9696969696969702,0.9595959595959602 2.070707070707072,0.9595959595959602 2.1717171717171726,0.9595959595959602 2.2727272727272734,0.9595959595959602 2.373737373737375,0.9595959595959602 2.4747474747474754,0.9595959595959602 2.575757575757577,0.9595959595959602 2.676767676767678,0.9595959595959602 2.7777777777777786,0.9595959595959602 2.87878787878788,0.9595959595959602 2.9797979797979806,0.9595959595959602 3.080808080808082,0.9595959595959602 3.181818181818183,0.9595959595959602 3.2828282828282833,0.9595959595959602 3.383838383838384,0.9595959595959602 3.4848484848484866,0.9595959595959602 3.5858585858585874,0.9595959595959602 3.6868686868686877,0.9595959595959602 3.7878787878787885,0.9595959595959602 3.8888888888888893,0.9595959595959602 3.989898989898992,0.9595959595959602 4.090909090909092,0.9595959595959602 4.191919191919193,0.9595959595959602 4.292929292929293,0.9595959595959602 4.393939393939394,0.9595959595959602 4.494949494949497,0.9595959595959602 4.595959595959597,0.9595959595959602 4.696969696969697,0.9595959595959602 4.7979797979797985,0.9595959595959602 4.898989898989901,0.9595959595959602 5.000000000000002,0.9595959595959602" data-type="line" data-label="" points="40.00000000000006,173.4949494949496 49.53535353535369,183.03030303030312 59.07070707070716,192.56565656565675 68.60606060606068,202.10101010101027 78.14141414141426,211.63636363636374 87.67676767676772,221.17171717171726 97.21212121212136,230.70707070707084 106.74747474747483,240.24242424242436 116.28282828282829,249.77777777777794 125.81818181818193,259.3131313131314 135.35353535353545,268.84848484848493 144.88888888888903,278.38383838383857 154.42424242424255,287.91919191919203 163.95959595959607,297.4545454545456 173.4949494949496,306.9898989898991 183.03030303030312,316.5252525252526 192.5656565656567,326.06060606060623 202.10101010101022,335.5959595959597 211.63636363636374,345.1313131313133 221.17171717171726,354.66666666666674 230.70707070707084,364.2020202020203 240.2424242424243,373.73737373737384 249.77777777777783,383.27272727272737 259.3131313131314,392.80808080808094 268.84848484848493,402.3434343434344 278.38383838383845,411.87878787878793 287.91919191919203,421.4141414141415 297.4545454545455,421.4141414141415 306.9898989898991,421.4141414141415 316.5252525252526,421.4141414141415 326.0606060606061,421.4141414141415 335.59595959595964,421.4141414141415 345.13131313131316,421.4141414141415 354.6666666666667,421.4141414141415 364.2020202020202,421.4141414141415 373.7373737373738,421.4141414141415 383.2727272727273,421.4141414141415 392.80808080808083,421.4141414141415 402.34343434343435,421.4141414141415 411.8787878787879,421.4141414141415 421.4141414141414,421.4141414141415 430.949494949495,421.4141414141415 440.4848484848485,421.4141414141415 450.0202020202021,421.4141414141415 459.55555555555554,421.4141414141415 469.09090909090907,421.4141414141415 478.62626262626264,421.4141414141415 488.16161616161617,421.4141414141415 497.69696969696975,421.4141414141415 507.2323232323232,421.4141414141415 516.7676767676768,421.4141414141415 526.3030303030303,421.4141414141415 535.8383838383838,421.4141414141415 545.3737373737374,421.4141414141415 554.9090909090909,421.4141414141415 564.4444444444445,421.4141414141415 573.9797979797979,421.4141414141415 583.5151515151515,421.4141414141415 593.0505050505051,421.4141414141415 602.5858585858585,421.4141414141415 612.1212121212121,421.4141414141415 621.6565656565656,421.4141414141415 631.1919191919192,421.4141414141415 640.7272727272727,421.4141414141415 650.2626262626262,421.4141414141415 659.7979797979798,421.4141414141415 669.3333333333333,421.4141414141415 678.8686868686868,421.4141414141415 688.4040404040404,421.4141414141415 697.9393939393939,421.4141414141415 707.4747474747475,421.4141414141415 717.0101010101009,421.4141414141415 726.5454545454545,421.4141414141415 736.0808080808081,421.4141414141415 745.6161616161615,421.4141414141415 755.1515151515151,421.4141414141415 764.6868686868686,421.4141414141415 774.2222222222222,421.4141414141415 783.7575757575758,421.4141414141415 793.2929292929292,421.4141414141415 802.8282828282828,421.4141414141415 812.3636363636363,421.4141414141415 821.8989898989898,421.4141414141415 831.4343434343433,421.4141414141415 840.969696969697,421.4141414141415 850.5050505050505,421.4141414141415 860.0404040404039,421.4141414141415 869.5757575757575,421.4141414141415 879.111111111111,421.4141414141415 888.6464646464647,421.4141414141415 898.181818181818,421.4141414141415 907.7171717171716,421.4141414141415 917.2525252525251,421.4141414141415 926.7878787878785,421.4141414141415 936.3232323232323,421.4141414141415 945.8585858585857,421.4141414141415 955.3939393939393,421.4141414141415 964.9292929292927,421.4141414141415 974.4646464646464,421.4141414141415 984,421.4141414141415" fill="none" stroke="rgba(255,0,0,0.75)" stroke-width="14.159999999999995"/></g><g><polyline data-points="-0.555555555555555,-5.000000000000001 -0.4545454545454544,-4.898989898989899 -0.35353535353535287,-4.7979797979797985 -0.2525252525252522,-4.696969696969697 -0.15151515151515066,-4.595959595959596 -0.05050505050505001,-4.494949494949496 0.050505050505051545,-4.393939393939394 0.1515151515151522,-4.292929292929293 0.1515151515151522,-4.191919191919193 0.1515151515151522,-4.090909090909091 0.1515151515151522,-3.98989898989899 0.1515151515151522,-3.8888888888888884 0.1515151515151522,-3.7878787878787876 0.1515151515151522,-3.6868686868686864 0.1515151515151522,-3.5858585858585856 0.1515151515151522,-3.484848484848485 0.1515151515151522,-3.383838383838383 0.1515151515151522,-3.2828282828282824 0.1515151515151522,-3.1818181818181817 0.1515151515151522,-3.0808080808080804 0.1515151515151522,-2.9797979797979792 0.1515151515151522,-2.8787878787878785 0.1515151515151522,-2.7777777777777777 0.1515151515151522,-2.6767676767676765 0.1515151515151522,-2.5757575757575752 0.1515151515151522,-2.474747474747474 0.1515151515151522,-2.3737373737373733 0.1515151515151522,-2.2727272727272725 0.1515151515151522,-2.1717171717171713 0.1515151515151522,-2.07070707070707 0.1515151515151522,-1.9696969696969693 0.1515151515151522,-1.8686868686868683 0.1515151515151522,-1.7676767676767675 0.1515151515151522,-1.6666666666666665 0.1515151515151522,-1.5656565656565653 0.1515151515151522,-1.4646464646464643 0.1515151515151522,-1.363636363636363 0.1515151515151522,-1.2626262626262625" data-type="line" data-label="" points="459.55555555555554,984 469.09090909090907,974.4646464646464 478.62626262626264,964.9292929292928 488.16161616161617,955.3939393939394 497.69696969696975,945.8585858585858 507.2323232323232,936.3232323232323 516.7676767676768,926.7878787878788 526.3030303030303,917.2525252525252 526.3030303030303,907.7171717171718 526.3030303030303,898.1818181818181 526.3030303030303,888.6464646464647 526.3030303030303,879.1111111111111 526.3030303030303,869.5757575757575 526.3030303030303,860.0404040404039 526.3030303030303,850.5050505050505 526.3030303030303,840.969696969697 526.3030303030303,831.4343434343434 526.3030303030303,821.8989898989898 526.3030303030303,812.3636363636363 526.3030303030303,802.8282828282828 526.3030303030303,793.2929292929292 526.3030303030303,783.7575757575758 526.3030303030303,774.2222222222222 526.3030303030303,764.6868686868687 526.3030303030303,755.1515151515151 526.3030303030303,745.6161616161615 526.3030303030303,736.0808080808081 526.3030303030303,726.5454545454545 526.3030303030303,717.010101010101 526.3030303030303,707.4747474747475 526.3030303030303,697.939393939394 526.3030303030303,688.4040404040404 526.3030303030303,678.8686868686868 526.3030303030303,669.3333333333334 526.3030303030303,659.7979797979798 526.3030303030303,650.2626262626263 526.3030303030303,640.7272727272727 526.3030303030303,631.1919191919193" fill="none" stroke="rgba(255,0,0,0.75)" stroke-width="14.159999999999995"/></g><g><polyline data-points="0.1515151515151522,-1.2626262626262625 0.2525252525252529,-1.1616161616161613 0.3535353535353544,-1.0606060606060603 0.4545454545454551,-0.9595959595959596 0.5555555555555567,-0.8585858585858579 0.6565656565656574,-0.7575757575757572 0.7575757575757579,-0.6565656565656557 0.8585858585858596,-0.555555555555555 0.9595959595959602,-0.4545454545454544 1.0606060606060617,-0.35353535353535287 1.1616161616161622,-0.2525252525252522 1.262626262626263,-0.15151515151515066 1.3636363636363644,-0.05050505050505001 1.4646464646464652,0.050505050505051545 1.5656565656565666,0.1515151515151522 1.6666666666666674,0.2525252525252529 1.767676767676768,0.3535353535353544 1.8686868686868696,0.4545454545454551 1.9696969696969702,0.5555555555555567 2.070707070707072,0.6565656565656574 2.1717171717171726,0.7575757575757579 2.2727272727272734,0.8585858585858596 2.373737373737375,0.9595959595959602 2.4747474747474754,1.0606060606060617 2.575757575757577,1.1616161616161622 2.676767676767678,1.262626262626263 2.7777777777777786,1.3636363636363644 2.87878787878788,1.4646464646464652 2.9797979797979806,1.5656565656565666" data-type="line" data-label="" points="526.3030303030303,631.1919191919193 535.8383838383838,621.6565656565657 545.3737373737374,612.1212121212121 554.9090909090909,602.5858585858587 564.4444444444445,593.0505050505051 573.9797979797979,583.5151515151516 583.5151515151515,573.979797979798 593.0505050505051,564.4444444444445 602.5858585858585,554.909090909091 612.1212121212121,545.3737373737374 621.6565656565656,535.838383838384 631.1919191919192,526.3030303030304 640.7272727272727,516.7676767676768 650.2626262626262,507.23232323232327 659.7979797979798,497.69696969696975 669.3333333333333,488.1616161616163 678.8686868686868,478.6262626262627 688.4040404040404,469.0909090909092 697.9393939393939,459.5555555555556 707.4747474747475,450.0202020202021 717.0101010101009,440.4848484848486 726.5454545454545,430.94949494949503 736.0808080808081,421.4141414141415 745.6161616161615,411.87878787878793 755.1515151515151,402.3434343434344 764.6868686868686,392.80808080808094 774.2222222222222,383.27272727272737 783.7575757575758,373.73737373737384 793.2929292929292,364.2020202020203" fill="none" stroke="rgba(0,0,255,0.75)" stroke-width="14.159999999999995"/></g><g><polyline data-points="2.9797979797979806,1.5656565656565666 2.87878787878788,1.6666666666666674 2.7777777777777786,1.767676767676768 2.676767676767678,1.8686868686868696 2.575757575757577,1.9696969696969702 2.4747474747474754,2.070707070707072 2.373737373737375,2.1717171717171726 2.2727272727272734,2.2727272727272734 2.1717171717171726,2.373737373737375 2.070707070707072,2.4747474747474754 1.9696969696969702,2.575757575757577 1.8686868686868696,2.676767676767678 1.767676767676768,2.7777777777777786 1.6666666666666674,2.87878787878788 1.5656565656565666,2.9797979797979806 1.4646464646464652,3.080808080808082 1.3636363636363644,3.181818181818183 1.262626262626263,3.2828282828282833 1.1616161616161622,3.383838383838384 1.0606060606060617,3.4848484848484866 0.9595959595959602,3.5858585858585874 0.8585858585858596,3.6868686868686877 0.7575757575757579,3.7878787878787885 0.6565656565656574,3.8888888888888893 0.5555555555555567,3.989898989898992 0.4545454545454551,4.090909090909092 0.3535353535353544,4.191919191919193 0.2525252525252529,4.292929292929293 0.1515151515151522,4.393939393939394 0.1515151515151522,4.494949494949497 0.1515151515151522,4.595959595959597 0.1515151515151522,4.696969696969697 0.1515151515151522,4.7979797979797985 0.1515151515151522,4.898989898989901 0.1515151515151522,5.000000000000002" data-type="line" data-label="" points="793.2929292929292,364.2020202020203 783.7575757575758,354.66666666666674 774.2222222222222,345.1313131313133 764.6868686868686,335.5959595959597 755.1515151515151,326.06060606060623 745.6161616161615,316.5252525252526 736.0808080808081,306.9898989898991 726.5454545454545,297.4545454545456 717.0101010101009,287.91919191919203 707.4747474747475,278.38383838383857 697.9393939393939,268.84848484848493 688.4040404040404,259.3131313131314 678.8686868686868,249.77777777777794 669.3333333333333,240.24242424242436 659.7979797979798,230.70707070707084 650.2626262626262,221.17171717171726 640.7272727272727,211.63636363636374 631.1919191919192,202.10101010101027 621.6565656565656,192.56565656565675 612.1212121212121,183.03030303030312 602.5858585858585,173.4949494949496 593.0505050505051,163.95959595959613 583.5151515151515,154.4242424242426 573.9797979797979,144.88888888888908 564.4444444444445,135.35353535353545 554.9090909090909,125.81818181818198 545.3737373737374,116.28282828282846 535.8383838383838,106.747474747475 526.3030303030303,97.21212121212153 526.3030303030303,87.67676767676778 526.3030303030303,78.14141414141432 526.3030303030303,68.60606060606085 526.3030303030303,59.07070707070733 526.3030303030303,49.53535353535369 526.3030303030303,40.000000000000114" fill="none" stroke="rgba(255,0,0,0.75)" stroke-width="14.159999999999995"/></g><g><polyline data-points="-5.000000000000001,-2.07070707070707 -4.898989898989899,-2.1717171717171713 -4.7979797979797985,-2.2727272727272725 -4.696969696969697,-2.3737373737373733 -4.595959595959596,-2.3737373737373733 -4.494949494949496,-2.3737373737373733 -4.393939393939394,-2.3737373737373733 -4.292929292929293,-2.3737373737373733 -4.191919191919193,-2.3737373737373733 -4.090909090909091,-2.3737373737373733 -3.98989898989899,-2.3737373737373733 -3.8888888888888884,-2.3737373737373733 -3.7878787878787876,-2.3737373737373733 -3.6868686868686864,-2.3737373737373733 -3.5858585858585856,-2.3737373737373733 -3.484848484848485,-2.3737373737373733 -3.383838383838383,-2.3737373737373733 -3.2828282828282824,-2.3737373737373733 -3.1818181818181817,-2.3737373737373733 -3.0808080808080804,-2.3737373737373733 -2.9797979797979792,-2.3737373737373733 -2.8787878787878785,-2.3737373737373733 -2.7777777777777777,-2.3737373737373733 -2.6767676767676765,-2.3737373737373733 -2.5757575757575752,-2.3737373737373733 -2.474747474747474,-2.3737373737373733 -2.3737373737373733,-2.3737373737373733 -2.2727272727272725,-2.3737373737373733 -2.1717171717171713,-2.3737373737373733 -2.07070707070707,-2.3737373737373733 -1.9696969696969693,-2.3737373737373733 -1.8686868686868683,-2.3737373737373733 -1.7676767676767675,-2.3737373737373733 -1.6666666666666665,-2.3737373737373733 -1.5656565656565653,-2.3737373737373733 -1.4646464646464643,-2.3737373737373733 -1.363636363636363,-2.3737373737373733 -1.2626262626262625,-2.3737373737373733 -1.1616161616161613,-2.3737373737373733 -1.0606060606060603,-2.3737373737373733 -0.9595959595959596,-2.3737373737373733 -0.8585858585858579,-2.3737373737373733 -0.7575757575757572,-2.3737373737373733 -0.6565656565656557,-2.3737373737373733 -0.555555555555555,-2.3737373737373733 -0.4545454545454544,-2.3737373737373733" data-type="line" data-label="" points="40.00000000000006,707.4747474747475 49.53535353535369,717.010101010101 59.07070707070716,726.5454545454545 68.60606060606068,736.0808080808081 78.14141414141426,736.0808080808081 87.67676767676772,736.0808080808081 97.21212121212136,736.0808080808081 106.74747474747483,736.0808080808081 116.28282828282829,736.0808080808081 125.81818181818193,736.0808080808081 135.35353535353545,736.0808080808081 144.88888888888903,736.0808080808081 154.42424242424255,736.0808080808081 163.95959595959607,736.0808080808081 173.4949494949496,736.0808080808081 183.03030303030312,736.0808080808081 192.5656565656567,736.0808080808081 202.10101010101022,736.0808080808081 211.63636363636374,736.0808080808081 221.17171717171726,736.0808080808081 230.70707070707084,736.0808080808081 240.2424242424243,736.0808080808081 249.77777777777783,736.0808080808081 259.3131313131314,736.0808080808081 268.84848484848493,736.0808080808081 278.38383838383845,736.0808080808081 287.91919191919203,736.0808080808081 297.4545454545455,736.0808080808081 306.9898989898991,736.0808080808081 316.5252525252526,736.0808080808081 326.0606060606061,736.0808080808081 335.59595959595964,736.0808080808081 345.13131313131316,736.0808080808081 354.6666666666667,736.0808080808081 364.2020202020202,736.0808080808081 373.7373737373738,736.0808080808081 383.2727272727273,736.0808080808081 392.80808080808083,736.0808080808081 402.34343434343435,736.0808080808081 411.8787878787879,736.0808080808081 421.4141414141414,736.0808080808081 430.949494949495,736.0808080808081 440.4848484848485,736.0808080808081 450.0202020202021,736.0808080808081 459.55555555555554,736.0808080808081 469.09090909090907,736.0808080808081" fill="none" stroke="rgba(255,0,0,0.75)" stroke-width="14.159999999999995"/></g><g><polyline data-points="-0.4545454545454544,-2.3737373737373733 -0.35353535353535287,-2.3737373737373733 -0.2525252525252522,-2.3737373737373733 -0.15151515151515066,-2.3737373737373733 -0.05050505050505001,-2.3737373737373733 0.050505050505051545,-2.3737373737373733 0.1515151515151522,-2.3737373737373733 0.2525252525252529,-2.3737373737373733 0.3535353535353544,-2.3737373737373733 0.4545454545454551,-2.3737373737373733 0.5555555555555567,-2.3737373737373733 0.6565656565656574,-2.3737373737373733 0.7575757575757579,-2.3737373737373733 0.8585858585858596,-2.3737373737373733 0.9595959595959602,-2.3737373737373733 1.0606060606060617,-2.3737373737373733 1.1616161616161622,-2.3737373737373733 1.262626262626263,-2.3737373737373733 1.3636363636363644,-2.3737373737373733 1.4646464646464652,-2.3737373737373733 1.5656565656565666,-2.3737373737373733 1.6666666666666674,-2.3737373737373733 1.767676767676768,-2.3737373737373733 1.8686868686868696,-2.3737373737373733 1.9696969696969702,-2.3737373737373733 2.070707070707072,-2.3737373737373733 2.1717171717171726,-2.3737373737373733 2.2727272727272734,-2.3737373737373733 2.373737373737375,-2.3737373737373733 2.4747474747474754,-2.3737373737373733 2.575757575757577,-2.3737373737373733 2.676767676767678,-2.3737373737373733 2.7777777777777786,-2.3737373737373733 2.87878787878788,-2.3737373737373733 2.9797979797979806,-2.3737373737373733 3.080808080808082,-2.3737373737373733 3.181818181818183,-2.3737373737373733 3.2828282828282833,-2.3737373737373733 3.383838383838384,-2.3737373737373733 3.4848484848484866,-2.3737373737373733 3.5858585858585874,-2.3737373737373733 3.6868686868686877,-2.3737373737373733 3.7878787878787885,-2.3737373737373733 3.8888888888888893,-2.3737373737373733 3.989898989898992,-2.3737373737373733" data-type="line" data-label="" points="469.09090909090907,736.0808080808081 478.62626262626264,736.0808080808081 488.16161616161617,736.0808080808081 497.69696969696975,736.0808080808081 507.2323232323232,736.0808080808081 516.7676767676768,736.0808080808081 526.3030303030303,736.0808080808081 535.8383838383838,736.0808080808081 545.3737373737374,736.0808080808081 554.9090909090909,736.0808080808081 564.4444444444445,736.0808080808081 573.9797979797979,736.0808080808081 583.5151515151515,736.0808080808081 593.0505050505051,736.0808080808081 602.5858585858585,736.0808080808081 612.1212121212121,736.0808080808081 621.6565656565656,736.0808080808081 631.1919191919192,736.0808080808081 640.7272727272727,736.0808080808081 650.2626262626262,736.0808080808081 659.7979797979798,736.0808080808081 669.3333333333333,736.0808080808081 678.8686868686868,736.0808080808081 688.4040404040404,736.0808080808081 697.9393939393939,736.0808080808081 707.4747474747475,736.0808080808081 717.0101010101009,736.0808080808081 726.5454545454545,736.0808080808081 736.0808080808081,736.0808080808081 745.6161616161615,736.0808080808081 755.1515151515151,736.0808080808081 764.6868686868686,736.0808080808081 774.2222222222222,736.0808080808081 783.7575757575758,736.0808080808081 793.2929292929292,736.0808080808081 802.8282828282828,736.0808080808081 812.3636363636363,736.0808080808081 821.8989898989898,736.0808080808081 831.4343434343433,736.0808080808081 840.969696969697,736.0808080808081 850.5050505050505,736.0808080808081 860.0404040404039,736.0808080808081 869.5757575757575,736.0808080808081 879.111111111111,736.0808080808081 888.6464646464647,736.0808080808081" fill="none" stroke="rgba(0,0,255,0.75)" stroke-width="14.159999999999995"/></g><g><polyline data-points="3.989898989898992,-2.3737373737373733 4.090909090909092,-2.3737373737373733 4.191919191919193,-2.3737373737373733 4.292929292929293,-2.3737373737373733 4.393939393939394,-2.3737373737373733 4.494949494949497,-2.3737373737373733 4.595959595959597,-2.3737373737373733 4.696969696969697,-2.3737373737373733 4.7979797979797985,-2.3737373737373733 4.898989898989901,-2.3737373737373733 5.000000000000002,-2.3737373737373733" data-type="line" data-label="" points="888.6464646464647,736.0808080808081 898.181818181818,736.0808080808081 907.7171717171716,736.0808080808081 917.2525252525251,736.0808080808081 926.7878787878785,736.0808080808081 936.3232323232323,736.0808080808081 945.8585858585857,736.0808080808081 955.3939393939393,736.0808080808081 964.9292929292927,736.0808080808081 974.4646464646464,736.0808080808081 984,736.0808080808081" fill="none" stroke="rgba(255,0,0,0.75)" stroke-width="14.159999999999995"/></g><g><polyline data-points="5.000000000000002,-4.393939393939394 4.898989898989901,-4.292929292929293 4.7979797979797985,-4.191919191919193 4.696969696969697,-4.090909090909091 4.595959595959597,-3.98989898989899 4.494949494949497,-3.8888888888888884 4.393939393939394,-3.7878787878787876 4.292929292929293,-3.6868686868686864 4.191919191919193,-3.5858585858585856 4.090909090909092,-3.484848484848485 3.989898989898992,-3.383838383838383" data-type="line" data-label="" points="984,926.7878787878788 974.4646464646464,917.2525252525252 964.9292929292927,907.7171717171718 955.3939393939393,898.1818181818181 945.8585858585857,888.6464646464647 936.3232323232323,879.1111111111111 926.7878787878785,869.5757575757575 917.2525252525251,860.0404040404039 907.7171717171716,850.5050505050505 898.181818181818,840.969696969697 888.6464646464647,831.4343434343434" fill="none" stroke="rgba(255,0,0,0.75)" stroke-width="14.159999999999995"/></g><g><polyline data-points="3.989898989898992,-3.383838383838383 4.090909090909092,-3.2828282828282824 4.191919191919193,-3.1818181818181817 4.292929292929293,-3.0808080808080804 4.393939393939394,-2.9797979797979792 4.494949494949497,-2.8787878787878785 4.595959595959597,-2.7777777777777777 4.696969696969697,-2.6767676767676765 4.7979797979797985,-2.5757575757575752 4.898989898989901,-2.474747474747474 5.000000000000002,-2.3737373737373733 5.000000000000002,-2.2727272727272725 5.000000000000002,-2.1717171717171713 5.000000000000002,-2.07070707070707 5.000000000000002,-1.9696969696969693 5.000000000000002,-1.8686868686868683 5.000000000000002,-1.7676767676767675 5.000000000000002,-1.6666666666666665 5.000000000000002,-1.5656565656565653 5.000000000000002,-1.4646464646464643 5.000000000000002,-1.363636363636363 5.000000000000002,-1.2626262626262625 5.000000000000002,-1.1616161616161613 5.000000000000002,-1.0606060606060603 5.000000000000002,-0.9595959595959596 5.000000000000002,-0.8585858585858579 5.000000000000002,-0.7575757575757572 5.000000000000002,-0.6565656565656557 5.000000000000002,-0.555555555555555 5.000000000000002,-0.4545454545454544 5.000000000000002,-0.35353535353535287 5.000000000000002,-0.2525252525252522 5.000000000000002,-0.15151515151515066 5.000000000000002,-0.05050505050505001 5.000000000000002,0.050505050505051545 5.000000000000002,0.1515151515151522 5.000000000000002,0.2525252525252529 5.000000000000002,0.3535353535353544 5.000000000000002,0.4545454545454551 5.000000000000002,0.5555555555555567 5.000000000000002,0.6565656565656574 5.000000000000002,0.7575757575757579 5.000000000000002,0.8585858585858596 5.000000000000002,0.9595959595959602 5.000000000000002,1.0606060606060617 5.000000000000002,1.1616161616161622 5.000000000000002,1.262626262626263 5.000000000000002,1.3636363636363644 5.000000000000002,1.4646464646464652 5.000000000000002,1.5656565656565666 5.000000000000002,1.6666666666666674 5.000000000000002,1.767676767676768 5.000000000000002,1.8686868686868696 5.000000000000002,1.9696969696969702 5.000000000000002,2.070707070707072 5.000000000000002,2.1717171717171726 5.000000000000002,2.2727272727272734 5.000000000000002,2.373737373737375 5.000000000000002,2.4747474747474754 5.000000000000002,2.575757575757577 5.000000000000002,2.676767676767678 5.000000000000002,2.7777777777777786 5.000000000000002,2.87878787878788 5.000000000000002,2.9797979797979806 5.000000000000002,3.080808080808082 5.000000000000002,3.181818181818183 5.000000000000002,3.2828282828282833 5.000000000000002,3.383838383838384 5.000000000000002,3.4848484848484866 5.000000000000002,3.5858585858585874 5.000000000000002,3.6868686868686877" data-type="line" data-label="" points="888.6464646464647,831.4343434343434 898.181818181818,821.8989898989898 907.7171717171716,812.3636363636363 917.2525252525251,802.8282828282828 926.7878787878785,793.2929292929292 936.3232323232323,783.7575757575758 945.8585858585857,774.2222222222222 955.3939393939393,764.6868686868687 964.9292929292927,755.1515151515151 974.4646464646464,745.6161616161615 984,736.0808080808081 984,726.5454545454545 984,717.010101010101 984,707.4747474747475 984,697.939393939394 984,688.4040404040404 984,678.8686868686868 984,669.3333333333334 984,659.7979797979798 984,650.2626262626263 984,640.7272727272727 984,631.1919191919193 984,621.6565656565657 984,612.1212121212121 984,602.5858585858587 984,593.0505050505051 984,583.5151515151516 984,573.979797979798 984,564.4444444444445 984,554.909090909091 984,545.3737373737374 984,535.838383838384 984,526.3030303030304 984,516.7676767676768 984,507.23232323232327 984,497.69696969696975 984,488.1616161616163 984,478.6262626262627 984,469.0909090909092 984,459.5555555555556 984,450.0202020202021 984,440.4848484848486 984,430.94949494949503 984,421.4141414141415 984,411.87878787878793 984,402.3434343434344 984,392.80808080808094 984,383.27272727272737 984,373.73737373737384 984,364.2020202020203 984,354.66666666666674 984,345.1313131313133 984,335.5959595959597 984,326.06060606060623 984,316.5252525252526 984,306.9898989898991 984,297.4545454545456 984,287.91919191919203 984,278.38383838383857 984,268.84848484848493 984,259.3131313131314 984,249.77777777777794 984,240.24242424242436 984,230.70707070707084 984,221.17171717171726 984,211.63636363636374 984,202.10101010101027 984,192.56565656565675 984,183.03030303030312 984,173.4949494949496 984,163.95959595959613" fill="none" stroke="rgba(0,0,255,0.75)" stroke-width="14.159999999999995"/></g><g><polyline data-points="-5.000000000000001,1.5656565656565666 -5.000000000000001,1.4646464646464652 -5.000000000000001,1.3636363636363644 -5.000000000000001,1.262626262626263 -5.000000000000001,1.1616161616161622 -5.000000000000001,1.0606060606060617 -5.000000000000001,0.9595959595959602 -5.000000000000001,0.8585858585858596 -5.000000000000001,0.7575757575757579 -5.000000000000001,0.6565656565656574 -4.898989898989899,0.5555555555555567 -4.7979797979797985,0.4545454545454551 -4.696969696969697,0.3535353535353544 -4.595959595959596,0.2525252525252529 -4.494949494949496,0.1515151515151522 -4.393939393939394,0.050505050505051545 -4.292929292929293,-0.05050505050505001 -4.191919191919193,-0.15151515151515066 -4.090909090909091,-0.2525252525252522 -3.98989898989899,-0.35353535353535287" data-type="line" data-label="" points="40.00000000000006,364.2020202020203 40.00000000000006,373.73737373737384 40.00000000000006,383.27272727272737 40.00000000000006,392.80808080808094 40.00000000000006,402.3434343434344 40.00000000000006,411.87878787878793 40.00000000000006,421.4141414141415 40.00000000000006,430.94949494949503 40.00000000000006,440.4848484848486 40.00000000000006,450.0202020202021 49.53535353535369,459.5555555555556 59.07070707070716,469.0909090909092 68.60606060606068,478.6262626262627 78.14141414141426,488.1616161616163 87.67676767676772,497.69696969696975 97.21212121212136,507.23232323232327 106.74747474747483,516.7676767676768 116.28282828282829,526.3030303030304 125.81818181818193,535.838383838384 135.35353535353545,545.3737373737374" fill="none" stroke="rgba(255,0,0,0.75)" stroke-width="14.159999999999995"/></g><g><polyline data-points="-3.98989898989899,-0.35353535353535287 -4.090909090909091,-0.4545454545454544 -4.191919191919193,-0.555555555555555 -4.292929292929293,-0.6565656565656557 -4.393939393939394,-0.7575757575757572 -4.494949494949496,-0.8585858585858579 -4.595959595959596,-0.9595959595959596 -4.696969696969697,-1.0606060606060603 -4.7979797979797985,-1.1616161616161613 -4.898989898989899,-1.2626262626262625 -5.000000000000001,-1.363636363636363" data-type="line" data-label="" points="135.35353535353545,545.3737373737374 125.81818181818193,554.909090909091 116.28282828282829,564.4444444444445 106.74747474747483,573.979797979798 97.21212121212136,583.5151515151516 87.67676767676772,593.0505050505051 78.14141414141426,602.5858585858587 68.60606060606068,612.1212121212121 59.07070707070716,621.6565656565657 49.53535353535369,631.1919191919193 40.00000000000006,640.7272727272727" fill="none" stroke="rgba(0,0,255,0.75)" stroke-width="14.159999999999995"/></g><g><polyline data-points="3.4848484848484866,5.000000000000002 3.5858585858585874,5.000000000000002 3.6868686868686877,5.000000000000002 3.7878787878787885,5.000000000000002 3.8888888888888893,5.000000000000002 3.989898989898992,5.000000000000002 4.090909090909092,5.000000000000002 4.191919191919193,5.000000000000002" data-type="line" data-label="" points="840.969696969697,40.000000000000114 850.5050505050505,40.000000000000114 860.0404040404039,40.000000000000114 869.5757575757575,40.000000000000114 879.111111111111,40.000000000000114 888.6464646464647,40.000000000000114 898.181818181818,40.000000000000114 907.7171717171716,40.000000000000114" fill="none" stroke="rgba(255,0,0,0.75)" stroke-width="14.159999999999995"/></g><g><polyline data-points="0.050505050505051545,-5.000000000000001 0.050505050505051545,-4.898989898989899 0.050505050505051545,-4.7979797979797985 0.050505050505051545,-4.696969696969697 0.1515151515151522,-4.595959595959596 0.2525252525252529,-4.494949494949496 0.3535353535353544,-4.393939393939394 0.3535353535353544,-4.292929292929293 0.3535353535353544,-4.191919191919193 0.3535353535353544,-4.090909090909091 0.3535353535353544,-3.98989898989899 0.3535353535353544,-3.8888888888888884 0.3535353535353544,-3.7878787878787876 0.3535353535353544,-3.6868686868686864 0.3535353535353544,-3.5858585858585856 0.3535353535353544,-3.484848484848485 0.3535353535353544,-3.383838383838383 0.3535353535353544,-3.2828282828282824 0.3535353535353544,-3.1818181818181817 0.3535353535353544,-3.0808080808080804 0.3535353535353544,-2.9797979797979792 0.3535353535353544,-2.8787878787878785 0.3535353535353544,-2.7777777777777777 0.3535353535353544,-2.6767676767676765 0.3535353535353544,-2.5757575757575752 0.3535353535353544,-2.474747474747474 0.3535353535353544,-2.3737373737373733 0.3535353535353544,-2.2727272727272725 0.3535353535353544,-2.1717171717171713 0.3535353535353544,-2.07070707070707 0.3535353535353544,-1.9696969696969693 0.3535353535353544,-1.8686868686868683 0.3535353535353544,-1.7676767676767675 0.3535353535353544,-1.6666666666666665 0.4545454545454551,-1.5656565656565653 0.5555555555555567,-1.4646464646464643 0.5555555555555567,-1.363636363636363 0.6565656565656574,-1.2626262626262625 0.5555555555555567,-1.1616161616161613 0.5555555555555567,-1.0606060606060603 0.4545454545454551,-0.9595959595959596 0.3535353535353544,-0.8585858585858579 0.2525252525252529,-0.7575757575757572 0.1515151515151522,-0.6565656565656557 0.050505050505051545,-0.555555555555555 -0.05050505050505001,-0.4545454545454544 -0.15151515151515066,-0.35353535353535287 -0.2525252525252522,-0.2525252525252522 -0.35353535353535287,-0.15151515151515066 -0.4545454545454544,-0.05050505050505001 -0.555555555555555,0.050505050505051545 -0.6565656565656557,0.1515151515151522 -0.7575757575757572,0.2525252525252529 -0.8585858585858579,0.3535353535353544 -0.9595959595959596,0.4545454545454551 -1.0606060606060603,0.5555555555555567 -1.1616161616161613,0.6565656565656574 -1.2626262626262625,0.7575757575757579 -1.363636363636363,0.7575757575757579 -1.4646464646464643,0.7575757575757579 -1.5656565656565653,0.7575757575757579 -1.6666666666666665,0.7575757575757579 -1.7676767676767675,0.7575757575757579 -1.8686868686868683,0.7575757575757579 -1.9696969696969693,0.7575757575757579 -2.07070707070707,0.7575757575757579 -2.1717171717171713,0.7575757575757579 -2.2727272727272725,0.7575757575757579 -2.3737373737373733,0.7575757575757579 -2.474747474747474,0.7575757575757579 -2.5757575757575752,0.8585858585858596 -2.6767676767676765,0.9595959595959602 -2.7777777777777777,1.0606060606060617 -2.8787878787878785,1.1616161616161622 -2.9797979797979792,1.262626262626263 -3.0808080808080804,1.3636363636363644 -3.1818181818181817,1.4646464646464652 -3.2828282828282824,1.5656565656565666 -3.383838383838383,1.6666666666666674 -3.484848484848485,1.767676767676768 -3.5858585858585856,1.767676767676768 -3.6868686868686864,1.767676767676768 -3.7878787878787876,1.767676767676768 -3.8888888888888884,1.767676767676768 -3.98989898989899,1.767676767676768" data-type="line" data-label="" points="516.7676767676768,984 516.7676767676768,974.4646464646464 516.7676767676768,964.9292929292928 516.7676767676768,955.3939393939394 526.3030303030303,945.8585858585858 535.8383838383838,936.3232323232323 545.3737373737374,926.7878787878788 545.3737373737374,917.2525252525252 545.3737373737374,907.7171717171718 545.3737373737374,898.1818181818181 545.3737373737374,888.6464646464647 545.3737373737374,879.1111111111111 545.3737373737374,869.5757575757575 545.3737373737374,860.0404040404039 545.3737373737374,850.5050505050505 545.3737373737374,840.969696969697 545.3737373737374,831.4343434343434 545.3737373737374,821.8989898989898 545.3737373737374,812.3636363636363 545.3737373737374,802.8282828282828 545.3737373737374,793.2929292929292 545.3737373737374,783.7575757575758 545.3737373737374,774.2222222222222 545.3737373737374,764.6868686868687 545.3737373737374,755.1515151515151 545.3737373737374,745.6161616161615 545.3737373737374,736.0808080808081 545.3737373737374,726.5454545454545 545.3737373737374,717.010101010101 545.3737373737374,707.4747474747475 545.3737373737374,697.939393939394 545.3737373737374,688.4040404040404 545.3737373737374,678.8686868686868 545.3737373737374,669.3333333333334 554.9090909090909,659.7979797979798 564.4444444444445,650.2626262626263 564.4444444444445,640.7272727272727 573.9797979797979,631.1919191919193 564.4444444444445,621.6565656565657 564.4444444444445,612.1212121212121 554.9090909090909,602.5858585858587 545.3737373737374,593.0505050505051 535.8383838383838,583.5151515151516 526.3030303030303,573.979797979798 516.7676767676768,564.4444444444445 507.2323232323232,554.909090909091 497.69696969696975,545.3737373737374 488.16161616161617,535.838383838384 478.62626262626264,526.3030303030304 469.09090909090907,516.7676767676768 459.55555555555554,507.23232323232327 450.0202020202021,497.69696969696975 440.4848484848485,488.1616161616163 430.949494949495,478.6262626262627 421.4141414141414,469.0909090909092 411.8787878787879,459.5555555555556 402.34343434343435,450.0202020202021 392.80808080808083,440.4848484848486 383.2727272727273,440.4848484848486 373.7373737373738,440.4848484848486 364.2020202020202,440.4848484848486 354.6666666666667,440.4848484848486 345.13131313131316,440.4848484848486 335.59595959595964,440.4848484848486 326.0606060606061,440.4848484848486 316.5252525252526,440.4848484848486 306.9898989898991,440.4848484848486 297.4545454545455,440.4848484848486 287.91919191919203,440.4848484848486 278.38383838383845,440.4848484848486 268.84848484848493,430.94949494949503 259.3131313131314,421.4141414141415 249.77777777777783,411.87878787878793 240.2424242424243,402.3434343434344 230.70707070707084,392.80808080808094 221.17171717171726,383.27272727272737 211.63636363636374,373.73737373737384 202.10101010101022,364.2020202020203 192.5656565656567,354.66666666666674 183.03030303030312,345.1313131313133 173.4949494949496,345.1313131313133 163.95959595959607,345.1313131313133 154.42424242424255,345.1313131313133 144.88888888888903,345.1313131313133 135.35353535353545,345.1313131313133" fill="none" stroke="rgba(255,0,0,0.75)" stroke-width="14.159999999999995"/></g><g><polyline data-points="-3.98989898989899,1.767676767676768 -3.98989898989899,1.8686868686868696 -3.98989898989899,1.9696969696969702 -3.98989898989899,2.070707070707072 -3.98989898989899,2.1717171717171726 -3.98989898989899,2.2727272727272734 -3.98989898989899,2.373737373737375 -3.98989898989899,2.4747474747474754 -3.98989898989899,2.575757575757577 -3.98989898989899,2.676767676767678 -3.98989898989899,2.7777777777777786 -3.98989898989899,2.87878787878788 -3.98989898989899,2.9797979797979806 -3.98989898989899,3.080808080808082 -3.98989898989899,3.181818181818183 -3.98989898989899,3.2828282828282833 -3.98989898989899,3.383838383838384 -3.98989898989899,3.4848484848484866 -3.98989898989899,3.5858585858585874" data-type="line" data-label="" points="135.35353535353545,345.1313131313133 135.35353535353545,335.5959595959597 135.35353535353545,326.06060606060623 135.35353535353545,316.5252525252526 135.35353535353545,306.9898989898991 135.35353535353545,297.4545454545456 135.35353535353545,287.91919191919203 135.35353535353545,278.38383838383857 135.35353535353545,268.84848484848493 135.35353535353545,259.3131313131314 135.35353535353545,249.77777777777794 135.35353535353545,240.24242424242436 135.35353535353545,230.70707070707084 135.35353535353545,221.17171717171726 135.35353535353545,211.63636363636374 135.35353535353545,202.10101010101027 135.35353535353545,192.56565656565675 135.35353535353545,183.03030303030312 135.35353535353545,173.4949494949496" fill="none" stroke="rgba(0,0,255,0.75)" stroke-width="14.159999999999995"/></g><g><polyline data-points="-3.98989898989899,3.5858585858585874 -4.090909090909091,3.6868686868686877 -4.191919191919193,3.7878787878787885 -4.292929292929293,3.8888888888888893 -4.292929292929293,3.989898989898992 -4.292929292929293,4.090909090909092 -4.292929292929293,4.191919191919193 -4.292929292929293,4.292929292929293 -4.292929292929293,4.393939393939394 -4.292929292929293,4.494949494949497 -4.292929292929293,4.595959595959597 -4.292929292929293,4.696969696969697 -4.292929292929293,4.7979797979797985 -4.292929292929293,4.898989898989901 -4.292929292929293,5.000000000000002" data-type="line" data-label="" points="135.35353535353545,173.4949494949496 125.81818181818193,163.95959595959613 116.28282828282829,154.4242424242426 106.74747474747483,144.88888888888908 106.74747474747483,135.35353535353545 106.74747474747483,125.81818181818198 106.74747474747483,116.28282828282846 106.74747474747483,106.747474747475 106.74747474747483,97.21212121212153 106.74747474747483,87.67676767676778 106.74747474747483,78.14141414141432 106.74747474747483,68.60606060606085 106.74747474747483,59.07070707070733 106.74747474747483,49.53535353535369 106.74747474747483,40.000000000000114" fill="none" stroke="rgba(255,0,0,0.75)" stroke-width="14.159999999999995"/></g><g><polyline data-points="2.373737373737375,-5.000000000000001 2.4747474747474754,-5.000000000000001 2.575757575757577,-4.898989898989899 2.676767676767678,-4.7979797979797985 2.7777777777777786,-4.696969696969697 2.87878787878788,-4.595959595959596 2.9797979797979806,-4.494949494949496 3.080808080808082,-4.393939393939394 3.181818181818183,-4.292929292929293 3.2828282828282833,-4.191919191919193 3.383838383838384,-4.090909090909091 3.4848484848484866,-3.98989898989899 3.383838383838384,-3.8888888888888884 3.383838383838384,-3.7878787878787876 3.383838383838384,-3.6868686868686864 3.383838383838384,-3.5858585858585856 3.383838383838384,-3.484848484848485 3.383838383838384,-3.383838383838383 3.383838383838384,-3.2828282828282824 3.383838383838384,-3.1818181818181817 3.383838383838384,-3.0808080808080804 3.383838383838384,-2.9797979797979792 3.383838383838384,-2.8787878787878785 3.383838383838384,-2.7777777777777777 3.383838383838384,-2.6767676767676765 3.383838383838384,-2.5757575757575752 3.383838383838384,-2.474747474747474 3.383838383838384,-2.3737373737373733 3.4848484848484866,-2.2727272727272725 3.4848484848484866,-2.1717171717171713 3.5858585858585874,-2.07070707070707 3.6868686868686877,-1.9696969696969693 3.7878787878787885,-1.8686868686868683 3.8888888888888893,-1.7676767676767675 3.8888888888888893,-1.6666666666666665 3.8888888888888893,-1.5656565656565653 3.8888888888888893,-1.4646464646464643 3.8888888888888893,-1.363636363636363 3.8888888888888893,-1.2626262626262625 3.8888888888888893,-1.1616161616161613 3.8888888888888893,-1.0606060606060603 3.8888888888888893,-0.9595959595959596 3.8888888888888893,-0.8585858585858579 3.8888888888888893,-0.7575757575757572 3.8888888888888893,-0.6565656565656557 3.8888888888888893,-0.555555555555555 3.8888888888888893,-0.4545454545454544 3.8888888888888893,-0.35353535353535287 3.8888888888888893,-0.2525252525252522 3.8888888888888893,-0.15151515151515066 3.8888888888888893,-0.05050505050505001 3.8888888888888893,0.050505050505051545 3.8888888888888893,0.1515151515151522 3.8888888888888893,0.2525252525252529 3.8888888888888893,0.3535353535353544" data-type="line" data-label="" points="736.0808080808081,984 745.6161616161615,984 755.1515151515151,974.4646464646464 764.6868686868686,964.9292929292928 774.2222222222222,955.3939393939394 783.7575757575758,945.8585858585858 793.2929292929292,936.3232323232323 802.8282828282828,926.7878787878788 812.3636363636363,917.2525252525252 821.8989898989898,907.7171717171718 831.4343434343433,898.1818181818181 840.969696969697,888.6464646464647 831.4343434343433,879.1111111111111 831.4343434343433,869.5757575757575 831.4343434343433,860.0404040404039 831.4343434343433,850.5050505050505 831.4343434343433,840.969696969697 831.4343434343433,831.4343434343434 831.4343434343433,821.8989898989898 831.4343434343433,812.3636363636363 831.4343434343433,802.8282828282828 831.4343434343433,793.2929292929292 831.4343434343433,783.7575757575758 831.4343434343433,774.2222222222222 831.4343434343433,764.6868686868687 831.4343434343433,755.1515151515151 831.4343434343433,745.6161616161615 831.4343434343433,736.0808080808081 840.969696969697,726.5454545454545 840.969696969697,717.010101010101 850.5050505050505,707.4747474747475 860.0404040404039,697.939393939394 869.5757575757575,688.4040404040404 879.111111111111,678.8686868686868 879.111111111111,669.3333333333334 879.111111111111,659.7979797979798 879.111111111111,650.2626262626263 879.111111111111,640.7272727272727 879.111111111111,631.1919191919193 879.111111111111,621.6565656565657 879.111111111111,612.1212121212121 879.111111111111,602.5858585858587 879.111111111111,593.0505050505051 879.111111111111,583.5151515151516 879.111111111111,573.979797979798 879.111111111111,564.4444444444445 879.111111111111,554.909090909091 879.111111111111,545.3737373737374 879.111111111111,535.838383838384 879.111111111111,526.3030303030304 879.111111111111,516.7676767676768 879.111111111111,507.23232323232327 879.111111111111,497.69696969696975 879.111111111111,488.1616161616163 879.111111111111,478.6262626262627" fill="none" stroke="rgba(255,0,0,0.75)" stroke-width="14.159999999999995"/></g><g><polyline data-points="3.8888888888888893,0.3535353535353544 3.8888888888888893,0.4545454545454551 3.8888888888888893,0.5555555555555567 3.8888888888888893,0.6565656565656574 3.8888888888888893,0.7575757575757579 3.8888888888888893,0.8585858585858596 3.8888888888888893,0.9595959595959602 3.8888888888888893,1.0606060606060617 3.8888888888888893,1.1616161616161622 3.8888888888888893,1.262626262626263 3.8888888888888893,1.3636363636363644 3.8888888888888893,1.4646464646464652 3.8888888888888893,1.5656565656565666 3.989898989898992,1.6666666666666674" data-type="line" data-label="" points="879.111111111111,478.6262626262627 879.111111111111,469.0909090909092 879.111111111111,459.5555555555556 879.111111111111,450.0202020202021 879.111111111111,440.4848484848486 879.111111111111,430.94949494949503 879.111111111111,421.4141414141415 879.111111111111,411.87878787878793 879.111111111111,402.3434343434344 879.111111111111,392.80808080808094 879.111111111111,383.27272727272737 879.111111111111,373.73737373737384 879.111111111111,364.2020202020203 888.6464646464647,354.66666666666674" fill="none" stroke="rgba(0,0,255,0.75)" stroke-width="14.159999999999995"/></g><g><polyline data-points="3.989898989898992,1.6666666666666674 4.090909090909092,1.767676767676768 4.191919191919193,1.8686868686868696 4.292929292929293,1.767676767676768 4.393939393939394,1.767676767676768 4.494949494949497,1.767676767676768 4.595959595959597,1.767676767676768 4.696969696969697,1.767676767676768 4.7979797979797985,1.767676767676768 4.898989898989901,1.767676767676768 5.000000000000002,1.8686868686868696" data-type="line" data-label="" points="888.6464646464647,354.66666666666674 898.181818181818,345.1313131313133 907.7171717171716,335.5959595959597 917.2525252525251,345.1313131313133 926.7878787878785,345.1313131313133 936.3232323232323,345.1313131313133 945.8585858585857,345.1313131313133 955.3939393939393,345.1313131313133 964.9292929292927,345.1313131313133 974.4646464646464,345.1313131313133 984,335.5959595959597" fill="none" stroke="rgba(255,0,0,0.75)" stroke-width="14.159999999999995"/></g><g><rect data-type="rect" data-label="" data-x="0" data-y="0" x="40.000000000000114" y="40.000000000000284" width="943.9999999999997" height="943.9999999999998" fill="none" stroke="gray" stroke-width="0.010593220338983056"/></g><g><rect data-type="rect" data-label="" data-x="0" data-y="0" x="40.000000000000114" y="40.000000000000284" width="943.9999999999997" height="943.9999999999998" fill="none" stroke="rgba(15, 23, 42, 0.8)" stroke-width="0.010593220338983056"/></g><circle data-type="circle" data-label="" data-x="0.1515151515151522" data-y="-1.2626262626262625" cx="526.3030303030303" cy="631.1919191919193" r="28.791999999999987" fill="rgba(0,0,0,0.3)" stroke="black" stroke-width="0.010593220338983056"/><circle data-type="circle" data-label="" data-x="2.9797979797979806" data-y="1.5656565656565666" cx="793.2929292929292" cy="364.2020202020203" r="28.791999999999987" fill="rgba(0,0,0,0.3)" stroke="black" stroke-width="0.010593220338983056"/><circle data-type="circle" data-label="" data-x="-0.4545454545454544" data-y="-2.3737373737373733" cx="469.09090909090907" cy="736.0808080808081" r="28.791999999999987" fill="rgba(0,0,0,0.3)" stroke="black" stroke-width="0.010593220338983056"/><circle data-type="circle" data-label="" data-x="3.989898989898992" data-y="-2.3737373737373733" cx="888.6464646464647" cy="736.0808080808081" r="28.791999999999987" fill="rgba(0,0,0,0.3)" stroke="black" stroke-width="0.010593220338983056"/><circle data-type="circle" data-label="" data-x="3.989898989898992" data-y="-3.383838383838383" cx="888.6464646464647" cy="831.4343434343434" r="28.791999999999987" fill="rgba(0,0,0,0.3)" stroke="black" stroke-width="0.010593220338983056"/><circle data-type="circle" data-label="" data-x="-3.98989898989899" data-y="-0.35353535353535287" cx="135.35353535353545" cy="545.3737373737374" r="28.791999999999987" fill="rgba(0,0,0,0.3)" stroke="black" stroke-width="0.010593220338983056"/><circle data-type="circle" data-label="" data-x="-3.98989898989899" data-y="1.767676767676768" cx="135.35353535353545" cy="345.1313131313133" r="28.791999999999987" fill="rgba(0,0,0,0.3)" stroke="black" stroke-width="0.010593220338983056"/><circle data-type="circle" data-label="" data-x="-3.98989898989899" data-y="3.5858585858585874" cx="135.35353535353545" cy="173.4949494949496" r="28.791999999999987" fill="rgba(0,0,0,0.3)" stroke="black" stroke-width="0.010593220338983056"/><circle data-type="circle" data-label="" data-x="3.8888888888888893" data-y="0.3535353535353544" cx="879.111111111111" cy="478.6262626262627" r="28.791999999999987" fill="rgba(0,0,0,0.3)" stroke="black" stroke-width="0.010593220338983056"/><circle data-type="circle" data-label="" data-x="3.989898989898992" data-y="1.6666666666666674" cx="888.6464646464647" cy="354.66666666666674" r="28.791999999999987" fill="rgba(0,0,0,0.3)" stroke="black" stroke-width="0.010593220338983056"/><g id="crosshair" style="display: none"><line id="crosshair-h" y1="0" y2="1024" stroke="#666" stroke-width="0.5"/><line id="crosshair-v" x1="0" x2="1024" stroke="#666" stroke-width="0.5"/><text id="coordinates" font-family="monospace" font-size="12" fill="#666"></text></g><script><![CDATA[
              document.currentScript.parentElement.addEventListener('mousemove', (e) => {
                const svg = e.currentTarget;
                const rect = svg.getBoundingClientRect();
                const x = e.clientX - rect.left;
                const y = e.clientY - rect.top;
                const crosshair = svg.getElementById('crosshair');
                const h = svg.getElementById('crosshair-h');
                const v = svg.getElementById('crosshair-v');
                const coords = svg.getElementById('coordinates');
                
                crosshair.style.display = 'block';
                h.setAttribute('x1', '0');
                h.setAttribute('x2', '1024');
                h.setAttribute('y1', y);
                h.setAttribute('y2', y);
                v.setAttribute('x1', x);
                v.setAttribute('x2', x);
                v.setAttribute('y1', '0');
                v.setAttribute('y2', '1024');

                // Calculate real coordinates using inverse transformation
                const matrix = {"a":94.39999999999996,"c":0,"e":511.99999999999994,"b":0,"d":-94.39999999999996,"f":512.0000000000001};
                // Manually invert and apply the affine transform
                // Since we only use translate and scale, we can directly compute:
                // x' = (x - tx) / sx
                // y' = (y - ty) / sy
                const sx = matrix.a;
                const sy = matrix.d;
                const tx = matrix.e; 
                const ty = matrix.f;
                const realPoint = {
                  x: (x - tx) / sx,
                  y: (y - ty) / sy // Flip y back since we used negative scale
                }
                
                coords.textContent = `(${realPoint.x.toFixed(2)}, ${realPoint.y.toFixed(2)})`;
                coords.setAttribute('x', (x + 5).toString());
                coords.setAttribute('y', (y - 5).toString());
              });
              document.currentScript.parentElement.addEventListener('mouseleave', () => {
                document.currentScript.parentElement.getElementById('crosshair').style.display = 'none';
              });
            ]]></script></svg>