<svg width="1024" height="1024" viewBox="0 0 1024 1024" xmlns="http://www.w3.org/2000/svg"><rect width="100%" height="100%" fill="white"/><g><circle data-type="point" data-label="conn_000" data-x="1.24" data-y="5" cx="629.0559999999999" cy="40.000000000000284" r="28.792" fill="red" stroke="#0fa0bd" stroke-width="28.792"/></g><g><circle data-type="point" data-label="conn_000" data-x="3.72" data-y="-5" cx="863.1679999999999" cy="984" r="28.792" fill="blue" stroke="#0fa0bd" stroke-width="28.792"/></g><g><circle data-type="point" data-label="conn_001" data-x="-5" data-y="2.64" cx="40.000000000000114" cy="262.7840000000002" r="28.792" fill="blue" stroke="#bd0f6d" stroke-width="28.792"/></g><g><circle data-type="point" data-label="conn_001" data-x="5" data-y="3.64" cx="983.9999999999998" cy="168.38400000000024" r="28.792" fill="blue" stroke="#bd0f6d" stroke-width="28.792"/></g><g><circle data-type="point" data-label="conn_002" data-x="-5" data-y="4.36" cx="40.000000000000114" cy="100.41600000000022" r="28.792" fill="blue" stroke="#3bbd0f" stroke-width="28.792"/></g><g><circle data-type="point" data-label="conn_002" data-x="5" data-y="-4.0600000000000005" cx="983.9999999999998" cy="895.264" r="28.792" fill="red" stroke="#3bbd0f" stroke-width="28.792"/></g><g><circle data-type="point" data-label="conn_003" data-x="-0.72" data-y="5" cx="444.032" cy="40.000000000000284" r="28.792" fill="red" stroke="#170fbd" stroke-width="28.792"/></g><g><circle data-type="point" data-label="conn_003" data-x="-4.76" data-y="-5" cx="62.65600000000012" cy="984" r="28.792" fill="red" stroke="#170fbd" stroke-width="28.792"/></g><g><circle data-type="point" data-label="conn_004" data-x="-1.62" data-y="5" cx="359.072" cy="40.000000000000284" r="28.792" fill="red" stroke="#bd490f" stroke-width="28.792"/></g><g><circle data-type="point" data-label="conn_004" data-x="1.26" data-y="-5" cx="630.944" cy="984" r="28.792" fill="red" stroke="#bd490f" stroke-width="28.792"/></g><g><circle data-type="point" data-label="conn_005" data-x="-5" data-y="-2.86" cx="40.000000000000114" cy="781.9839999999999" r="28.792" fill="blue" stroke="#0fbd7c" stroke-width="28.792"/></g><g><circle data-type="point" data-label="conn_005" data-x="5" data-y="1.6" cx="983.9999999999998" cy="360.96000000000015" r="28.792" fill="red" stroke="#0fbd7c" stroke-width="28.792"/></g><g><circle data-type="point" data-label="conn_006" data-x="-2.52" data-y="5" cx="274.112" cy="40.000000000000284" r="28.792" fill="blue" stroke="#ae0fbd" stroke-width="28.792"/></g><g><circle data-type="point" data-label="conn_006" data-x="-3.3000000000000003" data-y="5" cx="200.48000000000002" cy="40.000000000000284" r="28.792" fill="blue" stroke="#ae0fbd" stroke-width="28.792"/></g><g><polyline data-points="-0.7575757575757572,5.000000000000002 -0.8585858585858579,4.898989898989901 -0.9595959595959596,4.7979797979797985 -1.0606060606060603,4.696969696969697 -1.1616161616161613,4.595959595959597 -1.2626262626262625,4.494949494949497 -1.363636363636363,4.393939393939394 -1.4646464646464643,4.292929292929293 -1.5656565656565653,4.191919191919193 -1.6666666666666665,4.090909090909092 -1.7676767676767675,3.989898989898992 -1.8686868686868683,3.8888888888888893 -1.9696969696969693,3.7878787878787885 -2.07070707070707,3.6868686868686877 -2.1717171717171713,3.5858585858585874 -2.2727272727272725,3.4848484848484866 -2.3737373737373733,3.383838383838384 -2.474747474747474,3.2828282828282833 -2.5757575757575752,3.181818181818183 -2.6767676767676765,3.080808080808082 -2.7777777777777777,2.9797979797979806 -2.8787878787878785,2.87878787878788 -2.9797979797979792,2.7777777777777786 -3.0808080808080804,2.676767676767678 -3.1818181818181817,2.575757575757577 -3.2828282828282824,2.4747474747474754 -3.383838383838383,2.373737373737375 -3.484848484848485,2.2727272727272734 -3.5858585858585856,2.1717171717171726 -3.6868686868686864,2.070707070707072 -3.7878787878787876,1.9696969696969702 -3.8888888888888884,1.8686868686868696 -3.98989898989899,1.767676767676768 -4.090909090909091,1.6666666666666674 -4.191919191919193,1.5656565656565666 -4.292929292929293,1.4646464646464652 -4.393939393939394,1.3636363636363644 -4.494949494949496,1.262626262626263 -4.595959595959596,1.1616161616161622 -4.696969696969697,1.0606060606060617 -4.7979797979797985,0.9595959595959602 -4.7979797979797985,0.8585858585858596 -4.7979797979797985,0.7575757575757579 -4.7979797979797985,0.6565656565656574 -4.7979797979797985,0.5555555555555567 -4.7979797979797985,0.4545454545454551 -4.7979797979797985,0.3535353535353544 -4.7979797979797985,0.2525252525252529 -4.7979797979797985,0.1515151515151522 -4.7979797979797985,0.050505050505051545 -4.7979797979797985,-0.05050505050505001 -4.7979797979797985,-0.15151515151515066 -4.7979797979797985,-0.2525252525252522 -4.7979797979797985,-0.35353535353535287 -4.7979797979797985,-0.4545454545454544 -4.7979797979797985,-0.555555555555555 -4.7979797979797985,-0.6565656565656557 -4.7979797979797985,-0.7575757575757572 -4.7979797979797985,-0.8585858585858579 -4.7979797979797985,-0.9595959595959596 -4.7979797979797985,-1.0606060606060603 -4.7979797979797985,-1.1616161616161613 -4.7979797979797985,-1.2626262626262625 -4.7979797979797985,-1.363636363636363 -4.7979797979797985,-1.4646464646464643 -4.7979797979797985,-1.5656565656565653 -4.7979797979797985,-1.6666666666666665 -4.7979797979797985,-1.7676767676767675 -4.7979797979797985,-1.8686868686868683 -4.7979797979797985,-1.9696969696969693 -4.7979797979797985,-2.07070707070707 -4.7979797979797985,-2.1717171717171713 -4.7979797979797985,-2.2727272727272725 -4.7979797979797985,-2.3737373737373733 -4.7979797979797985,-2.474747474747474 -4.7979797979797985,-2.5757575757575752 -4.7979797979797985,-2.6767676767676765 -4.7979797979797985,-2.7777777777777777 -4.7979797979797985,-2.8787878787878785 -4.7979797979797985,-2.9797979797979792 -4.7979797979797985,-3.0808080808080804 -4.7979797979797985,-3.1818181818181817 -4.7979797979797985,-3.2828282828282824 -4.7979797979797985,-3.383838383838383 -4.7979797979797985,-3.484848484848485 -4.7979797979797985,-3.5858585858585856 -4.7979797979797985,-3.6868686868686864 -4.7979797979797985,-3.7878787878787876 -4.7979797979797985,-3.8888888888888884 -4.7979797979797985,-3.98989898989899 -4.7979797979797985,-4.090909090909091 -4.7979797979797985,-4.191919191919193 -4.7979797979797985,-4.292929292929293 -4.7979797979797985,-4.393939393939394 -4.7979797979797985,-4.494949494949496 -4.7979797979797985,-4.595959595959596 -4.7979797979797985,-4.696969696969697 -4.7979797979797985,-4.7979797979797985 -4.7979797979797985,-4.898989898989899 -4.7979797979797985,-5.000000000000001" data-type="line" data-label="" points="440.4848484848485,40.000000000000114 430.949494949495,49.53535353535369 421.4141414141414,59.07070707070733 411.8787878787879,68.60606060606085 402.34343434343435,78.14141414141432 392.80808080808083,87.67676767676778 383.2727272727273,97.21212121212153 373.7373737373738,106.747474747475 364.2020202020202,116.28282828282846 354.6666666666667,125.81818181818198 345.13131313131316,135.35353535353545 335.59595959595964,144.88888888888908 326.0606060606061,154.4242424242426 316.5252525252526,163.95959595959613 306.9898989898991,173.4949494949496 297.4545454545455,183.03030303030312 287.91919191919203,192.56565656565675 278.38383838383845,202.10101010101027 268.84848484848493,211.63636363636374 259.3131313131314,221.17171717171726 249.77777777777783,230.70707070707084 240.2424242424243,240.24242424242436 230.70707070707084,249.77777777777794 221.17171717171726,259.3131313131314 211.63636363636374,268.84848484848493 202.10101010101022,278.38383838383857 192.5656565656567,287.91919191919203 183.03030303030312,297.4545454545456 173.4949494949496,306.9898989898991 163.95959595959607,316.5252525252526 154.42424242424255,326.06060606060623 144.88888888888903,335.5959595959597 135.35353535353545,345.1313131313133 125.81818181818193,354.66666666666674 116.28282828282829,364.2020202020203 106.74747474747483,373.73737373737384 97.21212121212136,383.27272727272737 87.67676767676772,392.80808080808094 78.14141414141426,402.3434343434344 68.60606060606068,411.87878787878793 59.07070707070716,421.4141414141415 59.07070707070716,430.94949494949503 59.07070707070716,440.4848484848486 59.07070707070716,450.0202020202021 59.07070707070716,459.5555555555556 59.07070707070716,469.0909090909092 59.07070707070716,478.6262626262627 59.07070707070716,488.1616161616163 59.07070707070716,497.69696969696975 59.07070707070716,507.23232323232327 59.07070707070716,516.7676767676768 59.07070707070716,526.3030303030304 59.07070707070716,535.838383838384 59.07070707070716,545.3737373737374 59.07070707070716,554.909090909091 59.07070707070716,564.4444444444445 59.07070707070716,573.979797979798 59.07070707070716,583.5151515151516 59.07070707070716,593.0505050505051 59.07070707070716,602.5858585858587 59.07070707070716,612.1212121212121 59.07070707070716,621.6565656565657 59.07070707070716,631.1919191919193 59.07070707070716,640.7272727272727 59.07070707070716,650.2626262626263 59.07070707070716,659.7979797979798 59.07070707070716,669.3333333333334 59.07070707070716,678.8686868686868 59.07070707070716,688.4040404040404 59.07070707070716,697.939393939394 59.07070707070716,707.4747474747475 59.07070707070716,717.010101010101 59.07070707070716,726.5454545454545 59.07070707070716,736.0808080808081 59.07070707070716,745.6161616161615 59.07070707070716,755.1515151515151 59.07070707070716,764.6868686868687 59.07070707070716,774.2222222222222 59.07070707070716,783.7575757575758 59.07070707070716,793.2929292929292 59.07070707070716,802.8282828282828 59.07070707070716,812.3636363636363 59.07070707070716,821.8989898989898 59.07070707070716,831.4343434343434 59.07070707070716,840.969696969697 59.07070707070716,850.5050505050505 59.07070707070716,860.0404040404039 59.07070707070716,869.5757575757575 59.07070707070716,879.1111111111111 59.07070707070716,888.6464646464647 59.07070707070716,898.1818181818181 59.07070707070716,907.7171717171718 59.07070707070716,917.2525252525252 59.07070707070716,926.7878787878788 59.07070707070716,936.3232323232323 59.07070707070716,945.8585858585858 59.07070707070716,955.3939393939394 59.07070707070716,964.9292929292928 59.07070707070716,974.4646464646464 59.07070707070716,984" fill="none" stroke="rgba(255,0,0,0.75)" stroke-width="14.159999999999995"/></g><g><polyline data-points="-5.000000000000001,-2.8787878787878785 -4.898989898989899,-2.7777777777777777 -4.7979797979797985,-2.6767676767676765 -4.696969696969697,-2.5757575757575752 -4.595959595959596,-2.474747474747474 -4.494949494949496,-2.3737373737373733 -4.393939393939394,-2.2727272727272725 -4.292929292929293,-2.1717171717171713 -4.191919191919193,-2.07070707070707 -4.090909090909091,-1.9696969696969693 -3.98989898989899,-1.8686868686868683 -3.8888888888888884,-1.7676767676767675 -3.7878787878787876,-1.6666666666666665 -3.6868686868686864,-1.5656565656565653 -3.5858585858585856,-1.4646464646464643 -3.484848484848485,-1.363636363636363 -3.383838383838383,-1.2626262626262625 -3.2828282828282824,-1.1616161616161613 -3.1818181818181817,-1.0606060606060603 -3.0808080808080804,-0.9595959595959596 -2.9797979797979792,-0.8585858585858579 -2.8787878787878785,-0.7575757575757572 -2.7777777777777777,-0.6565656565656557 -2.6767676767676765,-0.555555555555555 -2.5757575757575752,-0.4545454545454544 -2.474747474747474,-0.35353535353535287 -2.3737373737373733,-0.2525252525252522 -2.2727272727272725,-0.15151515151515066 -2.1717171717171713,-0.05050505050505001 -2.07070707070707,0.050505050505051545 -1.9696969696969693,0.1515151515151522 -1.8686868686868683,0.2525252525252529 -1.7676767676767675,0.3535353535353544 -1.6666666666666665,0.4545454545454551 -1.5656565656565653,0.5555555555555567 -1.4646464646464643,0.6565656565656574 -1.363636363636363,0.7575757575757579 -1.2626262626262625,0.8585858585858596 -1.1616161616161613,0.9595959595959602 -1.0606060606060603,1.0606060606060617 -0.9595959595959596,1.1616161616161622 -0.8585858585858579,1.262626262626263 -0.7575757575757572,1.3636363636363644 -0.6565656565656557,1.4646464646464652 -0.555555555555555,1.5656565656565666 -0.4545454545454544,1.5656565656565666 -0.35353535353535287,1.5656565656565666 -0.2525252525252522,1.5656565656565666 -0.15151515151515066,1.5656565656565666 -0.05050505050505001,1.5656565656565666 0.050505050505051545,1.5656565656565666 0.1515151515151522,1.5656565656565666 0.2525252525252529,1.5656565656565666 0.3535353535353544,1.5656565656565666 0.4545454545454551,1.5656565656565666 0.5555555555555567,1.5656565656565666 0.6565656565656574,1.5656565656565666 0.7575757575757579,1.5656565656565666 0.8585858585858596,1.5656565656565666 0.9595959595959602,1.5656565656565666 1.0606060606060617,1.5656565656565666 1.1616161616161622,1.5656565656565666 1.262626262626263,1.5656565656565666 1.3636363636363644,1.5656565656565666 1.4646464646464652,1.5656565656565666 1.5656565656565666,1.5656565656565666 1.6666666666666674,1.5656565656565666 1.767676767676768,1.5656565656565666 1.8686868686868696,1.5656565656565666 1.9696969696969702,1.5656565656565666 2.070707070707072,1.5656565656565666 2.1717171717171726,1.5656565656565666 2.2727272727272734,1.5656565656565666 2.373737373737375,1.5656565656565666 2.4747474747474754,1.5656565656565666 2.575757575757577,1.5656565656565666 2.676767676767678,1.5656565656565666 2.7777777777777786,1.5656565656565666 2.87878787878788,1.5656565656565666 2.9797979797979806,1.5656565656565666 3.080808080808082,1.5656565656565666 3.181818181818183,1.5656565656565666 3.2828282828282833,1.5656565656565666 3.383838383838384,1.5656565656565666 3.4848484848484866,1.5656565656565666 3.5858585858585874,1.5656565656565666 3.6868686868686877,1.5656565656565666 3.7878787878787885,1.5656565656565666 3.8888888888888893,1.5656565656565666 3.989898989898992,1.5656565656565666" data-type="line" data-label="" points="40.00000000000006,783.7575757575758 49.53535353535369,774.2222222222222 59.07070707070716,764.6868686868687 68.60606060606068,755.1515151515151 78.14141414141426,745.6161616161615 87.67676767676772,736.0808080808081 97.21212121212136,726.5454545454545 106.74747474747483,717.010101010101 116.28282828282829,707.4747474747475 125.81818181818193,697.939393939394 135.35353535353545,688.4040404040404 144.88888888888903,678.8686868686868 154.42424242424255,669.3333333333334 163.95959595959607,659.7979797979798 173.4949494949496,650.2626262626263 183.03030303030312,640.7272727272727 192.5656565656567,631.1919191919193 202.10101010101022,621.6565656565657 211.63636363636374,612.1212121212121 221.17171717171726,602.5858585858587 230.70707070707084,593.0505050505051 240.2424242424243,583.5151515151516 249.77777777777783,573.979797979798 259.3131313131314,564.4444444444445 268.84848484848493,554.909090909091 278.38383838383845,545.3737373737374 287.91919191919203,535.838383838384 297.4545454545455,526.3030303030304 306.9898989898991,516.7676767676768 316.5252525252526,507.23232323232327 326.0606060606061,497.69696969696975 335.59595959595964,488.1616161616163 345.13131313131316,478.6262626262627 354.6666666666667,469.0909090909092 364.2020202020202,459.5555555555556 373.7373737373738,450.0202020202021 383.2727272727273,440.4848484848486 392.80808080808083,430.94949494949503 402.34343434343435,421.4141414141415 411.8787878787879,411.87878787878793 421.4141414141414,402.3434343434344 430.949494949495,392.80808080808094 440.4848484848485,383.27272727272737 450.0202020202021,373.73737373737384 459.55555555555554,364.2020202020203 469.09090909090907,364.2020202020203 478.62626262626264,364.2020202020203 488.16161616161617,364.2020202020203 497.69696969696975,364.2020202020203 507.2323232323232,364.2020202020203 516.7676767676768,364.2020202020203 526.3030303030303,364.2020202020203 535.8383838383838,364.2020202020203 545.3737373737374,364.2020202020203 554.9090909090909,364.2020202020203 564.4444444444445,364.2020202020203 573.9797979797979,364.2020202020203 583.5151515151515,364.2020202020203 593.0505050505051,364.2020202020203 602.5858585858585,364.2020202020203 612.1212121212121,364.2020202020203 621.6565656565656,364.2020202020203 631.1919191919192,364.2020202020203 640.7272727272727,364.2020202020203 650.2626262626262,364.2020202020203 659.7979797979798,364.2020202020203 669.3333333333333,364.2020202020203 678.8686868686868,364.2020202020203 688.4040404040404,364.2020202020203 697.9393939393939,364.2020202020203 707.4747474747475,364.2020202020203 717.0101010101009,364.2020202020203 726.5454545454545,364.2020202020203 736.0808080808081,364.2020202020203 745.6161616161615,364.2020202020203 755.1515151515151,364.2020202020203 764.6868686868686,364.2020202020203 774.2222222222222,364.2020202020203 783.7575757575758,364.2020202020203 793.2929292929292,364.2020202020203 802.8282828282828,364.2020202020203 812.3636363636363,364.2020202020203 821.8989898989898,364.2020202020203 831.4343434343433,364.2020202020203 840.969696969697,364.2020202020203 850.5050505050505,364.2020202020203 860.0404040404039,364.2020202020203 869.5757575757575,364.2020202020203 879.111111111111,364.2020202020203 888.6464646464647,364.2020202020203" fill="none" stroke="rgba(0,0,255,0.75)" stroke-width="14.159999999999995"/></g><g><polyline data-points="3.989898989898992,1.5656565656565666 4.090909090909092,1.5656565656565666 4.191919191919193,1.5656565656565666 4.292929292929293,1.5656565656565666 4.393939393939394,1.5656565656565666 4.494949494949497,1.5656565656565666 4.595959595959597,1.5656565656565666 4.696969696969697,1.5656565656565666 4.7979797979797985,1.5656565656565666 4.898989898989901,1.5656565656565666 5.000000000000002,1.5656565656565666" data-type="line" data-label="" points="888.6464646464647,364.2020202020203 898.181818181818,364.2020202020203 907.7171717171716,364.2020202020203 917.2525252525251,364.2020202020203 926.7878787878785,364.2020202020203 936.3232323232323,364.2020202020203 945.8585858585857,364.2020202020203 955.3939393939393,364.2020202020203 964.9292929292927,364.2020202020203 974.4646464646464,364.2020202020203 984,364.2020202020203" fill="none" stroke="rgba(255,0,0,0.75)" stroke-width="14.159999999999995"/></g><g><polyline data-points="-2.5757575757575752,5.000000000000002 -2.6767676767676765,5.000000000000002 -2.7777777777777777,5.000000000000002 -2.8787878787878785,5.000000000000002 -2.9797979797979792,5.000000000000002 -3.0808080808080804,5.000000000000002 -3.1818181818181817,5.000000000000002 -3.2828282828282824,5.000000000000002 -3.383838383838383,5.000000000000002" data-type="line" data-label="" points="268.84848484848493,40.000000000000114 259.3131313131314,40.000000000000114 249.77777777777783,40.000000000000114 240.2424242424243,40.000000000000114 230.70707070707084,40.000000000000114 221.17171717171726,40.000000000000114 211.63636363636374,40.000000000000114 202.10101010101022,40.000000000000114 192.5656565656567,40.000000000000114" fill="none" stroke="rgba(0,0,255,0.75)" stroke-width="14.159999999999995"/></g><g><polyline data-points="-5.000000000000001,4.393939393939394 -4.898989898989899,4.292929292929293 -4.7979797979797985,4.191919191919193 -4.696969696969697,4.090909090909092 -4.595959595959596,3.989898989898992 -4.494949494949496,3.8888888888888893 -4.393939393939394,3.7878787878787885 -4.292929292929293,3.6868686868686877 -4.191919191919193,3.5858585858585874 -4.090909090909091,3.4848484848484866 -3.98989898989899,3.383838383838384 -3.8888888888888884,3.2828282828282833 -3.7878787878787876,3.181818181818183 -3.6868686868686864,3.080808080808082 -3.5858585858585856,2.9797979797979806 -3.484848484848485,2.87878787878788 -3.383838383838383,2.7777777777777786 -3.2828282828282824,2.676767676767678 -3.1818181818181817,2.575757575757577 -3.0808080808080804,2.4747474747474754 -2.9797979797979792,2.373737373737375 -2.8787878787878785,2.2727272727272734 -2.7777777777777777,2.1717171717171726 -2.6767676767676765,2.070707070707072 -2.5757575757575752,1.9696969696969702 -2.474747474747474,1.8686868686868696 -2.3737373737373733,1.767676767676768 -2.2727272727272725,1.6666666666666674 -2.1717171717171713,1.5656565656565666 -2.07070707070707,1.4646464646464652 -1.9696969696969693,1.3636363636363644 -1.8686868686868683,1.262626262626263 -1.7676767676767675,1.1616161616161622" data-type="line" data-label="" points="40.00000000000006,97.21212121212153 49.53535353535369,106.747474747475 59.07070707070716,116.28282828282846 68.60606060606068,125.81818181818198 78.14141414141426,135.35353535353545 87.67676767676772,144.88888888888908 97.21212121212136,154.4242424242426 106.74747474747483,163.95959595959613 116.28282828282829,173.4949494949496 125.81818181818193,183.03030303030312 135.35353535353545,192.56565656565675 144.88888888888903,202.10101010101027 154.42424242424255,211.63636363636374 163.95959595959607,221.17171717171726 173.4949494949496,230.70707070707084 183.03030303030312,240.24242424242436 192.5656565656567,249.77777777777794 202.10101010101022,259.3131313131314 211.63636363636374,268.84848484848493 221.17171717171726,278.38383838383857 230.70707070707084,287.91919191919203 240.2424242424243,297.4545454545456 249.77777777777783,306.9898989898991 259.3131313131314,316.5252525252526 268.84848484848493,326.06060606060623 278.38383838383845,335.5959595959597 287.91919191919203,345.1313131313133 297.4545454545455,354.66666666666674 306.9898989898991,364.2020202020203 316.5252525252526,373.73737373737384 326.0606060606061,383.27272727272737 335.59595959595964,392.80808080808094 345.13131313131316,402.3434343434344" fill="none" stroke="rgba(0,0,255,0.75)" stroke-width="14.159999999999995"/></g><g><polyline data-points="-1.7676767676767675,1.1616161616161622 -1.6666666666666665,1.0606060606060617 -1.5656565656565653,0.9595959595959602 -1.4646464646464643,0.8585858585858596 -1.363636363636363,0.7575757575757579 -1.2626262626262625,0.6565656565656574 -1.1616161616161613,0.5555555555555567 -1.0606060606060603,0.4545454545454551 -0.9595959595959596,0.3535353535353544 -0.8585858585858579,0.2525252525252529 -0.7575757575757572,0.1515151515151522 -0.6565656565656557,0.050505050505051545 -0.555555555555555,-0.05050505050505001 -0.4545454545454544,-0.15151515151515066 -0.35353535353535287,-0.2525252525252522 -0.2525252525252522,-0.35353535353535287 -0.15151515151515066,-0.4545454545454544 -0.05050505050505001,-0.555555555555555 0.050505050505051545,-0.6565656565656557 0.1515151515151522,-0.7575757575757572 0.2525252525252529,-0.8585858585858579 0.3535353535353544,-0.9595959595959596 0.4545454545454551,-1.0606060606060603 0.5555555555555567,-1.1616161616161613 0.6565656565656574,-1.2626262626262625 0.7575757575757579,-1.363636363636363 0.8585858585858596,-1.4646464646464643 0.9595959595959602,-1.5656565656565653 1.0606060606060617,-1.6666666666666665 1.1616161616161622,-1.7676767676767675 1.262626262626263,-1.8686868686868683 1.3636363636363644,-1.9696969696969693 1.4646464646464652,-2.07070707070707 1.5656565656565666,-2.1717171717171713 1.6666666666666674,-2.2727272727272725 1.767676767676768,-2.3737373737373733 1.8686868686868696,-2.474747474747474 1.9696969696969702,-2.5757575757575752 2.070707070707072,-2.6767676767676765 2.1717171717171726,-2.7777777777777777 2.2727272727272734,-2.8787878787878785 2.373737373737375,-2.9797979797979792 2.4747474747474754,-3.0808080808080804 2.575757575757577,-3.1818181818181817 2.676767676767678,-3.2828282828282824 2.7777777777777786,-3.383838383838383 2.87878787878788,-3.484848484848485 2.9797979797979806,-3.5858585858585856 3.080808080808082,-3.6868686868686864 3.181818181818183,-3.7878787878787876 3.2828282828282833,-3.8888888888888884 3.383838383838384,-3.98989898989899 3.4848484848484866,-4.090909090909091 3.5858585858585874,-4.090909090909091 3.6868686868686877,-4.090909090909091 3.7878787878787885,-4.090909090909091 3.8888888888888893,-4.090909090909091 3.989898989898992,-4.090909090909091 4.090909090909092,-4.090909090909091 4.191919191919193,-4.090909090909091 4.292929292929293,-4.090909090909091 4.393939393939394,-4.090909090909091 4.494949494949497,-4.090909090909091 4.595959595959597,-4.090909090909091 4.696969696969697,-4.090909090909091 4.7979797979797985,-4.090909090909091 4.898989898989901,-4.090909090909091 5.000000000000002,-4.090909090909091" data-type="line" data-label="" points="345.13131313131316,402.3434343434344 354.6666666666667,411.87878787878793 364.2020202020202,421.4141414141415 373.7373737373738,430.94949494949503 383.2727272727273,440.4848484848486 392.80808080808083,450.0202020202021 402.34343434343435,459.5555555555556 411.8787878787879,469.0909090909092 421.4141414141414,478.6262626262627 430.949494949495,488.1616161616163 440.4848484848485,497.69696969696975 450.0202020202021,507.23232323232327 459.55555555555554,516.7676767676768 469.09090909090907,526.3030303030304 478.62626262626264,535.838383838384 488.16161616161617,545.3737373737374 497.69696969696975,554.909090909091 507.2323232323232,564.4444444444445 516.7676767676768,573.979797979798 526.3030303030303,583.5151515151516 535.8383838383838,593.0505050505051 545.3737373737374,602.5858585858587 554.9090909090909,612.1212121212121 564.4444444444445,621.6565656565657 573.9797979797979,631.1919191919193 583.5151515151515,640.7272727272727 593.0505050505051,650.2626262626263 602.5858585858585,659.7979797979798 612.1212121212121,669.3333333333334 621.6565656565656,678.8686868686868 631.1919191919192,688.4040404040404 640.7272727272727,697.939393939394 650.2626262626262,707.4747474747475 659.7979797979798,717.010101010101 669.3333333333333,726.5454545454545 678.8686868686868,736.0808080808081 688.4040404040404,745.6161616161615 697.9393939393939,755.1515151515151 707.4747474747475,764.6868686868687 717.0101010101009,774.2222222222222 726.5454545454545,783.7575757575758 736.0808080808081,793.2929292929292 745.6161616161615,802.8282828282828 755.1515151515151,812.3636363636363 764.6868686868686,821.8989898989898 774.2222222222222,831.4343434343434 783.7575757575758,840.969696969697 793.2929292929292,850.5050505050505 802.8282828282828,860.0404040404039 812.3636363636363,869.5757575757575 821.8989898989898,879.1111111111111 831.4343434343433,888.6464646464647 840.969696969697,898.1818181818181 850.5050505050505,898.1818181818181 860.0404040404039,898.1818181818181 869.5757575757575,898.1818181818181 879.111111111111,898.1818181818181 888.6464646464647,898.1818181818181 898.181818181818,898.1818181818181 907.7171717171716,898.1818181818181 917.2525252525251,898.1818181818181 926.7878787878785,898.1818181818181 936.3232323232323,898.1818181818181 945.8585858585857,898.1818181818181 955.3939393939393,898.1818181818181 964.9292929292927,898.1818181818181 974.4646464646464,898.1818181818181 984,898.1818181818181" fill="none" stroke="rgba(255,0,0,0.75)" stroke-width="14.159999999999995"/></g><g><polyline data-points="1.262626262626263,5.000000000000002 1.3636363636363644,4.898989898989901 1.4646464646464652,4.7979797979797985 1.5656565656565666,4.696969696969697 1.6666666666666674,4.595959595959597 1.767676767676768,4.494949494949497 1.8686868686868696,4.393939393939394 1.9696969696969702,4.292929292929293 2.070707070707072,4.191919191919193 2.1717171717171726,4.090909090909092 2.2727272727272734,3.989898989898992 2.373737373737375,3.8888888888888893 2.4747474747474754,3.7878787878787885 2.575757575757577,3.6868686868686877 2.676767676767678,3.5858585858585874 2.7777777777777786,3.4848484848484866 2.87878787878788,3.383838383838384 2.9797979797979806,3.2828282828282833 3.080808080808082,3.181818181818183 3.181818181818183,3.080808080808082 3.2828282828282833,2.9797979797979806 3.383838383838384,2.87878787878788 3.4848484848484866,2.7777777777777786 3.4848484848484866,2.676767676767678 3.4848484848484866,2.575757575757577 3.4848484848484866,2.4747474747474754 3.4848484848484866,2.373737373737375 3.4848484848484866,2.2727272727272734 3.4848484848484866,2.1717171717171726 3.4848484848484866,2.070707070707072 3.4848484848484866,1.9696969696969702 3.4848484848484866,1.8686868686868696 3.4848484848484866,1.767676767676768 3.4848484848484866,1.6666666666666674 3.4848484848484866,1.5656565656565666 3.5858585858585874,1.4646464646464652 3.5858585858585874,1.3636363636363644 3.6868686868686877,1.262626262626263 3.7878787878787885,1.1616161616161622 3.7878787878787885,1.0606060606060617 3.7878787878787885,0.9595959595959602 3.7878787878787885,0.8585858585858596 3.7878787878787885,0.7575757575757579 3.7878787878787885,0.6565656565656574 3.7878787878787885,0.5555555555555567 3.7878787878787885,0.4545454545454551 3.7878787878787885,0.3535353535353544 3.7878787878787885,0.2525252525252529 3.7878787878787885,0.1515151515151522 3.7878787878787885,0.050505050505051545 3.7878787878787885,-0.05050505050505001 3.7878787878787885,-0.15151515151515066 3.7878787878787885,-0.2525252525252522 3.7878787878787885,-0.35353535353535287 3.7878787878787885,-0.4545454545454544 3.7878787878787885,-0.555555555555555 3.7878787878787885,-0.6565656565656557 3.7878787878787885,-0.7575757575757572 3.7878787878787885,-0.8585858585858579 3.7878787878787885,-0.9595959595959596 3.7878787878787885,-1.0606060606060603 3.7878787878787885,-1.1616161616161613 3.7878787878787885,-1.2626262626262625 3.7878787878787885,-1.363636363636363 3.7878787878787885,-1.4646464646464643 3.7878787878787885,-1.5656565656565653 3.7878787878787885,-1.6666666666666665 3.7878787878787885,-1.7676767676767675 3.7878787878787885,-1.8686868686868683 3.7878787878787885,-1.9696969696969693 3.7878787878787885,-2.07070707070707 3.7878787878787885,-2.1717171717171713 3.7878787878787885,-2.2727272727272725 3.7878787878787885,-2.3737373737373733 3.7878787878787885,-2.474747474747474 3.7878787878787885,-2.5757575757575752 3.7878787878787885,-2.6767676767676765 3.7878787878787885,-2.7777777777777777 3.7878787878787885,-2.8787878787878785 3.7878787878787885,-2.9797979797979792 3.7878787878787885,-3.0808080808080804 3.7878787878787885,-3.1818181818181817 3.7878787878787885,-3.2828282828282824 3.7878787878787885,-3.383838383838383 3.7878787878787885,-3.484848484848485" data-type="line" data-label="" points="631.1919191919192,40.000000000000114 640.7272727272727,49.53535353535369 650.2626262626262,59.07070707070733 659.7979797979798,68.60606060606085 669.3333333333333,78.14141414141432 678.8686868686868,87.67676767676778 688.4040404040404,97.21212121212153 697.9393939393939,106.747474747475 707.4747474747475,116.28282828282846 717.0101010101009,125.81818181818198 726.5454545454545,135.35353535353545 736.0808080808081,144.88888888888908 745.6161616161615,154.4242424242426 755.1515151515151,163.95959595959613 764.6868686868686,173.4949494949496 774.2222222222222,183.03030303030312 783.7575757575758,192.56565656565675 793.2929292929292,202.10101010101027 802.8282828282828,211.63636363636374 812.3636363636363,221.17171717171726 821.8989898989898,230.70707070707084 831.4343434343433,240.24242424242436 840.969696969697,249.77777777777794 840.969696969697,259.3131313131314 840.969696969697,268.84848484848493 840.969696969697,278.38383838383857 840.969696969697,287.91919191919203 840.969696969697,297.4545454545456 840.969696969697,306.9898989898991 840.969696969697,316.5252525252526 840.969696969697,326.06060606060623 840.969696969697,335.5959595959597 840.969696969697,345.1313131313133 840.969696969697,354.66666666666674 840.969696969697,364.2020202020203 850.5050505050505,373.73737373737384 850.5050505050505,383.27272727272737 860.0404040404039,392.80808080808094 869.5757575757575,402.3434343434344 869.5757575757575,411.87878787878793 869.5757575757575,421.4141414141415 869.5757575757575,430.94949494949503 869.5757575757575,440.4848484848486 869.5757575757575,450.0202020202021 869.5757575757575,459.5555555555556 869.5757575757575,469.0909090909092 869.5757575757575,478.6262626262627 869.5757575757575,488.1616161616163 869.5757575757575,497.69696969696975 869.5757575757575,507.23232323232327 869.5757575757575,516.7676767676768 869.5757575757575,526.3030303030304 869.5757575757575,535.838383838384 869.5757575757575,545.3737373737374 869.5757575757575,554.909090909091 869.5757575757575,564.4444444444445 869.5757575757575,573.979797979798 869.5757575757575,583.5151515151516 869.5757575757575,593.0505050505051 869.5757575757575,602.5858585858587 869.5757575757575,612.1212121212121 869.5757575757575,621.6565656565657 869.5757575757575,631.1919191919193 869.5757575757575,640.7272727272727 869.5757575757575,650.2626262626263 869.5757575757575,659.7979797979798 869.5757575757575,669.3333333333334 869.5757575757575,678.8686868686868 869.5757575757575,688.4040404040404 869.5757575757575,697.939393939394 869.5757575757575,707.4747474747475 869.5757575757575,717.010101010101 869.5757575757575,726.5454545454545 869.5757575757575,736.0808080808081 869.5757575757575,745.6161616161615 869.5757575757575,755.1515151515151 869.5757575757575,764.6868686868687 869.5757575757575,774.2222222222222 869.5757575757575,783.7575757575758 869.5757575757575,793.2929292929292 869.5757575757575,802.8282828282828 869.5757575757575,812.3636363636363 869.5757575757575,821.8989898989898 869.5757575757575,831.4343434343434 869.5757575757575,840.969696969697" fill="none" stroke="rgba(255,0,0,0.75)" stroke-width="14.159999999999995"/></g><g><polyline data-points="3.7878787878787885,-3.484848484848485 3.7878787878787885,-3.5858585858585856 3.7878787878787885,-3.6868686868686864 3.7878787878787885,-3.7878787878787876 3.7878787878787885,-3.8888888888888884 3.7878787878787885,-3.98989898989899 3.7878787878787885,-4.090909090909091 3.7878787878787885,-4.191919191919193 3.7878787878787885,-4.292929292929293 3.7878787878787885,-4.393939393939394 3.7878787878787885,-4.494949494949496 3.7878787878787885,-4.595959595959596 3.7878787878787885,-4.696969696969697 3.7878787878787885,-4.7979797979797985 3.7878787878787885,-4.898989898989899 3.7878787878787885,-5.000000000000001" data-type="line" data-label="" points="869.5757575757575,840.969696969697 869.5757575757575,850.5050505050505 869.5757575757575,860.0404040404039 869.5757575757575,869.5757575757575 869.5757575757575,879.1111111111111 869.5757575757575,888.6464646464647 869.5757575757575,898.1818181818181 869.5757575757575,907.7171717171718 869.5757575757575,917.2525252525252 869.5757575757575,926.7878787878788 869.5757575757575,936.3232323232323 869.5757575757575,945.8585858585858 869.5757575757575,955.3939393939394 869.5757575757575,964.9292929292928 869.5757575757575,974.4646464646464 869.5757575757575,984" fill="none" stroke="rgba(0,0,255,0.75)" stroke-width="14.159999999999995"/></g><g><polyline data-points="-1.6666666666666665,5.000000000000002 -1.6666666666666665,4.898989898989901 -1.7676767676767675,4.7979797979797985 -1.8686868686868683,4.696969696969697 -1.9696969696969693,4.595959595959597 -2.07070707070707,4.494949494949497 -2.1717171717171713,4.393939393939394 -2.2727272727272725,4.292929292929293 -2.3737373737373733,4.191919191919193 -2.474747474747474,4.090909090909092 -2.5757575757575752,3.989898989898992" data-type="line" data-label="" points="354.6666666666667,40.000000000000114 354.6666666666667,49.53535353535369 345.13131313131316,59.07070707070733 335.59595959595964,68.60606060606085 326.0606060606061,78.14141414141432 316.5252525252526,87.67676767676778 306.9898989898991,97.21212121212153 297.4545454545455,106.747474747475 287.91919191919203,116.28282828282846 278.38383838383845,125.81818181818198 268.84848484848493,135.35353535353545" fill="none" stroke="rgba(255,0,0,0.75)" stroke-width="14.159999999999995"/></g><g><polyline data-points="-2.5757575757575752,3.989898989898992 -2.474747474747474,3.8888888888888893 -2.3737373737373733,3.7878787878787885 -2.2727272727272725,3.6868686868686877 -2.1717171717171713,3.5858585858585874 -2.07070707070707,3.4848484848484866 -1.9696969696969693,3.383838383838384 -1.8686868686868683,3.2828282828282833 -1.7676767676767675,3.181818181818183 -1.6666666666666665,3.080808080808082 -1.5656565656565653,2.9797979797979806 -1.4646464646464643,2.87878787878788 -1.363636363636363,2.7777777777777786 -1.2626262626262625,2.676767676767678 -1.1616161616161613,2.575757575757577 -1.0606060606060603,2.4747474747474754 -0.9595959595959596,2.373737373737375 -0.8585858585858579,2.2727272727272734 -0.7575757575757572,2.1717171717171726 -0.6565656565656557,2.1717171717171726 -0.555555555555555,2.1717171717171726 -0.4545454545454544,2.1717171717171726 -0.35353535353535287,2.1717171717171726 -0.2525252525252522,2.1717171717171726 -0.15151515151515066,2.1717171717171726 -0.05050505050505001,2.1717171717171726 0.050505050505051545,2.1717171717171726 0.1515151515151522,2.1717171717171726 0.2525252525252529,2.1717171717171726 0.3535353535353544,2.1717171717171726 0.4545454545454551,2.1717171717171726 0.5555555555555567,2.1717171717171726 0.6565656565656574,2.1717171717171726 0.7575757575757579,2.1717171717171726 0.8585858585858596,2.1717171717171726" data-type="line" data-label="" points="268.84848484848493,135.35353535353545 278.38383838383845,144.88888888888908 287.91919191919203,154.4242424242426 297.4545454545455,163.95959595959613 306.9898989898991,173.4949494949496 316.5252525252526,183.03030303030312 326.0606060606061,192.56565656565675 335.59595959595964,202.10101010101027 345.13131313131316,211.63636363636374 354.6666666666667,221.17171717171726 364.2020202020202,230.70707070707084 373.7373737373738,240.24242424242436 383.2727272727273,249.77777777777794 392.80808080808083,259.3131313131314 402.34343434343435,268.84848484848493 411.8787878787879,278.38383838383857 421.4141414141414,287.91919191919203 430.949494949495,297.4545454545456 440.4848484848485,306.9898989898991 450.0202020202021,306.9898989898991 459.55555555555554,306.9898989898991 469.09090909090907,306.9898989898991 478.62626262626264,306.9898989898991 488.16161616161617,306.9898989898991 497.69696969696975,306.9898989898991 507.2323232323232,306.9898989898991 516.7676767676768,306.9898989898991 526.3030303030303,306.9898989898991 535.8383838383838,306.9898989898991 545.3737373737374,306.9898989898991 554.9090909090909,306.9898989898991 564.4444444444445,306.9898989898991 573.9797979797979,306.9898989898991 583.5151515151515,306.9898989898991 593.0505050505051,306.9898989898991" fill="none" stroke="rgba(0,0,255,0.75)" stroke-width="14.159999999999995"/></g><g><polyline data-points="0.8585858585858596,2.1717171717171726 0.9595959595959602,2.070707070707072 1.0606060606060617,1.9696969696969702 1.0606060606060617,1.8686868686868696 1.0606060606060617,1.767676767676768 1.0606060606060617,1.6666666666666674 1.0606060606060617,1.5656565656565666 1.0606060606060617,1.4646464646464652 1.0606060606060617,1.3636363636363644 1.0606060606060617,1.262626262626263 1.0606060606060617,1.1616161616161622 1.0606060606060617,1.0606060606060617 1.0606060606060617,0.9595959595959602 1.0606060606060617,0.8585858585858596 1.0606060606060617,0.7575757575757579 1.0606060606060617,0.6565656565656574 1.0606060606060617,0.5555555555555567 1.0606060606060617,0.4545454545454551 1.0606060606060617,0.3535353535353544 1.0606060606060617,0.2525252525252529 1.0606060606060617,0.1515151515151522 1.0606060606060617,0.050505050505051545 1.0606060606060617,-0.05050505050505001 1.0606060606060617,-0.15151515151515066 1.0606060606060617,-0.2525252525252522 1.0606060606060617,-0.35353535353535287 1.0606060606060617,-0.4545454545454544" data-type="line" data-label="" points="593.0505050505051,306.9898989898991 602.5858585858585,316.5252525252526 612.1212121212121,326.06060606060623 612.1212121212121,335.5959595959597 612.1212121212121,345.1313131313133 612.1212121212121,354.66666666666674 612.1212121212121,364.2020202020203 612.1212121212121,373.73737373737384 612.1212121212121,383.27272727272737 612.1212121212121,392.80808080808094 612.1212121212121,402.3434343434344 612.1212121212121,411.87878787878793 612.1212121212121,421.4141414141415 612.1212121212121,430.94949494949503 612.1212121212121,440.4848484848486 612.1212121212121,450.0202020202021 612.1212121212121,459.5555555555556 612.1212121212121,469.0909090909092 612.1212121212121,478.6262626262627 612.1212121212121,488.1616161616163 612.1212121212121,497.69696969696975 612.1212121212121,507.23232323232327 612.1212121212121,516.7676767676768 612.1212121212121,526.3030303030304 612.1212121212121,535.838383838384 612.1212121212121,545.3737373737374 612.1212121212121,554.909090909091" fill="none" stroke="rgba(255,0,0,0.75)" stroke-width="14.159999999999995"/></g><g><polyline data-points="1.0606060606060617,-0.4545454545454544 1.1616161616161622,-0.555555555555555 1.262626262626263,-0.6565656565656557 1.262626262626263,-0.7575757575757572 1.262626262626263,-0.8585858585858579 1.262626262626263,-0.9595959595959596 1.262626262626263,-1.0606060606060603 1.262626262626263,-1.1616161616161613 1.262626262626263,-1.2626262626262625 1.262626262626263,-1.363636363636363 1.262626262626263,-1.4646464646464643 1.262626262626263,-1.5656565656565653 1.262626262626263,-1.6666666666666665 1.262626262626263,-1.7676767676767675 1.262626262626263,-1.8686868686868683 1.262626262626263,-1.9696969696969693 1.262626262626263,-2.07070707070707 1.262626262626263,-2.1717171717171713 1.262626262626263,-2.2727272727272725 1.262626262626263,-2.3737373737373733 1.262626262626263,-2.474747474747474 1.262626262626263,-2.5757575757575752 1.262626262626263,-2.6767676767676765 1.262626262626263,-2.7777777777777777 1.262626262626263,-2.8787878787878785 1.262626262626263,-2.9797979797979792 1.262626262626263,-3.0808080808080804 1.262626262626263,-3.1818181818181817 1.262626262626263,-3.2828282828282824 1.262626262626263,-3.383838383838383 1.262626262626263,-3.484848484848485 1.262626262626263,-3.5858585858585856 1.262626262626263,-3.6868686868686864 1.262626262626263,-3.7878787878787876 1.262626262626263,-3.8888888888888884 1.262626262626263,-3.98989898989899" data-type="line" data-label="" points="612.1212121212121,554.909090909091 621.6565656565656,564.4444444444445 631.1919191919192,573.979797979798 631.1919191919192,583.5151515151516 631.1919191919192,593.0505050505051 631.1919191919192,602.5858585858587 631.1919191919192,612.1212121212121 631.1919191919192,621.6565656565657 631.1919191919192,631.1919191919193 631.1919191919192,640.7272727272727 631.1919191919192,650.2626262626263 631.1919191919192,659.7979797979798 631.1919191919192,669.3333333333334 631.1919191919192,678.8686868686868 631.1919191919192,688.4040404040404 631.1919191919192,697.939393939394 631.1919191919192,707.4747474747475 631.1919191919192,717.010101010101 631.1919191919192,726.5454545454545 631.1919191919192,736.0808080808081 631.1919191919192,745.6161616161615 631.1919191919192,755.1515151515151 631.1919191919192,764.6868686868687 631.1919191919192,774.2222222222222 631.1919191919192,783.7575757575758 631.1919191919192,793.2929292929292 631.1919191919192,802.8282828282828 631.1919191919192,812.3636363636363 631.1919191919192,821.8989898989898 631.1919191919192,831.4343434343434 631.1919191919192,840.969696969697 631.1919191919192,850.5050505050505 631.1919191919192,860.0404040404039 631.1919191919192,869.5757575757575 631.1919191919192,879.1111111111111 631.1919191919192,888.6464646464647" fill="none" stroke="rgba(0,0,255,0.75)" stroke-width="14.159999999999995"/></g><g><polyline data-points="1.262626262626263,-3.98989898989899 1.262626262626263,-4.090909090909091 1.262626262626263,-4.191919191919193 1.262626262626263,-4.292929292929293 1.262626262626263,-4.393939393939394 1.262626262626263,-4.494949494949496 1.262626262626263,-4.595959595959596 1.262626262626263,-4.696969696969697 1.262626262626263,-4.7979797979797985 1.262626262626263,-4.898989898989899 1.262626262626263,-5.000000000000001" data-type="line" data-label="" points="631.1919191919192,888.6464646464647 631.1919191919192,898.1818181818181 631.1919191919192,907.7171717171718 631.1919191919192,917.2525252525252 631.1919191919192,926.7878787878788 631.1919191919192,936.3232323232323 631.1919191919192,945.8585858585858 631.1919191919192,955.3939393939394 631.1919191919192,964.9292929292928 631.1919191919192,974.4646464646464 631.1919191919192,984" fill="none" stroke="rgba(255,0,0,0.75)" stroke-width="14.159999999999995"/></g><g><polyline data-points="-5.000000000000001,2.676767676767678 -4.898989898989899,2.676767676767678 -4.7979797979797985,2.676767676767678 -4.696969696969697,2.676767676767678 -4.595959595959596,2.676767676767678 -4.494949494949496,2.676767676767678 -4.393939393939394,2.676767676767678 -4.292929292929293,2.676767676767678 -4.191919191919193,2.676767676767678 -4.090909090909091,2.676767676767678 -3.98989898989899,2.575757575757577" data-type="line" data-label="" points="40.00000000000006,259.3131313131314 49.53535353535369,259.3131313131314 59.07070707070716,259.3131313131314 68.60606060606068,259.3131313131314 78.14141414141426,259.3131313131314 87.67676767676772,259.3131313131314 97.21212121212136,259.3131313131314 106.74747474747483,259.3131313131314 116.28282828282829,259.3131313131314 125.81818181818193,259.3131313131314 135.35353535353545,268.84848484848493" fill="none" stroke="rgba(0,0,255,0.75)" stroke-width="14.159999999999995"/></g><g><polyline data-points="-3.98989898989899,2.575757575757577 -3.8888888888888884,2.676767676767678 -3.7878787878787876,2.7777777777777786 -3.6868686868686864,2.87878787878788 -3.5858585858585856,2.9797979797979806 -3.484848484848485,3.080808080808082 -3.383838383838383,3.181818181818183 -3.2828282828282824,3.2828282828282833 -3.1818181818181817,3.383838383838384" data-type="line" data-label="" points="135.35353535353545,268.84848484848493 144.88888888888903,259.3131313131314 154.42424242424255,249.77777777777794 163.95959595959607,240.24242424242436 173.4949494949496,230.70707070707084 183.03030303030312,221.17171717171726 192.5656565656567,211.63636363636374 202.10101010101022,202.10101010101027 211.63636363636374,192.56565656565675" fill="none" stroke="rgba(255,0,0,0.75)" stroke-width="14.159999999999995"/></g><g><polyline data-points="-3.1818181818181817,3.383838383838384 -3.0808080808080804,3.383838383838384 -2.9797979797979792,3.383838383838384 -2.8787878787878785,3.383838383838384 -2.7777777777777777,3.383838383838384 -2.6767676767676765,3.2828282828282833 -2.5757575757575752,3.181818181818183 -2.474747474747474,3.080808080808082 -2.3737373737373733,2.9797979797979806 -2.2727272727272725,2.87878787878788 -2.1717171717171713,2.7777777777777786" data-type="line" data-label="" points="211.63636363636374,192.56565656565675 221.17171717171726,192.56565656565675 230.70707070707084,192.56565656565675 240.2424242424243,192.56565656565675 249.77777777777783,192.56565656565675 259.3131313131314,202.10101010101027 268.84848484848493,211.63636363636374 278.38383838383845,221.17171717171726 287.91919191919203,230.70707070707084 297.4545454545455,240.24242424242436 306.9898989898991,249.77777777777794" fill="none" stroke="rgba(0,0,255,0.75)" stroke-width="14.159999999999995"/></g><g><polyline data-points="-2.1717171717171713,2.7777777777777786 -2.07070707070707,2.87878787878788 -1.9696969696969693,2.9797979797979806 -1.8686868686868683,3.080808080808082 -1.7676767676767675,3.181818181818183 -1.6666666666666665,3.2828282828282833 -1.5656565656565653,3.383838383838384 -1.4646464646464643,3.4848484848484866 -1.363636363636363,3.5858585858585874 -1.2626262626262625,3.6868686868686877 -1.1616161616161613,3.6868686868686877 -1.0606060606060603,3.6868686868686877 -0.9595959595959596,3.6868686868686877 -0.8585858585858579,3.6868686868686877 -0.7575757575757572,3.6868686868686877 -0.6565656565656557,3.6868686868686877 -0.555555555555555,3.6868686868686877 -0.4545454545454544,3.6868686868686877 -0.35353535353535287,3.6868686868686877 -0.2525252525252522,3.6868686868686877 -0.15151515151515066,3.6868686868686877 -0.05050505050505001,3.6868686868686877 0.050505050505051545,3.6868686868686877 0.1515151515151522,3.6868686868686877 0.2525252525252529,3.6868686868686877 0.3535353535353544,3.6868686868686877 0.4545454545454551,3.6868686868686877 0.5555555555555567,3.6868686868686877 0.6565656565656574,3.6868686868686877 0.7575757575757579,3.6868686868686877 0.8585858585858596,3.6868686868686877 0.9595959595959602,3.6868686868686877 1.0606060606060617,3.6868686868686877 1.1616161616161622,3.6868686868686877 1.262626262626263,3.6868686868686877 1.3636363636363644,3.6868686868686877 1.4646464646464652,3.6868686868686877 1.5656565656565666,3.6868686868686877 1.6666666666666674,3.6868686868686877 1.767676767676768,3.6868686868686877" data-type="line" data-label="" points="306.9898989898991,249.77777777777794 316.5252525252526,240.24242424242436 326.0606060606061,230.70707070707084 335.59595959595964,221.17171717171726 345.13131313131316,211.63636363636374 354.6666666666667,202.10101010101027 364.2020202020202,192.56565656565675 373.7373737373738,183.03030303030312 383.2727272727273,173.4949494949496 392.80808080808083,163.95959595959613 402.34343434343435,163.95959595959613 411.8787878787879,163.95959595959613 421.4141414141414,163.95959595959613 430.949494949495,163.95959595959613 440.4848484848485,163.95959595959613 450.0202020202021,163.95959595959613 459.55555555555554,163.95959595959613 469.09090909090907,163.95959595959613 478.62626262626264,163.95959595959613 488.16161616161617,163.95959595959613 497.69696969696975,163.95959595959613 507.2323232323232,163.95959595959613 516.7676767676768,163.95959595959613 526.3030303030303,163.95959595959613 535.8383838383838,163.95959595959613 545.3737373737374,163.95959595959613 554.9090909090909,163.95959595959613 564.4444444444445,163.95959595959613 573.9797979797979,163.95959595959613 583.5151515151515,163.95959595959613 593.0505050505051,163.95959595959613 602.5858585858585,163.95959595959613 612.1212121212121,163.95959595959613 621.6565656565656,163.95959595959613 631.1919191919192,163.95959595959613 640.7272727272727,163.95959595959613 650.2626262626262,163.95959595959613 659.7979797979798,163.95959595959613 669.3333333333333,163.95959595959613 678.8686868686868,163.95959595959613" fill="none" stroke="rgba(255,0,0,0.75)" stroke-width="14.159999999999995"/></g><g><polyline data-points="1.767676767676768,3.6868686868686877 1.8686868686868696,3.6868686868686877 1.9696969696969702,3.6868686868686877 2.070707070707072,3.6868686868686877 2.1717171717171726,3.6868686868686877 2.2727272727272734,3.6868686868686877 2.373737373737375,3.6868686868686877 2.4747474747474754,3.6868686868686877 2.575757575757577,3.6868686868686877 2.676767676767678,3.6868686868686877 2.7777777777777786,3.6868686868686877 2.87878787878788,3.6868686868686877 2.9797979797979806,3.6868686868686877 3.080808080808082,3.6868686868686877 3.181818181818183,3.6868686868686877 3.2828282828282833,3.6868686868686877 3.383838383838384,3.6868686868686877 3.4848484848484866,3.6868686868686877 3.5858585858585874,3.6868686868686877 3.6868686868686877,3.6868686868686877 3.7878787878787885,3.6868686868686877 3.8888888888888893,3.6868686868686877 3.989898989898992,3.6868686868686877 4.090909090909092,3.6868686868686877 4.191919191919193,3.6868686868686877 4.292929292929293,3.6868686868686877 4.393939393939394,3.6868686868686877 4.494949494949497,3.6868686868686877 4.595959595959597,3.6868686868686877 4.696969696969697,3.6868686868686877 4.7979797979797985,3.6868686868686877 4.898989898989901,3.6868686868686877 5.000000000000002,3.6868686868686877" data-type="line" data-label="" points="678.8686868686868,163.95959595959613 688.4040404040404,163.95959595959613 697.9393939393939,163.95959595959613 707.4747474747475,163.95959595959613 717.0101010101009,163.95959595959613 726.5454545454545,163.95959595959613 736.0808080808081,163.95959595959613 745.6161616161615,163.95959595959613 755.1515151515151,163.95959595959613 764.6868686868686,163.95959595959613 774.2222222222222,163.95959595959613 783.7575757575758,163.95959595959613 793.2929292929292,163.95959595959613 802.8282828282828,163.95959595959613 812.3636363636363,163.95959595959613 821.8989898989898,163.95959595959613 831.4343434343433,163.95959595959613 840.969696969697,163.95959595959613 850.5050505050505,163.95959595959613 860.0404040404039,163.95959595959613 869.5757575757575,163.95959595959613 879.111111111111,163.95959595959613 888.6464646464647,163.95959595959613 898.181818181818,163.95959595959613 907.7171717171716,163.95959595959613 917.2525252525251,163.95959595959613 926.7878787878785,163.95959595959613 936.3232323232323,163.95959595959613 945.8585858585857,163.95959595959613 955.3939393939393,163.95959595959613 964.9292929292927,163.95959595959613 974.4646464646464,163.95959595959613 984,163.95959595959613" fill="none" stroke="rgba(0,0,255,0.75)" stroke-width="14.159999999999995"/></g><g><rect data-type="rect" data-label="" data-x="0" data-y="0" x="40.000000000000114" y="40.000000000000284" width="943.9999999999997" height="943.9999999999998" fill="none" stroke="gray" stroke-width="0.010593220338983056"/></g><g><rect data-type="rect" data-label="" data-x="0" data-y="0" x="40.000000000000114" y="40.000000000000284" width="943.9999999999997" height="943.9999999999998" fill="none" stroke="rgba(15, 23, 42, 0.8)" stroke-width="0.010593220338983056"/></g><circle data-type="circle" data-label="" data-x="3.989898989898992" data-y="1.5656565656565666" cx="888.6464646464647" cy="364.2020202020203" r="28.791999999999987" fill="rgba(0,0,0,0.3)" stroke="black" stroke-width="0.010593220338983056"/><circle data-type="circle" data-label="" data-x="-1.7676767676767675" data-y="1.1616161616161622" cx="345.13131313131316" cy="402.3434343434344" r="28.791999999999987" fill="rgba(0,0,0,0.3)" stroke="black" stroke-width="0.010593220338983056"/><circle data-type="circle" data-label="" data-x="3.7878787878787885" data-y="-3.484848484848485" cx="869.5757575757575" cy="840.969696969697" r="28.791999999999987" fill="rgba(0,0,0,0.3)" stroke="black" stroke-width="0.010593220338983056"/><circle data-type="circle" data-label="" data-x="-2.5757575757575752" data-y="3.989898989898992" cx="268.84848484848493" cy="135.35353535353545" r="28.791999999999987" fill="rgba(0,0,0,0.3)" stroke="black" stroke-width="0.010593220338983056"/><circle data-type="circle" data-label="" data-x="0.8585858585858596" data-y="2.1717171717171726" cx="593.0505050505051" cy="306.9898989898991" r="28.791999999999987" fill="rgba(0,0,0,0.3)" stroke="black" stroke-width="0.010593220338983056"/><circle data-type="circle" data-label="" data-x="1.0606060606060617" data-y="-0.4545454545454544" cx="612.1212121212121" cy="554.909090909091" r="28.791999999999987" fill="rgba(0,0,0,0.3)" stroke="black" stroke-width="0.010593220338983056"/><circle data-type="circle" data-label="" data-x="1.262626262626263" data-y="-3.98989898989899" cx="631.1919191919192" cy="888.6464646464647" r="28.791999999999987" fill="rgba(0,0,0,0.3)" stroke="black" stroke-width="0.010593220338983056"/><circle data-type="circle" data-label="" data-x="-3.98989898989899" data-y="2.575757575757577" cx="135.35353535353545" cy="268.84848484848493" r="28.791999999999987" fill="rgba(0,0,0,0.3)" stroke="black" stroke-width="0.010593220338983056"/><circle data-type="circle" data-label="" data-x="-3.1818181818181817" data-y="3.383838383838384" cx="211.63636363636374" cy="192.56565656565675" r="28.791999999999987" fill="rgba(0,0,0,0.3)" stroke="black" stroke-width="0.010593220338983056"/><circle data-type="circle" data-label="" data-x="-2.1717171717171713" data-y="2.7777777777777786" cx="306.9898989898991" cy="249.77777777777794" r="28.791999999999987" fill="rgba(0,0,0,0.3)" stroke="black" stroke-width="0.010593220338983056"/><circle data-type="circle" data-label="" data-x="1.767676767676768" data-y="3.6868686868686877" cx="678.8686868686868" cy="163.95959595959613" r="28.791999999999987" fill="rgba(0,0,0,0.3)" stroke="black" stroke-width="0.010593220338983056"/><g id="crosshair" style="display: none"><line id="crosshair-h" y1="0" y2="1024" stroke="#666" stroke-width="0.5"/><line id="crosshair-v" x1="0" x2="1024" stroke="#666" stroke-width="0.5"/><text id="coordinates" font-family="monospace" font-size="12" fill="#666"></text></g><script><![CDATA[
              document.currentScript.parentElement.addEventListener('mousemove', (e) => {
                const svg = e.currentTarget;
                const rect = svg.getBoundingClientRect();
                const x = e.clientX - rect.left;
                const y = e.clientY - rect.top;
                const crosshair = svg.getElementById('crosshair');
                const h = svg.getElementById('crosshair-h');
                const v = svg.getElementById('crosshair-v');
                const coords = svg.getElementById('coordinates');
                
                crosshair.style.display = 'block';
                h.setAttribute('x1', '0');
                h.setAttribute('x2', '1024');
                h.setAttribute('y1', y);
                h.setAttribute('y2', y);
                v.setAttribute('x1', x);
                v.setAttribute('x2', x);
                v.setAttribute('y1', '0');
                v.setAttribute('y2', '1024');

                // Calculate real coordinates using inverse transformation
                const matrix = {"a":94.39999999999996,"c":0,"e":511.99999999999994,"b":0,"d":-94.39999999999996,"f":512.0000000000001};
                // Manually invert and apply the affine transform
                // Since we only use translate and scale, we can directly compute:
                // x' = (x - tx) / sx
                // y' = (y - ty) / sy
                const sx = matrix.a;
                const sy = matrix.d;
                const tx = matrix.e; 
                const ty = matrix.f;
                const realPoint = {
                  x: (x - tx) / sx,
                  y: (y - ty) / sy // Flip y back since we used negative scale
                }
                
                coords.textContent = `(${realPoint.x.toFixed(2)}, ${realPoint.y.toFixed(2)})`;
                coords.setAttribute('x', (x + 5).toString());
                coords.setAttribute('y', (y - 5).toString());
              });
              document.currentScript.parentElement.addEventListener('mouseleave', () => {
                document.currentScript.parentElement.getElementById('crosshair').style.display = 'none';
              });
            ]]></script></svg>