<svg width="1024" height="1024" viewBox="0 0 1024 1024" xmlns="http://www.w3.org/2000/svg"><rect width="100%" height="100%" fill="white"/><g><circle data-type="point" data-label="conn_000" data-x="5" data-y="3.74" cx="983.9999999999998" cy="158.94400000000024" r="28.792" fill="red" stroke="#740fbd" stroke-width="28.792"/></g><g><circle data-type="point" data-label="conn_000" data-x="-5" data-y="-0.24" cx="40.000000000000114" cy="534.6560000000001" r="28.792" fill="red" stroke="#740fbd" stroke-width="28.792"/></g><g><circle data-type="point" data-label="conn_001" data-x="5" data-y="-2.72" cx="983.9999999999998" cy="768.768" r="28.792" fill="blue" stroke="#bda70f" stroke-width="28.792"/></g><g><circle data-type="point" data-label="conn_001" data-x="-5" data-y="-1.7" cx="40.000000000000114" cy="672.48" r="28.792" fill="red" stroke="#bda70f" stroke-width="28.792"/></g><g><circle data-type="point" data-label="conn_002" data-x="3.88" data-y="-5" cx="878.2719999999997" cy="984" r="28.792" fill="blue" stroke="#0fa0bd" stroke-width="28.792"/></g><g><circle data-type="point" data-label="conn_002" data-x="4.46" data-y="5" cx="933.0239999999998" cy="40.000000000000284" r="28.792" fill="red" stroke="#0fa0bd" stroke-width="28.792"/></g><g><circle data-type="point" data-label="conn_003" data-x="-3.66" data-y="5" cx="166.49600000000004" cy="40.000000000000284" r="28.792" fill="blue" stroke="#bd0f6d" stroke-width="28.792"/></g><g><circle data-type="point" data-label="conn_003" data-x="-1.86" data-y="-5" cx="336.416" cy="984" r="28.792" fill="red" stroke="#bd0f6d" stroke-width="28.792"/></g><g><polyline data-points="-3.6868686868686864,5.000000000000002 -3.5858585858585856,4.898989898989901 -3.484848484848485,4.7979797979797985 -3.383838383838383,4.696969696969697 -3.2828282828282824,4.595959595959597 -3.1818181818181817,4.494949494949497 -3.0808080808080804,4.393939393939394 -2.9797979797979792,4.292929292929293 -2.8787878787878785,4.191919191919193 -2.7777777777777777,4.090909090909092 -2.6767676767676765,3.989898989898992 -2.5757575757575752,3.8888888888888893 -2.474747474747474,3.7878787878787885 -2.3737373737373733,3.6868686868686877 -2.2727272727272725,3.5858585858585874 -2.1717171717171713,3.4848484848484866 -2.07070707070707,3.383838383838384 -1.9696969696969693,3.2828282828282833 -1.8686868686868683,3.181818181818183 -1.8686868686868683,3.080808080808082 -1.8686868686868683,2.9797979797979806 -1.8686868686868683,2.87878787878788 -1.8686868686868683,2.7777777777777786 -1.8686868686868683,2.676767676767678 -1.8686868686868683,2.575757575757577 -1.8686868686868683,2.4747474747474754 -1.8686868686868683,2.373737373737375 -1.8686868686868683,2.2727272727272734 -1.8686868686868683,2.1717171717171726 -1.8686868686868683,2.070707070707072 -1.8686868686868683,1.9696969696969702 -1.8686868686868683,1.8686868686868696 -1.8686868686868683,1.767676767676768 -1.8686868686868683,1.6666666666666674 -1.8686868686868683,1.5656565656565666 -1.8686868686868683,1.4646464646464652 -1.8686868686868683,1.3636363636363644 -1.8686868686868683,1.262626262626263 -1.8686868686868683,1.1616161616161622 -1.8686868686868683,1.0606060606060617 -1.8686868686868683,0.9595959595959602 -1.8686868686868683,0.8585858585858596 -1.8686868686868683,0.7575757575757579 -1.8686868686868683,0.6565656565656574 -1.8686868686868683,0.5555555555555567 -1.8686868686868683,0.4545454545454551 -1.8686868686868683,0.3535353535353544 -1.8686868686868683,0.2525252525252529 -1.8686868686868683,0.1515151515151522 -1.8686868686868683,0.050505050505051545 -1.8686868686868683,-0.05050505050505001 -1.8686868686868683,-0.15151515151515066 -1.8686868686868683,-0.2525252525252522 -1.8686868686868683,-0.35353535353535287 -1.8686868686868683,-0.4545454545454544 -1.8686868686868683,-0.555555555555555 -1.8686868686868683,-0.6565656565656557 -1.8686868686868683,-0.7575757575757572 -1.8686868686868683,-0.8585858585858579 -1.8686868686868683,-0.9595959595959596 -1.8686868686868683,-1.0606060606060603 -1.8686868686868683,-1.1616161616161613 -1.8686868686868683,-1.2626262626262625 -1.8686868686868683,-1.363636363636363 -1.8686868686868683,-1.4646464646464643 -1.8686868686868683,-1.5656565656565653 -1.8686868686868683,-1.6666666666666665 -1.8686868686868683,-1.7676767676767675 -1.8686868686868683,-1.8686868686868683 -1.8686868686868683,-1.9696969696969693 -1.8686868686868683,-2.07070707070707 -1.8686868686868683,-2.1717171717171713 -1.8686868686868683,-2.2727272727272725 -1.8686868686868683,-2.3737373737373733 -1.8686868686868683,-2.474747474747474 -1.8686868686868683,-2.5757575757575752 -1.8686868686868683,-2.6767676767676765 -1.8686868686868683,-2.7777777777777777 -1.8686868686868683,-2.8787878787878785 -1.8686868686868683,-2.9797979797979792 -1.8686868686868683,-3.0808080808080804 -1.8686868686868683,-3.1818181818181817 -1.8686868686868683,-3.2828282828282824 -1.8686868686868683,-3.383838383838383 -1.8686868686868683,-3.484848484848485 -1.8686868686868683,-3.5858585858585856 -1.8686868686868683,-3.6868686868686864 -1.8686868686868683,-3.7878787878787876 -1.8686868686868683,-3.8888888888888884 -1.8686868686868683,-3.98989898989899" data-type="line" data-label="" points="163.95959595959607,40.000000000000114 173.4949494949496,49.53535353535369 183.03030303030312,59.07070707070733 192.5656565656567,68.60606060606085 202.10101010101022,78.14141414141432 211.63636363636374,87.67676767676778 221.17171717171726,97.21212121212153 230.70707070707084,106.747474747475 240.2424242424243,116.28282828282846 249.77777777777783,125.81818181818198 259.3131313131314,135.35353535353545 268.84848484848493,144.88888888888908 278.38383838383845,154.4242424242426 287.91919191919203,163.95959595959613 297.4545454545455,173.4949494949496 306.9898989898991,183.03030303030312 316.5252525252526,192.56565656565675 326.0606060606061,202.10101010101027 335.59595959595964,211.63636363636374 335.59595959595964,221.17171717171726 335.59595959595964,230.70707070707084 335.59595959595964,240.24242424242436 335.59595959595964,249.77777777777794 335.59595959595964,259.3131313131314 335.59595959595964,268.84848484848493 335.59595959595964,278.38383838383857 335.59595959595964,287.91919191919203 335.59595959595964,297.4545454545456 335.59595959595964,306.9898989898991 335.59595959595964,316.5252525252526 335.59595959595964,326.06060606060623 335.59595959595964,335.5959595959597 335.59595959595964,345.1313131313133 335.59595959595964,354.66666666666674 335.59595959595964,364.2020202020203 335.59595959595964,373.73737373737384 335.59595959595964,383.27272727272737 335.59595959595964,392.80808080808094 335.59595959595964,402.3434343434344 335.59595959595964,411.87878787878793 335.59595959595964,421.4141414141415 335.59595959595964,430.94949494949503 335.59595959595964,440.4848484848486 335.59595959595964,450.0202020202021 335.59595959595964,459.5555555555556 335.59595959595964,469.0909090909092 335.59595959595964,478.6262626262627 335.59595959595964,488.1616161616163 335.59595959595964,497.69696969696975 335.59595959595964,507.23232323232327 335.59595959595964,516.7676767676768 335.59595959595964,526.3030303030304 335.59595959595964,535.838383838384 335.59595959595964,545.3737373737374 335.59595959595964,554.909090909091 335.59595959595964,564.4444444444445 335.59595959595964,573.979797979798 335.59595959595964,583.5151515151516 335.59595959595964,593.0505050505051 335.59595959595964,602.5858585858587 335.59595959595964,612.1212121212121 335.59595959595964,621.6565656565657 335.59595959595964,631.1919191919193 335.59595959595964,640.7272727272727 335.59595959595964,650.2626262626263 335.59595959595964,659.7979797979798 335.59595959595964,669.3333333333334 335.59595959595964,678.8686868686868 335.59595959595964,688.4040404040404 335.59595959595964,697.939393939394 335.59595959595964,707.4747474747475 335.59595959595964,717.010101010101 335.59595959595964,726.5454545454545 335.59595959595964,736.0808080808081 335.59595959595964,745.6161616161615 335.59595959595964,755.1515151515151 335.59595959595964,764.6868686868687 335.59595959595964,774.2222222222222 335.59595959595964,783.7575757575758 335.59595959595964,793.2929292929292 335.59595959595964,802.8282828282828 335.59595959595964,812.3636363636363 335.59595959595964,821.8989898989898 335.59595959595964,831.4343434343434 335.59595959595964,840.969696969697 335.59595959595964,850.5050505050505 335.59595959595964,860.0404040404039 335.59595959595964,869.5757575757575 335.59595959595964,879.1111111111111 335.59595959595964,888.6464646464647" fill="none" stroke="rgba(0,0,255,0.75)" stroke-width="14.159999999999995"/></g><g><polyline data-points="-1.8686868686868683,-3.98989898989899 -1.8686868686868683,-4.090909090909091 -1.8686868686868683,-4.191919191919193 -1.8686868686868683,-4.292929292929293 -1.8686868686868683,-4.393939393939394 -1.8686868686868683,-4.494949494949496 -1.8686868686868683,-4.595959595959596 -1.8686868686868683,-4.696969696969697 -1.8686868686868683,-4.7979797979797985 -1.8686868686868683,-4.898989898989899 -1.8686868686868683,-5.000000000000001" data-type="line" data-label="" points="335.59595959595964,888.6464646464647 335.59595959595964,898.1818181818181 335.59595959595964,907.7171717171718 335.59595959595964,917.2525252525252 335.59595959595964,926.7878787878788 335.59595959595964,936.3232323232323 335.59595959595964,945.8585858585858 335.59595959595964,955.3939393939394 335.59595959595964,964.9292929292928 335.59595959595964,974.4646464646464 335.59595959595964,984" fill="none" stroke="rgba(255,0,0,0.75)" stroke-width="14.159999999999995"/></g><g><polyline data-points="5.000000000000002,3.7878787878787885 4.898989898989901,3.6868686868686877 4.7979797979797985,3.5858585858585874 4.696969696969697,3.4848484848484866 4.595959595959597,3.383838383838384 4.494949494949497,3.2828282828282833 4.393939393939394,3.181818181818183 4.292929292929293,3.080808080808082 4.191919191919193,2.9797979797979806 4.090909090909092,2.87878787878788 3.989898989898992,2.7777777777777786 3.8888888888888893,2.676767676767678 3.7878787878787885,2.575757575757577 3.6868686868686877,2.4747474747474754 3.5858585858585874,2.373737373737375 3.4848484848484866,2.2727272727272734 3.383838383838384,2.1717171717171726 3.2828282828282833,2.070707070707072 3.181818181818183,1.9696969696969702 3.080808080808082,1.8686868686868696 2.9797979797979806,1.767676767676768 2.87878787878788,1.6666666666666674 2.7777777777777786,1.5656565656565666 2.676767676767678,1.4646464646464652 2.575757575757577,1.3636363636363644 2.4747474747474754,1.262626262626263 2.373737373737375,1.1616161616161622 2.2727272727272734,1.0606060606060617 2.1717171717171726,0.9595959595959602 2.070707070707072,0.8585858585858596 1.9696969696969702,0.7575757575757579 1.8686868686868696,0.6565656565656574 1.767676767676768,0.5555555555555567 1.6666666666666674,0.4545454545454551 1.5656565656565666,0.3535353535353544 1.4646464646464652,0.2525252525252529 1.3636363636363644,0.1515151515151522 1.262626262626263,0.050505050505051545 1.1616161616161622,-0.05050505050505001 1.0606060606060617,-0.15151515151515066 0.9595959595959602,-0.2525252525252522 0.8585858585858596,-0.2525252525252522 0.7575757575757579,-0.2525252525252522 0.6565656565656574,-0.2525252525252522 0.5555555555555567,-0.2525252525252522 0.4545454545454551,-0.2525252525252522 0.3535353535353544,-0.2525252525252522 0.2525252525252529,-0.2525252525252522 0.1515151515151522,-0.2525252525252522 0.050505050505051545,-0.2525252525252522 -0.05050505050505001,-0.2525252525252522 -0.15151515151515066,-0.2525252525252522 -0.2525252525252522,-0.2525252525252522 -0.35353535353535287,-0.2525252525252522 -0.4545454545454544,-0.2525252525252522 -0.555555555555555,-0.2525252525252522 -0.6565656565656557,-0.2525252525252522 -0.7575757575757572,-0.2525252525252522 -0.8585858585858579,-0.2525252525252522 -0.9595959595959596,-0.2525252525252522 -1.0606060606060603,-0.2525252525252522 -1.1616161616161613,-0.2525252525252522 -1.2626262626262625,-0.2525252525252522 -1.363636363636363,-0.2525252525252522 -1.4646464646464643,-0.2525252525252522 -1.5656565656565653,-0.2525252525252522 -1.6666666666666665,-0.2525252525252522 -1.7676767676767675,-0.2525252525252522 -1.8686868686868683,-0.2525252525252522 -1.9696969696969693,-0.2525252525252522 -2.07070707070707,-0.2525252525252522 -2.1717171717171713,-0.2525252525252522 -2.2727272727272725,-0.2525252525252522 -2.3737373737373733,-0.2525252525252522 -2.474747474747474,-0.2525252525252522 -2.5757575757575752,-0.2525252525252522 -2.6767676767676765,-0.2525252525252522 -2.7777777777777777,-0.2525252525252522 -2.8787878787878785,-0.2525252525252522 -2.9797979797979792,-0.2525252525252522 -3.0808080808080804,-0.2525252525252522 -3.1818181818181817,-0.2525252525252522 -3.2828282828282824,-0.2525252525252522 -3.383838383838383,-0.2525252525252522 -3.484848484848485,-0.2525252525252522 -3.5858585858585856,-0.2525252525252522 -3.6868686868686864,-0.2525252525252522 -3.7878787878787876,-0.2525252525252522 -3.8888888888888884,-0.2525252525252522 -3.98989898989899,-0.2525252525252522 -4.090909090909091,-0.2525252525252522 -4.191919191919193,-0.2525252525252522 -4.292929292929293,-0.2525252525252522 -4.393939393939394,-0.2525252525252522 -4.494949494949496,-0.2525252525252522 -4.595959595959596,-0.2525252525252522 -4.696969696969697,-0.2525252525252522 -4.7979797979797985,-0.2525252525252522 -4.898989898989899,-0.2525252525252522 -5.000000000000001,-0.2525252525252522" data-type="line" data-label="" points="984,154.4242424242426 974.4646464646464,163.95959595959613 964.9292929292927,173.4949494949496 955.3939393939393,183.03030303030312 945.8585858585857,192.56565656565675 936.3232323232323,202.10101010101027 926.7878787878785,211.63636363636374 917.2525252525251,221.17171717171726 907.7171717171716,230.70707070707084 898.181818181818,240.24242424242436 888.6464646464647,249.77777777777794 879.111111111111,259.3131313131314 869.5757575757575,268.84848484848493 860.0404040404039,278.38383838383857 850.5050505050505,287.91919191919203 840.969696969697,297.4545454545456 831.4343434343433,306.9898989898991 821.8989898989898,316.5252525252526 812.3636363636363,326.06060606060623 802.8282828282828,335.5959595959597 793.2929292929292,345.1313131313133 783.7575757575758,354.66666666666674 774.2222222222222,364.2020202020203 764.6868686868686,373.73737373737384 755.1515151515151,383.27272727272737 745.6161616161615,392.80808080808094 736.0808080808081,402.3434343434344 726.5454545454545,411.87878787878793 717.0101010101009,421.4141414141415 707.4747474747475,430.94949494949503 697.9393939393939,440.4848484848486 688.4040404040404,450.0202020202021 678.8686868686868,459.5555555555556 669.3333333333333,469.0909090909092 659.7979797979798,478.6262626262627 650.2626262626262,488.1616161616163 640.7272727272727,497.69696969696975 631.1919191919192,507.23232323232327 621.6565656565656,516.7676767676768 612.1212121212121,526.3030303030304 602.5858585858585,535.838383838384 593.0505050505051,535.838383838384 583.5151515151515,535.838383838384 573.9797979797979,535.838383838384 564.4444444444445,535.838383838384 554.9090909090909,535.838383838384 545.3737373737374,535.838383838384 535.8383838383838,535.838383838384 526.3030303030303,535.838383838384 516.7676767676768,535.838383838384 507.2323232323232,535.838383838384 497.69696969696975,535.838383838384 488.16161616161617,535.838383838384 478.62626262626264,535.838383838384 469.09090909090907,535.838383838384 459.55555555555554,535.838383838384 450.0202020202021,535.838383838384 440.4848484848485,535.838383838384 430.949494949495,535.838383838384 421.4141414141414,535.838383838384 411.8787878787879,535.838383838384 402.34343434343435,535.838383838384 392.80808080808083,535.838383838384 383.2727272727273,535.838383838384 373.7373737373738,535.838383838384 364.2020202020202,535.838383838384 354.6666666666667,535.838383838384 345.13131313131316,535.838383838384 335.59595959595964,535.838383838384 326.0606060606061,535.838383838384 316.5252525252526,535.838383838384 306.9898989898991,535.838383838384 297.4545454545455,535.838383838384 287.91919191919203,535.838383838384 278.38383838383845,535.838383838384 268.84848484848493,535.838383838384 259.3131313131314,535.838383838384 249.77777777777783,535.838383838384 240.2424242424243,535.838383838384 230.70707070707084,535.838383838384 221.17171717171726,535.838383838384 211.63636363636374,535.838383838384 202.10101010101022,535.838383838384 192.5656565656567,535.838383838384 183.03030303030312,535.838383838384 173.4949494949496,535.838383838384 163.95959595959607,535.838383838384 154.42424242424255,535.838383838384 144.88888888888903,535.838383838384 135.35353535353545,535.838383838384 125.81818181818193,535.838383838384 116.28282828282829,535.838383838384 106.74747474747483,535.838383838384 97.21212121212136,535.838383838384 87.67676767676772,535.838383838384 78.14141414141426,535.838383838384 68.60606060606068,535.838383838384 59.07070707070716,535.838383838384 49.53535353535369,535.838383838384 40.00000000000006,535.838383838384" fill="none" stroke="rgba(255,0,0,0.75)" stroke-width="14.159999999999995"/></g><g><polyline data-points="5.000000000000002,-2.7777777777777777 4.898989898989901,-2.6767676767676765 4.7979797979797985,-2.5757575757575752 4.696969696969697,-2.474747474747474 4.595959595959597,-2.3737373737373733 4.494949494949497,-2.2727272727272725 4.393939393939394,-2.1717171717171713 4.292929292929293,-2.07070707070707 4.191919191919193,-1.9696969696969693 4.090909090909092,-1.8686868686868683 3.989898989898992,-1.7676767676767675 3.8888888888888893,-1.7676767676767675 3.7878787878787885,-1.7676767676767675 3.6868686868686877,-1.7676767676767675 3.5858585858585874,-1.7676767676767675 3.4848484848484866,-1.7676767676767675 3.383838383838384,-1.7676767676767675 3.2828282828282833,-1.7676767676767675 3.181818181818183,-1.7676767676767675 3.080808080808082,-1.7676767676767675 2.9797979797979806,-1.7676767676767675 2.87878787878788,-1.7676767676767675 2.7777777777777786,-1.7676767676767675 2.676767676767678,-1.7676767676767675 2.575757575757577,-1.7676767676767675 2.4747474747474754,-1.7676767676767675 2.373737373737375,-1.7676767676767675 2.2727272727272734,-1.7676767676767675 2.1717171717171726,-1.7676767676767675 2.070707070707072,-1.7676767676767675 1.9696969696969702,-1.7676767676767675 1.8686868686868696,-1.7676767676767675 1.767676767676768,-1.7676767676767675 1.6666666666666674,-1.7676767676767675 1.5656565656565666,-1.7676767676767675 1.4646464646464652,-1.7676767676767675 1.3636363636363644,-1.7676767676767675 1.262626262626263,-1.7676767676767675 1.1616161616161622,-1.7676767676767675 1.0606060606060617,-1.7676767676767675 0.9595959595959602,-1.7676767676767675 0.8585858585858596,-1.7676767676767675 0.7575757575757579,-1.7676767676767675 0.6565656565656574,-1.7676767676767675 0.5555555555555567,-1.7676767676767675 0.4545454545454551,-1.7676767676767675 0.3535353535353544,-1.7676767676767675 0.2525252525252529,-1.7676767676767675 0.1515151515151522,-1.7676767676767675 0.050505050505051545,-1.7676767676767675 -0.05050505050505001,-1.7676767676767675 -0.15151515151515066,-1.7676767676767675 -0.2525252525252522,-1.7676767676767675 -0.35353535353535287,-1.7676767676767675 -0.4545454545454544,-1.7676767676767675 -0.555555555555555,-1.7676767676767675 -0.6565656565656557,-1.7676767676767675 -0.7575757575757572,-1.7676767676767675 -0.8585858585858579,-1.7676767676767675 -0.9595959595959596,-1.7676767676767675 -1.0606060606060603,-1.7676767676767675 -1.1616161616161613,-1.7676767676767675 -1.2626262626262625,-1.7676767676767675" data-type="line" data-label="" points="984,774.2222222222222 974.4646464646464,764.6868686868687 964.9292929292927,755.1515151515151 955.3939393939393,745.6161616161615 945.8585858585857,736.0808080808081 936.3232323232323,726.5454545454545 926.7878787878785,717.010101010101 917.2525252525251,707.4747474747475 907.7171717171716,697.939393939394 898.181818181818,688.4040404040404 888.6464646464647,678.8686868686868 879.111111111111,678.8686868686868 869.5757575757575,678.8686868686868 860.0404040404039,678.8686868686868 850.5050505050505,678.8686868686868 840.969696969697,678.8686868686868 831.4343434343433,678.8686868686868 821.8989898989898,678.8686868686868 812.3636363636363,678.8686868686868 802.8282828282828,678.8686868686868 793.2929292929292,678.8686868686868 783.7575757575758,678.8686868686868 774.2222222222222,678.8686868686868 764.6868686868686,678.8686868686868 755.1515151515151,678.8686868686868 745.6161616161615,678.8686868686868 736.0808080808081,678.8686868686868 726.5454545454545,678.8686868686868 717.0101010101009,678.8686868686868 707.4747474747475,678.8686868686868 697.9393939393939,678.8686868686868 688.4040404040404,678.8686868686868 678.8686868686868,678.8686868686868 669.3333333333333,678.8686868686868 659.7979797979798,678.8686868686868 650.2626262626262,678.8686868686868 640.7272727272727,678.8686868686868 631.1919191919192,678.8686868686868 621.6565656565656,678.8686868686868 612.1212121212121,678.8686868686868 602.5858585858585,678.8686868686868 593.0505050505051,678.8686868686868 583.5151515151515,678.8686868686868 573.9797979797979,678.8686868686868 564.4444444444445,678.8686868686868 554.9090909090909,678.8686868686868 545.3737373737374,678.8686868686868 535.8383838383838,678.8686868686868 526.3030303030303,678.8686868686868 516.7676767676768,678.8686868686868 507.2323232323232,678.8686868686868 497.69696969696975,678.8686868686868 488.16161616161617,678.8686868686868 478.62626262626264,678.8686868686868 469.09090909090907,678.8686868686868 459.55555555555554,678.8686868686868 450.0202020202021,678.8686868686868 440.4848484848485,678.8686868686868 430.949494949495,678.8686868686868 421.4141414141414,678.8686868686868 411.8787878787879,678.8686868686868 402.34343434343435,678.8686868686868 392.80808080808083,678.8686868686868" fill="none" stroke="rgba(0,0,255,0.75)" stroke-width="14.159999999999995"/></g><g><polyline data-points="-1.2626262626262625,-1.7676767676767675 -1.363636363636363,-1.7676767676767675 -1.4646464646464643,-1.7676767676767675 -1.5656565656565653,-1.7676767676767675 -1.6666666666666665,-1.7676767676767675 -1.7676767676767675,-1.7676767676767675 -1.8686868686868683,-1.7676767676767675 -1.9696969696969693,-1.7676767676767675 -2.07070707070707,-1.7676767676767675 -2.1717171717171713,-1.7676767676767675 -2.2727272727272725,-1.7676767676767675 -2.3737373737373733,-1.7676767676767675 -2.474747474747474,-1.7676767676767675 -2.5757575757575752,-1.7676767676767675 -2.6767676767676765,-1.7676767676767675 -2.7777777777777777,-1.7676767676767675 -2.8787878787878785,-1.7676767676767675 -2.9797979797979792,-1.7676767676767675 -3.0808080808080804,-1.7676767676767675 -3.1818181818181817,-1.7676767676767675 -3.2828282828282824,-1.7676767676767675 -3.383838383838383,-1.7676767676767675 -3.484848484848485,-1.7676767676767675 -3.5858585858585856,-1.7676767676767675 -3.6868686868686864,-1.7676767676767675 -3.7878787878787876,-1.7676767676767675 -3.8888888888888884,-1.7676767676767675 -3.98989898989899,-1.7676767676767675 -4.090909090909091,-1.7676767676767675 -4.191919191919193,-1.7676767676767675 -4.292929292929293,-1.7676767676767675 -4.393939393939394,-1.7676767676767675 -4.494949494949496,-1.7676767676767675 -4.595959595959596,-1.7676767676767675 -4.696969696969697,-1.7676767676767675 -4.7979797979797985,-1.7676767676767675 -4.898989898989899,-1.7676767676767675 -5.000000000000001,-1.7676767676767675" data-type="line" data-label="" points="392.80808080808083,678.8686868686868 383.2727272727273,678.8686868686868 373.7373737373738,678.8686868686868 364.2020202020202,678.8686868686868 354.6666666666667,678.8686868686868 345.13131313131316,678.8686868686868 335.59595959595964,678.8686868686868 326.0606060606061,678.8686868686868 316.5252525252526,678.8686868686868 306.9898989898991,678.8686868686868 297.4545454545455,678.8686868686868 287.91919191919203,678.8686868686868 278.38383838383845,678.8686868686868 268.84848484848493,678.8686868686868 259.3131313131314,678.8686868686868 249.77777777777783,678.8686868686868 240.2424242424243,678.8686868686868 230.70707070707084,678.8686868686868 221.17171717171726,678.8686868686868 211.63636363636374,678.8686868686868 202.10101010101022,678.8686868686868 192.5656565656567,678.8686868686868 183.03030303030312,678.8686868686868 173.4949494949496,678.8686868686868 163.95959595959607,678.8686868686868 154.42424242424255,678.8686868686868 144.88888888888903,678.8686868686868 135.35353535353545,678.8686868686868 125.81818181818193,678.8686868686868 116.28282828282829,678.8686868686868 106.74747474747483,678.8686868686868 97.21212121212136,678.8686868686868 87.67676767676772,678.8686868686868 78.14141414141426,678.8686868686868 68.60606060606068,678.8686868686868 59.07070707070716,678.8686868686868 49.53535353535369,678.8686868686868 40.00000000000006,678.8686868686868" fill="none" stroke="rgba(255,0,0,0.75)" stroke-width="14.159999999999995"/></g><g><polyline data-points="3.8888888888888893,-5.000000000000001 3.8888888888888893,-4.898989898989899 3.8888888888888893,-4.7979797979797985 3.8888888888888893,-4.696969696969697 3.8888888888888893,-4.595959595959596 3.8888888888888893,-4.494949494949496 3.8888888888888893,-4.393939393939394 3.8888888888888893,-4.292929292929293 3.8888888888888893,-4.191919191919193 3.8888888888888893,-4.090909090909091 3.8888888888888893,-3.98989898989899 3.8888888888888893,-3.8888888888888884 3.8888888888888893,-3.7878787878787876 3.8888888888888893,-3.6868686868686864 3.8888888888888893,-3.5858585858585856 3.8888888888888893,-3.484848484848485 3.8888888888888893,-3.383838383838383 3.8888888888888893,-3.2828282828282824 3.8888888888888893,-3.1818181818181817 3.8888888888888893,-3.0808080808080804 3.8888888888888893,-2.9797979797979792 3.8888888888888893,-2.8787878787878785 3.8888888888888893,-2.7777777777777777 3.8888888888888893,-2.6767676767676765 3.8888888888888893,-2.5757575757575752 3.8888888888888893,-2.474747474747474" data-type="line" data-label="" points="879.111111111111,984 879.111111111111,974.4646464646464 879.111111111111,964.9292929292928 879.111111111111,955.3939393939394 879.111111111111,945.8585858585858 879.111111111111,936.3232323232323 879.111111111111,926.7878787878788 879.111111111111,917.2525252525252 879.111111111111,907.7171717171718 879.111111111111,898.1818181818181 879.111111111111,888.6464646464647 879.111111111111,879.1111111111111 879.111111111111,869.5757575757575 879.111111111111,860.0404040404039 879.111111111111,850.5050505050505 879.111111111111,840.969696969697 879.111111111111,831.4343434343434 879.111111111111,821.8989898989898 879.111111111111,812.3636363636363 879.111111111111,802.8282828282828 879.111111111111,793.2929292929292 879.111111111111,783.7575757575758 879.111111111111,774.2222222222222 879.111111111111,764.6868686868687 879.111111111111,755.1515151515151 879.111111111111,745.6161616161615" fill="none" stroke="rgba(0,0,255,0.75)" stroke-width="14.159999999999995"/></g><g><polyline data-points="3.8888888888888893,-2.474747474747474 3.8888888888888893,-2.3737373737373733 3.8888888888888893,-2.2727272727272725 3.8888888888888893,-2.1717171717171713 3.8888888888888893,-2.07070707070707 3.8888888888888893,-1.9696969696969693 3.8888888888888893,-1.8686868686868683 3.8888888888888893,-1.7676767676767675 3.8888888888888893,-1.6666666666666665 3.8888888888888893,-1.5656565656565653 3.8888888888888893,-1.4646464646464643 3.8888888888888893,-1.363636363636363 3.8888888888888893,-1.2626262626262625 3.8888888888888893,-1.1616161616161613 3.8888888888888893,-1.0606060606060603 3.8888888888888893,-0.9595959595959596 3.8888888888888893,-0.8585858585858579 3.8888888888888893,-0.7575757575757572 3.8888888888888893,-0.6565656565656557 3.8888888888888893,-0.555555555555555 3.8888888888888893,-0.4545454545454544 3.8888888888888893,-0.35353535353535287 3.8888888888888893,-0.2525252525252522 3.8888888888888893,-0.15151515151515066 3.8888888888888893,-0.05050505050505001 3.8888888888888893,0.050505050505051545 3.8888888888888893,0.1515151515151522 3.8888888888888893,0.2525252525252529 3.8888888888888893,0.3535353535353544 3.8888888888888893,0.4545454545454551 3.8888888888888893,0.5555555555555567 3.8888888888888893,0.6565656565656574 3.8888888888888893,0.7575757575757579 3.8888888888888893,0.8585858585858596 3.8888888888888893,0.9595959595959602 3.8888888888888893,1.0606060606060617 3.8888888888888893,1.1616161616161622 3.8888888888888893,1.262626262626263 3.8888888888888893,1.3636363636363644 3.8888888888888893,1.4646464646464652 3.8888888888888893,1.5656565656565666 3.8888888888888893,1.6666666666666674 3.8888888888888893,1.767676767676768 3.8888888888888893,1.8686868686868696" data-type="line" data-label="" points="879.111111111111,745.6161616161615 879.111111111111,736.0808080808081 879.111111111111,726.5454545454545 879.111111111111,717.010101010101 879.111111111111,707.4747474747475 879.111111111111,697.939393939394 879.111111111111,688.4040404040404 879.111111111111,678.8686868686868 879.111111111111,669.3333333333334 879.111111111111,659.7979797979798 879.111111111111,650.2626262626263 879.111111111111,640.7272727272727 879.111111111111,631.1919191919193 879.111111111111,621.6565656565657 879.111111111111,612.1212121212121 879.111111111111,602.5858585858587 879.111111111111,593.0505050505051 879.111111111111,583.5151515151516 879.111111111111,573.979797979798 879.111111111111,564.4444444444445 879.111111111111,554.909090909091 879.111111111111,545.3737373737374 879.111111111111,535.838383838384 879.111111111111,526.3030303030304 879.111111111111,516.7676767676768 879.111111111111,507.23232323232327 879.111111111111,497.69696969696975 879.111111111111,488.1616161616163 879.111111111111,478.6262626262627 879.111111111111,469.0909090909092 879.111111111111,459.5555555555556 879.111111111111,450.0202020202021 879.111111111111,440.4848484848486 879.111111111111,430.94949494949503 879.111111111111,421.4141414141415 879.111111111111,411.87878787878793 879.111111111111,402.3434343434344 879.111111111111,392.80808080808094 879.111111111111,383.27272727272737 879.111111111111,373.73737373737384 879.111111111111,364.2020202020203 879.111111111111,354.66666666666674 879.111111111111,345.1313131313133 879.111111111111,335.5959595959597" fill="none" stroke="rgba(255,0,0,0.75)" stroke-width="14.159999999999995"/></g><g><polyline data-points="3.8888888888888893,1.8686868686868696 3.8888888888888893,1.9696969696969702 3.8888888888888893,2.070707070707072 3.8888888888888893,2.1717171717171726 3.8888888888888893,2.2727272727272734 3.8888888888888893,2.373737373737375 3.8888888888888893,2.4747474747474754 3.8888888888888893,2.575757575757577 3.8888888888888893,2.676767676767678 3.8888888888888893,2.7777777777777786 3.8888888888888893,2.87878787878788 3.8888888888888893,2.9797979797979806 3.8888888888888893,3.080808080808082 3.8888888888888893,3.181818181818183 3.8888888888888893,3.2828282828282833 3.8888888888888893,3.383838383838384 3.8888888888888893,3.4848484848484866 3.8888888888888893,3.5858585858585874 3.8888888888888893,3.6868686868686877 3.8888888888888893,3.7878787878787885 3.989898989898992,3.8888888888888893" data-type="line" data-label="" points="879.111111111111,335.5959595959597 879.111111111111,326.06060606060623 879.111111111111,316.5252525252526 879.111111111111,306.9898989898991 879.111111111111,297.4545454545456 879.111111111111,287.91919191919203 879.111111111111,278.38383838383857 879.111111111111,268.84848484848493 879.111111111111,259.3131313131314 879.111111111111,249.77777777777794 879.111111111111,240.24242424242436 879.111111111111,230.70707070707084 879.111111111111,221.17171717171726 879.111111111111,211.63636363636374 879.111111111111,202.10101010101027 879.111111111111,192.56565656565675 879.111111111111,183.03030303030312 879.111111111111,173.4949494949496 879.111111111111,163.95959595959613 879.111111111111,154.4242424242426 888.6464646464647,144.88888888888908" fill="none" stroke="rgba(0,0,255,0.75)" stroke-width="14.159999999999995"/></g><g><polyline data-points="3.989898989898992,3.8888888888888893 4.090909090909092,3.989898989898992 4.191919191919193,4.090909090909092 4.292929292929293,4.191919191919193 4.393939393939394,4.292929292929293 4.393939393939394,4.393939393939394 4.393939393939394,4.494949494949497 4.393939393939394,4.595959595959597 4.393939393939394,4.696969696969697 4.393939393939394,4.7979797979797985 4.393939393939394,4.898989898989901 4.494949494949497,5.000000000000002" data-type="line" data-label="" points="888.6464646464647,144.88888888888908 898.181818181818,135.35353535353545 907.7171717171716,125.81818181818198 917.2525252525251,116.28282828282846 926.7878787878785,106.747474747475 926.7878787878785,97.21212121212153 926.7878787878785,87.67676767676778 926.7878787878785,78.14141414141432 926.7878787878785,68.60606060606085 926.7878787878785,59.07070707070733 926.7878787878785,49.53535353535369 936.3232323232323,40.000000000000114" fill="none" stroke="rgba(255,0,0,0.75)" stroke-width="14.159999999999995"/></g><g><rect data-type="rect" data-label="" data-x="0" data-y="0" x="40.000000000000114" y="40.000000000000284" width="943.9999999999997" height="943.9999999999998" fill="none" stroke="gray" stroke-width="0.010593220338983056"/></g><g><rect data-type="rect" data-label="" data-x="0" data-y="0" x="40.000000000000114" y="40.000000000000284" width="943.9999999999997" height="943.9999999999998" fill="none" stroke="rgba(15, 23, 42, 0.8)" stroke-width="0.010593220338983056"/></g><circle data-type="circle" data-label="" data-x="-1.8686868686868683" data-y="-3.98989898989899" cx="335.59595959595964" cy="888.6464646464647" r="28.791999999999987" fill="rgba(0,0,0,0.3)" stroke="black" stroke-width="0.010593220338983056"/><circle data-type="circle" data-label="" data-x="-1.2626262626262625" data-y="-1.7676767676767675" cx="392.80808080808083" cy="678.8686868686868" r="28.791999999999987" fill="rgba(0,0,0,0.3)" stroke="black" stroke-width="0.010593220338983056"/><circle data-type="circle" data-label="" data-x="3.8888888888888893" data-y="-2.474747474747474" cx="879.111111111111" cy="745.6161616161615" r="28.791999999999987" fill="rgba(0,0,0,0.3)" stroke="black" stroke-width="0.010593220338983056"/><circle data-type="circle" data-label="" data-x="3.8888888888888893" data-y="1.8686868686868696" cx="879.111111111111" cy="335.5959595959597" r="28.791999999999987" fill="rgba(0,0,0,0.3)" stroke="black" stroke-width="0.010593220338983056"/><circle data-type="circle" data-label="" data-x="3.989898989898992" data-y="3.8888888888888893" cx="888.6464646464647" cy="144.88888888888908" r="28.791999999999987" fill="rgba(0,0,0,0.3)" stroke="black" stroke-width="0.010593220338983056"/><g id="crosshair" style="display: none"><line id="crosshair-h" y1="0" y2="1024" stroke="#666" stroke-width="0.5"/><line id="crosshair-v" x1="0" x2="1024" stroke="#666" stroke-width="0.5"/><text id="coordinates" font-family="monospace" font-size="12" fill="#666"></text></g><script><![CDATA[
              document.currentScript.parentElement.addEventListener('mousemove', (e) => {
                const svg = e.currentTarget;
                const rect = svg.getBoundingClientRect();
                const x = e.clientX - rect.left;
                const y = e.clientY - rect.top;
                const crosshair = svg.getElementById('crosshair');
                const h = svg.getElementById('crosshair-h');
                const v = svg.getElementById('crosshair-v');
                const coords = svg.getElementById('coordinates');
                
                crosshair.style.display = 'block';
                h.setAttribute('x1', '0');
                h.setAttribute('x2', '1024');
                h.setAttribute('y1', y);
                h.setAttribute('y2', y);
                v.setAttribute('x1', x);
                v.setAttribute('x2', x);
                v.setAttribute('y1', '0');
                v.setAttribute('y2', '1024');

                // Calculate real coordinates using inverse transformation
                const matrix = {"a":94.39999999999996,"c":0,"e":511.99999999999994,"b":0,"d":-94.39999999999996,"f":512.0000000000001};
                // Manually invert and apply the affine transform
                // Since we only use translate and scale, we can directly compute:
                // x' = (x - tx) / sx
                // y' = (y - ty) / sy
                const sx = matrix.a;
                const sy = matrix.d;
                const tx = matrix.e; 
                const ty = matrix.f;
                const realPoint = {
                  x: (x - tx) / sx,
                  y: (y - ty) / sy // Flip y back since we used negative scale
                }
                
                coords.textContent = `(${realPoint.x.toFixed(2)}, ${realPoint.y.toFixed(2)})`;
                coords.setAttribute('x', (x + 5).toString());
                coords.setAttribute('y', (y - 5).toString());
              });
              document.currentScript.parentElement.addEventListener('mouseleave', () => {
                document.currentScript.parentElement.getElementById('crosshair').style.display = 'none';
              });
            ]]></script></svg>